  0
SECTION
  2
BLOCKS
  0
ENDSEC
  0
SECTION
  2
ENTITIES
  0
LINE
  8
0
 10
101.6
 20
101.6
 11
-101.6
 21
101.6
  0
LINE
  8
0
 10
-101.6
 20
101.6
 11
-101.6
 21
-101.6
  0
LINE
  8
0
 10
-101.6
 20
-101.6
 11
101.6
 21
-101.6
  0
LINE
  8
0
 10
101.6
 20
-101.6
 11
101.6
 21
101.6
  0
LINE
  8
0
 10
-38.15
 20
-48.95
 11
-38.15
 21
-36.2
  0
LINE
  8
0
 10
-38.15
 20
-36.2
 11
38.15
 21
-36.2
  0
LINE
  8
0
 10
38.15
 20
-36.2
 11
38.15
 21
-48.95
  0
LINE
  8
0
 10
38.15
 20
-48.95
 11
-38.15
 21
-48.95
  0
ENDSEC
  0
SECTION
  2
OBJECTS
  0
DICTIONARY
  0
ENDSEC
  0
EOF
