  0
SECTION
  2
BLOCKS
  0
ENDSEC
  0
SECTION
  2
ENTITIES
  0
LINE
  8
0
 10
20
 20
25
 11
-20
 21
25
  0
LINE
  8
0
 10
-20
 20
25
 11
-20
 21
-25
  0
LINE
  8
0
 10
-20
 20
-25
 11
20
 21
-25
  0
LINE
  8
0
 10
20
 20
-25
 11
20
 21
25
  0
LINE
  8
0
 10
-0.211914
 20
-3.36833
 11
-0.422989
 21
-3.34837
  0
LINE
  8
0
 10
-0.422989
 20
-3.34837
 11
-0.632401
 21
-3.31522
  0
LINE
  8
0
 10
-0.632401
 20
-3.31522
 11
-0.839325
 21
-3.26897
  0
LINE
  8
0
 10
-0.839325
 20
-3.26897
 11
-1.04292
 21
-3.20981
  0
LINE
  8
0
 10
-1.04292
 20
-3.20981
 11
-1.24242
 21
-3.13799
  0
LINE
  8
0
 10
-1.24242
 20
-3.13799
 11
-1.437
 21
-3.05379
  0
LINE
  8
0
 10
-1.437
 20
-3.05379
 11
-1.62592
 21
-2.95753
  0
LINE
  8
0
 10
-1.62592
 20
-2.95753
 11
-1.80841
 21
-2.84959
  0
LINE
  8
0
 10
-1.80841
 20
-2.84959
 11
-1.98376
 21
-2.73042
  0
LINE
  8
0
 10
-1.98376
 20
-2.73042
 11
-2.15129
 21
-2.60048
  0
LINE
  8
0
 10
-2.15129
 20
-2.60048
 11
-2.31033
 21
-2.46027
  0
LINE
  8
0
 10
-2.31033
 20
-2.46027
 11
-2.46027
 21
-2.31033
  0
LINE
  8
0
 10
-2.46027
 20
-2.31033
 11
-2.60048
 21
-2.15129
  0
LINE
  8
0
 10
-2.60048
 20
-2.15129
 11
-2.73042
 21
-1.98376
  0
LINE
  8
0
 10
-2.73042
 20
-1.98376
 11
-2.84959
 21
-1.80841
  0
LINE
  8
0
 10
-2.84959
 20
-1.80841
 11
-2.95753
 21
-1.62592
  0
LINE
  8
0
 10
-2.95753
 20
-1.62592
 11
-3.05379
 21
-1.437
  0
LINE
  8
0
 10
-3.05379
 20
-1.437
 11
-3.13799
 21
-1.24242
  0
LINE
  8
0
 10
-3.13799
 20
-1.24242
 11
-3.20981
 21
-1.04292
  0
LINE
  8
0
 10
-3.20981
 20
-1.04292
 11
-3.26897
 21
-0.839325
  0
LINE
  8
0
 10
-3.26897
 20
-0.839325
 11
-3.31522
 21
-0.632401
  0
LINE
  8
0
 10
-3.31522
 20
-0.632401
 11
-3.34837
 21
-0.422989
  0
LINE
  8
0
 10
-3.34837
 20
-0.422989
 11
-3.36833
 21
-0.211914
  0
LINE
  8
0
 10
-3.36833
 20
-0.211914
 11
-3.375
 21
0
  0
LINE
  8
0
 10
-3.375
 20
0
 11
-3.36833
 21
0.211914
  0
LINE
  8
0
 10
-3.36833
 20
0.211914
 11
-3.34837
 21
0.422989
  0
LINE
  8
0
 10
-3.34837
 20
0.422989
 11
-3.31522
 21
0.632401
  0
LINE
  8
0
 10
-3.31522
 20
0.632401
 11
-3.26897
 21
0.839325
  0
LINE
  8
0
 10
-3.26897
 20
0.839325
 11
-3.20981
 21
1.04292
  0
LINE
  8
0
 10
-3.20981
 20
1.04292
 11
-3.13799
 21
1.24242
  0
LINE
  8
0
 10
-3.13799
 20
1.24242
 11
-3.05379
 21
1.437
  0
LINE
  8
0
 10
-3.05379
 20
1.437
 11
-2.95753
 21
1.62592
  0
LINE
  8
0
 10
-2.95753
 20
1.62592
 11
-2.84959
 21
1.80841
  0
LINE
  8
0
 10
-2.84959
 20
1.80841
 11
-2.73042
 21
1.98376
  0
LINE
  8
0
 10
-2.73042
 20
1.98376
 11
-2.60048
 21
2.15129
  0
LINE
  8
0
 10
-2.60048
 20
2.15129
 11
-2.46027
 21
2.31033
  0
LINE
  8
0
 10
-2.46027
 20
2.31033
 11
-2.31033
 21
2.46027
  0
LINE
  8
0
 10
-2.31033
 20
2.46027
 11
-2.15129
 21
2.60048
  0
LINE
  8
0
 10
-2.15129
 20
2.60048
 11
-1.98376
 21
2.73042
  0
LINE
  8
0
 10
-1.98376
 20
2.73042
 11
-1.80841
 21
2.84959
  0
LINE
  8
0
 10
-1.80841
 20
2.84959
 11
-1.62592
 21
2.95753
  0
LINE
  8
0
 10
-1.62592
 20
2.95753
 11
-1.437
 21
3.05379
  0
LINE
  8
0
 10
-1.437
 20
3.05379
 11
-1.24242
 21
3.13799
  0
LINE
  8
0
 10
-1.24242
 20
3.13799
 11
-1.04292
 21
3.20981
  0
LINE
  8
0
 10
-1.04292
 20
3.20981
 11
-0.839325
 21
3.26897
  0
LINE
  8
0
 10
-0.839325
 20
3.26897
 11
-0.632401
 21
3.31522
  0
LINE
  8
0
 10
-0.632401
 20
3.31522
 11
-0.422989
 21
3.34837
  0
LINE
  8
0
 10
-0.422989
 20
3.34837
 11
-0.211914
 21
3.36833
  0
LINE
  8
0
 10
-0.211914
 20
3.36833
 11
0
 21
3.375
  0
LINE
  8
0
 10
0
 20
3.375
 11
0.211914
 21
3.36833
  0
LINE
  8
0
 10
0.211914
 20
3.36833
 11
0.422989
 21
3.34837
  0
LINE
  8
0
 10
0.422989
 20
3.34837
 11
0.632401
 21
3.31522
  0
LINE
  8
0
 10
0.632401
 20
3.31522
 11
0.839325
 21
3.26897
  0
LINE
  8
0
 10
0.839325
 20
3.26897
 11
1.04292
 21
3.20981
  0
LINE
  8
0
 10
1.04292
 20
3.20981
 11
1.24242
 21
3.13799
  0
LINE
  8
0
 10
1.24242
 20
3.13799
 11
1.437
 21
3.05379
  0
LINE
  8
0
 10
1.437
 20
3.05379
 11
1.62592
 21
2.95753
  0
LINE
  8
0
 10
1.62592
 20
2.95753
 11
1.80841
 21
2.84959
  0
LINE
  8
0
 10
1.80841
 20
2.84959
 11
1.98376
 21
2.73042
  0
LINE
  8
0
 10
1.98376
 20
2.73042
 11
2.15129
 21
2.60048
  0
LINE
  8
0
 10
2.15129
 20
2.60048
 11
2.31033
 21
2.46027
  0
LINE
  8
0
 10
2.31033
 20
2.46027
 11
2.46027
 21
2.31033
  0
LINE
  8
0
 10
2.46027
 20
2.31033
 11
2.60048
 21
2.15129
  0
LINE
  8
0
 10
2.60048
 20
2.15129
 11
2.73042
 21
1.98376
  0
LINE
  8
0
 10
2.73042
 20
1.98376
 11
2.84959
 21
1.80841
  0
LINE
  8
0
 10
2.84959
 20
1.80841
 11
2.95753
 21
1.62592
  0
LINE
  8
0
 10
2.95753
 20
1.62592
 11
3.05379
 21
1.437
  0
LINE
  8
0
 10
3.05379
 20
1.437
 11
3.13799
 21
1.24242
  0
LINE
  8
0
 10
3.13799
 20
1.24242
 11
3.20981
 21
1.04292
  0
LINE
  8
0
 10
3.20981
 20
1.04292
 11
3.26897
 21
0.839325
  0
LINE
  8
0
 10
3.26897
 20
0.839325
 11
3.31522
 21
0.632401
  0
LINE
  8
0
 10
3.31522
 20
0.632401
 11
3.34837
 21
0.422989
  0
LINE
  8
0
 10
3.34837
 20
0.422989
 11
3.36833
 21
0.211914
  0
LINE
  8
0
 10
3.36833
 20
0.211914
 11
3.375
 21
0
  0
LINE
  8
0
 10
3.375
 20
0
 11
3.36833
 21
-0.211914
  0
LINE
  8
0
 10
3.36833
 20
-0.211914
 11
3.34837
 21
-0.422989
  0
LINE
  8
0
 10
3.34837
 20
-0.422989
 11
3.31522
 21
-0.632401
  0
LINE
  8
0
 10
3.31522
 20
-0.632401
 11
3.26897
 21
-0.839325
  0
LINE
  8
0
 10
3.26897
 20
-0.839325
 11
3.20981
 21
-1.04292
  0
LINE
  8
0
 10
3.20981
 20
-1.04292
 11
3.13799
 21
-1.24242
  0
LINE
  8
0
 10
3.13799
 20
-1.24242
 11
3.05379
 21
-1.437
  0
LINE
  8
0
 10
3.05379
 20
-1.437
 11
2.95753
 21
-1.62592
  0
LINE
  8
0
 10
2.95753
 20
-1.62592
 11
2.84959
 21
-1.80841
  0
LINE
  8
0
 10
2.84959
 20
-1.80841
 11
2.73042
 21
-1.98376
  0
LINE
  8
0
 10
2.73042
 20
-1.98376
 11
2.60048
 21
-2.15129
  0
LINE
  8
0
 10
2.60048
 20
-2.15129
 11
2.46027
 21
-2.31033
  0
LINE
  8
0
 10
2.46027
 20
-2.31033
 11
2.31033
 21
-2.46027
  0
LINE
  8
0
 10
2.31033
 20
-2.46027
 11
2.15129
 21
-2.60048
  0
LINE
  8
0
 10
2.15129
 20
-2.60048
 11
1.98376
 21
-2.73042
  0
LINE
  8
0
 10
1.98376
 20
-2.73042
 11
1.80841
 21
-2.84959
  0
LINE
  8
0
 10
1.80841
 20
-2.84959
 11
1.62592
 21
-2.95753
  0
LINE
  8
0
 10
1.62592
 20
-2.95753
 11
1.437
 21
-3.05379
  0
LINE
  8
0
 10
1.437
 20
-3.05379
 11
1.24242
 21
-3.13799
  0
LINE
  8
0
 10
1.24242
 20
-3.13799
 11
1.04292
 21
-3.20981
  0
LINE
  8
0
 10
1.04292
 20
-3.20981
 11
0.839325
 21
-3.26897
  0
LINE
  8
0
 10
0.839325
 20
-3.26897
 11
0.632401
 21
-3.31522
  0
LINE
  8
0
 10
0.632401
 20
-3.31522
 11
0.422989
 21
-3.34837
  0
LINE
  8
0
 10
0.422989
 20
-3.34837
 11
0.211914
 21
-3.36833
  0
LINE
  8
0
 10
0.211914
 20
-3.36833
 11
0
 21
-3.375
  0
LINE
  8
0
 10
0
 20
-3.375
 11
-0.211914
 21
-3.36833
  0
ENDSEC
  0
SECTION
  2
OBJECTS
  0
DICTIONARY
  0
ENDSEC
  0
EOF
