  0
SECTION
  2
BLOCKS
  0
ENDSEC
  0
SECTION
  2
ENTITIES
  0
LINE
  8
0
 10
50.8
 20
25.4
 11
-50.8
 21
25.4
  0
LINE
  8
0
 10
-50.8
 20
25.4
 11
-50.8
 21
-25.4
  0
LINE
  8
0
 10
-50.8
 20
-25.4
 11
50.8
 21
-25.4
  0
LINE
  8
0
 10
50.8
 20
-25.4
 11
50.8
 21
25.4
  0
LINE
  8
0
 10
37.8881
 20
9.33165
 11
37.677
 21
9.35161
  0
LINE
  8
0
 10
37.677
 20
9.35161
 11
37.4676
 21
9.38477
  0
LINE
  8
0
 10
37.4676
 20
9.38477
 11
37.2607
 21
9.43103
  0
LINE
  8
0
 10
37.2607
 20
9.43103
 11
37.0571
 21
9.49017
  0
LINE
  8
0
 10
37.0571
 20
9.49017
 11
36.8576
 21
9.562
  0
LINE
  8
0
 10
36.8576
 20
9.562
 11
36.663
 21
9.64619
  0
LINE
  8
0
 10
36.663
 20
9.64619
 11
36.4741
 21
9.74246
  0
LINE
  8
0
 10
36.4741
 20
9.74246
 11
36.2916
 21
9.85039
  0
LINE
  8
0
 10
36.2916
 20
9.85039
 11
36.1162
 21
9.96956
  0
LINE
  8
0
 10
36.1162
 20
9.96956
 11
35.9487
 21
10.0995
  0
LINE
  8
0
 10
35.9487
 20
10.0995
 11
35.7896
 21
10.2397
  0
LINE
  8
0
 10
35.7896
 20
10.2397
 11
35.6397
 21
10.3896
  0
LINE
  8
0
 10
35.6397
 20
10.3896
 11
35.4995
 21
10.5487
  0
LINE
  8
0
 10
35.4995
 20
10.5487
 11
35.3696
 21
10.7162
  0
LINE
  8
0
 10
35.3696
 20
10.7162
 11
35.2504
 21
10.8916
  0
LINE
  8
0
 10
35.2504
 20
10.8916
 11
35.1425
 21
11.0741
  0
LINE
  8
0
 10
35.1425
 20
11.0741
 11
35.0462
 21
11.263
  0
LINE
  8
0
 10
35.0462
 20
11.263
 11
34.962
 21
11.4576
  0
LINE
  8
0
 10
34.962
 20
11.4576
 11
34.8902
 21
11.6571
  0
LINE
  8
0
 10
34.8902
 20
11.6571
 11
34.831
 21
11.8607
  0
LINE
  8
0
 10
34.831
 20
11.8607
 11
34.7848
 21
12.0676
  0
LINE
  8
0
 10
34.7848
 20
12.0676
 11
34.7516
 21
12.277
  0
LINE
  8
0
 10
34.7516
 20
12.277
 11
34.7317
 21
12.4881
  0
LINE
  8
0
 10
34.7317
 20
12.4881
 11
34.725
 21
12.7
  0
LINE
  8
0
 10
34.725
 20
12.7
 11
34.7317
 21
12.9119
  0
LINE
  8
0
 10
34.7317
 20
12.9119
 11
34.7516
 21
13.123
  0
LINE
  8
0
 10
34.7516
 20
13.123
 11
34.7848
 21
13.3324
  0
LINE
  8
0
 10
34.7848
 20
13.3324
 11
34.831
 21
13.5393
  0
LINE
  8
0
 10
34.831
 20
13.5393
 11
34.8902
 21
13.7429
  0
LINE
  8
0
 10
34.8902
 20
13.7429
 11
34.962
 21
13.9424
  0
LINE
  8
0
 10
34.962
 20
13.9424
 11
35.0462
 21
14.137
  0
LINE
  8
0
 10
35.0462
 20
14.137
 11
35.1425
 21
14.3259
  0
LINE
  8
0
 10
35.1425
 20
14.3259
 11
35.2504
 21
14.5084
  0
LINE
  8
0
 10
35.2504
 20
14.5084
 11
35.3696
 21
14.6838
  0
LINE
  8
0
 10
35.3696
 20
14.6838
 11
35.4995
 21
14.8513
  0
LINE
  8
0
 10
35.4995
 20
14.8513
 11
35.6397
 21
15.0103
  0
LINE
  8
0
 10
35.6397
 20
15.0103
 11
35.7896
 21
15.1603
  0
LINE
  8
0
 10
35.7896
 20
15.1603
 11
35.9487
 21
15.3005
  0
LINE
  8
0
 10
35.9487
 20
15.3005
 11
36.1162
 21
15.4304
  0
LINE
  8
0
 10
36.1162
 20
15.4304
 11
36.2916
 21
15.5496
  0
LINE
  8
0
 10
36.2916
 20
15.5496
 11
36.4741
 21
15.6575
  0
LINE
  8
0
 10
36.4741
 20
15.6575
 11
36.663
 21
15.7538
  0
LINE
  8
0
 10
36.663
 20
15.7538
 11
36.8576
 21
15.838
  0
LINE
  8
0
 10
36.8576
 20
15.838
 11
37.0571
 21
15.9098
  0
LINE
  8
0
 10
37.0571
 20
15.9098
 11
37.2607
 21
15.969
  0
LINE
  8
0
 10
37.2607
 20
15.969
 11
37.4676
 21
16.0152
  0
LINE
  8
0
 10
37.4676
 20
16.0152
 11
37.677
 21
16.0484
  0
LINE
  8
0
 10
37.677
 20
16.0484
 11
37.8881
 21
16.0683
  0
LINE
  8
0
 10
37.8881
 20
16.0683
 11
38.1
 21
16.075
  0
LINE
  8
0
 10
38.1
 20
16.075
 11
38.3119
 21
16.0683
  0
LINE
  8
0
 10
38.3119
 20
16.0683
 11
38.523
 21
16.0484
  0
LINE
  8
0
 10
38.523
 20
16.0484
 11
38.7324
 21
16.0152
  0
LINE
  8
0
 10
38.7324
 20
16.0152
 11
38.9393
 21
15.969
  0
LINE
  8
0
 10
38.9393
 20
15.969
 11
39.1429
 21
15.9098
  0
LINE
  8
0
 10
39.1429
 20
15.9098
 11
39.3424
 21
15.838
  0
LINE
  8
0
 10
39.3424
 20
15.838
 11
39.537
 21
15.7538
  0
LINE
  8
0
 10
39.537
 20
15.7538
 11
39.7259
 21
15.6575
  0
LINE
  8
0
 10
39.7259
 20
15.6575
 11
39.9084
 21
15.5496
  0
LINE
  8
0
 10
39.9084
 20
15.5496
 11
40.0838
 21
15.4304
  0
LINE
  8
0
 10
40.0838
 20
15.4304
 11
40.2513
 21
15.3005
  0
LINE
  8
0
 10
40.2513
 20
15.3005
 11
40.4103
 21
15.1603
  0
LINE
  8
0
 10
40.4103
 20
15.1603
 11
40.5603
 21
15.0103
  0
LINE
  8
0
 10
40.5603
 20
15.0103
 11
40.7005
 21
14.8513
  0
LINE
  8
0
 10
40.7005
 20
14.8513
 11
40.8304
 21
14.6838
  0
LINE
  8
0
 10
40.8304
 20
14.6838
 11
40.9496
 21
14.5084
  0
LINE
  8
0
 10
40.9496
 20
14.5084
 11
41.0575
 21
14.3259
  0
LINE
  8
0
 10
41.0575
 20
14.3259
 11
41.1538
 21
14.137
  0
LINE
  8
0
 10
41.1538
 20
14.137
 11
41.238
 21
13.9424
  0
LINE
  8
0
 10
41.238
 20
13.9424
 11
41.3098
 21
13.7429
  0
LINE
  8
0
 10
41.3098
 20
13.7429
 11
41.369
 21
13.5393
  0
LINE
  8
0
 10
41.369
 20
13.5393
 11
41.4152
 21
13.3324
  0
LINE
  8
0
 10
41.4152
 20
13.3324
 11
41.4484
 21
13.123
  0
LINE
  8
0
 10
41.4484
 20
13.123
 11
41.4683
 21
12.9119
  0
LINE
  8
0
 10
41.4683
 20
12.9119
 11
41.475
 21
12.7
  0
LINE
  8
0
 10
41.475
 20
12.7
 11
41.4683
 21
12.4881
  0
LINE
  8
0
 10
41.4683
 20
12.4881
 11
41.4484
 21
12.277
  0
LINE
  8
0
 10
41.4484
 20
12.277
 11
41.4152
 21
12.0676
  0
LINE
  8
0
 10
41.4152
 20
12.0676
 11
41.369
 21
11.8607
  0
LINE
  8
0
 10
41.369
 20
11.8607
 11
41.3098
 21
11.6571
  0
LINE
  8
0
 10
41.3098
 20
11.6571
 11
41.238
 21
11.4576
  0
LINE
  8
0
 10
41.238
 20
11.4576
 11
41.1538
 21
11.263
  0
LINE
  8
0
 10
41.1538
 20
11.263
 11
41.0575
 21
11.0741
  0
LINE
  8
0
 10
41.0575
 20
11.0741
 11
40.9496
 21
10.8916
  0
LINE
  8
0
 10
40.9496
 20
10.8916
 11
40.8304
 21
10.7162
  0
LINE
  8
0
 10
40.8304
 20
10.7162
 11
40.7005
 21
10.5487
  0
LINE
  8
0
 10
40.7005
 20
10.5487
 11
40.5603
 21
10.3896
  0
LINE
  8
0
 10
40.5603
 20
10.3896
 11
40.4103
 21
10.2397
  0
LINE
  8
0
 10
40.4103
 20
10.2397
 11
40.2513
 21
10.0995
  0
LINE
  8
0
 10
40.2513
 20
10.0995
 11
40.0838
 21
9.96956
  0
LINE
  8
0
 10
40.0838
 20
9.96956
 11
39.9084
 21
9.85039
  0
LINE
  8
0
 10
39.9084
 20
9.85039
 11
39.7259
 21
9.74246
  0
LINE
  8
0
 10
39.7259
 20
9.74246
 11
39.537
 21
9.64619
  0
LINE
  8
0
 10
39.537
 20
9.64619
 11
39.3424
 21
9.562
  0
LINE
  8
0
 10
39.3424
 20
9.562
 11
39.1429
 21
9.49017
  0
LINE
  8
0
 10
39.1429
 20
9.49017
 11
38.9393
 21
9.43103
  0
LINE
  8
0
 10
38.9393
 20
9.43103
 11
38.7324
 21
9.38477
  0
LINE
  8
0
 10
38.7324
 20
9.38477
 11
38.523
 21
9.35161
  0
LINE
  8
0
 10
38.523
 20
9.35161
 11
38.3119
 21
9.33165
  0
LINE
  8
0
 10
38.3119
 20
9.33165
 11
38.1
 21
9.325
  0
LINE
  8
0
 10
38.1
 20
9.325
 11
37.8881
 21
9.33165
  0
LINE
  8
0
 10
-38.3119
 20
9.33165
 11
-38.523
 21
9.35161
  0
LINE
  8
0
 10
-38.523
 20
9.35161
 11
-38.7324
 21
9.38477
  0
LINE
  8
0
 10
-38.7324
 20
9.38477
 11
-38.9393
 21
9.43103
  0
LINE
  8
0
 10
-38.9393
 20
9.43103
 11
-39.1429
 21
9.49017
  0
LINE
  8
0
 10
-39.1429
 20
9.49017
 11
-39.3424
 21
9.562
  0
LINE
  8
0
 10
-39.3424
 20
9.562
 11
-39.537
 21
9.64619
  0
LINE
  8
0
 10
-39.537
 20
9.64619
 11
-39.7259
 21
9.74246
  0
LINE
  8
0
 10
-39.7259
 20
9.74246
 11
-39.9084
 21
9.85039
  0
LINE
  8
0
 10
-39.9084
 20
9.85039
 11
-40.0838
 21
9.96956
  0
LINE
  8
0
 10
-40.0838
 20
9.96956
 11
-40.2513
 21
10.0995
  0
LINE
  8
0
 10
-40.2513
 20
10.0995
 11
-40.4103
 21
10.2397
  0
LINE
  8
0
 10
-40.4103
 20
10.2397
 11
-40.5603
 21
10.3896
  0
LINE
  8
0
 10
-40.5603
 20
10.3896
 11
-40.7005
 21
10.5487
  0
LINE
  8
0
 10
-40.7005
 20
10.5487
 11
-40.8304
 21
10.7162
  0
LINE
  8
0
 10
-40.8304
 20
10.7162
 11
-40.9496
 21
10.8916
  0
LINE
  8
0
 10
-40.9496
 20
10.8916
 11
-41.0575
 21
11.0741
  0
LINE
  8
0
 10
-41.0575
 20
11.0741
 11
-41.1538
 21
11.263
  0
LINE
  8
0
 10
-41.1538
 20
11.263
 11
-41.238
 21
11.4576
  0
LINE
  8
0
 10
-41.238
 20
11.4576
 11
-41.3098
 21
11.6571
  0
LINE
  8
0
 10
-41.3098
 20
11.6571
 11
-41.369
 21
11.8607
  0
LINE
  8
0
 10
-41.369
 20
11.8607
 11
-41.4152
 21
12.0676
  0
LINE
  8
0
 10
-41.4152
 20
12.0676
 11
-41.4484
 21
12.277
  0
LINE
  8
0
 10
-41.4484
 20
12.277
 11
-41.4683
 21
12.4881
  0
LINE
  8
0
 10
-41.4683
 20
12.4881
 11
-41.475
 21
12.7
  0
LINE
  8
0
 10
-41.475
 20
12.7
 11
-41.4683
 21
12.9119
  0
LINE
  8
0
 10
-41.4683
 20
12.9119
 11
-41.4484
 21
13.123
  0
LINE
  8
0
 10
-41.4484
 20
13.123
 11
-41.4152
 21
13.3324
  0
LINE
  8
0
 10
-41.4152
 20
13.3324
 11
-41.369
 21
13.5393
  0
LINE
  8
0
 10
-41.369
 20
13.5393
 11
-41.3098
 21
13.7429
  0
LINE
  8
0
 10
-41.3098
 20
13.7429
 11
-41.238
 21
13.9424
  0
LINE
  8
0
 10
-41.238
 20
13.9424
 11
-41.1538
 21
14.137
  0
LINE
  8
0
 10
-41.1538
 20
14.137
 11
-41.0575
 21
14.3259
  0
LINE
  8
0
 10
-41.0575
 20
14.3259
 11
-40.9496
 21
14.5084
  0
LINE
  8
0
 10
-40.9496
 20
14.5084
 11
-40.8304
 21
14.6838
  0
LINE
  8
0
 10
-40.8304
 20
14.6838
 11
-40.7005
 21
14.8513
  0
LINE
  8
0
 10
-40.7005
 20
14.8513
 11
-40.5603
 21
15.0103
  0
LINE
  8
0
 10
-40.5603
 20
15.0103
 11
-40.4103
 21
15.1603
  0
LINE
  8
0
 10
-40.4103
 20
15.1603
 11
-40.2513
 21
15.3005
  0
LINE
  8
0
 10
-40.2513
 20
15.3005
 11
-40.0838
 21
15.4304
  0
LINE
  8
0
 10
-40.0838
 20
15.4304
 11
-39.9084
 21
15.5496
  0
LINE
  8
0
 10
-39.9084
 20
15.5496
 11
-39.7259
 21
15.6575
  0
LINE
  8
0
 10
-39.7259
 20
15.6575
 11
-39.537
 21
15.7538
  0
LINE
  8
0
 10
-39.537
 20
15.7538
 11
-39.3424
 21
15.838
  0
LINE
  8
0
 10
-39.3424
 20
15.838
 11
-39.1429
 21
15.9098
  0
LINE
  8
0
 10
-39.1429
 20
15.9098
 11
-38.9393
 21
15.969
  0
LINE
  8
0
 10
-38.9393
 20
15.969
 11
-38.7324
 21
16.0152
  0
LINE
  8
0
 10
-38.7324
 20
16.0152
 11
-38.523
 21
16.0484
  0
LINE
  8
0
 10
-38.523
 20
16.0484
 11
-38.3119
 21
16.0683
  0
LINE
  8
0
 10
-38.3119
 20
16.0683
 11
-38.1
 21
16.075
  0
LINE
  8
0
 10
-38.1
 20
16.075
 11
-37.8881
 21
16.0683
  0
LINE
  8
0
 10
-37.8881
 20
16.0683
 11
-37.677
 21
16.0484
  0
LINE
  8
0
 10
-37.677
 20
16.0484
 11
-37.4676
 21
16.0152
  0
LINE
  8
0
 10
-37.4676
 20
16.0152
 11
-37.2607
 21
15.969
  0
LINE
  8
0
 10
-37.2607
 20
15.969
 11
-37.0571
 21
15.9098
  0
LINE
  8
0
 10
-37.0571
 20
15.9098
 11
-36.8576
 21
15.838
  0
LINE
  8
0
 10
-36.8576
 20
15.838
 11
-36.663
 21
15.7538
  0
LINE
  8
0
 10
-36.663
 20
15.7538
 11
-36.4741
 21
15.6575
  0
LINE
  8
0
 10
-36.4741
 20
15.6575
 11
-36.2916
 21
15.5496
  0
LINE
  8
0
 10
-36.2916
 20
15.5496
 11
-36.1162
 21
15.4304
  0
LINE
  8
0
 10
-36.1162
 20
15.4304
 11
-35.9487
 21
15.3005
  0
LINE
  8
0
 10
-35.9487
 20
15.3005
 11
-35.7896
 21
15.1603
  0
LINE
  8
0
 10
-35.7896
 20
15.1603
 11
-35.6397
 21
15.0103
  0
LINE
  8
0
 10
-35.6397
 20
15.0103
 11
-35.4995
 21
14.8513
  0
LINE
  8
0
 10
-35.4995
 20
14.8513
 11
-35.3696
 21
14.6838
  0
LINE
  8
0
 10
-35.3696
 20
14.6838
 11
-35.2504
 21
14.5084
  0
LINE
  8
0
 10
-35.2504
 20
14.5084
 11
-35.1425
 21
14.3259
  0
LINE
  8
0
 10
-35.1425
 20
14.3259
 11
-35.0462
 21
14.137
  0
LINE
  8
0
 10
-35.0462
 20
14.137
 11
-34.962
 21
13.9424
  0
LINE
  8
0
 10
-34.962
 20
13.9424
 11
-34.8902
 21
13.7429
  0
LINE
  8
0
 10
-34.8902
 20
13.7429
 11
-34.831
 21
13.5393
  0
LINE
  8
0
 10
-34.831
 20
13.5393
 11
-34.7848
 21
13.3324
  0
LINE
  8
0
 10
-34.7848
 20
13.3324
 11
-34.7516
 21
13.123
  0
LINE
  8
0
 10
-34.7516
 20
13.123
 11
-34.7317
 21
12.9119
  0
LINE
  8
0
 10
-34.7317
 20
12.9119
 11
-34.725
 21
12.7
  0
LINE
  8
0
 10
-34.725
 20
12.7
 11
-34.7317
 21
12.4881
  0
LINE
  8
0
 10
-34.7317
 20
12.4881
 11
-34.7516
 21
12.277
  0
LINE
  8
0
 10
-34.7516
 20
12.277
 11
-34.7848
 21
12.0676
  0
LINE
  8
0
 10
-34.7848
 20
12.0676
 11
-34.831
 21
11.8607
  0
LINE
  8
0
 10
-34.831
 20
11.8607
 11
-34.8902
 21
11.6571
  0
LINE
  8
0
 10
-34.8902
 20
11.6571
 11
-34.962
 21
11.4576
  0
LINE
  8
0
 10
-34.962
 20
11.4576
 11
-35.0462
 21
11.263
  0
LINE
  8
0
 10
-35.0462
 20
11.263
 11
-35.1425
 21
11.0741
  0
LINE
  8
0
 10
-35.1425
 20
11.0741
 11
-35.2504
 21
10.8916
  0
LINE
  8
0
 10
-35.2504
 20
10.8916
 11
-35.3696
 21
10.7162
  0
LINE
  8
0
 10
-35.3696
 20
10.7162
 11
-35.4995
 21
10.5487
  0
LINE
  8
0
 10
-35.4995
 20
10.5487
 11
-35.6397
 21
10.3896
  0
LINE
  8
0
 10
-35.6397
 20
10.3896
 11
-35.7896
 21
10.2397
  0
LINE
  8
0
 10
-35.7896
 20
10.2397
 11
-35.9487
 21
10.0995
  0
LINE
  8
0
 10
-35.9487
 20
10.0995
 11
-36.1162
 21
9.96956
  0
LINE
  8
0
 10
-36.1162
 20
9.96956
 11
-36.2916
 21
9.85039
  0
LINE
  8
0
 10
-36.2916
 20
9.85039
 11
-36.4741
 21
9.74246
  0
LINE
  8
0
 10
-36.4741
 20
9.74246
 11
-36.663
 21
9.64619
  0
LINE
  8
0
 10
-36.663
 20
9.64619
 11
-36.8576
 21
9.562
  0
LINE
  8
0
 10
-36.8576
 20
9.562
 11
-37.0571
 21
9.49017
  0
LINE
  8
0
 10
-37.0571
 20
9.49017
 11
-37.2607
 21
9.43103
  0
LINE
  8
0
 10
-37.2607
 20
9.43103
 11
-37.4676
 21
9.38477
  0
LINE
  8
0
 10
-37.4676
 20
9.38477
 11
-37.677
 21
9.35161
  0
LINE
  8
0
 10
-37.677
 20
9.35161
 11
-37.8881
 21
9.33165
  0
LINE
  8
0
 10
-37.8881
 20
9.33165
 11
-38.1
 21
9.325
  0
LINE
  8
0
 10
-38.1
 20
9.325
 11
-38.3119
 21
9.33165
  0
LINE
  8
0
 10
-0.211914
 20
-3.36833
 11
-0.422989
 21
-3.34837
  0
LINE
  8
0
 10
-0.422989
 20
-3.34837
 11
-0.632401
 21
-3.31522
  0
LINE
  8
0
 10
-0.632401
 20
-3.31522
 11
-0.839325
 21
-3.26897
  0
LINE
  8
0
 10
-0.839325
 20
-3.26897
 11
-1.04292
 21
-3.20981
  0
LINE
  8
0
 10
-1.04292
 20
-3.20981
 11
-1.24242
 21
-3.13799
  0
LINE
  8
0
 10
-1.24242
 20
-3.13799
 11
-1.437
 21
-3.05379
  0
LINE
  8
0
 10
-1.437
 20
-3.05379
 11
-1.62592
 21
-2.95753
  0
LINE
  8
0
 10
-1.62592
 20
-2.95753
 11
-1.80841
 21
-2.84959
  0
LINE
  8
0
 10
-1.80841
 20
-2.84959
 11
-1.98376
 21
-2.73042
  0
LINE
  8
0
 10
-1.98376
 20
-2.73042
 11
-2.15129
 21
-2.60048
  0
LINE
  8
0
 10
-2.15129
 20
-2.60048
 11
-2.31033
 21
-2.46027
  0
LINE
  8
0
 10
-2.31033
 20
-2.46027
 11
-2.46027
 21
-2.31033
  0
LINE
  8
0
 10
-2.46027
 20
-2.31033
 11
-2.60048
 21
-2.15129
  0
LINE
  8
0
 10
-2.60048
 20
-2.15129
 11
-2.73042
 21
-1.98376
  0
LINE
  8
0
 10
-2.73042
 20
-1.98376
 11
-2.84959
 21
-1.80841
  0
LINE
  8
0
 10
-2.84959
 20
-1.80841
 11
-2.95753
 21
-1.62592
  0
LINE
  8
0
 10
-2.95753
 20
-1.62592
 11
-3.05379
 21
-1.437
  0
LINE
  8
0
 10
-3.05379
 20
-1.437
 11
-3.13799
 21
-1.24242
  0
LINE
  8
0
 10
-3.13799
 20
-1.24242
 11
-3.20981
 21
-1.04292
  0
LINE
  8
0
 10
-3.20981
 20
-1.04292
 11
-3.26897
 21
-0.839325
  0
LINE
  8
0
 10
-3.26897
 20
-0.839325
 11
-3.31522
 21
-0.632401
  0
LINE
  8
0
 10
-3.31522
 20
-0.632401
 11
-3.34837
 21
-0.422989
  0
LINE
  8
0
 10
-3.34837
 20
-0.422989
 11
-3.36833
 21
-0.211914
  0
LINE
  8
0
 10
-3.36833
 20
-0.211914
 11
-3.375
 21
0
  0
LINE
  8
0
 10
-3.375
 20
0
 11
-3.36833
 21
0.211914
  0
LINE
  8
0
 10
-3.36833
 20
0.211914
 11
-3.34837
 21
0.422989
  0
LINE
  8
0
 10
-3.34837
 20
0.422989
 11
-3.31522
 21
0.632401
  0
LINE
  8
0
 10
-3.31522
 20
0.632401
 11
-3.26897
 21
0.839325
  0
LINE
  8
0
 10
-3.26897
 20
0.839325
 11
-3.20981
 21
1.04292
  0
LINE
  8
0
 10
-3.20981
 20
1.04292
 11
-3.13799
 21
1.24242
  0
LINE
  8
0
 10
-3.13799
 20
1.24242
 11
-3.05379
 21
1.437
  0
LINE
  8
0
 10
-3.05379
 20
1.437
 11
-2.95753
 21
1.62592
  0
LINE
  8
0
 10
-2.95753
 20
1.62592
 11
-2.84959
 21
1.80841
  0
LINE
  8
0
 10
-2.84959
 20
1.80841
 11
-2.73042
 21
1.98376
  0
LINE
  8
0
 10
-2.73042
 20
1.98376
 11
-2.60048
 21
2.15129
  0
LINE
  8
0
 10
-2.60048
 20
2.15129
 11
-2.46027
 21
2.31033
  0
LINE
  8
0
 10
-2.46027
 20
2.31033
 11
-2.31033
 21
2.46027
  0
LINE
  8
0
 10
-2.31033
 20
2.46027
 11
-2.15129
 21
2.60048
  0
LINE
  8
0
 10
-2.15129
 20
2.60048
 11
-1.98376
 21
2.73042
  0
LINE
  8
0
 10
-1.98376
 20
2.73042
 11
-1.80841
 21
2.84959
  0
LINE
  8
0
 10
-1.80841
 20
2.84959
 11
-1.62592
 21
2.95753
  0
LINE
  8
0
 10
-1.62592
 20
2.95753
 11
-1.437
 21
3.05379
  0
LINE
  8
0
 10
-1.437
 20
3.05379
 11
-1.24242
 21
3.13799
  0
LINE
  8
0
 10
-1.24242
 20
3.13799
 11
-1.04292
 21
3.20981
  0
LINE
  8
0
 10
-1.04292
 20
3.20981
 11
-0.839325
 21
3.26897
  0
LINE
  8
0
 10
-0.839325
 20
3.26897
 11
-0.632401
 21
3.31522
  0
LINE
  8
0
 10
-0.632401
 20
3.31522
 11
-0.422989
 21
3.34837
  0
LINE
  8
0
 10
-0.422989
 20
3.34837
 11
-0.211914
 21
3.36833
  0
LINE
  8
0
 10
-0.211914
 20
3.36833
 11
0
 21
3.375
  0
LINE
  8
0
 10
0
 20
3.375
 11
0.211914
 21
3.36833
  0
LINE
  8
0
 10
0.211914
 20
3.36833
 11
0.422989
 21
3.34837
  0
LINE
  8
0
 10
0.422989
 20
3.34837
 11
0.632401
 21
3.31522
  0
LINE
  8
0
 10
0.632401
 20
3.31522
 11
0.839325
 21
3.26897
  0
LINE
  8
0
 10
0.839325
 20
3.26897
 11
1.04292
 21
3.20981
  0
LINE
  8
0
 10
1.04292
 20
3.20981
 11
1.24242
 21
3.13799
  0
LINE
  8
0
 10
1.24242
 20
3.13799
 11
1.437
 21
3.05379
  0
LINE
  8
0
 10
1.437
 20
3.05379
 11
1.62592
 21
2.95753
  0
LINE
  8
0
 10
1.62592
 20
2.95753
 11
1.80841
 21
2.84959
  0
LINE
  8
0
 10
1.80841
 20
2.84959
 11
1.98376
 21
2.73042
  0
LINE
  8
0
 10
1.98376
 20
2.73042
 11
2.15129
 21
2.60048
  0
LINE
  8
0
 10
2.15129
 20
2.60048
 11
2.31033
 21
2.46027
  0
LINE
  8
0
 10
2.31033
 20
2.46027
 11
2.46027
 21
2.31033
  0
LINE
  8
0
 10
2.46027
 20
2.31033
 11
2.60048
 21
2.15129
  0
LINE
  8
0
 10
2.60048
 20
2.15129
 11
2.73042
 21
1.98376
  0
LINE
  8
0
 10
2.73042
 20
1.98376
 11
2.84959
 21
1.80841
  0
LINE
  8
0
 10
2.84959
 20
1.80841
 11
2.95753
 21
1.62592
  0
LINE
  8
0
 10
2.95753
 20
1.62592
 11
3.05379
 21
1.437
  0
LINE
  8
0
 10
3.05379
 20
1.437
 11
3.13799
 21
1.24242
  0
LINE
  8
0
 10
3.13799
 20
1.24242
 11
3.20981
 21
1.04292
  0
LINE
  8
0
 10
3.20981
 20
1.04292
 11
3.26897
 21
0.839325
  0
LINE
  8
0
 10
3.26897
 20
0.839325
 11
3.31522
 21
0.632401
  0
LINE
  8
0
 10
3.31522
 20
0.632401
 11
3.34837
 21
0.422989
  0
LINE
  8
0
 10
3.34837
 20
0.422989
 11
3.36833
 21
0.211914
  0
LINE
  8
0
 10
3.36833
 20
0.211914
 11
3.375
 21
0
  0
LINE
  8
0
 10
3.375
 20
0
 11
3.36833
 21
-0.211914
  0
LINE
  8
0
 10
3.36833
 20
-0.211914
 11
3.34837
 21
-0.422989
  0
LINE
  8
0
 10
3.34837
 20
-0.422989
 11
3.31522
 21
-0.632401
  0
LINE
  8
0
 10
3.31522
 20
-0.632401
 11
3.26897
 21
-0.839325
  0
LINE
  8
0
 10
3.26897
 20
-0.839325
 11
3.20981
 21
-1.04292
  0
LINE
  8
0
 10
3.20981
 20
-1.04292
 11
3.13799
 21
-1.24242
  0
LINE
  8
0
 10
3.13799
 20
-1.24242
 11
3.05379
 21
-1.437
  0
LINE
  8
0
 10
3.05379
 20
-1.437
 11
2.95753
 21
-1.62592
  0
LINE
  8
0
 10
2.95753
 20
-1.62592
 11
2.84959
 21
-1.80841
  0
LINE
  8
0
 10
2.84959
 20
-1.80841
 11
2.73042
 21
-1.98376
  0
LINE
  8
0
 10
2.73042
 20
-1.98376
 11
2.60048
 21
-2.15129
  0
LINE
  8
0
 10
2.60048
 20
-2.15129
 11
2.46027
 21
-2.31033
  0
LINE
  8
0
 10
2.46027
 20
-2.31033
 11
2.31033
 21
-2.46027
  0
LINE
  8
0
 10
2.31033
 20
-2.46027
 11
2.15129
 21
-2.60048
  0
LINE
  8
0
 10
2.15129
 20
-2.60048
 11
1.98376
 21
-2.73042
  0
LINE
  8
0
 10
1.98376
 20
-2.73042
 11
1.80841
 21
-2.84959
  0
LINE
  8
0
 10
1.80841
 20
-2.84959
 11
1.62592
 21
-2.95753
  0
LINE
  8
0
 10
1.62592
 20
-2.95753
 11
1.437
 21
-3.05379
  0
LINE
  8
0
 10
1.437
 20
-3.05379
 11
1.24242
 21
-3.13799
  0
LINE
  8
0
 10
1.24242
 20
-3.13799
 11
1.04292
 21
-3.20981
  0
LINE
  8
0
 10
1.04292
 20
-3.20981
 11
0.839325
 21
-3.26897
  0
LINE
  8
0
 10
0.839325
 20
-3.26897
 11
0.632401
 21
-3.31522
  0
LINE
  8
0
 10
0.632401
 20
-3.31522
 11
0.422989
 21
-3.34837
  0
LINE
  8
0
 10
0.422989
 20
-3.34837
 11
0.211914
 21
-3.36833
  0
LINE
  8
0
 10
0.211914
 20
-3.36833
 11
0
 21
-3.375
  0
LINE
  8
0
 10
0
 20
-3.375
 11
-0.211914
 21
-3.36833
  0
LINE
  8
0
 10
37.8881
 20
-16.0683
 11
37.677
 21
-16.0484
  0
LINE
  8
0
 10
37.677
 20
-16.0484
 11
37.4676
 21
-16.0152
  0
LINE
  8
0
 10
37.4676
 20
-16.0152
 11
37.2607
 21
-15.969
  0
LINE
  8
0
 10
37.2607
 20
-15.969
 11
37.0571
 21
-15.9098
  0
LINE
  8
0
 10
37.0571
 20
-15.9098
 11
36.8576
 21
-15.838
  0
LINE
  8
0
 10
36.8576
 20
-15.838
 11
36.663
 21
-15.7538
  0
LINE
  8
0
 10
36.663
 20
-15.7538
 11
36.4741
 21
-15.6575
  0
LINE
  8
0
 10
36.4741
 20
-15.6575
 11
36.2916
 21
-15.5496
  0
LINE
  8
0
 10
36.2916
 20
-15.5496
 11
36.1162
 21
-15.4304
  0
LINE
  8
0
 10
36.1162
 20
-15.4304
 11
35.9487
 21
-15.3005
  0
LINE
  8
0
 10
35.9487
 20
-15.3005
 11
35.7896
 21
-15.1603
  0
LINE
  8
0
 10
35.7896
 20
-15.1603
 11
35.6397
 21
-15.0103
  0
LINE
  8
0
 10
35.6397
 20
-15.0103
 11
35.4995
 21
-14.8513
  0
LINE
  8
0
 10
35.4995
 20
-14.8513
 11
35.3696
 21
-14.6838
  0
LINE
  8
0
 10
35.3696
 20
-14.6838
 11
35.2504
 21
-14.5084
  0
LINE
  8
0
 10
35.2504
 20
-14.5084
 11
35.1425
 21
-14.3259
  0
LINE
  8
0
 10
35.1425
 20
-14.3259
 11
35.0462
 21
-14.137
  0
LINE
  8
0
 10
35.0462
 20
-14.137
 11
34.962
 21
-13.9424
  0
LINE
  8
0
 10
34.962
 20
-13.9424
 11
34.8902
 21
-13.7429
  0
LINE
  8
0
 10
34.8902
 20
-13.7429
 11
34.831
 21
-13.5393
  0
LINE
  8
0
 10
34.831
 20
-13.5393
 11
34.7848
 21
-13.3324
  0
LINE
  8
0
 10
34.7848
 20
-13.3324
 11
34.7516
 21
-13.123
  0
LINE
  8
0
 10
34.7516
 20
-13.123
 11
34.7317
 21
-12.9119
  0
LINE
  8
0
 10
34.7317
 20
-12.9119
 11
34.725
 21
-12.7
  0
LINE
  8
0
 10
34.725
 20
-12.7
 11
34.7317
 21
-12.4881
  0
LINE
  8
0
 10
34.7317
 20
-12.4881
 11
34.7516
 21
-12.277
  0
LINE
  8
0
 10
34.7516
 20
-12.277
 11
34.7848
 21
-12.0676
  0
LINE
  8
0
 10
34.7848
 20
-12.0676
 11
34.831
 21
-11.8607
  0
LINE
  8
0
 10
34.831
 20
-11.8607
 11
34.8902
 21
-11.6571
  0
LINE
  8
0
 10
34.8902
 20
-11.6571
 11
34.962
 21
-11.4576
  0
LINE
  8
0
 10
34.962
 20
-11.4576
 11
35.0462
 21
-11.263
  0
LINE
  8
0
 10
35.0462
 20
-11.263
 11
35.1425
 21
-11.0741
  0
LINE
  8
0
 10
35.1425
 20
-11.0741
 11
35.2504
 21
-10.8916
  0
LINE
  8
0
 10
35.2504
 20
-10.8916
 11
35.3696
 21
-10.7162
  0
LINE
  8
0
 10
35.3696
 20
-10.7162
 11
35.4995
 21
-10.5487
  0
LINE
  8
0
 10
35.4995
 20
-10.5487
 11
35.6397
 21
-10.3896
  0
LINE
  8
0
 10
35.6397
 20
-10.3896
 11
35.7896
 21
-10.2397
  0
LINE
  8
0
 10
35.7896
 20
-10.2397
 11
35.9487
 21
-10.0995
  0
LINE
  8
0
 10
35.9487
 20
-10.0995
 11
36.1162
 21
-9.96956
  0
LINE
  8
0
 10
36.1162
 20
-9.96956
 11
36.2916
 21
-9.85039
  0
LINE
  8
0
 10
36.2916
 20
-9.85039
 11
36.4741
 21
-9.74246
  0
LINE
  8
0
 10
36.4741
 20
-9.74246
 11
36.663
 21
-9.64619
  0
LINE
  8
0
 10
36.663
 20
-9.64619
 11
36.8576
 21
-9.562
  0
LINE
  8
0
 10
36.8576
 20
-9.562
 11
37.0571
 21
-9.49017
  0
LINE
  8
0
 10
37.0571
 20
-9.49017
 11
37.2607
 21
-9.43103
  0
LINE
  8
0
 10
37.2607
 20
-9.43103
 11
37.4676
 21
-9.38477
  0
LINE
  8
0
 10
37.4676
 20
-9.38477
 11
37.677
 21
-9.35161
  0
LINE
  8
0
 10
37.677
 20
-9.35161
 11
37.8881
 21
-9.33165
  0
LINE
  8
0
 10
37.8881
 20
-9.33165
 11
38.1
 21
-9.325
  0
LINE
  8
0
 10
38.1
 20
-9.325
 11
38.3119
 21
-9.33165
  0
LINE
  8
0
 10
38.3119
 20
-9.33165
 11
38.523
 21
-9.35161
  0
LINE
  8
0
 10
38.523
 20
-9.35161
 11
38.7324
 21
-9.38477
  0
LINE
  8
0
 10
38.7324
 20
-9.38477
 11
38.9393
 21
-9.43103
  0
LINE
  8
0
 10
38.9393
 20
-9.43103
 11
39.1429
 21
-9.49017
  0
LINE
  8
0
 10
39.1429
 20
-9.49017
 11
39.3424
 21
-9.562
  0
LINE
  8
0
 10
39.3424
 20
-9.562
 11
39.537
 21
-9.64619
  0
LINE
  8
0
 10
39.537
 20
-9.64619
 11
39.7259
 21
-9.74246
  0
LINE
  8
0
 10
39.7259
 20
-9.74246
 11
39.9084
 21
-9.85039
  0
LINE
  8
0
 10
39.9084
 20
-9.85039
 11
40.0838
 21
-9.96956
  0
LINE
  8
0
 10
40.0838
 20
-9.96956
 11
40.2513
 21
-10.0995
  0
LINE
  8
0
 10
40.2513
 20
-10.0995
 11
40.4103
 21
-10.2397
  0
LINE
  8
0
 10
40.4103
 20
-10.2397
 11
40.5603
 21
-10.3896
  0
LINE
  8
0
 10
40.5603
 20
-10.3896
 11
40.7005
 21
-10.5487
  0
LINE
  8
0
 10
40.7005
 20
-10.5487
 11
40.8304
 21
-10.7162
  0
LINE
  8
0
 10
40.8304
 20
-10.7162
 11
40.9496
 21
-10.8916
  0
LINE
  8
0
 10
40.9496
 20
-10.8916
 11
41.0575
 21
-11.0741
  0
LINE
  8
0
 10
41.0575
 20
-11.0741
 11
41.1538
 21
-11.263
  0
LINE
  8
0
 10
41.1538
 20
-11.263
 11
41.238
 21
-11.4576
  0
LINE
  8
0
 10
41.238
 20
-11.4576
 11
41.3098
 21
-11.6571
  0
LINE
  8
0
 10
41.3098
 20
-11.6571
 11
41.369
 21
-11.8607
  0
LINE
  8
0
 10
41.369
 20
-11.8607
 11
41.4152
 21
-12.0676
  0
LINE
  8
0
 10
41.4152
 20
-12.0676
 11
41.4484
 21
-12.277
  0
LINE
  8
0
 10
41.4484
 20
-12.277
 11
41.4683
 21
-12.4881
  0
LINE
  8
0
 10
41.4683
 20
-12.4881
 11
41.475
 21
-12.7
  0
LINE
  8
0
 10
41.475
 20
-12.7
 11
41.4683
 21
-12.9119
  0
LINE
  8
0
 10
41.4683
 20
-12.9119
 11
41.4484
 21
-13.123
  0
LINE
  8
0
 10
41.4484
 20
-13.123
 11
41.4152
 21
-13.3324
  0
LINE
  8
0
 10
41.4152
 20
-13.3324
 11
41.369
 21
-13.5393
  0
LINE
  8
0
 10
41.369
 20
-13.5393
 11
41.3098
 21
-13.7429
  0
LINE
  8
0
 10
41.3098
 20
-13.7429
 11
41.238
 21
-13.9424
  0
LINE
  8
0
 10
41.238
 20
-13.9424
 11
41.1538
 21
-14.137
  0
LINE
  8
0
 10
41.1538
 20
-14.137
 11
41.0575
 21
-14.3259
  0
LINE
  8
0
 10
41.0575
 20
-14.3259
 11
40.9496
 21
-14.5084
  0
LINE
  8
0
 10
40.9496
 20
-14.5084
 11
40.8304
 21
-14.6838
  0
LINE
  8
0
 10
40.8304
 20
-14.6838
 11
40.7005
 21
-14.8513
  0
LINE
  8
0
 10
40.7005
 20
-14.8513
 11
40.5603
 21
-15.0103
  0
LINE
  8
0
 10
40.5603
 20
-15.0103
 11
40.4103
 21
-15.1603
  0
LINE
  8
0
 10
40.4103
 20
-15.1603
 11
40.2513
 21
-15.3005
  0
LINE
  8
0
 10
40.2513
 20
-15.3005
 11
40.0838
 21
-15.4304
  0
LINE
  8
0
 10
40.0838
 20
-15.4304
 11
39.9084
 21
-15.5496
  0
LINE
  8
0
 10
39.9084
 20
-15.5496
 11
39.7259
 21
-15.6575
  0
LINE
  8
0
 10
39.7259
 20
-15.6575
 11
39.537
 21
-15.7538
  0
LINE
  8
0
 10
39.537
 20
-15.7538
 11
39.3424
 21
-15.838
  0
LINE
  8
0
 10
39.3424
 20
-15.838
 11
39.1429
 21
-15.9098
  0
LINE
  8
0
 10
39.1429
 20
-15.9098
 11
38.9393
 21
-15.969
  0
LINE
  8
0
 10
38.9393
 20
-15.969
 11
38.7324
 21
-16.0152
  0
LINE
  8
0
 10
38.7324
 20
-16.0152
 11
38.523
 21
-16.0484
  0
LINE
  8
0
 10
38.523
 20
-16.0484
 11
38.3119
 21
-16.0683
  0
LINE
  8
0
 10
38.3119
 20
-16.0683
 11
38.1
 21
-16.075
  0
LINE
  8
0
 10
38.1
 20
-16.075
 11
37.8881
 21
-16.0683
  0
LINE
  8
0
 10
-38.3119
 20
-16.0683
 11
-38.523
 21
-16.0484
  0
LINE
  8
0
 10
-38.523
 20
-16.0484
 11
-38.7324
 21
-16.0152
  0
LINE
  8
0
 10
-38.7324
 20
-16.0152
 11
-38.9393
 21
-15.969
  0
LINE
  8
0
 10
-38.9393
 20
-15.969
 11
-39.1429
 21
-15.9098
  0
LINE
  8
0
 10
-39.1429
 20
-15.9098
 11
-39.3424
 21
-15.838
  0
LINE
  8
0
 10
-39.3424
 20
-15.838
 11
-39.537
 21
-15.7538
  0
LINE
  8
0
 10
-39.537
 20
-15.7538
 11
-39.7259
 21
-15.6575
  0
LINE
  8
0
 10
-39.7259
 20
-15.6575
 11
-39.9084
 21
-15.5496
  0
LINE
  8
0
 10
-39.9084
 20
-15.5496
 11
-40.0838
 21
-15.4304
  0
LINE
  8
0
 10
-40.0838
 20
-15.4304
 11
-40.2513
 21
-15.3005
  0
LINE
  8
0
 10
-40.2513
 20
-15.3005
 11
-40.4103
 21
-15.1603
  0
LINE
  8
0
 10
-40.4103
 20
-15.1603
 11
-40.5603
 21
-15.0103
  0
LINE
  8
0
 10
-40.5603
 20
-15.0103
 11
-40.7005
 21
-14.8513
  0
LINE
  8
0
 10
-40.7005
 20
-14.8513
 11
-40.8304
 21
-14.6838
  0
LINE
  8
0
 10
-40.8304
 20
-14.6838
 11
-40.9496
 21
-14.5084
  0
LINE
  8
0
 10
-40.9496
 20
-14.5084
 11
-41.0575
 21
-14.3259
  0
LINE
  8
0
 10
-41.0575
 20
-14.3259
 11
-41.1538
 21
-14.137
  0
LINE
  8
0
 10
-41.1538
 20
-14.137
 11
-41.238
 21
-13.9424
  0
LINE
  8
0
 10
-41.238
 20
-13.9424
 11
-41.3098
 21
-13.7429
  0
LINE
  8
0
 10
-41.3098
 20
-13.7429
 11
-41.369
 21
-13.5393
  0
LINE
  8
0
 10
-41.369
 20
-13.5393
 11
-41.4152
 21
-13.3324
  0
LINE
  8
0
 10
-41.4152
 20
-13.3324
 11
-41.4484
 21
-13.123
  0
LINE
  8
0
 10
-41.4484
 20
-13.123
 11
-41.4683
 21
-12.9119
  0
LINE
  8
0
 10
-41.4683
 20
-12.9119
 11
-41.475
 21
-12.7
  0
LINE
  8
0
 10
-41.475
 20
-12.7
 11
-41.4683
 21
-12.4881
  0
LINE
  8
0
 10
-41.4683
 20
-12.4881
 11
-41.4484
 21
-12.277
  0
LINE
  8
0
 10
-41.4484
 20
-12.277
 11
-41.4152
 21
-12.0676
  0
LINE
  8
0
 10
-41.4152
 20
-12.0676
 11
-41.369
 21
-11.8607
  0
LINE
  8
0
 10
-41.369
 20
-11.8607
 11
-41.3098
 21
-11.6571
  0
LINE
  8
0
 10
-41.3098
 20
-11.6571
 11
-41.238
 21
-11.4576
  0
LINE
  8
0
 10
-41.238
 20
-11.4576
 11
-41.1538
 21
-11.263
  0
LINE
  8
0
 10
-41.1538
 20
-11.263
 11
-41.0575
 21
-11.0741
  0
LINE
  8
0
 10
-41.0575
 20
-11.0741
 11
-40.9496
 21
-10.8916
  0
LINE
  8
0
 10
-40.9496
 20
-10.8916
 11
-40.8304
 21
-10.7162
  0
LINE
  8
0
 10
-40.8304
 20
-10.7162
 11
-40.7005
 21
-10.5487
  0
LINE
  8
0
 10
-40.7005
 20
-10.5487
 11
-40.5603
 21
-10.3896
  0
LINE
  8
0
 10
-40.5603
 20
-10.3896
 11
-40.4103
 21
-10.2397
  0
LINE
  8
0
 10
-40.4103
 20
-10.2397
 11
-40.2513
 21
-10.0995
  0
LINE
  8
0
 10
-40.2513
 20
-10.0995
 11
-40.0838
 21
-9.96956
  0
LINE
  8
0
 10
-40.0838
 20
-9.96956
 11
-39.9084
 21
-9.85039
  0
LINE
  8
0
 10
-39.9084
 20
-9.85039
 11
-39.7259
 21
-9.74246
  0
LINE
  8
0
 10
-39.7259
 20
-9.74246
 11
-39.537
 21
-9.64619
  0
LINE
  8
0
 10
-39.537
 20
-9.64619
 11
-39.3424
 21
-9.562
  0
LINE
  8
0
 10
-39.3424
 20
-9.562
 11
-39.1429
 21
-9.49017
  0
LINE
  8
0
 10
-39.1429
 20
-9.49017
 11
-38.9393
 21
-9.43103
  0
LINE
  8
0
 10
-38.9393
 20
-9.43103
 11
-38.7324
 21
-9.38477
  0
LINE
  8
0
 10
-38.7324
 20
-9.38477
 11
-38.523
 21
-9.35161
  0
LINE
  8
0
 10
-38.523
 20
-9.35161
 11
-38.3119
 21
-9.33165
  0
LINE
  8
0
 10
-38.3119
 20
-9.33165
 11
-38.1
 21
-9.325
  0
LINE
  8
0
 10
-38.1
 20
-9.325
 11
-37.8881
 21
-9.33165
  0
LINE
  8
0
 10
-37.8881
 20
-9.33165
 11
-37.677
 21
-9.35161
  0
LINE
  8
0
 10
-37.677
 20
-9.35161
 11
-37.4676
 21
-9.38477
  0
LINE
  8
0
 10
-37.4676
 20
-9.38477
 11
-37.2607
 21
-9.43103
  0
LINE
  8
0
 10
-37.2607
 20
-9.43103
 11
-37.0571
 21
-9.49017
  0
LINE
  8
0
 10
-37.0571
 20
-9.49017
 11
-36.8576
 21
-9.562
  0
LINE
  8
0
 10
-36.8576
 20
-9.562
 11
-36.663
 21
-9.64619
  0
LINE
  8
0
 10
-36.663
 20
-9.64619
 11
-36.4741
 21
-9.74246
  0
LINE
  8
0
 10
-36.4741
 20
-9.74246
 11
-36.2916
 21
-9.85039
  0
LINE
  8
0
 10
-36.2916
 20
-9.85039
 11
-36.1162
 21
-9.96956
  0
LINE
  8
0
 10
-36.1162
 20
-9.96956
 11
-35.9487
 21
-10.0995
  0
LINE
  8
0
 10
-35.9487
 20
-10.0995
 11
-35.7896
 21
-10.2397
  0
LINE
  8
0
 10
-35.7896
 20
-10.2397
 11
-35.6397
 21
-10.3896
  0
LINE
  8
0
 10
-35.6397
 20
-10.3896
 11
-35.4995
 21
-10.5487
  0
LINE
  8
0
 10
-35.4995
 20
-10.5487
 11
-35.3696
 21
-10.7162
  0
LINE
  8
0
 10
-35.3696
 20
-10.7162
 11
-35.2504
 21
-10.8916
  0
LINE
  8
0
 10
-35.2504
 20
-10.8916
 11
-35.1425
 21
-11.0741
  0
LINE
  8
0
 10
-35.1425
 20
-11.0741
 11
-35.0462
 21
-11.263
  0
LINE
  8
0
 10
-35.0462
 20
-11.263
 11
-34.962
 21
-11.4576
  0
LINE
  8
0
 10
-34.962
 20
-11.4576
 11
-34.8902
 21
-11.6571
  0
LINE
  8
0
 10
-34.8902
 20
-11.6571
 11
-34.831
 21
-11.8607
  0
LINE
  8
0
 10
-34.831
 20
-11.8607
 11
-34.7848
 21
-12.0676
  0
LINE
  8
0
 10
-34.7848
 20
-12.0676
 11
-34.7516
 21
-12.277
  0
LINE
  8
0
 10
-34.7516
 20
-12.277
 11
-34.7317
 21
-12.4881
  0
LINE
  8
0
 10
-34.7317
 20
-12.4881
 11
-34.725
 21
-12.7
  0
LINE
  8
0
 10
-34.725
 20
-12.7
 11
-34.7317
 21
-12.9119
  0
LINE
  8
0
 10
-34.7317
 20
-12.9119
 11
-34.7516
 21
-13.123
  0
LINE
  8
0
 10
-34.7516
 20
-13.123
 11
-34.7848
 21
-13.3324
  0
LINE
  8
0
 10
-34.7848
 20
-13.3324
 11
-34.831
 21
-13.5393
  0
LINE
  8
0
 10
-34.831
 20
-13.5393
 11
-34.8902
 21
-13.7429
  0
LINE
  8
0
 10
-34.8902
 20
-13.7429
 11
-34.962
 21
-13.9424
  0
LINE
  8
0
 10
-34.962
 20
-13.9424
 11
-35.0462
 21
-14.137
  0
LINE
  8
0
 10
-35.0462
 20
-14.137
 11
-35.1425
 21
-14.3259
  0
LINE
  8
0
 10
-35.1425
 20
-14.3259
 11
-35.2504
 21
-14.5084
  0
LINE
  8
0
 10
-35.2504
 20
-14.5084
 11
-35.3696
 21
-14.6838
  0
LINE
  8
0
 10
-35.3696
 20
-14.6838
 11
-35.4995
 21
-14.8513
  0
LINE
  8
0
 10
-35.4995
 20
-14.8513
 11
-35.6397
 21
-15.0103
  0
LINE
  8
0
 10
-35.6397
 20
-15.0103
 11
-35.7896
 21
-15.1603
  0
LINE
  8
0
 10
-35.7896
 20
-15.1603
 11
-35.9487
 21
-15.3005
  0
LINE
  8
0
 10
-35.9487
 20
-15.3005
 11
-36.1162
 21
-15.4304
  0
LINE
  8
0
 10
-36.1162
 20
-15.4304
 11
-36.2916
 21
-15.5496
  0
LINE
  8
0
 10
-36.2916
 20
-15.5496
 11
-36.4741
 21
-15.6575
  0
LINE
  8
0
 10
-36.4741
 20
-15.6575
 11
-36.663
 21
-15.7538
  0
LINE
  8
0
 10
-36.663
 20
-15.7538
 11
-36.8576
 21
-15.838
  0
LINE
  8
0
 10
-36.8576
 20
-15.838
 11
-37.0571
 21
-15.9098
  0
LINE
  8
0
 10
-37.0571
 20
-15.9098
 11
-37.2607
 21
-15.969
  0
LINE
  8
0
 10
-37.2607
 20
-15.969
 11
-37.4676
 21
-16.0152
  0
LINE
  8
0
 10
-37.4676
 20
-16.0152
 11
-37.677
 21
-16.0484
  0
LINE
  8
0
 10
-37.677
 20
-16.0484
 11
-37.8881
 21
-16.0683
  0
LINE
  8
0
 10
-37.8881
 20
-16.0683
 11
-38.1
 21
-16.075
  0
LINE
  8
0
 10
-38.1
 20
-16.075
 11
-38.3119
 21
-16.0683
  0
ENDSEC
  0
SECTION
  2
OBJECTS
  0
DICTIONARY
  0
ENDSEC
  0
EOF
