  0
SECTION
  2
HEADER
  9
$ACADVER
  1
AC1009
  9
$DWGCODEPAGE
  3
ANSI_1252
  9
$INSBASE
 10
0.0
 20
0.0
 30
0.0
  9
$EXTMIN
 10
1e+20
 20
1e+20
 30
1e+20
  9
$EXTMAX
 10
-1e+20
 20
-1e+20
 30
-1e+20
  9
$LIMMIN
 10
0.0
 20
0.0
  9
$LIMMAX
 10
420.0
 20
297.0
  9
$ORTHOMODE
 70
0
  9
$REGENMODE
 70
1
  9
$FILLMODE
 70
1
  9
$DRAGMODE
 70
2
  9
$QTEXTMODE
 70
0
  9
$MIRRTEXT
 70
1
  9
$OSMODE
 70
20583
  9
$LTSCALE
 40
1.0
  9
$ATTMODE
 70
1
  9
$TEXTSIZE
 40
2.5
  9
$TRACEWID
 40
1.0
  9
$TEXTSTYLE
  7
Standard
  9
$CLAYER
  8
0
  9
$CELTYPE
  6
ByLayer
  9
$CECOLOR
 62
256
  9
$DIMSCALE
 40
1.0
  9
$DIMASZ
 40
2.5
  9
$DIMEXO
 40
0.625
  9
$DIMDLI
 40
3.75
  9
$DIMRND
 40
0.0
  9
$DIMDLE
 40
0.0
  9
$DIMEXE
 40
1.25
  9
$DIMTP
 40
0.0
  9
$DIMTM
 40
0.0
  9
$DIMTXT
 40
2.5
  9
$DIMCEN
 40
2.5
  9
$DIMTSZ
 40
0.0
  9
$DIMTOL
 70
0
  9
$DIMLIM
 70
0
  9
$DIMTIH
 70
0
  9
$DIMTOH
 70
0
  9
$DIMSE1
 70
0
  9
$DIMSE2
 70
0
  9
$DIMTAD
 70
1
  9
$DIMZIN
 70
8
  9
$DIMBLK
  1

  9
$DIMASO
 70
1
  9
$DIMSHO
 70
1
  9
$DIMPOST
  1

  9
$DIMAPOST
  1

  9
$DIMALT
 70
0
  9
$DIMALTD
 70
3
  9
$DIMALTF
 40
0.03937007874
  9
$DIMLFAC
 40
1.0
  9
$DIMTOFL
 70
1
  9
$DIMTVP
 40
0.0
  9
$DIMTIX
 70
0
  9
$DIMSOXD
 70
0
  9
$DIMSAH
 70
0
  9
$DIMBLK1
  1

  9
$DIMBLK2
  1

  9
$DIMSTYLE
  2
ISO-25
  9
$DIMCLRD
 70
0
  9
$DIMCLRE
 70
0
  9
$DIMCLRT
 70
0
  9
$DIMTFAC
 40
1.0
  9
$DIMGAP
 40
0.625
  9
$COORDS
 70
1
  9
$ATTDIA
 70
0
  9
$ATTREQ
 70
1
  9
$HANDLING
 70
1
  9
$LUNITS
 70
2
  9
$LUPREC
 70
4
  9
$SKETCHINC
 40
1.0
  9
$FILLETRAD
 40
10.0
  9
$AUNITS
 70
0
  9
$AUPREC
 70
2
  9
$MENU
  1
.
  9
$ELEVATION
 40
0.0
  9
$PELEVATION
 40
0.0
  9
$THICKNESS
 40
0.0
  9
$LIMCHECK
 70
0
  9
$CHAMFERA
 40
0.0
  9
$CHAMFERB
 40
0.0
  9
$SKPOLY
 70
0
  9
$TDCREATE
 40
2461285.4525810187
  9
$TDUPDATE
 40
2461285.4525810187
  9
$TDINDWG
 40
0.0
  9
$TDUSRTIMER
 40
0.0
  9
$USRTIMER
 70
1
  9
$ANGBASE
 50
0.0
  9
$ANGDIR
 70
0
  9
$PDMODE
 70
0
  9
$PDSIZE
 40
0.0
  9
$PLINEWID
 40
0.0
  9
$SPLFRAME
 70
0
  9
$SPLINETYPE
 70
6
  9
$SPLINESEGS
 70
8
  9
$HANDSEED
  5
19F
  9
$SURFTAB1
 70
6
  9
$SURFTAB2
 70
6
  9
$SURFTYPE
 70
6
  9
$SURFU
 70
6
  9
$SURFV
 70
6
  9
$UCSNAME
  2

  9
$UCSORG
 10
0.0
 20
0.0
 30
0.0
  9
$UCSXDIR
 10
1.0
 20
0.0
 30
0.0
  9
$UCSYDIR
 10
0.0
 20
1.0
 30
0.0
  9
$PUCSNAME
  2

  9
$PUCSORG
 10
0.0
 20
0.0
 30
0.0
  9
$PUCSXDIR
 10
1.0
 20
0.0
 30
0.0
  9
$PUCSYDIR
 10
0.0
 20
1.0
 30
0.0
  9
$USERI1
 70
0
  9
$USERI2
 70
0
  9
$USERI3
 70
0
  9
$USERI4
 70
0
  9
$USERI5
 70
0
  9
$USERR1
 40
0.0
  9
$USERR2
 40
0.0
  9
$USERR3
 40
0.0
  9
$USERR4
 40
0.0
  9
$USERR5
 40
0.0
  9
$WORLDVIEW
 70
1
  9
$SHADEDGE
 70
3
  9
$SHADEDIF
 70
70
  9
$TILEMODE
 70
1
  9
$MAXACTVP
 70
64
  9
$PLIMCHECK
 70
0
  9
$PEXTMIN
 10
1e+20
 20
1e+20
 30
1e+20
  9
$PEXTMAX
 10
-1e+20
 20
-1e+20
 30
-1e+20
  9
$PLIMMIN
 10
0.0
 20
0.0
  9
$PLIMMAX
 10
420.0
 20
297.0
  9
$UNITMODE
 70
0
  9
$VISRETAIN
 70
1
  9
$PLINEGEN
 70
0
  9
$PSLTSCALE
 70
1
  0
ENDSEC
  0
SECTION
  2
TABLES
  0
TABLE
  2
VPORT
 70
1
  0
VPORT
  5
193
  2
*Active
 70
0
 10
0.0
 20
0.0
 11
1.0
 21
1.0
 12
0.0
 22
0.0
 13
0.0
 23
0.0
 14
0.5
 24
0.5
 15
0.5
 25
0.5
 16
0.0
 26
0.0
 36
1.0
 17
0.0
 27
0.0
 37
0.0
 40
1000.0
 41
1.34
 42
50.0
 43
0.0
 44
0.0
 50
0.0
 51
0.0
 71
0
 72
1000
 73
1
 74
3
 75
0
 76
0
 77
0
 78
0
  0
ENDTAB
  0
TABLE
  2
LTYPE
 70
3
  0
LTYPE
  5
194
  2
ByBlock
 70
0
  3

 72
65
 73
0
 40
0.0
  0
LTYPE
  5
195
  2
ByLayer
 70
0
  3

 72
65
 73
0
 40
0.0
  0
LTYPE
  5
196
  2
Continuous
 70
0
  3

 72
65
 73
0
 40
0.0
  0
ENDTAB
  0
TABLE
  2
LAYER
 70
2
  0
LAYER
  5
197
  2
0
 70
0
 62
1
  6
Continuous
  0
LAYER
  5
198
  2
Defpoints
 70
0
 62
7
  6
Continuous
  0
ENDTAB
  0
TABLE
  2
STYLE
 70
1
  0
STYLE
  5
199
  2
Standard
 70
0
 40
0.0
 41
1.0
 50
0.0
 71
0
 42
2.5
  3
txt
  4

  0
ENDTAB
  0
TABLE
  2
VIEW
 70
0
  0
ENDTAB
  0
TABLE
  2
UCS
 70
0
  0
ENDTAB
  0
TABLE
  2
APPID
 70
3
  0
APPID
  5
19A
  2
ACAD
 70
0
  0
APPID
  5
19D
  2
HATCHBACKGROUNDCOLOR
 70
0
  0
APPID
  5
19E
  2
EZDXF
 70
0
  0
ENDTAB
  0
TABLE
  2
DIMSTYLE
 70
1
  0
DIMSTYLE
105
19B
  2
Standard
 70
0
  3

  4

  5

  6

  7

 40
1.0
 41
2.5
 42
0.625
 43
3.75
 44
1.25
 45
0.0
 46
0.0
 47
0.0
 48
0.0
140
2.5
141
2.5
142
0.0
143
0.03937007874
144
1.0
145
0.0
146
1.0
147
0.625
 71
0
 72
0
 73
0
 74
0
 75
0
 76
0
 77
1
 78
8
170
0
171
3
172
1
173
0
174
0
175
0
176
0
177
0
178
0
  0
ENDTAB
  0
ENDSEC
  0
SECTION
  2
BLOCKS
  0
BLOCK
  5
174
  8
0
  2
$Model_Space
 70
0
 10
0.0
 20
0.0
 30
0.0
  3
$Model_Space
  1

1001
EZDXF
1000
WRITTEN_BY_EZDXF
1000
1.4.4 @ 2026-09-01T14:51:43.179787+00:00
  0
ENDBLK
  5
175
  8
0
  0
BLOCK
  5
176
  8
0
  2
$Paper_Space
 70
0
 10
0.0
 20
0.0
 30
0.0
  3
$Paper_Space
  1

  0
ENDBLK
  5
177
  8
0
  0
ENDSEC
  0
SECTION
  2
ENTITIES
  0
LINE
  5
100
  8
0
 62
1
 10
20.0
 20
25.0
 30
0.0
 11
-20.0
 21
25.0
 31
0.0
  0
LINE
  5
101
  8
0
 62
1
 10
-20.0
 20
25.0
 30
0.0
 11
-20.0
 21
-25.0
 31
0.0
  0
LINE
  5
102
  8
0
 62
1
 10
-20.0
 20
-25.0
 30
0.0
 11
20.0
 21
-25.0
 31
0.0
  0
LINE
  5
103
  8
0
 62
1
 10
20.0
 20
-25.0
 30
0.0
 11
20.0
 21
25.0
 31
0.0
  0
LINE
  5
104
  8
0
 62
1
 10
-0.211914
 20
-3.36833
 30
0.0
 11
-0.422989
 21
-3.34837
 31
0.0
  0
LINE
  5
105
  8
0
 62
1
 10
-0.422989
 20
-3.34837
 30
0.0
 11
-0.632401
 21
-3.31522
 31
0.0
  0
LINE
  5
106
  8
0
 62
1
 10
-0.632401
 20
-3.31522
 30
0.0
 11
-0.839325
 21
-3.26897
 31
0.0
  0
LINE
  5
107
  8
0
 62
1
 10
-0.839325
 20
-3.26897
 30
0.0
 11
-1.04292
 21
-3.20981
 31
0.0
  0
LINE
  5
108
  8
0
 62
1
 10
-1.04292
 20
-3.20981
 30
0.0
 11
-1.24242
 21
-3.13799
 31
0.0
  0
LINE
  5
109
  8
0
 62
1
 10
-1.24242
 20
-3.13799
 30
0.0
 11
-1.437
 21
-3.05379
 31
0.0
  0
LINE
  5
10A
  8
0
 62
1
 10
-1.437
 20
-3.05379
 30
0.0
 11
-1.62592
 21
-2.95753
 31
0.0
  0
LINE
  5
10B
  8
0
 62
1
 10
-1.62592
 20
-2.95753
 30
0.0
 11
-1.80841
 21
-2.84959
 31
0.0
  0
LINE
  5
10C
  8
0
 62
1
 10
-1.80841
 20
-2.84959
 30
0.0
 11
-1.98376
 21
-2.73042
 31
0.0
  0
LINE
  5
10D
  8
0
 62
1
 10
-1.98376
 20
-2.73042
 30
0.0
 11
-2.15129
 21
-2.60048
 31
0.0
  0
LINE
  5
10E
  8
0
 62
1
 10
-2.15129
 20
-2.60048
 30
0.0
 11
-2.31033
 21
-2.46027
 31
0.0
  0
LINE
  5
10F
  8
0
 62
1
 10
-2.31033
 20
-2.46027
 30
0.0
 11
-2.46027
 21
-2.31033
 31
0.0
  0
LINE
  5
110
  8
0
 62
1
 10
-2.46027
 20
-2.31033
 30
0.0
 11
-2.60048
 21
-2.15129
 31
0.0
  0
LINE
  5
111
  8
0
 62
1
 10
-2.60048
 20
-2.15129
 30
0.0
 11
-2.73042
 21
-1.98376
 31
0.0
  0
LINE
  5
112
  8
0
 62
1
 10
-2.73042
 20
-1.98376
 30
0.0
 11
-2.84959
 21
-1.80841
 31
0.0
  0
LINE
  5
113
  8
0
 62
1
 10
-2.84959
 20
-1.80841
 30
0.0
 11
-2.95753
 21
-1.62592
 31
0.0
  0
LINE
  5
114
  8
0
 62
1
 10
-2.95753
 20
-1.62592
 30
0.0
 11
-3.05379
 21
-1.437
 31
0.0
  0
LINE
  5
115
  8
0
 62
1
 10
-3.05379
 20
-1.437
 30
0.0
 11
-3.13799
 21
-1.24242
 31
0.0
  0
LINE
  5
116
  8
0
 62
1
 10
-3.13799
 20
-1.24242
 30
0.0
 11
-3.20981
 21
-1.04292
 31
0.0
  0
LINE
  5
117
  8
0
 62
1
 10
-3.20981
 20
-1.04292
 30
0.0
 11
-3.26897
 21
-0.839325
 31
0.0
  0
LINE
  5
118
  8
0
 62
1
 10
-3.26897
 20
-0.839325
 30
0.0
 11
-3.31522
 21
-0.632401
 31
0.0
  0
LINE
  5
119
  8
0
 62
1
 10
-3.31522
 20
-0.632401
 30
0.0
 11
-3.34837
 21
-0.422989
 31
0.0
  0
LINE
  5
11A
  8
0
 62
1
 10
-3.34837
 20
-0.422989
 30
0.0
 11
-3.36833
 21
-0.211914
 31
0.0
  0
LINE
  5
11B
  8
0
 62
1
 10
-3.36833
 20
-0.211914
 30
0.0
 11
-3.375
 21
0.0
 31
0.0
  0
LINE
  5
11C
  8
0
 62
1
 10
-3.375
 20
0.0
 30
0.0
 11
-3.36833
 21
0.211914
 31
0.0
  0
LINE
  5
11D
  8
0
 62
1
 10
-3.36833
 20
0.211914
 30
0.0
 11
-3.34837
 21
0.422989
 31
0.0
  0
LINE
  5
11E
  8
0
 62
1
 10
-3.34837
 20
0.422989
 30
0.0
 11
-3.31522
 21
0.632401
 31
0.0
  0
LINE
  5
11F
  8
0
 62
1
 10
-3.31522
 20
0.632401
 30
0.0
 11
-3.26897
 21
0.839325
 31
0.0
  0
LINE
  5
120
  8
0
 62
1
 10
-3.26897
 20
0.839325
 30
0.0
 11
-3.20981
 21
1.04292
 31
0.0
  0
LINE
  5
121
  8
0
 62
1
 10
-3.20981
 20
1.04292
 30
0.0
 11
-3.13799
 21
1.24242
 31
0.0
  0
LINE
  5
122
  8
0
 62
1
 10
-3.13799
 20
1.24242
 30
0.0
 11
-3.05379
 21
1.437
 31
0.0
  0
LINE
  5
123
  8
0
 62
1
 10
-3.05379
 20
1.437
 30
0.0
 11
-2.95753
 21
1.62592
 31
0.0
  0
LINE
  5
124
  8
0
 62
1
 10
-2.95753
 20
1.62592
 30
0.0
 11
-2.84959
 21
1.80841
 31
0.0
  0
LINE
  5
125
  8
0
 62
1
 10
-2.84959
 20
1.80841
 30
0.0
 11
-2.73042
 21
1.98376
 31
0.0
  0
LINE
  5
126
  8
0
 62
1
 10
-2.73042
 20
1.98376
 30
0.0
 11
-2.60048
 21
2.15129
 31
0.0
  0
LINE
  5
127
  8
0
 62
1
 10
-2.60048
 20
2.15129
 30
0.0
 11
-2.46027
 21
2.31033
 31
0.0
  0
LINE
  5
128
  8
0
 62
1
 10
-2.46027
 20
2.31033
 30
0.0
 11
-2.31033
 21
2.46027
 31
0.0
  0
LINE
  5
129
  8
0
 62
1
 10
-2.31033
 20
2.46027
 30
0.0
 11
-2.15129
 21
2.60048
 31
0.0
  0
LINE
  5
12A
  8
0
 62
1
 10
-2.15129
 20
2.60048
 30
0.0
 11
-1.98376
 21
2.73042
 31
0.0
  0
LINE
  5
12B
  8
0
 62
1
 10
-1.98376
 20
2.73042
 30
0.0
 11
-1.80841
 21
2.84959
 31
0.0
  0
LINE
  5
12C
  8
0
 62
1
 10
-1.80841
 20
2.84959
 30
0.0
 11
-1.62592
 21
2.95753
 31
0.0
  0
LINE
  5
12D
  8
0
 62
1
 10
-1.62592
 20
2.95753
 30
0.0
 11
-1.437
 21
3.05379
 31
0.0
  0
LINE
  5
12E
  8
0
 62
1
 10
-1.437
 20
3.05379
 30
0.0
 11
-1.24242
 21
3.13799
 31
0.0
  0
LINE
  5
12F
  8
0
 62
1
 10
-1.24242
 20
3.13799
 30
0.0
 11
-1.04292
 21
3.20981
 31
0.0
  0
LINE
  5
130
  8
0
 62
1
 10
-1.04292
 20
3.20981
 30
0.0
 11
-0.839325
 21
3.26897
 31
0.0
  0
LINE
  5
131
  8
0
 62
1
 10
-0.839325
 20
3.26897
 30
0.0
 11
-0.632401
 21
3.31522
 31
0.0
  0
LINE
  5
132
  8
0
 62
1
 10
-0.632401
 20
3.31522
 30
0.0
 11
-0.422989
 21
3.34837
 31
0.0
  0
LINE
  5
133
  8
0
 62
1
 10
-0.422989
 20
3.34837
 30
0.0
 11
-0.211914
 21
3.36833
 31
0.0
  0
LINE
  5
134
  8
0
 62
1
 10
-0.211914
 20
3.36833
 30
0.0
 11
0.0
 21
3.375
 31
0.0
  0
LINE
  5
135
  8
0
 62
1
 10
0.0
 20
3.375
 30
0.0
 11
0.211914
 21
3.36833
 31
0.0
  0
LINE
  5
136
  8
0
 62
1
 10
0.211914
 20
3.36833
 30
0.0
 11
0.422989
 21
3.34837
 31
0.0
  0
LINE
  5
137
  8
0
 62
1
 10
0.422989
 20
3.34837
 30
0.0
 11
0.632401
 21
3.31522
 31
0.0
  0
LINE
  5
138
  8
0
 62
1
 10
0.632401
 20
3.31522
 30
0.0
 11
0.839325
 21
3.26897
 31
0.0
  0
LINE
  5
139
  8
0
 62
1
 10
0.839325
 20
3.26897
 30
0.0
 11
1.04292
 21
3.20981
 31
0.0
  0
LINE
  5
13A
  8
0
 62
1
 10
1.04292
 20
3.20981
 30
0.0
 11
1.24242
 21
3.13799
 31
0.0
  0
LINE
  5
13B
  8
0
 62
1
 10
1.24242
 20
3.13799
 30
0.0
 11
1.437
 21
3.05379
 31
0.0
  0
LINE
  5
13C
  8
0
 62
1
 10
1.437
 20
3.05379
 30
0.0
 11
1.62592
 21
2.95753
 31
0.0
  0
LINE
  5
13D
  8
0
 62
1
 10
1.62592
 20
2.95753
 30
0.0
 11
1.80841
 21
2.84959
 31
0.0
  0
LINE
  5
13E
  8
0
 62
1
 10
1.80841
 20
2.84959
 30
0.0
 11
1.98376
 21
2.73042
 31
0.0
  0
LINE
  5
13F
  8
0
 62
1
 10
1.98376
 20
2.73042
 30
0.0
 11
2.15129
 21
2.60048
 31
0.0
  0
LINE
  5
140
  8
0
 62
1
 10
2.15129
 20
2.60048
 30
0.0
 11
2.31033
 21
2.46027
 31
0.0
  0
LINE
  5
141
  8
0
 62
1
 10
2.31033
 20
2.46027
 30
0.0
 11
2.46027
 21
2.31033
 31
0.0
  0
LINE
  5
142
  8
0
 62
1
 10
2.46027
 20
2.31033
 30
0.0
 11
2.60048
 21
2.15129
 31
0.0
  0
LINE
  5
143
  8
0
 62
1
 10
2.60048
 20
2.15129
 30
0.0
 11
2.73042
 21
1.98376
 31
0.0
  0
LINE
  5
144
  8
0
 62
1
 10
2.73042
 20
1.98376
 30
0.0
 11
2.84959
 21
1.80841
 31
0.0
  0
LINE
  5
145
  8
0
 62
1
 10
2.84959
 20
1.80841
 30
0.0
 11
2.95753
 21
1.62592
 31
0.0
  0
LINE
  5
146
  8
0
 62
1
 10
2.95753
 20
1.62592
 30
0.0
 11
3.05379
 21
1.437
 31
0.0
  0
LINE
  5
147
  8
0
 62
1
 10
3.05379
 20
1.437
 30
0.0
 11
3.13799
 21
1.24242
 31
0.0
  0
LINE
  5
148
  8
0
 62
1
 10
3.13799
 20
1.24242
 30
0.0
 11
3.20981
 21
1.04292
 31
0.0
  0
LINE
  5
149
  8
0
 62
1
 10
3.20981
 20
1.04292
 30
0.0
 11
3.26897
 21
0.839325
 31
0.0
  0
LINE
  5
14A
  8
0
 62
1
 10
3.26897
 20
0.839325
 30
0.0
 11
3.31522
 21
0.632401
 31
0.0
  0
LINE
  5
14B
  8
0
 62
1
 10
3.31522
 20
0.632401
 30
0.0
 11
3.34837
 21
0.422989
 31
0.0
  0
LINE
  5
14C
  8
0
 62
1
 10
3.34837
 20
0.422989
 30
0.0
 11
3.36833
 21
0.211914
 31
0.0
  0
LINE
  5
14D
  8
0
 62
1
 10
3.36833
 20
0.211914
 30
0.0
 11
3.375
 21
0.0
 31
0.0
  0
LINE
  5
14E
  8
0
 62
1
 10
3.375
 20
0.0
 30
0.0
 11
3.36833
 21
-0.211914
 31
0.0
  0
LINE
  5
14F
  8
0
 62
1
 10
3.36833
 20
-0.211914
 30
0.0
 11
3.34837
 21
-0.422989
 31
0.0
  0
LINE
  5
150
  8
0
 62
1
 10
3.34837
 20
-0.422989
 30
0.0
 11
3.31522
 21
-0.632401
 31
0.0
  0
LINE
  5
151
  8
0
 62
1
 10
3.31522
 20
-0.632401
 30
0.0
 11
3.26897
 21
-0.839325
 31
0.0
  0
LINE
  5
152
  8
0
 62
1
 10
3.26897
 20
-0.839325
 30
0.0
 11
3.20981
 21
-1.04292
 31
0.0
  0
LINE
  5
153
  8
0
 62
1
 10
3.20981
 20
-1.04292
 30
0.0
 11
3.13799
 21
-1.24242
 31
0.0
  0
LINE
  5
154
  8
0
 62
1
 10
3.13799
 20
-1.24242
 30
0.0
 11
3.05379
 21
-1.437
 31
0.0
  0
LINE
  5
155
  8
0
 62
1
 10
3.05379
 20
-1.437
 30
0.0
 11
2.95753
 21
-1.62592
 31
0.0
  0
LINE
  5
156
  8
0
 62
1
 10
2.95753
 20
-1.62592
 30
0.0
 11
2.84959
 21
-1.80841
 31
0.0
  0
LINE
  5
157
  8
0
 62
1
 10
2.84959
 20
-1.80841
 30
0.0
 11
2.73042
 21
-1.98376
 31
0.0
  0
LINE
  5
158
  8
0
 62
1
 10
2.73042
 20
-1.98376
 30
0.0
 11
2.60048
 21
-2.15129
 31
0.0
  0
LINE
  5
159
  8
0
 62
1
 10
2.60048
 20
-2.15129
 30
0.0
 11
2.46027
 21
-2.31033
 31
0.0
  0
LINE
  5
15A
  8
0
 62
1
 10
2.46027
 20
-2.31033
 30
0.0
 11
2.31033
 21
-2.46027
 31
0.0
  0
LINE
  5
15B
  8
0
 62
1
 10
2.31033
 20
-2.46027
 30
0.0
 11
2.15129
 21
-2.60048
 31
0.0
  0
LINE
  5
15C
  8
0
 62
1
 10
2.15129
 20
-2.60048
 30
0.0
 11
1.98376
 21
-2.73042
 31
0.0
  0
LINE
  5
15D
  8
0
 62
1
 10
1.98376
 20
-2.73042
 30
0.0
 11
1.80841
 21
-2.84959
 31
0.0
  0
LINE
  5
15E
  8
0
 62
1
 10
1.80841
 20
-2.84959
 30
0.0
 11
1.62592
 21
-2.95753
 31
0.0
  0
LINE
  5
15F
  8
0
 62
1
 10
1.62592
 20
-2.95753
 30
0.0
 11
1.437
 21
-3.05379
 31
0.0
  0
LINE
  5
160
  8
0
 62
1
 10
1.437
 20
-3.05379
 30
0.0
 11
1.24242
 21
-3.13799
 31
0.0
  0
LINE
  5
161
  8
0
 62
1
 10
1.24242
 20
-3.13799
 30
0.0
 11
1.04292
 21
-3.20981
 31
0.0
  0
LINE
  5
162
  8
0
 62
1
 10
1.04292
 20
-3.20981
 30
0.0
 11
0.839325
 21
-3.26897
 31
0.0
  0
LINE
  5
163
  8
0
 62
1
 10
0.839325
 20
-3.26897
 30
0.0
 11
0.632401
 21
-3.31522
 31
0.0
  0
LINE
  5
164
  8
0
 62
1
 10
0.632401
 20
-3.31522
 30
0.0
 11
0.422989
 21
-3.34837
 31
0.0
  0
LINE
  5
165
  8
0
 62
1
 10
0.422989
 20
-3.34837
 30
0.0
 11
0.211914
 21
-3.36833
 31
0.0
  0
LINE
  5
166
  8
0
 62
1
 10
0.211914
 20
-3.36833
 30
0.0
 11
0.0
 21
-3.375
 31
0.0
  0
LINE
  5
167
  8
0
 62
1
 10
0.0
 20
-3.375
 30
0.0
 11
-0.211914
 21
-3.36833
 31
0.0
  0
ENDSEC
  0
EOF
