  0
SECTION
  2
BLOCKS
  0
ENDSEC
  0
SECTION
  2
ENTITIES
  0
LINE
  8
0
 10
38.1
 20
80
 11
-38.1
 21
80
  0
LINE
  8
0
 10
-38.1
 20
80
 11
-38.1
 21
-80
  0
LINE
  8
0
 10
-38.1
 20
-80
 11
38.1
 21
-80
  0
LINE
  8
0
 10
38.1
 20
-80
 11
38.1
 21
80
  0
LINE
  8
0
 10
-0.211914
 20
46.6317
 11
-0.422989
 21
46.6516
  0
LINE
  8
0
 10
-0.422989
 20
46.6516
 11
-0.632401
 21
46.6848
  0
LINE
  8
0
 10
-0.632401
 20
46.6848
 11
-0.839325
 21
46.731
  0
LINE
  8
0
 10
-0.839325
 20
46.731
 11
-1.04292
 21
46.7902
  0
LINE
  8
0
 10
-1.04292
 20
46.7902
 11
-1.24242
 21
46.862
  0
LINE
  8
0
 10
-1.24242
 20
46.862
 11
-1.437
 21
46.9462
  0
LINE
  8
0
 10
-1.437
 20
46.9462
 11
-1.62592
 21
47.0424
  0
LINE
  8
0
 10
-1.62592
 20
47.0424
 11
-1.80841
 21
47.1504
  0
LINE
  8
0
 10
-1.80841
 20
47.1504
 11
-1.98376
 21
47.2696
  0
LINE
  8
0
 10
-1.98376
 20
47.2696
 11
-2.15129
 21
47.3995
  0
LINE
  8
0
 10
-2.15129
 20
47.3995
 11
-2.31033
 21
47.5397
  0
LINE
  8
0
 10
-2.31033
 20
47.5397
 11
-2.46027
 21
47.6897
  0
LINE
  8
0
 10
-2.46027
 20
47.6897
 11
-2.60048
 21
47.8487
  0
LINE
  8
0
 10
-2.60048
 20
47.8487
 11
-2.73042
 21
48.0162
  0
LINE
  8
0
 10
-2.73042
 20
48.0162
 11
-2.84959
 21
48.1916
  0
LINE
  8
0
 10
-2.84959
 20
48.1916
 11
-2.95753
 21
48.3741
  0
LINE
  8
0
 10
-2.95753
 20
48.3741
 11
-3.05379
 21
48.563
  0
LINE
  8
0
 10
-3.05379
 20
48.563
 11
-3.13799
 21
48.7576
  0
LINE
  8
0
 10
-3.13799
 20
48.7576
 11
-3.20981
 21
48.9571
  0
LINE
  8
0
 10
-3.20981
 20
48.9571
 11
-3.26897
 21
49.1607
  0
LINE
  8
0
 10
-3.26897
 20
49.1607
 11
-3.31522
 21
49.3676
  0
LINE
  8
0
 10
-3.31522
 20
49.3676
 11
-3.34837
 21
49.577
  0
LINE
  8
0
 10
-3.34837
 20
49.577
 11
-3.36833
 21
49.7881
  0
LINE
  8
0
 10
-3.36833
 20
49.7881
 11
-3.375
 21
50
  0
LINE
  8
0
 10
-3.375
 20
50
 11
-3.36833
 21
50.2119
  0
LINE
  8
0
 10
-3.36833
 20
50.2119
 11
-3.34837
 21
50.423
  0
LINE
  8
0
 10
-3.34837
 20
50.423
 11
-3.31522
 21
50.6324
  0
LINE
  8
0
 10
-3.31522
 20
50.6324
 11
-3.26897
 21
50.8393
  0
LINE
  8
0
 10
-3.26897
 20
50.8393
 11
-3.20981
 21
51.0429
  0
LINE
  8
0
 10
-3.20981
 20
51.0429
 11
-3.13799
 21
51.2424
  0
LINE
  8
0
 10
-3.13799
 20
51.2424
 11
-3.05379
 21
51.437
  0
LINE
  8
0
 10
-3.05379
 20
51.437
 11
-2.95753
 21
51.6259
  0
LINE
  8
0
 10
-2.95753
 20
51.6259
 11
-2.84959
 21
51.8084
  0
LINE
  8
0
 10
-2.84959
 20
51.8084
 11
-2.73042
 21
51.9838
  0
LINE
  8
0
 10
-2.73042
 20
51.9838
 11
-2.60048
 21
52.1513
  0
LINE
  8
0
 10
-2.60048
 20
52.1513
 11
-2.46027
 21
52.3103
  0
LINE
  8
0
 10
-2.46027
 20
52.3103
 11
-2.31033
 21
52.4603
  0
LINE
  8
0
 10
-2.31033
 20
52.4603
 11
-2.15129
 21
52.6005
  0
LINE
  8
0
 10
-2.15129
 20
52.6005
 11
-1.98376
 21
52.7304
  0
LINE
  8
0
 10
-1.98376
 20
52.7304
 11
-1.80841
 21
52.8496
  0
LINE
  8
0
 10
-1.80841
 20
52.8496
 11
-1.62592
 21
52.9575
  0
LINE
  8
0
 10
-1.62592
 20
52.9575
 11
-1.437
 21
53.0538
  0
LINE
  8
0
 10
-1.437
 20
53.0538
 11
-1.24242
 21
53.138
  0
LINE
  8
0
 10
-1.24242
 20
53.138
 11
-1.04292
 21
53.2098
  0
LINE
  8
0
 10
-1.04292
 20
53.2098
 11
-0.839325
 21
53.269
  0
LINE
  8
0
 10
-0.839325
 20
53.269
 11
-0.632401
 21
53.3152
  0
LINE
  8
0
 10
-0.632401
 20
53.3152
 11
-0.422989
 21
53.3484
  0
LINE
  8
0
 10
-0.422989
 20
53.3484
 11
-0.211914
 21
53.3683
  0
LINE
  8
0
 10
-0.211914
 20
53.3683
 11
0
 21
53.375
  0
LINE
  8
0
 10
0
 20
53.375
 11
0.211914
 21
53.3683
  0
LINE
  8
0
 10
0.211914
 20
53.3683
 11
0.422989
 21
53.3484
  0
LINE
  8
0
 10
0.422989
 20
53.3484
 11
0.632401
 21
53.3152
  0
LINE
  8
0
 10
0.632401
 20
53.3152
 11
0.839325
 21
53.269
  0
LINE
  8
0
 10
0.839325
 20
53.269
 11
1.04292
 21
53.2098
  0
LINE
  8
0
 10
1.04292
 20
53.2098
 11
1.24242
 21
53.138
  0
LINE
  8
0
 10
1.24242
 20
53.138
 11
1.437
 21
53.0538
  0
LINE
  8
0
 10
1.437
 20
53.0538
 11
1.62592
 21
52.9575
  0
LINE
  8
0
 10
1.62592
 20
52.9575
 11
1.80841
 21
52.8496
  0
LINE
  8
0
 10
1.80841
 20
52.8496
 11
1.98376
 21
52.7304
  0
LINE
  8
0
 10
1.98376
 20
52.7304
 11
2.15129
 21
52.6005
  0
LINE
  8
0
 10
2.15129
 20
52.6005
 11
2.31033
 21
52.4603
  0
LINE
  8
0
 10
2.31033
 20
52.4603
 11
2.46027
 21
52.3103
  0
LINE
  8
0
 10
2.46027
 20
52.3103
 11
2.60048
 21
52.1513
  0
LINE
  8
0
 10
2.60048
 20
52.1513
 11
2.73042
 21
51.9838
  0
LINE
  8
0
 10
2.73042
 20
51.9838
 11
2.84959
 21
51.8084
  0
LINE
  8
0
 10
2.84959
 20
51.8084
 11
2.95753
 21
51.6259
  0
LINE
  8
0
 10
2.95753
 20
51.6259
 11
3.05379
 21
51.437
  0
LINE
  8
0
 10
3.05379
 20
51.437
 11
3.13799
 21
51.2424
  0
LINE
  8
0
 10
3.13799
 20
51.2424
 11
3.20981
 21
51.0429
  0
LINE
  8
0
 10
3.20981
 20
51.0429
 11
3.26897
 21
50.8393
  0
LINE
  8
0
 10
3.26897
 20
50.8393
 11
3.31522
 21
50.6324
  0
LINE
  8
0
 10
3.31522
 20
50.6324
 11
3.34837
 21
50.423
  0
LINE
  8
0
 10
3.34837
 20
50.423
 11
3.36833
 21
50.2119
  0
LINE
  8
0
 10
3.36833
 20
50.2119
 11
3.375
 21
50
  0
LINE
  8
0
 10
3.375
 20
50
 11
3.36833
 21
49.7881
  0
LINE
  8
0
 10
3.36833
 20
49.7881
 11
3.34837
 21
49.577
  0
LINE
  8
0
 10
3.34837
 20
49.577
 11
3.31522
 21
49.3676
  0
LINE
  8
0
 10
3.31522
 20
49.3676
 11
3.26897
 21
49.1607
  0
LINE
  8
0
 10
3.26897
 20
49.1607
 11
3.20981
 21
48.9571
  0
LINE
  8
0
 10
3.20981
 20
48.9571
 11
3.13799
 21
48.7576
  0
LINE
  8
0
 10
3.13799
 20
48.7576
 11
3.05379
 21
48.563
  0
LINE
  8
0
 10
3.05379
 20
48.563
 11
2.95753
 21
48.3741
  0
LINE
  8
0
 10
2.95753
 20
48.3741
 11
2.84959
 21
48.1916
  0
LINE
  8
0
 10
2.84959
 20
48.1916
 11
2.73042
 21
48.0162
  0
LINE
  8
0
 10
2.73042
 20
48.0162
 11
2.60048
 21
47.8487
  0
LINE
  8
0
 10
2.60048
 20
47.8487
 11
2.46027
 21
47.6897
  0
LINE
  8
0
 10
2.46027
 20
47.6897
 11
2.31033
 21
47.5397
  0
LINE
  8
0
 10
2.31033
 20
47.5397
 11
2.15129
 21
47.3995
  0
LINE
  8
0
 10
2.15129
 20
47.3995
 11
1.98376
 21
47.2696
  0
LINE
  8
0
 10
1.98376
 20
47.2696
 11
1.80841
 21
47.1504
  0
LINE
  8
0
 10
1.80841
 20
47.1504
 11
1.62592
 21
47.0424
  0
LINE
  8
0
 10
1.62592
 20
47.0424
 11
1.437
 21
46.9462
  0
LINE
  8
0
 10
1.437
 20
46.9462
 11
1.24242
 21
46.862
  0
LINE
  8
0
 10
1.24242
 20
46.862
 11
1.04292
 21
46.7902
  0
LINE
  8
0
 10
1.04292
 20
46.7902
 11
0.839325
 21
46.731
  0
LINE
  8
0
 10
0.839325
 20
46.731
 11
0.632401
 21
46.6848
  0
LINE
  8
0
 10
0.632401
 20
46.6848
 11
0.422989
 21
46.6516
  0
LINE
  8
0
 10
0.422989
 20
46.6516
 11
0.211914
 21
46.6317
  0
LINE
  8
0
 10
0.211914
 20
46.6317
 11
0
 21
46.625
  0
LINE
  8
0
 10
0
 20
46.625
 11
-0.211914
 21
46.6317
  0
ENDSEC
  0
SECTION
  2
OBJECTS
  0
DICTIONARY
  0
ENDSEC
  0
EOF
