  0
SECTION
  2
BLOCKS
  0
ENDSEC
  0
SECTION
  2
ENTITIES
  0
LINE
  8
0
 10
20
 20
25
 11
-20
 21
25
  0
LINE
  8
0
 10
-20
 20
25
 11
-20
 21
-25
  0
LINE
  8
0
 10
-20
 20
-25
 11
20
 21
-25
  0
LINE
  8
0
 10
20
 20
-25
 11
20
 21
25
  0
LINE
  8
0
 10
-0.211914
 20
1.63165
 11
-0.422989
 21
1.65161
  0
LINE
  8
0
 10
-0.422989
 20
1.65161
 11
-0.632401
 21
1.68477
  0
LINE
  8
0
 10
-0.632401
 20
1.68477
 11
-0.839325
 21
1.73102
  0
LINE
  8
0
 10
-0.839325
 20
1.73102
 11
-1.04292
 21
1.79018
  0
LINE
  8
0
 10
-1.04292
 20
1.79018
 11
-1.24242
 21
1.862
  0
LINE
  8
0
 10
-1.24242
 20
1.862
 11
-1.437
 21
1.9462
  0
LINE
  8
0
 10
-1.437
 20
1.9462
 11
-1.62592
 21
2.04245
  0
LINE
  8
0
 10
-1.62592
 20
2.04245
 11
-1.80841
 21
2.15039
  0
LINE
  8
0
 10
-1.80841
 20
2.15039
 11
-1.98376
 21
2.26956
  0
LINE
  8
0
 10
-1.98376
 20
2.26956
 11
-2.15129
 21
2.39951
  0
LINE
  8
0
 10
-2.15129
 20
2.39951
 11
-2.31033
 21
2.53972
  0
LINE
  8
0
 10
-2.31033
 20
2.53972
 11
-2.46027
 21
2.68965
  0
LINE
  8
0
 10
-2.46027
 20
2.68965
 11
-2.60048
 21
2.84869
  0
LINE
  8
0
 10
-2.60048
 20
2.84869
 11
-2.73042
 21
3.01622
  0
LINE
  8
0
 10
-2.73042
 20
3.01622
 11
-2.84959
 21
3.19157
  0
LINE
  8
0
 10
-2.84959
 20
3.19157
 11
-2.95753
 21
3.37407
  0
LINE
  8
0
 10
-2.95753
 20
3.37407
 11
-3.05379
 21
3.56299
  0
LINE
  8
0
 10
-3.05379
 20
3.56299
 11
-3.13799
 21
3.75757
  0
LINE
  8
0
 10
-3.13799
 20
3.75757
 11
-3.20981
 21
3.95706
  0
LINE
  8
0
 10
-3.20981
 20
3.95706
 11
-3.26897
 21
4.16066
  0
LINE
  8
0
 10
-3.26897
 20
4.16066
 11
-3.31522
 21
4.36758
  0
LINE
  8
0
 10
-3.31522
 20
4.36758
 11
-3.34837
 21
4.577
  0
LINE
  8
0
 10
-3.34837
 20
4.577
 11
-3.36833
 21
4.78807
  0
LINE
  8
0
 10
-3.36833
 20
4.78807
 11
-3.375
 21
5
  0
LINE
  8
0
 10
-3.375
 20
5
 11
-3.36833
 21
5.21191
  0
LINE
  8
0
 10
-3.36833
 20
5.21191
 11
-3.34837
 21
5.42299
  0
LINE
  8
0
 10
-3.34837
 20
5.42299
 11
-3.31522
 21
5.6324
  0
LINE
  8
0
 10
-3.31522
 20
5.6324
 11
-3.26897
 21
5.83932
  0
LINE
  8
0
 10
-3.26897
 20
5.83932
 11
-3.20981
 21
6.04292
  0
LINE
  8
0
 10
-3.20981
 20
6.04292
 11
-3.13799
 21
6.24242
  0
LINE
  8
0
 10
-3.13799
 20
6.24242
 11
-3.05379
 21
6.437
  0
LINE
  8
0
 10
-3.05379
 20
6.437
 11
-2.95753
 21
6.62592
  0
LINE
  8
0
 10
-2.95753
 20
6.62592
 11
-2.84959
 21
6.80841
  0
LINE
  8
0
 10
-2.84959
 20
6.80841
 11
-2.73042
 21
6.98376
  0
LINE
  8
0
 10
-2.73042
 20
6.98376
 11
-2.60048
 21
7.15129
  0
LINE
  8
0
 10
-2.60048
 20
7.15129
 11
-2.46027
 21
7.31033
  0
LINE
  8
0
 10
-2.46027
 20
7.31033
 11
-2.31033
 21
7.46027
  0
LINE
  8
0
 10
-2.31033
 20
7.46027
 11
-2.15129
 21
7.60048
  0
LINE
  8
0
 10
-2.15129
 20
7.60048
 11
-1.98376
 21
7.73042
  0
LINE
  8
0
 10
-1.98376
 20
7.73042
 11
-1.80841
 21
7.84959
  0
LINE
  8
0
 10
-1.80841
 20
7.84959
 11
-1.62592
 21
7.95753
  0
LINE
  8
0
 10
-1.62592
 20
7.95753
 11
-1.437
 21
8.05379
  0
LINE
  8
0
 10
-1.437
 20
8.05379
 11
-1.24242
 21
8.13799
  0
LINE
  8
0
 10
-1.24242
 20
8.13799
 11
-1.04292
 21
8.20981
  0
LINE
  8
0
 10
-1.04292
 20
8.20981
 11
-0.839325
 21
8.26897
  0
LINE
  8
0
 10
-0.839325
 20
8.26897
 11
-0.632401
 21
8.31522
  0
LINE
  8
0
 10
-0.632401
 20
8.31522
 11
-0.422989
 21
8.34837
  0
LINE
  8
0
 10
-0.422989
 20
8.34837
 11
-0.211914
 21
8.36833
  0
LINE
  8
0
 10
-0.211914
 20
8.36833
 11
0
 21
8.375
  0
LINE
  8
0
 10
0
 20
8.375
 11
0.211914
 21
8.36833
  0
LINE
  8
0
 10
0.211914
 20
8.36833
 11
0.422989
 21
8.34837
  0
LINE
  8
0
 10
0.422989
 20
8.34837
 11
0.632401
 21
8.31522
  0
LINE
  8
0
 10
0.632401
 20
8.31522
 11
0.839325
 21
8.26897
  0
LINE
  8
0
 10
0.839325
 20
8.26897
 11
1.04292
 21
8.20981
  0
LINE
  8
0
 10
1.04292
 20
8.20981
 11
1.24242
 21
8.13799
  0
LINE
  8
0
 10
1.24242
 20
8.13799
 11
1.437
 21
8.05379
  0
LINE
  8
0
 10
1.437
 20
8.05379
 11
1.62592
 21
7.95753
  0
LINE
  8
0
 10
1.62592
 20
7.95753
 11
1.80841
 21
7.84959
  0
LINE
  8
0
 10
1.80841
 20
7.84959
 11
1.98376
 21
7.73042
  0
LINE
  8
0
 10
1.98376
 20
7.73042
 11
2.15129
 21
7.60048
  0
LINE
  8
0
 10
2.15129
 20
7.60048
 11
2.31033
 21
7.46027
  0
LINE
  8
0
 10
2.31033
 20
7.46027
 11
2.46027
 21
7.31033
  0
LINE
  8
0
 10
2.46027
 20
7.31033
 11
2.60048
 21
7.15129
  0
LINE
  8
0
 10
2.60048
 20
7.15129
 11
2.73042
 21
6.98376
  0
LINE
  8
0
 10
2.73042
 20
6.98376
 11
2.84959
 21
6.80841
  0
LINE
  8
0
 10
2.84959
 20
6.80841
 11
2.95753
 21
6.62592
  0
LINE
  8
0
 10
2.95753
 20
6.62592
 11
3.05379
 21
6.437
  0
LINE
  8
0
 10
3.05379
 20
6.437
 11
3.13799
 21
6.24242
  0
LINE
  8
0
 10
3.13799
 20
6.24242
 11
3.20981
 21
6.04292
  0
LINE
  8
0
 10
3.20981
 20
6.04292
 11
3.26897
 21
5.83932
  0
LINE
  8
0
 10
3.26897
 20
5.83932
 11
3.31522
 21
5.6324
  0
LINE
  8
0
 10
3.31522
 20
5.6324
 11
3.34837
 21
5.42299
  0
LINE
  8
0
 10
3.34837
 20
5.42299
 11
3.36833
 21
5.21191
  0
LINE
  8
0
 10
3.36833
 20
5.21191
 11
3.375
 21
5
  0
LINE
  8
0
 10
3.375
 20
5
 11
3.36833
 21
4.78807
  0
LINE
  8
0
 10
3.36833
 20
4.78807
 11
3.34837
 21
4.577
  0
LINE
  8
0
 10
3.34837
 20
4.577
 11
3.31522
 21
4.36758
  0
LINE
  8
0
 10
3.31522
 20
4.36758
 11
3.26897
 21
4.16066
  0
LINE
  8
0
 10
3.26897
 20
4.16066
 11
3.20981
 21
3.95706
  0
LINE
  8
0
 10
3.20981
 20
3.95706
 11
3.13799
 21
3.75757
  0
LINE
  8
0
 10
3.13799
 20
3.75757
 11
3.05379
 21
3.56299
  0
LINE
  8
0
 10
3.05379
 20
3.56299
 11
2.95753
 21
3.37407
  0
LINE
  8
0
 10
2.95753
 20
3.37407
 11
2.84959
 21
3.19157
  0
LINE
  8
0
 10
2.84959
 20
3.19157
 11
2.73042
 21
3.01622
  0
LINE
  8
0
 10
2.73042
 20
3.01622
 11
2.60048
 21
2.84869
  0
LINE
  8
0
 10
2.60048
 20
2.84869
 11
2.46027
 21
2.68965
  0
LINE
  8
0
 10
2.46027
 20
2.68965
 11
2.31033
 21
2.53972
  0
LINE
  8
0
 10
2.31033
 20
2.53972
 11
2.15129
 21
2.39951
  0
LINE
  8
0
 10
2.15129
 20
2.39951
 11
1.98376
 21
2.26956
  0
LINE
  8
0
 10
1.98376
 20
2.26956
 11
1.80841
 21
2.15039
  0
LINE
  8
0
 10
1.80841
 20
2.15039
 11
1.62592
 21
2.04245
  0
LINE
  8
0
 10
1.62592
 20
2.04245
 11
1.437
 21
1.9462
  0
LINE
  8
0
 10
1.437
 20
1.9462
 11
1.24242
 21
1.862
  0
LINE
  8
0
 10
1.24242
 20
1.862
 11
1.04292
 21
1.79018
  0
LINE
  8
0
 10
1.04292
 20
1.79018
 11
0.839325
 21
1.73102
  0
LINE
  8
0
 10
0.839325
 20
1.73102
 11
0.632401
 21
1.68477
  0
LINE
  8
0
 10
0.632401
 20
1.68477
 11
0.422989
 21
1.65161
  0
LINE
  8
0
 10
0.422989
 20
1.65161
 11
0.211914
 21
1.63165
  0
LINE
  8
0
 10
0.211914
 20
1.63165
 11
0
 21
1.625
  0
LINE
  8
0
 10
0
 20
1.625
 11
-0.211914
 21
1.63165
  0
ENDSEC
  0
SECTION
  2
OBJECTS
  0
DICTIONARY
  0
ENDSEC
  0
EOF
