  0
SECTION
  2
HEADER
  9
$ACADVER
  1
AC1009
  9
$DWGCODEPAGE
  3
ANSI_1252
  9
$INSBASE
 10
0.0
 20
0.0
 30
0.0
  9
$EXTMIN
 10
1e+20
 20
1e+20
 30
1e+20
  9
$EXTMAX
 10
-1e+20
 20
-1e+20
 30
-1e+20
  9
$LIMMIN
 10
0.0
 20
0.0
  9
$LIMMAX
 10
420.0
 20
297.0
  9
$ORTHOMODE
 70
0
  9
$REGENMODE
 70
1
  9
$FILLMODE
 70
1
  9
$DRAGMODE
 70
2
  9
$QTEXTMODE
 70
0
  9
$MIRRTEXT
 70
1
  9
$OSMODE
 70
20583
  9
$LTSCALE
 40
1.0
  9
$ATTMODE
 70
1
  9
$TEXTSIZE
 40
2.5
  9
$TRACEWID
 40
1.0
  9
$TEXTSTYLE
  7
Standard
  9
$CLAYER
  8
0
  9
$CELTYPE
  6
ByLayer
  9
$CECOLOR
 62
256
  9
$DIMSCALE
 40
1.0
  9
$DIMASZ
 40
2.5
  9
$DIMEXO
 40
0.625
  9
$DIMDLI
 40
3.75
  9
$DIMRND
 40
0.0
  9
$DIMDLE
 40
0.0
  9
$DIMEXE
 40
1.25
  9
$DIMTP
 40
0.0
  9
$DIMTM
 40
0.0
  9
$DIMTXT
 40
2.5
  9
$DIMCEN
 40
2.5
  9
$DIMTSZ
 40
0.0
  9
$DIMTOL
 70
0
  9
$DIMLIM
 70
0
  9
$DIMTIH
 70
0
  9
$DIMTOH
 70
0
  9
$DIMSE1
 70
0
  9
$DIMSE2
 70
0
  9
$DIMTAD
 70
1
  9
$DIMZIN
 70
8
  9
$DIMBLK
  1

  9
$DIMASO
 70
1
  9
$DIMSHO
 70
1
  9
$DIMPOST
  1

  9
$DIMAPOST
  1

  9
$DIMALT
 70
0
  9
$DIMALTD
 70
3
  9
$DIMALTF
 40
0.03937007874
  9
$DIMLFAC
 40
1.0
  9
$DIMTOFL
 70
1
  9
$DIMTVP
 40
0.0
  9
$DIMTIX
 70
0
  9
$DIMSOXD
 70
0
  9
$DIMSAH
 70
0
  9
$DIMBLK1
  1

  9
$DIMBLK2
  1

  9
$DIMSTYLE
  2
ISO-25
  9
$DIMCLRD
 70
0
  9
$DIMCLRE
 70
0
  9
$DIMCLRT
 70
0
  9
$DIMTFAC
 40
1.0
  9
$DIMGAP
 40
0.625
  9
$COORDS
 70
1
  9
$ATTDIA
 70
0
  9
$ATTREQ
 70
1
  9
$HANDLING
 70
1
  9
$LUNITS
 70
2
  9
$LUPREC
 70
4
  9
$SKETCHINC
 40
1.0
  9
$FILLETRAD
 40
10.0
  9
$AUNITS
 70
0
  9
$AUPREC
 70
2
  9
$MENU
  1
.
  9
$ELEVATION
 40
0.0
  9
$PELEVATION
 40
0.0
  9
$THICKNESS
 40
0.0
  9
$LIMCHECK
 70
0
  9
$CHAMFERA
 40
0.0
  9
$CHAMFERB
 40
0.0
  9
$SKPOLY
 70
0
  9
$TDCREATE
 40
2461277.430798611
  9
$TDUPDATE
 40
2461277.430798611
  9
$TDINDWG
 40
0.0
  9
$TDUSRTIMER
 40
0.0
  9
$USRTIMER
 70
1
  9
$ANGBASE
 50
0.0
  9
$ANGDIR
 70
0
  9
$PDMODE
 70
0
  9
$PDSIZE
 40
0.0
  9
$PLINEWID
 40
0.0
  9
$SPLFRAME
 70
0
  9
$SPLINETYPE
 70
6
  9
$SPLINESEGS
 70
8
  9
$HANDSEED
  5
467
  9
$SURFTAB1
 70
6
  9
$SURFTAB2
 70
6
  9
$SURFTYPE
 70
6
  9
$SURFU
 70
6
  9
$SURFV
 70
6
  9
$UCSNAME
  2

  9
$UCSORG
 10
0.0
 20
0.0
 30
0.0
  9
$UCSXDIR
 10
1.0
 20
0.0
 30
0.0
  9
$UCSYDIR
 10
0.0
 20
1.0
 30
0.0
  9
$PUCSNAME
  2

  9
$PUCSORG
 10
0.0
 20
0.0
 30
0.0
  9
$PUCSXDIR
 10
1.0
 20
0.0
 30
0.0
  9
$PUCSYDIR
 10
0.0
 20
1.0
 30
0.0
  9
$USERI1
 70
0
  9
$USERI2
 70
0
  9
$USERI3
 70
0
  9
$USERI4
 70
0
  9
$USERI5
 70
0
  9
$USERR1
 40
0.0
  9
$USERR2
 40
0.0
  9
$USERR3
 40
0.0
  9
$USERR4
 40
0.0
  9
$USERR5
 40
0.0
  9
$WORLDVIEW
 70
1
  9
$SHADEDGE
 70
3
  9
$SHADEDIF
 70
70
  9
$TILEMODE
 70
1
  9
$MAXACTVP
 70
64
  9
$PLIMCHECK
 70
0
  9
$PEXTMIN
 10
1e+20
 20
1e+20
 30
1e+20
  9
$PEXTMAX
 10
-1e+20
 20
-1e+20
 30
-1e+20
  9
$PLIMMIN
 10
0.0
 20
0.0
  9
$PLIMMAX
 10
420.0
 20
297.0
  9
$UNITMODE
 70
0
  9
$VISRETAIN
 70
1
  9
$PLINEGEN
 70
0
  9
$PSLTSCALE
 70
1
  0
ENDSEC
  0
SECTION
  2
TABLES
  0
TABLE
  2
VPORT
 70
1
  0
VPORT
  5
45B
  2
*Active
 70
0
 10
0.0
 20
0.0
 11
1.0
 21
1.0
 12
0.0
 22
0.0
 13
0.0
 23
0.0
 14
0.5
 24
0.5
 15
0.5
 25
0.5
 16
0.0
 26
0.0
 36
1.0
 17
0.0
 27
0.0
 37
0.0
 40
1000.0
 41
1.34
 42
50.0
 43
0.0
 44
0.0
 50
0.0
 51
0.0
 71
0
 72
1000
 73
1
 74
3
 75
0
 76
0
 77
0
 78
0
  0
ENDTAB
  0
TABLE
  2
LTYPE
 70
3
  0
LTYPE
  5
45C
  2
ByBlock
 70
0
  3

 72
65
 73
0
 40
0.0
  0
LTYPE
  5
45D
  2
ByLayer
 70
0
  3

 72
65
 73
0
 40
0.0
  0
LTYPE
  5
45E
  2
Continuous
 70
0
  3

 72
65
 73
0
 40
0.0
  0
ENDTAB
  0
TABLE
  2
LAYER
 70
2
  0
LAYER
  5
45F
  2
0
 70
0
 62
1
  6
Continuous
  0
LAYER
  5
460
  2
Defpoints
 70
0
 62
7
  6
Continuous
  0
ENDTAB
  0
TABLE
  2
STYLE
 70
1
  0
STYLE
  5
461
  2
Standard
 70
0
 40
0.0
 41
1.0
 50
0.0
 71
0
 42
2.5
  3
txt
  4

  0
ENDTAB
  0
TABLE
  2
VIEW
 70
0
  0
ENDTAB
  0
TABLE
  2
UCS
 70
0
  0
ENDTAB
  0
TABLE
  2
APPID
 70
3
  0
APPID
  5
462
  2
ACAD
 70
0
  0
APPID
  5
465
  2
HATCHBACKGROUNDCOLOR
 70
0
  0
APPID
  5
466
  2
EZDXF
 70
0
  0
ENDTAB
  0
TABLE
  2
DIMSTYLE
 70
1
  0
DIMSTYLE
105
463
  2
Standard
 70
0
  3

  4

  5

  6

  7

 40
1.0
 41
2.5
 42
0.625
 43
3.75
 44
1.25
 45
0.0
 46
0.0
 47
0.0
 48
0.0
140
2.5
141
2.5
142
0.0
143
0.03937007874
144
1.0
145
0.0
146
1.0
147
0.625
 71
0
 72
0
 73
0
 74
0
 75
0
 76
0
 77
1
 78
8
170
0
171
3
172
1
173
0
174
0
175
0
176
0
177
0
178
0
  0
ENDTAB
  0
ENDSEC
  0
SECTION
  2
BLOCKS
  0
BLOCK
  5
43C
  8
0
  2
$Model_Space
 70
0
 10
0.0
 20
0.0
 30
0.0
  3
$Model_Space
  1

1001
EZDXF
1000
WRITTEN_BY_EZDXF
1000
1.4.4 @ 2026-08-24T14:20:21.495320+00:00
  0
ENDBLK
  5
43D
  8
0
  0
BLOCK
  5
43E
  8
0
  2
$Paper_Space
 70
0
 10
0.0
 20
0.0
 30
0.0
  3
$Paper_Space
  1

  0
ENDBLK
  5
43F
  8
0
  0
ENDSEC
  0
SECTION
  2
ENTITIES
  0
LINE
  5
100
  8
0
 62
1
 10
127.0
 20
-13.45
 30
0.0
 11
100.2
 21
-13.45
 31
0.0
  0
LINE
  5
101
  8
0
 62
1
 10
100.2
 20
-13.45
 30
0.0
 11
100.2
 21
13.45
 31
0.0
  0
LINE
  5
102
  8
0
 62
1
 10
100.2
 20
13.45
 30
0.0
 11
127.0
 21
13.45
 31
0.0
  0
LINE
  5
103
  8
0
 62
1
 10
127.0
 20
13.45
 30
0.0
 11
127.0
 21
64.45
 31
0.0
  0
LINE
  5
104
  8
0
 62
1
 10
127.0
 20
64.45
 30
0.0
 11
-127.0
 21
64.45
 31
0.0
  0
LINE
  5
105
  8
0
 62
1
 10
-127.0
 20
64.45
 30
0.0
 11
-127.0
 21
13.45
 31
0.0
  0
LINE
  5
106
  8
0
 62
1
 10
-127.0
 20
13.45
 30
0.0
 11
-100.2
 21
13.45
 31
0.0
  0
LINE
  5
107
  8
0
 62
1
 10
-100.2
 20
13.45
 30
0.0
 11
-100.2
 21
-13.45
 31
0.0
  0
LINE
  5
108
  8
0
 62
1
 10
-100.2
 20
-13.45
 30
0.0
 11
-127.0
 21
-13.45
 31
0.0
  0
LINE
  5
109
  8
0
 62
1
 10
-127.0
 20
-13.45
 30
0.0
 11
-127.0
 21
-64.45
 31
0.0
  0
LINE
  5
10A
  8
0
 62
1
 10
-127.0
 20
-64.45
 30
0.0
 11
127.0
 21
-64.45
 31
0.0
  0
LINE
  5
10B
  8
0
 62
1
 10
127.0
 20
-64.45
 30
0.0
 11
127.0
 21
-13.45
 31
0.0
  0
LINE
  5
10C
  8
0
 62
1
 10
113.438
 20
47.4317
 30
0.0
 11
113.227
 21
47.4516
 31
0.0
  0
LINE
  5
10D
  8
0
 62
1
 10
113.227
 20
47.4516
 30
0.0
 11
113.018
 21
47.4848
 31
0.0
  0
LINE
  5
10E
  8
0
 62
1
 10
113.018
 20
47.4848
 30
0.0
 11
112.811
 21
47.531
 31
0.0
  0
LINE
  5
10F
  8
0
 62
1
 10
112.811
 20
47.531
 30
0.0
 11
112.607
 21
47.5902
 31
0.0
  0
LINE
  5
110
  8
0
 62
1
 10
112.607
 20
47.5902
 30
0.0
 11
112.408
 21
47.662
 31
0.0
  0
LINE
  5
111
  8
0
 62
1
 10
112.408
 20
47.662
 30
0.0
 11
112.213
 21
47.7462
 31
0.0
  0
LINE
  5
112
  8
0
 62
1
 10
112.213
 20
47.7462
 30
0.0
 11
112.024
 21
47.8425
 31
0.0
  0
LINE
  5
113
  8
0
 62
1
 10
112.024
 20
47.8425
 30
0.0
 11
111.842
 21
47.9504
 31
0.0
  0
LINE
  5
114
  8
0
 62
1
 10
111.842
 20
47.9504
 30
0.0
 11
111.666
 21
48.0696
 31
0.0
  0
LINE
  5
115
  8
0
 62
1
 10
111.666
 20
48.0696
 30
0.0
 11
111.499
 21
48.1995
 31
0.0
  0
LINE
  5
116
  8
0
 62
1
 10
111.499
 20
48.1995
 30
0.0
 11
111.34
 21
48.3397
 31
0.0
  0
LINE
  5
117
  8
0
 62
1
 10
111.34
 20
48.3397
 30
0.0
 11
111.19
 21
48.4896
 31
0.0
  0
LINE
  5
118
  8
0
 62
1
 10
111.19
 20
48.4896
 30
0.0
 11
111.05
 21
48.6487
 31
0.0
  0
LINE
  5
119
  8
0
 62
1
 10
111.05
 20
48.6487
 30
0.0
 11
110.92
 21
48.8162
 31
0.0
  0
LINE
  5
11A
  8
0
 62
1
 10
110.92
 20
48.8162
 30
0.0
 11
110.8
 21
48.9916
 31
0.0
  0
LINE
  5
11B
  8
0
 62
1
 10
110.8
 20
48.9916
 30
0.0
 11
110.692
 21
49.1741
 31
0.0
  0
LINE
  5
11C
  8
0
 62
1
 10
110.692
 20
49.1741
 30
0.0
 11
110.596
 21
49.363
 31
0.0
  0
LINE
  5
11D
  8
0
 62
1
 10
110.596
 20
49.363
 30
0.0
 11
110.512
 21
49.5576
 31
0.0
  0
LINE
  5
11E
  8
0
 62
1
 10
110.512
 20
49.5576
 30
0.0
 11
110.44
 21
49.7571
 31
0.0
  0
LINE
  5
11F
  8
0
 62
1
 10
110.44
 20
49.7571
 30
0.0
 11
110.381
 21
49.9607
 31
0.0
  0
LINE
  5
120
  8
0
 62
1
 10
110.381
 20
49.9607
 30
0.0
 11
110.335
 21
50.1676
 31
0.0
  0
LINE
  5
121
  8
0
 62
1
 10
110.335
 20
50.1676
 30
0.0
 11
110.302
 21
50.377
 31
0.0
  0
LINE
  5
122
  8
0
 62
1
 10
110.302
 20
50.377
 30
0.0
 11
110.282
 21
50.5881
 31
0.0
  0
LINE
  5
123
  8
0
 62
1
 10
110.282
 20
50.5881
 30
0.0
 11
110.275
 21
50.8
 31
0.0
  0
LINE
  5
124
  8
0
 62
1
 10
110.275
 20
50.8
 30
0.0
 11
110.282
 21
51.0119
 31
0.0
  0
LINE
  5
125
  8
0
 62
1
 10
110.282
 20
51.0119
 30
0.0
 11
110.302
 21
51.223
 31
0.0
  0
LINE
  5
126
  8
0
 62
1
 10
110.302
 20
51.223
 30
0.0
 11
110.335
 21
51.4324
 31
0.0
  0
LINE
  5
127
  8
0
 62
1
 10
110.335
 20
51.4324
 30
0.0
 11
110.381
 21
51.6393
 31
0.0
  0
LINE
  5
128
  8
0
 62
1
 10
110.381
 20
51.6393
 30
0.0
 11
110.44
 21
51.8429
 31
0.0
  0
LINE
  5
129
  8
0
 62
1
 10
110.44
 20
51.8429
 30
0.0
 11
110.512
 21
52.0424
 31
0.0
  0
LINE
  5
12A
  8
0
 62
1
 10
110.512
 20
52.0424
 30
0.0
 11
110.596
 21
52.237
 31
0.0
  0
LINE
  5
12B
  8
0
 62
1
 10
110.596
 20
52.237
 30
0.0
 11
110.692
 21
52.4259
 31
0.0
  0
LINE
  5
12C
  8
0
 62
1
 10
110.692
 20
52.4259
 30
0.0
 11
110.8
 21
52.6084
 31
0.0
  0
LINE
  5
12D
  8
0
 62
1
 10
110.8
 20
52.6084
 30
0.0
 11
110.92
 21
52.7838
 31
0.0
  0
LINE
  5
12E
  8
0
 62
1
 10
110.92
 20
52.7838
 30
0.0
 11
111.05
 21
52.9513
 31
0.0
  0
LINE
  5
12F
  8
0
 62
1
 10
111.05
 20
52.9513
 30
0.0
 11
111.19
 21
53.1103
 31
0.0
  0
LINE
  5
130
  8
0
 62
1
 10
111.19
 20
53.1103
 30
0.0
 11
111.34
 21
53.2603
 31
0.0
  0
LINE
  5
131
  8
0
 62
1
 10
111.34
 20
53.2603
 30
0.0
 11
111.499
 21
53.4005
 31
0.0
  0
LINE
  5
132
  8
0
 62
1
 10
111.499
 20
53.4005
 30
0.0
 11
111.666
 21
53.5304
 31
0.0
  0
LINE
  5
133
  8
0
 62
1
 10
111.666
 20
53.5304
 30
0.0
 11
111.842
 21
53.6496
 31
0.0
  0
LINE
  5
134
  8
0
 62
1
 10
111.842
 20
53.6496
 30
0.0
 11
112.024
 21
53.7575
 31
0.0
  0
LINE
  5
135
  8
0
 62
1
 10
112.024
 20
53.7575
 30
0.0
 11
112.213
 21
53.8538
 31
0.0
  0
LINE
  5
136
  8
0
 62
1
 10
112.213
 20
53.8538
 30
0.0
 11
112.408
 21
53.938
 31
0.0
  0
LINE
  5
137
  8
0
 62
1
 10
112.408
 20
53.938
 30
0.0
 11
112.607
 21
54.0098
 31
0.0
  0
LINE
  5
138
  8
0
 62
1
 10
112.607
 20
54.0098
 30
0.0
 11
112.811
 21
54.069
 31
0.0
  0
LINE
  5
139
  8
0
 62
1
 10
112.811
 20
54.069
 30
0.0
 11
113.018
 21
54.1152
 31
0.0
  0
LINE
  5
13A
  8
0
 62
1
 10
113.018
 20
54.1152
 30
0.0
 11
113.227
 21
54.1484
 31
0.0
  0
LINE
  5
13B
  8
0
 62
1
 10
113.227
 20
54.1484
 30
0.0
 11
113.438
 21
54.1683
 31
0.0
  0
LINE
  5
13C
  8
0
 62
1
 10
113.438
 20
54.1683
 30
0.0
 11
113.65
 21
54.175
 31
0.0
  0
LINE
  5
13D
  8
0
 62
1
 10
113.65
 20
54.175
 30
0.0
 11
113.862
 21
54.1683
 31
0.0
  0
LINE
  5
13E
  8
0
 62
1
 10
113.862
 20
54.1683
 30
0.0
 11
114.073
 21
54.1484
 31
0.0
  0
LINE
  5
13F
  8
0
 62
1
 10
114.073
 20
54.1484
 30
0.0
 11
114.282
 21
54.1152
 31
0.0
  0
LINE
  5
140
  8
0
 62
1
 10
114.282
 20
54.1152
 30
0.0
 11
114.489
 21
54.069
 31
0.0
  0
LINE
  5
141
  8
0
 62
1
 10
114.489
 20
54.069
 30
0.0
 11
114.693
 21
54.0098
 31
0.0
  0
LINE
  5
142
  8
0
 62
1
 10
114.693
 20
54.0098
 30
0.0
 11
114.892
 21
53.938
 31
0.0
  0
LINE
  5
143
  8
0
 62
1
 10
114.892
 20
53.938
 30
0.0
 11
115.087
 21
53.8538
 31
0.0
  0
LINE
  5
144
  8
0
 62
1
 10
115.087
 20
53.8538
 30
0.0
 11
115.276
 21
53.7575
 31
0.0
  0
LINE
  5
145
  8
0
 62
1
 10
115.276
 20
53.7575
 30
0.0
 11
115.458
 21
53.6496
 31
0.0
  0
LINE
  5
146
  8
0
 62
1
 10
115.458
 20
53.6496
 30
0.0
 11
115.634
 21
53.5304
 31
0.0
  0
LINE
  5
147
  8
0
 62
1
 10
115.634
 20
53.5304
 30
0.0
 11
115.801
 21
53.4005
 31
0.0
  0
LINE
  5
148
  8
0
 62
1
 10
115.801
 20
53.4005
 30
0.0
 11
115.96
 21
53.2603
 31
0.0
  0
LINE
  5
149
  8
0
 62
1
 10
115.96
 20
53.2603
 30
0.0
 11
116.11
 21
53.1103
 31
0.0
  0
LINE
  5
14A
  8
0
 62
1
 10
116.11
 20
53.1103
 30
0.0
 11
116.25
 21
52.9513
 31
0.0
  0
LINE
  5
14B
  8
0
 62
1
 10
116.25
 20
52.9513
 30
0.0
 11
116.38
 21
52.7838
 31
0.0
  0
LINE
  5
14C
  8
0
 62
1
 10
116.38
 20
52.7838
 30
0.0
 11
116.5
 21
52.6084
 31
0.0
  0
LINE
  5
14D
  8
0
 62
1
 10
116.5
 20
52.6084
 30
0.0
 11
116.608
 21
52.4259
 31
0.0
  0
LINE
  5
14E
  8
0
 62
1
 10
116.608
 20
52.4259
 30
0.0
 11
116.704
 21
52.237
 31
0.0
  0
LINE
  5
14F
  8
0
 62
1
 10
116.704
 20
52.237
 30
0.0
 11
116.788
 21
52.0424
 31
0.0
  0
LINE
  5
150
  8
0
 62
1
 10
116.788
 20
52.0424
 30
0.0
 11
116.86
 21
51.8429
 31
0.0
  0
LINE
  5
151
  8
0
 62
1
 10
116.86
 20
51.8429
 30
0.0
 11
116.919
 21
51.6393
 31
0.0
  0
LINE
  5
152
  8
0
 62
1
 10
116.919
 20
51.6393
 30
0.0
 11
116.965
 21
51.4324
 31
0.0
  0
LINE
  5
153
  8
0
 62
1
 10
116.965
 20
51.4324
 30
0.0
 11
116.998
 21
51.223
 31
0.0
  0
LINE
  5
154
  8
0
 62
1
 10
116.998
 20
51.223
 30
0.0
 11
117.018
 21
51.0119
 31
0.0
  0
LINE
  5
155
  8
0
 62
1
 10
117.018
 20
51.0119
 30
0.0
 11
117.025
 21
50.8
 31
0.0
  0
LINE
  5
156
  8
0
 62
1
 10
117.025
 20
50.8
 30
0.0
 11
117.018
 21
50.5881
 31
0.0
  0
LINE
  5
157
  8
0
 62
1
 10
117.018
 20
50.5881
 30
0.0
 11
116.998
 21
50.377
 31
0.0
  0
LINE
  5
158
  8
0
 62
1
 10
116.998
 20
50.377
 30
0.0
 11
116.965
 21
50.1676
 31
0.0
  0
LINE
  5
159
  8
0
 62
1
 10
116.965
 20
50.1676
 30
0.0
 11
116.919
 21
49.9607
 31
0.0
  0
LINE
  5
15A
  8
0
 62
1
 10
116.919
 20
49.9607
 30
0.0
 11
116.86
 21
49.7571
 31
0.0
  0
LINE
  5
15B
  8
0
 62
1
 10
116.86
 20
49.7571
 30
0.0
 11
116.788
 21
49.5576
 31
0.0
  0
LINE
  5
15C
  8
0
 62
1
 10
116.788
 20
49.5576
 30
0.0
 11
116.704
 21
49.363
 31
0.0
  0
LINE
  5
15D
  8
0
 62
1
 10
116.704
 20
49.363
 30
0.0
 11
116.608
 21
49.1741
 31
0.0
  0
LINE
  5
15E
  8
0
 62
1
 10
116.608
 20
49.1741
 30
0.0
 11
116.5
 21
48.9916
 31
0.0
  0
LINE
  5
15F
  8
0
 62
1
 10
116.5
 20
48.9916
 30
0.0
 11
116.38
 21
48.8162
 31
0.0
  0
LINE
  5
160
  8
0
 62
1
 10
116.38
 20
48.8162
 30
0.0
 11
116.25
 21
48.6487
 31
0.0
  0
LINE
  5
161
  8
0
 62
1
 10
116.25
 20
48.6487
 30
0.0
 11
116.11
 21
48.4896
 31
0.0
  0
LINE
  5
162
  8
0
 62
1
 10
116.11
 20
48.4896
 30
0.0
 11
115.96
 21
48.3397
 31
0.0
  0
LINE
  5
163
  8
0
 62
1
 10
115.96
 20
48.3397
 30
0.0
 11
115.801
 21
48.1995
 31
0.0
  0
LINE
  5
164
  8
0
 62
1
 10
115.801
 20
48.1995
 30
0.0
 11
115.634
 21
48.0696
 31
0.0
  0
LINE
  5
165
  8
0
 62
1
 10
115.634
 20
48.0696
 30
0.0
 11
115.458
 21
47.9504
 31
0.0
  0
LINE
  5
166
  8
0
 62
1
 10
115.458
 20
47.9504
 30
0.0
 11
115.276
 21
47.8425
 31
0.0
  0
LINE
  5
167
  8
0
 62
1
 10
115.276
 20
47.8425
 30
0.0
 11
115.087
 21
47.7462
 31
0.0
  0
LINE
  5
168
  8
0
 62
1
 10
115.087
 20
47.7462
 30
0.0
 11
114.892
 21
47.662
 31
0.0
  0
LINE
  5
169
  8
0
 62
1
 10
114.892
 20
47.662
 30
0.0
 11
114.693
 21
47.5902
 31
0.0
  0
LINE
  5
16A
  8
0
 62
1
 10
114.693
 20
47.5902
 30
0.0
 11
114.489
 21
47.531
 31
0.0
  0
LINE
  5
16B
  8
0
 62
1
 10
114.489
 20
47.531
 30
0.0
 11
114.282
 21
47.4848
 31
0.0
  0
LINE
  5
16C
  8
0
 62
1
 10
114.282
 20
47.4848
 30
0.0
 11
114.073
 21
47.4516
 31
0.0
  0
LINE
  5
16D
  8
0
 62
1
 10
114.073
 20
47.4516
 30
0.0
 11
113.862
 21
47.4317
 31
0.0
  0
LINE
  5
16E
  8
0
 62
1
 10
113.862
 20
47.4317
 30
0.0
 11
113.65
 21
47.425
 31
0.0
  0
LINE
  5
16F
  8
0
 62
1
 10
113.65
 20
47.425
 30
0.0
 11
113.438
 21
47.4317
 31
0.0
  0
LINE
  5
170
  8
0
 62
1
 10
-113.862
 20
47.4317
 30
0.0
 11
-114.073
 21
47.4516
 31
0.0
  0
LINE
  5
171
  8
0
 62
1
 10
-114.073
 20
47.4516
 30
0.0
 11
-114.282
 21
47.4848
 31
0.0
  0
LINE
  5
172
  8
0
 62
1
 10
-114.282
 20
47.4848
 30
0.0
 11
-114.489
 21
47.531
 31
0.0
  0
LINE
  5
173
  8
0
 62
1
 10
-114.489
 20
47.531
 30
0.0
 11
-114.693
 21
47.5902
 31
0.0
  0
LINE
  5
174
  8
0
 62
1
 10
-114.693
 20
47.5902
 30
0.0
 11
-114.892
 21
47.662
 31
0.0
  0
LINE
  5
175
  8
0
 62
1
 10
-114.892
 20
47.662
 30
0.0
 11
-115.087
 21
47.7462
 31
0.0
  0
LINE
  5
176
  8
0
 62
1
 10
-115.087
 20
47.7462
 30
0.0
 11
-115.276
 21
47.8425
 31
0.0
  0
LINE
  5
177
  8
0
 62
1
 10
-115.276
 20
47.8425
 30
0.0
 11
-115.458
 21
47.9504
 31
0.0
  0
LINE
  5
178
  8
0
 62
1
 10
-115.458
 20
47.9504
 30
0.0
 11
-115.634
 21
48.0696
 31
0.0
  0
LINE
  5
179
  8
0
 62
1
 10
-115.634
 20
48.0696
 30
0.0
 11
-115.801
 21
48.1995
 31
0.0
  0
LINE
  5
17A
  8
0
 62
1
 10
-115.801
 20
48.1995
 30
0.0
 11
-115.96
 21
48.3397
 31
0.0
  0
LINE
  5
17B
  8
0
 62
1
 10
-115.96
 20
48.3397
 30
0.0
 11
-116.11
 21
48.4896
 31
0.0
  0
LINE
  5
17C
  8
0
 62
1
 10
-116.11
 20
48.4896
 30
0.0
 11
-116.25
 21
48.6487
 31
0.0
  0
LINE
  5
17D
  8
0
 62
1
 10
-116.25
 20
48.6487
 30
0.0
 11
-116.38
 21
48.8162
 31
0.0
  0
LINE
  5
17E
  8
0
 62
1
 10
-116.38
 20
48.8162
 30
0.0
 11
-116.5
 21
48.9916
 31
0.0
  0
LINE
  5
17F
  8
0
 62
1
 10
-116.5
 20
48.9916
 30
0.0
 11
-116.608
 21
49.1741
 31
0.0
  0
LINE
  5
180
  8
0
 62
1
 10
-116.608
 20
49.1741
 30
0.0
 11
-116.704
 21
49.363
 31
0.0
  0
LINE
  5
181
  8
0
 62
1
 10
-116.704
 20
49.363
 30
0.0
 11
-116.788
 21
49.5576
 31
0.0
  0
LINE
  5
182
  8
0
 62
1
 10
-116.788
 20
49.5576
 30
0.0
 11
-116.86
 21
49.7571
 31
0.0
  0
LINE
  5
183
  8
0
 62
1
 10
-116.86
 20
49.7571
 30
0.0
 11
-116.919
 21
49.9607
 31
0.0
  0
LINE
  5
184
  8
0
 62
1
 10
-116.919
 20
49.9607
 30
0.0
 11
-116.965
 21
50.1676
 31
0.0
  0
LINE
  5
185
  8
0
 62
1
 10
-116.965
 20
50.1676
 30
0.0
 11
-116.998
 21
50.377
 31
0.0
  0
LINE
  5
186
  8
0
 62
1
 10
-116.998
 20
50.377
 30
0.0
 11
-117.018
 21
50.5881
 31
0.0
  0
LINE
  5
187
  8
0
 62
1
 10
-117.018
 20
50.5881
 30
0.0
 11
-117.025
 21
50.8
 31
0.0
  0
LINE
  5
188
  8
0
 62
1
 10
-117.025
 20
50.8
 30
0.0
 11
-117.018
 21
51.0119
 31
0.0
  0
LINE
  5
189
  8
0
 62
1
 10
-117.018
 20
51.0119
 30
0.0
 11
-116.998
 21
51.223
 31
0.0
  0
LINE
  5
18A
  8
0
 62
1
 10
-116.998
 20
51.223
 30
0.0
 11
-116.965
 21
51.4324
 31
0.0
  0
LINE
  5
18B
  8
0
 62
1
 10
-116.965
 20
51.4324
 30
0.0
 11
-116.919
 21
51.6393
 31
0.0
  0
LINE
  5
18C
  8
0
 62
1
 10
-116.919
 20
51.6393
 30
0.0
 11
-116.86
 21
51.8429
 31
0.0
  0
LINE
  5
18D
  8
0
 62
1
 10
-116.86
 20
51.8429
 30
0.0
 11
-116.788
 21
52.0424
 31
0.0
  0
LINE
  5
18E
  8
0
 62
1
 10
-116.788
 20
52.0424
 30
0.0
 11
-116.704
 21
52.237
 31
0.0
  0
LINE
  5
18F
  8
0
 62
1
 10
-116.704
 20
52.237
 30
0.0
 11
-116.608
 21
52.4259
 31
0.0
  0
LINE
  5
190
  8
0
 62
1
 10
-116.608
 20
52.4259
 30
0.0
 11
-116.5
 21
52.6084
 31
0.0
  0
LINE
  5
191
  8
0
 62
1
 10
-116.5
 20
52.6084
 30
0.0
 11
-116.38
 21
52.7838
 31
0.0
  0
LINE
  5
192
  8
0
 62
1
 10
-116.38
 20
52.7838
 30
0.0
 11
-116.25
 21
52.9513
 31
0.0
  0
LINE
  5
193
  8
0
 62
1
 10
-116.25
 20
52.9513
 30
0.0
 11
-116.11
 21
53.1103
 31
0.0
  0
LINE
  5
194
  8
0
 62
1
 10
-116.11
 20
53.1103
 30
0.0
 11
-115.96
 21
53.2603
 31
0.0
  0
LINE
  5
195
  8
0
 62
1
 10
-115.96
 20
53.2603
 30
0.0
 11
-115.801
 21
53.4005
 31
0.0
  0
LINE
  5
196
  8
0
 62
1
 10
-115.801
 20
53.4005
 30
0.0
 11
-115.634
 21
53.5304
 31
0.0
  0
LINE
  5
197
  8
0
 62
1
 10
-115.634
 20
53.5304
 30
0.0
 11
-115.458
 21
53.6496
 31
0.0
  0
LINE
  5
198
  8
0
 62
1
 10
-115.458
 20
53.6496
 30
0.0
 11
-115.276
 21
53.7575
 31
0.0
  0
LINE
  5
199
  8
0
 62
1
 10
-115.276
 20
53.7575
 30
0.0
 11
-115.087
 21
53.8538
 31
0.0
  0
LINE
  5
19A
  8
0
 62
1
 10
-115.087
 20
53.8538
 30
0.0
 11
-114.892
 21
53.938
 31
0.0
  0
LINE
  5
19B
  8
0
 62
1
 10
-114.892
 20
53.938
 30
0.0
 11
-114.693
 21
54.0098
 31
0.0
  0
LINE
  5
19C
  8
0
 62
1
 10
-114.693
 20
54.0098
 30
0.0
 11
-114.489
 21
54.069
 31
0.0
  0
LINE
  5
19D
  8
0
 62
1
 10
-114.489
 20
54.069
 30
0.0
 11
-114.282
 21
54.1152
 31
0.0
  0
LINE
  5
19E
  8
0
 62
1
 10
-114.282
 20
54.1152
 30
0.0
 11
-114.073
 21
54.1484
 31
0.0
  0
LINE
  5
19F
  8
0
 62
1
 10
-114.073
 20
54.1484
 30
0.0
 11
-113.862
 21
54.1683
 31
0.0
  0
LINE
  5
1A0
  8
0
 62
1
 10
-113.862
 20
54.1683
 30
0.0
 11
-113.65
 21
54.175
 31
0.0
  0
LINE
  5
1A1
  8
0
 62
1
 10
-113.65
 20
54.175
 30
0.0
 11
-113.438
 21
54.1683
 31
0.0
  0
LINE
  5
1A2
  8
0
 62
1
 10
-113.438
 20
54.1683
 30
0.0
 11
-113.227
 21
54.1484
 31
0.0
  0
LINE
  5
1A3
  8
0
 62
1
 10
-113.227
 20
54.1484
 30
0.0
 11
-113.018
 21
54.1152
 31
0.0
  0
LINE
  5
1A4
  8
0
 62
1
 10
-113.018
 20
54.1152
 30
0.0
 11
-112.811
 21
54.069
 31
0.0
  0
LINE
  5
1A5
  8
0
 62
1
 10
-112.811
 20
54.069
 30
0.0
 11
-112.607
 21
54.0098
 31
0.0
  0
LINE
  5
1A6
  8
0
 62
1
 10
-112.607
 20
54.0098
 30
0.0
 11
-112.408
 21
53.938
 31
0.0
  0
LINE
  5
1A7
  8
0
 62
1
 10
-112.408
 20
53.938
 30
0.0
 11
-112.213
 21
53.8538
 31
0.0
  0
LINE
  5
1A8
  8
0
 62
1
 10
-112.213
 20
53.8538
 30
0.0
 11
-112.024
 21
53.7575
 31
0.0
  0
LINE
  5
1A9
  8
0
 62
1
 10
-112.024
 20
53.7575
 30
0.0
 11
-111.842
 21
53.6496
 31
0.0
  0
LINE
  5
1AA
  8
0
 62
1
 10
-111.842
 20
53.6496
 30
0.0
 11
-111.666
 21
53.5304
 31
0.0
  0
LINE
  5
1AB
  8
0
 62
1
 10
-111.666
 20
53.5304
 30
0.0
 11
-111.499
 21
53.4005
 31
0.0
  0
LINE
  5
1AC
  8
0
 62
1
 10
-111.499
 20
53.4005
 30
0.0
 11
-111.34
 21
53.2603
 31
0.0
  0
LINE
  5
1AD
  8
0
 62
1
 10
-111.34
 20
53.2603
 30
0.0
 11
-111.19
 21
53.1103
 31
0.0
  0
LINE
  5
1AE
  8
0
 62
1
 10
-111.19
 20
53.1103
 30
0.0
 11
-111.05
 21
52.9513
 31
0.0
  0
LINE
  5
1AF
  8
0
 62
1
 10
-111.05
 20
52.9513
 30
0.0
 11
-110.92
 21
52.7838
 31
0.0
  0
LINE
  5
1B0
  8
0
 62
1
 10
-110.92
 20
52.7838
 30
0.0
 11
-110.8
 21
52.6084
 31
0.0
  0
LINE
  5
1B1
  8
0
 62
1
 10
-110.8
 20
52.6084
 30
0.0
 11
-110.692
 21
52.4259
 31
0.0
  0
LINE
  5
1B2
  8
0
 62
1
 10
-110.692
 20
52.4259
 30
0.0
 11
-110.596
 21
52.237
 31
0.0
  0
LINE
  5
1B3
  8
0
 62
1
 10
-110.596
 20
52.237
 30
0.0
 11
-110.512
 21
52.0424
 31
0.0
  0
LINE
  5
1B4
  8
0
 62
1
 10
-110.512
 20
52.0424
 30
0.0
 11
-110.44
 21
51.8429
 31
0.0
  0
LINE
  5
1B5
  8
0
 62
1
 10
-110.44
 20
51.8429
 30
0.0
 11
-110.381
 21
51.6393
 31
0.0
  0
LINE
  5
1B6
  8
0
 62
1
 10
-110.381
 20
51.6393
 30
0.0
 11
-110.335
 21
51.4324
 31
0.0
  0
LINE
  5
1B7
  8
0
 62
1
 10
-110.335
 20
51.4324
 30
0.0
 11
-110.302
 21
51.223
 31
0.0
  0
LINE
  5
1B8
  8
0
 62
1
 10
-110.302
 20
51.223
 30
0.0
 11
-110.282
 21
51.0119
 31
0.0
  0
LINE
  5
1B9
  8
0
 62
1
 10
-110.282
 20
51.0119
 30
0.0
 11
-110.275
 21
50.8
 31
0.0
  0
LINE
  5
1BA
  8
0
 62
1
 10
-110.275
 20
50.8
 30
0.0
 11
-110.282
 21
50.5881
 31
0.0
  0
LINE
  5
1BB
  8
0
 62
1
 10
-110.282
 20
50.5881
 30
0.0
 11
-110.302
 21
50.377
 31
0.0
  0
LINE
  5
1BC
  8
0
 62
1
 10
-110.302
 20
50.377
 30
0.0
 11
-110.335
 21
50.1676
 31
0.0
  0
LINE
  5
1BD
  8
0
 62
1
 10
-110.335
 20
50.1676
 30
0.0
 11
-110.381
 21
49.9607
 31
0.0
  0
LINE
  5
1BE
  8
0
 62
1
 10
-110.381
 20
49.9607
 30
0.0
 11
-110.44
 21
49.7571
 31
0.0
  0
LINE
  5
1BF
  8
0
 62
1
 10
-110.44
 20
49.7571
 30
0.0
 11
-110.512
 21
49.5576
 31
0.0
  0
LINE
  5
1C0
  8
0
 62
1
 10
-110.512
 20
49.5576
 30
0.0
 11
-110.596
 21
49.363
 31
0.0
  0
LINE
  5
1C1
  8
0
 62
1
 10
-110.596
 20
49.363
 30
0.0
 11
-110.692
 21
49.1741
 31
0.0
  0
LINE
  5
1C2
  8
0
 62
1
 10
-110.692
 20
49.1741
 30
0.0
 11
-110.8
 21
48.9916
 31
0.0
  0
LINE
  5
1C3
  8
0
 62
1
 10
-110.8
 20
48.9916
 30
0.0
 11
-110.92
 21
48.8162
 31
0.0
  0
LINE
  5
1C4
  8
0
 62
1
 10
-110.92
 20
48.8162
 30
0.0
 11
-111.05
 21
48.6487
 31
0.0
  0
LINE
  5
1C5
  8
0
 62
1
 10
-111.05
 20
48.6487
 30
0.0
 11
-111.19
 21
48.4896
 31
0.0
  0
LINE
  5
1C6
  8
0
 62
1
 10
-111.19
 20
48.4896
 30
0.0
 11
-111.34
 21
48.3397
 31
0.0
  0
LINE
  5
1C7
  8
0
 62
1
 10
-111.34
 20
48.3397
 30
0.0
 11
-111.499
 21
48.1995
 31
0.0
  0
LINE
  5
1C8
  8
0
 62
1
 10
-111.499
 20
48.1995
 30
0.0
 11
-111.666
 21
48.0696
 31
0.0
  0
LINE
  5
1C9
  8
0
 62
1
 10
-111.666
 20
48.0696
 30
0.0
 11
-111.842
 21
47.9504
 31
0.0
  0
LINE
  5
1CA
  8
0
 62
1
 10
-111.842
 20
47.9504
 30
0.0
 11
-112.024
 21
47.8425
 31
0.0
  0
LINE
  5
1CB
  8
0
 62
1
 10
-112.024
 20
47.8425
 30
0.0
 11
-112.213
 21
47.7462
 31
0.0
  0
LINE
  5
1CC
  8
0
 62
1
 10
-112.213
 20
47.7462
 30
0.0
 11
-112.408
 21
47.662
 31
0.0
  0
LINE
  5
1CD
  8
0
 62
1
 10
-112.408
 20
47.662
 30
0.0
 11
-112.607
 21
47.5902
 31
0.0
  0
LINE
  5
1CE
  8
0
 62
1
 10
-112.607
 20
47.5902
 30
0.0
 11
-112.811
 21
47.531
 31
0.0
  0
LINE
  5
1CF
  8
0
 62
1
 10
-112.811
 20
47.531
 30
0.0
 11
-113.018
 21
47.4848
 31
0.0
  0
LINE
  5
1D0
  8
0
 62
1
 10
-113.018
 20
47.4848
 30
0.0
 11
-113.227
 21
47.4516
 31
0.0
  0
LINE
  5
1D1
  8
0
 62
1
 10
-113.227
 20
47.4516
 30
0.0
 11
-113.438
 21
47.4317
 31
0.0
  0
LINE
  5
1D2
  8
0
 62
1
 10
-113.438
 20
47.4317
 30
0.0
 11
-113.65
 21
47.425
 31
0.0
  0
LINE
  5
1D3
  8
0
 62
1
 10
-113.65
 20
47.425
 30
0.0
 11
-113.862
 21
47.4317
 31
0.0
  0
LINE
  5
1D4
  8
0
 62
1
 10
113.438
 20
22.0316
 30
0.0
 11
113.227
 21
22.0516
 31
0.0
  0
LINE
  5
1D5
  8
0
 62
1
 10
113.227
 20
22.0516
 30
0.0
 11
113.018
 21
22.0848
 31
0.0
  0
LINE
  5
1D6
  8
0
 62
1
 10
113.018
 20
22.0848
 30
0.0
 11
112.811
 21
22.131
 31
0.0
  0
LINE
  5
1D7
  8
0
 62
1
 10
112.811
 20
22.131
 30
0.0
 11
112.607
 21
22.1902
 31
0.0
  0
LINE
  5
1D8
  8
0
 62
1
 10
112.607
 20
22.1902
 30
0.0
 11
112.408
 21
22.262
 31
0.0
  0
LINE
  5
1D9
  8
0
 62
1
 10
112.408
 20
22.262
 30
0.0
 11
112.213
 21
22.3462
 31
0.0
  0
LINE
  5
1DA
  8
0
 62
1
 10
112.213
 20
22.3462
 30
0.0
 11
112.024
 21
22.4425
 31
0.0
  0
LINE
  5
1DB
  8
0
 62
1
 10
112.024
 20
22.4425
 30
0.0
 11
111.842
 21
22.5504
 31
0.0
  0
LINE
  5
1DC
  8
0
 62
1
 10
111.842
 20
22.5504
 30
0.0
 11
111.666
 21
22.6696
 31
0.0
  0
LINE
  5
1DD
  8
0
 62
1
 10
111.666
 20
22.6696
 30
0.0
 11
111.499
 21
22.7995
 31
0.0
  0
LINE
  5
1DE
  8
0
 62
1
 10
111.499
 20
22.7995
 30
0.0
 11
111.34
 21
22.9397
 31
0.0
  0
LINE
  5
1DF
  8
0
 62
1
 10
111.34
 20
22.9397
 30
0.0
 11
111.19
 21
23.0896
 31
0.0
  0
LINE
  5
1E0
  8
0
 62
1
 10
111.19
 20
23.0896
 30
0.0
 11
111.05
 21
23.2487
 31
0.0
  0
LINE
  5
1E1
  8
0
 62
1
 10
111.05
 20
23.2487
 30
0.0
 11
110.92
 21
23.4162
 31
0.0
  0
LINE
  5
1E2
  8
0
 62
1
 10
110.92
 20
23.4162
 30
0.0
 11
110.8
 21
23.5916
 31
0.0
  0
LINE
  5
1E3
  8
0
 62
1
 10
110.8
 20
23.5916
 30
0.0
 11
110.692
 21
23.7741
 31
0.0
  0
LINE
  5
1E4
  8
0
 62
1
 10
110.692
 20
23.7741
 30
0.0
 11
110.596
 21
23.963
 31
0.0
  0
LINE
  5
1E5
  8
0
 62
1
 10
110.596
 20
23.963
 30
0.0
 11
110.512
 21
24.1576
 31
0.0
  0
LINE
  5
1E6
  8
0
 62
1
 10
110.512
 20
24.1576
 30
0.0
 11
110.44
 21
24.3571
 31
0.0
  0
LINE
  5
1E7
  8
0
 62
1
 10
110.44
 20
24.3571
 30
0.0
 11
110.381
 21
24.5607
 31
0.0
  0
LINE
  5
1E8
  8
0
 62
1
 10
110.381
 20
24.5607
 30
0.0
 11
110.335
 21
24.7676
 31
0.0
  0
LINE
  5
1E9
  8
0
 62
1
 10
110.335
 20
24.7676
 30
0.0
 11
110.302
 21
24.977
 31
0.0
  0
LINE
  5
1EA
  8
0
 62
1
 10
110.302
 20
24.977
 30
0.0
 11
110.282
 21
25.1881
 31
0.0
  0
LINE
  5
1EB
  8
0
 62
1
 10
110.282
 20
25.1881
 30
0.0
 11
110.275
 21
25.4
 31
0.0
  0
LINE
  5
1EC
  8
0
 62
1
 10
110.275
 20
25.4
 30
0.0
 11
110.282
 21
25.6119
 31
0.0
  0
LINE
  5
1ED
  8
0
 62
1
 10
110.282
 20
25.6119
 30
0.0
 11
110.302
 21
25.823
 31
0.0
  0
LINE
  5
1EE
  8
0
 62
1
 10
110.302
 20
25.823
 30
0.0
 11
110.335
 21
26.0324
 31
0.0
  0
LINE
  5
1EF
  8
0
 62
1
 10
110.335
 20
26.0324
 30
0.0
 11
110.381
 21
26.2393
 31
0.0
  0
LINE
  5
1F0
  8
0
 62
1
 10
110.381
 20
26.2393
 30
0.0
 11
110.44
 21
26.4429
 31
0.0
  0
LINE
  5
1F1
  8
0
 62
1
 10
110.44
 20
26.4429
 30
0.0
 11
110.512
 21
26.6424
 31
0.0
  0
LINE
  5
1F2
  8
0
 62
1
 10
110.512
 20
26.6424
 30
0.0
 11
110.596
 21
26.837
 31
0.0
  0
LINE
  5
1F3
  8
0
 62
1
 10
110.596
 20
26.837
 30
0.0
 11
110.692
 21
27.0259
 31
0.0
  0
LINE
  5
1F4
  8
0
 62
1
 10
110.692
 20
27.0259
 30
0.0
 11
110.8
 21
27.2084
 31
0.0
  0
LINE
  5
1F5
  8
0
 62
1
 10
110.8
 20
27.2084
 30
0.0
 11
110.92
 21
27.3838
 31
0.0
  0
LINE
  5
1F6
  8
0
 62
1
 10
110.92
 20
27.3838
 30
0.0
 11
111.05
 21
27.5513
 31
0.0
  0
LINE
  5
1F7
  8
0
 62
1
 10
111.05
 20
27.5513
 30
0.0
 11
111.19
 21
27.7103
 31
0.0
  0
LINE
  5
1F8
  8
0
 62
1
 10
111.19
 20
27.7103
 30
0.0
 11
111.34
 21
27.8603
 31
0.0
  0
LINE
  5
1F9
  8
0
 62
1
 10
111.34
 20
27.8603
 30
0.0
 11
111.499
 21
28.0005
 31
0.0
  0
LINE
  5
1FA
  8
0
 62
1
 10
111.499
 20
28.0005
 30
0.0
 11
111.666
 21
28.1304
 31
0.0
  0
LINE
  5
1FB
  8
0
 62
1
 10
111.666
 20
28.1304
 30
0.0
 11
111.842
 21
28.2496
 31
0.0
  0
LINE
  5
1FC
  8
0
 62
1
 10
111.842
 20
28.2496
 30
0.0
 11
112.024
 21
28.3575
 31
0.0
  0
LINE
  5
1FD
  8
0
 62
1
 10
112.024
 20
28.3575
 30
0.0
 11
112.213
 21
28.4538
 31
0.0
  0
LINE
  5
1FE
  8
0
 62
1
 10
112.213
 20
28.4538
 30
0.0
 11
112.408
 21
28.538
 31
0.0
  0
LINE
  5
1FF
  8
0
 62
1
 10
112.408
 20
28.538
 30
0.0
 11
112.607
 21
28.6098
 31
0.0
  0
LINE
  5
200
  8
0
 62
1
 10
112.607
 20
28.6098
 30
0.0
 11
112.811
 21
28.669
 31
0.0
  0
LINE
  5
201
  8
0
 62
1
 10
112.811
 20
28.669
 30
0.0
 11
113.018
 21
28.7152
 31
0.0
  0
LINE
  5
202
  8
0
 62
1
 10
113.018
 20
28.7152
 30
0.0
 11
113.227
 21
28.7484
 31
0.0
  0
LINE
  5
203
  8
0
 62
1
 10
113.227
 20
28.7484
 30
0.0
 11
113.438
 21
28.7683
 31
0.0
  0
LINE
  5
204
  8
0
 62
1
 10
113.438
 20
28.7683
 30
0.0
 11
113.65
 21
28.775
 31
0.0
  0
LINE
  5
205
  8
0
 62
1
 10
113.65
 20
28.775
 30
0.0
 11
113.862
 21
28.7683
 31
0.0
  0
LINE
  5
206
  8
0
 62
1
 10
113.862
 20
28.7683
 30
0.0
 11
114.073
 21
28.7484
 31
0.0
  0
LINE
  5
207
  8
0
 62
1
 10
114.073
 20
28.7484
 30
0.0
 11
114.282
 21
28.7152
 31
0.0
  0
LINE
  5
208
  8
0
 62
1
 10
114.282
 20
28.7152
 30
0.0
 11
114.489
 21
28.669
 31
0.0
  0
LINE
  5
209
  8
0
 62
1
 10
114.489
 20
28.669
 30
0.0
 11
114.693
 21
28.6098
 31
0.0
  0
LINE
  5
20A
  8
0
 62
1
 10
114.693
 20
28.6098
 30
0.0
 11
114.892
 21
28.538
 31
0.0
  0
LINE
  5
20B
  8
0
 62
1
 10
114.892
 20
28.538
 30
0.0
 11
115.087
 21
28.4538
 31
0.0
  0
LINE
  5
20C
  8
0
 62
1
 10
115.087
 20
28.4538
 30
0.0
 11
115.276
 21
28.3575
 31
0.0
  0
LINE
  5
20D
  8
0
 62
1
 10
115.276
 20
28.3575
 30
0.0
 11
115.458
 21
28.2496
 31
0.0
  0
LINE
  5
20E
  8
0
 62
1
 10
115.458
 20
28.2496
 30
0.0
 11
115.634
 21
28.1304
 31
0.0
  0
LINE
  5
20F
  8
0
 62
1
 10
115.634
 20
28.1304
 30
0.0
 11
115.801
 21
28.0005
 31
0.0
  0
LINE
  5
210
  8
0
 62
1
 10
115.801
 20
28.0005
 30
0.0
 11
115.96
 21
27.8603
 31
0.0
  0
LINE
  5
211
  8
0
 62
1
 10
115.96
 20
27.8603
 30
0.0
 11
116.11
 21
27.7103
 31
0.0
  0
LINE
  5
212
  8
0
 62
1
 10
116.11
 20
27.7103
 30
0.0
 11
116.25
 21
27.5513
 31
0.0
  0
LINE
  5
213
  8
0
 62
1
 10
116.25
 20
27.5513
 30
0.0
 11
116.38
 21
27.3838
 31
0.0
  0
LINE
  5
214
  8
0
 62
1
 10
116.38
 20
27.3838
 30
0.0
 11
116.5
 21
27.2084
 31
0.0
  0
LINE
  5
215
  8
0
 62
1
 10
116.5
 20
27.2084
 30
0.0
 11
116.608
 21
27.0259
 31
0.0
  0
LINE
  5
216
  8
0
 62
1
 10
116.608
 20
27.0259
 30
0.0
 11
116.704
 21
26.837
 31
0.0
  0
LINE
  5
217
  8
0
 62
1
 10
116.704
 20
26.837
 30
0.0
 11
116.788
 21
26.6424
 31
0.0
  0
LINE
  5
218
  8
0
 62
1
 10
116.788
 20
26.6424
 30
0.0
 11
116.86
 21
26.4429
 31
0.0
  0
LINE
  5
219
  8
0
 62
1
 10
116.86
 20
26.4429
 30
0.0
 11
116.919
 21
26.2393
 31
0.0
  0
LINE
  5
21A
  8
0
 62
1
 10
116.919
 20
26.2393
 30
0.0
 11
116.965
 21
26.0324
 31
0.0
  0
LINE
  5
21B
  8
0
 62
1
 10
116.965
 20
26.0324
 30
0.0
 11
116.998
 21
25.823
 31
0.0
  0
LINE
  5
21C
  8
0
 62
1
 10
116.998
 20
25.823
 30
0.0
 11
117.018
 21
25.6119
 31
0.0
  0
LINE
  5
21D
  8
0
 62
1
 10
117.018
 20
25.6119
 30
0.0
 11
117.025
 21
25.4
 31
0.0
  0
LINE
  5
21E
  8
0
 62
1
 10
117.025
 20
25.4
 30
0.0
 11
117.018
 21
25.1881
 31
0.0
  0
LINE
  5
21F
  8
0
 62
1
 10
117.018
 20
25.1881
 30
0.0
 11
116.998
 21
24.977
 31
0.0
  0
LINE
  5
220
  8
0
 62
1
 10
116.998
 20
24.977
 30
0.0
 11
116.965
 21
24.7676
 31
0.0
  0
LINE
  5
221
  8
0
 62
1
 10
116.965
 20
24.7676
 30
0.0
 11
116.919
 21
24.5607
 31
0.0
  0
LINE
  5
222
  8
0
 62
1
 10
116.919
 20
24.5607
 30
0.0
 11
116.86
 21
24.3571
 31
0.0
  0
LINE
  5
223
  8
0
 62
1
 10
116.86
 20
24.3571
 30
0.0
 11
116.788
 21
24.1576
 31
0.0
  0
LINE
  5
224
  8
0
 62
1
 10
116.788
 20
24.1576
 30
0.0
 11
116.704
 21
23.963
 31
0.0
  0
LINE
  5
225
  8
0
 62
1
 10
116.704
 20
23.963
 30
0.0
 11
116.608
 21
23.7741
 31
0.0
  0
LINE
  5
226
  8
0
 62
1
 10
116.608
 20
23.7741
 30
0.0
 11
116.5
 21
23.5916
 31
0.0
  0
LINE
  5
227
  8
0
 62
1
 10
116.5
 20
23.5916
 30
0.0
 11
116.38
 21
23.4162
 31
0.0
  0
LINE
  5
228
  8
0
 62
1
 10
116.38
 20
23.4162
 30
0.0
 11
116.25
 21
23.2487
 31
0.0
  0
LINE
  5
229
  8
0
 62
1
 10
116.25
 20
23.2487
 30
0.0
 11
116.11
 21
23.0896
 31
0.0
  0
LINE
  5
22A
  8
0
 62
1
 10
116.11
 20
23.0896
 30
0.0
 11
115.96
 21
22.9397
 31
0.0
  0
LINE
  5
22B
  8
0
 62
1
 10
115.96
 20
22.9397
 30
0.0
 11
115.801
 21
22.7995
 31
0.0
  0
LINE
  5
22C
  8
0
 62
1
 10
115.801
 20
22.7995
 30
0.0
 11
115.634
 21
22.6696
 31
0.0
  0
LINE
  5
22D
  8
0
 62
1
 10
115.634
 20
22.6696
 30
0.0
 11
115.458
 21
22.5504
 31
0.0
  0
LINE
  5
22E
  8
0
 62
1
 10
115.458
 20
22.5504
 30
0.0
 11
115.276
 21
22.4425
 31
0.0
  0
LINE
  5
22F
  8
0
 62
1
 10
115.276
 20
22.4425
 30
0.0
 11
115.087
 21
22.3462
 31
0.0
  0
LINE
  5
230
  8
0
 62
1
 10
115.087
 20
22.3462
 30
0.0
 11
114.892
 21
22.262
 31
0.0
  0
LINE
  5
231
  8
0
 62
1
 10
114.892
 20
22.262
 30
0.0
 11
114.693
 21
22.1902
 31
0.0
  0
LINE
  5
232
  8
0
 62
1
 10
114.693
 20
22.1902
 30
0.0
 11
114.489
 21
22.131
 31
0.0
  0
LINE
  5
233
  8
0
 62
1
 10
114.489
 20
22.131
 30
0.0
 11
114.282
 21
22.0848
 31
0.0
  0
LINE
  5
234
  8
0
 62
1
 10
114.282
 20
22.0848
 30
0.0
 11
114.073
 21
22.0516
 31
0.0
  0
LINE
  5
235
  8
0
 62
1
 10
114.073
 20
22.0516
 30
0.0
 11
113.862
 21
22.0316
 31
0.0
  0
LINE
  5
236
  8
0
 62
1
 10
113.862
 20
22.0316
 30
0.0
 11
113.65
 21
22.025
 31
0.0
  0
LINE
  5
237
  8
0
 62
1
 10
113.65
 20
22.025
 30
0.0
 11
113.438
 21
22.0316
 31
0.0
  0
LINE
  5
238
  8
0
 62
1
 10
-113.862
 20
22.0316
 30
0.0
 11
-114.073
 21
22.0516
 31
0.0
  0
LINE
  5
239
  8
0
 62
1
 10
-114.073
 20
22.0516
 30
0.0
 11
-114.282
 21
22.0848
 31
0.0
  0
LINE
  5
23A
  8
0
 62
1
 10
-114.282
 20
22.0848
 30
0.0
 11
-114.489
 21
22.131
 31
0.0
  0
LINE
  5
23B
  8
0
 62
1
 10
-114.489
 20
22.131
 30
0.0
 11
-114.693
 21
22.1902
 31
0.0
  0
LINE
  5
23C
  8
0
 62
1
 10
-114.693
 20
22.1902
 30
0.0
 11
-114.892
 21
22.262
 31
0.0
  0
LINE
  5
23D
  8
0
 62
1
 10
-114.892
 20
22.262
 30
0.0
 11
-115.087
 21
22.3462
 31
0.0
  0
LINE
  5
23E
  8
0
 62
1
 10
-115.087
 20
22.3462
 30
0.0
 11
-115.276
 21
22.4425
 31
0.0
  0
LINE
  5
23F
  8
0
 62
1
 10
-115.276
 20
22.4425
 30
0.0
 11
-115.458
 21
22.5504
 31
0.0
  0
LINE
  5
240
  8
0
 62
1
 10
-115.458
 20
22.5504
 30
0.0
 11
-115.634
 21
22.6696
 31
0.0
  0
LINE
  5
241
  8
0
 62
1
 10
-115.634
 20
22.6696
 30
0.0
 11
-115.801
 21
22.7995
 31
0.0
  0
LINE
  5
242
  8
0
 62
1
 10
-115.801
 20
22.7995
 30
0.0
 11
-115.96
 21
22.9397
 31
0.0
  0
LINE
  5
243
  8
0
 62
1
 10
-115.96
 20
22.9397
 30
0.0
 11
-116.11
 21
23.0896
 31
0.0
  0
LINE
  5
244
  8
0
 62
1
 10
-116.11
 20
23.0896
 30
0.0
 11
-116.25
 21
23.2487
 31
0.0
  0
LINE
  5
245
  8
0
 62
1
 10
-116.25
 20
23.2487
 30
0.0
 11
-116.38
 21
23.4162
 31
0.0
  0
LINE
  5
246
  8
0
 62
1
 10
-116.38
 20
23.4162
 30
0.0
 11
-116.5
 21
23.5916
 31
0.0
  0
LINE
  5
247
  8
0
 62
1
 10
-116.5
 20
23.5916
 30
0.0
 11
-116.608
 21
23.7741
 31
0.0
  0
LINE
  5
248
  8
0
 62
1
 10
-116.608
 20
23.7741
 30
0.0
 11
-116.704
 21
23.963
 31
0.0
  0
LINE
  5
249
  8
0
 62
1
 10
-116.704
 20
23.963
 30
0.0
 11
-116.788
 21
24.1576
 31
0.0
  0
LINE
  5
24A
  8
0
 62
1
 10
-116.788
 20
24.1576
 30
0.0
 11
-116.86
 21
24.3571
 31
0.0
  0
LINE
  5
24B
  8
0
 62
1
 10
-116.86
 20
24.3571
 30
0.0
 11
-116.919
 21
24.5607
 31
0.0
  0
LINE
  5
24C
  8
0
 62
1
 10
-116.919
 20
24.5607
 30
0.0
 11
-116.965
 21
24.7676
 31
0.0
  0
LINE
  5
24D
  8
0
 62
1
 10
-116.965
 20
24.7676
 30
0.0
 11
-116.998
 21
24.977
 31
0.0
  0
LINE
  5
24E
  8
0
 62
1
 10
-116.998
 20
24.977
 30
0.0
 11
-117.018
 21
25.1881
 31
0.0
  0
LINE
  5
24F
  8
0
 62
1
 10
-117.018
 20
25.1881
 30
0.0
 11
-117.025
 21
25.4
 31
0.0
  0
LINE
  5
250
  8
0
 62
1
 10
-117.025
 20
25.4
 30
0.0
 11
-117.018
 21
25.6119
 31
0.0
  0
LINE
  5
251
  8
0
 62
1
 10
-117.018
 20
25.6119
 30
0.0
 11
-116.998
 21
25.823
 31
0.0
  0
LINE
  5
252
  8
0
 62
1
 10
-116.998
 20
25.823
 30
0.0
 11
-116.965
 21
26.0324
 31
0.0
  0
LINE
  5
253
  8
0
 62
1
 10
-116.965
 20
26.0324
 30
0.0
 11
-116.919
 21
26.2393
 31
0.0
  0
LINE
  5
254
  8
0
 62
1
 10
-116.919
 20
26.2393
 30
0.0
 11
-116.86
 21
26.4429
 31
0.0
  0
LINE
  5
255
  8
0
 62
1
 10
-116.86
 20
26.4429
 30
0.0
 11
-116.788
 21
26.6424
 31
0.0
  0
LINE
  5
256
  8
0
 62
1
 10
-116.788
 20
26.6424
 30
0.0
 11
-116.704
 21
26.837
 31
0.0
  0
LINE
  5
257
  8
0
 62
1
 10
-116.704
 20
26.837
 30
0.0
 11
-116.608
 21
27.0259
 31
0.0
  0
LINE
  5
258
  8
0
 62
1
 10
-116.608
 20
27.0259
 30
0.0
 11
-116.5
 21
27.2084
 31
0.0
  0
LINE
  5
259
  8
0
 62
1
 10
-116.5
 20
27.2084
 30
0.0
 11
-116.38
 21
27.3838
 31
0.0
  0
LINE
  5
25A
  8
0
 62
1
 10
-116.38
 20
27.3838
 30
0.0
 11
-116.25
 21
27.5513
 31
0.0
  0
LINE
  5
25B
  8
0
 62
1
 10
-116.25
 20
27.5513
 30
0.0
 11
-116.11
 21
27.7103
 31
0.0
  0
LINE
  5
25C
  8
0
 62
1
 10
-116.11
 20
27.7103
 30
0.0
 11
-115.96
 21
27.8603
 31
0.0
  0
LINE
  5
25D
  8
0
 62
1
 10
-115.96
 20
27.8603
 30
0.0
 11
-115.801
 21
28.0005
 31
0.0
  0
LINE
  5
25E
  8
0
 62
1
 10
-115.801
 20
28.0005
 30
0.0
 11
-115.634
 21
28.1304
 31
0.0
  0
LINE
  5
25F
  8
0
 62
1
 10
-115.634
 20
28.1304
 30
0.0
 11
-115.458
 21
28.2496
 31
0.0
  0
LINE
  5
260
  8
0
 62
1
 10
-115.458
 20
28.2496
 30
0.0
 11
-115.276
 21
28.3575
 31
0.0
  0
LINE
  5
261
  8
0
 62
1
 10
-115.276
 20
28.3575
 30
0.0
 11
-115.087
 21
28.4538
 31
0.0
  0
LINE
  5
262
  8
0
 62
1
 10
-115.087
 20
28.4538
 30
0.0
 11
-114.892
 21
28.538
 31
0.0
  0
LINE
  5
263
  8
0
 62
1
 10
-114.892
 20
28.538
 30
0.0
 11
-114.693
 21
28.6098
 31
0.0
  0
LINE
  5
264
  8
0
 62
1
 10
-114.693
 20
28.6098
 30
0.0
 11
-114.489
 21
28.669
 31
0.0
  0
LINE
  5
265
  8
0
 62
1
 10
-114.489
 20
28.669
 30
0.0
 11
-114.282
 21
28.7152
 31
0.0
  0
LINE
  5
266
  8
0
 62
1
 10
-114.282
 20
28.7152
 30
0.0
 11
-114.073
 21
28.7484
 31
0.0
  0
LINE
  5
267
  8
0
 62
1
 10
-114.073
 20
28.7484
 30
0.0
 11
-113.862
 21
28.7683
 31
0.0
  0
LINE
  5
268
  8
0
 62
1
 10
-113.862
 20
28.7683
 30
0.0
 11
-113.65
 21
28.775
 31
0.0
  0
LINE
  5
269
  8
0
 62
1
 10
-113.65
 20
28.775
 30
0.0
 11
-113.438
 21
28.7683
 31
0.0
  0
LINE
  5
26A
  8
0
 62
1
 10
-113.438
 20
28.7683
 30
0.0
 11
-113.227
 21
28.7484
 31
0.0
  0
LINE
  5
26B
  8
0
 62
1
 10
-113.227
 20
28.7484
 30
0.0
 11
-113.018
 21
28.7152
 31
0.0
  0
LINE
  5
26C
  8
0
 62
1
 10
-113.018
 20
28.7152
 30
0.0
 11
-112.811
 21
28.669
 31
0.0
  0
LINE
  5
26D
  8
0
 62
1
 10
-112.811
 20
28.669
 30
0.0
 11
-112.607
 21
28.6098
 31
0.0
  0
LINE
  5
26E
  8
0
 62
1
 10
-112.607
 20
28.6098
 30
0.0
 11
-112.408
 21
28.538
 31
0.0
  0
LINE
  5
26F
  8
0
 62
1
 10
-112.408
 20
28.538
 30
0.0
 11
-112.213
 21
28.4538
 31
0.0
  0
LINE
  5
270
  8
0
 62
1
 10
-112.213
 20
28.4538
 30
0.0
 11
-112.024
 21
28.3575
 31
0.0
  0
LINE
  5
271
  8
0
 62
1
 10
-112.024
 20
28.3575
 30
0.0
 11
-111.842
 21
28.2496
 31
0.0
  0
LINE
  5
272
  8
0
 62
1
 10
-111.842
 20
28.2496
 30
0.0
 11
-111.666
 21
28.1304
 31
0.0
  0
LINE
  5
273
  8
0
 62
1
 10
-111.666
 20
28.1304
 30
0.0
 11
-111.499
 21
28.0005
 31
0.0
  0
LINE
  5
274
  8
0
 62
1
 10
-111.499
 20
28.0005
 30
0.0
 11
-111.34
 21
27.8603
 31
0.0
  0
LINE
  5
275
  8
0
 62
1
 10
-111.34
 20
27.8603
 30
0.0
 11
-111.19
 21
27.7103
 31
0.0
  0
LINE
  5
276
  8
0
 62
1
 10
-111.19
 20
27.7103
 30
0.0
 11
-111.05
 21
27.5513
 31
0.0
  0
LINE
  5
277
  8
0
 62
1
 10
-111.05
 20
27.5513
 30
0.0
 11
-110.92
 21
27.3838
 31
0.0
  0
LINE
  5
278
  8
0
 62
1
 10
-110.92
 20
27.3838
 30
0.0
 11
-110.8
 21
27.2084
 31
0.0
  0
LINE
  5
279
  8
0
 62
1
 10
-110.8
 20
27.2084
 30
0.0
 11
-110.692
 21
27.0259
 31
0.0
  0
LINE
  5
27A
  8
0
 62
1
 10
-110.692
 20
27.0259
 30
0.0
 11
-110.596
 21
26.837
 31
0.0
  0
LINE
  5
27B
  8
0
 62
1
 10
-110.596
 20
26.837
 30
0.0
 11
-110.512
 21
26.6424
 31
0.0
  0
LINE
  5
27C
  8
0
 62
1
 10
-110.512
 20
26.6424
 30
0.0
 11
-110.44
 21
26.4429
 31
0.0
  0
LINE
  5
27D
  8
0
 62
1
 10
-110.44
 20
26.4429
 30
0.0
 11
-110.381
 21
26.2393
 31
0.0
  0
LINE
  5
27E
  8
0
 62
1
 10
-110.381
 20
26.2393
 30
0.0
 11
-110.335
 21
26.0324
 31
0.0
  0
LINE
  5
27F
  8
0
 62
1
 10
-110.335
 20
26.0324
 30
0.0
 11
-110.302
 21
25.823
 31
0.0
  0
LINE
  5
280
  8
0
 62
1
 10
-110.302
 20
25.823
 30
0.0
 11
-110.282
 21
25.6119
 31
0.0
  0
LINE
  5
281
  8
0
 62
1
 10
-110.282
 20
25.6119
 30
0.0
 11
-110.275
 21
25.4
 31
0.0
  0
LINE
  5
282
  8
0
 62
1
 10
-110.275
 20
25.4
 30
0.0
 11
-110.282
 21
25.1881
 31
0.0
  0
LINE
  5
283
  8
0
 62
1
 10
-110.282
 20
25.1881
 30
0.0
 11
-110.302
 21
24.977
 31
0.0
  0
LINE
  5
284
  8
0
 62
1
 10
-110.302
 20
24.977
 30
0.0
 11
-110.335
 21
24.7676
 31
0.0
  0
LINE
  5
285
  8
0
 62
1
 10
-110.335
 20
24.7676
 30
0.0
 11
-110.381
 21
24.5607
 31
0.0
  0
LINE
  5
286
  8
0
 62
1
 10
-110.381
 20
24.5607
 30
0.0
 11
-110.44
 21
24.3571
 31
0.0
  0
LINE
  5
287
  8
0
 62
1
 10
-110.44
 20
24.3571
 30
0.0
 11
-110.512
 21
24.1576
 31
0.0
  0
LINE
  5
288
  8
0
 62
1
 10
-110.512
 20
24.1576
 30
0.0
 11
-110.596
 21
23.963
 31
0.0
  0
LINE
  5
289
  8
0
 62
1
 10
-110.596
 20
23.963
 30
0.0
 11
-110.692
 21
23.7741
 31
0.0
  0
LINE
  5
28A
  8
0
 62
1
 10
-110.692
 20
23.7741
 30
0.0
 11
-110.8
 21
23.5916
 31
0.0
  0
LINE
  5
28B
  8
0
 62
1
 10
-110.8
 20
23.5916
 30
0.0
 11
-110.92
 21
23.4162
 31
0.0
  0
LINE
  5
28C
  8
0
 62
1
 10
-110.92
 20
23.4162
 30
0.0
 11
-111.05
 21
23.2487
 31
0.0
  0
LINE
  5
28D
  8
0
 62
1
 10
-111.05
 20
23.2487
 30
0.0
 11
-111.19
 21
23.0896
 31
0.0
  0
LINE
  5
28E
  8
0
 62
1
 10
-111.19
 20
23.0896
 30
0.0
 11
-111.34
 21
22.9397
 31
0.0
  0
LINE
  5
28F
  8
0
 62
1
 10
-111.34
 20
22.9397
 30
0.0
 11
-111.499
 21
22.7995
 31
0.0
  0
LINE
  5
290
  8
0
 62
1
 10
-111.499
 20
22.7995
 30
0.0
 11
-111.666
 21
22.6696
 31
0.0
  0
LINE
  5
291
  8
0
 62
1
 10
-111.666
 20
22.6696
 30
0.0
 11
-111.842
 21
22.5504
 31
0.0
  0
LINE
  5
292
  8
0
 62
1
 10
-111.842
 20
22.5504
 30
0.0
 11
-112.024
 21
22.4425
 31
0.0
  0
LINE
  5
293
  8
0
 62
1
 10
-112.024
 20
22.4425
 30
0.0
 11
-112.213
 21
22.3462
 31
0.0
  0
LINE
  5
294
  8
0
 62
1
 10
-112.213
 20
22.3462
 30
0.0
 11
-112.408
 21
22.262
 31
0.0
  0
LINE
  5
295
  8
0
 62
1
 10
-112.408
 20
22.262
 30
0.0
 11
-112.607
 21
22.1902
 31
0.0
  0
LINE
  5
296
  8
0
 62
1
 10
-112.607
 20
22.1902
 30
0.0
 11
-112.811
 21
22.131
 31
0.0
  0
LINE
  5
297
  8
0
 62
1
 10
-112.811
 20
22.131
 30
0.0
 11
-113.018
 21
22.0848
 31
0.0
  0
LINE
  5
298
  8
0
 62
1
 10
-113.018
 20
22.0848
 30
0.0
 11
-113.227
 21
22.0516
 31
0.0
  0
LINE
  5
299
  8
0
 62
1
 10
-113.227
 20
22.0516
 30
0.0
 11
-113.438
 21
22.0316
 31
0.0
  0
LINE
  5
29A
  8
0
 62
1
 10
-113.438
 20
22.0316
 30
0.0
 11
-113.65
 21
22.025
 31
0.0
  0
LINE
  5
29B
  8
0
 62
1
 10
-113.65
 20
22.025
 30
0.0
 11
-113.862
 21
22.0316
 31
0.0
  0
LINE
  5
29C
  8
0
 62
1
 10
-4.0
 20
-20.0
 30
0.0
 11
-4.0
 21
20.0
 31
0.0
  0
LINE
  5
29D
  8
0
 62
1
 10
-4.0
 20
20.0
 30
0.0
 11
4.0
 21
20.0
 31
0.0
  0
LINE
  5
29E
  8
0
 62
1
 10
4.0
 20
20.0
 30
0.0
 11
4.0
 21
-20.0
 31
0.0
  0
LINE
  5
29F
  8
0
 62
1
 10
4.0
 20
-20.0
 30
0.0
 11
-4.0
 21
-20.0
 31
0.0
  0
LINE
  5
2A0
  8
0
 62
1
 10
113.438
 20
-28.7683
 30
0.0
 11
113.227
 21
-28.7484
 31
0.0
  0
LINE
  5
2A1
  8
0
 62
1
 10
113.227
 20
-28.7484
 30
0.0
 11
113.018
 21
-28.7152
 31
0.0
  0
LINE
  5
2A2
  8
0
 62
1
 10
113.018
 20
-28.7152
 30
0.0
 11
112.811
 21
-28.669
 31
0.0
  0
LINE
  5
2A3
  8
0
 62
1
 10
112.811
 20
-28.669
 30
0.0
 11
112.607
 21
-28.6098
 31
0.0
  0
LINE
  5
2A4
  8
0
 62
1
 10
112.607
 20
-28.6098
 30
0.0
 11
112.408
 21
-28.538
 31
0.0
  0
LINE
  5
2A5
  8
0
 62
1
 10
112.408
 20
-28.538
 30
0.0
 11
112.213
 21
-28.4538
 31
0.0
  0
LINE
  5
2A6
  8
0
 62
1
 10
112.213
 20
-28.4538
 30
0.0
 11
112.024
 21
-28.3575
 31
0.0
  0
LINE
  5
2A7
  8
0
 62
1
 10
112.024
 20
-28.3575
 30
0.0
 11
111.842
 21
-28.2496
 31
0.0
  0
LINE
  5
2A8
  8
0
 62
1
 10
111.842
 20
-28.2496
 30
0.0
 11
111.666
 21
-28.1304
 31
0.0
  0
LINE
  5
2A9
  8
0
 62
1
 10
111.666
 20
-28.1304
 30
0.0
 11
111.499
 21
-28.0005
 31
0.0
  0
LINE
  5
2AA
  8
0
 62
1
 10
111.499
 20
-28.0005
 30
0.0
 11
111.34
 21
-27.8603
 31
0.0
  0
LINE
  5
2AB
  8
0
 62
1
 10
111.34
 20
-27.8603
 30
0.0
 11
111.19
 21
-27.7103
 31
0.0
  0
LINE
  5
2AC
  8
0
 62
1
 10
111.19
 20
-27.7103
 30
0.0
 11
111.05
 21
-27.5513
 31
0.0
  0
LINE
  5
2AD
  8
0
 62
1
 10
111.05
 20
-27.5513
 30
0.0
 11
110.92
 21
-27.3838
 31
0.0
  0
LINE
  5
2AE
  8
0
 62
1
 10
110.92
 20
-27.3838
 30
0.0
 11
110.8
 21
-27.2084
 31
0.0
  0
LINE
  5
2AF
  8
0
 62
1
 10
110.8
 20
-27.2084
 30
0.0
 11
110.692
 21
-27.0259
 31
0.0
  0
LINE
  5
2B0
  8
0
 62
1
 10
110.692
 20
-27.0259
 30
0.0
 11
110.596
 21
-26.837
 31
0.0
  0
LINE
  5
2B1
  8
0
 62
1
 10
110.596
 20
-26.837
 30
0.0
 11
110.512
 21
-26.6424
 31
0.0
  0
LINE
  5
2B2
  8
0
 62
1
 10
110.512
 20
-26.6424
 30
0.0
 11
110.44
 21
-26.4429
 31
0.0
  0
LINE
  5
2B3
  8
0
 62
1
 10
110.44
 20
-26.4429
 30
0.0
 11
110.381
 21
-26.2393
 31
0.0
  0
LINE
  5
2B4
  8
0
 62
1
 10
110.381
 20
-26.2393
 30
0.0
 11
110.335
 21
-26.0324
 31
0.0
  0
LINE
  5
2B5
  8
0
 62
1
 10
110.335
 20
-26.0324
 30
0.0
 11
110.302
 21
-25.823
 31
0.0
  0
LINE
  5
2B6
  8
0
 62
1
 10
110.302
 20
-25.823
 30
0.0
 11
110.282
 21
-25.6119
 31
0.0
  0
LINE
  5
2B7
  8
0
 62
1
 10
110.282
 20
-25.6119
 30
0.0
 11
110.275
 21
-25.4
 31
0.0
  0
LINE
  5
2B8
  8
0
 62
1
 10
110.275
 20
-25.4
 30
0.0
 11
110.282
 21
-25.1881
 31
0.0
  0
LINE
  5
2B9
  8
0
 62
1
 10
110.282
 20
-25.1881
 30
0.0
 11
110.302
 21
-24.977
 31
0.0
  0
LINE
  5
2BA
  8
0
 62
1
 10
110.302
 20
-24.977
 30
0.0
 11
110.335
 21
-24.7676
 31
0.0
  0
LINE
  5
2BB
  8
0
 62
1
 10
110.335
 20
-24.7676
 30
0.0
 11
110.381
 21
-24.5607
 31
0.0
  0
LINE
  5
2BC
  8
0
 62
1
 10
110.381
 20
-24.5607
 30
0.0
 11
110.44
 21
-24.3571
 31
0.0
  0
LINE
  5
2BD
  8
0
 62
1
 10
110.44
 20
-24.3571
 30
0.0
 11
110.512
 21
-24.1576
 31
0.0
  0
LINE
  5
2BE
  8
0
 62
1
 10
110.512
 20
-24.1576
 30
0.0
 11
110.596
 21
-23.963
 31
0.0
  0
LINE
  5
2BF
  8
0
 62
1
 10
110.596
 20
-23.963
 30
0.0
 11
110.692
 21
-23.7741
 31
0.0
  0
LINE
  5
2C0
  8
0
 62
1
 10
110.692
 20
-23.7741
 30
0.0
 11
110.8
 21
-23.5916
 31
0.0
  0
LINE
  5
2C1
  8
0
 62
1
 10
110.8
 20
-23.5916
 30
0.0
 11
110.92
 21
-23.4162
 31
0.0
  0
LINE
  5
2C2
  8
0
 62
1
 10
110.92
 20
-23.4162
 30
0.0
 11
111.05
 21
-23.2487
 31
0.0
  0
LINE
  5
2C3
  8
0
 62
1
 10
111.05
 20
-23.2487
 30
0.0
 11
111.19
 21
-23.0896
 31
0.0
  0
LINE
  5
2C4
  8
0
 62
1
 10
111.19
 20
-23.0896
 30
0.0
 11
111.34
 21
-22.9397
 31
0.0
  0
LINE
  5
2C5
  8
0
 62
1
 10
111.34
 20
-22.9397
 30
0.0
 11
111.499
 21
-22.7995
 31
0.0
  0
LINE
  5
2C6
  8
0
 62
1
 10
111.499
 20
-22.7995
 30
0.0
 11
111.666
 21
-22.6696
 31
0.0
  0
LINE
  5
2C7
  8
0
 62
1
 10
111.666
 20
-22.6696
 30
0.0
 11
111.842
 21
-22.5504
 31
0.0
  0
LINE
  5
2C8
  8
0
 62
1
 10
111.842
 20
-22.5504
 30
0.0
 11
112.024
 21
-22.4425
 31
0.0
  0
LINE
  5
2C9
  8
0
 62
1
 10
112.024
 20
-22.4425
 30
0.0
 11
112.213
 21
-22.3462
 31
0.0
  0
LINE
  5
2CA
  8
0
 62
1
 10
112.213
 20
-22.3462
 30
0.0
 11
112.408
 21
-22.262
 31
0.0
  0
LINE
  5
2CB
  8
0
 62
1
 10
112.408
 20
-22.262
 30
0.0
 11
112.607
 21
-22.1902
 31
0.0
  0
LINE
  5
2CC
  8
0
 62
1
 10
112.607
 20
-22.1902
 30
0.0
 11
112.811
 21
-22.131
 31
0.0
  0
LINE
  5
2CD
  8
0
 62
1
 10
112.811
 20
-22.131
 30
0.0
 11
113.018
 21
-22.0848
 31
0.0
  0
LINE
  5
2CE
  8
0
 62
1
 10
113.018
 20
-22.0848
 30
0.0
 11
113.227
 21
-22.0516
 31
0.0
  0
LINE
  5
2CF
  8
0
 62
1
 10
113.227
 20
-22.0516
 30
0.0
 11
113.438
 21
-22.0316
 31
0.0
  0
LINE
  5
2D0
  8
0
 62
1
 10
113.438
 20
-22.0316
 30
0.0
 11
113.65
 21
-22.025
 31
0.0
  0
LINE
  5
2D1
  8
0
 62
1
 10
113.65
 20
-22.025
 30
0.0
 11
113.862
 21
-22.0316
 31
0.0
  0
LINE
  5
2D2
  8
0
 62
1
 10
113.862
 20
-22.0316
 30
0.0
 11
114.073
 21
-22.0516
 31
0.0
  0
LINE
  5
2D3
  8
0
 62
1
 10
114.073
 20
-22.0516
 30
0.0
 11
114.282
 21
-22.0848
 31
0.0
  0
LINE
  5
2D4
  8
0
 62
1
 10
114.282
 20
-22.0848
 30
0.0
 11
114.489
 21
-22.131
 31
0.0
  0
LINE
  5
2D5
  8
0
 62
1
 10
114.489
 20
-22.131
 30
0.0
 11
114.693
 21
-22.1902
 31
0.0
  0
LINE
  5
2D6
  8
0
 62
1
 10
114.693
 20
-22.1902
 30
0.0
 11
114.892
 21
-22.262
 31
0.0
  0
LINE
  5
2D7
  8
0
 62
1
 10
114.892
 20
-22.262
 30
0.0
 11
115.087
 21
-22.3462
 31
0.0
  0
LINE
  5
2D8
  8
0
 62
1
 10
115.087
 20
-22.3462
 30
0.0
 11
115.276
 21
-22.4425
 31
0.0
  0
LINE
  5
2D9
  8
0
 62
1
 10
115.276
 20
-22.4425
 30
0.0
 11
115.458
 21
-22.5504
 31
0.0
  0
LINE
  5
2DA
  8
0
 62
1
 10
115.458
 20
-22.5504
 30
0.0
 11
115.634
 21
-22.6696
 31
0.0
  0
LINE
  5
2DB
  8
0
 62
1
 10
115.634
 20
-22.6696
 30
0.0
 11
115.801
 21
-22.7995
 31
0.0
  0
LINE
  5
2DC
  8
0
 62
1
 10
115.801
 20
-22.7995
 30
0.0
 11
115.96
 21
-22.9397
 31
0.0
  0
LINE
  5
2DD
  8
0
 62
1
 10
115.96
 20
-22.9397
 30
0.0
 11
116.11
 21
-23.0896
 31
0.0
  0
LINE
  5
2DE
  8
0
 62
1
 10
116.11
 20
-23.0896
 30
0.0
 11
116.25
 21
-23.2487
 31
0.0
  0
LINE
  5
2DF
  8
0
 62
1
 10
116.25
 20
-23.2487
 30
0.0
 11
116.38
 21
-23.4162
 31
0.0
  0
LINE
  5
2E0
  8
0
 62
1
 10
116.38
 20
-23.4162
 30
0.0
 11
116.5
 21
-23.5916
 31
0.0
  0
LINE
  5
2E1
  8
0
 62
1
 10
116.5
 20
-23.5916
 30
0.0
 11
116.608
 21
-23.7741
 31
0.0
  0
LINE
  5
2E2
  8
0
 62
1
 10
116.608
 20
-23.7741
 30
0.0
 11
116.704
 21
-23.963
 31
0.0
  0
LINE
  5
2E3
  8
0
 62
1
 10
116.704
 20
-23.963
 30
0.0
 11
116.788
 21
-24.1576
 31
0.0
  0
LINE
  5
2E4
  8
0
 62
1
 10
116.788
 20
-24.1576
 30
0.0
 11
116.86
 21
-24.3571
 31
0.0
  0
LINE
  5
2E5
  8
0
 62
1
 10
116.86
 20
-24.3571
 30
0.0
 11
116.919
 21
-24.5607
 31
0.0
  0
LINE
  5
2E6
  8
0
 62
1
 10
116.919
 20
-24.5607
 30
0.0
 11
116.965
 21
-24.7676
 31
0.0
  0
LINE
  5
2E7
  8
0
 62
1
 10
116.965
 20
-24.7676
 30
0.0
 11
116.998
 21
-24.977
 31
0.0
  0
LINE
  5
2E8
  8
0
 62
1
 10
116.998
 20
-24.977
 30
0.0
 11
117.018
 21
-25.1881
 31
0.0
  0
LINE
  5
2E9
  8
0
 62
1
 10
117.018
 20
-25.1881
 30
0.0
 11
117.025
 21
-25.4
 31
0.0
  0
LINE
  5
2EA
  8
0
 62
1
 10
117.025
 20
-25.4
 30
0.0
 11
117.018
 21
-25.6119
 31
0.0
  0
LINE
  5
2EB
  8
0
 62
1
 10
117.018
 20
-25.6119
 30
0.0
 11
116.998
 21
-25.823
 31
0.0
  0
LINE
  5
2EC
  8
0
 62
1
 10
116.998
 20
-25.823
 30
0.0
 11
116.965
 21
-26.0324
 31
0.0
  0
LINE
  5
2ED
  8
0
 62
1
 10
116.965
 20
-26.0324
 30
0.0
 11
116.919
 21
-26.2393
 31
0.0
  0
LINE
  5
2EE
  8
0
 62
1
 10
116.919
 20
-26.2393
 30
0.0
 11
116.86
 21
-26.4429
 31
0.0
  0
LINE
  5
2EF
  8
0
 62
1
 10
116.86
 20
-26.4429
 30
0.0
 11
116.788
 21
-26.6424
 31
0.0
  0
LINE
  5
2F0
  8
0
 62
1
 10
116.788
 20
-26.6424
 30
0.0
 11
116.704
 21
-26.837
 31
0.0
  0
LINE
  5
2F1
  8
0
 62
1
 10
116.704
 20
-26.837
 30
0.0
 11
116.608
 21
-27.0259
 31
0.0
  0
LINE
  5
2F2
  8
0
 62
1
 10
116.608
 20
-27.0259
 30
0.0
 11
116.5
 21
-27.2084
 31
0.0
  0
LINE
  5
2F3
  8
0
 62
1
 10
116.5
 20
-27.2084
 30
0.0
 11
116.38
 21
-27.3838
 31
0.0
  0
LINE
  5
2F4
  8
0
 62
1
 10
116.38
 20
-27.3838
 30
0.0
 11
116.25
 21
-27.5513
 31
0.0
  0
LINE
  5
2F5
  8
0
 62
1
 10
116.25
 20
-27.5513
 30
0.0
 11
116.11
 21
-27.7103
 31
0.0
  0
LINE
  5
2F6
  8
0
 62
1
 10
116.11
 20
-27.7103
 30
0.0
 11
115.96
 21
-27.8603
 31
0.0
  0
LINE
  5
2F7
  8
0
 62
1
 10
115.96
 20
-27.8603
 30
0.0
 11
115.801
 21
-28.0005
 31
0.0
  0
LINE
  5
2F8
  8
0
 62
1
 10
115.801
 20
-28.0005
 30
0.0
 11
115.634
 21
-28.1304
 31
0.0
  0
LINE
  5
2F9
  8
0
 62
1
 10
115.634
 20
-28.1304
 30
0.0
 11
115.458
 21
-28.2496
 31
0.0
  0
LINE
  5
2FA
  8
0
 62
1
 10
115.458
 20
-28.2496
 30
0.0
 11
115.276
 21
-28.3575
 31
0.0
  0
LINE
  5
2FB
  8
0
 62
1
 10
115.276
 20
-28.3575
 30
0.0
 11
115.087
 21
-28.4538
 31
0.0
  0
LINE
  5
2FC
  8
0
 62
1
 10
115.087
 20
-28.4538
 30
0.0
 11
114.892
 21
-28.538
 31
0.0
  0
LINE
  5
2FD
  8
0
 62
1
 10
114.892
 20
-28.538
 30
0.0
 11
114.693
 21
-28.6098
 31
0.0
  0
LINE
  5
2FE
  8
0
 62
1
 10
114.693
 20
-28.6098
 30
0.0
 11
114.489
 21
-28.669
 31
0.0
  0
LINE
  5
2FF
  8
0
 62
1
 10
114.489
 20
-28.669
 30
0.0
 11
114.282
 21
-28.7152
 31
0.0
  0
LINE
  5
300
  8
0
 62
1
 10
114.282
 20
-28.7152
 30
0.0
 11
114.073
 21
-28.7484
 31
0.0
  0
LINE
  5
301
  8
0
 62
1
 10
114.073
 20
-28.7484
 30
0.0
 11
113.862
 21
-28.7683
 31
0.0
  0
LINE
  5
302
  8
0
 62
1
 10
113.862
 20
-28.7683
 30
0.0
 11
113.65
 21
-28.775
 31
0.0
  0
LINE
  5
303
  8
0
 62
1
 10
113.65
 20
-28.775
 30
0.0
 11
113.438
 21
-28.7683
 31
0.0
  0
LINE
  5
304
  8
0
 62
1
 10
-113.862
 20
-28.7683
 30
0.0
 11
-114.073
 21
-28.7484
 31
0.0
  0
LINE
  5
305
  8
0
 62
1
 10
-114.073
 20
-28.7484
 30
0.0
 11
-114.282
 21
-28.7152
 31
0.0
  0
LINE
  5
306
  8
0
 62
1
 10
-114.282
 20
-28.7152
 30
0.0
 11
-114.489
 21
-28.669
 31
0.0
  0
LINE
  5
307
  8
0
 62
1
 10
-114.489
 20
-28.669
 30
0.0
 11
-114.693
 21
-28.6098
 31
0.0
  0
LINE
  5
308
  8
0
 62
1
 10
-114.693
 20
-28.6098
 30
0.0
 11
-114.892
 21
-28.538
 31
0.0
  0
LINE
  5
309
  8
0
 62
1
 10
-114.892
 20
-28.538
 30
0.0
 11
-115.087
 21
-28.4538
 31
0.0
  0
LINE
  5
30A
  8
0
 62
1
 10
-115.087
 20
-28.4538
 30
0.0
 11
-115.276
 21
-28.3575
 31
0.0
  0
LINE
  5
30B
  8
0
 62
1
 10
-115.276
 20
-28.3575
 30
0.0
 11
-115.458
 21
-28.2496
 31
0.0
  0
LINE
  5
30C
  8
0
 62
1
 10
-115.458
 20
-28.2496
 30
0.0
 11
-115.634
 21
-28.1304
 31
0.0
  0
LINE
  5
30D
  8
0
 62
1
 10
-115.634
 20
-28.1304
 30
0.0
 11
-115.801
 21
-28.0005
 31
0.0
  0
LINE
  5
30E
  8
0
 62
1
 10
-115.801
 20
-28.0005
 30
0.0
 11
-115.96
 21
-27.8603
 31
0.0
  0
LINE
  5
30F
  8
0
 62
1
 10
-115.96
 20
-27.8603
 30
0.0
 11
-116.11
 21
-27.7103
 31
0.0
  0
LINE
  5
310
  8
0
 62
1
 10
-116.11
 20
-27.7103
 30
0.0
 11
-116.25
 21
-27.5513
 31
0.0
  0
LINE
  5
311
  8
0
 62
1
 10
-116.25
 20
-27.5513
 30
0.0
 11
-116.38
 21
-27.3838
 31
0.0
  0
LINE
  5
312
  8
0
 62
1
 10
-116.38
 20
-27.3838
 30
0.0
 11
-116.5
 21
-27.2084
 31
0.0
  0
LINE
  5
313
  8
0
 62
1
 10
-116.5
 20
-27.2084
 30
0.0
 11
-116.608
 21
-27.0259
 31
0.0
  0
LINE
  5
314
  8
0
 62
1
 10
-116.608
 20
-27.0259
 30
0.0
 11
-116.704
 21
-26.837
 31
0.0
  0
LINE
  5
315
  8
0
 62
1
 10
-116.704
 20
-26.837
 30
0.0
 11
-116.788
 21
-26.6424
 31
0.0
  0
LINE
  5
316
  8
0
 62
1
 10
-116.788
 20
-26.6424
 30
0.0
 11
-116.86
 21
-26.4429
 31
0.0
  0
LINE
  5
317
  8
0
 62
1
 10
-116.86
 20
-26.4429
 30
0.0
 11
-116.919
 21
-26.2393
 31
0.0
  0
LINE
  5
318
  8
0
 62
1
 10
-116.919
 20
-26.2393
 30
0.0
 11
-116.965
 21
-26.0324
 31
0.0
  0
LINE
  5
319
  8
0
 62
1
 10
-116.965
 20
-26.0324
 30
0.0
 11
-116.998
 21
-25.823
 31
0.0
  0
LINE
  5
31A
  8
0
 62
1
 10
-116.998
 20
-25.823
 30
0.0
 11
-117.018
 21
-25.6119
 31
0.0
  0
LINE
  5
31B
  8
0
 62
1
 10
-117.018
 20
-25.6119
 30
0.0
 11
-117.025
 21
-25.4
 31
0.0
  0
LINE
  5
31C
  8
0
 62
1
 10
-117.025
 20
-25.4
 30
0.0
 11
-117.018
 21
-25.1881
 31
0.0
  0
LINE
  5
31D
  8
0
 62
1
 10
-117.018
 20
-25.1881
 30
0.0
 11
-116.998
 21
-24.977
 31
0.0
  0
LINE
  5
31E
  8
0
 62
1
 10
-116.998
 20
-24.977
 30
0.0
 11
-116.965
 21
-24.7676
 31
0.0
  0
LINE
  5
31F
  8
0
 62
1
 10
-116.965
 20
-24.7676
 30
0.0
 11
-116.919
 21
-24.5607
 31
0.0
  0
LINE
  5
320
  8
0
 62
1
 10
-116.919
 20
-24.5607
 30
0.0
 11
-116.86
 21
-24.3571
 31
0.0
  0
LINE
  5
321
  8
0
 62
1
 10
-116.86
 20
-24.3571
 30
0.0
 11
-116.788
 21
-24.1576
 31
0.0
  0
LINE
  5
322
  8
0
 62
1
 10
-116.788
 20
-24.1576
 30
0.0
 11
-116.704
 21
-23.963
 31
0.0
  0
LINE
  5
323
  8
0
 62
1
 10
-116.704
 20
-23.963
 30
0.0
 11
-116.608
 21
-23.7741
 31
0.0
  0
LINE
  5
324
  8
0
 62
1
 10
-116.608
 20
-23.7741
 30
0.0
 11
-116.5
 21
-23.5916
 31
0.0
  0
LINE
  5
325
  8
0
 62
1
 10
-116.5
 20
-23.5916
 30
0.0
 11
-116.38
 21
-23.4162
 31
0.0
  0
LINE
  5
326
  8
0
 62
1
 10
-116.38
 20
-23.4162
 30
0.0
 11
-116.25
 21
-23.2487
 31
0.0
  0
LINE
  5
327
  8
0
 62
1
 10
-116.25
 20
-23.2487
 30
0.0
 11
-116.11
 21
-23.0896
 31
0.0
  0
LINE
  5
328
  8
0
 62
1
 10
-116.11
 20
-23.0896
 30
0.0
 11
-115.96
 21
-22.9397
 31
0.0
  0
LINE
  5
329
  8
0
 62
1
 10
-115.96
 20
-22.9397
 30
0.0
 11
-115.801
 21
-22.7995
 31
0.0
  0
LINE
  5
32A
  8
0
 62
1
 10
-115.801
 20
-22.7995
 30
0.0
 11
-115.634
 21
-22.6696
 31
0.0
  0
LINE
  5
32B
  8
0
 62
1
 10
-115.634
 20
-22.6696
 30
0.0
 11
-115.458
 21
-22.5504
 31
0.0
  0
LINE
  5
32C
  8
0
 62
1
 10
-115.458
 20
-22.5504
 30
0.0
 11
-115.276
 21
-22.4425
 31
0.0
  0
LINE
  5
32D
  8
0
 62
1
 10
-115.276
 20
-22.4425
 30
0.0
 11
-115.087
 21
-22.3462
 31
0.0
  0
LINE
  5
32E
  8
0
 62
1
 10
-115.087
 20
-22.3462
 30
0.0
 11
-114.892
 21
-22.262
 31
0.0
  0
LINE
  5
32F
  8
0
 62
1
 10
-114.892
 20
-22.262
 30
0.0
 11
-114.693
 21
-22.1902
 31
0.0
  0
LINE
  5
330
  8
0
 62
1
 10
-114.693
 20
-22.1902
 30
0.0
 11
-114.489
 21
-22.131
 31
0.0
  0
LINE
  5
331
  8
0
 62
1
 10
-114.489
 20
-22.131
 30
0.0
 11
-114.282
 21
-22.0848
 31
0.0
  0
LINE
  5
332
  8
0
 62
1
 10
-114.282
 20
-22.0848
 30
0.0
 11
-114.073
 21
-22.0516
 31
0.0
  0
LINE
  5
333
  8
0
 62
1
 10
-114.073
 20
-22.0516
 30
0.0
 11
-113.862
 21
-22.0316
 31
0.0
  0
LINE
  5
334
  8
0
 62
1
 10
-113.862
 20
-22.0316
 30
0.0
 11
-113.65
 21
-22.025
 31
0.0
  0
LINE
  5
335
  8
0
 62
1
 10
-113.65
 20
-22.025
 30
0.0
 11
-113.438
 21
-22.0316
 31
0.0
  0
LINE
  5
336
  8
0
 62
1
 10
-113.438
 20
-22.0316
 30
0.0
 11
-113.227
 21
-22.0516
 31
0.0
  0
LINE
  5
337
  8
0
 62
1
 10
-113.227
 20
-22.0516
 30
0.0
 11
-113.018
 21
-22.0848
 31
0.0
  0
LINE
  5
338
  8
0
 62
1
 10
-113.018
 20
-22.0848
 30
0.0
 11
-112.811
 21
-22.131
 31
0.0
  0
LINE
  5
339
  8
0
 62
1
 10
-112.811
 20
-22.131
 30
0.0
 11
-112.607
 21
-22.1902
 31
0.0
  0
LINE
  5
33A
  8
0
 62
1
 10
-112.607
 20
-22.1902
 30
0.0
 11
-112.408
 21
-22.262
 31
0.0
  0
LINE
  5
33B
  8
0
 62
1
 10
-112.408
 20
-22.262
 30
0.0
 11
-112.213
 21
-22.3462
 31
0.0
  0
LINE
  5
33C
  8
0
 62
1
 10
-112.213
 20
-22.3462
 30
0.0
 11
-112.024
 21
-22.4425
 31
0.0
  0
LINE
  5
33D
  8
0
 62
1
 10
-112.024
 20
-22.4425
 30
0.0
 11
-111.842
 21
-22.5504
 31
0.0
  0
LINE
  5
33E
  8
0
 62
1
 10
-111.842
 20
-22.5504
 30
0.0
 11
-111.666
 21
-22.6696
 31
0.0
  0
LINE
  5
33F
  8
0
 62
1
 10
-111.666
 20
-22.6696
 30
0.0
 11
-111.499
 21
-22.7995
 31
0.0
  0
LINE
  5
340
  8
0
 62
1
 10
-111.499
 20
-22.7995
 30
0.0
 11
-111.34
 21
-22.9397
 31
0.0
  0
LINE
  5
341
  8
0
 62
1
 10
-111.34
 20
-22.9397
 30
0.0
 11
-111.19
 21
-23.0896
 31
0.0
  0
LINE
  5
342
  8
0
 62
1
 10
-111.19
 20
-23.0896
 30
0.0
 11
-111.05
 21
-23.2487
 31
0.0
  0
LINE
  5
343
  8
0
 62
1
 10
-111.05
 20
-23.2487
 30
0.0
 11
-110.92
 21
-23.4162
 31
0.0
  0
LINE
  5
344
  8
0
 62
1
 10
-110.92
 20
-23.4162
 30
0.0
 11
-110.8
 21
-23.5916
 31
0.0
  0
LINE
  5
345
  8
0
 62
1
 10
-110.8
 20
-23.5916
 30
0.0
 11
-110.692
 21
-23.7741
 31
0.0
  0
LINE
  5
346
  8
0
 62
1
 10
-110.692
 20
-23.7741
 30
0.0
 11
-110.596
 21
-23.963
 31
0.0
  0
LINE
  5
347
  8
0
 62
1
 10
-110.596
 20
-23.963
 30
0.0
 11
-110.512
 21
-24.1576
 31
0.0
  0
LINE
  5
348
  8
0
 62
1
 10
-110.512
 20
-24.1576
 30
0.0
 11
-110.44
 21
-24.3571
 31
0.0
  0
LINE
  5
349
  8
0
 62
1
 10
-110.44
 20
-24.3571
 30
0.0
 11
-110.381
 21
-24.5607
 31
0.0
  0
LINE
  5
34A
  8
0
 62
1
 10
-110.381
 20
-24.5607
 30
0.0
 11
-110.335
 21
-24.7676
 31
0.0
  0
LINE
  5
34B
  8
0
 62
1
 10
-110.335
 20
-24.7676
 30
0.0
 11
-110.302
 21
-24.977
 31
0.0
  0
LINE
  5
34C
  8
0
 62
1
 10
-110.302
 20
-24.977
 30
0.0
 11
-110.282
 21
-25.1881
 31
0.0
  0
LINE
  5
34D
  8
0
 62
1
 10
-110.282
 20
-25.1881
 30
0.0
 11
-110.275
 21
-25.4
 31
0.0
  0
LINE
  5
34E
  8
0
 62
1
 10
-110.275
 20
-25.4
 30
0.0
 11
-110.282
 21
-25.6119
 31
0.0
  0
LINE
  5
34F
  8
0
 62
1
 10
-110.282
 20
-25.6119
 30
0.0
 11
-110.302
 21
-25.823
 31
0.0
  0
LINE
  5
350
  8
0
 62
1
 10
-110.302
 20
-25.823
 30
0.0
 11
-110.335
 21
-26.0324
 31
0.0
  0
LINE
  5
351
  8
0
 62
1
 10
-110.335
 20
-26.0324
 30
0.0
 11
-110.381
 21
-26.2393
 31
0.0
  0
LINE
  5
352
  8
0
 62
1
 10
-110.381
 20
-26.2393
 30
0.0
 11
-110.44
 21
-26.4429
 31
0.0
  0
LINE
  5
353
  8
0
 62
1
 10
-110.44
 20
-26.4429
 30
0.0
 11
-110.512
 21
-26.6424
 31
0.0
  0
LINE
  5
354
  8
0
 62
1
 10
-110.512
 20
-26.6424
 30
0.0
 11
-110.596
 21
-26.837
 31
0.0
  0
LINE
  5
355
  8
0
 62
1
 10
-110.596
 20
-26.837
 30
0.0
 11
-110.692
 21
-27.0259
 31
0.0
  0
LINE
  5
356
  8
0
 62
1
 10
-110.692
 20
-27.0259
 30
0.0
 11
-110.8
 21
-27.2084
 31
0.0
  0
LINE
  5
357
  8
0
 62
1
 10
-110.8
 20
-27.2084
 30
0.0
 11
-110.92
 21
-27.3838
 31
0.0
  0
LINE
  5
358
  8
0
 62
1
 10
-110.92
 20
-27.3838
 30
0.0
 11
-111.05
 21
-27.5513
 31
0.0
  0
LINE
  5
359
  8
0
 62
1
 10
-111.05
 20
-27.5513
 30
0.0
 11
-111.19
 21
-27.7103
 31
0.0
  0
LINE
  5
35A
  8
0
 62
1
 10
-111.19
 20
-27.7103
 30
0.0
 11
-111.34
 21
-27.8603
 31
0.0
  0
LINE
  5
35B
  8
0
 62
1
 10
-111.34
 20
-27.8603
 30
0.0
 11
-111.499
 21
-28.0005
 31
0.0
  0
LINE
  5
35C
  8
0
 62
1
 10
-111.499
 20
-28.0005
 30
0.0
 11
-111.666
 21
-28.1304
 31
0.0
  0
LINE
  5
35D
  8
0
 62
1
 10
-111.666
 20
-28.1304
 30
0.0
 11
-111.842
 21
-28.2496
 31
0.0
  0
LINE
  5
35E
  8
0
 62
1
 10
-111.842
 20
-28.2496
 30
0.0
 11
-112.024
 21
-28.3575
 31
0.0
  0
LINE
  5
35F
  8
0
 62
1
 10
-112.024
 20
-28.3575
 30
0.0
 11
-112.213
 21
-28.4538
 31
0.0
  0
LINE
  5
360
  8
0
 62
1
 10
-112.213
 20
-28.4538
 30
0.0
 11
-112.408
 21
-28.538
 31
0.0
  0
LINE
  5
361
  8
0
 62
1
 10
-112.408
 20
-28.538
 30
0.0
 11
-112.607
 21
-28.6098
 31
0.0
  0
LINE
  5
362
  8
0
 62
1
 10
-112.607
 20
-28.6098
 30
0.0
 11
-112.811
 21
-28.669
 31
0.0
  0
LINE
  5
363
  8
0
 62
1
 10
-112.811
 20
-28.669
 30
0.0
 11
-113.018
 21
-28.7152
 31
0.0
  0
LINE
  5
364
  8
0
 62
1
 10
-113.018
 20
-28.7152
 30
0.0
 11
-113.227
 21
-28.7484
 31
0.0
  0
LINE
  5
365
  8
0
 62
1
 10
-113.227
 20
-28.7484
 30
0.0
 11
-113.438
 21
-28.7683
 31
0.0
  0
LINE
  5
366
  8
0
 62
1
 10
-113.438
 20
-28.7683
 30
0.0
 11
-113.65
 21
-28.775
 31
0.0
  0
LINE
  5
367
  8
0
 62
1
 10
-113.65
 20
-28.775
 30
0.0
 11
-113.862
 21
-28.7683
 31
0.0
  0
LINE
  5
368
  8
0
 62
1
 10
113.438
 20
-54.1683
 30
0.0
 11
113.227
 21
-54.1484
 31
0.0
  0
LINE
  5
369
  8
0
 62
1
 10
113.227
 20
-54.1484
 30
0.0
 11
113.018
 21
-54.1152
 31
0.0
  0
LINE
  5
36A
  8
0
 62
1
 10
113.018
 20
-54.1152
 30
0.0
 11
112.811
 21
-54.069
 31
0.0
  0
LINE
  5
36B
  8
0
 62
1
 10
112.811
 20
-54.069
 30
0.0
 11
112.607
 21
-54.0098
 31
0.0
  0
LINE
  5
36C
  8
0
 62
1
 10
112.607
 20
-54.0098
 30
0.0
 11
112.408
 21
-53.938
 31
0.0
  0
LINE
  5
36D
  8
0
 62
1
 10
112.408
 20
-53.938
 30
0.0
 11
112.213
 21
-53.8538
 31
0.0
  0
LINE
  5
36E
  8
0
 62
1
 10
112.213
 20
-53.8538
 30
0.0
 11
112.024
 21
-53.7575
 31
0.0
  0
LINE
  5
36F
  8
0
 62
1
 10
112.024
 20
-53.7575
 30
0.0
 11
111.842
 21
-53.6496
 31
0.0
  0
LINE
  5
370
  8
0
 62
1
 10
111.842
 20
-53.6496
 30
0.0
 11
111.666
 21
-53.5304
 31
0.0
  0
LINE
  5
371
  8
0
 62
1
 10
111.666
 20
-53.5304
 30
0.0
 11
111.499
 21
-53.4005
 31
0.0
  0
LINE
  5
372
  8
0
 62
1
 10
111.499
 20
-53.4005
 30
0.0
 11
111.34
 21
-53.2603
 31
0.0
  0
LINE
  5
373
  8
0
 62
1
 10
111.34
 20
-53.2603
 30
0.0
 11
111.19
 21
-53.1103
 31
0.0
  0
LINE
  5
374
  8
0
 62
1
 10
111.19
 20
-53.1103
 30
0.0
 11
111.05
 21
-52.9513
 31
0.0
  0
LINE
  5
375
  8
0
 62
1
 10
111.05
 20
-52.9513
 30
0.0
 11
110.92
 21
-52.7838
 31
0.0
  0
LINE
  5
376
  8
0
 62
1
 10
110.92
 20
-52.7838
 30
0.0
 11
110.8
 21
-52.6084
 31
0.0
  0
LINE
  5
377
  8
0
 62
1
 10
110.8
 20
-52.6084
 30
0.0
 11
110.692
 21
-52.4259
 31
0.0
  0
LINE
  5
378
  8
0
 62
1
 10
110.692
 20
-52.4259
 30
0.0
 11
110.596
 21
-52.237
 31
0.0
  0
LINE
  5
379
  8
0
 62
1
 10
110.596
 20
-52.237
 30
0.0
 11
110.512
 21
-52.0424
 31
0.0
  0
LINE
  5
37A
  8
0
 62
1
 10
110.512
 20
-52.0424
 30
0.0
 11
110.44
 21
-51.8429
 31
0.0
  0
LINE
  5
37B
  8
0
 62
1
 10
110.44
 20
-51.8429
 30
0.0
 11
110.381
 21
-51.6393
 31
0.0
  0
LINE
  5
37C
  8
0
 62
1
 10
110.381
 20
-51.6393
 30
0.0
 11
110.335
 21
-51.4324
 31
0.0
  0
LINE
  5
37D
  8
0
 62
1
 10
110.335
 20
-51.4324
 30
0.0
 11
110.302
 21
-51.223
 31
0.0
  0
LINE
  5
37E
  8
0
 62
1
 10
110.302
 20
-51.223
 30
0.0
 11
110.282
 21
-51.0119
 31
0.0
  0
LINE
  5
37F
  8
0
 62
1
 10
110.282
 20
-51.0119
 30
0.0
 11
110.275
 21
-50.8
 31
0.0
  0
LINE
  5
380
  8
0
 62
1
 10
110.275
 20
-50.8
 30
0.0
 11
110.282
 21
-50.5881
 31
0.0
  0
LINE
  5
381
  8
0
 62
1
 10
110.282
 20
-50.5881
 30
0.0
 11
110.302
 21
-50.377
 31
0.0
  0
LINE
  5
382
  8
0
 62
1
 10
110.302
 20
-50.377
 30
0.0
 11
110.335
 21
-50.1676
 31
0.0
  0
LINE
  5
383
  8
0
 62
1
 10
110.335
 20
-50.1676
 30
0.0
 11
110.381
 21
-49.9607
 31
0.0
  0
LINE
  5
384
  8
0
 62
1
 10
110.381
 20
-49.9607
 30
0.0
 11
110.44
 21
-49.7571
 31
0.0
  0
LINE
  5
385
  8
0
 62
1
 10
110.44
 20
-49.7571
 30
0.0
 11
110.512
 21
-49.5576
 31
0.0
  0
LINE
  5
386
  8
0
 62
1
 10
110.512
 20
-49.5576
 30
0.0
 11
110.596
 21
-49.363
 31
0.0
  0
LINE
  5
387
  8
0
 62
1
 10
110.596
 20
-49.363
 30
0.0
 11
110.692
 21
-49.1741
 31
0.0
  0
LINE
  5
388
  8
0
 62
1
 10
110.692
 20
-49.1741
 30
0.0
 11
110.8
 21
-48.9916
 31
0.0
  0
LINE
  5
389
  8
0
 62
1
 10
110.8
 20
-48.9916
 30
0.0
 11
110.92
 21
-48.8162
 31
0.0
  0
LINE
  5
38A
  8
0
 62
1
 10
110.92
 20
-48.8162
 30
0.0
 11
111.05
 21
-48.6487
 31
0.0
  0
LINE
  5
38B
  8
0
 62
1
 10
111.05
 20
-48.6487
 30
0.0
 11
111.19
 21
-48.4896
 31
0.0
  0
LINE
  5
38C
  8
0
 62
1
 10
111.19
 20
-48.4896
 30
0.0
 11
111.34
 21
-48.3397
 31
0.0
  0
LINE
  5
38D
  8
0
 62
1
 10
111.34
 20
-48.3397
 30
0.0
 11
111.499
 21
-48.1995
 31
0.0
  0
LINE
  5
38E
  8
0
 62
1
 10
111.499
 20
-48.1995
 30
0.0
 11
111.666
 21
-48.0696
 31
0.0
  0
LINE
  5
38F
  8
0
 62
1
 10
111.666
 20
-48.0696
 30
0.0
 11
111.842
 21
-47.9504
 31
0.0
  0
LINE
  5
390
  8
0
 62
1
 10
111.842
 20
-47.9504
 30
0.0
 11
112.024
 21
-47.8425
 31
0.0
  0
LINE
  5
391
  8
0
 62
1
 10
112.024
 20
-47.8425
 30
0.0
 11
112.213
 21
-47.7462
 31
0.0
  0
LINE
  5
392
  8
0
 62
1
 10
112.213
 20
-47.7462
 30
0.0
 11
112.408
 21
-47.662
 31
0.0
  0
LINE
  5
393
  8
0
 62
1
 10
112.408
 20
-47.662
 30
0.0
 11
112.607
 21
-47.5902
 31
0.0
  0
LINE
  5
394
  8
0
 62
1
 10
112.607
 20
-47.5902
 30
0.0
 11
112.811
 21
-47.531
 31
0.0
  0
LINE
  5
395
  8
0
 62
1
 10
112.811
 20
-47.531
 30
0.0
 11
113.018
 21
-47.4848
 31
0.0
  0
LINE
  5
396
  8
0
 62
1
 10
113.018
 20
-47.4848
 30
0.0
 11
113.227
 21
-47.4516
 31
0.0
  0
LINE
  5
397
  8
0
 62
1
 10
113.227
 20
-47.4516
 30
0.0
 11
113.438
 21
-47.4317
 31
0.0
  0
LINE
  5
398
  8
0
 62
1
 10
113.438
 20
-47.4317
 30
0.0
 11
113.65
 21
-47.425
 31
0.0
  0
LINE
  5
399
  8
0
 62
1
 10
113.65
 20
-47.425
 30
0.0
 11
113.862
 21
-47.4317
 31
0.0
  0
LINE
  5
39A
  8
0
 62
1
 10
113.862
 20
-47.4317
 30
0.0
 11
114.073
 21
-47.4516
 31
0.0
  0
LINE
  5
39B
  8
0
 62
1
 10
114.073
 20
-47.4516
 30
0.0
 11
114.282
 21
-47.4848
 31
0.0
  0
LINE
  5
39C
  8
0
 62
1
 10
114.282
 20
-47.4848
 30
0.0
 11
114.489
 21
-47.531
 31
0.0
  0
LINE
  5
39D
  8
0
 62
1
 10
114.489
 20
-47.531
 30
0.0
 11
114.693
 21
-47.5902
 31
0.0
  0
LINE
  5
39E
  8
0
 62
1
 10
114.693
 20
-47.5902
 30
0.0
 11
114.892
 21
-47.662
 31
0.0
  0
LINE
  5
39F
  8
0
 62
1
 10
114.892
 20
-47.662
 30
0.0
 11
115.087
 21
-47.7462
 31
0.0
  0
LINE
  5
3A0
  8
0
 62
1
 10
115.087
 20
-47.7462
 30
0.0
 11
115.276
 21
-47.8425
 31
0.0
  0
LINE
  5
3A1
  8
0
 62
1
 10
115.276
 20
-47.8425
 30
0.0
 11
115.458
 21
-47.9504
 31
0.0
  0
LINE
  5
3A2
  8
0
 62
1
 10
115.458
 20
-47.9504
 30
0.0
 11
115.634
 21
-48.0696
 31
0.0
  0
LINE
  5
3A3
  8
0
 62
1
 10
115.634
 20
-48.0696
 30
0.0
 11
115.801
 21
-48.1995
 31
0.0
  0
LINE
  5
3A4
  8
0
 62
1
 10
115.801
 20
-48.1995
 30
0.0
 11
115.96
 21
-48.3397
 31
0.0
  0
LINE
  5
3A5
  8
0
 62
1
 10
115.96
 20
-48.3397
 30
0.0
 11
116.11
 21
-48.4896
 31
0.0
  0
LINE
  5
3A6
  8
0
 62
1
 10
116.11
 20
-48.4896
 30
0.0
 11
116.25
 21
-48.6487
 31
0.0
  0
LINE
  5
3A7
  8
0
 62
1
 10
116.25
 20
-48.6487
 30
0.0
 11
116.38
 21
-48.8162
 31
0.0
  0
LINE
  5
3A8
  8
0
 62
1
 10
116.38
 20
-48.8162
 30
0.0
 11
116.5
 21
-48.9916
 31
0.0
  0
LINE
  5
3A9
  8
0
 62
1
 10
116.5
 20
-48.9916
 30
0.0
 11
116.608
 21
-49.1741
 31
0.0
  0
LINE
  5
3AA
  8
0
 62
1
 10
116.608
 20
-49.1741
 30
0.0
 11
116.704
 21
-49.363
 31
0.0
  0
LINE
  5
3AB
  8
0
 62
1
 10
116.704
 20
-49.363
 30
0.0
 11
116.788
 21
-49.5576
 31
0.0
  0
LINE
  5
3AC
  8
0
 62
1
 10
116.788
 20
-49.5576
 30
0.0
 11
116.86
 21
-49.7571
 31
0.0
  0
LINE
  5
3AD
  8
0
 62
1
 10
116.86
 20
-49.7571
 30
0.0
 11
116.919
 21
-49.9607
 31
0.0
  0
LINE
  5
3AE
  8
0
 62
1
 10
116.919
 20
-49.9607
 30
0.0
 11
116.965
 21
-50.1676
 31
0.0
  0
LINE
  5
3AF
  8
0
 62
1
 10
116.965
 20
-50.1676
 30
0.0
 11
116.998
 21
-50.377
 31
0.0
  0
LINE
  5
3B0
  8
0
 62
1
 10
116.998
 20
-50.377
 30
0.0
 11
117.018
 21
-50.5881
 31
0.0
  0
LINE
  5
3B1
  8
0
 62
1
 10
117.018
 20
-50.5881
 30
0.0
 11
117.025
 21
-50.8
 31
0.0
  0
LINE
  5
3B2
  8
0
 62
1
 10
117.025
 20
-50.8
 30
0.0
 11
117.018
 21
-51.0119
 31
0.0
  0
LINE
  5
3B3
  8
0
 62
1
 10
117.018
 20
-51.0119
 30
0.0
 11
116.998
 21
-51.223
 31
0.0
  0
LINE
  5
3B4
  8
0
 62
1
 10
116.998
 20
-51.223
 30
0.0
 11
116.965
 21
-51.4324
 31
0.0
  0
LINE
  5
3B5
  8
0
 62
1
 10
116.965
 20
-51.4324
 30
0.0
 11
116.919
 21
-51.6393
 31
0.0
  0
LINE
  5
3B6
  8
0
 62
1
 10
116.919
 20
-51.6393
 30
0.0
 11
116.86
 21
-51.8429
 31
0.0
  0
LINE
  5
3B7
  8
0
 62
1
 10
116.86
 20
-51.8429
 30
0.0
 11
116.788
 21
-52.0424
 31
0.0
  0
LINE
  5
3B8
  8
0
 62
1
 10
116.788
 20
-52.0424
 30
0.0
 11
116.704
 21
-52.237
 31
0.0
  0
LINE
  5
3B9
  8
0
 62
1
 10
116.704
 20
-52.237
 30
0.0
 11
116.608
 21
-52.4259
 31
0.0
  0
LINE
  5
3BA
  8
0
 62
1
 10
116.608
 20
-52.4259
 30
0.0
 11
116.5
 21
-52.6084
 31
0.0
  0
LINE
  5
3BB
  8
0
 62
1
 10
116.5
 20
-52.6084
 30
0.0
 11
116.38
 21
-52.7838
 31
0.0
  0
LINE
  5
3BC
  8
0
 62
1
 10
116.38
 20
-52.7838
 30
0.0
 11
116.25
 21
-52.9513
 31
0.0
  0
LINE
  5
3BD
  8
0
 62
1
 10
116.25
 20
-52.9513
 30
0.0
 11
116.11
 21
-53.1103
 31
0.0
  0
LINE
  5
3BE
  8
0
 62
1
 10
116.11
 20
-53.1103
 30
0.0
 11
115.96
 21
-53.2603
 31
0.0
  0
LINE
  5
3BF
  8
0
 62
1
 10
115.96
 20
-53.2603
 30
0.0
 11
115.801
 21
-53.4005
 31
0.0
  0
LINE
  5
3C0
  8
0
 62
1
 10
115.801
 20
-53.4005
 30
0.0
 11
115.634
 21
-53.5304
 31
0.0
  0
LINE
  5
3C1
  8
0
 62
1
 10
115.634
 20
-53.5304
 30
0.0
 11
115.458
 21
-53.6496
 31
0.0
  0
LINE
  5
3C2
  8
0
 62
1
 10
115.458
 20
-53.6496
 30
0.0
 11
115.276
 21
-53.7575
 31
0.0
  0
LINE
  5
3C3
  8
0
 62
1
 10
115.276
 20
-53.7575
 30
0.0
 11
115.087
 21
-53.8538
 31
0.0
  0
LINE
  5
3C4
  8
0
 62
1
 10
115.087
 20
-53.8538
 30
0.0
 11
114.892
 21
-53.938
 31
0.0
  0
LINE
  5
3C5
  8
0
 62
1
 10
114.892
 20
-53.938
 30
0.0
 11
114.693
 21
-54.0098
 31
0.0
  0
LINE
  5
3C6
  8
0
 62
1
 10
114.693
 20
-54.0098
 30
0.0
 11
114.489
 21
-54.069
 31
0.0
  0
LINE
  5
3C7
  8
0
 62
1
 10
114.489
 20
-54.069
 30
0.0
 11
114.282
 21
-54.1152
 31
0.0
  0
LINE
  5
3C8
  8
0
 62
1
 10
114.282
 20
-54.1152
 30
0.0
 11
114.073
 21
-54.1484
 31
0.0
  0
LINE
  5
3C9
  8
0
 62
1
 10
114.073
 20
-54.1484
 30
0.0
 11
113.862
 21
-54.1683
 31
0.0
  0
LINE
  5
3CA
  8
0
 62
1
 10
113.862
 20
-54.1683
 30
0.0
 11
113.65
 21
-54.175
 31
0.0
  0
LINE
  5
3CB
  8
0
 62
1
 10
113.65
 20
-54.175
 30
0.0
 11
113.438
 21
-54.1683
 31
0.0
  0
LINE
  5
3CC
  8
0
 62
1
 10
-113.862
 20
-54.1683
 30
0.0
 11
-114.073
 21
-54.1484
 31
0.0
  0
LINE
  5
3CD
  8
0
 62
1
 10
-114.073
 20
-54.1484
 30
0.0
 11
-114.282
 21
-54.1152
 31
0.0
  0
LINE
  5
3CE
  8
0
 62
1
 10
-114.282
 20
-54.1152
 30
0.0
 11
-114.489
 21
-54.069
 31
0.0
  0
LINE
  5
3CF
  8
0
 62
1
 10
-114.489
 20
-54.069
 30
0.0
 11
-114.693
 21
-54.0098
 31
0.0
  0
LINE
  5
3D0
  8
0
 62
1
 10
-114.693
 20
-54.0098
 30
0.0
 11
-114.892
 21
-53.938
 31
0.0
  0
LINE
  5
3D1
  8
0
 62
1
 10
-114.892
 20
-53.938
 30
0.0
 11
-115.087
 21
-53.8538
 31
0.0
  0
LINE
  5
3D2
  8
0
 62
1
 10
-115.087
 20
-53.8538
 30
0.0
 11
-115.276
 21
-53.7575
 31
0.0
  0
LINE
  5
3D3
  8
0
 62
1
 10
-115.276
 20
-53.7575
 30
0.0
 11
-115.458
 21
-53.6496
 31
0.0
  0
LINE
  5
3D4
  8
0
 62
1
 10
-115.458
 20
-53.6496
 30
0.0
 11
-115.634
 21
-53.5304
 31
0.0
  0
LINE
  5
3D5
  8
0
 62
1
 10
-115.634
 20
-53.5304
 30
0.0
 11
-115.801
 21
-53.4005
 31
0.0
  0
LINE
  5
3D6
  8
0
 62
1
 10
-115.801
 20
-53.4005
 30
0.0
 11
-115.96
 21
-53.2603
 31
0.0
  0
LINE
  5
3D7
  8
0
 62
1
 10
-115.96
 20
-53.2603
 30
0.0
 11
-116.11
 21
-53.1103
 31
0.0
  0
LINE
  5
3D8
  8
0
 62
1
 10
-116.11
 20
-53.1103
 30
0.0
 11
-116.25
 21
-52.9513
 31
0.0
  0
LINE
  5
3D9
  8
0
 62
1
 10
-116.25
 20
-52.9513
 30
0.0
 11
-116.38
 21
-52.7838
 31
0.0
  0
LINE
  5
3DA
  8
0
 62
1
 10
-116.38
 20
-52.7838
 30
0.0
 11
-116.5
 21
-52.6084
 31
0.0
  0
LINE
  5
3DB
  8
0
 62
1
 10
-116.5
 20
-52.6084
 30
0.0
 11
-116.608
 21
-52.4259
 31
0.0
  0
LINE
  5
3DC
  8
0
 62
1
 10
-116.608
 20
-52.4259
 30
0.0
 11
-116.704
 21
-52.237
 31
0.0
  0
LINE
  5
3DD
  8
0
 62
1
 10
-116.704
 20
-52.237
 30
0.0
 11
-116.788
 21
-52.0424
 31
0.0
  0
LINE
  5
3DE
  8
0
 62
1
 10
-116.788
 20
-52.0424
 30
0.0
 11
-116.86
 21
-51.8429
 31
0.0
  0
LINE
  5
3DF
  8
0
 62
1
 10
-116.86
 20
-51.8429
 30
0.0
 11
-116.919
 21
-51.6393
 31
0.0
  0
LINE
  5
3E0
  8
0
 62
1
 10
-116.919
 20
-51.6393
 30
0.0
 11
-116.965
 21
-51.4324
 31
0.0
  0
LINE
  5
3E1
  8
0
 62
1
 10
-116.965
 20
-51.4324
 30
0.0
 11
-116.998
 21
-51.223
 31
0.0
  0
LINE
  5
3E2
  8
0
 62
1
 10
-116.998
 20
-51.223
 30
0.0
 11
-117.018
 21
-51.0119
 31
0.0
  0
LINE
  5
3E3
  8
0
 62
1
 10
-117.018
 20
-51.0119
 30
0.0
 11
-117.025
 21
-50.8
 31
0.0
  0
LINE
  5
3E4
  8
0
 62
1
 10
-117.025
 20
-50.8
 30
0.0
 11
-117.018
 21
-50.5881
 31
0.0
  0
LINE
  5
3E5
  8
0
 62
1
 10
-117.018
 20
-50.5881
 30
0.0
 11
-116.998
 21
-50.377
 31
0.0
  0
LINE
  5
3E6
  8
0
 62
1
 10
-116.998
 20
-50.377
 30
0.0
 11
-116.965
 21
-50.1676
 31
0.0
  0
LINE
  5
3E7
  8
0
 62
1
 10
-116.965
 20
-50.1676
 30
0.0
 11
-116.919
 21
-49.9607
 31
0.0
  0
LINE
  5
3E8
  8
0
 62
1
 10
-116.919
 20
-49.9607
 30
0.0
 11
-116.86
 21
-49.7571
 31
0.0
  0
LINE
  5
3E9
  8
0
 62
1
 10
-116.86
 20
-49.7571
 30
0.0
 11
-116.788
 21
-49.5576
 31
0.0
  0
LINE
  5
3EA
  8
0
 62
1
 10
-116.788
 20
-49.5576
 30
0.0
 11
-116.704
 21
-49.363
 31
0.0
  0
LINE
  5
3EB
  8
0
 62
1
 10
-116.704
 20
-49.363
 30
0.0
 11
-116.608
 21
-49.1741
 31
0.0
  0
LINE
  5
3EC
  8
0
 62
1
 10
-116.608
 20
-49.1741
 30
0.0
 11
-116.5
 21
-48.9916
 31
0.0
  0
LINE
  5
3ED
  8
0
 62
1
 10
-116.5
 20
-48.9916
 30
0.0
 11
-116.38
 21
-48.8162
 31
0.0
  0
LINE
  5
3EE
  8
0
 62
1
 10
-116.38
 20
-48.8162
 30
0.0
 11
-116.25
 21
-48.6487
 31
0.0
  0
LINE
  5
3EF
  8
0
 62
1
 10
-116.25
 20
-48.6487
 30
0.0
 11
-116.11
 21
-48.4896
 31
0.0
  0
LINE
  5
3F0
  8
0
 62
1
 10
-116.11
 20
-48.4896
 30
0.0
 11
-115.96
 21
-48.3397
 31
0.0
  0
LINE
  5
3F1
  8
0
 62
1
 10
-115.96
 20
-48.3397
 30
0.0
 11
-115.801
 21
-48.1995
 31
0.0
  0
LINE
  5
3F2
  8
0
 62
1
 10
-115.801
 20
-48.1995
 30
0.0
 11
-115.634
 21
-48.0696
 31
0.0
  0
LINE
  5
3F3
  8
0
 62
1
 10
-115.634
 20
-48.0696
 30
0.0
 11
-115.458
 21
-47.9504
 31
0.0
  0
LINE
  5
3F4
  8
0
 62
1
 10
-115.458
 20
-47.9504
 30
0.0
 11
-115.276
 21
-47.8425
 31
0.0
  0
LINE
  5
3F5
  8
0
 62
1
 10
-115.276
 20
-47.8425
 30
0.0
 11
-115.087
 21
-47.7462
 31
0.0
  0
LINE
  5
3F6
  8
0
 62
1
 10
-115.087
 20
-47.7462
 30
0.0
 11
-114.892
 21
-47.662
 31
0.0
  0
LINE
  5
3F7
  8
0
 62
1
 10
-114.892
 20
-47.662
 30
0.0
 11
-114.693
 21
-47.5902
 31
0.0
  0
LINE
  5
3F8
  8
0
 62
1
 10
-114.693
 20
-47.5902
 30
0.0
 11
-114.489
 21
-47.531
 31
0.0
  0
LINE
  5
3F9
  8
0
 62
1
 10
-114.489
 20
-47.531
 30
0.0
 11
-114.282
 21
-47.4848
 31
0.0
  0
LINE
  5
3FA
  8
0
 62
1
 10
-114.282
 20
-47.4848
 30
0.0
 11
-114.073
 21
-47.4516
 31
0.0
  0
LINE
  5
3FB
  8
0
 62
1
 10
-114.073
 20
-47.4516
 30
0.0
 11
-113.862
 21
-47.4317
 31
0.0
  0
LINE
  5
3FC
  8
0
 62
1
 10
-113.862
 20
-47.4317
 30
0.0
 11
-113.65
 21
-47.425
 31
0.0
  0
LINE
  5
3FD
  8
0
 62
1
 10
-113.65
 20
-47.425
 30
0.0
 11
-113.438
 21
-47.4317
 31
0.0
  0
LINE
  5
3FE
  8
0
 62
1
 10
-113.438
 20
-47.4317
 30
0.0
 11
-113.227
 21
-47.4516
 31
0.0
  0
LINE
  5
3FF
  8
0
 62
1
 10
-113.227
 20
-47.4516
 30
0.0
 11
-113.018
 21
-47.4848
 31
0.0
  0
LINE
  5
400
  8
0
 62
1
 10
-113.018
 20
-47.4848
 30
0.0
 11
-112.811
 21
-47.531
 31
0.0
  0
LINE
  5
401
  8
0
 62
1
 10
-112.811
 20
-47.531
 30
0.0
 11
-112.607
 21
-47.5902
 31
0.0
  0
LINE
  5
402
  8
0
 62
1
 10
-112.607
 20
-47.5902
 30
0.0
 11
-112.408
 21
-47.662
 31
0.0
  0
LINE
  5
403
  8
0
 62
1
 10
-112.408
 20
-47.662
 30
0.0
 11
-112.213
 21
-47.7462
 31
0.0
  0
LINE
  5
404
  8
0
 62
1
 10
-112.213
 20
-47.7462
 30
0.0
 11
-112.024
 21
-47.8425
 31
0.0
  0
LINE
  5
405
  8
0
 62
1
 10
-112.024
 20
-47.8425
 30
0.0
 11
-111.842
 21
-47.9504
 31
0.0
  0
LINE
  5
406
  8
0
 62
1
 10
-111.842
 20
-47.9504
 30
0.0
 11
-111.666
 21
-48.0696
 31
0.0
  0
LINE
  5
407
  8
0
 62
1
 10
-111.666
 20
-48.0696
 30
0.0
 11
-111.499
 21
-48.1995
 31
0.0
  0
LINE
  5
408
  8
0
 62
1
 10
-111.499
 20
-48.1995
 30
0.0
 11
-111.34
 21
-48.3397
 31
0.0
  0
LINE
  5
409
  8
0
 62
1
 10
-111.34
 20
-48.3397
 30
0.0
 11
-111.19
 21
-48.4896
 31
0.0
  0
LINE
  5
40A
  8
0
 62
1
 10
-111.19
 20
-48.4896
 30
0.0
 11
-111.05
 21
-48.6487
 31
0.0
  0
LINE
  5
40B
  8
0
 62
1
 10
-111.05
 20
-48.6487
 30
0.0
 11
-110.92
 21
-48.8162
 31
0.0
  0
LINE
  5
40C
  8
0
 62
1
 10
-110.92
 20
-48.8162
 30
0.0
 11
-110.8
 21
-48.9916
 31
0.0
  0
LINE
  5
40D
  8
0
 62
1
 10
-110.8
 20
-48.9916
 30
0.0
 11
-110.692
 21
-49.1741
 31
0.0
  0
LINE
  5
40E
  8
0
 62
1
 10
-110.692
 20
-49.1741
 30
0.0
 11
-110.596
 21
-49.363
 31
0.0
  0
LINE
  5
40F
  8
0
 62
1
 10
-110.596
 20
-49.363
 30
0.0
 11
-110.512
 21
-49.5576
 31
0.0
  0
LINE
  5
410
  8
0
 62
1
 10
-110.512
 20
-49.5576
 30
0.0
 11
-110.44
 21
-49.7571
 31
0.0
  0
LINE
  5
411
  8
0
 62
1
 10
-110.44
 20
-49.7571
 30
0.0
 11
-110.381
 21
-49.9607
 31
0.0
  0
LINE
  5
412
  8
0
 62
1
 10
-110.381
 20
-49.9607
 30
0.0
 11
-110.335
 21
-50.1676
 31
0.0
  0
LINE
  5
413
  8
0
 62
1
 10
-110.335
 20
-50.1676
 30
0.0
 11
-110.302
 21
-50.377
 31
0.0
  0
LINE
  5
414
  8
0
 62
1
 10
-110.302
 20
-50.377
 30
0.0
 11
-110.282
 21
-50.5881
 31
0.0
  0
LINE
  5
415
  8
0
 62
1
 10
-110.282
 20
-50.5881
 30
0.0
 11
-110.275
 21
-50.8
 31
0.0
  0
LINE
  5
416
  8
0
 62
1
 10
-110.275
 20
-50.8
 30
0.0
 11
-110.282
 21
-51.0119
 31
0.0
  0
LINE
  5
417
  8
0
 62
1
 10
-110.282
 20
-51.0119
 30
0.0
 11
-110.302
 21
-51.223
 31
0.0
  0
LINE
  5
418
  8
0
 62
1
 10
-110.302
 20
-51.223
 30
0.0
 11
-110.335
 21
-51.4324
 31
0.0
  0
LINE
  5
419
  8
0
 62
1
 10
-110.335
 20
-51.4324
 30
0.0
 11
-110.381
 21
-51.6393
 31
0.0
  0
LINE
  5
41A
  8
0
 62
1
 10
-110.381
 20
-51.6393
 30
0.0
 11
-110.44
 21
-51.8429
 31
0.0
  0
LINE
  5
41B
  8
0
 62
1
 10
-110.44
 20
-51.8429
 30
0.0
 11
-110.512
 21
-52.0424
 31
0.0
  0
LINE
  5
41C
  8
0
 62
1
 10
-110.512
 20
-52.0424
 30
0.0
 11
-110.596
 21
-52.237
 31
0.0
  0
LINE
  5
41D
  8
0
 62
1
 10
-110.596
 20
-52.237
 30
0.0
 11
-110.692
 21
-52.4259
 31
0.0
  0
LINE
  5
41E
  8
0
 62
1
 10
-110.692
 20
-52.4259
 30
0.0
 11
-110.8
 21
-52.6084
 31
0.0
  0
LINE
  5
41F
  8
0
 62
1
 10
-110.8
 20
-52.6084
 30
0.0
 11
-110.92
 21
-52.7838
 31
0.0
  0
LINE
  5
420
  8
0
 62
1
 10
-110.92
 20
-52.7838
 30
0.0
 11
-111.05
 21
-52.9513
 31
0.0
  0
LINE
  5
421
  8
0
 62
1
 10
-111.05
 20
-52.9513
 30
0.0
 11
-111.19
 21
-53.1103
 31
0.0
  0
LINE
  5
422
  8
0
 62
1
 10
-111.19
 20
-53.1103
 30
0.0
 11
-111.34
 21
-53.2603
 31
0.0
  0
LINE
  5
423
  8
0
 62
1
 10
-111.34
 20
-53.2603
 30
0.0
 11
-111.499
 21
-53.4005
 31
0.0
  0
LINE
  5
424
  8
0
 62
1
 10
-111.499
 20
-53.4005
 30
0.0
 11
-111.666
 21
-53.5304
 31
0.0
  0
LINE
  5
425
  8
0
 62
1
 10
-111.666
 20
-53.5304
 30
0.0
 11
-111.842
 21
-53.6496
 31
0.0
  0
LINE
  5
426
  8
0
 62
1
 10
-111.842
 20
-53.6496
 30
0.0
 11
-112.024
 21
-53.7575
 31
0.0
  0
LINE
  5
427
  8
0
 62
1
 10
-112.024
 20
-53.7575
 30
0.0
 11
-112.213
 21
-53.8538
 31
0.0
  0
LINE
  5
428
  8
0
 62
1
 10
-112.213
 20
-53.8538
 30
0.0
 11
-112.408
 21
-53.938
 31
0.0
  0
LINE
  5
429
  8
0
 62
1
 10
-112.408
 20
-53.938
 30
0.0
 11
-112.607
 21
-54.0098
 31
0.0
  0
LINE
  5
42A
  8
0
 62
1
 10
-112.607
 20
-54.0098
 30
0.0
 11
-112.811
 21
-54.069
 31
0.0
  0
LINE
  5
42B
  8
0
 62
1
 10
-112.811
 20
-54.069
 30
0.0
 11
-113.018
 21
-54.1152
 31
0.0
  0
LINE
  5
42C
  8
0
 62
1
 10
-113.018
 20
-54.1152
 30
0.0
 11
-113.227
 21
-54.1484
 31
0.0
  0
LINE
  5
42D
  8
0
 62
1
 10
-113.227
 20
-54.1484
 30
0.0
 11
-113.438
 21
-54.1683
 31
0.0
  0
LINE
  5
42E
  8
0
 62
1
 10
-113.438
 20
-54.1683
 30
0.0
 11
-113.65
 21
-54.175
 31
0.0
  0
LINE
  5
42F
  8
0
 62
1
 10
-113.65
 20
-54.175
 30
0.0
 11
-113.862
 21
-54.1683
 31
0.0
  0
ENDSEC
  0
EOF
