  0
SECTION
  2
BLOCKS
  0
ENDSEC
  0
SECTION
  2
ENTITIES
  0
LINE
  8
0
 10
127
 20
-13.45
 11
100.2
 21
-13.45
  0
LINE
  8
0
 10
100.2
 20
-13.45
 11
100.2
 21
13.45
  0
LINE
  8
0
 10
100.2
 20
13.45
 11
127
 21
13.45
  0
LINE
  8
0
 10
127
 20
13.45
 11
127
 21
64.45
  0
LINE
  8
0
 10
127
 20
64.45
 11
-127
 21
64.45
  0
LINE
  8
0
 10
-127
 20
64.45
 11
-127
 21
13.45
  0
LINE
  8
0
 10
-127
 20
13.45
 11
-100.2
 21
13.45
  0
LINE
  8
0
 10
-100.2
 20
13.45
 11
-100.2
 21
-13.45
  0
LINE
  8
0
 10
-100.2
 20
-13.45
 11
-127
 21
-13.45
  0
LINE
  8
0
 10
-127
 20
-13.45
 11
-127
 21
-64.45
  0
LINE
  8
0
 10
-127
 20
-64.45
 11
127
 21
-64.45
  0
LINE
  8
0
 10
127
 20
-64.45
 11
127
 21
-13.45
  0
LINE
  8
0
 10
113.438
 20
47.4317
 11
113.227
 21
47.4516
  0
LINE
  8
0
 10
113.227
 20
47.4516
 11
113.018
 21
47.4848
  0
LINE
  8
0
 10
113.018
 20
47.4848
 11
112.811
 21
47.531
  0
LINE
  8
0
 10
112.811
 20
47.531
 11
112.607
 21
47.5902
  0
LINE
  8
0
 10
112.607
 20
47.5902
 11
112.408
 21
47.662
  0
LINE
  8
0
 10
112.408
 20
47.662
 11
112.213
 21
47.7462
  0
LINE
  8
0
 10
112.213
 20
47.7462
 11
112.024
 21
47.8425
  0
LINE
  8
0
 10
112.024
 20
47.8425
 11
111.842
 21
47.9504
  0
LINE
  8
0
 10
111.842
 20
47.9504
 11
111.666
 21
48.0696
  0
LINE
  8
0
 10
111.666
 20
48.0696
 11
111.499
 21
48.1995
  0
LINE
  8
0
 10
111.499
 20
48.1995
 11
111.34
 21
48.3397
  0
LINE
  8
0
 10
111.34
 20
48.3397
 11
111.19
 21
48.4896
  0
LINE
  8
0
 10
111.19
 20
48.4896
 11
111.05
 21
48.6487
  0
LINE
  8
0
 10
111.05
 20
48.6487
 11
110.92
 21
48.8162
  0
LINE
  8
0
 10
110.92
 20
48.8162
 11
110.8
 21
48.9916
  0
LINE
  8
0
 10
110.8
 20
48.9916
 11
110.692
 21
49.1741
  0
LINE
  8
0
 10
110.692
 20
49.1741
 11
110.596
 21
49.363
  0
LINE
  8
0
 10
110.596
 20
49.363
 11
110.512
 21
49.5576
  0
LINE
  8
0
 10
110.512
 20
49.5576
 11
110.44
 21
49.7571
  0
LINE
  8
0
 10
110.44
 20
49.7571
 11
110.381
 21
49.9607
  0
LINE
  8
0
 10
110.381
 20
49.9607
 11
110.335
 21
50.1676
  0
LINE
  8
0
 10
110.335
 20
50.1676
 11
110.302
 21
50.377
  0
LINE
  8
0
 10
110.302
 20
50.377
 11
110.282
 21
50.5881
  0
LINE
  8
0
 10
110.282
 20
50.5881
 11
110.275
 21
50.8
  0
LINE
  8
0
 10
110.275
 20
50.8
 11
110.282
 21
51.0119
  0
LINE
  8
0
 10
110.282
 20
51.0119
 11
110.302
 21
51.223
  0
LINE
  8
0
 10
110.302
 20
51.223
 11
110.335
 21
51.4324
  0
LINE
  8
0
 10
110.335
 20
51.4324
 11
110.381
 21
51.6393
  0
LINE
  8
0
 10
110.381
 20
51.6393
 11
110.44
 21
51.8429
  0
LINE
  8
0
 10
110.44
 20
51.8429
 11
110.512
 21
52.0424
  0
LINE
  8
0
 10
110.512
 20
52.0424
 11
110.596
 21
52.237
  0
LINE
  8
0
 10
110.596
 20
52.237
 11
110.692
 21
52.4259
  0
LINE
  8
0
 10
110.692
 20
52.4259
 11
110.8
 21
52.6084
  0
LINE
  8
0
 10
110.8
 20
52.6084
 11
110.92
 21
52.7838
  0
LINE
  8
0
 10
110.92
 20
52.7838
 11
111.05
 21
52.9513
  0
LINE
  8
0
 10
111.05
 20
52.9513
 11
111.19
 21
53.1103
  0
LINE
  8
0
 10
111.19
 20
53.1103
 11
111.34
 21
53.2603
  0
LINE
  8
0
 10
111.34
 20
53.2603
 11
111.499
 21
53.4005
  0
LINE
  8
0
 10
111.499
 20
53.4005
 11
111.666
 21
53.5304
  0
LINE
  8
0
 10
111.666
 20
53.5304
 11
111.842
 21
53.6496
  0
LINE
  8
0
 10
111.842
 20
53.6496
 11
112.024
 21
53.7575
  0
LINE
  8
0
 10
112.024
 20
53.7575
 11
112.213
 21
53.8538
  0
LINE
  8
0
 10
112.213
 20
53.8538
 11
112.408
 21
53.938
  0
LINE
  8
0
 10
112.408
 20
53.938
 11
112.607
 21
54.0098
  0
LINE
  8
0
 10
112.607
 20
54.0098
 11
112.811
 21
54.069
  0
LINE
  8
0
 10
112.811
 20
54.069
 11
113.018
 21
54.1152
  0
LINE
  8
0
 10
113.018
 20
54.1152
 11
113.227
 21
54.1484
  0
LINE
  8
0
 10
113.227
 20
54.1484
 11
113.438
 21
54.1683
  0
LINE
  8
0
 10
113.438
 20
54.1683
 11
113.65
 21
54.175
  0
LINE
  8
0
 10
113.65
 20
54.175
 11
113.862
 21
54.1683
  0
LINE
  8
0
 10
113.862
 20
54.1683
 11
114.073
 21
54.1484
  0
LINE
  8
0
 10
114.073
 20
54.1484
 11
114.282
 21
54.1152
  0
LINE
  8
0
 10
114.282
 20
54.1152
 11
114.489
 21
54.069
  0
LINE
  8
0
 10
114.489
 20
54.069
 11
114.693
 21
54.0098
  0
LINE
  8
0
 10
114.693
 20
54.0098
 11
114.892
 21
53.938
  0
LINE
  8
0
 10
114.892
 20
53.938
 11
115.087
 21
53.8538
  0
LINE
  8
0
 10
115.087
 20
53.8538
 11
115.276
 21
53.7575
  0
LINE
  8
0
 10
115.276
 20
53.7575
 11
115.458
 21
53.6496
  0
LINE
  8
0
 10
115.458
 20
53.6496
 11
115.634
 21
53.5304
  0
LINE
  8
0
 10
115.634
 20
53.5304
 11
115.801
 21
53.4005
  0
LINE
  8
0
 10
115.801
 20
53.4005
 11
115.96
 21
53.2603
  0
LINE
  8
0
 10
115.96
 20
53.2603
 11
116.11
 21
53.1103
  0
LINE
  8
0
 10
116.11
 20
53.1103
 11
116.25
 21
52.9513
  0
LINE
  8
0
 10
116.25
 20
52.9513
 11
116.38
 21
52.7838
  0
LINE
  8
0
 10
116.38
 20
52.7838
 11
116.5
 21
52.6084
  0
LINE
  8
0
 10
116.5
 20
52.6084
 11
116.608
 21
52.4259
  0
LINE
  8
0
 10
116.608
 20
52.4259
 11
116.704
 21
52.237
  0
LINE
  8
0
 10
116.704
 20
52.237
 11
116.788
 21
52.0424
  0
LINE
  8
0
 10
116.788
 20
52.0424
 11
116.86
 21
51.8429
  0
LINE
  8
0
 10
116.86
 20
51.8429
 11
116.919
 21
51.6393
  0
LINE
  8
0
 10
116.919
 20
51.6393
 11
116.965
 21
51.4324
  0
LINE
  8
0
 10
116.965
 20
51.4324
 11
116.998
 21
51.223
  0
LINE
  8
0
 10
116.998
 20
51.223
 11
117.018
 21
51.0119
  0
LINE
  8
0
 10
117.018
 20
51.0119
 11
117.025
 21
50.8
  0
LINE
  8
0
 10
117.025
 20
50.8
 11
117.018
 21
50.5881
  0
LINE
  8
0
 10
117.018
 20
50.5881
 11
116.998
 21
50.377
  0
LINE
  8
0
 10
116.998
 20
50.377
 11
116.965
 21
50.1676
  0
LINE
  8
0
 10
116.965
 20
50.1676
 11
116.919
 21
49.9607
  0
LINE
  8
0
 10
116.919
 20
49.9607
 11
116.86
 21
49.7571
  0
LINE
  8
0
 10
116.86
 20
49.7571
 11
116.788
 21
49.5576
  0
LINE
  8
0
 10
116.788
 20
49.5576
 11
116.704
 21
49.363
  0
LINE
  8
0
 10
116.704
 20
49.363
 11
116.608
 21
49.1741
  0
LINE
  8
0
 10
116.608
 20
49.1741
 11
116.5
 21
48.9916
  0
LINE
  8
0
 10
116.5
 20
48.9916
 11
116.38
 21
48.8162
  0
LINE
  8
0
 10
116.38
 20
48.8162
 11
116.25
 21
48.6487
  0
LINE
  8
0
 10
116.25
 20
48.6487
 11
116.11
 21
48.4896
  0
LINE
  8
0
 10
116.11
 20
48.4896
 11
115.96
 21
48.3397
  0
LINE
  8
0
 10
115.96
 20
48.3397
 11
115.801
 21
48.1995
  0
LINE
  8
0
 10
115.801
 20
48.1995
 11
115.634
 21
48.0696
  0
LINE
  8
0
 10
115.634
 20
48.0696
 11
115.458
 21
47.9504
  0
LINE
  8
0
 10
115.458
 20
47.9504
 11
115.276
 21
47.8425
  0
LINE
  8
0
 10
115.276
 20
47.8425
 11
115.087
 21
47.7462
  0
LINE
  8
0
 10
115.087
 20
47.7462
 11
114.892
 21
47.662
  0
LINE
  8
0
 10
114.892
 20
47.662
 11
114.693
 21
47.5902
  0
LINE
  8
0
 10
114.693
 20
47.5902
 11
114.489
 21
47.531
  0
LINE
  8
0
 10
114.489
 20
47.531
 11
114.282
 21
47.4848
  0
LINE
  8
0
 10
114.282
 20
47.4848
 11
114.073
 21
47.4516
  0
LINE
  8
0
 10
114.073
 20
47.4516
 11
113.862
 21
47.4317
  0
LINE
  8
0
 10
113.862
 20
47.4317
 11
113.65
 21
47.425
  0
LINE
  8
0
 10
113.65
 20
47.425
 11
113.438
 21
47.4317
  0
LINE
  8
0
 10
-113.862
 20
47.4317
 11
-114.073
 21
47.4516
  0
LINE
  8
0
 10
-114.073
 20
47.4516
 11
-114.282
 21
47.4848
  0
LINE
  8
0
 10
-114.282
 20
47.4848
 11
-114.489
 21
47.531
  0
LINE
  8
0
 10
-114.489
 20
47.531
 11
-114.693
 21
47.5902
  0
LINE
  8
0
 10
-114.693
 20
47.5902
 11
-114.892
 21
47.662
  0
LINE
  8
0
 10
-114.892
 20
47.662
 11
-115.087
 21
47.7462
  0
LINE
  8
0
 10
-115.087
 20
47.7462
 11
-115.276
 21
47.8425
  0
LINE
  8
0
 10
-115.276
 20
47.8425
 11
-115.458
 21
47.9504
  0
LINE
  8
0
 10
-115.458
 20
47.9504
 11
-115.634
 21
48.0696
  0
LINE
  8
0
 10
-115.634
 20
48.0696
 11
-115.801
 21
48.1995
  0
LINE
  8
0
 10
-115.801
 20
48.1995
 11
-115.96
 21
48.3397
  0
LINE
  8
0
 10
-115.96
 20
48.3397
 11
-116.11
 21
48.4896
  0
LINE
  8
0
 10
-116.11
 20
48.4896
 11
-116.25
 21
48.6487
  0
LINE
  8
0
 10
-116.25
 20
48.6487
 11
-116.38
 21
48.8162
  0
LINE
  8
0
 10
-116.38
 20
48.8162
 11
-116.5
 21
48.9916
  0
LINE
  8
0
 10
-116.5
 20
48.9916
 11
-116.608
 21
49.1741
  0
LINE
  8
0
 10
-116.608
 20
49.1741
 11
-116.704
 21
49.363
  0
LINE
  8
0
 10
-116.704
 20
49.363
 11
-116.788
 21
49.5576
  0
LINE
  8
0
 10
-116.788
 20
49.5576
 11
-116.86
 21
49.7571
  0
LINE
  8
0
 10
-116.86
 20
49.7571
 11
-116.919
 21
49.9607
  0
LINE
  8
0
 10
-116.919
 20
49.9607
 11
-116.965
 21
50.1676
  0
LINE
  8
0
 10
-116.965
 20
50.1676
 11
-116.998
 21
50.377
  0
LINE
  8
0
 10
-116.998
 20
50.377
 11
-117.018
 21
50.5881
  0
LINE
  8
0
 10
-117.018
 20
50.5881
 11
-117.025
 21
50.8
  0
LINE
  8
0
 10
-117.025
 20
50.8
 11
-117.018
 21
51.0119
  0
LINE
  8
0
 10
-117.018
 20
51.0119
 11
-116.998
 21
51.223
  0
LINE
  8
0
 10
-116.998
 20
51.223
 11
-116.965
 21
51.4324
  0
LINE
  8
0
 10
-116.965
 20
51.4324
 11
-116.919
 21
51.6393
  0
LINE
  8
0
 10
-116.919
 20
51.6393
 11
-116.86
 21
51.8429
  0
LINE
  8
0
 10
-116.86
 20
51.8429
 11
-116.788
 21
52.0424
  0
LINE
  8
0
 10
-116.788
 20
52.0424
 11
-116.704
 21
52.237
  0
LINE
  8
0
 10
-116.704
 20
52.237
 11
-116.608
 21
52.4259
  0
LINE
  8
0
 10
-116.608
 20
52.4259
 11
-116.5
 21
52.6084
  0
LINE
  8
0
 10
-116.5
 20
52.6084
 11
-116.38
 21
52.7838
  0
LINE
  8
0
 10
-116.38
 20
52.7838
 11
-116.25
 21
52.9513
  0
LINE
  8
0
 10
-116.25
 20
52.9513
 11
-116.11
 21
53.1103
  0
LINE
  8
0
 10
-116.11
 20
53.1103
 11
-115.96
 21
53.2603
  0
LINE
  8
0
 10
-115.96
 20
53.2603
 11
-115.801
 21
53.4005
  0
LINE
  8
0
 10
-115.801
 20
53.4005
 11
-115.634
 21
53.5304
  0
LINE
  8
0
 10
-115.634
 20
53.5304
 11
-115.458
 21
53.6496
  0
LINE
  8
0
 10
-115.458
 20
53.6496
 11
-115.276
 21
53.7575
  0
LINE
  8
0
 10
-115.276
 20
53.7575
 11
-115.087
 21
53.8538
  0
LINE
  8
0
 10
-115.087
 20
53.8538
 11
-114.892
 21
53.938
  0
LINE
  8
0
 10
-114.892
 20
53.938
 11
-114.693
 21
54.0098
  0
LINE
  8
0
 10
-114.693
 20
54.0098
 11
-114.489
 21
54.069
  0
LINE
  8
0
 10
-114.489
 20
54.069
 11
-114.282
 21
54.1152
  0
LINE
  8
0
 10
-114.282
 20
54.1152
 11
-114.073
 21
54.1484
  0
LINE
  8
0
 10
-114.073
 20
54.1484
 11
-113.862
 21
54.1683
  0
LINE
  8
0
 10
-113.862
 20
54.1683
 11
-113.65
 21
54.175
  0
LINE
  8
0
 10
-113.65
 20
54.175
 11
-113.438
 21
54.1683
  0
LINE
  8
0
 10
-113.438
 20
54.1683
 11
-113.227
 21
54.1484
  0
LINE
  8
0
 10
-113.227
 20
54.1484
 11
-113.018
 21
54.1152
  0
LINE
  8
0
 10
-113.018
 20
54.1152
 11
-112.811
 21
54.069
  0
LINE
  8
0
 10
-112.811
 20
54.069
 11
-112.607
 21
54.0098
  0
LINE
  8
0
 10
-112.607
 20
54.0098
 11
-112.408
 21
53.938
  0
LINE
  8
0
 10
-112.408
 20
53.938
 11
-112.213
 21
53.8538
  0
LINE
  8
0
 10
-112.213
 20
53.8538
 11
-112.024
 21
53.7575
  0
LINE
  8
0
 10
-112.024
 20
53.7575
 11
-111.842
 21
53.6496
  0
LINE
  8
0
 10
-111.842
 20
53.6496
 11
-111.666
 21
53.5304
  0
LINE
  8
0
 10
-111.666
 20
53.5304
 11
-111.499
 21
53.4005
  0
LINE
  8
0
 10
-111.499
 20
53.4005
 11
-111.34
 21
53.2603
  0
LINE
  8
0
 10
-111.34
 20
53.2603
 11
-111.19
 21
53.1103
  0
LINE
  8
0
 10
-111.19
 20
53.1103
 11
-111.05
 21
52.9513
  0
LINE
  8
0
 10
-111.05
 20
52.9513
 11
-110.92
 21
52.7838
  0
LINE
  8
0
 10
-110.92
 20
52.7838
 11
-110.8
 21
52.6084
  0
LINE
  8
0
 10
-110.8
 20
52.6084
 11
-110.692
 21
52.4259
  0
LINE
  8
0
 10
-110.692
 20
52.4259
 11
-110.596
 21
52.237
  0
LINE
  8
0
 10
-110.596
 20
52.237
 11
-110.512
 21
52.0424
  0
LINE
  8
0
 10
-110.512
 20
52.0424
 11
-110.44
 21
51.8429
  0
LINE
  8
0
 10
-110.44
 20
51.8429
 11
-110.381
 21
51.6393
  0
LINE
  8
0
 10
-110.381
 20
51.6393
 11
-110.335
 21
51.4324
  0
LINE
  8
0
 10
-110.335
 20
51.4324
 11
-110.302
 21
51.223
  0
LINE
  8
0
 10
-110.302
 20
51.223
 11
-110.282
 21
51.0119
  0
LINE
  8
0
 10
-110.282
 20
51.0119
 11
-110.275
 21
50.8
  0
LINE
  8
0
 10
-110.275
 20
50.8
 11
-110.282
 21
50.5881
  0
LINE
  8
0
 10
-110.282
 20
50.5881
 11
-110.302
 21
50.377
  0
LINE
  8
0
 10
-110.302
 20
50.377
 11
-110.335
 21
50.1676
  0
LINE
  8
0
 10
-110.335
 20
50.1676
 11
-110.381
 21
49.9607
  0
LINE
  8
0
 10
-110.381
 20
49.9607
 11
-110.44
 21
49.7571
  0
LINE
  8
0
 10
-110.44
 20
49.7571
 11
-110.512
 21
49.5576
  0
LINE
  8
0
 10
-110.512
 20
49.5576
 11
-110.596
 21
49.363
  0
LINE
  8
0
 10
-110.596
 20
49.363
 11
-110.692
 21
49.1741
  0
LINE
  8
0
 10
-110.692
 20
49.1741
 11
-110.8
 21
48.9916
  0
LINE
  8
0
 10
-110.8
 20
48.9916
 11
-110.92
 21
48.8162
  0
LINE
  8
0
 10
-110.92
 20
48.8162
 11
-111.05
 21
48.6487
  0
LINE
  8
0
 10
-111.05
 20
48.6487
 11
-111.19
 21
48.4896
  0
LINE
  8
0
 10
-111.19
 20
48.4896
 11
-111.34
 21
48.3397
  0
LINE
  8
0
 10
-111.34
 20
48.3397
 11
-111.499
 21
48.1995
  0
LINE
  8
0
 10
-111.499
 20
48.1995
 11
-111.666
 21
48.0696
  0
LINE
  8
0
 10
-111.666
 20
48.0696
 11
-111.842
 21
47.9504
  0
LINE
  8
0
 10
-111.842
 20
47.9504
 11
-112.024
 21
47.8425
  0
LINE
  8
0
 10
-112.024
 20
47.8425
 11
-112.213
 21
47.7462
  0
LINE
  8
0
 10
-112.213
 20
47.7462
 11
-112.408
 21
47.662
  0
LINE
  8
0
 10
-112.408
 20
47.662
 11
-112.607
 21
47.5902
  0
LINE
  8
0
 10
-112.607
 20
47.5902
 11
-112.811
 21
47.531
  0
LINE
  8
0
 10
-112.811
 20
47.531
 11
-113.018
 21
47.4848
  0
LINE
  8
0
 10
-113.018
 20
47.4848
 11
-113.227
 21
47.4516
  0
LINE
  8
0
 10
-113.227
 20
47.4516
 11
-113.438
 21
47.4317
  0
LINE
  8
0
 10
-113.438
 20
47.4317
 11
-113.65
 21
47.425
  0
LINE
  8
0
 10
-113.65
 20
47.425
 11
-113.862
 21
47.4317
  0
LINE
  8
0
 10
113.438
 20
22.0316
 11
113.227
 21
22.0516
  0
LINE
  8
0
 10
113.227
 20
22.0516
 11
113.018
 21
22.0848
  0
LINE
  8
0
 10
113.018
 20
22.0848
 11
112.811
 21
22.131
  0
LINE
  8
0
 10
112.811
 20
22.131
 11
112.607
 21
22.1902
  0
LINE
  8
0
 10
112.607
 20
22.1902
 11
112.408
 21
22.262
  0
LINE
  8
0
 10
112.408
 20
22.262
 11
112.213
 21
22.3462
  0
LINE
  8
0
 10
112.213
 20
22.3462
 11
112.024
 21
22.4425
  0
LINE
  8
0
 10
112.024
 20
22.4425
 11
111.842
 21
22.5504
  0
LINE
  8
0
 10
111.842
 20
22.5504
 11
111.666
 21
22.6696
  0
LINE
  8
0
 10
111.666
 20
22.6696
 11
111.499
 21
22.7995
  0
LINE
  8
0
 10
111.499
 20
22.7995
 11
111.34
 21
22.9397
  0
LINE
  8
0
 10
111.34
 20
22.9397
 11
111.19
 21
23.0896
  0
LINE
  8
0
 10
111.19
 20
23.0896
 11
111.05
 21
23.2487
  0
LINE
  8
0
 10
111.05
 20
23.2487
 11
110.92
 21
23.4162
  0
LINE
  8
0
 10
110.92
 20
23.4162
 11
110.8
 21
23.5916
  0
LINE
  8
0
 10
110.8
 20
23.5916
 11
110.692
 21
23.7741
  0
LINE
  8
0
 10
110.692
 20
23.7741
 11
110.596
 21
23.963
  0
LINE
  8
0
 10
110.596
 20
23.963
 11
110.512
 21
24.1576
  0
LINE
  8
0
 10
110.512
 20
24.1576
 11
110.44
 21
24.3571
  0
LINE
  8
0
 10
110.44
 20
24.3571
 11
110.381
 21
24.5607
  0
LINE
  8
0
 10
110.381
 20
24.5607
 11
110.335
 21
24.7676
  0
LINE
  8
0
 10
110.335
 20
24.7676
 11
110.302
 21
24.977
  0
LINE
  8
0
 10
110.302
 20
24.977
 11
110.282
 21
25.1881
  0
LINE
  8
0
 10
110.282
 20
25.1881
 11
110.275
 21
25.4
  0
LINE
  8
0
 10
110.275
 20
25.4
 11
110.282
 21
25.6119
  0
LINE
  8
0
 10
110.282
 20
25.6119
 11
110.302
 21
25.823
  0
LINE
  8
0
 10
110.302
 20
25.823
 11
110.335
 21
26.0324
  0
LINE
  8
0
 10
110.335
 20
26.0324
 11
110.381
 21
26.2393
  0
LINE
  8
0
 10
110.381
 20
26.2393
 11
110.44
 21
26.4429
  0
LINE
  8
0
 10
110.44
 20
26.4429
 11
110.512
 21
26.6424
  0
LINE
  8
0
 10
110.512
 20
26.6424
 11
110.596
 21
26.837
  0
LINE
  8
0
 10
110.596
 20
26.837
 11
110.692
 21
27.0259
  0
LINE
  8
0
 10
110.692
 20
27.0259
 11
110.8
 21
27.2084
  0
LINE
  8
0
 10
110.8
 20
27.2084
 11
110.92
 21
27.3838
  0
LINE
  8
0
 10
110.92
 20
27.3838
 11
111.05
 21
27.5513
  0
LINE
  8
0
 10
111.05
 20
27.5513
 11
111.19
 21
27.7103
  0
LINE
  8
0
 10
111.19
 20
27.7103
 11
111.34
 21
27.8603
  0
LINE
  8
0
 10
111.34
 20
27.8603
 11
111.499
 21
28.0005
  0
LINE
  8
0
 10
111.499
 20
28.0005
 11
111.666
 21
28.1304
  0
LINE
  8
0
 10
111.666
 20
28.1304
 11
111.842
 21
28.2496
  0
LINE
  8
0
 10
111.842
 20
28.2496
 11
112.024
 21
28.3575
  0
LINE
  8
0
 10
112.024
 20
28.3575
 11
112.213
 21
28.4538
  0
LINE
  8
0
 10
112.213
 20
28.4538
 11
112.408
 21
28.538
  0
LINE
  8
0
 10
112.408
 20
28.538
 11
112.607
 21
28.6098
  0
LINE
  8
0
 10
112.607
 20
28.6098
 11
112.811
 21
28.669
  0
LINE
  8
0
 10
112.811
 20
28.669
 11
113.018
 21
28.7152
  0
LINE
  8
0
 10
113.018
 20
28.7152
 11
113.227
 21
28.7484
  0
LINE
  8
0
 10
113.227
 20
28.7484
 11
113.438
 21
28.7683
  0
LINE
  8
0
 10
113.438
 20
28.7683
 11
113.65
 21
28.775
  0
LINE
  8
0
 10
113.65
 20
28.775
 11
113.862
 21
28.7683
  0
LINE
  8
0
 10
113.862
 20
28.7683
 11
114.073
 21
28.7484
  0
LINE
  8
0
 10
114.073
 20
28.7484
 11
114.282
 21
28.7152
  0
LINE
  8
0
 10
114.282
 20
28.7152
 11
114.489
 21
28.669
  0
LINE
  8
0
 10
114.489
 20
28.669
 11
114.693
 21
28.6098
  0
LINE
  8
0
 10
114.693
 20
28.6098
 11
114.892
 21
28.538
  0
LINE
  8
0
 10
114.892
 20
28.538
 11
115.087
 21
28.4538
  0
LINE
  8
0
 10
115.087
 20
28.4538
 11
115.276
 21
28.3575
  0
LINE
  8
0
 10
115.276
 20
28.3575
 11
115.458
 21
28.2496
  0
LINE
  8
0
 10
115.458
 20
28.2496
 11
115.634
 21
28.1304
  0
LINE
  8
0
 10
115.634
 20
28.1304
 11
115.801
 21
28.0005
  0
LINE
  8
0
 10
115.801
 20
28.0005
 11
115.96
 21
27.8603
  0
LINE
  8
0
 10
115.96
 20
27.8603
 11
116.11
 21
27.7103
  0
LINE
  8
0
 10
116.11
 20
27.7103
 11
116.25
 21
27.5513
  0
LINE
  8
0
 10
116.25
 20
27.5513
 11
116.38
 21
27.3838
  0
LINE
  8
0
 10
116.38
 20
27.3838
 11
116.5
 21
27.2084
  0
LINE
  8
0
 10
116.5
 20
27.2084
 11
116.608
 21
27.0259
  0
LINE
  8
0
 10
116.608
 20
27.0259
 11
116.704
 21
26.837
  0
LINE
  8
0
 10
116.704
 20
26.837
 11
116.788
 21
26.6424
  0
LINE
  8
0
 10
116.788
 20
26.6424
 11
116.86
 21
26.4429
  0
LINE
  8
0
 10
116.86
 20
26.4429
 11
116.919
 21
26.2393
  0
LINE
  8
0
 10
116.919
 20
26.2393
 11
116.965
 21
26.0324
  0
LINE
  8
0
 10
116.965
 20
26.0324
 11
116.998
 21
25.823
  0
LINE
  8
0
 10
116.998
 20
25.823
 11
117.018
 21
25.6119
  0
LINE
  8
0
 10
117.018
 20
25.6119
 11
117.025
 21
25.4
  0
LINE
  8
0
 10
117.025
 20
25.4
 11
117.018
 21
25.1881
  0
LINE
  8
0
 10
117.018
 20
25.1881
 11
116.998
 21
24.977
  0
LINE
  8
0
 10
116.998
 20
24.977
 11
116.965
 21
24.7676
  0
LINE
  8
0
 10
116.965
 20
24.7676
 11
116.919
 21
24.5607
  0
LINE
  8
0
 10
116.919
 20
24.5607
 11
116.86
 21
24.3571
  0
LINE
  8
0
 10
116.86
 20
24.3571
 11
116.788
 21
24.1576
  0
LINE
  8
0
 10
116.788
 20
24.1576
 11
116.704
 21
23.963
  0
LINE
  8
0
 10
116.704
 20
23.963
 11
116.608
 21
23.7741
  0
LINE
  8
0
 10
116.608
 20
23.7741
 11
116.5
 21
23.5916
  0
LINE
  8
0
 10
116.5
 20
23.5916
 11
116.38
 21
23.4162
  0
LINE
  8
0
 10
116.38
 20
23.4162
 11
116.25
 21
23.2487
  0
LINE
  8
0
 10
116.25
 20
23.2487
 11
116.11
 21
23.0896
  0
LINE
  8
0
 10
116.11
 20
23.0896
 11
115.96
 21
22.9397
  0
LINE
  8
0
 10
115.96
 20
22.9397
 11
115.801
 21
22.7995
  0
LINE
  8
0
 10
115.801
 20
22.7995
 11
115.634
 21
22.6696
  0
LINE
  8
0
 10
115.634
 20
22.6696
 11
115.458
 21
22.5504
  0
LINE
  8
0
 10
115.458
 20
22.5504
 11
115.276
 21
22.4425
  0
LINE
  8
0
 10
115.276
 20
22.4425
 11
115.087
 21
22.3462
  0
LINE
  8
0
 10
115.087
 20
22.3462
 11
114.892
 21
22.262
  0
LINE
  8
0
 10
114.892
 20
22.262
 11
114.693
 21
22.1902
  0
LINE
  8
0
 10
114.693
 20
22.1902
 11
114.489
 21
22.131
  0
LINE
  8
0
 10
114.489
 20
22.131
 11
114.282
 21
22.0848
  0
LINE
  8
0
 10
114.282
 20
22.0848
 11
114.073
 21
22.0516
  0
LINE
  8
0
 10
114.073
 20
22.0516
 11
113.862
 21
22.0316
  0
LINE
  8
0
 10
113.862
 20
22.0316
 11
113.65
 21
22.025
  0
LINE
  8
0
 10
113.65
 20
22.025
 11
113.438
 21
22.0316
  0
LINE
  8
0
 10
-113.862
 20
22.0316
 11
-114.073
 21
22.0516
  0
LINE
  8
0
 10
-114.073
 20
22.0516
 11
-114.282
 21
22.0848
  0
LINE
  8
0
 10
-114.282
 20
22.0848
 11
-114.489
 21
22.131
  0
LINE
  8
0
 10
-114.489
 20
22.131
 11
-114.693
 21
22.1902
  0
LINE
  8
0
 10
-114.693
 20
22.1902
 11
-114.892
 21
22.262
  0
LINE
  8
0
 10
-114.892
 20
22.262
 11
-115.087
 21
22.3462
  0
LINE
  8
0
 10
-115.087
 20
22.3462
 11
-115.276
 21
22.4425
  0
LINE
  8
0
 10
-115.276
 20
22.4425
 11
-115.458
 21
22.5504
  0
LINE
  8
0
 10
-115.458
 20
22.5504
 11
-115.634
 21
22.6696
  0
LINE
  8
0
 10
-115.634
 20
22.6696
 11
-115.801
 21
22.7995
  0
LINE
  8
0
 10
-115.801
 20
22.7995
 11
-115.96
 21
22.9397
  0
LINE
  8
0
 10
-115.96
 20
22.9397
 11
-116.11
 21
23.0896
  0
LINE
  8
0
 10
-116.11
 20
23.0896
 11
-116.25
 21
23.2487
  0
LINE
  8
0
 10
-116.25
 20
23.2487
 11
-116.38
 21
23.4162
  0
LINE
  8
0
 10
-116.38
 20
23.4162
 11
-116.5
 21
23.5916
  0
LINE
  8
0
 10
-116.5
 20
23.5916
 11
-116.608
 21
23.7741
  0
LINE
  8
0
 10
-116.608
 20
23.7741
 11
-116.704
 21
23.963
  0
LINE
  8
0
 10
-116.704
 20
23.963
 11
-116.788
 21
24.1576
  0
LINE
  8
0
 10
-116.788
 20
24.1576
 11
-116.86
 21
24.3571
  0
LINE
  8
0
 10
-116.86
 20
24.3571
 11
-116.919
 21
24.5607
  0
LINE
  8
0
 10
-116.919
 20
24.5607
 11
-116.965
 21
24.7676
  0
LINE
  8
0
 10
-116.965
 20
24.7676
 11
-116.998
 21
24.977
  0
LINE
  8
0
 10
-116.998
 20
24.977
 11
-117.018
 21
25.1881
  0
LINE
  8
0
 10
-117.018
 20
25.1881
 11
-117.025
 21
25.4
  0
LINE
  8
0
 10
-117.025
 20
25.4
 11
-117.018
 21
25.6119
  0
LINE
  8
0
 10
-117.018
 20
25.6119
 11
-116.998
 21
25.823
  0
LINE
  8
0
 10
-116.998
 20
25.823
 11
-116.965
 21
26.0324
  0
LINE
  8
0
 10
-116.965
 20
26.0324
 11
-116.919
 21
26.2393
  0
LINE
  8
0
 10
-116.919
 20
26.2393
 11
-116.86
 21
26.4429
  0
LINE
  8
0
 10
-116.86
 20
26.4429
 11
-116.788
 21
26.6424
  0
LINE
  8
0
 10
-116.788
 20
26.6424
 11
-116.704
 21
26.837
  0
LINE
  8
0
 10
-116.704
 20
26.837
 11
-116.608
 21
27.0259
  0
LINE
  8
0
 10
-116.608
 20
27.0259
 11
-116.5
 21
27.2084
  0
LINE
  8
0
 10
-116.5
 20
27.2084
 11
-116.38
 21
27.3838
  0
LINE
  8
0
 10
-116.38
 20
27.3838
 11
-116.25
 21
27.5513
  0
LINE
  8
0
 10
-116.25
 20
27.5513
 11
-116.11
 21
27.7103
  0
LINE
  8
0
 10
-116.11
 20
27.7103
 11
-115.96
 21
27.8603
  0
LINE
  8
0
 10
-115.96
 20
27.8603
 11
-115.801
 21
28.0005
  0
LINE
  8
0
 10
-115.801
 20
28.0005
 11
-115.634
 21
28.1304
  0
LINE
  8
0
 10
-115.634
 20
28.1304
 11
-115.458
 21
28.2496
  0
LINE
  8
0
 10
-115.458
 20
28.2496
 11
-115.276
 21
28.3575
  0
LINE
  8
0
 10
-115.276
 20
28.3575
 11
-115.087
 21
28.4538
  0
LINE
  8
0
 10
-115.087
 20
28.4538
 11
-114.892
 21
28.538
  0
LINE
  8
0
 10
-114.892
 20
28.538
 11
-114.693
 21
28.6098
  0
LINE
  8
0
 10
-114.693
 20
28.6098
 11
-114.489
 21
28.669
  0
LINE
  8
0
 10
-114.489
 20
28.669
 11
-114.282
 21
28.7152
  0
LINE
  8
0
 10
-114.282
 20
28.7152
 11
-114.073
 21
28.7484
  0
LINE
  8
0
 10
-114.073
 20
28.7484
 11
-113.862
 21
28.7683
  0
LINE
  8
0
 10
-113.862
 20
28.7683
 11
-113.65
 21
28.775
  0
LINE
  8
0
 10
-113.65
 20
28.775
 11
-113.438
 21
28.7683
  0
LINE
  8
0
 10
-113.438
 20
28.7683
 11
-113.227
 21
28.7484
  0
LINE
  8
0
 10
-113.227
 20
28.7484
 11
-113.018
 21
28.7152
  0
LINE
  8
0
 10
-113.018
 20
28.7152
 11
-112.811
 21
28.669
  0
LINE
  8
0
 10
-112.811
 20
28.669
 11
-112.607
 21
28.6098
  0
LINE
  8
0
 10
-112.607
 20
28.6098
 11
-112.408
 21
28.538
  0
LINE
  8
0
 10
-112.408
 20
28.538
 11
-112.213
 21
28.4538
  0
LINE
  8
0
 10
-112.213
 20
28.4538
 11
-112.024
 21
28.3575
  0
LINE
  8
0
 10
-112.024
 20
28.3575
 11
-111.842
 21
28.2496
  0
LINE
  8
0
 10
-111.842
 20
28.2496
 11
-111.666
 21
28.1304
  0
LINE
  8
0
 10
-111.666
 20
28.1304
 11
-111.499
 21
28.0005
  0
LINE
  8
0
 10
-111.499
 20
28.0005
 11
-111.34
 21
27.8603
  0
LINE
  8
0
 10
-111.34
 20
27.8603
 11
-111.19
 21
27.7103
  0
LINE
  8
0
 10
-111.19
 20
27.7103
 11
-111.05
 21
27.5513
  0
LINE
  8
0
 10
-111.05
 20
27.5513
 11
-110.92
 21
27.3838
  0
LINE
  8
0
 10
-110.92
 20
27.3838
 11
-110.8
 21
27.2084
  0
LINE
  8
0
 10
-110.8
 20
27.2084
 11
-110.692
 21
27.0259
  0
LINE
  8
0
 10
-110.692
 20
27.0259
 11
-110.596
 21
26.837
  0
LINE
  8
0
 10
-110.596
 20
26.837
 11
-110.512
 21
26.6424
  0
LINE
  8
0
 10
-110.512
 20
26.6424
 11
-110.44
 21
26.4429
  0
LINE
  8
0
 10
-110.44
 20
26.4429
 11
-110.381
 21
26.2393
  0
LINE
  8
0
 10
-110.381
 20
26.2393
 11
-110.335
 21
26.0324
  0
LINE
  8
0
 10
-110.335
 20
26.0324
 11
-110.302
 21
25.823
  0
LINE
  8
0
 10
-110.302
 20
25.823
 11
-110.282
 21
25.6119
  0
LINE
  8
0
 10
-110.282
 20
25.6119
 11
-110.275
 21
25.4
  0
LINE
  8
0
 10
-110.275
 20
25.4
 11
-110.282
 21
25.1881
  0
LINE
  8
0
 10
-110.282
 20
25.1881
 11
-110.302
 21
24.977
  0
LINE
  8
0
 10
-110.302
 20
24.977
 11
-110.335
 21
24.7676
  0
LINE
  8
0
 10
-110.335
 20
24.7676
 11
-110.381
 21
24.5607
  0
LINE
  8
0
 10
-110.381
 20
24.5607
 11
-110.44
 21
24.3571
  0
LINE
  8
0
 10
-110.44
 20
24.3571
 11
-110.512
 21
24.1576
  0
LINE
  8
0
 10
-110.512
 20
24.1576
 11
-110.596
 21
23.963
  0
LINE
  8
0
 10
-110.596
 20
23.963
 11
-110.692
 21
23.7741
  0
LINE
  8
0
 10
-110.692
 20
23.7741
 11
-110.8
 21
23.5916
  0
LINE
  8
0
 10
-110.8
 20
23.5916
 11
-110.92
 21
23.4162
  0
LINE
  8
0
 10
-110.92
 20
23.4162
 11
-111.05
 21
23.2487
  0
LINE
  8
0
 10
-111.05
 20
23.2487
 11
-111.19
 21
23.0896
  0
LINE
  8
0
 10
-111.19
 20
23.0896
 11
-111.34
 21
22.9397
  0
LINE
  8
0
 10
-111.34
 20
22.9397
 11
-111.499
 21
22.7995
  0
LINE
  8
0
 10
-111.499
 20
22.7995
 11
-111.666
 21
22.6696
  0
LINE
  8
0
 10
-111.666
 20
22.6696
 11
-111.842
 21
22.5504
  0
LINE
  8
0
 10
-111.842
 20
22.5504
 11
-112.024
 21
22.4425
  0
LINE
  8
0
 10
-112.024
 20
22.4425
 11
-112.213
 21
22.3462
  0
LINE
  8
0
 10
-112.213
 20
22.3462
 11
-112.408
 21
22.262
  0
LINE
  8
0
 10
-112.408
 20
22.262
 11
-112.607
 21
22.1902
  0
LINE
  8
0
 10
-112.607
 20
22.1902
 11
-112.811
 21
22.131
  0
LINE
  8
0
 10
-112.811
 20
22.131
 11
-113.018
 21
22.0848
  0
LINE
  8
0
 10
-113.018
 20
22.0848
 11
-113.227
 21
22.0516
  0
LINE
  8
0
 10
-113.227
 20
22.0516
 11
-113.438
 21
22.0316
  0
LINE
  8
0
 10
-113.438
 20
22.0316
 11
-113.65
 21
22.025
  0
LINE
  8
0
 10
-113.65
 20
22.025
 11
-113.862
 21
22.0316
  0
LINE
  8
0
 10
-4
 20
-20
 11
-4
 21
20
  0
LINE
  8
0
 10
-4
 20
20
 11
4
 21
20
  0
LINE
  8
0
 10
4
 20
20
 11
4
 21
-20
  0
LINE
  8
0
 10
4
 20
-20
 11
-4
 21
-20
  0
LINE
  8
0
 10
113.438
 20
-28.7683
 11
113.227
 21
-28.7484
  0
LINE
  8
0
 10
113.227
 20
-28.7484
 11
113.018
 21
-28.7152
  0
LINE
  8
0
 10
113.018
 20
-28.7152
 11
112.811
 21
-28.669
  0
LINE
  8
0
 10
112.811
 20
-28.669
 11
112.607
 21
-28.6098
  0
LINE
  8
0
 10
112.607
 20
-28.6098
 11
112.408
 21
-28.538
  0
LINE
  8
0
 10
112.408
 20
-28.538
 11
112.213
 21
-28.4538
  0
LINE
  8
0
 10
112.213
 20
-28.4538
 11
112.024
 21
-28.3575
  0
LINE
  8
0
 10
112.024
 20
-28.3575
 11
111.842
 21
-28.2496
  0
LINE
  8
0
 10
111.842
 20
-28.2496
 11
111.666
 21
-28.1304
  0
LINE
  8
0
 10
111.666
 20
-28.1304
 11
111.499
 21
-28.0005
  0
LINE
  8
0
 10
111.499
 20
-28.0005
 11
111.34
 21
-27.8603
  0
LINE
  8
0
 10
111.34
 20
-27.8603
 11
111.19
 21
-27.7103
  0
LINE
  8
0
 10
111.19
 20
-27.7103
 11
111.05
 21
-27.5513
  0
LINE
  8
0
 10
111.05
 20
-27.5513
 11
110.92
 21
-27.3838
  0
LINE
  8
0
 10
110.92
 20
-27.3838
 11
110.8
 21
-27.2084
  0
LINE
  8
0
 10
110.8
 20
-27.2084
 11
110.692
 21
-27.0259
  0
LINE
  8
0
 10
110.692
 20
-27.0259
 11
110.596
 21
-26.837
  0
LINE
  8
0
 10
110.596
 20
-26.837
 11
110.512
 21
-26.6424
  0
LINE
  8
0
 10
110.512
 20
-26.6424
 11
110.44
 21
-26.4429
  0
LINE
  8
0
 10
110.44
 20
-26.4429
 11
110.381
 21
-26.2393
  0
LINE
  8
0
 10
110.381
 20
-26.2393
 11
110.335
 21
-26.0324
  0
LINE
  8
0
 10
110.335
 20
-26.0324
 11
110.302
 21
-25.823
  0
LINE
  8
0
 10
110.302
 20
-25.823
 11
110.282
 21
-25.6119
  0
LINE
  8
0
 10
110.282
 20
-25.6119
 11
110.275
 21
-25.4
  0
LINE
  8
0
 10
110.275
 20
-25.4
 11
110.282
 21
-25.1881
  0
LINE
  8
0
 10
110.282
 20
-25.1881
 11
110.302
 21
-24.977
  0
LINE
  8
0
 10
110.302
 20
-24.977
 11
110.335
 21
-24.7676
  0
LINE
  8
0
 10
110.335
 20
-24.7676
 11
110.381
 21
-24.5607
  0
LINE
  8
0
 10
110.381
 20
-24.5607
 11
110.44
 21
-24.3571
  0
LINE
  8
0
 10
110.44
 20
-24.3571
 11
110.512
 21
-24.1576
  0
LINE
  8
0
 10
110.512
 20
-24.1576
 11
110.596
 21
-23.963
  0
LINE
  8
0
 10
110.596
 20
-23.963
 11
110.692
 21
-23.7741
  0
LINE
  8
0
 10
110.692
 20
-23.7741
 11
110.8
 21
-23.5916
  0
LINE
  8
0
 10
110.8
 20
-23.5916
 11
110.92
 21
-23.4162
  0
LINE
  8
0
 10
110.92
 20
-23.4162
 11
111.05
 21
-23.2487
  0
LINE
  8
0
 10
111.05
 20
-23.2487
 11
111.19
 21
-23.0896
  0
LINE
  8
0
 10
111.19
 20
-23.0896
 11
111.34
 21
-22.9397
  0
LINE
  8
0
 10
111.34
 20
-22.9397
 11
111.499
 21
-22.7995
  0
LINE
  8
0
 10
111.499
 20
-22.7995
 11
111.666
 21
-22.6696
  0
LINE
  8
0
 10
111.666
 20
-22.6696
 11
111.842
 21
-22.5504
  0
LINE
  8
0
 10
111.842
 20
-22.5504
 11
112.024
 21
-22.4425
  0
LINE
  8
0
 10
112.024
 20
-22.4425
 11
112.213
 21
-22.3462
  0
LINE
  8
0
 10
112.213
 20
-22.3462
 11
112.408
 21
-22.262
  0
LINE
  8
0
 10
112.408
 20
-22.262
 11
112.607
 21
-22.1902
  0
LINE
  8
0
 10
112.607
 20
-22.1902
 11
112.811
 21
-22.131
  0
LINE
  8
0
 10
112.811
 20
-22.131
 11
113.018
 21
-22.0848
  0
LINE
  8
0
 10
113.018
 20
-22.0848
 11
113.227
 21
-22.0516
  0
LINE
  8
0
 10
113.227
 20
-22.0516
 11
113.438
 21
-22.0316
  0
LINE
  8
0
 10
113.438
 20
-22.0316
 11
113.65
 21
-22.025
  0
LINE
  8
0
 10
113.65
 20
-22.025
 11
113.862
 21
-22.0316
  0
LINE
  8
0
 10
113.862
 20
-22.0316
 11
114.073
 21
-22.0516
  0
LINE
  8
0
 10
114.073
 20
-22.0516
 11
114.282
 21
-22.0848
  0
LINE
  8
0
 10
114.282
 20
-22.0848
 11
114.489
 21
-22.131
  0
LINE
  8
0
 10
114.489
 20
-22.131
 11
114.693
 21
-22.1902
  0
LINE
  8
0
 10
114.693
 20
-22.1902
 11
114.892
 21
-22.262
  0
LINE
  8
0
 10
114.892
 20
-22.262
 11
115.087
 21
-22.3462
  0
LINE
  8
0
 10
115.087
 20
-22.3462
 11
115.276
 21
-22.4425
  0
LINE
  8
0
 10
115.276
 20
-22.4425
 11
115.458
 21
-22.5504
  0
LINE
  8
0
 10
115.458
 20
-22.5504
 11
115.634
 21
-22.6696
  0
LINE
  8
0
 10
115.634
 20
-22.6696
 11
115.801
 21
-22.7995
  0
LINE
  8
0
 10
115.801
 20
-22.7995
 11
115.96
 21
-22.9397
  0
LINE
  8
0
 10
115.96
 20
-22.9397
 11
116.11
 21
-23.0896
  0
LINE
  8
0
 10
116.11
 20
-23.0896
 11
116.25
 21
-23.2487
  0
LINE
  8
0
 10
116.25
 20
-23.2487
 11
116.38
 21
-23.4162
  0
LINE
  8
0
 10
116.38
 20
-23.4162
 11
116.5
 21
-23.5916
  0
LINE
  8
0
 10
116.5
 20
-23.5916
 11
116.608
 21
-23.7741
  0
LINE
  8
0
 10
116.608
 20
-23.7741
 11
116.704
 21
-23.963
  0
LINE
  8
0
 10
116.704
 20
-23.963
 11
116.788
 21
-24.1576
  0
LINE
  8
0
 10
116.788
 20
-24.1576
 11
116.86
 21
-24.3571
  0
LINE
  8
0
 10
116.86
 20
-24.3571
 11
116.919
 21
-24.5607
  0
LINE
  8
0
 10
116.919
 20
-24.5607
 11
116.965
 21
-24.7676
  0
LINE
  8
0
 10
116.965
 20
-24.7676
 11
116.998
 21
-24.977
  0
LINE
  8
0
 10
116.998
 20
-24.977
 11
117.018
 21
-25.1881
  0
LINE
  8
0
 10
117.018
 20
-25.1881
 11
117.025
 21
-25.4
  0
LINE
  8
0
 10
117.025
 20
-25.4
 11
117.018
 21
-25.6119
  0
LINE
  8
0
 10
117.018
 20
-25.6119
 11
116.998
 21
-25.823
  0
LINE
  8
0
 10
116.998
 20
-25.823
 11
116.965
 21
-26.0324
  0
LINE
  8
0
 10
116.965
 20
-26.0324
 11
116.919
 21
-26.2393
  0
LINE
  8
0
 10
116.919
 20
-26.2393
 11
116.86
 21
-26.4429
  0
LINE
  8
0
 10
116.86
 20
-26.4429
 11
116.788
 21
-26.6424
  0
LINE
  8
0
 10
116.788
 20
-26.6424
 11
116.704
 21
-26.837
  0
LINE
  8
0
 10
116.704
 20
-26.837
 11
116.608
 21
-27.0259
  0
LINE
  8
0
 10
116.608
 20
-27.0259
 11
116.5
 21
-27.2084
  0
LINE
  8
0
 10
116.5
 20
-27.2084
 11
116.38
 21
-27.3838
  0
LINE
  8
0
 10
116.38
 20
-27.3838
 11
116.25
 21
-27.5513
  0
LINE
  8
0
 10
116.25
 20
-27.5513
 11
116.11
 21
-27.7103
  0
LINE
  8
0
 10
116.11
 20
-27.7103
 11
115.96
 21
-27.8603
  0
LINE
  8
0
 10
115.96
 20
-27.8603
 11
115.801
 21
-28.0005
  0
LINE
  8
0
 10
115.801
 20
-28.0005
 11
115.634
 21
-28.1304
  0
LINE
  8
0
 10
115.634
 20
-28.1304
 11
115.458
 21
-28.2496
  0
LINE
  8
0
 10
115.458
 20
-28.2496
 11
115.276
 21
-28.3575
  0
LINE
  8
0
 10
115.276
 20
-28.3575
 11
115.087
 21
-28.4538
  0
LINE
  8
0
 10
115.087
 20
-28.4538
 11
114.892
 21
-28.538
  0
LINE
  8
0
 10
114.892
 20
-28.538
 11
114.693
 21
-28.6098
  0
LINE
  8
0
 10
114.693
 20
-28.6098
 11
114.489
 21
-28.669
  0
LINE
  8
0
 10
114.489
 20
-28.669
 11
114.282
 21
-28.7152
  0
LINE
  8
0
 10
114.282
 20
-28.7152
 11
114.073
 21
-28.7484
  0
LINE
  8
0
 10
114.073
 20
-28.7484
 11
113.862
 21
-28.7683
  0
LINE
  8
0
 10
113.862
 20
-28.7683
 11
113.65
 21
-28.775
  0
LINE
  8
0
 10
113.65
 20
-28.775
 11
113.438
 21
-28.7683
  0
LINE
  8
0
 10
-113.862
 20
-28.7683
 11
-114.073
 21
-28.7484
  0
LINE
  8
0
 10
-114.073
 20
-28.7484
 11
-114.282
 21
-28.7152
  0
LINE
  8
0
 10
-114.282
 20
-28.7152
 11
-114.489
 21
-28.669
  0
LINE
  8
0
 10
-114.489
 20
-28.669
 11
-114.693
 21
-28.6098
  0
LINE
  8
0
 10
-114.693
 20
-28.6098
 11
-114.892
 21
-28.538
  0
LINE
  8
0
 10
-114.892
 20
-28.538
 11
-115.087
 21
-28.4538
  0
LINE
  8
0
 10
-115.087
 20
-28.4538
 11
-115.276
 21
-28.3575
  0
LINE
  8
0
 10
-115.276
 20
-28.3575
 11
-115.458
 21
-28.2496
  0
LINE
  8
0
 10
-115.458
 20
-28.2496
 11
-115.634
 21
-28.1304
  0
LINE
  8
0
 10
-115.634
 20
-28.1304
 11
-115.801
 21
-28.0005
  0
LINE
  8
0
 10
-115.801
 20
-28.0005
 11
-115.96
 21
-27.8603
  0
LINE
  8
0
 10
-115.96
 20
-27.8603
 11
-116.11
 21
-27.7103
  0
LINE
  8
0
 10
-116.11
 20
-27.7103
 11
-116.25
 21
-27.5513
  0
LINE
  8
0
 10
-116.25
 20
-27.5513
 11
-116.38
 21
-27.3838
  0
LINE
  8
0
 10
-116.38
 20
-27.3838
 11
-116.5
 21
-27.2084
  0
LINE
  8
0
 10
-116.5
 20
-27.2084
 11
-116.608
 21
-27.0259
  0
LINE
  8
0
 10
-116.608
 20
-27.0259
 11
-116.704
 21
-26.837
  0
LINE
  8
0
 10
-116.704
 20
-26.837
 11
-116.788
 21
-26.6424
  0
LINE
  8
0
 10
-116.788
 20
-26.6424
 11
-116.86
 21
-26.4429
  0
LINE
  8
0
 10
-116.86
 20
-26.4429
 11
-116.919
 21
-26.2393
  0
LINE
  8
0
 10
-116.919
 20
-26.2393
 11
-116.965
 21
-26.0324
  0
LINE
  8
0
 10
-116.965
 20
-26.0324
 11
-116.998
 21
-25.823
  0
LINE
  8
0
 10
-116.998
 20
-25.823
 11
-117.018
 21
-25.6119
  0
LINE
  8
0
 10
-117.018
 20
-25.6119
 11
-117.025
 21
-25.4
  0
LINE
  8
0
 10
-117.025
 20
-25.4
 11
-117.018
 21
-25.1881
  0
LINE
  8
0
 10
-117.018
 20
-25.1881
 11
-116.998
 21
-24.977
  0
LINE
  8
0
 10
-116.998
 20
-24.977
 11
-116.965
 21
-24.7676
  0
LINE
  8
0
 10
-116.965
 20
-24.7676
 11
-116.919
 21
-24.5607
  0
LINE
  8
0
 10
-116.919
 20
-24.5607
 11
-116.86
 21
-24.3571
  0
LINE
  8
0
 10
-116.86
 20
-24.3571
 11
-116.788
 21
-24.1576
  0
LINE
  8
0
 10
-116.788
 20
-24.1576
 11
-116.704
 21
-23.963
  0
LINE
  8
0
 10
-116.704
 20
-23.963
 11
-116.608
 21
-23.7741
  0
LINE
  8
0
 10
-116.608
 20
-23.7741
 11
-116.5
 21
-23.5916
  0
LINE
  8
0
 10
-116.5
 20
-23.5916
 11
-116.38
 21
-23.4162
  0
LINE
  8
0
 10
-116.38
 20
-23.4162
 11
-116.25
 21
-23.2487
  0
LINE
  8
0
 10
-116.25
 20
-23.2487
 11
-116.11
 21
-23.0896
  0
LINE
  8
0
 10
-116.11
 20
-23.0896
 11
-115.96
 21
-22.9397
  0
LINE
  8
0
 10
-115.96
 20
-22.9397
 11
-115.801
 21
-22.7995
  0
LINE
  8
0
 10
-115.801
 20
-22.7995
 11
-115.634
 21
-22.6696
  0
LINE
  8
0
 10
-115.634
 20
-22.6696
 11
-115.458
 21
-22.5504
  0
LINE
  8
0
 10
-115.458
 20
-22.5504
 11
-115.276
 21
-22.4425
  0
LINE
  8
0
 10
-115.276
 20
-22.4425
 11
-115.087
 21
-22.3462
  0
LINE
  8
0
 10
-115.087
 20
-22.3462
 11
-114.892
 21
-22.262
  0
LINE
  8
0
 10
-114.892
 20
-22.262
 11
-114.693
 21
-22.1902
  0
LINE
  8
0
 10
-114.693
 20
-22.1902
 11
-114.489
 21
-22.131
  0
LINE
  8
0
 10
-114.489
 20
-22.131
 11
-114.282
 21
-22.0848
  0
LINE
  8
0
 10
-114.282
 20
-22.0848
 11
-114.073
 21
-22.0516
  0
LINE
  8
0
 10
-114.073
 20
-22.0516
 11
-113.862
 21
-22.0316
  0
LINE
  8
0
 10
-113.862
 20
-22.0316
 11
-113.65
 21
-22.025
  0
LINE
  8
0
 10
-113.65
 20
-22.025
 11
-113.438
 21
-22.0316
  0
LINE
  8
0
 10
-113.438
 20
-22.0316
 11
-113.227
 21
-22.0516
  0
LINE
  8
0
 10
-113.227
 20
-22.0516
 11
-113.018
 21
-22.0848
  0
LINE
  8
0
 10
-113.018
 20
-22.0848
 11
-112.811
 21
-22.131
  0
LINE
  8
0
 10
-112.811
 20
-22.131
 11
-112.607
 21
-22.1902
  0
LINE
  8
0
 10
-112.607
 20
-22.1902
 11
-112.408
 21
-22.262
  0
LINE
  8
0
 10
-112.408
 20
-22.262
 11
-112.213
 21
-22.3462
  0
LINE
  8
0
 10
-112.213
 20
-22.3462
 11
-112.024
 21
-22.4425
  0
LINE
  8
0
 10
-112.024
 20
-22.4425
 11
-111.842
 21
-22.5504
  0
LINE
  8
0
 10
-111.842
 20
-22.5504
 11
-111.666
 21
-22.6696
  0
LINE
  8
0
 10
-111.666
 20
-22.6696
 11
-111.499
 21
-22.7995
  0
LINE
  8
0
 10
-111.499
 20
-22.7995
 11
-111.34
 21
-22.9397
  0
LINE
  8
0
 10
-111.34
 20
-22.9397
 11
-111.19
 21
-23.0896
  0
LINE
  8
0
 10
-111.19
 20
-23.0896
 11
-111.05
 21
-23.2487
  0
LINE
  8
0
 10
-111.05
 20
-23.2487
 11
-110.92
 21
-23.4162
  0
LINE
  8
0
 10
-110.92
 20
-23.4162
 11
-110.8
 21
-23.5916
  0
LINE
  8
0
 10
-110.8
 20
-23.5916
 11
-110.692
 21
-23.7741
  0
LINE
  8
0
 10
-110.692
 20
-23.7741
 11
-110.596
 21
-23.963
  0
LINE
  8
0
 10
-110.596
 20
-23.963
 11
-110.512
 21
-24.1576
  0
LINE
  8
0
 10
-110.512
 20
-24.1576
 11
-110.44
 21
-24.3571
  0
LINE
  8
0
 10
-110.44
 20
-24.3571
 11
-110.381
 21
-24.5607
  0
LINE
  8
0
 10
-110.381
 20
-24.5607
 11
-110.335
 21
-24.7676
  0
LINE
  8
0
 10
-110.335
 20
-24.7676
 11
-110.302
 21
-24.977
  0
LINE
  8
0
 10
-110.302
 20
-24.977
 11
-110.282
 21
-25.1881
  0
LINE
  8
0
 10
-110.282
 20
-25.1881
 11
-110.275
 21
-25.4
  0
LINE
  8
0
 10
-110.275
 20
-25.4
 11
-110.282
 21
-25.6119
  0
LINE
  8
0
 10
-110.282
 20
-25.6119
 11
-110.302
 21
-25.823
  0
LINE
  8
0
 10
-110.302
 20
-25.823
 11
-110.335
 21
-26.0324
  0
LINE
  8
0
 10
-110.335
 20
-26.0324
 11
-110.381
 21
-26.2393
  0
LINE
  8
0
 10
-110.381
 20
-26.2393
 11
-110.44
 21
-26.4429
  0
LINE
  8
0
 10
-110.44
 20
-26.4429
 11
-110.512
 21
-26.6424
  0
LINE
  8
0
 10
-110.512
 20
-26.6424
 11
-110.596
 21
-26.837
  0
LINE
  8
0
 10
-110.596
 20
-26.837
 11
-110.692
 21
-27.0259
  0
LINE
  8
0
 10
-110.692
 20
-27.0259
 11
-110.8
 21
-27.2084
  0
LINE
  8
0
 10
-110.8
 20
-27.2084
 11
-110.92
 21
-27.3838
  0
LINE
  8
0
 10
-110.92
 20
-27.3838
 11
-111.05
 21
-27.5513
  0
LINE
  8
0
 10
-111.05
 20
-27.5513
 11
-111.19
 21
-27.7103
  0
LINE
  8
0
 10
-111.19
 20
-27.7103
 11
-111.34
 21
-27.8603
  0
LINE
  8
0
 10
-111.34
 20
-27.8603
 11
-111.499
 21
-28.0005
  0
LINE
  8
0
 10
-111.499
 20
-28.0005
 11
-111.666
 21
-28.1304
  0
LINE
  8
0
 10
-111.666
 20
-28.1304
 11
-111.842
 21
-28.2496
  0
LINE
  8
0
 10
-111.842
 20
-28.2496
 11
-112.024
 21
-28.3575
  0
LINE
  8
0
 10
-112.024
 20
-28.3575
 11
-112.213
 21
-28.4538
  0
LINE
  8
0
 10
-112.213
 20
-28.4538
 11
-112.408
 21
-28.538
  0
LINE
  8
0
 10
-112.408
 20
-28.538
 11
-112.607
 21
-28.6098
  0
LINE
  8
0
 10
-112.607
 20
-28.6098
 11
-112.811
 21
-28.669
  0
LINE
  8
0
 10
-112.811
 20
-28.669
 11
-113.018
 21
-28.7152
  0
LINE
  8
0
 10
-113.018
 20
-28.7152
 11
-113.227
 21
-28.7484
  0
LINE
  8
0
 10
-113.227
 20
-28.7484
 11
-113.438
 21
-28.7683
  0
LINE
  8
0
 10
-113.438
 20
-28.7683
 11
-113.65
 21
-28.775
  0
LINE
  8
0
 10
-113.65
 20
-28.775
 11
-113.862
 21
-28.7683
  0
LINE
  8
0
 10
113.438
 20
-54.1683
 11
113.227
 21
-54.1484
  0
LINE
  8
0
 10
113.227
 20
-54.1484
 11
113.018
 21
-54.1152
  0
LINE
  8
0
 10
113.018
 20
-54.1152
 11
112.811
 21
-54.069
  0
LINE
  8
0
 10
112.811
 20
-54.069
 11
112.607
 21
-54.0098
  0
LINE
  8
0
 10
112.607
 20
-54.0098
 11
112.408
 21
-53.938
  0
LINE
  8
0
 10
112.408
 20
-53.938
 11
112.213
 21
-53.8538
  0
LINE
  8
0
 10
112.213
 20
-53.8538
 11
112.024
 21
-53.7575
  0
LINE
  8
0
 10
112.024
 20
-53.7575
 11
111.842
 21
-53.6496
  0
LINE
  8
0
 10
111.842
 20
-53.6496
 11
111.666
 21
-53.5304
  0
LINE
  8
0
 10
111.666
 20
-53.5304
 11
111.499
 21
-53.4005
  0
LINE
  8
0
 10
111.499
 20
-53.4005
 11
111.34
 21
-53.2603
  0
LINE
  8
0
 10
111.34
 20
-53.2603
 11
111.19
 21
-53.1103
  0
LINE
  8
0
 10
111.19
 20
-53.1103
 11
111.05
 21
-52.9513
  0
LINE
  8
0
 10
111.05
 20
-52.9513
 11
110.92
 21
-52.7838
  0
LINE
  8
0
 10
110.92
 20
-52.7838
 11
110.8
 21
-52.6084
  0
LINE
  8
0
 10
110.8
 20
-52.6084
 11
110.692
 21
-52.4259
  0
LINE
  8
0
 10
110.692
 20
-52.4259
 11
110.596
 21
-52.237
  0
LINE
  8
0
 10
110.596
 20
-52.237
 11
110.512
 21
-52.0424
  0
LINE
  8
0
 10
110.512
 20
-52.0424
 11
110.44
 21
-51.8429
  0
LINE
  8
0
 10
110.44
 20
-51.8429
 11
110.381
 21
-51.6393
  0
LINE
  8
0
 10
110.381
 20
-51.6393
 11
110.335
 21
-51.4324
  0
LINE
  8
0
 10
110.335
 20
-51.4324
 11
110.302
 21
-51.223
  0
LINE
  8
0
 10
110.302
 20
-51.223
 11
110.282
 21
-51.0119
  0
LINE
  8
0
 10
110.282
 20
-51.0119
 11
110.275
 21
-50.8
  0
LINE
  8
0
 10
110.275
 20
-50.8
 11
110.282
 21
-50.5881
  0
LINE
  8
0
 10
110.282
 20
-50.5881
 11
110.302
 21
-50.377
  0
LINE
  8
0
 10
110.302
 20
-50.377
 11
110.335
 21
-50.1676
  0
LINE
  8
0
 10
110.335
 20
-50.1676
 11
110.381
 21
-49.9607
  0
LINE
  8
0
 10
110.381
 20
-49.9607
 11
110.44
 21
-49.7571
  0
LINE
  8
0
 10
110.44
 20
-49.7571
 11
110.512
 21
-49.5576
  0
LINE
  8
0
 10
110.512
 20
-49.5576
 11
110.596
 21
-49.363
  0
LINE
  8
0
 10
110.596
 20
-49.363
 11
110.692
 21
-49.1741
  0
LINE
  8
0
 10
110.692
 20
-49.1741
 11
110.8
 21
-48.9916
  0
LINE
  8
0
 10
110.8
 20
-48.9916
 11
110.92
 21
-48.8162
  0
LINE
  8
0
 10
110.92
 20
-48.8162
 11
111.05
 21
-48.6487
  0
LINE
  8
0
 10
111.05
 20
-48.6487
 11
111.19
 21
-48.4896
  0
LINE
  8
0
 10
111.19
 20
-48.4896
 11
111.34
 21
-48.3397
  0
LINE
  8
0
 10
111.34
 20
-48.3397
 11
111.499
 21
-48.1995
  0
LINE
  8
0
 10
111.499
 20
-48.1995
 11
111.666
 21
-48.0696
  0
LINE
  8
0
 10
111.666
 20
-48.0696
 11
111.842
 21
-47.9504
  0
LINE
  8
0
 10
111.842
 20
-47.9504
 11
112.024
 21
-47.8425
  0
LINE
  8
0
 10
112.024
 20
-47.8425
 11
112.213
 21
-47.7462
  0
LINE
  8
0
 10
112.213
 20
-47.7462
 11
112.408
 21
-47.662
  0
LINE
  8
0
 10
112.408
 20
-47.662
 11
112.607
 21
-47.5902
  0
LINE
  8
0
 10
112.607
 20
-47.5902
 11
112.811
 21
-47.531
  0
LINE
  8
0
 10
112.811
 20
-47.531
 11
113.018
 21
-47.4848
  0
LINE
  8
0
 10
113.018
 20
-47.4848
 11
113.227
 21
-47.4516
  0
LINE
  8
0
 10
113.227
 20
-47.4516
 11
113.438
 21
-47.4317
  0
LINE
  8
0
 10
113.438
 20
-47.4317
 11
113.65
 21
-47.425
  0
LINE
  8
0
 10
113.65
 20
-47.425
 11
113.862
 21
-47.4317
  0
LINE
  8
0
 10
113.862
 20
-47.4317
 11
114.073
 21
-47.4516
  0
LINE
  8
0
 10
114.073
 20
-47.4516
 11
114.282
 21
-47.4848
  0
LINE
  8
0
 10
114.282
 20
-47.4848
 11
114.489
 21
-47.531
  0
LINE
  8
0
 10
114.489
 20
-47.531
 11
114.693
 21
-47.5902
  0
LINE
  8
0
 10
114.693
 20
-47.5902
 11
114.892
 21
-47.662
  0
LINE
  8
0
 10
114.892
 20
-47.662
 11
115.087
 21
-47.7462
  0
LINE
  8
0
 10
115.087
 20
-47.7462
 11
115.276
 21
-47.8425
  0
LINE
  8
0
 10
115.276
 20
-47.8425
 11
115.458
 21
-47.9504
  0
LINE
  8
0
 10
115.458
 20
-47.9504
 11
115.634
 21
-48.0696
  0
LINE
  8
0
 10
115.634
 20
-48.0696
 11
115.801
 21
-48.1995
  0
LINE
  8
0
 10
115.801
 20
-48.1995
 11
115.96
 21
-48.3397
  0
LINE
  8
0
 10
115.96
 20
-48.3397
 11
116.11
 21
-48.4896
  0
LINE
  8
0
 10
116.11
 20
-48.4896
 11
116.25
 21
-48.6487
  0
LINE
  8
0
 10
116.25
 20
-48.6487
 11
116.38
 21
-48.8162
  0
LINE
  8
0
 10
116.38
 20
-48.8162
 11
116.5
 21
-48.9916
  0
LINE
  8
0
 10
116.5
 20
-48.9916
 11
116.608
 21
-49.1741
  0
LINE
  8
0
 10
116.608
 20
-49.1741
 11
116.704
 21
-49.363
  0
LINE
  8
0
 10
116.704
 20
-49.363
 11
116.788
 21
-49.5576
  0
LINE
  8
0
 10
116.788
 20
-49.5576
 11
116.86
 21
-49.7571
  0
LINE
  8
0
 10
116.86
 20
-49.7571
 11
116.919
 21
-49.9607
  0
LINE
  8
0
 10
116.919
 20
-49.9607
 11
116.965
 21
-50.1676
  0
LINE
  8
0
 10
116.965
 20
-50.1676
 11
116.998
 21
-50.377
  0
LINE
  8
0
 10
116.998
 20
-50.377
 11
117.018
 21
-50.5881
  0
LINE
  8
0
 10
117.018
 20
-50.5881
 11
117.025
 21
-50.8
  0
LINE
  8
0
 10
117.025
 20
-50.8
 11
117.018
 21
-51.0119
  0
LINE
  8
0
 10
117.018
 20
-51.0119
 11
116.998
 21
-51.223
  0
LINE
  8
0
 10
116.998
 20
-51.223
 11
116.965
 21
-51.4324
  0
LINE
  8
0
 10
116.965
 20
-51.4324
 11
116.919
 21
-51.6393
  0
LINE
  8
0
 10
116.919
 20
-51.6393
 11
116.86
 21
-51.8429
  0
LINE
  8
0
 10
116.86
 20
-51.8429
 11
116.788
 21
-52.0424
  0
LINE
  8
0
 10
116.788
 20
-52.0424
 11
116.704
 21
-52.237
  0
LINE
  8
0
 10
116.704
 20
-52.237
 11
116.608
 21
-52.4259
  0
LINE
  8
0
 10
116.608
 20
-52.4259
 11
116.5
 21
-52.6084
  0
LINE
  8
0
 10
116.5
 20
-52.6084
 11
116.38
 21
-52.7838
  0
LINE
  8
0
 10
116.38
 20
-52.7838
 11
116.25
 21
-52.9513
  0
LINE
  8
0
 10
116.25
 20
-52.9513
 11
116.11
 21
-53.1103
  0
LINE
  8
0
 10
116.11
 20
-53.1103
 11
115.96
 21
-53.2603
  0
LINE
  8
0
 10
115.96
 20
-53.2603
 11
115.801
 21
-53.4005
  0
LINE
  8
0
 10
115.801
 20
-53.4005
 11
115.634
 21
-53.5304
  0
LINE
  8
0
 10
115.634
 20
-53.5304
 11
115.458
 21
-53.6496
  0
LINE
  8
0
 10
115.458
 20
-53.6496
 11
115.276
 21
-53.7575
  0
LINE
  8
0
 10
115.276
 20
-53.7575
 11
115.087
 21
-53.8538
  0
LINE
  8
0
 10
115.087
 20
-53.8538
 11
114.892
 21
-53.938
  0
LINE
  8
0
 10
114.892
 20
-53.938
 11
114.693
 21
-54.0098
  0
LINE
  8
0
 10
114.693
 20
-54.0098
 11
114.489
 21
-54.069
  0
LINE
  8
0
 10
114.489
 20
-54.069
 11
114.282
 21
-54.1152
  0
LINE
  8
0
 10
114.282
 20
-54.1152
 11
114.073
 21
-54.1484
  0
LINE
  8
0
 10
114.073
 20
-54.1484
 11
113.862
 21
-54.1683
  0
LINE
  8
0
 10
113.862
 20
-54.1683
 11
113.65
 21
-54.175
  0
LINE
  8
0
 10
113.65
 20
-54.175
 11
113.438
 21
-54.1683
  0
LINE
  8
0
 10
-113.862
 20
-54.1683
 11
-114.073
 21
-54.1484
  0
LINE
  8
0
 10
-114.073
 20
-54.1484
 11
-114.282
 21
-54.1152
  0
LINE
  8
0
 10
-114.282
 20
-54.1152
 11
-114.489
 21
-54.069
  0
LINE
  8
0
 10
-114.489
 20
-54.069
 11
-114.693
 21
-54.0098
  0
LINE
  8
0
 10
-114.693
 20
-54.0098
 11
-114.892
 21
-53.938
  0
LINE
  8
0
 10
-114.892
 20
-53.938
 11
-115.087
 21
-53.8538
  0
LINE
  8
0
 10
-115.087
 20
-53.8538
 11
-115.276
 21
-53.7575
  0
LINE
  8
0
 10
-115.276
 20
-53.7575
 11
-115.458
 21
-53.6496
  0
LINE
  8
0
 10
-115.458
 20
-53.6496
 11
-115.634
 21
-53.5304
  0
LINE
  8
0
 10
-115.634
 20
-53.5304
 11
-115.801
 21
-53.4005
  0
LINE
  8
0
 10
-115.801
 20
-53.4005
 11
-115.96
 21
-53.2603
  0
LINE
  8
0
 10
-115.96
 20
-53.2603
 11
-116.11
 21
-53.1103
  0
LINE
  8
0
 10
-116.11
 20
-53.1103
 11
-116.25
 21
-52.9513
  0
LINE
  8
0
 10
-116.25
 20
-52.9513
 11
-116.38
 21
-52.7838
  0
LINE
  8
0
 10
-116.38
 20
-52.7838
 11
-116.5
 21
-52.6084
  0
LINE
  8
0
 10
-116.5
 20
-52.6084
 11
-116.608
 21
-52.4259
  0
LINE
  8
0
 10
-116.608
 20
-52.4259
 11
-116.704
 21
-52.237
  0
LINE
  8
0
 10
-116.704
 20
-52.237
 11
-116.788
 21
-52.0424
  0
LINE
  8
0
 10
-116.788
 20
-52.0424
 11
-116.86
 21
-51.8429
  0
LINE
  8
0
 10
-116.86
 20
-51.8429
 11
-116.919
 21
-51.6393
  0
LINE
  8
0
 10
-116.919
 20
-51.6393
 11
-116.965
 21
-51.4324
  0
LINE
  8
0
 10
-116.965
 20
-51.4324
 11
-116.998
 21
-51.223
  0
LINE
  8
0
 10
-116.998
 20
-51.223
 11
-117.018
 21
-51.0119
  0
LINE
  8
0
 10
-117.018
 20
-51.0119
 11
-117.025
 21
-50.8
  0
LINE
  8
0
 10
-117.025
 20
-50.8
 11
-117.018
 21
-50.5881
  0
LINE
  8
0
 10
-117.018
 20
-50.5881
 11
-116.998
 21
-50.377
  0
LINE
  8
0
 10
-116.998
 20
-50.377
 11
-116.965
 21
-50.1676
  0
LINE
  8
0
 10
-116.965
 20
-50.1676
 11
-116.919
 21
-49.9607
  0
LINE
  8
0
 10
-116.919
 20
-49.9607
 11
-116.86
 21
-49.7571
  0
LINE
  8
0
 10
-116.86
 20
-49.7571
 11
-116.788
 21
-49.5576
  0
LINE
  8
0
 10
-116.788
 20
-49.5576
 11
-116.704
 21
-49.363
  0
LINE
  8
0
 10
-116.704
 20
-49.363
 11
-116.608
 21
-49.1741
  0
LINE
  8
0
 10
-116.608
 20
-49.1741
 11
-116.5
 21
-48.9916
  0
LINE
  8
0
 10
-116.5
 20
-48.9916
 11
-116.38
 21
-48.8162
  0
LINE
  8
0
 10
-116.38
 20
-48.8162
 11
-116.25
 21
-48.6487
  0
LINE
  8
0
 10
-116.25
 20
-48.6487
 11
-116.11
 21
-48.4896
  0
LINE
  8
0
 10
-116.11
 20
-48.4896
 11
-115.96
 21
-48.3397
  0
LINE
  8
0
 10
-115.96
 20
-48.3397
 11
-115.801
 21
-48.1995
  0
LINE
  8
0
 10
-115.801
 20
-48.1995
 11
-115.634
 21
-48.0696
  0
LINE
  8
0
 10
-115.634
 20
-48.0696
 11
-115.458
 21
-47.9504
  0
LINE
  8
0
 10
-115.458
 20
-47.9504
 11
-115.276
 21
-47.8425
  0
LINE
  8
0
 10
-115.276
 20
-47.8425
 11
-115.087
 21
-47.7462
  0
LINE
  8
0
 10
-115.087
 20
-47.7462
 11
-114.892
 21
-47.662
  0
LINE
  8
0
 10
-114.892
 20
-47.662
 11
-114.693
 21
-47.5902
  0
LINE
  8
0
 10
-114.693
 20
-47.5902
 11
-114.489
 21
-47.531
  0
LINE
  8
0
 10
-114.489
 20
-47.531
 11
-114.282
 21
-47.4848
  0
LINE
  8
0
 10
-114.282
 20
-47.4848
 11
-114.073
 21
-47.4516
  0
LINE
  8
0
 10
-114.073
 20
-47.4516
 11
-113.862
 21
-47.4317
  0
LINE
  8
0
 10
-113.862
 20
-47.4317
 11
-113.65
 21
-47.425
  0
LINE
  8
0
 10
-113.65
 20
-47.425
 11
-113.438
 21
-47.4317
  0
LINE
  8
0
 10
-113.438
 20
-47.4317
 11
-113.227
 21
-47.4516
  0
LINE
  8
0
 10
-113.227
 20
-47.4516
 11
-113.018
 21
-47.4848
  0
LINE
  8
0
 10
-113.018
 20
-47.4848
 11
-112.811
 21
-47.531
  0
LINE
  8
0
 10
-112.811
 20
-47.531
 11
-112.607
 21
-47.5902
  0
LINE
  8
0
 10
-112.607
 20
-47.5902
 11
-112.408
 21
-47.662
  0
LINE
  8
0
 10
-112.408
 20
-47.662
 11
-112.213
 21
-47.7462
  0
LINE
  8
0
 10
-112.213
 20
-47.7462
 11
-112.024
 21
-47.8425
  0
LINE
  8
0
 10
-112.024
 20
-47.8425
 11
-111.842
 21
-47.9504
  0
LINE
  8
0
 10
-111.842
 20
-47.9504
 11
-111.666
 21
-48.0696
  0
LINE
  8
0
 10
-111.666
 20
-48.0696
 11
-111.499
 21
-48.1995
  0
LINE
  8
0
 10
-111.499
 20
-48.1995
 11
-111.34
 21
-48.3397
  0
LINE
  8
0
 10
-111.34
 20
-48.3397
 11
-111.19
 21
-48.4896
  0
LINE
  8
0
 10
-111.19
 20
-48.4896
 11
-111.05
 21
-48.6487
  0
LINE
  8
0
 10
-111.05
 20
-48.6487
 11
-110.92
 21
-48.8162
  0
LINE
  8
0
 10
-110.92
 20
-48.8162
 11
-110.8
 21
-48.9916
  0
LINE
  8
0
 10
-110.8
 20
-48.9916
 11
-110.692
 21
-49.1741
  0
LINE
  8
0
 10
-110.692
 20
-49.1741
 11
-110.596
 21
-49.363
  0
LINE
  8
0
 10
-110.596
 20
-49.363
 11
-110.512
 21
-49.5576
  0
LINE
  8
0
 10
-110.512
 20
-49.5576
 11
-110.44
 21
-49.7571
  0
LINE
  8
0
 10
-110.44
 20
-49.7571
 11
-110.381
 21
-49.9607
  0
LINE
  8
0
 10
-110.381
 20
-49.9607
 11
-110.335
 21
-50.1676
  0
LINE
  8
0
 10
-110.335
 20
-50.1676
 11
-110.302
 21
-50.377
  0
LINE
  8
0
 10
-110.302
 20
-50.377
 11
-110.282
 21
-50.5881
  0
LINE
  8
0
 10
-110.282
 20
-50.5881
 11
-110.275
 21
-50.8
  0
LINE
  8
0
 10
-110.275
 20
-50.8
 11
-110.282
 21
-51.0119
  0
LINE
  8
0
 10
-110.282
 20
-51.0119
 11
-110.302
 21
-51.223
  0
LINE
  8
0
 10
-110.302
 20
-51.223
 11
-110.335
 21
-51.4324
  0
LINE
  8
0
 10
-110.335
 20
-51.4324
 11
-110.381
 21
-51.6393
  0
LINE
  8
0
 10
-110.381
 20
-51.6393
 11
-110.44
 21
-51.8429
  0
LINE
  8
0
 10
-110.44
 20
-51.8429
 11
-110.512
 21
-52.0424
  0
LINE
  8
0
 10
-110.512
 20
-52.0424
 11
-110.596
 21
-52.237
  0
LINE
  8
0
 10
-110.596
 20
-52.237
 11
-110.692
 21
-52.4259
  0
LINE
  8
0
 10
-110.692
 20
-52.4259
 11
-110.8
 21
-52.6084
  0
LINE
  8
0
 10
-110.8
 20
-52.6084
 11
-110.92
 21
-52.7838
  0
LINE
  8
0
 10
-110.92
 20
-52.7838
 11
-111.05
 21
-52.9513
  0
LINE
  8
0
 10
-111.05
 20
-52.9513
 11
-111.19
 21
-53.1103
  0
LINE
  8
0
 10
-111.19
 20
-53.1103
 11
-111.34
 21
-53.2603
  0
LINE
  8
0
 10
-111.34
 20
-53.2603
 11
-111.499
 21
-53.4005
  0
LINE
  8
0
 10
-111.499
 20
-53.4005
 11
-111.666
 21
-53.5304
  0
LINE
  8
0
 10
-111.666
 20
-53.5304
 11
-111.842
 21
-53.6496
  0
LINE
  8
0
 10
-111.842
 20
-53.6496
 11
-112.024
 21
-53.7575
  0
LINE
  8
0
 10
-112.024
 20
-53.7575
 11
-112.213
 21
-53.8538
  0
LINE
  8
0
 10
-112.213
 20
-53.8538
 11
-112.408
 21
-53.938
  0
LINE
  8
0
 10
-112.408
 20
-53.938
 11
-112.607
 21
-54.0098
  0
LINE
  8
0
 10
-112.607
 20
-54.0098
 11
-112.811
 21
-54.069
  0
LINE
  8
0
 10
-112.811
 20
-54.069
 11
-113.018
 21
-54.1152
  0
LINE
  8
0
 10
-113.018
 20
-54.1152
 11
-113.227
 21
-54.1484
  0
LINE
  8
0
 10
-113.227
 20
-54.1484
 11
-113.438
 21
-54.1683
  0
LINE
  8
0
 10
-113.438
 20
-54.1683
 11
-113.65
 21
-54.175
  0
LINE
  8
0
 10
-113.65
 20
-54.175
 11
-113.862
 21
-54.1683
  0
ENDSEC
  0
SECTION
  2
OBJECTS
  0
DICTIONARY
  0
ENDSEC
  0
EOF
