  0
SECTION
  2
BLOCKS
  0
ENDSEC
  0
SECTION
  2
ENTITIES
  0
LINE
  8
0
 10
120.65
 20
49.81
 11
82.65
 21
49.81
  0
LINE
  8
0
 10
82.65
 20
49.81
 11
82.65
 21
101.6
  0
LINE
  8
0
 10
82.65
 20
101.6
 11
-120.65
 21
101.6
  0
LINE
  8
0
 10
-120.65
 20
101.6
 11
-120.65
 21
-101.6
  0
LINE
  8
0
 10
-120.65
 20
-101.6
 11
120.65
 21
-101.6
  0
LINE
  8
0
 10
120.65
 20
-101.6
 11
120.65
 21
49.81
  0
LINE
  8
0
 10
-101.931
 20
24.5065
 11
-102.135
 21
24.5258
  0
LINE
  8
0
 10
-102.135
 20
24.5258
 11
-102.339
 21
24.558
  0
LINE
  8
0
 10
-102.339
 20
24.558
 11
-102.539
 21
24.6029
  0
LINE
  8
0
 10
-102.539
 20
24.6029
 11
-102.737
 21
24.6603
  0
LINE
  8
0
 10
-102.737
 20
24.6603
 11
-102.931
 21
24.73
  0
LINE
  8
0
 10
-102.931
 20
24.73
 11
-103.119
 21
24.8117
  0
LINE
  8
0
 10
-103.119
 20
24.8117
 11
-103.303
 21
24.9051
  0
LINE
  8
0
 10
-103.303
 20
24.9051
 11
-103.48
 21
25.0098
  0
LINE
  8
0
 10
-103.48
 20
25.0098
 11
-103.65
 21
25.1255
  0
LINE
  8
0
 10
-103.65
 20
25.1255
 11
-103.813
 21
25.2516
  0
LINE
  8
0
 10
-103.813
 20
25.2516
 11
-103.967
 21
25.3876
  0
LINE
  8
0
 10
-103.967
 20
25.3876
 11
-104.112
 21
25.5331
  0
LINE
  8
0
 10
-104.112
 20
25.5331
 11
-104.248
 21
25.6874
  0
LINE
  8
0
 10
-104.248
 20
25.6874
 11
-104.375
 21
25.85
  0
LINE
  8
0
 10
-104.375
 20
25.85
 11
-104.49
 21
26.0202
  0
LINE
  8
0
 10
-104.49
 20
26.0202
 11
-104.595
 21
26.1973
  0
LINE
  8
0
 10
-104.595
 20
26.1973
 11
-104.688
 21
26.3806
  0
LINE
  8
0
 10
-104.688
 20
26.3806
 11
-104.77
 21
26.5694
  0
LINE
  8
0
 10
-104.77
 20
26.5694
 11
-104.84
 21
26.763
  0
LINE
  8
0
 10
-104.84
 20
26.763
 11
-104.897
 21
26.9605
  0
LINE
  8
0
 10
-104.897
 20
26.9605
 11
-104.942
 21
27.1613
  0
LINE
  8
0
 10
-104.942
 20
27.1613
 11
-104.974
 21
27.3645
  0
LINE
  8
0
 10
-104.974
 20
27.3645
 11
-104.994
 21
27.5694
  0
LINE
  8
0
 10
-104.994
 20
27.5694
 11
-105
 21
27.775
  0
LINE
  8
0
 10
-105
 20
27.775
 11
-104.994
 21
27.9806
  0
LINE
  8
0
 10
-104.994
 20
27.9806
 11
-104.974
 21
28.1855
  0
LINE
  8
0
 10
-104.974
 20
28.1855
 11
-104.942
 21
28.3887
  0
LINE
  8
0
 10
-104.942
 20
28.3887
 11
-104.897
 21
28.5894
  0
LINE
  8
0
 10
-104.897
 20
28.5894
 11
-104.84
 21
28.787
  0
LINE
  8
0
 10
-104.84
 20
28.787
 11
-104.77
 21
28.9806
  0
LINE
  8
0
 10
-104.77
 20
28.9806
 11
-104.688
 21
29.1694
  0
LINE
  8
0
 10
-104.688
 20
29.1694
 11
-104.595
 21
29.3527
  0
LINE
  8
0
 10
-104.595
 20
29.3527
 11
-104.49
 21
29.5298
  0
LINE
  8
0
 10
-104.49
 20
29.5298
 11
-104.375
 21
29.7
  0
LINE
  8
0
 10
-104.375
 20
29.7
 11
-104.248
 21
29.8625
  0
LINE
  8
0
 10
-104.248
 20
29.8625
 11
-104.112
 21
30.0169
  0
LINE
  8
0
 10
-104.112
 20
30.0169
 11
-103.967
 21
30.1624
  0
LINE
  8
0
 10
-103.967
 20
30.1624
 11
-103.813
 21
30.2984
  0
LINE
  8
0
 10
-103.813
 20
30.2984
 11
-103.65
 21
30.4245
  0
LINE
  8
0
 10
-103.65
 20
30.4245
 11
-103.48
 21
30.5402
  0
LINE
  8
0
 10
-103.48
 20
30.5402
 11
-103.303
 21
30.6449
  0
LINE
  8
0
 10
-103.303
 20
30.6449
 11
-103.119
 21
30.7383
  0
LINE
  8
0
 10
-103.119
 20
30.7383
 11
-102.931
 21
30.82
  0
LINE
  8
0
 10
-102.931
 20
30.82
 11
-102.737
 21
30.8897
  0
LINE
  8
0
 10
-102.737
 20
30.8897
 11
-102.539
 21
30.9471
  0
LINE
  8
0
 10
-102.539
 20
30.9471
 11
-102.339
 21
30.992
  0
LINE
  8
0
 10
-102.339
 20
30.992
 11
-102.135
 21
31.0242
  0
LINE
  8
0
 10
-102.135
 20
31.0242
 11
-101.931
 21
31.0435
  0
LINE
  8
0
 10
-101.931
 20
31.0435
 11
-101.725
 21
31.05
  0
LINE
  8
0
 10
-101.725
 20
31.05
 11
-101.519
 21
31.0435
  0
LINE
  8
0
 10
-101.519
 20
31.0435
 11
-101.315
 21
31.0242
  0
LINE
  8
0
 10
-101.315
 20
31.0242
 11
-101.111
 21
30.992
  0
LINE
  8
0
 10
-101.111
 20
30.992
 11
-100.911
 21
30.9471
  0
LINE
  8
0
 10
-100.911
 20
30.9471
 11
-100.713
 21
30.8897
  0
LINE
  8
0
 10
-100.713
 20
30.8897
 11
-100.519
 21
30.82
  0
LINE
  8
0
 10
-100.519
 20
30.82
 11
-100.331
 21
30.7383
  0
LINE
  8
0
 10
-100.331
 20
30.7383
 11
-100.147
 21
30.6449
  0
LINE
  8
0
 10
-100.147
 20
30.6449
 11
-99.9702
 21
30.5402
  0
LINE
  8
0
 10
-99.9702
 20
30.5402
 11
-99.8
 21
30.4245
  0
LINE
  8
0
 10
-99.8
 20
30.4245
 11
-99.6374
 21
30.2984
  0
LINE
  8
0
 10
-99.6374
 20
30.2984
 11
-99.4831
 21
30.1624
  0
LINE
  8
0
 10
-99.4831
 20
30.1624
 11
-99.3376
 21
30.0169
  0
LINE
  8
0
 10
-99.3376
 20
30.0169
 11
-99.2016
 21
29.8625
  0
LINE
  8
0
 10
-99.2016
 20
29.8625
 11
-99.0755
 21
29.7
  0
LINE
  8
0
 10
-99.0755
 20
29.7
 11
-98.9598
 21
29.5298
  0
LINE
  8
0
 10
-98.9598
 20
29.5298
 11
-98.8551
 21
29.3527
  0
LINE
  8
0
 10
-98.8551
 20
29.3527
 11
-98.7617
 21
29.1694
  0
LINE
  8
0
 10
-98.7617
 20
29.1694
 11
-98.68
 21
28.9806
  0
LINE
  8
0
 10
-98.68
 20
28.9806
 11
-98.6103
 21
28.787
  0
LINE
  8
0
 10
-98.6103
 20
28.787
 11
-98.5529
 21
28.5894
  0
LINE
  8
0
 10
-98.5529
 20
28.5894
 11
-98.508
 21
28.3887
  0
LINE
  8
0
 10
-98.508
 20
28.3887
 11
-98.4758
 21
28.1855
  0
LINE
  8
0
 10
-98.4758
 20
28.1855
 11
-98.4565
 21
27.9806
  0
LINE
  8
0
 10
-98.4565
 20
27.9806
 11
-98.45
 21
27.775
  0
LINE
  8
0
 10
-98.45
 20
27.775
 11
-98.4565
 21
27.5694
  0
LINE
  8
0
 10
-98.4565
 20
27.5694
 11
-98.4758
 21
27.3645
  0
LINE
  8
0
 10
-98.4758
 20
27.3645
 11
-98.508
 21
27.1613
  0
LINE
  8
0
 10
-98.508
 20
27.1613
 11
-98.5529
 21
26.9605
  0
LINE
  8
0
 10
-98.5529
 20
26.9605
 11
-98.6103
 21
26.763
  0
LINE
  8
0
 10
-98.6103
 20
26.763
 11
-98.68
 21
26.5694
  0
LINE
  8
0
 10
-98.68
 20
26.5694
 11
-98.7617
 21
26.3806
  0
LINE
  8
0
 10
-98.7617
 20
26.3806
 11
-98.8551
 21
26.1973
  0
LINE
  8
0
 10
-98.8551
 20
26.1973
 11
-98.9598
 21
26.0202
  0
LINE
  8
0
 10
-98.9598
 20
26.0202
 11
-99.0755
 21
25.85
  0
LINE
  8
0
 10
-99.0755
 20
25.85
 11
-99.2016
 21
25.6874
  0
LINE
  8
0
 10
-99.2016
 20
25.6874
 11
-99.3376
 21
25.5331
  0
LINE
  8
0
 10
-99.3376
 20
25.5331
 11
-99.4831
 21
25.3876
  0
LINE
  8
0
 10
-99.4831
 20
25.3876
 11
-99.6374
 21
25.2516
  0
LINE
  8
0
 10
-99.6374
 20
25.2516
 11
-99.8
 21
25.1255
  0
LINE
  8
0
 10
-99.8
 20
25.1255
 11
-99.9702
 21
25.0098
  0
LINE
  8
0
 10
-99.9702
 20
25.0098
 11
-100.147
 21
24.9051
  0
LINE
  8
0
 10
-100.147
 20
24.9051
 11
-100.331
 21
24.8117
  0
LINE
  8
0
 10
-100.331
 20
24.8117
 11
-100.519
 21
24.73
  0
LINE
  8
0
 10
-100.519
 20
24.73
 11
-100.713
 21
24.6603
  0
LINE
  8
0
 10
-100.713
 20
24.6603
 11
-100.911
 21
24.6029
  0
LINE
  8
0
 10
-100.911
 20
24.6029
 11
-101.111
 21
24.558
  0
LINE
  8
0
 10
-101.111
 20
24.558
 11
-101.315
 21
24.5258
  0
LINE
  8
0
 10
-101.315
 20
24.5258
 11
-101.519
 21
24.5065
  0
LINE
  8
0
 10
-101.519
 20
24.5065
 11
-101.725
 21
24.5
  0
LINE
  8
0
 10
-101.725
 20
24.5
 11
-101.931
 21
24.5065
  0
LINE
  8
0
 10
-101.931
 20
-31.6435
 11
-102.135
 21
-31.6242
  0
LINE
  8
0
 10
-102.135
 20
-31.6242
 11
-102.339
 21
-31.592
  0
LINE
  8
0
 10
-102.339
 20
-31.592
 11
-102.539
 21
-31.5471
  0
LINE
  8
0
 10
-102.539
 20
-31.5471
 11
-102.737
 21
-31.4897
  0
LINE
  8
0
 10
-102.737
 20
-31.4897
 11
-102.931
 21
-31.42
  0
LINE
  8
0
 10
-102.931
 20
-31.42
 11
-103.119
 21
-31.3383
  0
LINE
  8
0
 10
-103.119
 20
-31.3383
 11
-103.303
 21
-31.2449
  0
LINE
  8
0
 10
-103.303
 20
-31.2449
 11
-103.48
 21
-31.1402
  0
LINE
  8
0
 10
-103.48
 20
-31.1402
 11
-103.65
 21
-31.0245
  0
LINE
  8
0
 10
-103.65
 20
-31.0245
 11
-103.813
 21
-30.8984
  0
LINE
  8
0
 10
-103.813
 20
-30.8984
 11
-103.967
 21
-30.7624
  0
LINE
  8
0
 10
-103.967
 20
-30.7624
 11
-104.112
 21
-30.6169
  0
LINE
  8
0
 10
-104.112
 20
-30.6169
 11
-104.248
 21
-30.4626
  0
LINE
  8
0
 10
-104.248
 20
-30.4626
 11
-104.375
 21
-30.3
  0
LINE
  8
0
 10
-104.375
 20
-30.3
 11
-104.49
 21
-30.1298
  0
LINE
  8
0
 10
-104.49
 20
-30.1298
 11
-104.595
 21
-29.9527
  0
LINE
  8
0
 10
-104.595
 20
-29.9527
 11
-104.688
 21
-29.7694
  0
LINE
  8
0
 10
-104.688
 20
-29.7694
 11
-104.77
 21
-29.5806
  0
LINE
  8
0
 10
-104.77
 20
-29.5806
 11
-104.84
 21
-29.387
  0
LINE
  8
0
 10
-104.84
 20
-29.387
 11
-104.897
 21
-29.1895
  0
LINE
  8
0
 10
-104.897
 20
-29.1895
 11
-104.942
 21
-28.9887
  0
LINE
  8
0
 10
-104.942
 20
-28.9887
 11
-104.974
 21
-28.7855
  0
LINE
  8
0
 10
-104.974
 20
-28.7855
 11
-104.994
 21
-28.5806
  0
LINE
  8
0
 10
-104.994
 20
-28.5806
 11
-105
 21
-28.375
  0
LINE
  8
0
 10
-105
 20
-28.375
 11
-104.994
 21
-28.1694
  0
LINE
  8
0
 10
-104.994
 20
-28.1694
 11
-104.974
 21
-27.9645
  0
LINE
  8
0
 10
-104.974
 20
-27.9645
 11
-104.942
 21
-27.7613
  0
LINE
  8
0
 10
-104.942
 20
-27.7613
 11
-104.897
 21
-27.5605
  0
LINE
  8
0
 10
-104.897
 20
-27.5605
 11
-104.84
 21
-27.363
  0
LINE
  8
0
 10
-104.84
 20
-27.363
 11
-104.77
 21
-27.1694
  0
LINE
  8
0
 10
-104.77
 20
-27.1694
 11
-104.688
 21
-26.9806
  0
LINE
  8
0
 10
-104.688
 20
-26.9806
 11
-104.595
 21
-26.7973
  0
LINE
  8
0
 10
-104.595
 20
-26.7973
 11
-104.49
 21
-26.6202
  0
LINE
  8
0
 10
-104.49
 20
-26.6202
 11
-104.375
 21
-26.45
  0
LINE
  8
0
 10
-104.375
 20
-26.45
 11
-104.248
 21
-26.2874
  0
LINE
  8
0
 10
-104.248
 20
-26.2874
 11
-104.112
 21
-26.1331
  0
LINE
  8
0
 10
-104.112
 20
-26.1331
 11
-103.967
 21
-25.9876
  0
LINE
  8
0
 10
-103.967
 20
-25.9876
 11
-103.813
 21
-25.8516
  0
LINE
  8
0
 10
-103.813
 20
-25.8516
 11
-103.65
 21
-25.7255
  0
LINE
  8
0
 10
-103.65
 20
-25.7255
 11
-103.48
 21
-25.6098
  0
LINE
  8
0
 10
-103.48
 20
-25.6098
 11
-103.303
 21
-25.5051
  0
LINE
  8
0
 10
-103.303
 20
-25.5051
 11
-103.119
 21
-25.4117
  0
LINE
  8
0
 10
-103.119
 20
-25.4117
 11
-102.931
 21
-25.33
  0
LINE
  8
0
 10
-102.931
 20
-25.33
 11
-102.737
 21
-25.2603
  0
LINE
  8
0
 10
-102.737
 20
-25.2603
 11
-102.539
 21
-25.2029
  0
LINE
  8
0
 10
-102.539
 20
-25.2029
 11
-102.339
 21
-25.158
  0
LINE
  8
0
 10
-102.339
 20
-25.158
 11
-102.135
 21
-25.1258
  0
LINE
  8
0
 10
-102.135
 20
-25.1258
 11
-101.931
 21
-25.1065
  0
LINE
  8
0
 10
-101.931
 20
-25.1065
 11
-101.725
 21
-25.1
  0
LINE
  8
0
 10
-101.725
 20
-25.1
 11
-101.519
 21
-25.1065
  0
LINE
  8
0
 10
-101.519
 20
-25.1065
 11
-101.315
 21
-25.1258
  0
LINE
  8
0
 10
-101.315
 20
-25.1258
 11
-101.111
 21
-25.158
  0
LINE
  8
0
 10
-101.111
 20
-25.158
 11
-100.911
 21
-25.2029
  0
LINE
  8
0
 10
-100.911
 20
-25.2029
 11
-100.713
 21
-25.2603
  0
LINE
  8
0
 10
-100.713
 20
-25.2603
 11
-100.519
 21
-25.33
  0
LINE
  8
0
 10
-100.519
 20
-25.33
 11
-100.331
 21
-25.4117
  0
LINE
  8
0
 10
-100.331
 20
-25.4117
 11
-100.147
 21
-25.5051
  0
LINE
  8
0
 10
-100.147
 20
-25.5051
 11
-99.9702
 21
-25.6098
  0
LINE
  8
0
 10
-99.9702
 20
-25.6098
 11
-99.8
 21
-25.7255
  0
LINE
  8
0
 10
-99.8
 20
-25.7255
 11
-99.6374
 21
-25.8516
  0
LINE
  8
0
 10
-99.6374
 20
-25.8516
 11
-99.4831
 21
-25.9876
  0
LINE
  8
0
 10
-99.4831
 20
-25.9876
 11
-99.3376
 21
-26.1331
  0
LINE
  8
0
 10
-99.3376
 20
-26.1331
 11
-99.2016
 21
-26.2874
  0
LINE
  8
0
 10
-99.2016
 20
-26.2874
 11
-99.0755
 21
-26.45
  0
LINE
  8
0
 10
-99.0755
 20
-26.45
 11
-98.9598
 21
-26.6202
  0
LINE
  8
0
 10
-98.9598
 20
-26.6202
 11
-98.8551
 21
-26.7973
  0
LINE
  8
0
 10
-98.8551
 20
-26.7973
 11
-98.7617
 21
-26.9806
  0
LINE
  8
0
 10
-98.7617
 20
-26.9806
 11
-98.68
 21
-27.1694
  0
LINE
  8
0
 10
-98.68
 20
-27.1694
 11
-98.6103
 21
-27.363
  0
LINE
  8
0
 10
-98.6103
 20
-27.363
 11
-98.5529
 21
-27.5605
  0
LINE
  8
0
 10
-98.5529
 20
-27.5605
 11
-98.508
 21
-27.7613
  0
LINE
  8
0
 10
-98.508
 20
-27.7613
 11
-98.4758
 21
-27.9645
  0
LINE
  8
0
 10
-98.4758
 20
-27.9645
 11
-98.4565
 21
-28.1694
  0
LINE
  8
0
 10
-98.4565
 20
-28.1694
 11
-98.45
 21
-28.375
  0
LINE
  8
0
 10
-98.45
 20
-28.375
 11
-98.4565
 21
-28.5806
  0
LINE
  8
0
 10
-98.4565
 20
-28.5806
 11
-98.4758
 21
-28.7855
  0
LINE
  8
0
 10
-98.4758
 20
-28.7855
 11
-98.508
 21
-28.9887
  0
LINE
  8
0
 10
-98.508
 20
-28.9887
 11
-98.5529
 21
-29.1895
  0
LINE
  8
0
 10
-98.5529
 20
-29.1895
 11
-98.6103
 21
-29.387
  0
LINE
  8
0
 10
-98.6103
 20
-29.387
 11
-98.68
 21
-29.5806
  0
LINE
  8
0
 10
-98.68
 20
-29.5806
 11
-98.7617
 21
-29.7694
  0
LINE
  8
0
 10
-98.7617
 20
-29.7694
 11
-98.8551
 21
-29.9527
  0
LINE
  8
0
 10
-98.8551
 20
-29.9527
 11
-98.9598
 21
-30.1298
  0
LINE
  8
0
 10
-98.9598
 20
-30.1298
 11
-99.0755
 21
-30.3
  0
LINE
  8
0
 10
-99.0755
 20
-30.3
 11
-99.2016
 21
-30.4626
  0
LINE
  8
0
 10
-99.2016
 20
-30.4626
 11
-99.3376
 21
-30.6169
  0
LINE
  8
0
 10
-99.3376
 20
-30.6169
 11
-99.4831
 21
-30.7624
  0
LINE
  8
0
 10
-99.4831
 20
-30.7624
 11
-99.6374
 21
-30.8984
  0
LINE
  8
0
 10
-99.6374
 20
-30.8984
 11
-99.8
 21
-31.0245
  0
LINE
  8
0
 10
-99.8
 20
-31.0245
 11
-99.9702
 21
-31.1402
  0
LINE
  8
0
 10
-99.9702
 20
-31.1402
 11
-100.147
 21
-31.2449
  0
LINE
  8
0
 10
-100.147
 20
-31.2449
 11
-100.331
 21
-31.3383
  0
LINE
  8
0
 10
-100.331
 20
-31.3383
 11
-100.519
 21
-31.42
  0
LINE
  8
0
 10
-100.519
 20
-31.42
 11
-100.713
 21
-31.4897
  0
LINE
  8
0
 10
-100.713
 20
-31.4897
 11
-100.911
 21
-31.5471
  0
LINE
  8
0
 10
-100.911
 20
-31.5471
 11
-101.111
 21
-31.592
  0
LINE
  8
0
 10
-101.111
 20
-31.592
 11
-101.315
 21
-31.6242
  0
LINE
  8
0
 10
-101.315
 20
-31.6242
 11
-101.519
 21
-31.6435
  0
LINE
  8
0
 10
-101.519
 20
-31.6435
 11
-101.725
 21
-31.65
  0
LINE
  8
0
 10
-101.725
 20
-31.65
 11
-101.931
 21
-31.6435
  0
ENDSEC
  0
SECTION
  2
OBJECTS
  0
DICTIONARY
  0
ENDSEC
  0
EOF
