  0
SECTION
  2
HEADER
  9
$ACADVER
  1
AC1009
  9
$DWGCODEPAGE
  3
ANSI_1252
  9
$INSBASE
 10
0.0
 20
0.0
 30
0.0
  9
$EXTMIN
 10
1e+20
 20
1e+20
 30
1e+20
  9
$EXTMAX
 10
-1e+20
 20
-1e+20
 30
-1e+20
  9
$LIMMIN
 10
0.0
 20
0.0
  9
$LIMMAX
 10
420.0
 20
297.0
  9
$ORTHOMODE
 70
0
  9
$REGENMODE
 70
1
  9
$FILLMODE
 70
1
  9
$DRAGMODE
 70
2
  9
$QTEXTMODE
 70
0
  9
$MIRRTEXT
 70
1
  9
$OSMODE
 70
20583
  9
$LTSCALE
 40
1.0
  9
$ATTMODE
 70
1
  9
$TEXTSIZE
 40
2.5
  9
$TRACEWID
 40
1.0
  9
$TEXTSTYLE
  7
Standard
  9
$CLAYER
  8
0
  9
$CELTYPE
  6
ByLayer
  9
$CECOLOR
 62
256
  9
$DIMSCALE
 40
1.0
  9
$DIMASZ
 40
2.5
  9
$DIMEXO
 40
0.625
  9
$DIMDLI
 40
3.75
  9
$DIMRND
 40
0.0
  9
$DIMDLE
 40
0.0
  9
$DIMEXE
 40
1.25
  9
$DIMTP
 40
0.0
  9
$DIMTM
 40
0.0
  9
$DIMTXT
 40
2.5
  9
$DIMCEN
 40
2.5
  9
$DIMTSZ
 40
0.0
  9
$DIMTOL
 70
0
  9
$DIMLIM
 70
0
  9
$DIMTIH
 70
0
  9
$DIMTOH
 70
0
  9
$DIMSE1
 70
0
  9
$DIMSE2
 70
0
  9
$DIMTAD
 70
1
  9
$DIMZIN
 70
8
  9
$DIMBLK
  1

  9
$DIMASO
 70
1
  9
$DIMSHO
 70
1
  9
$DIMPOST
  1

  9
$DIMAPOST
  1

  9
$DIMALT
 70
0
  9
$DIMALTD
 70
3
  9
$DIMALTF
 40
0.03937007874
  9
$DIMLFAC
 40
1.0
  9
$DIMTOFL
 70
1
  9
$DIMTVP
 40
0.0
  9
$DIMTIX
 70
0
  9
$DIMSOXD
 70
0
  9
$DIMSAH
 70
0
  9
$DIMBLK1
  1

  9
$DIMBLK2
  1

  9
$DIMSTYLE
  2
ISO-25
  9
$DIMCLRD
 70
0
  9
$DIMCLRE
 70
0
  9
$DIMCLRT
 70
0
  9
$DIMTFAC
 40
1.0
  9
$DIMGAP
 40
0.625
  9
$COORDS
 70
1
  9
$ATTDIA
 70
0
  9
$ATTREQ
 70
1
  9
$HANDLING
 70
1
  9
$LUNITS
 70
2
  9
$LUPREC
 70
4
  9
$SKETCHINC
 40
1.0
  9
$FILLETRAD
 40
10.0
  9
$AUNITS
 70
0
  9
$AUPREC
 70
2
  9
$MENU
  1
.
  9
$ELEVATION
 40
0.0
  9
$PELEVATION
 40
0.0
  9
$THICKNESS
 40
0.0
  9
$LIMCHECK
 70
0
  9
$CHAMFERA
 40
0.0
  9
$CHAMFERB
 40
0.0
  9
$SKPOLY
 70
0
  9
$TDCREATE
 40
2461285.4524421296
  9
$TDUPDATE
 40
2461285.4524421296
  9
$TDINDWG
 40
0.0
  9
$TDUSRTIMER
 40
0.0
  9
$USRTIMER
 70
1
  9
$ANGBASE
 50
0.0
  9
$ANGDIR
 70
0
  9
$PDMODE
 70
0
  9
$PDSIZE
 40
0.0
  9
$PLINEWID
 40
0.0
  9
$SPLFRAME
 70
0
  9
$SPLINETYPE
 70
6
  9
$SPLINESEGS
 70
8
  9
$HANDSEED
  5
39D
  9
$SURFTAB1
 70
6
  9
$SURFTAB2
 70
6
  9
$SURFTYPE
 70
6
  9
$SURFU
 70
6
  9
$SURFV
 70
6
  9
$UCSNAME
  2

  9
$UCSORG
 10
0.0
 20
0.0
 30
0.0
  9
$UCSXDIR
 10
1.0
 20
0.0
 30
0.0
  9
$UCSYDIR
 10
0.0
 20
1.0
 30
0.0
  9
$PUCSNAME
  2

  9
$PUCSORG
 10
0.0
 20
0.0
 30
0.0
  9
$PUCSXDIR
 10
1.0
 20
0.0
 30
0.0
  9
$PUCSYDIR
 10
0.0
 20
1.0
 30
0.0
  9
$USERI1
 70
0
  9
$USERI2
 70
0
  9
$USERI3
 70
0
  9
$USERI4
 70
0
  9
$USERI5
 70
0
  9
$USERR1
 40
0.0
  9
$USERR2
 40
0.0
  9
$USERR3
 40
0.0
  9
$USERR4
 40
0.0
  9
$USERR5
 40
0.0
  9
$WORLDVIEW
 70
1
  9
$SHADEDGE
 70
3
  9
$SHADEDIF
 70
70
  9
$TILEMODE
 70
1
  9
$MAXACTVP
 70
64
  9
$PLIMCHECK
 70
0
  9
$PEXTMIN
 10
1e+20
 20
1e+20
 30
1e+20
  9
$PEXTMAX
 10
-1e+20
 20
-1e+20
 30
-1e+20
  9
$PLIMMIN
 10
0.0
 20
0.0
  9
$PLIMMAX
 10
420.0
 20
297.0
  9
$UNITMODE
 70
0
  9
$VISRETAIN
 70
1
  9
$PLINEGEN
 70
0
  9
$PSLTSCALE
 70
1
  0
ENDSEC
  0
SECTION
  2
TABLES
  0
TABLE
  2
VPORT
 70
1
  0
VPORT
  5
391
  2
*Active
 70
0
 10
0.0
 20
0.0
 11
1.0
 21
1.0
 12
0.0
 22
0.0
 13
0.0
 23
0.0
 14
0.5
 24
0.5
 15
0.5
 25
0.5
 16
0.0
 26
0.0
 36
1.0
 17
0.0
 27
0.0
 37
0.0
 40
1000.0
 41
1.34
 42
50.0
 43
0.0
 44
0.0
 50
0.0
 51
0.0
 71
0
 72
1000
 73
1
 74
3
 75
0
 76
0
 77
0
 78
0
  0
ENDTAB
  0
TABLE
  2
LTYPE
 70
3
  0
LTYPE
  5
392
  2
ByBlock
 70
0
  3

 72
65
 73
0
 40
0.0
  0
LTYPE
  5
393
  2
ByLayer
 70
0
  3

 72
65
 73
0
 40
0.0
  0
LTYPE
  5
394
  2
Continuous
 70
0
  3

 72
65
 73
0
 40
0.0
  0
ENDTAB
  0
TABLE
  2
LAYER
 70
2
  0
LAYER
  5
395
  2
0
 70
0
 62
1
  6
Continuous
  0
LAYER
  5
396
  2
Defpoints
 70
0
 62
7
  6
Continuous
  0
ENDTAB
  0
TABLE
  2
STYLE
 70
1
  0
STYLE
  5
397
  2
Standard
 70
0
 40
0.0
 41
1.0
 50
0.0
 71
0
 42
2.5
  3
txt
  4

  0
ENDTAB
  0
TABLE
  2
VIEW
 70
0
  0
ENDTAB
  0
TABLE
  2
UCS
 70
0
  0
ENDTAB
  0
TABLE
  2
APPID
 70
3
  0
APPID
  5
398
  2
ACAD
 70
0
  0
APPID
  5
39B
  2
HATCHBACKGROUNDCOLOR
 70
0
  0
APPID
  5
39C
  2
EZDXF
 70
0
  0
ENDTAB
  0
TABLE
  2
DIMSTYLE
 70
1
  0
DIMSTYLE
105
399
  2
Standard
 70
0
  3

  4

  5

  6

  7

 40
1.0
 41
2.5
 42
0.625
 43
3.75
 44
1.25
 45
0.0
 46
0.0
 47
0.0
 48
0.0
140
2.5
141
2.5
142
0.0
143
0.03937007874
144
1.0
145
0.0
146
1.0
147
0.625
 71
0
 72
0
 73
0
 74
0
 75
0
 76
0
 77
1
 78
8
170
0
171
3
172
1
173
0
174
0
175
0
176
0
177
0
178
0
  0
ENDTAB
  0
ENDSEC
  0
SECTION
  2
BLOCKS
  0
BLOCK
  5
372
  8
0
  2
$Model_Space
 70
0
 10
0.0
 20
0.0
 30
0.0
  3
$Model_Space
  1

1001
EZDXF
1000
WRITTEN_BY_EZDXF
1000
1.4.4 @ 2026-09-01T14:51:31.974839+00:00
  0
ENDBLK
  5
373
  8
0
  0
BLOCK
  5
374
  8
0
  2
$Paper_Space
 70
0
 10
0.0
 20
0.0
 30
0.0
  3
$Paper_Space
  1

  0
ENDBLK
  5
375
  8
0
  0
ENDSEC
  0
SECTION
  2
ENTITIES
  0
LINE
  5
100
  8
0
 62
1
 10
120.65
 20
43.46
 30
0.0
 11
76.3
 21
43.46
 31
0.0
  0
LINE
  5
101
  8
0
 62
1
 10
76.3
 20
43.46
 30
0.0
 11
76.3
 21
101.6
 31
0.0
  0
LINE
  5
102
  8
0
 62
1
 10
76.3
 20
101.6
 30
0.0
 11
-120.65
 21
101.6
 31
0.0
  0
LINE
  5
103
  8
0
 62
1
 10
-120.65
 20
101.6
 30
0.0
 11
-120.65
 21
-95.26
 31
0.0
  0
LINE
  5
104
  8
0
 62
1
 10
-120.65
 20
-95.26
 30
0.0
 11
120.65
 21
-95.26
 31
0.0
  0
LINE
  5
105
  8
0
 62
1
 10
120.65
 20
-95.26
 30
0.0
 11
120.65
 21
43.46
 31
0.0
  0
LINE
  5
106
  8
0
 62
1
 10
-101.931
 20
24.5065
 30
0.0
 11
-102.135
 21
24.5258
 31
0.0
  0
LINE
  5
107
  8
0
 62
1
 10
-102.135
 20
24.5258
 30
0.0
 11
-102.339
 21
24.558
 31
0.0
  0
LINE
  5
108
  8
0
 62
1
 10
-102.339
 20
24.558
 30
0.0
 11
-102.539
 21
24.6029
 31
0.0
  0
LINE
  5
109
  8
0
 62
1
 10
-102.539
 20
24.6029
 30
0.0
 11
-102.737
 21
24.6603
 31
0.0
  0
LINE
  5
10A
  8
0
 62
1
 10
-102.737
 20
24.6603
 30
0.0
 11
-102.931
 21
24.73
 31
0.0
  0
LINE
  5
10B
  8
0
 62
1
 10
-102.931
 20
24.73
 30
0.0
 11
-103.119
 21
24.8117
 31
0.0
  0
LINE
  5
10C
  8
0
 62
1
 10
-103.119
 20
24.8117
 30
0.0
 11
-103.303
 21
24.9051
 31
0.0
  0
LINE
  5
10D
  8
0
 62
1
 10
-103.303
 20
24.9051
 30
0.0
 11
-103.48
 21
25.0098
 31
0.0
  0
LINE
  5
10E
  8
0
 62
1
 10
-103.48
 20
25.0098
 30
0.0
 11
-103.65
 21
25.1255
 31
0.0
  0
LINE
  5
10F
  8
0
 62
1
 10
-103.65
 20
25.1255
 30
0.0
 11
-103.813
 21
25.2516
 31
0.0
  0
LINE
  5
110
  8
0
 62
1
 10
-103.813
 20
25.2516
 30
0.0
 11
-103.967
 21
25.3876
 31
0.0
  0
LINE
  5
111
  8
0
 62
1
 10
-103.967
 20
25.3876
 30
0.0
 11
-104.112
 21
25.5331
 31
0.0
  0
LINE
  5
112
  8
0
 62
1
 10
-104.112
 20
25.5331
 30
0.0
 11
-104.248
 21
25.6874
 31
0.0
  0
LINE
  5
113
  8
0
 62
1
 10
-104.248
 20
25.6874
 30
0.0
 11
-104.375
 21
25.85
 31
0.0
  0
LINE
  5
114
  8
0
 62
1
 10
-104.375
 20
25.85
 30
0.0
 11
-104.49
 21
26.0202
 31
0.0
  0
LINE
  5
115
  8
0
 62
1
 10
-104.49
 20
26.0202
 30
0.0
 11
-104.595
 21
26.1973
 31
0.0
  0
LINE
  5
116
  8
0
 62
1
 10
-104.595
 20
26.1973
 30
0.0
 11
-104.688
 21
26.3806
 31
0.0
  0
LINE
  5
117
  8
0
 62
1
 10
-104.688
 20
26.3806
 30
0.0
 11
-104.77
 21
26.5694
 31
0.0
  0
LINE
  5
118
  8
0
 62
1
 10
-104.77
 20
26.5694
 30
0.0
 11
-104.84
 21
26.763
 31
0.0
  0
LINE
  5
119
  8
0
 62
1
 10
-104.84
 20
26.763
 30
0.0
 11
-104.897
 21
26.9605
 31
0.0
  0
LINE
  5
11A
  8
0
 62
1
 10
-104.897
 20
26.9605
 30
0.0
 11
-104.942
 21
27.1613
 31
0.0
  0
LINE
  5
11B
  8
0
 62
1
 10
-104.942
 20
27.1613
 30
0.0
 11
-104.974
 21
27.3645
 31
0.0
  0
LINE
  5
11C
  8
0
 62
1
 10
-104.974
 20
27.3645
 30
0.0
 11
-104.994
 21
27.5694
 31
0.0
  0
LINE
  5
11D
  8
0
 62
1
 10
-104.994
 20
27.5694
 30
0.0
 11
-105.0
 21
27.775
 31
0.0
  0
LINE
  5
11E
  8
0
 62
1
 10
-105.0
 20
27.775
 30
0.0
 11
-104.994
 21
27.9806
 31
0.0
  0
LINE
  5
11F
  8
0
 62
1
 10
-104.994
 20
27.9806
 30
0.0
 11
-104.974
 21
28.1855
 31
0.0
  0
LINE
  5
120
  8
0
 62
1
 10
-104.974
 20
28.1855
 30
0.0
 11
-104.942
 21
28.3887
 31
0.0
  0
LINE
  5
121
  8
0
 62
1
 10
-104.942
 20
28.3887
 30
0.0
 11
-104.897
 21
28.5894
 31
0.0
  0
LINE
  5
122
  8
0
 62
1
 10
-104.897
 20
28.5894
 30
0.0
 11
-104.84
 21
28.787
 31
0.0
  0
LINE
  5
123
  8
0
 62
1
 10
-104.84
 20
28.787
 30
0.0
 11
-104.77
 21
28.9806
 31
0.0
  0
LINE
  5
124
  8
0
 62
1
 10
-104.77
 20
28.9806
 30
0.0
 11
-104.688
 21
29.1694
 31
0.0
  0
LINE
  5
125
  8
0
 62
1
 10
-104.688
 20
29.1694
 30
0.0
 11
-104.595
 21
29.3527
 31
0.0
  0
LINE
  5
126
  8
0
 62
1
 10
-104.595
 20
29.3527
 30
0.0
 11
-104.49
 21
29.5298
 31
0.0
  0
LINE
  5
127
  8
0
 62
1
 10
-104.49
 20
29.5298
 30
0.0
 11
-104.375
 21
29.7
 31
0.0
  0
LINE
  5
128
  8
0
 62
1
 10
-104.375
 20
29.7
 30
0.0
 11
-104.248
 21
29.8625
 31
0.0
  0
LINE
  5
129
  8
0
 62
1
 10
-104.248
 20
29.8625
 30
0.0
 11
-104.112
 21
30.0169
 31
0.0
  0
LINE
  5
12A
  8
0
 62
1
 10
-104.112
 20
30.0169
 30
0.0
 11
-103.967
 21
30.1624
 31
0.0
  0
LINE
  5
12B
  8
0
 62
1
 10
-103.967
 20
30.1624
 30
0.0
 11
-103.813
 21
30.2984
 31
0.0
  0
LINE
  5
12C
  8
0
 62
1
 10
-103.813
 20
30.2984
 30
0.0
 11
-103.65
 21
30.4245
 31
0.0
  0
LINE
  5
12D
  8
0
 62
1
 10
-103.65
 20
30.4245
 30
0.0
 11
-103.48
 21
30.5402
 31
0.0
  0
LINE
  5
12E
  8
0
 62
1
 10
-103.48
 20
30.5402
 30
0.0
 11
-103.303
 21
30.6449
 31
0.0
  0
LINE
  5
12F
  8
0
 62
1
 10
-103.303
 20
30.6449
 30
0.0
 11
-103.119
 21
30.7383
 31
0.0
  0
LINE
  5
130
  8
0
 62
1
 10
-103.119
 20
30.7383
 30
0.0
 11
-102.931
 21
30.82
 31
0.0
  0
LINE
  5
131
  8
0
 62
1
 10
-102.931
 20
30.82
 30
0.0
 11
-102.737
 21
30.8897
 31
0.0
  0
LINE
  5
132
  8
0
 62
1
 10
-102.737
 20
30.8897
 30
0.0
 11
-102.539
 21
30.9471
 31
0.0
  0
LINE
  5
133
  8
0
 62
1
 10
-102.539
 20
30.9471
 30
0.0
 11
-102.339
 21
30.992
 31
0.0
  0
LINE
  5
134
  8
0
 62
1
 10
-102.339
 20
30.992
 30
0.0
 11
-102.135
 21
31.0242
 31
0.0
  0
LINE
  5
135
  8
0
 62
1
 10
-102.135
 20
31.0242
 30
0.0
 11
-101.931
 21
31.0435
 31
0.0
  0
LINE
  5
136
  8
0
 62
1
 10
-101.931
 20
31.0435
 30
0.0
 11
-101.725
 21
31.05
 31
0.0
  0
LINE
  5
137
  8
0
 62
1
 10
-101.725
 20
31.05
 30
0.0
 11
-101.519
 21
31.0435
 31
0.0
  0
LINE
  5
138
  8
0
 62
1
 10
-101.519
 20
31.0435
 30
0.0
 11
-101.315
 21
31.0242
 31
0.0
  0
LINE
  5
139
  8
0
 62
1
 10
-101.315
 20
31.0242
 30
0.0
 11
-101.111
 21
30.992
 31
0.0
  0
LINE
  5
13A
  8
0
 62
1
 10
-101.111
 20
30.992
 30
0.0
 11
-100.911
 21
30.9471
 31
0.0
  0
LINE
  5
13B
  8
0
 62
1
 10
-100.911
 20
30.9471
 30
0.0
 11
-100.713
 21
30.8897
 31
0.0
  0
LINE
  5
13C
  8
0
 62
1
 10
-100.713
 20
30.8897
 30
0.0
 11
-100.519
 21
30.82
 31
0.0
  0
LINE
  5
13D
  8
0
 62
1
 10
-100.519
 20
30.82
 30
0.0
 11
-100.331
 21
30.7383
 31
0.0
  0
LINE
  5
13E
  8
0
 62
1
 10
-100.331
 20
30.7383
 30
0.0
 11
-100.147
 21
30.6449
 31
0.0
  0
LINE
  5
13F
  8
0
 62
1
 10
-100.147
 20
30.6449
 30
0.0
 11
-99.9702
 21
30.5402
 31
0.0
  0
LINE
  5
140
  8
0
 62
1
 10
-99.9702
 20
30.5402
 30
0.0
 11
-99.8
 21
30.4245
 31
0.0
  0
LINE
  5
141
  8
0
 62
1
 10
-99.8
 20
30.4245
 30
0.0
 11
-99.6374
 21
30.2984
 31
0.0
  0
LINE
  5
142
  8
0
 62
1
 10
-99.6374
 20
30.2984
 30
0.0
 11
-99.4831
 21
30.1624
 31
0.0
  0
LINE
  5
143
  8
0
 62
1
 10
-99.4831
 20
30.1624
 30
0.0
 11
-99.3376
 21
30.0169
 31
0.0
  0
LINE
  5
144
  8
0
 62
1
 10
-99.3376
 20
30.0169
 30
0.0
 11
-99.2016
 21
29.8625
 31
0.0
  0
LINE
  5
145
  8
0
 62
1
 10
-99.2016
 20
29.8625
 30
0.0
 11
-99.0755
 21
29.7
 31
0.0
  0
LINE
  5
146
  8
0
 62
1
 10
-99.0755
 20
29.7
 30
0.0
 11
-98.9598
 21
29.5298
 31
0.0
  0
LINE
  5
147
  8
0
 62
1
 10
-98.9598
 20
29.5298
 30
0.0
 11
-98.8551
 21
29.3527
 31
0.0
  0
LINE
  5
148
  8
0
 62
1
 10
-98.8551
 20
29.3527
 30
0.0
 11
-98.7617
 21
29.1694
 31
0.0
  0
LINE
  5
149
  8
0
 62
1
 10
-98.7617
 20
29.1694
 30
0.0
 11
-98.68
 21
28.9806
 31
0.0
  0
LINE
  5
14A
  8
0
 62
1
 10
-98.68
 20
28.9806
 30
0.0
 11
-98.6103
 21
28.787
 31
0.0
  0
LINE
  5
14B
  8
0
 62
1
 10
-98.6103
 20
28.787
 30
0.0
 11
-98.5529
 21
28.5894
 31
0.0
  0
LINE
  5
14C
  8
0
 62
1
 10
-98.5529
 20
28.5894
 30
0.0
 11
-98.508
 21
28.3887
 31
0.0
  0
LINE
  5
14D
  8
0
 62
1
 10
-98.508
 20
28.3887
 30
0.0
 11
-98.4758
 21
28.1855
 31
0.0
  0
LINE
  5
14E
  8
0
 62
1
 10
-98.4758
 20
28.1855
 30
0.0
 11
-98.4565
 21
27.9806
 31
0.0
  0
LINE
  5
14F
  8
0
 62
1
 10
-98.4565
 20
27.9806
 30
0.0
 11
-98.45
 21
27.775
 31
0.0
  0
LINE
  5
150
  8
0
 62
1
 10
-98.45
 20
27.775
 30
0.0
 11
-98.4565
 21
27.5694
 31
0.0
  0
LINE
  5
151
  8
0
 62
1
 10
-98.4565
 20
27.5694
 30
0.0
 11
-98.4758
 21
27.3645
 31
0.0
  0
LINE
  5
152
  8
0
 62
1
 10
-98.4758
 20
27.3645
 30
0.0
 11
-98.508
 21
27.1613
 31
0.0
  0
LINE
  5
153
  8
0
 62
1
 10
-98.508
 20
27.1613
 30
0.0
 11
-98.5529
 21
26.9605
 31
0.0
  0
LINE
  5
154
  8
0
 62
1
 10
-98.5529
 20
26.9605
 30
0.0
 11
-98.6103
 21
26.763
 31
0.0
  0
LINE
  5
155
  8
0
 62
1
 10
-98.6103
 20
26.763
 30
0.0
 11
-98.68
 21
26.5694
 31
0.0
  0
LINE
  5
156
  8
0
 62
1
 10
-98.68
 20
26.5694
 30
0.0
 11
-98.7617
 21
26.3806
 31
0.0
  0
LINE
  5
157
  8
0
 62
1
 10
-98.7617
 20
26.3806
 30
0.0
 11
-98.8551
 21
26.1973
 31
0.0
  0
LINE
  5
158
  8
0
 62
1
 10
-98.8551
 20
26.1973
 30
0.0
 11
-98.9598
 21
26.0202
 31
0.0
  0
LINE
  5
159
  8
0
 62
1
 10
-98.9598
 20
26.0202
 30
0.0
 11
-99.0755
 21
25.85
 31
0.0
  0
LINE
  5
15A
  8
0
 62
1
 10
-99.0755
 20
25.85
 30
0.0
 11
-99.2016
 21
25.6874
 31
0.0
  0
LINE
  5
15B
  8
0
 62
1
 10
-99.2016
 20
25.6874
 30
0.0
 11
-99.3376
 21
25.5331
 31
0.0
  0
LINE
  5
15C
  8
0
 62
1
 10
-99.3376
 20
25.5331
 30
0.0
 11
-99.4831
 21
25.3876
 31
0.0
  0
LINE
  5
15D
  8
0
 62
1
 10
-99.4831
 20
25.3876
 30
0.0
 11
-99.6374
 21
25.2516
 31
0.0
  0
LINE
  5
15E
  8
0
 62
1
 10
-99.6374
 20
25.2516
 30
0.0
 11
-99.8
 21
25.1255
 31
0.0
  0
LINE
  5
15F
  8
0
 62
1
 10
-99.8
 20
25.1255
 30
0.0
 11
-99.9702
 21
25.0098
 31
0.0
  0
LINE
  5
160
  8
0
 62
1
 10
-99.9702
 20
25.0098
 30
0.0
 11
-100.147
 21
24.9051
 31
0.0
  0
LINE
  5
161
  8
0
 62
1
 10
-100.147
 20
24.9051
 30
0.0
 11
-100.331
 21
24.8117
 31
0.0
  0
LINE
  5
162
  8
0
 62
1
 10
-100.331
 20
24.8117
 30
0.0
 11
-100.519
 21
24.73
 31
0.0
  0
LINE
  5
163
  8
0
 62
1
 10
-100.519
 20
24.73
 30
0.0
 11
-100.713
 21
24.6603
 31
0.0
  0
LINE
  5
164
  8
0
 62
1
 10
-100.713
 20
24.6603
 30
0.0
 11
-100.911
 21
24.6029
 31
0.0
  0
LINE
  5
165
  8
0
 62
1
 10
-100.911
 20
24.6029
 30
0.0
 11
-101.111
 21
24.558
 31
0.0
  0
LINE
  5
166
  8
0
 62
1
 10
-101.111
 20
24.558
 30
0.0
 11
-101.315
 21
24.5258
 31
0.0
  0
LINE
  5
167
  8
0
 62
1
 10
-101.315
 20
24.5258
 30
0.0
 11
-101.519
 21
24.5065
 31
0.0
  0
LINE
  5
168
  8
0
 62
1
 10
-101.519
 20
24.5065
 30
0.0
 11
-101.725
 21
24.5
 31
0.0
  0
LINE
  5
169
  8
0
 62
1
 10
-101.725
 20
24.5
 30
0.0
 11
-101.931
 21
24.5065
 31
0.0
  0
LINE
  5
16A
  8
0
 62
1
 10
-50.8
 20
-36.175
 30
0.0
 11
-50.8
 21
-10.775
 31
0.0
  0
LINE
  5
16B
  8
0
 62
1
 10
-50.8
 20
-10.775
 30
0.0
 11
-25.4
 21
-10.775
 31
0.0
  0
LINE
  5
16C
  8
0
 62
1
 10
-25.4
 20
-10.775
 30
0.0
 11
-25.4
 21
-36.175
 31
0.0
  0
LINE
  5
16D
  8
0
 62
1
 10
-25.4
 20
-36.175
 30
0.0
 11
-50.8
 21
-36.175
 31
0.0
  0
LINE
  5
16E
  8
0
 62
1
 10
25.4
 20
-36.175
 30
0.0
 11
25.4
 21
-10.775
 31
0.0
  0
LINE
  5
16F
  8
0
 62
1
 10
25.4
 20
-10.775
 30
0.0
 11
50.8
 21
-10.775
 31
0.0
  0
LINE
  5
170
  8
0
 62
1
 10
50.8
 20
-10.775
 30
0.0
 11
50.8
 21
-36.175
 31
0.0
  0
LINE
  5
171
  8
0
 62
1
 10
50.8
 20
-36.175
 30
0.0
 11
25.4
 21
-36.175
 31
0.0
  0
LINE
  5
172
  8
0
 62
1
 10
-101.931
 20
-31.6435
 30
0.0
 11
-102.135
 21
-31.6242
 31
0.0
  0
LINE
  5
173
  8
0
 62
1
 10
-102.135
 20
-31.6242
 30
0.0
 11
-102.339
 21
-31.592
 31
0.0
  0
LINE
  5
174
  8
0
 62
1
 10
-102.339
 20
-31.592
 30
0.0
 11
-102.539
 21
-31.5471
 31
0.0
  0
LINE
  5
175
  8
0
 62
1
 10
-102.539
 20
-31.5471
 30
0.0
 11
-102.737
 21
-31.4897
 31
0.0
  0
LINE
  5
176
  8
0
 62
1
 10
-102.737
 20
-31.4897
 30
0.0
 11
-102.931
 21
-31.42
 31
0.0
  0
LINE
  5
177
  8
0
 62
1
 10
-102.931
 20
-31.42
 30
0.0
 11
-103.119
 21
-31.3383
 31
0.0
  0
LINE
  5
178
  8
0
 62
1
 10
-103.119
 20
-31.3383
 30
0.0
 11
-103.303
 21
-31.2449
 31
0.0
  0
LINE
  5
179
  8
0
 62
1
 10
-103.303
 20
-31.2449
 30
0.0
 11
-103.48
 21
-31.1402
 31
0.0
  0
LINE
  5
17A
  8
0
 62
1
 10
-103.48
 20
-31.1402
 30
0.0
 11
-103.65
 21
-31.0245
 31
0.0
  0
LINE
  5
17B
  8
0
 62
1
 10
-103.65
 20
-31.0245
 30
0.0
 11
-103.813
 21
-30.8984
 31
0.0
  0
LINE
  5
17C
  8
0
 62
1
 10
-103.813
 20
-30.8984
 30
0.0
 11
-103.967
 21
-30.7624
 31
0.0
  0
LINE
  5
17D
  8
0
 62
1
 10
-103.967
 20
-30.7624
 30
0.0
 11
-104.112
 21
-30.6169
 31
0.0
  0
LINE
  5
17E
  8
0
 62
1
 10
-104.112
 20
-30.6169
 30
0.0
 11
-104.248
 21
-30.4626
 31
0.0
  0
LINE
  5
17F
  8
0
 62
1
 10
-104.248
 20
-30.4626
 30
0.0
 11
-104.375
 21
-30.3
 31
0.0
  0
LINE
  5
180
  8
0
 62
1
 10
-104.375
 20
-30.3
 30
0.0
 11
-104.49
 21
-30.1298
 31
0.0
  0
LINE
  5
181
  8
0
 62
1
 10
-104.49
 20
-30.1298
 30
0.0
 11
-104.595
 21
-29.9527
 31
0.0
  0
LINE
  5
182
  8
0
 62
1
 10
-104.595
 20
-29.9527
 30
0.0
 11
-104.688
 21
-29.7694
 31
0.0
  0
LINE
  5
183
  8
0
 62
1
 10
-104.688
 20
-29.7694
 30
0.0
 11
-104.77
 21
-29.5806
 31
0.0
  0
LINE
  5
184
  8
0
 62
1
 10
-104.77
 20
-29.5806
 30
0.0
 11
-104.84
 21
-29.387
 31
0.0
  0
LINE
  5
185
  8
0
 62
1
 10
-104.84
 20
-29.387
 30
0.0
 11
-104.897
 21
-29.1895
 31
0.0
  0
LINE
  5
186
  8
0
 62
1
 10
-104.897
 20
-29.1895
 30
0.0
 11
-104.942
 21
-28.9887
 31
0.0
  0
LINE
  5
187
  8
0
 62
1
 10
-104.942
 20
-28.9887
 30
0.0
 11
-104.974
 21
-28.7855
 31
0.0
  0
LINE
  5
188
  8
0
 62
1
 10
-104.974
 20
-28.7855
 30
0.0
 11
-104.994
 21
-28.5806
 31
0.0
  0
LINE
  5
189
  8
0
 62
1
 10
-104.994
 20
-28.5806
 30
0.0
 11
-105.0
 21
-28.375
 31
0.0
  0
LINE
  5
18A
  8
0
 62
1
 10
-105.0
 20
-28.375
 30
0.0
 11
-104.994
 21
-28.1694
 31
0.0
  0
LINE
  5
18B
  8
0
 62
1
 10
-104.994
 20
-28.1694
 30
0.0
 11
-104.974
 21
-27.9645
 31
0.0
  0
LINE
  5
18C
  8
0
 62
1
 10
-104.974
 20
-27.9645
 30
0.0
 11
-104.942
 21
-27.7613
 31
0.0
  0
LINE
  5
18D
  8
0
 62
1
 10
-104.942
 20
-27.7613
 30
0.0
 11
-104.897
 21
-27.5605
 31
0.0
  0
LINE
  5
18E
  8
0
 62
1
 10
-104.897
 20
-27.5605
 30
0.0
 11
-104.84
 21
-27.363
 31
0.0
  0
LINE
  5
18F
  8
0
 62
1
 10
-104.84
 20
-27.363
 30
0.0
 11
-104.77
 21
-27.1694
 31
0.0
  0
LINE
  5
190
  8
0
 62
1
 10
-104.77
 20
-27.1694
 30
0.0
 11
-104.688
 21
-26.9806
 31
0.0
  0
LINE
  5
191
  8
0
 62
1
 10
-104.688
 20
-26.9806
 30
0.0
 11
-104.595
 21
-26.7973
 31
0.0
  0
LINE
  5
192
  8
0
 62
1
 10
-104.595
 20
-26.7973
 30
0.0
 11
-104.49
 21
-26.6202
 31
0.0
  0
LINE
  5
193
  8
0
 62
1
 10
-104.49
 20
-26.6202
 30
0.0
 11
-104.375
 21
-26.45
 31
0.0
  0
LINE
  5
194
  8
0
 62
1
 10
-104.375
 20
-26.45
 30
0.0
 11
-104.248
 21
-26.2874
 31
0.0
  0
LINE
  5
195
  8
0
 62
1
 10
-104.248
 20
-26.2874
 30
0.0
 11
-104.112
 21
-26.1331
 31
0.0
  0
LINE
  5
196
  8
0
 62
1
 10
-104.112
 20
-26.1331
 30
0.0
 11
-103.967
 21
-25.9876
 31
0.0
  0
LINE
  5
197
  8
0
 62
1
 10
-103.967
 20
-25.9876
 30
0.0
 11
-103.813
 21
-25.8516
 31
0.0
  0
LINE
  5
198
  8
0
 62
1
 10
-103.813
 20
-25.8516
 30
0.0
 11
-103.65
 21
-25.7255
 31
0.0
  0
LINE
  5
199
  8
0
 62
1
 10
-103.65
 20
-25.7255
 30
0.0
 11
-103.48
 21
-25.6098
 31
0.0
  0
LINE
  5
19A
  8
0
 62
1
 10
-103.48
 20
-25.6098
 30
0.0
 11
-103.303
 21
-25.5051
 31
0.0
  0
LINE
  5
19B
  8
0
 62
1
 10
-103.303
 20
-25.5051
 30
0.0
 11
-103.119
 21
-25.4117
 31
0.0
  0
LINE
  5
19C
  8
0
 62
1
 10
-103.119
 20
-25.4117
 30
0.0
 11
-102.931
 21
-25.33
 31
0.0
  0
LINE
  5
19D
  8
0
 62
1
 10
-102.931
 20
-25.33
 30
0.0
 11
-102.737
 21
-25.2603
 31
0.0
  0
LINE
  5
19E
  8
0
 62
1
 10
-102.737
 20
-25.2603
 30
0.0
 11
-102.539
 21
-25.2029
 31
0.0
  0
LINE
  5
19F
  8
0
 62
1
 10
-102.539
 20
-25.2029
 30
0.0
 11
-102.339
 21
-25.158
 31
0.0
  0
LINE
  5
1A0
  8
0
 62
1
 10
-102.339
 20
-25.158
 30
0.0
 11
-102.135
 21
-25.1258
 31
0.0
  0
LINE
  5
1A1
  8
0
 62
1
 10
-102.135
 20
-25.1258
 30
0.0
 11
-101.931
 21
-25.1065
 31
0.0
  0
LINE
  5
1A2
  8
0
 62
1
 10
-101.931
 20
-25.1065
 30
0.0
 11
-101.725
 21
-25.1
 31
0.0
  0
LINE
  5
1A3
  8
0
 62
1
 10
-101.725
 20
-25.1
 30
0.0
 11
-101.519
 21
-25.1065
 31
0.0
  0
LINE
  5
1A4
  8
0
 62
1
 10
-101.519
 20
-25.1065
 30
0.0
 11
-101.315
 21
-25.1258
 31
0.0
  0
LINE
  5
1A5
  8
0
 62
1
 10
-101.315
 20
-25.1258
 30
0.0
 11
-101.111
 21
-25.158
 31
0.0
  0
LINE
  5
1A6
  8
0
 62
1
 10
-101.111
 20
-25.158
 30
0.0
 11
-100.911
 21
-25.2029
 31
0.0
  0
LINE
  5
1A7
  8
0
 62
1
 10
-100.911
 20
-25.2029
 30
0.0
 11
-100.713
 21
-25.2603
 31
0.0
  0
LINE
  5
1A8
  8
0
 62
1
 10
-100.713
 20
-25.2603
 30
0.0
 11
-100.519
 21
-25.33
 31
0.0
  0
LINE
  5
1A9
  8
0
 62
1
 10
-100.519
 20
-25.33
 30
0.0
 11
-100.331
 21
-25.4117
 31
0.0
  0
LINE
  5
1AA
  8
0
 62
1
 10
-100.331
 20
-25.4117
 30
0.0
 11
-100.147
 21
-25.5051
 31
0.0
  0
LINE
  5
1AB
  8
0
 62
1
 10
-100.147
 20
-25.5051
 30
0.0
 11
-99.9702
 21
-25.6098
 31
0.0
  0
LINE
  5
1AC
  8
0
 62
1
 10
-99.9702
 20
-25.6098
 30
0.0
 11
-99.8
 21
-25.7255
 31
0.0
  0
LINE
  5
1AD
  8
0
 62
1
 10
-99.8
 20
-25.7255
 30
0.0
 11
-99.6374
 21
-25.8516
 31
0.0
  0
LINE
  5
1AE
  8
0
 62
1
 10
-99.6374
 20
-25.8516
 30
0.0
 11
-99.4831
 21
-25.9876
 31
0.0
  0
LINE
  5
1AF
  8
0
 62
1
 10
-99.4831
 20
-25.9876
 30
0.0
 11
-99.3376
 21
-26.1331
 31
0.0
  0
LINE
  5
1B0
  8
0
 62
1
 10
-99.3376
 20
-26.1331
 30
0.0
 11
-99.2016
 21
-26.2874
 31
0.0
  0
LINE
  5
1B1
  8
0
 62
1
 10
-99.2016
 20
-26.2874
 30
0.0
 11
-99.0755
 21
-26.45
 31
0.0
  0
LINE
  5
1B2
  8
0
 62
1
 10
-99.0755
 20
-26.45
 30
0.0
 11
-98.9598
 21
-26.6202
 31
0.0
  0
LINE
  5
1B3
  8
0
 62
1
 10
-98.9598
 20
-26.6202
 30
0.0
 11
-98.8551
 21
-26.7973
 31
0.0
  0
LINE
  5
1B4
  8
0
 62
1
 10
-98.8551
 20
-26.7973
 30
0.0
 11
-98.7617
 21
-26.9806
 31
0.0
  0
LINE
  5
1B5
  8
0
 62
1
 10
-98.7617
 20
-26.9806
 30
0.0
 11
-98.68
 21
-27.1694
 31
0.0
  0
LINE
  5
1B6
  8
0
 62
1
 10
-98.68
 20
-27.1694
 30
0.0
 11
-98.6103
 21
-27.363
 31
0.0
  0
LINE
  5
1B7
  8
0
 62
1
 10
-98.6103
 20
-27.363
 30
0.0
 11
-98.5529
 21
-27.5605
 31
0.0
  0
LINE
  5
1B8
  8
0
 62
1
 10
-98.5529
 20
-27.5605
 30
0.0
 11
-98.508
 21
-27.7613
 31
0.0
  0
LINE
  5
1B9
  8
0
 62
1
 10
-98.508
 20
-27.7613
 30
0.0
 11
-98.4758
 21
-27.9645
 31
0.0
  0
LINE
  5
1BA
  8
0
 62
1
 10
-98.4758
 20
-27.9645
 30
0.0
 11
-98.4565
 21
-28.1694
 31
0.0
  0
LINE
  5
1BB
  8
0
 62
1
 10
-98.4565
 20
-28.1694
 30
0.0
 11
-98.45
 21
-28.375
 31
0.0
  0
LINE
  5
1BC
  8
0
 62
1
 10
-98.45
 20
-28.375
 30
0.0
 11
-98.4565
 21
-28.5806
 31
0.0
  0
LINE
  5
1BD
  8
0
 62
1
 10
-98.4565
 20
-28.5806
 30
0.0
 11
-98.4758
 21
-28.7855
 31
0.0
  0
LINE
  5
1BE
  8
0
 62
1
 10
-98.4758
 20
-28.7855
 30
0.0
 11
-98.508
 21
-28.9887
 31
0.0
  0
LINE
  5
1BF
  8
0
 62
1
 10
-98.508
 20
-28.9887
 30
0.0
 11
-98.5529
 21
-29.1895
 31
0.0
  0
LINE
  5
1C0
  8
0
 62
1
 10
-98.5529
 20
-29.1895
 30
0.0
 11
-98.6103
 21
-29.387
 31
0.0
  0
LINE
  5
1C1
  8
0
 62
1
 10
-98.6103
 20
-29.387
 30
0.0
 11
-98.68
 21
-29.5806
 31
0.0
  0
LINE
  5
1C2
  8
0
 62
1
 10
-98.68
 20
-29.5806
 30
0.0
 11
-98.7617
 21
-29.7694
 31
0.0
  0
LINE
  5
1C3
  8
0
 62
1
 10
-98.7617
 20
-29.7694
 30
0.0
 11
-98.8551
 21
-29.9527
 31
0.0
  0
LINE
  5
1C4
  8
0
 62
1
 10
-98.8551
 20
-29.9527
 30
0.0
 11
-98.9598
 21
-30.1298
 31
0.0
  0
LINE
  5
1C5
  8
0
 62
1
 10
-98.9598
 20
-30.1298
 30
0.0
 11
-99.0755
 21
-30.3
 31
0.0
  0
LINE
  5
1C6
  8
0
 62
1
 10
-99.0755
 20
-30.3
 30
0.0
 11
-99.2016
 21
-30.4626
 31
0.0
  0
LINE
  5
1C7
  8
0
 62
1
 10
-99.2016
 20
-30.4626
 30
0.0
 11
-99.3376
 21
-30.6169
 31
0.0
  0
LINE
  5
1C8
  8
0
 62
1
 10
-99.3376
 20
-30.6169
 30
0.0
 11
-99.4831
 21
-30.7624
 31
0.0
  0
LINE
  5
1C9
  8
0
 62
1
 10
-99.4831
 20
-30.7624
 30
0.0
 11
-99.6374
 21
-30.8984
 31
0.0
  0
LINE
  5
1CA
  8
0
 62
1
 10
-99.6374
 20
-30.8984
 30
0.0
 11
-99.8
 21
-31.0245
 31
0.0
  0
LINE
  5
1CB
  8
0
 62
1
 10
-99.8
 20
-31.0245
 30
0.0
 11
-99.9702
 21
-31.1402
 31
0.0
  0
LINE
  5
1CC
  8
0
 62
1
 10
-99.9702
 20
-31.1402
 30
0.0
 11
-100.147
 21
-31.2449
 31
0.0
  0
LINE
  5
1CD
  8
0
 62
1
 10
-100.147
 20
-31.2449
 30
0.0
 11
-100.331
 21
-31.3383
 31
0.0
  0
LINE
  5
1CE
  8
0
 62
1
 10
-100.331
 20
-31.3383
 30
0.0
 11
-100.519
 21
-31.42
 31
0.0
  0
LINE
  5
1CF
  8
0
 62
1
 10
-100.519
 20
-31.42
 30
0.0
 11
-100.713
 21
-31.4897
 31
0.0
  0
LINE
  5
1D0
  8
0
 62
1
 10
-100.713
 20
-31.4897
 30
0.0
 11
-100.911
 21
-31.5471
 31
0.0
  0
LINE
  5
1D1
  8
0
 62
1
 10
-100.911
 20
-31.5471
 30
0.0
 11
-101.111
 21
-31.592
 31
0.0
  0
LINE
  5
1D2
  8
0
 62
1
 10
-101.111
 20
-31.592
 30
0.0
 11
-101.315
 21
-31.6242
 31
0.0
  0
LINE
  5
1D3
  8
0
 62
1
 10
-101.315
 20
-31.6242
 30
0.0
 11
-101.519
 21
-31.6435
 31
0.0
  0
LINE
  5
1D4
  8
0
 62
1
 10
-101.519
 20
-31.6435
 30
0.0
 11
-101.725
 21
-31.65
 31
0.0
  0
LINE
  5
1D5
  8
0
 62
1
 10
-101.725
 20
-31.65
 30
0.0
 11
-101.931
 21
-31.6435
 31
0.0
  0
LINE
  5
1D6
  8
0
 62
1
 10
-38.3056
 20
-52.1435
 30
0.0
 11
-38.5105
 21
-52.1242
 31
0.0
  0
LINE
  5
1D7
  8
0
 62
1
 10
-38.5105
 20
-52.1242
 30
0.0
 11
-38.7137
 21
-52.092
 31
0.0
  0
LINE
  5
1D8
  8
0
 62
1
 10
-38.7137
 20
-52.092
 30
0.0
 11
-38.9144
 21
-52.0471
 31
0.0
  0
LINE
  5
1D9
  8
0
 62
1
 10
-38.9144
 20
-52.0471
 30
0.0
 11
-39.112
 21
-51.9897
 31
0.0
  0
LINE
  5
1DA
  8
0
 62
1
 10
-39.112
 20
-51.9897
 30
0.0
 11
-39.3056
 21
-51.92
 31
0.0
  0
LINE
  5
1DB
  8
0
 62
1
 10
-39.3056
 20
-51.92
 30
0.0
 11
-39.4944
 21
-51.8383
 31
0.0
  0
LINE
  5
1DC
  8
0
 62
1
 10
-39.4944
 20
-51.8383
 30
0.0
 11
-39.6777
 21
-51.7449
 31
0.0
  0
LINE
  5
1DD
  8
0
 62
1
 10
-39.6777
 20
-51.7449
 30
0.0
 11
-39.8548
 21
-51.6402
 31
0.0
  0
LINE
  5
1DE
  8
0
 62
1
 10
-39.8548
 20
-51.6402
 30
0.0
 11
-40.025
 21
-51.5245
 31
0.0
  0
LINE
  5
1DF
  8
0
 62
1
 10
-40.025
 20
-51.5245
 30
0.0
 11
-40.1875
 21
-51.3984
 31
0.0
  0
LINE
  5
1E0
  8
0
 62
1
 10
-40.1875
 20
-51.3984
 30
0.0
 11
-40.3419
 21
-51.2624
 31
0.0
  0
LINE
  5
1E1
  8
0
 62
1
 10
-40.3419
 20
-51.2624
 30
0.0
 11
-40.4874
 21
-51.1169
 31
0.0
  0
LINE
  5
1E2
  8
0
 62
1
 10
-40.4874
 20
-51.1169
 30
0.0
 11
-40.6234
 21
-50.9625
 31
0.0
  0
LINE
  5
1E3
  8
0
 62
1
 10
-40.6234
 20
-50.9625
 30
0.0
 11
-40.7495
 21
-50.8
 31
0.0
  0
LINE
  5
1E4
  8
0
 62
1
 10
-40.7495
 20
-50.8
 30
0.0
 11
-40.8652
 21
-50.6298
 31
0.0
  0
LINE
  5
1E5
  8
0
 62
1
 10
-40.8652
 20
-50.6298
 30
0.0
 11
-40.9699
 21
-50.4527
 31
0.0
  0
LINE
  5
1E6
  8
0
 62
1
 10
-40.9699
 20
-50.4527
 30
0.0
 11
-41.0633
 21
-50.2694
 31
0.0
  0
LINE
  5
1E7
  8
0
 62
1
 10
-41.0633
 20
-50.2694
 30
0.0
 11
-41.145
 21
-50.0806
 31
0.0
  0
LINE
  5
1E8
  8
0
 62
1
 10
-41.145
 20
-50.0806
 30
0.0
 11
-41.2147
 21
-49.887
 31
0.0
  0
LINE
  5
1E9
  8
0
 62
1
 10
-41.2147
 20
-49.887
 30
0.0
 11
-41.2721
 21
-49.6894
 31
0.0
  0
LINE
  5
1EA
  8
0
 62
1
 10
-41.2721
 20
-49.6894
 30
0.0
 11
-41.317
 21
-49.4887
 31
0.0
  0
LINE
  5
1EB
  8
0
 62
1
 10
-41.317
 20
-49.4887
 30
0.0
 11
-41.3492
 21
-49.2854
 31
0.0
  0
LINE
  5
1EC
  8
0
 62
1
 10
-41.3492
 20
-49.2854
 30
0.0
 11
-41.3685
 21
-49.0806
 31
0.0
  0
LINE
  5
1ED
  8
0
 62
1
 10
-41.3685
 20
-49.0806
 30
0.0
 11
-41.375
 21
-48.875
 31
0.0
  0
LINE
  5
1EE
  8
0
 62
1
 10
-41.375
 20
-48.875
 30
0.0
 11
-41.3685
 21
-48.6693
 31
0.0
  0
LINE
  5
1EF
  8
0
 62
1
 10
-41.3685
 20
-48.6693
 30
0.0
 11
-41.3492
 21
-48.4645
 31
0.0
  0
LINE
  5
1F0
  8
0
 62
1
 10
-41.3492
 20
-48.4645
 30
0.0
 11
-41.317
 21
-48.2613
 31
0.0
  0
LINE
  5
1F1
  8
0
 62
1
 10
-41.317
 20
-48.2613
 30
0.0
 11
-41.2721
 21
-48.0605
 31
0.0
  0
LINE
  5
1F2
  8
0
 62
1
 10
-41.2721
 20
-48.0605
 30
0.0
 11
-41.2147
 21
-47.8629
 31
0.0
  0
LINE
  5
1F3
  8
0
 62
1
 10
-41.2147
 20
-47.8629
 30
0.0
 11
-41.145
 21
-47.6694
 31
0.0
  0
LINE
  5
1F4
  8
0
 62
1
 10
-41.145
 20
-47.6694
 30
0.0
 11
-41.0633
 21
-47.4806
 31
0.0
  0
LINE
  5
1F5
  8
0
 62
1
 10
-41.0633
 20
-47.4806
 30
0.0
 11
-40.9699
 21
-47.2972
 31
0.0
  0
LINE
  5
1F6
  8
0
 62
1
 10
-40.9699
 20
-47.2972
 30
0.0
 11
-40.8652
 21
-47.1201
 31
0.0
  0
LINE
  5
1F7
  8
0
 62
1
 10
-40.8652
 20
-47.1201
 30
0.0
 11
-40.7495
 21
-46.95
 31
0.0
  0
LINE
  5
1F8
  8
0
 62
1
 10
-40.7495
 20
-46.95
 30
0.0
 11
-40.6234
 21
-46.7874
 31
0.0
  0
LINE
  5
1F9
  8
0
 62
1
 10
-40.6234
 20
-46.7874
 30
0.0
 11
-40.4874
 21
-46.6331
 31
0.0
  0
LINE
  5
1FA
  8
0
 62
1
 10
-40.4874
 20
-46.6331
 30
0.0
 11
-40.3419
 21
-46.4876
 31
0.0
  0
LINE
  5
1FB
  8
0
 62
1
 10
-40.3419
 20
-46.4876
 30
0.0
 11
-40.1875
 21
-46.3515
 31
0.0
  0
LINE
  5
1FC
  8
0
 62
1
 10
-40.1875
 20
-46.3515
 30
0.0
 11
-40.025
 21
-46.2254
 31
0.0
  0
LINE
  5
1FD
  8
0
 62
1
 10
-40.025
 20
-46.2254
 30
0.0
 11
-39.8548
 21
-46.1098
 31
0.0
  0
LINE
  5
1FE
  8
0
 62
1
 10
-39.8548
 20
-46.1098
 30
0.0
 11
-39.6777
 21
-46.0051
 31
0.0
  0
LINE
  5
1FF
  8
0
 62
1
 10
-39.6777
 20
-46.0051
 30
0.0
 11
-39.4944
 21
-45.9117
 31
0.0
  0
LINE
  5
200
  8
0
 62
1
 10
-39.4944
 20
-45.9117
 30
0.0
 11
-39.3056
 21
-45.83
 31
0.0
  0
LINE
  5
201
  8
0
 62
1
 10
-39.3056
 20
-45.83
 30
0.0
 11
-39.112
 21
-45.7603
 31
0.0
  0
LINE
  5
202
  8
0
 62
1
 10
-39.112
 20
-45.7603
 30
0.0
 11
-38.9144
 21
-45.7029
 31
0.0
  0
LINE
  5
203
  8
0
 62
1
 10
-38.9144
 20
-45.7029
 30
0.0
 11
-38.7137
 21
-45.658
 31
0.0
  0
LINE
  5
204
  8
0
 62
1
 10
-38.7137
 20
-45.658
 30
0.0
 11
-38.5105
 21
-45.6258
 31
0.0
  0
LINE
  5
205
  8
0
 62
1
 10
-38.5105
 20
-45.6258
 30
0.0
 11
-38.3056
 21
-45.6064
 31
0.0
  0
LINE
  5
206
  8
0
 62
1
 10
-38.3056
 20
-45.6064
 30
0.0
 11
-38.1
 21
-45.6
 31
0.0
  0
LINE
  5
207
  8
0
 62
1
 10
-38.1
 20
-45.6
 30
0.0
 11
-37.8944
 21
-45.6064
 31
0.0
  0
LINE
  5
208
  8
0
 62
1
 10
-37.8944
 20
-45.6064
 30
0.0
 11
-37.6895
 21
-45.6258
 31
0.0
  0
LINE
  5
209
  8
0
 62
1
 10
-37.6895
 20
-45.6258
 30
0.0
 11
-37.4863
 21
-45.658
 31
0.0
  0
LINE
  5
20A
  8
0
 62
1
 10
-37.4863
 20
-45.658
 30
0.0
 11
-37.2855
 21
-45.7029
 31
0.0
  0
LINE
  5
20B
  8
0
 62
1
 10
-37.2855
 20
-45.7029
 30
0.0
 11
-37.088
 21
-45.7603
 31
0.0
  0
LINE
  5
20C
  8
0
 62
1
 10
-37.088
 20
-45.7603
 30
0.0
 11
-36.8944
 21
-45.83
 31
0.0
  0
LINE
  5
20D
  8
0
 62
1
 10
-36.8944
 20
-45.83
 30
0.0
 11
-36.7056
 21
-45.9117
 31
0.0
  0
LINE
  5
20E
  8
0
 62
1
 10
-36.7056
 20
-45.9117
 30
0.0
 11
-36.5223
 21
-46.0051
 31
0.0
  0
LINE
  5
20F
  8
0
 62
1
 10
-36.5223
 20
-46.0051
 30
0.0
 11
-36.3452
 21
-46.1098
 31
0.0
  0
LINE
  5
210
  8
0
 62
1
 10
-36.3452
 20
-46.1098
 30
0.0
 11
-36.175
 21
-46.2254
 31
0.0
  0
LINE
  5
211
  8
0
 62
1
 10
-36.175
 20
-46.2254
 30
0.0
 11
-36.0124
 21
-46.3515
 31
0.0
  0
LINE
  5
212
  8
0
 62
1
 10
-36.0124
 20
-46.3515
 30
0.0
 11
-35.8581
 21
-46.4876
 31
0.0
  0
LINE
  5
213
  8
0
 62
1
 10
-35.8581
 20
-46.4876
 30
0.0
 11
-35.7126
 21
-46.6331
 31
0.0
  0
LINE
  5
214
  8
0
 62
1
 10
-35.7126
 20
-46.6331
 30
0.0
 11
-35.5766
 21
-46.7874
 31
0.0
  0
LINE
  5
215
  8
0
 62
1
 10
-35.5766
 20
-46.7874
 30
0.0
 11
-35.4505
 21
-46.95
 31
0.0
  0
LINE
  5
216
  8
0
 62
1
 10
-35.4505
 20
-46.95
 30
0.0
 11
-35.3348
 21
-47.1201
 31
0.0
  0
LINE
  5
217
  8
0
 62
1
 10
-35.3348
 20
-47.1201
 30
0.0
 11
-35.2301
 21
-47.2972
 31
0.0
  0
LINE
  5
218
  8
0
 62
1
 10
-35.2301
 20
-47.2972
 30
0.0
 11
-35.1367
 21
-47.4806
 31
0.0
  0
LINE
  5
219
  8
0
 62
1
 10
-35.1367
 20
-47.4806
 30
0.0
 11
-35.055
 21
-47.6694
 31
0.0
  0
LINE
  5
21A
  8
0
 62
1
 10
-35.055
 20
-47.6694
 30
0.0
 11
-34.9853
 21
-47.8629
 31
0.0
  0
LINE
  5
21B
  8
0
 62
1
 10
-34.9853
 20
-47.8629
 30
0.0
 11
-34.9279
 21
-48.0605
 31
0.0
  0
LINE
  5
21C
  8
0
 62
1
 10
-34.9279
 20
-48.0605
 30
0.0
 11
-34.883
 21
-48.2613
 31
0.0
  0
LINE
  5
21D
  8
0
 62
1
 10
-34.883
 20
-48.2613
 30
0.0
 11
-34.8508
 21
-48.4645
 31
0.0
  0
LINE
  5
21E
  8
0
 62
1
 10
-34.8508
 20
-48.4645
 30
0.0
 11
-34.8315
 21
-48.6693
 31
0.0
  0
LINE
  5
21F
  8
0
 62
1
 10
-34.8315
 20
-48.6693
 30
0.0
 11
-34.825
 21
-48.875
 31
0.0
  0
LINE
  5
220
  8
0
 62
1
 10
-34.825
 20
-48.875
 30
0.0
 11
-34.8315
 21
-49.0806
 31
0.0
  0
LINE
  5
221
  8
0
 62
1
 10
-34.8315
 20
-49.0806
 30
0.0
 11
-34.8508
 21
-49.2854
 31
0.0
  0
LINE
  5
222
  8
0
 62
1
 10
-34.8508
 20
-49.2854
 30
0.0
 11
-34.883
 21
-49.4887
 31
0.0
  0
LINE
  5
223
  8
0
 62
1
 10
-34.883
 20
-49.4887
 30
0.0
 11
-34.9279
 21
-49.6894
 31
0.0
  0
LINE
  5
224
  8
0
 62
1
 10
-34.9279
 20
-49.6894
 30
0.0
 11
-34.9853
 21
-49.887
 31
0.0
  0
LINE
  5
225
  8
0
 62
1
 10
-34.9853
 20
-49.887
 30
0.0
 11
-35.055
 21
-50.0806
 31
0.0
  0
LINE
  5
226
  8
0
 62
1
 10
-35.055
 20
-50.0806
 30
0.0
 11
-35.1367
 21
-50.2694
 31
0.0
  0
LINE
  5
227
  8
0
 62
1
 10
-35.1367
 20
-50.2694
 30
0.0
 11
-35.2301
 21
-50.4527
 31
0.0
  0
LINE
  5
228
  8
0
 62
1
 10
-35.2301
 20
-50.4527
 30
0.0
 11
-35.3348
 21
-50.6298
 31
0.0
  0
LINE
  5
229
  8
0
 62
1
 10
-35.3348
 20
-50.6298
 30
0.0
 11
-35.4505
 21
-50.8
 31
0.0
  0
LINE
  5
22A
  8
0
 62
1
 10
-35.4505
 20
-50.8
 30
0.0
 11
-35.5766
 21
-50.9625
 31
0.0
  0
LINE
  5
22B
  8
0
 62
1
 10
-35.5766
 20
-50.9625
 30
0.0
 11
-35.7126
 21
-51.1169
 31
0.0
  0
LINE
  5
22C
  8
0
 62
1
 10
-35.7126
 20
-51.1169
 30
0.0
 11
-35.8581
 21
-51.2624
 31
0.0
  0
LINE
  5
22D
  8
0
 62
1
 10
-35.8581
 20
-51.2624
 30
0.0
 11
-36.0124
 21
-51.3984
 31
0.0
  0
LINE
  5
22E
  8
0
 62
1
 10
-36.0124
 20
-51.3984
 30
0.0
 11
-36.175
 21
-51.5245
 31
0.0
  0
LINE
  5
22F
  8
0
 62
1
 10
-36.175
 20
-51.5245
 30
0.0
 11
-36.3452
 21
-51.6402
 31
0.0
  0
LINE
  5
230
  8
0
 62
1
 10
-36.3452
 20
-51.6402
 30
0.0
 11
-36.5223
 21
-51.7449
 31
0.0
  0
LINE
  5
231
  8
0
 62
1
 10
-36.5223
 20
-51.7449
 30
0.0
 11
-36.7056
 21
-51.8383
 31
0.0
  0
LINE
  5
232
  8
0
 62
1
 10
-36.7056
 20
-51.8383
 30
0.0
 11
-36.8944
 21
-51.92
 31
0.0
  0
LINE
  5
233
  8
0
 62
1
 10
-36.8944
 20
-51.92
 30
0.0
 11
-37.088
 21
-51.9897
 31
0.0
  0
LINE
  5
234
  8
0
 62
1
 10
-37.088
 20
-51.9897
 30
0.0
 11
-37.2855
 21
-52.0471
 31
0.0
  0
LINE
  5
235
  8
0
 62
1
 10
-37.2855
 20
-52.0471
 30
0.0
 11
-37.4863
 21
-52.092
 31
0.0
  0
LINE
  5
236
  8
0
 62
1
 10
-37.4863
 20
-52.092
 30
0.0
 11
-37.6895
 21
-52.1242
 31
0.0
  0
LINE
  5
237
  8
0
 62
1
 10
-37.6895
 20
-52.1242
 30
0.0
 11
-37.8944
 21
-52.1435
 31
0.0
  0
LINE
  5
238
  8
0
 62
1
 10
-37.8944
 20
-52.1435
 30
0.0
 11
-38.1
 21
-52.15
 31
0.0
  0
LINE
  5
239
  8
0
 62
1
 10
-38.1
 20
-52.15
 30
0.0
 11
-38.3056
 21
-52.1435
 31
0.0
  0
LINE
  5
23A
  8
0
 62
1
 10
37.8944
 20
-52.1435
 30
0.0
 11
37.6895
 21
-52.1242
 31
0.0
  0
LINE
  5
23B
  8
0
 62
1
 10
37.6895
 20
-52.1242
 30
0.0
 11
37.4863
 21
-52.092
 31
0.0
  0
LINE
  5
23C
  8
0
 62
1
 10
37.4863
 20
-52.092
 30
0.0
 11
37.2855
 21
-52.0471
 31
0.0
  0
LINE
  5
23D
  8
0
 62
1
 10
37.2855
 20
-52.0471
 30
0.0
 11
37.088
 21
-51.9897
 31
0.0
  0
LINE
  5
23E
  8
0
 62
1
 10
37.088
 20
-51.9897
 30
0.0
 11
36.8944
 21
-51.92
 31
0.0
  0
LINE
  5
23F
  8
0
 62
1
 10
36.8944
 20
-51.92
 30
0.0
 11
36.7056
 21
-51.8383
 31
0.0
  0
LINE
  5
240
  8
0
 62
1
 10
36.7056
 20
-51.8383
 30
0.0
 11
36.5223
 21
-51.7449
 31
0.0
  0
LINE
  5
241
  8
0
 62
1
 10
36.5223
 20
-51.7449
 30
0.0
 11
36.3452
 21
-51.6402
 31
0.0
  0
LINE
  5
242
  8
0
 62
1
 10
36.3452
 20
-51.6402
 30
0.0
 11
36.175
 21
-51.5245
 31
0.0
  0
LINE
  5
243
  8
0
 62
1
 10
36.175
 20
-51.5245
 30
0.0
 11
36.0124
 21
-51.3984
 31
0.0
  0
LINE
  5
244
  8
0
 62
1
 10
36.0124
 20
-51.3984
 30
0.0
 11
35.8581
 21
-51.2624
 31
0.0
  0
LINE
  5
245
  8
0
 62
1
 10
35.8581
 20
-51.2624
 30
0.0
 11
35.7126
 21
-51.1169
 31
0.0
  0
LINE
  5
246
  8
0
 62
1
 10
35.7126
 20
-51.1169
 30
0.0
 11
35.5766
 21
-50.9625
 31
0.0
  0
LINE
  5
247
  8
0
 62
1
 10
35.5766
 20
-50.9625
 30
0.0
 11
35.4505
 21
-50.8
 31
0.0
  0
LINE
  5
248
  8
0
 62
1
 10
35.4505
 20
-50.8
 30
0.0
 11
35.3348
 21
-50.6298
 31
0.0
  0
LINE
  5
249
  8
0
 62
1
 10
35.3348
 20
-50.6298
 30
0.0
 11
35.2301
 21
-50.4527
 31
0.0
  0
LINE
  5
24A
  8
0
 62
1
 10
35.2301
 20
-50.4527
 30
0.0
 11
35.1367
 21
-50.2694
 31
0.0
  0
LINE
  5
24B
  8
0
 62
1
 10
35.1367
 20
-50.2694
 30
0.0
 11
35.055
 21
-50.0806
 31
0.0
  0
LINE
  5
24C
  8
0
 62
1
 10
35.055
 20
-50.0806
 30
0.0
 11
34.9853
 21
-49.887
 31
0.0
  0
LINE
  5
24D
  8
0
 62
1
 10
34.9853
 20
-49.887
 30
0.0
 11
34.9279
 21
-49.6894
 31
0.0
  0
LINE
  5
24E
  8
0
 62
1
 10
34.9279
 20
-49.6894
 30
0.0
 11
34.883
 21
-49.4887
 31
0.0
  0
LINE
  5
24F
  8
0
 62
1
 10
34.883
 20
-49.4887
 30
0.0
 11
34.8508
 21
-49.2854
 31
0.0
  0
LINE
  5
250
  8
0
 62
1
 10
34.8508
 20
-49.2854
 30
0.0
 11
34.8315
 21
-49.0806
 31
0.0
  0
LINE
  5
251
  8
0
 62
1
 10
34.8315
 20
-49.0806
 30
0.0
 11
34.825
 21
-48.875
 31
0.0
  0
LINE
  5
252
  8
0
 62
1
 10
34.825
 20
-48.875
 30
0.0
 11
34.8315
 21
-48.6693
 31
0.0
  0
LINE
  5
253
  8
0
 62
1
 10
34.8315
 20
-48.6693
 30
0.0
 11
34.8508
 21
-48.4645
 31
0.0
  0
LINE
  5
254
  8
0
 62
1
 10
34.8508
 20
-48.4645
 30
0.0
 11
34.883
 21
-48.2613
 31
0.0
  0
LINE
  5
255
  8
0
 62
1
 10
34.883
 20
-48.2613
 30
0.0
 11
34.9279
 21
-48.0605
 31
0.0
  0
LINE
  5
256
  8
0
 62
1
 10
34.9279
 20
-48.0605
 30
0.0
 11
34.9853
 21
-47.8629
 31
0.0
  0
LINE
  5
257
  8
0
 62
1
 10
34.9853
 20
-47.8629
 30
0.0
 11
35.055
 21
-47.6694
 31
0.0
  0
LINE
  5
258
  8
0
 62
1
 10
35.055
 20
-47.6694
 30
0.0
 11
35.1367
 21
-47.4806
 31
0.0
  0
LINE
  5
259
  8
0
 62
1
 10
35.1367
 20
-47.4806
 30
0.0
 11
35.2301
 21
-47.2972
 31
0.0
  0
LINE
  5
25A
  8
0
 62
1
 10
35.2301
 20
-47.2972
 30
0.0
 11
35.3348
 21
-47.1201
 31
0.0
  0
LINE
  5
25B
  8
0
 62
1
 10
35.3348
 20
-47.1201
 30
0.0
 11
35.4505
 21
-46.95
 31
0.0
  0
LINE
  5
25C
  8
0
 62
1
 10
35.4505
 20
-46.95
 30
0.0
 11
35.5766
 21
-46.7874
 31
0.0
  0
LINE
  5
25D
  8
0
 62
1
 10
35.5766
 20
-46.7874
 30
0.0
 11
35.7126
 21
-46.6331
 31
0.0
  0
LINE
  5
25E
  8
0
 62
1
 10
35.7126
 20
-46.6331
 30
0.0
 11
35.8581
 21
-46.4876
 31
0.0
  0
LINE
  5
25F
  8
0
 62
1
 10
35.8581
 20
-46.4876
 30
0.0
 11
36.0124
 21
-46.3515
 31
0.0
  0
LINE
  5
260
  8
0
 62
1
 10
36.0124
 20
-46.3515
 30
0.0
 11
36.175
 21
-46.2254
 31
0.0
  0
LINE
  5
261
  8
0
 62
1
 10
36.175
 20
-46.2254
 30
0.0
 11
36.3452
 21
-46.1098
 31
0.0
  0
LINE
  5
262
  8
0
 62
1
 10
36.3452
 20
-46.1098
 30
0.0
 11
36.5223
 21
-46.0051
 31
0.0
  0
LINE
  5
263
  8
0
 62
1
 10
36.5223
 20
-46.0051
 30
0.0
 11
36.7056
 21
-45.9117
 31
0.0
  0
LINE
  5
264
  8
0
 62
1
 10
36.7056
 20
-45.9117
 30
0.0
 11
36.8944
 21
-45.83
 31
0.0
  0
LINE
  5
265
  8
0
 62
1
 10
36.8944
 20
-45.83
 30
0.0
 11
37.088
 21
-45.7603
 31
0.0
  0
LINE
  5
266
  8
0
 62
1
 10
37.088
 20
-45.7603
 30
0.0
 11
37.2855
 21
-45.7029
 31
0.0
  0
LINE
  5
267
  8
0
 62
1
 10
37.2855
 20
-45.7029
 30
0.0
 11
37.4863
 21
-45.658
 31
0.0
  0
LINE
  5
268
  8
0
 62
1
 10
37.4863
 20
-45.658
 30
0.0
 11
37.6895
 21
-45.6258
 31
0.0
  0
LINE
  5
269
  8
0
 62
1
 10
37.6895
 20
-45.6258
 30
0.0
 11
37.8944
 21
-45.6064
 31
0.0
  0
LINE
  5
26A
  8
0
 62
1
 10
37.8944
 20
-45.6064
 30
0.0
 11
38.1
 21
-45.6
 31
0.0
  0
LINE
  5
26B
  8
0
 62
1
 10
38.1
 20
-45.6
 30
0.0
 11
38.3056
 21
-45.6064
 31
0.0
  0
LINE
  5
26C
  8
0
 62
1
 10
38.3056
 20
-45.6064
 30
0.0
 11
38.5105
 21
-45.6258
 31
0.0
  0
LINE
  5
26D
  8
0
 62
1
 10
38.5105
 20
-45.6258
 30
0.0
 11
38.7137
 21
-45.658
 31
0.0
  0
LINE
  5
26E
  8
0
 62
1
 10
38.7137
 20
-45.658
 30
0.0
 11
38.9144
 21
-45.7029
 31
0.0
  0
LINE
  5
26F
  8
0
 62
1
 10
38.9144
 20
-45.7029
 30
0.0
 11
39.112
 21
-45.7603
 31
0.0
  0
LINE
  5
270
  8
0
 62
1
 10
39.112
 20
-45.7603
 30
0.0
 11
39.3056
 21
-45.83
 31
0.0
  0
LINE
  5
271
  8
0
 62
1
 10
39.3056
 20
-45.83
 30
0.0
 11
39.4944
 21
-45.9117
 31
0.0
  0
LINE
  5
272
  8
0
 62
1
 10
39.4944
 20
-45.9117
 30
0.0
 11
39.6777
 21
-46.0051
 31
0.0
  0
LINE
  5
273
  8
0
 62
1
 10
39.6777
 20
-46.0051
 30
0.0
 11
39.8548
 21
-46.1098
 31
0.0
  0
LINE
  5
274
  8
0
 62
1
 10
39.8548
 20
-46.1098
 30
0.0
 11
40.025
 21
-46.2254
 31
0.0
  0
LINE
  5
275
  8
0
 62
1
 10
40.025
 20
-46.2254
 30
0.0
 11
40.1875
 21
-46.3515
 31
0.0
  0
LINE
  5
276
  8
0
 62
1
 10
40.1875
 20
-46.3515
 30
0.0
 11
40.3419
 21
-46.4876
 31
0.0
  0
LINE
  5
277
  8
0
 62
1
 10
40.3419
 20
-46.4876
 30
0.0
 11
40.4874
 21
-46.6331
 31
0.0
  0
LINE
  5
278
  8
0
 62
1
 10
40.4874
 20
-46.6331
 30
0.0
 11
40.6234
 21
-46.7874
 31
0.0
  0
LINE
  5
279
  8
0
 62
1
 10
40.6234
 20
-46.7874
 30
0.0
 11
40.7495
 21
-46.95
 31
0.0
  0
LINE
  5
27A
  8
0
 62
1
 10
40.7495
 20
-46.95
 30
0.0
 11
40.8652
 21
-47.1201
 31
0.0
  0
LINE
  5
27B
  8
0
 62
1
 10
40.8652
 20
-47.1201
 30
0.0
 11
40.9699
 21
-47.2972
 31
0.0
  0
LINE
  5
27C
  8
0
 62
1
 10
40.9699
 20
-47.2972
 30
0.0
 11
41.0633
 21
-47.4806
 31
0.0
  0
LINE
  5
27D
  8
0
 62
1
 10
41.0633
 20
-47.4806
 30
0.0
 11
41.145
 21
-47.6694
 31
0.0
  0
LINE
  5
27E
  8
0
 62
1
 10
41.145
 20
-47.6694
 30
0.0
 11
41.2147
 21
-47.8629
 31
0.0
  0
LINE
  5
27F
  8
0
 62
1
 10
41.2147
 20
-47.8629
 30
0.0
 11
41.2721
 21
-48.0605
 31
0.0
  0
LINE
  5
280
  8
0
 62
1
 10
41.2721
 20
-48.0605
 30
0.0
 11
41.317
 21
-48.2613
 31
0.0
  0
LINE
  5
281
  8
0
 62
1
 10
41.317
 20
-48.2613
 30
0.0
 11
41.3492
 21
-48.4645
 31
0.0
  0
LINE
  5
282
  8
0
 62
1
 10
41.3492
 20
-48.4645
 30
0.0
 11
41.3685
 21
-48.6693
 31
0.0
  0
LINE
  5
283
  8
0
 62
1
 10
41.3685
 20
-48.6693
 30
0.0
 11
41.375
 21
-48.875
 31
0.0
  0
LINE
  5
284
  8
0
 62
1
 10
41.375
 20
-48.875
 30
0.0
 11
41.3685
 21
-49.0806
 31
0.0
  0
LINE
  5
285
  8
0
 62
1
 10
41.3685
 20
-49.0806
 30
0.0
 11
41.3492
 21
-49.2854
 31
0.0
  0
LINE
  5
286
  8
0
 62
1
 10
41.3492
 20
-49.2854
 30
0.0
 11
41.317
 21
-49.4887
 31
0.0
  0
LINE
  5
287
  8
0
 62
1
 10
41.317
 20
-49.4887
 30
0.0
 11
41.2721
 21
-49.6894
 31
0.0
  0
LINE
  5
288
  8
0
 62
1
 10
41.2721
 20
-49.6894
 30
0.0
 11
41.2147
 21
-49.887
 31
0.0
  0
LINE
  5
289
  8
0
 62
1
 10
41.2147
 20
-49.887
 30
0.0
 11
41.145
 21
-50.0806
 31
0.0
  0
LINE
  5
28A
  8
0
 62
1
 10
41.145
 20
-50.0806
 30
0.0
 11
41.0633
 21
-50.2694
 31
0.0
  0
LINE
  5
28B
  8
0
 62
1
 10
41.0633
 20
-50.2694
 30
0.0
 11
40.9699
 21
-50.4527
 31
0.0
  0
LINE
  5
28C
  8
0
 62
1
 10
40.9699
 20
-50.4527
 30
0.0
 11
40.8652
 21
-50.6298
 31
0.0
  0
LINE
  5
28D
  8
0
 62
1
 10
40.8652
 20
-50.6298
 30
0.0
 11
40.7495
 21
-50.8
 31
0.0
  0
LINE
  5
28E
  8
0
 62
1
 10
40.7495
 20
-50.8
 30
0.0
 11
40.6234
 21
-50.9625
 31
0.0
  0
LINE
  5
28F
  8
0
 62
1
 10
40.6234
 20
-50.9625
 30
0.0
 11
40.4874
 21
-51.1169
 31
0.0
  0
LINE
  5
290
  8
0
 62
1
 10
40.4874
 20
-51.1169
 30
0.0
 11
40.3419
 21
-51.2624
 31
0.0
  0
LINE
  5
291
  8
0
 62
1
 10
40.3419
 20
-51.2624
 30
0.0
 11
40.1875
 21
-51.3984
 31
0.0
  0
LINE
  5
292
  8
0
 62
1
 10
40.1875
 20
-51.3984
 30
0.0
 11
40.025
 21
-51.5245
 31
0.0
  0
LINE
  5
293
  8
0
 62
1
 10
40.025
 20
-51.5245
 30
0.0
 11
39.8548
 21
-51.6402
 31
0.0
  0
LINE
  5
294
  8
0
 62
1
 10
39.8548
 20
-51.6402
 30
0.0
 11
39.6777
 21
-51.7449
 31
0.0
  0
LINE
  5
295
  8
0
 62
1
 10
39.6777
 20
-51.7449
 30
0.0
 11
39.4944
 21
-51.8383
 31
0.0
  0
LINE
  5
296
  8
0
 62
1
 10
39.4944
 20
-51.8383
 30
0.0
 11
39.3056
 21
-51.92
 31
0.0
  0
LINE
  5
297
  8
0
 62
1
 10
39.3056
 20
-51.92
 30
0.0
 11
39.112
 21
-51.9897
 31
0.0
  0
LINE
  5
298
  8
0
 62
1
 10
39.112
 20
-51.9897
 30
0.0
 11
38.9144
 21
-52.0471
 31
0.0
  0
LINE
  5
299
  8
0
 62
1
 10
38.9144
 20
-52.0471
 30
0.0
 11
38.7137
 21
-52.092
 31
0.0
  0
LINE
  5
29A
  8
0
 62
1
 10
38.7137
 20
-52.092
 30
0.0
 11
38.5105
 21
-52.1242
 31
0.0
  0
LINE
  5
29B
  8
0
 62
1
 10
38.5105
 20
-52.1242
 30
0.0
 11
38.3056
 21
-52.1435
 31
0.0
  0
LINE
  5
29C
  8
0
 62
1
 10
38.3056
 20
-52.1435
 30
0.0
 11
38.1
 21
-52.15
 31
0.0
  0
LINE
  5
29D
  8
0
 62
1
 10
38.1
 20
-52.15
 30
0.0
 11
37.8944
 21
-52.1435
 31
0.0
  0
LINE
  5
29E
  8
0
 62
1
 10
-38.3056
 20
-77.5435
 30
0.0
 11
-38.5105
 21
-77.5242
 31
0.0
  0
LINE
  5
29F
  8
0
 62
1
 10
-38.5105
 20
-77.5242
 30
0.0
 11
-38.7137
 21
-77.492
 31
0.0
  0
LINE
  5
2A0
  8
0
 62
1
 10
-38.7137
 20
-77.492
 30
0.0
 11
-38.9144
 21
-77.4471
 31
0.0
  0
LINE
  5
2A1
  8
0
 62
1
 10
-38.9144
 20
-77.4471
 30
0.0
 11
-39.112
 21
-77.3897
 31
0.0
  0
LINE
  5
2A2
  8
0
 62
1
 10
-39.112
 20
-77.3897
 30
0.0
 11
-39.3056
 21
-77.32
 31
0.0
  0
LINE
  5
2A3
  8
0
 62
1
 10
-39.3056
 20
-77.32
 30
0.0
 11
-39.4944
 21
-77.2383
 31
0.0
  0
LINE
  5
2A4
  8
0
 62
1
 10
-39.4944
 20
-77.2383
 30
0.0
 11
-39.6777
 21
-77.1449
 31
0.0
  0
LINE
  5
2A5
  8
0
 62
1
 10
-39.6777
 20
-77.1449
 30
0.0
 11
-39.8548
 21
-77.0402
 31
0.0
  0
LINE
  5
2A6
  8
0
 62
1
 10
-39.8548
 20
-77.0402
 30
0.0
 11
-40.025
 21
-76.9245
 31
0.0
  0
LINE
  5
2A7
  8
0
 62
1
 10
-40.025
 20
-76.9245
 30
0.0
 11
-40.1875
 21
-76.7984
 31
0.0
  0
LINE
  5
2A8
  8
0
 62
1
 10
-40.1875
 20
-76.7984
 30
0.0
 11
-40.3419
 21
-76.6624
 31
0.0
  0
LINE
  5
2A9
  8
0
 62
1
 10
-40.3419
 20
-76.6624
 30
0.0
 11
-40.4874
 21
-76.5169
 31
0.0
  0
LINE
  5
2AA
  8
0
 62
1
 10
-40.4874
 20
-76.5169
 30
0.0
 11
-40.6234
 21
-76.3625
 31
0.0
  0
LINE
  5
2AB
  8
0
 62
1
 10
-40.6234
 20
-76.3625
 30
0.0
 11
-40.7495
 21
-76.2
 31
0.0
  0
LINE
  5
2AC
  8
0
 62
1
 10
-40.7495
 20
-76.2
 30
0.0
 11
-40.8652
 21
-76.0298
 31
0.0
  0
LINE
  5
2AD
  8
0
 62
1
 10
-40.8652
 20
-76.0298
 30
0.0
 11
-40.9699
 21
-75.8527
 31
0.0
  0
LINE
  5
2AE
  8
0
 62
1
 10
-40.9699
 20
-75.8527
 30
0.0
 11
-41.0633
 21
-75.6694
 31
0.0
  0
LINE
  5
2AF
  8
0
 62
1
 10
-41.0633
 20
-75.6694
 30
0.0
 11
-41.145
 21
-75.4806
 31
0.0
  0
LINE
  5
2B0
  8
0
 62
1
 10
-41.145
 20
-75.4806
 30
0.0
 11
-41.2147
 21
-75.287
 31
0.0
  0
LINE
  5
2B1
  8
0
 62
1
 10
-41.2147
 20
-75.287
 30
0.0
 11
-41.2721
 21
-75.0894
 31
0.0
  0
LINE
  5
2B2
  8
0
 62
1
 10
-41.2721
 20
-75.0894
 30
0.0
 11
-41.317
 21
-74.8887
 31
0.0
  0
LINE
  5
2B3
  8
0
 62
1
 10
-41.317
 20
-74.8887
 30
0.0
 11
-41.3492
 21
-74.6855
 31
0.0
  0
LINE
  5
2B4
  8
0
 62
1
 10
-41.3492
 20
-74.6855
 30
0.0
 11
-41.3685
 21
-74.4806
 31
0.0
  0
LINE
  5
2B5
  8
0
 62
1
 10
-41.3685
 20
-74.4806
 30
0.0
 11
-41.375
 21
-74.275
 31
0.0
  0
LINE
  5
2B6
  8
0
 62
1
 10
-41.375
 20
-74.275
 30
0.0
 11
-41.3685
 21
-74.0694
 31
0.0
  0
LINE
  5
2B7
  8
0
 62
1
 10
-41.3685
 20
-74.0694
 30
0.0
 11
-41.3492
 21
-73.8645
 31
0.0
  0
LINE
  5
2B8
  8
0
 62
1
 10
-41.3492
 20
-73.8645
 30
0.0
 11
-41.317
 21
-73.6613
 31
0.0
  0
LINE
  5
2B9
  8
0
 62
1
 10
-41.317
 20
-73.6613
 30
0.0
 11
-41.2721
 21
-73.4605
 31
0.0
  0
LINE
  5
2BA
  8
0
 62
1
 10
-41.2721
 20
-73.4605
 30
0.0
 11
-41.2147
 21
-73.263
 31
0.0
  0
LINE
  5
2BB
  8
0
 62
1
 10
-41.2147
 20
-73.263
 30
0.0
 11
-41.145
 21
-73.0694
 31
0.0
  0
LINE
  5
2BC
  8
0
 62
1
 10
-41.145
 20
-73.0694
 30
0.0
 11
-41.0633
 21
-72.8806
 31
0.0
  0
LINE
  5
2BD
  8
0
 62
1
 10
-41.0633
 20
-72.8806
 30
0.0
 11
-40.9699
 21
-72.6972
 31
0.0
  0
LINE
  5
2BE
  8
0
 62
1
 10
-40.9699
 20
-72.6972
 30
0.0
 11
-40.8652
 21
-72.5202
 31
0.0
  0
LINE
  5
2BF
  8
0
 62
1
 10
-40.8652
 20
-72.5202
 30
0.0
 11
-40.7495
 21
-72.35
 31
0.0
  0
LINE
  5
2C0
  8
0
 62
1
 10
-40.7495
 20
-72.35
 30
0.0
 11
-40.6234
 21
-72.1874
 31
0.0
  0
LINE
  5
2C1
  8
0
 62
1
 10
-40.6234
 20
-72.1874
 30
0.0
 11
-40.4874
 21
-72.0331
 31
0.0
  0
LINE
  5
2C2
  8
0
 62
1
 10
-40.4874
 20
-72.0331
 30
0.0
 11
-40.3419
 21
-71.8876
 31
0.0
  0
LINE
  5
2C3
  8
0
 62
1
 10
-40.3419
 20
-71.8876
 30
0.0
 11
-40.1875
 21
-71.7516
 31
0.0
  0
LINE
  5
2C4
  8
0
 62
1
 10
-40.1875
 20
-71.7516
 30
0.0
 11
-40.025
 21
-71.6255
 31
0.0
  0
LINE
  5
2C5
  8
0
 62
1
 10
-40.025
 20
-71.6255
 30
0.0
 11
-39.8548
 21
-71.5098
 31
0.0
  0
LINE
  5
2C6
  8
0
 62
1
 10
-39.8548
 20
-71.5098
 30
0.0
 11
-39.6777
 21
-71.4051
 31
0.0
  0
LINE
  5
2C7
  8
0
 62
1
 10
-39.6777
 20
-71.4051
 30
0.0
 11
-39.4944
 21
-71.3117
 31
0.0
  0
LINE
  5
2C8
  8
0
 62
1
 10
-39.4944
 20
-71.3117
 30
0.0
 11
-39.3056
 21
-71.23
 31
0.0
  0
LINE
  5
2C9
  8
0
 62
1
 10
-39.3056
 20
-71.23
 30
0.0
 11
-39.112
 21
-71.1603
 31
0.0
  0
LINE
  5
2CA
  8
0
 62
1
 10
-39.112
 20
-71.1603
 30
0.0
 11
-38.9144
 21
-71.1029
 31
0.0
  0
LINE
  5
2CB
  8
0
 62
1
 10
-38.9144
 20
-71.1029
 30
0.0
 11
-38.7137
 21
-71.058
 31
0.0
  0
LINE
  5
2CC
  8
0
 62
1
 10
-38.7137
 20
-71.058
 30
0.0
 11
-38.5105
 21
-71.0258
 31
0.0
  0
LINE
  5
2CD
  8
0
 62
1
 10
-38.5105
 20
-71.0258
 30
0.0
 11
-38.3056
 21
-71.0064
 31
0.0
  0
LINE
  5
2CE
  8
0
 62
1
 10
-38.3056
 20
-71.0064
 30
0.0
 11
-38.1
 21
-71.0
 31
0.0
  0
LINE
  5
2CF
  8
0
 62
1
 10
-38.1
 20
-71.0
 30
0.0
 11
-37.8944
 21
-71.0064
 31
0.0
  0
LINE
  5
2D0
  8
0
 62
1
 10
-37.8944
 20
-71.0064
 30
0.0
 11
-37.6895
 21
-71.0258
 31
0.0
  0
LINE
  5
2D1
  8
0
 62
1
 10
-37.6895
 20
-71.0258
 30
0.0
 11
-37.4863
 21
-71.058
 31
0.0
  0
LINE
  5
2D2
  8
0
 62
1
 10
-37.4863
 20
-71.058
 30
0.0
 11
-37.2855
 21
-71.1029
 31
0.0
  0
LINE
  5
2D3
  8
0
 62
1
 10
-37.2855
 20
-71.1029
 30
0.0
 11
-37.088
 21
-71.1603
 31
0.0
  0
LINE
  5
2D4
  8
0
 62
1
 10
-37.088
 20
-71.1603
 30
0.0
 11
-36.8944
 21
-71.23
 31
0.0
  0
LINE
  5
2D5
  8
0
 62
1
 10
-36.8944
 20
-71.23
 30
0.0
 11
-36.7056
 21
-71.3117
 31
0.0
  0
LINE
  5
2D6
  8
0
 62
1
 10
-36.7056
 20
-71.3117
 30
0.0
 11
-36.5223
 21
-71.4051
 31
0.0
  0
LINE
  5
2D7
  8
0
 62
1
 10
-36.5223
 20
-71.4051
 30
0.0
 11
-36.3452
 21
-71.5098
 31
0.0
  0
LINE
  5
2D8
  8
0
 62
1
 10
-36.3452
 20
-71.5098
 30
0.0
 11
-36.175
 21
-71.6255
 31
0.0
  0
LINE
  5
2D9
  8
0
 62
1
 10
-36.175
 20
-71.6255
 30
0.0
 11
-36.0124
 21
-71.7516
 31
0.0
  0
LINE
  5
2DA
  8
0
 62
1
 10
-36.0124
 20
-71.7516
 30
0.0
 11
-35.8581
 21
-71.8876
 31
0.0
  0
LINE
  5
2DB
  8
0
 62
1
 10
-35.8581
 20
-71.8876
 30
0.0
 11
-35.7126
 21
-72.0331
 31
0.0
  0
LINE
  5
2DC
  8
0
 62
1
 10
-35.7126
 20
-72.0331
 30
0.0
 11
-35.5766
 21
-72.1874
 31
0.0
  0
LINE
  5
2DD
  8
0
 62
1
 10
-35.5766
 20
-72.1874
 30
0.0
 11
-35.4505
 21
-72.35
 31
0.0
  0
LINE
  5
2DE
  8
0
 62
1
 10
-35.4505
 20
-72.35
 30
0.0
 11
-35.3348
 21
-72.5202
 31
0.0
  0
LINE
  5
2DF
  8
0
 62
1
 10
-35.3348
 20
-72.5202
 30
0.0
 11
-35.2301
 21
-72.6972
 31
0.0
  0
LINE
  5
2E0
  8
0
 62
1
 10
-35.2301
 20
-72.6972
 30
0.0
 11
-35.1367
 21
-72.8806
 31
0.0
  0
LINE
  5
2E1
  8
0
 62
1
 10
-35.1367
 20
-72.8806
 30
0.0
 11
-35.055
 21
-73.0694
 31
0.0
  0
LINE
  5
2E2
  8
0
 62
1
 10
-35.055
 20
-73.0694
 30
0.0
 11
-34.9853
 21
-73.263
 31
0.0
  0
LINE
  5
2E3
  8
0
 62
1
 10
-34.9853
 20
-73.263
 30
0.0
 11
-34.9279
 21
-73.4605
 31
0.0
  0
LINE
  5
2E4
  8
0
 62
1
 10
-34.9279
 20
-73.4605
 30
0.0
 11
-34.883
 21
-73.6613
 31
0.0
  0
LINE
  5
2E5
  8
0
 62
1
 10
-34.883
 20
-73.6613
 30
0.0
 11
-34.8508
 21
-73.8645
 31
0.0
  0
LINE
  5
2E6
  8
0
 62
1
 10
-34.8508
 20
-73.8645
 30
0.0
 11
-34.8315
 21
-74.0694
 31
0.0
  0
LINE
  5
2E7
  8
0
 62
1
 10
-34.8315
 20
-74.0694
 30
0.0
 11
-34.825
 21
-74.275
 31
0.0
  0
LINE
  5
2E8
  8
0
 62
1
 10
-34.825
 20
-74.275
 30
0.0
 11
-34.8315
 21
-74.4806
 31
0.0
  0
LINE
  5
2E9
  8
0
 62
1
 10
-34.8315
 20
-74.4806
 30
0.0
 11
-34.8508
 21
-74.6855
 31
0.0
  0
LINE
  5
2EA
  8
0
 62
1
 10
-34.8508
 20
-74.6855
 30
0.0
 11
-34.883
 21
-74.8887
 31
0.0
  0
LINE
  5
2EB
  8
0
 62
1
 10
-34.883
 20
-74.8887
 30
0.0
 11
-34.9279
 21
-75.0894
 31
0.0
  0
LINE
  5
2EC
  8
0
 62
1
 10
-34.9279
 20
-75.0894
 30
0.0
 11
-34.9853
 21
-75.287
 31
0.0
  0
LINE
  5
2ED
  8
0
 62
1
 10
-34.9853
 20
-75.287
 30
0.0
 11
-35.055
 21
-75.4806
 31
0.0
  0
LINE
  5
2EE
  8
0
 62
1
 10
-35.055
 20
-75.4806
 30
0.0
 11
-35.1367
 21
-75.6694
 31
0.0
  0
LINE
  5
2EF
  8
0
 62
1
 10
-35.1367
 20
-75.6694
 30
0.0
 11
-35.2301
 21
-75.8527
 31
0.0
  0
LINE
  5
2F0
  8
0
 62
1
 10
-35.2301
 20
-75.8527
 30
0.0
 11
-35.3348
 21
-76.0298
 31
0.0
  0
LINE
  5
2F1
  8
0
 62
1
 10
-35.3348
 20
-76.0298
 30
0.0
 11
-35.4505
 21
-76.2
 31
0.0
  0
LINE
  5
2F2
  8
0
 62
1
 10
-35.4505
 20
-76.2
 30
0.0
 11
-35.5766
 21
-76.3625
 31
0.0
  0
LINE
  5
2F3
  8
0
 62
1
 10
-35.5766
 20
-76.3625
 30
0.0
 11
-35.7126
 21
-76.5169
 31
0.0
  0
LINE
  5
2F4
  8
0
 62
1
 10
-35.7126
 20
-76.5169
 30
0.0
 11
-35.8581
 21
-76.6624
 31
0.0
  0
LINE
  5
2F5
  8
0
 62
1
 10
-35.8581
 20
-76.6624
 30
0.0
 11
-36.0124
 21
-76.7984
 31
0.0
  0
LINE
  5
2F6
  8
0
 62
1
 10
-36.0124
 20
-76.7984
 30
0.0
 11
-36.175
 21
-76.9245
 31
0.0
  0
LINE
  5
2F7
  8
0
 62
1
 10
-36.175
 20
-76.9245
 30
0.0
 11
-36.3452
 21
-77.0402
 31
0.0
  0
LINE
  5
2F8
  8
0
 62
1
 10
-36.3452
 20
-77.0402
 30
0.0
 11
-36.5223
 21
-77.1449
 31
0.0
  0
LINE
  5
2F9
  8
0
 62
1
 10
-36.5223
 20
-77.1449
 30
0.0
 11
-36.7056
 21
-77.2383
 31
0.0
  0
LINE
  5
2FA
  8
0
 62
1
 10
-36.7056
 20
-77.2383
 30
0.0
 11
-36.8944
 21
-77.32
 31
0.0
  0
LINE
  5
2FB
  8
0
 62
1
 10
-36.8944
 20
-77.32
 30
0.0
 11
-37.088
 21
-77.3897
 31
0.0
  0
LINE
  5
2FC
  8
0
 62
1
 10
-37.088
 20
-77.3897
 30
0.0
 11
-37.2855
 21
-77.4471
 31
0.0
  0
LINE
  5
2FD
  8
0
 62
1
 10
-37.2855
 20
-77.4471
 30
0.0
 11
-37.4863
 21
-77.492
 31
0.0
  0
LINE
  5
2FE
  8
0
 62
1
 10
-37.4863
 20
-77.492
 30
0.0
 11
-37.6895
 21
-77.5242
 31
0.0
  0
LINE
  5
2FF
  8
0
 62
1
 10
-37.6895
 20
-77.5242
 30
0.0
 11
-37.8944
 21
-77.5435
 31
0.0
  0
LINE
  5
300
  8
0
 62
1
 10
-37.8944
 20
-77.5435
 30
0.0
 11
-38.1
 21
-77.55
 31
0.0
  0
LINE
  5
301
  8
0
 62
1
 10
-38.1
 20
-77.55
 30
0.0
 11
-38.3056
 21
-77.5435
 31
0.0
  0
LINE
  5
302
  8
0
 62
1
 10
37.8944
 20
-77.5435
 30
0.0
 11
37.6895
 21
-77.5242
 31
0.0
  0
LINE
  5
303
  8
0
 62
1
 10
37.6895
 20
-77.5242
 30
0.0
 11
37.4863
 21
-77.492
 31
0.0
  0
LINE
  5
304
  8
0
 62
1
 10
37.4863
 20
-77.492
 30
0.0
 11
37.2855
 21
-77.4471
 31
0.0
  0
LINE
  5
305
  8
0
 62
1
 10
37.2855
 20
-77.4471
 30
0.0
 11
37.088
 21
-77.3897
 31
0.0
  0
LINE
  5
306
  8
0
 62
1
 10
37.088
 20
-77.3897
 30
0.0
 11
36.8944
 21
-77.32
 31
0.0
  0
LINE
  5
307
  8
0
 62
1
 10
36.8944
 20
-77.32
 30
0.0
 11
36.7056
 21
-77.2383
 31
0.0
  0
LINE
  5
308
  8
0
 62
1
 10
36.7056
 20
-77.2383
 30
0.0
 11
36.5223
 21
-77.1449
 31
0.0
  0
LINE
  5
309
  8
0
 62
1
 10
36.5223
 20
-77.1449
 30
0.0
 11
36.3452
 21
-77.0402
 31
0.0
  0
LINE
  5
30A
  8
0
 62
1
 10
36.3452
 20
-77.0402
 30
0.0
 11
36.175
 21
-76.9245
 31
0.0
  0
LINE
  5
30B
  8
0
 62
1
 10
36.175
 20
-76.9245
 30
0.0
 11
36.0124
 21
-76.7984
 31
0.0
  0
LINE
  5
30C
  8
0
 62
1
 10
36.0124
 20
-76.7984
 30
0.0
 11
35.8581
 21
-76.6624
 31
0.0
  0
LINE
  5
30D
  8
0
 62
1
 10
35.8581
 20
-76.6624
 30
0.0
 11
35.7126
 21
-76.5169
 31
0.0
  0
LINE
  5
30E
  8
0
 62
1
 10
35.7126
 20
-76.5169
 30
0.0
 11
35.5766
 21
-76.3625
 31
0.0
  0
LINE
  5
30F
  8
0
 62
1
 10
35.5766
 20
-76.3625
 30
0.0
 11
35.4505
 21
-76.2
 31
0.0
  0
LINE
  5
310
  8
0
 62
1
 10
35.4505
 20
-76.2
 30
0.0
 11
35.3348
 21
-76.0298
 31
0.0
  0
LINE
  5
311
  8
0
 62
1
 10
35.3348
 20
-76.0298
 30
0.0
 11
35.2301
 21
-75.8527
 31
0.0
  0
LINE
  5
312
  8
0
 62
1
 10
35.2301
 20
-75.8527
 30
0.0
 11
35.1367
 21
-75.6694
 31
0.0
  0
LINE
  5
313
  8
0
 62
1
 10
35.1367
 20
-75.6694
 30
0.0
 11
35.055
 21
-75.4806
 31
0.0
  0
LINE
  5
314
  8
0
 62
1
 10
35.055
 20
-75.4806
 30
0.0
 11
34.9853
 21
-75.287
 31
0.0
  0
LINE
  5
315
  8
0
 62
1
 10
34.9853
 20
-75.287
 30
0.0
 11
34.9279
 21
-75.0894
 31
0.0
  0
LINE
  5
316
  8
0
 62
1
 10
34.9279
 20
-75.0894
 30
0.0
 11
34.883
 21
-74.8887
 31
0.0
  0
LINE
  5
317
  8
0
 62
1
 10
34.883
 20
-74.8887
 30
0.0
 11
34.8508
 21
-74.6855
 31
0.0
  0
LINE
  5
318
  8
0
 62
1
 10
34.8508
 20
-74.6855
 30
0.0
 11
34.8315
 21
-74.4806
 31
0.0
  0
LINE
  5
319
  8
0
 62
1
 10
34.8315
 20
-74.4806
 30
0.0
 11
34.825
 21
-74.275
 31
0.0
  0
LINE
  5
31A
  8
0
 62
1
 10
34.825
 20
-74.275
 30
0.0
 11
34.8315
 21
-74.0694
 31
0.0
  0
LINE
  5
31B
  8
0
 62
1
 10
34.8315
 20
-74.0694
 30
0.0
 11
34.8508
 21
-73.8645
 31
0.0
  0
LINE
  5
31C
  8
0
 62
1
 10
34.8508
 20
-73.8645
 30
0.0
 11
34.883
 21
-73.6613
 31
0.0
  0
LINE
  5
31D
  8
0
 62
1
 10
34.883
 20
-73.6613
 30
0.0
 11
34.9279
 21
-73.4605
 31
0.0
  0
LINE
  5
31E
  8
0
 62
1
 10
34.9279
 20
-73.4605
 30
0.0
 11
34.9853
 21
-73.263
 31
0.0
  0
LINE
  5
31F
  8
0
 62
1
 10
34.9853
 20
-73.263
 30
0.0
 11
35.055
 21
-73.0694
 31
0.0
  0
LINE
  5
320
  8
0
 62
1
 10
35.055
 20
-73.0694
 30
0.0
 11
35.1367
 21
-72.8806
 31
0.0
  0
LINE
  5
321
  8
0
 62
1
 10
35.1367
 20
-72.8806
 30
0.0
 11
35.2301
 21
-72.6972
 31
0.0
  0
LINE
  5
322
  8
0
 62
1
 10
35.2301
 20
-72.6972
 30
0.0
 11
35.3348
 21
-72.5202
 31
0.0
  0
LINE
  5
323
  8
0
 62
1
 10
35.3348
 20
-72.5202
 30
0.0
 11
35.4505
 21
-72.35
 31
0.0
  0
LINE
  5
324
  8
0
 62
1
 10
35.4505
 20
-72.35
 30
0.0
 11
35.5766
 21
-72.1874
 31
0.0
  0
LINE
  5
325
  8
0
 62
1
 10
35.5766
 20
-72.1874
 30
0.0
 11
35.7126
 21
-72.0331
 31
0.0
  0
LINE
  5
326
  8
0
 62
1
 10
35.7126
 20
-72.0331
 30
0.0
 11
35.8581
 21
-71.8876
 31
0.0
  0
LINE
  5
327
  8
0
 62
1
 10
35.8581
 20
-71.8876
 30
0.0
 11
36.0124
 21
-71.7516
 31
0.0
  0
LINE
  5
328
  8
0
 62
1
 10
36.0124
 20
-71.7516
 30
0.0
 11
36.175
 21
-71.6255
 31
0.0
  0
LINE
  5
329
  8
0
 62
1
 10
36.175
 20
-71.6255
 30
0.0
 11
36.3452
 21
-71.5098
 31
0.0
  0
LINE
  5
32A
  8
0
 62
1
 10
36.3452
 20
-71.5098
 30
0.0
 11
36.5223
 21
-71.4051
 31
0.0
  0
LINE
  5
32B
  8
0
 62
1
 10
36.5223
 20
-71.4051
 30
0.0
 11
36.7056
 21
-71.3117
 31
0.0
  0
LINE
  5
32C
  8
0
 62
1
 10
36.7056
 20
-71.3117
 30
0.0
 11
36.8944
 21
-71.23
 31
0.0
  0
LINE
  5
32D
  8
0
 62
1
 10
36.8944
 20
-71.23
 30
0.0
 11
37.088
 21
-71.1603
 31
0.0
  0
LINE
  5
32E
  8
0
 62
1
 10
37.088
 20
-71.1603
 30
0.0
 11
37.2855
 21
-71.1029
 31
0.0
  0
LINE
  5
32F
  8
0
 62
1
 10
37.2855
 20
-71.1029
 30
0.0
 11
37.4863
 21
-71.058
 31
0.0
  0
LINE
  5
330
  8
0
 62
1
 10
37.4863
 20
-71.058
 30
0.0
 11
37.6895
 21
-71.0258
 31
0.0
  0
LINE
  5
331
  8
0
 62
1
 10
37.6895
 20
-71.0258
 30
0.0
 11
37.8944
 21
-71.0064
 31
0.0
  0
LINE
  5
332
  8
0
 62
1
 10
37.8944
 20
-71.0064
 30
0.0
 11
38.1
 21
-71.0
 31
0.0
  0
LINE
  5
333
  8
0
 62
1
 10
38.1
 20
-71.0
 30
0.0
 11
38.3056
 21
-71.0064
 31
0.0
  0
LINE
  5
334
  8
0
 62
1
 10
38.3056
 20
-71.0064
 30
0.0
 11
38.5105
 21
-71.0258
 31
0.0
  0
LINE
  5
335
  8
0
 62
1
 10
38.5105
 20
-71.0258
 30
0.0
 11
38.7137
 21
-71.058
 31
0.0
  0
LINE
  5
336
  8
0
 62
1
 10
38.7137
 20
-71.058
 30
0.0
 11
38.9144
 21
-71.1029
 31
0.0
  0
LINE
  5
337
  8
0
 62
1
 10
38.9144
 20
-71.1029
 30
0.0
 11
39.112
 21
-71.1603
 31
0.0
  0
LINE
  5
338
  8
0
 62
1
 10
39.112
 20
-71.1603
 30
0.0
 11
39.3056
 21
-71.23
 31
0.0
  0
LINE
  5
339
  8
0
 62
1
 10
39.3056
 20
-71.23
 30
0.0
 11
39.4944
 21
-71.3117
 31
0.0
  0
LINE
  5
33A
  8
0
 62
1
 10
39.4944
 20
-71.3117
 30
0.0
 11
39.6777
 21
-71.4051
 31
0.0
  0
LINE
  5
33B
  8
0
 62
1
 10
39.6777
 20
-71.4051
 30
0.0
 11
39.8548
 21
-71.5098
 31
0.0
  0
LINE
  5
33C
  8
0
 62
1
 10
39.8548
 20
-71.5098
 30
0.0
 11
40.025
 21
-71.6255
 31
0.0
  0
LINE
  5
33D
  8
0
 62
1
 10
40.025
 20
-71.6255
 30
0.0
 11
40.1875
 21
-71.7516
 31
0.0
  0
LINE
  5
33E
  8
0
 62
1
 10
40.1875
 20
-71.7516
 30
0.0
 11
40.3419
 21
-71.8876
 31
0.0
  0
LINE
  5
33F
  8
0
 62
1
 10
40.3419
 20
-71.8876
 30
0.0
 11
40.4874
 21
-72.0331
 31
0.0
  0
LINE
  5
340
  8
0
 62
1
 10
40.4874
 20
-72.0331
 30
0.0
 11
40.6234
 21
-72.1874
 31
0.0
  0
LINE
  5
341
  8
0
 62
1
 10
40.6234
 20
-72.1874
 30
0.0
 11
40.7495
 21
-72.35
 31
0.0
  0
LINE
  5
342
  8
0
 62
1
 10
40.7495
 20
-72.35
 30
0.0
 11
40.8652
 21
-72.5202
 31
0.0
  0
LINE
  5
343
  8
0
 62
1
 10
40.8652
 20
-72.5202
 30
0.0
 11
40.9699
 21
-72.6972
 31
0.0
  0
LINE
  5
344
  8
0
 62
1
 10
40.9699
 20
-72.6972
 30
0.0
 11
41.0633
 21
-72.8806
 31
0.0
  0
LINE
  5
345
  8
0
 62
1
 10
41.0633
 20
-72.8806
 30
0.0
 11
41.145
 21
-73.0694
 31
0.0
  0
LINE
  5
346
  8
0
 62
1
 10
41.145
 20
-73.0694
 30
0.0
 11
41.2147
 21
-73.263
 31
0.0
  0
LINE
  5
347
  8
0
 62
1
 10
41.2147
 20
-73.263
 30
0.0
 11
41.2721
 21
-73.4605
 31
0.0
  0
LINE
  5
348
  8
0
 62
1
 10
41.2721
 20
-73.4605
 30
0.0
 11
41.317
 21
-73.6613
 31
0.0
  0
LINE
  5
349
  8
0
 62
1
 10
41.317
 20
-73.6613
 30
0.0
 11
41.3492
 21
-73.8645
 31
0.0
  0
LINE
  5
34A
  8
0
 62
1
 10
41.3492
 20
-73.8645
 30
0.0
 11
41.3685
 21
-74.0694
 31
0.0
  0
LINE
  5
34B
  8
0
 62
1
 10
41.3685
 20
-74.0694
 30
0.0
 11
41.375
 21
-74.275
 31
0.0
  0
LINE
  5
34C
  8
0
 62
1
 10
41.375
 20
-74.275
 30
0.0
 11
41.3685
 21
-74.4806
 31
0.0
  0
LINE
  5
34D
  8
0
 62
1
 10
41.3685
 20
-74.4806
 30
0.0
 11
41.3492
 21
-74.6855
 31
0.0
  0
LINE
  5
34E
  8
0
 62
1
 10
41.3492
 20
-74.6855
 30
0.0
 11
41.317
 21
-74.8887
 31
0.0
  0
LINE
  5
34F
  8
0
 62
1
 10
41.317
 20
-74.8887
 30
0.0
 11
41.2721
 21
-75.0894
 31
0.0
  0
LINE
  5
350
  8
0
 62
1
 10
41.2721
 20
-75.0894
 30
0.0
 11
41.2147
 21
-75.287
 31
0.0
  0
LINE
  5
351
  8
0
 62
1
 10
41.2147
 20
-75.287
 30
0.0
 11
41.145
 21
-75.4806
 31
0.0
  0
LINE
  5
352
  8
0
 62
1
 10
41.145
 20
-75.4806
 30
0.0
 11
41.0633
 21
-75.6694
 31
0.0
  0
LINE
  5
353
  8
0
 62
1
 10
41.0633
 20
-75.6694
 30
0.0
 11
40.9699
 21
-75.8527
 31
0.0
  0
LINE
  5
354
  8
0
 62
1
 10
40.9699
 20
-75.8527
 30
0.0
 11
40.8652
 21
-76.0298
 31
0.0
  0
LINE
  5
355
  8
0
 62
1
 10
40.8652
 20
-76.0298
 30
0.0
 11
40.7495
 21
-76.2
 31
0.0
  0
LINE
  5
356
  8
0
 62
1
 10
40.7495
 20
-76.2
 30
0.0
 11
40.6234
 21
-76.3625
 31
0.0
  0
LINE
  5
357
  8
0
 62
1
 10
40.6234
 20
-76.3625
 30
0.0
 11
40.4874
 21
-76.5169
 31
0.0
  0
LINE
  5
358
  8
0
 62
1
 10
40.4874
 20
-76.5169
 30
0.0
 11
40.3419
 21
-76.6624
 31
0.0
  0
LINE
  5
359
  8
0
 62
1
 10
40.3419
 20
-76.6624
 30
0.0
 11
40.1875
 21
-76.7984
 31
0.0
  0
LINE
  5
35A
  8
0
 62
1
 10
40.1875
 20
-76.7984
 30
0.0
 11
40.025
 21
-76.9245
 31
0.0
  0
LINE
  5
35B
  8
0
 62
1
 10
40.025
 20
-76.9245
 30
0.0
 11
39.8548
 21
-77.0402
 31
0.0
  0
LINE
  5
35C
  8
0
 62
1
 10
39.8548
 20
-77.0402
 30
0.0
 11
39.6777
 21
-77.1449
 31
0.0
  0
LINE
  5
35D
  8
0
 62
1
 10
39.6777
 20
-77.1449
 30
0.0
 11
39.4944
 21
-77.2383
 31
0.0
  0
LINE
  5
35E
  8
0
 62
1
 10
39.4944
 20
-77.2383
 30
0.0
 11
39.3056
 21
-77.32
 31
0.0
  0
LINE
  5
35F
  8
0
 62
1
 10
39.3056
 20
-77.32
 30
0.0
 11
39.112
 21
-77.3897
 31
0.0
  0
LINE
  5
360
  8
0
 62
1
 10
39.112
 20
-77.3897
 30
0.0
 11
38.9144
 21
-77.4471
 31
0.0
  0
LINE
  5
361
  8
0
 62
1
 10
38.9144
 20
-77.4471
 30
0.0
 11
38.7137
 21
-77.492
 31
0.0
  0
LINE
  5
362
  8
0
 62
1
 10
38.7137
 20
-77.492
 30
0.0
 11
38.5105
 21
-77.5242
 31
0.0
  0
LINE
  5
363
  8
0
 62
1
 10
38.5105
 20
-77.5242
 30
0.0
 11
38.3056
 21
-77.5435
 31
0.0
  0
LINE
  5
364
  8
0
 62
1
 10
38.3056
 20
-77.5435
 30
0.0
 11
38.1
 21
-77.55
 31
0.0
  0
LINE
  5
365
  8
0
 62
1
 10
38.1
 20
-77.55
 30
0.0
 11
37.8944
 21
-77.5435
 31
0.0
  0
ENDSEC
  0
EOF
