  0
SECTION
  2
HEADER
  9
$ACADVER
  1
AC1009
  9
$DWGCODEPAGE
  3
ANSI_1252
  9
$INSBASE
 10
0.0
 20
0.0
 30
0.0
  9
$EXTMIN
 10
1e+20
 20
1e+20
 30
1e+20
  9
$EXTMAX
 10
-1e+20
 20
-1e+20
 30
-1e+20
  9
$LIMMIN
 10
0.0
 20
0.0
  9
$LIMMAX
 10
420.0
 20
297.0
  9
$ORTHOMODE
 70
0
  9
$REGENMODE
 70
1
  9
$FILLMODE
 70
1
  9
$DRAGMODE
 70
2
  9
$QTEXTMODE
 70
0
  9
$MIRRTEXT
 70
1
  9
$OSMODE
 70
20583
  9
$LTSCALE
 40
1.0
  9
$ATTMODE
 70
1
  9
$TEXTSIZE
 40
2.5
  9
$TRACEWID
 40
1.0
  9
$TEXTSTYLE
  7
Standard
  9
$CLAYER
  8
0
  9
$CELTYPE
  6
ByLayer
  9
$CECOLOR
 62
256
  9
$DIMSCALE
 40
1.0
  9
$DIMASZ
 40
2.5
  9
$DIMEXO
 40
0.625
  9
$DIMDLI
 40
3.75
  9
$DIMRND
 40
0.0
  9
$DIMDLE
 40
0.0
  9
$DIMEXE
 40
1.25
  9
$DIMTP
 40
0.0
  9
$DIMTM
 40
0.0
  9
$DIMTXT
 40
2.5
  9
$DIMCEN
 40
2.5
  9
$DIMTSZ
 40
0.0
  9
$DIMTOL
 70
0
  9
$DIMLIM
 70
0
  9
$DIMTIH
 70
0
  9
$DIMTOH
 70
0
  9
$DIMSE1
 70
0
  9
$DIMSE2
 70
0
  9
$DIMTAD
 70
1
  9
$DIMZIN
 70
8
  9
$DIMBLK
  1

  9
$DIMASO
 70
1
  9
$DIMSHO
 70
1
  9
$DIMPOST
  1

  9
$DIMAPOST
  1

  9
$DIMALT
 70
0
  9
$DIMALTD
 70
3
  9
$DIMALTF
 40
0.03937007874
  9
$DIMLFAC
 40
1.0
  9
$DIMTOFL
 70
1
  9
$DIMTVP
 40
0.0
  9
$DIMTIX
 70
0
  9
$DIMSOXD
 70
0
  9
$DIMSAH
 70
0
  9
$DIMBLK1
  1

  9
$DIMBLK2
  1

  9
$DIMSTYLE
  2
ISO-25
  9
$DIMCLRD
 70
0
  9
$DIMCLRE
 70
0
  9
$DIMCLRT
 70
0
  9
$DIMTFAC
 40
1.0
  9
$DIMGAP
 40
0.625
  9
$COORDS
 70
1
  9
$ATTDIA
 70
0
  9
$ATTREQ
 70
1
  9
$HANDLING
 70
1
  9
$LUNITS
 70
2
  9
$LUPREC
 70
4
  9
$SKETCHINC
 40
1.0
  9
$FILLETRAD
 40
10.0
  9
$AUNITS
 70
0
  9
$AUPREC
 70
2
  9
$MENU
  1
.
  9
$ELEVATION
 40
0.0
  9
$PELEVATION
 40
0.0
  9
$THICKNESS
 40
0.0
  9
$LIMCHECK
 70
0
  9
$CHAMFERA
 40
0.0
  9
$CHAMFERB
 40
0.0
  9
$SKPOLY
 70
0
  9
$TDCREATE
 40
2461277.4305439815
  9
$TDUPDATE
 40
2461277.4305439815
  9
$TDINDWG
 40
0.0
  9
$TDUSRTIMER
 40
0.0
  9
$USRTIMER
 70
1
  9
$ANGBASE
 50
0.0
  9
$ANGDIR
 70
0
  9
$PDMODE
 70
0
  9
$PDSIZE
 40
0.0
  9
$PLINEWID
 40
0.0
  9
$SPLFRAME
 70
0
  9
$SPLINETYPE
 70
6
  9
$SPLINESEGS
 70
8
  9
$HANDSEED
  5
205
  9
$SURFTAB1
 70
6
  9
$SURFTAB2
 70
6
  9
$SURFTYPE
 70
6
  9
$SURFU
 70
6
  9
$SURFV
 70
6
  9
$UCSNAME
  2

  9
$UCSORG
 10
0.0
 20
0.0
 30
0.0
  9
$UCSXDIR
 10
1.0
 20
0.0
 30
0.0
  9
$UCSYDIR
 10
0.0
 20
1.0
 30
0.0
  9
$PUCSNAME
  2

  9
$PUCSORG
 10
0.0
 20
0.0
 30
0.0
  9
$PUCSXDIR
 10
1.0
 20
0.0
 30
0.0
  9
$PUCSYDIR
 10
0.0
 20
1.0
 30
0.0
  9
$USERI1
 70
0
  9
$USERI2
 70
0
  9
$USERI3
 70
0
  9
$USERI4
 70
0
  9
$USERI5
 70
0
  9
$USERR1
 40
0.0
  9
$USERR2
 40
0.0
  9
$USERR3
 40
0.0
  9
$USERR4
 40
0.0
  9
$USERR5
 40
0.0
  9
$WORLDVIEW
 70
1
  9
$SHADEDGE
 70
3
  9
$SHADEDIF
 70
70
  9
$TILEMODE
 70
1
  9
$MAXACTVP
 70
64
  9
$PLIMCHECK
 70
0
  9
$PEXTMIN
 10
1e+20
 20
1e+20
 30
1e+20
  9
$PEXTMAX
 10
-1e+20
 20
-1e+20
 30
-1e+20
  9
$PLIMMIN
 10
0.0
 20
0.0
  9
$PLIMMAX
 10
420.0
 20
297.0
  9
$UNITMODE
 70
0
  9
$VISRETAIN
 70
1
  9
$PLINEGEN
 70
0
  9
$PSLTSCALE
 70
1
  0
ENDSEC
  0
SECTION
  2
TABLES
  0
TABLE
  2
VPORT
 70
1
  0
VPORT
  5
1F9
  2
*Active
 70
0
 10
0.0
 20
0.0
 11
1.0
 21
1.0
 12
0.0
 22
0.0
 13
0.0
 23
0.0
 14
0.5
 24
0.5
 15
0.5
 25
0.5
 16
0.0
 26
0.0
 36
1.0
 17
0.0
 27
0.0
 37
0.0
 40
1000.0
 41
1.34
 42
50.0
 43
0.0
 44
0.0
 50
0.0
 51
0.0
 71
0
 72
1000
 73
1
 74
3
 75
0
 76
0
 77
0
 78
0
  0
ENDTAB
  0
TABLE
  2
LTYPE
 70
3
  0
LTYPE
  5
1FA
  2
ByBlock
 70
0
  3

 72
65
 73
0
 40
0.0
  0
LTYPE
  5
1FB
  2
ByLayer
 70
0
  3

 72
65
 73
0
 40
0.0
  0
LTYPE
  5
1FC
  2
Continuous
 70
0
  3

 72
65
 73
0
 40
0.0
  0
ENDTAB
  0
TABLE
  2
LAYER
 70
2
  0
LAYER
  5
1FD
  2
0
 70
0
 62
1
  6
Continuous
  0
LAYER
  5
1FE
  2
Defpoints
 70
0
 62
7
  6
Continuous
  0
ENDTAB
  0
TABLE
  2
STYLE
 70
1
  0
STYLE
  5
1FF
  2
Standard
 70
0
 40
0.0
 41
1.0
 50
0.0
 71
0
 42
2.5
  3
txt
  4

  0
ENDTAB
  0
TABLE
  2
VIEW
 70
0
  0
ENDTAB
  0
TABLE
  2
UCS
 70
0
  0
ENDTAB
  0
TABLE
  2
APPID
 70
3
  0
APPID
  5
200
  2
ACAD
 70
0
  0
APPID
  5
203
  2
HATCHBACKGROUNDCOLOR
 70
0
  0
APPID
  5
204
  2
EZDXF
 70
0
  0
ENDTAB
  0
TABLE
  2
DIMSTYLE
 70
1
  0
DIMSTYLE
105
201
  2
Standard
 70
0
  3

  4

  5

  6

  7

 40
1.0
 41
2.5
 42
0.625
 43
3.75
 44
1.25
 45
0.0
 46
0.0
 47
0.0
 48
0.0
140
2.5
141
2.5
142
0.0
143
0.03937007874
144
1.0
145
0.0
146
1.0
147
0.625
 71
0
 72
0
 73
0
 74
0
 75
0
 76
0
 77
1
 78
8
170
0
171
3
172
1
173
0
174
0
175
0
176
0
177
0
178
0
  0
ENDTAB
  0
ENDSEC
  0
SECTION
  2
BLOCKS
  0
BLOCK
  5
1DA
  8
0
  2
$Model_Space
 70
0
 10
0.0
 20
0.0
 30
0.0
  3
$Model_Space
  1

1001
EZDXF
1000
WRITTEN_BY_EZDXF
1000
1.4.4 @ 2026-08-24T14:19:59.653941+00:00
  0
ENDBLK
  5
1DB
  8
0
  0
BLOCK
  5
1DC
  8
0
  2
$Paper_Space
 70
0
 10
0.0
 20
0.0
 30
0.0
  3
$Paper_Space
  1

  0
ENDBLK
  5
1DD
  8
0
  0
ENDSEC
  0
SECTION
  2
ENTITIES
  0
LINE
  5
100
  8
0
 62
1
 10
120.65
 20
49.81
 30
0.0
 11
82.65
 21
49.81
 31
0.0
  0
LINE
  5
101
  8
0
 62
1
 10
82.65
 20
49.81
 30
0.0
 11
82.65
 21
101.6
 31
0.0
  0
LINE
  5
102
  8
0
 62
1
 10
82.65
 20
101.6
 30
0.0
 11
-120.65
 21
101.6
 31
0.0
  0
LINE
  5
103
  8
0
 62
1
 10
-120.65
 20
101.6
 30
0.0
 11
-120.65
 21
-101.6
 31
0.0
  0
LINE
  5
104
  8
0
 62
1
 10
-120.65
 20
-101.6
 30
0.0
 11
120.65
 21
-101.6
 31
0.0
  0
LINE
  5
105
  8
0
 62
1
 10
120.65
 20
-101.6
 30
0.0
 11
120.65
 21
49.81
 31
0.0
  0
LINE
  5
106
  8
0
 62
1
 10
-101.931
 20
24.5065
 30
0.0
 11
-102.135
 21
24.5258
 31
0.0
  0
LINE
  5
107
  8
0
 62
1
 10
-102.135
 20
24.5258
 30
0.0
 11
-102.339
 21
24.558
 31
0.0
  0
LINE
  5
108
  8
0
 62
1
 10
-102.339
 20
24.558
 30
0.0
 11
-102.539
 21
24.6029
 31
0.0
  0
LINE
  5
109
  8
0
 62
1
 10
-102.539
 20
24.6029
 30
0.0
 11
-102.737
 21
24.6603
 31
0.0
  0
LINE
  5
10A
  8
0
 62
1
 10
-102.737
 20
24.6603
 30
0.0
 11
-102.931
 21
24.73
 31
0.0
  0
LINE
  5
10B
  8
0
 62
1
 10
-102.931
 20
24.73
 30
0.0
 11
-103.119
 21
24.8117
 31
0.0
  0
LINE
  5
10C
  8
0
 62
1
 10
-103.119
 20
24.8117
 30
0.0
 11
-103.303
 21
24.9051
 31
0.0
  0
LINE
  5
10D
  8
0
 62
1
 10
-103.303
 20
24.9051
 30
0.0
 11
-103.48
 21
25.0098
 31
0.0
  0
LINE
  5
10E
  8
0
 62
1
 10
-103.48
 20
25.0098
 30
0.0
 11
-103.65
 21
25.1255
 31
0.0
  0
LINE
  5
10F
  8
0
 62
1
 10
-103.65
 20
25.1255
 30
0.0
 11
-103.813
 21
25.2516
 31
0.0
  0
LINE
  5
110
  8
0
 62
1
 10
-103.813
 20
25.2516
 30
0.0
 11
-103.967
 21
25.3876
 31
0.0
  0
LINE
  5
111
  8
0
 62
1
 10
-103.967
 20
25.3876
 30
0.0
 11
-104.112
 21
25.5331
 31
0.0
  0
LINE
  5
112
  8
0
 62
1
 10
-104.112
 20
25.5331
 30
0.0
 11
-104.248
 21
25.6874
 31
0.0
  0
LINE
  5
113
  8
0
 62
1
 10
-104.248
 20
25.6874
 30
0.0
 11
-104.375
 21
25.85
 31
0.0
  0
LINE
  5
114
  8
0
 62
1
 10
-104.375
 20
25.85
 30
0.0
 11
-104.49
 21
26.0202
 31
0.0
  0
LINE
  5
115
  8
0
 62
1
 10
-104.49
 20
26.0202
 30
0.0
 11
-104.595
 21
26.1973
 31
0.0
  0
LINE
  5
116
  8
0
 62
1
 10
-104.595
 20
26.1973
 30
0.0
 11
-104.688
 21
26.3806
 31
0.0
  0
LINE
  5
117
  8
0
 62
1
 10
-104.688
 20
26.3806
 30
0.0
 11
-104.77
 21
26.5694
 31
0.0
  0
LINE
  5
118
  8
0
 62
1
 10
-104.77
 20
26.5694
 30
0.0
 11
-104.84
 21
26.763
 31
0.0
  0
LINE
  5
119
  8
0
 62
1
 10
-104.84
 20
26.763
 30
0.0
 11
-104.897
 21
26.9605
 31
0.0
  0
LINE
  5
11A
  8
0
 62
1
 10
-104.897
 20
26.9605
 30
0.0
 11
-104.942
 21
27.1613
 31
0.0
  0
LINE
  5
11B
  8
0
 62
1
 10
-104.942
 20
27.1613
 30
0.0
 11
-104.974
 21
27.3645
 31
0.0
  0
LINE
  5
11C
  8
0
 62
1
 10
-104.974
 20
27.3645
 30
0.0
 11
-104.994
 21
27.5694
 31
0.0
  0
LINE
  5
11D
  8
0
 62
1
 10
-104.994
 20
27.5694
 30
0.0
 11
-105.0
 21
27.775
 31
0.0
  0
LINE
  5
11E
  8
0
 62
1
 10
-105.0
 20
27.775
 30
0.0
 11
-104.994
 21
27.9806
 31
0.0
  0
LINE
  5
11F
  8
0
 62
1
 10
-104.994
 20
27.9806
 30
0.0
 11
-104.974
 21
28.1855
 31
0.0
  0
LINE
  5
120
  8
0
 62
1
 10
-104.974
 20
28.1855
 30
0.0
 11
-104.942
 21
28.3887
 31
0.0
  0
LINE
  5
121
  8
0
 62
1
 10
-104.942
 20
28.3887
 30
0.0
 11
-104.897
 21
28.5894
 31
0.0
  0
LINE
  5
122
  8
0
 62
1
 10
-104.897
 20
28.5894
 30
0.0
 11
-104.84
 21
28.787
 31
0.0
  0
LINE
  5
123
  8
0
 62
1
 10
-104.84
 20
28.787
 30
0.0
 11
-104.77
 21
28.9806
 31
0.0
  0
LINE
  5
124
  8
0
 62
1
 10
-104.77
 20
28.9806
 30
0.0
 11
-104.688
 21
29.1694
 31
0.0
  0
LINE
  5
125
  8
0
 62
1
 10
-104.688
 20
29.1694
 30
0.0
 11
-104.595
 21
29.3527
 31
0.0
  0
LINE
  5
126
  8
0
 62
1
 10
-104.595
 20
29.3527
 30
0.0
 11
-104.49
 21
29.5298
 31
0.0
  0
LINE
  5
127
  8
0
 62
1
 10
-104.49
 20
29.5298
 30
0.0
 11
-104.375
 21
29.7
 31
0.0
  0
LINE
  5
128
  8
0
 62
1
 10
-104.375
 20
29.7
 30
0.0
 11
-104.248
 21
29.8625
 31
0.0
  0
LINE
  5
129
  8
0
 62
1
 10
-104.248
 20
29.8625
 30
0.0
 11
-104.112
 21
30.0169
 31
0.0
  0
LINE
  5
12A
  8
0
 62
1
 10
-104.112
 20
30.0169
 30
0.0
 11
-103.967
 21
30.1624
 31
0.0
  0
LINE
  5
12B
  8
0
 62
1
 10
-103.967
 20
30.1624
 30
0.0
 11
-103.813
 21
30.2984
 31
0.0
  0
LINE
  5
12C
  8
0
 62
1
 10
-103.813
 20
30.2984
 30
0.0
 11
-103.65
 21
30.4245
 31
0.0
  0
LINE
  5
12D
  8
0
 62
1
 10
-103.65
 20
30.4245
 30
0.0
 11
-103.48
 21
30.5402
 31
0.0
  0
LINE
  5
12E
  8
0
 62
1
 10
-103.48
 20
30.5402
 30
0.0
 11
-103.303
 21
30.6449
 31
0.0
  0
LINE
  5
12F
  8
0
 62
1
 10
-103.303
 20
30.6449
 30
0.0
 11
-103.119
 21
30.7383
 31
0.0
  0
LINE
  5
130
  8
0
 62
1
 10
-103.119
 20
30.7383
 30
0.0
 11
-102.931
 21
30.82
 31
0.0
  0
LINE
  5
131
  8
0
 62
1
 10
-102.931
 20
30.82
 30
0.0
 11
-102.737
 21
30.8897
 31
0.0
  0
LINE
  5
132
  8
0
 62
1
 10
-102.737
 20
30.8897
 30
0.0
 11
-102.539
 21
30.9471
 31
0.0
  0
LINE
  5
133
  8
0
 62
1
 10
-102.539
 20
30.9471
 30
0.0
 11
-102.339
 21
30.992
 31
0.0
  0
LINE
  5
134
  8
0
 62
1
 10
-102.339
 20
30.992
 30
0.0
 11
-102.135
 21
31.0242
 31
0.0
  0
LINE
  5
135
  8
0
 62
1
 10
-102.135
 20
31.0242
 30
0.0
 11
-101.931
 21
31.0435
 31
0.0
  0
LINE
  5
136
  8
0
 62
1
 10
-101.931
 20
31.0435
 30
0.0
 11
-101.725
 21
31.05
 31
0.0
  0
LINE
  5
137
  8
0
 62
1
 10
-101.725
 20
31.05
 30
0.0
 11
-101.519
 21
31.0435
 31
0.0
  0
LINE
  5
138
  8
0
 62
1
 10
-101.519
 20
31.0435
 30
0.0
 11
-101.315
 21
31.0242
 31
0.0
  0
LINE
  5
139
  8
0
 62
1
 10
-101.315
 20
31.0242
 30
0.0
 11
-101.111
 21
30.992
 31
0.0
  0
LINE
  5
13A
  8
0
 62
1
 10
-101.111
 20
30.992
 30
0.0
 11
-100.911
 21
30.9471
 31
0.0
  0
LINE
  5
13B
  8
0
 62
1
 10
-100.911
 20
30.9471
 30
0.0
 11
-100.713
 21
30.8897
 31
0.0
  0
LINE
  5
13C
  8
0
 62
1
 10
-100.713
 20
30.8897
 30
0.0
 11
-100.519
 21
30.82
 31
0.0
  0
LINE
  5
13D
  8
0
 62
1
 10
-100.519
 20
30.82
 30
0.0
 11
-100.331
 21
30.7383
 31
0.0
  0
LINE
  5
13E
  8
0
 62
1
 10
-100.331
 20
30.7383
 30
0.0
 11
-100.147
 21
30.6449
 31
0.0
  0
LINE
  5
13F
  8
0
 62
1
 10
-100.147
 20
30.6449
 30
0.0
 11
-99.9702
 21
30.5402
 31
0.0
  0
LINE
  5
140
  8
0
 62
1
 10
-99.9702
 20
30.5402
 30
0.0
 11
-99.8
 21
30.4245
 31
0.0
  0
LINE
  5
141
  8
0
 62
1
 10
-99.8
 20
30.4245
 30
0.0
 11
-99.6374
 21
30.2984
 31
0.0
  0
LINE
  5
142
  8
0
 62
1
 10
-99.6374
 20
30.2984
 30
0.0
 11
-99.4831
 21
30.1624
 31
0.0
  0
LINE
  5
143
  8
0
 62
1
 10
-99.4831
 20
30.1624
 30
0.0
 11
-99.3376
 21
30.0169
 31
0.0
  0
LINE
  5
144
  8
0
 62
1
 10
-99.3376
 20
30.0169
 30
0.0
 11
-99.2016
 21
29.8625
 31
0.0
  0
LINE
  5
145
  8
0
 62
1
 10
-99.2016
 20
29.8625
 30
0.0
 11
-99.0755
 21
29.7
 31
0.0
  0
LINE
  5
146
  8
0
 62
1
 10
-99.0755
 20
29.7
 30
0.0
 11
-98.9598
 21
29.5298
 31
0.0
  0
LINE
  5
147
  8
0
 62
1
 10
-98.9598
 20
29.5298
 30
0.0
 11
-98.8551
 21
29.3527
 31
0.0
  0
LINE
  5
148
  8
0
 62
1
 10
-98.8551
 20
29.3527
 30
0.0
 11
-98.7617
 21
29.1694
 31
0.0
  0
LINE
  5
149
  8
0
 62
1
 10
-98.7617
 20
29.1694
 30
0.0
 11
-98.68
 21
28.9806
 31
0.0
  0
LINE
  5
14A
  8
0
 62
1
 10
-98.68
 20
28.9806
 30
0.0
 11
-98.6103
 21
28.787
 31
0.0
  0
LINE
  5
14B
  8
0
 62
1
 10
-98.6103
 20
28.787
 30
0.0
 11
-98.5529
 21
28.5894
 31
0.0
  0
LINE
  5
14C
  8
0
 62
1
 10
-98.5529
 20
28.5894
 30
0.0
 11
-98.508
 21
28.3887
 31
0.0
  0
LINE
  5
14D
  8
0
 62
1
 10
-98.508
 20
28.3887
 30
0.0
 11
-98.4758
 21
28.1855
 31
0.0
  0
LINE
  5
14E
  8
0
 62
1
 10
-98.4758
 20
28.1855
 30
0.0
 11
-98.4565
 21
27.9806
 31
0.0
  0
LINE
  5
14F
  8
0
 62
1
 10
-98.4565
 20
27.9806
 30
0.0
 11
-98.45
 21
27.775
 31
0.0
  0
LINE
  5
150
  8
0
 62
1
 10
-98.45
 20
27.775
 30
0.0
 11
-98.4565
 21
27.5694
 31
0.0
  0
LINE
  5
151
  8
0
 62
1
 10
-98.4565
 20
27.5694
 30
0.0
 11
-98.4758
 21
27.3645
 31
0.0
  0
LINE
  5
152
  8
0
 62
1
 10
-98.4758
 20
27.3645
 30
0.0
 11
-98.508
 21
27.1613
 31
0.0
  0
LINE
  5
153
  8
0
 62
1
 10
-98.508
 20
27.1613
 30
0.0
 11
-98.5529
 21
26.9605
 31
0.0
  0
LINE
  5
154
  8
0
 62
1
 10
-98.5529
 20
26.9605
 30
0.0
 11
-98.6103
 21
26.763
 31
0.0
  0
LINE
  5
155
  8
0
 62
1
 10
-98.6103
 20
26.763
 30
0.0
 11
-98.68
 21
26.5694
 31
0.0
  0
LINE
  5
156
  8
0
 62
1
 10
-98.68
 20
26.5694
 30
0.0
 11
-98.7617
 21
26.3806
 31
0.0
  0
LINE
  5
157
  8
0
 62
1
 10
-98.7617
 20
26.3806
 30
0.0
 11
-98.8551
 21
26.1973
 31
0.0
  0
LINE
  5
158
  8
0
 62
1
 10
-98.8551
 20
26.1973
 30
0.0
 11
-98.9598
 21
26.0202
 31
0.0
  0
LINE
  5
159
  8
0
 62
1
 10
-98.9598
 20
26.0202
 30
0.0
 11
-99.0755
 21
25.85
 31
0.0
  0
LINE
  5
15A
  8
0
 62
1
 10
-99.0755
 20
25.85
 30
0.0
 11
-99.2016
 21
25.6874
 31
0.0
  0
LINE
  5
15B
  8
0
 62
1
 10
-99.2016
 20
25.6874
 30
0.0
 11
-99.3376
 21
25.5331
 31
0.0
  0
LINE
  5
15C
  8
0
 62
1
 10
-99.3376
 20
25.5331
 30
0.0
 11
-99.4831
 21
25.3876
 31
0.0
  0
LINE
  5
15D
  8
0
 62
1
 10
-99.4831
 20
25.3876
 30
0.0
 11
-99.6374
 21
25.2516
 31
0.0
  0
LINE
  5
15E
  8
0
 62
1
 10
-99.6374
 20
25.2516
 30
0.0
 11
-99.8
 21
25.1255
 31
0.0
  0
LINE
  5
15F
  8
0
 62
1
 10
-99.8
 20
25.1255
 30
0.0
 11
-99.9702
 21
25.0098
 31
0.0
  0
LINE
  5
160
  8
0
 62
1
 10
-99.9702
 20
25.0098
 30
0.0
 11
-100.147
 21
24.9051
 31
0.0
  0
LINE
  5
161
  8
0
 62
1
 10
-100.147
 20
24.9051
 30
0.0
 11
-100.331
 21
24.8117
 31
0.0
  0
LINE
  5
162
  8
0
 62
1
 10
-100.331
 20
24.8117
 30
0.0
 11
-100.519
 21
24.73
 31
0.0
  0
LINE
  5
163
  8
0
 62
1
 10
-100.519
 20
24.73
 30
0.0
 11
-100.713
 21
24.6603
 31
0.0
  0
LINE
  5
164
  8
0
 62
1
 10
-100.713
 20
24.6603
 30
0.0
 11
-100.911
 21
24.6029
 31
0.0
  0
LINE
  5
165
  8
0
 62
1
 10
-100.911
 20
24.6029
 30
0.0
 11
-101.111
 21
24.558
 31
0.0
  0
LINE
  5
166
  8
0
 62
1
 10
-101.111
 20
24.558
 30
0.0
 11
-101.315
 21
24.5258
 31
0.0
  0
LINE
  5
167
  8
0
 62
1
 10
-101.315
 20
24.5258
 30
0.0
 11
-101.519
 21
24.5065
 31
0.0
  0
LINE
  5
168
  8
0
 62
1
 10
-101.519
 20
24.5065
 30
0.0
 11
-101.725
 21
24.5
 31
0.0
  0
LINE
  5
169
  8
0
 62
1
 10
-101.725
 20
24.5
 30
0.0
 11
-101.931
 21
24.5065
 31
0.0
  0
LINE
  5
16A
  8
0
 62
1
 10
-101.931
 20
-31.6435
 30
0.0
 11
-102.135
 21
-31.6242
 31
0.0
  0
LINE
  5
16B
  8
0
 62
1
 10
-102.135
 20
-31.6242
 30
0.0
 11
-102.339
 21
-31.592
 31
0.0
  0
LINE
  5
16C
  8
0
 62
1
 10
-102.339
 20
-31.592
 30
0.0
 11
-102.539
 21
-31.5471
 31
0.0
  0
LINE
  5
16D
  8
0
 62
1
 10
-102.539
 20
-31.5471
 30
0.0
 11
-102.737
 21
-31.4897
 31
0.0
  0
LINE
  5
16E
  8
0
 62
1
 10
-102.737
 20
-31.4897
 30
0.0
 11
-102.931
 21
-31.42
 31
0.0
  0
LINE
  5
16F
  8
0
 62
1
 10
-102.931
 20
-31.42
 30
0.0
 11
-103.119
 21
-31.3383
 31
0.0
  0
LINE
  5
170
  8
0
 62
1
 10
-103.119
 20
-31.3383
 30
0.0
 11
-103.303
 21
-31.2449
 31
0.0
  0
LINE
  5
171
  8
0
 62
1
 10
-103.303
 20
-31.2449
 30
0.0
 11
-103.48
 21
-31.1402
 31
0.0
  0
LINE
  5
172
  8
0
 62
1
 10
-103.48
 20
-31.1402
 30
0.0
 11
-103.65
 21
-31.0245
 31
0.0
  0
LINE
  5
173
  8
0
 62
1
 10
-103.65
 20
-31.0245
 30
0.0
 11
-103.813
 21
-30.8984
 31
0.0
  0
LINE
  5
174
  8
0
 62
1
 10
-103.813
 20
-30.8984
 30
0.0
 11
-103.967
 21
-30.7624
 31
0.0
  0
LINE
  5
175
  8
0
 62
1
 10
-103.967
 20
-30.7624
 30
0.0
 11
-104.112
 21
-30.6169
 31
0.0
  0
LINE
  5
176
  8
0
 62
1
 10
-104.112
 20
-30.6169
 30
0.0
 11
-104.248
 21
-30.4626
 31
0.0
  0
LINE
  5
177
  8
0
 62
1
 10
-104.248
 20
-30.4626
 30
0.0
 11
-104.375
 21
-30.3
 31
0.0
  0
LINE
  5
178
  8
0
 62
1
 10
-104.375
 20
-30.3
 30
0.0
 11
-104.49
 21
-30.1298
 31
0.0
  0
LINE
  5
179
  8
0
 62
1
 10
-104.49
 20
-30.1298
 30
0.0
 11
-104.595
 21
-29.9527
 31
0.0
  0
LINE
  5
17A
  8
0
 62
1
 10
-104.595
 20
-29.9527
 30
0.0
 11
-104.688
 21
-29.7694
 31
0.0
  0
LINE
  5
17B
  8
0
 62
1
 10
-104.688
 20
-29.7694
 30
0.0
 11
-104.77
 21
-29.5806
 31
0.0
  0
LINE
  5
17C
  8
0
 62
1
 10
-104.77
 20
-29.5806
 30
0.0
 11
-104.84
 21
-29.387
 31
0.0
  0
LINE
  5
17D
  8
0
 62
1
 10
-104.84
 20
-29.387
 30
0.0
 11
-104.897
 21
-29.1895
 31
0.0
  0
LINE
  5
17E
  8
0
 62
1
 10
-104.897
 20
-29.1895
 30
0.0
 11
-104.942
 21
-28.9887
 31
0.0
  0
LINE
  5
17F
  8
0
 62
1
 10
-104.942
 20
-28.9887
 30
0.0
 11
-104.974
 21
-28.7855
 31
0.0
  0
LINE
  5
180
  8
0
 62
1
 10
-104.974
 20
-28.7855
 30
0.0
 11
-104.994
 21
-28.5806
 31
0.0
  0
LINE
  5
181
  8
0
 62
1
 10
-104.994
 20
-28.5806
 30
0.0
 11
-105.0
 21
-28.375
 31
0.0
  0
LINE
  5
182
  8
0
 62
1
 10
-105.0
 20
-28.375
 30
0.0
 11
-104.994
 21
-28.1694
 31
0.0
  0
LINE
  5
183
  8
0
 62
1
 10
-104.994
 20
-28.1694
 30
0.0
 11
-104.974
 21
-27.9645
 31
0.0
  0
LINE
  5
184
  8
0
 62
1
 10
-104.974
 20
-27.9645
 30
0.0
 11
-104.942
 21
-27.7613
 31
0.0
  0
LINE
  5
185
  8
0
 62
1
 10
-104.942
 20
-27.7613
 30
0.0
 11
-104.897
 21
-27.5605
 31
0.0
  0
LINE
  5
186
  8
0
 62
1
 10
-104.897
 20
-27.5605
 30
0.0
 11
-104.84
 21
-27.363
 31
0.0
  0
LINE
  5
187
  8
0
 62
1
 10
-104.84
 20
-27.363
 30
0.0
 11
-104.77
 21
-27.1694
 31
0.0
  0
LINE
  5
188
  8
0
 62
1
 10
-104.77
 20
-27.1694
 30
0.0
 11
-104.688
 21
-26.9806
 31
0.0
  0
LINE
  5
189
  8
0
 62
1
 10
-104.688
 20
-26.9806
 30
0.0
 11
-104.595
 21
-26.7973
 31
0.0
  0
LINE
  5
18A
  8
0
 62
1
 10
-104.595
 20
-26.7973
 30
0.0
 11
-104.49
 21
-26.6202
 31
0.0
  0
LINE
  5
18B
  8
0
 62
1
 10
-104.49
 20
-26.6202
 30
0.0
 11
-104.375
 21
-26.45
 31
0.0
  0
LINE
  5
18C
  8
0
 62
1
 10
-104.375
 20
-26.45
 30
0.0
 11
-104.248
 21
-26.2874
 31
0.0
  0
LINE
  5
18D
  8
0
 62
1
 10
-104.248
 20
-26.2874
 30
0.0
 11
-104.112
 21
-26.1331
 31
0.0
  0
LINE
  5
18E
  8
0
 62
1
 10
-104.112
 20
-26.1331
 30
0.0
 11
-103.967
 21
-25.9876
 31
0.0
  0
LINE
  5
18F
  8
0
 62
1
 10
-103.967
 20
-25.9876
 30
0.0
 11
-103.813
 21
-25.8516
 31
0.0
  0
LINE
  5
190
  8
0
 62
1
 10
-103.813
 20
-25.8516
 30
0.0
 11
-103.65
 21
-25.7255
 31
0.0
  0
LINE
  5
191
  8
0
 62
1
 10
-103.65
 20
-25.7255
 30
0.0
 11
-103.48
 21
-25.6098
 31
0.0
  0
LINE
  5
192
  8
0
 62
1
 10
-103.48
 20
-25.6098
 30
0.0
 11
-103.303
 21
-25.5051
 31
0.0
  0
LINE
  5
193
  8
0
 62
1
 10
-103.303
 20
-25.5051
 30
0.0
 11
-103.119
 21
-25.4117
 31
0.0
  0
LINE
  5
194
  8
0
 62
1
 10
-103.119
 20
-25.4117
 30
0.0
 11
-102.931
 21
-25.33
 31
0.0
  0
LINE
  5
195
  8
0
 62
1
 10
-102.931
 20
-25.33
 30
0.0
 11
-102.737
 21
-25.2603
 31
0.0
  0
LINE
  5
196
  8
0
 62
1
 10
-102.737
 20
-25.2603
 30
0.0
 11
-102.539
 21
-25.2029
 31
0.0
  0
LINE
  5
197
  8
0
 62
1
 10
-102.539
 20
-25.2029
 30
0.0
 11
-102.339
 21
-25.158
 31
0.0
  0
LINE
  5
198
  8
0
 62
1
 10
-102.339
 20
-25.158
 30
0.0
 11
-102.135
 21
-25.1258
 31
0.0
  0
LINE
  5
199
  8
0
 62
1
 10
-102.135
 20
-25.1258
 30
0.0
 11
-101.931
 21
-25.1065
 31
0.0
  0
LINE
  5
19A
  8
0
 62
1
 10
-101.931
 20
-25.1065
 30
0.0
 11
-101.725
 21
-25.1
 31
0.0
  0
LINE
  5
19B
  8
0
 62
1
 10
-101.725
 20
-25.1
 30
0.0
 11
-101.519
 21
-25.1065
 31
0.0
  0
LINE
  5
19C
  8
0
 62
1
 10
-101.519
 20
-25.1065
 30
0.0
 11
-101.315
 21
-25.1258
 31
0.0
  0
LINE
  5
19D
  8
0
 62
1
 10
-101.315
 20
-25.1258
 30
0.0
 11
-101.111
 21
-25.158
 31
0.0
  0
LINE
  5
19E
  8
0
 62
1
 10
-101.111
 20
-25.158
 30
0.0
 11
-100.911
 21
-25.2029
 31
0.0
  0
LINE
  5
19F
  8
0
 62
1
 10
-100.911
 20
-25.2029
 30
0.0
 11
-100.713
 21
-25.2603
 31
0.0
  0
LINE
  5
1A0
  8
0
 62
1
 10
-100.713
 20
-25.2603
 30
0.0
 11
-100.519
 21
-25.33
 31
0.0
  0
LINE
  5
1A1
  8
0
 62
1
 10
-100.519
 20
-25.33
 30
0.0
 11
-100.331
 21
-25.4117
 31
0.0
  0
LINE
  5
1A2
  8
0
 62
1
 10
-100.331
 20
-25.4117
 30
0.0
 11
-100.147
 21
-25.5051
 31
0.0
  0
LINE
  5
1A3
  8
0
 62
1
 10
-100.147
 20
-25.5051
 30
0.0
 11
-99.9702
 21
-25.6098
 31
0.0
  0
LINE
  5
1A4
  8
0
 62
1
 10
-99.9702
 20
-25.6098
 30
0.0
 11
-99.8
 21
-25.7255
 31
0.0
  0
LINE
  5
1A5
  8
0
 62
1
 10
-99.8
 20
-25.7255
 30
0.0
 11
-99.6374
 21
-25.8516
 31
0.0
  0
LINE
  5
1A6
  8
0
 62
1
 10
-99.6374
 20
-25.8516
 30
0.0
 11
-99.4831
 21
-25.9876
 31
0.0
  0
LINE
  5
1A7
  8
0
 62
1
 10
-99.4831
 20
-25.9876
 30
0.0
 11
-99.3376
 21
-26.1331
 31
0.0
  0
LINE
  5
1A8
  8
0
 62
1
 10
-99.3376
 20
-26.1331
 30
0.0
 11
-99.2016
 21
-26.2874
 31
0.0
  0
LINE
  5
1A9
  8
0
 62
1
 10
-99.2016
 20
-26.2874
 30
0.0
 11
-99.0755
 21
-26.45
 31
0.0
  0
LINE
  5
1AA
  8
0
 62
1
 10
-99.0755
 20
-26.45
 30
0.0
 11
-98.9598
 21
-26.6202
 31
0.0
  0
LINE
  5
1AB
  8
0
 62
1
 10
-98.9598
 20
-26.6202
 30
0.0
 11
-98.8551
 21
-26.7973
 31
0.0
  0
LINE
  5
1AC
  8
0
 62
1
 10
-98.8551
 20
-26.7973
 30
0.0
 11
-98.7617
 21
-26.9806
 31
0.0
  0
LINE
  5
1AD
  8
0
 62
1
 10
-98.7617
 20
-26.9806
 30
0.0
 11
-98.68
 21
-27.1694
 31
0.0
  0
LINE
  5
1AE
  8
0
 62
1
 10
-98.68
 20
-27.1694
 30
0.0
 11
-98.6103
 21
-27.363
 31
0.0
  0
LINE
  5
1AF
  8
0
 62
1
 10
-98.6103
 20
-27.363
 30
0.0
 11
-98.5529
 21
-27.5605
 31
0.0
  0
LINE
  5
1B0
  8
0
 62
1
 10
-98.5529
 20
-27.5605
 30
0.0
 11
-98.508
 21
-27.7613
 31
0.0
  0
LINE
  5
1B1
  8
0
 62
1
 10
-98.508
 20
-27.7613
 30
0.0
 11
-98.4758
 21
-27.9645
 31
0.0
  0
LINE
  5
1B2
  8
0
 62
1
 10
-98.4758
 20
-27.9645
 30
0.0
 11
-98.4565
 21
-28.1694
 31
0.0
  0
LINE
  5
1B3
  8
0
 62
1
 10
-98.4565
 20
-28.1694
 30
0.0
 11
-98.45
 21
-28.375
 31
0.0
  0
LINE
  5
1B4
  8
0
 62
1
 10
-98.45
 20
-28.375
 30
0.0
 11
-98.4565
 21
-28.5806
 31
0.0
  0
LINE
  5
1B5
  8
0
 62
1
 10
-98.4565
 20
-28.5806
 30
0.0
 11
-98.4758
 21
-28.7855
 31
0.0
  0
LINE
  5
1B6
  8
0
 62
1
 10
-98.4758
 20
-28.7855
 30
0.0
 11
-98.508
 21
-28.9887
 31
0.0
  0
LINE
  5
1B7
  8
0
 62
1
 10
-98.508
 20
-28.9887
 30
0.0
 11
-98.5529
 21
-29.1895
 31
0.0
  0
LINE
  5
1B8
  8
0
 62
1
 10
-98.5529
 20
-29.1895
 30
0.0
 11
-98.6103
 21
-29.387
 31
0.0
  0
LINE
  5
1B9
  8
0
 62
1
 10
-98.6103
 20
-29.387
 30
0.0
 11
-98.68
 21
-29.5806
 31
0.0
  0
LINE
  5
1BA
  8
0
 62
1
 10
-98.68
 20
-29.5806
 30
0.0
 11
-98.7617
 21
-29.7694
 31
0.0
  0
LINE
  5
1BB
  8
0
 62
1
 10
-98.7617
 20
-29.7694
 30
0.0
 11
-98.8551
 21
-29.9527
 31
0.0
  0
LINE
  5
1BC
  8
0
 62
1
 10
-98.8551
 20
-29.9527
 30
0.0
 11
-98.9598
 21
-30.1298
 31
0.0
  0
LINE
  5
1BD
  8
0
 62
1
 10
-98.9598
 20
-30.1298
 30
0.0
 11
-99.0755
 21
-30.3
 31
0.0
  0
LINE
  5
1BE
  8
0
 62
1
 10
-99.0755
 20
-30.3
 30
0.0
 11
-99.2016
 21
-30.4626
 31
0.0
  0
LINE
  5
1BF
  8
0
 62
1
 10
-99.2016
 20
-30.4626
 30
0.0
 11
-99.3376
 21
-30.6169
 31
0.0
  0
LINE
  5
1C0
  8
0
 62
1
 10
-99.3376
 20
-30.6169
 30
0.0
 11
-99.4831
 21
-30.7624
 31
0.0
  0
LINE
  5
1C1
  8
0
 62
1
 10
-99.4831
 20
-30.7624
 30
0.0
 11
-99.6374
 21
-30.8984
 31
0.0
  0
LINE
  5
1C2
  8
0
 62
1
 10
-99.6374
 20
-30.8984
 30
0.0
 11
-99.8
 21
-31.0245
 31
0.0
  0
LINE
  5
1C3
  8
0
 62
1
 10
-99.8
 20
-31.0245
 30
0.0
 11
-99.9702
 21
-31.1402
 31
0.0
  0
LINE
  5
1C4
  8
0
 62
1
 10
-99.9702
 20
-31.1402
 30
0.0
 11
-100.147
 21
-31.2449
 31
0.0
  0
LINE
  5
1C5
  8
0
 62
1
 10
-100.147
 20
-31.2449
 30
0.0
 11
-100.331
 21
-31.3383
 31
0.0
  0
LINE
  5
1C6
  8
0
 62
1
 10
-100.331
 20
-31.3383
 30
0.0
 11
-100.519
 21
-31.42
 31
0.0
  0
LINE
  5
1C7
  8
0
 62
1
 10
-100.519
 20
-31.42
 30
0.0
 11
-100.713
 21
-31.4897
 31
0.0
  0
LINE
  5
1C8
  8
0
 62
1
 10
-100.713
 20
-31.4897
 30
0.0
 11
-100.911
 21
-31.5471
 31
0.0
  0
LINE
  5
1C9
  8
0
 62
1
 10
-100.911
 20
-31.5471
 30
0.0
 11
-101.111
 21
-31.592
 31
0.0
  0
LINE
  5
1CA
  8
0
 62
1
 10
-101.111
 20
-31.592
 30
0.0
 11
-101.315
 21
-31.6242
 31
0.0
  0
LINE
  5
1CB
  8
0
 62
1
 10
-101.315
 20
-31.6242
 30
0.0
 11
-101.519
 21
-31.6435
 31
0.0
  0
LINE
  5
1CC
  8
0
 62
1
 10
-101.519
 20
-31.6435
 30
0.0
 11
-101.725
 21
-31.65
 31
0.0
  0
LINE
  5
1CD
  8
0
 62
1
 10
-101.725
 20
-31.65
 30
0.0
 11
-101.931
 21
-31.6435
 31
0.0
  0
ENDSEC
  0
EOF
