  0
SECTION
  2
BLOCKS
  0
ENDSEC
  0
SECTION
  2
ENTITIES
  0
LINE
  8
0
 10
120.65
 20
43.46
 11
76.3
 21
43.46
  0
LINE
  8
0
 10
76.3
 20
43.46
 11
76.3
 21
101.6
  0
LINE
  8
0
 10
76.3
 20
101.6
 11
-120.65
 21
101.6
  0
LINE
  8
0
 10
-120.65
 20
101.6
 11
-120.65
 21
-95.26
  0
LINE
  8
0
 10
-120.65
 20
-95.26
 11
120.65
 21
-95.26
  0
LINE
  8
0
 10
120.65
 20
-95.26
 11
120.65
 21
43.46
  0
LINE
  8
0
 10
-101.931
 20
24.5065
 11
-102.135
 21
24.5258
  0
LINE
  8
0
 10
-102.135
 20
24.5258
 11
-102.339
 21
24.558
  0
LINE
  8
0
 10
-102.339
 20
24.558
 11
-102.539
 21
24.6029
  0
LINE
  8
0
 10
-102.539
 20
24.6029
 11
-102.737
 21
24.6603
  0
LINE
  8
0
 10
-102.737
 20
24.6603
 11
-102.931
 21
24.73
  0
LINE
  8
0
 10
-102.931
 20
24.73
 11
-103.119
 21
24.8117
  0
LINE
  8
0
 10
-103.119
 20
24.8117
 11
-103.303
 21
24.9051
  0
LINE
  8
0
 10
-103.303
 20
24.9051
 11
-103.48
 21
25.0098
  0
LINE
  8
0
 10
-103.48
 20
25.0098
 11
-103.65
 21
25.1255
  0
LINE
  8
0
 10
-103.65
 20
25.1255
 11
-103.813
 21
25.2516
  0
LINE
  8
0
 10
-103.813
 20
25.2516
 11
-103.967
 21
25.3876
  0
LINE
  8
0
 10
-103.967
 20
25.3876
 11
-104.112
 21
25.5331
  0
LINE
  8
0
 10
-104.112
 20
25.5331
 11
-104.248
 21
25.6874
  0
LINE
  8
0
 10
-104.248
 20
25.6874
 11
-104.375
 21
25.85
  0
LINE
  8
0
 10
-104.375
 20
25.85
 11
-104.49
 21
26.0202
  0
LINE
  8
0
 10
-104.49
 20
26.0202
 11
-104.595
 21
26.1973
  0
LINE
  8
0
 10
-104.595
 20
26.1973
 11
-104.688
 21
26.3806
  0
LINE
  8
0
 10
-104.688
 20
26.3806
 11
-104.77
 21
26.5694
  0
LINE
  8
0
 10
-104.77
 20
26.5694
 11
-104.84
 21
26.763
  0
LINE
  8
0
 10
-104.84
 20
26.763
 11
-104.897
 21
26.9605
  0
LINE
  8
0
 10
-104.897
 20
26.9605
 11
-104.942
 21
27.1613
  0
LINE
  8
0
 10
-104.942
 20
27.1613
 11
-104.974
 21
27.3645
  0
LINE
  8
0
 10
-104.974
 20
27.3645
 11
-104.994
 21
27.5694
  0
LINE
  8
0
 10
-104.994
 20
27.5694
 11
-105
 21
27.775
  0
LINE
  8
0
 10
-105
 20
27.775
 11
-104.994
 21
27.9806
  0
LINE
  8
0
 10
-104.994
 20
27.9806
 11
-104.974
 21
28.1855
  0
LINE
  8
0
 10
-104.974
 20
28.1855
 11
-104.942
 21
28.3887
  0
LINE
  8
0
 10
-104.942
 20
28.3887
 11
-104.897
 21
28.5894
  0
LINE
  8
0
 10
-104.897
 20
28.5894
 11
-104.84
 21
28.787
  0
LINE
  8
0
 10
-104.84
 20
28.787
 11
-104.77
 21
28.9806
  0
LINE
  8
0
 10
-104.77
 20
28.9806
 11
-104.688
 21
29.1694
  0
LINE
  8
0
 10
-104.688
 20
29.1694
 11
-104.595
 21
29.3527
  0
LINE
  8
0
 10
-104.595
 20
29.3527
 11
-104.49
 21
29.5298
  0
LINE
  8
0
 10
-104.49
 20
29.5298
 11
-104.375
 21
29.7
  0
LINE
  8
0
 10
-104.375
 20
29.7
 11
-104.248
 21
29.8625
  0
LINE
  8
0
 10
-104.248
 20
29.8625
 11
-104.112
 21
30.0169
  0
LINE
  8
0
 10
-104.112
 20
30.0169
 11
-103.967
 21
30.1624
  0
LINE
  8
0
 10
-103.967
 20
30.1624
 11
-103.813
 21
30.2984
  0
LINE
  8
0
 10
-103.813
 20
30.2984
 11
-103.65
 21
30.4245
  0
LINE
  8
0
 10
-103.65
 20
30.4245
 11
-103.48
 21
30.5402
  0
LINE
  8
0
 10
-103.48
 20
30.5402
 11
-103.303
 21
30.6449
  0
LINE
  8
0
 10
-103.303
 20
30.6449
 11
-103.119
 21
30.7383
  0
LINE
  8
0
 10
-103.119
 20
30.7383
 11
-102.931
 21
30.82
  0
LINE
  8
0
 10
-102.931
 20
30.82
 11
-102.737
 21
30.8897
  0
LINE
  8
0
 10
-102.737
 20
30.8897
 11
-102.539
 21
30.9471
  0
LINE
  8
0
 10
-102.539
 20
30.9471
 11
-102.339
 21
30.992
  0
LINE
  8
0
 10
-102.339
 20
30.992
 11
-102.135
 21
31.0242
  0
LINE
  8
0
 10
-102.135
 20
31.0242
 11
-101.931
 21
31.0435
  0
LINE
  8
0
 10
-101.931
 20
31.0435
 11
-101.725
 21
31.05
  0
LINE
  8
0
 10
-101.725
 20
31.05
 11
-101.519
 21
31.0435
  0
LINE
  8
0
 10
-101.519
 20
31.0435
 11
-101.315
 21
31.0242
  0
LINE
  8
0
 10
-101.315
 20
31.0242
 11
-101.111
 21
30.992
  0
LINE
  8
0
 10
-101.111
 20
30.992
 11
-100.911
 21
30.9471
  0
LINE
  8
0
 10
-100.911
 20
30.9471
 11
-100.713
 21
30.8897
  0
LINE
  8
0
 10
-100.713
 20
30.8897
 11
-100.519
 21
30.82
  0
LINE
  8
0
 10
-100.519
 20
30.82
 11
-100.331
 21
30.7383
  0
LINE
  8
0
 10
-100.331
 20
30.7383
 11
-100.147
 21
30.6449
  0
LINE
  8
0
 10
-100.147
 20
30.6449
 11
-99.9702
 21
30.5402
  0
LINE
  8
0
 10
-99.9702
 20
30.5402
 11
-99.8
 21
30.4245
  0
LINE
  8
0
 10
-99.8
 20
30.4245
 11
-99.6374
 21
30.2984
  0
LINE
  8
0
 10
-99.6374
 20
30.2984
 11
-99.4831
 21
30.1624
  0
LINE
  8
0
 10
-99.4831
 20
30.1624
 11
-99.3376
 21
30.0169
  0
LINE
  8
0
 10
-99.3376
 20
30.0169
 11
-99.2016
 21
29.8625
  0
LINE
  8
0
 10
-99.2016
 20
29.8625
 11
-99.0755
 21
29.7
  0
LINE
  8
0
 10
-99.0755
 20
29.7
 11
-98.9598
 21
29.5298
  0
LINE
  8
0
 10
-98.9598
 20
29.5298
 11
-98.8551
 21
29.3527
  0
LINE
  8
0
 10
-98.8551
 20
29.3527
 11
-98.7617
 21
29.1694
  0
LINE
  8
0
 10
-98.7617
 20
29.1694
 11
-98.68
 21
28.9806
  0
LINE
  8
0
 10
-98.68
 20
28.9806
 11
-98.6103
 21
28.787
  0
LINE
  8
0
 10
-98.6103
 20
28.787
 11
-98.5529
 21
28.5894
  0
LINE
  8
0
 10
-98.5529
 20
28.5894
 11
-98.508
 21
28.3887
  0
LINE
  8
0
 10
-98.508
 20
28.3887
 11
-98.4758
 21
28.1855
  0
LINE
  8
0
 10
-98.4758
 20
28.1855
 11
-98.4565
 21
27.9806
  0
LINE
  8
0
 10
-98.4565
 20
27.9806
 11
-98.45
 21
27.775
  0
LINE
  8
0
 10
-98.45
 20
27.775
 11
-98.4565
 21
27.5694
  0
LINE
  8
0
 10
-98.4565
 20
27.5694
 11
-98.4758
 21
27.3645
  0
LINE
  8
0
 10
-98.4758
 20
27.3645
 11
-98.508
 21
27.1613
  0
LINE
  8
0
 10
-98.508
 20
27.1613
 11
-98.5529
 21
26.9605
  0
LINE
  8
0
 10
-98.5529
 20
26.9605
 11
-98.6103
 21
26.763
  0
LINE
  8
0
 10
-98.6103
 20
26.763
 11
-98.68
 21
26.5694
  0
LINE
  8
0
 10
-98.68
 20
26.5694
 11
-98.7617
 21
26.3806
  0
LINE
  8
0
 10
-98.7617
 20
26.3806
 11
-98.8551
 21
26.1973
  0
LINE
  8
0
 10
-98.8551
 20
26.1973
 11
-98.9598
 21
26.0202
  0
LINE
  8
0
 10
-98.9598
 20
26.0202
 11
-99.0755
 21
25.85
  0
LINE
  8
0
 10
-99.0755
 20
25.85
 11
-99.2016
 21
25.6874
  0
LINE
  8
0
 10
-99.2016
 20
25.6874
 11
-99.3376
 21
25.5331
  0
LINE
  8
0
 10
-99.3376
 20
25.5331
 11
-99.4831
 21
25.3876
  0
LINE
  8
0
 10
-99.4831
 20
25.3876
 11
-99.6374
 21
25.2516
  0
LINE
  8
0
 10
-99.6374
 20
25.2516
 11
-99.8
 21
25.1255
  0
LINE
  8
0
 10
-99.8
 20
25.1255
 11
-99.9702
 21
25.0098
  0
LINE
  8
0
 10
-99.9702
 20
25.0098
 11
-100.147
 21
24.9051
  0
LINE
  8
0
 10
-100.147
 20
24.9051
 11
-100.331
 21
24.8117
  0
LINE
  8
0
 10
-100.331
 20
24.8117
 11
-100.519
 21
24.73
  0
LINE
  8
0
 10
-100.519
 20
24.73
 11
-100.713
 21
24.6603
  0
LINE
  8
0
 10
-100.713
 20
24.6603
 11
-100.911
 21
24.6029
  0
LINE
  8
0
 10
-100.911
 20
24.6029
 11
-101.111
 21
24.558
  0
LINE
  8
0
 10
-101.111
 20
24.558
 11
-101.315
 21
24.5258
  0
LINE
  8
0
 10
-101.315
 20
24.5258
 11
-101.519
 21
24.5065
  0
LINE
  8
0
 10
-101.519
 20
24.5065
 11
-101.725
 21
24.5
  0
LINE
  8
0
 10
-101.725
 20
24.5
 11
-101.931
 21
24.5065
  0
LINE
  8
0
 10
-50.8
 20
-36.175
 11
-50.8
 21
-10.775
  0
LINE
  8
0
 10
-50.8
 20
-10.775
 11
-25.4
 21
-10.775
  0
LINE
  8
0
 10
-25.4
 20
-10.775
 11
-25.4
 21
-36.175
  0
LINE
  8
0
 10
-25.4
 20
-36.175
 11
-50.8
 21
-36.175
  0
LINE
  8
0
 10
25.4
 20
-36.175
 11
25.4
 21
-10.775
  0
LINE
  8
0
 10
25.4
 20
-10.775
 11
50.8
 21
-10.775
  0
LINE
  8
0
 10
50.8
 20
-10.775
 11
50.8
 21
-36.175
  0
LINE
  8
0
 10
50.8
 20
-36.175
 11
25.4
 21
-36.175
  0
LINE
  8
0
 10
-101.931
 20
-31.6435
 11
-102.135
 21
-31.6242
  0
LINE
  8
0
 10
-102.135
 20
-31.6242
 11
-102.339
 21
-31.592
  0
LINE
  8
0
 10
-102.339
 20
-31.592
 11
-102.539
 21
-31.5471
  0
LINE
  8
0
 10
-102.539
 20
-31.5471
 11
-102.737
 21
-31.4897
  0
LINE
  8
0
 10
-102.737
 20
-31.4897
 11
-102.931
 21
-31.42
  0
LINE
  8
0
 10
-102.931
 20
-31.42
 11
-103.119
 21
-31.3383
  0
LINE
  8
0
 10
-103.119
 20
-31.3383
 11
-103.303
 21
-31.2449
  0
LINE
  8
0
 10
-103.303
 20
-31.2449
 11
-103.48
 21
-31.1402
  0
LINE
  8
0
 10
-103.48
 20
-31.1402
 11
-103.65
 21
-31.0245
  0
LINE
  8
0
 10
-103.65
 20
-31.0245
 11
-103.813
 21
-30.8984
  0
LINE
  8
0
 10
-103.813
 20
-30.8984
 11
-103.967
 21
-30.7624
  0
LINE
  8
0
 10
-103.967
 20
-30.7624
 11
-104.112
 21
-30.6169
  0
LINE
  8
0
 10
-104.112
 20
-30.6169
 11
-104.248
 21
-30.4626
  0
LINE
  8
0
 10
-104.248
 20
-30.4626
 11
-104.375
 21
-30.3
  0
LINE
  8
0
 10
-104.375
 20
-30.3
 11
-104.49
 21
-30.1298
  0
LINE
  8
0
 10
-104.49
 20
-30.1298
 11
-104.595
 21
-29.9527
  0
LINE
  8
0
 10
-104.595
 20
-29.9527
 11
-104.688
 21
-29.7694
  0
LINE
  8
0
 10
-104.688
 20
-29.7694
 11
-104.77
 21
-29.5806
  0
LINE
  8
0
 10
-104.77
 20
-29.5806
 11
-104.84
 21
-29.387
  0
LINE
  8
0
 10
-104.84
 20
-29.387
 11
-104.897
 21
-29.1895
  0
LINE
  8
0
 10
-104.897
 20
-29.1895
 11
-104.942
 21
-28.9887
  0
LINE
  8
0
 10
-104.942
 20
-28.9887
 11
-104.974
 21
-28.7855
  0
LINE
  8
0
 10
-104.974
 20
-28.7855
 11
-104.994
 21
-28.5806
  0
LINE
  8
0
 10
-104.994
 20
-28.5806
 11
-105
 21
-28.375
  0
LINE
  8
0
 10
-105
 20
-28.375
 11
-104.994
 21
-28.1694
  0
LINE
  8
0
 10
-104.994
 20
-28.1694
 11
-104.974
 21
-27.9645
  0
LINE
  8
0
 10
-104.974
 20
-27.9645
 11
-104.942
 21
-27.7613
  0
LINE
  8
0
 10
-104.942
 20
-27.7613
 11
-104.897
 21
-27.5605
  0
LINE
  8
0
 10
-104.897
 20
-27.5605
 11
-104.84
 21
-27.363
  0
LINE
  8
0
 10
-104.84
 20
-27.363
 11
-104.77
 21
-27.1694
  0
LINE
  8
0
 10
-104.77
 20
-27.1694
 11
-104.688
 21
-26.9806
  0
LINE
  8
0
 10
-104.688
 20
-26.9806
 11
-104.595
 21
-26.7973
  0
LINE
  8
0
 10
-104.595
 20
-26.7973
 11
-104.49
 21
-26.6202
  0
LINE
  8
0
 10
-104.49
 20
-26.6202
 11
-104.375
 21
-26.45
  0
LINE
  8
0
 10
-104.375
 20
-26.45
 11
-104.248
 21
-26.2874
  0
LINE
  8
0
 10
-104.248
 20
-26.2874
 11
-104.112
 21
-26.1331
  0
LINE
  8
0
 10
-104.112
 20
-26.1331
 11
-103.967
 21
-25.9876
  0
LINE
  8
0
 10
-103.967
 20
-25.9876
 11
-103.813
 21
-25.8516
  0
LINE
  8
0
 10
-103.813
 20
-25.8516
 11
-103.65
 21
-25.7255
  0
LINE
  8
0
 10
-103.65
 20
-25.7255
 11
-103.48
 21
-25.6098
  0
LINE
  8
0
 10
-103.48
 20
-25.6098
 11
-103.303
 21
-25.5051
  0
LINE
  8
0
 10
-103.303
 20
-25.5051
 11
-103.119
 21
-25.4117
  0
LINE
  8
0
 10
-103.119
 20
-25.4117
 11
-102.931
 21
-25.33
  0
LINE
  8
0
 10
-102.931
 20
-25.33
 11
-102.737
 21
-25.2603
  0
LINE
  8
0
 10
-102.737
 20
-25.2603
 11
-102.539
 21
-25.2029
  0
LINE
  8
0
 10
-102.539
 20
-25.2029
 11
-102.339
 21
-25.158
  0
LINE
  8
0
 10
-102.339
 20
-25.158
 11
-102.135
 21
-25.1258
  0
LINE
  8
0
 10
-102.135
 20
-25.1258
 11
-101.931
 21
-25.1065
  0
LINE
  8
0
 10
-101.931
 20
-25.1065
 11
-101.725
 21
-25.1
  0
LINE
  8
0
 10
-101.725
 20
-25.1
 11
-101.519
 21
-25.1065
  0
LINE
  8
0
 10
-101.519
 20
-25.1065
 11
-101.315
 21
-25.1258
  0
LINE
  8
0
 10
-101.315
 20
-25.1258
 11
-101.111
 21
-25.158
  0
LINE
  8
0
 10
-101.111
 20
-25.158
 11
-100.911
 21
-25.2029
  0
LINE
  8
0
 10
-100.911
 20
-25.2029
 11
-100.713
 21
-25.2603
  0
LINE
  8
0
 10
-100.713
 20
-25.2603
 11
-100.519
 21
-25.33
  0
LINE
  8
0
 10
-100.519
 20
-25.33
 11
-100.331
 21
-25.4117
  0
LINE
  8
0
 10
-100.331
 20
-25.4117
 11
-100.147
 21
-25.5051
  0
LINE
  8
0
 10
-100.147
 20
-25.5051
 11
-99.9702
 21
-25.6098
  0
LINE
  8
0
 10
-99.9702
 20
-25.6098
 11
-99.8
 21
-25.7255
  0
LINE
  8
0
 10
-99.8
 20
-25.7255
 11
-99.6374
 21
-25.8516
  0
LINE
  8
0
 10
-99.6374
 20
-25.8516
 11
-99.4831
 21
-25.9876
  0
LINE
  8
0
 10
-99.4831
 20
-25.9876
 11
-99.3376
 21
-26.1331
  0
LINE
  8
0
 10
-99.3376
 20
-26.1331
 11
-99.2016
 21
-26.2874
  0
LINE
  8
0
 10
-99.2016
 20
-26.2874
 11
-99.0755
 21
-26.45
  0
LINE
  8
0
 10
-99.0755
 20
-26.45
 11
-98.9598
 21
-26.6202
  0
LINE
  8
0
 10
-98.9598
 20
-26.6202
 11
-98.8551
 21
-26.7973
  0
LINE
  8
0
 10
-98.8551
 20
-26.7973
 11
-98.7617
 21
-26.9806
  0
LINE
  8
0
 10
-98.7617
 20
-26.9806
 11
-98.68
 21
-27.1694
  0
LINE
  8
0
 10
-98.68
 20
-27.1694
 11
-98.6103
 21
-27.363
  0
LINE
  8
0
 10
-98.6103
 20
-27.363
 11
-98.5529
 21
-27.5605
  0
LINE
  8
0
 10
-98.5529
 20
-27.5605
 11
-98.508
 21
-27.7613
  0
LINE
  8
0
 10
-98.508
 20
-27.7613
 11
-98.4758
 21
-27.9645
  0
LINE
  8
0
 10
-98.4758
 20
-27.9645
 11
-98.4565
 21
-28.1694
  0
LINE
  8
0
 10
-98.4565
 20
-28.1694
 11
-98.45
 21
-28.375
  0
LINE
  8
0
 10
-98.45
 20
-28.375
 11
-98.4565
 21
-28.5806
  0
LINE
  8
0
 10
-98.4565
 20
-28.5806
 11
-98.4758
 21
-28.7855
  0
LINE
  8
0
 10
-98.4758
 20
-28.7855
 11
-98.508
 21
-28.9887
  0
LINE
  8
0
 10
-98.508
 20
-28.9887
 11
-98.5529
 21
-29.1895
  0
LINE
  8
0
 10
-98.5529
 20
-29.1895
 11
-98.6103
 21
-29.387
  0
LINE
  8
0
 10
-98.6103
 20
-29.387
 11
-98.68
 21
-29.5806
  0
LINE
  8
0
 10
-98.68
 20
-29.5806
 11
-98.7617
 21
-29.7694
  0
LINE
  8
0
 10
-98.7617
 20
-29.7694
 11
-98.8551
 21
-29.9527
  0
LINE
  8
0
 10
-98.8551
 20
-29.9527
 11
-98.9598
 21
-30.1298
  0
LINE
  8
0
 10
-98.9598
 20
-30.1298
 11
-99.0755
 21
-30.3
  0
LINE
  8
0
 10
-99.0755
 20
-30.3
 11
-99.2016
 21
-30.4626
  0
LINE
  8
0
 10
-99.2016
 20
-30.4626
 11
-99.3376
 21
-30.6169
  0
LINE
  8
0
 10
-99.3376
 20
-30.6169
 11
-99.4831
 21
-30.7624
  0
LINE
  8
0
 10
-99.4831
 20
-30.7624
 11
-99.6374
 21
-30.8984
  0
LINE
  8
0
 10
-99.6374
 20
-30.8984
 11
-99.8
 21
-31.0245
  0
LINE
  8
0
 10
-99.8
 20
-31.0245
 11
-99.9702
 21
-31.1402
  0
LINE
  8
0
 10
-99.9702
 20
-31.1402
 11
-100.147
 21
-31.2449
  0
LINE
  8
0
 10
-100.147
 20
-31.2449
 11
-100.331
 21
-31.3383
  0
LINE
  8
0
 10
-100.331
 20
-31.3383
 11
-100.519
 21
-31.42
  0
LINE
  8
0
 10
-100.519
 20
-31.42
 11
-100.713
 21
-31.4897
  0
LINE
  8
0
 10
-100.713
 20
-31.4897
 11
-100.911
 21
-31.5471
  0
LINE
  8
0
 10
-100.911
 20
-31.5471
 11
-101.111
 21
-31.592
  0
LINE
  8
0
 10
-101.111
 20
-31.592
 11
-101.315
 21
-31.6242
  0
LINE
  8
0
 10
-101.315
 20
-31.6242
 11
-101.519
 21
-31.6435
  0
LINE
  8
0
 10
-101.519
 20
-31.6435
 11
-101.725
 21
-31.65
  0
LINE
  8
0
 10
-101.725
 20
-31.65
 11
-101.931
 21
-31.6435
  0
LINE
  8
0
 10
-38.3056
 20
-52.1435
 11
-38.5105
 21
-52.1242
  0
LINE
  8
0
 10
-38.5105
 20
-52.1242
 11
-38.7137
 21
-52.092
  0
LINE
  8
0
 10
-38.7137
 20
-52.092
 11
-38.9144
 21
-52.0471
  0
LINE
  8
0
 10
-38.9144
 20
-52.0471
 11
-39.112
 21
-51.9897
  0
LINE
  8
0
 10
-39.112
 20
-51.9897
 11
-39.3056
 21
-51.92
  0
LINE
  8
0
 10
-39.3056
 20
-51.92
 11
-39.4944
 21
-51.8383
  0
LINE
  8
0
 10
-39.4944
 20
-51.8383
 11
-39.6777
 21
-51.7449
  0
LINE
  8
0
 10
-39.6777
 20
-51.7449
 11
-39.8548
 21
-51.6402
  0
LINE
  8
0
 10
-39.8548
 20
-51.6402
 11
-40.025
 21
-51.5245
  0
LINE
  8
0
 10
-40.025
 20
-51.5245
 11
-40.1875
 21
-51.3984
  0
LINE
  8
0
 10
-40.1875
 20
-51.3984
 11
-40.3419
 21
-51.2624
  0
LINE
  8
0
 10
-40.3419
 20
-51.2624
 11
-40.4874
 21
-51.1169
  0
LINE
  8
0
 10
-40.4874
 20
-51.1169
 11
-40.6234
 21
-50.9625
  0
LINE
  8
0
 10
-40.6234
 20
-50.9625
 11
-40.7495
 21
-50.8
  0
LINE
  8
0
 10
-40.7495
 20
-50.8
 11
-40.8652
 21
-50.6298
  0
LINE
  8
0
 10
-40.8652
 20
-50.6298
 11
-40.9699
 21
-50.4527
  0
LINE
  8
0
 10
-40.9699
 20
-50.4527
 11
-41.0633
 21
-50.2694
  0
LINE
  8
0
 10
-41.0633
 20
-50.2694
 11
-41.145
 21
-50.0806
  0
LINE
  8
0
 10
-41.145
 20
-50.0806
 11
-41.2147
 21
-49.887
  0
LINE
  8
0
 10
-41.2147
 20
-49.887
 11
-41.2721
 21
-49.6894
  0
LINE
  8
0
 10
-41.2721
 20
-49.6894
 11
-41.317
 21
-49.4887
  0
LINE
  8
0
 10
-41.317
 20
-49.4887
 11
-41.3492
 21
-49.2854
  0
LINE
  8
0
 10
-41.3492
 20
-49.2854
 11
-41.3685
 21
-49.0806
  0
LINE
  8
0
 10
-41.3685
 20
-49.0806
 11
-41.375
 21
-48.875
  0
LINE
  8
0
 10
-41.375
 20
-48.875
 11
-41.3685
 21
-48.6693
  0
LINE
  8
0
 10
-41.3685
 20
-48.6693
 11
-41.3492
 21
-48.4645
  0
LINE
  8
0
 10
-41.3492
 20
-48.4645
 11
-41.317
 21
-48.2613
  0
LINE
  8
0
 10
-41.317
 20
-48.2613
 11
-41.2721
 21
-48.0605
  0
LINE
  8
0
 10
-41.2721
 20
-48.0605
 11
-41.2147
 21
-47.8629
  0
LINE
  8
0
 10
-41.2147
 20
-47.8629
 11
-41.145
 21
-47.6694
  0
LINE
  8
0
 10
-41.145
 20
-47.6694
 11
-41.0633
 21
-47.4806
  0
LINE
  8
0
 10
-41.0633
 20
-47.4806
 11
-40.9699
 21
-47.2972
  0
LINE
  8
0
 10
-40.9699
 20
-47.2972
 11
-40.8652
 21
-47.1201
  0
LINE
  8
0
 10
-40.8652
 20
-47.1201
 11
-40.7495
 21
-46.95
  0
LINE
  8
0
 10
-40.7495
 20
-46.95
 11
-40.6234
 21
-46.7874
  0
LINE
  8
0
 10
-40.6234
 20
-46.7874
 11
-40.4874
 21
-46.6331
  0
LINE
  8
0
 10
-40.4874
 20
-46.6331
 11
-40.3419
 21
-46.4876
  0
LINE
  8
0
 10
-40.3419
 20
-46.4876
 11
-40.1875
 21
-46.3515
  0
LINE
  8
0
 10
-40.1875
 20
-46.3515
 11
-40.025
 21
-46.2254
  0
LINE
  8
0
 10
-40.025
 20
-46.2254
 11
-39.8548
 21
-46.1098
  0
LINE
  8
0
 10
-39.8548
 20
-46.1098
 11
-39.6777
 21
-46.0051
  0
LINE
  8
0
 10
-39.6777
 20
-46.0051
 11
-39.4944
 21
-45.9117
  0
LINE
  8
0
 10
-39.4944
 20
-45.9117
 11
-39.3056
 21
-45.83
  0
LINE
  8
0
 10
-39.3056
 20
-45.83
 11
-39.112
 21
-45.7603
  0
LINE
  8
0
 10
-39.112
 20
-45.7603
 11
-38.9144
 21
-45.7029
  0
LINE
  8
0
 10
-38.9144
 20
-45.7029
 11
-38.7137
 21
-45.658
  0
LINE
  8
0
 10
-38.7137
 20
-45.658
 11
-38.5105
 21
-45.6258
  0
LINE
  8
0
 10
-38.5105
 20
-45.6258
 11
-38.3056
 21
-45.6064
  0
LINE
  8
0
 10
-38.3056
 20
-45.6064
 11
-38.1
 21
-45.6
  0
LINE
  8
0
 10
-38.1
 20
-45.6
 11
-37.8944
 21
-45.6064
  0
LINE
  8
0
 10
-37.8944
 20
-45.6064
 11
-37.6895
 21
-45.6258
  0
LINE
  8
0
 10
-37.6895
 20
-45.6258
 11
-37.4863
 21
-45.658
  0
LINE
  8
0
 10
-37.4863
 20
-45.658
 11
-37.2855
 21
-45.7029
  0
LINE
  8
0
 10
-37.2855
 20
-45.7029
 11
-37.088
 21
-45.7603
  0
LINE
  8
0
 10
-37.088
 20
-45.7603
 11
-36.8944
 21
-45.83
  0
LINE
  8
0
 10
-36.8944
 20
-45.83
 11
-36.7056
 21
-45.9117
  0
LINE
  8
0
 10
-36.7056
 20
-45.9117
 11
-36.5223
 21
-46.0051
  0
LINE
  8
0
 10
-36.5223
 20
-46.0051
 11
-36.3452
 21
-46.1098
  0
LINE
  8
0
 10
-36.3452
 20
-46.1098
 11
-36.175
 21
-46.2254
  0
LINE
  8
0
 10
-36.175
 20
-46.2254
 11
-36.0124
 21
-46.3515
  0
LINE
  8
0
 10
-36.0124
 20
-46.3515
 11
-35.8581
 21
-46.4876
  0
LINE
  8
0
 10
-35.8581
 20
-46.4876
 11
-35.7126
 21
-46.6331
  0
LINE
  8
0
 10
-35.7126
 20
-46.6331
 11
-35.5766
 21
-46.7874
  0
LINE
  8
0
 10
-35.5766
 20
-46.7874
 11
-35.4505
 21
-46.95
  0
LINE
  8
0
 10
-35.4505
 20
-46.95
 11
-35.3348
 21
-47.1201
  0
LINE
  8
0
 10
-35.3348
 20
-47.1201
 11
-35.2301
 21
-47.2972
  0
LINE
  8
0
 10
-35.2301
 20
-47.2972
 11
-35.1367
 21
-47.4806
  0
LINE
  8
0
 10
-35.1367
 20
-47.4806
 11
-35.055
 21
-47.6694
  0
LINE
  8
0
 10
-35.055
 20
-47.6694
 11
-34.9853
 21
-47.8629
  0
LINE
  8
0
 10
-34.9853
 20
-47.8629
 11
-34.9279
 21
-48.0605
  0
LINE
  8
0
 10
-34.9279
 20
-48.0605
 11
-34.883
 21
-48.2613
  0
LINE
  8
0
 10
-34.883
 20
-48.2613
 11
-34.8508
 21
-48.4645
  0
LINE
  8
0
 10
-34.8508
 20
-48.4645
 11
-34.8315
 21
-48.6693
  0
LINE
  8
0
 10
-34.8315
 20
-48.6693
 11
-34.825
 21
-48.875
  0
LINE
  8
0
 10
-34.825
 20
-48.875
 11
-34.8315
 21
-49.0806
  0
LINE
  8
0
 10
-34.8315
 20
-49.0806
 11
-34.8508
 21
-49.2854
  0
LINE
  8
0
 10
-34.8508
 20
-49.2854
 11
-34.883
 21
-49.4887
  0
LINE
  8
0
 10
-34.883
 20
-49.4887
 11
-34.9279
 21
-49.6894
  0
LINE
  8
0
 10
-34.9279
 20
-49.6894
 11
-34.9853
 21
-49.887
  0
LINE
  8
0
 10
-34.9853
 20
-49.887
 11
-35.055
 21
-50.0806
  0
LINE
  8
0
 10
-35.055
 20
-50.0806
 11
-35.1367
 21
-50.2694
  0
LINE
  8
0
 10
-35.1367
 20
-50.2694
 11
-35.2301
 21
-50.4527
  0
LINE
  8
0
 10
-35.2301
 20
-50.4527
 11
-35.3348
 21
-50.6298
  0
LINE
  8
0
 10
-35.3348
 20
-50.6298
 11
-35.4505
 21
-50.8
  0
LINE
  8
0
 10
-35.4505
 20
-50.8
 11
-35.5766
 21
-50.9625
  0
LINE
  8
0
 10
-35.5766
 20
-50.9625
 11
-35.7126
 21
-51.1169
  0
LINE
  8
0
 10
-35.7126
 20
-51.1169
 11
-35.8581
 21
-51.2624
  0
LINE
  8
0
 10
-35.8581
 20
-51.2624
 11
-36.0124
 21
-51.3984
  0
LINE
  8
0
 10
-36.0124
 20
-51.3984
 11
-36.175
 21
-51.5245
  0
LINE
  8
0
 10
-36.175
 20
-51.5245
 11
-36.3452
 21
-51.6402
  0
LINE
  8
0
 10
-36.3452
 20
-51.6402
 11
-36.5223
 21
-51.7449
  0
LINE
  8
0
 10
-36.5223
 20
-51.7449
 11
-36.7056
 21
-51.8383
  0
LINE
  8
0
 10
-36.7056
 20
-51.8383
 11
-36.8944
 21
-51.92
  0
LINE
  8
0
 10
-36.8944
 20
-51.92
 11
-37.088
 21
-51.9897
  0
LINE
  8
0
 10
-37.088
 20
-51.9897
 11
-37.2855
 21
-52.0471
  0
LINE
  8
0
 10
-37.2855
 20
-52.0471
 11
-37.4863
 21
-52.092
  0
LINE
  8
0
 10
-37.4863
 20
-52.092
 11
-37.6895
 21
-52.1242
  0
LINE
  8
0
 10
-37.6895
 20
-52.1242
 11
-37.8944
 21
-52.1435
  0
LINE
  8
0
 10
-37.8944
 20
-52.1435
 11
-38.1
 21
-52.15
  0
LINE
  8
0
 10
-38.1
 20
-52.15
 11
-38.3056
 21
-52.1435
  0
LINE
  8
0
 10
37.8944
 20
-52.1435
 11
37.6895
 21
-52.1242
  0
LINE
  8
0
 10
37.6895
 20
-52.1242
 11
37.4863
 21
-52.092
  0
LINE
  8
0
 10
37.4863
 20
-52.092
 11
37.2855
 21
-52.0471
  0
LINE
  8
0
 10
37.2855
 20
-52.0471
 11
37.088
 21
-51.9897
  0
LINE
  8
0
 10
37.088
 20
-51.9897
 11
36.8944
 21
-51.92
  0
LINE
  8
0
 10
36.8944
 20
-51.92
 11
36.7056
 21
-51.8383
  0
LINE
  8
0
 10
36.7056
 20
-51.8383
 11
36.5223
 21
-51.7449
  0
LINE
  8
0
 10
36.5223
 20
-51.7449
 11
36.3452
 21
-51.6402
  0
LINE
  8
0
 10
36.3452
 20
-51.6402
 11
36.175
 21
-51.5245
  0
LINE
  8
0
 10
36.175
 20
-51.5245
 11
36.0124
 21
-51.3984
  0
LINE
  8
0
 10
36.0124
 20
-51.3984
 11
35.8581
 21
-51.2624
  0
LINE
  8
0
 10
35.8581
 20
-51.2624
 11
35.7126
 21
-51.1169
  0
LINE
  8
0
 10
35.7126
 20
-51.1169
 11
35.5766
 21
-50.9625
  0
LINE
  8
0
 10
35.5766
 20
-50.9625
 11
35.4505
 21
-50.8
  0
LINE
  8
0
 10
35.4505
 20
-50.8
 11
35.3348
 21
-50.6298
  0
LINE
  8
0
 10
35.3348
 20
-50.6298
 11
35.2301
 21
-50.4527
  0
LINE
  8
0
 10
35.2301
 20
-50.4527
 11
35.1367
 21
-50.2694
  0
LINE
  8
0
 10
35.1367
 20
-50.2694
 11
35.055
 21
-50.0806
  0
LINE
  8
0
 10
35.055
 20
-50.0806
 11
34.9853
 21
-49.887
  0
LINE
  8
0
 10
34.9853
 20
-49.887
 11
34.9279
 21
-49.6894
  0
LINE
  8
0
 10
34.9279
 20
-49.6894
 11
34.883
 21
-49.4887
  0
LINE
  8
0
 10
34.883
 20
-49.4887
 11
34.8508
 21
-49.2854
  0
LINE
  8
0
 10
34.8508
 20
-49.2854
 11
34.8315
 21
-49.0806
  0
LINE
  8
0
 10
34.8315
 20
-49.0806
 11
34.825
 21
-48.875
  0
LINE
  8
0
 10
34.825
 20
-48.875
 11
34.8315
 21
-48.6693
  0
LINE
  8
0
 10
34.8315
 20
-48.6693
 11
34.8508
 21
-48.4645
  0
LINE
  8
0
 10
34.8508
 20
-48.4645
 11
34.883
 21
-48.2613
  0
LINE
  8
0
 10
34.883
 20
-48.2613
 11
34.9279
 21
-48.0605
  0
LINE
  8
0
 10
34.9279
 20
-48.0605
 11
34.9853
 21
-47.8629
  0
LINE
  8
0
 10
34.9853
 20
-47.8629
 11
35.055
 21
-47.6694
  0
LINE
  8
0
 10
35.055
 20
-47.6694
 11
35.1367
 21
-47.4806
  0
LINE
  8
0
 10
35.1367
 20
-47.4806
 11
35.2301
 21
-47.2972
  0
LINE
  8
0
 10
35.2301
 20
-47.2972
 11
35.3348
 21
-47.1201
  0
LINE
  8
0
 10
35.3348
 20
-47.1201
 11
35.4505
 21
-46.95
  0
LINE
  8
0
 10
35.4505
 20
-46.95
 11
35.5766
 21
-46.7874
  0
LINE
  8
0
 10
35.5766
 20
-46.7874
 11
35.7126
 21
-46.6331
  0
LINE
  8
0
 10
35.7126
 20
-46.6331
 11
35.8581
 21
-46.4876
  0
LINE
  8
0
 10
35.8581
 20
-46.4876
 11
36.0124
 21
-46.3515
  0
LINE
  8
0
 10
36.0124
 20
-46.3515
 11
36.175
 21
-46.2254
  0
LINE
  8
0
 10
36.175
 20
-46.2254
 11
36.3452
 21
-46.1098
  0
LINE
  8
0
 10
36.3452
 20
-46.1098
 11
36.5223
 21
-46.0051
  0
LINE
  8
0
 10
36.5223
 20
-46.0051
 11
36.7056
 21
-45.9117
  0
LINE
  8
0
 10
36.7056
 20
-45.9117
 11
36.8944
 21
-45.83
  0
LINE
  8
0
 10
36.8944
 20
-45.83
 11
37.088
 21
-45.7603
  0
LINE
  8
0
 10
37.088
 20
-45.7603
 11
37.2855
 21
-45.7029
  0
LINE
  8
0
 10
37.2855
 20
-45.7029
 11
37.4863
 21
-45.658
  0
LINE
  8
0
 10
37.4863
 20
-45.658
 11
37.6895
 21
-45.6258
  0
LINE
  8
0
 10
37.6895
 20
-45.6258
 11
37.8944
 21
-45.6064
  0
LINE
  8
0
 10
37.8944
 20
-45.6064
 11
38.1
 21
-45.6
  0
LINE
  8
0
 10
38.1
 20
-45.6
 11
38.3056
 21
-45.6064
  0
LINE
  8
0
 10
38.3056
 20
-45.6064
 11
38.5105
 21
-45.6258
  0
LINE
  8
0
 10
38.5105
 20
-45.6258
 11
38.7137
 21
-45.658
  0
LINE
  8
0
 10
38.7137
 20
-45.658
 11
38.9144
 21
-45.7029
  0
LINE
  8
0
 10
38.9144
 20
-45.7029
 11
39.112
 21
-45.7603
  0
LINE
  8
0
 10
39.112
 20
-45.7603
 11
39.3056
 21
-45.83
  0
LINE
  8
0
 10
39.3056
 20
-45.83
 11
39.4944
 21
-45.9117
  0
LINE
  8
0
 10
39.4944
 20
-45.9117
 11
39.6777
 21
-46.0051
  0
LINE
  8
0
 10
39.6777
 20
-46.0051
 11
39.8548
 21
-46.1098
  0
LINE
  8
0
 10
39.8548
 20
-46.1098
 11
40.025
 21
-46.2254
  0
LINE
  8
0
 10
40.025
 20
-46.2254
 11
40.1875
 21
-46.3515
  0
LINE
  8
0
 10
40.1875
 20
-46.3515
 11
40.3419
 21
-46.4876
  0
LINE
  8
0
 10
40.3419
 20
-46.4876
 11
40.4874
 21
-46.6331
  0
LINE
  8
0
 10
40.4874
 20
-46.6331
 11
40.6234
 21
-46.7874
  0
LINE
  8
0
 10
40.6234
 20
-46.7874
 11
40.7495
 21
-46.95
  0
LINE
  8
0
 10
40.7495
 20
-46.95
 11
40.8652
 21
-47.1201
  0
LINE
  8
0
 10
40.8652
 20
-47.1201
 11
40.9699
 21
-47.2972
  0
LINE
  8
0
 10
40.9699
 20
-47.2972
 11
41.0633
 21
-47.4806
  0
LINE
  8
0
 10
41.0633
 20
-47.4806
 11
41.145
 21
-47.6694
  0
LINE
  8
0
 10
41.145
 20
-47.6694
 11
41.2147
 21
-47.8629
  0
LINE
  8
0
 10
41.2147
 20
-47.8629
 11
41.2721
 21
-48.0605
  0
LINE
  8
0
 10
41.2721
 20
-48.0605
 11
41.317
 21
-48.2613
  0
LINE
  8
0
 10
41.317
 20
-48.2613
 11
41.3492
 21
-48.4645
  0
LINE
  8
0
 10
41.3492
 20
-48.4645
 11
41.3685
 21
-48.6693
  0
LINE
  8
0
 10
41.3685
 20
-48.6693
 11
41.375
 21
-48.875
  0
LINE
  8
0
 10
41.375
 20
-48.875
 11
41.3685
 21
-49.0806
  0
LINE
  8
0
 10
41.3685
 20
-49.0806
 11
41.3492
 21
-49.2854
  0
LINE
  8
0
 10
41.3492
 20
-49.2854
 11
41.317
 21
-49.4887
  0
LINE
  8
0
 10
41.317
 20
-49.4887
 11
41.2721
 21
-49.6894
  0
LINE
  8
0
 10
41.2721
 20
-49.6894
 11
41.2147
 21
-49.887
  0
LINE
  8
0
 10
41.2147
 20
-49.887
 11
41.145
 21
-50.0806
  0
LINE
  8
0
 10
41.145
 20
-50.0806
 11
41.0633
 21
-50.2694
  0
LINE
  8
0
 10
41.0633
 20
-50.2694
 11
40.9699
 21
-50.4527
  0
LINE
  8
0
 10
40.9699
 20
-50.4527
 11
40.8652
 21
-50.6298
  0
LINE
  8
0
 10
40.8652
 20
-50.6298
 11
40.7495
 21
-50.8
  0
LINE
  8
0
 10
40.7495
 20
-50.8
 11
40.6234
 21
-50.9625
  0
LINE
  8
0
 10
40.6234
 20
-50.9625
 11
40.4874
 21
-51.1169
  0
LINE
  8
0
 10
40.4874
 20
-51.1169
 11
40.3419
 21
-51.2624
  0
LINE
  8
0
 10
40.3419
 20
-51.2624
 11
40.1875
 21
-51.3984
  0
LINE
  8
0
 10
40.1875
 20
-51.3984
 11
40.025
 21
-51.5245
  0
LINE
  8
0
 10
40.025
 20
-51.5245
 11
39.8548
 21
-51.6402
  0
LINE
  8
0
 10
39.8548
 20
-51.6402
 11
39.6777
 21
-51.7449
  0
LINE
  8
0
 10
39.6777
 20
-51.7449
 11
39.4944
 21
-51.8383
  0
LINE
  8
0
 10
39.4944
 20
-51.8383
 11
39.3056
 21
-51.92
  0
LINE
  8
0
 10
39.3056
 20
-51.92
 11
39.112
 21
-51.9897
  0
LINE
  8
0
 10
39.112
 20
-51.9897
 11
38.9144
 21
-52.0471
  0
LINE
  8
0
 10
38.9144
 20
-52.0471
 11
38.7137
 21
-52.092
  0
LINE
  8
0
 10
38.7137
 20
-52.092
 11
38.5105
 21
-52.1242
  0
LINE
  8
0
 10
38.5105
 20
-52.1242
 11
38.3056
 21
-52.1435
  0
LINE
  8
0
 10
38.3056
 20
-52.1435
 11
38.1
 21
-52.15
  0
LINE
  8
0
 10
38.1
 20
-52.15
 11
37.8944
 21
-52.1435
  0
LINE
  8
0
 10
-38.3056
 20
-77.5435
 11
-38.5105
 21
-77.5242
  0
LINE
  8
0
 10
-38.5105
 20
-77.5242
 11
-38.7137
 21
-77.492
  0
LINE
  8
0
 10
-38.7137
 20
-77.492
 11
-38.9144
 21
-77.4471
  0
LINE
  8
0
 10
-38.9144
 20
-77.4471
 11
-39.112
 21
-77.3897
  0
LINE
  8
0
 10
-39.112
 20
-77.3897
 11
-39.3056
 21
-77.32
  0
LINE
  8
0
 10
-39.3056
 20
-77.32
 11
-39.4944
 21
-77.2383
  0
LINE
  8
0
 10
-39.4944
 20
-77.2383
 11
-39.6777
 21
-77.1449
  0
LINE
  8
0
 10
-39.6777
 20
-77.1449
 11
-39.8548
 21
-77.0402
  0
LINE
  8
0
 10
-39.8548
 20
-77.0402
 11
-40.025
 21
-76.9245
  0
LINE
  8
0
 10
-40.025
 20
-76.9245
 11
-40.1875
 21
-76.7984
  0
LINE
  8
0
 10
-40.1875
 20
-76.7984
 11
-40.3419
 21
-76.6624
  0
LINE
  8
0
 10
-40.3419
 20
-76.6624
 11
-40.4874
 21
-76.5169
  0
LINE
  8
0
 10
-40.4874
 20
-76.5169
 11
-40.6234
 21
-76.3625
  0
LINE
  8
0
 10
-40.6234
 20
-76.3625
 11
-40.7495
 21
-76.2
  0
LINE
  8
0
 10
-40.7495
 20
-76.2
 11
-40.8652
 21
-76.0298
  0
LINE
  8
0
 10
-40.8652
 20
-76.0298
 11
-40.9699
 21
-75.8527
  0
LINE
  8
0
 10
-40.9699
 20
-75.8527
 11
-41.0633
 21
-75.6694
  0
LINE
  8
0
 10
-41.0633
 20
-75.6694
 11
-41.145
 21
-75.4806
  0
LINE
  8
0
 10
-41.145
 20
-75.4806
 11
-41.2147
 21
-75.287
  0
LINE
  8
0
 10
-41.2147
 20
-75.287
 11
-41.2721
 21
-75.0894
  0
LINE
  8
0
 10
-41.2721
 20
-75.0894
 11
-41.317
 21
-74.8887
  0
LINE
  8
0
 10
-41.317
 20
-74.8887
 11
-41.3492
 21
-74.6855
  0
LINE
  8
0
 10
-41.3492
 20
-74.6855
 11
-41.3685
 21
-74.4806
  0
LINE
  8
0
 10
-41.3685
 20
-74.4806
 11
-41.375
 21
-74.275
  0
LINE
  8
0
 10
-41.375
 20
-74.275
 11
-41.3685
 21
-74.0694
  0
LINE
  8
0
 10
-41.3685
 20
-74.0694
 11
-41.3492
 21
-73.8645
  0
LINE
  8
0
 10
-41.3492
 20
-73.8645
 11
-41.317
 21
-73.6613
  0
LINE
  8
0
 10
-41.317
 20
-73.6613
 11
-41.2721
 21
-73.4605
  0
LINE
  8
0
 10
-41.2721
 20
-73.4605
 11
-41.2147
 21
-73.263
  0
LINE
  8
0
 10
-41.2147
 20
-73.263
 11
-41.145
 21
-73.0694
  0
LINE
  8
0
 10
-41.145
 20
-73.0694
 11
-41.0633
 21
-72.8806
  0
LINE
  8
0
 10
-41.0633
 20
-72.8806
 11
-40.9699
 21
-72.6972
  0
LINE
  8
0
 10
-40.9699
 20
-72.6972
 11
-40.8652
 21
-72.5202
  0
LINE
  8
0
 10
-40.8652
 20
-72.5202
 11
-40.7495
 21
-72.35
  0
LINE
  8
0
 10
-40.7495
 20
-72.35
 11
-40.6234
 21
-72.1874
  0
LINE
  8
0
 10
-40.6234
 20
-72.1874
 11
-40.4874
 21
-72.0331
  0
LINE
  8
0
 10
-40.4874
 20
-72.0331
 11
-40.3419
 21
-71.8876
  0
LINE
  8
0
 10
-40.3419
 20
-71.8876
 11
-40.1875
 21
-71.7516
  0
LINE
  8
0
 10
-40.1875
 20
-71.7516
 11
-40.025
 21
-71.6255
  0
LINE
  8
0
 10
-40.025
 20
-71.6255
 11
-39.8548
 21
-71.5098
  0
LINE
  8
0
 10
-39.8548
 20
-71.5098
 11
-39.6777
 21
-71.4051
  0
LINE
  8
0
 10
-39.6777
 20
-71.4051
 11
-39.4944
 21
-71.3117
  0
LINE
  8
0
 10
-39.4944
 20
-71.3117
 11
-39.3056
 21
-71.23
  0
LINE
  8
0
 10
-39.3056
 20
-71.23
 11
-39.112
 21
-71.1603
  0
LINE
  8
0
 10
-39.112
 20
-71.1603
 11
-38.9144
 21
-71.1029
  0
LINE
  8
0
 10
-38.9144
 20
-71.1029
 11
-38.7137
 21
-71.058
  0
LINE
  8
0
 10
-38.7137
 20
-71.058
 11
-38.5105
 21
-71.0258
  0
LINE
  8
0
 10
-38.5105
 20
-71.0258
 11
-38.3056
 21
-71.0064
  0
LINE
  8
0
 10
-38.3056
 20
-71.0064
 11
-38.1
 21
-71
  0
LINE
  8
0
 10
-38.1
 20
-71
 11
-37.8944
 21
-71.0064
  0
LINE
  8
0
 10
-37.8944
 20
-71.0064
 11
-37.6895
 21
-71.0258
  0
LINE
  8
0
 10
-37.6895
 20
-71.0258
 11
-37.4863
 21
-71.058
  0
LINE
  8
0
 10
-37.4863
 20
-71.058
 11
-37.2855
 21
-71.1029
  0
LINE
  8
0
 10
-37.2855
 20
-71.1029
 11
-37.088
 21
-71.1603
  0
LINE
  8
0
 10
-37.088
 20
-71.1603
 11
-36.8944
 21
-71.23
  0
LINE
  8
0
 10
-36.8944
 20
-71.23
 11
-36.7056
 21
-71.3117
  0
LINE
  8
0
 10
-36.7056
 20
-71.3117
 11
-36.5223
 21
-71.4051
  0
LINE
  8
0
 10
-36.5223
 20
-71.4051
 11
-36.3452
 21
-71.5098
  0
LINE
  8
0
 10
-36.3452
 20
-71.5098
 11
-36.175
 21
-71.6255
  0
LINE
  8
0
 10
-36.175
 20
-71.6255
 11
-36.0124
 21
-71.7516
  0
LINE
  8
0
 10
-36.0124
 20
-71.7516
 11
-35.8581
 21
-71.8876
  0
LINE
  8
0
 10
-35.8581
 20
-71.8876
 11
-35.7126
 21
-72.0331
  0
LINE
  8
0
 10
-35.7126
 20
-72.0331
 11
-35.5766
 21
-72.1874
  0
LINE
  8
0
 10
-35.5766
 20
-72.1874
 11
-35.4505
 21
-72.35
  0
LINE
  8
0
 10
-35.4505
 20
-72.35
 11
-35.3348
 21
-72.5202
  0
LINE
  8
0
 10
-35.3348
 20
-72.5202
 11
-35.2301
 21
-72.6972
  0
LINE
  8
0
 10
-35.2301
 20
-72.6972
 11
-35.1367
 21
-72.8806
  0
LINE
  8
0
 10
-35.1367
 20
-72.8806
 11
-35.055
 21
-73.0694
  0
LINE
  8
0
 10
-35.055
 20
-73.0694
 11
-34.9853
 21
-73.263
  0
LINE
  8
0
 10
-34.9853
 20
-73.263
 11
-34.9279
 21
-73.4605
  0
LINE
  8
0
 10
-34.9279
 20
-73.4605
 11
-34.883
 21
-73.6613
  0
LINE
  8
0
 10
-34.883
 20
-73.6613
 11
-34.8508
 21
-73.8645
  0
LINE
  8
0
 10
-34.8508
 20
-73.8645
 11
-34.8315
 21
-74.0694
  0
LINE
  8
0
 10
-34.8315
 20
-74.0694
 11
-34.825
 21
-74.275
  0
LINE
  8
0
 10
-34.825
 20
-74.275
 11
-34.8315
 21
-74.4806
  0
LINE
  8
0
 10
-34.8315
 20
-74.4806
 11
-34.8508
 21
-74.6855
  0
LINE
  8
0
 10
-34.8508
 20
-74.6855
 11
-34.883
 21
-74.8887
  0
LINE
  8
0
 10
-34.883
 20
-74.8887
 11
-34.9279
 21
-75.0894
  0
LINE
  8
0
 10
-34.9279
 20
-75.0894
 11
-34.9853
 21
-75.287
  0
LINE
  8
0
 10
-34.9853
 20
-75.287
 11
-35.055
 21
-75.4806
  0
LINE
  8
0
 10
-35.055
 20
-75.4806
 11
-35.1367
 21
-75.6694
  0
LINE
  8
0
 10
-35.1367
 20
-75.6694
 11
-35.2301
 21
-75.8527
  0
LINE
  8
0
 10
-35.2301
 20
-75.8527
 11
-35.3348
 21
-76.0298
  0
LINE
  8
0
 10
-35.3348
 20
-76.0298
 11
-35.4505
 21
-76.2
  0
LINE
  8
0
 10
-35.4505
 20
-76.2
 11
-35.5766
 21
-76.3625
  0
LINE
  8
0
 10
-35.5766
 20
-76.3625
 11
-35.7126
 21
-76.5169
  0
LINE
  8
0
 10
-35.7126
 20
-76.5169
 11
-35.8581
 21
-76.6624
  0
LINE
  8
0
 10
-35.8581
 20
-76.6624
 11
-36.0124
 21
-76.7984
  0
LINE
  8
0
 10
-36.0124
 20
-76.7984
 11
-36.175
 21
-76.9245
  0
LINE
  8
0
 10
-36.175
 20
-76.9245
 11
-36.3452
 21
-77.0402
  0
LINE
  8
0
 10
-36.3452
 20
-77.0402
 11
-36.5223
 21
-77.1449
  0
LINE
  8
0
 10
-36.5223
 20
-77.1449
 11
-36.7056
 21
-77.2383
  0
LINE
  8
0
 10
-36.7056
 20
-77.2383
 11
-36.8944
 21
-77.32
  0
LINE
  8
0
 10
-36.8944
 20
-77.32
 11
-37.088
 21
-77.3897
  0
LINE
  8
0
 10
-37.088
 20
-77.3897
 11
-37.2855
 21
-77.4471
  0
LINE
  8
0
 10
-37.2855
 20
-77.4471
 11
-37.4863
 21
-77.492
  0
LINE
  8
0
 10
-37.4863
 20
-77.492
 11
-37.6895
 21
-77.5242
  0
LINE
  8
0
 10
-37.6895
 20
-77.5242
 11
-37.8944
 21
-77.5435
  0
LINE
  8
0
 10
-37.8944
 20
-77.5435
 11
-38.1
 21
-77.55
  0
LINE
  8
0
 10
-38.1
 20
-77.55
 11
-38.3056
 21
-77.5435
  0
LINE
  8
0
 10
37.8944
 20
-77.5435
 11
37.6895
 21
-77.5242
  0
LINE
  8
0
 10
37.6895
 20
-77.5242
 11
37.4863
 21
-77.492
  0
LINE
  8
0
 10
37.4863
 20
-77.492
 11
37.2855
 21
-77.4471
  0
LINE
  8
0
 10
37.2855
 20
-77.4471
 11
37.088
 21
-77.3897
  0
LINE
  8
0
 10
37.088
 20
-77.3897
 11
36.8944
 21
-77.32
  0
LINE
  8
0
 10
36.8944
 20
-77.32
 11
36.7056
 21
-77.2383
  0
LINE
  8
0
 10
36.7056
 20
-77.2383
 11
36.5223
 21
-77.1449
  0
LINE
  8
0
 10
36.5223
 20
-77.1449
 11
36.3452
 21
-77.0402
  0
LINE
  8
0
 10
36.3452
 20
-77.0402
 11
36.175
 21
-76.9245
  0
LINE
  8
0
 10
36.175
 20
-76.9245
 11
36.0124
 21
-76.7984
  0
LINE
  8
0
 10
36.0124
 20
-76.7984
 11
35.8581
 21
-76.6624
  0
LINE
  8
0
 10
35.8581
 20
-76.6624
 11
35.7126
 21
-76.5169
  0
LINE
  8
0
 10
35.7126
 20
-76.5169
 11
35.5766
 21
-76.3625
  0
LINE
  8
0
 10
35.5766
 20
-76.3625
 11
35.4505
 21
-76.2
  0
LINE
  8
0
 10
35.4505
 20
-76.2
 11
35.3348
 21
-76.0298
  0
LINE
  8
0
 10
35.3348
 20
-76.0298
 11
35.2301
 21
-75.8527
  0
LINE
  8
0
 10
35.2301
 20
-75.8527
 11
35.1367
 21
-75.6694
  0
LINE
  8
0
 10
35.1367
 20
-75.6694
 11
35.055
 21
-75.4806
  0
LINE
  8
0
 10
35.055
 20
-75.4806
 11
34.9853
 21
-75.287
  0
LINE
  8
0
 10
34.9853
 20
-75.287
 11
34.9279
 21
-75.0894
  0
LINE
  8
0
 10
34.9279
 20
-75.0894
 11
34.883
 21
-74.8887
  0
LINE
  8
0
 10
34.883
 20
-74.8887
 11
34.8508
 21
-74.6855
  0
LINE
  8
0
 10
34.8508
 20
-74.6855
 11
34.8315
 21
-74.4806
  0
LINE
  8
0
 10
34.8315
 20
-74.4806
 11
34.825
 21
-74.275
  0
LINE
  8
0
 10
34.825
 20
-74.275
 11
34.8315
 21
-74.0694
  0
LINE
  8
0
 10
34.8315
 20
-74.0694
 11
34.8508
 21
-73.8645
  0
LINE
  8
0
 10
34.8508
 20
-73.8645
 11
34.883
 21
-73.6613
  0
LINE
  8
0
 10
34.883
 20
-73.6613
 11
34.9279
 21
-73.4605
  0
LINE
  8
0
 10
34.9279
 20
-73.4605
 11
34.9853
 21
-73.263
  0
LINE
  8
0
 10
34.9853
 20
-73.263
 11
35.055
 21
-73.0694
  0
LINE
  8
0
 10
35.055
 20
-73.0694
 11
35.1367
 21
-72.8806
  0
LINE
  8
0
 10
35.1367
 20
-72.8806
 11
35.2301
 21
-72.6972
  0
LINE
  8
0
 10
35.2301
 20
-72.6972
 11
35.3348
 21
-72.5202
  0
LINE
  8
0
 10
35.3348
 20
-72.5202
 11
35.4505
 21
-72.35
  0
LINE
  8
0
 10
35.4505
 20
-72.35
 11
35.5766
 21
-72.1874
  0
LINE
  8
0
 10
35.5766
 20
-72.1874
 11
35.7126
 21
-72.0331
  0
LINE
  8
0
 10
35.7126
 20
-72.0331
 11
35.8581
 21
-71.8876
  0
LINE
  8
0
 10
35.8581
 20
-71.8876
 11
36.0124
 21
-71.7516
  0
LINE
  8
0
 10
36.0124
 20
-71.7516
 11
36.175
 21
-71.6255
  0
LINE
  8
0
 10
36.175
 20
-71.6255
 11
36.3452
 21
-71.5098
  0
LINE
  8
0
 10
36.3452
 20
-71.5098
 11
36.5223
 21
-71.4051
  0
LINE
  8
0
 10
36.5223
 20
-71.4051
 11
36.7056
 21
-71.3117
  0
LINE
  8
0
 10
36.7056
 20
-71.3117
 11
36.8944
 21
-71.23
  0
LINE
  8
0
 10
36.8944
 20
-71.23
 11
37.088
 21
-71.1603
  0
LINE
  8
0
 10
37.088
 20
-71.1603
 11
37.2855
 21
-71.1029
  0
LINE
  8
0
 10
37.2855
 20
-71.1029
 11
37.4863
 21
-71.058
  0
LINE
  8
0
 10
37.4863
 20
-71.058
 11
37.6895
 21
-71.0258
  0
LINE
  8
0
 10
37.6895
 20
-71.0258
 11
37.8944
 21
-71.0064
  0
LINE
  8
0
 10
37.8944
 20
-71.0064
 11
38.1
 21
-71
  0
LINE
  8
0
 10
38.1
 20
-71
 11
38.3056
 21
-71.0064
  0
LINE
  8
0
 10
38.3056
 20
-71.0064
 11
38.5105
 21
-71.0258
  0
LINE
  8
0
 10
38.5105
 20
-71.0258
 11
38.7137
 21
-71.058
  0
LINE
  8
0
 10
38.7137
 20
-71.058
 11
38.9144
 21
-71.1029
  0
LINE
  8
0
 10
38.9144
 20
-71.1029
 11
39.112
 21
-71.1603
  0
LINE
  8
0
 10
39.112
 20
-71.1603
 11
39.3056
 21
-71.23
  0
LINE
  8
0
 10
39.3056
 20
-71.23
 11
39.4944
 21
-71.3117
  0
LINE
  8
0
 10
39.4944
 20
-71.3117
 11
39.6777
 21
-71.4051
  0
LINE
  8
0
 10
39.6777
 20
-71.4051
 11
39.8548
 21
-71.5098
  0
LINE
  8
0
 10
39.8548
 20
-71.5098
 11
40.025
 21
-71.6255
  0
LINE
  8
0
 10
40.025
 20
-71.6255
 11
40.1875
 21
-71.7516
  0
LINE
  8
0
 10
40.1875
 20
-71.7516
 11
40.3419
 21
-71.8876
  0
LINE
  8
0
 10
40.3419
 20
-71.8876
 11
40.4874
 21
-72.0331
  0
LINE
  8
0
 10
40.4874
 20
-72.0331
 11
40.6234
 21
-72.1874
  0
LINE
  8
0
 10
40.6234
 20
-72.1874
 11
40.7495
 21
-72.35
  0
LINE
  8
0
 10
40.7495
 20
-72.35
 11
40.8652
 21
-72.5202
  0
LINE
  8
0
 10
40.8652
 20
-72.5202
 11
40.9699
 21
-72.6972
  0
LINE
  8
0
 10
40.9699
 20
-72.6972
 11
41.0633
 21
-72.8806
  0
LINE
  8
0
 10
41.0633
 20
-72.8806
 11
41.145
 21
-73.0694
  0
LINE
  8
0
 10
41.145
 20
-73.0694
 11
41.2147
 21
-73.263
  0
LINE
  8
0
 10
41.2147
 20
-73.263
 11
41.2721
 21
-73.4605
  0
LINE
  8
0
 10
41.2721
 20
-73.4605
 11
41.317
 21
-73.6613
  0
LINE
  8
0
 10
41.317
 20
-73.6613
 11
41.3492
 21
-73.8645
  0
LINE
  8
0
 10
41.3492
 20
-73.8645
 11
41.3685
 21
-74.0694
  0
LINE
  8
0
 10
41.3685
 20
-74.0694
 11
41.375
 21
-74.275
  0
LINE
  8
0
 10
41.375
 20
-74.275
 11
41.3685
 21
-74.4806
  0
LINE
  8
0
 10
41.3685
 20
-74.4806
 11
41.3492
 21
-74.6855
  0
LINE
  8
0
 10
41.3492
 20
-74.6855
 11
41.317
 21
-74.8887
  0
LINE
  8
0
 10
41.317
 20
-74.8887
 11
41.2721
 21
-75.0894
  0
LINE
  8
0
 10
41.2721
 20
-75.0894
 11
41.2147
 21
-75.287
  0
LINE
  8
0
 10
41.2147
 20
-75.287
 11
41.145
 21
-75.4806
  0
LINE
  8
0
 10
41.145
 20
-75.4806
 11
41.0633
 21
-75.6694
  0
LINE
  8
0
 10
41.0633
 20
-75.6694
 11
40.9699
 21
-75.8527
  0
LINE
  8
0
 10
40.9699
 20
-75.8527
 11
40.8652
 21
-76.0298
  0
LINE
  8
0
 10
40.8652
 20
-76.0298
 11
40.7495
 21
-76.2
  0
LINE
  8
0
 10
40.7495
 20
-76.2
 11
40.6234
 21
-76.3625
  0
LINE
  8
0
 10
40.6234
 20
-76.3625
 11
40.4874
 21
-76.5169
  0
LINE
  8
0
 10
40.4874
 20
-76.5169
 11
40.3419
 21
-76.6624
  0
LINE
  8
0
 10
40.3419
 20
-76.6624
 11
40.1875
 21
-76.7984
  0
LINE
  8
0
 10
40.1875
 20
-76.7984
 11
40.025
 21
-76.9245
  0
LINE
  8
0
 10
40.025
 20
-76.9245
 11
39.8548
 21
-77.0402
  0
LINE
  8
0
 10
39.8548
 20
-77.0402
 11
39.6777
 21
-77.1449
  0
LINE
  8
0
 10
39.6777
 20
-77.1449
 11
39.4944
 21
-77.2383
  0
LINE
  8
0
 10
39.4944
 20
-77.2383
 11
39.3056
 21
-77.32
  0
LINE
  8
0
 10
39.3056
 20
-77.32
 11
39.112
 21
-77.3897
  0
LINE
  8
0
 10
39.112
 20
-77.3897
 11
38.9144
 21
-77.4471
  0
LINE
  8
0
 10
38.9144
 20
-77.4471
 11
38.7137
 21
-77.492
  0
LINE
  8
0
 10
38.7137
 20
-77.492
 11
38.5105
 21
-77.5242
  0
LINE
  8
0
 10
38.5105
 20
-77.5242
 11
38.3056
 21
-77.5435
  0
LINE
  8
0
 10
38.3056
 20
-77.5435
 11
38.1
 21
-77.55
  0
LINE
  8
0
 10
38.1
 20
-77.55
 11
37.8944
 21
-77.5435
  0
ENDSEC
  0
SECTION
  2
OBJECTS
  0
DICTIONARY
  0
ENDSEC
  0
EOF
