  0
SECTION
  2
BLOCKS
  0
ENDSEC
  0
SECTION
  2
ENTITIES
  0
LINE
  8
0
 10
4
 20
4
 11
-4
 21
4
  0
LINE
  8
0
 10
-4
 20
4
 11
-4
 21
-4
  0
LINE
  8
0
 10
-4
 20
-4
 11
4
 21
-4
  0
LINE
  8
0
 10
4
 20
-4
 11
4
 21
4
  0
LINE
  8
0
 10
-0.141266
 20
-2.24556
 11
-0.281998
 21
-2.23225
  0
LINE
  8
0
 10
-0.281998
 20
-2.23225
 11
-0.4216
 21
-2.21014
  0
LINE
  8
0
 10
-0.4216
 20
-2.21014
 11
-0.55954
 21
-2.17931
  0
LINE
  8
0
 10
-0.55954
 20
-2.17931
 11
-0.695282
 21
-2.13986
  0
LINE
  8
0
 10
-0.695282
 20
-2.13986
 11
-0.828278
 21
-2.092
  0
LINE
  8
0
 10
-0.828278
 20
-2.092
 11
-0.957993
 21
-2.03586
  0
LINE
  8
0
 10
-0.957993
 20
-2.03586
 11
-1.08394
 21
-1.97168
  0
LINE
  8
0
 10
-1.08394
 20
-1.97168
 11
-1.2056
 21
-1.89973
  0
LINE
  8
0
 10
-1.2056
 20
-1.89973
 11
-1.32251
 21
-1.82028
  0
LINE
  8
0
 10
-1.32251
 20
-1.82028
 11
-1.43419
 21
-1.73364
  0
LINE
  8
0
 10
-1.43419
 20
-1.73364
 11
-1.54022
 21
-1.64017
  0
LINE
  8
0
 10
-1.54022
 20
-1.64017
 11
-1.64017
 21
-1.54022
  0
LINE
  8
0
 10
-1.64017
 20
-1.54022
 11
-1.73364
 21
-1.43419
  0
LINE
  8
0
 10
-1.73364
 20
-1.43419
 11
-1.82028
 21
-1.32251
  0
LINE
  8
0
 10
-1.82028
 20
-1.32251
 11
-1.89973
 21
-1.2056
  0
LINE
  8
0
 10
-1.89973
 20
-1.2056
 11
-1.97168
 21
-1.08394
  0
LINE
  8
0
 10
-1.97168
 20
-1.08394
 11
-2.03586
 21
-0.957993
  0
LINE
  8
0
 10
-2.03586
 20
-0.957993
 11
-2.092
 21
-0.828278
  0
LINE
  8
0
 10
-2.092
 20
-0.828278
 11
-2.13986
 21
-0.695282
  0
LINE
  8
0
 10
-2.13986
 20
-0.695282
 11
-2.17931
 21
-0.55954
  0
LINE
  8
0
 10
-2.17931
 20
-0.55954
 11
-2.21014
 21
-0.4216
  0
LINE
  8
0
 10
-2.21014
 20
-0.4216
 11
-2.23225
 21
-0.281998
  0
LINE
  8
0
 10
-2.23225
 20
-0.281998
 11
-2.24556
 21
-0.141266
  0
LINE
  8
0
 10
-2.24556
 20
-0.141266
 11
-2.25
 21
0
  0
LINE
  8
0
 10
-2.25
 20
0
 11
-2.24556
 21
0.141266
  0
LINE
  8
0
 10
-2.24556
 20
0.141266
 11
-2.23225
 21
0.281998
  0
LINE
  8
0
 10
-2.23225
 20
0.281998
 11
-2.21014
 21
0.4216
  0
LINE
  8
0
 10
-2.21014
 20
0.4216
 11
-2.17931
 21
0.55954
  0
LINE
  8
0
 10
-2.17931
 20
0.55954
 11
-2.13986
 21
0.695282
  0
LINE
  8
0
 10
-2.13986
 20
0.695282
 11
-2.092
 21
0.828278
  0
LINE
  8
0
 10
-2.092
 20
0.828278
 11
-2.03586
 21
0.957993
  0
LINE
  8
0
 10
-2.03586
 20
0.957993
 11
-1.97168
 21
1.08394
  0
LINE
  8
0
 10
-1.97168
 20
1.08394
 11
-1.89973
 21
1.2056
  0
LINE
  8
0
 10
-1.89973
 20
1.2056
 11
-1.82028
 21
1.32251
  0
LINE
  8
0
 10
-1.82028
 20
1.32251
 11
-1.73364
 21
1.43419
  0
LINE
  8
0
 10
-1.73364
 20
1.43419
 11
-1.64017
 21
1.54022
  0
LINE
  8
0
 10
-1.64017
 20
1.54022
 11
-1.54022
 21
1.64017
  0
LINE
  8
0
 10
-1.54022
 20
1.64017
 11
-1.43419
 21
1.73364
  0
LINE
  8
0
 10
-1.43419
 20
1.73364
 11
-1.32251
 21
1.82028
  0
LINE
  8
0
 10
-1.32251
 20
1.82028
 11
-1.2056
 21
1.89973
  0
LINE
  8
0
 10
-1.2056
 20
1.89973
 11
-1.08394
 21
1.97168
  0
LINE
  8
0
 10
-1.08394
 20
1.97168
 11
-0.957993
 21
2.03586
  0
LINE
  8
0
 10
-0.957993
 20
2.03586
 11
-0.828278
 21
2.092
  0
LINE
  8
0
 10
-0.828278
 20
2.092
 11
-0.695282
 21
2.13986
  0
LINE
  8
0
 10
-0.695282
 20
2.13986
 11
-0.55954
 21
2.17931
  0
LINE
  8
0
 10
-0.55954
 20
2.17931
 11
-0.4216
 21
2.21014
  0
LINE
  8
0
 10
-0.4216
 20
2.21014
 11
-0.281998
 21
2.23225
  0
LINE
  8
0
 10
-0.281998
 20
2.23225
 11
-0.141266
 21
2.24556
  0
LINE
  8
0
 10
-0.141266
 20
2.24556
 11
0
 21
2.25
  0
LINE
  8
0
 10
0
 20
2.25
 11
0.141266
 21
2.24556
  0
LINE
  8
0
 10
0.141266
 20
2.24556
 11
0.281998
 21
2.23225
  0
LINE
  8
0
 10
0.281998
 20
2.23225
 11
0.4216
 21
2.21014
  0
LINE
  8
0
 10
0.4216
 20
2.21014
 11
0.55954
 21
2.17931
  0
LINE
  8
0
 10
0.55954
 20
2.17931
 11
0.695282
 21
2.13986
  0
LINE
  8
0
 10
0.695282
 20
2.13986
 11
0.828278
 21
2.092
  0
LINE
  8
0
 10
0.828278
 20
2.092
 11
0.957993
 21
2.03586
  0
LINE
  8
0
 10
0.957993
 20
2.03586
 11
1.08394
 21
1.97168
  0
LINE
  8
0
 10
1.08394
 20
1.97168
 11
1.2056
 21
1.89973
  0
LINE
  8
0
 10
1.2056
 20
1.89973
 11
1.32251
 21
1.82028
  0
LINE
  8
0
 10
1.32251
 20
1.82028
 11
1.43419
 21
1.73364
  0
LINE
  8
0
 10
1.43419
 20
1.73364
 11
1.54022
 21
1.64017
  0
LINE
  8
0
 10
1.54022
 20
1.64017
 11
1.64017
 21
1.54022
  0
LINE
  8
0
 10
1.64017
 20
1.54022
 11
1.73364
 21
1.43419
  0
LINE
  8
0
 10
1.73364
 20
1.43419
 11
1.82028
 21
1.32251
  0
LINE
  8
0
 10
1.82028
 20
1.32251
 11
1.89973
 21
1.2056
  0
LINE
  8
0
 10
1.89973
 20
1.2056
 11
1.97168
 21
1.08394
  0
LINE
  8
0
 10
1.97168
 20
1.08394
 11
2.03586
 21
0.957993
  0
LINE
  8
0
 10
2.03586
 20
0.957993
 11
2.092
 21
0.828278
  0
LINE
  8
0
 10
2.092
 20
0.828278
 11
2.13986
 21
0.695282
  0
LINE
  8
0
 10
2.13986
 20
0.695282
 11
2.17931
 21
0.55954
  0
LINE
  8
0
 10
2.17931
 20
0.55954
 11
2.21014
 21
0.4216
  0
LINE
  8
0
 10
2.21014
 20
0.4216
 11
2.23225
 21
0.281998
  0
LINE
  8
0
 10
2.23225
 20
0.281998
 11
2.24556
 21
0.141266
  0
LINE
  8
0
 10
2.24556
 20
0.141266
 11
2.25
 21
0
  0
LINE
  8
0
 10
2.25
 20
0
 11
2.24556
 21
-0.141266
  0
LINE
  8
0
 10
2.24556
 20
-0.141266
 11
2.23225
 21
-0.281998
  0
LINE
  8
0
 10
2.23225
 20
-0.281998
 11
2.21014
 21
-0.4216
  0
LINE
  8
0
 10
2.21014
 20
-0.4216
 11
2.17931
 21
-0.55954
  0
LINE
  8
0
 10
2.17931
 20
-0.55954
 11
2.13986
 21
-0.695282
  0
LINE
  8
0
 10
2.13986
 20
-0.695282
 11
2.092
 21
-0.828278
  0
LINE
  8
0
 10
2.092
 20
-0.828278
 11
2.03586
 21
-0.957993
  0
LINE
  8
0
 10
2.03586
 20
-0.957993
 11
1.97168
 21
-1.08394
  0
LINE
  8
0
 10
1.97168
 20
-1.08394
 11
1.89973
 21
-1.2056
  0
LINE
  8
0
 10
1.89973
 20
-1.2056
 11
1.82028
 21
-1.32251
  0
LINE
  8
0
 10
1.82028
 20
-1.32251
 11
1.73364
 21
-1.43419
  0
LINE
  8
0
 10
1.73364
 20
-1.43419
 11
1.64017
 21
-1.54022
  0
LINE
  8
0
 10
1.64017
 20
-1.54022
 11
1.54022
 21
-1.64017
  0
LINE
  8
0
 10
1.54022
 20
-1.64017
 11
1.43419
 21
-1.73364
  0
LINE
  8
0
 10
1.43419
 20
-1.73364
 11
1.32251
 21
-1.82028
  0
LINE
  8
0
 10
1.32251
 20
-1.82028
 11
1.2056
 21
-1.89973
  0
LINE
  8
0
 10
1.2056
 20
-1.89973
 11
1.08394
 21
-1.97168
  0
LINE
  8
0
 10
1.08394
 20
-1.97168
 11
0.957993
 21
-2.03586
  0
LINE
  8
0
 10
0.957993
 20
-2.03586
 11
0.828278
 21
-2.092
  0
LINE
  8
0
 10
0.828278
 20
-2.092
 11
0.695282
 21
-2.13986
  0
LINE
  8
0
 10
0.695282
 20
-2.13986
 11
0.55954
 21
-2.17931
  0
LINE
  8
0
 10
0.55954
 20
-2.17931
 11
0.4216
 21
-2.21014
  0
LINE
  8
0
 10
0.4216
 20
-2.21014
 11
0.281998
 21
-2.23225
  0
LINE
  8
0
 10
0.281998
 20
-2.23225
 11
0.141266
 21
-2.24556
  0
LINE
  8
0
 10
0.141266
 20
-2.24556
 11
0
 21
-2.25
  0
LINE
  8
0
 10
0
 20
-2.25
 11
-0.141266
 21
-2.24556
  0
LINE
  8
0
 10
14
 20
4
 11
6
 21
4
  0
LINE
  8
0
 10
6
 20
4
 11
6
 21
-4
  0
LINE
  8
0
 10
6
 20
-4
 11
14
 21
-4
  0
LINE
  8
0
 10
14
 20
-4
 11
14
 21
4
  0
LINE
  8
0
 10
9.85873
 20
-2.24556
 11
9.718
 21
-2.23225
  0
LINE
  8
0
 10
9.718
 20
-2.23225
 11
9.5784
 21
-2.21014
  0
LINE
  8
0
 10
9.5784
 20
-2.21014
 11
9.44046
 21
-2.17931
  0
LINE
  8
0
 10
9.44046
 20
-2.17931
 11
9.30472
 21
-2.13986
  0
LINE
  8
0
 10
9.30472
 20
-2.13986
 11
9.17172
 21
-2.092
  0
LINE
  8
0
 10
9.17172
 20
-2.092
 11
9.04201
 21
-2.03586
  0
LINE
  8
0
 10
9.04201
 20
-2.03586
 11
8.91606
 21
-1.97168
  0
LINE
  8
0
 10
8.91606
 20
-1.97168
 11
8.7944
 21
-1.89973
  0
LINE
  8
0
 10
8.7944
 20
-1.89973
 11
8.67749
 21
-1.82028
  0
LINE
  8
0
 10
8.67749
 20
-1.82028
 11
8.56581
 21
-1.73364
  0
LINE
  8
0
 10
8.56581
 20
-1.73364
 11
8.45978
 21
-1.64017
  0
LINE
  8
0
 10
8.45978
 20
-1.64017
 11
8.35983
 21
-1.54022
  0
LINE
  8
0
 10
8.35983
 20
-1.54022
 11
8.26636
 21
-1.43419
  0
LINE
  8
0
 10
8.26636
 20
-1.43419
 11
8.17972
 21
-1.32251
  0
LINE
  8
0
 10
8.17972
 20
-1.32251
 11
8.10027
 21
-1.2056
  0
LINE
  8
0
 10
8.10027
 20
-1.2056
 11
8.02832
 21
-1.08394
  0
LINE
  8
0
 10
8.02832
 20
-1.08394
 11
7.96414
 21
-0.957993
  0
LINE
  8
0
 10
7.96414
 20
-0.957993
 11
7.908
 21
-0.828278
  0
LINE
  8
0
 10
7.908
 20
-0.828278
 11
7.86014
 21
-0.695282
  0
LINE
  8
0
 10
7.86014
 20
-0.695282
 11
7.82069
 21
-0.55954
  0
LINE
  8
0
 10
7.82069
 20
-0.55954
 11
7.78986
 21
-0.4216
  0
LINE
  8
0
 10
7.78986
 20
-0.4216
 11
7.76775
 21
-0.281998
  0
LINE
  8
0
 10
7.76775
 20
-0.281998
 11
7.75444
 21
-0.141266
  0
LINE
  8
0
 10
7.75444
 20
-0.141266
 11
7.75
 21
0
  0
LINE
  8
0
 10
7.75
 20
0
 11
7.75444
 21
0.141266
  0
LINE
  8
0
 10
7.75444
 20
0.141266
 11
7.76775
 21
0.281998
  0
LINE
  8
0
 10
7.76775
 20
0.281998
 11
7.78986
 21
0.4216
  0
LINE
  8
0
 10
7.78986
 20
0.4216
 11
7.82069
 21
0.55954
  0
LINE
  8
0
 10
7.82069
 20
0.55954
 11
7.86014
 21
0.695282
  0
LINE
  8
0
 10
7.86014
 20
0.695282
 11
7.908
 21
0.828278
  0
LINE
  8
0
 10
7.908
 20
0.828278
 11
7.96414
 21
0.957993
  0
LINE
  8
0
 10
7.96414
 20
0.957993
 11
8.02832
 21
1.08394
  0
LINE
  8
0
 10
8.02832
 20
1.08394
 11
8.10027
 21
1.2056
  0
LINE
  8
0
 10
8.10027
 20
1.2056
 11
8.17972
 21
1.32251
  0
LINE
  8
0
 10
8.17972
 20
1.32251
 11
8.26636
 21
1.43419
  0
LINE
  8
0
 10
8.26636
 20
1.43419
 11
8.35983
 21
1.54022
  0
LINE
  8
0
 10
8.35983
 20
1.54022
 11
8.45978
 21
1.64017
  0
LINE
  8
0
 10
8.45978
 20
1.64017
 11
8.56581
 21
1.73364
  0
LINE
  8
0
 10
8.56581
 20
1.73364
 11
8.67749
 21
1.82028
  0
LINE
  8
0
 10
8.67749
 20
1.82028
 11
8.7944
 21
1.89973
  0
LINE
  8
0
 10
8.7944
 20
1.89973
 11
8.91606
 21
1.97168
  0
LINE
  8
0
 10
8.91606
 20
1.97168
 11
9.04201
 21
2.03586
  0
LINE
  8
0
 10
9.04201
 20
2.03586
 11
9.17172
 21
2.092
  0
LINE
  8
0
 10
9.17172
 20
2.092
 11
9.30472
 21
2.13986
  0
LINE
  8
0
 10
9.30472
 20
2.13986
 11
9.44046
 21
2.17931
  0
LINE
  8
0
 10
9.44046
 20
2.17931
 11
9.5784
 21
2.21014
  0
LINE
  8
0
 10
9.5784
 20
2.21014
 11
9.718
 21
2.23225
  0
LINE
  8
0
 10
9.718
 20
2.23225
 11
9.85873
 21
2.24556
  0
LINE
  8
0
 10
9.85873
 20
2.24556
 11
10
 21
2.25
  0
LINE
  8
0
 10
10
 20
2.25
 11
10.1413
 21
2.24556
  0
LINE
  8
0
 10
10.1413
 20
2.24556
 11
10.282
 21
2.23225
  0
LINE
  8
0
 10
10.282
 20
2.23225
 11
10.4216
 21
2.21014
  0
LINE
  8
0
 10
10.4216
 20
2.21014
 11
10.5595
 21
2.17931
  0
LINE
  8
0
 10
10.5595
 20
2.17931
 11
10.6953
 21
2.13986
  0
LINE
  8
0
 10
10.6953
 20
2.13986
 11
10.8283
 21
2.092
  0
LINE
  8
0
 10
10.8283
 20
2.092
 11
10.958
 21
2.03586
  0
LINE
  8
0
 10
10.958
 20
2.03586
 11
11.0839
 21
1.97168
  0
LINE
  8
0
 10
11.0839
 20
1.97168
 11
11.2056
 21
1.89973
  0
LINE
  8
0
 10
11.2056
 20
1.89973
 11
11.3225
 21
1.82028
  0
LINE
  8
0
 10
11.3225
 20
1.82028
 11
11.4342
 21
1.73364
  0
LINE
  8
0
 10
11.4342
 20
1.73364
 11
11.5402
 21
1.64017
  0
LINE
  8
0
 10
11.5402
 20
1.64017
 11
11.6402
 21
1.54022
  0
LINE
  8
0
 10
11.6402
 20
1.54022
 11
11.7336
 21
1.43419
  0
LINE
  8
0
 10
11.7336
 20
1.43419
 11
11.8203
 21
1.32251
  0
LINE
  8
0
 10
11.8203
 20
1.32251
 11
11.8997
 21
1.2056
  0
LINE
  8
0
 10
11.8997
 20
1.2056
 11
11.9717
 21
1.08394
  0
LINE
  8
0
 10
11.9717
 20
1.08394
 11
12.0359
 21
0.957993
  0
LINE
  8
0
 10
12.0359
 20
0.957993
 11
12.092
 21
0.828278
  0
LINE
  8
0
 10
12.092
 20
0.828278
 11
12.1399
 21
0.695282
  0
LINE
  8
0
 10
12.1399
 20
0.695282
 11
12.1793
 21
0.55954
  0
LINE
  8
0
 10
12.1793
 20
0.55954
 11
12.2101
 21
0.4216
  0
LINE
  8
0
 10
12.2101
 20
0.4216
 11
12.2323
 21
0.281998
  0
LINE
  8
0
 10
12.2323
 20
0.281998
 11
12.2456
 21
0.141266
  0
LINE
  8
0
 10
12.2456
 20
0.141266
 11
12.25
 21
0
  0
LINE
  8
0
 10
12.25
 20
0
 11
12.2456
 21
-0.141266
  0
LINE
  8
0
 10
12.2456
 20
-0.141266
 11
12.2323
 21
-0.281998
  0
LINE
  8
0
 10
12.2323
 20
-0.281998
 11
12.2101
 21
-0.4216
  0
LINE
  8
0
 10
12.2101
 20
-0.4216
 11
12.1793
 21
-0.55954
  0
LINE
  8
0
 10
12.1793
 20
-0.55954
 11
12.1399
 21
-0.695282
  0
LINE
  8
0
 10
12.1399
 20
-0.695282
 11
12.092
 21
-0.828278
  0
LINE
  8
0
 10
12.092
 20
-0.828278
 11
12.0359
 21
-0.957993
  0
LINE
  8
0
 10
12.0359
 20
-0.957993
 11
11.9717
 21
-1.08394
  0
LINE
  8
0
 10
11.9717
 20
-1.08394
 11
11.8997
 21
-1.2056
  0
LINE
  8
0
 10
11.8997
 20
-1.2056
 11
11.8203
 21
-1.32251
  0
LINE
  8
0
 10
11.8203
 20
-1.32251
 11
11.7336
 21
-1.43419
  0
LINE
  8
0
 10
11.7336
 20
-1.43419
 11
11.6402
 21
-1.54022
  0
LINE
  8
0
 10
11.6402
 20
-1.54022
 11
11.5402
 21
-1.64017
  0
LINE
  8
0
 10
11.5402
 20
-1.64017
 11
11.4342
 21
-1.73364
  0
LINE
  8
0
 10
11.4342
 20
-1.73364
 11
11.3225
 21
-1.82028
  0
LINE
  8
0
 10
11.3225
 20
-1.82028
 11
11.2056
 21
-1.89973
  0
LINE
  8
0
 10
11.2056
 20
-1.89973
 11
11.0839
 21
-1.97168
  0
LINE
  8
0
 10
11.0839
 20
-1.97168
 11
10.958
 21
-2.03586
  0
LINE
  8
0
 10
10.958
 20
-2.03586
 11
10.8283
 21
-2.092
  0
LINE
  8
0
 10
10.8283
 20
-2.092
 11
10.6953
 21
-2.13986
  0
LINE
  8
0
 10
10.6953
 20
-2.13986
 11
10.5595
 21
-2.17931
  0
LINE
  8
0
 10
10.5595
 20
-2.17931
 11
10.4216
 21
-2.21014
  0
LINE
  8
0
 10
10.4216
 20
-2.21014
 11
10.282
 21
-2.23225
  0
LINE
  8
0
 10
10.282
 20
-2.23225
 11
10.1413
 21
-2.24556
  0
LINE
  8
0
 10
10.1413
 20
-2.24556
 11
10
 21
-2.25
  0
LINE
  8
0
 10
10
 20
-2.25
 11
9.85873
 21
-2.24556
  0
LINE
  8
0
 10
24
 20
4
 11
16
 21
4
  0
LINE
  8
0
 10
16
 20
4
 11
16
 21
-4
  0
LINE
  8
0
 10
16
 20
-4
 11
24
 21
-4
  0
LINE
  8
0
 10
24
 20
-4
 11
24
 21
4
  0
LINE
  8
0
 10
19.8587
 20
-2.24556
 11
19.718
 21
-2.23225
  0
LINE
  8
0
 10
19.718
 20
-2.23225
 11
19.5784
 21
-2.21014
  0
LINE
  8
0
 10
19.5784
 20
-2.21014
 11
19.4405
 21
-2.17931
  0
LINE
  8
0
 10
19.4405
 20
-2.17931
 11
19.3047
 21
-2.13986
  0
LINE
  8
0
 10
19.3047
 20
-2.13986
 11
19.1717
 21
-2.092
  0
LINE
  8
0
 10
19.1717
 20
-2.092
 11
19.042
 21
-2.03586
  0
LINE
  8
0
 10
19.042
 20
-2.03586
 11
18.9161
 21
-1.97168
  0
LINE
  8
0
 10
18.9161
 20
-1.97168
 11
18.7944
 21
-1.89973
  0
LINE
  8
0
 10
18.7944
 20
-1.89973
 11
18.6775
 21
-1.82028
  0
LINE
  8
0
 10
18.6775
 20
-1.82028
 11
18.5658
 21
-1.73364
  0
LINE
  8
0
 10
18.5658
 20
-1.73364
 11
18.4598
 21
-1.64017
  0
LINE
  8
0
 10
18.4598
 20
-1.64017
 11
18.3598
 21
-1.54022
  0
LINE
  8
0
 10
18.3598
 20
-1.54022
 11
18.2664
 21
-1.43419
  0
LINE
  8
0
 10
18.2664
 20
-1.43419
 11
18.1797
 21
-1.32251
  0
LINE
  8
0
 10
18.1797
 20
-1.32251
 11
18.1003
 21
-1.2056
  0
LINE
  8
0
 10
18.1003
 20
-1.2056
 11
18.0283
 21
-1.08394
  0
LINE
  8
0
 10
18.0283
 20
-1.08394
 11
17.9641
 21
-0.957993
  0
LINE
  8
0
 10
17.9641
 20
-0.957993
 11
17.908
 21
-0.828278
  0
LINE
  8
0
 10
17.908
 20
-0.828278
 11
17.8601
 21
-0.695282
  0
LINE
  8
0
 10
17.8601
 20
-0.695282
 11
17.8207
 21
-0.55954
  0
LINE
  8
0
 10
17.8207
 20
-0.55954
 11
17.7899
 21
-0.4216
  0
LINE
  8
0
 10
17.7899
 20
-0.4216
 11
17.7677
 21
-0.281998
  0
LINE
  8
0
 10
17.7677
 20
-0.281998
 11
17.7544
 21
-0.141266
  0
LINE
  8
0
 10
17.7544
 20
-0.141266
 11
17.75
 21
0
  0
LINE
  8
0
 10
17.75
 20
0
 11
17.7544
 21
0.141266
  0
LINE
  8
0
 10
17.7544
 20
0.141266
 11
17.7677
 21
0.281998
  0
LINE
  8
0
 10
17.7677
 20
0.281998
 11
17.7899
 21
0.4216
  0
LINE
  8
0
 10
17.7899
 20
0.4216
 11
17.8207
 21
0.55954
  0
LINE
  8
0
 10
17.8207
 20
0.55954
 11
17.8601
 21
0.695282
  0
LINE
  8
0
 10
17.8601
 20
0.695282
 11
17.908
 21
0.828278
  0
LINE
  8
0
 10
17.908
 20
0.828278
 11
17.9641
 21
0.957993
  0
LINE
  8
0
 10
17.9641
 20
0.957993
 11
18.0283
 21
1.08394
  0
LINE
  8
0
 10
18.0283
 20
1.08394
 11
18.1003
 21
1.2056
  0
LINE
  8
0
 10
18.1003
 20
1.2056
 11
18.1797
 21
1.32251
  0
LINE
  8
0
 10
18.1797
 20
1.32251
 11
18.2664
 21
1.43419
  0
LINE
  8
0
 10
18.2664
 20
1.43419
 11
18.3598
 21
1.54022
  0
LINE
  8
0
 10
18.3598
 20
1.54022
 11
18.4598
 21
1.64017
  0
LINE
  8
0
 10
18.4598
 20
1.64017
 11
18.5658
 21
1.73364
  0
LINE
  8
0
 10
18.5658
 20
1.73364
 11
18.6775
 21
1.82028
  0
LINE
  8
0
 10
18.6775
 20
1.82028
 11
18.7944
 21
1.89973
  0
LINE
  8
0
 10
18.7944
 20
1.89973
 11
18.9161
 21
1.97168
  0
LINE
  8
0
 10
18.9161
 20
1.97168
 11
19.042
 21
2.03586
  0
LINE
  8
0
 10
19.042
 20
2.03586
 11
19.1717
 21
2.092
  0
LINE
  8
0
 10
19.1717
 20
2.092
 11
19.3047
 21
2.13986
  0
LINE
  8
0
 10
19.3047
 20
2.13986
 11
19.4405
 21
2.17931
  0
LINE
  8
0
 10
19.4405
 20
2.17931
 11
19.5784
 21
2.21014
  0
LINE
  8
0
 10
19.5784
 20
2.21014
 11
19.718
 21
2.23225
  0
LINE
  8
0
 10
19.718
 20
2.23225
 11
19.8587
 21
2.24556
  0
LINE
  8
0
 10
19.8587
 20
2.24556
 11
20
 21
2.25
  0
LINE
  8
0
 10
20
 20
2.25
 11
20.1413
 21
2.24556
  0
LINE
  8
0
 10
20.1413
 20
2.24556
 11
20.282
 21
2.23225
  0
LINE
  8
0
 10
20.282
 20
2.23225
 11
20.4216
 21
2.21014
  0
LINE
  8
0
 10
20.4216
 20
2.21014
 11
20.5595
 21
2.17931
  0
LINE
  8
0
 10
20.5595
 20
2.17931
 11
20.6953
 21
2.13986
  0
LINE
  8
0
 10
20.6953
 20
2.13986
 11
20.8283
 21
2.092
  0
LINE
  8
0
 10
20.8283
 20
2.092
 11
20.958
 21
2.03586
  0
LINE
  8
0
 10
20.958
 20
2.03586
 11
21.0839
 21
1.97168
  0
LINE
  8
0
 10
21.0839
 20
1.97168
 11
21.2056
 21
1.89973
  0
LINE
  8
0
 10
21.2056
 20
1.89973
 11
21.3225
 21
1.82028
  0
LINE
  8
0
 10
21.3225
 20
1.82028
 11
21.4342
 21
1.73364
  0
LINE
  8
0
 10
21.4342
 20
1.73364
 11
21.5402
 21
1.64017
  0
LINE
  8
0
 10
21.5402
 20
1.64017
 11
21.6402
 21
1.54022
  0
LINE
  8
0
 10
21.6402
 20
1.54022
 11
21.7336
 21
1.43419
  0
LINE
  8
0
 10
21.7336
 20
1.43419
 11
21.8203
 21
1.32251
  0
LINE
  8
0
 10
21.8203
 20
1.32251
 11
21.8997
 21
1.2056
  0
LINE
  8
0
 10
21.8997
 20
1.2056
 11
21.9717
 21
1.08394
  0
LINE
  8
0
 10
21.9717
 20
1.08394
 11
22.0359
 21
0.957993
  0
LINE
  8
0
 10
22.0359
 20
0.957993
 11
22.092
 21
0.828278
  0
LINE
  8
0
 10
22.092
 20
0.828278
 11
22.1399
 21
0.695282
  0
LINE
  8
0
 10
22.1399
 20
0.695282
 11
22.1793
 21
0.55954
  0
LINE
  8
0
 10
22.1793
 20
0.55954
 11
22.2101
 21
0.4216
  0
LINE
  8
0
 10
22.2101
 20
0.4216
 11
22.2323
 21
0.281998
  0
LINE
  8
0
 10
22.2323
 20
0.281998
 11
22.2456
 21
0.141266
  0
LINE
  8
0
 10
22.2456
 20
0.141266
 11
22.25
 21
0
  0
LINE
  8
0
 10
22.25
 20
0
 11
22.2456
 21
-0.141266
  0
LINE
  8
0
 10
22.2456
 20
-0.141266
 11
22.2323
 21
-0.281998
  0
LINE
  8
0
 10
22.2323
 20
-0.281998
 11
22.2101
 21
-0.4216
  0
LINE
  8
0
 10
22.2101
 20
-0.4216
 11
22.1793
 21
-0.55954
  0
LINE
  8
0
 10
22.1793
 20
-0.55954
 11
22.1399
 21
-0.695282
  0
LINE
  8
0
 10
22.1399
 20
-0.695282
 11
22.092
 21
-0.828278
  0
LINE
  8
0
 10
22.092
 20
-0.828278
 11
22.0359
 21
-0.957993
  0
LINE
  8
0
 10
22.0359
 20
-0.957993
 11
21.9717
 21
-1.08394
  0
LINE
  8
0
 10
21.9717
 20
-1.08394
 11
21.8997
 21
-1.2056
  0
LINE
  8
0
 10
21.8997
 20
-1.2056
 11
21.8203
 21
-1.32251
  0
LINE
  8
0
 10
21.8203
 20
-1.32251
 11
21.7336
 21
-1.43419
  0
LINE
  8
0
 10
21.7336
 20
-1.43419
 11
21.6402
 21
-1.54022
  0
LINE
  8
0
 10
21.6402
 20
-1.54022
 11
21.5402
 21
-1.64017
  0
LINE
  8
0
 10
21.5402
 20
-1.64017
 11
21.4342
 21
-1.73364
  0
LINE
  8
0
 10
21.4342
 20
-1.73364
 11
21.3225
 21
-1.82028
  0
LINE
  8
0
 10
21.3225
 20
-1.82028
 11
21.2056
 21
-1.89973
  0
LINE
  8
0
 10
21.2056
 20
-1.89973
 11
21.0839
 21
-1.97168
  0
LINE
  8
0
 10
21.0839
 20
-1.97168
 11
20.958
 21
-2.03586
  0
LINE
  8
0
 10
20.958
 20
-2.03586
 11
20.8283
 21
-2.092
  0
LINE
  8
0
 10
20.8283
 20
-2.092
 11
20.6953
 21
-2.13986
  0
LINE
  8
0
 10
20.6953
 20
-2.13986
 11
20.5595
 21
-2.17931
  0
LINE
  8
0
 10
20.5595
 20
-2.17931
 11
20.4216
 21
-2.21014
  0
LINE
  8
0
 10
20.4216
 20
-2.21014
 11
20.282
 21
-2.23225
  0
LINE
  8
0
 10
20.282
 20
-2.23225
 11
20.1413
 21
-2.24556
  0
LINE
  8
0
 10
20.1413
 20
-2.24556
 11
20
 21
-2.25
  0
LINE
  8
0
 10
20
 20
-2.25
 11
19.8587
 21
-2.24556
  0
LINE
  8
0
 10
34
 20
4
 11
26
 21
4
  0
LINE
  8
0
 10
26
 20
4
 11
26
 21
-4
  0
LINE
  8
0
 10
26
 20
-4
 11
34
 21
-4
  0
LINE
  8
0
 10
34
 20
-4
 11
34
 21
4
  0
LINE
  8
0
 10
29.8587
 20
-2.24556
 11
29.718
 21
-2.23225
  0
LINE
  8
0
 10
29.718
 20
-2.23225
 11
29.5784
 21
-2.21014
  0
LINE
  8
0
 10
29.5784
 20
-2.21014
 11
29.4405
 21
-2.17931
  0
LINE
  8
0
 10
29.4405
 20
-2.17931
 11
29.3047
 21
-2.13986
  0
LINE
  8
0
 10
29.3047
 20
-2.13986
 11
29.1717
 21
-2.092
  0
LINE
  8
0
 10
29.1717
 20
-2.092
 11
29.042
 21
-2.03586
  0
LINE
  8
0
 10
29.042
 20
-2.03586
 11
28.9161
 21
-1.97168
  0
LINE
  8
0
 10
28.9161
 20
-1.97168
 11
28.7944
 21
-1.89973
  0
LINE
  8
0
 10
28.7944
 20
-1.89973
 11
28.6775
 21
-1.82028
  0
LINE
  8
0
 10
28.6775
 20
-1.82028
 11
28.5658
 21
-1.73364
  0
LINE
  8
0
 10
28.5658
 20
-1.73364
 11
28.4598
 21
-1.64017
  0
LINE
  8
0
 10
28.4598
 20
-1.64017
 11
28.3598
 21
-1.54022
  0
LINE
  8
0
 10
28.3598
 20
-1.54022
 11
28.2664
 21
-1.43419
  0
LINE
  8
0
 10
28.2664
 20
-1.43419
 11
28.1797
 21
-1.32251
  0
LINE
  8
0
 10
28.1797
 20
-1.32251
 11
28.1003
 21
-1.2056
  0
LINE
  8
0
 10
28.1003
 20
-1.2056
 11
28.0283
 21
-1.08394
  0
LINE
  8
0
 10
28.0283
 20
-1.08394
 11
27.9641
 21
-0.957993
  0
LINE
  8
0
 10
27.9641
 20
-0.957993
 11
27.908
 21
-0.828278
  0
LINE
  8
0
 10
27.908
 20
-0.828278
 11
27.8601
 21
-0.695282
  0
LINE
  8
0
 10
27.8601
 20
-0.695282
 11
27.8207
 21
-0.55954
  0
LINE
  8
0
 10
27.8207
 20
-0.55954
 11
27.7899
 21
-0.4216
  0
LINE
  8
0
 10
27.7899
 20
-0.4216
 11
27.7677
 21
-0.281998
  0
LINE
  8
0
 10
27.7677
 20
-0.281998
 11
27.7544
 21
-0.141266
  0
LINE
  8
0
 10
27.7544
 20
-0.141266
 11
27.75
 21
0
  0
LINE
  8
0
 10
27.75
 20
0
 11
27.7544
 21
0.141266
  0
LINE
  8
0
 10
27.7544
 20
0.141266
 11
27.7677
 21
0.281998
  0
LINE
  8
0
 10
27.7677
 20
0.281998
 11
27.7899
 21
0.4216
  0
LINE
  8
0
 10
27.7899
 20
0.4216
 11
27.8207
 21
0.55954
  0
LINE
  8
0
 10
27.8207
 20
0.55954
 11
27.8601
 21
0.695282
  0
LINE
  8
0
 10
27.8601
 20
0.695282
 11
27.908
 21
0.828278
  0
LINE
  8
0
 10
27.908
 20
0.828278
 11
27.9641
 21
0.957993
  0
LINE
  8
0
 10
27.9641
 20
0.957993
 11
28.0283
 21
1.08394
  0
LINE
  8
0
 10
28.0283
 20
1.08394
 11
28.1003
 21
1.2056
  0
LINE
  8
0
 10
28.1003
 20
1.2056
 11
28.1797
 21
1.32251
  0
LINE
  8
0
 10
28.1797
 20
1.32251
 11
28.2664
 21
1.43419
  0
LINE
  8
0
 10
28.2664
 20
1.43419
 11
28.3598
 21
1.54022
  0
LINE
  8
0
 10
28.3598
 20
1.54022
 11
28.4598
 21
1.64017
  0
LINE
  8
0
 10
28.4598
 20
1.64017
 11
28.5658
 21
1.73364
  0
LINE
  8
0
 10
28.5658
 20
1.73364
 11
28.6775
 21
1.82028
  0
LINE
  8
0
 10
28.6775
 20
1.82028
 11
28.7944
 21
1.89973
  0
LINE
  8
0
 10
28.7944
 20
1.89973
 11
28.9161
 21
1.97168
  0
LINE
  8
0
 10
28.9161
 20
1.97168
 11
29.042
 21
2.03586
  0
LINE
  8
0
 10
29.042
 20
2.03586
 11
29.1717
 21
2.092
  0
LINE
  8
0
 10
29.1717
 20
2.092
 11
29.3047
 21
2.13986
  0
LINE
  8
0
 10
29.3047
 20
2.13986
 11
29.4405
 21
2.17931
  0
LINE
  8
0
 10
29.4405
 20
2.17931
 11
29.5784
 21
2.21014
  0
LINE
  8
0
 10
29.5784
 20
2.21014
 11
29.718
 21
2.23225
  0
LINE
  8
0
 10
29.718
 20
2.23225
 11
29.8587
 21
2.24556
  0
LINE
  8
0
 10
29.8587
 20
2.24556
 11
30
 21
2.25
  0
LINE
  8
0
 10
30
 20
2.25
 11
30.1413
 21
2.24556
  0
LINE
  8
0
 10
30.1413
 20
2.24556
 11
30.282
 21
2.23225
  0
LINE
  8
0
 10
30.282
 20
2.23225
 11
30.4216
 21
2.21014
  0
LINE
  8
0
 10
30.4216
 20
2.21014
 11
30.5595
 21
2.17931
  0
LINE
  8
0
 10
30.5595
 20
2.17931
 11
30.6953
 21
2.13986
  0
LINE
  8
0
 10
30.6953
 20
2.13986
 11
30.8283
 21
2.092
  0
LINE
  8
0
 10
30.8283
 20
2.092
 11
30.958
 21
2.03586
  0
LINE
  8
0
 10
30.958
 20
2.03586
 11
31.0839
 21
1.97168
  0
LINE
  8
0
 10
31.0839
 20
1.97168
 11
31.2056
 21
1.89973
  0
LINE
  8
0
 10
31.2056
 20
1.89973
 11
31.3225
 21
1.82028
  0
LINE
  8
0
 10
31.3225
 20
1.82028
 11
31.4342
 21
1.73364
  0
LINE
  8
0
 10
31.4342
 20
1.73364
 11
31.5402
 21
1.64017
  0
LINE
  8
0
 10
31.5402
 20
1.64017
 11
31.6402
 21
1.54022
  0
LINE
  8
0
 10
31.6402
 20
1.54022
 11
31.7336
 21
1.43419
  0
LINE
  8
0
 10
31.7336
 20
1.43419
 11
31.8203
 21
1.32251
  0
LINE
  8
0
 10
31.8203
 20
1.32251
 11
31.8997
 21
1.2056
  0
LINE
  8
0
 10
31.8997
 20
1.2056
 11
31.9717
 21
1.08394
  0
LINE
  8
0
 10
31.9717
 20
1.08394
 11
32.0359
 21
0.957993
  0
LINE
  8
0
 10
32.0359
 20
0.957993
 11
32.092
 21
0.828278
  0
LINE
  8
0
 10
32.092
 20
0.828278
 11
32.1399
 21
0.695282
  0
LINE
  8
0
 10
32.1399
 20
0.695282
 11
32.1793
 21
0.55954
  0
LINE
  8
0
 10
32.1793
 20
0.55954
 11
32.2101
 21
0.4216
  0
LINE
  8
0
 10
32.2101
 20
0.4216
 11
32.2323
 21
0.281998
  0
LINE
  8
0
 10
32.2323
 20
0.281998
 11
32.2456
 21
0.141266
  0
LINE
  8
0
 10
32.2456
 20
0.141266
 11
32.25
 21
0
  0
LINE
  8
0
 10
32.25
 20
0
 11
32.2456
 21
-0.141266
  0
LINE
  8
0
 10
32.2456
 20
-0.141266
 11
32.2323
 21
-0.281998
  0
LINE
  8
0
 10
32.2323
 20
-0.281998
 11
32.2101
 21
-0.4216
  0
LINE
  8
0
 10
32.2101
 20
-0.4216
 11
32.1793
 21
-0.55954
  0
LINE
  8
0
 10
32.1793
 20
-0.55954
 11
32.1399
 21
-0.695282
  0
LINE
  8
0
 10
32.1399
 20
-0.695282
 11
32.092
 21
-0.828278
  0
LINE
  8
0
 10
32.092
 20
-0.828278
 11
32.0359
 21
-0.957993
  0
LINE
  8
0
 10
32.0359
 20
-0.957993
 11
31.9717
 21
-1.08394
  0
LINE
  8
0
 10
31.9717
 20
-1.08394
 11
31.8997
 21
-1.2056
  0
LINE
  8
0
 10
31.8997
 20
-1.2056
 11
31.8203
 21
-1.32251
  0
LINE
  8
0
 10
31.8203
 20
-1.32251
 11
31.7336
 21
-1.43419
  0
LINE
  8
0
 10
31.7336
 20
-1.43419
 11
31.6402
 21
-1.54022
  0
LINE
  8
0
 10
31.6402
 20
-1.54022
 11
31.5402
 21
-1.64017
  0
LINE
  8
0
 10
31.5402
 20
-1.64017
 11
31.4342
 21
-1.73364
  0
LINE
  8
0
 10
31.4342
 20
-1.73364
 11
31.3225
 21
-1.82028
  0
LINE
  8
0
 10
31.3225
 20
-1.82028
 11
31.2056
 21
-1.89973
  0
LINE
  8
0
 10
31.2056
 20
-1.89973
 11
31.0839
 21
-1.97168
  0
LINE
  8
0
 10
31.0839
 20
-1.97168
 11
30.958
 21
-2.03586
  0
LINE
  8
0
 10
30.958
 20
-2.03586
 11
30.8283
 21
-2.092
  0
LINE
  8
0
 10
30.8283
 20
-2.092
 11
30.6953
 21
-2.13986
  0
LINE
  8
0
 10
30.6953
 20
-2.13986
 11
30.5595
 21
-2.17931
  0
LINE
  8
0
 10
30.5595
 20
-2.17931
 11
30.4216
 21
-2.21014
  0
LINE
  8
0
 10
30.4216
 20
-2.21014
 11
30.282
 21
-2.23225
  0
LINE
  8
0
 10
30.282
 20
-2.23225
 11
30.1413
 21
-2.24556
  0
LINE
  8
0
 10
30.1413
 20
-2.24556
 11
30
 21
-2.25
  0
LINE
  8
0
 10
30
 20
-2.25
 11
29.8587
 21
-2.24556
  0
LINE
  8
0
 10
44
 20
4
 11
36
 21
4
  0
LINE
  8
0
 10
36
 20
4
 11
36
 21
-4
  0
LINE
  8
0
 10
36
 20
-4
 11
44
 21
-4
  0
LINE
  8
0
 10
44
 20
-4
 11
44
 21
4
  0
LINE
  8
0
 10
39.8587
 20
-2.24556
 11
39.718
 21
-2.23225
  0
LINE
  8
0
 10
39.718
 20
-2.23225
 11
39.5784
 21
-2.21014
  0
LINE
  8
0
 10
39.5784
 20
-2.21014
 11
39.4405
 21
-2.17931
  0
LINE
  8
0
 10
39.4405
 20
-2.17931
 11
39.3047
 21
-2.13986
  0
LINE
  8
0
 10
39.3047
 20
-2.13986
 11
39.1717
 21
-2.092
  0
LINE
  8
0
 10
39.1717
 20
-2.092
 11
39.042
 21
-2.03586
  0
LINE
  8
0
 10
39.042
 20
-2.03586
 11
38.9161
 21
-1.97168
  0
LINE
  8
0
 10
38.9161
 20
-1.97168
 11
38.7944
 21
-1.89973
  0
LINE
  8
0
 10
38.7944
 20
-1.89973
 11
38.6775
 21
-1.82028
  0
LINE
  8
0
 10
38.6775
 20
-1.82028
 11
38.5658
 21
-1.73364
  0
LINE
  8
0
 10
38.5658
 20
-1.73364
 11
38.4598
 21
-1.64017
  0
LINE
  8
0
 10
38.4598
 20
-1.64017
 11
38.3598
 21
-1.54022
  0
LINE
  8
0
 10
38.3598
 20
-1.54022
 11
38.2664
 21
-1.43419
  0
LINE
  8
0
 10
38.2664
 20
-1.43419
 11
38.1797
 21
-1.32251
  0
LINE
  8
0
 10
38.1797
 20
-1.32251
 11
38.1003
 21
-1.2056
  0
LINE
  8
0
 10
38.1003
 20
-1.2056
 11
38.0283
 21
-1.08394
  0
LINE
  8
0
 10
38.0283
 20
-1.08394
 11
37.9641
 21
-0.957993
  0
LINE
  8
0
 10
37.9641
 20
-0.957993
 11
37.908
 21
-0.828278
  0
LINE
  8
0
 10
37.908
 20
-0.828278
 11
37.8601
 21
-0.695282
  0
LINE
  8
0
 10
37.8601
 20
-0.695282
 11
37.8207
 21
-0.55954
  0
LINE
  8
0
 10
37.8207
 20
-0.55954
 11
37.7899
 21
-0.4216
  0
LINE
  8
0
 10
37.7899
 20
-0.4216
 11
37.7677
 21
-0.281998
  0
LINE
  8
0
 10
37.7677
 20
-0.281998
 11
37.7544
 21
-0.141266
  0
LINE
  8
0
 10
37.7544
 20
-0.141266
 11
37.75
 21
0
  0
LINE
  8
0
 10
37.75
 20
0
 11
37.7544
 21
0.141266
  0
LINE
  8
0
 10
37.7544
 20
0.141266
 11
37.7677
 21
0.281998
  0
LINE
  8
0
 10
37.7677
 20
0.281998
 11
37.7899
 21
0.4216
  0
LINE
  8
0
 10
37.7899
 20
0.4216
 11
37.8207
 21
0.55954
  0
LINE
  8
0
 10
37.8207
 20
0.55954
 11
37.8601
 21
0.695282
  0
LINE
  8
0
 10
37.8601
 20
0.695282
 11
37.908
 21
0.828278
  0
LINE
  8
0
 10
37.908
 20
0.828278
 11
37.9641
 21
0.957993
  0
LINE
  8
0
 10
37.9641
 20
0.957993
 11
38.0283
 21
1.08394
  0
LINE
  8
0
 10
38.0283
 20
1.08394
 11
38.1003
 21
1.2056
  0
LINE
  8
0
 10
38.1003
 20
1.2056
 11
38.1797
 21
1.32251
  0
LINE
  8
0
 10
38.1797
 20
1.32251
 11
38.2664
 21
1.43419
  0
LINE
  8
0
 10
38.2664
 20
1.43419
 11
38.3598
 21
1.54022
  0
LINE
  8
0
 10
38.3598
 20
1.54022
 11
38.4598
 21
1.64017
  0
LINE
  8
0
 10
38.4598
 20
1.64017
 11
38.5658
 21
1.73364
  0
LINE
  8
0
 10
38.5658
 20
1.73364
 11
38.6775
 21
1.82028
  0
LINE
  8
0
 10
38.6775
 20
1.82028
 11
38.7944
 21
1.89973
  0
LINE
  8
0
 10
38.7944
 20
1.89973
 11
38.9161
 21
1.97168
  0
LINE
  8
0
 10
38.9161
 20
1.97168
 11
39.042
 21
2.03586
  0
LINE
  8
0
 10
39.042
 20
2.03586
 11
39.1717
 21
2.092
  0
LINE
  8
0
 10
39.1717
 20
2.092
 11
39.3047
 21
2.13986
  0
LINE
  8
0
 10
39.3047
 20
2.13986
 11
39.4405
 21
2.17931
  0
LINE
  8
0
 10
39.4405
 20
2.17931
 11
39.5784
 21
2.21014
  0
LINE
  8
0
 10
39.5784
 20
2.21014
 11
39.718
 21
2.23225
  0
LINE
  8
0
 10
39.718
 20
2.23225
 11
39.8587
 21
2.24556
  0
LINE
  8
0
 10
39.8587
 20
2.24556
 11
40
 21
2.25
  0
LINE
  8
0
 10
40
 20
2.25
 11
40.1413
 21
2.24556
  0
LINE
  8
0
 10
40.1413
 20
2.24556
 11
40.282
 21
2.23225
  0
LINE
  8
0
 10
40.282
 20
2.23225
 11
40.4216
 21
2.21014
  0
LINE
  8
0
 10
40.4216
 20
2.21014
 11
40.5595
 21
2.17931
  0
LINE
  8
0
 10
40.5595
 20
2.17931
 11
40.6953
 21
2.13986
  0
LINE
  8
0
 10
40.6953
 20
2.13986
 11
40.8283
 21
2.092
  0
LINE
  8
0
 10
40.8283
 20
2.092
 11
40.958
 21
2.03586
  0
LINE
  8
0
 10
40.958
 20
2.03586
 11
41.0839
 21
1.97168
  0
LINE
  8
0
 10
41.0839
 20
1.97168
 11
41.2056
 21
1.89973
  0
LINE
  8
0
 10
41.2056
 20
1.89973
 11
41.3225
 21
1.82028
  0
LINE
  8
0
 10
41.3225
 20
1.82028
 11
41.4342
 21
1.73364
  0
LINE
  8
0
 10
41.4342
 20
1.73364
 11
41.5402
 21
1.64017
  0
LINE
  8
0
 10
41.5402
 20
1.64017
 11
41.6402
 21
1.54022
  0
LINE
  8
0
 10
41.6402
 20
1.54022
 11
41.7336
 21
1.43419
  0
LINE
  8
0
 10
41.7336
 20
1.43419
 11
41.8203
 21
1.32251
  0
LINE
  8
0
 10
41.8203
 20
1.32251
 11
41.8997
 21
1.2056
  0
LINE
  8
0
 10
41.8997
 20
1.2056
 11
41.9717
 21
1.08394
  0
LINE
  8
0
 10
41.9717
 20
1.08394
 11
42.0359
 21
0.957993
  0
LINE
  8
0
 10
42.0359
 20
0.957993
 11
42.092
 21
0.828278
  0
LINE
  8
0
 10
42.092
 20
0.828278
 11
42.1399
 21
0.695282
  0
LINE
  8
0
 10
42.1399
 20
0.695282
 11
42.1793
 21
0.55954
  0
LINE
  8
0
 10
42.1793
 20
0.55954
 11
42.2101
 21
0.4216
  0
LINE
  8
0
 10
42.2101
 20
0.4216
 11
42.2323
 21
0.281998
  0
LINE
  8
0
 10
42.2323
 20
0.281998
 11
42.2456
 21
0.141266
  0
LINE
  8
0
 10
42.2456
 20
0.141266
 11
42.25
 21
0
  0
LINE
  8
0
 10
42.25
 20
0
 11
42.2456
 21
-0.141266
  0
LINE
  8
0
 10
42.2456
 20
-0.141266
 11
42.2323
 21
-0.281998
  0
LINE
  8
0
 10
42.2323
 20
-0.281998
 11
42.2101
 21
-0.4216
  0
LINE
  8
0
 10
42.2101
 20
-0.4216
 11
42.1793
 21
-0.55954
  0
LINE
  8
0
 10
42.1793
 20
-0.55954
 11
42.1399
 21
-0.695282
  0
LINE
  8
0
 10
42.1399
 20
-0.695282
 11
42.092
 21
-0.828278
  0
LINE
  8
0
 10
42.092
 20
-0.828278
 11
42.0359
 21
-0.957993
  0
LINE
  8
0
 10
42.0359
 20
-0.957993
 11
41.9717
 21
-1.08394
  0
LINE
  8
0
 10
41.9717
 20
-1.08394
 11
41.8997
 21
-1.2056
  0
LINE
  8
0
 10
41.8997
 20
-1.2056
 11
41.8203
 21
-1.32251
  0
LINE
  8
0
 10
41.8203
 20
-1.32251
 11
41.7336
 21
-1.43419
  0
LINE
  8
0
 10
41.7336
 20
-1.43419
 11
41.6402
 21
-1.54022
  0
LINE
  8
0
 10
41.6402
 20
-1.54022
 11
41.5402
 21
-1.64017
  0
LINE
  8
0
 10
41.5402
 20
-1.64017
 11
41.4342
 21
-1.73364
  0
LINE
  8
0
 10
41.4342
 20
-1.73364
 11
41.3225
 21
-1.82028
  0
LINE
  8
0
 10
41.3225
 20
-1.82028
 11
41.2056
 21
-1.89973
  0
LINE
  8
0
 10
41.2056
 20
-1.89973
 11
41.0839
 21
-1.97168
  0
LINE
  8
0
 10
41.0839
 20
-1.97168
 11
40.958
 21
-2.03586
  0
LINE
  8
0
 10
40.958
 20
-2.03586
 11
40.8283
 21
-2.092
  0
LINE
  8
0
 10
40.8283
 20
-2.092
 11
40.6953
 21
-2.13986
  0
LINE
  8
0
 10
40.6953
 20
-2.13986
 11
40.5595
 21
-2.17931
  0
LINE
  8
0
 10
40.5595
 20
-2.17931
 11
40.4216
 21
-2.21014
  0
LINE
  8
0
 10
40.4216
 20
-2.21014
 11
40.282
 21
-2.23225
  0
LINE
  8
0
 10
40.282
 20
-2.23225
 11
40.1413
 21
-2.24556
  0
LINE
  8
0
 10
40.1413
 20
-2.24556
 11
40
 21
-2.25
  0
LINE
  8
0
 10
40
 20
-2.25
 11
39.8587
 21
-2.24556
  0
LINE
  8
0
 10
54
 20
4
 11
46
 21
4
  0
LINE
  8
0
 10
46
 20
4
 11
46
 21
-4
  0
LINE
  8
0
 10
46
 20
-4
 11
54
 21
-4
  0
LINE
  8
0
 10
54
 20
-4
 11
54
 21
4
  0
LINE
  8
0
 10
49.8587
 20
-2.24556
 11
49.718
 21
-2.23225
  0
LINE
  8
0
 10
49.718
 20
-2.23225
 11
49.5784
 21
-2.21014
  0
LINE
  8
0
 10
49.5784
 20
-2.21014
 11
49.4405
 21
-2.17931
  0
LINE
  8
0
 10
49.4405
 20
-2.17931
 11
49.3047
 21
-2.13986
  0
LINE
  8
0
 10
49.3047
 20
-2.13986
 11
49.1717
 21
-2.092
  0
LINE
  8
0
 10
49.1717
 20
-2.092
 11
49.042
 21
-2.03586
  0
LINE
  8
0
 10
49.042
 20
-2.03586
 11
48.9161
 21
-1.97168
  0
LINE
  8
0
 10
48.9161
 20
-1.97168
 11
48.7944
 21
-1.89973
  0
LINE
  8
0
 10
48.7944
 20
-1.89973
 11
48.6775
 21
-1.82028
  0
LINE
  8
0
 10
48.6775
 20
-1.82028
 11
48.5658
 21
-1.73364
  0
LINE
  8
0
 10
48.5658
 20
-1.73364
 11
48.4598
 21
-1.64017
  0
LINE
  8
0
 10
48.4598
 20
-1.64017
 11
48.3598
 21
-1.54022
  0
LINE
  8
0
 10
48.3598
 20
-1.54022
 11
48.2664
 21
-1.43419
  0
LINE
  8
0
 10
48.2664
 20
-1.43419
 11
48.1797
 21
-1.32251
  0
LINE
  8
0
 10
48.1797
 20
-1.32251
 11
48.1003
 21
-1.2056
  0
LINE
  8
0
 10
48.1003
 20
-1.2056
 11
48.0283
 21
-1.08394
  0
LINE
  8
0
 10
48.0283
 20
-1.08394
 11
47.9641
 21
-0.957993
  0
LINE
  8
0
 10
47.9641
 20
-0.957993
 11
47.908
 21
-0.828278
  0
LINE
  8
0
 10
47.908
 20
-0.828278
 11
47.8601
 21
-0.695282
  0
LINE
  8
0
 10
47.8601
 20
-0.695282
 11
47.8207
 21
-0.55954
  0
LINE
  8
0
 10
47.8207
 20
-0.55954
 11
47.7899
 21
-0.4216
  0
LINE
  8
0
 10
47.7899
 20
-0.4216
 11
47.7677
 21
-0.281998
  0
LINE
  8
0
 10
47.7677
 20
-0.281998
 11
47.7544
 21
-0.141266
  0
LINE
  8
0
 10
47.7544
 20
-0.141266
 11
47.75
 21
0
  0
LINE
  8
0
 10
47.75
 20
0
 11
47.7544
 21
0.141266
  0
LINE
  8
0
 10
47.7544
 20
0.141266
 11
47.7677
 21
0.281998
  0
LINE
  8
0
 10
47.7677
 20
0.281998
 11
47.7899
 21
0.4216
  0
LINE
  8
0
 10
47.7899
 20
0.4216
 11
47.8207
 21
0.55954
  0
LINE
  8
0
 10
47.8207
 20
0.55954
 11
47.8601
 21
0.695282
  0
LINE
  8
0
 10
47.8601
 20
0.695282
 11
47.908
 21
0.828278
  0
LINE
  8
0
 10
47.908
 20
0.828278
 11
47.9641
 21
0.957993
  0
LINE
  8
0
 10
47.9641
 20
0.957993
 11
48.0283
 21
1.08394
  0
LINE
  8
0
 10
48.0283
 20
1.08394
 11
48.1003
 21
1.2056
  0
LINE
  8
0
 10
48.1003
 20
1.2056
 11
48.1797
 21
1.32251
  0
LINE
  8
0
 10
48.1797
 20
1.32251
 11
48.2664
 21
1.43419
  0
LINE
  8
0
 10
48.2664
 20
1.43419
 11
48.3598
 21
1.54022
  0
LINE
  8
0
 10
48.3598
 20
1.54022
 11
48.4598
 21
1.64017
  0
LINE
  8
0
 10
48.4598
 20
1.64017
 11
48.5658
 21
1.73364
  0
LINE
  8
0
 10
48.5658
 20
1.73364
 11
48.6775
 21
1.82028
  0
LINE
  8
0
 10
48.6775
 20
1.82028
 11
48.7944
 21
1.89973
  0
LINE
  8
0
 10
48.7944
 20
1.89973
 11
48.9161
 21
1.97168
  0
LINE
  8
0
 10
48.9161
 20
1.97168
 11
49.042
 21
2.03586
  0
LINE
  8
0
 10
49.042
 20
2.03586
 11
49.1717
 21
2.092
  0
LINE
  8
0
 10
49.1717
 20
2.092
 11
49.3047
 21
2.13986
  0
LINE
  8
0
 10
49.3047
 20
2.13986
 11
49.4405
 21
2.17931
  0
LINE
  8
0
 10
49.4405
 20
2.17931
 11
49.5784
 21
2.21014
  0
LINE
  8
0
 10
49.5784
 20
2.21014
 11
49.718
 21
2.23225
  0
LINE
  8
0
 10
49.718
 20
2.23225
 11
49.8587
 21
2.24556
  0
LINE
  8
0
 10
49.8587
 20
2.24556
 11
50
 21
2.25
  0
LINE
  8
0
 10
50
 20
2.25
 11
50.1413
 21
2.24556
  0
LINE
  8
0
 10
50.1413
 20
2.24556
 11
50.282
 21
2.23225
  0
LINE
  8
0
 10
50.282
 20
2.23225
 11
50.4216
 21
2.21014
  0
LINE
  8
0
 10
50.4216
 20
2.21014
 11
50.5595
 21
2.17931
  0
LINE
  8
0
 10
50.5595
 20
2.17931
 11
50.6953
 21
2.13986
  0
LINE
  8
0
 10
50.6953
 20
2.13986
 11
50.8283
 21
2.092
  0
LINE
  8
0
 10
50.8283
 20
2.092
 11
50.958
 21
2.03586
  0
LINE
  8
0
 10
50.958
 20
2.03586
 11
51.0839
 21
1.97168
  0
LINE
  8
0
 10
51.0839
 20
1.97168
 11
51.2056
 21
1.89973
  0
LINE
  8
0
 10
51.2056
 20
1.89973
 11
51.3225
 21
1.82028
  0
LINE
  8
0
 10
51.3225
 20
1.82028
 11
51.4342
 21
1.73364
  0
LINE
  8
0
 10
51.4342
 20
1.73364
 11
51.5402
 21
1.64017
  0
LINE
  8
0
 10
51.5402
 20
1.64017
 11
51.6402
 21
1.54022
  0
LINE
  8
0
 10
51.6402
 20
1.54022
 11
51.7336
 21
1.43419
  0
LINE
  8
0
 10
51.7336
 20
1.43419
 11
51.8203
 21
1.32251
  0
LINE
  8
0
 10
51.8203
 20
1.32251
 11
51.8997
 21
1.2056
  0
LINE
  8
0
 10
51.8997
 20
1.2056
 11
51.9717
 21
1.08394
  0
LINE
  8
0
 10
51.9717
 20
1.08394
 11
52.0359
 21
0.957993
  0
LINE
  8
0
 10
52.0359
 20
0.957993
 11
52.092
 21
0.828278
  0
LINE
  8
0
 10
52.092
 20
0.828278
 11
52.1399
 21
0.695282
  0
LINE
  8
0
 10
52.1399
 20
0.695282
 11
52.1793
 21
0.55954
  0
LINE
  8
0
 10
52.1793
 20
0.55954
 11
52.2101
 21
0.4216
  0
LINE
  8
0
 10
52.2101
 20
0.4216
 11
52.2323
 21
0.281998
  0
LINE
  8
0
 10
52.2323
 20
0.281998
 11
52.2456
 21
0.141266
  0
LINE
  8
0
 10
52.2456
 20
0.141266
 11
52.25
 21
0
  0
LINE
  8
0
 10
52.25
 20
0
 11
52.2456
 21
-0.141266
  0
LINE
  8
0
 10
52.2456
 20
-0.141266
 11
52.2323
 21
-0.281998
  0
LINE
  8
0
 10
52.2323
 20
-0.281998
 11
52.2101
 21
-0.4216
  0
LINE
  8
0
 10
52.2101
 20
-0.4216
 11
52.1793
 21
-0.55954
  0
LINE
  8
0
 10
52.1793
 20
-0.55954
 11
52.1399
 21
-0.695282
  0
LINE
  8
0
 10
52.1399
 20
-0.695282
 11
52.092
 21
-0.828278
  0
LINE
  8
0
 10
52.092
 20
-0.828278
 11
52.0359
 21
-0.957993
  0
LINE
  8
0
 10
52.0359
 20
-0.957993
 11
51.9717
 21
-1.08394
  0
LINE
  8
0
 10
51.9717
 20
-1.08394
 11
51.8997
 21
-1.2056
  0
LINE
  8
0
 10
51.8997
 20
-1.2056
 11
51.8203
 21
-1.32251
  0
LINE
  8
0
 10
51.8203
 20
-1.32251
 11
51.7336
 21
-1.43419
  0
LINE
  8
0
 10
51.7336
 20
-1.43419
 11
51.6402
 21
-1.54022
  0
LINE
  8
0
 10
51.6402
 20
-1.54022
 11
51.5402
 21
-1.64017
  0
LINE
  8
0
 10
51.5402
 20
-1.64017
 11
51.4342
 21
-1.73364
  0
LINE
  8
0
 10
51.4342
 20
-1.73364
 11
51.3225
 21
-1.82028
  0
LINE
  8
0
 10
51.3225
 20
-1.82028
 11
51.2056
 21
-1.89973
  0
LINE
  8
0
 10
51.2056
 20
-1.89973
 11
51.0839
 21
-1.97168
  0
LINE
  8
0
 10
51.0839
 20
-1.97168
 11
50.958
 21
-2.03586
  0
LINE
  8
0
 10
50.958
 20
-2.03586
 11
50.8283
 21
-2.092
  0
LINE
  8
0
 10
50.8283
 20
-2.092
 11
50.6953
 21
-2.13986
  0
LINE
  8
0
 10
50.6953
 20
-2.13986
 11
50.5595
 21
-2.17931
  0
LINE
  8
0
 10
50.5595
 20
-2.17931
 11
50.4216
 21
-2.21014
  0
LINE
  8
0
 10
50.4216
 20
-2.21014
 11
50.282
 21
-2.23225
  0
LINE
  8
0
 10
50.282
 20
-2.23225
 11
50.1413
 21
-2.24556
  0
LINE
  8
0
 10
50.1413
 20
-2.24556
 11
50
 21
-2.25
  0
LINE
  8
0
 10
50
 20
-2.25
 11
49.8587
 21
-2.24556
  0
LINE
  8
0
 10
64
 20
4
 11
56
 21
4
  0
LINE
  8
0
 10
56
 20
4
 11
56
 21
-4
  0
LINE
  8
0
 10
56
 20
-4
 11
64
 21
-4
  0
LINE
  8
0
 10
64
 20
-4
 11
64
 21
4
  0
LINE
  8
0
 10
59.8587
 20
-2.24556
 11
59.718
 21
-2.23225
  0
LINE
  8
0
 10
59.718
 20
-2.23225
 11
59.5784
 21
-2.21014
  0
LINE
  8
0
 10
59.5784
 20
-2.21014
 11
59.4405
 21
-2.17931
  0
LINE
  8
0
 10
59.4405
 20
-2.17931
 11
59.3047
 21
-2.13986
  0
LINE
  8
0
 10
59.3047
 20
-2.13986
 11
59.1717
 21
-2.092
  0
LINE
  8
0
 10
59.1717
 20
-2.092
 11
59.042
 21
-2.03586
  0
LINE
  8
0
 10
59.042
 20
-2.03586
 11
58.9161
 21
-1.97168
  0
LINE
  8
0
 10
58.9161
 20
-1.97168
 11
58.7944
 21
-1.89973
  0
LINE
  8
0
 10
58.7944
 20
-1.89973
 11
58.6775
 21
-1.82028
  0
LINE
  8
0
 10
58.6775
 20
-1.82028
 11
58.5658
 21
-1.73364
  0
LINE
  8
0
 10
58.5658
 20
-1.73364
 11
58.4598
 21
-1.64017
  0
LINE
  8
0
 10
58.4598
 20
-1.64017
 11
58.3598
 21
-1.54022
  0
LINE
  8
0
 10
58.3598
 20
-1.54022
 11
58.2664
 21
-1.43419
  0
LINE
  8
0
 10
58.2664
 20
-1.43419
 11
58.1797
 21
-1.32251
  0
LINE
  8
0
 10
58.1797
 20
-1.32251
 11
58.1003
 21
-1.2056
  0
LINE
  8
0
 10
58.1003
 20
-1.2056
 11
58.0283
 21
-1.08394
  0
LINE
  8
0
 10
58.0283
 20
-1.08394
 11
57.9641
 21
-0.957993
  0
LINE
  8
0
 10
57.9641
 20
-0.957993
 11
57.908
 21
-0.828278
  0
LINE
  8
0
 10
57.908
 20
-0.828278
 11
57.8601
 21
-0.695282
  0
LINE
  8
0
 10
57.8601
 20
-0.695282
 11
57.8207
 21
-0.55954
  0
LINE
  8
0
 10
57.8207
 20
-0.55954
 11
57.7899
 21
-0.4216
  0
LINE
  8
0
 10
57.7899
 20
-0.4216
 11
57.7677
 21
-0.281998
  0
LINE
  8
0
 10
57.7677
 20
-0.281998
 11
57.7544
 21
-0.141266
  0
LINE
  8
0
 10
57.7544
 20
-0.141266
 11
57.75
 21
0
  0
LINE
  8
0
 10
57.75
 20
0
 11
57.7544
 21
0.141266
  0
LINE
  8
0
 10
57.7544
 20
0.141266
 11
57.7677
 21
0.281998
  0
LINE
  8
0
 10
57.7677
 20
0.281998
 11
57.7899
 21
0.4216
  0
LINE
  8
0
 10
57.7899
 20
0.4216
 11
57.8207
 21
0.55954
  0
LINE
  8
0
 10
57.8207
 20
0.55954
 11
57.8601
 21
0.695282
  0
LINE
  8
0
 10
57.8601
 20
0.695282
 11
57.908
 21
0.828278
  0
LINE
  8
0
 10
57.908
 20
0.828278
 11
57.9641
 21
0.957993
  0
LINE
  8
0
 10
57.9641
 20
0.957993
 11
58.0283
 21
1.08394
  0
LINE
  8
0
 10
58.0283
 20
1.08394
 11
58.1003
 21
1.2056
  0
LINE
  8
0
 10
58.1003
 20
1.2056
 11
58.1797
 21
1.32251
  0
LINE
  8
0
 10
58.1797
 20
1.32251
 11
58.2664
 21
1.43419
  0
LINE
  8
0
 10
58.2664
 20
1.43419
 11
58.3598
 21
1.54022
  0
LINE
  8
0
 10
58.3598
 20
1.54022
 11
58.4598
 21
1.64017
  0
LINE
  8
0
 10
58.4598
 20
1.64017
 11
58.5658
 21
1.73364
  0
LINE
  8
0
 10
58.5658
 20
1.73364
 11
58.6775
 21
1.82028
  0
LINE
  8
0
 10
58.6775
 20
1.82028
 11
58.7944
 21
1.89973
  0
LINE
  8
0
 10
58.7944
 20
1.89973
 11
58.9161
 21
1.97168
  0
LINE
  8
0
 10
58.9161
 20
1.97168
 11
59.042
 21
2.03586
  0
LINE
  8
0
 10
59.042
 20
2.03586
 11
59.1717
 21
2.092
  0
LINE
  8
0
 10
59.1717
 20
2.092
 11
59.3047
 21
2.13986
  0
LINE
  8
0
 10
59.3047
 20
2.13986
 11
59.4405
 21
2.17931
  0
LINE
  8
0
 10
59.4405
 20
2.17931
 11
59.5784
 21
2.21014
  0
LINE
  8
0
 10
59.5784
 20
2.21014
 11
59.718
 21
2.23225
  0
LINE
  8
0
 10
59.718
 20
2.23225
 11
59.8587
 21
2.24556
  0
LINE
  8
0
 10
59.8587
 20
2.24556
 11
60
 21
2.25
  0
LINE
  8
0
 10
60
 20
2.25
 11
60.1413
 21
2.24556
  0
LINE
  8
0
 10
60.1413
 20
2.24556
 11
60.282
 21
2.23225
  0
LINE
  8
0
 10
60.282
 20
2.23225
 11
60.4216
 21
2.21014
  0
LINE
  8
0
 10
60.4216
 20
2.21014
 11
60.5595
 21
2.17931
  0
LINE
  8
0
 10
60.5595
 20
2.17931
 11
60.6953
 21
2.13986
  0
LINE
  8
0
 10
60.6953
 20
2.13986
 11
60.8283
 21
2.092
  0
LINE
  8
0
 10
60.8283
 20
2.092
 11
60.958
 21
2.03586
  0
LINE
  8
0
 10
60.958
 20
2.03586
 11
61.0839
 21
1.97168
  0
LINE
  8
0
 10
61.0839
 20
1.97168
 11
61.2056
 21
1.89973
  0
LINE
  8
0
 10
61.2056
 20
1.89973
 11
61.3225
 21
1.82028
  0
LINE
  8
0
 10
61.3225
 20
1.82028
 11
61.4342
 21
1.73364
  0
LINE
  8
0
 10
61.4342
 20
1.73364
 11
61.5402
 21
1.64017
  0
LINE
  8
0
 10
61.5402
 20
1.64017
 11
61.6402
 21
1.54022
  0
LINE
  8
0
 10
61.6402
 20
1.54022
 11
61.7336
 21
1.43419
  0
LINE
  8
0
 10
61.7336
 20
1.43419
 11
61.8203
 21
1.32251
  0
LINE
  8
0
 10
61.8203
 20
1.32251
 11
61.8997
 21
1.2056
  0
LINE
  8
0
 10
61.8997
 20
1.2056
 11
61.9717
 21
1.08394
  0
LINE
  8
0
 10
61.9717
 20
1.08394
 11
62.0359
 21
0.957993
  0
LINE
  8
0
 10
62.0359
 20
0.957993
 11
62.092
 21
0.828278
  0
LINE
  8
0
 10
62.092
 20
0.828278
 11
62.1399
 21
0.695282
  0
LINE
  8
0
 10
62.1399
 20
0.695282
 11
62.1793
 21
0.55954
  0
LINE
  8
0
 10
62.1793
 20
0.55954
 11
62.2101
 21
0.4216
  0
LINE
  8
0
 10
62.2101
 20
0.4216
 11
62.2323
 21
0.281998
  0
LINE
  8
0
 10
62.2323
 20
0.281998
 11
62.2456
 21
0.141266
  0
LINE
  8
0
 10
62.2456
 20
0.141266
 11
62.25
 21
0
  0
LINE
  8
0
 10
62.25
 20
0
 11
62.2456
 21
-0.141266
  0
LINE
  8
0
 10
62.2456
 20
-0.141266
 11
62.2323
 21
-0.281998
  0
LINE
  8
0
 10
62.2323
 20
-0.281998
 11
62.2101
 21
-0.4216
  0
LINE
  8
0
 10
62.2101
 20
-0.4216
 11
62.1793
 21
-0.55954
  0
LINE
  8
0
 10
62.1793
 20
-0.55954
 11
62.1399
 21
-0.695282
  0
LINE
  8
0
 10
62.1399
 20
-0.695282
 11
62.092
 21
-0.828278
  0
LINE
  8
0
 10
62.092
 20
-0.828278
 11
62.0359
 21
-0.957993
  0
LINE
  8
0
 10
62.0359
 20
-0.957993
 11
61.9717
 21
-1.08394
  0
LINE
  8
0
 10
61.9717
 20
-1.08394
 11
61.8997
 21
-1.2056
  0
LINE
  8
0
 10
61.8997
 20
-1.2056
 11
61.8203
 21
-1.32251
  0
LINE
  8
0
 10
61.8203
 20
-1.32251
 11
61.7336
 21
-1.43419
  0
LINE
  8
0
 10
61.7336
 20
-1.43419
 11
61.6402
 21
-1.54022
  0
LINE
  8
0
 10
61.6402
 20
-1.54022
 11
61.5402
 21
-1.64017
  0
LINE
  8
0
 10
61.5402
 20
-1.64017
 11
61.4342
 21
-1.73364
  0
LINE
  8
0
 10
61.4342
 20
-1.73364
 11
61.3225
 21
-1.82028
  0
LINE
  8
0
 10
61.3225
 20
-1.82028
 11
61.2056
 21
-1.89973
  0
LINE
  8
0
 10
61.2056
 20
-1.89973
 11
61.0839
 21
-1.97168
  0
LINE
  8
0
 10
61.0839
 20
-1.97168
 11
60.958
 21
-2.03586
  0
LINE
  8
0
 10
60.958
 20
-2.03586
 11
60.8283
 21
-2.092
  0
LINE
  8
0
 10
60.8283
 20
-2.092
 11
60.6953
 21
-2.13986
  0
LINE
  8
0
 10
60.6953
 20
-2.13986
 11
60.5595
 21
-2.17931
  0
LINE
  8
0
 10
60.5595
 20
-2.17931
 11
60.4216
 21
-2.21014
  0
LINE
  8
0
 10
60.4216
 20
-2.21014
 11
60.282
 21
-2.23225
  0
LINE
  8
0
 10
60.282
 20
-2.23225
 11
60.1413
 21
-2.24556
  0
LINE
  8
0
 10
60.1413
 20
-2.24556
 11
60
 21
-2.25
  0
LINE
  8
0
 10
60
 20
-2.25
 11
59.8587
 21
-2.24556
  0
LINE
  8
0
 10
74
 20
4
 11
66
 21
4
  0
LINE
  8
0
 10
66
 20
4
 11
66
 21
-4
  0
LINE
  8
0
 10
66
 20
-4
 11
74
 21
-4
  0
LINE
  8
0
 10
74
 20
-4
 11
74
 21
4
  0
LINE
  8
0
 10
69.8587
 20
-2.24556
 11
69.718
 21
-2.23225
  0
LINE
  8
0
 10
69.718
 20
-2.23225
 11
69.5784
 21
-2.21014
  0
LINE
  8
0
 10
69.5784
 20
-2.21014
 11
69.4405
 21
-2.17931
  0
LINE
  8
0
 10
69.4405
 20
-2.17931
 11
69.3047
 21
-2.13986
  0
LINE
  8
0
 10
69.3047
 20
-2.13986
 11
69.1717
 21
-2.092
  0
LINE
  8
0
 10
69.1717
 20
-2.092
 11
69.042
 21
-2.03586
  0
LINE
  8
0
 10
69.042
 20
-2.03586
 11
68.9161
 21
-1.97168
  0
LINE
  8
0
 10
68.9161
 20
-1.97168
 11
68.7944
 21
-1.89973
  0
LINE
  8
0
 10
68.7944
 20
-1.89973
 11
68.6775
 21
-1.82028
  0
LINE
  8
0
 10
68.6775
 20
-1.82028
 11
68.5658
 21
-1.73364
  0
LINE
  8
0
 10
68.5658
 20
-1.73364
 11
68.4598
 21
-1.64017
  0
LINE
  8
0
 10
68.4598
 20
-1.64017
 11
68.3598
 21
-1.54022
  0
LINE
  8
0
 10
68.3598
 20
-1.54022
 11
68.2664
 21
-1.43419
  0
LINE
  8
0
 10
68.2664
 20
-1.43419
 11
68.1797
 21
-1.32251
  0
LINE
  8
0
 10
68.1797
 20
-1.32251
 11
68.1003
 21
-1.2056
  0
LINE
  8
0
 10
68.1003
 20
-1.2056
 11
68.0283
 21
-1.08394
  0
LINE
  8
0
 10
68.0283
 20
-1.08394
 11
67.9641
 21
-0.957993
  0
LINE
  8
0
 10
67.9641
 20
-0.957993
 11
67.908
 21
-0.828278
  0
LINE
  8
0
 10
67.908
 20
-0.828278
 11
67.8601
 21
-0.695282
  0
LINE
  8
0
 10
67.8601
 20
-0.695282
 11
67.8207
 21
-0.55954
  0
LINE
  8
0
 10
67.8207
 20
-0.55954
 11
67.7899
 21
-0.4216
  0
LINE
  8
0
 10
67.7899
 20
-0.4216
 11
67.7677
 21
-0.281998
  0
LINE
  8
0
 10
67.7677
 20
-0.281998
 11
67.7544
 21
-0.141266
  0
LINE
  8
0
 10
67.7544
 20
-0.141266
 11
67.75
 21
0
  0
LINE
  8
0
 10
67.75
 20
0
 11
67.7544
 21
0.141266
  0
LINE
  8
0
 10
67.7544
 20
0.141266
 11
67.7677
 21
0.281998
  0
LINE
  8
0
 10
67.7677
 20
0.281998
 11
67.7899
 21
0.4216
  0
LINE
  8
0
 10
67.7899
 20
0.4216
 11
67.8207
 21
0.55954
  0
LINE
  8
0
 10
67.8207
 20
0.55954
 11
67.8601
 21
0.695282
  0
LINE
  8
0
 10
67.8601
 20
0.695282
 11
67.908
 21
0.828278
  0
LINE
  8
0
 10
67.908
 20
0.828278
 11
67.9641
 21
0.957993
  0
LINE
  8
0
 10
67.9641
 20
0.957993
 11
68.0283
 21
1.08394
  0
LINE
  8
0
 10
68.0283
 20
1.08394
 11
68.1003
 21
1.2056
  0
LINE
  8
0
 10
68.1003
 20
1.2056
 11
68.1797
 21
1.32251
  0
LINE
  8
0
 10
68.1797
 20
1.32251
 11
68.2664
 21
1.43419
  0
LINE
  8
0
 10
68.2664
 20
1.43419
 11
68.3598
 21
1.54022
  0
LINE
  8
0
 10
68.3598
 20
1.54022
 11
68.4598
 21
1.64017
  0
LINE
  8
0
 10
68.4598
 20
1.64017
 11
68.5658
 21
1.73364
  0
LINE
  8
0
 10
68.5658
 20
1.73364
 11
68.6775
 21
1.82028
  0
LINE
  8
0
 10
68.6775
 20
1.82028
 11
68.7944
 21
1.89973
  0
LINE
  8
0
 10
68.7944
 20
1.89973
 11
68.9161
 21
1.97168
  0
LINE
  8
0
 10
68.9161
 20
1.97168
 11
69.042
 21
2.03586
  0
LINE
  8
0
 10
69.042
 20
2.03586
 11
69.1717
 21
2.092
  0
LINE
  8
0
 10
69.1717
 20
2.092
 11
69.3047
 21
2.13986
  0
LINE
  8
0
 10
69.3047
 20
2.13986
 11
69.4405
 21
2.17931
  0
LINE
  8
0
 10
69.4405
 20
2.17931
 11
69.5784
 21
2.21014
  0
LINE
  8
0
 10
69.5784
 20
2.21014
 11
69.718
 21
2.23225
  0
LINE
  8
0
 10
69.718
 20
2.23225
 11
69.8587
 21
2.24556
  0
LINE
  8
0
 10
69.8587
 20
2.24556
 11
70
 21
2.25
  0
LINE
  8
0
 10
70
 20
2.25
 11
70.1413
 21
2.24556
  0
LINE
  8
0
 10
70.1413
 20
2.24556
 11
70.282
 21
2.23225
  0
LINE
  8
0
 10
70.282
 20
2.23225
 11
70.4216
 21
2.21014
  0
LINE
  8
0
 10
70.4216
 20
2.21014
 11
70.5595
 21
2.17931
  0
LINE
  8
0
 10
70.5595
 20
2.17931
 11
70.6953
 21
2.13986
  0
LINE
  8
0
 10
70.6953
 20
2.13986
 11
70.8283
 21
2.092
  0
LINE
  8
0
 10
70.8283
 20
2.092
 11
70.958
 21
2.03586
  0
LINE
  8
0
 10
70.958
 20
2.03586
 11
71.0839
 21
1.97168
  0
LINE
  8
0
 10
71.0839
 20
1.97168
 11
71.2056
 21
1.89973
  0
LINE
  8
0
 10
71.2056
 20
1.89973
 11
71.3225
 21
1.82028
  0
LINE
  8
0
 10
71.3225
 20
1.82028
 11
71.4342
 21
1.73364
  0
LINE
  8
0
 10
71.4342
 20
1.73364
 11
71.5402
 21
1.64017
  0
LINE
  8
0
 10
71.5402
 20
1.64017
 11
71.6402
 21
1.54022
  0
LINE
  8
0
 10
71.6402
 20
1.54022
 11
71.7336
 21
1.43419
  0
LINE
  8
0
 10
71.7336
 20
1.43419
 11
71.8203
 21
1.32251
  0
LINE
  8
0
 10
71.8203
 20
1.32251
 11
71.8997
 21
1.2056
  0
LINE
  8
0
 10
71.8997
 20
1.2056
 11
71.9717
 21
1.08394
  0
LINE
  8
0
 10
71.9717
 20
1.08394
 11
72.0359
 21
0.957993
  0
LINE
  8
0
 10
72.0359
 20
0.957993
 11
72.092
 21
0.828278
  0
LINE
  8
0
 10
72.092
 20
0.828278
 11
72.1399
 21
0.695282
  0
LINE
  8
0
 10
72.1399
 20
0.695282
 11
72.1793
 21
0.55954
  0
LINE
  8
0
 10
72.1793
 20
0.55954
 11
72.2101
 21
0.4216
  0
LINE
  8
0
 10
72.2101
 20
0.4216
 11
72.2323
 21
0.281998
  0
LINE
  8
0
 10
72.2323
 20
0.281998
 11
72.2456
 21
0.141266
  0
LINE
  8
0
 10
72.2456
 20
0.141266
 11
72.25
 21
0
  0
LINE
  8
0
 10
72.25
 20
0
 11
72.2456
 21
-0.141266
  0
LINE
  8
0
 10
72.2456
 20
-0.141266
 11
72.2323
 21
-0.281998
  0
LINE
  8
0
 10
72.2323
 20
-0.281998
 11
72.2101
 21
-0.4216
  0
LINE
  8
0
 10
72.2101
 20
-0.4216
 11
72.1793
 21
-0.55954
  0
LINE
  8
0
 10
72.1793
 20
-0.55954
 11
72.1399
 21
-0.695282
  0
LINE
  8
0
 10
72.1399
 20
-0.695282
 11
72.092
 21
-0.828278
  0
LINE
  8
0
 10
72.092
 20
-0.828278
 11
72.0359
 21
-0.957993
  0
LINE
  8
0
 10
72.0359
 20
-0.957993
 11
71.9717
 21
-1.08394
  0
LINE
  8
0
 10
71.9717
 20
-1.08394
 11
71.8997
 21
-1.2056
  0
LINE
  8
0
 10
71.8997
 20
-1.2056
 11
71.8203
 21
-1.32251
  0
LINE
  8
0
 10
71.8203
 20
-1.32251
 11
71.7336
 21
-1.43419
  0
LINE
  8
0
 10
71.7336
 20
-1.43419
 11
71.6402
 21
-1.54022
  0
LINE
  8
0
 10
71.6402
 20
-1.54022
 11
71.5402
 21
-1.64017
  0
LINE
  8
0
 10
71.5402
 20
-1.64017
 11
71.4342
 21
-1.73364
  0
LINE
  8
0
 10
71.4342
 20
-1.73364
 11
71.3225
 21
-1.82028
  0
LINE
  8
0
 10
71.3225
 20
-1.82028
 11
71.2056
 21
-1.89973
  0
LINE
  8
0
 10
71.2056
 20
-1.89973
 11
71.0839
 21
-1.97168
  0
LINE
  8
0
 10
71.0839
 20
-1.97168
 11
70.958
 21
-2.03586
  0
LINE
  8
0
 10
70.958
 20
-2.03586
 11
70.8283
 21
-2.092
  0
LINE
  8
0
 10
70.8283
 20
-2.092
 11
70.6953
 21
-2.13986
  0
LINE
  8
0
 10
70.6953
 20
-2.13986
 11
70.5595
 21
-2.17931
  0
LINE
  8
0
 10
70.5595
 20
-2.17931
 11
70.4216
 21
-2.21014
  0
LINE
  8
0
 10
70.4216
 20
-2.21014
 11
70.282
 21
-2.23225
  0
LINE
  8
0
 10
70.282
 20
-2.23225
 11
70.1413
 21
-2.24556
  0
LINE
  8
0
 10
70.1413
 20
-2.24556
 11
70
 21
-2.25
  0
LINE
  8
0
 10
70
 20
-2.25
 11
69.8587
 21
-2.24556
  0
ENDSEC
  0
SECTION
  2
OBJECTS
  0
DICTIONARY
  0
ENDSEC
  0
EOF
