  0
SECTION
  2
HEADER
  9
$ACADVER
  1
AC1009
  9
$DWGCODEPAGE
  3
ANSI_1252
  9
$INSBASE
 10
0.0
 20
0.0
 30
0.0
  9
$EXTMIN
 10
1e+20
 20
1e+20
 30
1e+20
  9
$EXTMAX
 10
-1e+20
 20
-1e+20
 30
-1e+20
  9
$LIMMIN
 10
0.0
 20
0.0
  9
$LIMMAX
 10
420.0
 20
297.0
  9
$ORTHOMODE
 70
0
  9
$REGENMODE
 70
1
  9
$FILLMODE
 70
1
  9
$DRAGMODE
 70
2
  9
$QTEXTMODE
 70
0
  9
$MIRRTEXT
 70
1
  9
$OSMODE
 70
20583
  9
$LTSCALE
 40
1.0
  9
$ATTMODE
 70
1
  9
$TEXTSIZE
 40
2.5
  9
$TRACEWID
 40
1.0
  9
$TEXTSTYLE
  7
Standard
  9
$CLAYER
  8
0
  9
$CELTYPE
  6
ByLayer
  9
$CECOLOR
 62
256
  9
$DIMSCALE
 40
1.0
  9
$DIMASZ
 40
2.5
  9
$DIMEXO
 40
0.625
  9
$DIMDLI
 40
3.75
  9
$DIMRND
 40
0.0
  9
$DIMDLE
 40
0.0
  9
$DIMEXE
 40
1.25
  9
$DIMTP
 40
0.0
  9
$DIMTM
 40
0.0
  9
$DIMTXT
 40
2.5
  9
$DIMCEN
 40
2.5
  9
$DIMTSZ
 40
0.0
  9
$DIMTOL
 70
0
  9
$DIMLIM
 70
0
  9
$DIMTIH
 70
0
  9
$DIMTOH
 70
0
  9
$DIMSE1
 70
0
  9
$DIMSE2
 70
0
  9
$DIMTAD
 70
1
  9
$DIMZIN
 70
8
  9
$DIMBLK
  1

  9
$DIMASO
 70
1
  9
$DIMSHO
 70
1
  9
$DIMPOST
  1

  9
$DIMAPOST
  1

  9
$DIMALT
 70
0
  9
$DIMALTD
 70
3
  9
$DIMALTF
 40
0.03937007874
  9
$DIMLFAC
 40
1.0
  9
$DIMTOFL
 70
1
  9
$DIMTVP
 40
0.0
  9
$DIMTIX
 70
0
  9
$DIMSOXD
 70
0
  9
$DIMSAH
 70
0
  9
$DIMBLK1
  1

  9
$DIMBLK2
  1

  9
$DIMSTYLE
  2
ISO-25
  9
$DIMCLRD
 70
0
  9
$DIMCLRE
 70
0
  9
$DIMCLRT
 70
0
  9
$DIMTFAC
 40
1.0
  9
$DIMGAP
 40
0.625
  9
$COORDS
 70
1
  9
$ATTDIA
 70
0
  9
$ATTREQ
 70
1
  9
$HANDLING
 70
1
  9
$LUNITS
 70
2
  9
$LUPREC
 70
4
  9
$SKETCHINC
 40
1.0
  9
$FILLETRAD
 40
10.0
  9
$AUNITS
 70
0
  9
$AUPREC
 70
2
  9
$MENU
  1
.
  9
$ELEVATION
 40
0.0
  9
$PELEVATION
 40
0.0
  9
$THICKNESS
 40
0.0
  9
$LIMCHECK
 70
0
  9
$CHAMFERA
 40
0.0
  9
$CHAMFERB
 40
0.0
  9
$SKPOLY
 70
0
  9
$TDCREATE
 40
2461278.4987615743
  9
$TDUPDATE
 40
2461278.4987615743
  9
$TDINDWG
 40
0.0
  9
$TDUSRTIMER
 40
0.0
  9
$USRTIMER
 70
1
  9
$ANGBASE
 50
0.0
  9
$ANGDIR
 70
0
  9
$PDMODE
 70
0
  9
$PDSIZE
 40
0.0
  9
$PLINEWID
 40
0.0
  9
$SPLFRAME
 70
0
  9
$SPLINETYPE
 70
6
  9
$SPLINESEGS
 70
8
  9
$HANDSEED
  5
477
  9
$SURFTAB1
 70
6
  9
$SURFTAB2
 70
6
  9
$SURFTYPE
 70
6
  9
$SURFU
 70
6
  9
$SURFV
 70
6
  9
$UCSNAME
  2

  9
$UCSORG
 10
0.0
 20
0.0
 30
0.0
  9
$UCSXDIR
 10
1.0
 20
0.0
 30
0.0
  9
$UCSYDIR
 10
0.0
 20
1.0
 30
0.0
  9
$PUCSNAME
  2

  9
$PUCSORG
 10
0.0
 20
0.0
 30
0.0
  9
$PUCSXDIR
 10
1.0
 20
0.0
 30
0.0
  9
$PUCSYDIR
 10
0.0
 20
1.0
 30
0.0
  9
$USERI1
 70
0
  9
$USERI2
 70
0
  9
$USERI3
 70
0
  9
$USERI4
 70
0
  9
$USERI5
 70
0
  9
$USERR1
 40
0.0
  9
$USERR2
 40
0.0
  9
$USERR3
 40
0.0
  9
$USERR4
 40
0.0
  9
$USERR5
 40
0.0
  9
$WORLDVIEW
 70
1
  9
$SHADEDGE
 70
3
  9
$SHADEDIF
 70
70
  9
$TILEMODE
 70
1
  9
$MAXACTVP
 70
64
  9
$PLIMCHECK
 70
0
  9
$PEXTMIN
 10
1e+20
 20
1e+20
 30
1e+20
  9
$PEXTMAX
 10
-1e+20
 20
-1e+20
 30
-1e+20
  9
$PLIMMIN
 10
0.0
 20
0.0
  9
$PLIMMAX
 10
420.0
 20
297.0
  9
$UNITMODE
 70
0
  9
$VISRETAIN
 70
1
  9
$PLINEGEN
 70
0
  9
$PSLTSCALE
 70
1
  0
ENDSEC
  0
SECTION
  2
TABLES
  0
TABLE
  2
VPORT
 70
1
  0
VPORT
  5
46B
  2
*Active
 70
0
 10
0.0
 20
0.0
 11
1.0
 21
1.0
 12
0.0
 22
0.0
 13
0.0
 23
0.0
 14
0.5
 24
0.5
 15
0.5
 25
0.5
 16
0.0
 26
0.0
 36
1.0
 17
0.0
 27
0.0
 37
0.0
 40
1000.0
 41
1.34
 42
50.0
 43
0.0
 44
0.0
 50
0.0
 51
0.0
 71
0
 72
1000
 73
1
 74
3
 75
0
 76
0
 77
0
 78
0
  0
ENDTAB
  0
TABLE
  2
LTYPE
 70
3
  0
LTYPE
  5
46C
  2
ByBlock
 70
0
  3

 72
65
 73
0
 40
0.0
  0
LTYPE
  5
46D
  2
ByLayer
 70
0
  3

 72
65
 73
0
 40
0.0
  0
LTYPE
  5
46E
  2
Continuous
 70
0
  3

 72
65
 73
0
 40
0.0
  0
ENDTAB
  0
TABLE
  2
LAYER
 70
2
  0
LAYER
  5
46F
  2
0
 70
0
 62
1
  6
Continuous
  0
LAYER
  5
470
  2
Defpoints
 70
0
 62
7
  6
Continuous
  0
ENDTAB
  0
TABLE
  2
STYLE
 70
1
  0
STYLE
  5
471
  2
Standard
 70
0
 40
0.0
 41
1.0
 50
0.0
 71
0
 42
2.5
  3
txt
  4

  0
ENDTAB
  0
TABLE
  2
VIEW
 70
0
  0
ENDTAB
  0
TABLE
  2
UCS
 70
0
  0
ENDTAB
  0
TABLE
  2
APPID
 70
3
  0
APPID
  5
472
  2
ACAD
 70
0
  0
APPID
  5
475
  2
HATCHBACKGROUNDCOLOR
 70
0
  0
APPID
  5
476
  2
EZDXF
 70
0
  0
ENDTAB
  0
TABLE
  2
DIMSTYLE
 70
1
  0
DIMSTYLE
105
473
  2
Standard
 70
0
  3

  4

  5

  6

  7

 40
1.0
 41
2.5
 42
0.625
 43
3.75
 44
1.25
 45
0.0
 46
0.0
 47
0.0
 48
0.0
140
2.5
141
2.5
142
0.0
143
0.03937007874
144
1.0
145
0.0
146
1.0
147
0.625
 71
0
 72
0
 73
0
 74
0
 75
0
 76
0
 77
1
 78
8
170
0
171
3
172
1
173
0
174
0
175
0
176
0
177
0
178
0
  0
ENDTAB
  0
ENDSEC
  0
SECTION
  2
BLOCKS
  0
BLOCK
  5
44C
  8
0
  2
$Model_Space
 70
0
 10
0.0
 20
0.0
 30
0.0
  3
$Model_Space
  1

1001
EZDXF
1000
WRITTEN_BY_EZDXF
1000
1.4.4 @ 2026-08-25T15:58:13.240877+00:00
  0
ENDBLK
  5
44D
  8
0
  0
BLOCK
  5
44E
  8
0
  2
$Paper_Space
 70
0
 10
0.0
 20
0.0
 30
0.0
  3
$Paper_Space
  1

  0
ENDBLK
  5
44F
  8
0
  0
ENDSEC
  0
SECTION
  2
ENTITIES
  0
LINE
  5
100
  8
0
 62
1
 10
4.0
 20
4.0
 30
0.0
 11
-4.0
 21
4.0
 31
0.0
  0
LINE
  5
101
  8
0
 62
1
 10
-4.0
 20
4.0
 30
0.0
 11
-4.0
 21
-4.0
 31
0.0
  0
LINE
  5
102
  8
0
 62
1
 10
-4.0
 20
-4.0
 30
0.0
 11
4.0
 21
-4.0
 31
0.0
  0
LINE
  5
103
  8
0
 62
1
 10
4.0
 20
-4.0
 30
0.0
 11
4.0
 21
4.0
 31
0.0
  0
LINE
  5
104
  8
0
 62
1
 10
-0.141266
 20
-2.24556
 30
0.0
 11
-0.281998
 21
-2.23225
 31
0.0
  0
LINE
  5
105
  8
0
 62
1
 10
-0.281998
 20
-2.23225
 30
0.0
 11
-0.4216
 21
-2.21014
 31
0.0
  0
LINE
  5
106
  8
0
 62
1
 10
-0.4216
 20
-2.21014
 30
0.0
 11
-0.55954
 21
-2.17931
 31
0.0
  0
LINE
  5
107
  8
0
 62
1
 10
-0.55954
 20
-2.17931
 30
0.0
 11
-0.695282
 21
-2.13986
 31
0.0
  0
LINE
  5
108
  8
0
 62
1
 10
-0.695282
 20
-2.13986
 30
0.0
 11
-0.828278
 21
-2.092
 31
0.0
  0
LINE
  5
109
  8
0
 62
1
 10
-0.828278
 20
-2.092
 30
0.0
 11
-0.957993
 21
-2.03586
 31
0.0
  0
LINE
  5
10A
  8
0
 62
1
 10
-0.957993
 20
-2.03586
 30
0.0
 11
-1.08394
 21
-1.97168
 31
0.0
  0
LINE
  5
10B
  8
0
 62
1
 10
-1.08394
 20
-1.97168
 30
0.0
 11
-1.2056
 21
-1.89973
 31
0.0
  0
LINE
  5
10C
  8
0
 62
1
 10
-1.2056
 20
-1.89973
 30
0.0
 11
-1.32251
 21
-1.82028
 31
0.0
  0
LINE
  5
10D
  8
0
 62
1
 10
-1.32251
 20
-1.82028
 30
0.0
 11
-1.43419
 21
-1.73364
 31
0.0
  0
LINE
  5
10E
  8
0
 62
1
 10
-1.43419
 20
-1.73364
 30
0.0
 11
-1.54022
 21
-1.64017
 31
0.0
  0
LINE
  5
10F
  8
0
 62
1
 10
-1.54022
 20
-1.64017
 30
0.0
 11
-1.64017
 21
-1.54022
 31
0.0
  0
LINE
  5
110
  8
0
 62
1
 10
-1.64017
 20
-1.54022
 30
0.0
 11
-1.73364
 21
-1.43419
 31
0.0
  0
LINE
  5
111
  8
0
 62
1
 10
-1.73364
 20
-1.43419
 30
0.0
 11
-1.82028
 21
-1.32251
 31
0.0
  0
LINE
  5
112
  8
0
 62
1
 10
-1.82028
 20
-1.32251
 30
0.0
 11
-1.89973
 21
-1.2056
 31
0.0
  0
LINE
  5
113
  8
0
 62
1
 10
-1.89973
 20
-1.2056
 30
0.0
 11
-1.97168
 21
-1.08394
 31
0.0
  0
LINE
  5
114
  8
0
 62
1
 10
-1.97168
 20
-1.08394
 30
0.0
 11
-2.03586
 21
-0.957993
 31
0.0
  0
LINE
  5
115
  8
0
 62
1
 10
-2.03586
 20
-0.957993
 30
0.0
 11
-2.092
 21
-0.828278
 31
0.0
  0
LINE
  5
116
  8
0
 62
1
 10
-2.092
 20
-0.828278
 30
0.0
 11
-2.13986
 21
-0.695282
 31
0.0
  0
LINE
  5
117
  8
0
 62
1
 10
-2.13986
 20
-0.695282
 30
0.0
 11
-2.17931
 21
-0.55954
 31
0.0
  0
LINE
  5
118
  8
0
 62
1
 10
-2.17931
 20
-0.55954
 30
0.0
 11
-2.21014
 21
-0.4216
 31
0.0
  0
LINE
  5
119
  8
0
 62
1
 10
-2.21014
 20
-0.4216
 30
0.0
 11
-2.23225
 21
-0.281998
 31
0.0
  0
LINE
  5
11A
  8
0
 62
1
 10
-2.23225
 20
-0.281998
 30
0.0
 11
-2.24556
 21
-0.141266
 31
0.0
  0
LINE
  5
11B
  8
0
 62
1
 10
-2.24556
 20
-0.141266
 30
0.0
 11
-2.25
 21
0.0
 31
0.0
  0
LINE
  5
11C
  8
0
 62
1
 10
-2.25
 20
0.0
 30
0.0
 11
-2.24556
 21
0.141266
 31
0.0
  0
LINE
  5
11D
  8
0
 62
1
 10
-2.24556
 20
0.141266
 30
0.0
 11
-2.23225
 21
0.281998
 31
0.0
  0
LINE
  5
11E
  8
0
 62
1
 10
-2.23225
 20
0.281998
 30
0.0
 11
-2.21014
 21
0.4216
 31
0.0
  0
LINE
  5
11F
  8
0
 62
1
 10
-2.21014
 20
0.4216
 30
0.0
 11
-2.17931
 21
0.55954
 31
0.0
  0
LINE
  5
120
  8
0
 62
1
 10
-2.17931
 20
0.55954
 30
0.0
 11
-2.13986
 21
0.695282
 31
0.0
  0
LINE
  5
121
  8
0
 62
1
 10
-2.13986
 20
0.695282
 30
0.0
 11
-2.092
 21
0.828278
 31
0.0
  0
LINE
  5
122
  8
0
 62
1
 10
-2.092
 20
0.828278
 30
0.0
 11
-2.03586
 21
0.957993
 31
0.0
  0
LINE
  5
123
  8
0
 62
1
 10
-2.03586
 20
0.957993
 30
0.0
 11
-1.97168
 21
1.08394
 31
0.0
  0
LINE
  5
124
  8
0
 62
1
 10
-1.97168
 20
1.08394
 30
0.0
 11
-1.89973
 21
1.2056
 31
0.0
  0
LINE
  5
125
  8
0
 62
1
 10
-1.89973
 20
1.2056
 30
0.0
 11
-1.82028
 21
1.32251
 31
0.0
  0
LINE
  5
126
  8
0
 62
1
 10
-1.82028
 20
1.32251
 30
0.0
 11
-1.73364
 21
1.43419
 31
0.0
  0
LINE
  5
127
  8
0
 62
1
 10
-1.73364
 20
1.43419
 30
0.0
 11
-1.64017
 21
1.54022
 31
0.0
  0
LINE
  5
128
  8
0
 62
1
 10
-1.64017
 20
1.54022
 30
0.0
 11
-1.54022
 21
1.64017
 31
0.0
  0
LINE
  5
129
  8
0
 62
1
 10
-1.54022
 20
1.64017
 30
0.0
 11
-1.43419
 21
1.73364
 31
0.0
  0
LINE
  5
12A
  8
0
 62
1
 10
-1.43419
 20
1.73364
 30
0.0
 11
-1.32251
 21
1.82028
 31
0.0
  0
LINE
  5
12B
  8
0
 62
1
 10
-1.32251
 20
1.82028
 30
0.0
 11
-1.2056
 21
1.89973
 31
0.0
  0
LINE
  5
12C
  8
0
 62
1
 10
-1.2056
 20
1.89973
 30
0.0
 11
-1.08394
 21
1.97168
 31
0.0
  0
LINE
  5
12D
  8
0
 62
1
 10
-1.08394
 20
1.97168
 30
0.0
 11
-0.957993
 21
2.03586
 31
0.0
  0
LINE
  5
12E
  8
0
 62
1
 10
-0.957993
 20
2.03586
 30
0.0
 11
-0.828278
 21
2.092
 31
0.0
  0
LINE
  5
12F
  8
0
 62
1
 10
-0.828278
 20
2.092
 30
0.0
 11
-0.695282
 21
2.13986
 31
0.0
  0
LINE
  5
130
  8
0
 62
1
 10
-0.695282
 20
2.13986
 30
0.0
 11
-0.55954
 21
2.17931
 31
0.0
  0
LINE
  5
131
  8
0
 62
1
 10
-0.55954
 20
2.17931
 30
0.0
 11
-0.4216
 21
2.21014
 31
0.0
  0
LINE
  5
132
  8
0
 62
1
 10
-0.4216
 20
2.21014
 30
0.0
 11
-0.281998
 21
2.23225
 31
0.0
  0
LINE
  5
133
  8
0
 62
1
 10
-0.281998
 20
2.23225
 30
0.0
 11
-0.141266
 21
2.24556
 31
0.0
  0
LINE
  5
134
  8
0
 62
1
 10
-0.141266
 20
2.24556
 30
0.0
 11
0.0
 21
2.25
 31
0.0
  0
LINE
  5
135
  8
0
 62
1
 10
0.0
 20
2.25
 30
0.0
 11
0.141266
 21
2.24556
 31
0.0
  0
LINE
  5
136
  8
0
 62
1
 10
0.141266
 20
2.24556
 30
0.0
 11
0.281998
 21
2.23225
 31
0.0
  0
LINE
  5
137
  8
0
 62
1
 10
0.281998
 20
2.23225
 30
0.0
 11
0.4216
 21
2.21014
 31
0.0
  0
LINE
  5
138
  8
0
 62
1
 10
0.4216
 20
2.21014
 30
0.0
 11
0.55954
 21
2.17931
 31
0.0
  0
LINE
  5
139
  8
0
 62
1
 10
0.55954
 20
2.17931
 30
0.0
 11
0.695282
 21
2.13986
 31
0.0
  0
LINE
  5
13A
  8
0
 62
1
 10
0.695282
 20
2.13986
 30
0.0
 11
0.828278
 21
2.092
 31
0.0
  0
LINE
  5
13B
  8
0
 62
1
 10
0.828278
 20
2.092
 30
0.0
 11
0.957993
 21
2.03586
 31
0.0
  0
LINE
  5
13C
  8
0
 62
1
 10
0.957993
 20
2.03586
 30
0.0
 11
1.08394
 21
1.97168
 31
0.0
  0
LINE
  5
13D
  8
0
 62
1
 10
1.08394
 20
1.97168
 30
0.0
 11
1.2056
 21
1.89973
 31
0.0
  0
LINE
  5
13E
  8
0
 62
1
 10
1.2056
 20
1.89973
 30
0.0
 11
1.32251
 21
1.82028
 31
0.0
  0
LINE
  5
13F
  8
0
 62
1
 10
1.32251
 20
1.82028
 30
0.0
 11
1.43419
 21
1.73364
 31
0.0
  0
LINE
  5
140
  8
0
 62
1
 10
1.43419
 20
1.73364
 30
0.0
 11
1.54022
 21
1.64017
 31
0.0
  0
LINE
  5
141
  8
0
 62
1
 10
1.54022
 20
1.64017
 30
0.0
 11
1.64017
 21
1.54022
 31
0.0
  0
LINE
  5
142
  8
0
 62
1
 10
1.64017
 20
1.54022
 30
0.0
 11
1.73364
 21
1.43419
 31
0.0
  0
LINE
  5
143
  8
0
 62
1
 10
1.73364
 20
1.43419
 30
0.0
 11
1.82028
 21
1.32251
 31
0.0
  0
LINE
  5
144
  8
0
 62
1
 10
1.82028
 20
1.32251
 30
0.0
 11
1.89973
 21
1.2056
 31
0.0
  0
LINE
  5
145
  8
0
 62
1
 10
1.89973
 20
1.2056
 30
0.0
 11
1.97168
 21
1.08394
 31
0.0
  0
LINE
  5
146
  8
0
 62
1
 10
1.97168
 20
1.08394
 30
0.0
 11
2.03586
 21
0.957993
 31
0.0
  0
LINE
  5
147
  8
0
 62
1
 10
2.03586
 20
0.957993
 30
0.0
 11
2.092
 21
0.828278
 31
0.0
  0
LINE
  5
148
  8
0
 62
1
 10
2.092
 20
0.828278
 30
0.0
 11
2.13986
 21
0.695282
 31
0.0
  0
LINE
  5
149
  8
0
 62
1
 10
2.13986
 20
0.695282
 30
0.0
 11
2.17931
 21
0.55954
 31
0.0
  0
LINE
  5
14A
  8
0
 62
1
 10
2.17931
 20
0.55954
 30
0.0
 11
2.21014
 21
0.4216
 31
0.0
  0
LINE
  5
14B
  8
0
 62
1
 10
2.21014
 20
0.4216
 30
0.0
 11
2.23225
 21
0.281998
 31
0.0
  0
LINE
  5
14C
  8
0
 62
1
 10
2.23225
 20
0.281998
 30
0.0
 11
2.24556
 21
0.141266
 31
0.0
  0
LINE
  5
14D
  8
0
 62
1
 10
2.24556
 20
0.141266
 30
0.0
 11
2.25
 21
0.0
 31
0.0
  0
LINE
  5
14E
  8
0
 62
1
 10
2.25
 20
0.0
 30
0.0
 11
2.24556
 21
-0.141266
 31
0.0
  0
LINE
  5
14F
  8
0
 62
1
 10
2.24556
 20
-0.141266
 30
0.0
 11
2.23225
 21
-0.281998
 31
0.0
  0
LINE
  5
150
  8
0
 62
1
 10
2.23225
 20
-0.281998
 30
0.0
 11
2.21014
 21
-0.4216
 31
0.0
  0
LINE
  5
151
  8
0
 62
1
 10
2.21014
 20
-0.4216
 30
0.0
 11
2.17931
 21
-0.55954
 31
0.0
  0
LINE
  5
152
  8
0
 62
1
 10
2.17931
 20
-0.55954
 30
0.0
 11
2.13986
 21
-0.695282
 31
0.0
  0
LINE
  5
153
  8
0
 62
1
 10
2.13986
 20
-0.695282
 30
0.0
 11
2.092
 21
-0.828278
 31
0.0
  0
LINE
  5
154
  8
0
 62
1
 10
2.092
 20
-0.828278
 30
0.0
 11
2.03586
 21
-0.957993
 31
0.0
  0
LINE
  5
155
  8
0
 62
1
 10
2.03586
 20
-0.957993
 30
0.0
 11
1.97168
 21
-1.08394
 31
0.0
  0
LINE
  5
156
  8
0
 62
1
 10
1.97168
 20
-1.08394
 30
0.0
 11
1.89973
 21
-1.2056
 31
0.0
  0
LINE
  5
157
  8
0
 62
1
 10
1.89973
 20
-1.2056
 30
0.0
 11
1.82028
 21
-1.32251
 31
0.0
  0
LINE
  5
158
  8
0
 62
1
 10
1.82028
 20
-1.32251
 30
0.0
 11
1.73364
 21
-1.43419
 31
0.0
  0
LINE
  5
159
  8
0
 62
1
 10
1.73364
 20
-1.43419
 30
0.0
 11
1.64017
 21
-1.54022
 31
0.0
  0
LINE
  5
15A
  8
0
 62
1
 10
1.64017
 20
-1.54022
 30
0.0
 11
1.54022
 21
-1.64017
 31
0.0
  0
LINE
  5
15B
  8
0
 62
1
 10
1.54022
 20
-1.64017
 30
0.0
 11
1.43419
 21
-1.73364
 31
0.0
  0
LINE
  5
15C
  8
0
 62
1
 10
1.43419
 20
-1.73364
 30
0.0
 11
1.32251
 21
-1.82028
 31
0.0
  0
LINE
  5
15D
  8
0
 62
1
 10
1.32251
 20
-1.82028
 30
0.0
 11
1.2056
 21
-1.89973
 31
0.0
  0
LINE
  5
15E
  8
0
 62
1
 10
1.2056
 20
-1.89973
 30
0.0
 11
1.08394
 21
-1.97168
 31
0.0
  0
LINE
  5
15F
  8
0
 62
1
 10
1.08394
 20
-1.97168
 30
0.0
 11
0.957993
 21
-2.03586
 31
0.0
  0
LINE
  5
160
  8
0
 62
1
 10
0.957993
 20
-2.03586
 30
0.0
 11
0.828278
 21
-2.092
 31
0.0
  0
LINE
  5
161
  8
0
 62
1
 10
0.828278
 20
-2.092
 30
0.0
 11
0.695282
 21
-2.13986
 31
0.0
  0
LINE
  5
162
  8
0
 62
1
 10
0.695282
 20
-2.13986
 30
0.0
 11
0.55954
 21
-2.17931
 31
0.0
  0
LINE
  5
163
  8
0
 62
1
 10
0.55954
 20
-2.17931
 30
0.0
 11
0.4216
 21
-2.21014
 31
0.0
  0
LINE
  5
164
  8
0
 62
1
 10
0.4216
 20
-2.21014
 30
0.0
 11
0.281998
 21
-2.23225
 31
0.0
  0
LINE
  5
165
  8
0
 62
1
 10
0.281998
 20
-2.23225
 30
0.0
 11
0.141266
 21
-2.24556
 31
0.0
  0
LINE
  5
166
  8
0
 62
1
 10
0.141266
 20
-2.24556
 30
0.0
 11
0.0
 21
-2.25
 31
0.0
  0
LINE
  5
167
  8
0
 62
1
 10
0.0
 20
-2.25
 30
0.0
 11
-0.141266
 21
-2.24556
 31
0.0
  0
LINE
  5
168
  8
0
 62
1
 10
14.0
 20
4.0
 30
0.0
 11
6.0
 21
4.0
 31
0.0
  0
LINE
  5
169
  8
0
 62
1
 10
6.0
 20
4.0
 30
0.0
 11
6.0
 21
-4.0
 31
0.0
  0
LINE
  5
16A
  8
0
 62
1
 10
6.0
 20
-4.0
 30
0.0
 11
14.0
 21
-4.0
 31
0.0
  0
LINE
  5
16B
  8
0
 62
1
 10
14.0
 20
-4.0
 30
0.0
 11
14.0
 21
4.0
 31
0.0
  0
LINE
  5
16C
  8
0
 62
1
 10
9.85873
 20
-2.24556
 30
0.0
 11
9.718
 21
-2.23225
 31
0.0
  0
LINE
  5
16D
  8
0
 62
1
 10
9.718
 20
-2.23225
 30
0.0
 11
9.5784
 21
-2.21014
 31
0.0
  0
LINE
  5
16E
  8
0
 62
1
 10
9.5784
 20
-2.21014
 30
0.0
 11
9.44046
 21
-2.17931
 31
0.0
  0
LINE
  5
16F
  8
0
 62
1
 10
9.44046
 20
-2.17931
 30
0.0
 11
9.30472
 21
-2.13986
 31
0.0
  0
LINE
  5
170
  8
0
 62
1
 10
9.30472
 20
-2.13986
 30
0.0
 11
9.17172
 21
-2.092
 31
0.0
  0
LINE
  5
171
  8
0
 62
1
 10
9.17172
 20
-2.092
 30
0.0
 11
9.04201
 21
-2.03586
 31
0.0
  0
LINE
  5
172
  8
0
 62
1
 10
9.04201
 20
-2.03586
 30
0.0
 11
8.91606
 21
-1.97168
 31
0.0
  0
LINE
  5
173
  8
0
 62
1
 10
8.91606
 20
-1.97168
 30
0.0
 11
8.7944
 21
-1.89973
 31
0.0
  0
LINE
  5
174
  8
0
 62
1
 10
8.7944
 20
-1.89973
 30
0.0
 11
8.67749
 21
-1.82028
 31
0.0
  0
LINE
  5
175
  8
0
 62
1
 10
8.67749
 20
-1.82028
 30
0.0
 11
8.56581
 21
-1.73364
 31
0.0
  0
LINE
  5
176
  8
0
 62
1
 10
8.56581
 20
-1.73364
 30
0.0
 11
8.45978
 21
-1.64017
 31
0.0
  0
LINE
  5
177
  8
0
 62
1
 10
8.45978
 20
-1.64017
 30
0.0
 11
8.35983
 21
-1.54022
 31
0.0
  0
LINE
  5
178
  8
0
 62
1
 10
8.35983
 20
-1.54022
 30
0.0
 11
8.26636
 21
-1.43419
 31
0.0
  0
LINE
  5
179
  8
0
 62
1
 10
8.26636
 20
-1.43419
 30
0.0
 11
8.17972
 21
-1.32251
 31
0.0
  0
LINE
  5
17A
  8
0
 62
1
 10
8.17972
 20
-1.32251
 30
0.0
 11
8.10027
 21
-1.2056
 31
0.0
  0
LINE
  5
17B
  8
0
 62
1
 10
8.10027
 20
-1.2056
 30
0.0
 11
8.02832
 21
-1.08394
 31
0.0
  0
LINE
  5
17C
  8
0
 62
1
 10
8.02832
 20
-1.08394
 30
0.0
 11
7.96414
 21
-0.957993
 31
0.0
  0
LINE
  5
17D
  8
0
 62
1
 10
7.96414
 20
-0.957993
 30
0.0
 11
7.908
 21
-0.828278
 31
0.0
  0
LINE
  5
17E
  8
0
 62
1
 10
7.908
 20
-0.828278
 30
0.0
 11
7.86014
 21
-0.695282
 31
0.0
  0
LINE
  5
17F
  8
0
 62
1
 10
7.86014
 20
-0.695282
 30
0.0
 11
7.82069
 21
-0.55954
 31
0.0
  0
LINE
  5
180
  8
0
 62
1
 10
7.82069
 20
-0.55954
 30
0.0
 11
7.78986
 21
-0.4216
 31
0.0
  0
LINE
  5
181
  8
0
 62
1
 10
7.78986
 20
-0.4216
 30
0.0
 11
7.76775
 21
-0.281998
 31
0.0
  0
LINE
  5
182
  8
0
 62
1
 10
7.76775
 20
-0.281998
 30
0.0
 11
7.75444
 21
-0.141266
 31
0.0
  0
LINE
  5
183
  8
0
 62
1
 10
7.75444
 20
-0.141266
 30
0.0
 11
7.75
 21
0.0
 31
0.0
  0
LINE
  5
184
  8
0
 62
1
 10
7.75
 20
0.0
 30
0.0
 11
7.75444
 21
0.141266
 31
0.0
  0
LINE
  5
185
  8
0
 62
1
 10
7.75444
 20
0.141266
 30
0.0
 11
7.76775
 21
0.281998
 31
0.0
  0
LINE
  5
186
  8
0
 62
1
 10
7.76775
 20
0.281998
 30
0.0
 11
7.78986
 21
0.4216
 31
0.0
  0
LINE
  5
187
  8
0
 62
1
 10
7.78986
 20
0.4216
 30
0.0
 11
7.82069
 21
0.55954
 31
0.0
  0
LINE
  5
188
  8
0
 62
1
 10
7.82069
 20
0.55954
 30
0.0
 11
7.86014
 21
0.695282
 31
0.0
  0
LINE
  5
189
  8
0
 62
1
 10
7.86014
 20
0.695282
 30
0.0
 11
7.908
 21
0.828278
 31
0.0
  0
LINE
  5
18A
  8
0
 62
1
 10
7.908
 20
0.828278
 30
0.0
 11
7.96414
 21
0.957993
 31
0.0
  0
LINE
  5
18B
  8
0
 62
1
 10
7.96414
 20
0.957993
 30
0.0
 11
8.02832
 21
1.08394
 31
0.0
  0
LINE
  5
18C
  8
0
 62
1
 10
8.02832
 20
1.08394
 30
0.0
 11
8.10027
 21
1.2056
 31
0.0
  0
LINE
  5
18D
  8
0
 62
1
 10
8.10027
 20
1.2056
 30
0.0
 11
8.17972
 21
1.32251
 31
0.0
  0
LINE
  5
18E
  8
0
 62
1
 10
8.17972
 20
1.32251
 30
0.0
 11
8.26636
 21
1.43419
 31
0.0
  0
LINE
  5
18F
  8
0
 62
1
 10
8.26636
 20
1.43419
 30
0.0
 11
8.35983
 21
1.54022
 31
0.0
  0
LINE
  5
190
  8
0
 62
1
 10
8.35983
 20
1.54022
 30
0.0
 11
8.45978
 21
1.64017
 31
0.0
  0
LINE
  5
191
  8
0
 62
1
 10
8.45978
 20
1.64017
 30
0.0
 11
8.56581
 21
1.73364
 31
0.0
  0
LINE
  5
192
  8
0
 62
1
 10
8.56581
 20
1.73364
 30
0.0
 11
8.67749
 21
1.82028
 31
0.0
  0
LINE
  5
193
  8
0
 62
1
 10
8.67749
 20
1.82028
 30
0.0
 11
8.7944
 21
1.89973
 31
0.0
  0
LINE
  5
194
  8
0
 62
1
 10
8.7944
 20
1.89973
 30
0.0
 11
8.91606
 21
1.97168
 31
0.0
  0
LINE
  5
195
  8
0
 62
1
 10
8.91606
 20
1.97168
 30
0.0
 11
9.04201
 21
2.03586
 31
0.0
  0
LINE
  5
196
  8
0
 62
1
 10
9.04201
 20
2.03586
 30
0.0
 11
9.17172
 21
2.092
 31
0.0
  0
LINE
  5
197
  8
0
 62
1
 10
9.17172
 20
2.092
 30
0.0
 11
9.30472
 21
2.13986
 31
0.0
  0
LINE
  5
198
  8
0
 62
1
 10
9.30472
 20
2.13986
 30
0.0
 11
9.44046
 21
2.17931
 31
0.0
  0
LINE
  5
199
  8
0
 62
1
 10
9.44046
 20
2.17931
 30
0.0
 11
9.5784
 21
2.21014
 31
0.0
  0
LINE
  5
19A
  8
0
 62
1
 10
9.5784
 20
2.21014
 30
0.0
 11
9.718
 21
2.23225
 31
0.0
  0
LINE
  5
19B
  8
0
 62
1
 10
9.718
 20
2.23225
 30
0.0
 11
9.85873
 21
2.24556
 31
0.0
  0
LINE
  5
19C
  8
0
 62
1
 10
9.85873
 20
2.24556
 30
0.0
 11
10.0
 21
2.25
 31
0.0
  0
LINE
  5
19D
  8
0
 62
1
 10
10.0
 20
2.25
 30
0.0
 11
10.1413
 21
2.24556
 31
0.0
  0
LINE
  5
19E
  8
0
 62
1
 10
10.1413
 20
2.24556
 30
0.0
 11
10.282
 21
2.23225
 31
0.0
  0
LINE
  5
19F
  8
0
 62
1
 10
10.282
 20
2.23225
 30
0.0
 11
10.4216
 21
2.21014
 31
0.0
  0
LINE
  5
1A0
  8
0
 62
1
 10
10.4216
 20
2.21014
 30
0.0
 11
10.5595
 21
2.17931
 31
0.0
  0
LINE
  5
1A1
  8
0
 62
1
 10
10.5595
 20
2.17931
 30
0.0
 11
10.6953
 21
2.13986
 31
0.0
  0
LINE
  5
1A2
  8
0
 62
1
 10
10.6953
 20
2.13986
 30
0.0
 11
10.8283
 21
2.092
 31
0.0
  0
LINE
  5
1A3
  8
0
 62
1
 10
10.8283
 20
2.092
 30
0.0
 11
10.958
 21
2.03586
 31
0.0
  0
LINE
  5
1A4
  8
0
 62
1
 10
10.958
 20
2.03586
 30
0.0
 11
11.0839
 21
1.97168
 31
0.0
  0
LINE
  5
1A5
  8
0
 62
1
 10
11.0839
 20
1.97168
 30
0.0
 11
11.2056
 21
1.89973
 31
0.0
  0
LINE
  5
1A6
  8
0
 62
1
 10
11.2056
 20
1.89973
 30
0.0
 11
11.3225
 21
1.82028
 31
0.0
  0
LINE
  5
1A7
  8
0
 62
1
 10
11.3225
 20
1.82028
 30
0.0
 11
11.4342
 21
1.73364
 31
0.0
  0
LINE
  5
1A8
  8
0
 62
1
 10
11.4342
 20
1.73364
 30
0.0
 11
11.5402
 21
1.64017
 31
0.0
  0
LINE
  5
1A9
  8
0
 62
1
 10
11.5402
 20
1.64017
 30
0.0
 11
11.6402
 21
1.54022
 31
0.0
  0
LINE
  5
1AA
  8
0
 62
1
 10
11.6402
 20
1.54022
 30
0.0
 11
11.7336
 21
1.43419
 31
0.0
  0
LINE
  5
1AB
  8
0
 62
1
 10
11.7336
 20
1.43419
 30
0.0
 11
11.8203
 21
1.32251
 31
0.0
  0
LINE
  5
1AC
  8
0
 62
1
 10
11.8203
 20
1.32251
 30
0.0
 11
11.8997
 21
1.2056
 31
0.0
  0
LINE
  5
1AD
  8
0
 62
1
 10
11.8997
 20
1.2056
 30
0.0
 11
11.9717
 21
1.08394
 31
0.0
  0
LINE
  5
1AE
  8
0
 62
1
 10
11.9717
 20
1.08394
 30
0.0
 11
12.0359
 21
0.957993
 31
0.0
  0
LINE
  5
1AF
  8
0
 62
1
 10
12.0359
 20
0.957993
 30
0.0
 11
12.092
 21
0.828278
 31
0.0
  0
LINE
  5
1B0
  8
0
 62
1
 10
12.092
 20
0.828278
 30
0.0
 11
12.1399
 21
0.695282
 31
0.0
  0
LINE
  5
1B1
  8
0
 62
1
 10
12.1399
 20
0.695282
 30
0.0
 11
12.1793
 21
0.55954
 31
0.0
  0
LINE
  5
1B2
  8
0
 62
1
 10
12.1793
 20
0.55954
 30
0.0
 11
12.2101
 21
0.4216
 31
0.0
  0
LINE
  5
1B3
  8
0
 62
1
 10
12.2101
 20
0.4216
 30
0.0
 11
12.2323
 21
0.281998
 31
0.0
  0
LINE
  5
1B4
  8
0
 62
1
 10
12.2323
 20
0.281998
 30
0.0
 11
12.2456
 21
0.141266
 31
0.0
  0
LINE
  5
1B5
  8
0
 62
1
 10
12.2456
 20
0.141266
 30
0.0
 11
12.25
 21
0.0
 31
0.0
  0
LINE
  5
1B6
  8
0
 62
1
 10
12.25
 20
0.0
 30
0.0
 11
12.2456
 21
-0.141266
 31
0.0
  0
LINE
  5
1B7
  8
0
 62
1
 10
12.2456
 20
-0.141266
 30
0.0
 11
12.2323
 21
-0.281998
 31
0.0
  0
LINE
  5
1B8
  8
0
 62
1
 10
12.2323
 20
-0.281998
 30
0.0
 11
12.2101
 21
-0.4216
 31
0.0
  0
LINE
  5
1B9
  8
0
 62
1
 10
12.2101
 20
-0.4216
 30
0.0
 11
12.1793
 21
-0.55954
 31
0.0
  0
LINE
  5
1BA
  8
0
 62
1
 10
12.1793
 20
-0.55954
 30
0.0
 11
12.1399
 21
-0.695282
 31
0.0
  0
LINE
  5
1BB
  8
0
 62
1
 10
12.1399
 20
-0.695282
 30
0.0
 11
12.092
 21
-0.828278
 31
0.0
  0
LINE
  5
1BC
  8
0
 62
1
 10
12.092
 20
-0.828278
 30
0.0
 11
12.0359
 21
-0.957993
 31
0.0
  0
LINE
  5
1BD
  8
0
 62
1
 10
12.0359
 20
-0.957993
 30
0.0
 11
11.9717
 21
-1.08394
 31
0.0
  0
LINE
  5
1BE
  8
0
 62
1
 10
11.9717
 20
-1.08394
 30
0.0
 11
11.8997
 21
-1.2056
 31
0.0
  0
LINE
  5
1BF
  8
0
 62
1
 10
11.8997
 20
-1.2056
 30
0.0
 11
11.8203
 21
-1.32251
 31
0.0
  0
LINE
  5
1C0
  8
0
 62
1
 10
11.8203
 20
-1.32251
 30
0.0
 11
11.7336
 21
-1.43419
 31
0.0
  0
LINE
  5
1C1
  8
0
 62
1
 10
11.7336
 20
-1.43419
 30
0.0
 11
11.6402
 21
-1.54022
 31
0.0
  0
LINE
  5
1C2
  8
0
 62
1
 10
11.6402
 20
-1.54022
 30
0.0
 11
11.5402
 21
-1.64017
 31
0.0
  0
LINE
  5
1C3
  8
0
 62
1
 10
11.5402
 20
-1.64017
 30
0.0
 11
11.4342
 21
-1.73364
 31
0.0
  0
LINE
  5
1C4
  8
0
 62
1
 10
11.4342
 20
-1.73364
 30
0.0
 11
11.3225
 21
-1.82028
 31
0.0
  0
LINE
  5
1C5
  8
0
 62
1
 10
11.3225
 20
-1.82028
 30
0.0
 11
11.2056
 21
-1.89973
 31
0.0
  0
LINE
  5
1C6
  8
0
 62
1
 10
11.2056
 20
-1.89973
 30
0.0
 11
11.0839
 21
-1.97168
 31
0.0
  0
LINE
  5
1C7
  8
0
 62
1
 10
11.0839
 20
-1.97168
 30
0.0
 11
10.958
 21
-2.03586
 31
0.0
  0
LINE
  5
1C8
  8
0
 62
1
 10
10.958
 20
-2.03586
 30
0.0
 11
10.8283
 21
-2.092
 31
0.0
  0
LINE
  5
1C9
  8
0
 62
1
 10
10.8283
 20
-2.092
 30
0.0
 11
10.6953
 21
-2.13986
 31
0.0
  0
LINE
  5
1CA
  8
0
 62
1
 10
10.6953
 20
-2.13986
 30
0.0
 11
10.5595
 21
-2.17931
 31
0.0
  0
LINE
  5
1CB
  8
0
 62
1
 10
10.5595
 20
-2.17931
 30
0.0
 11
10.4216
 21
-2.21014
 31
0.0
  0
LINE
  5
1CC
  8
0
 62
1
 10
10.4216
 20
-2.21014
 30
0.0
 11
10.282
 21
-2.23225
 31
0.0
  0
LINE
  5
1CD
  8
0
 62
1
 10
10.282
 20
-2.23225
 30
0.0
 11
10.1413
 21
-2.24556
 31
0.0
  0
LINE
  5
1CE
  8
0
 62
1
 10
10.1413
 20
-2.24556
 30
0.0
 11
10.0
 21
-2.25
 31
0.0
  0
LINE
  5
1CF
  8
0
 62
1
 10
10.0
 20
-2.25
 30
0.0
 11
9.85873
 21
-2.24556
 31
0.0
  0
LINE
  5
1D0
  8
0
 62
1
 10
24.0
 20
4.0
 30
0.0
 11
16.0
 21
4.0
 31
0.0
  0
LINE
  5
1D1
  8
0
 62
1
 10
16.0
 20
4.0
 30
0.0
 11
16.0
 21
-4.0
 31
0.0
  0
LINE
  5
1D2
  8
0
 62
1
 10
16.0
 20
-4.0
 30
0.0
 11
24.0
 21
-4.0
 31
0.0
  0
LINE
  5
1D3
  8
0
 62
1
 10
24.0
 20
-4.0
 30
0.0
 11
24.0
 21
4.0
 31
0.0
  0
LINE
  5
1D4
  8
0
 62
1
 10
19.8587
 20
-2.24556
 30
0.0
 11
19.718
 21
-2.23225
 31
0.0
  0
LINE
  5
1D5
  8
0
 62
1
 10
19.718
 20
-2.23225
 30
0.0
 11
19.5784
 21
-2.21014
 31
0.0
  0
LINE
  5
1D6
  8
0
 62
1
 10
19.5784
 20
-2.21014
 30
0.0
 11
19.4405
 21
-2.17931
 31
0.0
  0
LINE
  5
1D7
  8
0
 62
1
 10
19.4405
 20
-2.17931
 30
0.0
 11
19.3047
 21
-2.13986
 31
0.0
  0
LINE
  5
1D8
  8
0
 62
1
 10
19.3047
 20
-2.13986
 30
0.0
 11
19.1717
 21
-2.092
 31
0.0
  0
LINE
  5
1D9
  8
0
 62
1
 10
19.1717
 20
-2.092
 30
0.0
 11
19.042
 21
-2.03586
 31
0.0
  0
LINE
  5
1DA
  8
0
 62
1
 10
19.042
 20
-2.03586
 30
0.0
 11
18.9161
 21
-1.97168
 31
0.0
  0
LINE
  5
1DB
  8
0
 62
1
 10
18.9161
 20
-1.97168
 30
0.0
 11
18.7944
 21
-1.89973
 31
0.0
  0
LINE
  5
1DC
  8
0
 62
1
 10
18.7944
 20
-1.89973
 30
0.0
 11
18.6775
 21
-1.82028
 31
0.0
  0
LINE
  5
1DD
  8
0
 62
1
 10
18.6775
 20
-1.82028
 30
0.0
 11
18.5658
 21
-1.73364
 31
0.0
  0
LINE
  5
1DE
  8
0
 62
1
 10
18.5658
 20
-1.73364
 30
0.0
 11
18.4598
 21
-1.64017
 31
0.0
  0
LINE
  5
1DF
  8
0
 62
1
 10
18.4598
 20
-1.64017
 30
0.0
 11
18.3598
 21
-1.54022
 31
0.0
  0
LINE
  5
1E0
  8
0
 62
1
 10
18.3598
 20
-1.54022
 30
0.0
 11
18.2664
 21
-1.43419
 31
0.0
  0
LINE
  5
1E1
  8
0
 62
1
 10
18.2664
 20
-1.43419
 30
0.0
 11
18.1797
 21
-1.32251
 31
0.0
  0
LINE
  5
1E2
  8
0
 62
1
 10
18.1797
 20
-1.32251
 30
0.0
 11
18.1003
 21
-1.2056
 31
0.0
  0
LINE
  5
1E3
  8
0
 62
1
 10
18.1003
 20
-1.2056
 30
0.0
 11
18.0283
 21
-1.08394
 31
0.0
  0
LINE
  5
1E4
  8
0
 62
1
 10
18.0283
 20
-1.08394
 30
0.0
 11
17.9641
 21
-0.957993
 31
0.0
  0
LINE
  5
1E5
  8
0
 62
1
 10
17.9641
 20
-0.957993
 30
0.0
 11
17.908
 21
-0.828278
 31
0.0
  0
LINE
  5
1E6
  8
0
 62
1
 10
17.908
 20
-0.828278
 30
0.0
 11
17.8601
 21
-0.695282
 31
0.0
  0
LINE
  5
1E7
  8
0
 62
1
 10
17.8601
 20
-0.695282
 30
0.0
 11
17.8207
 21
-0.55954
 31
0.0
  0
LINE
  5
1E8
  8
0
 62
1
 10
17.8207
 20
-0.55954
 30
0.0
 11
17.7899
 21
-0.4216
 31
0.0
  0
LINE
  5
1E9
  8
0
 62
1
 10
17.7899
 20
-0.4216
 30
0.0
 11
17.7677
 21
-0.281998
 31
0.0
  0
LINE
  5
1EA
  8
0
 62
1
 10
17.7677
 20
-0.281998
 30
0.0
 11
17.7544
 21
-0.141266
 31
0.0
  0
LINE
  5
1EB
  8
0
 62
1
 10
17.7544
 20
-0.141266
 30
0.0
 11
17.75
 21
0.0
 31
0.0
  0
LINE
  5
1EC
  8
0
 62
1
 10
17.75
 20
0.0
 30
0.0
 11
17.7544
 21
0.141266
 31
0.0
  0
LINE
  5
1ED
  8
0
 62
1
 10
17.7544
 20
0.141266
 30
0.0
 11
17.7677
 21
0.281998
 31
0.0
  0
LINE
  5
1EE
  8
0
 62
1
 10
17.7677
 20
0.281998
 30
0.0
 11
17.7899
 21
0.4216
 31
0.0
  0
LINE
  5
1EF
  8
0
 62
1
 10
17.7899
 20
0.4216
 30
0.0
 11
17.8207
 21
0.55954
 31
0.0
  0
LINE
  5
1F0
  8
0
 62
1
 10
17.8207
 20
0.55954
 30
0.0
 11
17.8601
 21
0.695282
 31
0.0
  0
LINE
  5
1F1
  8
0
 62
1
 10
17.8601
 20
0.695282
 30
0.0
 11
17.908
 21
0.828278
 31
0.0
  0
LINE
  5
1F2
  8
0
 62
1
 10
17.908
 20
0.828278
 30
0.0
 11
17.9641
 21
0.957993
 31
0.0
  0
LINE
  5
1F3
  8
0
 62
1
 10
17.9641
 20
0.957993
 30
0.0
 11
18.0283
 21
1.08394
 31
0.0
  0
LINE
  5
1F4
  8
0
 62
1
 10
18.0283
 20
1.08394
 30
0.0
 11
18.1003
 21
1.2056
 31
0.0
  0
LINE
  5
1F5
  8
0
 62
1
 10
18.1003
 20
1.2056
 30
0.0
 11
18.1797
 21
1.32251
 31
0.0
  0
LINE
  5
1F6
  8
0
 62
1
 10
18.1797
 20
1.32251
 30
0.0
 11
18.2664
 21
1.43419
 31
0.0
  0
LINE
  5
1F7
  8
0
 62
1
 10
18.2664
 20
1.43419
 30
0.0
 11
18.3598
 21
1.54022
 31
0.0
  0
LINE
  5
1F8
  8
0
 62
1
 10
18.3598
 20
1.54022
 30
0.0
 11
18.4598
 21
1.64017
 31
0.0
  0
LINE
  5
1F9
  8
0
 62
1
 10
18.4598
 20
1.64017
 30
0.0
 11
18.5658
 21
1.73364
 31
0.0
  0
LINE
  5
1FA
  8
0
 62
1
 10
18.5658
 20
1.73364
 30
0.0
 11
18.6775
 21
1.82028
 31
0.0
  0
LINE
  5
1FB
  8
0
 62
1
 10
18.6775
 20
1.82028
 30
0.0
 11
18.7944
 21
1.89973
 31
0.0
  0
LINE
  5
1FC
  8
0
 62
1
 10
18.7944
 20
1.89973
 30
0.0
 11
18.9161
 21
1.97168
 31
0.0
  0
LINE
  5
1FD
  8
0
 62
1
 10
18.9161
 20
1.97168
 30
0.0
 11
19.042
 21
2.03586
 31
0.0
  0
LINE
  5
1FE
  8
0
 62
1
 10
19.042
 20
2.03586
 30
0.0
 11
19.1717
 21
2.092
 31
0.0
  0
LINE
  5
1FF
  8
0
 62
1
 10
19.1717
 20
2.092
 30
0.0
 11
19.3047
 21
2.13986
 31
0.0
  0
LINE
  5
200
  8
0
 62
1
 10
19.3047
 20
2.13986
 30
0.0
 11
19.4405
 21
2.17931
 31
0.0
  0
LINE
  5
201
  8
0
 62
1
 10
19.4405
 20
2.17931
 30
0.0
 11
19.5784
 21
2.21014
 31
0.0
  0
LINE
  5
202
  8
0
 62
1
 10
19.5784
 20
2.21014
 30
0.0
 11
19.718
 21
2.23225
 31
0.0
  0
LINE
  5
203
  8
0
 62
1
 10
19.718
 20
2.23225
 30
0.0
 11
19.8587
 21
2.24556
 31
0.0
  0
LINE
  5
204
  8
0
 62
1
 10
19.8587
 20
2.24556
 30
0.0
 11
20.0
 21
2.25
 31
0.0
  0
LINE
  5
205
  8
0
 62
1
 10
20.0
 20
2.25
 30
0.0
 11
20.1413
 21
2.24556
 31
0.0
  0
LINE
  5
206
  8
0
 62
1
 10
20.1413
 20
2.24556
 30
0.0
 11
20.282
 21
2.23225
 31
0.0
  0
LINE
  5
207
  8
0
 62
1
 10
20.282
 20
2.23225
 30
0.0
 11
20.4216
 21
2.21014
 31
0.0
  0
LINE
  5
208
  8
0
 62
1
 10
20.4216
 20
2.21014
 30
0.0
 11
20.5595
 21
2.17931
 31
0.0
  0
LINE
  5
209
  8
0
 62
1
 10
20.5595
 20
2.17931
 30
0.0
 11
20.6953
 21
2.13986
 31
0.0
  0
LINE
  5
20A
  8
0
 62
1
 10
20.6953
 20
2.13986
 30
0.0
 11
20.8283
 21
2.092
 31
0.0
  0
LINE
  5
20B
  8
0
 62
1
 10
20.8283
 20
2.092
 30
0.0
 11
20.958
 21
2.03586
 31
0.0
  0
LINE
  5
20C
  8
0
 62
1
 10
20.958
 20
2.03586
 30
0.0
 11
21.0839
 21
1.97168
 31
0.0
  0
LINE
  5
20D
  8
0
 62
1
 10
21.0839
 20
1.97168
 30
0.0
 11
21.2056
 21
1.89973
 31
0.0
  0
LINE
  5
20E
  8
0
 62
1
 10
21.2056
 20
1.89973
 30
0.0
 11
21.3225
 21
1.82028
 31
0.0
  0
LINE
  5
20F
  8
0
 62
1
 10
21.3225
 20
1.82028
 30
0.0
 11
21.4342
 21
1.73364
 31
0.0
  0
LINE
  5
210
  8
0
 62
1
 10
21.4342
 20
1.73364
 30
0.0
 11
21.5402
 21
1.64017
 31
0.0
  0
LINE
  5
211
  8
0
 62
1
 10
21.5402
 20
1.64017
 30
0.0
 11
21.6402
 21
1.54022
 31
0.0
  0
LINE
  5
212
  8
0
 62
1
 10
21.6402
 20
1.54022
 30
0.0
 11
21.7336
 21
1.43419
 31
0.0
  0
LINE
  5
213
  8
0
 62
1
 10
21.7336
 20
1.43419
 30
0.0
 11
21.8203
 21
1.32251
 31
0.0
  0
LINE
  5
214
  8
0
 62
1
 10
21.8203
 20
1.32251
 30
0.0
 11
21.8997
 21
1.2056
 31
0.0
  0
LINE
  5
215
  8
0
 62
1
 10
21.8997
 20
1.2056
 30
0.0
 11
21.9717
 21
1.08394
 31
0.0
  0
LINE
  5
216
  8
0
 62
1
 10
21.9717
 20
1.08394
 30
0.0
 11
22.0359
 21
0.957993
 31
0.0
  0
LINE
  5
217
  8
0
 62
1
 10
22.0359
 20
0.957993
 30
0.0
 11
22.092
 21
0.828278
 31
0.0
  0
LINE
  5
218
  8
0
 62
1
 10
22.092
 20
0.828278
 30
0.0
 11
22.1399
 21
0.695282
 31
0.0
  0
LINE
  5
219
  8
0
 62
1
 10
22.1399
 20
0.695282
 30
0.0
 11
22.1793
 21
0.55954
 31
0.0
  0
LINE
  5
21A
  8
0
 62
1
 10
22.1793
 20
0.55954
 30
0.0
 11
22.2101
 21
0.4216
 31
0.0
  0
LINE
  5
21B
  8
0
 62
1
 10
22.2101
 20
0.4216
 30
0.0
 11
22.2323
 21
0.281998
 31
0.0
  0
LINE
  5
21C
  8
0
 62
1
 10
22.2323
 20
0.281998
 30
0.0
 11
22.2456
 21
0.141266
 31
0.0
  0
LINE
  5
21D
  8
0
 62
1
 10
22.2456
 20
0.141266
 30
0.0
 11
22.25
 21
0.0
 31
0.0
  0
LINE
  5
21E
  8
0
 62
1
 10
22.25
 20
0.0
 30
0.0
 11
22.2456
 21
-0.141266
 31
0.0
  0
LINE
  5
21F
  8
0
 62
1
 10
22.2456
 20
-0.141266
 30
0.0
 11
22.2323
 21
-0.281998
 31
0.0
  0
LINE
  5
220
  8
0
 62
1
 10
22.2323
 20
-0.281998
 30
0.0
 11
22.2101
 21
-0.4216
 31
0.0
  0
LINE
  5
221
  8
0
 62
1
 10
22.2101
 20
-0.4216
 30
0.0
 11
22.1793
 21
-0.55954
 31
0.0
  0
LINE
  5
222
  8
0
 62
1
 10
22.1793
 20
-0.55954
 30
0.0
 11
22.1399
 21
-0.695282
 31
0.0
  0
LINE
  5
223
  8
0
 62
1
 10
22.1399
 20
-0.695282
 30
0.0
 11
22.092
 21
-0.828278
 31
0.0
  0
LINE
  5
224
  8
0
 62
1
 10
22.092
 20
-0.828278
 30
0.0
 11
22.0359
 21
-0.957993
 31
0.0
  0
LINE
  5
225
  8
0
 62
1
 10
22.0359
 20
-0.957993
 30
0.0
 11
21.9717
 21
-1.08394
 31
0.0
  0
LINE
  5
226
  8
0
 62
1
 10
21.9717
 20
-1.08394
 30
0.0
 11
21.8997
 21
-1.2056
 31
0.0
  0
LINE
  5
227
  8
0
 62
1
 10
21.8997
 20
-1.2056
 30
0.0
 11
21.8203
 21
-1.32251
 31
0.0
  0
LINE
  5
228
  8
0
 62
1
 10
21.8203
 20
-1.32251
 30
0.0
 11
21.7336
 21
-1.43419
 31
0.0
  0
LINE
  5
229
  8
0
 62
1
 10
21.7336
 20
-1.43419
 30
0.0
 11
21.6402
 21
-1.54022
 31
0.0
  0
LINE
  5
22A
  8
0
 62
1
 10
21.6402
 20
-1.54022
 30
0.0
 11
21.5402
 21
-1.64017
 31
0.0
  0
LINE
  5
22B
  8
0
 62
1
 10
21.5402
 20
-1.64017
 30
0.0
 11
21.4342
 21
-1.73364
 31
0.0
  0
LINE
  5
22C
  8
0
 62
1
 10
21.4342
 20
-1.73364
 30
0.0
 11
21.3225
 21
-1.82028
 31
0.0
  0
LINE
  5
22D
  8
0
 62
1
 10
21.3225
 20
-1.82028
 30
0.0
 11
21.2056
 21
-1.89973
 31
0.0
  0
LINE
  5
22E
  8
0
 62
1
 10
21.2056
 20
-1.89973
 30
0.0
 11
21.0839
 21
-1.97168
 31
0.0
  0
LINE
  5
22F
  8
0
 62
1
 10
21.0839
 20
-1.97168
 30
0.0
 11
20.958
 21
-2.03586
 31
0.0
  0
LINE
  5
230
  8
0
 62
1
 10
20.958
 20
-2.03586
 30
0.0
 11
20.8283
 21
-2.092
 31
0.0
  0
LINE
  5
231
  8
0
 62
1
 10
20.8283
 20
-2.092
 30
0.0
 11
20.6953
 21
-2.13986
 31
0.0
  0
LINE
  5
232
  8
0
 62
1
 10
20.6953
 20
-2.13986
 30
0.0
 11
20.5595
 21
-2.17931
 31
0.0
  0
LINE
  5
233
  8
0
 62
1
 10
20.5595
 20
-2.17931
 30
0.0
 11
20.4216
 21
-2.21014
 31
0.0
  0
LINE
  5
234
  8
0
 62
1
 10
20.4216
 20
-2.21014
 30
0.0
 11
20.282
 21
-2.23225
 31
0.0
  0
LINE
  5
235
  8
0
 62
1
 10
20.282
 20
-2.23225
 30
0.0
 11
20.1413
 21
-2.24556
 31
0.0
  0
LINE
  5
236
  8
0
 62
1
 10
20.1413
 20
-2.24556
 30
0.0
 11
20.0
 21
-2.25
 31
0.0
  0
LINE
  5
237
  8
0
 62
1
 10
20.0
 20
-2.25
 30
0.0
 11
19.8587
 21
-2.24556
 31
0.0
  0
LINE
  5
238
  8
0
 62
1
 10
34.0
 20
4.0
 30
0.0
 11
26.0
 21
4.0
 31
0.0
  0
LINE
  5
239
  8
0
 62
1
 10
26.0
 20
4.0
 30
0.0
 11
26.0
 21
-4.0
 31
0.0
  0
LINE
  5
23A
  8
0
 62
1
 10
26.0
 20
-4.0
 30
0.0
 11
34.0
 21
-4.0
 31
0.0
  0
LINE
  5
23B
  8
0
 62
1
 10
34.0
 20
-4.0
 30
0.0
 11
34.0
 21
4.0
 31
0.0
  0
LINE
  5
23C
  8
0
 62
1
 10
29.8587
 20
-2.24556
 30
0.0
 11
29.718
 21
-2.23225
 31
0.0
  0
LINE
  5
23D
  8
0
 62
1
 10
29.718
 20
-2.23225
 30
0.0
 11
29.5784
 21
-2.21014
 31
0.0
  0
LINE
  5
23E
  8
0
 62
1
 10
29.5784
 20
-2.21014
 30
0.0
 11
29.4405
 21
-2.17931
 31
0.0
  0
LINE
  5
23F
  8
0
 62
1
 10
29.4405
 20
-2.17931
 30
0.0
 11
29.3047
 21
-2.13986
 31
0.0
  0
LINE
  5
240
  8
0
 62
1
 10
29.3047
 20
-2.13986
 30
0.0
 11
29.1717
 21
-2.092
 31
0.0
  0
LINE
  5
241
  8
0
 62
1
 10
29.1717
 20
-2.092
 30
0.0
 11
29.042
 21
-2.03586
 31
0.0
  0
LINE
  5
242
  8
0
 62
1
 10
29.042
 20
-2.03586
 30
0.0
 11
28.9161
 21
-1.97168
 31
0.0
  0
LINE
  5
243
  8
0
 62
1
 10
28.9161
 20
-1.97168
 30
0.0
 11
28.7944
 21
-1.89973
 31
0.0
  0
LINE
  5
244
  8
0
 62
1
 10
28.7944
 20
-1.89973
 30
0.0
 11
28.6775
 21
-1.82028
 31
0.0
  0
LINE
  5
245
  8
0
 62
1
 10
28.6775
 20
-1.82028
 30
0.0
 11
28.5658
 21
-1.73364
 31
0.0
  0
LINE
  5
246
  8
0
 62
1
 10
28.5658
 20
-1.73364
 30
0.0
 11
28.4598
 21
-1.64017
 31
0.0
  0
LINE
  5
247
  8
0
 62
1
 10
28.4598
 20
-1.64017
 30
0.0
 11
28.3598
 21
-1.54022
 31
0.0
  0
LINE
  5
248
  8
0
 62
1
 10
28.3598
 20
-1.54022
 30
0.0
 11
28.2664
 21
-1.43419
 31
0.0
  0
LINE
  5
249
  8
0
 62
1
 10
28.2664
 20
-1.43419
 30
0.0
 11
28.1797
 21
-1.32251
 31
0.0
  0
LINE
  5
24A
  8
0
 62
1
 10
28.1797
 20
-1.32251
 30
0.0
 11
28.1003
 21
-1.2056
 31
0.0
  0
LINE
  5
24B
  8
0
 62
1
 10
28.1003
 20
-1.2056
 30
0.0
 11
28.0283
 21
-1.08394
 31
0.0
  0
LINE
  5
24C
  8
0
 62
1
 10
28.0283
 20
-1.08394
 30
0.0
 11
27.9641
 21
-0.957993
 31
0.0
  0
LINE
  5
24D
  8
0
 62
1
 10
27.9641
 20
-0.957993
 30
0.0
 11
27.908
 21
-0.828278
 31
0.0
  0
LINE
  5
24E
  8
0
 62
1
 10
27.908
 20
-0.828278
 30
0.0
 11
27.8601
 21
-0.695282
 31
0.0
  0
LINE
  5
24F
  8
0
 62
1
 10
27.8601
 20
-0.695282
 30
0.0
 11
27.8207
 21
-0.55954
 31
0.0
  0
LINE
  5
250
  8
0
 62
1
 10
27.8207
 20
-0.55954
 30
0.0
 11
27.7899
 21
-0.4216
 31
0.0
  0
LINE
  5
251
  8
0
 62
1
 10
27.7899
 20
-0.4216
 30
0.0
 11
27.7677
 21
-0.281998
 31
0.0
  0
LINE
  5
252
  8
0
 62
1
 10
27.7677
 20
-0.281998
 30
0.0
 11
27.7544
 21
-0.141266
 31
0.0
  0
LINE
  5
253
  8
0
 62
1
 10
27.7544
 20
-0.141266
 30
0.0
 11
27.75
 21
0.0
 31
0.0
  0
LINE
  5
254
  8
0
 62
1
 10
27.75
 20
0.0
 30
0.0
 11
27.7544
 21
0.141266
 31
0.0
  0
LINE
  5
255
  8
0
 62
1
 10
27.7544
 20
0.141266
 30
0.0
 11
27.7677
 21
0.281998
 31
0.0
  0
LINE
  5
256
  8
0
 62
1
 10
27.7677
 20
0.281998
 30
0.0
 11
27.7899
 21
0.4216
 31
0.0
  0
LINE
  5
257
  8
0
 62
1
 10
27.7899
 20
0.4216
 30
0.0
 11
27.8207
 21
0.55954
 31
0.0
  0
LINE
  5
258
  8
0
 62
1
 10
27.8207
 20
0.55954
 30
0.0
 11
27.8601
 21
0.695282
 31
0.0
  0
LINE
  5
259
  8
0
 62
1
 10
27.8601
 20
0.695282
 30
0.0
 11
27.908
 21
0.828278
 31
0.0
  0
LINE
  5
25A
  8
0
 62
1
 10
27.908
 20
0.828278
 30
0.0
 11
27.9641
 21
0.957993
 31
0.0
  0
LINE
  5
25B
  8
0
 62
1
 10
27.9641
 20
0.957993
 30
0.0
 11
28.0283
 21
1.08394
 31
0.0
  0
LINE
  5
25C
  8
0
 62
1
 10
28.0283
 20
1.08394
 30
0.0
 11
28.1003
 21
1.2056
 31
0.0
  0
LINE
  5
25D
  8
0
 62
1
 10
28.1003
 20
1.2056
 30
0.0
 11
28.1797
 21
1.32251
 31
0.0
  0
LINE
  5
25E
  8
0
 62
1
 10
28.1797
 20
1.32251
 30
0.0
 11
28.2664
 21
1.43419
 31
0.0
  0
LINE
  5
25F
  8
0
 62
1
 10
28.2664
 20
1.43419
 30
0.0
 11
28.3598
 21
1.54022
 31
0.0
  0
LINE
  5
260
  8
0
 62
1
 10
28.3598
 20
1.54022
 30
0.0
 11
28.4598
 21
1.64017
 31
0.0
  0
LINE
  5
261
  8
0
 62
1
 10
28.4598
 20
1.64017
 30
0.0
 11
28.5658
 21
1.73364
 31
0.0
  0
LINE
  5
262
  8
0
 62
1
 10
28.5658
 20
1.73364
 30
0.0
 11
28.6775
 21
1.82028
 31
0.0
  0
LINE
  5
263
  8
0
 62
1
 10
28.6775
 20
1.82028
 30
0.0
 11
28.7944
 21
1.89973
 31
0.0
  0
LINE
  5
264
  8
0
 62
1
 10
28.7944
 20
1.89973
 30
0.0
 11
28.9161
 21
1.97168
 31
0.0
  0
LINE
  5
265
  8
0
 62
1
 10
28.9161
 20
1.97168
 30
0.0
 11
29.042
 21
2.03586
 31
0.0
  0
LINE
  5
266
  8
0
 62
1
 10
29.042
 20
2.03586
 30
0.0
 11
29.1717
 21
2.092
 31
0.0
  0
LINE
  5
267
  8
0
 62
1
 10
29.1717
 20
2.092
 30
0.0
 11
29.3047
 21
2.13986
 31
0.0
  0
LINE
  5
268
  8
0
 62
1
 10
29.3047
 20
2.13986
 30
0.0
 11
29.4405
 21
2.17931
 31
0.0
  0
LINE
  5
269
  8
0
 62
1
 10
29.4405
 20
2.17931
 30
0.0
 11
29.5784
 21
2.21014
 31
0.0
  0
LINE
  5
26A
  8
0
 62
1
 10
29.5784
 20
2.21014
 30
0.0
 11
29.718
 21
2.23225
 31
0.0
  0
LINE
  5
26B
  8
0
 62
1
 10
29.718
 20
2.23225
 30
0.0
 11
29.8587
 21
2.24556
 31
0.0
  0
LINE
  5
26C
  8
0
 62
1
 10
29.8587
 20
2.24556
 30
0.0
 11
30.0
 21
2.25
 31
0.0
  0
LINE
  5
26D
  8
0
 62
1
 10
30.0
 20
2.25
 30
0.0
 11
30.1413
 21
2.24556
 31
0.0
  0
LINE
  5
26E
  8
0
 62
1
 10
30.1413
 20
2.24556
 30
0.0
 11
30.282
 21
2.23225
 31
0.0
  0
LINE
  5
26F
  8
0
 62
1
 10
30.282
 20
2.23225
 30
0.0
 11
30.4216
 21
2.21014
 31
0.0
  0
LINE
  5
270
  8
0
 62
1
 10
30.4216
 20
2.21014
 30
0.0
 11
30.5595
 21
2.17931
 31
0.0
  0
LINE
  5
271
  8
0
 62
1
 10
30.5595
 20
2.17931
 30
0.0
 11
30.6953
 21
2.13986
 31
0.0
  0
LINE
  5
272
  8
0
 62
1
 10
30.6953
 20
2.13986
 30
0.0
 11
30.8283
 21
2.092
 31
0.0
  0
LINE
  5
273
  8
0
 62
1
 10
30.8283
 20
2.092
 30
0.0
 11
30.958
 21
2.03586
 31
0.0
  0
LINE
  5
274
  8
0
 62
1
 10
30.958
 20
2.03586
 30
0.0
 11
31.0839
 21
1.97168
 31
0.0
  0
LINE
  5
275
  8
0
 62
1
 10
31.0839
 20
1.97168
 30
0.0
 11
31.2056
 21
1.89973
 31
0.0
  0
LINE
  5
276
  8
0
 62
1
 10
31.2056
 20
1.89973
 30
0.0
 11
31.3225
 21
1.82028
 31
0.0
  0
LINE
  5
277
  8
0
 62
1
 10
31.3225
 20
1.82028
 30
0.0
 11
31.4342
 21
1.73364
 31
0.0
  0
LINE
  5
278
  8
0
 62
1
 10
31.4342
 20
1.73364
 30
0.0
 11
31.5402
 21
1.64017
 31
0.0
  0
LINE
  5
279
  8
0
 62
1
 10
31.5402
 20
1.64017
 30
0.0
 11
31.6402
 21
1.54022
 31
0.0
  0
LINE
  5
27A
  8
0
 62
1
 10
31.6402
 20
1.54022
 30
0.0
 11
31.7336
 21
1.43419
 31
0.0
  0
LINE
  5
27B
  8
0
 62
1
 10
31.7336
 20
1.43419
 30
0.0
 11
31.8203
 21
1.32251
 31
0.0
  0
LINE
  5
27C
  8
0
 62
1
 10
31.8203
 20
1.32251
 30
0.0
 11
31.8997
 21
1.2056
 31
0.0
  0
LINE
  5
27D
  8
0
 62
1
 10
31.8997
 20
1.2056
 30
0.0
 11
31.9717
 21
1.08394
 31
0.0
  0
LINE
  5
27E
  8
0
 62
1
 10
31.9717
 20
1.08394
 30
0.0
 11
32.0359
 21
0.957993
 31
0.0
  0
LINE
  5
27F
  8
0
 62
1
 10
32.0359
 20
0.957993
 30
0.0
 11
32.092
 21
0.828278
 31
0.0
  0
LINE
  5
280
  8
0
 62
1
 10
32.092
 20
0.828278
 30
0.0
 11
32.1399
 21
0.695282
 31
0.0
  0
LINE
  5
281
  8
0
 62
1
 10
32.1399
 20
0.695282
 30
0.0
 11
32.1793
 21
0.55954
 31
0.0
  0
LINE
  5
282
  8
0
 62
1
 10
32.1793
 20
0.55954
 30
0.0
 11
32.2101
 21
0.4216
 31
0.0
  0
LINE
  5
283
  8
0
 62
1
 10
32.2101
 20
0.4216
 30
0.0
 11
32.2323
 21
0.281998
 31
0.0
  0
LINE
  5
284
  8
0
 62
1
 10
32.2323
 20
0.281998
 30
0.0
 11
32.2456
 21
0.141266
 31
0.0
  0
LINE
  5
285
  8
0
 62
1
 10
32.2456
 20
0.141266
 30
0.0
 11
32.25
 21
0.0
 31
0.0
  0
LINE
  5
286
  8
0
 62
1
 10
32.25
 20
0.0
 30
0.0
 11
32.2456
 21
-0.141266
 31
0.0
  0
LINE
  5
287
  8
0
 62
1
 10
32.2456
 20
-0.141266
 30
0.0
 11
32.2323
 21
-0.281998
 31
0.0
  0
LINE
  5
288
  8
0
 62
1
 10
32.2323
 20
-0.281998
 30
0.0
 11
32.2101
 21
-0.4216
 31
0.0
  0
LINE
  5
289
  8
0
 62
1
 10
32.2101
 20
-0.4216
 30
0.0
 11
32.1793
 21
-0.55954
 31
0.0
  0
LINE
  5
28A
  8
0
 62
1
 10
32.1793
 20
-0.55954
 30
0.0
 11
32.1399
 21
-0.695282
 31
0.0
  0
LINE
  5
28B
  8
0
 62
1
 10
32.1399
 20
-0.695282
 30
0.0
 11
32.092
 21
-0.828278
 31
0.0
  0
LINE
  5
28C
  8
0
 62
1
 10
32.092
 20
-0.828278
 30
0.0
 11
32.0359
 21
-0.957993
 31
0.0
  0
LINE
  5
28D
  8
0
 62
1
 10
32.0359
 20
-0.957993
 30
0.0
 11
31.9717
 21
-1.08394
 31
0.0
  0
LINE
  5
28E
  8
0
 62
1
 10
31.9717
 20
-1.08394
 30
0.0
 11
31.8997
 21
-1.2056
 31
0.0
  0
LINE
  5
28F
  8
0
 62
1
 10
31.8997
 20
-1.2056
 30
0.0
 11
31.8203
 21
-1.32251
 31
0.0
  0
LINE
  5
290
  8
0
 62
1
 10
31.8203
 20
-1.32251
 30
0.0
 11
31.7336
 21
-1.43419
 31
0.0
  0
LINE
  5
291
  8
0
 62
1
 10
31.7336
 20
-1.43419
 30
0.0
 11
31.6402
 21
-1.54022
 31
0.0
  0
LINE
  5
292
  8
0
 62
1
 10
31.6402
 20
-1.54022
 30
0.0
 11
31.5402
 21
-1.64017
 31
0.0
  0
LINE
  5
293
  8
0
 62
1
 10
31.5402
 20
-1.64017
 30
0.0
 11
31.4342
 21
-1.73364
 31
0.0
  0
LINE
  5
294
  8
0
 62
1
 10
31.4342
 20
-1.73364
 30
0.0
 11
31.3225
 21
-1.82028
 31
0.0
  0
LINE
  5
295
  8
0
 62
1
 10
31.3225
 20
-1.82028
 30
0.0
 11
31.2056
 21
-1.89973
 31
0.0
  0
LINE
  5
296
  8
0
 62
1
 10
31.2056
 20
-1.89973
 30
0.0
 11
31.0839
 21
-1.97168
 31
0.0
  0
LINE
  5
297
  8
0
 62
1
 10
31.0839
 20
-1.97168
 30
0.0
 11
30.958
 21
-2.03586
 31
0.0
  0
LINE
  5
298
  8
0
 62
1
 10
30.958
 20
-2.03586
 30
0.0
 11
30.8283
 21
-2.092
 31
0.0
  0
LINE
  5
299
  8
0
 62
1
 10
30.8283
 20
-2.092
 30
0.0
 11
30.6953
 21
-2.13986
 31
0.0
  0
LINE
  5
29A
  8
0
 62
1
 10
30.6953
 20
-2.13986
 30
0.0
 11
30.5595
 21
-2.17931
 31
0.0
  0
LINE
  5
29B
  8
0
 62
1
 10
30.5595
 20
-2.17931
 30
0.0
 11
30.4216
 21
-2.21014
 31
0.0
  0
LINE
  5
29C
  8
0
 62
1
 10
30.4216
 20
-2.21014
 30
0.0
 11
30.282
 21
-2.23225
 31
0.0
  0
LINE
  5
29D
  8
0
 62
1
 10
30.282
 20
-2.23225
 30
0.0
 11
30.1413
 21
-2.24556
 31
0.0
  0
LINE
  5
29E
  8
0
 62
1
 10
30.1413
 20
-2.24556
 30
0.0
 11
30.0
 21
-2.25
 31
0.0
  0
LINE
  5
29F
  8
0
 62
1
 10
30.0
 20
-2.25
 30
0.0
 11
29.8587
 21
-2.24556
 31
0.0
  0
LINE
  5
2A0
  8
0
 62
1
 10
44.0
 20
4.0
 30
0.0
 11
36.0
 21
4.0
 31
0.0
  0
LINE
  5
2A1
  8
0
 62
1
 10
36.0
 20
4.0
 30
0.0
 11
36.0
 21
-4.0
 31
0.0
  0
LINE
  5
2A2
  8
0
 62
1
 10
36.0
 20
-4.0
 30
0.0
 11
44.0
 21
-4.0
 31
0.0
  0
LINE
  5
2A3
  8
0
 62
1
 10
44.0
 20
-4.0
 30
0.0
 11
44.0
 21
4.0
 31
0.0
  0
LINE
  5
2A4
  8
0
 62
1
 10
39.8587
 20
-2.24556
 30
0.0
 11
39.718
 21
-2.23225
 31
0.0
  0
LINE
  5
2A5
  8
0
 62
1
 10
39.718
 20
-2.23225
 30
0.0
 11
39.5784
 21
-2.21014
 31
0.0
  0
LINE
  5
2A6
  8
0
 62
1
 10
39.5784
 20
-2.21014
 30
0.0
 11
39.4405
 21
-2.17931
 31
0.0
  0
LINE
  5
2A7
  8
0
 62
1
 10
39.4405
 20
-2.17931
 30
0.0
 11
39.3047
 21
-2.13986
 31
0.0
  0
LINE
  5
2A8
  8
0
 62
1
 10
39.3047
 20
-2.13986
 30
0.0
 11
39.1717
 21
-2.092
 31
0.0
  0
LINE
  5
2A9
  8
0
 62
1
 10
39.1717
 20
-2.092
 30
0.0
 11
39.042
 21
-2.03586
 31
0.0
  0
LINE
  5
2AA
  8
0
 62
1
 10
39.042
 20
-2.03586
 30
0.0
 11
38.9161
 21
-1.97168
 31
0.0
  0
LINE
  5
2AB
  8
0
 62
1
 10
38.9161
 20
-1.97168
 30
0.0
 11
38.7944
 21
-1.89973
 31
0.0
  0
LINE
  5
2AC
  8
0
 62
1
 10
38.7944
 20
-1.89973
 30
0.0
 11
38.6775
 21
-1.82028
 31
0.0
  0
LINE
  5
2AD
  8
0
 62
1
 10
38.6775
 20
-1.82028
 30
0.0
 11
38.5658
 21
-1.73364
 31
0.0
  0
LINE
  5
2AE
  8
0
 62
1
 10
38.5658
 20
-1.73364
 30
0.0
 11
38.4598
 21
-1.64017
 31
0.0
  0
LINE
  5
2AF
  8
0
 62
1
 10
38.4598
 20
-1.64017
 30
0.0
 11
38.3598
 21
-1.54022
 31
0.0
  0
LINE
  5
2B0
  8
0
 62
1
 10
38.3598
 20
-1.54022
 30
0.0
 11
38.2664
 21
-1.43419
 31
0.0
  0
LINE
  5
2B1
  8
0
 62
1
 10
38.2664
 20
-1.43419
 30
0.0
 11
38.1797
 21
-1.32251
 31
0.0
  0
LINE
  5
2B2
  8
0
 62
1
 10
38.1797
 20
-1.32251
 30
0.0
 11
38.1003
 21
-1.2056
 31
0.0
  0
LINE
  5
2B3
  8
0
 62
1
 10
38.1003
 20
-1.2056
 30
0.0
 11
38.0283
 21
-1.08394
 31
0.0
  0
LINE
  5
2B4
  8
0
 62
1
 10
38.0283
 20
-1.08394
 30
0.0
 11
37.9641
 21
-0.957993
 31
0.0
  0
LINE
  5
2B5
  8
0
 62
1
 10
37.9641
 20
-0.957993
 30
0.0
 11
37.908
 21
-0.828278
 31
0.0
  0
LINE
  5
2B6
  8
0
 62
1
 10
37.908
 20
-0.828278
 30
0.0
 11
37.8601
 21
-0.695282
 31
0.0
  0
LINE
  5
2B7
  8
0
 62
1
 10
37.8601
 20
-0.695282
 30
0.0
 11
37.8207
 21
-0.55954
 31
0.0
  0
LINE
  5
2B8
  8
0
 62
1
 10
37.8207
 20
-0.55954
 30
0.0
 11
37.7899
 21
-0.4216
 31
0.0
  0
LINE
  5
2B9
  8
0
 62
1
 10
37.7899
 20
-0.4216
 30
0.0
 11
37.7677
 21
-0.281998
 31
0.0
  0
LINE
  5
2BA
  8
0
 62
1
 10
37.7677
 20
-0.281998
 30
0.0
 11
37.7544
 21
-0.141266
 31
0.0
  0
LINE
  5
2BB
  8
0
 62
1
 10
37.7544
 20
-0.141266
 30
0.0
 11
37.75
 21
0.0
 31
0.0
  0
LINE
  5
2BC
  8
0
 62
1
 10
37.75
 20
0.0
 30
0.0
 11
37.7544
 21
0.141266
 31
0.0
  0
LINE
  5
2BD
  8
0
 62
1
 10
37.7544
 20
0.141266
 30
0.0
 11
37.7677
 21
0.281998
 31
0.0
  0
LINE
  5
2BE
  8
0
 62
1
 10
37.7677
 20
0.281998
 30
0.0
 11
37.7899
 21
0.4216
 31
0.0
  0
LINE
  5
2BF
  8
0
 62
1
 10
37.7899
 20
0.4216
 30
0.0
 11
37.8207
 21
0.55954
 31
0.0
  0
LINE
  5
2C0
  8
0
 62
1
 10
37.8207
 20
0.55954
 30
0.0
 11
37.8601
 21
0.695282
 31
0.0
  0
LINE
  5
2C1
  8
0
 62
1
 10
37.8601
 20
0.695282
 30
0.0
 11
37.908
 21
0.828278
 31
0.0
  0
LINE
  5
2C2
  8
0
 62
1
 10
37.908
 20
0.828278
 30
0.0
 11
37.9641
 21
0.957993
 31
0.0
  0
LINE
  5
2C3
  8
0
 62
1
 10
37.9641
 20
0.957993
 30
0.0
 11
38.0283
 21
1.08394
 31
0.0
  0
LINE
  5
2C4
  8
0
 62
1
 10
38.0283
 20
1.08394
 30
0.0
 11
38.1003
 21
1.2056
 31
0.0
  0
LINE
  5
2C5
  8
0
 62
1
 10
38.1003
 20
1.2056
 30
0.0
 11
38.1797
 21
1.32251
 31
0.0
  0
LINE
  5
2C6
  8
0
 62
1
 10
38.1797
 20
1.32251
 30
0.0
 11
38.2664
 21
1.43419
 31
0.0
  0
LINE
  5
2C7
  8
0
 62
1
 10
38.2664
 20
1.43419
 30
0.0
 11
38.3598
 21
1.54022
 31
0.0
  0
LINE
  5
2C8
  8
0
 62
1
 10
38.3598
 20
1.54022
 30
0.0
 11
38.4598
 21
1.64017
 31
0.0
  0
LINE
  5
2C9
  8
0
 62
1
 10
38.4598
 20
1.64017
 30
0.0
 11
38.5658
 21
1.73364
 31
0.0
  0
LINE
  5
2CA
  8
0
 62
1
 10
38.5658
 20
1.73364
 30
0.0
 11
38.6775
 21
1.82028
 31
0.0
  0
LINE
  5
2CB
  8
0
 62
1
 10
38.6775
 20
1.82028
 30
0.0
 11
38.7944
 21
1.89973
 31
0.0
  0
LINE
  5
2CC
  8
0
 62
1
 10
38.7944
 20
1.89973
 30
0.0
 11
38.9161
 21
1.97168
 31
0.0
  0
LINE
  5
2CD
  8
0
 62
1
 10
38.9161
 20
1.97168
 30
0.0
 11
39.042
 21
2.03586
 31
0.0
  0
LINE
  5
2CE
  8
0
 62
1
 10
39.042
 20
2.03586
 30
0.0
 11
39.1717
 21
2.092
 31
0.0
  0
LINE
  5
2CF
  8
0
 62
1
 10
39.1717
 20
2.092
 30
0.0
 11
39.3047
 21
2.13986
 31
0.0
  0
LINE
  5
2D0
  8
0
 62
1
 10
39.3047
 20
2.13986
 30
0.0
 11
39.4405
 21
2.17931
 31
0.0
  0
LINE
  5
2D1
  8
0
 62
1
 10
39.4405
 20
2.17931
 30
0.0
 11
39.5784
 21
2.21014
 31
0.0
  0
LINE
  5
2D2
  8
0
 62
1
 10
39.5784
 20
2.21014
 30
0.0
 11
39.718
 21
2.23225
 31
0.0
  0
LINE
  5
2D3
  8
0
 62
1
 10
39.718
 20
2.23225
 30
0.0
 11
39.8587
 21
2.24556
 31
0.0
  0
LINE
  5
2D4
  8
0
 62
1
 10
39.8587
 20
2.24556
 30
0.0
 11
40.0
 21
2.25
 31
0.0
  0
LINE
  5
2D5
  8
0
 62
1
 10
40.0
 20
2.25
 30
0.0
 11
40.1413
 21
2.24556
 31
0.0
  0
LINE
  5
2D6
  8
0
 62
1
 10
40.1413
 20
2.24556
 30
0.0
 11
40.282
 21
2.23225
 31
0.0
  0
LINE
  5
2D7
  8
0
 62
1
 10
40.282
 20
2.23225
 30
0.0
 11
40.4216
 21
2.21014
 31
0.0
  0
LINE
  5
2D8
  8
0
 62
1
 10
40.4216
 20
2.21014
 30
0.0
 11
40.5595
 21
2.17931
 31
0.0
  0
LINE
  5
2D9
  8
0
 62
1
 10
40.5595
 20
2.17931
 30
0.0
 11
40.6953
 21
2.13986
 31
0.0
  0
LINE
  5
2DA
  8
0
 62
1
 10
40.6953
 20
2.13986
 30
0.0
 11
40.8283
 21
2.092
 31
0.0
  0
LINE
  5
2DB
  8
0
 62
1
 10
40.8283
 20
2.092
 30
0.0
 11
40.958
 21
2.03586
 31
0.0
  0
LINE
  5
2DC
  8
0
 62
1
 10
40.958
 20
2.03586
 30
0.0
 11
41.0839
 21
1.97168
 31
0.0
  0
LINE
  5
2DD
  8
0
 62
1
 10
41.0839
 20
1.97168
 30
0.0
 11
41.2056
 21
1.89973
 31
0.0
  0
LINE
  5
2DE
  8
0
 62
1
 10
41.2056
 20
1.89973
 30
0.0
 11
41.3225
 21
1.82028
 31
0.0
  0
LINE
  5
2DF
  8
0
 62
1
 10
41.3225
 20
1.82028
 30
0.0
 11
41.4342
 21
1.73364
 31
0.0
  0
LINE
  5
2E0
  8
0
 62
1
 10
41.4342
 20
1.73364
 30
0.0
 11
41.5402
 21
1.64017
 31
0.0
  0
LINE
  5
2E1
  8
0
 62
1
 10
41.5402
 20
1.64017
 30
0.0
 11
41.6402
 21
1.54022
 31
0.0
  0
LINE
  5
2E2
  8
0
 62
1
 10
41.6402
 20
1.54022
 30
0.0
 11
41.7336
 21
1.43419
 31
0.0
  0
LINE
  5
2E3
  8
0
 62
1
 10
41.7336
 20
1.43419
 30
0.0
 11
41.8203
 21
1.32251
 31
0.0
  0
LINE
  5
2E4
  8
0
 62
1
 10
41.8203
 20
1.32251
 30
0.0
 11
41.8997
 21
1.2056
 31
0.0
  0
LINE
  5
2E5
  8
0
 62
1
 10
41.8997
 20
1.2056
 30
0.0
 11
41.9717
 21
1.08394
 31
0.0
  0
LINE
  5
2E6
  8
0
 62
1
 10
41.9717
 20
1.08394
 30
0.0
 11
42.0359
 21
0.957993
 31
0.0
  0
LINE
  5
2E7
  8
0
 62
1
 10
42.0359
 20
0.957993
 30
0.0
 11
42.092
 21
0.828278
 31
0.0
  0
LINE
  5
2E8
  8
0
 62
1
 10
42.092
 20
0.828278
 30
0.0
 11
42.1399
 21
0.695282
 31
0.0
  0
LINE
  5
2E9
  8
0
 62
1
 10
42.1399
 20
0.695282
 30
0.0
 11
42.1793
 21
0.55954
 31
0.0
  0
LINE
  5
2EA
  8
0
 62
1
 10
42.1793
 20
0.55954
 30
0.0
 11
42.2101
 21
0.4216
 31
0.0
  0
LINE
  5
2EB
  8
0
 62
1
 10
42.2101
 20
0.4216
 30
0.0
 11
42.2323
 21
0.281998
 31
0.0
  0
LINE
  5
2EC
  8
0
 62
1
 10
42.2323
 20
0.281998
 30
0.0
 11
42.2456
 21
0.141266
 31
0.0
  0
LINE
  5
2ED
  8
0
 62
1
 10
42.2456
 20
0.141266
 30
0.0
 11
42.25
 21
0.0
 31
0.0
  0
LINE
  5
2EE
  8
0
 62
1
 10
42.25
 20
0.0
 30
0.0
 11
42.2456
 21
-0.141266
 31
0.0
  0
LINE
  5
2EF
  8
0
 62
1
 10
42.2456
 20
-0.141266
 30
0.0
 11
42.2323
 21
-0.281998
 31
0.0
  0
LINE
  5
2F0
  8
0
 62
1
 10
42.2323
 20
-0.281998
 30
0.0
 11
42.2101
 21
-0.4216
 31
0.0
  0
LINE
  5
2F1
  8
0
 62
1
 10
42.2101
 20
-0.4216
 30
0.0
 11
42.1793
 21
-0.55954
 31
0.0
  0
LINE
  5
2F2
  8
0
 62
1
 10
42.1793
 20
-0.55954
 30
0.0
 11
42.1399
 21
-0.695282
 31
0.0
  0
LINE
  5
2F3
  8
0
 62
1
 10
42.1399
 20
-0.695282
 30
0.0
 11
42.092
 21
-0.828278
 31
0.0
  0
LINE
  5
2F4
  8
0
 62
1
 10
42.092
 20
-0.828278
 30
0.0
 11
42.0359
 21
-0.957993
 31
0.0
  0
LINE
  5
2F5
  8
0
 62
1
 10
42.0359
 20
-0.957993
 30
0.0
 11
41.9717
 21
-1.08394
 31
0.0
  0
LINE
  5
2F6
  8
0
 62
1
 10
41.9717
 20
-1.08394
 30
0.0
 11
41.8997
 21
-1.2056
 31
0.0
  0
LINE
  5
2F7
  8
0
 62
1
 10
41.8997
 20
-1.2056
 30
0.0
 11
41.8203
 21
-1.32251
 31
0.0
  0
LINE
  5
2F8
  8
0
 62
1
 10
41.8203
 20
-1.32251
 30
0.0
 11
41.7336
 21
-1.43419
 31
0.0
  0
LINE
  5
2F9
  8
0
 62
1
 10
41.7336
 20
-1.43419
 30
0.0
 11
41.6402
 21
-1.54022
 31
0.0
  0
LINE
  5
2FA
  8
0
 62
1
 10
41.6402
 20
-1.54022
 30
0.0
 11
41.5402
 21
-1.64017
 31
0.0
  0
LINE
  5
2FB
  8
0
 62
1
 10
41.5402
 20
-1.64017
 30
0.0
 11
41.4342
 21
-1.73364
 31
0.0
  0
LINE
  5
2FC
  8
0
 62
1
 10
41.4342
 20
-1.73364
 30
0.0
 11
41.3225
 21
-1.82028
 31
0.0
  0
LINE
  5
2FD
  8
0
 62
1
 10
41.3225
 20
-1.82028
 30
0.0
 11
41.2056
 21
-1.89973
 31
0.0
  0
LINE
  5
2FE
  8
0
 62
1
 10
41.2056
 20
-1.89973
 30
0.0
 11
41.0839
 21
-1.97168
 31
0.0
  0
LINE
  5
2FF
  8
0
 62
1
 10
41.0839
 20
-1.97168
 30
0.0
 11
40.958
 21
-2.03586
 31
0.0
  0
LINE
  5
300
  8
0
 62
1
 10
40.958
 20
-2.03586
 30
0.0
 11
40.8283
 21
-2.092
 31
0.0
  0
LINE
  5
301
  8
0
 62
1
 10
40.8283
 20
-2.092
 30
0.0
 11
40.6953
 21
-2.13986
 31
0.0
  0
LINE
  5
302
  8
0
 62
1
 10
40.6953
 20
-2.13986
 30
0.0
 11
40.5595
 21
-2.17931
 31
0.0
  0
LINE
  5
303
  8
0
 62
1
 10
40.5595
 20
-2.17931
 30
0.0
 11
40.4216
 21
-2.21014
 31
0.0
  0
LINE
  5
304
  8
0
 62
1
 10
40.4216
 20
-2.21014
 30
0.0
 11
40.282
 21
-2.23225
 31
0.0
  0
LINE
  5
305
  8
0
 62
1
 10
40.282
 20
-2.23225
 30
0.0
 11
40.1413
 21
-2.24556
 31
0.0
  0
LINE
  5
306
  8
0
 62
1
 10
40.1413
 20
-2.24556
 30
0.0
 11
40.0
 21
-2.25
 31
0.0
  0
LINE
  5
307
  8
0
 62
1
 10
40.0
 20
-2.25
 30
0.0
 11
39.8587
 21
-2.24556
 31
0.0
  0
LINE
  5
308
  8
0
 62
1
 10
54.0
 20
4.0
 30
0.0
 11
46.0
 21
4.0
 31
0.0
  0
LINE
  5
309
  8
0
 62
1
 10
46.0
 20
4.0
 30
0.0
 11
46.0
 21
-4.0
 31
0.0
  0
LINE
  5
30A
  8
0
 62
1
 10
46.0
 20
-4.0
 30
0.0
 11
54.0
 21
-4.0
 31
0.0
  0
LINE
  5
30B
  8
0
 62
1
 10
54.0
 20
-4.0
 30
0.0
 11
54.0
 21
4.0
 31
0.0
  0
LINE
  5
30C
  8
0
 62
1
 10
49.8587
 20
-2.24556
 30
0.0
 11
49.718
 21
-2.23225
 31
0.0
  0
LINE
  5
30D
  8
0
 62
1
 10
49.718
 20
-2.23225
 30
0.0
 11
49.5784
 21
-2.21014
 31
0.0
  0
LINE
  5
30E
  8
0
 62
1
 10
49.5784
 20
-2.21014
 30
0.0
 11
49.4405
 21
-2.17931
 31
0.0
  0
LINE
  5
30F
  8
0
 62
1
 10
49.4405
 20
-2.17931
 30
0.0
 11
49.3047
 21
-2.13986
 31
0.0
  0
LINE
  5
310
  8
0
 62
1
 10
49.3047
 20
-2.13986
 30
0.0
 11
49.1717
 21
-2.092
 31
0.0
  0
LINE
  5
311
  8
0
 62
1
 10
49.1717
 20
-2.092
 30
0.0
 11
49.042
 21
-2.03586
 31
0.0
  0
LINE
  5
312
  8
0
 62
1
 10
49.042
 20
-2.03586
 30
0.0
 11
48.9161
 21
-1.97168
 31
0.0
  0
LINE
  5
313
  8
0
 62
1
 10
48.9161
 20
-1.97168
 30
0.0
 11
48.7944
 21
-1.89973
 31
0.0
  0
LINE
  5
314
  8
0
 62
1
 10
48.7944
 20
-1.89973
 30
0.0
 11
48.6775
 21
-1.82028
 31
0.0
  0
LINE
  5
315
  8
0
 62
1
 10
48.6775
 20
-1.82028
 30
0.0
 11
48.5658
 21
-1.73364
 31
0.0
  0
LINE
  5
316
  8
0
 62
1
 10
48.5658
 20
-1.73364
 30
0.0
 11
48.4598
 21
-1.64017
 31
0.0
  0
LINE
  5
317
  8
0
 62
1
 10
48.4598
 20
-1.64017
 30
0.0
 11
48.3598
 21
-1.54022
 31
0.0
  0
LINE
  5
318
  8
0
 62
1
 10
48.3598
 20
-1.54022
 30
0.0
 11
48.2664
 21
-1.43419
 31
0.0
  0
LINE
  5
319
  8
0
 62
1
 10
48.2664
 20
-1.43419
 30
0.0
 11
48.1797
 21
-1.32251
 31
0.0
  0
LINE
  5
31A
  8
0
 62
1
 10
48.1797
 20
-1.32251
 30
0.0
 11
48.1003
 21
-1.2056
 31
0.0
  0
LINE
  5
31B
  8
0
 62
1
 10
48.1003
 20
-1.2056
 30
0.0
 11
48.0283
 21
-1.08394
 31
0.0
  0
LINE
  5
31C
  8
0
 62
1
 10
48.0283
 20
-1.08394
 30
0.0
 11
47.9641
 21
-0.957993
 31
0.0
  0
LINE
  5
31D
  8
0
 62
1
 10
47.9641
 20
-0.957993
 30
0.0
 11
47.908
 21
-0.828278
 31
0.0
  0
LINE
  5
31E
  8
0
 62
1
 10
47.908
 20
-0.828278
 30
0.0
 11
47.8601
 21
-0.695282
 31
0.0
  0
LINE
  5
31F
  8
0
 62
1
 10
47.8601
 20
-0.695282
 30
0.0
 11
47.8207
 21
-0.55954
 31
0.0
  0
LINE
  5
320
  8
0
 62
1
 10
47.8207
 20
-0.55954
 30
0.0
 11
47.7899
 21
-0.4216
 31
0.0
  0
LINE
  5
321
  8
0
 62
1
 10
47.7899
 20
-0.4216
 30
0.0
 11
47.7677
 21
-0.281998
 31
0.0
  0
LINE
  5
322
  8
0
 62
1
 10
47.7677
 20
-0.281998
 30
0.0
 11
47.7544
 21
-0.141266
 31
0.0
  0
LINE
  5
323
  8
0
 62
1
 10
47.7544
 20
-0.141266
 30
0.0
 11
47.75
 21
0.0
 31
0.0
  0
LINE
  5
324
  8
0
 62
1
 10
47.75
 20
0.0
 30
0.0
 11
47.7544
 21
0.141266
 31
0.0
  0
LINE
  5
325
  8
0
 62
1
 10
47.7544
 20
0.141266
 30
0.0
 11
47.7677
 21
0.281998
 31
0.0
  0
LINE
  5
326
  8
0
 62
1
 10
47.7677
 20
0.281998
 30
0.0
 11
47.7899
 21
0.4216
 31
0.0
  0
LINE
  5
327
  8
0
 62
1
 10
47.7899
 20
0.4216
 30
0.0
 11
47.8207
 21
0.55954
 31
0.0
  0
LINE
  5
328
  8
0
 62
1
 10
47.8207
 20
0.55954
 30
0.0
 11
47.8601
 21
0.695282
 31
0.0
  0
LINE
  5
329
  8
0
 62
1
 10
47.8601
 20
0.695282
 30
0.0
 11
47.908
 21
0.828278
 31
0.0
  0
LINE
  5
32A
  8
0
 62
1
 10
47.908
 20
0.828278
 30
0.0
 11
47.9641
 21
0.957993
 31
0.0
  0
LINE
  5
32B
  8
0
 62
1
 10
47.9641
 20
0.957993
 30
0.0
 11
48.0283
 21
1.08394
 31
0.0
  0
LINE
  5
32C
  8
0
 62
1
 10
48.0283
 20
1.08394
 30
0.0
 11
48.1003
 21
1.2056
 31
0.0
  0
LINE
  5
32D
  8
0
 62
1
 10
48.1003
 20
1.2056
 30
0.0
 11
48.1797
 21
1.32251
 31
0.0
  0
LINE
  5
32E
  8
0
 62
1
 10
48.1797
 20
1.32251
 30
0.0
 11
48.2664
 21
1.43419
 31
0.0
  0
LINE
  5
32F
  8
0
 62
1
 10
48.2664
 20
1.43419
 30
0.0
 11
48.3598
 21
1.54022
 31
0.0
  0
LINE
  5
330
  8
0
 62
1
 10
48.3598
 20
1.54022
 30
0.0
 11
48.4598
 21
1.64017
 31
0.0
  0
LINE
  5
331
  8
0
 62
1
 10
48.4598
 20
1.64017
 30
0.0
 11
48.5658
 21
1.73364
 31
0.0
  0
LINE
  5
332
  8
0
 62
1
 10
48.5658
 20
1.73364
 30
0.0
 11
48.6775
 21
1.82028
 31
0.0
  0
LINE
  5
333
  8
0
 62
1
 10
48.6775
 20
1.82028
 30
0.0
 11
48.7944
 21
1.89973
 31
0.0
  0
LINE
  5
334
  8
0
 62
1
 10
48.7944
 20
1.89973
 30
0.0
 11
48.9161
 21
1.97168
 31
0.0
  0
LINE
  5
335
  8
0
 62
1
 10
48.9161
 20
1.97168
 30
0.0
 11
49.042
 21
2.03586
 31
0.0
  0
LINE
  5
336
  8
0
 62
1
 10
49.042
 20
2.03586
 30
0.0
 11
49.1717
 21
2.092
 31
0.0
  0
LINE
  5
337
  8
0
 62
1
 10
49.1717
 20
2.092
 30
0.0
 11
49.3047
 21
2.13986
 31
0.0
  0
LINE
  5
338
  8
0
 62
1
 10
49.3047
 20
2.13986
 30
0.0
 11
49.4405
 21
2.17931
 31
0.0
  0
LINE
  5
339
  8
0
 62
1
 10
49.4405
 20
2.17931
 30
0.0
 11
49.5784
 21
2.21014
 31
0.0
  0
LINE
  5
33A
  8
0
 62
1
 10
49.5784
 20
2.21014
 30
0.0
 11
49.718
 21
2.23225
 31
0.0
  0
LINE
  5
33B
  8
0
 62
1
 10
49.718
 20
2.23225
 30
0.0
 11
49.8587
 21
2.24556
 31
0.0
  0
LINE
  5
33C
  8
0
 62
1
 10
49.8587
 20
2.24556
 30
0.0
 11
50.0
 21
2.25
 31
0.0
  0
LINE
  5
33D
  8
0
 62
1
 10
50.0
 20
2.25
 30
0.0
 11
50.1413
 21
2.24556
 31
0.0
  0
LINE
  5
33E
  8
0
 62
1
 10
50.1413
 20
2.24556
 30
0.0
 11
50.282
 21
2.23225
 31
0.0
  0
LINE
  5
33F
  8
0
 62
1
 10
50.282
 20
2.23225
 30
0.0
 11
50.4216
 21
2.21014
 31
0.0
  0
LINE
  5
340
  8
0
 62
1
 10
50.4216
 20
2.21014
 30
0.0
 11
50.5595
 21
2.17931
 31
0.0
  0
LINE
  5
341
  8
0
 62
1
 10
50.5595
 20
2.17931
 30
0.0
 11
50.6953
 21
2.13986
 31
0.0
  0
LINE
  5
342
  8
0
 62
1
 10
50.6953
 20
2.13986
 30
0.0
 11
50.8283
 21
2.092
 31
0.0
  0
LINE
  5
343
  8
0
 62
1
 10
50.8283
 20
2.092
 30
0.0
 11
50.958
 21
2.03586
 31
0.0
  0
LINE
  5
344
  8
0
 62
1
 10
50.958
 20
2.03586
 30
0.0
 11
51.0839
 21
1.97168
 31
0.0
  0
LINE
  5
345
  8
0
 62
1
 10
51.0839
 20
1.97168
 30
0.0
 11
51.2056
 21
1.89973
 31
0.0
  0
LINE
  5
346
  8
0
 62
1
 10
51.2056
 20
1.89973
 30
0.0
 11
51.3225
 21
1.82028
 31
0.0
  0
LINE
  5
347
  8
0
 62
1
 10
51.3225
 20
1.82028
 30
0.0
 11
51.4342
 21
1.73364
 31
0.0
  0
LINE
  5
348
  8
0
 62
1
 10
51.4342
 20
1.73364
 30
0.0
 11
51.5402
 21
1.64017
 31
0.0
  0
LINE
  5
349
  8
0
 62
1
 10
51.5402
 20
1.64017
 30
0.0
 11
51.6402
 21
1.54022
 31
0.0
  0
LINE
  5
34A
  8
0
 62
1
 10
51.6402
 20
1.54022
 30
0.0
 11
51.7336
 21
1.43419
 31
0.0
  0
LINE
  5
34B
  8
0
 62
1
 10
51.7336
 20
1.43419
 30
0.0
 11
51.8203
 21
1.32251
 31
0.0
  0
LINE
  5
34C
  8
0
 62
1
 10
51.8203
 20
1.32251
 30
0.0
 11
51.8997
 21
1.2056
 31
0.0
  0
LINE
  5
34D
  8
0
 62
1
 10
51.8997
 20
1.2056
 30
0.0
 11
51.9717
 21
1.08394
 31
0.0
  0
LINE
  5
34E
  8
0
 62
1
 10
51.9717
 20
1.08394
 30
0.0
 11
52.0359
 21
0.957993
 31
0.0
  0
LINE
  5
34F
  8
0
 62
1
 10
52.0359
 20
0.957993
 30
0.0
 11
52.092
 21
0.828278
 31
0.0
  0
LINE
  5
350
  8
0
 62
1
 10
52.092
 20
0.828278
 30
0.0
 11
52.1399
 21
0.695282
 31
0.0
  0
LINE
  5
351
  8
0
 62
1
 10
52.1399
 20
0.695282
 30
0.0
 11
52.1793
 21
0.55954
 31
0.0
  0
LINE
  5
352
  8
0
 62
1
 10
52.1793
 20
0.55954
 30
0.0
 11
52.2101
 21
0.4216
 31
0.0
  0
LINE
  5
353
  8
0
 62
1
 10
52.2101
 20
0.4216
 30
0.0
 11
52.2323
 21
0.281998
 31
0.0
  0
LINE
  5
354
  8
0
 62
1
 10
52.2323
 20
0.281998
 30
0.0
 11
52.2456
 21
0.141266
 31
0.0
  0
LINE
  5
355
  8
0
 62
1
 10
52.2456
 20
0.141266
 30
0.0
 11
52.25
 21
0.0
 31
0.0
  0
LINE
  5
356
  8
0
 62
1
 10
52.25
 20
0.0
 30
0.0
 11
52.2456
 21
-0.141266
 31
0.0
  0
LINE
  5
357
  8
0
 62
1
 10
52.2456
 20
-0.141266
 30
0.0
 11
52.2323
 21
-0.281998
 31
0.0
  0
LINE
  5
358
  8
0
 62
1
 10
52.2323
 20
-0.281998
 30
0.0
 11
52.2101
 21
-0.4216
 31
0.0
  0
LINE
  5
359
  8
0
 62
1
 10
52.2101
 20
-0.4216
 30
0.0
 11
52.1793
 21
-0.55954
 31
0.0
  0
LINE
  5
35A
  8
0
 62
1
 10
52.1793
 20
-0.55954
 30
0.0
 11
52.1399
 21
-0.695282
 31
0.0
  0
LINE
  5
35B
  8
0
 62
1
 10
52.1399
 20
-0.695282
 30
0.0
 11
52.092
 21
-0.828278
 31
0.0
  0
LINE
  5
35C
  8
0
 62
1
 10
52.092
 20
-0.828278
 30
0.0
 11
52.0359
 21
-0.957993
 31
0.0
  0
LINE
  5
35D
  8
0
 62
1
 10
52.0359
 20
-0.957993
 30
0.0
 11
51.9717
 21
-1.08394
 31
0.0
  0
LINE
  5
35E
  8
0
 62
1
 10
51.9717
 20
-1.08394
 30
0.0
 11
51.8997
 21
-1.2056
 31
0.0
  0
LINE
  5
35F
  8
0
 62
1
 10
51.8997
 20
-1.2056
 30
0.0
 11
51.8203
 21
-1.32251
 31
0.0
  0
LINE
  5
360
  8
0
 62
1
 10
51.8203
 20
-1.32251
 30
0.0
 11
51.7336
 21
-1.43419
 31
0.0
  0
LINE
  5
361
  8
0
 62
1
 10
51.7336
 20
-1.43419
 30
0.0
 11
51.6402
 21
-1.54022
 31
0.0
  0
LINE
  5
362
  8
0
 62
1
 10
51.6402
 20
-1.54022
 30
0.0
 11
51.5402
 21
-1.64017
 31
0.0
  0
LINE
  5
363
  8
0
 62
1
 10
51.5402
 20
-1.64017
 30
0.0
 11
51.4342
 21
-1.73364
 31
0.0
  0
LINE
  5
364
  8
0
 62
1
 10
51.4342
 20
-1.73364
 30
0.0
 11
51.3225
 21
-1.82028
 31
0.0
  0
LINE
  5
365
  8
0
 62
1
 10
51.3225
 20
-1.82028
 30
0.0
 11
51.2056
 21
-1.89973
 31
0.0
  0
LINE
  5
366
  8
0
 62
1
 10
51.2056
 20
-1.89973
 30
0.0
 11
51.0839
 21
-1.97168
 31
0.0
  0
LINE
  5
367
  8
0
 62
1
 10
51.0839
 20
-1.97168
 30
0.0
 11
50.958
 21
-2.03586
 31
0.0
  0
LINE
  5
368
  8
0
 62
1
 10
50.958
 20
-2.03586
 30
0.0
 11
50.8283
 21
-2.092
 31
0.0
  0
LINE
  5
369
  8
0
 62
1
 10
50.8283
 20
-2.092
 30
0.0
 11
50.6953
 21
-2.13986
 31
0.0
  0
LINE
  5
36A
  8
0
 62
1
 10
50.6953
 20
-2.13986
 30
0.0
 11
50.5595
 21
-2.17931
 31
0.0
  0
LINE
  5
36B
  8
0
 62
1
 10
50.5595
 20
-2.17931
 30
0.0
 11
50.4216
 21
-2.21014
 31
0.0
  0
LINE
  5
36C
  8
0
 62
1
 10
50.4216
 20
-2.21014
 30
0.0
 11
50.282
 21
-2.23225
 31
0.0
  0
LINE
  5
36D
  8
0
 62
1
 10
50.282
 20
-2.23225
 30
0.0
 11
50.1413
 21
-2.24556
 31
0.0
  0
LINE
  5
36E
  8
0
 62
1
 10
50.1413
 20
-2.24556
 30
0.0
 11
50.0
 21
-2.25
 31
0.0
  0
LINE
  5
36F
  8
0
 62
1
 10
50.0
 20
-2.25
 30
0.0
 11
49.8587
 21
-2.24556
 31
0.0
  0
LINE
  5
370
  8
0
 62
1
 10
64.0
 20
4.0
 30
0.0
 11
56.0
 21
4.0
 31
0.0
  0
LINE
  5
371
  8
0
 62
1
 10
56.0
 20
4.0
 30
0.0
 11
56.0
 21
-4.0
 31
0.0
  0
LINE
  5
372
  8
0
 62
1
 10
56.0
 20
-4.0
 30
0.0
 11
64.0
 21
-4.0
 31
0.0
  0
LINE
  5
373
  8
0
 62
1
 10
64.0
 20
-4.0
 30
0.0
 11
64.0
 21
4.0
 31
0.0
  0
LINE
  5
374
  8
0
 62
1
 10
59.8587
 20
-2.24556
 30
0.0
 11
59.718
 21
-2.23225
 31
0.0
  0
LINE
  5
375
  8
0
 62
1
 10
59.718
 20
-2.23225
 30
0.0
 11
59.5784
 21
-2.21014
 31
0.0
  0
LINE
  5
376
  8
0
 62
1
 10
59.5784
 20
-2.21014
 30
0.0
 11
59.4405
 21
-2.17931
 31
0.0
  0
LINE
  5
377
  8
0
 62
1
 10
59.4405
 20
-2.17931
 30
0.0
 11
59.3047
 21
-2.13986
 31
0.0
  0
LINE
  5
378
  8
0
 62
1
 10
59.3047
 20
-2.13986
 30
0.0
 11
59.1717
 21
-2.092
 31
0.0
  0
LINE
  5
379
  8
0
 62
1
 10
59.1717
 20
-2.092
 30
0.0
 11
59.042
 21
-2.03586
 31
0.0
  0
LINE
  5
37A
  8
0
 62
1
 10
59.042
 20
-2.03586
 30
0.0
 11
58.9161
 21
-1.97168
 31
0.0
  0
LINE
  5
37B
  8
0
 62
1
 10
58.9161
 20
-1.97168
 30
0.0
 11
58.7944
 21
-1.89973
 31
0.0
  0
LINE
  5
37C
  8
0
 62
1
 10
58.7944
 20
-1.89973
 30
0.0
 11
58.6775
 21
-1.82028
 31
0.0
  0
LINE
  5
37D
  8
0
 62
1
 10
58.6775
 20
-1.82028
 30
0.0
 11
58.5658
 21
-1.73364
 31
0.0
  0
LINE
  5
37E
  8
0
 62
1
 10
58.5658
 20
-1.73364
 30
0.0
 11
58.4598
 21
-1.64017
 31
0.0
  0
LINE
  5
37F
  8
0
 62
1
 10
58.4598
 20
-1.64017
 30
0.0
 11
58.3598
 21
-1.54022
 31
0.0
  0
LINE
  5
380
  8
0
 62
1
 10
58.3598
 20
-1.54022
 30
0.0
 11
58.2664
 21
-1.43419
 31
0.0
  0
LINE
  5
381
  8
0
 62
1
 10
58.2664
 20
-1.43419
 30
0.0
 11
58.1797
 21
-1.32251
 31
0.0
  0
LINE
  5
382
  8
0
 62
1
 10
58.1797
 20
-1.32251
 30
0.0
 11
58.1003
 21
-1.2056
 31
0.0
  0
LINE
  5
383
  8
0
 62
1
 10
58.1003
 20
-1.2056
 30
0.0
 11
58.0283
 21
-1.08394
 31
0.0
  0
LINE
  5
384
  8
0
 62
1
 10
58.0283
 20
-1.08394
 30
0.0
 11
57.9641
 21
-0.957993
 31
0.0
  0
LINE
  5
385
  8
0
 62
1
 10
57.9641
 20
-0.957993
 30
0.0
 11
57.908
 21
-0.828278
 31
0.0
  0
LINE
  5
386
  8
0
 62
1
 10
57.908
 20
-0.828278
 30
0.0
 11
57.8601
 21
-0.695282
 31
0.0
  0
LINE
  5
387
  8
0
 62
1
 10
57.8601
 20
-0.695282
 30
0.0
 11
57.8207
 21
-0.55954
 31
0.0
  0
LINE
  5
388
  8
0
 62
1
 10
57.8207
 20
-0.55954
 30
0.0
 11
57.7899
 21
-0.4216
 31
0.0
  0
LINE
  5
389
  8
0
 62
1
 10
57.7899
 20
-0.4216
 30
0.0
 11
57.7677
 21
-0.281998
 31
0.0
  0
LINE
  5
38A
  8
0
 62
1
 10
57.7677
 20
-0.281998
 30
0.0
 11
57.7544
 21
-0.141266
 31
0.0
  0
LINE
  5
38B
  8
0
 62
1
 10
57.7544
 20
-0.141266
 30
0.0
 11
57.75
 21
0.0
 31
0.0
  0
LINE
  5
38C
  8
0
 62
1
 10
57.75
 20
0.0
 30
0.0
 11
57.7544
 21
0.141266
 31
0.0
  0
LINE
  5
38D
  8
0
 62
1
 10
57.7544
 20
0.141266
 30
0.0
 11
57.7677
 21
0.281998
 31
0.0
  0
LINE
  5
38E
  8
0
 62
1
 10
57.7677
 20
0.281998
 30
0.0
 11
57.7899
 21
0.4216
 31
0.0
  0
LINE
  5
38F
  8
0
 62
1
 10
57.7899
 20
0.4216
 30
0.0
 11
57.8207
 21
0.55954
 31
0.0
  0
LINE
  5
390
  8
0
 62
1
 10
57.8207
 20
0.55954
 30
0.0
 11
57.8601
 21
0.695282
 31
0.0
  0
LINE
  5
391
  8
0
 62
1
 10
57.8601
 20
0.695282
 30
0.0
 11
57.908
 21
0.828278
 31
0.0
  0
LINE
  5
392
  8
0
 62
1
 10
57.908
 20
0.828278
 30
0.0
 11
57.9641
 21
0.957993
 31
0.0
  0
LINE
  5
393
  8
0
 62
1
 10
57.9641
 20
0.957993
 30
0.0
 11
58.0283
 21
1.08394
 31
0.0
  0
LINE
  5
394
  8
0
 62
1
 10
58.0283
 20
1.08394
 30
0.0
 11
58.1003
 21
1.2056
 31
0.0
  0
LINE
  5
395
  8
0
 62
1
 10
58.1003
 20
1.2056
 30
0.0
 11
58.1797
 21
1.32251
 31
0.0
  0
LINE
  5
396
  8
0
 62
1
 10
58.1797
 20
1.32251
 30
0.0
 11
58.2664
 21
1.43419
 31
0.0
  0
LINE
  5
397
  8
0
 62
1
 10
58.2664
 20
1.43419
 30
0.0
 11
58.3598
 21
1.54022
 31
0.0
  0
LINE
  5
398
  8
0
 62
1
 10
58.3598
 20
1.54022
 30
0.0
 11
58.4598
 21
1.64017
 31
0.0
  0
LINE
  5
399
  8
0
 62
1
 10
58.4598
 20
1.64017
 30
0.0
 11
58.5658
 21
1.73364
 31
0.0
  0
LINE
  5
39A
  8
0
 62
1
 10
58.5658
 20
1.73364
 30
0.0
 11
58.6775
 21
1.82028
 31
0.0
  0
LINE
  5
39B
  8
0
 62
1
 10
58.6775
 20
1.82028
 30
0.0
 11
58.7944
 21
1.89973
 31
0.0
  0
LINE
  5
39C
  8
0
 62
1
 10
58.7944
 20
1.89973
 30
0.0
 11
58.9161
 21
1.97168
 31
0.0
  0
LINE
  5
39D
  8
0
 62
1
 10
58.9161
 20
1.97168
 30
0.0
 11
59.042
 21
2.03586
 31
0.0
  0
LINE
  5
39E
  8
0
 62
1
 10
59.042
 20
2.03586
 30
0.0
 11
59.1717
 21
2.092
 31
0.0
  0
LINE
  5
39F
  8
0
 62
1
 10
59.1717
 20
2.092
 30
0.0
 11
59.3047
 21
2.13986
 31
0.0
  0
LINE
  5
3A0
  8
0
 62
1
 10
59.3047
 20
2.13986
 30
0.0
 11
59.4405
 21
2.17931
 31
0.0
  0
LINE
  5
3A1
  8
0
 62
1
 10
59.4405
 20
2.17931
 30
0.0
 11
59.5784
 21
2.21014
 31
0.0
  0
LINE
  5
3A2
  8
0
 62
1
 10
59.5784
 20
2.21014
 30
0.0
 11
59.718
 21
2.23225
 31
0.0
  0
LINE
  5
3A3
  8
0
 62
1
 10
59.718
 20
2.23225
 30
0.0
 11
59.8587
 21
2.24556
 31
0.0
  0
LINE
  5
3A4
  8
0
 62
1
 10
59.8587
 20
2.24556
 30
0.0
 11
60.0
 21
2.25
 31
0.0
  0
LINE
  5
3A5
  8
0
 62
1
 10
60.0
 20
2.25
 30
0.0
 11
60.1413
 21
2.24556
 31
0.0
  0
LINE
  5
3A6
  8
0
 62
1
 10
60.1413
 20
2.24556
 30
0.0
 11
60.282
 21
2.23225
 31
0.0
  0
LINE
  5
3A7
  8
0
 62
1
 10
60.282
 20
2.23225
 30
0.0
 11
60.4216
 21
2.21014
 31
0.0
  0
LINE
  5
3A8
  8
0
 62
1
 10
60.4216
 20
2.21014
 30
0.0
 11
60.5595
 21
2.17931
 31
0.0
  0
LINE
  5
3A9
  8
0
 62
1
 10
60.5595
 20
2.17931
 30
0.0
 11
60.6953
 21
2.13986
 31
0.0
  0
LINE
  5
3AA
  8
0
 62
1
 10
60.6953
 20
2.13986
 30
0.0
 11
60.8283
 21
2.092
 31
0.0
  0
LINE
  5
3AB
  8
0
 62
1
 10
60.8283
 20
2.092
 30
0.0
 11
60.958
 21
2.03586
 31
0.0
  0
LINE
  5
3AC
  8
0
 62
1
 10
60.958
 20
2.03586
 30
0.0
 11
61.0839
 21
1.97168
 31
0.0
  0
LINE
  5
3AD
  8
0
 62
1
 10
61.0839
 20
1.97168
 30
0.0
 11
61.2056
 21
1.89973
 31
0.0
  0
LINE
  5
3AE
  8
0
 62
1
 10
61.2056
 20
1.89973
 30
0.0
 11
61.3225
 21
1.82028
 31
0.0
  0
LINE
  5
3AF
  8
0
 62
1
 10
61.3225
 20
1.82028
 30
0.0
 11
61.4342
 21
1.73364
 31
0.0
  0
LINE
  5
3B0
  8
0
 62
1
 10
61.4342
 20
1.73364
 30
0.0
 11
61.5402
 21
1.64017
 31
0.0
  0
LINE
  5
3B1
  8
0
 62
1
 10
61.5402
 20
1.64017
 30
0.0
 11
61.6402
 21
1.54022
 31
0.0
  0
LINE
  5
3B2
  8
0
 62
1
 10
61.6402
 20
1.54022
 30
0.0
 11
61.7336
 21
1.43419
 31
0.0
  0
LINE
  5
3B3
  8
0
 62
1
 10
61.7336
 20
1.43419
 30
0.0
 11
61.8203
 21
1.32251
 31
0.0
  0
LINE
  5
3B4
  8
0
 62
1
 10
61.8203
 20
1.32251
 30
0.0
 11
61.8997
 21
1.2056
 31
0.0
  0
LINE
  5
3B5
  8
0
 62
1
 10
61.8997
 20
1.2056
 30
0.0
 11
61.9717
 21
1.08394
 31
0.0
  0
LINE
  5
3B6
  8
0
 62
1
 10
61.9717
 20
1.08394
 30
0.0
 11
62.0359
 21
0.957993
 31
0.0
  0
LINE
  5
3B7
  8
0
 62
1
 10
62.0359
 20
0.957993
 30
0.0
 11
62.092
 21
0.828278
 31
0.0
  0
LINE
  5
3B8
  8
0
 62
1
 10
62.092
 20
0.828278
 30
0.0
 11
62.1399
 21
0.695282
 31
0.0
  0
LINE
  5
3B9
  8
0
 62
1
 10
62.1399
 20
0.695282
 30
0.0
 11
62.1793
 21
0.55954
 31
0.0
  0
LINE
  5
3BA
  8
0
 62
1
 10
62.1793
 20
0.55954
 30
0.0
 11
62.2101
 21
0.4216
 31
0.0
  0
LINE
  5
3BB
  8
0
 62
1
 10
62.2101
 20
0.4216
 30
0.0
 11
62.2323
 21
0.281998
 31
0.0
  0
LINE
  5
3BC
  8
0
 62
1
 10
62.2323
 20
0.281998
 30
0.0
 11
62.2456
 21
0.141266
 31
0.0
  0
LINE
  5
3BD
  8
0
 62
1
 10
62.2456
 20
0.141266
 30
0.0
 11
62.25
 21
0.0
 31
0.0
  0
LINE
  5
3BE
  8
0
 62
1
 10
62.25
 20
0.0
 30
0.0
 11
62.2456
 21
-0.141266
 31
0.0
  0
LINE
  5
3BF
  8
0
 62
1
 10
62.2456
 20
-0.141266
 30
0.0
 11
62.2323
 21
-0.281998
 31
0.0
  0
LINE
  5
3C0
  8
0
 62
1
 10
62.2323
 20
-0.281998
 30
0.0
 11
62.2101
 21
-0.4216
 31
0.0
  0
LINE
  5
3C1
  8
0
 62
1
 10
62.2101
 20
-0.4216
 30
0.0
 11
62.1793
 21
-0.55954
 31
0.0
  0
LINE
  5
3C2
  8
0
 62
1
 10
62.1793
 20
-0.55954
 30
0.0
 11
62.1399
 21
-0.695282
 31
0.0
  0
LINE
  5
3C3
  8
0
 62
1
 10
62.1399
 20
-0.695282
 30
0.0
 11
62.092
 21
-0.828278
 31
0.0
  0
LINE
  5
3C4
  8
0
 62
1
 10
62.092
 20
-0.828278
 30
0.0
 11
62.0359
 21
-0.957993
 31
0.0
  0
LINE
  5
3C5
  8
0
 62
1
 10
62.0359
 20
-0.957993
 30
0.0
 11
61.9717
 21
-1.08394
 31
0.0
  0
LINE
  5
3C6
  8
0
 62
1
 10
61.9717
 20
-1.08394
 30
0.0
 11
61.8997
 21
-1.2056
 31
0.0
  0
LINE
  5
3C7
  8
0
 62
1
 10
61.8997
 20
-1.2056
 30
0.0
 11
61.8203
 21
-1.32251
 31
0.0
  0
LINE
  5
3C8
  8
0
 62
1
 10
61.8203
 20
-1.32251
 30
0.0
 11
61.7336
 21
-1.43419
 31
0.0
  0
LINE
  5
3C9
  8
0
 62
1
 10
61.7336
 20
-1.43419
 30
0.0
 11
61.6402
 21
-1.54022
 31
0.0
  0
LINE
  5
3CA
  8
0
 62
1
 10
61.6402
 20
-1.54022
 30
0.0
 11
61.5402
 21
-1.64017
 31
0.0
  0
LINE
  5
3CB
  8
0
 62
1
 10
61.5402
 20
-1.64017
 30
0.0
 11
61.4342
 21
-1.73364
 31
0.0
  0
LINE
  5
3CC
  8
0
 62
1
 10
61.4342
 20
-1.73364
 30
0.0
 11
61.3225
 21
-1.82028
 31
0.0
  0
LINE
  5
3CD
  8
0
 62
1
 10
61.3225
 20
-1.82028
 30
0.0
 11
61.2056
 21
-1.89973
 31
0.0
  0
LINE
  5
3CE
  8
0
 62
1
 10
61.2056
 20
-1.89973
 30
0.0
 11
61.0839
 21
-1.97168
 31
0.0
  0
LINE
  5
3CF
  8
0
 62
1
 10
61.0839
 20
-1.97168
 30
0.0
 11
60.958
 21
-2.03586
 31
0.0
  0
LINE
  5
3D0
  8
0
 62
1
 10
60.958
 20
-2.03586
 30
0.0
 11
60.8283
 21
-2.092
 31
0.0
  0
LINE
  5
3D1
  8
0
 62
1
 10
60.8283
 20
-2.092
 30
0.0
 11
60.6953
 21
-2.13986
 31
0.0
  0
LINE
  5
3D2
  8
0
 62
1
 10
60.6953
 20
-2.13986
 30
0.0
 11
60.5595
 21
-2.17931
 31
0.0
  0
LINE
  5
3D3
  8
0
 62
1
 10
60.5595
 20
-2.17931
 30
0.0
 11
60.4216
 21
-2.21014
 31
0.0
  0
LINE
  5
3D4
  8
0
 62
1
 10
60.4216
 20
-2.21014
 30
0.0
 11
60.282
 21
-2.23225
 31
0.0
  0
LINE
  5
3D5
  8
0
 62
1
 10
60.282
 20
-2.23225
 30
0.0
 11
60.1413
 21
-2.24556
 31
0.0
  0
LINE
  5
3D6
  8
0
 62
1
 10
60.1413
 20
-2.24556
 30
0.0
 11
60.0
 21
-2.25
 31
0.0
  0
LINE
  5
3D7
  8
0
 62
1
 10
60.0
 20
-2.25
 30
0.0
 11
59.8587
 21
-2.24556
 31
0.0
  0
LINE
  5
3D8
  8
0
 62
1
 10
74.0
 20
4.0
 30
0.0
 11
66.0
 21
4.0
 31
0.0
  0
LINE
  5
3D9
  8
0
 62
1
 10
66.0
 20
4.0
 30
0.0
 11
66.0
 21
-4.0
 31
0.0
  0
LINE
  5
3DA
  8
0
 62
1
 10
66.0
 20
-4.0
 30
0.0
 11
74.0
 21
-4.0
 31
0.0
  0
LINE
  5
3DB
  8
0
 62
1
 10
74.0
 20
-4.0
 30
0.0
 11
74.0
 21
4.0
 31
0.0
  0
LINE
  5
3DC
  8
0
 62
1
 10
69.8587
 20
-2.24556
 30
0.0
 11
69.718
 21
-2.23225
 31
0.0
  0
LINE
  5
3DD
  8
0
 62
1
 10
69.718
 20
-2.23225
 30
0.0
 11
69.5784
 21
-2.21014
 31
0.0
  0
LINE
  5
3DE
  8
0
 62
1
 10
69.5784
 20
-2.21014
 30
0.0
 11
69.4405
 21
-2.17931
 31
0.0
  0
LINE
  5
3DF
  8
0
 62
1
 10
69.4405
 20
-2.17931
 30
0.0
 11
69.3047
 21
-2.13986
 31
0.0
  0
LINE
  5
3E0
  8
0
 62
1
 10
69.3047
 20
-2.13986
 30
0.0
 11
69.1717
 21
-2.092
 31
0.0
  0
LINE
  5
3E1
  8
0
 62
1
 10
69.1717
 20
-2.092
 30
0.0
 11
69.042
 21
-2.03586
 31
0.0
  0
LINE
  5
3E2
  8
0
 62
1
 10
69.042
 20
-2.03586
 30
0.0
 11
68.9161
 21
-1.97168
 31
0.0
  0
LINE
  5
3E3
  8
0
 62
1
 10
68.9161
 20
-1.97168
 30
0.0
 11
68.7944
 21
-1.89973
 31
0.0
  0
LINE
  5
3E4
  8
0
 62
1
 10
68.7944
 20
-1.89973
 30
0.0
 11
68.6775
 21
-1.82028
 31
0.0
  0
LINE
  5
3E5
  8
0
 62
1
 10
68.6775
 20
-1.82028
 30
0.0
 11
68.5658
 21
-1.73364
 31
0.0
  0
LINE
  5
3E6
  8
0
 62
1
 10
68.5658
 20
-1.73364
 30
0.0
 11
68.4598
 21
-1.64017
 31
0.0
  0
LINE
  5
3E7
  8
0
 62
1
 10
68.4598
 20
-1.64017
 30
0.0
 11
68.3598
 21
-1.54022
 31
0.0
  0
LINE
  5
3E8
  8
0
 62
1
 10
68.3598
 20
-1.54022
 30
0.0
 11
68.2664
 21
-1.43419
 31
0.0
  0
LINE
  5
3E9
  8
0
 62
1
 10
68.2664
 20
-1.43419
 30
0.0
 11
68.1797
 21
-1.32251
 31
0.0
  0
LINE
  5
3EA
  8
0
 62
1
 10
68.1797
 20
-1.32251
 30
0.0
 11
68.1003
 21
-1.2056
 31
0.0
  0
LINE
  5
3EB
  8
0
 62
1
 10
68.1003
 20
-1.2056
 30
0.0
 11
68.0283
 21
-1.08394
 31
0.0
  0
LINE
  5
3EC
  8
0
 62
1
 10
68.0283
 20
-1.08394
 30
0.0
 11
67.9641
 21
-0.957993
 31
0.0
  0
LINE
  5
3ED
  8
0
 62
1
 10
67.9641
 20
-0.957993
 30
0.0
 11
67.908
 21
-0.828278
 31
0.0
  0
LINE
  5
3EE
  8
0
 62
1
 10
67.908
 20
-0.828278
 30
0.0
 11
67.8601
 21
-0.695282
 31
0.0
  0
LINE
  5
3EF
  8
0
 62
1
 10
67.8601
 20
-0.695282
 30
0.0
 11
67.8207
 21
-0.55954
 31
0.0
  0
LINE
  5
3F0
  8
0
 62
1
 10
67.8207
 20
-0.55954
 30
0.0
 11
67.7899
 21
-0.4216
 31
0.0
  0
LINE
  5
3F1
  8
0
 62
1
 10
67.7899
 20
-0.4216
 30
0.0
 11
67.7677
 21
-0.281998
 31
0.0
  0
LINE
  5
3F2
  8
0
 62
1
 10
67.7677
 20
-0.281998
 30
0.0
 11
67.7544
 21
-0.141266
 31
0.0
  0
LINE
  5
3F3
  8
0
 62
1
 10
67.7544
 20
-0.141266
 30
0.0
 11
67.75
 21
0.0
 31
0.0
  0
LINE
  5
3F4
  8
0
 62
1
 10
67.75
 20
0.0
 30
0.0
 11
67.7544
 21
0.141266
 31
0.0
  0
LINE
  5
3F5
  8
0
 62
1
 10
67.7544
 20
0.141266
 30
0.0
 11
67.7677
 21
0.281998
 31
0.0
  0
LINE
  5
3F6
  8
0
 62
1
 10
67.7677
 20
0.281998
 30
0.0
 11
67.7899
 21
0.4216
 31
0.0
  0
LINE
  5
3F7
  8
0
 62
1
 10
67.7899
 20
0.4216
 30
0.0
 11
67.8207
 21
0.55954
 31
0.0
  0
LINE
  5
3F8
  8
0
 62
1
 10
67.8207
 20
0.55954
 30
0.0
 11
67.8601
 21
0.695282
 31
0.0
  0
LINE
  5
3F9
  8
0
 62
1
 10
67.8601
 20
0.695282
 30
0.0
 11
67.908
 21
0.828278
 31
0.0
  0
LINE
  5
3FA
  8
0
 62
1
 10
67.908
 20
0.828278
 30
0.0
 11
67.9641
 21
0.957993
 31
0.0
  0
LINE
  5
3FB
  8
0
 62
1
 10
67.9641
 20
0.957993
 30
0.0
 11
68.0283
 21
1.08394
 31
0.0
  0
LINE
  5
3FC
  8
0
 62
1
 10
68.0283
 20
1.08394
 30
0.0
 11
68.1003
 21
1.2056
 31
0.0
  0
LINE
  5
3FD
  8
0
 62
1
 10
68.1003
 20
1.2056
 30
0.0
 11
68.1797
 21
1.32251
 31
0.0
  0
LINE
  5
3FE
  8
0
 62
1
 10
68.1797
 20
1.32251
 30
0.0
 11
68.2664
 21
1.43419
 31
0.0
  0
LINE
  5
3FF
  8
0
 62
1
 10
68.2664
 20
1.43419
 30
0.0
 11
68.3598
 21
1.54022
 31
0.0
  0
LINE
  5
400
  8
0
 62
1
 10
68.3598
 20
1.54022
 30
0.0
 11
68.4598
 21
1.64017
 31
0.0
  0
LINE
  5
401
  8
0
 62
1
 10
68.4598
 20
1.64017
 30
0.0
 11
68.5658
 21
1.73364
 31
0.0
  0
LINE
  5
402
  8
0
 62
1
 10
68.5658
 20
1.73364
 30
0.0
 11
68.6775
 21
1.82028
 31
0.0
  0
LINE
  5
403
  8
0
 62
1
 10
68.6775
 20
1.82028
 30
0.0
 11
68.7944
 21
1.89973
 31
0.0
  0
LINE
  5
404
  8
0
 62
1
 10
68.7944
 20
1.89973
 30
0.0
 11
68.9161
 21
1.97168
 31
0.0
  0
LINE
  5
405
  8
0
 62
1
 10
68.9161
 20
1.97168
 30
0.0
 11
69.042
 21
2.03586
 31
0.0
  0
LINE
  5
406
  8
0
 62
1
 10
69.042
 20
2.03586
 30
0.0
 11
69.1717
 21
2.092
 31
0.0
  0
LINE
  5
407
  8
0
 62
1
 10
69.1717
 20
2.092
 30
0.0
 11
69.3047
 21
2.13986
 31
0.0
  0
LINE
  5
408
  8
0
 62
1
 10
69.3047
 20
2.13986
 30
0.0
 11
69.4405
 21
2.17931
 31
0.0
  0
LINE
  5
409
  8
0
 62
1
 10
69.4405
 20
2.17931
 30
0.0
 11
69.5784
 21
2.21014
 31
0.0
  0
LINE
  5
40A
  8
0
 62
1
 10
69.5784
 20
2.21014
 30
0.0
 11
69.718
 21
2.23225
 31
0.0
  0
LINE
  5
40B
  8
0
 62
1
 10
69.718
 20
2.23225
 30
0.0
 11
69.8587
 21
2.24556
 31
0.0
  0
LINE
  5
40C
  8
0
 62
1
 10
69.8587
 20
2.24556
 30
0.0
 11
70.0
 21
2.25
 31
0.0
  0
LINE
  5
40D
  8
0
 62
1
 10
70.0
 20
2.25
 30
0.0
 11
70.1413
 21
2.24556
 31
0.0
  0
LINE
  5
40E
  8
0
 62
1
 10
70.1413
 20
2.24556
 30
0.0
 11
70.282
 21
2.23225
 31
0.0
  0
LINE
  5
40F
  8
0
 62
1
 10
70.282
 20
2.23225
 30
0.0
 11
70.4216
 21
2.21014
 31
0.0
  0
LINE
  5
410
  8
0
 62
1
 10
70.4216
 20
2.21014
 30
0.0
 11
70.5595
 21
2.17931
 31
0.0
  0
LINE
  5
411
  8
0
 62
1
 10
70.5595
 20
2.17931
 30
0.0
 11
70.6953
 21
2.13986
 31
0.0
  0
LINE
  5
412
  8
0
 62
1
 10
70.6953
 20
2.13986
 30
0.0
 11
70.8283
 21
2.092
 31
0.0
  0
LINE
  5
413
  8
0
 62
1
 10
70.8283
 20
2.092
 30
0.0
 11
70.958
 21
2.03586
 31
0.0
  0
LINE
  5
414
  8
0
 62
1
 10
70.958
 20
2.03586
 30
0.0
 11
71.0839
 21
1.97168
 31
0.0
  0
LINE
  5
415
  8
0
 62
1
 10
71.0839
 20
1.97168
 30
0.0
 11
71.2056
 21
1.89973
 31
0.0
  0
LINE
  5
416
  8
0
 62
1
 10
71.2056
 20
1.89973
 30
0.0
 11
71.3225
 21
1.82028
 31
0.0
  0
LINE
  5
417
  8
0
 62
1
 10
71.3225
 20
1.82028
 30
0.0
 11
71.4342
 21
1.73364
 31
0.0
  0
LINE
  5
418
  8
0
 62
1
 10
71.4342
 20
1.73364
 30
0.0
 11
71.5402
 21
1.64017
 31
0.0
  0
LINE
  5
419
  8
0
 62
1
 10
71.5402
 20
1.64017
 30
0.0
 11
71.6402
 21
1.54022
 31
0.0
  0
LINE
  5
41A
  8
0
 62
1
 10
71.6402
 20
1.54022
 30
0.0
 11
71.7336
 21
1.43419
 31
0.0
  0
LINE
  5
41B
  8
0
 62
1
 10
71.7336
 20
1.43419
 30
0.0
 11
71.8203
 21
1.32251
 31
0.0
  0
LINE
  5
41C
  8
0
 62
1
 10
71.8203
 20
1.32251
 30
0.0
 11
71.8997
 21
1.2056
 31
0.0
  0
LINE
  5
41D
  8
0
 62
1
 10
71.8997
 20
1.2056
 30
0.0
 11
71.9717
 21
1.08394
 31
0.0
  0
LINE
  5
41E
  8
0
 62
1
 10
71.9717
 20
1.08394
 30
0.0
 11
72.0359
 21
0.957993
 31
0.0
  0
LINE
  5
41F
  8
0
 62
1
 10
72.0359
 20
0.957993
 30
0.0
 11
72.092
 21
0.828278
 31
0.0
  0
LINE
  5
420
  8
0
 62
1
 10
72.092
 20
0.828278
 30
0.0
 11
72.1399
 21
0.695282
 31
0.0
  0
LINE
  5
421
  8
0
 62
1
 10
72.1399
 20
0.695282
 30
0.0
 11
72.1793
 21
0.55954
 31
0.0
  0
LINE
  5
422
  8
0
 62
1
 10
72.1793
 20
0.55954
 30
0.0
 11
72.2101
 21
0.4216
 31
0.0
  0
LINE
  5
423
  8
0
 62
1
 10
72.2101
 20
0.4216
 30
0.0
 11
72.2323
 21
0.281998
 31
0.0
  0
LINE
  5
424
  8
0
 62
1
 10
72.2323
 20
0.281998
 30
0.0
 11
72.2456
 21
0.141266
 31
0.0
  0
LINE
  5
425
  8
0
 62
1
 10
72.2456
 20
0.141266
 30
0.0
 11
72.25
 21
0.0
 31
0.0
  0
LINE
  5
426
  8
0
 62
1
 10
72.25
 20
0.0
 30
0.0
 11
72.2456
 21
-0.141266
 31
0.0
  0
LINE
  5
427
  8
0
 62
1
 10
72.2456
 20
-0.141266
 30
0.0
 11
72.2323
 21
-0.281998
 31
0.0
  0
LINE
  5
428
  8
0
 62
1
 10
72.2323
 20
-0.281998
 30
0.0
 11
72.2101
 21
-0.4216
 31
0.0
  0
LINE
  5
429
  8
0
 62
1
 10
72.2101
 20
-0.4216
 30
0.0
 11
72.1793
 21
-0.55954
 31
0.0
  0
LINE
  5
42A
  8
0
 62
1
 10
72.1793
 20
-0.55954
 30
0.0
 11
72.1399
 21
-0.695282
 31
0.0
  0
LINE
  5
42B
  8
0
 62
1
 10
72.1399
 20
-0.695282
 30
0.0
 11
72.092
 21
-0.828278
 31
0.0
  0
LINE
  5
42C
  8
0
 62
1
 10
72.092
 20
-0.828278
 30
0.0
 11
72.0359
 21
-0.957993
 31
0.0
  0
LINE
  5
42D
  8
0
 62
1
 10
72.0359
 20
-0.957993
 30
0.0
 11
71.9717
 21
-1.08394
 31
0.0
  0
LINE
  5
42E
  8
0
 62
1
 10
71.9717
 20
-1.08394
 30
0.0
 11
71.8997
 21
-1.2056
 31
0.0
  0
LINE
  5
42F
  8
0
 62
1
 10
71.8997
 20
-1.2056
 30
0.0
 11
71.8203
 21
-1.32251
 31
0.0
  0
LINE
  5
430
  8
0
 62
1
 10
71.8203
 20
-1.32251
 30
0.0
 11
71.7336
 21
-1.43419
 31
0.0
  0
LINE
  5
431
  8
0
 62
1
 10
71.7336
 20
-1.43419
 30
0.0
 11
71.6402
 21
-1.54022
 31
0.0
  0
LINE
  5
432
  8
0
 62
1
 10
71.6402
 20
-1.54022
 30
0.0
 11
71.5402
 21
-1.64017
 31
0.0
  0
LINE
  5
433
  8
0
 62
1
 10
71.5402
 20
-1.64017
 30
0.0
 11
71.4342
 21
-1.73364
 31
0.0
  0
LINE
  5
434
  8
0
 62
1
 10
71.4342
 20
-1.73364
 30
0.0
 11
71.3225
 21
-1.82028
 31
0.0
  0
LINE
  5
435
  8
0
 62
1
 10
71.3225
 20
-1.82028
 30
0.0
 11
71.2056
 21
-1.89973
 31
0.0
  0
LINE
  5
436
  8
0
 62
1
 10
71.2056
 20
-1.89973
 30
0.0
 11
71.0839
 21
-1.97168
 31
0.0
  0
LINE
  5
437
  8
0
 62
1
 10
71.0839
 20
-1.97168
 30
0.0
 11
70.958
 21
-2.03586
 31
0.0
  0
LINE
  5
438
  8
0
 62
1
 10
70.958
 20
-2.03586
 30
0.0
 11
70.8283
 21
-2.092
 31
0.0
  0
LINE
  5
439
  8
0
 62
1
 10
70.8283
 20
-2.092
 30
0.0
 11
70.6953
 21
-2.13986
 31
0.0
  0
LINE
  5
43A
  8
0
 62
1
 10
70.6953
 20
-2.13986
 30
0.0
 11
70.5595
 21
-2.17931
 31
0.0
  0
LINE
  5
43B
  8
0
 62
1
 10
70.5595
 20
-2.17931
 30
0.0
 11
70.4216
 21
-2.21014
 31
0.0
  0
LINE
  5
43C
  8
0
 62
1
 10
70.4216
 20
-2.21014
 30
0.0
 11
70.282
 21
-2.23225
 31
0.0
  0
LINE
  5
43D
  8
0
 62
1
 10
70.282
 20
-2.23225
 30
0.0
 11
70.1413
 21
-2.24556
 31
0.0
  0
LINE
  5
43E
  8
0
 62
1
 10
70.1413
 20
-2.24556
 30
0.0
 11
70.0
 21
-2.25
 31
0.0
  0
LINE
  5
43F
  8
0
 62
1
 10
70.0
 20
-2.25
 30
0.0
 11
69.8587
 21
-2.24556
 31
0.0
  0
ENDSEC
  0
EOF
