  0
SECTION
  2
BLOCKS
  0
ENDSEC
  0
SECTION
  2
ENTITIES
  0
LINE
  8
0
 10
41.275
 20
41.275
 11
-41.275
 21
41.275
  0
LINE
  8
0
 10
-41.275
 20
41.275
 11
-41.275
 21
-41.275
  0
LINE
  8
0
 10
-41.275
 20
-41.275
 11
41.275
 21
-41.275
  0
LINE
  8
0
 10
41.275
 20
-41.275
 11
41.275
 21
41.275
  0
LINE
  8
0
 10
34.7944
 20
25.9815
 11
34.5895
 21
26.0008
  0
LINE
  8
0
 10
34.5895
 20
26.0008
 11
34.3863
 21
26.033
  0
LINE
  8
0
 10
34.3863
 20
26.033
 11
34.1855
 21
26.0779
  0
LINE
  8
0
 10
34.1855
 20
26.0779
 11
33.988
 21
26.1353
  0
LINE
  8
0
 10
33.988
 20
26.1353
 11
33.7944
 21
26.205
  0
LINE
  8
0
 10
33.7944
 20
26.205
 11
33.6056
 21
26.2867
  0
LINE
  8
0
 10
33.6056
 20
26.2867
 11
33.4223
 21
26.3801
  0
LINE
  8
0
 10
33.4223
 20
26.3801
 11
33.2452
 21
26.4848
  0
LINE
  8
0
 10
33.2452
 20
26.4848
 11
33.075
 21
26.6005
  0
LINE
  8
0
 10
33.075
 20
26.6005
 11
32.9124
 21
26.7266
  0
LINE
  8
0
 10
32.9124
 20
26.7266
 11
32.7581
 21
26.8626
  0
LINE
  8
0
 10
32.7581
 20
26.8626
 11
32.6126
 21
27.0081
  0
LINE
  8
0
 10
32.6126
 20
27.0081
 11
32.4766
 21
27.1624
  0
LINE
  8
0
 10
32.4766
 20
27.1624
 11
32.3505
 21
27.325
  0
LINE
  8
0
 10
32.3505
 20
27.325
 11
32.2348
 21
27.4952
  0
LINE
  8
0
 10
32.2348
 20
27.4952
 11
32.1301
 21
27.6723
  0
LINE
  8
0
 10
32.1301
 20
27.6723
 11
32.0367
 21
27.8556
  0
LINE
  8
0
 10
32.0367
 20
27.8556
 11
31.955
 21
28.0444
  0
LINE
  8
0
 10
31.955
 20
28.0444
 11
31.8853
 21
28.238
  0
LINE
  8
0
 10
31.8853
 20
28.238
 11
31.8279
 21
28.4355
  0
LINE
  8
0
 10
31.8279
 20
28.4355
 11
31.783
 21
28.6363
  0
LINE
  8
0
 10
31.783
 20
28.6363
 11
31.7508
 21
28.8395
  0
LINE
  8
0
 10
31.7508
 20
28.8395
 11
31.7315
 21
29.0444
  0
LINE
  8
0
 10
31.7315
 20
29.0444
 11
31.725
 21
29.25
  0
LINE
  8
0
 10
31.725
 20
29.25
 11
31.7315
 21
29.4556
  0
LINE
  8
0
 10
31.7315
 20
29.4556
 11
31.7508
 21
29.6605
  0
LINE
  8
0
 10
31.7508
 20
29.6605
 11
31.783
 21
29.8637
  0
LINE
  8
0
 10
31.783
 20
29.8637
 11
31.8279
 21
30.0645
  0
LINE
  8
0
 10
31.8279
 20
30.0645
 11
31.8853
 21
30.262
  0
LINE
  8
0
 10
31.8853
 20
30.262
 11
31.955
 21
30.4556
  0
LINE
  8
0
 10
31.955
 20
30.4556
 11
32.0367
 21
30.6444
  0
LINE
  8
0
 10
32.0367
 20
30.6444
 11
32.1301
 21
30.8277
  0
LINE
  8
0
 10
32.1301
 20
30.8277
 11
32.2348
 21
31.0048
  0
LINE
  8
0
 10
32.2348
 20
31.0048
 11
32.3505
 21
31.175
  0
LINE
  8
0
 10
32.3505
 20
31.175
 11
32.4766
 21
31.3376
  0
LINE
  8
0
 10
32.4766
 20
31.3376
 11
32.6126
 21
31.4919
  0
LINE
  8
0
 10
32.6126
 20
31.4919
 11
32.7581
 21
31.6374
  0
LINE
  8
0
 10
32.7581
 20
31.6374
 11
32.9124
 21
31.7734
  0
LINE
  8
0
 10
32.9124
 20
31.7734
 11
33.075
 21
31.8995
  0
LINE
  8
0
 10
33.075
 20
31.8995
 11
33.2452
 21
32.0152
  0
LINE
  8
0
 10
33.2452
 20
32.0152
 11
33.4223
 21
32.1199
  0
LINE
  8
0
 10
33.4223
 20
32.1199
 11
33.6056
 21
32.2133
  0
LINE
  8
0
 10
33.6056
 20
32.2133
 11
33.7944
 21
32.295
  0
LINE
  8
0
 10
33.7944
 20
32.295
 11
33.988
 21
32.3647
  0
LINE
  8
0
 10
33.988
 20
32.3647
 11
34.1855
 21
32.4221
  0
LINE
  8
0
 10
34.1855
 20
32.4221
 11
34.3863
 21
32.467
  0
LINE
  8
0
 10
34.3863
 20
32.467
 11
34.5895
 21
32.4992
  0
LINE
  8
0
 10
34.5895
 20
32.4992
 11
34.7944
 21
32.5185
  0
LINE
  8
0
 10
34.7944
 20
32.5185
 11
35
 21
32.525
  0
LINE
  8
0
 10
35
 20
32.525
 11
35.2056
 21
32.5185
  0
LINE
  8
0
 10
35.2056
 20
32.5185
 11
35.4105
 21
32.4992
  0
LINE
  8
0
 10
35.4105
 20
32.4992
 11
35.6137
 21
32.467
  0
LINE
  8
0
 10
35.6137
 20
32.467
 11
35.8145
 21
32.4221
  0
LINE
  8
0
 10
35.8145
 20
32.4221
 11
36.012
 21
32.3647
  0
LINE
  8
0
 10
36.012
 20
32.3647
 11
36.2056
 21
32.295
  0
LINE
  8
0
 10
36.2056
 20
32.295
 11
36.3944
 21
32.2133
  0
LINE
  8
0
 10
36.3944
 20
32.2133
 11
36.5777
 21
32.1199
  0
LINE
  8
0
 10
36.5777
 20
32.1199
 11
36.7548
 21
32.0152
  0
LINE
  8
0
 10
36.7548
 20
32.0152
 11
36.925
 21
31.8995
  0
LINE
  8
0
 10
36.925
 20
31.8995
 11
37.0876
 21
31.7734
  0
LINE
  8
0
 10
37.0876
 20
31.7734
 11
37.2419
 21
31.6374
  0
LINE
  8
0
 10
37.2419
 20
31.6374
 11
37.3874
 21
31.4919
  0
LINE
  8
0
 10
37.3874
 20
31.4919
 11
37.5234
 21
31.3376
  0
LINE
  8
0
 10
37.5234
 20
31.3376
 11
37.6495
 21
31.175
  0
LINE
  8
0
 10
37.6495
 20
31.175
 11
37.7652
 21
31.0048
  0
LINE
  8
0
 10
37.7652
 20
31.0048
 11
37.8699
 21
30.8277
  0
LINE
  8
0
 10
37.8699
 20
30.8277
 11
37.9633
 21
30.6444
  0
LINE
  8
0
 10
37.9633
 20
30.6444
 11
38.045
 21
30.4556
  0
LINE
  8
0
 10
38.045
 20
30.4556
 11
38.1147
 21
30.262
  0
LINE
  8
0
 10
38.1147
 20
30.262
 11
38.1721
 21
30.0645
  0
LINE
  8
0
 10
38.1721
 20
30.0645
 11
38.217
 21
29.8637
  0
LINE
  8
0
 10
38.217
 20
29.8637
 11
38.2492
 21
29.6605
  0
LINE
  8
0
 10
38.2492
 20
29.6605
 11
38.2685
 21
29.4556
  0
LINE
  8
0
 10
38.2685
 20
29.4556
 11
38.275
 21
29.25
  0
LINE
  8
0
 10
38.275
 20
29.25
 11
38.2685
 21
29.0444
  0
LINE
  8
0
 10
38.2685
 20
29.0444
 11
38.2492
 21
28.8395
  0
LINE
  8
0
 10
38.2492
 20
28.8395
 11
38.217
 21
28.6363
  0
LINE
  8
0
 10
38.217
 20
28.6363
 11
38.1721
 21
28.4355
  0
LINE
  8
0
 10
38.1721
 20
28.4355
 11
38.1147
 21
28.238
  0
LINE
  8
0
 10
38.1147
 20
28.238
 11
38.045
 21
28.0444
  0
LINE
  8
0
 10
38.045
 20
28.0444
 11
37.9633
 21
27.8556
  0
LINE
  8
0
 10
37.9633
 20
27.8556
 11
37.8699
 21
27.6723
  0
LINE
  8
0
 10
37.8699
 20
27.6723
 11
37.7652
 21
27.4952
  0
LINE
  8
0
 10
37.7652
 20
27.4952
 11
37.6495
 21
27.325
  0
LINE
  8
0
 10
37.6495
 20
27.325
 11
37.5234
 21
27.1624
  0
LINE
  8
0
 10
37.5234
 20
27.1624
 11
37.3874
 21
27.0081
  0
LINE
  8
0
 10
37.3874
 20
27.0081
 11
37.2419
 21
26.8626
  0
LINE
  8
0
 10
37.2419
 20
26.8626
 11
37.0876
 21
26.7266
  0
LINE
  8
0
 10
37.0876
 20
26.7266
 11
36.925
 21
26.6005
  0
LINE
  8
0
 10
36.925
 20
26.6005
 11
36.7548
 21
26.4848
  0
LINE
  8
0
 10
36.7548
 20
26.4848
 11
36.5777
 21
26.3801
  0
LINE
  8
0
 10
36.5777
 20
26.3801
 11
36.3944
 21
26.2867
  0
LINE
  8
0
 10
36.3944
 20
26.2867
 11
36.2056
 21
26.205
  0
LINE
  8
0
 10
36.2056
 20
26.205
 11
36.012
 21
26.1353
  0
LINE
  8
0
 10
36.012
 20
26.1353
 11
35.8145
 21
26.0779
  0
LINE
  8
0
 10
35.8145
 20
26.0779
 11
35.6137
 21
26.033
  0
LINE
  8
0
 10
35.6137
 20
26.033
 11
35.4105
 21
26.0008
  0
LINE
  8
0
 10
35.4105
 20
26.0008
 11
35.2056
 21
25.9815
  0
LINE
  8
0
 10
35.2056
 20
25.9815
 11
35
 21
25.975
  0
LINE
  8
0
 10
35
 20
25.975
 11
34.7944
 21
25.9815
  0
LINE
  8
0
 10
-35.2056
 20
25.9815
 11
-35.4105
 21
26.0008
  0
LINE
  8
0
 10
-35.4105
 20
26.0008
 11
-35.6137
 21
26.033
  0
LINE
  8
0
 10
-35.6137
 20
26.033
 11
-35.8145
 21
26.0779
  0
LINE
  8
0
 10
-35.8145
 20
26.0779
 11
-36.012
 21
26.1353
  0
LINE
  8
0
 10
-36.012
 20
26.1353
 11
-36.2056
 21
26.205
  0
LINE
  8
0
 10
-36.2056
 20
26.205
 11
-36.3944
 21
26.2867
  0
LINE
  8
0
 10
-36.3944
 20
26.2867
 11
-36.5777
 21
26.3801
  0
LINE
  8
0
 10
-36.5777
 20
26.3801
 11
-36.7548
 21
26.4848
  0
LINE
  8
0
 10
-36.7548
 20
26.4848
 11
-36.925
 21
26.6005
  0
LINE
  8
0
 10
-36.925
 20
26.6005
 11
-37.0876
 21
26.7266
  0
LINE
  8
0
 10
-37.0876
 20
26.7266
 11
-37.2419
 21
26.8626
  0
LINE
  8
0
 10
-37.2419
 20
26.8626
 11
-37.3874
 21
27.0081
  0
LINE
  8
0
 10
-37.3874
 20
27.0081
 11
-37.5234
 21
27.1624
  0
LINE
  8
0
 10
-37.5234
 20
27.1624
 11
-37.6495
 21
27.325
  0
LINE
  8
0
 10
-37.6495
 20
27.325
 11
-37.7652
 21
27.4952
  0
LINE
  8
0
 10
-37.7652
 20
27.4952
 11
-37.8699
 21
27.6723
  0
LINE
  8
0
 10
-37.8699
 20
27.6723
 11
-37.9633
 21
27.8556
  0
LINE
  8
0
 10
-37.9633
 20
27.8556
 11
-38.045
 21
28.0444
  0
LINE
  8
0
 10
-38.045
 20
28.0444
 11
-38.1147
 21
28.238
  0
LINE
  8
0
 10
-38.1147
 20
28.238
 11
-38.1721
 21
28.4355
  0
LINE
  8
0
 10
-38.1721
 20
28.4355
 11
-38.217
 21
28.6363
  0
LINE
  8
0
 10
-38.217
 20
28.6363
 11
-38.2492
 21
28.8395
  0
LINE
  8
0
 10
-38.2492
 20
28.8395
 11
-38.2685
 21
29.0444
  0
LINE
  8
0
 10
-38.2685
 20
29.0444
 11
-38.275
 21
29.25
  0
LINE
  8
0
 10
-38.275
 20
29.25
 11
-38.2685
 21
29.4556
  0
LINE
  8
0
 10
-38.2685
 20
29.4556
 11
-38.2492
 21
29.6605
  0
LINE
  8
0
 10
-38.2492
 20
29.6605
 11
-38.217
 21
29.8637
  0
LINE
  8
0
 10
-38.217
 20
29.8637
 11
-38.1721
 21
30.0645
  0
LINE
  8
0
 10
-38.1721
 20
30.0645
 11
-38.1147
 21
30.262
  0
LINE
  8
0
 10
-38.1147
 20
30.262
 11
-38.045
 21
30.4556
  0
LINE
  8
0
 10
-38.045
 20
30.4556
 11
-37.9633
 21
30.6444
  0
LINE
  8
0
 10
-37.9633
 20
30.6444
 11
-37.8699
 21
30.8277
  0
LINE
  8
0
 10
-37.8699
 20
30.8277
 11
-37.7652
 21
31.0048
  0
LINE
  8
0
 10
-37.7652
 20
31.0048
 11
-37.6495
 21
31.175
  0
LINE
  8
0
 10
-37.6495
 20
31.175
 11
-37.5234
 21
31.3376
  0
LINE
  8
0
 10
-37.5234
 20
31.3376
 11
-37.3874
 21
31.4919
  0
LINE
  8
0
 10
-37.3874
 20
31.4919
 11
-37.2419
 21
31.6374
  0
LINE
  8
0
 10
-37.2419
 20
31.6374
 11
-37.0876
 21
31.7734
  0
LINE
  8
0
 10
-37.0876
 20
31.7734
 11
-36.925
 21
31.8995
  0
LINE
  8
0
 10
-36.925
 20
31.8995
 11
-36.7548
 21
32.0152
  0
LINE
  8
0
 10
-36.7548
 20
32.0152
 11
-36.5777
 21
32.1199
  0
LINE
  8
0
 10
-36.5777
 20
32.1199
 11
-36.3944
 21
32.2133
  0
LINE
  8
0
 10
-36.3944
 20
32.2133
 11
-36.2056
 21
32.295
  0
LINE
  8
0
 10
-36.2056
 20
32.295
 11
-36.012
 21
32.3647
  0
LINE
  8
0
 10
-36.012
 20
32.3647
 11
-35.8145
 21
32.4221
  0
LINE
  8
0
 10
-35.8145
 20
32.4221
 11
-35.6137
 21
32.467
  0
LINE
  8
0
 10
-35.6137
 20
32.467
 11
-35.4105
 21
32.4992
  0
LINE
  8
0
 10
-35.4105
 20
32.4992
 11
-35.2056
 21
32.5185
  0
LINE
  8
0
 10
-35.2056
 20
32.5185
 11
-35
 21
32.525
  0
LINE
  8
0
 10
-35
 20
32.525
 11
-34.7944
 21
32.5185
  0
LINE
  8
0
 10
-34.7944
 20
32.5185
 11
-34.5895
 21
32.4992
  0
LINE
  8
0
 10
-34.5895
 20
32.4992
 11
-34.3863
 21
32.467
  0
LINE
  8
0
 10
-34.3863
 20
32.467
 11
-34.1855
 21
32.4221
  0
LINE
  8
0
 10
-34.1855
 20
32.4221
 11
-33.988
 21
32.3647
  0
LINE
  8
0
 10
-33.988
 20
32.3647
 11
-33.7944
 21
32.295
  0
LINE
  8
0
 10
-33.7944
 20
32.295
 11
-33.6056
 21
32.2133
  0
LINE
  8
0
 10
-33.6056
 20
32.2133
 11
-33.4223
 21
32.1199
  0
LINE
  8
0
 10
-33.4223
 20
32.1199
 11
-33.2452
 21
32.0152
  0
LINE
  8
0
 10
-33.2452
 20
32.0152
 11
-33.075
 21
31.8995
  0
LINE
  8
0
 10
-33.075
 20
31.8995
 11
-32.9124
 21
31.7734
  0
LINE
  8
0
 10
-32.9124
 20
31.7734
 11
-32.7581
 21
31.6374
  0
LINE
  8
0
 10
-32.7581
 20
31.6374
 11
-32.6126
 21
31.4919
  0
LINE
  8
0
 10
-32.6126
 20
31.4919
 11
-32.4766
 21
31.3376
  0
LINE
  8
0
 10
-32.4766
 20
31.3376
 11
-32.3505
 21
31.175
  0
LINE
  8
0
 10
-32.3505
 20
31.175
 11
-32.2348
 21
31.0048
  0
LINE
  8
0
 10
-32.2348
 20
31.0048
 11
-32.1301
 21
30.8277
  0
LINE
  8
0
 10
-32.1301
 20
30.8277
 11
-32.0367
 21
30.6444
  0
LINE
  8
0
 10
-32.0367
 20
30.6444
 11
-31.955
 21
30.4556
  0
LINE
  8
0
 10
-31.955
 20
30.4556
 11
-31.8853
 21
30.262
  0
LINE
  8
0
 10
-31.8853
 20
30.262
 11
-31.8279
 21
30.0645
  0
LINE
  8
0
 10
-31.8279
 20
30.0645
 11
-31.783
 21
29.8637
  0
LINE
  8
0
 10
-31.783
 20
29.8637
 11
-31.7508
 21
29.6605
  0
LINE
  8
0
 10
-31.7508
 20
29.6605
 11
-31.7315
 21
29.4556
  0
LINE
  8
0
 10
-31.7315
 20
29.4556
 11
-31.725
 21
29.25
  0
LINE
  8
0
 10
-31.725
 20
29.25
 11
-31.7315
 21
29.0444
  0
LINE
  8
0
 10
-31.7315
 20
29.0444
 11
-31.7508
 21
28.8395
  0
LINE
  8
0
 10
-31.7508
 20
28.8395
 11
-31.783
 21
28.6363
  0
LINE
  8
0
 10
-31.783
 20
28.6363
 11
-31.8279
 21
28.4355
  0
LINE
  8
0
 10
-31.8279
 20
28.4355
 11
-31.8853
 21
28.238
  0
LINE
  8
0
 10
-31.8853
 20
28.238
 11
-31.955
 21
28.0444
  0
LINE
  8
0
 10
-31.955
 20
28.0444
 11
-32.0367
 21
27.8556
  0
LINE
  8
0
 10
-32.0367
 20
27.8556
 11
-32.1301
 21
27.6723
  0
LINE
  8
0
 10
-32.1301
 20
27.6723
 11
-32.2348
 21
27.4952
  0
LINE
  8
0
 10
-32.2348
 20
27.4952
 11
-32.3505
 21
27.325
  0
LINE
  8
0
 10
-32.3505
 20
27.325
 11
-32.4766
 21
27.1624
  0
LINE
  8
0
 10
-32.4766
 20
27.1624
 11
-32.6126
 21
27.0081
  0
LINE
  8
0
 10
-32.6126
 20
27.0081
 11
-32.7581
 21
26.8626
  0
LINE
  8
0
 10
-32.7581
 20
26.8626
 11
-32.9124
 21
26.7266
  0
LINE
  8
0
 10
-32.9124
 20
26.7266
 11
-33.075
 21
26.6005
  0
LINE
  8
0
 10
-33.075
 20
26.6005
 11
-33.2452
 21
26.4848
  0
LINE
  8
0
 10
-33.2452
 20
26.4848
 11
-33.4223
 21
26.3801
  0
LINE
  8
0
 10
-33.4223
 20
26.3801
 11
-33.6056
 21
26.2867
  0
LINE
  8
0
 10
-33.6056
 20
26.2867
 11
-33.7944
 21
26.205
  0
LINE
  8
0
 10
-33.7944
 20
26.205
 11
-33.988
 21
26.1353
  0
LINE
  8
0
 10
-33.988
 20
26.1353
 11
-34.1855
 21
26.0779
  0
LINE
  8
0
 10
-34.1855
 20
26.0779
 11
-34.3863
 21
26.033
  0
LINE
  8
0
 10
-34.3863
 20
26.033
 11
-34.5895
 21
26.0008
  0
LINE
  8
0
 10
-34.5895
 20
26.0008
 11
-34.7944
 21
25.9815
  0
LINE
  8
0
 10
-34.7944
 20
25.9815
 11
-35
 21
25.975
  0
LINE
  8
0
 10
-35
 20
25.975
 11
-35.2056
 21
25.9815
  0
LINE
  8
0
 10
-0.79744
 20
-12.6749
 11
-1.59172
 21
-12.5999
  0
LINE
  8
0
 10
-1.59172
 20
-12.5999
 11
-2.37973
 21
-12.475
  0
LINE
  8
0
 10
-2.37973
 20
-12.475
 11
-3.15836
 21
-12.301
  0
LINE
  8
0
 10
-3.15836
 20
-12.301
 11
-3.92451
 21
-12.0784
  0
LINE
  8
0
 10
-3.92451
 20
-12.0784
 11
-4.67517
 21
-11.8082
  0
LINE
  8
0
 10
-4.67517
 20
-11.8082
 11
-5.40739
 21
-11.4913
  0
LINE
  8
0
 10
-5.40739
 20
-11.4913
 11
-6.11827
 21
-11.1291
  0
LINE
  8
0
 10
-6.11827
 20
-11.1291
 11
-6.80499
 21
-10.723
  0
LINE
  8
0
 10
-6.80499
 20
-10.723
 11
-7.46486
 21
-10.2745
  0
LINE
  8
0
 10
-7.46486
 20
-10.2745
 11
-8.09528
 21
-9.78551
  0
LINE
  8
0
 10
-8.09528
 20
-9.78551
 11
-8.69374
 21
-9.25789
  0
LINE
  8
0
 10
-8.69374
 20
-9.25789
 11
-9.25789
 21
-8.69374
  0
LINE
  8
0
 10
-9.25789
 20
-8.69374
 11
-9.78551
 21
-8.09528
  0
LINE
  8
0
 10
-9.78551
 20
-8.09528
 11
-10.2745
 21
-7.46486
  0
LINE
  8
0
 10
-10.2745
 20
-7.46486
 11
-10.723
 21
-6.80499
  0
LINE
  8
0
 10
-10.723
 20
-6.80499
 11
-11.1291
 21
-6.11827
  0
LINE
  8
0
 10
-11.1291
 20
-6.11827
 11
-11.4913
 21
-5.40739
  0
LINE
  8
0
 10
-11.4913
 20
-5.40739
 11
-11.8082
 21
-4.67517
  0
LINE
  8
0
 10
-11.8082
 20
-4.67517
 11
-12.0784
 21
-3.92451
  0
LINE
  8
0
 10
-12.0784
 20
-3.92451
 11
-12.301
 21
-3.15836
  0
LINE
  8
0
 10
-12.301
 20
-3.15836
 11
-12.475
 21
-2.37973
  0
LINE
  8
0
 10
-12.475
 20
-2.37973
 11
-12.5999
 21
-1.59172
  0
LINE
  8
0
 10
-12.5999
 20
-1.59172
 11
-12.6749
 21
-0.79744
  0
LINE
  8
0
 10
-12.6749
 20
-0.79744
 11
-12.7
 21
0
  0
LINE
  8
0
 10
-12.7
 20
0
 11
-12.6749
 21
0.79744
  0
LINE
  8
0
 10
-12.6749
 20
0.79744
 11
-12.5999
 21
1.59172
  0
LINE
  8
0
 10
-12.5999
 20
1.59172
 11
-12.475
 21
2.37973
  0
LINE
  8
0
 10
-12.475
 20
2.37973
 11
-12.301
 21
3.15836
  0
LINE
  8
0
 10
-12.301
 20
3.15836
 11
-12.0784
 21
3.92451
  0
LINE
  8
0
 10
-12.0784
 20
3.92451
 11
-11.8082
 21
4.67517
  0
LINE
  8
0
 10
-11.8082
 20
4.67517
 11
-11.4913
 21
5.40739
  0
LINE
  8
0
 10
-11.4913
 20
5.40739
 11
-11.1291
 21
6.11827
  0
LINE
  8
0
 10
-11.1291
 20
6.11827
 11
-10.723
 21
6.80499
  0
LINE
  8
0
 10
-10.723
 20
6.80499
 11
-10.2745
 21
7.46486
  0
LINE
  8
0
 10
-10.2745
 20
7.46486
 11
-9.78551
 21
8.09528
  0
LINE
  8
0
 10
-9.78551
 20
8.09528
 11
-9.25789
 21
8.69374
  0
LINE
  8
0
 10
-9.25789
 20
8.69374
 11
-8.69374
 21
9.25789
  0
LINE
  8
0
 10
-8.69374
 20
9.25789
 11
-8.09528
 21
9.78551
  0
LINE
  8
0
 10
-8.09528
 20
9.78551
 11
-7.46486
 21
10.2745
  0
LINE
  8
0
 10
-7.46486
 20
10.2745
 11
-6.80499
 21
10.723
  0
LINE
  8
0
 10
-6.80499
 20
10.723
 11
-6.11827
 21
11.1291
  0
LINE
  8
0
 10
-6.11827
 20
11.1291
 11
-5.40739
 21
11.4913
  0
LINE
  8
0
 10
-5.40739
 20
11.4913
 11
-4.67517
 21
11.8082
  0
LINE
  8
0
 10
-4.67517
 20
11.8082
 11
-3.92451
 21
12.0784
  0
LINE
  8
0
 10
-3.92451
 20
12.0784
 11
-3.15836
 21
12.301
  0
LINE
  8
0
 10
-3.15836
 20
12.301
 11
-2.37973
 21
12.475
  0
LINE
  8
0
 10
-2.37973
 20
12.475
 11
-1.59172
 21
12.5999
  0
LINE
  8
0
 10
-1.59172
 20
12.5999
 11
-0.79744
 21
12.6749
  0
LINE
  8
0
 10
-0.79744
 20
12.6749
 11
0
 21
12.7
  0
LINE
  8
0
 10
0
 20
12.7
 11
0.79744
 21
12.6749
  0
LINE
  8
0
 10
0.79744
 20
12.6749
 11
1.59172
 21
12.5999
  0
LINE
  8
0
 10
1.59172
 20
12.5999
 11
2.37973
 21
12.475
  0
LINE
  8
0
 10
2.37973
 20
12.475
 11
3.15836
 21
12.301
  0
LINE
  8
0
 10
3.15836
 20
12.301
 11
3.92451
 21
12.0784
  0
LINE
  8
0
 10
3.92451
 20
12.0784
 11
4.67517
 21
11.8082
  0
LINE
  8
0
 10
4.67517
 20
11.8082
 11
5.40739
 21
11.4913
  0
LINE
  8
0
 10
5.40739
 20
11.4913
 11
6.11827
 21
11.1291
  0
LINE
  8
0
 10
6.11827
 20
11.1291
 11
6.80499
 21
10.723
  0
LINE
  8
0
 10
6.80499
 20
10.723
 11
7.46486
 21
10.2745
  0
LINE
  8
0
 10
7.46486
 20
10.2745
 11
8.09528
 21
9.78551
  0
LINE
  8
0
 10
8.09528
 20
9.78551
 11
8.69374
 21
9.25789
  0
LINE
  8
0
 10
8.69374
 20
9.25789
 11
9.25789
 21
8.69374
  0
LINE
  8
0
 10
9.25789
 20
8.69374
 11
9.78551
 21
8.09528
  0
LINE
  8
0
 10
9.78551
 20
8.09528
 11
10.2745
 21
7.46486
  0
LINE
  8
0
 10
10.2745
 20
7.46486
 11
10.723
 21
6.80499
  0
LINE
  8
0
 10
10.723
 20
6.80499
 11
11.1291
 21
6.11827
  0
LINE
  8
0
 10
11.1291
 20
6.11827
 11
11.4913
 21
5.40739
  0
LINE
  8
0
 10
11.4913
 20
5.40739
 11
11.8082
 21
4.67517
  0
LINE
  8
0
 10
11.8082
 20
4.67517
 11
12.0784
 21
3.92451
  0
LINE
  8
0
 10
12.0784
 20
3.92451
 11
12.301
 21
3.15836
  0
LINE
  8
0
 10
12.301
 20
3.15836
 11
12.475
 21
2.37973
  0
LINE
  8
0
 10
12.475
 20
2.37973
 11
12.5999
 21
1.59172
  0
LINE
  8
0
 10
12.5999
 20
1.59172
 11
12.6749
 21
0.79744
  0
LINE
  8
0
 10
12.6749
 20
0.79744
 11
12.7
 21
0
  0
LINE
  8
0
 10
12.7
 20
0
 11
12.6749
 21
-0.79744
  0
LINE
  8
0
 10
12.6749
 20
-0.79744
 11
12.5999
 21
-1.59172
  0
LINE
  8
0
 10
12.5999
 20
-1.59172
 11
12.475
 21
-2.37973
  0
LINE
  8
0
 10
12.475
 20
-2.37973
 11
12.301
 21
-3.15836
  0
LINE
  8
0
 10
12.301
 20
-3.15836
 11
12.0784
 21
-3.92451
  0
LINE
  8
0
 10
12.0784
 20
-3.92451
 11
11.8082
 21
-4.67517
  0
LINE
  8
0
 10
11.8082
 20
-4.67517
 11
11.4913
 21
-5.40739
  0
LINE
  8
0
 10
11.4913
 20
-5.40739
 11
11.1291
 21
-6.11827
  0
LINE
  8
0
 10
11.1291
 20
-6.11827
 11
10.723
 21
-6.80499
  0
LINE
  8
0
 10
10.723
 20
-6.80499
 11
10.2745
 21
-7.46486
  0
LINE
  8
0
 10
10.2745
 20
-7.46486
 11
9.78551
 21
-8.09528
  0
LINE
  8
0
 10
9.78551
 20
-8.09528
 11
9.25789
 21
-8.69374
  0
LINE
  8
0
 10
9.25789
 20
-8.69374
 11
8.69374
 21
-9.25789
  0
LINE
  8
0
 10
8.69374
 20
-9.25789
 11
8.09528
 21
-9.78551
  0
LINE
  8
0
 10
8.09528
 20
-9.78551
 11
7.46486
 21
-10.2745
  0
LINE
  8
0
 10
7.46486
 20
-10.2745
 11
6.80499
 21
-10.723
  0
LINE
  8
0
 10
6.80499
 20
-10.723
 11
6.11827
 21
-11.1291
  0
LINE
  8
0
 10
6.11827
 20
-11.1291
 11
5.40739
 21
-11.4913
  0
LINE
  8
0
 10
5.40739
 20
-11.4913
 11
4.67517
 21
-11.8082
  0
LINE
  8
0
 10
4.67517
 20
-11.8082
 11
3.92451
 21
-12.0784
  0
LINE
  8
0
 10
3.92451
 20
-12.0784
 11
3.15836
 21
-12.301
  0
LINE
  8
0
 10
3.15836
 20
-12.301
 11
2.37973
 21
-12.475
  0
LINE
  8
0
 10
2.37973
 20
-12.475
 11
1.59172
 21
-12.5999
  0
LINE
  8
0
 10
1.59172
 20
-12.5999
 11
0.79744
 21
-12.6749
  0
LINE
  8
0
 10
0.79744
 20
-12.6749
 11
0
 21
-12.7
  0
LINE
  8
0
 10
0
 20
-12.7
 11
-0.79744
 21
-12.6749
  0
LINE
  8
0
 10
34.7944
 20
-32.5185
 11
34.5895
 21
-32.4992
  0
LINE
  8
0
 10
34.5895
 20
-32.4992
 11
34.3863
 21
-32.467
  0
LINE
  8
0
 10
34.3863
 20
-32.467
 11
34.1855
 21
-32.4221
  0
LINE
  8
0
 10
34.1855
 20
-32.4221
 11
33.988
 21
-32.3647
  0
LINE
  8
0
 10
33.988
 20
-32.3647
 11
33.7944
 21
-32.295
  0
LINE
  8
0
 10
33.7944
 20
-32.295
 11
33.6056
 21
-32.2133
  0
LINE
  8
0
 10
33.6056
 20
-32.2133
 11
33.4223
 21
-32.1199
  0
LINE
  8
0
 10
33.4223
 20
-32.1199
 11
33.2452
 21
-32.0152
  0
LINE
  8
0
 10
33.2452
 20
-32.0152
 11
33.075
 21
-31.8995
  0
LINE
  8
0
 10
33.075
 20
-31.8995
 11
32.9124
 21
-31.7734
  0
LINE
  8
0
 10
32.9124
 20
-31.7734
 11
32.7581
 21
-31.6374
  0
LINE
  8
0
 10
32.7581
 20
-31.6374
 11
32.6126
 21
-31.4919
  0
LINE
  8
0
 10
32.6126
 20
-31.4919
 11
32.4766
 21
-31.3376
  0
LINE
  8
0
 10
32.4766
 20
-31.3376
 11
32.3505
 21
-31.175
  0
LINE
  8
0
 10
32.3505
 20
-31.175
 11
32.2348
 21
-31.0048
  0
LINE
  8
0
 10
32.2348
 20
-31.0048
 11
32.1301
 21
-30.8277
  0
LINE
  8
0
 10
32.1301
 20
-30.8277
 11
32.0367
 21
-30.6444
  0
LINE
  8
0
 10
32.0367
 20
-30.6444
 11
31.955
 21
-30.4556
  0
LINE
  8
0
 10
31.955
 20
-30.4556
 11
31.8853
 21
-30.262
  0
LINE
  8
0
 10
31.8853
 20
-30.262
 11
31.8279
 21
-30.0645
  0
LINE
  8
0
 10
31.8279
 20
-30.0645
 11
31.783
 21
-29.8637
  0
LINE
  8
0
 10
31.783
 20
-29.8637
 11
31.7508
 21
-29.6605
  0
LINE
  8
0
 10
31.7508
 20
-29.6605
 11
31.7315
 21
-29.4556
  0
LINE
  8
0
 10
31.7315
 20
-29.4556
 11
31.725
 21
-29.25
  0
LINE
  8
0
 10
31.725
 20
-29.25
 11
31.7315
 21
-29.0444
  0
LINE
  8
0
 10
31.7315
 20
-29.0444
 11
31.7508
 21
-28.8395
  0
LINE
  8
0
 10
31.7508
 20
-28.8395
 11
31.783
 21
-28.6363
  0
LINE
  8
0
 10
31.783
 20
-28.6363
 11
31.8279
 21
-28.4355
  0
LINE
  8
0
 10
31.8279
 20
-28.4355
 11
31.8853
 21
-28.238
  0
LINE
  8
0
 10
31.8853
 20
-28.238
 11
31.955
 21
-28.0444
  0
LINE
  8
0
 10
31.955
 20
-28.0444
 11
32.0367
 21
-27.8556
  0
LINE
  8
0
 10
32.0367
 20
-27.8556
 11
32.1301
 21
-27.6723
  0
LINE
  8
0
 10
32.1301
 20
-27.6723
 11
32.2348
 21
-27.4952
  0
LINE
  8
0
 10
32.2348
 20
-27.4952
 11
32.3505
 21
-27.325
  0
LINE
  8
0
 10
32.3505
 20
-27.325
 11
32.4766
 21
-27.1624
  0
LINE
  8
0
 10
32.4766
 20
-27.1624
 11
32.6126
 21
-27.0081
  0
LINE
  8
0
 10
32.6126
 20
-27.0081
 11
32.7581
 21
-26.8626
  0
LINE
  8
0
 10
32.7581
 20
-26.8626
 11
32.9124
 21
-26.7266
  0
LINE
  8
0
 10
32.9124
 20
-26.7266
 11
33.075
 21
-26.6005
  0
LINE
  8
0
 10
33.075
 20
-26.6005
 11
33.2452
 21
-26.4848
  0
LINE
  8
0
 10
33.2452
 20
-26.4848
 11
33.4223
 21
-26.3801
  0
LINE
  8
0
 10
33.4223
 20
-26.3801
 11
33.6056
 21
-26.2867
  0
LINE
  8
0
 10
33.6056
 20
-26.2867
 11
33.7944
 21
-26.205
  0
LINE
  8
0
 10
33.7944
 20
-26.205
 11
33.988
 21
-26.1353
  0
LINE
  8
0
 10
33.988
 20
-26.1353
 11
34.1855
 21
-26.0779
  0
LINE
  8
0
 10
34.1855
 20
-26.0779
 11
34.3863
 21
-26.033
  0
LINE
  8
0
 10
34.3863
 20
-26.033
 11
34.5895
 21
-26.0008
  0
LINE
  8
0
 10
34.5895
 20
-26.0008
 11
34.7944
 21
-25.9815
  0
LINE
  8
0
 10
34.7944
 20
-25.9815
 11
35
 21
-25.975
  0
LINE
  8
0
 10
35
 20
-25.975
 11
35.2056
 21
-25.9815
  0
LINE
  8
0
 10
35.2056
 20
-25.9815
 11
35.4105
 21
-26.0008
  0
LINE
  8
0
 10
35.4105
 20
-26.0008
 11
35.6137
 21
-26.033
  0
LINE
  8
0
 10
35.6137
 20
-26.033
 11
35.8145
 21
-26.0779
  0
LINE
  8
0
 10
35.8145
 20
-26.0779
 11
36.012
 21
-26.1353
  0
LINE
  8
0
 10
36.012
 20
-26.1353
 11
36.2056
 21
-26.205
  0
LINE
  8
0
 10
36.2056
 20
-26.205
 11
36.3944
 21
-26.2867
  0
LINE
  8
0
 10
36.3944
 20
-26.2867
 11
36.5777
 21
-26.3801
  0
LINE
  8
0
 10
36.5777
 20
-26.3801
 11
36.7548
 21
-26.4848
  0
LINE
  8
0
 10
36.7548
 20
-26.4848
 11
36.925
 21
-26.6005
  0
LINE
  8
0
 10
36.925
 20
-26.6005
 11
37.0876
 21
-26.7266
  0
LINE
  8
0
 10
37.0876
 20
-26.7266
 11
37.2419
 21
-26.8626
  0
LINE
  8
0
 10
37.2419
 20
-26.8626
 11
37.3874
 21
-27.0081
  0
LINE
  8
0
 10
37.3874
 20
-27.0081
 11
37.5234
 21
-27.1624
  0
LINE
  8
0
 10
37.5234
 20
-27.1624
 11
37.6495
 21
-27.325
  0
LINE
  8
0
 10
37.6495
 20
-27.325
 11
37.7652
 21
-27.4952
  0
LINE
  8
0
 10
37.7652
 20
-27.4952
 11
37.8699
 21
-27.6723
  0
LINE
  8
0
 10
37.8699
 20
-27.6723
 11
37.9633
 21
-27.8556
  0
LINE
  8
0
 10
37.9633
 20
-27.8556
 11
38.045
 21
-28.0444
  0
LINE
  8
0
 10
38.045
 20
-28.0444
 11
38.1147
 21
-28.238
  0
LINE
  8
0
 10
38.1147
 20
-28.238
 11
38.1721
 21
-28.4355
  0
LINE
  8
0
 10
38.1721
 20
-28.4355
 11
38.217
 21
-28.6363
  0
LINE
  8
0
 10
38.217
 20
-28.6363
 11
38.2492
 21
-28.8395
  0
LINE
  8
0
 10
38.2492
 20
-28.8395
 11
38.2685
 21
-29.0444
  0
LINE
  8
0
 10
38.2685
 20
-29.0444
 11
38.275
 21
-29.25
  0
LINE
  8
0
 10
38.275
 20
-29.25
 11
38.2685
 21
-29.4556
  0
LINE
  8
0
 10
38.2685
 20
-29.4556
 11
38.2492
 21
-29.6605
  0
LINE
  8
0
 10
38.2492
 20
-29.6605
 11
38.217
 21
-29.8637
  0
LINE
  8
0
 10
38.217
 20
-29.8637
 11
38.1721
 21
-30.0645
  0
LINE
  8
0
 10
38.1721
 20
-30.0645
 11
38.1147
 21
-30.262
  0
LINE
  8
0
 10
38.1147
 20
-30.262
 11
38.045
 21
-30.4556
  0
LINE
  8
0
 10
38.045
 20
-30.4556
 11
37.9633
 21
-30.6444
  0
LINE
  8
0
 10
37.9633
 20
-30.6444
 11
37.8699
 21
-30.8277
  0
LINE
  8
0
 10
37.8699
 20
-30.8277
 11
37.7652
 21
-31.0048
  0
LINE
  8
0
 10
37.7652
 20
-31.0048
 11
37.6495
 21
-31.175
  0
LINE
  8
0
 10
37.6495
 20
-31.175
 11
37.5234
 21
-31.3376
  0
LINE
  8
0
 10
37.5234
 20
-31.3376
 11
37.3874
 21
-31.4919
  0
LINE
  8
0
 10
37.3874
 20
-31.4919
 11
37.2419
 21
-31.6374
  0
LINE
  8
0
 10
37.2419
 20
-31.6374
 11
37.0876
 21
-31.7734
  0
LINE
  8
0
 10
37.0876
 20
-31.7734
 11
36.925
 21
-31.8995
  0
LINE
  8
0
 10
36.925
 20
-31.8995
 11
36.7548
 21
-32.0152
  0
LINE
  8
0
 10
36.7548
 20
-32.0152
 11
36.5777
 21
-32.1199
  0
LINE
  8
0
 10
36.5777
 20
-32.1199
 11
36.3944
 21
-32.2133
  0
LINE
  8
0
 10
36.3944
 20
-32.2133
 11
36.2056
 21
-32.295
  0
LINE
  8
0
 10
36.2056
 20
-32.295
 11
36.012
 21
-32.3647
  0
LINE
  8
0
 10
36.012
 20
-32.3647
 11
35.8145
 21
-32.4221
  0
LINE
  8
0
 10
35.8145
 20
-32.4221
 11
35.6137
 21
-32.467
  0
LINE
  8
0
 10
35.6137
 20
-32.467
 11
35.4105
 21
-32.4992
  0
LINE
  8
0
 10
35.4105
 20
-32.4992
 11
35.2056
 21
-32.5185
  0
LINE
  8
0
 10
35.2056
 20
-32.5185
 11
35
 21
-32.525
  0
LINE
  8
0
 10
35
 20
-32.525
 11
34.7944
 21
-32.5185
  0
LINE
  8
0
 10
-35.2056
 20
-32.5185
 11
-35.4105
 21
-32.4992
  0
LINE
  8
0
 10
-35.4105
 20
-32.4992
 11
-35.6137
 21
-32.467
  0
LINE
  8
0
 10
-35.6137
 20
-32.467
 11
-35.8145
 21
-32.4221
  0
LINE
  8
0
 10
-35.8145
 20
-32.4221
 11
-36.012
 21
-32.3647
  0
LINE
  8
0
 10
-36.012
 20
-32.3647
 11
-36.2056
 21
-32.295
  0
LINE
  8
0
 10
-36.2056
 20
-32.295
 11
-36.3944
 21
-32.2133
  0
LINE
  8
0
 10
-36.3944
 20
-32.2133
 11
-36.5777
 21
-32.1199
  0
LINE
  8
0
 10
-36.5777
 20
-32.1199
 11
-36.7548
 21
-32.0152
  0
LINE
  8
0
 10
-36.7548
 20
-32.0152
 11
-36.925
 21
-31.8995
  0
LINE
  8
0
 10
-36.925
 20
-31.8995
 11
-37.0876
 21
-31.7734
  0
LINE
  8
0
 10
-37.0876
 20
-31.7734
 11
-37.2419
 21
-31.6374
  0
LINE
  8
0
 10
-37.2419
 20
-31.6374
 11
-37.3874
 21
-31.4919
  0
LINE
  8
0
 10
-37.3874
 20
-31.4919
 11
-37.5234
 21
-31.3376
  0
LINE
  8
0
 10
-37.5234
 20
-31.3376
 11
-37.6495
 21
-31.175
  0
LINE
  8
0
 10
-37.6495
 20
-31.175
 11
-37.7652
 21
-31.0048
  0
LINE
  8
0
 10
-37.7652
 20
-31.0048
 11
-37.8699
 21
-30.8277
  0
LINE
  8
0
 10
-37.8699
 20
-30.8277
 11
-37.9633
 21
-30.6444
  0
LINE
  8
0
 10
-37.9633
 20
-30.6444
 11
-38.045
 21
-30.4556
  0
LINE
  8
0
 10
-38.045
 20
-30.4556
 11
-38.1147
 21
-30.262
  0
LINE
  8
0
 10
-38.1147
 20
-30.262
 11
-38.1721
 21
-30.0645
  0
LINE
  8
0
 10
-38.1721
 20
-30.0645
 11
-38.217
 21
-29.8637
  0
LINE
  8
0
 10
-38.217
 20
-29.8637
 11
-38.2492
 21
-29.6605
  0
LINE
  8
0
 10
-38.2492
 20
-29.6605
 11
-38.2685
 21
-29.4556
  0
LINE
  8
0
 10
-38.2685
 20
-29.4556
 11
-38.275
 21
-29.25
  0
LINE
  8
0
 10
-38.275
 20
-29.25
 11
-38.2685
 21
-29.0444
  0
LINE
  8
0
 10
-38.2685
 20
-29.0444
 11
-38.2492
 21
-28.8395
  0
LINE
  8
0
 10
-38.2492
 20
-28.8395
 11
-38.217
 21
-28.6363
  0
LINE
  8
0
 10
-38.217
 20
-28.6363
 11
-38.1721
 21
-28.4355
  0
LINE
  8
0
 10
-38.1721
 20
-28.4355
 11
-38.1147
 21
-28.238
  0
LINE
  8
0
 10
-38.1147
 20
-28.238
 11
-38.045
 21
-28.0444
  0
LINE
  8
0
 10
-38.045
 20
-28.0444
 11
-37.9633
 21
-27.8556
  0
LINE
  8
0
 10
-37.9633
 20
-27.8556
 11
-37.8699
 21
-27.6723
  0
LINE
  8
0
 10
-37.8699
 20
-27.6723
 11
-37.7652
 21
-27.4952
  0
LINE
  8
0
 10
-37.7652
 20
-27.4952
 11
-37.6495
 21
-27.325
  0
LINE
  8
0
 10
-37.6495
 20
-27.325
 11
-37.5234
 21
-27.1624
  0
LINE
  8
0
 10
-37.5234
 20
-27.1624
 11
-37.3874
 21
-27.0081
  0
LINE
  8
0
 10
-37.3874
 20
-27.0081
 11
-37.2419
 21
-26.8626
  0
LINE
  8
0
 10
-37.2419
 20
-26.8626
 11
-37.0876
 21
-26.7266
  0
LINE
  8
0
 10
-37.0876
 20
-26.7266
 11
-36.925
 21
-26.6005
  0
LINE
  8
0
 10
-36.925
 20
-26.6005
 11
-36.7548
 21
-26.4848
  0
LINE
  8
0
 10
-36.7548
 20
-26.4848
 11
-36.5777
 21
-26.3801
  0
LINE
  8
0
 10
-36.5777
 20
-26.3801
 11
-36.3944
 21
-26.2867
  0
LINE
  8
0
 10
-36.3944
 20
-26.2867
 11
-36.2056
 21
-26.205
  0
LINE
  8
0
 10
-36.2056
 20
-26.205
 11
-36.012
 21
-26.1353
  0
LINE
  8
0
 10
-36.012
 20
-26.1353
 11
-35.8145
 21
-26.0779
  0
LINE
  8
0
 10
-35.8145
 20
-26.0779
 11
-35.6137
 21
-26.033
  0
LINE
  8
0
 10
-35.6137
 20
-26.033
 11
-35.4105
 21
-26.0008
  0
LINE
  8
0
 10
-35.4105
 20
-26.0008
 11
-35.2056
 21
-25.9815
  0
LINE
  8
0
 10
-35.2056
 20
-25.9815
 11
-35
 21
-25.975
  0
LINE
  8
0
 10
-35
 20
-25.975
 11
-34.7944
 21
-25.9815
  0
LINE
  8
0
 10
-34.7944
 20
-25.9815
 11
-34.5895
 21
-26.0008
  0
LINE
  8
0
 10
-34.5895
 20
-26.0008
 11
-34.3863
 21
-26.033
  0
LINE
  8
0
 10
-34.3863
 20
-26.033
 11
-34.1855
 21
-26.0779
  0
LINE
  8
0
 10
-34.1855
 20
-26.0779
 11
-33.988
 21
-26.1353
  0
LINE
  8
0
 10
-33.988
 20
-26.1353
 11
-33.7944
 21
-26.205
  0
LINE
  8
0
 10
-33.7944
 20
-26.205
 11
-33.6056
 21
-26.2867
  0
LINE
  8
0
 10
-33.6056
 20
-26.2867
 11
-33.4223
 21
-26.3801
  0
LINE
  8
0
 10
-33.4223
 20
-26.3801
 11
-33.2452
 21
-26.4848
  0
LINE
  8
0
 10
-33.2452
 20
-26.4848
 11
-33.075
 21
-26.6005
  0
LINE
  8
0
 10
-33.075
 20
-26.6005
 11
-32.9124
 21
-26.7266
  0
LINE
  8
0
 10
-32.9124
 20
-26.7266
 11
-32.7581
 21
-26.8626
  0
LINE
  8
0
 10
-32.7581
 20
-26.8626
 11
-32.6126
 21
-27.0081
  0
LINE
  8
0
 10
-32.6126
 20
-27.0081
 11
-32.4766
 21
-27.1624
  0
LINE
  8
0
 10
-32.4766
 20
-27.1624
 11
-32.3505
 21
-27.325
  0
LINE
  8
0
 10
-32.3505
 20
-27.325
 11
-32.2348
 21
-27.4952
  0
LINE
  8
0
 10
-32.2348
 20
-27.4952
 11
-32.1301
 21
-27.6723
  0
LINE
  8
0
 10
-32.1301
 20
-27.6723
 11
-32.0367
 21
-27.8556
  0
LINE
  8
0
 10
-32.0367
 20
-27.8556
 11
-31.955
 21
-28.0444
  0
LINE
  8
0
 10
-31.955
 20
-28.0444
 11
-31.8853
 21
-28.238
  0
LINE
  8
0
 10
-31.8853
 20
-28.238
 11
-31.8279
 21
-28.4355
  0
LINE
  8
0
 10
-31.8279
 20
-28.4355
 11
-31.783
 21
-28.6363
  0
LINE
  8
0
 10
-31.783
 20
-28.6363
 11
-31.7508
 21
-28.8395
  0
LINE
  8
0
 10
-31.7508
 20
-28.8395
 11
-31.7315
 21
-29.0444
  0
LINE
  8
0
 10
-31.7315
 20
-29.0444
 11
-31.725
 21
-29.25
  0
LINE
  8
0
 10
-31.725
 20
-29.25
 11
-31.7315
 21
-29.4556
  0
LINE
  8
0
 10
-31.7315
 20
-29.4556
 11
-31.7508
 21
-29.6605
  0
LINE
  8
0
 10
-31.7508
 20
-29.6605
 11
-31.783
 21
-29.8637
  0
LINE
  8
0
 10
-31.783
 20
-29.8637
 11
-31.8279
 21
-30.0645
  0
LINE
  8
0
 10
-31.8279
 20
-30.0645
 11
-31.8853
 21
-30.262
  0
LINE
  8
0
 10
-31.8853
 20
-30.262
 11
-31.955
 21
-30.4556
  0
LINE
  8
0
 10
-31.955
 20
-30.4556
 11
-32.0367
 21
-30.6444
  0
LINE
  8
0
 10
-32.0367
 20
-30.6444
 11
-32.1301
 21
-30.8277
  0
LINE
  8
0
 10
-32.1301
 20
-30.8277
 11
-32.2348
 21
-31.0048
  0
LINE
  8
0
 10
-32.2348
 20
-31.0048
 11
-32.3505
 21
-31.175
  0
LINE
  8
0
 10
-32.3505
 20
-31.175
 11
-32.4766
 21
-31.3376
  0
LINE
  8
0
 10
-32.4766
 20
-31.3376
 11
-32.6126
 21
-31.4919
  0
LINE
  8
0
 10
-32.6126
 20
-31.4919
 11
-32.7581
 21
-31.6374
  0
LINE
  8
0
 10
-32.7581
 20
-31.6374
 11
-32.9124
 21
-31.7734
  0
LINE
  8
0
 10
-32.9124
 20
-31.7734
 11
-33.075
 21
-31.8995
  0
LINE
  8
0
 10
-33.075
 20
-31.8995
 11
-33.2452
 21
-32.0152
  0
LINE
  8
0
 10
-33.2452
 20
-32.0152
 11
-33.4223
 21
-32.1199
  0
LINE
  8
0
 10
-33.4223
 20
-32.1199
 11
-33.6056
 21
-32.2133
  0
LINE
  8
0
 10
-33.6056
 20
-32.2133
 11
-33.7944
 21
-32.295
  0
LINE
  8
0
 10
-33.7944
 20
-32.295
 11
-33.988
 21
-32.3647
  0
LINE
  8
0
 10
-33.988
 20
-32.3647
 11
-34.1855
 21
-32.4221
  0
LINE
  8
0
 10
-34.1855
 20
-32.4221
 11
-34.3863
 21
-32.467
  0
LINE
  8
0
 10
-34.3863
 20
-32.467
 11
-34.5895
 21
-32.4992
  0
LINE
  8
0
 10
-34.5895
 20
-32.4992
 11
-34.7944
 21
-32.5185
  0
LINE
  8
0
 10
-34.7944
 20
-32.5185
 11
-35
 21
-32.525
  0
LINE
  8
0
 10
-35
 20
-32.525
 11
-35.2056
 21
-32.5185
  0
ENDSEC
  0
SECTION
  2
OBJECTS
  0
DICTIONARY
  0
ENDSEC
  0
EOF
