  0
SECTION
  2
BLOCKS
  0
ENDSEC
  0
SECTION
  2
ENTITIES
  0
LINE
  8
0
 10
101.6
 20
101.6
 11
-101.6
 21
101.6
  0
LINE
  8
0
 10
-101.6
 20
101.6
 11
-101.6
 21
-101.6
  0
LINE
  8
0
 10
-101.6
 20
-101.6
 11
101.6
 21
-101.6
  0
LINE
  8
0
 10
101.6
 20
-101.6
 11
101.6
 21
101.6
  0
LINE
  8
0
 10
34.7944
 20
25.9815
 11
34.5895
 21
26.0008
  0
LINE
  8
0
 10
34.5895
 20
26.0008
 11
34.3863
 21
26.033
  0
LINE
  8
0
 10
34.3863
 20
26.033
 11
34.1855
 21
26.0779
  0
LINE
  8
0
 10
34.1855
 20
26.0779
 11
33.988
 21
26.1353
  0
LINE
  8
0
 10
33.988
 20
26.1353
 11
33.7944
 21
26.205
  0
LINE
  8
0
 10
33.7944
 20
26.205
 11
33.6056
 21
26.2867
  0
LINE
  8
0
 10
33.6056
 20
26.2867
 11
33.4223
 21
26.3801
  0
LINE
  8
0
 10
33.4223
 20
26.3801
 11
33.2452
 21
26.4848
  0
LINE
  8
0
 10
33.2452
 20
26.4848
 11
33.075
 21
26.6005
  0
LINE
  8
0
 10
33.075
 20
26.6005
 11
32.9124
 21
26.7266
  0
LINE
  8
0
 10
32.9124
 20
26.7266
 11
32.7581
 21
26.8626
  0
LINE
  8
0
 10
32.7581
 20
26.8626
 11
32.6126
 21
27.0081
  0
LINE
  8
0
 10
32.6126
 20
27.0081
 11
32.4766
 21
27.1624
  0
LINE
  8
0
 10
32.4766
 20
27.1624
 11
32.3505
 21
27.325
  0
LINE
  8
0
 10
32.3505
 20
27.325
 11
32.2348
 21
27.4952
  0
LINE
  8
0
 10
32.2348
 20
27.4952
 11
32.1301
 21
27.6723
  0
LINE
  8
0
 10
32.1301
 20
27.6723
 11
32.0367
 21
27.8556
  0
LINE
  8
0
 10
32.0367
 20
27.8556
 11
31.955
 21
28.0444
  0
LINE
  8
0
 10
31.955
 20
28.0444
 11
31.8853
 21
28.238
  0
LINE
  8
0
 10
31.8853
 20
28.238
 11
31.8279
 21
28.4355
  0
LINE
  8
0
 10
31.8279
 20
28.4355
 11
31.783
 21
28.6363
  0
LINE
  8
0
 10
31.783
 20
28.6363
 11
31.7508
 21
28.8395
  0
LINE
  8
0
 10
31.7508
 20
28.8395
 11
31.7315
 21
29.0444
  0
LINE
  8
0
 10
31.7315
 20
29.0444
 11
31.725
 21
29.25
  0
LINE
  8
0
 10
31.725
 20
29.25
 11
31.7315
 21
29.4556
  0
LINE
  8
0
 10
31.7315
 20
29.4556
 11
31.7508
 21
29.6605
  0
LINE
  8
0
 10
31.7508
 20
29.6605
 11
31.783
 21
29.8637
  0
LINE
  8
0
 10
31.783
 20
29.8637
 11
31.8279
 21
30.0645
  0
LINE
  8
0
 10
31.8279
 20
30.0645
 11
31.8853
 21
30.262
  0
LINE
  8
0
 10
31.8853
 20
30.262
 11
31.955
 21
30.4556
  0
LINE
  8
0
 10
31.955
 20
30.4556
 11
32.0367
 21
30.6444
  0
LINE
  8
0
 10
32.0367
 20
30.6444
 11
32.1301
 21
30.8277
  0
LINE
  8
0
 10
32.1301
 20
30.8277
 11
32.2348
 21
31.0048
  0
LINE
  8
0
 10
32.2348
 20
31.0048
 11
32.3505
 21
31.175
  0
LINE
  8
0
 10
32.3505
 20
31.175
 11
32.4766
 21
31.3376
  0
LINE
  8
0
 10
32.4766
 20
31.3376
 11
32.6126
 21
31.4919
  0
LINE
  8
0
 10
32.6126
 20
31.4919
 11
32.7581
 21
31.6374
  0
LINE
  8
0
 10
32.7581
 20
31.6374
 11
32.9124
 21
31.7734
  0
LINE
  8
0
 10
32.9124
 20
31.7734
 11
33.075
 21
31.8995
  0
LINE
  8
0
 10
33.075
 20
31.8995
 11
33.2452
 21
32.0152
  0
LINE
  8
0
 10
33.2452
 20
32.0152
 11
33.4223
 21
32.1199
  0
LINE
  8
0
 10
33.4223
 20
32.1199
 11
33.6056
 21
32.2133
  0
LINE
  8
0
 10
33.6056
 20
32.2133
 11
33.7944
 21
32.295
  0
LINE
  8
0
 10
33.7944
 20
32.295
 11
33.988
 21
32.3647
  0
LINE
  8
0
 10
33.988
 20
32.3647
 11
34.1855
 21
32.4221
  0
LINE
  8
0
 10
34.1855
 20
32.4221
 11
34.3863
 21
32.467
  0
LINE
  8
0
 10
34.3863
 20
32.467
 11
34.5895
 21
32.4992
  0
LINE
  8
0
 10
34.5895
 20
32.4992
 11
34.7944
 21
32.5185
  0
LINE
  8
0
 10
34.7944
 20
32.5185
 11
35
 21
32.525
  0
LINE
  8
0
 10
35
 20
32.525
 11
35.2056
 21
32.5185
  0
LINE
  8
0
 10
35.2056
 20
32.5185
 11
35.4105
 21
32.4992
  0
LINE
  8
0
 10
35.4105
 20
32.4992
 11
35.6137
 21
32.467
  0
LINE
  8
0
 10
35.6137
 20
32.467
 11
35.8145
 21
32.4221
  0
LINE
  8
0
 10
35.8145
 20
32.4221
 11
36.012
 21
32.3647
  0
LINE
  8
0
 10
36.012
 20
32.3647
 11
36.2056
 21
32.295
  0
LINE
  8
0
 10
36.2056
 20
32.295
 11
36.3944
 21
32.2133
  0
LINE
  8
0
 10
36.3944
 20
32.2133
 11
36.5777
 21
32.1199
  0
LINE
  8
0
 10
36.5777
 20
32.1199
 11
36.7548
 21
32.0152
  0
LINE
  8
0
 10
36.7548
 20
32.0152
 11
36.925
 21
31.8995
  0
LINE
  8
0
 10
36.925
 20
31.8995
 11
37.0876
 21
31.7734
  0
LINE
  8
0
 10
37.0876
 20
31.7734
 11
37.2419
 21
31.6374
  0
LINE
  8
0
 10
37.2419
 20
31.6374
 11
37.3874
 21
31.4919
  0
LINE
  8
0
 10
37.3874
 20
31.4919
 11
37.5234
 21
31.3376
  0
LINE
  8
0
 10
37.5234
 20
31.3376
 11
37.6495
 21
31.175
  0
LINE
  8
0
 10
37.6495
 20
31.175
 11
37.7652
 21
31.0048
  0
LINE
  8
0
 10
37.7652
 20
31.0048
 11
37.8699
 21
30.8277
  0
LINE
  8
0
 10
37.8699
 20
30.8277
 11
37.9633
 21
30.6444
  0
LINE
  8
0
 10
37.9633
 20
30.6444
 11
38.045
 21
30.4556
  0
LINE
  8
0
 10
38.045
 20
30.4556
 11
38.1147
 21
30.262
  0
LINE
  8
0
 10
38.1147
 20
30.262
 11
38.1721
 21
30.0645
  0
LINE
  8
0
 10
38.1721
 20
30.0645
 11
38.217
 21
29.8637
  0
LINE
  8
0
 10
38.217
 20
29.8637
 11
38.2492
 21
29.6605
  0
LINE
  8
0
 10
38.2492
 20
29.6605
 11
38.2685
 21
29.4556
  0
LINE
  8
0
 10
38.2685
 20
29.4556
 11
38.275
 21
29.25
  0
LINE
  8
0
 10
38.275
 20
29.25
 11
38.2685
 21
29.0444
  0
LINE
  8
0
 10
38.2685
 20
29.0444
 11
38.2492
 21
28.8395
  0
LINE
  8
0
 10
38.2492
 20
28.8395
 11
38.217
 21
28.6363
  0
LINE
  8
0
 10
38.217
 20
28.6363
 11
38.1721
 21
28.4355
  0
LINE
  8
0
 10
38.1721
 20
28.4355
 11
38.1147
 21
28.238
  0
LINE
  8
0
 10
38.1147
 20
28.238
 11
38.045
 21
28.0444
  0
LINE
  8
0
 10
38.045
 20
28.0444
 11
37.9633
 21
27.8556
  0
LINE
  8
0
 10
37.9633
 20
27.8556
 11
37.8699
 21
27.6723
  0
LINE
  8
0
 10
37.8699
 20
27.6723
 11
37.7652
 21
27.4952
  0
LINE
  8
0
 10
37.7652
 20
27.4952
 11
37.6495
 21
27.325
  0
LINE
  8
0
 10
37.6495
 20
27.325
 11
37.5234
 21
27.1624
  0
LINE
  8
0
 10
37.5234
 20
27.1624
 11
37.3874
 21
27.0081
  0
LINE
  8
0
 10
37.3874
 20
27.0081
 11
37.2419
 21
26.8626
  0
LINE
  8
0
 10
37.2419
 20
26.8626
 11
37.0876
 21
26.7266
  0
LINE
  8
0
 10
37.0876
 20
26.7266
 11
36.925
 21
26.6005
  0
LINE
  8
0
 10
36.925
 20
26.6005
 11
36.7548
 21
26.4848
  0
LINE
  8
0
 10
36.7548
 20
26.4848
 11
36.5777
 21
26.3801
  0
LINE
  8
0
 10
36.5777
 20
26.3801
 11
36.3944
 21
26.2867
  0
LINE
  8
0
 10
36.3944
 20
26.2867
 11
36.2056
 21
26.205
  0
LINE
  8
0
 10
36.2056
 20
26.205
 11
36.012
 21
26.1353
  0
LINE
  8
0
 10
36.012
 20
26.1353
 11
35.8145
 21
26.0779
  0
LINE
  8
0
 10
35.8145
 20
26.0779
 11
35.6137
 21
26.033
  0
LINE
  8
0
 10
35.6137
 20
26.033
 11
35.4105
 21
26.0008
  0
LINE
  8
0
 10
35.4105
 20
26.0008
 11
35.2056
 21
25.9815
  0
LINE
  8
0
 10
35.2056
 20
25.9815
 11
35
 21
25.975
  0
LINE
  8
0
 10
35
 20
25.975
 11
34.7944
 21
25.9815
  0
LINE
  8
0
 10
-35.2056
 20
25.9815
 11
-35.4105
 21
26.0008
  0
LINE
  8
0
 10
-35.4105
 20
26.0008
 11
-35.6137
 21
26.033
  0
LINE
  8
0
 10
-35.6137
 20
26.033
 11
-35.8145
 21
26.0779
  0
LINE
  8
0
 10
-35.8145
 20
26.0779
 11
-36.012
 21
26.1353
  0
LINE
  8
0
 10
-36.012
 20
26.1353
 11
-36.2056
 21
26.205
  0
LINE
  8
0
 10
-36.2056
 20
26.205
 11
-36.3944
 21
26.2867
  0
LINE
  8
0
 10
-36.3944
 20
26.2867
 11
-36.5777
 21
26.3801
  0
LINE
  8
0
 10
-36.5777
 20
26.3801
 11
-36.7548
 21
26.4848
  0
LINE
  8
0
 10
-36.7548
 20
26.4848
 11
-36.925
 21
26.6005
  0
LINE
  8
0
 10
-36.925
 20
26.6005
 11
-37.0876
 21
26.7266
  0
LINE
  8
0
 10
-37.0876
 20
26.7266
 11
-37.2419
 21
26.8626
  0
LINE
  8
0
 10
-37.2419
 20
26.8626
 11
-37.3874
 21
27.0081
  0
LINE
  8
0
 10
-37.3874
 20
27.0081
 11
-37.5234
 21
27.1624
  0
LINE
  8
0
 10
-37.5234
 20
27.1624
 11
-37.6495
 21
27.325
  0
LINE
  8
0
 10
-37.6495
 20
27.325
 11
-37.7652
 21
27.4952
  0
LINE
  8
0
 10
-37.7652
 20
27.4952
 11
-37.8699
 21
27.6723
  0
LINE
  8
0
 10
-37.8699
 20
27.6723
 11
-37.9633
 21
27.8556
  0
LINE
  8
0
 10
-37.9633
 20
27.8556
 11
-38.045
 21
28.0444
  0
LINE
  8
0
 10
-38.045
 20
28.0444
 11
-38.1147
 21
28.238
  0
LINE
  8
0
 10
-38.1147
 20
28.238
 11
-38.1721
 21
28.4355
  0
LINE
  8
0
 10
-38.1721
 20
28.4355
 11
-38.217
 21
28.6363
  0
LINE
  8
0
 10
-38.217
 20
28.6363
 11
-38.2492
 21
28.8395
  0
LINE
  8
0
 10
-38.2492
 20
28.8395
 11
-38.2685
 21
29.0444
  0
LINE
  8
0
 10
-38.2685
 20
29.0444
 11
-38.275
 21
29.25
  0
LINE
  8
0
 10
-38.275
 20
29.25
 11
-38.2685
 21
29.4556
  0
LINE
  8
0
 10
-38.2685
 20
29.4556
 11
-38.2492
 21
29.6605
  0
LINE
  8
0
 10
-38.2492
 20
29.6605
 11
-38.217
 21
29.8637
  0
LINE
  8
0
 10
-38.217
 20
29.8637
 11
-38.1721
 21
30.0645
  0
LINE
  8
0
 10
-38.1721
 20
30.0645
 11
-38.1147
 21
30.262
  0
LINE
  8
0
 10
-38.1147
 20
30.262
 11
-38.045
 21
30.4556
  0
LINE
  8
0
 10
-38.045
 20
30.4556
 11
-37.9633
 21
30.6444
  0
LINE
  8
0
 10
-37.9633
 20
30.6444
 11
-37.8699
 21
30.8277
  0
LINE
  8
0
 10
-37.8699
 20
30.8277
 11
-37.7652
 21
31.0048
  0
LINE
  8
0
 10
-37.7652
 20
31.0048
 11
-37.6495
 21
31.175
  0
LINE
  8
0
 10
-37.6495
 20
31.175
 11
-37.5234
 21
31.3376
  0
LINE
  8
0
 10
-37.5234
 20
31.3376
 11
-37.3874
 21
31.4919
  0
LINE
  8
0
 10
-37.3874
 20
31.4919
 11
-37.2419
 21
31.6374
  0
LINE
  8
0
 10
-37.2419
 20
31.6374
 11
-37.0876
 21
31.7734
  0
LINE
  8
0
 10
-37.0876
 20
31.7734
 11
-36.925
 21
31.8995
  0
LINE
  8
0
 10
-36.925
 20
31.8995
 11
-36.7548
 21
32.0152
  0
LINE
  8
0
 10
-36.7548
 20
32.0152
 11
-36.5777
 21
32.1199
  0
LINE
  8
0
 10
-36.5777
 20
32.1199
 11
-36.3944
 21
32.2133
  0
LINE
  8
0
 10
-36.3944
 20
32.2133
 11
-36.2056
 21
32.295
  0
LINE
  8
0
 10
-36.2056
 20
32.295
 11
-36.012
 21
32.3647
  0
LINE
  8
0
 10
-36.012
 20
32.3647
 11
-35.8145
 21
32.4221
  0
LINE
  8
0
 10
-35.8145
 20
32.4221
 11
-35.6137
 21
32.467
  0
LINE
  8
0
 10
-35.6137
 20
32.467
 11
-35.4105
 21
32.4992
  0
LINE
  8
0
 10
-35.4105
 20
32.4992
 11
-35.2056
 21
32.5185
  0
LINE
  8
0
 10
-35.2056
 20
32.5185
 11
-35
 21
32.525
  0
LINE
  8
0
 10
-35
 20
32.525
 11
-34.7944
 21
32.5185
  0
LINE
  8
0
 10
-34.7944
 20
32.5185
 11
-34.5895
 21
32.4992
  0
LINE
  8
0
 10
-34.5895
 20
32.4992
 11
-34.3863
 21
32.467
  0
LINE
  8
0
 10
-34.3863
 20
32.467
 11
-34.1855
 21
32.4221
  0
LINE
  8
0
 10
-34.1855
 20
32.4221
 11
-33.988
 21
32.3647
  0
LINE
  8
0
 10
-33.988
 20
32.3647
 11
-33.7944
 21
32.295
  0
LINE
  8
0
 10
-33.7944
 20
32.295
 11
-33.6056
 21
32.2133
  0
LINE
  8
0
 10
-33.6056
 20
32.2133
 11
-33.4223
 21
32.1199
  0
LINE
  8
0
 10
-33.4223
 20
32.1199
 11
-33.2452
 21
32.0152
  0
LINE
  8
0
 10
-33.2452
 20
32.0152
 11
-33.075
 21
31.8995
  0
LINE
  8
0
 10
-33.075
 20
31.8995
 11
-32.9124
 21
31.7734
  0
LINE
  8
0
 10
-32.9124
 20
31.7734
 11
-32.7581
 21
31.6374
  0
LINE
  8
0
 10
-32.7581
 20
31.6374
 11
-32.6126
 21
31.4919
  0
LINE
  8
0
 10
-32.6126
 20
31.4919
 11
-32.4766
 21
31.3376
  0
LINE
  8
0
 10
-32.4766
 20
31.3376
 11
-32.3505
 21
31.175
  0
LINE
  8
0
 10
-32.3505
 20
31.175
 11
-32.2348
 21
31.0048
  0
LINE
  8
0
 10
-32.2348
 20
31.0048
 11
-32.1301
 21
30.8277
  0
LINE
  8
0
 10
-32.1301
 20
30.8277
 11
-32.0367
 21
30.6444
  0
LINE
  8
0
 10
-32.0367
 20
30.6444
 11
-31.955
 21
30.4556
  0
LINE
  8
0
 10
-31.955
 20
30.4556
 11
-31.8853
 21
30.262
  0
LINE
  8
0
 10
-31.8853
 20
30.262
 11
-31.8279
 21
30.0645
  0
LINE
  8
0
 10
-31.8279
 20
30.0645
 11
-31.783
 21
29.8637
  0
LINE
  8
0
 10
-31.783
 20
29.8637
 11
-31.7508
 21
29.6605
  0
LINE
  8
0
 10
-31.7508
 20
29.6605
 11
-31.7315
 21
29.4556
  0
LINE
  8
0
 10
-31.7315
 20
29.4556
 11
-31.725
 21
29.25
  0
LINE
  8
0
 10
-31.725
 20
29.25
 11
-31.7315
 21
29.0444
  0
LINE
  8
0
 10
-31.7315
 20
29.0444
 11
-31.7508
 21
28.8395
  0
LINE
  8
0
 10
-31.7508
 20
28.8395
 11
-31.783
 21
28.6363
  0
LINE
  8
0
 10
-31.783
 20
28.6363
 11
-31.8279
 21
28.4355
  0
LINE
  8
0
 10
-31.8279
 20
28.4355
 11
-31.8853
 21
28.238
  0
LINE
  8
0
 10
-31.8853
 20
28.238
 11
-31.955
 21
28.0444
  0
LINE
  8
0
 10
-31.955
 20
28.0444
 11
-32.0367
 21
27.8556
  0
LINE
  8
0
 10
-32.0367
 20
27.8556
 11
-32.1301
 21
27.6723
  0
LINE
  8
0
 10
-32.1301
 20
27.6723
 11
-32.2348
 21
27.4952
  0
LINE
  8
0
 10
-32.2348
 20
27.4952
 11
-32.3505
 21
27.325
  0
LINE
  8
0
 10
-32.3505
 20
27.325
 11
-32.4766
 21
27.1624
  0
LINE
  8
0
 10
-32.4766
 20
27.1624
 11
-32.6126
 21
27.0081
  0
LINE
  8
0
 10
-32.6126
 20
27.0081
 11
-32.7581
 21
26.8626
  0
LINE
  8
0
 10
-32.7581
 20
26.8626
 11
-32.9124
 21
26.7266
  0
LINE
  8
0
 10
-32.9124
 20
26.7266
 11
-33.075
 21
26.6005
  0
LINE
  8
0
 10
-33.075
 20
26.6005
 11
-33.2452
 21
26.4848
  0
LINE
  8
0
 10
-33.2452
 20
26.4848
 11
-33.4223
 21
26.3801
  0
LINE
  8
0
 10
-33.4223
 20
26.3801
 11
-33.6056
 21
26.2867
  0
LINE
  8
0
 10
-33.6056
 20
26.2867
 11
-33.7944
 21
26.205
  0
LINE
  8
0
 10
-33.7944
 20
26.205
 11
-33.988
 21
26.1353
  0
LINE
  8
0
 10
-33.988
 20
26.1353
 11
-34.1855
 21
26.0779
  0
LINE
  8
0
 10
-34.1855
 20
26.0779
 11
-34.3863
 21
26.033
  0
LINE
  8
0
 10
-34.3863
 20
26.033
 11
-34.5895
 21
26.0008
  0
LINE
  8
0
 10
-34.5895
 20
26.0008
 11
-34.7944
 21
25.9815
  0
LINE
  8
0
 10
-34.7944
 20
25.9815
 11
-35
 21
25.975
  0
LINE
  8
0
 10
-35
 20
25.975
 11
-35.2056
 21
25.9815
  0
LINE
  8
0
 10
-1.61685
 20
-25.6992
 11
-3.22733
 21
-25.547
  0
LINE
  8
0
 10
-3.22733
 20
-25.547
 11
-4.82506
 21
-25.2939
  0
LINE
  8
0
 10
-4.82506
 20
-25.2939
 11
-6.40376
 21
-24.941
  0
LINE
  8
0
 10
-6.40376
 20
-24.941
 11
-7.95718
 21
-24.4897
  0
LINE
  8
0
 10
-7.95718
 20
-24.4897
 11
-9.4792
 21
-23.9417
  0
LINE
  8
0
 10
-9.4792
 20
-23.9417
 11
-10.9638
 21
-23.2993
  0
LINE
  8
0
 10
-10.9638
 20
-23.2993
 11
-12.4052
 21
-22.5649
  0
LINE
  8
0
 10
-12.4052
 20
-22.5649
 11
-13.7975
 21
-21.7414
  0
LINE
  8
0
 10
-13.7975
 20
-21.7414
 11
-15.1355
 21
-20.8322
  0
LINE
  8
0
 10
-15.1355
 20
-20.8322
 11
-16.4137
 21
-19.8407
  0
LINE
  8
0
 10
-16.4137
 20
-19.8407
 11
-17.6271
 21
-18.7709
  0
LINE
  8
0
 10
-17.6271
 20
-18.7709
 11
-18.7709
 21
-17.6271
  0
LINE
  8
0
 10
-18.7709
 20
-17.6271
 11
-19.8407
 21
-16.4137
  0
LINE
  8
0
 10
-19.8407
 20
-16.4137
 11
-20.8322
 21
-15.1355
  0
LINE
  8
0
 10
-20.8322
 20
-15.1355
 11
-21.7414
 21
-13.7975
  0
LINE
  8
0
 10
-21.7414
 20
-13.7975
 11
-22.5649
 21
-12.4052
  0
LINE
  8
0
 10
-22.5649
 20
-12.4052
 11
-23.2993
 21
-10.9638
  0
LINE
  8
0
 10
-23.2993
 20
-10.9638
 11
-23.9417
 21
-9.4792
  0
LINE
  8
0
 10
-23.9417
 20
-9.4792
 11
-24.4897
 21
-7.95718
  0
LINE
  8
0
 10
-24.4897
 20
-7.95718
 11
-24.941
 21
-6.40376
  0
LINE
  8
0
 10
-24.941
 20
-6.40376
 11
-25.2939
 21
-4.82506
  0
LINE
  8
0
 10
-25.2939
 20
-4.82506
 11
-25.547
 21
-3.22733
  0
LINE
  8
0
 10
-25.547
 20
-3.22733
 11
-25.6992
 21
-1.61685
  0
LINE
  8
0
 10
-25.6992
 20
-1.61685
 11
-25.75
 21
0
  0
LINE
  8
0
 10
-25.75
 20
0
 11
-25.6992
 21
1.61685
  0
LINE
  8
0
 10
-25.6992
 20
1.61685
 11
-25.547
 21
3.22733
  0
LINE
  8
0
 10
-25.547
 20
3.22733
 11
-25.2939
 21
4.82506
  0
LINE
  8
0
 10
-25.2939
 20
4.82506
 11
-24.941
 21
6.40376
  0
LINE
  8
0
 10
-24.941
 20
6.40376
 11
-24.4897
 21
7.95718
  0
LINE
  8
0
 10
-24.4897
 20
7.95718
 11
-23.9417
 21
9.4792
  0
LINE
  8
0
 10
-23.9417
 20
9.4792
 11
-23.2993
 21
10.9638
  0
LINE
  8
0
 10
-23.2993
 20
10.9638
 11
-22.5649
 21
12.4052
  0
LINE
  8
0
 10
-22.5649
 20
12.4052
 11
-21.7414
 21
13.7975
  0
LINE
  8
0
 10
-21.7414
 20
13.7975
 11
-20.8322
 21
15.1355
  0
LINE
  8
0
 10
-20.8322
 20
15.1355
 11
-19.8407
 21
16.4137
  0
LINE
  8
0
 10
-19.8407
 20
16.4137
 11
-18.7709
 21
17.6271
  0
LINE
  8
0
 10
-18.7709
 20
17.6271
 11
-17.6271
 21
18.7709
  0
LINE
  8
0
 10
-17.6271
 20
18.7709
 11
-16.4137
 21
19.8407
  0
LINE
  8
0
 10
-16.4137
 20
19.8407
 11
-15.1355
 21
20.8322
  0
LINE
  8
0
 10
-15.1355
 20
20.8322
 11
-13.7975
 21
21.7414
  0
LINE
  8
0
 10
-13.7975
 20
21.7414
 11
-12.4052
 21
22.5649
  0
LINE
  8
0
 10
-12.4052
 20
22.5649
 11
-10.9638
 21
23.2993
  0
LINE
  8
0
 10
-10.9638
 20
23.2993
 11
-9.4792
 21
23.9417
  0
LINE
  8
0
 10
-9.4792
 20
23.9417
 11
-7.95718
 21
24.4897
  0
LINE
  8
0
 10
-7.95718
 20
24.4897
 11
-6.40376
 21
24.941
  0
LINE
  8
0
 10
-6.40376
 20
24.941
 11
-4.82506
 21
25.2939
  0
LINE
  8
0
 10
-4.82506
 20
25.2939
 11
-3.22733
 21
25.547
  0
LINE
  8
0
 10
-3.22733
 20
25.547
 11
-1.61685
 21
25.6992
  0
LINE
  8
0
 10
-1.61685
 20
25.6992
 11
0
 21
25.75
  0
LINE
  8
0
 10
0
 20
25.75
 11
1.61685
 21
25.6992
  0
LINE
  8
0
 10
1.61685
 20
25.6992
 11
3.22733
 21
25.547
  0
LINE
  8
0
 10
3.22733
 20
25.547
 11
4.82506
 21
25.2939
  0
LINE
  8
0
 10
4.82506
 20
25.2939
 11
6.40376
 21
24.941
  0
LINE
  8
0
 10
6.40376
 20
24.941
 11
7.95718
 21
24.4897
  0
LINE
  8
0
 10
7.95718
 20
24.4897
 11
9.4792
 21
23.9417
  0
LINE
  8
0
 10
9.4792
 20
23.9417
 11
10.9638
 21
23.2993
  0
LINE
  8
0
 10
10.9638
 20
23.2993
 11
12.4052
 21
22.5649
  0
LINE
  8
0
 10
12.4052
 20
22.5649
 11
13.7975
 21
21.7414
  0
LINE
  8
0
 10
13.7975
 20
21.7414
 11
15.1355
 21
20.8322
  0
LINE
  8
0
 10
15.1355
 20
20.8322
 11
16.4137
 21
19.8407
  0
LINE
  8
0
 10
16.4137
 20
19.8407
 11
17.6271
 21
18.7709
  0
LINE
  8
0
 10
17.6271
 20
18.7709
 11
18.7709
 21
17.6271
  0
LINE
  8
0
 10
18.7709
 20
17.6271
 11
19.8407
 21
16.4137
  0
LINE
  8
0
 10
19.8407
 20
16.4137
 11
20.8322
 21
15.1355
  0
LINE
  8
0
 10
20.8322
 20
15.1355
 11
21.7414
 21
13.7975
  0
LINE
  8
0
 10
21.7414
 20
13.7975
 11
22.5649
 21
12.4052
  0
LINE
  8
0
 10
22.5649
 20
12.4052
 11
23.2993
 21
10.9638
  0
LINE
  8
0
 10
23.2993
 20
10.9638
 11
23.9417
 21
9.4792
  0
LINE
  8
0
 10
23.9417
 20
9.4792
 11
24.4897
 21
7.95718
  0
LINE
  8
0
 10
24.4897
 20
7.95718
 11
24.941
 21
6.40376
  0
LINE
  8
0
 10
24.941
 20
6.40376
 11
25.2939
 21
4.82506
  0
LINE
  8
0
 10
25.2939
 20
4.82506
 11
25.547
 21
3.22733
  0
LINE
  8
0
 10
25.547
 20
3.22733
 11
25.6992
 21
1.61685
  0
LINE
  8
0
 10
25.6992
 20
1.61685
 11
25.75
 21
0
  0
LINE
  8
0
 10
25.75
 20
0
 11
25.6992
 21
-1.61685
  0
LINE
  8
0
 10
25.6992
 20
-1.61685
 11
25.547
 21
-3.22733
  0
LINE
  8
0
 10
25.547
 20
-3.22733
 11
25.2939
 21
-4.82506
  0
LINE
  8
0
 10
25.2939
 20
-4.82506
 11
24.941
 21
-6.40376
  0
LINE
  8
0
 10
24.941
 20
-6.40376
 11
24.4897
 21
-7.95718
  0
LINE
  8
0
 10
24.4897
 20
-7.95718
 11
23.9417
 21
-9.4792
  0
LINE
  8
0
 10
23.9417
 20
-9.4792
 11
23.2993
 21
-10.9638
  0
LINE
  8
0
 10
23.2993
 20
-10.9638
 11
22.5649
 21
-12.4052
  0
LINE
  8
0
 10
22.5649
 20
-12.4052
 11
21.7414
 21
-13.7975
  0
LINE
  8
0
 10
21.7414
 20
-13.7975
 11
20.8322
 21
-15.1355
  0
LINE
  8
0
 10
20.8322
 20
-15.1355
 11
19.8407
 21
-16.4137
  0
LINE
  8
0
 10
19.8407
 20
-16.4137
 11
18.7709
 21
-17.6271
  0
LINE
  8
0
 10
18.7709
 20
-17.6271
 11
17.6271
 21
-18.7709
  0
LINE
  8
0
 10
17.6271
 20
-18.7709
 11
16.4137
 21
-19.8407
  0
LINE
  8
0
 10
16.4137
 20
-19.8407
 11
15.1355
 21
-20.8322
  0
LINE
  8
0
 10
15.1355
 20
-20.8322
 11
13.7975
 21
-21.7414
  0
LINE
  8
0
 10
13.7975
 20
-21.7414
 11
12.4052
 21
-22.5649
  0
LINE
  8
0
 10
12.4052
 20
-22.5649
 11
10.9638
 21
-23.2993
  0
LINE
  8
0
 10
10.9638
 20
-23.2993
 11
9.4792
 21
-23.9417
  0
LINE
  8
0
 10
9.4792
 20
-23.9417
 11
7.95718
 21
-24.4897
  0
LINE
  8
0
 10
7.95718
 20
-24.4897
 11
6.40376
 21
-24.941
  0
LINE
  8
0
 10
6.40376
 20
-24.941
 11
4.82506
 21
-25.2939
  0
LINE
  8
0
 10
4.82506
 20
-25.2939
 11
3.22733
 21
-25.547
  0
LINE
  8
0
 10
3.22733
 20
-25.547
 11
1.61685
 21
-25.6992
  0
LINE
  8
0
 10
1.61685
 20
-25.6992
 11
0
 21
-25.75
  0
LINE
  8
0
 10
0
 20
-25.75
 11
-1.61685
 21
-25.6992
  0
LINE
  8
0
 10
34.7944
 20
-32.5185
 11
34.5895
 21
-32.4992
  0
LINE
  8
0
 10
34.5895
 20
-32.4992
 11
34.3863
 21
-32.467
  0
LINE
  8
0
 10
34.3863
 20
-32.467
 11
34.1855
 21
-32.4221
  0
LINE
  8
0
 10
34.1855
 20
-32.4221
 11
33.988
 21
-32.3647
  0
LINE
  8
0
 10
33.988
 20
-32.3647
 11
33.7944
 21
-32.295
  0
LINE
  8
0
 10
33.7944
 20
-32.295
 11
33.6056
 21
-32.2133
  0
LINE
  8
0
 10
33.6056
 20
-32.2133
 11
33.4223
 21
-32.1199
  0
LINE
  8
0
 10
33.4223
 20
-32.1199
 11
33.2452
 21
-32.0152
  0
LINE
  8
0
 10
33.2452
 20
-32.0152
 11
33.075
 21
-31.8995
  0
LINE
  8
0
 10
33.075
 20
-31.8995
 11
32.9124
 21
-31.7734
  0
LINE
  8
0
 10
32.9124
 20
-31.7734
 11
32.7581
 21
-31.6374
  0
LINE
  8
0
 10
32.7581
 20
-31.6374
 11
32.6126
 21
-31.4919
  0
LINE
  8
0
 10
32.6126
 20
-31.4919
 11
32.4766
 21
-31.3376
  0
LINE
  8
0
 10
32.4766
 20
-31.3376
 11
32.3505
 21
-31.175
  0
LINE
  8
0
 10
32.3505
 20
-31.175
 11
32.2348
 21
-31.0048
  0
LINE
  8
0
 10
32.2348
 20
-31.0048
 11
32.1301
 21
-30.8277
  0
LINE
  8
0
 10
32.1301
 20
-30.8277
 11
32.0367
 21
-30.6444
  0
LINE
  8
0
 10
32.0367
 20
-30.6444
 11
31.955
 21
-30.4556
  0
LINE
  8
0
 10
31.955
 20
-30.4556
 11
31.8853
 21
-30.262
  0
LINE
  8
0
 10
31.8853
 20
-30.262
 11
31.8279
 21
-30.0645
  0
LINE
  8
0
 10
31.8279
 20
-30.0645
 11
31.783
 21
-29.8637
  0
LINE
  8
0
 10
31.783
 20
-29.8637
 11
31.7508
 21
-29.6605
  0
LINE
  8
0
 10
31.7508
 20
-29.6605
 11
31.7315
 21
-29.4556
  0
LINE
  8
0
 10
31.7315
 20
-29.4556
 11
31.725
 21
-29.25
  0
LINE
  8
0
 10
31.725
 20
-29.25
 11
31.7315
 21
-29.0444
  0
LINE
  8
0
 10
31.7315
 20
-29.0444
 11
31.7508
 21
-28.8395
  0
LINE
  8
0
 10
31.7508
 20
-28.8395
 11
31.783
 21
-28.6363
  0
LINE
  8
0
 10
31.783
 20
-28.6363
 11
31.8279
 21
-28.4355
  0
LINE
  8
0
 10
31.8279
 20
-28.4355
 11
31.8853
 21
-28.238
  0
LINE
  8
0
 10
31.8853
 20
-28.238
 11
31.955
 21
-28.0444
  0
LINE
  8
0
 10
31.955
 20
-28.0444
 11
32.0367
 21
-27.8556
  0
LINE
  8
0
 10
32.0367
 20
-27.8556
 11
32.1301
 21
-27.6723
  0
LINE
  8
0
 10
32.1301
 20
-27.6723
 11
32.2348
 21
-27.4952
  0
LINE
  8
0
 10
32.2348
 20
-27.4952
 11
32.3505
 21
-27.325
  0
LINE
  8
0
 10
32.3505
 20
-27.325
 11
32.4766
 21
-27.1624
  0
LINE
  8
0
 10
32.4766
 20
-27.1624
 11
32.6126
 21
-27.0081
  0
LINE
  8
0
 10
32.6126
 20
-27.0081
 11
32.7581
 21
-26.8626
  0
LINE
  8
0
 10
32.7581
 20
-26.8626
 11
32.9124
 21
-26.7266
  0
LINE
  8
0
 10
32.9124
 20
-26.7266
 11
33.075
 21
-26.6005
  0
LINE
  8
0
 10
33.075
 20
-26.6005
 11
33.2452
 21
-26.4848
  0
LINE
  8
0
 10
33.2452
 20
-26.4848
 11
33.4223
 21
-26.3801
  0
LINE
  8
0
 10
33.4223
 20
-26.3801
 11
33.6056
 21
-26.2867
  0
LINE
  8
0
 10
33.6056
 20
-26.2867
 11
33.7944
 21
-26.205
  0
LINE
  8
0
 10
33.7944
 20
-26.205
 11
33.988
 21
-26.1353
  0
LINE
  8
0
 10
33.988
 20
-26.1353
 11
34.1855
 21
-26.0779
  0
LINE
  8
0
 10
34.1855
 20
-26.0779
 11
34.3863
 21
-26.033
  0
LINE
  8
0
 10
34.3863
 20
-26.033
 11
34.5895
 21
-26.0008
  0
LINE
  8
0
 10
34.5895
 20
-26.0008
 11
34.7944
 21
-25.9815
  0
LINE
  8
0
 10
34.7944
 20
-25.9815
 11
35
 21
-25.975
  0
LINE
  8
0
 10
35
 20
-25.975
 11
35.2056
 21
-25.9815
  0
LINE
  8
0
 10
35.2056
 20
-25.9815
 11
35.4105
 21
-26.0008
  0
LINE
  8
0
 10
35.4105
 20
-26.0008
 11
35.6137
 21
-26.033
  0
LINE
  8
0
 10
35.6137
 20
-26.033
 11
35.8145
 21
-26.0779
  0
LINE
  8
0
 10
35.8145
 20
-26.0779
 11
36.012
 21
-26.1353
  0
LINE
  8
0
 10
36.012
 20
-26.1353
 11
36.2056
 21
-26.205
  0
LINE
  8
0
 10
36.2056
 20
-26.205
 11
36.3944
 21
-26.2867
  0
LINE
  8
0
 10
36.3944
 20
-26.2867
 11
36.5777
 21
-26.3801
  0
LINE
  8
0
 10
36.5777
 20
-26.3801
 11
36.7548
 21
-26.4848
  0
LINE
  8
0
 10
36.7548
 20
-26.4848
 11
36.925
 21
-26.6005
  0
LINE
  8
0
 10
36.925
 20
-26.6005
 11
37.0876
 21
-26.7266
  0
LINE
  8
0
 10
37.0876
 20
-26.7266
 11
37.2419
 21
-26.8626
  0
LINE
  8
0
 10
37.2419
 20
-26.8626
 11
37.3874
 21
-27.0081
  0
LINE
  8
0
 10
37.3874
 20
-27.0081
 11
37.5234
 21
-27.1624
  0
LINE
  8
0
 10
37.5234
 20
-27.1624
 11
37.6495
 21
-27.325
  0
LINE
  8
0
 10
37.6495
 20
-27.325
 11
37.7652
 21
-27.4952
  0
LINE
  8
0
 10
37.7652
 20
-27.4952
 11
37.8699
 21
-27.6723
  0
LINE
  8
0
 10
37.8699
 20
-27.6723
 11
37.9633
 21
-27.8556
  0
LINE
  8
0
 10
37.9633
 20
-27.8556
 11
38.045
 21
-28.0444
  0
LINE
  8
0
 10
38.045
 20
-28.0444
 11
38.1147
 21
-28.238
  0
LINE
  8
0
 10
38.1147
 20
-28.238
 11
38.1721
 21
-28.4355
  0
LINE
  8
0
 10
38.1721
 20
-28.4355
 11
38.217
 21
-28.6363
  0
LINE
  8
0
 10
38.217
 20
-28.6363
 11
38.2492
 21
-28.8395
  0
LINE
  8
0
 10
38.2492
 20
-28.8395
 11
38.2685
 21
-29.0444
  0
LINE
  8
0
 10
38.2685
 20
-29.0444
 11
38.275
 21
-29.25
  0
LINE
  8
0
 10
38.275
 20
-29.25
 11
38.2685
 21
-29.4556
  0
LINE
  8
0
 10
38.2685
 20
-29.4556
 11
38.2492
 21
-29.6605
  0
LINE
  8
0
 10
38.2492
 20
-29.6605
 11
38.217
 21
-29.8637
  0
LINE
  8
0
 10
38.217
 20
-29.8637
 11
38.1721
 21
-30.0645
  0
LINE
  8
0
 10
38.1721
 20
-30.0645
 11
38.1147
 21
-30.262
  0
LINE
  8
0
 10
38.1147
 20
-30.262
 11
38.045
 21
-30.4556
  0
LINE
  8
0
 10
38.045
 20
-30.4556
 11
37.9633
 21
-30.6444
  0
LINE
  8
0
 10
37.9633
 20
-30.6444
 11
37.8699
 21
-30.8277
  0
LINE
  8
0
 10
37.8699
 20
-30.8277
 11
37.7652
 21
-31.0048
  0
LINE
  8
0
 10
37.7652
 20
-31.0048
 11
37.6495
 21
-31.175
  0
LINE
  8
0
 10
37.6495
 20
-31.175
 11
37.5234
 21
-31.3376
  0
LINE
  8
0
 10
37.5234
 20
-31.3376
 11
37.3874
 21
-31.4919
  0
LINE
  8
0
 10
37.3874
 20
-31.4919
 11
37.2419
 21
-31.6374
  0
LINE
  8
0
 10
37.2419
 20
-31.6374
 11
37.0876
 21
-31.7734
  0
LINE
  8
0
 10
37.0876
 20
-31.7734
 11
36.925
 21
-31.8995
  0
LINE
  8
0
 10
36.925
 20
-31.8995
 11
36.7548
 21
-32.0152
  0
LINE
  8
0
 10
36.7548
 20
-32.0152
 11
36.5777
 21
-32.1199
  0
LINE
  8
0
 10
36.5777
 20
-32.1199
 11
36.3944
 21
-32.2133
  0
LINE
  8
0
 10
36.3944
 20
-32.2133
 11
36.2056
 21
-32.295
  0
LINE
  8
0
 10
36.2056
 20
-32.295
 11
36.012
 21
-32.3647
  0
LINE
  8
0
 10
36.012
 20
-32.3647
 11
35.8145
 21
-32.4221
  0
LINE
  8
0
 10
35.8145
 20
-32.4221
 11
35.6137
 21
-32.467
  0
LINE
  8
0
 10
35.6137
 20
-32.467
 11
35.4105
 21
-32.4992
  0
LINE
  8
0
 10
35.4105
 20
-32.4992
 11
35.2056
 21
-32.5185
  0
LINE
  8
0
 10
35.2056
 20
-32.5185
 11
35
 21
-32.525
  0
LINE
  8
0
 10
35
 20
-32.525
 11
34.7944
 21
-32.5185
  0
LINE
  8
0
 10
-35.2056
 20
-32.5185
 11
-35.4105
 21
-32.4992
  0
LINE
  8
0
 10
-35.4105
 20
-32.4992
 11
-35.6137
 21
-32.467
  0
LINE
  8
0
 10
-35.6137
 20
-32.467
 11
-35.8145
 21
-32.4221
  0
LINE
  8
0
 10
-35.8145
 20
-32.4221
 11
-36.012
 21
-32.3647
  0
LINE
  8
0
 10
-36.012
 20
-32.3647
 11
-36.2056
 21
-32.295
  0
LINE
  8
0
 10
-36.2056
 20
-32.295
 11
-36.3944
 21
-32.2133
  0
LINE
  8
0
 10
-36.3944
 20
-32.2133
 11
-36.5777
 21
-32.1199
  0
LINE
  8
0
 10
-36.5777
 20
-32.1199
 11
-36.7548
 21
-32.0152
  0
LINE
  8
0
 10
-36.7548
 20
-32.0152
 11
-36.925
 21
-31.8995
  0
LINE
  8
0
 10
-36.925
 20
-31.8995
 11
-37.0876
 21
-31.7734
  0
LINE
  8
0
 10
-37.0876
 20
-31.7734
 11
-37.2419
 21
-31.6374
  0
LINE
  8
0
 10
-37.2419
 20
-31.6374
 11
-37.3874
 21
-31.4919
  0
LINE
  8
0
 10
-37.3874
 20
-31.4919
 11
-37.5234
 21
-31.3376
  0
LINE
  8
0
 10
-37.5234
 20
-31.3376
 11
-37.6495
 21
-31.175
  0
LINE
  8
0
 10
-37.6495
 20
-31.175
 11
-37.7652
 21
-31.0048
  0
LINE
  8
0
 10
-37.7652
 20
-31.0048
 11
-37.8699
 21
-30.8277
  0
LINE
  8
0
 10
-37.8699
 20
-30.8277
 11
-37.9633
 21
-30.6444
  0
LINE
  8
0
 10
-37.9633
 20
-30.6444
 11
-38.045
 21
-30.4556
  0
LINE
  8
0
 10
-38.045
 20
-30.4556
 11
-38.1147
 21
-30.262
  0
LINE
  8
0
 10
-38.1147
 20
-30.262
 11
-38.1721
 21
-30.0645
  0
LINE
  8
0
 10
-38.1721
 20
-30.0645
 11
-38.217
 21
-29.8637
  0
LINE
  8
0
 10
-38.217
 20
-29.8637
 11
-38.2492
 21
-29.6605
  0
LINE
  8
0
 10
-38.2492
 20
-29.6605
 11
-38.2685
 21
-29.4556
  0
LINE
  8
0
 10
-38.2685
 20
-29.4556
 11
-38.275
 21
-29.25
  0
LINE
  8
0
 10
-38.275
 20
-29.25
 11
-38.2685
 21
-29.0444
  0
LINE
  8
0
 10
-38.2685
 20
-29.0444
 11
-38.2492
 21
-28.8395
  0
LINE
  8
0
 10
-38.2492
 20
-28.8395
 11
-38.217
 21
-28.6363
  0
LINE
  8
0
 10
-38.217
 20
-28.6363
 11
-38.1721
 21
-28.4355
  0
LINE
  8
0
 10
-38.1721
 20
-28.4355
 11
-38.1147
 21
-28.238
  0
LINE
  8
0
 10
-38.1147
 20
-28.238
 11
-38.045
 21
-28.0444
  0
LINE
  8
0
 10
-38.045
 20
-28.0444
 11
-37.9633
 21
-27.8556
  0
LINE
  8
0
 10
-37.9633
 20
-27.8556
 11
-37.8699
 21
-27.6723
  0
LINE
  8
0
 10
-37.8699
 20
-27.6723
 11
-37.7652
 21
-27.4952
  0
LINE
  8
0
 10
-37.7652
 20
-27.4952
 11
-37.6495
 21
-27.325
  0
LINE
  8
0
 10
-37.6495
 20
-27.325
 11
-37.5234
 21
-27.1624
  0
LINE
  8
0
 10
-37.5234
 20
-27.1624
 11
-37.3874
 21
-27.0081
  0
LINE
  8
0
 10
-37.3874
 20
-27.0081
 11
-37.2419
 21
-26.8626
  0
LINE
  8
0
 10
-37.2419
 20
-26.8626
 11
-37.0876
 21
-26.7266
  0
LINE
  8
0
 10
-37.0876
 20
-26.7266
 11
-36.925
 21
-26.6005
  0
LINE
  8
0
 10
-36.925
 20
-26.6005
 11
-36.7548
 21
-26.4848
  0
LINE
  8
0
 10
-36.7548
 20
-26.4848
 11
-36.5777
 21
-26.3801
  0
LINE
  8
0
 10
-36.5777
 20
-26.3801
 11
-36.3944
 21
-26.2867
  0
LINE
  8
0
 10
-36.3944
 20
-26.2867
 11
-36.2056
 21
-26.205
  0
LINE
  8
0
 10
-36.2056
 20
-26.205
 11
-36.012
 21
-26.1353
  0
LINE
  8
0
 10
-36.012
 20
-26.1353
 11
-35.8145
 21
-26.0779
  0
LINE
  8
0
 10
-35.8145
 20
-26.0779
 11
-35.6137
 21
-26.033
  0
LINE
  8
0
 10
-35.6137
 20
-26.033
 11
-35.4105
 21
-26.0008
  0
LINE
  8
0
 10
-35.4105
 20
-26.0008
 11
-35.2056
 21
-25.9815
  0
LINE
  8
0
 10
-35.2056
 20
-25.9815
 11
-35
 21
-25.975
  0
LINE
  8
0
 10
-35
 20
-25.975
 11
-34.7944
 21
-25.9815
  0
LINE
  8
0
 10
-34.7944
 20
-25.9815
 11
-34.5895
 21
-26.0008
  0
LINE
  8
0
 10
-34.5895
 20
-26.0008
 11
-34.3863
 21
-26.033
  0
LINE
  8
0
 10
-34.3863
 20
-26.033
 11
-34.1855
 21
-26.0779
  0
LINE
  8
0
 10
-34.1855
 20
-26.0779
 11
-33.988
 21
-26.1353
  0
LINE
  8
0
 10
-33.988
 20
-26.1353
 11
-33.7944
 21
-26.205
  0
LINE
  8
0
 10
-33.7944
 20
-26.205
 11
-33.6056
 21
-26.2867
  0
LINE
  8
0
 10
-33.6056
 20
-26.2867
 11
-33.4223
 21
-26.3801
  0
LINE
  8
0
 10
-33.4223
 20
-26.3801
 11
-33.2452
 21
-26.4848
  0
LINE
  8
0
 10
-33.2452
 20
-26.4848
 11
-33.075
 21
-26.6005
  0
LINE
  8
0
 10
-33.075
 20
-26.6005
 11
-32.9124
 21
-26.7266
  0
LINE
  8
0
 10
-32.9124
 20
-26.7266
 11
-32.7581
 21
-26.8626
  0
LINE
  8
0
 10
-32.7581
 20
-26.8626
 11
-32.6126
 21
-27.0081
  0
LINE
  8
0
 10
-32.6126
 20
-27.0081
 11
-32.4766
 21
-27.1624
  0
LINE
  8
0
 10
-32.4766
 20
-27.1624
 11
-32.3505
 21
-27.325
  0
LINE
  8
0
 10
-32.3505
 20
-27.325
 11
-32.2348
 21
-27.4952
  0
LINE
  8
0
 10
-32.2348
 20
-27.4952
 11
-32.1301
 21
-27.6723
  0
LINE
  8
0
 10
-32.1301
 20
-27.6723
 11
-32.0367
 21
-27.8556
  0
LINE
  8
0
 10
-32.0367
 20
-27.8556
 11
-31.955
 21
-28.0444
  0
LINE
  8
0
 10
-31.955
 20
-28.0444
 11
-31.8853
 21
-28.238
  0
LINE
  8
0
 10
-31.8853
 20
-28.238
 11
-31.8279
 21
-28.4355
  0
LINE
  8
0
 10
-31.8279
 20
-28.4355
 11
-31.783
 21
-28.6363
  0
LINE
  8
0
 10
-31.783
 20
-28.6363
 11
-31.7508
 21
-28.8395
  0
LINE
  8
0
 10
-31.7508
 20
-28.8395
 11
-31.7315
 21
-29.0444
  0
LINE
  8
0
 10
-31.7315
 20
-29.0444
 11
-31.725
 21
-29.25
  0
LINE
  8
0
 10
-31.725
 20
-29.25
 11
-31.7315
 21
-29.4556
  0
LINE
  8
0
 10
-31.7315
 20
-29.4556
 11
-31.7508
 21
-29.6605
  0
LINE
  8
0
 10
-31.7508
 20
-29.6605
 11
-31.783
 21
-29.8637
  0
LINE
  8
0
 10
-31.783
 20
-29.8637
 11
-31.8279
 21
-30.0645
  0
LINE
  8
0
 10
-31.8279
 20
-30.0645
 11
-31.8853
 21
-30.262
  0
LINE
  8
0
 10
-31.8853
 20
-30.262
 11
-31.955
 21
-30.4556
  0
LINE
  8
0
 10
-31.955
 20
-30.4556
 11
-32.0367
 21
-30.6444
  0
LINE
  8
0
 10
-32.0367
 20
-30.6444
 11
-32.1301
 21
-30.8277
  0
LINE
  8
0
 10
-32.1301
 20
-30.8277
 11
-32.2348
 21
-31.0048
  0
LINE
  8
0
 10
-32.2348
 20
-31.0048
 11
-32.3505
 21
-31.175
  0
LINE
  8
0
 10
-32.3505
 20
-31.175
 11
-32.4766
 21
-31.3376
  0
LINE
  8
0
 10
-32.4766
 20
-31.3376
 11
-32.6126
 21
-31.4919
  0
LINE
  8
0
 10
-32.6126
 20
-31.4919
 11
-32.7581
 21
-31.6374
  0
LINE
  8
0
 10
-32.7581
 20
-31.6374
 11
-32.9124
 21
-31.7734
  0
LINE
  8
0
 10
-32.9124
 20
-31.7734
 11
-33.075
 21
-31.8995
  0
LINE
  8
0
 10
-33.075
 20
-31.8995
 11
-33.2452
 21
-32.0152
  0
LINE
  8
0
 10
-33.2452
 20
-32.0152
 11
-33.4223
 21
-32.1199
  0
LINE
  8
0
 10
-33.4223
 20
-32.1199
 11
-33.6056
 21
-32.2133
  0
LINE
  8
0
 10
-33.6056
 20
-32.2133
 11
-33.7944
 21
-32.295
  0
LINE
  8
0
 10
-33.7944
 20
-32.295
 11
-33.988
 21
-32.3647
  0
LINE
  8
0
 10
-33.988
 20
-32.3647
 11
-34.1855
 21
-32.4221
  0
LINE
  8
0
 10
-34.1855
 20
-32.4221
 11
-34.3863
 21
-32.467
  0
LINE
  8
0
 10
-34.3863
 20
-32.467
 11
-34.5895
 21
-32.4992
  0
LINE
  8
0
 10
-34.5895
 20
-32.4992
 11
-34.7944
 21
-32.5185
  0
LINE
  8
0
 10
-34.7944
 20
-32.5185
 11
-35
 21
-32.525
  0
LINE
  8
0
 10
-35
 20
-32.525
 11
-35.2056
 21
-32.5185
  0
ENDSEC
  0
SECTION
  2
OBJECTS
  0
DICTIONARY
  0
ENDSEC
  0
EOF
