  0
SECTION
  2
HEADER
  9
$ACADVER
  1
AC1009
  9
$DWGCODEPAGE
  3
ANSI_1252
  9
$INSBASE
 10
0.0
 20
0.0
 30
0.0
  9
$EXTMIN
 10
1e+20
 20
1e+20
 30
1e+20
  9
$EXTMAX
 10
-1e+20
 20
-1e+20
 30
-1e+20
  9
$LIMMIN
 10
0.0
 20
0.0
  9
$LIMMAX
 10
420.0
 20
297.0
  9
$ORTHOMODE
 70
0
  9
$REGENMODE
 70
1
  9
$FILLMODE
 70
1
  9
$DRAGMODE
 70
2
  9
$QTEXTMODE
 70
0
  9
$MIRRTEXT
 70
1
  9
$OSMODE
 70
20583
  9
$LTSCALE
 40
1.0
  9
$ATTMODE
 70
1
  9
$TEXTSIZE
 40
2.5
  9
$TRACEWID
 40
1.0
  9
$TEXTSTYLE
  7
Standard
  9
$CLAYER
  8
0
  9
$CELTYPE
  6
ByLayer
  9
$CECOLOR
 62
256
  9
$DIMSCALE
 40
1.0
  9
$DIMASZ
 40
2.5
  9
$DIMEXO
 40
0.625
  9
$DIMDLI
 40
3.75
  9
$DIMRND
 40
0.0
  9
$DIMDLE
 40
0.0
  9
$DIMEXE
 40
1.25
  9
$DIMTP
 40
0.0
  9
$DIMTM
 40
0.0
  9
$DIMTXT
 40
2.5
  9
$DIMCEN
 40
2.5
  9
$DIMTSZ
 40
0.0
  9
$DIMTOL
 70
0
  9
$DIMLIM
 70
0
  9
$DIMTIH
 70
0
  9
$DIMTOH
 70
0
  9
$DIMSE1
 70
0
  9
$DIMSE2
 70
0
  9
$DIMTAD
 70
1
  9
$DIMZIN
 70
8
  9
$DIMBLK
  1

  9
$DIMASO
 70
1
  9
$DIMSHO
 70
1
  9
$DIMPOST
  1

  9
$DIMAPOST
  1

  9
$DIMALT
 70
0
  9
$DIMALTD
 70
3
  9
$DIMALTF
 40
0.03937007874
  9
$DIMLFAC
 40
1.0
  9
$DIMTOFL
 70
1
  9
$DIMTVP
 40
0.0
  9
$DIMTIX
 70
0
  9
$DIMSOXD
 70
0
  9
$DIMSAH
 70
0
  9
$DIMBLK1
  1

  9
$DIMBLK2
  1

  9
$DIMSTYLE
  2
ISO-25
  9
$DIMCLRD
 70
0
  9
$DIMCLRE
 70
0
  9
$DIMCLRT
 70
0
  9
$DIMTFAC
 40
1.0
  9
$DIMGAP
 40
0.625
  9
$COORDS
 70
1
  9
$ATTDIA
 70
0
  9
$ATTREQ
 70
1
  9
$HANDLING
 70
1
  9
$LUNITS
 70
2
  9
$LUPREC
 70
4
  9
$SKETCHINC
 40
1.0
  9
$FILLETRAD
 40
10.0
  9
$AUNITS
 70
0
  9
$AUPREC
 70
2
  9
$MENU
  1
.
  9
$ELEVATION
 40
0.0
  9
$PELEVATION
 40
0.0
  9
$THICKNESS
 40
0.0
  9
$LIMCHECK
 70
0
  9
$CHAMFERA
 40
0.0
  9
$CHAMFERB
 40
0.0
  9
$SKPOLY
 70
0
  9
$TDCREATE
 40
2461277.4307175926
  9
$TDUPDATE
 40
2461277.4307175926
  9
$TDINDWG
 40
0.0
  9
$TDUSRTIMER
 40
0.0
  9
$USRTIMER
 70
1
  9
$ANGBASE
 50
0.0
  9
$ANGDIR
 70
0
  9
$PDMODE
 70
0
  9
$PDSIZE
 40
0.0
  9
$PLINEWID
 40
0.0
  9
$SPLFRAME
 70
0
  9
$SPLINETYPE
 70
6
  9
$SPLINESEGS
 70
8
  9
$HANDSEED
  5
2CB
  9
$SURFTAB1
 70
6
  9
$SURFTAB2
 70
6
  9
$SURFTYPE
 70
6
  9
$SURFU
 70
6
  9
$SURFV
 70
6
  9
$UCSNAME
  2

  9
$UCSORG
 10
0.0
 20
0.0
 30
0.0
  9
$UCSXDIR
 10
1.0
 20
0.0
 30
0.0
  9
$UCSYDIR
 10
0.0
 20
1.0
 30
0.0
  9
$PUCSNAME
  2

  9
$PUCSORG
 10
0.0
 20
0.0
 30
0.0
  9
$PUCSXDIR
 10
1.0
 20
0.0
 30
0.0
  9
$PUCSYDIR
 10
0.0
 20
1.0
 30
0.0
  9
$USERI1
 70
0
  9
$USERI2
 70
0
  9
$USERI3
 70
0
  9
$USERI4
 70
0
  9
$USERI5
 70
0
  9
$USERR1
 40
0.0
  9
$USERR2
 40
0.0
  9
$USERR3
 40
0.0
  9
$USERR4
 40
0.0
  9
$USERR5
 40
0.0
  9
$WORLDVIEW
 70
1
  9
$SHADEDGE
 70
3
  9
$SHADEDIF
 70
70
  9
$TILEMODE
 70
1
  9
$MAXACTVP
 70
64
  9
$PLIMCHECK
 70
0
  9
$PEXTMIN
 10
1e+20
 20
1e+20
 30
1e+20
  9
$PEXTMAX
 10
-1e+20
 20
-1e+20
 30
-1e+20
  9
$PLIMMIN
 10
0.0
 20
0.0
  9
$PLIMMAX
 10
420.0
 20
297.0
  9
$UNITMODE
 70
0
  9
$VISRETAIN
 70
1
  9
$PLINEGEN
 70
0
  9
$PSLTSCALE
 70
1
  0
ENDSEC
  0
SECTION
  2
TABLES
  0
TABLE
  2
VPORT
 70
1
  0
VPORT
  5
2BF
  2
*Active
 70
0
 10
0.0
 20
0.0
 11
1.0
 21
1.0
 12
0.0
 22
0.0
 13
0.0
 23
0.0
 14
0.5
 24
0.5
 15
0.5
 25
0.5
 16
0.0
 26
0.0
 36
1.0
 17
0.0
 27
0.0
 37
0.0
 40
1000.0
 41
1.34
 42
50.0
 43
0.0
 44
0.0
 50
0.0
 51
0.0
 71
0
 72
1000
 73
1
 74
3
 75
0
 76
0
 77
0
 78
0
  0
ENDTAB
  0
TABLE
  2
LTYPE
 70
3
  0
LTYPE
  5
2C0
  2
ByBlock
 70
0
  3

 72
65
 73
0
 40
0.0
  0
LTYPE
  5
2C1
  2
ByLayer
 70
0
  3

 72
65
 73
0
 40
0.0
  0
LTYPE
  5
2C2
  2
Continuous
 70
0
  3

 72
65
 73
0
 40
0.0
  0
ENDTAB
  0
TABLE
  2
LAYER
 70
2
  0
LAYER
  5
2C3
  2
0
 70
0
 62
1
  6
Continuous
  0
LAYER
  5
2C4
  2
Defpoints
 70
0
 62
7
  6
Continuous
  0
ENDTAB
  0
TABLE
  2
STYLE
 70
1
  0
STYLE
  5
2C5
  2
Standard
 70
0
 40
0.0
 41
1.0
 50
0.0
 71
0
 42
2.5
  3
txt
  4

  0
ENDTAB
  0
TABLE
  2
VIEW
 70
0
  0
ENDTAB
  0
TABLE
  2
UCS
 70
0
  0
ENDTAB
  0
TABLE
  2
APPID
 70
3
  0
APPID
  5
2C6
  2
ACAD
 70
0
  0
APPID
  5
2C9
  2
HATCHBACKGROUNDCOLOR
 70
0
  0
APPID
  5
2CA
  2
EZDXF
 70
0
  0
ENDTAB
  0
TABLE
  2
DIMSTYLE
 70
1
  0
DIMSTYLE
105
2C7
  2
Standard
 70
0
  3

  4

  5

  6

  7

 40
1.0
 41
2.5
 42
0.625
 43
3.75
 44
1.25
 45
0.0
 46
0.0
 47
0.0
 48
0.0
140
2.5
141
2.5
142
0.0
143
0.03937007874
144
1.0
145
0.0
146
1.0
147
0.625
 71
0
 72
0
 73
0
 74
0
 75
0
 76
0
 77
1
 78
8
170
0
171
3
172
1
173
0
174
0
175
0
176
0
177
0
178
0
  0
ENDTAB
  0
ENDSEC
  0
SECTION
  2
BLOCKS
  0
BLOCK
  5
2A0
  8
0
  2
$Model_Space
 70
0
 10
0.0
 20
0.0
 30
0.0
  3
$Model_Space
  1

1001
EZDXF
1000
WRITTEN_BY_EZDXF
1000
1.4.4 @ 2026-08-24T14:20:14.685962+00:00
  0
ENDBLK
  5
2A1
  8
0
  0
BLOCK
  5
2A2
  8
0
  2
$Paper_Space
 70
0
 10
0.0
 20
0.0
 30
0.0
  3
$Paper_Space
  1

  0
ENDBLK
  5
2A3
  8
0
  0
ENDSEC
  0
SECTION
  2
ENTITIES
  0
LINE
  5
100
  8
0
 62
1
 10
12.7
 20
50.8
 30
0.0
 11
-12.7
 21
50.8
 31
0.0
  0
LINE
  5
101
  8
0
 62
1
 10
-12.7
 20
50.8
 30
0.0
 11
-12.7
 21
-50.8
 31
0.0
  0
LINE
  5
102
  8
0
 62
1
 10
-12.7
 20
-50.8
 30
0.0
 11
12.7
 21
-50.8
 31
0.0
  0
LINE
  5
103
  8
0
 62
1
 10
12.7
 20
-50.8
 30
0.0
 11
12.7
 21
50.8
 31
0.0
  0
LINE
  5
104
  8
0
 62
1
 10
-0.211914
 20
34.7317
 30
0.0
 11
-0.422989
 21
34.7516
 31
0.0
  0
LINE
  5
105
  8
0
 62
1
 10
-0.422989
 20
34.7516
 30
0.0
 11
-0.632401
 21
34.7848
 31
0.0
  0
LINE
  5
106
  8
0
 62
1
 10
-0.632401
 20
34.7848
 30
0.0
 11
-0.839325
 21
34.831
 31
0.0
  0
LINE
  5
107
  8
0
 62
1
 10
-0.839325
 20
34.831
 30
0.0
 11
-1.04292
 21
34.8902
 31
0.0
  0
LINE
  5
108
  8
0
 62
1
 10
-1.04292
 20
34.8902
 30
0.0
 11
-1.24242
 21
34.962
 31
0.0
  0
LINE
  5
109
  8
0
 62
1
 10
-1.24242
 20
34.962
 30
0.0
 11
-1.437
 21
35.0462
 31
0.0
  0
LINE
  5
10A
  8
0
 62
1
 10
-1.437
 20
35.0462
 30
0.0
 11
-1.62592
 21
35.1425
 31
0.0
  0
LINE
  5
10B
  8
0
 62
1
 10
-1.62592
 20
35.1425
 30
0.0
 11
-1.80841
 21
35.2504
 31
0.0
  0
LINE
  5
10C
  8
0
 62
1
 10
-1.80841
 20
35.2504
 30
0.0
 11
-1.98376
 21
35.3696
 31
0.0
  0
LINE
  5
10D
  8
0
 62
1
 10
-1.98376
 20
35.3696
 30
0.0
 11
-2.15129
 21
35.4995
 31
0.0
  0
LINE
  5
10E
  8
0
 62
1
 10
-2.15129
 20
35.4995
 30
0.0
 11
-2.31033
 21
35.6397
 31
0.0
  0
LINE
  5
10F
  8
0
 62
1
 10
-2.31033
 20
35.6397
 30
0.0
 11
-2.46027
 21
35.7896
 31
0.0
  0
LINE
  5
110
  8
0
 62
1
 10
-2.46027
 20
35.7896
 30
0.0
 11
-2.60048
 21
35.9487
 31
0.0
  0
LINE
  5
111
  8
0
 62
1
 10
-2.60048
 20
35.9487
 30
0.0
 11
-2.73042
 21
36.1162
 31
0.0
  0
LINE
  5
112
  8
0
 62
1
 10
-2.73042
 20
36.1162
 30
0.0
 11
-2.84959
 21
36.2916
 31
0.0
  0
LINE
  5
113
  8
0
 62
1
 10
-2.84959
 20
36.2916
 30
0.0
 11
-2.95753
 21
36.4741
 31
0.0
  0
LINE
  5
114
  8
0
 62
1
 10
-2.95753
 20
36.4741
 30
0.0
 11
-3.05379
 21
36.663
 31
0.0
  0
LINE
  5
115
  8
0
 62
1
 10
-3.05379
 20
36.663
 30
0.0
 11
-3.13799
 21
36.8576
 31
0.0
  0
LINE
  5
116
  8
0
 62
1
 10
-3.13799
 20
36.8576
 30
0.0
 11
-3.20981
 21
37.0571
 31
0.0
  0
LINE
  5
117
  8
0
 62
1
 10
-3.20981
 20
37.0571
 30
0.0
 11
-3.26897
 21
37.2607
 31
0.0
  0
LINE
  5
118
  8
0
 62
1
 10
-3.26897
 20
37.2607
 30
0.0
 11
-3.31522
 21
37.4676
 31
0.0
  0
LINE
  5
119
  8
0
 62
1
 10
-3.31522
 20
37.4676
 30
0.0
 11
-3.34837
 21
37.677
 31
0.0
  0
LINE
  5
11A
  8
0
 62
1
 10
-3.34837
 20
37.677
 30
0.0
 11
-3.36833
 21
37.8881
 31
0.0
  0
LINE
  5
11B
  8
0
 62
1
 10
-3.36833
 20
37.8881
 30
0.0
 11
-3.375
 21
38.1
 31
0.0
  0
LINE
  5
11C
  8
0
 62
1
 10
-3.375
 20
38.1
 30
0.0
 11
-3.36833
 21
38.3119
 31
0.0
  0
LINE
  5
11D
  8
0
 62
1
 10
-3.36833
 20
38.3119
 30
0.0
 11
-3.34837
 21
38.523
 31
0.0
  0
LINE
  5
11E
  8
0
 62
1
 10
-3.34837
 20
38.523
 30
0.0
 11
-3.31522
 21
38.7324
 31
0.0
  0
LINE
  5
11F
  8
0
 62
1
 10
-3.31522
 20
38.7324
 30
0.0
 11
-3.26897
 21
38.9393
 31
0.0
  0
LINE
  5
120
  8
0
 62
1
 10
-3.26897
 20
38.9393
 30
0.0
 11
-3.20981
 21
39.1429
 31
0.0
  0
LINE
  5
121
  8
0
 62
1
 10
-3.20981
 20
39.1429
 30
0.0
 11
-3.13799
 21
39.3424
 31
0.0
  0
LINE
  5
122
  8
0
 62
1
 10
-3.13799
 20
39.3424
 30
0.0
 11
-3.05379
 21
39.537
 31
0.0
  0
LINE
  5
123
  8
0
 62
1
 10
-3.05379
 20
39.537
 30
0.0
 11
-2.95753
 21
39.7259
 31
0.0
  0
LINE
  5
124
  8
0
 62
1
 10
-2.95753
 20
39.7259
 30
0.0
 11
-2.84959
 21
39.9084
 31
0.0
  0
LINE
  5
125
  8
0
 62
1
 10
-2.84959
 20
39.9084
 30
0.0
 11
-2.73042
 21
40.0838
 31
0.0
  0
LINE
  5
126
  8
0
 62
1
 10
-2.73042
 20
40.0838
 30
0.0
 11
-2.60048
 21
40.2513
 31
0.0
  0
LINE
  5
127
  8
0
 62
1
 10
-2.60048
 20
40.2513
 30
0.0
 11
-2.46027
 21
40.4103
 31
0.0
  0
LINE
  5
128
  8
0
 62
1
 10
-2.46027
 20
40.4103
 30
0.0
 11
-2.31033
 21
40.5603
 31
0.0
  0
LINE
  5
129
  8
0
 62
1
 10
-2.31033
 20
40.5603
 30
0.0
 11
-2.15129
 21
40.7005
 31
0.0
  0
LINE
  5
12A
  8
0
 62
1
 10
-2.15129
 20
40.7005
 30
0.0
 11
-1.98376
 21
40.8304
 31
0.0
  0
LINE
  5
12B
  8
0
 62
1
 10
-1.98376
 20
40.8304
 30
0.0
 11
-1.80841
 21
40.9496
 31
0.0
  0
LINE
  5
12C
  8
0
 62
1
 10
-1.80841
 20
40.9496
 30
0.0
 11
-1.62592
 21
41.0575
 31
0.0
  0
LINE
  5
12D
  8
0
 62
1
 10
-1.62592
 20
41.0575
 30
0.0
 11
-1.437
 21
41.1538
 31
0.0
  0
LINE
  5
12E
  8
0
 62
1
 10
-1.437
 20
41.1538
 30
0.0
 11
-1.24242
 21
41.238
 31
0.0
  0
LINE
  5
12F
  8
0
 62
1
 10
-1.24242
 20
41.238
 30
0.0
 11
-1.04292
 21
41.3098
 31
0.0
  0
LINE
  5
130
  8
0
 62
1
 10
-1.04292
 20
41.3098
 30
0.0
 11
-0.839325
 21
41.369
 31
0.0
  0
LINE
  5
131
  8
0
 62
1
 10
-0.839325
 20
41.369
 30
0.0
 11
-0.632401
 21
41.4152
 31
0.0
  0
LINE
  5
132
  8
0
 62
1
 10
-0.632401
 20
41.4152
 30
0.0
 11
-0.422989
 21
41.4484
 31
0.0
  0
LINE
  5
133
  8
0
 62
1
 10
-0.422989
 20
41.4484
 30
0.0
 11
-0.211914
 21
41.4683
 31
0.0
  0
LINE
  5
134
  8
0
 62
1
 10
-0.211914
 20
41.4683
 30
0.0
 11
0.0
 21
41.475
 31
0.0
  0
LINE
  5
135
  8
0
 62
1
 10
0.0
 20
41.475
 30
0.0
 11
0.211914
 21
41.4683
 31
0.0
  0
LINE
  5
136
  8
0
 62
1
 10
0.211914
 20
41.4683
 30
0.0
 11
0.422989
 21
41.4484
 31
0.0
  0
LINE
  5
137
  8
0
 62
1
 10
0.422989
 20
41.4484
 30
0.0
 11
0.632401
 21
41.4152
 31
0.0
  0
LINE
  5
138
  8
0
 62
1
 10
0.632401
 20
41.4152
 30
0.0
 11
0.839325
 21
41.369
 31
0.0
  0
LINE
  5
139
  8
0
 62
1
 10
0.839325
 20
41.369
 30
0.0
 11
1.04292
 21
41.3098
 31
0.0
  0
LINE
  5
13A
  8
0
 62
1
 10
1.04292
 20
41.3098
 30
0.0
 11
1.24242
 21
41.238
 31
0.0
  0
LINE
  5
13B
  8
0
 62
1
 10
1.24242
 20
41.238
 30
0.0
 11
1.437
 21
41.1538
 31
0.0
  0
LINE
  5
13C
  8
0
 62
1
 10
1.437
 20
41.1538
 30
0.0
 11
1.62592
 21
41.0575
 31
0.0
  0
LINE
  5
13D
  8
0
 62
1
 10
1.62592
 20
41.0575
 30
0.0
 11
1.80841
 21
40.9496
 31
0.0
  0
LINE
  5
13E
  8
0
 62
1
 10
1.80841
 20
40.9496
 30
0.0
 11
1.98376
 21
40.8304
 31
0.0
  0
LINE
  5
13F
  8
0
 62
1
 10
1.98376
 20
40.8304
 30
0.0
 11
2.15129
 21
40.7005
 31
0.0
  0
LINE
  5
140
  8
0
 62
1
 10
2.15129
 20
40.7005
 30
0.0
 11
2.31033
 21
40.5603
 31
0.0
  0
LINE
  5
141
  8
0
 62
1
 10
2.31033
 20
40.5603
 30
0.0
 11
2.46027
 21
40.4103
 31
0.0
  0
LINE
  5
142
  8
0
 62
1
 10
2.46027
 20
40.4103
 30
0.0
 11
2.60048
 21
40.2513
 31
0.0
  0
LINE
  5
143
  8
0
 62
1
 10
2.60048
 20
40.2513
 30
0.0
 11
2.73042
 21
40.0838
 31
0.0
  0
LINE
  5
144
  8
0
 62
1
 10
2.73042
 20
40.0838
 30
0.0
 11
2.84959
 21
39.9084
 31
0.0
  0
LINE
  5
145
  8
0
 62
1
 10
2.84959
 20
39.9084
 30
0.0
 11
2.95753
 21
39.7259
 31
0.0
  0
LINE
  5
146
  8
0
 62
1
 10
2.95753
 20
39.7259
 30
0.0
 11
3.05379
 21
39.537
 31
0.0
  0
LINE
  5
147
  8
0
 62
1
 10
3.05379
 20
39.537
 30
0.0
 11
3.13799
 21
39.3424
 31
0.0
  0
LINE
  5
148
  8
0
 62
1
 10
3.13799
 20
39.3424
 30
0.0
 11
3.20981
 21
39.1429
 31
0.0
  0
LINE
  5
149
  8
0
 62
1
 10
3.20981
 20
39.1429
 30
0.0
 11
3.26897
 21
38.9393
 31
0.0
  0
LINE
  5
14A
  8
0
 62
1
 10
3.26897
 20
38.9393
 30
0.0
 11
3.31522
 21
38.7324
 31
0.0
  0
LINE
  5
14B
  8
0
 62
1
 10
3.31522
 20
38.7324
 30
0.0
 11
3.34837
 21
38.523
 31
0.0
  0
LINE
  5
14C
  8
0
 62
1
 10
3.34837
 20
38.523
 30
0.0
 11
3.36833
 21
38.3119
 31
0.0
  0
LINE
  5
14D
  8
0
 62
1
 10
3.36833
 20
38.3119
 30
0.0
 11
3.375
 21
38.1
 31
0.0
  0
LINE
  5
14E
  8
0
 62
1
 10
3.375
 20
38.1
 30
0.0
 11
3.36833
 21
37.8881
 31
0.0
  0
LINE
  5
14F
  8
0
 62
1
 10
3.36833
 20
37.8881
 30
0.0
 11
3.34837
 21
37.677
 31
0.0
  0
LINE
  5
150
  8
0
 62
1
 10
3.34837
 20
37.677
 30
0.0
 11
3.31522
 21
37.4676
 31
0.0
  0
LINE
  5
151
  8
0
 62
1
 10
3.31522
 20
37.4676
 30
0.0
 11
3.26897
 21
37.2607
 31
0.0
  0
LINE
  5
152
  8
0
 62
1
 10
3.26897
 20
37.2607
 30
0.0
 11
3.20981
 21
37.0571
 31
0.0
  0
LINE
  5
153
  8
0
 62
1
 10
3.20981
 20
37.0571
 30
0.0
 11
3.13799
 21
36.8576
 31
0.0
  0
LINE
  5
154
  8
0
 62
1
 10
3.13799
 20
36.8576
 30
0.0
 11
3.05379
 21
36.663
 31
0.0
  0
LINE
  5
155
  8
0
 62
1
 10
3.05379
 20
36.663
 30
0.0
 11
2.95753
 21
36.4741
 31
0.0
  0
LINE
  5
156
  8
0
 62
1
 10
2.95753
 20
36.4741
 30
0.0
 11
2.84959
 21
36.2916
 31
0.0
  0
LINE
  5
157
  8
0
 62
1
 10
2.84959
 20
36.2916
 30
0.0
 11
2.73042
 21
36.1162
 31
0.0
  0
LINE
  5
158
  8
0
 62
1
 10
2.73042
 20
36.1162
 30
0.0
 11
2.60048
 21
35.9487
 31
0.0
  0
LINE
  5
159
  8
0
 62
1
 10
2.60048
 20
35.9487
 30
0.0
 11
2.46027
 21
35.7896
 31
0.0
  0
LINE
  5
15A
  8
0
 62
1
 10
2.46027
 20
35.7896
 30
0.0
 11
2.31033
 21
35.6397
 31
0.0
  0
LINE
  5
15B
  8
0
 62
1
 10
2.31033
 20
35.6397
 30
0.0
 11
2.15129
 21
35.4995
 31
0.0
  0
LINE
  5
15C
  8
0
 62
1
 10
2.15129
 20
35.4995
 30
0.0
 11
1.98376
 21
35.3696
 31
0.0
  0
LINE
  5
15D
  8
0
 62
1
 10
1.98376
 20
35.3696
 30
0.0
 11
1.80841
 21
35.2504
 31
0.0
  0
LINE
  5
15E
  8
0
 62
1
 10
1.80841
 20
35.2504
 30
0.0
 11
1.62592
 21
35.1425
 31
0.0
  0
LINE
  5
15F
  8
0
 62
1
 10
1.62592
 20
35.1425
 30
0.0
 11
1.437
 21
35.0462
 31
0.0
  0
LINE
  5
160
  8
0
 62
1
 10
1.437
 20
35.0462
 30
0.0
 11
1.24242
 21
34.962
 31
0.0
  0
LINE
  5
161
  8
0
 62
1
 10
1.24242
 20
34.962
 30
0.0
 11
1.04292
 21
34.8902
 31
0.0
  0
LINE
  5
162
  8
0
 62
1
 10
1.04292
 20
34.8902
 30
0.0
 11
0.839325
 21
34.831
 31
0.0
  0
LINE
  5
163
  8
0
 62
1
 10
0.839325
 20
34.831
 30
0.0
 11
0.632401
 21
34.7848
 31
0.0
  0
LINE
  5
164
  8
0
 62
1
 10
0.632401
 20
34.7848
 30
0.0
 11
0.422989
 21
34.7516
 31
0.0
  0
LINE
  5
165
  8
0
 62
1
 10
0.422989
 20
34.7516
 30
0.0
 11
0.211914
 21
34.7317
 31
0.0
  0
LINE
  5
166
  8
0
 62
1
 10
0.211914
 20
34.7317
 30
0.0
 11
0.0
 21
34.725
 31
0.0
  0
LINE
  5
167
  8
0
 62
1
 10
0.0
 20
34.725
 30
0.0
 11
-0.211914
 21
34.7317
 31
0.0
  0
LINE
  5
168
  8
0
 62
1
 10
-0.211914
 20
9.33165
 30
0.0
 11
-0.422989
 21
9.35161
 31
0.0
  0
LINE
  5
169
  8
0
 62
1
 10
-0.422989
 20
9.35161
 30
0.0
 11
-0.632401
 21
9.38477
 31
0.0
  0
LINE
  5
16A
  8
0
 62
1
 10
-0.632401
 20
9.38477
 30
0.0
 11
-0.839325
 21
9.43103
 31
0.0
  0
LINE
  5
16B
  8
0
 62
1
 10
-0.839325
 20
9.43103
 30
0.0
 11
-1.04292
 21
9.49017
 31
0.0
  0
LINE
  5
16C
  8
0
 62
1
 10
-1.04292
 20
9.49017
 30
0.0
 11
-1.24242
 21
9.562
 31
0.0
  0
LINE
  5
16D
  8
0
 62
1
 10
-1.24242
 20
9.562
 30
0.0
 11
-1.437
 21
9.64619
 31
0.0
  0
LINE
  5
16E
  8
0
 62
1
 10
-1.437
 20
9.64619
 30
0.0
 11
-1.62592
 21
9.74246
 31
0.0
  0
LINE
  5
16F
  8
0
 62
1
 10
-1.62592
 20
9.74246
 30
0.0
 11
-1.80841
 21
9.85039
 31
0.0
  0
LINE
  5
170
  8
0
 62
1
 10
-1.80841
 20
9.85039
 30
0.0
 11
-1.98376
 21
9.96956
 31
0.0
  0
LINE
  5
171
  8
0
 62
1
 10
-1.98376
 20
9.96956
 30
0.0
 11
-2.15129
 21
10.0995
 31
0.0
  0
LINE
  5
172
  8
0
 62
1
 10
-2.15129
 20
10.0995
 30
0.0
 11
-2.31033
 21
10.2397
 31
0.0
  0
LINE
  5
173
  8
0
 62
1
 10
-2.31033
 20
10.2397
 30
0.0
 11
-2.46027
 21
10.3896
 31
0.0
  0
LINE
  5
174
  8
0
 62
1
 10
-2.46027
 20
10.3896
 30
0.0
 11
-2.60048
 21
10.5487
 31
0.0
  0
LINE
  5
175
  8
0
 62
1
 10
-2.60048
 20
10.5487
 30
0.0
 11
-2.73042
 21
10.7162
 31
0.0
  0
LINE
  5
176
  8
0
 62
1
 10
-2.73042
 20
10.7162
 30
0.0
 11
-2.84959
 21
10.8916
 31
0.0
  0
LINE
  5
177
  8
0
 62
1
 10
-2.84959
 20
10.8916
 30
0.0
 11
-2.95753
 21
11.0741
 31
0.0
  0
LINE
  5
178
  8
0
 62
1
 10
-2.95753
 20
11.0741
 30
0.0
 11
-3.05379
 21
11.263
 31
0.0
  0
LINE
  5
179
  8
0
 62
1
 10
-3.05379
 20
11.263
 30
0.0
 11
-3.13799
 21
11.4576
 31
0.0
  0
LINE
  5
17A
  8
0
 62
1
 10
-3.13799
 20
11.4576
 30
0.0
 11
-3.20981
 21
11.6571
 31
0.0
  0
LINE
  5
17B
  8
0
 62
1
 10
-3.20981
 20
11.6571
 30
0.0
 11
-3.26897
 21
11.8607
 31
0.0
  0
LINE
  5
17C
  8
0
 62
1
 10
-3.26897
 20
11.8607
 30
0.0
 11
-3.31522
 21
12.0676
 31
0.0
  0
LINE
  5
17D
  8
0
 62
1
 10
-3.31522
 20
12.0676
 30
0.0
 11
-3.34837
 21
12.277
 31
0.0
  0
LINE
  5
17E
  8
0
 62
1
 10
-3.34837
 20
12.277
 30
0.0
 11
-3.36833
 21
12.4881
 31
0.0
  0
LINE
  5
17F
  8
0
 62
1
 10
-3.36833
 20
12.4881
 30
0.0
 11
-3.375
 21
12.7
 31
0.0
  0
LINE
  5
180
  8
0
 62
1
 10
-3.375
 20
12.7
 30
0.0
 11
-3.36833
 21
12.9119
 31
0.0
  0
LINE
  5
181
  8
0
 62
1
 10
-3.36833
 20
12.9119
 30
0.0
 11
-3.34837
 21
13.123
 31
0.0
  0
LINE
  5
182
  8
0
 62
1
 10
-3.34837
 20
13.123
 30
0.0
 11
-3.31522
 21
13.3324
 31
0.0
  0
LINE
  5
183
  8
0
 62
1
 10
-3.31522
 20
13.3324
 30
0.0
 11
-3.26897
 21
13.5393
 31
0.0
  0
LINE
  5
184
  8
0
 62
1
 10
-3.26897
 20
13.5393
 30
0.0
 11
-3.20981
 21
13.7429
 31
0.0
  0
LINE
  5
185
  8
0
 62
1
 10
-3.20981
 20
13.7429
 30
0.0
 11
-3.13799
 21
13.9424
 31
0.0
  0
LINE
  5
186
  8
0
 62
1
 10
-3.13799
 20
13.9424
 30
0.0
 11
-3.05379
 21
14.137
 31
0.0
  0
LINE
  5
187
  8
0
 62
1
 10
-3.05379
 20
14.137
 30
0.0
 11
-2.95753
 21
14.3259
 31
0.0
  0
LINE
  5
188
  8
0
 62
1
 10
-2.95753
 20
14.3259
 30
0.0
 11
-2.84959
 21
14.5084
 31
0.0
  0
LINE
  5
189
  8
0
 62
1
 10
-2.84959
 20
14.5084
 30
0.0
 11
-2.73042
 21
14.6838
 31
0.0
  0
LINE
  5
18A
  8
0
 62
1
 10
-2.73042
 20
14.6838
 30
0.0
 11
-2.60048
 21
14.8513
 31
0.0
  0
LINE
  5
18B
  8
0
 62
1
 10
-2.60048
 20
14.8513
 30
0.0
 11
-2.46027
 21
15.0103
 31
0.0
  0
LINE
  5
18C
  8
0
 62
1
 10
-2.46027
 20
15.0103
 30
0.0
 11
-2.31033
 21
15.1603
 31
0.0
  0
LINE
  5
18D
  8
0
 62
1
 10
-2.31033
 20
15.1603
 30
0.0
 11
-2.15129
 21
15.3005
 31
0.0
  0
LINE
  5
18E
  8
0
 62
1
 10
-2.15129
 20
15.3005
 30
0.0
 11
-1.98376
 21
15.4304
 31
0.0
  0
LINE
  5
18F
  8
0
 62
1
 10
-1.98376
 20
15.4304
 30
0.0
 11
-1.80841
 21
15.5496
 31
0.0
  0
LINE
  5
190
  8
0
 62
1
 10
-1.80841
 20
15.5496
 30
0.0
 11
-1.62592
 21
15.6575
 31
0.0
  0
LINE
  5
191
  8
0
 62
1
 10
-1.62592
 20
15.6575
 30
0.0
 11
-1.437
 21
15.7538
 31
0.0
  0
LINE
  5
192
  8
0
 62
1
 10
-1.437
 20
15.7538
 30
0.0
 11
-1.24242
 21
15.838
 31
0.0
  0
LINE
  5
193
  8
0
 62
1
 10
-1.24242
 20
15.838
 30
0.0
 11
-1.04292
 21
15.9098
 31
0.0
  0
LINE
  5
194
  8
0
 62
1
 10
-1.04292
 20
15.9098
 30
0.0
 11
-0.839325
 21
15.969
 31
0.0
  0
LINE
  5
195
  8
0
 62
1
 10
-0.839325
 20
15.969
 30
0.0
 11
-0.632401
 21
16.0152
 31
0.0
  0
LINE
  5
196
  8
0
 62
1
 10
-0.632401
 20
16.0152
 30
0.0
 11
-0.422989
 21
16.0484
 31
0.0
  0
LINE
  5
197
  8
0
 62
1
 10
-0.422989
 20
16.0484
 30
0.0
 11
-0.211914
 21
16.0683
 31
0.0
  0
LINE
  5
198
  8
0
 62
1
 10
-0.211914
 20
16.0683
 30
0.0
 11
0.0
 21
16.075
 31
0.0
  0
LINE
  5
199
  8
0
 62
1
 10
0.0
 20
16.075
 30
0.0
 11
0.211914
 21
16.0683
 31
0.0
  0
LINE
  5
19A
  8
0
 62
1
 10
0.211914
 20
16.0683
 30
0.0
 11
0.422989
 21
16.0484
 31
0.0
  0
LINE
  5
19B
  8
0
 62
1
 10
0.422989
 20
16.0484
 30
0.0
 11
0.632401
 21
16.0152
 31
0.0
  0
LINE
  5
19C
  8
0
 62
1
 10
0.632401
 20
16.0152
 30
0.0
 11
0.839325
 21
15.969
 31
0.0
  0
LINE
  5
19D
  8
0
 62
1
 10
0.839325
 20
15.969
 30
0.0
 11
1.04292
 21
15.9098
 31
0.0
  0
LINE
  5
19E
  8
0
 62
1
 10
1.04292
 20
15.9098
 30
0.0
 11
1.24242
 21
15.838
 31
0.0
  0
LINE
  5
19F
  8
0
 62
1
 10
1.24242
 20
15.838
 30
0.0
 11
1.437
 21
15.7538
 31
0.0
  0
LINE
  5
1A0
  8
0
 62
1
 10
1.437
 20
15.7538
 30
0.0
 11
1.62592
 21
15.6575
 31
0.0
  0
LINE
  5
1A1
  8
0
 62
1
 10
1.62592
 20
15.6575
 30
0.0
 11
1.80841
 21
15.5496
 31
0.0
  0
LINE
  5
1A2
  8
0
 62
1
 10
1.80841
 20
15.5496
 30
0.0
 11
1.98376
 21
15.4304
 31
0.0
  0
LINE
  5
1A3
  8
0
 62
1
 10
1.98376
 20
15.4304
 30
0.0
 11
2.15129
 21
15.3005
 31
0.0
  0
LINE
  5
1A4
  8
0
 62
1
 10
2.15129
 20
15.3005
 30
0.0
 11
2.31033
 21
15.1603
 31
0.0
  0
LINE
  5
1A5
  8
0
 62
1
 10
2.31033
 20
15.1603
 30
0.0
 11
2.46027
 21
15.0103
 31
0.0
  0
LINE
  5
1A6
  8
0
 62
1
 10
2.46027
 20
15.0103
 30
0.0
 11
2.60048
 21
14.8513
 31
0.0
  0
LINE
  5
1A7
  8
0
 62
1
 10
2.60048
 20
14.8513
 30
0.0
 11
2.73042
 21
14.6838
 31
0.0
  0
LINE
  5
1A8
  8
0
 62
1
 10
2.73042
 20
14.6838
 30
0.0
 11
2.84959
 21
14.5084
 31
0.0
  0
LINE
  5
1A9
  8
0
 62
1
 10
2.84959
 20
14.5084
 30
0.0
 11
2.95753
 21
14.3259
 31
0.0
  0
LINE
  5
1AA
  8
0
 62
1
 10
2.95753
 20
14.3259
 30
0.0
 11
3.05379
 21
14.137
 31
0.0
  0
LINE
  5
1AB
  8
0
 62
1
 10
3.05379
 20
14.137
 30
0.0
 11
3.13799
 21
13.9424
 31
0.0
  0
LINE
  5
1AC
  8
0
 62
1
 10
3.13799
 20
13.9424
 30
0.0
 11
3.20981
 21
13.7429
 31
0.0
  0
LINE
  5
1AD
  8
0
 62
1
 10
3.20981
 20
13.7429
 30
0.0
 11
3.26897
 21
13.5393
 31
0.0
  0
LINE
  5
1AE
  8
0
 62
1
 10
3.26897
 20
13.5393
 30
0.0
 11
3.31522
 21
13.3324
 31
0.0
  0
LINE
  5
1AF
  8
0
 62
1
 10
3.31522
 20
13.3324
 30
0.0
 11
3.34837
 21
13.123
 31
0.0
  0
LINE
  5
1B0
  8
0
 62
1
 10
3.34837
 20
13.123
 30
0.0
 11
3.36833
 21
12.9119
 31
0.0
  0
LINE
  5
1B1
  8
0
 62
1
 10
3.36833
 20
12.9119
 30
0.0
 11
3.375
 21
12.7
 31
0.0
  0
LINE
  5
1B2
  8
0
 62
1
 10
3.375
 20
12.7
 30
0.0
 11
3.36833
 21
12.4881
 31
0.0
  0
LINE
  5
1B3
  8
0
 62
1
 10
3.36833
 20
12.4881
 30
0.0
 11
3.34837
 21
12.277
 31
0.0
  0
LINE
  5
1B4
  8
0
 62
1
 10
3.34837
 20
12.277
 30
0.0
 11
3.31522
 21
12.0676
 31
0.0
  0
LINE
  5
1B5
  8
0
 62
1
 10
3.31522
 20
12.0676
 30
0.0
 11
3.26897
 21
11.8607
 31
0.0
  0
LINE
  5
1B6
  8
0
 62
1
 10
3.26897
 20
11.8607
 30
0.0
 11
3.20981
 21
11.6571
 31
0.0
  0
LINE
  5
1B7
  8
0
 62
1
 10
3.20981
 20
11.6571
 30
0.0
 11
3.13799
 21
11.4576
 31
0.0
  0
LINE
  5
1B8
  8
0
 62
1
 10
3.13799
 20
11.4576
 30
0.0
 11
3.05379
 21
11.263
 31
0.0
  0
LINE
  5
1B9
  8
0
 62
1
 10
3.05379
 20
11.263
 30
0.0
 11
2.95753
 21
11.0741
 31
0.0
  0
LINE
  5
1BA
  8
0
 62
1
 10
2.95753
 20
11.0741
 30
0.0
 11
2.84959
 21
10.8916
 31
0.0
  0
LINE
  5
1BB
  8
0
 62
1
 10
2.84959
 20
10.8916
 30
0.0
 11
2.73042
 21
10.7162
 31
0.0
  0
LINE
  5
1BC
  8
0
 62
1
 10
2.73042
 20
10.7162
 30
0.0
 11
2.60048
 21
10.5487
 31
0.0
  0
LINE
  5
1BD
  8
0
 62
1
 10
2.60048
 20
10.5487
 30
0.0
 11
2.46027
 21
10.3896
 31
0.0
  0
LINE
  5
1BE
  8
0
 62
1
 10
2.46027
 20
10.3896
 30
0.0
 11
2.31033
 21
10.2397
 31
0.0
  0
LINE
  5
1BF
  8
0
 62
1
 10
2.31033
 20
10.2397
 30
0.0
 11
2.15129
 21
10.0995
 31
0.0
  0
LINE
  5
1C0
  8
0
 62
1
 10
2.15129
 20
10.0995
 30
0.0
 11
1.98376
 21
9.96956
 31
0.0
  0
LINE
  5
1C1
  8
0
 62
1
 10
1.98376
 20
9.96956
 30
0.0
 11
1.80841
 21
9.85039
 31
0.0
  0
LINE
  5
1C2
  8
0
 62
1
 10
1.80841
 20
9.85039
 30
0.0
 11
1.62592
 21
9.74246
 31
0.0
  0
LINE
  5
1C3
  8
0
 62
1
 10
1.62592
 20
9.74246
 30
0.0
 11
1.437
 21
9.64619
 31
0.0
  0
LINE
  5
1C4
  8
0
 62
1
 10
1.437
 20
9.64619
 30
0.0
 11
1.24242
 21
9.562
 31
0.0
  0
LINE
  5
1C5
  8
0
 62
1
 10
1.24242
 20
9.562
 30
0.0
 11
1.04292
 21
9.49017
 31
0.0
  0
LINE
  5
1C6
  8
0
 62
1
 10
1.04292
 20
9.49017
 30
0.0
 11
0.839325
 21
9.43103
 31
0.0
  0
LINE
  5
1C7
  8
0
 62
1
 10
0.839325
 20
9.43103
 30
0.0
 11
0.632401
 21
9.38477
 31
0.0
  0
LINE
  5
1C8
  8
0
 62
1
 10
0.632401
 20
9.38477
 30
0.0
 11
0.422989
 21
9.35161
 31
0.0
  0
LINE
  5
1C9
  8
0
 62
1
 10
0.422989
 20
9.35161
 30
0.0
 11
0.211914
 21
9.33165
 31
0.0
  0
LINE
  5
1CA
  8
0
 62
1
 10
0.211914
 20
9.33165
 30
0.0
 11
0.0
 21
9.325
 31
0.0
  0
LINE
  5
1CB
  8
0
 62
1
 10
0.0
 20
9.325
 30
0.0
 11
-0.211914
 21
9.33165
 31
0.0
  0
LINE
  5
1CC
  8
0
 62
1
 10
-0.211914
 20
-16.0683
 30
0.0
 11
-0.422989
 21
-16.0484
 31
0.0
  0
LINE
  5
1CD
  8
0
 62
1
 10
-0.422989
 20
-16.0484
 30
0.0
 11
-0.632401
 21
-16.0152
 31
0.0
  0
LINE
  5
1CE
  8
0
 62
1
 10
-0.632401
 20
-16.0152
 30
0.0
 11
-0.839325
 21
-15.969
 31
0.0
  0
LINE
  5
1CF
  8
0
 62
1
 10
-0.839325
 20
-15.969
 30
0.0
 11
-1.04292
 21
-15.9098
 31
0.0
  0
LINE
  5
1D0
  8
0
 62
1
 10
-1.04292
 20
-15.9098
 30
0.0
 11
-1.24242
 21
-15.838
 31
0.0
  0
LINE
  5
1D1
  8
0
 62
1
 10
-1.24242
 20
-15.838
 30
0.0
 11
-1.437
 21
-15.7538
 31
0.0
  0
LINE
  5
1D2
  8
0
 62
1
 10
-1.437
 20
-15.7538
 30
0.0
 11
-1.62592
 21
-15.6575
 31
0.0
  0
LINE
  5
1D3
  8
0
 62
1
 10
-1.62592
 20
-15.6575
 30
0.0
 11
-1.80841
 21
-15.5496
 31
0.0
  0
LINE
  5
1D4
  8
0
 62
1
 10
-1.80841
 20
-15.5496
 30
0.0
 11
-1.98376
 21
-15.4304
 31
0.0
  0
LINE
  5
1D5
  8
0
 62
1
 10
-1.98376
 20
-15.4304
 30
0.0
 11
-2.15129
 21
-15.3005
 31
0.0
  0
LINE
  5
1D6
  8
0
 62
1
 10
-2.15129
 20
-15.3005
 30
0.0
 11
-2.31033
 21
-15.1603
 31
0.0
  0
LINE
  5
1D7
  8
0
 62
1
 10
-2.31033
 20
-15.1603
 30
0.0
 11
-2.46027
 21
-15.0103
 31
0.0
  0
LINE
  5
1D8
  8
0
 62
1
 10
-2.46027
 20
-15.0103
 30
0.0
 11
-2.60048
 21
-14.8513
 31
0.0
  0
LINE
  5
1D9
  8
0
 62
1
 10
-2.60048
 20
-14.8513
 30
0.0
 11
-2.73042
 21
-14.6838
 31
0.0
  0
LINE
  5
1DA
  8
0
 62
1
 10
-2.73042
 20
-14.6838
 30
0.0
 11
-2.84959
 21
-14.5084
 31
0.0
  0
LINE
  5
1DB
  8
0
 62
1
 10
-2.84959
 20
-14.5084
 30
0.0
 11
-2.95753
 21
-14.3259
 31
0.0
  0
LINE
  5
1DC
  8
0
 62
1
 10
-2.95753
 20
-14.3259
 30
0.0
 11
-3.05379
 21
-14.137
 31
0.0
  0
LINE
  5
1DD
  8
0
 62
1
 10
-3.05379
 20
-14.137
 30
0.0
 11
-3.13799
 21
-13.9424
 31
0.0
  0
LINE
  5
1DE
  8
0
 62
1
 10
-3.13799
 20
-13.9424
 30
0.0
 11
-3.20981
 21
-13.7429
 31
0.0
  0
LINE
  5
1DF
  8
0
 62
1
 10
-3.20981
 20
-13.7429
 30
0.0
 11
-3.26897
 21
-13.5393
 31
0.0
  0
LINE
  5
1E0
  8
0
 62
1
 10
-3.26897
 20
-13.5393
 30
0.0
 11
-3.31522
 21
-13.3324
 31
0.0
  0
LINE
  5
1E1
  8
0
 62
1
 10
-3.31522
 20
-13.3324
 30
0.0
 11
-3.34837
 21
-13.123
 31
0.0
  0
LINE
  5
1E2
  8
0
 62
1
 10
-3.34837
 20
-13.123
 30
0.0
 11
-3.36833
 21
-12.9119
 31
0.0
  0
LINE
  5
1E3
  8
0
 62
1
 10
-3.36833
 20
-12.9119
 30
0.0
 11
-3.375
 21
-12.7
 31
0.0
  0
LINE
  5
1E4
  8
0
 62
1
 10
-3.375
 20
-12.7
 30
0.0
 11
-3.36833
 21
-12.4881
 31
0.0
  0
LINE
  5
1E5
  8
0
 62
1
 10
-3.36833
 20
-12.4881
 30
0.0
 11
-3.34837
 21
-12.277
 31
0.0
  0
LINE
  5
1E6
  8
0
 62
1
 10
-3.34837
 20
-12.277
 30
0.0
 11
-3.31522
 21
-12.0676
 31
0.0
  0
LINE
  5
1E7
  8
0
 62
1
 10
-3.31522
 20
-12.0676
 30
0.0
 11
-3.26897
 21
-11.8607
 31
0.0
  0
LINE
  5
1E8
  8
0
 62
1
 10
-3.26897
 20
-11.8607
 30
0.0
 11
-3.20981
 21
-11.6571
 31
0.0
  0
LINE
  5
1E9
  8
0
 62
1
 10
-3.20981
 20
-11.6571
 30
0.0
 11
-3.13799
 21
-11.4576
 31
0.0
  0
LINE
  5
1EA
  8
0
 62
1
 10
-3.13799
 20
-11.4576
 30
0.0
 11
-3.05379
 21
-11.263
 31
0.0
  0
LINE
  5
1EB
  8
0
 62
1
 10
-3.05379
 20
-11.263
 30
0.0
 11
-2.95753
 21
-11.0741
 31
0.0
  0
LINE
  5
1EC
  8
0
 62
1
 10
-2.95753
 20
-11.0741
 30
0.0
 11
-2.84959
 21
-10.8916
 31
0.0
  0
LINE
  5
1ED
  8
0
 62
1
 10
-2.84959
 20
-10.8916
 30
0.0
 11
-2.73042
 21
-10.7162
 31
0.0
  0
LINE
  5
1EE
  8
0
 62
1
 10
-2.73042
 20
-10.7162
 30
0.0
 11
-2.60048
 21
-10.5487
 31
0.0
  0
LINE
  5
1EF
  8
0
 62
1
 10
-2.60048
 20
-10.5487
 30
0.0
 11
-2.46027
 21
-10.3896
 31
0.0
  0
LINE
  5
1F0
  8
0
 62
1
 10
-2.46027
 20
-10.3896
 30
0.0
 11
-2.31033
 21
-10.2397
 31
0.0
  0
LINE
  5
1F1
  8
0
 62
1
 10
-2.31033
 20
-10.2397
 30
0.0
 11
-2.15129
 21
-10.0995
 31
0.0
  0
LINE
  5
1F2
  8
0
 62
1
 10
-2.15129
 20
-10.0995
 30
0.0
 11
-1.98376
 21
-9.96956
 31
0.0
  0
LINE
  5
1F3
  8
0
 62
1
 10
-1.98376
 20
-9.96956
 30
0.0
 11
-1.80841
 21
-9.85039
 31
0.0
  0
LINE
  5
1F4
  8
0
 62
1
 10
-1.80841
 20
-9.85039
 30
0.0
 11
-1.62592
 21
-9.74246
 31
0.0
  0
LINE
  5
1F5
  8
0
 62
1
 10
-1.62592
 20
-9.74246
 30
0.0
 11
-1.437
 21
-9.64619
 31
0.0
  0
LINE
  5
1F6
  8
0
 62
1
 10
-1.437
 20
-9.64619
 30
0.0
 11
-1.24242
 21
-9.562
 31
0.0
  0
LINE
  5
1F7
  8
0
 62
1
 10
-1.24242
 20
-9.562
 30
0.0
 11
-1.04292
 21
-9.49017
 31
0.0
  0
LINE
  5
1F8
  8
0
 62
1
 10
-1.04292
 20
-9.49017
 30
0.0
 11
-0.839325
 21
-9.43103
 31
0.0
  0
LINE
  5
1F9
  8
0
 62
1
 10
-0.839325
 20
-9.43103
 30
0.0
 11
-0.632401
 21
-9.38477
 31
0.0
  0
LINE
  5
1FA
  8
0
 62
1
 10
-0.632401
 20
-9.38477
 30
0.0
 11
-0.422989
 21
-9.35161
 31
0.0
  0
LINE
  5
1FB
  8
0
 62
1
 10
-0.422989
 20
-9.35161
 30
0.0
 11
-0.211914
 21
-9.33165
 31
0.0
  0
LINE
  5
1FC
  8
0
 62
1
 10
-0.211914
 20
-9.33165
 30
0.0
 11
0.0
 21
-9.325
 31
0.0
  0
LINE
  5
1FD
  8
0
 62
1
 10
0.0
 20
-9.325
 30
0.0
 11
0.211914
 21
-9.33165
 31
0.0
  0
LINE
  5
1FE
  8
0
 62
1
 10
0.211914
 20
-9.33165
 30
0.0
 11
0.422989
 21
-9.35161
 31
0.0
  0
LINE
  5
1FF
  8
0
 62
1
 10
0.422989
 20
-9.35161
 30
0.0
 11
0.632401
 21
-9.38477
 31
0.0
  0
LINE
  5
200
  8
0
 62
1
 10
0.632401
 20
-9.38477
 30
0.0
 11
0.839325
 21
-9.43103
 31
0.0
  0
LINE
  5
201
  8
0
 62
1
 10
0.839325
 20
-9.43103
 30
0.0
 11
1.04292
 21
-9.49017
 31
0.0
  0
LINE
  5
202
  8
0
 62
1
 10
1.04292
 20
-9.49017
 30
0.0
 11
1.24242
 21
-9.562
 31
0.0
  0
LINE
  5
203
  8
0
 62
1
 10
1.24242
 20
-9.562
 30
0.0
 11
1.437
 21
-9.64619
 31
0.0
  0
LINE
  5
204
  8
0
 62
1
 10
1.437
 20
-9.64619
 30
0.0
 11
1.62592
 21
-9.74246
 31
0.0
  0
LINE
  5
205
  8
0
 62
1
 10
1.62592
 20
-9.74246
 30
0.0
 11
1.80841
 21
-9.85039
 31
0.0
  0
LINE
  5
206
  8
0
 62
1
 10
1.80841
 20
-9.85039
 30
0.0
 11
1.98376
 21
-9.96956
 31
0.0
  0
LINE
  5
207
  8
0
 62
1
 10
1.98376
 20
-9.96956
 30
0.0
 11
2.15129
 21
-10.0995
 31
0.0
  0
LINE
  5
208
  8
0
 62
1
 10
2.15129
 20
-10.0995
 30
0.0
 11
2.31033
 21
-10.2397
 31
0.0
  0
LINE
  5
209
  8
0
 62
1
 10
2.31033
 20
-10.2397
 30
0.0
 11
2.46027
 21
-10.3896
 31
0.0
  0
LINE
  5
20A
  8
0
 62
1
 10
2.46027
 20
-10.3896
 30
0.0
 11
2.60048
 21
-10.5487
 31
0.0
  0
LINE
  5
20B
  8
0
 62
1
 10
2.60048
 20
-10.5487
 30
0.0
 11
2.73042
 21
-10.7162
 31
0.0
  0
LINE
  5
20C
  8
0
 62
1
 10
2.73042
 20
-10.7162
 30
0.0
 11
2.84959
 21
-10.8916
 31
0.0
  0
LINE
  5
20D
  8
0
 62
1
 10
2.84959
 20
-10.8916
 30
0.0
 11
2.95753
 21
-11.0741
 31
0.0
  0
LINE
  5
20E
  8
0
 62
1
 10
2.95753
 20
-11.0741
 30
0.0
 11
3.05379
 21
-11.263
 31
0.0
  0
LINE
  5
20F
  8
0
 62
1
 10
3.05379
 20
-11.263
 30
0.0
 11
3.13799
 21
-11.4576
 31
0.0
  0
LINE
  5
210
  8
0
 62
1
 10
3.13799
 20
-11.4576
 30
0.0
 11
3.20981
 21
-11.6571
 31
0.0
  0
LINE
  5
211
  8
0
 62
1
 10
3.20981
 20
-11.6571
 30
0.0
 11
3.26897
 21
-11.8607
 31
0.0
  0
LINE
  5
212
  8
0
 62
1
 10
3.26897
 20
-11.8607
 30
0.0
 11
3.31522
 21
-12.0676
 31
0.0
  0
LINE
  5
213
  8
0
 62
1
 10
3.31522
 20
-12.0676
 30
0.0
 11
3.34837
 21
-12.277
 31
0.0
  0
LINE
  5
214
  8
0
 62
1
 10
3.34837
 20
-12.277
 30
0.0
 11
3.36833
 21
-12.4881
 31
0.0
  0
LINE
  5
215
  8
0
 62
1
 10
3.36833
 20
-12.4881
 30
0.0
 11
3.375
 21
-12.7
 31
0.0
  0
LINE
  5
216
  8
0
 62
1
 10
3.375
 20
-12.7
 30
0.0
 11
3.36833
 21
-12.9119
 31
0.0
  0
LINE
  5
217
  8
0
 62
1
 10
3.36833
 20
-12.9119
 30
0.0
 11
3.34837
 21
-13.123
 31
0.0
  0
LINE
  5
218
  8
0
 62
1
 10
3.34837
 20
-13.123
 30
0.0
 11
3.31522
 21
-13.3324
 31
0.0
  0
LINE
  5
219
  8
0
 62
1
 10
3.31522
 20
-13.3324
 30
0.0
 11
3.26897
 21
-13.5393
 31
0.0
  0
LINE
  5
21A
  8
0
 62
1
 10
3.26897
 20
-13.5393
 30
0.0
 11
3.20981
 21
-13.7429
 31
0.0
  0
LINE
  5
21B
  8
0
 62
1
 10
3.20981
 20
-13.7429
 30
0.0
 11
3.13799
 21
-13.9424
 31
0.0
  0
LINE
  5
21C
  8
0
 62
1
 10
3.13799
 20
-13.9424
 30
0.0
 11
3.05379
 21
-14.137
 31
0.0
  0
LINE
  5
21D
  8
0
 62
1
 10
3.05379
 20
-14.137
 30
0.0
 11
2.95753
 21
-14.3259
 31
0.0
  0
LINE
  5
21E
  8
0
 62
1
 10
2.95753
 20
-14.3259
 30
0.0
 11
2.84959
 21
-14.5084
 31
0.0
  0
LINE
  5
21F
  8
0
 62
1
 10
2.84959
 20
-14.5084
 30
0.0
 11
2.73042
 21
-14.6838
 31
0.0
  0
LINE
  5
220
  8
0
 62
1
 10
2.73042
 20
-14.6838
 30
0.0
 11
2.60048
 21
-14.8513
 31
0.0
  0
LINE
  5
221
  8
0
 62
1
 10
2.60048
 20
-14.8513
 30
0.0
 11
2.46027
 21
-15.0103
 31
0.0
  0
LINE
  5
222
  8
0
 62
1
 10
2.46027
 20
-15.0103
 30
0.0
 11
2.31033
 21
-15.1603
 31
0.0
  0
LINE
  5
223
  8
0
 62
1
 10
2.31033
 20
-15.1603
 30
0.0
 11
2.15129
 21
-15.3005
 31
0.0
  0
LINE
  5
224
  8
0
 62
1
 10
2.15129
 20
-15.3005
 30
0.0
 11
1.98376
 21
-15.4304
 31
0.0
  0
LINE
  5
225
  8
0
 62
1
 10
1.98376
 20
-15.4304
 30
0.0
 11
1.80841
 21
-15.5496
 31
0.0
  0
LINE
  5
226
  8
0
 62
1
 10
1.80841
 20
-15.5496
 30
0.0
 11
1.62592
 21
-15.6575
 31
0.0
  0
LINE
  5
227
  8
0
 62
1
 10
1.62592
 20
-15.6575
 30
0.0
 11
1.437
 21
-15.7538
 31
0.0
  0
LINE
  5
228
  8
0
 62
1
 10
1.437
 20
-15.7538
 30
0.0
 11
1.24242
 21
-15.838
 31
0.0
  0
LINE
  5
229
  8
0
 62
1
 10
1.24242
 20
-15.838
 30
0.0
 11
1.04292
 21
-15.9098
 31
0.0
  0
LINE
  5
22A
  8
0
 62
1
 10
1.04292
 20
-15.9098
 30
0.0
 11
0.839325
 21
-15.969
 31
0.0
  0
LINE
  5
22B
  8
0
 62
1
 10
0.839325
 20
-15.969
 30
0.0
 11
0.632401
 21
-16.0152
 31
0.0
  0
LINE
  5
22C
  8
0
 62
1
 10
0.632401
 20
-16.0152
 30
0.0
 11
0.422989
 21
-16.0484
 31
0.0
  0
LINE
  5
22D
  8
0
 62
1
 10
0.422989
 20
-16.0484
 30
0.0
 11
0.211914
 21
-16.0683
 31
0.0
  0
LINE
  5
22E
  8
0
 62
1
 10
0.211914
 20
-16.0683
 30
0.0
 11
0.0
 21
-16.075
 31
0.0
  0
LINE
  5
22F
  8
0
 62
1
 10
0.0
 20
-16.075
 30
0.0
 11
-0.211914
 21
-16.0683
 31
0.0
  0
LINE
  5
230
  8
0
 62
1
 10
-0.211914
 20
-41.4683
 30
0.0
 11
-0.422989
 21
-41.4484
 31
0.0
  0
LINE
  5
231
  8
0
 62
1
 10
-0.422989
 20
-41.4484
 30
0.0
 11
-0.632401
 21
-41.4152
 31
0.0
  0
LINE
  5
232
  8
0
 62
1
 10
-0.632401
 20
-41.4152
 30
0.0
 11
-0.839325
 21
-41.369
 31
0.0
  0
LINE
  5
233
  8
0
 62
1
 10
-0.839325
 20
-41.369
 30
0.0
 11
-1.04292
 21
-41.3098
 31
0.0
  0
LINE
  5
234
  8
0
 62
1
 10
-1.04292
 20
-41.3098
 30
0.0
 11
-1.24242
 21
-41.238
 31
0.0
  0
LINE
  5
235
  8
0
 62
1
 10
-1.24242
 20
-41.238
 30
0.0
 11
-1.437
 21
-41.1538
 31
0.0
  0
LINE
  5
236
  8
0
 62
1
 10
-1.437
 20
-41.1538
 30
0.0
 11
-1.62592
 21
-41.0575
 31
0.0
  0
LINE
  5
237
  8
0
 62
1
 10
-1.62592
 20
-41.0575
 30
0.0
 11
-1.80841
 21
-40.9496
 31
0.0
  0
LINE
  5
238
  8
0
 62
1
 10
-1.80841
 20
-40.9496
 30
0.0
 11
-1.98376
 21
-40.8304
 31
0.0
  0
LINE
  5
239
  8
0
 62
1
 10
-1.98376
 20
-40.8304
 30
0.0
 11
-2.15129
 21
-40.7005
 31
0.0
  0
LINE
  5
23A
  8
0
 62
1
 10
-2.15129
 20
-40.7005
 30
0.0
 11
-2.31033
 21
-40.5603
 31
0.0
  0
LINE
  5
23B
  8
0
 62
1
 10
-2.31033
 20
-40.5603
 30
0.0
 11
-2.46027
 21
-40.4103
 31
0.0
  0
LINE
  5
23C
  8
0
 62
1
 10
-2.46027
 20
-40.4103
 30
0.0
 11
-2.60048
 21
-40.2513
 31
0.0
  0
LINE
  5
23D
  8
0
 62
1
 10
-2.60048
 20
-40.2513
 30
0.0
 11
-2.73042
 21
-40.0838
 31
0.0
  0
LINE
  5
23E
  8
0
 62
1
 10
-2.73042
 20
-40.0838
 30
0.0
 11
-2.84959
 21
-39.9084
 31
0.0
  0
LINE
  5
23F
  8
0
 62
1
 10
-2.84959
 20
-39.9084
 30
0.0
 11
-2.95753
 21
-39.7259
 31
0.0
  0
LINE
  5
240
  8
0
 62
1
 10
-2.95753
 20
-39.7259
 30
0.0
 11
-3.05379
 21
-39.537
 31
0.0
  0
LINE
  5
241
  8
0
 62
1
 10
-3.05379
 20
-39.537
 30
0.0
 11
-3.13799
 21
-39.3424
 31
0.0
  0
LINE
  5
242
  8
0
 62
1
 10
-3.13799
 20
-39.3424
 30
0.0
 11
-3.20981
 21
-39.1429
 31
0.0
  0
LINE
  5
243
  8
0
 62
1
 10
-3.20981
 20
-39.1429
 30
0.0
 11
-3.26897
 21
-38.9393
 31
0.0
  0
LINE
  5
244
  8
0
 62
1
 10
-3.26897
 20
-38.9393
 30
0.0
 11
-3.31522
 21
-38.7324
 31
0.0
  0
LINE
  5
245
  8
0
 62
1
 10
-3.31522
 20
-38.7324
 30
0.0
 11
-3.34837
 21
-38.523
 31
0.0
  0
LINE
  5
246
  8
0
 62
1
 10
-3.34837
 20
-38.523
 30
0.0
 11
-3.36833
 21
-38.3119
 31
0.0
  0
LINE
  5
247
  8
0
 62
1
 10
-3.36833
 20
-38.3119
 30
0.0
 11
-3.375
 21
-38.1
 31
0.0
  0
LINE
  5
248
  8
0
 62
1
 10
-3.375
 20
-38.1
 30
0.0
 11
-3.36833
 21
-37.8881
 31
0.0
  0
LINE
  5
249
  8
0
 62
1
 10
-3.36833
 20
-37.8881
 30
0.0
 11
-3.34837
 21
-37.677
 31
0.0
  0
LINE
  5
24A
  8
0
 62
1
 10
-3.34837
 20
-37.677
 30
0.0
 11
-3.31522
 21
-37.4676
 31
0.0
  0
LINE
  5
24B
  8
0
 62
1
 10
-3.31522
 20
-37.4676
 30
0.0
 11
-3.26897
 21
-37.2607
 31
0.0
  0
LINE
  5
24C
  8
0
 62
1
 10
-3.26897
 20
-37.2607
 30
0.0
 11
-3.20981
 21
-37.0571
 31
0.0
  0
LINE
  5
24D
  8
0
 62
1
 10
-3.20981
 20
-37.0571
 30
0.0
 11
-3.13799
 21
-36.8576
 31
0.0
  0
LINE
  5
24E
  8
0
 62
1
 10
-3.13799
 20
-36.8576
 30
0.0
 11
-3.05379
 21
-36.663
 31
0.0
  0
LINE
  5
24F
  8
0
 62
1
 10
-3.05379
 20
-36.663
 30
0.0
 11
-2.95753
 21
-36.4741
 31
0.0
  0
LINE
  5
250
  8
0
 62
1
 10
-2.95753
 20
-36.4741
 30
0.0
 11
-2.84959
 21
-36.2916
 31
0.0
  0
LINE
  5
251
  8
0
 62
1
 10
-2.84959
 20
-36.2916
 30
0.0
 11
-2.73042
 21
-36.1162
 31
0.0
  0
LINE
  5
252
  8
0
 62
1
 10
-2.73042
 20
-36.1162
 30
0.0
 11
-2.60048
 21
-35.9487
 31
0.0
  0
LINE
  5
253
  8
0
 62
1
 10
-2.60048
 20
-35.9487
 30
0.0
 11
-2.46027
 21
-35.7896
 31
0.0
  0
LINE
  5
254
  8
0
 62
1
 10
-2.46027
 20
-35.7896
 30
0.0
 11
-2.31033
 21
-35.6397
 31
0.0
  0
LINE
  5
255
  8
0
 62
1
 10
-2.31033
 20
-35.6397
 30
0.0
 11
-2.15129
 21
-35.4995
 31
0.0
  0
LINE
  5
256
  8
0
 62
1
 10
-2.15129
 20
-35.4995
 30
0.0
 11
-1.98376
 21
-35.3696
 31
0.0
  0
LINE
  5
257
  8
0
 62
1
 10
-1.98376
 20
-35.3696
 30
0.0
 11
-1.80841
 21
-35.2504
 31
0.0
  0
LINE
  5
258
  8
0
 62
1
 10
-1.80841
 20
-35.2504
 30
0.0
 11
-1.62592
 21
-35.1425
 31
0.0
  0
LINE
  5
259
  8
0
 62
1
 10
-1.62592
 20
-35.1425
 30
0.0
 11
-1.437
 21
-35.0462
 31
0.0
  0
LINE
  5
25A
  8
0
 62
1
 10
-1.437
 20
-35.0462
 30
0.0
 11
-1.24242
 21
-34.962
 31
0.0
  0
LINE
  5
25B
  8
0
 62
1
 10
-1.24242
 20
-34.962
 30
0.0
 11
-1.04292
 21
-34.8902
 31
0.0
  0
LINE
  5
25C
  8
0
 62
1
 10
-1.04292
 20
-34.8902
 30
0.0
 11
-0.839325
 21
-34.831
 31
0.0
  0
LINE
  5
25D
  8
0
 62
1
 10
-0.839325
 20
-34.831
 30
0.0
 11
-0.632401
 21
-34.7848
 31
0.0
  0
LINE
  5
25E
  8
0
 62
1
 10
-0.632401
 20
-34.7848
 30
0.0
 11
-0.422989
 21
-34.7516
 31
0.0
  0
LINE
  5
25F
  8
0
 62
1
 10
-0.422989
 20
-34.7516
 30
0.0
 11
-0.211914
 21
-34.7317
 31
0.0
  0
LINE
  5
260
  8
0
 62
1
 10
-0.211914
 20
-34.7317
 30
0.0
 11
0.0
 21
-34.725
 31
0.0
  0
LINE
  5
261
  8
0
 62
1
 10
0.0
 20
-34.725
 30
0.0
 11
0.211914
 21
-34.7317
 31
0.0
  0
LINE
  5
262
  8
0
 62
1
 10
0.211914
 20
-34.7317
 30
0.0
 11
0.422989
 21
-34.7516
 31
0.0
  0
LINE
  5
263
  8
0
 62
1
 10
0.422989
 20
-34.7516
 30
0.0
 11
0.632401
 21
-34.7848
 31
0.0
  0
LINE
  5
264
  8
0
 62
1
 10
0.632401
 20
-34.7848
 30
0.0
 11
0.839325
 21
-34.831
 31
0.0
  0
LINE
  5
265
  8
0
 62
1
 10
0.839325
 20
-34.831
 30
0.0
 11
1.04292
 21
-34.8902
 31
0.0
  0
LINE
  5
266
  8
0
 62
1
 10
1.04292
 20
-34.8902
 30
0.0
 11
1.24242
 21
-34.962
 31
0.0
  0
LINE
  5
267
  8
0
 62
1
 10
1.24242
 20
-34.962
 30
0.0
 11
1.437
 21
-35.0462
 31
0.0
  0
LINE
  5
268
  8
0
 62
1
 10
1.437
 20
-35.0462
 30
0.0
 11
1.62592
 21
-35.1425
 31
0.0
  0
LINE
  5
269
  8
0
 62
1
 10
1.62592
 20
-35.1425
 30
0.0
 11
1.80841
 21
-35.2504
 31
0.0
  0
LINE
  5
26A
  8
0
 62
1
 10
1.80841
 20
-35.2504
 30
0.0
 11
1.98376
 21
-35.3696
 31
0.0
  0
LINE
  5
26B
  8
0
 62
1
 10
1.98376
 20
-35.3696
 30
0.0
 11
2.15129
 21
-35.4995
 31
0.0
  0
LINE
  5
26C
  8
0
 62
1
 10
2.15129
 20
-35.4995
 30
0.0
 11
2.31033
 21
-35.6397
 31
0.0
  0
LINE
  5
26D
  8
0
 62
1
 10
2.31033
 20
-35.6397
 30
0.0
 11
2.46027
 21
-35.7896
 31
0.0
  0
LINE
  5
26E
  8
0
 62
1
 10
2.46027
 20
-35.7896
 30
0.0
 11
2.60048
 21
-35.9487
 31
0.0
  0
LINE
  5
26F
  8
0
 62
1
 10
2.60048
 20
-35.9487
 30
0.0
 11
2.73042
 21
-36.1162
 31
0.0
  0
LINE
  5
270
  8
0
 62
1
 10
2.73042
 20
-36.1162
 30
0.0
 11
2.84959
 21
-36.2916
 31
0.0
  0
LINE
  5
271
  8
0
 62
1
 10
2.84959
 20
-36.2916
 30
0.0
 11
2.95753
 21
-36.4741
 31
0.0
  0
LINE
  5
272
  8
0
 62
1
 10
2.95753
 20
-36.4741
 30
0.0
 11
3.05379
 21
-36.663
 31
0.0
  0
LINE
  5
273
  8
0
 62
1
 10
3.05379
 20
-36.663
 30
0.0
 11
3.13799
 21
-36.8576
 31
0.0
  0
LINE
  5
274
  8
0
 62
1
 10
3.13799
 20
-36.8576
 30
0.0
 11
3.20981
 21
-37.0571
 31
0.0
  0
LINE
  5
275
  8
0
 62
1
 10
3.20981
 20
-37.0571
 30
0.0
 11
3.26897
 21
-37.2607
 31
0.0
  0
LINE
  5
276
  8
0
 62
1
 10
3.26897
 20
-37.2607
 30
0.0
 11
3.31522
 21
-37.4676
 31
0.0
  0
LINE
  5
277
  8
0
 62
1
 10
3.31522
 20
-37.4676
 30
0.0
 11
3.34837
 21
-37.677
 31
0.0
  0
LINE
  5
278
  8
0
 62
1
 10
3.34837
 20
-37.677
 30
0.0
 11
3.36833
 21
-37.8881
 31
0.0
  0
LINE
  5
279
  8
0
 62
1
 10
3.36833
 20
-37.8881
 30
0.0
 11
3.375
 21
-38.1
 31
0.0
  0
LINE
  5
27A
  8
0
 62
1
 10
3.375
 20
-38.1
 30
0.0
 11
3.36833
 21
-38.3119
 31
0.0
  0
LINE
  5
27B
  8
0
 62
1
 10
3.36833
 20
-38.3119
 30
0.0
 11
3.34837
 21
-38.523
 31
0.0
  0
LINE
  5
27C
  8
0
 62
1
 10
3.34837
 20
-38.523
 30
0.0
 11
3.31522
 21
-38.7324
 31
0.0
  0
LINE
  5
27D
  8
0
 62
1
 10
3.31522
 20
-38.7324
 30
0.0
 11
3.26897
 21
-38.9393
 31
0.0
  0
LINE
  5
27E
  8
0
 62
1
 10
3.26897
 20
-38.9393
 30
0.0
 11
3.20981
 21
-39.1429
 31
0.0
  0
LINE
  5
27F
  8
0
 62
1
 10
3.20981
 20
-39.1429
 30
0.0
 11
3.13799
 21
-39.3424
 31
0.0
  0
LINE
  5
280
  8
0
 62
1
 10
3.13799
 20
-39.3424
 30
0.0
 11
3.05379
 21
-39.537
 31
0.0
  0
LINE
  5
281
  8
0
 62
1
 10
3.05379
 20
-39.537
 30
0.0
 11
2.95753
 21
-39.7259
 31
0.0
  0
LINE
  5
282
  8
0
 62
1
 10
2.95753
 20
-39.7259
 30
0.0
 11
2.84959
 21
-39.9084
 31
0.0
  0
LINE
  5
283
  8
0
 62
1
 10
2.84959
 20
-39.9084
 30
0.0
 11
2.73042
 21
-40.0838
 31
0.0
  0
LINE
  5
284
  8
0
 62
1
 10
2.73042
 20
-40.0838
 30
0.0
 11
2.60048
 21
-40.2513
 31
0.0
  0
LINE
  5
285
  8
0
 62
1
 10
2.60048
 20
-40.2513
 30
0.0
 11
2.46027
 21
-40.4103
 31
0.0
  0
LINE
  5
286
  8
0
 62
1
 10
2.46027
 20
-40.4103
 30
0.0
 11
2.31033
 21
-40.5603
 31
0.0
  0
LINE
  5
287
  8
0
 62
1
 10
2.31033
 20
-40.5603
 30
0.0
 11
2.15129
 21
-40.7005
 31
0.0
  0
LINE
  5
288
  8
0
 62
1
 10
2.15129
 20
-40.7005
 30
0.0
 11
1.98376
 21
-40.8304
 31
0.0
  0
LINE
  5
289
  8
0
 62
1
 10
1.98376
 20
-40.8304
 30
0.0
 11
1.80841
 21
-40.9496
 31
0.0
  0
LINE
  5
28A
  8
0
 62
1
 10
1.80841
 20
-40.9496
 30
0.0
 11
1.62592
 21
-41.0575
 31
0.0
  0
LINE
  5
28B
  8
0
 62
1
 10
1.62592
 20
-41.0575
 30
0.0
 11
1.437
 21
-41.1538
 31
0.0
  0
LINE
  5
28C
  8
0
 62
1
 10
1.437
 20
-41.1538
 30
0.0
 11
1.24242
 21
-41.238
 31
0.0
  0
LINE
  5
28D
  8
0
 62
1
 10
1.24242
 20
-41.238
 30
0.0
 11
1.04292
 21
-41.3098
 31
0.0
  0
LINE
  5
28E
  8
0
 62
1
 10
1.04292
 20
-41.3098
 30
0.0
 11
0.839325
 21
-41.369
 31
0.0
  0
LINE
  5
28F
  8
0
 62
1
 10
0.839325
 20
-41.369
 30
0.0
 11
0.632401
 21
-41.4152
 31
0.0
  0
LINE
  5
290
  8
0
 62
1
 10
0.632401
 20
-41.4152
 30
0.0
 11
0.422989
 21
-41.4484
 31
0.0
  0
LINE
  5
291
  8
0
 62
1
 10
0.422989
 20
-41.4484
 30
0.0
 11
0.211914
 21
-41.4683
 31
0.0
  0
LINE
  5
292
  8
0
 62
1
 10
0.211914
 20
-41.4683
 30
0.0
 11
0.0
 21
-41.475
 31
0.0
  0
LINE
  5
293
  8
0
 62
1
 10
0.0
 20
-41.475
 30
0.0
 11
-0.211914
 21
-41.4683
 31
0.0
  0
ENDSEC
  0
EOF
