  0
SECTION
  2
BLOCKS
  0
ENDSEC
  0
SECTION
  2
ENTITIES
  0
LINE
  8
0
 10
12.7
 20
50.8
 11
-12.7
 21
50.8
  0
LINE
  8
0
 10
-12.7
 20
50.8
 11
-12.7
 21
-50.8
  0
LINE
  8
0
 10
-12.7
 20
-50.8
 11
12.7
 21
-50.8
  0
LINE
  8
0
 10
12.7
 20
-50.8
 11
12.7
 21
50.8
  0
LINE
  8
0
 10
-0.211914
 20
34.7317
 11
-0.422989
 21
34.7516
  0
LINE
  8
0
 10
-0.422989
 20
34.7516
 11
-0.632401
 21
34.7848
  0
LINE
  8
0
 10
-0.632401
 20
34.7848
 11
-0.839325
 21
34.831
  0
LINE
  8
0
 10
-0.839325
 20
34.831
 11
-1.04292
 21
34.8902
  0
LINE
  8
0
 10
-1.04292
 20
34.8902
 11
-1.24242
 21
34.962
  0
LINE
  8
0
 10
-1.24242
 20
34.962
 11
-1.437
 21
35.0462
  0
LINE
  8
0
 10
-1.437
 20
35.0462
 11
-1.62592
 21
35.1425
  0
LINE
  8
0
 10
-1.62592
 20
35.1425
 11
-1.80841
 21
35.2504
  0
LINE
  8
0
 10
-1.80841
 20
35.2504
 11
-1.98376
 21
35.3696
  0
LINE
  8
0
 10
-1.98376
 20
35.3696
 11
-2.15129
 21
35.4995
  0
LINE
  8
0
 10
-2.15129
 20
35.4995
 11
-2.31033
 21
35.6397
  0
LINE
  8
0
 10
-2.31033
 20
35.6397
 11
-2.46027
 21
35.7896
  0
LINE
  8
0
 10
-2.46027
 20
35.7896
 11
-2.60048
 21
35.9487
  0
LINE
  8
0
 10
-2.60048
 20
35.9487
 11
-2.73042
 21
36.1162
  0
LINE
  8
0
 10
-2.73042
 20
36.1162
 11
-2.84959
 21
36.2916
  0
LINE
  8
0
 10
-2.84959
 20
36.2916
 11
-2.95753
 21
36.4741
  0
LINE
  8
0
 10
-2.95753
 20
36.4741
 11
-3.05379
 21
36.663
  0
LINE
  8
0
 10
-3.05379
 20
36.663
 11
-3.13799
 21
36.8576
  0
LINE
  8
0
 10
-3.13799
 20
36.8576
 11
-3.20981
 21
37.0571
  0
LINE
  8
0
 10
-3.20981
 20
37.0571
 11
-3.26897
 21
37.2607
  0
LINE
  8
0
 10
-3.26897
 20
37.2607
 11
-3.31522
 21
37.4676
  0
LINE
  8
0
 10
-3.31522
 20
37.4676
 11
-3.34837
 21
37.677
  0
LINE
  8
0
 10
-3.34837
 20
37.677
 11
-3.36833
 21
37.8881
  0
LINE
  8
0
 10
-3.36833
 20
37.8881
 11
-3.375
 21
38.1
  0
LINE
  8
0
 10
-3.375
 20
38.1
 11
-3.36833
 21
38.3119
  0
LINE
  8
0
 10
-3.36833
 20
38.3119
 11
-3.34837
 21
38.523
  0
LINE
  8
0
 10
-3.34837
 20
38.523
 11
-3.31522
 21
38.7324
  0
LINE
  8
0
 10
-3.31522
 20
38.7324
 11
-3.26897
 21
38.9393
  0
LINE
  8
0
 10
-3.26897
 20
38.9393
 11
-3.20981
 21
39.1429
  0
LINE
  8
0
 10
-3.20981
 20
39.1429
 11
-3.13799
 21
39.3424
  0
LINE
  8
0
 10
-3.13799
 20
39.3424
 11
-3.05379
 21
39.537
  0
LINE
  8
0
 10
-3.05379
 20
39.537
 11
-2.95753
 21
39.7259
  0
LINE
  8
0
 10
-2.95753
 20
39.7259
 11
-2.84959
 21
39.9084
  0
LINE
  8
0
 10
-2.84959
 20
39.9084
 11
-2.73042
 21
40.0838
  0
LINE
  8
0
 10
-2.73042
 20
40.0838
 11
-2.60048
 21
40.2513
  0
LINE
  8
0
 10
-2.60048
 20
40.2513
 11
-2.46027
 21
40.4103
  0
LINE
  8
0
 10
-2.46027
 20
40.4103
 11
-2.31033
 21
40.5603
  0
LINE
  8
0
 10
-2.31033
 20
40.5603
 11
-2.15129
 21
40.7005
  0
LINE
  8
0
 10
-2.15129
 20
40.7005
 11
-1.98376
 21
40.8304
  0
LINE
  8
0
 10
-1.98376
 20
40.8304
 11
-1.80841
 21
40.9496
  0
LINE
  8
0
 10
-1.80841
 20
40.9496
 11
-1.62592
 21
41.0575
  0
LINE
  8
0
 10
-1.62592
 20
41.0575
 11
-1.437
 21
41.1538
  0
LINE
  8
0
 10
-1.437
 20
41.1538
 11
-1.24242
 21
41.238
  0
LINE
  8
0
 10
-1.24242
 20
41.238
 11
-1.04292
 21
41.3098
  0
LINE
  8
0
 10
-1.04292
 20
41.3098
 11
-0.839325
 21
41.369
  0
LINE
  8
0
 10
-0.839325
 20
41.369
 11
-0.632401
 21
41.4152
  0
LINE
  8
0
 10
-0.632401
 20
41.4152
 11
-0.422989
 21
41.4484
  0
LINE
  8
0
 10
-0.422989
 20
41.4484
 11
-0.211914
 21
41.4683
  0
LINE
  8
0
 10
-0.211914
 20
41.4683
 11
0
 21
41.475
  0
LINE
  8
0
 10
0
 20
41.475
 11
0.211914
 21
41.4683
  0
LINE
  8
0
 10
0.211914
 20
41.4683
 11
0.422989
 21
41.4484
  0
LINE
  8
0
 10
0.422989
 20
41.4484
 11
0.632401
 21
41.4152
  0
LINE
  8
0
 10
0.632401
 20
41.4152
 11
0.839325
 21
41.369
  0
LINE
  8
0
 10
0.839325
 20
41.369
 11
1.04292
 21
41.3098
  0
LINE
  8
0
 10
1.04292
 20
41.3098
 11
1.24242
 21
41.238
  0
LINE
  8
0
 10
1.24242
 20
41.238
 11
1.437
 21
41.1538
  0
LINE
  8
0
 10
1.437
 20
41.1538
 11
1.62592
 21
41.0575
  0
LINE
  8
0
 10
1.62592
 20
41.0575
 11
1.80841
 21
40.9496
  0
LINE
  8
0
 10
1.80841
 20
40.9496
 11
1.98376
 21
40.8304
  0
LINE
  8
0
 10
1.98376
 20
40.8304
 11
2.15129
 21
40.7005
  0
LINE
  8
0
 10
2.15129
 20
40.7005
 11
2.31033
 21
40.5603
  0
LINE
  8
0
 10
2.31033
 20
40.5603
 11
2.46027
 21
40.4103
  0
LINE
  8
0
 10
2.46027
 20
40.4103
 11
2.60048
 21
40.2513
  0
LINE
  8
0
 10
2.60048
 20
40.2513
 11
2.73042
 21
40.0838
  0
LINE
  8
0
 10
2.73042
 20
40.0838
 11
2.84959
 21
39.9084
  0
LINE
  8
0
 10
2.84959
 20
39.9084
 11
2.95753
 21
39.7259
  0
LINE
  8
0
 10
2.95753
 20
39.7259
 11
3.05379
 21
39.537
  0
LINE
  8
0
 10
3.05379
 20
39.537
 11
3.13799
 21
39.3424
  0
LINE
  8
0
 10
3.13799
 20
39.3424
 11
3.20981
 21
39.1429
  0
LINE
  8
0
 10
3.20981
 20
39.1429
 11
3.26897
 21
38.9393
  0
LINE
  8
0
 10
3.26897
 20
38.9393
 11
3.31522
 21
38.7324
  0
LINE
  8
0
 10
3.31522
 20
38.7324
 11
3.34837
 21
38.523
  0
LINE
  8
0
 10
3.34837
 20
38.523
 11
3.36833
 21
38.3119
  0
LINE
  8
0
 10
3.36833
 20
38.3119
 11
3.375
 21
38.1
  0
LINE
  8
0
 10
3.375
 20
38.1
 11
3.36833
 21
37.8881
  0
LINE
  8
0
 10
3.36833
 20
37.8881
 11
3.34837
 21
37.677
  0
LINE
  8
0
 10
3.34837
 20
37.677
 11
3.31522
 21
37.4676
  0
LINE
  8
0
 10
3.31522
 20
37.4676
 11
3.26897
 21
37.2607
  0
LINE
  8
0
 10
3.26897
 20
37.2607
 11
3.20981
 21
37.0571
  0
LINE
  8
0
 10
3.20981
 20
37.0571
 11
3.13799
 21
36.8576
  0
LINE
  8
0
 10
3.13799
 20
36.8576
 11
3.05379
 21
36.663
  0
LINE
  8
0
 10
3.05379
 20
36.663
 11
2.95753
 21
36.4741
  0
LINE
  8
0
 10
2.95753
 20
36.4741
 11
2.84959
 21
36.2916
  0
LINE
  8
0
 10
2.84959
 20
36.2916
 11
2.73042
 21
36.1162
  0
LINE
  8
0
 10
2.73042
 20
36.1162
 11
2.60048
 21
35.9487
  0
LINE
  8
0
 10
2.60048
 20
35.9487
 11
2.46027
 21
35.7896
  0
LINE
  8
0
 10
2.46027
 20
35.7896
 11
2.31033
 21
35.6397
  0
LINE
  8
0
 10
2.31033
 20
35.6397
 11
2.15129
 21
35.4995
  0
LINE
  8
0
 10
2.15129
 20
35.4995
 11
1.98376
 21
35.3696
  0
LINE
  8
0
 10
1.98376
 20
35.3696
 11
1.80841
 21
35.2504
  0
LINE
  8
0
 10
1.80841
 20
35.2504
 11
1.62592
 21
35.1425
  0
LINE
  8
0
 10
1.62592
 20
35.1425
 11
1.437
 21
35.0462
  0
LINE
  8
0
 10
1.437
 20
35.0462
 11
1.24242
 21
34.962
  0
LINE
  8
0
 10
1.24242
 20
34.962
 11
1.04292
 21
34.8902
  0
LINE
  8
0
 10
1.04292
 20
34.8902
 11
0.839325
 21
34.831
  0
LINE
  8
0
 10
0.839325
 20
34.831
 11
0.632401
 21
34.7848
  0
LINE
  8
0
 10
0.632401
 20
34.7848
 11
0.422989
 21
34.7516
  0
LINE
  8
0
 10
0.422989
 20
34.7516
 11
0.211914
 21
34.7317
  0
LINE
  8
0
 10
0.211914
 20
34.7317
 11
0
 21
34.725
  0
LINE
  8
0
 10
0
 20
34.725
 11
-0.211914
 21
34.7317
  0
LINE
  8
0
 10
-0.211914
 20
9.33165
 11
-0.422989
 21
9.35161
  0
LINE
  8
0
 10
-0.422989
 20
9.35161
 11
-0.632401
 21
9.38477
  0
LINE
  8
0
 10
-0.632401
 20
9.38477
 11
-0.839325
 21
9.43103
  0
LINE
  8
0
 10
-0.839325
 20
9.43103
 11
-1.04292
 21
9.49017
  0
LINE
  8
0
 10
-1.04292
 20
9.49017
 11
-1.24242
 21
9.562
  0
LINE
  8
0
 10
-1.24242
 20
9.562
 11
-1.437
 21
9.64619
  0
LINE
  8
0
 10
-1.437
 20
9.64619
 11
-1.62592
 21
9.74246
  0
LINE
  8
0
 10
-1.62592
 20
9.74246
 11
-1.80841
 21
9.85039
  0
LINE
  8
0
 10
-1.80841
 20
9.85039
 11
-1.98376
 21
9.96956
  0
LINE
  8
0
 10
-1.98376
 20
9.96956
 11
-2.15129
 21
10.0995
  0
LINE
  8
0
 10
-2.15129
 20
10.0995
 11
-2.31033
 21
10.2397
  0
LINE
  8
0
 10
-2.31033
 20
10.2397
 11
-2.46027
 21
10.3896
  0
LINE
  8
0
 10
-2.46027
 20
10.3896
 11
-2.60048
 21
10.5487
  0
LINE
  8
0
 10
-2.60048
 20
10.5487
 11
-2.73042
 21
10.7162
  0
LINE
  8
0
 10
-2.73042
 20
10.7162
 11
-2.84959
 21
10.8916
  0
LINE
  8
0
 10
-2.84959
 20
10.8916
 11
-2.95753
 21
11.0741
  0
LINE
  8
0
 10
-2.95753
 20
11.0741
 11
-3.05379
 21
11.263
  0
LINE
  8
0
 10
-3.05379
 20
11.263
 11
-3.13799
 21
11.4576
  0
LINE
  8
0
 10
-3.13799
 20
11.4576
 11
-3.20981
 21
11.6571
  0
LINE
  8
0
 10
-3.20981
 20
11.6571
 11
-3.26897
 21
11.8607
  0
LINE
  8
0
 10
-3.26897
 20
11.8607
 11
-3.31522
 21
12.0676
  0
LINE
  8
0
 10
-3.31522
 20
12.0676
 11
-3.34837
 21
12.277
  0
LINE
  8
0
 10
-3.34837
 20
12.277
 11
-3.36833
 21
12.4881
  0
LINE
  8
0
 10
-3.36833
 20
12.4881
 11
-3.375
 21
12.7
  0
LINE
  8
0
 10
-3.375
 20
12.7
 11
-3.36833
 21
12.9119
  0
LINE
  8
0
 10
-3.36833
 20
12.9119
 11
-3.34837
 21
13.123
  0
LINE
  8
0
 10
-3.34837
 20
13.123
 11
-3.31522
 21
13.3324
  0
LINE
  8
0
 10
-3.31522
 20
13.3324
 11
-3.26897
 21
13.5393
  0
LINE
  8
0
 10
-3.26897
 20
13.5393
 11
-3.20981
 21
13.7429
  0
LINE
  8
0
 10
-3.20981
 20
13.7429
 11
-3.13799
 21
13.9424
  0
LINE
  8
0
 10
-3.13799
 20
13.9424
 11
-3.05379
 21
14.137
  0
LINE
  8
0
 10
-3.05379
 20
14.137
 11
-2.95753
 21
14.3259
  0
LINE
  8
0
 10
-2.95753
 20
14.3259
 11
-2.84959
 21
14.5084
  0
LINE
  8
0
 10
-2.84959
 20
14.5084
 11
-2.73042
 21
14.6838
  0
LINE
  8
0
 10
-2.73042
 20
14.6838
 11
-2.60048
 21
14.8513
  0
LINE
  8
0
 10
-2.60048
 20
14.8513
 11
-2.46027
 21
15.0103
  0
LINE
  8
0
 10
-2.46027
 20
15.0103
 11
-2.31033
 21
15.1603
  0
LINE
  8
0
 10
-2.31033
 20
15.1603
 11
-2.15129
 21
15.3005
  0
LINE
  8
0
 10
-2.15129
 20
15.3005
 11
-1.98376
 21
15.4304
  0
LINE
  8
0
 10
-1.98376
 20
15.4304
 11
-1.80841
 21
15.5496
  0
LINE
  8
0
 10
-1.80841
 20
15.5496
 11
-1.62592
 21
15.6575
  0
LINE
  8
0
 10
-1.62592
 20
15.6575
 11
-1.437
 21
15.7538
  0
LINE
  8
0
 10
-1.437
 20
15.7538
 11
-1.24242
 21
15.838
  0
LINE
  8
0
 10
-1.24242
 20
15.838
 11
-1.04292
 21
15.9098
  0
LINE
  8
0
 10
-1.04292
 20
15.9098
 11
-0.839325
 21
15.969
  0
LINE
  8
0
 10
-0.839325
 20
15.969
 11
-0.632401
 21
16.0152
  0
LINE
  8
0
 10
-0.632401
 20
16.0152
 11
-0.422989
 21
16.0484
  0
LINE
  8
0
 10
-0.422989
 20
16.0484
 11
-0.211914
 21
16.0683
  0
LINE
  8
0
 10
-0.211914
 20
16.0683
 11
0
 21
16.075
  0
LINE
  8
0
 10
0
 20
16.075
 11
0.211914
 21
16.0683
  0
LINE
  8
0
 10
0.211914
 20
16.0683
 11
0.422989
 21
16.0484
  0
LINE
  8
0
 10
0.422989
 20
16.0484
 11
0.632401
 21
16.0152
  0
LINE
  8
0
 10
0.632401
 20
16.0152
 11
0.839325
 21
15.969
  0
LINE
  8
0
 10
0.839325
 20
15.969
 11
1.04292
 21
15.9098
  0
LINE
  8
0
 10
1.04292
 20
15.9098
 11
1.24242
 21
15.838
  0
LINE
  8
0
 10
1.24242
 20
15.838
 11
1.437
 21
15.7538
  0
LINE
  8
0
 10
1.437
 20
15.7538
 11
1.62592
 21
15.6575
  0
LINE
  8
0
 10
1.62592
 20
15.6575
 11
1.80841
 21
15.5496
  0
LINE
  8
0
 10
1.80841
 20
15.5496
 11
1.98376
 21
15.4304
  0
LINE
  8
0
 10
1.98376
 20
15.4304
 11
2.15129
 21
15.3005
  0
LINE
  8
0
 10
2.15129
 20
15.3005
 11
2.31033
 21
15.1603
  0
LINE
  8
0
 10
2.31033
 20
15.1603
 11
2.46027
 21
15.0103
  0
LINE
  8
0
 10
2.46027
 20
15.0103
 11
2.60048
 21
14.8513
  0
LINE
  8
0
 10
2.60048
 20
14.8513
 11
2.73042
 21
14.6838
  0
LINE
  8
0
 10
2.73042
 20
14.6838
 11
2.84959
 21
14.5084
  0
LINE
  8
0
 10
2.84959
 20
14.5084
 11
2.95753
 21
14.3259
  0
LINE
  8
0
 10
2.95753
 20
14.3259
 11
3.05379
 21
14.137
  0
LINE
  8
0
 10
3.05379
 20
14.137
 11
3.13799
 21
13.9424
  0
LINE
  8
0
 10
3.13799
 20
13.9424
 11
3.20981
 21
13.7429
  0
LINE
  8
0
 10
3.20981
 20
13.7429
 11
3.26897
 21
13.5393
  0
LINE
  8
0
 10
3.26897
 20
13.5393
 11
3.31522
 21
13.3324
  0
LINE
  8
0
 10
3.31522
 20
13.3324
 11
3.34837
 21
13.123
  0
LINE
  8
0
 10
3.34837
 20
13.123
 11
3.36833
 21
12.9119
  0
LINE
  8
0
 10
3.36833
 20
12.9119
 11
3.375
 21
12.7
  0
LINE
  8
0
 10
3.375
 20
12.7
 11
3.36833
 21
12.4881
  0
LINE
  8
0
 10
3.36833
 20
12.4881
 11
3.34837
 21
12.277
  0
LINE
  8
0
 10
3.34837
 20
12.277
 11
3.31522
 21
12.0676
  0
LINE
  8
0
 10
3.31522
 20
12.0676
 11
3.26897
 21
11.8607
  0
LINE
  8
0
 10
3.26897
 20
11.8607
 11
3.20981
 21
11.6571
  0
LINE
  8
0
 10
3.20981
 20
11.6571
 11
3.13799
 21
11.4576
  0
LINE
  8
0
 10
3.13799
 20
11.4576
 11
3.05379
 21
11.263
  0
LINE
  8
0
 10
3.05379
 20
11.263
 11
2.95753
 21
11.0741
  0
LINE
  8
0
 10
2.95753
 20
11.0741
 11
2.84959
 21
10.8916
  0
LINE
  8
0
 10
2.84959
 20
10.8916
 11
2.73042
 21
10.7162
  0
LINE
  8
0
 10
2.73042
 20
10.7162
 11
2.60048
 21
10.5487
  0
LINE
  8
0
 10
2.60048
 20
10.5487
 11
2.46027
 21
10.3896
  0
LINE
  8
0
 10
2.46027
 20
10.3896
 11
2.31033
 21
10.2397
  0
LINE
  8
0
 10
2.31033
 20
10.2397
 11
2.15129
 21
10.0995
  0
LINE
  8
0
 10
2.15129
 20
10.0995
 11
1.98376
 21
9.96956
  0
LINE
  8
0
 10
1.98376
 20
9.96956
 11
1.80841
 21
9.85039
  0
LINE
  8
0
 10
1.80841
 20
9.85039
 11
1.62592
 21
9.74246
  0
LINE
  8
0
 10
1.62592
 20
9.74246
 11
1.437
 21
9.64619
  0
LINE
  8
0
 10
1.437
 20
9.64619
 11
1.24242
 21
9.562
  0
LINE
  8
0
 10
1.24242
 20
9.562
 11
1.04292
 21
9.49017
  0
LINE
  8
0
 10
1.04292
 20
9.49017
 11
0.839325
 21
9.43103
  0
LINE
  8
0
 10
0.839325
 20
9.43103
 11
0.632401
 21
9.38477
  0
LINE
  8
0
 10
0.632401
 20
9.38477
 11
0.422989
 21
9.35161
  0
LINE
  8
0
 10
0.422989
 20
9.35161
 11
0.211914
 21
9.33165
  0
LINE
  8
0
 10
0.211914
 20
9.33165
 11
0
 21
9.325
  0
LINE
  8
0
 10
0
 20
9.325
 11
-0.211914
 21
9.33165
  0
LINE
  8
0
 10
-0.211914
 20
-16.0683
 11
-0.422989
 21
-16.0484
  0
LINE
  8
0
 10
-0.422989
 20
-16.0484
 11
-0.632401
 21
-16.0152
  0
LINE
  8
0
 10
-0.632401
 20
-16.0152
 11
-0.839325
 21
-15.969
  0
LINE
  8
0
 10
-0.839325
 20
-15.969
 11
-1.04292
 21
-15.9098
  0
LINE
  8
0
 10
-1.04292
 20
-15.9098
 11
-1.24242
 21
-15.838
  0
LINE
  8
0
 10
-1.24242
 20
-15.838
 11
-1.437
 21
-15.7538
  0
LINE
  8
0
 10
-1.437
 20
-15.7538
 11
-1.62592
 21
-15.6575
  0
LINE
  8
0
 10
-1.62592
 20
-15.6575
 11
-1.80841
 21
-15.5496
  0
LINE
  8
0
 10
-1.80841
 20
-15.5496
 11
-1.98376
 21
-15.4304
  0
LINE
  8
0
 10
-1.98376
 20
-15.4304
 11
-2.15129
 21
-15.3005
  0
LINE
  8
0
 10
-2.15129
 20
-15.3005
 11
-2.31033
 21
-15.1603
  0
LINE
  8
0
 10
-2.31033
 20
-15.1603
 11
-2.46027
 21
-15.0103
  0
LINE
  8
0
 10
-2.46027
 20
-15.0103
 11
-2.60048
 21
-14.8513
  0
LINE
  8
0
 10
-2.60048
 20
-14.8513
 11
-2.73042
 21
-14.6838
  0
LINE
  8
0
 10
-2.73042
 20
-14.6838
 11
-2.84959
 21
-14.5084
  0
LINE
  8
0
 10
-2.84959
 20
-14.5084
 11
-2.95753
 21
-14.3259
  0
LINE
  8
0
 10
-2.95753
 20
-14.3259
 11
-3.05379
 21
-14.137
  0
LINE
  8
0
 10
-3.05379
 20
-14.137
 11
-3.13799
 21
-13.9424
  0
LINE
  8
0
 10
-3.13799
 20
-13.9424
 11
-3.20981
 21
-13.7429
  0
LINE
  8
0
 10
-3.20981
 20
-13.7429
 11
-3.26897
 21
-13.5393
  0
LINE
  8
0
 10
-3.26897
 20
-13.5393
 11
-3.31522
 21
-13.3324
  0
LINE
  8
0
 10
-3.31522
 20
-13.3324
 11
-3.34837
 21
-13.123
  0
LINE
  8
0
 10
-3.34837
 20
-13.123
 11
-3.36833
 21
-12.9119
  0
LINE
  8
0
 10
-3.36833
 20
-12.9119
 11
-3.375
 21
-12.7
  0
LINE
  8
0
 10
-3.375
 20
-12.7
 11
-3.36833
 21
-12.4881
  0
LINE
  8
0
 10
-3.36833
 20
-12.4881
 11
-3.34837
 21
-12.277
  0
LINE
  8
0
 10
-3.34837
 20
-12.277
 11
-3.31522
 21
-12.0676
  0
LINE
  8
0
 10
-3.31522
 20
-12.0676
 11
-3.26897
 21
-11.8607
  0
LINE
  8
0
 10
-3.26897
 20
-11.8607
 11
-3.20981
 21
-11.6571
  0
LINE
  8
0
 10
-3.20981
 20
-11.6571
 11
-3.13799
 21
-11.4576
  0
LINE
  8
0
 10
-3.13799
 20
-11.4576
 11
-3.05379
 21
-11.263
  0
LINE
  8
0
 10
-3.05379
 20
-11.263
 11
-2.95753
 21
-11.0741
  0
LINE
  8
0
 10
-2.95753
 20
-11.0741
 11
-2.84959
 21
-10.8916
  0
LINE
  8
0
 10
-2.84959
 20
-10.8916
 11
-2.73042
 21
-10.7162
  0
LINE
  8
0
 10
-2.73042
 20
-10.7162
 11
-2.60048
 21
-10.5487
  0
LINE
  8
0
 10
-2.60048
 20
-10.5487
 11
-2.46027
 21
-10.3896
  0
LINE
  8
0
 10
-2.46027
 20
-10.3896
 11
-2.31033
 21
-10.2397
  0
LINE
  8
0
 10
-2.31033
 20
-10.2397
 11
-2.15129
 21
-10.0995
  0
LINE
  8
0
 10
-2.15129
 20
-10.0995
 11
-1.98376
 21
-9.96956
  0
LINE
  8
0
 10
-1.98376
 20
-9.96956
 11
-1.80841
 21
-9.85039
  0
LINE
  8
0
 10
-1.80841
 20
-9.85039
 11
-1.62592
 21
-9.74246
  0
LINE
  8
0
 10
-1.62592
 20
-9.74246
 11
-1.437
 21
-9.64619
  0
LINE
  8
0
 10
-1.437
 20
-9.64619
 11
-1.24242
 21
-9.562
  0
LINE
  8
0
 10
-1.24242
 20
-9.562
 11
-1.04292
 21
-9.49017
  0
LINE
  8
0
 10
-1.04292
 20
-9.49017
 11
-0.839325
 21
-9.43103
  0
LINE
  8
0
 10
-0.839325
 20
-9.43103
 11
-0.632401
 21
-9.38477
  0
LINE
  8
0
 10
-0.632401
 20
-9.38477
 11
-0.422989
 21
-9.35161
  0
LINE
  8
0
 10
-0.422989
 20
-9.35161
 11
-0.211914
 21
-9.33165
  0
LINE
  8
0
 10
-0.211914
 20
-9.33165
 11
0
 21
-9.325
  0
LINE
  8
0
 10
0
 20
-9.325
 11
0.211914
 21
-9.33165
  0
LINE
  8
0
 10
0.211914
 20
-9.33165
 11
0.422989
 21
-9.35161
  0
LINE
  8
0
 10
0.422989
 20
-9.35161
 11
0.632401
 21
-9.38477
  0
LINE
  8
0
 10
0.632401
 20
-9.38477
 11
0.839325
 21
-9.43103
  0
LINE
  8
0
 10
0.839325
 20
-9.43103
 11
1.04292
 21
-9.49017
  0
LINE
  8
0
 10
1.04292
 20
-9.49017
 11
1.24242
 21
-9.562
  0
LINE
  8
0
 10
1.24242
 20
-9.562
 11
1.437
 21
-9.64619
  0
LINE
  8
0
 10
1.437
 20
-9.64619
 11
1.62592
 21
-9.74246
  0
LINE
  8
0
 10
1.62592
 20
-9.74246
 11
1.80841
 21
-9.85039
  0
LINE
  8
0
 10
1.80841
 20
-9.85039
 11
1.98376
 21
-9.96956
  0
LINE
  8
0
 10
1.98376
 20
-9.96956
 11
2.15129
 21
-10.0995
  0
LINE
  8
0
 10
2.15129
 20
-10.0995
 11
2.31033
 21
-10.2397
  0
LINE
  8
0
 10
2.31033
 20
-10.2397
 11
2.46027
 21
-10.3896
  0
LINE
  8
0
 10
2.46027
 20
-10.3896
 11
2.60048
 21
-10.5487
  0
LINE
  8
0
 10
2.60048
 20
-10.5487
 11
2.73042
 21
-10.7162
  0
LINE
  8
0
 10
2.73042
 20
-10.7162
 11
2.84959
 21
-10.8916
  0
LINE
  8
0
 10
2.84959
 20
-10.8916
 11
2.95753
 21
-11.0741
  0
LINE
  8
0
 10
2.95753
 20
-11.0741
 11
3.05379
 21
-11.263
  0
LINE
  8
0
 10
3.05379
 20
-11.263
 11
3.13799
 21
-11.4576
  0
LINE
  8
0
 10
3.13799
 20
-11.4576
 11
3.20981
 21
-11.6571
  0
LINE
  8
0
 10
3.20981
 20
-11.6571
 11
3.26897
 21
-11.8607
  0
LINE
  8
0
 10
3.26897
 20
-11.8607
 11
3.31522
 21
-12.0676
  0
LINE
  8
0
 10
3.31522
 20
-12.0676
 11
3.34837
 21
-12.277
  0
LINE
  8
0
 10
3.34837
 20
-12.277
 11
3.36833
 21
-12.4881
  0
LINE
  8
0
 10
3.36833
 20
-12.4881
 11
3.375
 21
-12.7
  0
LINE
  8
0
 10
3.375
 20
-12.7
 11
3.36833
 21
-12.9119
  0
LINE
  8
0
 10
3.36833
 20
-12.9119
 11
3.34837
 21
-13.123
  0
LINE
  8
0
 10
3.34837
 20
-13.123
 11
3.31522
 21
-13.3324
  0
LINE
  8
0
 10
3.31522
 20
-13.3324
 11
3.26897
 21
-13.5393
  0
LINE
  8
0
 10
3.26897
 20
-13.5393
 11
3.20981
 21
-13.7429
  0
LINE
  8
0
 10
3.20981
 20
-13.7429
 11
3.13799
 21
-13.9424
  0
LINE
  8
0
 10
3.13799
 20
-13.9424
 11
3.05379
 21
-14.137
  0
LINE
  8
0
 10
3.05379
 20
-14.137
 11
2.95753
 21
-14.3259
  0
LINE
  8
0
 10
2.95753
 20
-14.3259
 11
2.84959
 21
-14.5084
  0
LINE
  8
0
 10
2.84959
 20
-14.5084
 11
2.73042
 21
-14.6838
  0
LINE
  8
0
 10
2.73042
 20
-14.6838
 11
2.60048
 21
-14.8513
  0
LINE
  8
0
 10
2.60048
 20
-14.8513
 11
2.46027
 21
-15.0103
  0
LINE
  8
0
 10
2.46027
 20
-15.0103
 11
2.31033
 21
-15.1603
  0
LINE
  8
0
 10
2.31033
 20
-15.1603
 11
2.15129
 21
-15.3005
  0
LINE
  8
0
 10
2.15129
 20
-15.3005
 11
1.98376
 21
-15.4304
  0
LINE
  8
0
 10
1.98376
 20
-15.4304
 11
1.80841
 21
-15.5496
  0
LINE
  8
0
 10
1.80841
 20
-15.5496
 11
1.62592
 21
-15.6575
  0
LINE
  8
0
 10
1.62592
 20
-15.6575
 11
1.437
 21
-15.7538
  0
LINE
  8
0
 10
1.437
 20
-15.7538
 11
1.24242
 21
-15.838
  0
LINE
  8
0
 10
1.24242
 20
-15.838
 11
1.04292
 21
-15.9098
  0
LINE
  8
0
 10
1.04292
 20
-15.9098
 11
0.839325
 21
-15.969
  0
LINE
  8
0
 10
0.839325
 20
-15.969
 11
0.632401
 21
-16.0152
  0
LINE
  8
0
 10
0.632401
 20
-16.0152
 11
0.422989
 21
-16.0484
  0
LINE
  8
0
 10
0.422989
 20
-16.0484
 11
0.211914
 21
-16.0683
  0
LINE
  8
0
 10
0.211914
 20
-16.0683
 11
0
 21
-16.075
  0
LINE
  8
0
 10
0
 20
-16.075
 11
-0.211914
 21
-16.0683
  0
LINE
  8
0
 10
-0.211914
 20
-41.4683
 11
-0.422989
 21
-41.4484
  0
LINE
  8
0
 10
-0.422989
 20
-41.4484
 11
-0.632401
 21
-41.4152
  0
LINE
  8
0
 10
-0.632401
 20
-41.4152
 11
-0.839325
 21
-41.369
  0
LINE
  8
0
 10
-0.839325
 20
-41.369
 11
-1.04292
 21
-41.3098
  0
LINE
  8
0
 10
-1.04292
 20
-41.3098
 11
-1.24242
 21
-41.238
  0
LINE
  8
0
 10
-1.24242
 20
-41.238
 11
-1.437
 21
-41.1538
  0
LINE
  8
0
 10
-1.437
 20
-41.1538
 11
-1.62592
 21
-41.0575
  0
LINE
  8
0
 10
-1.62592
 20
-41.0575
 11
-1.80841
 21
-40.9496
  0
LINE
  8
0
 10
-1.80841
 20
-40.9496
 11
-1.98376
 21
-40.8304
  0
LINE
  8
0
 10
-1.98376
 20
-40.8304
 11
-2.15129
 21
-40.7005
  0
LINE
  8
0
 10
-2.15129
 20
-40.7005
 11
-2.31033
 21
-40.5603
  0
LINE
  8
0
 10
-2.31033
 20
-40.5603
 11
-2.46027
 21
-40.4103
  0
LINE
  8
0
 10
-2.46027
 20
-40.4103
 11
-2.60048
 21
-40.2513
  0
LINE
  8
0
 10
-2.60048
 20
-40.2513
 11
-2.73042
 21
-40.0838
  0
LINE
  8
0
 10
-2.73042
 20
-40.0838
 11
-2.84959
 21
-39.9084
  0
LINE
  8
0
 10
-2.84959
 20
-39.9084
 11
-2.95753
 21
-39.7259
  0
LINE
  8
0
 10
-2.95753
 20
-39.7259
 11
-3.05379
 21
-39.537
  0
LINE
  8
0
 10
-3.05379
 20
-39.537
 11
-3.13799
 21
-39.3424
  0
LINE
  8
0
 10
-3.13799
 20
-39.3424
 11
-3.20981
 21
-39.1429
  0
LINE
  8
0
 10
-3.20981
 20
-39.1429
 11
-3.26897
 21
-38.9393
  0
LINE
  8
0
 10
-3.26897
 20
-38.9393
 11
-3.31522
 21
-38.7324
  0
LINE
  8
0
 10
-3.31522
 20
-38.7324
 11
-3.34837
 21
-38.523
  0
LINE
  8
0
 10
-3.34837
 20
-38.523
 11
-3.36833
 21
-38.3119
  0
LINE
  8
0
 10
-3.36833
 20
-38.3119
 11
-3.375
 21
-38.1
  0
LINE
  8
0
 10
-3.375
 20
-38.1
 11
-3.36833
 21
-37.8881
  0
LINE
  8
0
 10
-3.36833
 20
-37.8881
 11
-3.34837
 21
-37.677
  0
LINE
  8
0
 10
-3.34837
 20
-37.677
 11
-3.31522
 21
-37.4676
  0
LINE
  8
0
 10
-3.31522
 20
-37.4676
 11
-3.26897
 21
-37.2607
  0
LINE
  8
0
 10
-3.26897
 20
-37.2607
 11
-3.20981
 21
-37.0571
  0
LINE
  8
0
 10
-3.20981
 20
-37.0571
 11
-3.13799
 21
-36.8576
  0
LINE
  8
0
 10
-3.13799
 20
-36.8576
 11
-3.05379
 21
-36.663
  0
LINE
  8
0
 10
-3.05379
 20
-36.663
 11
-2.95753
 21
-36.4741
  0
LINE
  8
0
 10
-2.95753
 20
-36.4741
 11
-2.84959
 21
-36.2916
  0
LINE
  8
0
 10
-2.84959
 20
-36.2916
 11
-2.73042
 21
-36.1162
  0
LINE
  8
0
 10
-2.73042
 20
-36.1162
 11
-2.60048
 21
-35.9487
  0
LINE
  8
0
 10
-2.60048
 20
-35.9487
 11
-2.46027
 21
-35.7896
  0
LINE
  8
0
 10
-2.46027
 20
-35.7896
 11
-2.31033
 21
-35.6397
  0
LINE
  8
0
 10
-2.31033
 20
-35.6397
 11
-2.15129
 21
-35.4995
  0
LINE
  8
0
 10
-2.15129
 20
-35.4995
 11
-1.98376
 21
-35.3696
  0
LINE
  8
0
 10
-1.98376
 20
-35.3696
 11
-1.80841
 21
-35.2504
  0
LINE
  8
0
 10
-1.80841
 20
-35.2504
 11
-1.62592
 21
-35.1425
  0
LINE
  8
0
 10
-1.62592
 20
-35.1425
 11
-1.437
 21
-35.0462
  0
LINE
  8
0
 10
-1.437
 20
-35.0462
 11
-1.24242
 21
-34.962
  0
LINE
  8
0
 10
-1.24242
 20
-34.962
 11
-1.04292
 21
-34.8902
  0
LINE
  8
0
 10
-1.04292
 20
-34.8902
 11
-0.839325
 21
-34.831
  0
LINE
  8
0
 10
-0.839325
 20
-34.831
 11
-0.632401
 21
-34.7848
  0
LINE
  8
0
 10
-0.632401
 20
-34.7848
 11
-0.422989
 21
-34.7516
  0
LINE
  8
0
 10
-0.422989
 20
-34.7516
 11
-0.211914
 21
-34.7317
  0
LINE
  8
0
 10
-0.211914
 20
-34.7317
 11
0
 21
-34.725
  0
LINE
  8
0
 10
0
 20
-34.725
 11
0.211914
 21
-34.7317
  0
LINE
  8
0
 10
0.211914
 20
-34.7317
 11
0.422989
 21
-34.7516
  0
LINE
  8
0
 10
0.422989
 20
-34.7516
 11
0.632401
 21
-34.7848
  0
LINE
  8
0
 10
0.632401
 20
-34.7848
 11
0.839325
 21
-34.831
  0
LINE
  8
0
 10
0.839325
 20
-34.831
 11
1.04292
 21
-34.8902
  0
LINE
  8
0
 10
1.04292
 20
-34.8902
 11
1.24242
 21
-34.962
  0
LINE
  8
0
 10
1.24242
 20
-34.962
 11
1.437
 21
-35.0462
  0
LINE
  8
0
 10
1.437
 20
-35.0462
 11
1.62592
 21
-35.1425
  0
LINE
  8
0
 10
1.62592
 20
-35.1425
 11
1.80841
 21
-35.2504
  0
LINE
  8
0
 10
1.80841
 20
-35.2504
 11
1.98376
 21
-35.3696
  0
LINE
  8
0
 10
1.98376
 20
-35.3696
 11
2.15129
 21
-35.4995
  0
LINE
  8
0
 10
2.15129
 20
-35.4995
 11
2.31033
 21
-35.6397
  0
LINE
  8
0
 10
2.31033
 20
-35.6397
 11
2.46027
 21
-35.7896
  0
LINE
  8
0
 10
2.46027
 20
-35.7896
 11
2.60048
 21
-35.9487
  0
LINE
  8
0
 10
2.60048
 20
-35.9487
 11
2.73042
 21
-36.1162
  0
LINE
  8
0
 10
2.73042
 20
-36.1162
 11
2.84959
 21
-36.2916
  0
LINE
  8
0
 10
2.84959
 20
-36.2916
 11
2.95753
 21
-36.4741
  0
LINE
  8
0
 10
2.95753
 20
-36.4741
 11
3.05379
 21
-36.663
  0
LINE
  8
0
 10
3.05379
 20
-36.663
 11
3.13799
 21
-36.8576
  0
LINE
  8
0
 10
3.13799
 20
-36.8576
 11
3.20981
 21
-37.0571
  0
LINE
  8
0
 10
3.20981
 20
-37.0571
 11
3.26897
 21
-37.2607
  0
LINE
  8
0
 10
3.26897
 20
-37.2607
 11
3.31522
 21
-37.4676
  0
LINE
  8
0
 10
3.31522
 20
-37.4676
 11
3.34837
 21
-37.677
  0
LINE
  8
0
 10
3.34837
 20
-37.677
 11
3.36833
 21
-37.8881
  0
LINE
  8
0
 10
3.36833
 20
-37.8881
 11
3.375
 21
-38.1
  0
LINE
  8
0
 10
3.375
 20
-38.1
 11
3.36833
 21
-38.3119
  0
LINE
  8
0
 10
3.36833
 20
-38.3119
 11
3.34837
 21
-38.523
  0
LINE
  8
0
 10
3.34837
 20
-38.523
 11
3.31522
 21
-38.7324
  0
LINE
  8
0
 10
3.31522
 20
-38.7324
 11
3.26897
 21
-38.9393
  0
LINE
  8
0
 10
3.26897
 20
-38.9393
 11
3.20981
 21
-39.1429
  0
LINE
  8
0
 10
3.20981
 20
-39.1429
 11
3.13799
 21
-39.3424
  0
LINE
  8
0
 10
3.13799
 20
-39.3424
 11
3.05379
 21
-39.537
  0
LINE
  8
0
 10
3.05379
 20
-39.537
 11
2.95753
 21
-39.7259
  0
LINE
  8
0
 10
2.95753
 20
-39.7259
 11
2.84959
 21
-39.9084
  0
LINE
  8
0
 10
2.84959
 20
-39.9084
 11
2.73042
 21
-40.0838
  0
LINE
  8
0
 10
2.73042
 20
-40.0838
 11
2.60048
 21
-40.2513
  0
LINE
  8
0
 10
2.60048
 20
-40.2513
 11
2.46027
 21
-40.4103
  0
LINE
  8
0
 10
2.46027
 20
-40.4103
 11
2.31033
 21
-40.5603
  0
LINE
  8
0
 10
2.31033
 20
-40.5603
 11
2.15129
 21
-40.7005
  0
LINE
  8
0
 10
2.15129
 20
-40.7005
 11
1.98376
 21
-40.8304
  0
LINE
  8
0
 10
1.98376
 20
-40.8304
 11
1.80841
 21
-40.9496
  0
LINE
  8
0
 10
1.80841
 20
-40.9496
 11
1.62592
 21
-41.0575
  0
LINE
  8
0
 10
1.62592
 20
-41.0575
 11
1.437
 21
-41.1538
  0
LINE
  8
0
 10
1.437
 20
-41.1538
 11
1.24242
 21
-41.238
  0
LINE
  8
0
 10
1.24242
 20
-41.238
 11
1.04292
 21
-41.3098
  0
LINE
  8
0
 10
1.04292
 20
-41.3098
 11
0.839325
 21
-41.369
  0
LINE
  8
0
 10
0.839325
 20
-41.369
 11
0.632401
 21
-41.4152
  0
LINE
  8
0
 10
0.632401
 20
-41.4152
 11
0.422989
 21
-41.4484
  0
LINE
  8
0
 10
0.422989
 20
-41.4484
 11
0.211914
 21
-41.4683
  0
LINE
  8
0
 10
0.211914
 20
-41.4683
 11
0
 21
-41.475
  0
LINE
  8
0
 10
0
 20
-41.475
 11
-0.211914
 21
-41.4683
  0
ENDSEC
  0
SECTION
  2
OBJECTS
  0
DICTIONARY
  0
ENDSEC
  0
EOF
