  0
SECTION
  2
HEADER
  9
$ACADVER
  1
AC1009
  9
$DWGCODEPAGE
  3
ANSI_1252
  9
$INSBASE
 10
0.0
 20
0.0
 30
0.0
  9
$EXTMIN
 10
1e+20
 20
1e+20
 30
1e+20
  9
$EXTMAX
 10
-1e+20
 20
-1e+20
 30
-1e+20
  9
$LIMMIN
 10
0.0
 20
0.0
  9
$LIMMAX
 10
420.0
 20
297.0
  9
$ORTHOMODE
 70
0
  9
$REGENMODE
 70
1
  9
$FILLMODE
 70
1
  9
$DRAGMODE
 70
2
  9
$QTEXTMODE
 70
0
  9
$MIRRTEXT
 70
1
  9
$OSMODE
 70
20583
  9
$LTSCALE
 40
1.0
  9
$ATTMODE
 70
1
  9
$TEXTSIZE
 40
2.5
  9
$TRACEWID
 40
1.0
  9
$TEXTSTYLE
  7
Standard
  9
$CLAYER
  8
0
  9
$CELTYPE
  6
ByLayer
  9
$CECOLOR
 62
256
  9
$DIMSCALE
 40
1.0
  9
$DIMASZ
 40
2.5
  9
$DIMEXO
 40
0.625
  9
$DIMDLI
 40
3.75
  9
$DIMRND
 40
0.0
  9
$DIMDLE
 40
0.0
  9
$DIMEXE
 40
1.25
  9
$DIMTP
 40
0.0
  9
$DIMTM
 40
0.0
  9
$DIMTXT
 40
2.5
  9
$DIMCEN
 40
2.5
  9
$DIMTSZ
 40
0.0
  9
$DIMTOL
 70
0
  9
$DIMLIM
 70
0
  9
$DIMTIH
 70
0
  9
$DIMTOH
 70
0
  9
$DIMSE1
 70
0
  9
$DIMSE2
 70
0
  9
$DIMTAD
 70
1
  9
$DIMZIN
 70
8
  9
$DIMBLK
  1

  9
$DIMASO
 70
1
  9
$DIMSHO
 70
1
  9
$DIMPOST
  1

  9
$DIMAPOST
  1

  9
$DIMALT
 70
0
  9
$DIMALTD
 70
3
  9
$DIMALTF
 40
0.03937007874
  9
$DIMLFAC
 40
1.0
  9
$DIMTOFL
 70
1
  9
$DIMTVP
 40
0.0
  9
$DIMTIX
 70
0
  9
$DIMSOXD
 70
0
  9
$DIMSAH
 70
0
  9
$DIMBLK1
  1

  9
$DIMBLK2
  1

  9
$DIMSTYLE
  2
ISO-25
  9
$DIMCLRD
 70
0
  9
$DIMCLRE
 70
0
  9
$DIMCLRT
 70
0
  9
$DIMTFAC
 40
1.0
  9
$DIMGAP
 40
0.625
  9
$COORDS
 70
1
  9
$ATTDIA
 70
0
  9
$ATTREQ
 70
1
  9
$HANDLING
 70
1
  9
$LUNITS
 70
2
  9
$LUPREC
 70
4
  9
$SKETCHINC
 40
1.0
  9
$FILLETRAD
 40
10.0
  9
$AUNITS
 70
0
  9
$AUPREC
 70
2
  9
$MENU
  1
.
  9
$ELEVATION
 40
0.0
  9
$PELEVATION
 40
0.0
  9
$THICKNESS
 40
0.0
  9
$LIMCHECK
 70
0
  9
$CHAMFERA
 40
0.0
  9
$CHAMFERB
 40
0.0
  9
$SKPOLY
 70
0
  9
$TDCREATE
 40
2461280.511446759
  9
$TDUPDATE
 40
2461280.511446759
  9
$TDINDWG
 40
0.0
  9
$TDUSRTIMER
 40
0.0
  9
$USRTIMER
 70
1
  9
$ANGBASE
 50
0.0
  9
$ANGDIR
 70
0
  9
$PDMODE
 70
0
  9
$PDSIZE
 40
0.0
  9
$PLINEWID
 40
0.0
  9
$SPLFRAME
 70
0
  9
$SPLINETYPE
 70
6
  9
$SPLINESEGS
 70
8
  9
$HANDSEED
  5
91F
  9
$SURFTAB1
 70
6
  9
$SURFTAB2
 70
6
  9
$SURFTYPE
 70
6
  9
$SURFU
 70
6
  9
$SURFV
 70
6
  9
$UCSNAME
  2

  9
$UCSORG
 10
0.0
 20
0.0
 30
0.0
  9
$UCSXDIR
 10
1.0
 20
0.0
 30
0.0
  9
$UCSYDIR
 10
0.0
 20
1.0
 30
0.0
  9
$PUCSNAME
  2

  9
$PUCSORG
 10
0.0
 20
0.0
 30
0.0
  9
$PUCSXDIR
 10
1.0
 20
0.0
 30
0.0
  9
$PUCSYDIR
 10
0.0
 20
1.0
 30
0.0
  9
$USERI1
 70
0
  9
$USERI2
 70
0
  9
$USERI3
 70
0
  9
$USERI4
 70
0
  9
$USERI5
 70
0
  9
$USERR1
 40
0.0
  9
$USERR2
 40
0.0
  9
$USERR3
 40
0.0
  9
$USERR4
 40
0.0
  9
$USERR5
 40
0.0
  9
$WORLDVIEW
 70
1
  9
$SHADEDGE
 70
3
  9
$SHADEDIF
 70
70
  9
$TILEMODE
 70
1
  9
$MAXACTVP
 70
64
  9
$PLIMCHECK
 70
0
  9
$PEXTMIN
 10
1e+20
 20
1e+20
 30
1e+20
  9
$PEXTMAX
 10
-1e+20
 20
-1e+20
 30
-1e+20
  9
$PLIMMIN
 10
0.0
 20
0.0
  9
$PLIMMAX
 10
420.0
 20
297.0
  9
$UNITMODE
 70
0
  9
$VISRETAIN
 70
1
  9
$PLINEGEN
 70
0
  9
$PSLTSCALE
 70
1
  0
ENDSEC
  0
SECTION
  2
TABLES
  0
TABLE
  2
VPORT
 70
1
  0
VPORT
  5
913
  2
*Active
 70
0
 10
0.0
 20
0.0
 11
1.0
 21
1.0
 12
0.0
 22
0.0
 13
0.0
 23
0.0
 14
0.5
 24
0.5
 15
0.5
 25
0.5
 16
0.0
 26
0.0
 36
1.0
 17
0.0
 27
0.0
 37
0.0
 40
1000.0
 41
1.34
 42
50.0
 43
0.0
 44
0.0
 50
0.0
 51
0.0
 71
0
 72
1000
 73
1
 74
3
 75
0
 76
0
 77
0
 78
0
  0
ENDTAB
  0
TABLE
  2
LTYPE
 70
3
  0
LTYPE
  5
914
  2
ByBlock
 70
0
  3

 72
65
 73
0
 40
0.0
  0
LTYPE
  5
915
  2
ByLayer
 70
0
  3

 72
65
 73
0
 40
0.0
  0
LTYPE
  5
916
  2
Continuous
 70
0
  3

 72
65
 73
0
 40
0.0
  0
ENDTAB
  0
TABLE
  2
LAYER
 70
2
  0
LAYER
  5
917
  2
0
 70
0
 62
1
  6
Continuous
  0
LAYER
  5
918
  2
Defpoints
 70
0
 62
7
  6
Continuous
  0
ENDTAB
  0
TABLE
  2
STYLE
 70
1
  0
STYLE
  5
919
  2
Standard
 70
0
 40
0.0
 41
1.0
 50
0.0
 71
0
 42
2.5
  3
txt
  4

  0
ENDTAB
  0
TABLE
  2
VIEW
 70
0
  0
ENDTAB
  0
TABLE
  2
UCS
 70
0
  0
ENDTAB
  0
TABLE
  2
APPID
 70
3
  0
APPID
  5
91A
  2
ACAD
 70
0
  0
APPID
  5
91D
  2
HATCHBACKGROUNDCOLOR
 70
0
  0
APPID
  5
91E
  2
EZDXF
 70
0
  0
ENDTAB
  0
TABLE
  2
DIMSTYLE
 70
1
  0
DIMSTYLE
105
91B
  2
Standard
 70
0
  3

  4

  5

  6

  7

 40
1.0
 41
2.5
 42
0.625
 43
3.75
 44
1.25
 45
0.0
 46
0.0
 47
0.0
 48
0.0
140
2.5
141
2.5
142
0.0
143
0.03937007874
144
1.0
145
0.0
146
1.0
147
0.625
 71
0
 72
0
 73
0
 74
0
 75
0
 76
0
 77
1
 78
8
170
0
171
3
172
1
173
0
174
0
175
0
176
0
177
0
178
0
  0
ENDTAB
  0
ENDSEC
  0
SECTION
  2
BLOCKS
  0
BLOCK
  5
8F4
  8
0
  2
$Model_Space
 70
0
 10
0.0
 20
0.0
 30
0.0
  3
$Model_Space
  1

1001
EZDXF
1000
WRITTEN_BY_EZDXF
1000
1.4.4 @ 2026-08-27T16:16:29.281830+00:00
  0
ENDBLK
  5
8F5
  8
0
  0
BLOCK
  5
8F6
  8
0
  2
$Paper_Space
 70
0
 10
0.0
 20
0.0
 30
0.0
  3
$Paper_Space
  1

  0
ENDBLK
  5
8F7
  8
0
  0
ENDSEC
  0
SECTION
  2
ENTITIES
  0
LINE
  5
100
  8
0
 62
1
 10
76.2
 20
106.6
 30
0.0
 11
0.0
 21
106.6
 31
0.0
  0
LINE
  5
101
  8
0
 62
1
 10
0.0
 20
106.6
 30
0.0
 11
0.0
 21
81.2
 31
0.0
  0
LINE
  5
102
  8
0
 62
1
 10
0.0
 20
81.2
 30
0.0
 11
50.8
 21
81.2
 31
0.0
  0
LINE
  5
103
  8
0
 62
1
 10
50.8
 20
81.2
 30
0.0
 11
50.8
 21
30.4
 31
0.0
  0
LINE
  5
104
  8
0
 62
1
 10
50.8
 20
30.4
 30
0.0
 11
76.2
 21
30.4
 31
0.0
  0
LINE
  5
105
  8
0
 62
1
 10
76.2
 20
30.4
 30
0.0
 11
76.2
 21
106.6
 31
0.0
  0
LINE
  5
106
  8
0
 62
1
 10
12.4944
 20
90.6315
 30
0.0
 11
12.2895
 21
90.6508
 31
0.0
  0
LINE
  5
107
  8
0
 62
1
 10
12.2895
 20
90.6508
 30
0.0
 11
12.0863
 21
90.683
 31
0.0
  0
LINE
  5
108
  8
0
 62
1
 10
12.0863
 20
90.683
 30
0.0
 11
11.8855
 21
90.7279
 31
0.0
  0
LINE
  5
109
  8
0
 62
1
 10
11.8855
 20
90.7279
 30
0.0
 11
11.688
 21
90.7853
 31
0.0
  0
LINE
  5
10A
  8
0
 62
1
 10
11.688
 20
90.7853
 30
0.0
 11
11.4944
 21
90.855
 31
0.0
  0
LINE
  5
10B
  8
0
 62
1
 10
11.4944
 20
90.855
 30
0.0
 11
11.3056
 21
90.9367
 31
0.0
  0
LINE
  5
10C
  8
0
 62
1
 10
11.3056
 20
90.9367
 30
0.0
 11
11.1223
 21
91.0301
 31
0.0
  0
LINE
  5
10D
  8
0
 62
1
 10
11.1223
 20
91.0301
 30
0.0
 11
10.9452
 21
91.1348
 31
0.0
  0
LINE
  5
10E
  8
0
 62
1
 10
10.9452
 20
91.1348
 30
0.0
 11
10.775
 21
91.2505
 31
0.0
  0
LINE
  5
10F
  8
0
 62
1
 10
10.775
 20
91.2505
 30
0.0
 11
10.6124
 21
91.3766
 31
0.0
  0
LINE
  5
110
  8
0
 62
1
 10
10.6124
 20
91.3766
 30
0.0
 11
10.4581
 21
91.5126
 31
0.0
  0
LINE
  5
111
  8
0
 62
1
 10
10.4581
 20
91.5126
 30
0.0
 11
10.3126
 21
91.6581
 31
0.0
  0
LINE
  5
112
  8
0
 62
1
 10
10.3126
 20
91.6581
 30
0.0
 11
10.1766
 21
91.8124
 31
0.0
  0
LINE
  5
113
  8
0
 62
1
 10
10.1766
 20
91.8124
 30
0.0
 11
10.0505
 21
91.975
 31
0.0
  0
LINE
  5
114
  8
0
 62
1
 10
10.0505
 20
91.975
 30
0.0
 11
9.93483
 21
92.1452
 31
0.0
  0
LINE
  5
115
  8
0
 62
1
 10
9.93483
 20
92.1452
 30
0.0
 11
9.83009
 21
92.3223
 31
0.0
  0
LINE
  5
116
  8
0
 62
1
 10
9.83009
 20
92.3223
 30
0.0
 11
9.73669
 21
92.5056
 31
0.0
  0
LINE
  5
117
  8
0
 62
1
 10
9.73669
 20
92.5056
 30
0.0
 11
9.65498
 21
92.6944
 31
0.0
  0
LINE
  5
118
  8
0
 62
1
 10
9.65498
 20
92.6944
 30
0.0
 11
9.58528
 21
92.888
 31
0.0
  0
LINE
  5
119
  8
0
 62
1
 10
9.58528
 20
92.888
 30
0.0
 11
9.52789
 21
93.0855
 31
0.0
  0
LINE
  5
11A
  8
0
 62
1
 10
9.52789
 20
93.0855
 30
0.0
 11
9.483
 21
93.2863
 31
0.0
  0
LINE
  5
11B
  8
0
 62
1
 10
9.483
 20
93.2863
 30
0.0
 11
9.45082
 21
93.4895
 31
0.0
  0
LINE
  5
11C
  8
0
 62
1
 10
9.45082
 20
93.4895
 30
0.0
 11
9.43146
 21
93.6944
 31
0.0
  0
LINE
  5
11D
  8
0
 62
1
 10
9.43146
 20
93.6944
 30
0.0
 11
9.425
 21
93.9
 31
0.0
  0
LINE
  5
11E
  8
0
 62
1
 10
9.425
 20
93.9
 30
0.0
 11
9.43146
 21
94.1056
 31
0.0
  0
LINE
  5
11F
  8
0
 62
1
 10
9.43146
 20
94.1056
 30
0.0
 11
9.45082
 21
94.3105
 31
0.0
  0
LINE
  5
120
  8
0
 62
1
 10
9.45082
 20
94.3105
 30
0.0
 11
9.483
 21
94.5137
 31
0.0
  0
LINE
  5
121
  8
0
 62
1
 10
9.483
 20
94.5137
 30
0.0
 11
9.52789
 21
94.7144
 31
0.0
  0
LINE
  5
122
  8
0
 62
1
 10
9.52789
 20
94.7144
 30
0.0
 11
9.58528
 21
94.912
 31
0.0
  0
LINE
  5
123
  8
0
 62
1
 10
9.58528
 20
94.912
 30
0.0
 11
9.65498
 21
95.1056
 31
0.0
  0
LINE
  5
124
  8
0
 62
1
 10
9.65498
 20
95.1056
 30
0.0
 11
9.73669
 21
95.2944
 31
0.0
  0
LINE
  5
125
  8
0
 62
1
 10
9.73669
 20
95.2944
 30
0.0
 11
9.83009
 21
95.4777
 31
0.0
  0
LINE
  5
126
  8
0
 62
1
 10
9.83009
 20
95.4777
 30
0.0
 11
9.93483
 21
95.6548
 31
0.0
  0
LINE
  5
127
  8
0
 62
1
 10
9.93483
 20
95.6548
 30
0.0
 11
10.0505
 21
95.825
 31
0.0
  0
LINE
  5
128
  8
0
 62
1
 10
10.0505
 20
95.825
 30
0.0
 11
10.1766
 21
95.9875
 31
0.0
  0
LINE
  5
129
  8
0
 62
1
 10
10.1766
 20
95.9875
 30
0.0
 11
10.3126
 21
96.1419
 31
0.0
  0
LINE
  5
12A
  8
0
 62
1
 10
10.3126
 20
96.1419
 30
0.0
 11
10.4581
 21
96.2874
 31
0.0
  0
LINE
  5
12B
  8
0
 62
1
 10
10.4581
 20
96.2874
 30
0.0
 11
10.6124
 21
96.4234
 31
0.0
  0
LINE
  5
12C
  8
0
 62
1
 10
10.6124
 20
96.4234
 30
0.0
 11
10.775
 21
96.5495
 31
0.0
  0
LINE
  5
12D
  8
0
 62
1
 10
10.775
 20
96.5495
 30
0.0
 11
10.9452
 21
96.6652
 31
0.0
  0
LINE
  5
12E
  8
0
 62
1
 10
10.9452
 20
96.6652
 30
0.0
 11
11.1223
 21
96.7699
 31
0.0
  0
LINE
  5
12F
  8
0
 62
1
 10
11.1223
 20
96.7699
 30
0.0
 11
11.3056
 21
96.8633
 31
0.0
  0
LINE
  5
130
  8
0
 62
1
 10
11.3056
 20
96.8633
 30
0.0
 11
11.4944
 21
96.945
 31
0.0
  0
LINE
  5
131
  8
0
 62
1
 10
11.4944
 20
96.945
 30
0.0
 11
11.688
 21
97.0147
 31
0.0
  0
LINE
  5
132
  8
0
 62
1
 10
11.688
 20
97.0147
 30
0.0
 11
11.8855
 21
97.0721
 31
0.0
  0
LINE
  5
133
  8
0
 62
1
 10
11.8855
 20
97.0721
 30
0.0
 11
12.0863
 21
97.117
 31
0.0
  0
LINE
  5
134
  8
0
 62
1
 10
12.0863
 20
97.117
 30
0.0
 11
12.2895
 21
97.1492
 31
0.0
  0
LINE
  5
135
  8
0
 62
1
 10
12.2895
 20
97.1492
 30
0.0
 11
12.4944
 21
97.1685
 31
0.0
  0
LINE
  5
136
  8
0
 62
1
 10
12.4944
 20
97.1685
 30
0.0
 11
12.7
 21
97.175
 31
0.0
  0
LINE
  5
137
  8
0
 62
1
 10
12.7
 20
97.175
 30
0.0
 11
12.9056
 21
97.1685
 31
0.0
  0
LINE
  5
138
  8
0
 62
1
 10
12.9056
 20
97.1685
 30
0.0
 11
13.1105
 21
97.1492
 31
0.0
  0
LINE
  5
139
  8
0
 62
1
 10
13.1105
 20
97.1492
 30
0.0
 11
13.3137
 21
97.117
 31
0.0
  0
LINE
  5
13A
  8
0
 62
1
 10
13.3137
 20
97.117
 30
0.0
 11
13.5145
 21
97.0721
 31
0.0
  0
LINE
  5
13B
  8
0
 62
1
 10
13.5145
 20
97.0721
 30
0.0
 11
13.712
 21
97.0147
 31
0.0
  0
LINE
  5
13C
  8
0
 62
1
 10
13.712
 20
97.0147
 30
0.0
 11
13.9056
 21
96.945
 31
0.0
  0
LINE
  5
13D
  8
0
 62
1
 10
13.9056
 20
96.945
 30
0.0
 11
14.0944
 21
96.8633
 31
0.0
  0
LINE
  5
13E
  8
0
 62
1
 10
14.0944
 20
96.8633
 30
0.0
 11
14.2777
 21
96.7699
 31
0.0
  0
LINE
  5
13F
  8
0
 62
1
 10
14.2777
 20
96.7699
 30
0.0
 11
14.4548
 21
96.6652
 31
0.0
  0
LINE
  5
140
  8
0
 62
1
 10
14.4548
 20
96.6652
 30
0.0
 11
14.625
 21
96.5495
 31
0.0
  0
LINE
  5
141
  8
0
 62
1
 10
14.625
 20
96.5495
 30
0.0
 11
14.7876
 21
96.4234
 31
0.0
  0
LINE
  5
142
  8
0
 62
1
 10
14.7876
 20
96.4234
 30
0.0
 11
14.9419
 21
96.2874
 31
0.0
  0
LINE
  5
143
  8
0
 62
1
 10
14.9419
 20
96.2874
 30
0.0
 11
15.0874
 21
96.1419
 31
0.0
  0
LINE
  5
144
  8
0
 62
1
 10
15.0874
 20
96.1419
 30
0.0
 11
15.2234
 21
95.9875
 31
0.0
  0
LINE
  5
145
  8
0
 62
1
 10
15.2234
 20
95.9875
 30
0.0
 11
15.3495
 21
95.825
 31
0.0
  0
LINE
  5
146
  8
0
 62
1
 10
15.3495
 20
95.825
 30
0.0
 11
15.4652
 21
95.6548
 31
0.0
  0
LINE
  5
147
  8
0
 62
1
 10
15.4652
 20
95.6548
 30
0.0
 11
15.5699
 21
95.4777
 31
0.0
  0
LINE
  5
148
  8
0
 62
1
 10
15.5699
 20
95.4777
 30
0.0
 11
15.6633
 21
95.2944
 31
0.0
  0
LINE
  5
149
  8
0
 62
1
 10
15.6633
 20
95.2944
 30
0.0
 11
15.745
 21
95.1056
 31
0.0
  0
LINE
  5
14A
  8
0
 62
1
 10
15.745
 20
95.1056
 30
0.0
 11
15.8147
 21
94.912
 31
0.0
  0
LINE
  5
14B
  8
0
 62
1
 10
15.8147
 20
94.912
 30
0.0
 11
15.8721
 21
94.7144
 31
0.0
  0
LINE
  5
14C
  8
0
 62
1
 10
15.8721
 20
94.7144
 30
0.0
 11
15.917
 21
94.5137
 31
0.0
  0
LINE
  5
14D
  8
0
 62
1
 10
15.917
 20
94.5137
 30
0.0
 11
15.9492
 21
94.3105
 31
0.0
  0
LINE
  5
14E
  8
0
 62
1
 10
15.9492
 20
94.3105
 30
0.0
 11
15.9685
 21
94.1056
 31
0.0
  0
LINE
  5
14F
  8
0
 62
1
 10
15.9685
 20
94.1056
 30
0.0
 11
15.975
 21
93.9
 31
0.0
  0
LINE
  5
150
  8
0
 62
1
 10
15.975
 20
93.9
 30
0.0
 11
15.9685
 21
93.6944
 31
0.0
  0
LINE
  5
151
  8
0
 62
1
 10
15.9685
 20
93.6944
 30
0.0
 11
15.9492
 21
93.4895
 31
0.0
  0
LINE
  5
152
  8
0
 62
1
 10
15.9492
 20
93.4895
 30
0.0
 11
15.917
 21
93.2863
 31
0.0
  0
LINE
  5
153
  8
0
 62
1
 10
15.917
 20
93.2863
 30
0.0
 11
15.8721
 21
93.0855
 31
0.0
  0
LINE
  5
154
  8
0
 62
1
 10
15.8721
 20
93.0855
 30
0.0
 11
15.8147
 21
92.888
 31
0.0
  0
LINE
  5
155
  8
0
 62
1
 10
15.8147
 20
92.888
 30
0.0
 11
15.745
 21
92.6944
 31
0.0
  0
LINE
  5
156
  8
0
 62
1
 10
15.745
 20
92.6944
 30
0.0
 11
15.6633
 21
92.5056
 31
0.0
  0
LINE
  5
157
  8
0
 62
1
 10
15.6633
 20
92.5056
 30
0.0
 11
15.5699
 21
92.3223
 31
0.0
  0
LINE
  5
158
  8
0
 62
1
 10
15.5699
 20
92.3223
 30
0.0
 11
15.4652
 21
92.1452
 31
0.0
  0
LINE
  5
159
  8
0
 62
1
 10
15.4652
 20
92.1452
 30
0.0
 11
15.3495
 21
91.975
 31
0.0
  0
LINE
  5
15A
  8
0
 62
1
 10
15.3495
 20
91.975
 30
0.0
 11
15.2234
 21
91.8124
 31
0.0
  0
LINE
  5
15B
  8
0
 62
1
 10
15.2234
 20
91.8124
 30
0.0
 11
15.0874
 21
91.6581
 31
0.0
  0
LINE
  5
15C
  8
0
 62
1
 10
15.0874
 20
91.6581
 30
0.0
 11
14.9419
 21
91.5126
 31
0.0
  0
LINE
  5
15D
  8
0
 62
1
 10
14.9419
 20
91.5126
 30
0.0
 11
14.7876
 21
91.3766
 31
0.0
  0
LINE
  5
15E
  8
0
 62
1
 10
14.7876
 20
91.3766
 30
0.0
 11
14.625
 21
91.2505
 31
0.0
  0
LINE
  5
15F
  8
0
 62
1
 10
14.625
 20
91.2505
 30
0.0
 11
14.4548
 21
91.1348
 31
0.0
  0
LINE
  5
160
  8
0
 62
1
 10
14.4548
 20
91.1348
 30
0.0
 11
14.2777
 21
91.0301
 31
0.0
  0
LINE
  5
161
  8
0
 62
1
 10
14.2777
 20
91.0301
 30
0.0
 11
14.0944
 21
90.9367
 31
0.0
  0
LINE
  5
162
  8
0
 62
1
 10
14.0944
 20
90.9367
 30
0.0
 11
13.9056
 21
90.855
 31
0.0
  0
LINE
  5
163
  8
0
 62
1
 10
13.9056
 20
90.855
 30
0.0
 11
13.712
 21
90.7853
 31
0.0
  0
LINE
  5
164
  8
0
 62
1
 10
13.712
 20
90.7853
 30
0.0
 11
13.5145
 21
90.7279
 31
0.0
  0
LINE
  5
165
  8
0
 62
1
 10
13.5145
 20
90.7279
 30
0.0
 11
13.3137
 21
90.683
 31
0.0
  0
LINE
  5
166
  8
0
 62
1
 10
13.3137
 20
90.683
 30
0.0
 11
13.1105
 21
90.6508
 31
0.0
  0
LINE
  5
167
  8
0
 62
1
 10
13.1105
 20
90.6508
 30
0.0
 11
12.9056
 21
90.6315
 31
0.0
  0
LINE
  5
168
  8
0
 62
1
 10
12.9056
 20
90.6315
 30
0.0
 11
12.7
 21
90.625
 31
0.0
  0
LINE
  5
169
  8
0
 62
1
 10
12.7
 20
90.625
 30
0.0
 11
12.4944
 21
90.6315
 31
0.0
  0
LINE
  5
16A
  8
0
 62
1
 10
37.8944
 20
90.6315
 30
0.0
 11
37.6895
 21
90.6508
 31
0.0
  0
LINE
  5
16B
  8
0
 62
1
 10
37.6895
 20
90.6508
 30
0.0
 11
37.4863
 21
90.683
 31
0.0
  0
LINE
  5
16C
  8
0
 62
1
 10
37.4863
 20
90.683
 30
0.0
 11
37.2855
 21
90.7279
 31
0.0
  0
LINE
  5
16D
  8
0
 62
1
 10
37.2855
 20
90.7279
 30
0.0
 11
37.088
 21
90.7853
 31
0.0
  0
LINE
  5
16E
  8
0
 62
1
 10
37.088
 20
90.7853
 30
0.0
 11
36.8944
 21
90.855
 31
0.0
  0
LINE
  5
16F
  8
0
 62
1
 10
36.8944
 20
90.855
 30
0.0
 11
36.7056
 21
90.9367
 31
0.0
  0
LINE
  5
170
  8
0
 62
1
 10
36.7056
 20
90.9367
 30
0.0
 11
36.5223
 21
91.0301
 31
0.0
  0
LINE
  5
171
  8
0
 62
1
 10
36.5223
 20
91.0301
 30
0.0
 11
36.3452
 21
91.1348
 31
0.0
  0
LINE
  5
172
  8
0
 62
1
 10
36.3452
 20
91.1348
 30
0.0
 11
36.175
 21
91.2505
 31
0.0
  0
LINE
  5
173
  8
0
 62
1
 10
36.175
 20
91.2505
 30
0.0
 11
36.0124
 21
91.3766
 31
0.0
  0
LINE
  5
174
  8
0
 62
1
 10
36.0124
 20
91.3766
 30
0.0
 11
35.8581
 21
91.5126
 31
0.0
  0
LINE
  5
175
  8
0
 62
1
 10
35.8581
 20
91.5126
 30
0.0
 11
35.7126
 21
91.6581
 31
0.0
  0
LINE
  5
176
  8
0
 62
1
 10
35.7126
 20
91.6581
 30
0.0
 11
35.5766
 21
91.8124
 31
0.0
  0
LINE
  5
177
  8
0
 62
1
 10
35.5766
 20
91.8124
 30
0.0
 11
35.4505
 21
91.975
 31
0.0
  0
LINE
  5
178
  8
0
 62
1
 10
35.4505
 20
91.975
 30
0.0
 11
35.3348
 21
92.1452
 31
0.0
  0
LINE
  5
179
  8
0
 62
1
 10
35.3348
 20
92.1452
 30
0.0
 11
35.2301
 21
92.3223
 31
0.0
  0
LINE
  5
17A
  8
0
 62
1
 10
35.2301
 20
92.3223
 30
0.0
 11
35.1367
 21
92.5056
 31
0.0
  0
LINE
  5
17B
  8
0
 62
1
 10
35.1367
 20
92.5056
 30
0.0
 11
35.055
 21
92.6944
 31
0.0
  0
LINE
  5
17C
  8
0
 62
1
 10
35.055
 20
92.6944
 30
0.0
 11
34.9853
 21
92.888
 31
0.0
  0
LINE
  5
17D
  8
0
 62
1
 10
34.9853
 20
92.888
 30
0.0
 11
34.9279
 21
93.0855
 31
0.0
  0
LINE
  5
17E
  8
0
 62
1
 10
34.9279
 20
93.0855
 30
0.0
 11
34.883
 21
93.2863
 31
0.0
  0
LINE
  5
17F
  8
0
 62
1
 10
34.883
 20
93.2863
 30
0.0
 11
34.8508
 21
93.4895
 31
0.0
  0
LINE
  5
180
  8
0
 62
1
 10
34.8508
 20
93.4895
 30
0.0
 11
34.8315
 21
93.6944
 31
0.0
  0
LINE
  5
181
  8
0
 62
1
 10
34.8315
 20
93.6944
 30
0.0
 11
34.825
 21
93.9
 31
0.0
  0
LINE
  5
182
  8
0
 62
1
 10
34.825
 20
93.9
 30
0.0
 11
34.8315
 21
94.1056
 31
0.0
  0
LINE
  5
183
  8
0
 62
1
 10
34.8315
 20
94.1056
 30
0.0
 11
34.8508
 21
94.3105
 31
0.0
  0
LINE
  5
184
  8
0
 62
1
 10
34.8508
 20
94.3105
 30
0.0
 11
34.883
 21
94.5137
 31
0.0
  0
LINE
  5
185
  8
0
 62
1
 10
34.883
 20
94.5137
 30
0.0
 11
34.9279
 21
94.7144
 31
0.0
  0
LINE
  5
186
  8
0
 62
1
 10
34.9279
 20
94.7144
 30
0.0
 11
34.9853
 21
94.912
 31
0.0
  0
LINE
  5
187
  8
0
 62
1
 10
34.9853
 20
94.912
 30
0.0
 11
35.055
 21
95.1056
 31
0.0
  0
LINE
  5
188
  8
0
 62
1
 10
35.055
 20
95.1056
 30
0.0
 11
35.1367
 21
95.2944
 31
0.0
  0
LINE
  5
189
  8
0
 62
1
 10
35.1367
 20
95.2944
 30
0.0
 11
35.2301
 21
95.4777
 31
0.0
  0
LINE
  5
18A
  8
0
 62
1
 10
35.2301
 20
95.4777
 30
0.0
 11
35.3348
 21
95.6548
 31
0.0
  0
LINE
  5
18B
  8
0
 62
1
 10
35.3348
 20
95.6548
 30
0.0
 11
35.4505
 21
95.825
 31
0.0
  0
LINE
  5
18C
  8
0
 62
1
 10
35.4505
 20
95.825
 30
0.0
 11
35.5766
 21
95.9875
 31
0.0
  0
LINE
  5
18D
  8
0
 62
1
 10
35.5766
 20
95.9875
 30
0.0
 11
35.7126
 21
96.1419
 31
0.0
  0
LINE
  5
18E
  8
0
 62
1
 10
35.7126
 20
96.1419
 30
0.0
 11
35.8581
 21
96.2874
 31
0.0
  0
LINE
  5
18F
  8
0
 62
1
 10
35.8581
 20
96.2874
 30
0.0
 11
36.0124
 21
96.4234
 31
0.0
  0
LINE
  5
190
  8
0
 62
1
 10
36.0124
 20
96.4234
 30
0.0
 11
36.175
 21
96.5495
 31
0.0
  0
LINE
  5
191
  8
0
 62
1
 10
36.175
 20
96.5495
 30
0.0
 11
36.3452
 21
96.6652
 31
0.0
  0
LINE
  5
192
  8
0
 62
1
 10
36.3452
 20
96.6652
 30
0.0
 11
36.5223
 21
96.7699
 31
0.0
  0
LINE
  5
193
  8
0
 62
1
 10
36.5223
 20
96.7699
 30
0.0
 11
36.7056
 21
96.8633
 31
0.0
  0
LINE
  5
194
  8
0
 62
1
 10
36.7056
 20
96.8633
 30
0.0
 11
36.8944
 21
96.945
 31
0.0
  0
LINE
  5
195
  8
0
 62
1
 10
36.8944
 20
96.945
 30
0.0
 11
37.088
 21
97.0147
 31
0.0
  0
LINE
  5
196
  8
0
 62
1
 10
37.088
 20
97.0147
 30
0.0
 11
37.2855
 21
97.0721
 31
0.0
  0
LINE
  5
197
  8
0
 62
1
 10
37.2855
 20
97.0721
 30
0.0
 11
37.4863
 21
97.117
 31
0.0
  0
LINE
  5
198
  8
0
 62
1
 10
37.4863
 20
97.117
 30
0.0
 11
37.6895
 21
97.1492
 31
0.0
  0
LINE
  5
199
  8
0
 62
1
 10
37.6895
 20
97.1492
 30
0.0
 11
37.8944
 21
97.1685
 31
0.0
  0
LINE
  5
19A
  8
0
 62
1
 10
37.8944
 20
97.1685
 30
0.0
 11
38.1
 21
97.175
 31
0.0
  0
LINE
  5
19B
  8
0
 62
1
 10
38.1
 20
97.175
 30
0.0
 11
38.3056
 21
97.1685
 31
0.0
  0
LINE
  5
19C
  8
0
 62
1
 10
38.3056
 20
97.1685
 30
0.0
 11
38.5105
 21
97.1492
 31
0.0
  0
LINE
  5
19D
  8
0
 62
1
 10
38.5105
 20
97.1492
 30
0.0
 11
38.7137
 21
97.117
 31
0.0
  0
LINE
  5
19E
  8
0
 62
1
 10
38.7137
 20
97.117
 30
0.0
 11
38.9144
 21
97.0721
 31
0.0
  0
LINE
  5
19F
  8
0
 62
1
 10
38.9144
 20
97.0721
 30
0.0
 11
39.112
 21
97.0147
 31
0.0
  0
LINE
  5
1A0
  8
0
 62
1
 10
39.112
 20
97.0147
 30
0.0
 11
39.3056
 21
96.945
 31
0.0
  0
LINE
  5
1A1
  8
0
 62
1
 10
39.3056
 20
96.945
 30
0.0
 11
39.4944
 21
96.8633
 31
0.0
  0
LINE
  5
1A2
  8
0
 62
1
 10
39.4944
 20
96.8633
 30
0.0
 11
39.6777
 21
96.7699
 31
0.0
  0
LINE
  5
1A3
  8
0
 62
1
 10
39.6777
 20
96.7699
 30
0.0
 11
39.8548
 21
96.6652
 31
0.0
  0
LINE
  5
1A4
  8
0
 62
1
 10
39.8548
 20
96.6652
 30
0.0
 11
40.025
 21
96.5495
 31
0.0
  0
LINE
  5
1A5
  8
0
 62
1
 10
40.025
 20
96.5495
 30
0.0
 11
40.1875
 21
96.4234
 31
0.0
  0
LINE
  5
1A6
  8
0
 62
1
 10
40.1875
 20
96.4234
 30
0.0
 11
40.3419
 21
96.2874
 31
0.0
  0
LINE
  5
1A7
  8
0
 62
1
 10
40.3419
 20
96.2874
 30
0.0
 11
40.4874
 21
96.1419
 31
0.0
  0
LINE
  5
1A8
  8
0
 62
1
 10
40.4874
 20
96.1419
 30
0.0
 11
40.6234
 21
95.9875
 31
0.0
  0
LINE
  5
1A9
  8
0
 62
1
 10
40.6234
 20
95.9875
 30
0.0
 11
40.7495
 21
95.825
 31
0.0
  0
LINE
  5
1AA
  8
0
 62
1
 10
40.7495
 20
95.825
 30
0.0
 11
40.8652
 21
95.6548
 31
0.0
  0
LINE
  5
1AB
  8
0
 62
1
 10
40.8652
 20
95.6548
 30
0.0
 11
40.9699
 21
95.4777
 31
0.0
  0
LINE
  5
1AC
  8
0
 62
1
 10
40.9699
 20
95.4777
 30
0.0
 11
41.0633
 21
95.2944
 31
0.0
  0
LINE
  5
1AD
  8
0
 62
1
 10
41.0633
 20
95.2944
 30
0.0
 11
41.145
 21
95.1056
 31
0.0
  0
LINE
  5
1AE
  8
0
 62
1
 10
41.145
 20
95.1056
 30
0.0
 11
41.2147
 21
94.912
 31
0.0
  0
LINE
  5
1AF
  8
0
 62
1
 10
41.2147
 20
94.912
 30
0.0
 11
41.2721
 21
94.7144
 31
0.0
  0
LINE
  5
1B0
  8
0
 62
1
 10
41.2721
 20
94.7144
 30
0.0
 11
41.317
 21
94.5137
 31
0.0
  0
LINE
  5
1B1
  8
0
 62
1
 10
41.317
 20
94.5137
 30
0.0
 11
41.3492
 21
94.3105
 31
0.0
  0
LINE
  5
1B2
  8
0
 62
1
 10
41.3492
 20
94.3105
 30
0.0
 11
41.3685
 21
94.1056
 31
0.0
  0
LINE
  5
1B3
  8
0
 62
1
 10
41.3685
 20
94.1056
 30
0.0
 11
41.375
 21
93.9
 31
0.0
  0
LINE
  5
1B4
  8
0
 62
1
 10
41.375
 20
93.9
 30
0.0
 11
41.3685
 21
93.6944
 31
0.0
  0
LINE
  5
1B5
  8
0
 62
1
 10
41.3685
 20
93.6944
 30
0.0
 11
41.3492
 21
93.4895
 31
0.0
  0
LINE
  5
1B6
  8
0
 62
1
 10
41.3492
 20
93.4895
 30
0.0
 11
41.317
 21
93.2863
 31
0.0
  0
LINE
  5
1B7
  8
0
 62
1
 10
41.317
 20
93.2863
 30
0.0
 11
41.2721
 21
93.0855
 31
0.0
  0
LINE
  5
1B8
  8
0
 62
1
 10
41.2721
 20
93.0855
 30
0.0
 11
41.2147
 21
92.888
 31
0.0
  0
LINE
  5
1B9
  8
0
 62
1
 10
41.2147
 20
92.888
 30
0.0
 11
41.145
 21
92.6944
 31
0.0
  0
LINE
  5
1BA
  8
0
 62
1
 10
41.145
 20
92.6944
 30
0.0
 11
41.0633
 21
92.5056
 31
0.0
  0
LINE
  5
1BB
  8
0
 62
1
 10
41.0633
 20
92.5056
 30
0.0
 11
40.9699
 21
92.3223
 31
0.0
  0
LINE
  5
1BC
  8
0
 62
1
 10
40.9699
 20
92.3223
 30
0.0
 11
40.8652
 21
92.1452
 31
0.0
  0
LINE
  5
1BD
  8
0
 62
1
 10
40.8652
 20
92.1452
 30
0.0
 11
40.7495
 21
91.975
 31
0.0
  0
LINE
  5
1BE
  8
0
 62
1
 10
40.7495
 20
91.975
 30
0.0
 11
40.6234
 21
91.8124
 31
0.0
  0
LINE
  5
1BF
  8
0
 62
1
 10
40.6234
 20
91.8124
 30
0.0
 11
40.4874
 21
91.6581
 31
0.0
  0
LINE
  5
1C0
  8
0
 62
1
 10
40.4874
 20
91.6581
 30
0.0
 11
40.3419
 21
91.5126
 31
0.0
  0
LINE
  5
1C1
  8
0
 62
1
 10
40.3419
 20
91.5126
 30
0.0
 11
40.1875
 21
91.3766
 31
0.0
  0
LINE
  5
1C2
  8
0
 62
1
 10
40.1875
 20
91.3766
 30
0.0
 11
40.025
 21
91.2505
 31
0.0
  0
LINE
  5
1C3
  8
0
 62
1
 10
40.025
 20
91.2505
 30
0.0
 11
39.8548
 21
91.1348
 31
0.0
  0
LINE
  5
1C4
  8
0
 62
1
 10
39.8548
 20
91.1348
 30
0.0
 11
39.6777
 21
91.0301
 31
0.0
  0
LINE
  5
1C5
  8
0
 62
1
 10
39.6777
 20
91.0301
 30
0.0
 11
39.4944
 21
90.9367
 31
0.0
  0
LINE
  5
1C6
  8
0
 62
1
 10
39.4944
 20
90.9367
 30
0.0
 11
39.3056
 21
90.855
 31
0.0
  0
LINE
  5
1C7
  8
0
 62
1
 10
39.3056
 20
90.855
 30
0.0
 11
39.112
 21
90.7853
 31
0.0
  0
LINE
  5
1C8
  8
0
 62
1
 10
39.112
 20
90.7853
 30
0.0
 11
38.9144
 21
90.7279
 31
0.0
  0
LINE
  5
1C9
  8
0
 62
1
 10
38.9144
 20
90.7279
 30
0.0
 11
38.7137
 21
90.683
 31
0.0
  0
LINE
  5
1CA
  8
0
 62
1
 10
38.7137
 20
90.683
 30
0.0
 11
38.5105
 21
90.6508
 31
0.0
  0
LINE
  5
1CB
  8
0
 62
1
 10
38.5105
 20
90.6508
 30
0.0
 11
38.3056
 21
90.6315
 31
0.0
  0
LINE
  5
1CC
  8
0
 62
1
 10
38.3056
 20
90.6315
 30
0.0
 11
38.1
 21
90.625
 31
0.0
  0
LINE
  5
1CD
  8
0
 62
1
 10
38.1
 20
90.625
 30
0.0
 11
37.8944
 21
90.6315
 31
0.0
  0
LINE
  5
1CE
  8
0
 62
1
 10
63.2943
 20
90.6315
 30
0.0
 11
63.0895
 21
90.6508
 31
0.0
  0
LINE
  5
1CF
  8
0
 62
1
 10
63.0895
 20
90.6508
 30
0.0
 11
62.8863
 21
90.683
 31
0.0
  0
LINE
  5
1D0
  8
0
 62
1
 10
62.8863
 20
90.683
 30
0.0
 11
62.6855
 21
90.7279
 31
0.0
  0
LINE
  5
1D1
  8
0
 62
1
 10
62.6855
 20
90.7279
 30
0.0
 11
62.4879
 21
90.7853
 31
0.0
  0
LINE
  5
1D2
  8
0
 62
1
 10
62.4879
 20
90.7853
 30
0.0
 11
62.2944
 21
90.855
 31
0.0
  0
LINE
  5
1D3
  8
0
 62
1
 10
62.2944
 20
90.855
 30
0.0
 11
62.1056
 21
90.9367
 31
0.0
  0
LINE
  5
1D4
  8
0
 62
1
 10
62.1056
 20
90.9367
 30
0.0
 11
61.9223
 21
91.0301
 31
0.0
  0
LINE
  5
1D5
  8
0
 62
1
 10
61.9223
 20
91.0301
 30
0.0
 11
61.7451
 21
91.1348
 31
0.0
  0
LINE
  5
1D6
  8
0
 62
1
 10
61.7451
 20
91.1348
 30
0.0
 11
61.575
 21
91.2505
 31
0.0
  0
LINE
  5
1D7
  8
0
 62
1
 10
61.575
 20
91.2505
 30
0.0
 11
61.4124
 21
91.3766
 31
0.0
  0
LINE
  5
1D8
  8
0
 62
1
 10
61.4124
 20
91.3766
 30
0.0
 11
61.2581
 21
91.5126
 31
0.0
  0
LINE
  5
1D9
  8
0
 62
1
 10
61.2581
 20
91.5126
 30
0.0
 11
61.1126
 21
91.6581
 31
0.0
  0
LINE
  5
1DA
  8
0
 62
1
 10
61.1126
 20
91.6581
 30
0.0
 11
60.9765
 21
91.8124
 31
0.0
  0
LINE
  5
1DB
  8
0
 62
1
 10
60.9765
 20
91.8124
 30
0.0
 11
60.8504
 21
91.975
 31
0.0
  0
LINE
  5
1DC
  8
0
 62
1
 10
60.8504
 20
91.975
 30
0.0
 11
60.7348
 21
92.1452
 31
0.0
  0
LINE
  5
1DD
  8
0
 62
1
 10
60.7348
 20
92.1452
 30
0.0
 11
60.6301
 21
92.3223
 31
0.0
  0
LINE
  5
1DE
  8
0
 62
1
 10
60.6301
 20
92.3223
 30
0.0
 11
60.5367
 21
92.5056
 31
0.0
  0
LINE
  5
1DF
  8
0
 62
1
 10
60.5367
 20
92.5056
 30
0.0
 11
60.455
 21
92.6944
 31
0.0
  0
LINE
  5
1E0
  8
0
 62
1
 10
60.455
 20
92.6944
 30
0.0
 11
60.3853
 21
92.888
 31
0.0
  0
LINE
  5
1E1
  8
0
 62
1
 10
60.3853
 20
92.888
 30
0.0
 11
60.3279
 21
93.0855
 31
0.0
  0
LINE
  5
1E2
  8
0
 62
1
 10
60.3279
 20
93.0855
 30
0.0
 11
60.283
 21
93.2863
 31
0.0
  0
LINE
  5
1E3
  8
0
 62
1
 10
60.283
 20
93.2863
 30
0.0
 11
60.2508
 21
93.4895
 31
0.0
  0
LINE
  5
1E4
  8
0
 62
1
 10
60.2508
 20
93.4895
 30
0.0
 11
60.2315
 21
93.6944
 31
0.0
  0
LINE
  5
1E5
  8
0
 62
1
 10
60.2315
 20
93.6944
 30
0.0
 11
60.225
 21
93.9
 31
0.0
  0
LINE
  5
1E6
  8
0
 62
1
 10
60.225
 20
93.9
 30
0.0
 11
60.2315
 21
94.1056
 31
0.0
  0
LINE
  5
1E7
  8
0
 62
1
 10
60.2315
 20
94.1056
 30
0.0
 11
60.2508
 21
94.3104
 31
0.0
  0
LINE
  5
1E8
  8
0
 62
1
 10
60.2508
 20
94.3104
 30
0.0
 11
60.283
 21
94.5137
 31
0.0
  0
LINE
  5
1E9
  8
0
 62
1
 10
60.283
 20
94.5137
 30
0.0
 11
60.3279
 21
94.7144
 31
0.0
  0
LINE
  5
1EA
  8
0
 62
1
 10
60.3279
 20
94.7144
 30
0.0
 11
60.3853
 21
94.912
 31
0.0
  0
LINE
  5
1EB
  8
0
 62
1
 10
60.3853
 20
94.912
 30
0.0
 11
60.455
 21
95.1056
 31
0.0
  0
LINE
  5
1EC
  8
0
 62
1
 10
60.455
 20
95.1056
 30
0.0
 11
60.5367
 21
95.2944
 31
0.0
  0
LINE
  5
1ED
  8
0
 62
1
 10
60.5367
 20
95.2944
 30
0.0
 11
60.6301
 21
95.4777
 31
0.0
  0
LINE
  5
1EE
  8
0
 62
1
 10
60.6301
 20
95.4777
 30
0.0
 11
60.7348
 21
95.6548
 31
0.0
  0
LINE
  5
1EF
  8
0
 62
1
 10
60.7348
 20
95.6548
 30
0.0
 11
60.8505
 21
95.825
 31
0.0
  0
LINE
  5
1F0
  8
0
 62
1
 10
60.8505
 20
95.825
 30
0.0
 11
60.9766
 21
95.9875
 31
0.0
  0
LINE
  5
1F1
  8
0
 62
1
 10
60.9766
 20
95.9875
 30
0.0
 11
61.1126
 21
96.1419
 31
0.0
  0
LINE
  5
1F2
  8
0
 62
1
 10
61.1126
 20
96.1419
 30
0.0
 11
61.2581
 21
96.2874
 31
0.0
  0
LINE
  5
1F3
  8
0
 62
1
 10
61.2581
 20
96.2874
 30
0.0
 11
61.4124
 21
96.4234
 31
0.0
  0
LINE
  5
1F4
  8
0
 62
1
 10
61.4124
 20
96.4234
 30
0.0
 11
61.575
 21
96.5495
 31
0.0
  0
LINE
  5
1F5
  8
0
 62
1
 10
61.575
 20
96.5495
 30
0.0
 11
61.7452
 21
96.6651
 31
0.0
  0
LINE
  5
1F6
  8
0
 62
1
 10
61.7452
 20
96.6651
 30
0.0
 11
61.9223
 21
96.7699
 31
0.0
  0
LINE
  5
1F7
  8
0
 62
1
 10
61.9223
 20
96.7699
 30
0.0
 11
62.1056
 21
96.8633
 31
0.0
  0
LINE
  5
1F8
  8
0
 62
1
 10
62.1056
 20
96.8633
 30
0.0
 11
62.2944
 21
96.945
 31
0.0
  0
LINE
  5
1F9
  8
0
 62
1
 10
62.2944
 20
96.945
 30
0.0
 11
62.488
 21
97.0147
 31
0.0
  0
LINE
  5
1FA
  8
0
 62
1
 10
62.488
 20
97.0147
 30
0.0
 11
62.6855
 21
97.0721
 31
0.0
  0
LINE
  5
1FB
  8
0
 62
1
 10
62.6855
 20
97.0721
 30
0.0
 11
62.8863
 21
97.117
 31
0.0
  0
LINE
  5
1FC
  8
0
 62
1
 10
62.8863
 20
97.117
 30
0.0
 11
63.0895
 21
97.1492
 31
0.0
  0
LINE
  5
1FD
  8
0
 62
1
 10
63.0895
 20
97.1492
 30
0.0
 11
63.2944
 21
97.1685
 31
0.0
  0
LINE
  5
1FE
  8
0
 62
1
 10
63.2944
 20
97.1685
 30
0.0
 11
63.5
 21
97.175
 31
0.0
  0
LINE
  5
1FF
  8
0
 62
1
 10
63.5
 20
97.175
 30
0.0
 11
63.7056
 21
97.1685
 31
0.0
  0
LINE
  5
200
  8
0
 62
1
 10
63.7056
 20
97.1685
 30
0.0
 11
63.9104
 21
97.1492
 31
0.0
  0
LINE
  5
201
  8
0
 62
1
 10
63.9104
 20
97.1492
 30
0.0
 11
64.1136
 21
97.117
 31
0.0
  0
LINE
  5
202
  8
0
 62
1
 10
64.1136
 20
97.117
 30
0.0
 11
64.3144
 21
97.0721
 31
0.0
  0
LINE
  5
203
  8
0
 62
1
 10
64.3144
 20
97.0721
 30
0.0
 11
64.512
 21
97.0147
 31
0.0
  0
LINE
  5
204
  8
0
 62
1
 10
64.512
 20
97.0147
 30
0.0
 11
64.7056
 21
96.945
 31
0.0
  0
LINE
  5
205
  8
0
 62
1
 10
64.7056
 20
96.945
 30
0.0
 11
64.8944
 21
96.8633
 31
0.0
  0
LINE
  5
206
  8
0
 62
1
 10
64.8944
 20
96.8633
 30
0.0
 11
65.0777
 21
96.7699
 31
0.0
  0
LINE
  5
207
  8
0
 62
1
 10
65.0777
 20
96.7699
 30
0.0
 11
65.2548
 21
96.6651
 31
0.0
  0
LINE
  5
208
  8
0
 62
1
 10
65.2548
 20
96.6651
 30
0.0
 11
65.425
 21
96.5495
 31
0.0
  0
LINE
  5
209
  8
0
 62
1
 10
65.425
 20
96.5495
 30
0.0
 11
65.5875
 21
96.4234
 31
0.0
  0
LINE
  5
20A
  8
0
 62
1
 10
65.5875
 20
96.4234
 30
0.0
 11
65.7419
 21
96.2874
 31
0.0
  0
LINE
  5
20B
  8
0
 62
1
 10
65.7419
 20
96.2874
 30
0.0
 11
65.8873
 21
96.1419
 31
0.0
  0
LINE
  5
20C
  8
0
 62
1
 10
65.8873
 20
96.1419
 30
0.0
 11
66.0234
 21
95.9875
 31
0.0
  0
LINE
  5
20D
  8
0
 62
1
 10
66.0234
 20
95.9875
 30
0.0
 11
66.1495
 21
95.825
 31
0.0
  0
LINE
  5
20E
  8
0
 62
1
 10
66.1495
 20
95.825
 30
0.0
 11
66.2652
 21
95.6548
 31
0.0
  0
LINE
  5
20F
  8
0
 62
1
 10
66.2652
 20
95.6548
 30
0.0
 11
66.3699
 21
95.4777
 31
0.0
  0
LINE
  5
210
  8
0
 62
1
 10
66.3699
 20
95.4777
 30
0.0
 11
66.4633
 21
95.2944
 31
0.0
  0
LINE
  5
211
  8
0
 62
1
 10
66.4633
 20
95.2944
 30
0.0
 11
66.545
 21
95.1056
 31
0.0
  0
LINE
  5
212
  8
0
 62
1
 10
66.545
 20
95.1056
 30
0.0
 11
66.6147
 21
94.912
 31
0.0
  0
LINE
  5
213
  8
0
 62
1
 10
66.6147
 20
94.912
 30
0.0
 11
66.6721
 21
94.7144
 31
0.0
  0
LINE
  5
214
  8
0
 62
1
 10
66.6721
 20
94.7144
 30
0.0
 11
66.717
 21
94.5137
 31
0.0
  0
LINE
  5
215
  8
0
 62
1
 10
66.717
 20
94.5137
 30
0.0
 11
66.7491
 21
94.3104
 31
0.0
  0
LINE
  5
216
  8
0
 62
1
 10
66.7491
 20
94.3104
 30
0.0
 11
66.7685
 21
94.1056
 31
0.0
  0
LINE
  5
217
  8
0
 62
1
 10
66.7685
 20
94.1056
 30
0.0
 11
66.775
 21
93.9
 31
0.0
  0
LINE
  5
218
  8
0
 62
1
 10
66.775
 20
93.9
 30
0.0
 11
66.7685
 21
93.6944
 31
0.0
  0
LINE
  5
219
  8
0
 62
1
 10
66.7685
 20
93.6944
 30
0.0
 11
66.7491
 21
93.4895
 31
0.0
  0
LINE
  5
21A
  8
0
 62
1
 10
66.7491
 20
93.4895
 30
0.0
 11
66.717
 21
93.2863
 31
0.0
  0
LINE
  5
21B
  8
0
 62
1
 10
66.717
 20
93.2863
 30
0.0
 11
66.6721
 21
93.0855
 31
0.0
  0
LINE
  5
21C
  8
0
 62
1
 10
66.6721
 20
93.0855
 30
0.0
 11
66.6147
 21
92.888
 31
0.0
  0
LINE
  5
21D
  8
0
 62
1
 10
66.6147
 20
92.888
 30
0.0
 11
66.545
 21
92.6944
 31
0.0
  0
LINE
  5
21E
  8
0
 62
1
 10
66.545
 20
92.6944
 30
0.0
 11
66.4633
 21
92.5056
 31
0.0
  0
LINE
  5
21F
  8
0
 62
1
 10
66.4633
 20
92.5056
 30
0.0
 11
66.3699
 21
92.3223
 31
0.0
  0
LINE
  5
220
  8
0
 62
1
 10
66.3699
 20
92.3223
 30
0.0
 11
66.2652
 21
92.1452
 31
0.0
  0
LINE
  5
221
  8
0
 62
1
 10
66.2652
 20
92.1452
 30
0.0
 11
66.1495
 21
91.975
 31
0.0
  0
LINE
  5
222
  8
0
 62
1
 10
66.1495
 20
91.975
 30
0.0
 11
66.0234
 21
91.8124
 31
0.0
  0
LINE
  5
223
  8
0
 62
1
 10
66.0234
 20
91.8124
 30
0.0
 11
65.8874
 21
91.6581
 31
0.0
  0
LINE
  5
224
  8
0
 62
1
 10
65.8874
 20
91.6581
 30
0.0
 11
65.7419
 21
91.5126
 31
0.0
  0
LINE
  5
225
  8
0
 62
1
 10
65.7419
 20
91.5126
 30
0.0
 11
65.5875
 21
91.3766
 31
0.0
  0
LINE
  5
226
  8
0
 62
1
 10
65.5875
 20
91.3766
 30
0.0
 11
65.425
 21
91.2505
 31
0.0
  0
LINE
  5
227
  8
0
 62
1
 10
65.425
 20
91.2505
 30
0.0
 11
65.2548
 21
91.1348
 31
0.0
  0
LINE
  5
228
  8
0
 62
1
 10
65.2548
 20
91.1348
 30
0.0
 11
65.0777
 21
91.0301
 31
0.0
  0
LINE
  5
229
  8
0
 62
1
 10
65.0777
 20
91.0301
 30
0.0
 11
64.8944
 21
90.9367
 31
0.0
  0
LINE
  5
22A
  8
0
 62
1
 10
64.8944
 20
90.9367
 30
0.0
 11
64.7056
 21
90.855
 31
0.0
  0
LINE
  5
22B
  8
0
 62
1
 10
64.7056
 20
90.855
 30
0.0
 11
64.512
 21
90.7853
 31
0.0
  0
LINE
  5
22C
  8
0
 62
1
 10
64.512
 20
90.7853
 30
0.0
 11
64.3144
 21
90.7279
 31
0.0
  0
LINE
  5
22D
  8
0
 62
1
 10
64.3144
 20
90.7279
 30
0.0
 11
64.1137
 21
90.683
 31
0.0
  0
LINE
  5
22E
  8
0
 62
1
 10
64.1137
 20
90.683
 30
0.0
 11
63.9104
 21
90.6508
 31
0.0
  0
LINE
  5
22F
  8
0
 62
1
 10
63.9104
 20
90.6508
 30
0.0
 11
63.7056
 21
90.6315
 31
0.0
  0
LINE
  5
230
  8
0
 62
1
 10
63.7056
 20
90.6315
 30
0.0
 11
63.5
 21
90.625
 31
0.0
  0
LINE
  5
231
  8
0
 62
1
 10
63.5
 20
90.625
 30
0.0
 11
63.2943
 21
90.6315
 31
0.0
  0
LINE
  5
232
  8
0
 62
1
 10
63.2944
 20
65.2315
 30
0.0
 11
63.0895
 21
65.2508
 31
0.0
  0
LINE
  5
233
  8
0
 62
1
 10
63.0895
 20
65.2508
 30
0.0
 11
62.8863
 21
65.283
 31
0.0
  0
LINE
  5
234
  8
0
 62
1
 10
62.8863
 20
65.283
 30
0.0
 11
62.6855
 21
65.3279
 31
0.0
  0
LINE
  5
235
  8
0
 62
1
 10
62.6855
 20
65.3279
 30
0.0
 11
62.488
 21
65.3853
 31
0.0
  0
LINE
  5
236
  8
0
 62
1
 10
62.488
 20
65.3853
 30
0.0
 11
62.2944
 21
65.455
 31
0.0
  0
LINE
  5
237
  8
0
 62
1
 10
62.2944
 20
65.455
 30
0.0
 11
62.1056
 21
65.5367
 31
0.0
  0
LINE
  5
238
  8
0
 62
1
 10
62.1056
 20
65.5367
 30
0.0
 11
61.9223
 21
65.6301
 31
0.0
  0
LINE
  5
239
  8
0
 62
1
 10
61.9223
 20
65.6301
 30
0.0
 11
61.7452
 21
65.7348
 31
0.0
  0
LINE
  5
23A
  8
0
 62
1
 10
61.7452
 20
65.7348
 30
0.0
 11
61.575
 21
65.8505
 31
0.0
  0
LINE
  5
23B
  8
0
 62
1
 10
61.575
 20
65.8505
 30
0.0
 11
61.4124
 21
65.9766
 31
0.0
  0
LINE
  5
23C
  8
0
 62
1
 10
61.4124
 20
65.9766
 30
0.0
 11
61.2581
 21
66.1126
 31
0.0
  0
LINE
  5
23D
  8
0
 62
1
 10
61.2581
 20
66.1126
 30
0.0
 11
61.1126
 21
66.2581
 31
0.0
  0
LINE
  5
23E
  8
0
 62
1
 10
61.1126
 20
66.2581
 30
0.0
 11
60.9766
 21
66.4124
 31
0.0
  0
LINE
  5
23F
  8
0
 62
1
 10
60.9766
 20
66.4124
 30
0.0
 11
60.8505
 21
66.575
 31
0.0
  0
LINE
  5
240
  8
0
 62
1
 10
60.8505
 20
66.575
 30
0.0
 11
60.7348
 21
66.7452
 31
0.0
  0
LINE
  5
241
  8
0
 62
1
 10
60.7348
 20
66.7452
 30
0.0
 11
60.6301
 21
66.9223
 31
0.0
  0
LINE
  5
242
  8
0
 62
1
 10
60.6301
 20
66.9223
 30
0.0
 11
60.5367
 21
67.1056
 31
0.0
  0
LINE
  5
243
  8
0
 62
1
 10
60.5367
 20
67.1056
 30
0.0
 11
60.455
 21
67.2944
 31
0.0
  0
LINE
  5
244
  8
0
 62
1
 10
60.455
 20
67.2944
 30
0.0
 11
60.3853
 21
67.488
 31
0.0
  0
LINE
  5
245
  8
0
 62
1
 10
60.3853
 20
67.488
 30
0.0
 11
60.3279
 21
67.6855
 31
0.0
  0
LINE
  5
246
  8
0
 62
1
 10
60.3279
 20
67.6855
 30
0.0
 11
60.283
 21
67.8863
 31
0.0
  0
LINE
  5
247
  8
0
 62
1
 10
60.283
 20
67.8863
 30
0.0
 11
60.2508
 21
68.0895
 31
0.0
  0
LINE
  5
248
  8
0
 62
1
 10
60.2508
 20
68.0895
 30
0.0
 11
60.2315
 21
68.2944
 31
0.0
  0
LINE
  5
249
  8
0
 62
1
 10
60.2315
 20
68.2944
 30
0.0
 11
60.225
 21
68.5
 31
0.0
  0
LINE
  5
24A
  8
0
 62
1
 10
60.225
 20
68.5
 30
0.0
 11
60.2315
 21
68.7056
 31
0.0
  0
LINE
  5
24B
  8
0
 62
1
 10
60.2315
 20
68.7056
 30
0.0
 11
60.2508
 21
68.9105
 31
0.0
  0
LINE
  5
24C
  8
0
 62
1
 10
60.2508
 20
68.9105
 30
0.0
 11
60.283
 21
69.1137
 31
0.0
  0
LINE
  5
24D
  8
0
 62
1
 10
60.283
 20
69.1137
 30
0.0
 11
60.3279
 21
69.3145
 31
0.0
  0
LINE
  5
24E
  8
0
 62
1
 10
60.3279
 20
69.3145
 30
0.0
 11
60.3853
 21
69.512
 31
0.0
  0
LINE
  5
24F
  8
0
 62
1
 10
60.3853
 20
69.512
 30
0.0
 11
60.455
 21
69.7056
 31
0.0
  0
LINE
  5
250
  8
0
 62
1
 10
60.455
 20
69.7056
 30
0.0
 11
60.5367
 21
69.8944
 31
0.0
  0
LINE
  5
251
  8
0
 62
1
 10
60.5367
 20
69.8944
 30
0.0
 11
60.6301
 21
70.0777
 31
0.0
  0
LINE
  5
252
  8
0
 62
1
 10
60.6301
 20
70.0777
 30
0.0
 11
60.7348
 21
70.2548
 31
0.0
  0
LINE
  5
253
  8
0
 62
1
 10
60.7348
 20
70.2548
 30
0.0
 11
60.8505
 21
70.425
 31
0.0
  0
LINE
  5
254
  8
0
 62
1
 10
60.8505
 20
70.425
 30
0.0
 11
60.9766
 21
70.5876
 31
0.0
  0
LINE
  5
255
  8
0
 62
1
 10
60.9766
 20
70.5876
 30
0.0
 11
61.1126
 21
70.7419
 31
0.0
  0
LINE
  5
256
  8
0
 62
1
 10
61.1126
 20
70.7419
 30
0.0
 11
61.2581
 21
70.8874
 31
0.0
  0
LINE
  5
257
  8
0
 62
1
 10
61.2581
 20
70.8874
 30
0.0
 11
61.4124
 21
71.0234
 31
0.0
  0
LINE
  5
258
  8
0
 62
1
 10
61.4124
 20
71.0234
 30
0.0
 11
61.575
 21
71.1495
 31
0.0
  0
LINE
  5
259
  8
0
 62
1
 10
61.575
 20
71.1495
 30
0.0
 11
61.7452
 21
71.2652
 31
0.0
  0
LINE
  5
25A
  8
0
 62
1
 10
61.7452
 20
71.2652
 30
0.0
 11
61.9223
 21
71.3699
 31
0.0
  0
LINE
  5
25B
  8
0
 62
1
 10
61.9223
 20
71.3699
 30
0.0
 11
62.1056
 21
71.4633
 31
0.0
  0
LINE
  5
25C
  8
0
 62
1
 10
62.1056
 20
71.4633
 30
0.0
 11
62.2944
 21
71.545
 31
0.0
  0
LINE
  5
25D
  8
0
 62
1
 10
62.2944
 20
71.545
 30
0.0
 11
62.488
 21
71.6147
 31
0.0
  0
LINE
  5
25E
  8
0
 62
1
 10
62.488
 20
71.6147
 30
0.0
 11
62.6855
 21
71.6721
 31
0.0
  0
LINE
  5
25F
  8
0
 62
1
 10
62.6855
 20
71.6721
 30
0.0
 11
62.8863
 21
71.717
 31
0.0
  0
LINE
  5
260
  8
0
 62
1
 10
62.8863
 20
71.717
 30
0.0
 11
63.0895
 21
71.7492
 31
0.0
  0
LINE
  5
261
  8
0
 62
1
 10
63.0895
 20
71.7492
 30
0.0
 11
63.2944
 21
71.7685
 31
0.0
  0
LINE
  5
262
  8
0
 62
1
 10
63.2944
 20
71.7685
 30
0.0
 11
63.5
 21
71.775
 31
0.0
  0
LINE
  5
263
  8
0
 62
1
 10
63.5
 20
71.775
 30
0.0
 11
63.7056
 21
71.7685
 31
0.0
  0
LINE
  5
264
  8
0
 62
1
 10
63.7056
 20
71.7685
 30
0.0
 11
63.9104
 21
71.7492
 31
0.0
  0
LINE
  5
265
  8
0
 62
1
 10
63.9104
 20
71.7492
 30
0.0
 11
64.1136
 21
71.717
 31
0.0
  0
LINE
  5
266
  8
0
 62
1
 10
64.1136
 20
71.717
 30
0.0
 11
64.3144
 21
71.6721
 31
0.0
  0
LINE
  5
267
  8
0
 62
1
 10
64.3144
 20
71.6721
 30
0.0
 11
64.512
 21
71.6147
 31
0.0
  0
LINE
  5
268
  8
0
 62
1
 10
64.512
 20
71.6147
 30
0.0
 11
64.7056
 21
71.545
 31
0.0
  0
LINE
  5
269
  8
0
 62
1
 10
64.7056
 20
71.545
 30
0.0
 11
64.8944
 21
71.4633
 31
0.0
  0
LINE
  5
26A
  8
0
 62
1
 10
64.8944
 20
71.4633
 30
0.0
 11
65.0777
 21
71.3699
 31
0.0
  0
LINE
  5
26B
  8
0
 62
1
 10
65.0777
 20
71.3699
 30
0.0
 11
65.2548
 21
71.2652
 31
0.0
  0
LINE
  5
26C
  8
0
 62
1
 10
65.2548
 20
71.2652
 30
0.0
 11
65.425
 21
71.1495
 31
0.0
  0
LINE
  5
26D
  8
0
 62
1
 10
65.425
 20
71.1495
 30
0.0
 11
65.5875
 21
71.0234
 31
0.0
  0
LINE
  5
26E
  8
0
 62
1
 10
65.5875
 20
71.0234
 30
0.0
 11
65.7419
 21
70.8874
 31
0.0
  0
LINE
  5
26F
  8
0
 62
1
 10
65.7419
 20
70.8874
 30
0.0
 11
65.8873
 21
70.7419
 31
0.0
  0
LINE
  5
270
  8
0
 62
1
 10
65.8873
 20
70.7419
 30
0.0
 11
66.0234
 21
70.5876
 31
0.0
  0
LINE
  5
271
  8
0
 62
1
 10
66.0234
 20
70.5876
 30
0.0
 11
66.1495
 21
70.425
 31
0.0
  0
LINE
  5
272
  8
0
 62
1
 10
66.1495
 20
70.425
 30
0.0
 11
66.2652
 21
70.2548
 31
0.0
  0
LINE
  5
273
  8
0
 62
1
 10
66.2652
 20
70.2548
 30
0.0
 11
66.3699
 21
70.0777
 31
0.0
  0
LINE
  5
274
  8
0
 62
1
 10
66.3699
 20
70.0777
 30
0.0
 11
66.4633
 21
69.8944
 31
0.0
  0
LINE
  5
275
  8
0
 62
1
 10
66.4633
 20
69.8944
 30
0.0
 11
66.545
 21
69.7056
 31
0.0
  0
LINE
  5
276
  8
0
 62
1
 10
66.545
 20
69.7056
 30
0.0
 11
66.6147
 21
69.512
 31
0.0
  0
LINE
  5
277
  8
0
 62
1
 10
66.6147
 20
69.512
 30
0.0
 11
66.6721
 21
69.3145
 31
0.0
  0
LINE
  5
278
  8
0
 62
1
 10
66.6721
 20
69.3145
 30
0.0
 11
66.717
 21
69.1137
 31
0.0
  0
LINE
  5
279
  8
0
 62
1
 10
66.717
 20
69.1137
 30
0.0
 11
66.7491
 21
68.9105
 31
0.0
  0
LINE
  5
27A
  8
0
 62
1
 10
66.7491
 20
68.9105
 30
0.0
 11
66.7685
 21
68.7056
 31
0.0
  0
LINE
  5
27B
  8
0
 62
1
 10
66.7685
 20
68.7056
 30
0.0
 11
66.775
 21
68.5
 31
0.0
  0
LINE
  5
27C
  8
0
 62
1
 10
66.775
 20
68.5
 30
0.0
 11
66.7685
 21
68.2944
 31
0.0
  0
LINE
  5
27D
  8
0
 62
1
 10
66.7685
 20
68.2944
 30
0.0
 11
66.7491
 21
68.0895
 31
0.0
  0
LINE
  5
27E
  8
0
 62
1
 10
66.7491
 20
68.0895
 30
0.0
 11
66.717
 21
67.8863
 31
0.0
  0
LINE
  5
27F
  8
0
 62
1
 10
66.717
 20
67.8863
 30
0.0
 11
66.6721
 21
67.6855
 31
0.0
  0
LINE
  5
280
  8
0
 62
1
 10
66.6721
 20
67.6855
 30
0.0
 11
66.6147
 21
67.488
 31
0.0
  0
LINE
  5
281
  8
0
 62
1
 10
66.6147
 20
67.488
 30
0.0
 11
66.545
 21
67.2944
 31
0.0
  0
LINE
  5
282
  8
0
 62
1
 10
66.545
 20
67.2944
 30
0.0
 11
66.4633
 21
67.1056
 31
0.0
  0
LINE
  5
283
  8
0
 62
1
 10
66.4633
 20
67.1056
 30
0.0
 11
66.3699
 21
66.9223
 31
0.0
  0
LINE
  5
284
  8
0
 62
1
 10
66.3699
 20
66.9223
 30
0.0
 11
66.2652
 21
66.7452
 31
0.0
  0
LINE
  5
285
  8
0
 62
1
 10
66.2652
 20
66.7452
 30
0.0
 11
66.1495
 21
66.575
 31
0.0
  0
LINE
  5
286
  8
0
 62
1
 10
66.1495
 20
66.575
 30
0.0
 11
66.0234
 21
66.4124
 31
0.0
  0
LINE
  5
287
  8
0
 62
1
 10
66.0234
 20
66.4124
 30
0.0
 11
65.8873
 21
66.2581
 31
0.0
  0
LINE
  5
288
  8
0
 62
1
 10
65.8873
 20
66.2581
 30
0.0
 11
65.7419
 21
66.1126
 31
0.0
  0
LINE
  5
289
  8
0
 62
1
 10
65.7419
 20
66.1126
 30
0.0
 11
65.5875
 21
65.9766
 31
0.0
  0
LINE
  5
28A
  8
0
 62
1
 10
65.5875
 20
65.9766
 30
0.0
 11
65.425
 21
65.8505
 31
0.0
  0
LINE
  5
28B
  8
0
 62
1
 10
65.425
 20
65.8505
 30
0.0
 11
65.2548
 21
65.7348
 31
0.0
  0
LINE
  5
28C
  8
0
 62
1
 10
65.2548
 20
65.7348
 30
0.0
 11
65.0777
 21
65.6301
 31
0.0
  0
LINE
  5
28D
  8
0
 62
1
 10
65.0777
 20
65.6301
 30
0.0
 11
64.8944
 21
65.5367
 31
0.0
  0
LINE
  5
28E
  8
0
 62
1
 10
64.8944
 20
65.5367
 30
0.0
 11
64.7056
 21
65.455
 31
0.0
  0
LINE
  5
28F
  8
0
 62
1
 10
64.7056
 20
65.455
 30
0.0
 11
64.512
 21
65.3853
 31
0.0
  0
LINE
  5
290
  8
0
 62
1
 10
64.512
 20
65.3853
 30
0.0
 11
64.3144
 21
65.3279
 31
0.0
  0
LINE
  5
291
  8
0
 62
1
 10
64.3144
 20
65.3279
 30
0.0
 11
64.1136
 21
65.283
 31
0.0
  0
LINE
  5
292
  8
0
 62
1
 10
64.1136
 20
65.283
 30
0.0
 11
63.9104
 21
65.2508
 31
0.0
  0
LINE
  5
293
  8
0
 62
1
 10
63.9104
 20
65.2508
 30
0.0
 11
63.7056
 21
65.2315
 31
0.0
  0
LINE
  5
294
  8
0
 62
1
 10
63.7056
 20
65.2315
 30
0.0
 11
63.5
 21
65.225
 31
0.0
  0
LINE
  5
295
  8
0
 62
1
 10
63.5
 20
65.225
 30
0.0
 11
63.2944
 21
65.2315
 31
0.0
  0
LINE
  5
296
  8
0
 62
1
 10
63.2944
 20
39.8315
 30
0.0
 11
63.0895
 21
39.8508
 31
0.0
  0
LINE
  5
297
  8
0
 62
1
 10
63.0895
 20
39.8508
 30
0.0
 11
62.8863
 21
39.883
 31
0.0
  0
LINE
  5
298
  8
0
 62
1
 10
62.8863
 20
39.883
 30
0.0
 11
62.6855
 21
39.9279
 31
0.0
  0
LINE
  5
299
  8
0
 62
1
 10
62.6855
 20
39.9279
 30
0.0
 11
62.488
 21
39.9853
 31
0.0
  0
LINE
  5
29A
  8
0
 62
1
 10
62.488
 20
39.9853
 30
0.0
 11
62.2944
 21
40.055
 31
0.0
  0
LINE
  5
29B
  8
0
 62
1
 10
62.2944
 20
40.055
 30
0.0
 11
62.1056
 21
40.1367
 31
0.0
  0
LINE
  5
29C
  8
0
 62
1
 10
62.1056
 20
40.1367
 30
0.0
 11
61.9223
 21
40.2301
 31
0.0
  0
LINE
  5
29D
  8
0
 62
1
 10
61.9223
 20
40.2301
 30
0.0
 11
61.7452
 21
40.3348
 31
0.0
  0
LINE
  5
29E
  8
0
 62
1
 10
61.7452
 20
40.3348
 30
0.0
 11
61.575
 21
40.4505
 31
0.0
  0
LINE
  5
29F
  8
0
 62
1
 10
61.575
 20
40.4505
 30
0.0
 11
61.4124
 21
40.5766
 31
0.0
  0
LINE
  5
2A0
  8
0
 62
1
 10
61.4124
 20
40.5766
 30
0.0
 11
61.2581
 21
40.7126
 31
0.0
  0
LINE
  5
2A1
  8
0
 62
1
 10
61.2581
 20
40.7126
 30
0.0
 11
61.1126
 21
40.8581
 31
0.0
  0
LINE
  5
2A2
  8
0
 62
1
 10
61.1126
 20
40.8581
 30
0.0
 11
60.9766
 21
41.0125
 31
0.0
  0
LINE
  5
2A3
  8
0
 62
1
 10
60.9766
 20
41.0125
 30
0.0
 11
60.8505
 21
41.175
 31
0.0
  0
LINE
  5
2A4
  8
0
 62
1
 10
60.8505
 20
41.175
 30
0.0
 11
60.7348
 21
41.3452
 31
0.0
  0
LINE
  5
2A5
  8
0
 62
1
 10
60.7348
 20
41.3452
 30
0.0
 11
60.6301
 21
41.5223
 31
0.0
  0
LINE
  5
2A6
  8
0
 62
1
 10
60.6301
 20
41.5223
 30
0.0
 11
60.5367
 21
41.7056
 31
0.0
  0
LINE
  5
2A7
  8
0
 62
1
 10
60.5367
 20
41.7056
 30
0.0
 11
60.455
 21
41.8944
 31
0.0
  0
LINE
  5
2A8
  8
0
 62
1
 10
60.455
 20
41.8944
 30
0.0
 11
60.3853
 21
42.088
 31
0.0
  0
LINE
  5
2A9
  8
0
 62
1
 10
60.3853
 20
42.088
 30
0.0
 11
60.3279
 21
42.2856
 31
0.0
  0
LINE
  5
2AA
  8
0
 62
1
 10
60.3279
 20
42.2856
 30
0.0
 11
60.283
 21
42.4863
 31
0.0
  0
LINE
  5
2AB
  8
0
 62
1
 10
60.283
 20
42.4863
 30
0.0
 11
60.2508
 21
42.6895
 31
0.0
  0
LINE
  5
2AC
  8
0
 62
1
 10
60.2508
 20
42.6895
 30
0.0
 11
60.2315
 21
42.8944
 31
0.0
  0
LINE
  5
2AD
  8
0
 62
1
 10
60.2315
 20
42.8944
 30
0.0
 11
60.225
 21
43.1
 31
0.0
  0
LINE
  5
2AE
  8
0
 62
1
 10
60.225
 20
43.1
 30
0.0
 11
60.2315
 21
43.3056
 31
0.0
  0
LINE
  5
2AF
  8
0
 62
1
 10
60.2315
 20
43.3056
 30
0.0
 11
60.2508
 21
43.5105
 31
0.0
  0
LINE
  5
2B0
  8
0
 62
1
 10
60.2508
 20
43.5105
 30
0.0
 11
60.283
 21
43.7137
 31
0.0
  0
LINE
  5
2B1
  8
0
 62
1
 10
60.283
 20
43.7137
 30
0.0
 11
60.3279
 21
43.9145
 31
0.0
  0
LINE
  5
2B2
  8
0
 62
1
 10
60.3279
 20
43.9145
 30
0.0
 11
60.3853
 21
44.112
 31
0.0
  0
LINE
  5
2B3
  8
0
 62
1
 10
60.3853
 20
44.112
 30
0.0
 11
60.455
 21
44.3056
 31
0.0
  0
LINE
  5
2B4
  8
0
 62
1
 10
60.455
 20
44.3056
 30
0.0
 11
60.5367
 21
44.4944
 31
0.0
  0
LINE
  5
2B5
  8
0
 62
1
 10
60.5367
 20
44.4944
 30
0.0
 11
60.6301
 21
44.6777
 31
0.0
  0
LINE
  5
2B6
  8
0
 62
1
 10
60.6301
 20
44.6777
 30
0.0
 11
60.7348
 21
44.8548
 31
0.0
  0
LINE
  5
2B7
  8
0
 62
1
 10
60.7348
 20
44.8548
 30
0.0
 11
60.8505
 21
45.025
 31
0.0
  0
LINE
  5
2B8
  8
0
 62
1
 10
60.8505
 20
45.025
 30
0.0
 11
60.9766
 21
45.1876
 31
0.0
  0
LINE
  5
2B9
  8
0
 62
1
 10
60.9766
 20
45.1876
 30
0.0
 11
61.1126
 21
45.3419
 31
0.0
  0
LINE
  5
2BA
  8
0
 62
1
 10
61.1126
 20
45.3419
 30
0.0
 11
61.2581
 21
45.4874
 31
0.0
  0
LINE
  5
2BB
  8
0
 62
1
 10
61.2581
 20
45.4874
 30
0.0
 11
61.4124
 21
45.6234
 31
0.0
  0
LINE
  5
2BC
  8
0
 62
1
 10
61.4124
 20
45.6234
 30
0.0
 11
61.575
 21
45.7495
 31
0.0
  0
LINE
  5
2BD
  8
0
 62
1
 10
61.575
 20
45.7495
 30
0.0
 11
61.7452
 21
45.8652
 31
0.0
  0
LINE
  5
2BE
  8
0
 62
1
 10
61.7452
 20
45.8652
 30
0.0
 11
61.9223
 21
45.9699
 31
0.0
  0
LINE
  5
2BF
  8
0
 62
1
 10
61.9223
 20
45.9699
 30
0.0
 11
62.1056
 21
46.0633
 31
0.0
  0
LINE
  5
2C0
  8
0
 62
1
 10
62.1056
 20
46.0633
 30
0.0
 11
62.2944
 21
46.145
 31
0.0
  0
LINE
  5
2C1
  8
0
 62
1
 10
62.2944
 20
46.145
 30
0.0
 11
62.488
 21
46.2147
 31
0.0
  0
LINE
  5
2C2
  8
0
 62
1
 10
62.488
 20
46.2147
 30
0.0
 11
62.6855
 21
46.2721
 31
0.0
  0
LINE
  5
2C3
  8
0
 62
1
 10
62.6855
 20
46.2721
 30
0.0
 11
62.8863
 21
46.317
 31
0.0
  0
LINE
  5
2C4
  8
0
 62
1
 10
62.8863
 20
46.317
 30
0.0
 11
63.0895
 21
46.3492
 31
0.0
  0
LINE
  5
2C5
  8
0
 62
1
 10
63.0895
 20
46.3492
 30
0.0
 11
63.2944
 21
46.3685
 31
0.0
  0
LINE
  5
2C6
  8
0
 62
1
 10
63.2944
 20
46.3685
 30
0.0
 11
63.5
 21
46.375
 31
0.0
  0
LINE
  5
2C7
  8
0
 62
1
 10
63.5
 20
46.375
 30
0.0
 11
63.7056
 21
46.3685
 31
0.0
  0
LINE
  5
2C8
  8
0
 62
1
 10
63.7056
 20
46.3685
 30
0.0
 11
63.9104
 21
46.3492
 31
0.0
  0
LINE
  5
2C9
  8
0
 62
1
 10
63.9104
 20
46.3492
 30
0.0
 11
64.1136
 21
46.317
 31
0.0
  0
LINE
  5
2CA
  8
0
 62
1
 10
64.1136
 20
46.317
 30
0.0
 11
64.3144
 21
46.2721
 31
0.0
  0
LINE
  5
2CB
  8
0
 62
1
 10
64.3144
 20
46.2721
 30
0.0
 11
64.512
 21
46.2147
 31
0.0
  0
LINE
  5
2CC
  8
0
 62
1
 10
64.512
 20
46.2147
 30
0.0
 11
64.7056
 21
46.145
 31
0.0
  0
LINE
  5
2CD
  8
0
 62
1
 10
64.7056
 20
46.145
 30
0.0
 11
64.8944
 21
46.0633
 31
0.0
  0
LINE
  5
2CE
  8
0
 62
1
 10
64.8944
 20
46.0633
 30
0.0
 11
65.0777
 21
45.9699
 31
0.0
  0
LINE
  5
2CF
  8
0
 62
1
 10
65.0777
 20
45.9699
 30
0.0
 11
65.2548
 21
45.8652
 31
0.0
  0
LINE
  5
2D0
  8
0
 62
1
 10
65.2548
 20
45.8652
 30
0.0
 11
65.425
 21
45.7495
 31
0.0
  0
LINE
  5
2D1
  8
0
 62
1
 10
65.425
 20
45.7495
 30
0.0
 11
65.5875
 21
45.6234
 31
0.0
  0
LINE
  5
2D2
  8
0
 62
1
 10
65.5875
 20
45.6234
 30
0.0
 11
65.7419
 21
45.4874
 31
0.0
  0
LINE
  5
2D3
  8
0
 62
1
 10
65.7419
 20
45.4874
 30
0.0
 11
65.8873
 21
45.3419
 31
0.0
  0
LINE
  5
2D4
  8
0
 62
1
 10
65.8873
 20
45.3419
 30
0.0
 11
66.0234
 21
45.1876
 31
0.0
  0
LINE
  5
2D5
  8
0
 62
1
 10
66.0234
 20
45.1876
 30
0.0
 11
66.1495
 21
45.025
 31
0.0
  0
LINE
  5
2D6
  8
0
 62
1
 10
66.1495
 20
45.025
 30
0.0
 11
66.2652
 21
44.8548
 31
0.0
  0
LINE
  5
2D7
  8
0
 62
1
 10
66.2652
 20
44.8548
 30
0.0
 11
66.3699
 21
44.6777
 31
0.0
  0
LINE
  5
2D8
  8
0
 62
1
 10
66.3699
 20
44.6777
 30
0.0
 11
66.4633
 21
44.4944
 31
0.0
  0
LINE
  5
2D9
  8
0
 62
1
 10
66.4633
 20
44.4944
 30
0.0
 11
66.545
 21
44.3056
 31
0.0
  0
LINE
  5
2DA
  8
0
 62
1
 10
66.545
 20
44.3056
 30
0.0
 11
66.6147
 21
44.112
 31
0.0
  0
LINE
  5
2DB
  8
0
 62
1
 10
66.6147
 20
44.112
 30
0.0
 11
66.6721
 21
43.9145
 31
0.0
  0
LINE
  5
2DC
  8
0
 62
1
 10
66.6721
 20
43.9145
 30
0.0
 11
66.717
 21
43.7137
 31
0.0
  0
LINE
  5
2DD
  8
0
 62
1
 10
66.717
 20
43.7137
 30
0.0
 11
66.7491
 21
43.5105
 31
0.0
  0
LINE
  5
2DE
  8
0
 62
1
 10
66.7491
 20
43.5105
 30
0.0
 11
66.7685
 21
43.3056
 31
0.0
  0
LINE
  5
2DF
  8
0
 62
1
 10
66.7685
 20
43.3056
 30
0.0
 11
66.775
 21
43.1
 31
0.0
  0
LINE
  5
2E0
  8
0
 62
1
 10
66.775
 20
43.1
 30
0.0
 11
66.7685
 21
42.8944
 31
0.0
  0
LINE
  5
2E1
  8
0
 62
1
 10
66.7685
 20
42.8944
 30
0.0
 11
66.7491
 21
42.6895
 31
0.0
  0
LINE
  5
2E2
  8
0
 62
1
 10
66.7491
 20
42.6895
 30
0.0
 11
66.717
 21
42.4863
 31
0.0
  0
LINE
  5
2E3
  8
0
 62
1
 10
66.717
 20
42.4863
 30
0.0
 11
66.6721
 21
42.2856
 31
0.0
  0
LINE
  5
2E4
  8
0
 62
1
 10
66.6721
 20
42.2856
 30
0.0
 11
66.6147
 21
42.088
 31
0.0
  0
LINE
  5
2E5
  8
0
 62
1
 10
66.6147
 20
42.088
 30
0.0
 11
66.545
 21
41.8944
 31
0.0
  0
LINE
  5
2E6
  8
0
 62
1
 10
66.545
 20
41.8944
 30
0.0
 11
66.4633
 21
41.7056
 31
0.0
  0
LINE
  5
2E7
  8
0
 62
1
 10
66.4633
 20
41.7056
 30
0.0
 11
66.3699
 21
41.5223
 31
0.0
  0
LINE
  5
2E8
  8
0
 62
1
 10
66.3699
 20
41.5223
 30
0.0
 11
66.2652
 21
41.3452
 31
0.0
  0
LINE
  5
2E9
  8
0
 62
1
 10
66.2652
 20
41.3452
 30
0.0
 11
66.1495
 21
41.175
 31
0.0
  0
LINE
  5
2EA
  8
0
 62
1
 10
66.1495
 20
41.175
 30
0.0
 11
66.0234
 21
41.0125
 31
0.0
  0
LINE
  5
2EB
  8
0
 62
1
 10
66.0234
 20
41.0125
 30
0.0
 11
65.8873
 21
40.8581
 31
0.0
  0
LINE
  5
2EC
  8
0
 62
1
 10
65.8873
 20
40.8581
 30
0.0
 11
65.7419
 21
40.7126
 31
0.0
  0
LINE
  5
2ED
  8
0
 62
1
 10
65.7419
 20
40.7126
 30
0.0
 11
65.5875
 21
40.5766
 31
0.0
  0
LINE
  5
2EE
  8
0
 62
1
 10
65.5875
 20
40.5766
 30
0.0
 11
65.425
 21
40.4505
 31
0.0
  0
LINE
  5
2EF
  8
0
 62
1
 10
65.425
 20
40.4505
 30
0.0
 11
65.2548
 21
40.3348
 31
0.0
  0
LINE
  5
2F0
  8
0
 62
1
 10
65.2548
 20
40.3348
 30
0.0
 11
65.0777
 21
40.2301
 31
0.0
  0
LINE
  5
2F1
  8
0
 62
1
 10
65.0777
 20
40.2301
 30
0.0
 11
64.8944
 21
40.1367
 31
0.0
  0
LINE
  5
2F2
  8
0
 62
1
 10
64.8944
 20
40.1367
 30
0.0
 11
64.7056
 21
40.055
 31
0.0
  0
LINE
  5
2F3
  8
0
 62
1
 10
64.7056
 20
40.055
 30
0.0
 11
64.512
 21
39.9853
 31
0.0
  0
LINE
  5
2F4
  8
0
 62
1
 10
64.512
 20
39.9853
 30
0.0
 11
64.3144
 21
39.9279
 31
0.0
  0
LINE
  5
2F5
  8
0
 62
1
 10
64.3144
 20
39.9279
 30
0.0
 11
64.1136
 21
39.883
 31
0.0
  0
LINE
  5
2F6
  8
0
 62
1
 10
64.1136
 20
39.883
 30
0.0
 11
63.9104
 21
39.8508
 31
0.0
  0
LINE
  5
2F7
  8
0
 62
1
 10
63.9104
 20
39.8508
 30
0.0
 11
63.7056
 21
39.8315
 31
0.0
  0
LINE
  5
2F8
  8
0
 62
1
 10
63.7056
 20
39.8315
 30
0.0
 11
63.5
 21
39.825
 31
0.0
  0
LINE
  5
2F9
  8
0
 62
1
 10
63.5
 20
39.825
 30
0.0
 11
63.2944
 21
39.8315
 31
0.0
  0
LINE
  5
2FA
  8
0
 62
1
 10
157.4
 20
106.6
 30
0.0
 11
81.2
 21
106.6
 31
0.0
  0
LINE
  5
2FB
  8
0
 62
1
 10
81.2
 20
106.6
 30
0.0
 11
81.2
 21
81.2
 31
0.0
  0
LINE
  5
2FC
  8
0
 62
1
 10
81.2
 20
81.2
 30
0.0
 11
132.0
 21
81.2
 31
0.0
  0
LINE
  5
2FD
  8
0
 62
1
 10
132.0
 20
81.2
 30
0.0
 11
132.0
 21
30.4
 31
0.0
  0
LINE
  5
2FE
  8
0
 62
1
 10
132.0
 20
30.4
 30
0.0
 11
157.4
 21
30.4
 31
0.0
  0
LINE
  5
2FF
  8
0
 62
1
 10
157.4
 20
30.4
 30
0.0
 11
157.4
 21
106.6
 31
0.0
  0
LINE
  5
300
  8
0
 62
1
 10
119.094
 20
90.6315
 30
0.0
 11
118.89
 21
90.6508
 31
0.0
  0
LINE
  5
301
  8
0
 62
1
 10
118.89
 20
90.6508
 30
0.0
 11
118.686
 21
90.683
 31
0.0
  0
LINE
  5
302
  8
0
 62
1
 10
118.686
 20
90.683
 30
0.0
 11
118.486
 21
90.7279
 31
0.0
  0
LINE
  5
303
  8
0
 62
1
 10
118.486
 20
90.7279
 30
0.0
 11
118.288
 21
90.7853
 31
0.0
  0
LINE
  5
304
  8
0
 62
1
 10
118.288
 20
90.7853
 30
0.0
 11
118.094
 21
90.855
 31
0.0
  0
LINE
  5
305
  8
0
 62
1
 10
118.094
 20
90.855
 30
0.0
 11
117.906
 21
90.9367
 31
0.0
  0
LINE
  5
306
  8
0
 62
1
 10
117.906
 20
90.9367
 30
0.0
 11
117.722
 21
91.0301
 31
0.0
  0
LINE
  5
307
  8
0
 62
1
 10
117.722
 20
91.0301
 30
0.0
 11
117.545
 21
91.1348
 31
0.0
  0
LINE
  5
308
  8
0
 62
1
 10
117.545
 20
91.1348
 30
0.0
 11
117.375
 21
91.2505
 31
0.0
  0
LINE
  5
309
  8
0
 62
1
 10
117.375
 20
91.2505
 30
0.0
 11
117.212
 21
91.3766
 31
0.0
  0
LINE
  5
30A
  8
0
 62
1
 10
117.212
 20
91.3766
 30
0.0
 11
117.058
 21
91.5126
 31
0.0
  0
LINE
  5
30B
  8
0
 62
1
 10
117.058
 20
91.5126
 30
0.0
 11
116.913
 21
91.6581
 31
0.0
  0
LINE
  5
30C
  8
0
 62
1
 10
116.913
 20
91.6581
 30
0.0
 11
116.777
 21
91.8124
 31
0.0
  0
LINE
  5
30D
  8
0
 62
1
 10
116.777
 20
91.8124
 30
0.0
 11
116.65
 21
91.975
 31
0.0
  0
LINE
  5
30E
  8
0
 62
1
 10
116.65
 20
91.975
 30
0.0
 11
116.535
 21
92.1452
 31
0.0
  0
LINE
  5
30F
  8
0
 62
1
 10
116.535
 20
92.1452
 30
0.0
 11
116.43
 21
92.3223
 31
0.0
  0
LINE
  5
310
  8
0
 62
1
 10
116.43
 20
92.3223
 30
0.0
 11
116.337
 21
92.5056
 31
0.0
  0
LINE
  5
311
  8
0
 62
1
 10
116.337
 20
92.5056
 30
0.0
 11
116.255
 21
92.6944
 31
0.0
  0
LINE
  5
312
  8
0
 62
1
 10
116.255
 20
92.6944
 30
0.0
 11
116.185
 21
92.888
 31
0.0
  0
LINE
  5
313
  8
0
 62
1
 10
116.185
 20
92.888
 30
0.0
 11
116.128
 21
93.0855
 31
0.0
  0
LINE
  5
314
  8
0
 62
1
 10
116.128
 20
93.0855
 30
0.0
 11
116.083
 21
93.2863
 31
0.0
  0
LINE
  5
315
  8
0
 62
1
 10
116.083
 20
93.2863
 30
0.0
 11
116.051
 21
93.4895
 31
0.0
  0
LINE
  5
316
  8
0
 62
1
 10
116.051
 20
93.4895
 30
0.0
 11
116.031
 21
93.6944
 31
0.0
  0
LINE
  5
317
  8
0
 62
1
 10
116.031
 20
93.6944
 30
0.0
 11
116.025
 21
93.9
 31
0.0
  0
LINE
  5
318
  8
0
 62
1
 10
116.025
 20
93.9
 30
0.0
 11
116.031
 21
94.1056
 31
0.0
  0
LINE
  5
319
  8
0
 62
1
 10
116.031
 20
94.1056
 30
0.0
 11
116.051
 21
94.3105
 31
0.0
  0
LINE
  5
31A
  8
0
 62
1
 10
116.051
 20
94.3105
 30
0.0
 11
116.083
 21
94.5137
 31
0.0
  0
LINE
  5
31B
  8
0
 62
1
 10
116.083
 20
94.5137
 30
0.0
 11
116.128
 21
94.7144
 31
0.0
  0
LINE
  5
31C
  8
0
 62
1
 10
116.128
 20
94.7144
 30
0.0
 11
116.185
 21
94.912
 31
0.0
  0
LINE
  5
31D
  8
0
 62
1
 10
116.185
 20
94.912
 30
0.0
 11
116.255
 21
95.1056
 31
0.0
  0
LINE
  5
31E
  8
0
 62
1
 10
116.255
 20
95.1056
 30
0.0
 11
116.337
 21
95.2944
 31
0.0
  0
LINE
  5
31F
  8
0
 62
1
 10
116.337
 20
95.2944
 30
0.0
 11
116.43
 21
95.4777
 31
0.0
  0
LINE
  5
320
  8
0
 62
1
 10
116.43
 20
95.4777
 30
0.0
 11
116.535
 21
95.6548
 31
0.0
  0
LINE
  5
321
  8
0
 62
1
 10
116.535
 20
95.6548
 30
0.0
 11
116.65
 21
95.825
 31
0.0
  0
LINE
  5
322
  8
0
 62
1
 10
116.65
 20
95.825
 30
0.0
 11
116.777
 21
95.9875
 31
0.0
  0
LINE
  5
323
  8
0
 62
1
 10
116.777
 20
95.9875
 30
0.0
 11
116.913
 21
96.1419
 31
0.0
  0
LINE
  5
324
  8
0
 62
1
 10
116.913
 20
96.1419
 30
0.0
 11
117.058
 21
96.2874
 31
0.0
  0
LINE
  5
325
  8
0
 62
1
 10
117.058
 20
96.2874
 30
0.0
 11
117.212
 21
96.4234
 31
0.0
  0
LINE
  5
326
  8
0
 62
1
 10
117.212
 20
96.4234
 30
0.0
 11
117.375
 21
96.5495
 31
0.0
  0
LINE
  5
327
  8
0
 62
1
 10
117.375
 20
96.5495
 30
0.0
 11
117.545
 21
96.6652
 31
0.0
  0
LINE
  5
328
  8
0
 62
1
 10
117.545
 20
96.6652
 30
0.0
 11
117.722
 21
96.7699
 31
0.0
  0
LINE
  5
329
  8
0
 62
1
 10
117.722
 20
96.7699
 30
0.0
 11
117.906
 21
96.8633
 31
0.0
  0
LINE
  5
32A
  8
0
 62
1
 10
117.906
 20
96.8633
 30
0.0
 11
118.094
 21
96.945
 31
0.0
  0
LINE
  5
32B
  8
0
 62
1
 10
118.094
 20
96.945
 30
0.0
 11
118.288
 21
97.0147
 31
0.0
  0
LINE
  5
32C
  8
0
 62
1
 10
118.288
 20
97.0147
 30
0.0
 11
118.486
 21
97.0721
 31
0.0
  0
LINE
  5
32D
  8
0
 62
1
 10
118.486
 20
97.0721
 30
0.0
 11
118.686
 21
97.117
 31
0.0
  0
LINE
  5
32E
  8
0
 62
1
 10
118.686
 20
97.117
 30
0.0
 11
118.89
 21
97.1492
 31
0.0
  0
LINE
  5
32F
  8
0
 62
1
 10
118.89
 20
97.1492
 30
0.0
 11
119.094
 21
97.1685
 31
0.0
  0
LINE
  5
330
  8
0
 62
1
 10
119.094
 20
97.1685
 30
0.0
 11
119.3
 21
97.175
 31
0.0
  0
LINE
  5
331
  8
0
 62
1
 10
119.3
 20
97.175
 30
0.0
 11
119.506
 21
97.1685
 31
0.0
  0
LINE
  5
332
  8
0
 62
1
 10
119.506
 20
97.1685
 30
0.0
 11
119.71
 21
97.1492
 31
0.0
  0
LINE
  5
333
  8
0
 62
1
 10
119.71
 20
97.1492
 30
0.0
 11
119.914
 21
97.117
 31
0.0
  0
LINE
  5
334
  8
0
 62
1
 10
119.914
 20
97.117
 30
0.0
 11
120.114
 21
97.0721
 31
0.0
  0
LINE
  5
335
  8
0
 62
1
 10
120.114
 20
97.0721
 30
0.0
 11
120.312
 21
97.0147
 31
0.0
  0
LINE
  5
336
  8
0
 62
1
 10
120.312
 20
97.0147
 30
0.0
 11
120.506
 21
96.945
 31
0.0
  0
LINE
  5
337
  8
0
 62
1
 10
120.506
 20
96.945
 30
0.0
 11
120.694
 21
96.8633
 31
0.0
  0
LINE
  5
338
  8
0
 62
1
 10
120.694
 20
96.8633
 30
0.0
 11
120.878
 21
96.7699
 31
0.0
  0
LINE
  5
339
  8
0
 62
1
 10
120.878
 20
96.7699
 30
0.0
 11
121.055
 21
96.6652
 31
0.0
  0
LINE
  5
33A
  8
0
 62
1
 10
121.055
 20
96.6652
 30
0.0
 11
121.225
 21
96.5495
 31
0.0
  0
LINE
  5
33B
  8
0
 62
1
 10
121.225
 20
96.5495
 30
0.0
 11
121.388
 21
96.4234
 31
0.0
  0
LINE
  5
33C
  8
0
 62
1
 10
121.388
 20
96.4234
 30
0.0
 11
121.542
 21
96.2874
 31
0.0
  0
LINE
  5
33D
  8
0
 62
1
 10
121.542
 20
96.2874
 30
0.0
 11
121.687
 21
96.1419
 31
0.0
  0
LINE
  5
33E
  8
0
 62
1
 10
121.687
 20
96.1419
 30
0.0
 11
121.823
 21
95.9875
 31
0.0
  0
LINE
  5
33F
  8
0
 62
1
 10
121.823
 20
95.9875
 30
0.0
 11
121.95
 21
95.825
 31
0.0
  0
LINE
  5
340
  8
0
 62
1
 10
121.95
 20
95.825
 30
0.0
 11
122.065
 21
95.6548
 31
0.0
  0
LINE
  5
341
  8
0
 62
1
 10
122.065
 20
95.6548
 30
0.0
 11
122.17
 21
95.4777
 31
0.0
  0
LINE
  5
342
  8
0
 62
1
 10
122.17
 20
95.4777
 30
0.0
 11
122.263
 21
95.2944
 31
0.0
  0
LINE
  5
343
  8
0
 62
1
 10
122.263
 20
95.2944
 30
0.0
 11
122.345
 21
95.1056
 31
0.0
  0
LINE
  5
344
  8
0
 62
1
 10
122.345
 20
95.1056
 30
0.0
 11
122.415
 21
94.912
 31
0.0
  0
LINE
  5
345
  8
0
 62
1
 10
122.415
 20
94.912
 30
0.0
 11
122.472
 21
94.7144
 31
0.0
  0
LINE
  5
346
  8
0
 62
1
 10
122.472
 20
94.7144
 30
0.0
 11
122.517
 21
94.5137
 31
0.0
  0
LINE
  5
347
  8
0
 62
1
 10
122.517
 20
94.5137
 30
0.0
 11
122.549
 21
94.3105
 31
0.0
  0
LINE
  5
348
  8
0
 62
1
 10
122.549
 20
94.3105
 30
0.0
 11
122.569
 21
94.1056
 31
0.0
  0
LINE
  5
349
  8
0
 62
1
 10
122.569
 20
94.1056
 30
0.0
 11
122.575
 21
93.9
 31
0.0
  0
LINE
  5
34A
  8
0
 62
1
 10
122.575
 20
93.9
 30
0.0
 11
122.569
 21
93.6944
 31
0.0
  0
LINE
  5
34B
  8
0
 62
1
 10
122.569
 20
93.6944
 30
0.0
 11
122.549
 21
93.4895
 31
0.0
  0
LINE
  5
34C
  8
0
 62
1
 10
122.549
 20
93.4895
 30
0.0
 11
122.517
 21
93.2863
 31
0.0
  0
LINE
  5
34D
  8
0
 62
1
 10
122.517
 20
93.2863
 30
0.0
 11
122.472
 21
93.0855
 31
0.0
  0
LINE
  5
34E
  8
0
 62
1
 10
122.472
 20
93.0855
 30
0.0
 11
122.415
 21
92.888
 31
0.0
  0
LINE
  5
34F
  8
0
 62
1
 10
122.415
 20
92.888
 30
0.0
 11
122.345
 21
92.6944
 31
0.0
  0
LINE
  5
350
  8
0
 62
1
 10
122.345
 20
92.6944
 30
0.0
 11
122.263
 21
92.5056
 31
0.0
  0
LINE
  5
351
  8
0
 62
1
 10
122.263
 20
92.5056
 30
0.0
 11
122.17
 21
92.3223
 31
0.0
  0
LINE
  5
352
  8
0
 62
1
 10
122.17
 20
92.3223
 30
0.0
 11
122.065
 21
92.1452
 31
0.0
  0
LINE
  5
353
  8
0
 62
1
 10
122.065
 20
92.1452
 30
0.0
 11
121.95
 21
91.975
 31
0.0
  0
LINE
  5
354
  8
0
 62
1
 10
121.95
 20
91.975
 30
0.0
 11
121.823
 21
91.8124
 31
0.0
  0
LINE
  5
355
  8
0
 62
1
 10
121.823
 20
91.8124
 30
0.0
 11
121.687
 21
91.6581
 31
0.0
  0
LINE
  5
356
  8
0
 62
1
 10
121.687
 20
91.6581
 30
0.0
 11
121.542
 21
91.5126
 31
0.0
  0
LINE
  5
357
  8
0
 62
1
 10
121.542
 20
91.5126
 30
0.0
 11
121.388
 21
91.3766
 31
0.0
  0
LINE
  5
358
  8
0
 62
1
 10
121.388
 20
91.3766
 30
0.0
 11
121.225
 21
91.2505
 31
0.0
  0
LINE
  5
359
  8
0
 62
1
 10
121.225
 20
91.2505
 30
0.0
 11
121.055
 21
91.1348
 31
0.0
  0
LINE
  5
35A
  8
0
 62
1
 10
121.055
 20
91.1348
 30
0.0
 11
120.878
 21
91.0301
 31
0.0
  0
LINE
  5
35B
  8
0
 62
1
 10
120.878
 20
91.0301
 30
0.0
 11
120.694
 21
90.9367
 31
0.0
  0
LINE
  5
35C
  8
0
 62
1
 10
120.694
 20
90.9367
 30
0.0
 11
120.506
 21
90.855
 31
0.0
  0
LINE
  5
35D
  8
0
 62
1
 10
120.506
 20
90.855
 30
0.0
 11
120.312
 21
90.7853
 31
0.0
  0
LINE
  5
35E
  8
0
 62
1
 10
120.312
 20
90.7853
 30
0.0
 11
120.114
 21
90.7279
 31
0.0
  0
LINE
  5
35F
  8
0
 62
1
 10
120.114
 20
90.7279
 30
0.0
 11
119.914
 21
90.683
 31
0.0
  0
LINE
  5
360
  8
0
 62
1
 10
119.914
 20
90.683
 30
0.0
 11
119.71
 21
90.6508
 31
0.0
  0
LINE
  5
361
  8
0
 62
1
 10
119.71
 20
90.6508
 30
0.0
 11
119.506
 21
90.6315
 31
0.0
  0
LINE
  5
362
  8
0
 62
1
 10
119.506
 20
90.6315
 30
0.0
 11
119.3
 21
90.625
 31
0.0
  0
LINE
  5
363
  8
0
 62
1
 10
119.3
 20
90.625
 30
0.0
 11
119.094
 21
90.6315
 31
0.0
  0
LINE
  5
364
  8
0
 62
1
 10
93.6944
 20
90.6315
 30
0.0
 11
93.4895
 21
90.6508
 31
0.0
  0
LINE
  5
365
  8
0
 62
1
 10
93.4895
 20
90.6508
 30
0.0
 11
93.2863
 21
90.683
 31
0.0
  0
LINE
  5
366
  8
0
 62
1
 10
93.2863
 20
90.683
 30
0.0
 11
93.0855
 21
90.7279
 31
0.0
  0
LINE
  5
367
  8
0
 62
1
 10
93.0855
 20
90.7279
 30
0.0
 11
92.888
 21
90.7853
 31
0.0
  0
LINE
  5
368
  8
0
 62
1
 10
92.888
 20
90.7853
 30
0.0
 11
92.6944
 21
90.855
 31
0.0
  0
LINE
  5
369
  8
0
 62
1
 10
92.6944
 20
90.855
 30
0.0
 11
92.5056
 21
90.9367
 31
0.0
  0
LINE
  5
36A
  8
0
 62
1
 10
92.5056
 20
90.9367
 30
0.0
 11
92.3223
 21
91.0301
 31
0.0
  0
LINE
  5
36B
  8
0
 62
1
 10
92.3223
 20
91.0301
 30
0.0
 11
92.1452
 21
91.1348
 31
0.0
  0
LINE
  5
36C
  8
0
 62
1
 10
92.1452
 20
91.1348
 30
0.0
 11
91.975
 21
91.2505
 31
0.0
  0
LINE
  5
36D
  8
0
 62
1
 10
91.975
 20
91.2505
 30
0.0
 11
91.8124
 21
91.3766
 31
0.0
  0
LINE
  5
36E
  8
0
 62
1
 10
91.8124
 20
91.3766
 30
0.0
 11
91.6581
 21
91.5126
 31
0.0
  0
LINE
  5
36F
  8
0
 62
1
 10
91.6581
 20
91.5126
 30
0.0
 11
91.5126
 21
91.6581
 31
0.0
  0
LINE
  5
370
  8
0
 62
1
 10
91.5126
 20
91.6581
 30
0.0
 11
91.3766
 21
91.8124
 31
0.0
  0
LINE
  5
371
  8
0
 62
1
 10
91.3766
 20
91.8124
 30
0.0
 11
91.2505
 21
91.975
 31
0.0
  0
LINE
  5
372
  8
0
 62
1
 10
91.2505
 20
91.975
 30
0.0
 11
91.1348
 21
92.1452
 31
0.0
  0
LINE
  5
373
  8
0
 62
1
 10
91.1348
 20
92.1452
 30
0.0
 11
91.0301
 21
92.3223
 31
0.0
  0
LINE
  5
374
  8
0
 62
1
 10
91.0301
 20
92.3223
 30
0.0
 11
90.9367
 21
92.5056
 31
0.0
  0
LINE
  5
375
  8
0
 62
1
 10
90.9367
 20
92.5056
 30
0.0
 11
90.855
 21
92.6944
 31
0.0
  0
LINE
  5
376
  8
0
 62
1
 10
90.855
 20
92.6944
 30
0.0
 11
90.7853
 21
92.888
 31
0.0
  0
LINE
  5
377
  8
0
 62
1
 10
90.7853
 20
92.888
 30
0.0
 11
90.7279
 21
93.0855
 31
0.0
  0
LINE
  5
378
  8
0
 62
1
 10
90.7279
 20
93.0855
 30
0.0
 11
90.683
 21
93.2863
 31
0.0
  0
LINE
  5
379
  8
0
 62
1
 10
90.683
 20
93.2863
 30
0.0
 11
90.6508
 21
93.4895
 31
0.0
  0
LINE
  5
37A
  8
0
 62
1
 10
90.6508
 20
93.4895
 30
0.0
 11
90.6315
 21
93.6944
 31
0.0
  0
LINE
  5
37B
  8
0
 62
1
 10
90.6315
 20
93.6944
 30
0.0
 11
90.625
 21
93.9
 31
0.0
  0
LINE
  5
37C
  8
0
 62
1
 10
90.625
 20
93.9
 30
0.0
 11
90.6315
 21
94.1056
 31
0.0
  0
LINE
  5
37D
  8
0
 62
1
 10
90.6315
 20
94.1056
 30
0.0
 11
90.6508
 21
94.3105
 31
0.0
  0
LINE
  5
37E
  8
0
 62
1
 10
90.6508
 20
94.3105
 30
0.0
 11
90.683
 21
94.5137
 31
0.0
  0
LINE
  5
37F
  8
0
 62
1
 10
90.683
 20
94.5137
 30
0.0
 11
90.7279
 21
94.7144
 31
0.0
  0
LINE
  5
380
  8
0
 62
1
 10
90.7279
 20
94.7144
 30
0.0
 11
90.7853
 21
94.912
 31
0.0
  0
LINE
  5
381
  8
0
 62
1
 10
90.7853
 20
94.912
 30
0.0
 11
90.855
 21
95.1056
 31
0.0
  0
LINE
  5
382
  8
0
 62
1
 10
90.855
 20
95.1056
 30
0.0
 11
90.9367
 21
95.2944
 31
0.0
  0
LINE
  5
383
  8
0
 62
1
 10
90.9367
 20
95.2944
 30
0.0
 11
91.0301
 21
95.4777
 31
0.0
  0
LINE
  5
384
  8
0
 62
1
 10
91.0301
 20
95.4777
 30
0.0
 11
91.1348
 21
95.6548
 31
0.0
  0
LINE
  5
385
  8
0
 62
1
 10
91.1348
 20
95.6548
 30
0.0
 11
91.2505
 21
95.825
 31
0.0
  0
LINE
  5
386
  8
0
 62
1
 10
91.2505
 20
95.825
 30
0.0
 11
91.3766
 21
95.9875
 31
0.0
  0
LINE
  5
387
  8
0
 62
1
 10
91.3766
 20
95.9875
 30
0.0
 11
91.5126
 21
96.1419
 31
0.0
  0
LINE
  5
388
  8
0
 62
1
 10
91.5126
 20
96.1419
 30
0.0
 11
91.6581
 21
96.2874
 31
0.0
  0
LINE
  5
389
  8
0
 62
1
 10
91.6581
 20
96.2874
 30
0.0
 11
91.8124
 21
96.4234
 31
0.0
  0
LINE
  5
38A
  8
0
 62
1
 10
91.8124
 20
96.4234
 30
0.0
 11
91.975
 21
96.5495
 31
0.0
  0
LINE
  5
38B
  8
0
 62
1
 10
91.975
 20
96.5495
 30
0.0
 11
92.1452
 21
96.6652
 31
0.0
  0
LINE
  5
38C
  8
0
 62
1
 10
92.1452
 20
96.6652
 30
0.0
 11
92.3223
 21
96.7699
 31
0.0
  0
LINE
  5
38D
  8
0
 62
1
 10
92.3223
 20
96.7699
 30
0.0
 11
92.5056
 21
96.8633
 31
0.0
  0
LINE
  5
38E
  8
0
 62
1
 10
92.5056
 20
96.8633
 30
0.0
 11
92.6944
 21
96.945
 31
0.0
  0
LINE
  5
38F
  8
0
 62
1
 10
92.6944
 20
96.945
 30
0.0
 11
92.888
 21
97.0147
 31
0.0
  0
LINE
  5
390
  8
0
 62
1
 10
92.888
 20
97.0147
 30
0.0
 11
93.0855
 21
97.0721
 31
0.0
  0
LINE
  5
391
  8
0
 62
1
 10
93.0855
 20
97.0721
 30
0.0
 11
93.2863
 21
97.117
 31
0.0
  0
LINE
  5
392
  8
0
 62
1
 10
93.2863
 20
97.117
 30
0.0
 11
93.4895
 21
97.1492
 31
0.0
  0
LINE
  5
393
  8
0
 62
1
 10
93.4895
 20
97.1492
 30
0.0
 11
93.6944
 21
97.1685
 31
0.0
  0
LINE
  5
394
  8
0
 62
1
 10
93.6944
 20
97.1685
 30
0.0
 11
93.9
 21
97.175
 31
0.0
  0
LINE
  5
395
  8
0
 62
1
 10
93.9
 20
97.175
 30
0.0
 11
94.1056
 21
97.1685
 31
0.0
  0
LINE
  5
396
  8
0
 62
1
 10
94.1056
 20
97.1685
 30
0.0
 11
94.3105
 21
97.1492
 31
0.0
  0
LINE
  5
397
  8
0
 62
1
 10
94.3105
 20
97.1492
 30
0.0
 11
94.5137
 21
97.117
 31
0.0
  0
LINE
  5
398
  8
0
 62
1
 10
94.5137
 20
97.117
 30
0.0
 11
94.7145
 21
97.0721
 31
0.0
  0
LINE
  5
399
  8
0
 62
1
 10
94.7145
 20
97.0721
 30
0.0
 11
94.912
 21
97.0147
 31
0.0
  0
LINE
  5
39A
  8
0
 62
1
 10
94.912
 20
97.0147
 30
0.0
 11
95.1056
 21
96.945
 31
0.0
  0
LINE
  5
39B
  8
0
 62
1
 10
95.1056
 20
96.945
 30
0.0
 11
95.2944
 21
96.8633
 31
0.0
  0
LINE
  5
39C
  8
0
 62
1
 10
95.2944
 20
96.8633
 30
0.0
 11
95.4777
 21
96.7699
 31
0.0
  0
LINE
  5
39D
  8
0
 62
1
 10
95.4777
 20
96.7699
 30
0.0
 11
95.6548
 21
96.6652
 31
0.0
  0
LINE
  5
39E
  8
0
 62
1
 10
95.6548
 20
96.6652
 30
0.0
 11
95.825
 21
96.5495
 31
0.0
  0
LINE
  5
39F
  8
0
 62
1
 10
95.825
 20
96.5495
 30
0.0
 11
95.9876
 21
96.4234
 31
0.0
  0
LINE
  5
3A0
  8
0
 62
1
 10
95.9876
 20
96.4234
 30
0.0
 11
96.1419
 21
96.2874
 31
0.0
  0
LINE
  5
3A1
  8
0
 62
1
 10
96.1419
 20
96.2874
 30
0.0
 11
96.2874
 21
96.1419
 31
0.0
  0
LINE
  5
3A2
  8
0
 62
1
 10
96.2874
 20
96.1419
 30
0.0
 11
96.4234
 21
95.9875
 31
0.0
  0
LINE
  5
3A3
  8
0
 62
1
 10
96.4234
 20
95.9875
 30
0.0
 11
96.5495
 21
95.825
 31
0.0
  0
LINE
  5
3A4
  8
0
 62
1
 10
96.5495
 20
95.825
 30
0.0
 11
96.6652
 21
95.6548
 31
0.0
  0
LINE
  5
3A5
  8
0
 62
1
 10
96.6652
 20
95.6548
 30
0.0
 11
96.7699
 21
95.4777
 31
0.0
  0
LINE
  5
3A6
  8
0
 62
1
 10
96.7699
 20
95.4777
 30
0.0
 11
96.8633
 21
95.2944
 31
0.0
  0
LINE
  5
3A7
  8
0
 62
1
 10
96.8633
 20
95.2944
 30
0.0
 11
96.945
 21
95.1056
 31
0.0
  0
LINE
  5
3A8
  8
0
 62
1
 10
96.945
 20
95.1056
 30
0.0
 11
97.0147
 21
94.912
 31
0.0
  0
LINE
  5
3A9
  8
0
 62
1
 10
97.0147
 20
94.912
 30
0.0
 11
97.0721
 21
94.7144
 31
0.0
  0
LINE
  5
3AA
  8
0
 62
1
 10
97.0721
 20
94.7144
 30
0.0
 11
97.117
 21
94.5137
 31
0.0
  0
LINE
  5
3AB
  8
0
 62
1
 10
97.117
 20
94.5137
 30
0.0
 11
97.1492
 21
94.3105
 31
0.0
  0
LINE
  5
3AC
  8
0
 62
1
 10
97.1492
 20
94.3105
 30
0.0
 11
97.1685
 21
94.1056
 31
0.0
  0
LINE
  5
3AD
  8
0
 62
1
 10
97.1685
 20
94.1056
 30
0.0
 11
97.175
 21
93.9
 31
0.0
  0
LINE
  5
3AE
  8
0
 62
1
 10
97.175
 20
93.9
 30
0.0
 11
97.1685
 21
93.6944
 31
0.0
  0
LINE
  5
3AF
  8
0
 62
1
 10
97.1685
 20
93.6944
 30
0.0
 11
97.1492
 21
93.4895
 31
0.0
  0
LINE
  5
3B0
  8
0
 62
1
 10
97.1492
 20
93.4895
 30
0.0
 11
97.117
 21
93.2863
 31
0.0
  0
LINE
  5
3B1
  8
0
 62
1
 10
97.117
 20
93.2863
 30
0.0
 11
97.0721
 21
93.0855
 31
0.0
  0
LINE
  5
3B2
  8
0
 62
1
 10
97.0721
 20
93.0855
 30
0.0
 11
97.0147
 21
92.888
 31
0.0
  0
LINE
  5
3B3
  8
0
 62
1
 10
97.0147
 20
92.888
 30
0.0
 11
96.945
 21
92.6944
 31
0.0
  0
LINE
  5
3B4
  8
0
 62
1
 10
96.945
 20
92.6944
 30
0.0
 11
96.8633
 21
92.5056
 31
0.0
  0
LINE
  5
3B5
  8
0
 62
1
 10
96.8633
 20
92.5056
 30
0.0
 11
96.7699
 21
92.3223
 31
0.0
  0
LINE
  5
3B6
  8
0
 62
1
 10
96.7699
 20
92.3223
 30
0.0
 11
96.6652
 21
92.1452
 31
0.0
  0
LINE
  5
3B7
  8
0
 62
1
 10
96.6652
 20
92.1452
 30
0.0
 11
96.5495
 21
91.975
 31
0.0
  0
LINE
  5
3B8
  8
0
 62
1
 10
96.5495
 20
91.975
 30
0.0
 11
96.4234
 21
91.8124
 31
0.0
  0
LINE
  5
3B9
  8
0
 62
1
 10
96.4234
 20
91.8124
 30
0.0
 11
96.2874
 21
91.6581
 31
0.0
  0
LINE
  5
3BA
  8
0
 62
1
 10
96.2874
 20
91.6581
 30
0.0
 11
96.1419
 21
91.5126
 31
0.0
  0
LINE
  5
3BB
  8
0
 62
1
 10
96.1419
 20
91.5126
 30
0.0
 11
95.9876
 21
91.3766
 31
0.0
  0
LINE
  5
3BC
  8
0
 62
1
 10
95.9876
 20
91.3766
 30
0.0
 11
95.825
 21
91.2505
 31
0.0
  0
LINE
  5
3BD
  8
0
 62
1
 10
95.825
 20
91.2505
 30
0.0
 11
95.6548
 21
91.1348
 31
0.0
  0
LINE
  5
3BE
  8
0
 62
1
 10
95.6548
 20
91.1348
 30
0.0
 11
95.4777
 21
91.0301
 31
0.0
  0
LINE
  5
3BF
  8
0
 62
1
 10
95.4777
 20
91.0301
 30
0.0
 11
95.2944
 21
90.9367
 31
0.0
  0
LINE
  5
3C0
  8
0
 62
1
 10
95.2944
 20
90.9367
 30
0.0
 11
95.1056
 21
90.855
 31
0.0
  0
LINE
  5
3C1
  8
0
 62
1
 10
95.1056
 20
90.855
 30
0.0
 11
94.912
 21
90.7853
 31
0.0
  0
LINE
  5
3C2
  8
0
 62
1
 10
94.912
 20
90.7853
 30
0.0
 11
94.7145
 21
90.7279
 31
0.0
  0
LINE
  5
3C3
  8
0
 62
1
 10
94.7145
 20
90.7279
 30
0.0
 11
94.5137
 21
90.683
 31
0.0
  0
LINE
  5
3C4
  8
0
 62
1
 10
94.5137
 20
90.683
 30
0.0
 11
94.3105
 21
90.6508
 31
0.0
  0
LINE
  5
3C5
  8
0
 62
1
 10
94.3105
 20
90.6508
 30
0.0
 11
94.1056
 21
90.6315
 31
0.0
  0
LINE
  5
3C6
  8
0
 62
1
 10
94.1056
 20
90.6315
 30
0.0
 11
93.9
 21
90.625
 31
0.0
  0
LINE
  5
3C7
  8
0
 62
1
 10
93.9
 20
90.625
 30
0.0
 11
93.6944
 21
90.6315
 31
0.0
  0
LINE
  5
3C8
  8
0
 62
1
 10
144.494
 20
90.6315
 30
0.0
 11
144.29
 21
90.6508
 31
0.0
  0
LINE
  5
3C9
  8
0
 62
1
 10
144.29
 20
90.6508
 30
0.0
 11
144.086
 21
90.683
 31
0.0
  0
LINE
  5
3CA
  8
0
 62
1
 10
144.086
 20
90.683
 30
0.0
 11
143.886
 21
90.7279
 31
0.0
  0
LINE
  5
3CB
  8
0
 62
1
 10
143.886
 20
90.7279
 30
0.0
 11
143.688
 21
90.7853
 31
0.0
  0
LINE
  5
3CC
  8
0
 62
1
 10
143.688
 20
90.7853
 30
0.0
 11
143.494
 21
90.855
 31
0.0
  0
LINE
  5
3CD
  8
0
 62
1
 10
143.494
 20
90.855
 30
0.0
 11
143.306
 21
90.9367
 31
0.0
  0
LINE
  5
3CE
  8
0
 62
1
 10
143.306
 20
90.9367
 30
0.0
 11
143.122
 21
91.0301
 31
0.0
  0
LINE
  5
3CF
  8
0
 62
1
 10
143.122
 20
91.0301
 30
0.0
 11
142.945
 21
91.1348
 31
0.0
  0
LINE
  5
3D0
  8
0
 62
1
 10
142.945
 20
91.1348
 30
0.0
 11
142.775
 21
91.2505
 31
0.0
  0
LINE
  5
3D1
  8
0
 62
1
 10
142.775
 20
91.2505
 30
0.0
 11
142.612
 21
91.3766
 31
0.0
  0
LINE
  5
3D2
  8
0
 62
1
 10
142.612
 20
91.3766
 30
0.0
 11
142.458
 21
91.5126
 31
0.0
  0
LINE
  5
3D3
  8
0
 62
1
 10
142.458
 20
91.5126
 30
0.0
 11
142.313
 21
91.6581
 31
0.0
  0
LINE
  5
3D4
  8
0
 62
1
 10
142.313
 20
91.6581
 30
0.0
 11
142.177
 21
91.8124
 31
0.0
  0
LINE
  5
3D5
  8
0
 62
1
 10
142.177
 20
91.8124
 30
0.0
 11
142.05
 21
91.975
 31
0.0
  0
LINE
  5
3D6
  8
0
 62
1
 10
142.05
 20
91.975
 30
0.0
 11
141.935
 21
92.1452
 31
0.0
  0
LINE
  5
3D7
  8
0
 62
1
 10
141.935
 20
92.1452
 30
0.0
 11
141.83
 21
92.3223
 31
0.0
  0
LINE
  5
3D8
  8
0
 62
1
 10
141.83
 20
92.3223
 30
0.0
 11
141.737
 21
92.5056
 31
0.0
  0
LINE
  5
3D9
  8
0
 62
1
 10
141.737
 20
92.5056
 30
0.0
 11
141.655
 21
92.6944
 31
0.0
  0
LINE
  5
3DA
  8
0
 62
1
 10
141.655
 20
92.6944
 30
0.0
 11
141.585
 21
92.888
 31
0.0
  0
LINE
  5
3DB
  8
0
 62
1
 10
141.585
 20
92.888
 30
0.0
 11
141.528
 21
93.0855
 31
0.0
  0
LINE
  5
3DC
  8
0
 62
1
 10
141.528
 20
93.0855
 30
0.0
 11
141.483
 21
93.2863
 31
0.0
  0
LINE
  5
3DD
  8
0
 62
1
 10
141.483
 20
93.2863
 30
0.0
 11
141.451
 21
93.4895
 31
0.0
  0
LINE
  5
3DE
  8
0
 62
1
 10
141.451
 20
93.4895
 30
0.0
 11
141.431
 21
93.6944
 31
0.0
  0
LINE
  5
3DF
  8
0
 62
1
 10
141.431
 20
93.6944
 30
0.0
 11
141.425
 21
93.9
 31
0.0
  0
LINE
  5
3E0
  8
0
 62
1
 10
141.425
 20
93.9
 30
0.0
 11
141.431
 21
94.1056
 31
0.0
  0
LINE
  5
3E1
  8
0
 62
1
 10
141.431
 20
94.1056
 30
0.0
 11
141.451
 21
94.3104
 31
0.0
  0
LINE
  5
3E2
  8
0
 62
1
 10
141.451
 20
94.3104
 30
0.0
 11
141.483
 21
94.5137
 31
0.0
  0
LINE
  5
3E3
  8
0
 62
1
 10
141.483
 20
94.5137
 30
0.0
 11
141.528
 21
94.7144
 31
0.0
  0
LINE
  5
3E4
  8
0
 62
1
 10
141.528
 20
94.7144
 30
0.0
 11
141.585
 21
94.912
 31
0.0
  0
LINE
  5
3E5
  8
0
 62
1
 10
141.585
 20
94.912
 30
0.0
 11
141.655
 21
95.1056
 31
0.0
  0
LINE
  5
3E6
  8
0
 62
1
 10
141.655
 20
95.1056
 30
0.0
 11
141.737
 21
95.2944
 31
0.0
  0
LINE
  5
3E7
  8
0
 62
1
 10
141.737
 20
95.2944
 30
0.0
 11
141.83
 21
95.4777
 31
0.0
  0
LINE
  5
3E8
  8
0
 62
1
 10
141.83
 20
95.4777
 30
0.0
 11
141.935
 21
95.6548
 31
0.0
  0
LINE
  5
3E9
  8
0
 62
1
 10
141.935
 20
95.6548
 30
0.0
 11
142.05
 21
95.825
 31
0.0
  0
LINE
  5
3EA
  8
0
 62
1
 10
142.05
 20
95.825
 30
0.0
 11
142.177
 21
95.9875
 31
0.0
  0
LINE
  5
3EB
  8
0
 62
1
 10
142.177
 20
95.9875
 30
0.0
 11
142.313
 21
96.1419
 31
0.0
  0
LINE
  5
3EC
  8
0
 62
1
 10
142.313
 20
96.1419
 30
0.0
 11
142.458
 21
96.2874
 31
0.0
  0
LINE
  5
3ED
  8
0
 62
1
 10
142.458
 20
96.2874
 30
0.0
 11
142.612
 21
96.4234
 31
0.0
  0
LINE
  5
3EE
  8
0
 62
1
 10
142.612
 20
96.4234
 30
0.0
 11
142.775
 21
96.5495
 31
0.0
  0
LINE
  5
3EF
  8
0
 62
1
 10
142.775
 20
96.5495
 30
0.0
 11
142.945
 21
96.6651
 31
0.0
  0
LINE
  5
3F0
  8
0
 62
1
 10
142.945
 20
96.6651
 30
0.0
 11
143.122
 21
96.7699
 31
0.0
  0
LINE
  5
3F1
  8
0
 62
1
 10
143.122
 20
96.7699
 30
0.0
 11
143.306
 21
96.8633
 31
0.0
  0
LINE
  5
3F2
  8
0
 62
1
 10
143.306
 20
96.8633
 30
0.0
 11
143.494
 21
96.945
 31
0.0
  0
LINE
  5
3F3
  8
0
 62
1
 10
143.494
 20
96.945
 30
0.0
 11
143.688
 21
97.0147
 31
0.0
  0
LINE
  5
3F4
  8
0
 62
1
 10
143.688
 20
97.0147
 30
0.0
 11
143.886
 21
97.0721
 31
0.0
  0
LINE
  5
3F5
  8
0
 62
1
 10
143.886
 20
97.0721
 30
0.0
 11
144.086
 21
97.117
 31
0.0
  0
LINE
  5
3F6
  8
0
 62
1
 10
144.086
 20
97.117
 30
0.0
 11
144.29
 21
97.1492
 31
0.0
  0
LINE
  5
3F7
  8
0
 62
1
 10
144.29
 20
97.1492
 30
0.0
 11
144.494
 21
97.1685
 31
0.0
  0
LINE
  5
3F8
  8
0
 62
1
 10
144.494
 20
97.1685
 30
0.0
 11
144.7
 21
97.175
 31
0.0
  0
LINE
  5
3F9
  8
0
 62
1
 10
144.7
 20
97.175
 30
0.0
 11
144.906
 21
97.1685
 31
0.0
  0
LINE
  5
3FA
  8
0
 62
1
 10
144.906
 20
97.1685
 30
0.0
 11
145.11
 21
97.1492
 31
0.0
  0
LINE
  5
3FB
  8
0
 62
1
 10
145.11
 20
97.1492
 30
0.0
 11
145.314
 21
97.117
 31
0.0
  0
LINE
  5
3FC
  8
0
 62
1
 10
145.314
 20
97.117
 30
0.0
 11
145.514
 21
97.0721
 31
0.0
  0
LINE
  5
3FD
  8
0
 62
1
 10
145.514
 20
97.0721
 30
0.0
 11
145.712
 21
97.0147
 31
0.0
  0
LINE
  5
3FE
  8
0
 62
1
 10
145.712
 20
97.0147
 30
0.0
 11
145.906
 21
96.945
 31
0.0
  0
LINE
  5
3FF
  8
0
 62
1
 10
145.906
 20
96.945
 30
0.0
 11
146.094
 21
96.8633
 31
0.0
  0
LINE
  5
400
  8
0
 62
1
 10
146.094
 20
96.8633
 30
0.0
 11
146.278
 21
96.7699
 31
0.0
  0
LINE
  5
401
  8
0
 62
1
 10
146.278
 20
96.7699
 30
0.0
 11
146.455
 21
96.6651
 31
0.0
  0
LINE
  5
402
  8
0
 62
1
 10
146.455
 20
96.6651
 30
0.0
 11
146.625
 21
96.5495
 31
0.0
  0
LINE
  5
403
  8
0
 62
1
 10
146.625
 20
96.5495
 30
0.0
 11
146.788
 21
96.4234
 31
0.0
  0
LINE
  5
404
  8
0
 62
1
 10
146.788
 20
96.4234
 30
0.0
 11
146.942
 21
96.2874
 31
0.0
  0
LINE
  5
405
  8
0
 62
1
 10
146.942
 20
96.2874
 30
0.0
 11
147.087
 21
96.1419
 31
0.0
  0
LINE
  5
406
  8
0
 62
1
 10
147.087
 20
96.1419
 30
0.0
 11
147.223
 21
95.9875
 31
0.0
  0
LINE
  5
407
  8
0
 62
1
 10
147.223
 20
95.9875
 30
0.0
 11
147.35
 21
95.825
 31
0.0
  0
LINE
  5
408
  8
0
 62
1
 10
147.35
 20
95.825
 30
0.0
 11
147.465
 21
95.6548
 31
0.0
  0
LINE
  5
409
  8
0
 62
1
 10
147.465
 20
95.6548
 30
0.0
 11
147.57
 21
95.4777
 31
0.0
  0
LINE
  5
40A
  8
0
 62
1
 10
147.57
 20
95.4777
 30
0.0
 11
147.663
 21
95.2944
 31
0.0
  0
LINE
  5
40B
  8
0
 62
1
 10
147.663
 20
95.2944
 30
0.0
 11
147.745
 21
95.1056
 31
0.0
  0
LINE
  5
40C
  8
0
 62
1
 10
147.745
 20
95.1056
 30
0.0
 11
147.815
 21
94.912
 31
0.0
  0
LINE
  5
40D
  8
0
 62
1
 10
147.815
 20
94.912
 30
0.0
 11
147.872
 21
94.7144
 31
0.0
  0
LINE
  5
40E
  8
0
 62
1
 10
147.872
 20
94.7144
 30
0.0
 11
147.917
 21
94.5137
 31
0.0
  0
LINE
  5
40F
  8
0
 62
1
 10
147.917
 20
94.5137
 30
0.0
 11
147.949
 21
94.3104
 31
0.0
  0
LINE
  5
410
  8
0
 62
1
 10
147.949
 20
94.3104
 30
0.0
 11
147.969
 21
94.1056
 31
0.0
  0
LINE
  5
411
  8
0
 62
1
 10
147.969
 20
94.1056
 30
0.0
 11
147.975
 21
93.9
 31
0.0
  0
LINE
  5
412
  8
0
 62
1
 10
147.975
 20
93.9
 30
0.0
 11
147.969
 21
93.6944
 31
0.0
  0
LINE
  5
413
  8
0
 62
1
 10
147.969
 20
93.6944
 30
0.0
 11
147.949
 21
93.4895
 31
0.0
  0
LINE
  5
414
  8
0
 62
1
 10
147.949
 20
93.4895
 30
0.0
 11
147.917
 21
93.2863
 31
0.0
  0
LINE
  5
415
  8
0
 62
1
 10
147.917
 20
93.2863
 30
0.0
 11
147.872
 21
93.0855
 31
0.0
  0
LINE
  5
416
  8
0
 62
1
 10
147.872
 20
93.0855
 30
0.0
 11
147.815
 21
92.888
 31
0.0
  0
LINE
  5
417
  8
0
 62
1
 10
147.815
 20
92.888
 30
0.0
 11
147.745
 21
92.6944
 31
0.0
  0
LINE
  5
418
  8
0
 62
1
 10
147.745
 20
92.6944
 30
0.0
 11
147.663
 21
92.5056
 31
0.0
  0
LINE
  5
419
  8
0
 62
1
 10
147.663
 20
92.5056
 30
0.0
 11
147.57
 21
92.3223
 31
0.0
  0
LINE
  5
41A
  8
0
 62
1
 10
147.57
 20
92.3223
 30
0.0
 11
147.465
 21
92.1452
 31
0.0
  0
LINE
  5
41B
  8
0
 62
1
 10
147.465
 20
92.1452
 30
0.0
 11
147.35
 21
91.975
 31
0.0
  0
LINE
  5
41C
  8
0
 62
1
 10
147.35
 20
91.975
 30
0.0
 11
147.223
 21
91.8124
 31
0.0
  0
LINE
  5
41D
  8
0
 62
1
 10
147.223
 20
91.8124
 30
0.0
 11
147.087
 21
91.6581
 31
0.0
  0
LINE
  5
41E
  8
0
 62
1
 10
147.087
 20
91.6581
 30
0.0
 11
146.942
 21
91.5126
 31
0.0
  0
LINE
  5
41F
  8
0
 62
1
 10
146.942
 20
91.5126
 30
0.0
 11
146.788
 21
91.3766
 31
0.0
  0
LINE
  5
420
  8
0
 62
1
 10
146.788
 20
91.3766
 30
0.0
 11
146.625
 21
91.2505
 31
0.0
  0
LINE
  5
421
  8
0
 62
1
 10
146.625
 20
91.2505
 30
0.0
 11
146.455
 21
91.1348
 31
0.0
  0
LINE
  5
422
  8
0
 62
1
 10
146.455
 20
91.1348
 30
0.0
 11
146.278
 21
91.0301
 31
0.0
  0
LINE
  5
423
  8
0
 62
1
 10
146.278
 20
91.0301
 30
0.0
 11
146.094
 21
90.9367
 31
0.0
  0
LINE
  5
424
  8
0
 62
1
 10
146.094
 20
90.9367
 30
0.0
 11
145.906
 21
90.855
 31
0.0
  0
LINE
  5
425
  8
0
 62
1
 10
145.906
 20
90.855
 30
0.0
 11
145.712
 21
90.7853
 31
0.0
  0
LINE
  5
426
  8
0
 62
1
 10
145.712
 20
90.7853
 30
0.0
 11
145.514
 21
90.7279
 31
0.0
  0
LINE
  5
427
  8
0
 62
1
 10
145.514
 20
90.7279
 30
0.0
 11
145.314
 21
90.683
 31
0.0
  0
LINE
  5
428
  8
0
 62
1
 10
145.314
 20
90.683
 30
0.0
 11
145.11
 21
90.6508
 31
0.0
  0
LINE
  5
429
  8
0
 62
1
 10
145.11
 20
90.6508
 30
0.0
 11
144.906
 21
90.6315
 31
0.0
  0
LINE
  5
42A
  8
0
 62
1
 10
144.906
 20
90.6315
 30
0.0
 11
144.7
 21
90.625
 31
0.0
  0
LINE
  5
42B
  8
0
 62
1
 10
144.7
 20
90.625
 30
0.0
 11
144.494
 21
90.6315
 31
0.0
  0
LINE
  5
42C
  8
0
 62
1
 10
144.494
 20
65.2315
 30
0.0
 11
144.29
 21
65.2508
 31
0.0
  0
LINE
  5
42D
  8
0
 62
1
 10
144.29
 20
65.2508
 30
0.0
 11
144.086
 21
65.283
 31
0.0
  0
LINE
  5
42E
  8
0
 62
1
 10
144.086
 20
65.283
 30
0.0
 11
143.886
 21
65.3279
 31
0.0
  0
LINE
  5
42F
  8
0
 62
1
 10
143.886
 20
65.3279
 30
0.0
 11
143.688
 21
65.3853
 31
0.0
  0
LINE
  5
430
  8
0
 62
1
 10
143.688
 20
65.3853
 30
0.0
 11
143.494
 21
65.455
 31
0.0
  0
LINE
  5
431
  8
0
 62
1
 10
143.494
 20
65.455
 30
0.0
 11
143.306
 21
65.5367
 31
0.0
  0
LINE
  5
432
  8
0
 62
1
 10
143.306
 20
65.5367
 30
0.0
 11
143.122
 21
65.6301
 31
0.0
  0
LINE
  5
433
  8
0
 62
1
 10
143.122
 20
65.6301
 30
0.0
 11
142.945
 21
65.7348
 31
0.0
  0
LINE
  5
434
  8
0
 62
1
 10
142.945
 20
65.7348
 30
0.0
 11
142.775
 21
65.8505
 31
0.0
  0
LINE
  5
435
  8
0
 62
1
 10
142.775
 20
65.8505
 30
0.0
 11
142.612
 21
65.9766
 31
0.0
  0
LINE
  5
436
  8
0
 62
1
 10
142.612
 20
65.9766
 30
0.0
 11
142.458
 21
66.1126
 31
0.0
  0
LINE
  5
437
  8
0
 62
1
 10
142.458
 20
66.1126
 30
0.0
 11
142.313
 21
66.2581
 31
0.0
  0
LINE
  5
438
  8
0
 62
1
 10
142.313
 20
66.2581
 30
0.0
 11
142.177
 21
66.4124
 31
0.0
  0
LINE
  5
439
  8
0
 62
1
 10
142.177
 20
66.4124
 30
0.0
 11
142.05
 21
66.575
 31
0.0
  0
LINE
  5
43A
  8
0
 62
1
 10
142.05
 20
66.575
 30
0.0
 11
141.935
 21
66.7452
 31
0.0
  0
LINE
  5
43B
  8
0
 62
1
 10
141.935
 20
66.7452
 30
0.0
 11
141.83
 21
66.9223
 31
0.0
  0
LINE
  5
43C
  8
0
 62
1
 10
141.83
 20
66.9223
 30
0.0
 11
141.737
 21
67.1056
 31
0.0
  0
LINE
  5
43D
  8
0
 62
1
 10
141.737
 20
67.1056
 30
0.0
 11
141.655
 21
67.2944
 31
0.0
  0
LINE
  5
43E
  8
0
 62
1
 10
141.655
 20
67.2944
 30
0.0
 11
141.585
 21
67.488
 31
0.0
  0
LINE
  5
43F
  8
0
 62
1
 10
141.585
 20
67.488
 30
0.0
 11
141.528
 21
67.6855
 31
0.0
  0
LINE
  5
440
  8
0
 62
1
 10
141.528
 20
67.6855
 30
0.0
 11
141.483
 21
67.8863
 31
0.0
  0
LINE
  5
441
  8
0
 62
1
 10
141.483
 20
67.8863
 30
0.0
 11
141.451
 21
68.0895
 31
0.0
  0
LINE
  5
442
  8
0
 62
1
 10
141.451
 20
68.0895
 30
0.0
 11
141.431
 21
68.2944
 31
0.0
  0
LINE
  5
443
  8
0
 62
1
 10
141.431
 20
68.2944
 30
0.0
 11
141.425
 21
68.5
 31
0.0
  0
LINE
  5
444
  8
0
 62
1
 10
141.425
 20
68.5
 30
0.0
 11
141.431
 21
68.7056
 31
0.0
  0
LINE
  5
445
  8
0
 62
1
 10
141.431
 20
68.7056
 30
0.0
 11
141.451
 21
68.9105
 31
0.0
  0
LINE
  5
446
  8
0
 62
1
 10
141.451
 20
68.9105
 30
0.0
 11
141.483
 21
69.1137
 31
0.0
  0
LINE
  5
447
  8
0
 62
1
 10
141.483
 20
69.1137
 30
0.0
 11
141.528
 21
69.3145
 31
0.0
  0
LINE
  5
448
  8
0
 62
1
 10
141.528
 20
69.3145
 30
0.0
 11
141.585
 21
69.512
 31
0.0
  0
LINE
  5
449
  8
0
 62
1
 10
141.585
 20
69.512
 30
0.0
 11
141.655
 21
69.7056
 31
0.0
  0
LINE
  5
44A
  8
0
 62
1
 10
141.655
 20
69.7056
 30
0.0
 11
141.737
 21
69.8944
 31
0.0
  0
LINE
  5
44B
  8
0
 62
1
 10
141.737
 20
69.8944
 30
0.0
 11
141.83
 21
70.0777
 31
0.0
  0
LINE
  5
44C
  8
0
 62
1
 10
141.83
 20
70.0777
 30
0.0
 11
141.935
 21
70.2548
 31
0.0
  0
LINE
  5
44D
  8
0
 62
1
 10
141.935
 20
70.2548
 30
0.0
 11
142.05
 21
70.425
 31
0.0
  0
LINE
  5
44E
  8
0
 62
1
 10
142.05
 20
70.425
 30
0.0
 11
142.177
 21
70.5876
 31
0.0
  0
LINE
  5
44F
  8
0
 62
1
 10
142.177
 20
70.5876
 30
0.0
 11
142.313
 21
70.7419
 31
0.0
  0
LINE
  5
450
  8
0
 62
1
 10
142.313
 20
70.7419
 30
0.0
 11
142.458
 21
70.8874
 31
0.0
  0
LINE
  5
451
  8
0
 62
1
 10
142.458
 20
70.8874
 30
0.0
 11
142.612
 21
71.0234
 31
0.0
  0
LINE
  5
452
  8
0
 62
1
 10
142.612
 20
71.0234
 30
0.0
 11
142.775
 21
71.1495
 31
0.0
  0
LINE
  5
453
  8
0
 62
1
 10
142.775
 20
71.1495
 30
0.0
 11
142.945
 21
71.2652
 31
0.0
  0
LINE
  5
454
  8
0
 62
1
 10
142.945
 20
71.2652
 30
0.0
 11
143.122
 21
71.3699
 31
0.0
  0
LINE
  5
455
  8
0
 62
1
 10
143.122
 20
71.3699
 30
0.0
 11
143.306
 21
71.4633
 31
0.0
  0
LINE
  5
456
  8
0
 62
1
 10
143.306
 20
71.4633
 30
0.0
 11
143.494
 21
71.545
 31
0.0
  0
LINE
  5
457
  8
0
 62
1
 10
143.494
 20
71.545
 30
0.0
 11
143.688
 21
71.6147
 31
0.0
  0
LINE
  5
458
  8
0
 62
1
 10
143.688
 20
71.6147
 30
0.0
 11
143.886
 21
71.6721
 31
0.0
  0
LINE
  5
459
  8
0
 62
1
 10
143.886
 20
71.6721
 30
0.0
 11
144.086
 21
71.717
 31
0.0
  0
LINE
  5
45A
  8
0
 62
1
 10
144.086
 20
71.717
 30
0.0
 11
144.29
 21
71.7492
 31
0.0
  0
LINE
  5
45B
  8
0
 62
1
 10
144.29
 20
71.7492
 30
0.0
 11
144.494
 21
71.7685
 31
0.0
  0
LINE
  5
45C
  8
0
 62
1
 10
144.494
 20
71.7685
 30
0.0
 11
144.7
 21
71.775
 31
0.0
  0
LINE
  5
45D
  8
0
 62
1
 10
144.7
 20
71.775
 30
0.0
 11
144.906
 21
71.7685
 31
0.0
  0
LINE
  5
45E
  8
0
 62
1
 10
144.906
 20
71.7685
 30
0.0
 11
145.11
 21
71.7492
 31
0.0
  0
LINE
  5
45F
  8
0
 62
1
 10
145.11
 20
71.7492
 30
0.0
 11
145.314
 21
71.717
 31
0.0
  0
LINE
  5
460
  8
0
 62
1
 10
145.314
 20
71.717
 30
0.0
 11
145.514
 21
71.6721
 31
0.0
  0
LINE
  5
461
  8
0
 62
1
 10
145.514
 20
71.6721
 30
0.0
 11
145.712
 21
71.6147
 31
0.0
  0
LINE
  5
462
  8
0
 62
1
 10
145.712
 20
71.6147
 30
0.0
 11
145.906
 21
71.545
 31
0.0
  0
LINE
  5
463
  8
0
 62
1
 10
145.906
 20
71.545
 30
0.0
 11
146.094
 21
71.4633
 31
0.0
  0
LINE
  5
464
  8
0
 62
1
 10
146.094
 20
71.4633
 30
0.0
 11
146.278
 21
71.3699
 31
0.0
  0
LINE
  5
465
  8
0
 62
1
 10
146.278
 20
71.3699
 30
0.0
 11
146.455
 21
71.2652
 31
0.0
  0
LINE
  5
466
  8
0
 62
1
 10
146.455
 20
71.2652
 30
0.0
 11
146.625
 21
71.1495
 31
0.0
  0
LINE
  5
467
  8
0
 62
1
 10
146.625
 20
71.1495
 30
0.0
 11
146.788
 21
71.0234
 31
0.0
  0
LINE
  5
468
  8
0
 62
1
 10
146.788
 20
71.0234
 30
0.0
 11
146.942
 21
70.8874
 31
0.0
  0
LINE
  5
469
  8
0
 62
1
 10
146.942
 20
70.8874
 30
0.0
 11
147.087
 21
70.7419
 31
0.0
  0
LINE
  5
46A
  8
0
 62
1
 10
147.087
 20
70.7419
 30
0.0
 11
147.223
 21
70.5876
 31
0.0
  0
LINE
  5
46B
  8
0
 62
1
 10
147.223
 20
70.5876
 30
0.0
 11
147.35
 21
70.425
 31
0.0
  0
LINE
  5
46C
  8
0
 62
1
 10
147.35
 20
70.425
 30
0.0
 11
147.465
 21
70.2548
 31
0.0
  0
LINE
  5
46D
  8
0
 62
1
 10
147.465
 20
70.2548
 30
0.0
 11
147.57
 21
70.0777
 31
0.0
  0
LINE
  5
46E
  8
0
 62
1
 10
147.57
 20
70.0777
 30
0.0
 11
147.663
 21
69.8944
 31
0.0
  0
LINE
  5
46F
  8
0
 62
1
 10
147.663
 20
69.8944
 30
0.0
 11
147.745
 21
69.7056
 31
0.0
  0
LINE
  5
470
  8
0
 62
1
 10
147.745
 20
69.7056
 30
0.0
 11
147.815
 21
69.512
 31
0.0
  0
LINE
  5
471
  8
0
 62
1
 10
147.815
 20
69.512
 30
0.0
 11
147.872
 21
69.3145
 31
0.0
  0
LINE
  5
472
  8
0
 62
1
 10
147.872
 20
69.3145
 30
0.0
 11
147.917
 21
69.1137
 31
0.0
  0
LINE
  5
473
  8
0
 62
1
 10
147.917
 20
69.1137
 30
0.0
 11
147.949
 21
68.9105
 31
0.0
  0
LINE
  5
474
  8
0
 62
1
 10
147.949
 20
68.9105
 30
0.0
 11
147.969
 21
68.7056
 31
0.0
  0
LINE
  5
475
  8
0
 62
1
 10
147.969
 20
68.7056
 30
0.0
 11
147.975
 21
68.5
 31
0.0
  0
LINE
  5
476
  8
0
 62
1
 10
147.975
 20
68.5
 30
0.0
 11
147.969
 21
68.2944
 31
0.0
  0
LINE
  5
477
  8
0
 62
1
 10
147.969
 20
68.2944
 30
0.0
 11
147.949
 21
68.0895
 31
0.0
  0
LINE
  5
478
  8
0
 62
1
 10
147.949
 20
68.0895
 30
0.0
 11
147.917
 21
67.8863
 31
0.0
  0
LINE
  5
479
  8
0
 62
1
 10
147.917
 20
67.8863
 30
0.0
 11
147.872
 21
67.6855
 31
0.0
  0
LINE
  5
47A
  8
0
 62
1
 10
147.872
 20
67.6855
 30
0.0
 11
147.815
 21
67.488
 31
0.0
  0
LINE
  5
47B
  8
0
 62
1
 10
147.815
 20
67.488
 30
0.0
 11
147.745
 21
67.2944
 31
0.0
  0
LINE
  5
47C
  8
0
 62
1
 10
147.745
 20
67.2944
 30
0.0
 11
147.663
 21
67.1056
 31
0.0
  0
LINE
  5
47D
  8
0
 62
1
 10
147.663
 20
67.1056
 30
0.0
 11
147.57
 21
66.9223
 31
0.0
  0
LINE
  5
47E
  8
0
 62
1
 10
147.57
 20
66.9223
 30
0.0
 11
147.465
 21
66.7452
 31
0.0
  0
LINE
  5
47F
  8
0
 62
1
 10
147.465
 20
66.7452
 30
0.0
 11
147.35
 21
66.575
 31
0.0
  0
LINE
  5
480
  8
0
 62
1
 10
147.35
 20
66.575
 30
0.0
 11
147.223
 21
66.4124
 31
0.0
  0
LINE
  5
481
  8
0
 62
1
 10
147.223
 20
66.4124
 30
0.0
 11
147.087
 21
66.2581
 31
0.0
  0
LINE
  5
482
  8
0
 62
1
 10
147.087
 20
66.2581
 30
0.0
 11
146.942
 21
66.1126
 31
0.0
  0
LINE
  5
483
  8
0
 62
1
 10
146.942
 20
66.1126
 30
0.0
 11
146.788
 21
65.9766
 31
0.0
  0
LINE
  5
484
  8
0
 62
1
 10
146.788
 20
65.9766
 30
0.0
 11
146.625
 21
65.8505
 31
0.0
  0
LINE
  5
485
  8
0
 62
1
 10
146.625
 20
65.8505
 30
0.0
 11
146.455
 21
65.7348
 31
0.0
  0
LINE
  5
486
  8
0
 62
1
 10
146.455
 20
65.7348
 30
0.0
 11
146.278
 21
65.6301
 31
0.0
  0
LINE
  5
487
  8
0
 62
1
 10
146.278
 20
65.6301
 30
0.0
 11
146.094
 21
65.5367
 31
0.0
  0
LINE
  5
488
  8
0
 62
1
 10
146.094
 20
65.5367
 30
0.0
 11
145.906
 21
65.455
 31
0.0
  0
LINE
  5
489
  8
0
 62
1
 10
145.906
 20
65.455
 30
0.0
 11
145.712
 21
65.3853
 31
0.0
  0
LINE
  5
48A
  8
0
 62
1
 10
145.712
 20
65.3853
 30
0.0
 11
145.514
 21
65.3279
 31
0.0
  0
LINE
  5
48B
  8
0
 62
1
 10
145.514
 20
65.3279
 30
0.0
 11
145.314
 21
65.283
 31
0.0
  0
LINE
  5
48C
  8
0
 62
1
 10
145.314
 20
65.283
 30
0.0
 11
145.11
 21
65.2508
 31
0.0
  0
LINE
  5
48D
  8
0
 62
1
 10
145.11
 20
65.2508
 30
0.0
 11
144.906
 21
65.2315
 31
0.0
  0
LINE
  5
48E
  8
0
 62
1
 10
144.906
 20
65.2315
 30
0.0
 11
144.7
 21
65.225
 31
0.0
  0
LINE
  5
48F
  8
0
 62
1
 10
144.7
 20
65.225
 30
0.0
 11
144.494
 21
65.2315
 31
0.0
  0
LINE
  5
490
  8
0
 62
1
 10
144.494
 20
39.8315
 30
0.0
 11
144.29
 21
39.8508
 31
0.0
  0
LINE
  5
491
  8
0
 62
1
 10
144.29
 20
39.8508
 30
0.0
 11
144.086
 21
39.883
 31
0.0
  0
LINE
  5
492
  8
0
 62
1
 10
144.086
 20
39.883
 30
0.0
 11
143.886
 21
39.9279
 31
0.0
  0
LINE
  5
493
  8
0
 62
1
 10
143.886
 20
39.9279
 30
0.0
 11
143.688
 21
39.9853
 31
0.0
  0
LINE
  5
494
  8
0
 62
1
 10
143.688
 20
39.9853
 30
0.0
 11
143.494
 21
40.055
 31
0.0
  0
LINE
  5
495
  8
0
 62
1
 10
143.494
 20
40.055
 30
0.0
 11
143.306
 21
40.1367
 31
0.0
  0
LINE
  5
496
  8
0
 62
1
 10
143.306
 20
40.1367
 30
0.0
 11
143.122
 21
40.2301
 31
0.0
  0
LINE
  5
497
  8
0
 62
1
 10
143.122
 20
40.2301
 30
0.0
 11
142.945
 21
40.3348
 31
0.0
  0
LINE
  5
498
  8
0
 62
1
 10
142.945
 20
40.3348
 30
0.0
 11
142.775
 21
40.4505
 31
0.0
  0
LINE
  5
499
  8
0
 62
1
 10
142.775
 20
40.4505
 30
0.0
 11
142.612
 21
40.5766
 31
0.0
  0
LINE
  5
49A
  8
0
 62
1
 10
142.612
 20
40.5766
 30
0.0
 11
142.458
 21
40.7126
 31
0.0
  0
LINE
  5
49B
  8
0
 62
1
 10
142.458
 20
40.7126
 30
0.0
 11
142.313
 21
40.8581
 31
0.0
  0
LINE
  5
49C
  8
0
 62
1
 10
142.313
 20
40.8581
 30
0.0
 11
142.177
 21
41.0125
 31
0.0
  0
LINE
  5
49D
  8
0
 62
1
 10
142.177
 20
41.0125
 30
0.0
 11
142.05
 21
41.175
 31
0.0
  0
LINE
  5
49E
  8
0
 62
1
 10
142.05
 20
41.175
 30
0.0
 11
141.935
 21
41.3452
 31
0.0
  0
LINE
  5
49F
  8
0
 62
1
 10
141.935
 20
41.3452
 30
0.0
 11
141.83
 21
41.5223
 31
0.0
  0
LINE
  5
4A0
  8
0
 62
1
 10
141.83
 20
41.5223
 30
0.0
 11
141.737
 21
41.7056
 31
0.0
  0
LINE
  5
4A1
  8
0
 62
1
 10
141.737
 20
41.7056
 30
0.0
 11
141.655
 21
41.8944
 31
0.0
  0
LINE
  5
4A2
  8
0
 62
1
 10
141.655
 20
41.8944
 30
0.0
 11
141.585
 21
42.088
 31
0.0
  0
LINE
  5
4A3
  8
0
 62
1
 10
141.585
 20
42.088
 30
0.0
 11
141.528
 21
42.2856
 31
0.0
  0
LINE
  5
4A4
  8
0
 62
1
 10
141.528
 20
42.2856
 30
0.0
 11
141.483
 21
42.4863
 31
0.0
  0
LINE
  5
4A5
  8
0
 62
1
 10
141.483
 20
42.4863
 30
0.0
 11
141.451
 21
42.6895
 31
0.0
  0
LINE
  5
4A6
  8
0
 62
1
 10
141.451
 20
42.6895
 30
0.0
 11
141.431
 21
42.8944
 31
0.0
  0
LINE
  5
4A7
  8
0
 62
1
 10
141.431
 20
42.8944
 30
0.0
 11
141.425
 21
43.1
 31
0.0
  0
LINE
  5
4A8
  8
0
 62
1
 10
141.425
 20
43.1
 30
0.0
 11
141.431
 21
43.3056
 31
0.0
  0
LINE
  5
4A9
  8
0
 62
1
 10
141.431
 20
43.3056
 30
0.0
 11
141.451
 21
43.5105
 31
0.0
  0
LINE
  5
4AA
  8
0
 62
1
 10
141.451
 20
43.5105
 30
0.0
 11
141.483
 21
43.7137
 31
0.0
  0
LINE
  5
4AB
  8
0
 62
1
 10
141.483
 20
43.7137
 30
0.0
 11
141.528
 21
43.9145
 31
0.0
  0
LINE
  5
4AC
  8
0
 62
1
 10
141.528
 20
43.9145
 30
0.0
 11
141.585
 21
44.112
 31
0.0
  0
LINE
  5
4AD
  8
0
 62
1
 10
141.585
 20
44.112
 30
0.0
 11
141.655
 21
44.3056
 31
0.0
  0
LINE
  5
4AE
  8
0
 62
1
 10
141.655
 20
44.3056
 30
0.0
 11
141.737
 21
44.4944
 31
0.0
  0
LINE
  5
4AF
  8
0
 62
1
 10
141.737
 20
44.4944
 30
0.0
 11
141.83
 21
44.6777
 31
0.0
  0
LINE
  5
4B0
  8
0
 62
1
 10
141.83
 20
44.6777
 30
0.0
 11
141.935
 21
44.8548
 31
0.0
  0
LINE
  5
4B1
  8
0
 62
1
 10
141.935
 20
44.8548
 30
0.0
 11
142.05
 21
45.025
 31
0.0
  0
LINE
  5
4B2
  8
0
 62
1
 10
142.05
 20
45.025
 30
0.0
 11
142.177
 21
45.1876
 31
0.0
  0
LINE
  5
4B3
  8
0
 62
1
 10
142.177
 20
45.1876
 30
0.0
 11
142.313
 21
45.3419
 31
0.0
  0
LINE
  5
4B4
  8
0
 62
1
 10
142.313
 20
45.3419
 30
0.0
 11
142.458
 21
45.4874
 31
0.0
  0
LINE
  5
4B5
  8
0
 62
1
 10
142.458
 20
45.4874
 30
0.0
 11
142.612
 21
45.6234
 31
0.0
  0
LINE
  5
4B6
  8
0
 62
1
 10
142.612
 20
45.6234
 30
0.0
 11
142.775
 21
45.7495
 31
0.0
  0
LINE
  5
4B7
  8
0
 62
1
 10
142.775
 20
45.7495
 30
0.0
 11
142.945
 21
45.8652
 31
0.0
  0
LINE
  5
4B8
  8
0
 62
1
 10
142.945
 20
45.8652
 30
0.0
 11
143.122
 21
45.9699
 31
0.0
  0
LINE
  5
4B9
  8
0
 62
1
 10
143.122
 20
45.9699
 30
0.0
 11
143.306
 21
46.0633
 31
0.0
  0
LINE
  5
4BA
  8
0
 62
1
 10
143.306
 20
46.0633
 30
0.0
 11
143.494
 21
46.145
 31
0.0
  0
LINE
  5
4BB
  8
0
 62
1
 10
143.494
 20
46.145
 30
0.0
 11
143.688
 21
46.2147
 31
0.0
  0
LINE
  5
4BC
  8
0
 62
1
 10
143.688
 20
46.2147
 30
0.0
 11
143.886
 21
46.2721
 31
0.0
  0
LINE
  5
4BD
  8
0
 62
1
 10
143.886
 20
46.2721
 30
0.0
 11
144.086
 21
46.317
 31
0.0
  0
LINE
  5
4BE
  8
0
 62
1
 10
144.086
 20
46.317
 30
0.0
 11
144.29
 21
46.3492
 31
0.0
  0
LINE
  5
4BF
  8
0
 62
1
 10
144.29
 20
46.3492
 30
0.0
 11
144.494
 21
46.3685
 31
0.0
  0
LINE
  5
4C0
  8
0
 62
1
 10
144.494
 20
46.3685
 30
0.0
 11
144.7
 21
46.375
 31
0.0
  0
LINE
  5
4C1
  8
0
 62
1
 10
144.7
 20
46.375
 30
0.0
 11
144.906
 21
46.3685
 31
0.0
  0
LINE
  5
4C2
  8
0
 62
1
 10
144.906
 20
46.3685
 30
0.0
 11
145.11
 21
46.3492
 31
0.0
  0
LINE
  5
4C3
  8
0
 62
1
 10
145.11
 20
46.3492
 30
0.0
 11
145.314
 21
46.317
 31
0.0
  0
LINE
  5
4C4
  8
0
 62
1
 10
145.314
 20
46.317
 30
0.0
 11
145.514
 21
46.2721
 31
0.0
  0
LINE
  5
4C5
  8
0
 62
1
 10
145.514
 20
46.2721
 30
0.0
 11
145.712
 21
46.2147
 31
0.0
  0
LINE
  5
4C6
  8
0
 62
1
 10
145.712
 20
46.2147
 30
0.0
 11
145.906
 21
46.145
 31
0.0
  0
LINE
  5
4C7
  8
0
 62
1
 10
145.906
 20
46.145
 30
0.0
 11
146.094
 21
46.0633
 31
0.0
  0
LINE
  5
4C8
  8
0
 62
1
 10
146.094
 20
46.0633
 30
0.0
 11
146.278
 21
45.9699
 31
0.0
  0
LINE
  5
4C9
  8
0
 62
1
 10
146.278
 20
45.9699
 30
0.0
 11
146.455
 21
45.8652
 31
0.0
  0
LINE
  5
4CA
  8
0
 62
1
 10
146.455
 20
45.8652
 30
0.0
 11
146.625
 21
45.7495
 31
0.0
  0
LINE
  5
4CB
  8
0
 62
1
 10
146.625
 20
45.7495
 30
0.0
 11
146.788
 21
45.6234
 31
0.0
  0
LINE
  5
4CC
  8
0
 62
1
 10
146.788
 20
45.6234
 30
0.0
 11
146.942
 21
45.4874
 31
0.0
  0
LINE
  5
4CD
  8
0
 62
1
 10
146.942
 20
45.4874
 30
0.0
 11
147.087
 21
45.3419
 31
0.0
  0
LINE
  5
4CE
  8
0
 62
1
 10
147.087
 20
45.3419
 30
0.0
 11
147.223
 21
45.1876
 31
0.0
  0
LINE
  5
4CF
  8
0
 62
1
 10
147.223
 20
45.1876
 30
0.0
 11
147.35
 21
45.025
 31
0.0
  0
LINE
  5
4D0
  8
0
 62
1
 10
147.35
 20
45.025
 30
0.0
 11
147.465
 21
44.8548
 31
0.0
  0
LINE
  5
4D1
  8
0
 62
1
 10
147.465
 20
44.8548
 30
0.0
 11
147.57
 21
44.6777
 31
0.0
  0
LINE
  5
4D2
  8
0
 62
1
 10
147.57
 20
44.6777
 30
0.0
 11
147.663
 21
44.4944
 31
0.0
  0
LINE
  5
4D3
  8
0
 62
1
 10
147.663
 20
44.4944
 30
0.0
 11
147.745
 21
44.3056
 31
0.0
  0
LINE
  5
4D4
  8
0
 62
1
 10
147.745
 20
44.3056
 30
0.0
 11
147.815
 21
44.112
 31
0.0
  0
LINE
  5
4D5
  8
0
 62
1
 10
147.815
 20
44.112
 30
0.0
 11
147.872
 21
43.9145
 31
0.0
  0
LINE
  5
4D6
  8
0
 62
1
 10
147.872
 20
43.9145
 30
0.0
 11
147.917
 21
43.7137
 31
0.0
  0
LINE
  5
4D7
  8
0
 62
1
 10
147.917
 20
43.7137
 30
0.0
 11
147.949
 21
43.5105
 31
0.0
  0
LINE
  5
4D8
  8
0
 62
1
 10
147.949
 20
43.5105
 30
0.0
 11
147.969
 21
43.3056
 31
0.0
  0
LINE
  5
4D9
  8
0
 62
1
 10
147.969
 20
43.3056
 30
0.0
 11
147.975
 21
43.1
 31
0.0
  0
LINE
  5
4DA
  8
0
 62
1
 10
147.975
 20
43.1
 30
0.0
 11
147.969
 21
42.8944
 31
0.0
  0
LINE
  5
4DB
  8
0
 62
1
 10
147.969
 20
42.8944
 30
0.0
 11
147.949
 21
42.6895
 31
0.0
  0
LINE
  5
4DC
  8
0
 62
1
 10
147.949
 20
42.6895
 30
0.0
 11
147.917
 21
42.4863
 31
0.0
  0
LINE
  5
4DD
  8
0
 62
1
 10
147.917
 20
42.4863
 30
0.0
 11
147.872
 21
42.2856
 31
0.0
  0
LINE
  5
4DE
  8
0
 62
1
 10
147.872
 20
42.2856
 30
0.0
 11
147.815
 21
42.088
 31
0.0
  0
LINE
  5
4DF
  8
0
 62
1
 10
147.815
 20
42.088
 30
0.0
 11
147.745
 21
41.8944
 31
0.0
  0
LINE
  5
4E0
  8
0
 62
1
 10
147.745
 20
41.8944
 30
0.0
 11
147.663
 21
41.7056
 31
0.0
  0
LINE
  5
4E1
  8
0
 62
1
 10
147.663
 20
41.7056
 30
0.0
 11
147.57
 21
41.5223
 31
0.0
  0
LINE
  5
4E2
  8
0
 62
1
 10
147.57
 20
41.5223
 30
0.0
 11
147.465
 21
41.3452
 31
0.0
  0
LINE
  5
4E3
  8
0
 62
1
 10
147.465
 20
41.3452
 30
0.0
 11
147.35
 21
41.175
 31
0.0
  0
LINE
  5
4E4
  8
0
 62
1
 10
147.35
 20
41.175
 30
0.0
 11
147.223
 21
41.0125
 31
0.0
  0
LINE
  5
4E5
  8
0
 62
1
 10
147.223
 20
41.0125
 30
0.0
 11
147.087
 21
40.8581
 31
0.0
  0
LINE
  5
4E6
  8
0
 62
1
 10
147.087
 20
40.8581
 30
0.0
 11
146.942
 21
40.7126
 31
0.0
  0
LINE
  5
4E7
  8
0
 62
1
 10
146.942
 20
40.7126
 30
0.0
 11
146.788
 21
40.5766
 31
0.0
  0
LINE
  5
4E8
  8
0
 62
1
 10
146.788
 20
40.5766
 30
0.0
 11
146.625
 21
40.4505
 31
0.0
  0
LINE
  5
4E9
  8
0
 62
1
 10
146.625
 20
40.4505
 30
0.0
 11
146.455
 21
40.3348
 31
0.0
  0
LINE
  5
4EA
  8
0
 62
1
 10
146.455
 20
40.3348
 30
0.0
 11
146.278
 21
40.2301
 31
0.0
  0
LINE
  5
4EB
  8
0
 62
1
 10
146.278
 20
40.2301
 30
0.0
 11
146.094
 21
40.1367
 31
0.0
  0
LINE
  5
4EC
  8
0
 62
1
 10
146.094
 20
40.1367
 30
0.0
 11
145.906
 21
40.055
 31
0.0
  0
LINE
  5
4ED
  8
0
 62
1
 10
145.906
 20
40.055
 30
0.0
 11
145.712
 21
39.9853
 31
0.0
  0
LINE
  5
4EE
  8
0
 62
1
 10
145.712
 20
39.9853
 30
0.0
 11
145.514
 21
39.9279
 31
0.0
  0
LINE
  5
4EF
  8
0
 62
1
 10
145.514
 20
39.9279
 30
0.0
 11
145.314
 21
39.883
 31
0.0
  0
LINE
  5
4F0
  8
0
 62
1
 10
145.314
 20
39.883
 30
0.0
 11
145.11
 21
39.8508
 31
0.0
  0
LINE
  5
4F1
  8
0
 62
1
 10
145.11
 20
39.8508
 30
0.0
 11
144.906
 21
39.8315
 31
0.0
  0
LINE
  5
4F2
  8
0
 62
1
 10
144.906
 20
39.8315
 30
0.0
 11
144.7
 21
39.825
 31
0.0
  0
LINE
  5
4F3
  8
0
 62
1
 10
144.7
 20
39.825
 30
0.0
 11
144.494
 21
39.8315
 31
0.0
  0
LINE
  5
4F4
  8
0
 62
1
 10
76.2
 20
25.4
 30
0.0
 11
25.4
 21
25.4
 31
0.0
  0
LINE
  5
4F5
  8
0
 62
1
 10
25.4
 20
25.4
 30
0.0
 11
25.4
 21
76.2
 31
0.0
  0
LINE
  5
4F6
  8
0
 62
1
 10
25.4
 20
76.2
 30
0.0
 11
0.0
 21
76.2
 31
0.0
  0
LINE
  5
4F7
  8
0
 62
1
 10
0.0
 20
76.2
 30
0.0
 11
0.0
 21
0.0
 31
0.0
  0
LINE
  5
4F8
  8
0
 62
1
 10
0.0
 20
0.0
 30
0.0
 11
76.2
 21
0.0
 31
0.0
  0
LINE
  5
4F9
  8
0
 62
1
 10
76.2
 20
0.0
 30
0.0
 11
76.2
 21
25.4
 31
0.0
  0
LINE
  5
4FA
  8
0
 62
1
 10
12.4944
 20
60.2314
 30
0.0
 11
12.2895
 21
60.2508
 31
0.0
  0
LINE
  5
4FB
  8
0
 62
1
 10
12.2895
 20
60.2508
 30
0.0
 11
12.0863
 21
60.283
 31
0.0
  0
LINE
  5
4FC
  8
0
 62
1
 10
12.0863
 20
60.283
 30
0.0
 11
11.8855
 21
60.3279
 31
0.0
  0
LINE
  5
4FD
  8
0
 62
1
 10
11.8855
 20
60.3279
 30
0.0
 11
11.688
 21
60.3853
 31
0.0
  0
LINE
  5
4FE
  8
0
 62
1
 10
11.688
 20
60.3853
 30
0.0
 11
11.4944
 21
60.455
 31
0.0
  0
LINE
  5
4FF
  8
0
 62
1
 10
11.4944
 20
60.455
 30
0.0
 11
11.3056
 21
60.5367
 31
0.0
  0
LINE
  5
500
  8
0
 62
1
 10
11.3056
 20
60.5367
 30
0.0
 11
11.1223
 21
60.6301
 31
0.0
  0
LINE
  5
501
  8
0
 62
1
 10
11.1223
 20
60.6301
 30
0.0
 11
10.9452
 21
60.7348
 31
0.0
  0
LINE
  5
502
  8
0
 62
1
 10
10.9452
 20
60.7348
 30
0.0
 11
10.775
 21
60.8504
 31
0.0
  0
LINE
  5
503
  8
0
 62
1
 10
10.775
 20
60.8504
 30
0.0
 11
10.6124
 21
60.9765
 31
0.0
  0
LINE
  5
504
  8
0
 62
1
 10
10.6124
 20
60.9765
 30
0.0
 11
10.4581
 21
61.1126
 31
0.0
  0
LINE
  5
505
  8
0
 62
1
 10
10.4581
 20
61.1126
 30
0.0
 11
10.3126
 21
61.2581
 31
0.0
  0
LINE
  5
506
  8
0
 62
1
 10
10.3126
 20
61.2581
 30
0.0
 11
10.1766
 21
61.4124
 31
0.0
  0
LINE
  5
507
  8
0
 62
1
 10
10.1766
 20
61.4124
 30
0.0
 11
10.0505
 21
61.575
 31
0.0
  0
LINE
  5
508
  8
0
 62
1
 10
10.0505
 20
61.575
 30
0.0
 11
9.93483
 21
61.7451
 31
0.0
  0
LINE
  5
509
  8
0
 62
1
 10
9.93483
 20
61.7451
 30
0.0
 11
9.83009
 21
61.9222
 31
0.0
  0
LINE
  5
50A
  8
0
 62
1
 10
9.83009
 20
61.9222
 30
0.0
 11
9.73669
 21
62.1056
 31
0.0
  0
LINE
  5
50B
  8
0
 62
1
 10
9.73669
 20
62.1056
 30
0.0
 11
9.65498
 21
62.2944
 31
0.0
  0
LINE
  5
50C
  8
0
 62
1
 10
9.65498
 20
62.2944
 30
0.0
 11
9.5853
 21
62.4879
 31
0.0
  0
LINE
  5
50D
  8
0
 62
1
 10
9.5853
 20
62.4879
 30
0.0
 11
9.52789
 21
62.6855
 31
0.0
  0
LINE
  5
50E
  8
0
 62
1
 10
9.52789
 20
62.6855
 30
0.0
 11
9.48302
 21
62.8863
 31
0.0
  0
LINE
  5
50F
  8
0
 62
1
 10
9.48302
 20
62.8863
 30
0.0
 11
9.45084
 21
63.0895
 31
0.0
  0
LINE
  5
510
  8
0
 62
1
 10
9.45084
 20
63.0895
 30
0.0
 11
9.43147
 21
63.2943
 31
0.0
  0
LINE
  5
511
  8
0
 62
1
 10
9.43147
 20
63.2943
 30
0.0
 11
9.425
 21
63.5
 31
0.0
  0
LINE
  5
512
  8
0
 62
1
 10
9.425
 20
63.5
 30
0.0
 11
9.43147
 21
63.7056
 31
0.0
  0
LINE
  5
513
  8
0
 62
1
 10
9.43147
 20
63.7056
 30
0.0
 11
9.45084
 21
63.9104
 31
0.0
  0
LINE
  5
514
  8
0
 62
1
 10
9.45084
 20
63.9104
 30
0.0
 11
9.48302
 21
64.1137
 31
0.0
  0
LINE
  5
515
  8
0
 62
1
 10
9.48302
 20
64.1137
 30
0.0
 11
9.52789
 21
64.3144
 31
0.0
  0
LINE
  5
516
  8
0
 62
1
 10
9.52789
 20
64.3144
 30
0.0
 11
9.5853
 21
64.512
 31
0.0
  0
LINE
  5
517
  8
0
 62
1
 10
9.5853
 20
64.512
 30
0.0
 11
9.65498
 21
64.7056
 31
0.0
  0
LINE
  5
518
  8
0
 62
1
 10
9.65498
 20
64.7056
 30
0.0
 11
9.73669
 21
64.8944
 31
0.0
  0
LINE
  5
519
  8
0
 62
1
 10
9.73669
 20
64.8944
 30
0.0
 11
9.83009
 21
65.0777
 31
0.0
  0
LINE
  5
51A
  8
0
 62
1
 10
9.83009
 20
65.0777
 30
0.0
 11
9.93483
 21
65.2548
 31
0.0
  0
LINE
  5
51B
  8
0
 62
1
 10
9.93483
 20
65.2548
 30
0.0
 11
10.0505
 21
65.425
 31
0.0
  0
LINE
  5
51C
  8
0
 62
1
 10
10.0505
 20
65.425
 30
0.0
 11
10.1766
 21
65.5875
 31
0.0
  0
LINE
  5
51D
  8
0
 62
1
 10
10.1766
 20
65.5875
 30
0.0
 11
10.3126
 21
65.7419
 31
0.0
  0
LINE
  5
51E
  8
0
 62
1
 10
10.3126
 20
65.7419
 30
0.0
 11
10.4581
 21
65.8874
 31
0.0
  0
LINE
  5
51F
  8
0
 62
1
 10
10.4581
 20
65.8874
 30
0.0
 11
10.6124
 21
66.0234
 31
0.0
  0
LINE
  5
520
  8
0
 62
1
 10
10.6124
 20
66.0234
 30
0.0
 11
10.775
 21
66.1495
 31
0.0
  0
LINE
  5
521
  8
0
 62
1
 10
10.775
 20
66.1495
 30
0.0
 11
10.9452
 21
66.2652
 31
0.0
  0
LINE
  5
522
  8
0
 62
1
 10
10.9452
 20
66.2652
 30
0.0
 11
11.1223
 21
66.3699
 31
0.0
  0
LINE
  5
523
  8
0
 62
1
 10
11.1223
 20
66.3699
 30
0.0
 11
11.3056
 21
66.4633
 31
0.0
  0
LINE
  5
524
  8
0
 62
1
 10
11.3056
 20
66.4633
 30
0.0
 11
11.4944
 21
66.545
 31
0.0
  0
LINE
  5
525
  8
0
 62
1
 10
11.4944
 20
66.545
 30
0.0
 11
11.688
 21
66.6147
 31
0.0
  0
LINE
  5
526
  8
0
 62
1
 10
11.688
 20
66.6147
 30
0.0
 11
11.8855
 21
66.6721
 31
0.0
  0
LINE
  5
527
  8
0
 62
1
 10
11.8855
 20
66.6721
 30
0.0
 11
12.0863
 21
66.717
 31
0.0
  0
LINE
  5
528
  8
0
 62
1
 10
12.0863
 20
66.717
 30
0.0
 11
12.2895
 21
66.7492
 31
0.0
  0
LINE
  5
529
  8
0
 62
1
 10
12.2895
 20
66.7492
 30
0.0
 11
12.4944
 21
66.7685
 31
0.0
  0
LINE
  5
52A
  8
0
 62
1
 10
12.4944
 20
66.7685
 30
0.0
 11
12.7
 21
66.775
 31
0.0
  0
LINE
  5
52B
  8
0
 62
1
 10
12.7
 20
66.775
 30
0.0
 11
12.9056
 21
66.7685
 31
0.0
  0
LINE
  5
52C
  8
0
 62
1
 10
12.9056
 20
66.7685
 30
0.0
 11
13.1105
 21
66.7492
 31
0.0
  0
LINE
  5
52D
  8
0
 62
1
 10
13.1105
 20
66.7492
 30
0.0
 11
13.3137
 21
66.717
 31
0.0
  0
LINE
  5
52E
  8
0
 62
1
 10
13.3137
 20
66.717
 30
0.0
 11
13.5145
 21
66.6721
 31
0.0
  0
LINE
  5
52F
  8
0
 62
1
 10
13.5145
 20
66.6721
 30
0.0
 11
13.712
 21
66.6147
 31
0.0
  0
LINE
  5
530
  8
0
 62
1
 10
13.712
 20
66.6147
 30
0.0
 11
13.9056
 21
66.545
 31
0.0
  0
LINE
  5
531
  8
0
 62
1
 10
13.9056
 20
66.545
 30
0.0
 11
14.0944
 21
66.4633
 31
0.0
  0
LINE
  5
532
  8
0
 62
1
 10
14.0944
 20
66.4633
 30
0.0
 11
14.2777
 21
66.3699
 31
0.0
  0
LINE
  5
533
  8
0
 62
1
 10
14.2777
 20
66.3699
 30
0.0
 11
14.4548
 21
66.2652
 31
0.0
  0
LINE
  5
534
  8
0
 62
1
 10
14.4548
 20
66.2652
 30
0.0
 11
14.625
 21
66.1495
 31
0.0
  0
LINE
  5
535
  8
0
 62
1
 10
14.625
 20
66.1495
 30
0.0
 11
14.7876
 21
66.0234
 31
0.0
  0
LINE
  5
536
  8
0
 62
1
 10
14.7876
 20
66.0234
 30
0.0
 11
14.9419
 21
65.8874
 31
0.0
  0
LINE
  5
537
  8
0
 62
1
 10
14.9419
 20
65.8874
 30
0.0
 11
15.0874
 21
65.7419
 31
0.0
  0
LINE
  5
538
  8
0
 62
1
 10
15.0874
 20
65.7419
 30
0.0
 11
15.2234
 21
65.5875
 31
0.0
  0
LINE
  5
539
  8
0
 62
1
 10
15.2234
 20
65.5875
 30
0.0
 11
15.3495
 21
65.425
 31
0.0
  0
LINE
  5
53A
  8
0
 62
1
 10
15.3495
 20
65.425
 30
0.0
 11
15.4652
 21
65.2548
 31
0.0
  0
LINE
  5
53B
  8
0
 62
1
 10
15.4652
 20
65.2548
 30
0.0
 11
15.5699
 21
65.0777
 31
0.0
  0
LINE
  5
53C
  8
0
 62
1
 10
15.5699
 20
65.0777
 30
0.0
 11
15.6633
 21
64.8944
 31
0.0
  0
LINE
  5
53D
  8
0
 62
1
 10
15.6633
 20
64.8944
 30
0.0
 11
15.745
 21
64.7056
 31
0.0
  0
LINE
  5
53E
  8
0
 62
1
 10
15.745
 20
64.7056
 30
0.0
 11
15.8147
 21
64.512
 31
0.0
  0
LINE
  5
53F
  8
0
 62
1
 10
15.8147
 20
64.512
 30
0.0
 11
15.8721
 21
64.3144
 31
0.0
  0
LINE
  5
540
  8
0
 62
1
 10
15.8721
 20
64.3144
 30
0.0
 11
15.917
 21
64.1137
 31
0.0
  0
LINE
  5
541
  8
0
 62
1
 10
15.917
 20
64.1137
 30
0.0
 11
15.9492
 21
63.9104
 31
0.0
  0
LINE
  5
542
  8
0
 62
1
 10
15.9492
 20
63.9104
 30
0.0
 11
15.9685
 21
63.7056
 31
0.0
  0
LINE
  5
543
  8
0
 62
1
 10
15.9685
 20
63.7056
 30
0.0
 11
15.975
 21
63.5
 31
0.0
  0
LINE
  5
544
  8
0
 62
1
 10
15.975
 20
63.5
 30
0.0
 11
15.9685
 21
63.2943
 31
0.0
  0
LINE
  5
545
  8
0
 62
1
 10
15.9685
 20
63.2943
 30
0.0
 11
15.9492
 21
63.0895
 31
0.0
  0
LINE
  5
546
  8
0
 62
1
 10
15.9492
 20
63.0895
 30
0.0
 11
15.917
 21
62.8863
 31
0.0
  0
LINE
  5
547
  8
0
 62
1
 10
15.917
 20
62.8863
 30
0.0
 11
15.8721
 21
62.6855
 31
0.0
  0
LINE
  5
548
  8
0
 62
1
 10
15.8721
 20
62.6855
 30
0.0
 11
15.8147
 21
62.4879
 31
0.0
  0
LINE
  5
549
  8
0
 62
1
 10
15.8147
 20
62.4879
 30
0.0
 11
15.745
 21
62.2944
 31
0.0
  0
LINE
  5
54A
  8
0
 62
1
 10
15.745
 20
62.2944
 30
0.0
 11
15.6633
 21
62.1056
 31
0.0
  0
LINE
  5
54B
  8
0
 62
1
 10
15.6633
 20
62.1056
 30
0.0
 11
15.5699
 21
61.9222
 31
0.0
  0
LINE
  5
54C
  8
0
 62
1
 10
15.5699
 20
61.9222
 30
0.0
 11
15.4652
 21
61.7451
 31
0.0
  0
LINE
  5
54D
  8
0
 62
1
 10
15.4652
 20
61.7451
 30
0.0
 11
15.3495
 21
61.575
 31
0.0
  0
LINE
  5
54E
  8
0
 62
1
 10
15.3495
 20
61.575
 30
0.0
 11
15.2234
 21
61.4124
 31
0.0
  0
LINE
  5
54F
  8
0
 62
1
 10
15.2234
 20
61.4124
 30
0.0
 11
15.0874
 21
61.2581
 31
0.0
  0
LINE
  5
550
  8
0
 62
1
 10
15.0874
 20
61.2581
 30
0.0
 11
14.9419
 21
61.1126
 31
0.0
  0
LINE
  5
551
  8
0
 62
1
 10
14.9419
 20
61.1126
 30
0.0
 11
14.7876
 21
60.9765
 31
0.0
  0
LINE
  5
552
  8
0
 62
1
 10
14.7876
 20
60.9765
 30
0.0
 11
14.625
 21
60.8504
 31
0.0
  0
LINE
  5
553
  8
0
 62
1
 10
14.625
 20
60.8504
 30
0.0
 11
14.4548
 21
60.7348
 31
0.0
  0
LINE
  5
554
  8
0
 62
1
 10
14.4548
 20
60.7348
 30
0.0
 11
14.2777
 21
60.6301
 31
0.0
  0
LINE
  5
555
  8
0
 62
1
 10
14.2777
 20
60.6301
 30
0.0
 11
14.0944
 21
60.5367
 31
0.0
  0
LINE
  5
556
  8
0
 62
1
 10
14.0944
 20
60.5367
 30
0.0
 11
13.9056
 21
60.455
 31
0.0
  0
LINE
  5
557
  8
0
 62
1
 10
13.9056
 20
60.455
 30
0.0
 11
13.712
 21
60.3853
 31
0.0
  0
LINE
  5
558
  8
0
 62
1
 10
13.712
 20
60.3853
 30
0.0
 11
13.5145
 21
60.3279
 31
0.0
  0
LINE
  5
559
  8
0
 62
1
 10
13.5145
 20
60.3279
 30
0.0
 11
13.3137
 21
60.283
 31
0.0
  0
LINE
  5
55A
  8
0
 62
1
 10
13.3137
 20
60.283
 30
0.0
 11
13.1105
 21
60.2508
 31
0.0
  0
LINE
  5
55B
  8
0
 62
1
 10
13.1105
 20
60.2508
 30
0.0
 11
12.9056
 21
60.2314
 31
0.0
  0
LINE
  5
55C
  8
0
 62
1
 10
12.9056
 20
60.2314
 30
0.0
 11
12.7
 21
60.225
 31
0.0
  0
LINE
  5
55D
  8
0
 62
1
 10
12.7
 20
60.225
 30
0.0
 11
12.4944
 21
60.2314
 31
0.0
  0
LINE
  5
55E
  8
0
 62
1
 10
12.4944
 20
34.8315
 30
0.0
 11
12.2895
 21
34.8508
 31
0.0
  0
LINE
  5
55F
  8
0
 62
1
 10
12.2895
 20
34.8508
 30
0.0
 11
12.0863
 21
34.883
 31
0.0
  0
LINE
  5
560
  8
0
 62
1
 10
12.0863
 20
34.883
 30
0.0
 11
11.8855
 21
34.9279
 31
0.0
  0
LINE
  5
561
  8
0
 62
1
 10
11.8855
 20
34.9279
 30
0.0
 11
11.688
 21
34.9853
 31
0.0
  0
LINE
  5
562
  8
0
 62
1
 10
11.688
 20
34.9853
 30
0.0
 11
11.4944
 21
35.055
 31
0.0
  0
LINE
  5
563
  8
0
 62
1
 10
11.4944
 20
35.055
 30
0.0
 11
11.3056
 21
35.1367
 31
0.0
  0
LINE
  5
564
  8
0
 62
1
 10
11.3056
 20
35.1367
 30
0.0
 11
11.1223
 21
35.2301
 31
0.0
  0
LINE
  5
565
  8
0
 62
1
 10
11.1223
 20
35.2301
 30
0.0
 11
10.9452
 21
35.3348
 31
0.0
  0
LINE
  5
566
  8
0
 62
1
 10
10.9452
 20
35.3348
 30
0.0
 11
10.775
 21
35.4505
 31
0.0
  0
LINE
  5
567
  8
0
 62
1
 10
10.775
 20
35.4505
 30
0.0
 11
10.6124
 21
35.5766
 31
0.0
  0
LINE
  5
568
  8
0
 62
1
 10
10.6124
 20
35.5766
 30
0.0
 11
10.4581
 21
35.7126
 31
0.0
  0
LINE
  5
569
  8
0
 62
1
 10
10.4581
 20
35.7126
 30
0.0
 11
10.3126
 21
35.8581
 31
0.0
  0
LINE
  5
56A
  8
0
 62
1
 10
10.3126
 20
35.8581
 30
0.0
 11
10.1766
 21
36.0124
 31
0.0
  0
LINE
  5
56B
  8
0
 62
1
 10
10.1766
 20
36.0124
 30
0.0
 11
10.0505
 21
36.175
 31
0.0
  0
LINE
  5
56C
  8
0
 62
1
 10
10.0505
 20
36.175
 30
0.0
 11
9.93483
 21
36.3452
 31
0.0
  0
LINE
  5
56D
  8
0
 62
1
 10
9.93483
 20
36.3452
 30
0.0
 11
9.83009
 21
36.5223
 31
0.0
  0
LINE
  5
56E
  8
0
 62
1
 10
9.83009
 20
36.5223
 30
0.0
 11
9.73669
 21
36.7056
 31
0.0
  0
LINE
  5
56F
  8
0
 62
1
 10
9.73669
 20
36.7056
 30
0.0
 11
9.65498
 21
36.8944
 31
0.0
  0
LINE
  5
570
  8
0
 62
1
 10
9.65498
 20
36.8944
 30
0.0
 11
9.5853
 21
37.088
 31
0.0
  0
LINE
  5
571
  8
0
 62
1
 10
9.5853
 20
37.088
 30
0.0
 11
9.52789
 21
37.2855
 31
0.0
  0
LINE
  5
572
  8
0
 62
1
 10
9.52789
 20
37.2855
 30
0.0
 11
9.48302
 21
37.4863
 31
0.0
  0
LINE
  5
573
  8
0
 62
1
 10
9.48302
 20
37.4863
 30
0.0
 11
9.45084
 21
37.6895
 31
0.0
  0
LINE
  5
574
  8
0
 62
1
 10
9.45084
 20
37.6895
 30
0.0
 11
9.43147
 21
37.8944
 31
0.0
  0
LINE
  5
575
  8
0
 62
1
 10
9.43147
 20
37.8944
 30
0.0
 11
9.425
 21
38.1
 31
0.0
  0
LINE
  5
576
  8
0
 62
1
 10
9.425
 20
38.1
 30
0.0
 11
9.43147
 21
38.3056
 31
0.0
  0
LINE
  5
577
  8
0
 62
1
 10
9.43147
 20
38.3056
 30
0.0
 11
9.45084
 21
38.5105
 31
0.0
  0
LINE
  5
578
  8
0
 62
1
 10
9.45084
 20
38.5105
 30
0.0
 11
9.48302
 21
38.7137
 31
0.0
  0
LINE
  5
579
  8
0
 62
1
 10
9.48302
 20
38.7137
 30
0.0
 11
9.52789
 21
38.9144
 31
0.0
  0
LINE
  5
57A
  8
0
 62
1
 10
9.52789
 20
38.9144
 30
0.0
 11
9.5853
 21
39.112
 31
0.0
  0
LINE
  5
57B
  8
0
 62
1
 10
9.5853
 20
39.112
 30
0.0
 11
9.65498
 21
39.3056
 31
0.0
  0
LINE
  5
57C
  8
0
 62
1
 10
9.65498
 20
39.3056
 30
0.0
 11
9.73669
 21
39.4944
 31
0.0
  0
LINE
  5
57D
  8
0
 62
1
 10
9.73669
 20
39.4944
 30
0.0
 11
9.83009
 21
39.6777
 31
0.0
  0
LINE
  5
57E
  8
0
 62
1
 10
9.83009
 20
39.6777
 30
0.0
 11
9.93483
 21
39.8548
 31
0.0
  0
LINE
  5
57F
  8
0
 62
1
 10
9.93483
 20
39.8548
 30
0.0
 11
10.0505
 21
40.025
 31
0.0
  0
LINE
  5
580
  8
0
 62
1
 10
10.0505
 20
40.025
 30
0.0
 11
10.1766
 21
40.1875
 31
0.0
  0
LINE
  5
581
  8
0
 62
1
 10
10.1766
 20
40.1875
 30
0.0
 11
10.3126
 21
40.3419
 31
0.0
  0
LINE
  5
582
  8
0
 62
1
 10
10.3126
 20
40.3419
 30
0.0
 11
10.4581
 21
40.4874
 31
0.0
  0
LINE
  5
583
  8
0
 62
1
 10
10.4581
 20
40.4874
 30
0.0
 11
10.6124
 21
40.6234
 31
0.0
  0
LINE
  5
584
  8
0
 62
1
 10
10.6124
 20
40.6234
 30
0.0
 11
10.775
 21
40.7495
 31
0.0
  0
LINE
  5
585
  8
0
 62
1
 10
10.775
 20
40.7495
 30
0.0
 11
10.9452
 21
40.8652
 31
0.0
  0
LINE
  5
586
  8
0
 62
1
 10
10.9452
 20
40.8652
 30
0.0
 11
11.1223
 21
40.9699
 31
0.0
  0
LINE
  5
587
  8
0
 62
1
 10
11.1223
 20
40.9699
 30
0.0
 11
11.3056
 21
41.0633
 31
0.0
  0
LINE
  5
588
  8
0
 62
1
 10
11.3056
 20
41.0633
 30
0.0
 11
11.4944
 21
41.145
 31
0.0
  0
LINE
  5
589
  8
0
 62
1
 10
11.4944
 20
41.145
 30
0.0
 11
11.688
 21
41.2147
 31
0.0
  0
LINE
  5
58A
  8
0
 62
1
 10
11.688
 20
41.2147
 30
0.0
 11
11.8855
 21
41.2721
 31
0.0
  0
LINE
  5
58B
  8
0
 62
1
 10
11.8855
 20
41.2721
 30
0.0
 11
12.0863
 21
41.317
 31
0.0
  0
LINE
  5
58C
  8
0
 62
1
 10
12.0863
 20
41.317
 30
0.0
 11
12.2895
 21
41.3492
 31
0.0
  0
LINE
  5
58D
  8
0
 62
1
 10
12.2895
 20
41.3492
 30
0.0
 11
12.4944
 21
41.3685
 31
0.0
  0
LINE
  5
58E
  8
0
 62
1
 10
12.4944
 20
41.3685
 30
0.0
 11
12.7
 21
41.375
 31
0.0
  0
LINE
  5
58F
  8
0
 62
1
 10
12.7
 20
41.375
 30
0.0
 11
12.9056
 21
41.3685
 31
0.0
  0
LINE
  5
590
  8
0
 62
1
 10
12.9056
 20
41.3685
 30
0.0
 11
13.1105
 21
41.3492
 31
0.0
  0
LINE
  5
591
  8
0
 62
1
 10
13.1105
 20
41.3492
 30
0.0
 11
13.3137
 21
41.317
 31
0.0
  0
LINE
  5
592
  8
0
 62
1
 10
13.3137
 20
41.317
 30
0.0
 11
13.5145
 21
41.2721
 31
0.0
  0
LINE
  5
593
  8
0
 62
1
 10
13.5145
 20
41.2721
 30
0.0
 11
13.712
 21
41.2147
 31
0.0
  0
LINE
  5
594
  8
0
 62
1
 10
13.712
 20
41.2147
 30
0.0
 11
13.9056
 21
41.145
 31
0.0
  0
LINE
  5
595
  8
0
 62
1
 10
13.9056
 20
41.145
 30
0.0
 11
14.0944
 21
41.0633
 31
0.0
  0
LINE
  5
596
  8
0
 62
1
 10
14.0944
 20
41.0633
 30
0.0
 11
14.2777
 21
40.9699
 31
0.0
  0
LINE
  5
597
  8
0
 62
1
 10
14.2777
 20
40.9699
 30
0.0
 11
14.4548
 21
40.8652
 31
0.0
  0
LINE
  5
598
  8
0
 62
1
 10
14.4548
 20
40.8652
 30
0.0
 11
14.625
 21
40.7495
 31
0.0
  0
LINE
  5
599
  8
0
 62
1
 10
14.625
 20
40.7495
 30
0.0
 11
14.7876
 21
40.6234
 31
0.0
  0
LINE
  5
59A
  8
0
 62
1
 10
14.7876
 20
40.6234
 30
0.0
 11
14.9419
 21
40.4874
 31
0.0
  0
LINE
  5
59B
  8
0
 62
1
 10
14.9419
 20
40.4874
 30
0.0
 11
15.0874
 21
40.3419
 31
0.0
  0
LINE
  5
59C
  8
0
 62
1
 10
15.0874
 20
40.3419
 30
0.0
 11
15.2234
 21
40.1875
 31
0.0
  0
LINE
  5
59D
  8
0
 62
1
 10
15.2234
 20
40.1875
 30
0.0
 11
15.3495
 21
40.025
 31
0.0
  0
LINE
  5
59E
  8
0
 62
1
 10
15.3495
 20
40.025
 30
0.0
 11
15.4652
 21
39.8548
 31
0.0
  0
LINE
  5
59F
  8
0
 62
1
 10
15.4652
 20
39.8548
 30
0.0
 11
15.5699
 21
39.6777
 31
0.0
  0
LINE
  5
5A0
  8
0
 62
1
 10
15.5699
 20
39.6777
 30
0.0
 11
15.6633
 21
39.4944
 31
0.0
  0
LINE
  5
5A1
  8
0
 62
1
 10
15.6633
 20
39.4944
 30
0.0
 11
15.745
 21
39.3056
 31
0.0
  0
LINE
  5
5A2
  8
0
 62
1
 10
15.745
 20
39.3056
 30
0.0
 11
15.8147
 21
39.112
 31
0.0
  0
LINE
  5
5A3
  8
0
 62
1
 10
15.8147
 20
39.112
 30
0.0
 11
15.8721
 21
38.9144
 31
0.0
  0
LINE
  5
5A4
  8
0
 62
1
 10
15.8721
 20
38.9144
 30
0.0
 11
15.917
 21
38.7137
 31
0.0
  0
LINE
  5
5A5
  8
0
 62
1
 10
15.917
 20
38.7137
 30
0.0
 11
15.9492
 21
38.5105
 31
0.0
  0
LINE
  5
5A6
  8
0
 62
1
 10
15.9492
 20
38.5105
 30
0.0
 11
15.9685
 21
38.3056
 31
0.0
  0
LINE
  5
5A7
  8
0
 62
1
 10
15.9685
 20
38.3056
 30
0.0
 11
15.975
 21
38.1
 31
0.0
  0
LINE
  5
5A8
  8
0
 62
1
 10
15.975
 20
38.1
 30
0.0
 11
15.9685
 21
37.8944
 31
0.0
  0
LINE
  5
5A9
  8
0
 62
1
 10
15.9685
 20
37.8944
 30
0.0
 11
15.9492
 21
37.6895
 31
0.0
  0
LINE
  5
5AA
  8
0
 62
1
 10
15.9492
 20
37.6895
 30
0.0
 11
15.917
 21
37.4863
 31
0.0
  0
LINE
  5
5AB
  8
0
 62
1
 10
15.917
 20
37.4863
 30
0.0
 11
15.8721
 21
37.2855
 31
0.0
  0
LINE
  5
5AC
  8
0
 62
1
 10
15.8721
 20
37.2855
 30
0.0
 11
15.8147
 21
37.088
 31
0.0
  0
LINE
  5
5AD
  8
0
 62
1
 10
15.8147
 20
37.088
 30
0.0
 11
15.745
 21
36.8944
 31
0.0
  0
LINE
  5
5AE
  8
0
 62
1
 10
15.745
 20
36.8944
 30
0.0
 11
15.6633
 21
36.7056
 31
0.0
  0
LINE
  5
5AF
  8
0
 62
1
 10
15.6633
 20
36.7056
 30
0.0
 11
15.5699
 21
36.5223
 31
0.0
  0
LINE
  5
5B0
  8
0
 62
1
 10
15.5699
 20
36.5223
 30
0.0
 11
15.4652
 21
36.3452
 31
0.0
  0
LINE
  5
5B1
  8
0
 62
1
 10
15.4652
 20
36.3452
 30
0.0
 11
15.3495
 21
36.175
 31
0.0
  0
LINE
  5
5B2
  8
0
 62
1
 10
15.3495
 20
36.175
 30
0.0
 11
15.2234
 21
36.0124
 31
0.0
  0
LINE
  5
5B3
  8
0
 62
1
 10
15.2234
 20
36.0124
 30
0.0
 11
15.0874
 21
35.8581
 31
0.0
  0
LINE
  5
5B4
  8
0
 62
1
 10
15.0874
 20
35.8581
 30
0.0
 11
14.9419
 21
35.7126
 31
0.0
  0
LINE
  5
5B5
  8
0
 62
1
 10
14.9419
 20
35.7126
 30
0.0
 11
14.7876
 21
35.5766
 31
0.0
  0
LINE
  5
5B6
  8
0
 62
1
 10
14.7876
 20
35.5766
 30
0.0
 11
14.625
 21
35.4505
 31
0.0
  0
LINE
  5
5B7
  8
0
 62
1
 10
14.625
 20
35.4505
 30
0.0
 11
14.4548
 21
35.3348
 31
0.0
  0
LINE
  5
5B8
  8
0
 62
1
 10
14.4548
 20
35.3348
 30
0.0
 11
14.2777
 21
35.2301
 31
0.0
  0
LINE
  5
5B9
  8
0
 62
1
 10
14.2777
 20
35.2301
 30
0.0
 11
14.0944
 21
35.1367
 31
0.0
  0
LINE
  5
5BA
  8
0
 62
1
 10
14.0944
 20
35.1367
 30
0.0
 11
13.9056
 21
35.055
 31
0.0
  0
LINE
  5
5BB
  8
0
 62
1
 10
13.9056
 20
35.055
 30
0.0
 11
13.712
 21
34.9853
 31
0.0
  0
LINE
  5
5BC
  8
0
 62
1
 10
13.712
 20
34.9853
 30
0.0
 11
13.5145
 21
34.9279
 31
0.0
  0
LINE
  5
5BD
  8
0
 62
1
 10
13.5145
 20
34.9279
 30
0.0
 11
13.3137
 21
34.883
 31
0.0
  0
LINE
  5
5BE
  8
0
 62
1
 10
13.3137
 20
34.883
 30
0.0
 11
13.1105
 21
34.8508
 31
0.0
  0
LINE
  5
5BF
  8
0
 62
1
 10
13.1105
 20
34.8508
 30
0.0
 11
12.9056
 21
34.8315
 31
0.0
  0
LINE
  5
5C0
  8
0
 62
1
 10
12.9056
 20
34.8315
 30
0.0
 11
12.7
 21
34.825
 31
0.0
  0
LINE
  5
5C1
  8
0
 62
1
 10
12.7
 20
34.825
 30
0.0
 11
12.4944
 21
34.8315
 31
0.0
  0
LINE
  5
5C2
  8
0
 62
1
 10
37.8944
 20
9.43147
 30
0.0
 11
37.6895
 21
9.45084
 31
0.0
  0
LINE
  5
5C3
  8
0
 62
1
 10
37.6895
 20
9.45084
 30
0.0
 11
37.4863
 21
9.48302
 31
0.0
  0
LINE
  5
5C4
  8
0
 62
1
 10
37.4863
 20
9.48302
 30
0.0
 11
37.2855
 21
9.52789
 31
0.0
  0
LINE
  5
5C5
  8
0
 62
1
 10
37.2855
 20
9.52789
 30
0.0
 11
37.088
 21
9.5853
 31
0.0
  0
LINE
  5
5C6
  8
0
 62
1
 10
37.088
 20
9.5853
 30
0.0
 11
36.8944
 21
9.65498
 31
0.0
  0
LINE
  5
5C7
  8
0
 62
1
 10
36.8944
 20
9.65498
 30
0.0
 11
36.7056
 21
9.73669
 31
0.0
  0
LINE
  5
5C8
  8
0
 62
1
 10
36.7056
 20
9.73669
 30
0.0
 11
36.5223
 21
9.83009
 31
0.0
  0
LINE
  5
5C9
  8
0
 62
1
 10
36.5223
 20
9.83009
 30
0.0
 11
36.3452
 21
9.93483
 31
0.0
  0
LINE
  5
5CA
  8
0
 62
1
 10
36.3452
 20
9.93483
 30
0.0
 11
36.175
 21
10.0505
 31
0.0
  0
LINE
  5
5CB
  8
0
 62
1
 10
36.175
 20
10.0505
 30
0.0
 11
36.0124
 21
10.1766
 31
0.0
  0
LINE
  5
5CC
  8
0
 62
1
 10
36.0124
 20
10.1766
 30
0.0
 11
35.8581
 21
10.3126
 31
0.0
  0
LINE
  5
5CD
  8
0
 62
1
 10
35.8581
 20
10.3126
 30
0.0
 11
35.7126
 21
10.4581
 31
0.0
  0
LINE
  5
5CE
  8
0
 62
1
 10
35.7126
 20
10.4581
 30
0.0
 11
35.5766
 21
10.6124
 31
0.0
  0
LINE
  5
5CF
  8
0
 62
1
 10
35.5766
 20
10.6124
 30
0.0
 11
35.4505
 21
10.775
 31
0.0
  0
LINE
  5
5D0
  8
0
 62
1
 10
35.4505
 20
10.775
 30
0.0
 11
35.3348
 21
10.9452
 31
0.0
  0
LINE
  5
5D1
  8
0
 62
1
 10
35.3348
 20
10.9452
 30
0.0
 11
35.2301
 21
11.1223
 31
0.0
  0
LINE
  5
5D2
  8
0
 62
1
 10
35.2301
 20
11.1223
 30
0.0
 11
35.1367
 21
11.3056
 31
0.0
  0
LINE
  5
5D3
  8
0
 62
1
 10
35.1367
 20
11.3056
 30
0.0
 11
35.055
 21
11.4944
 31
0.0
  0
LINE
  5
5D4
  8
0
 62
1
 10
35.055
 20
11.4944
 30
0.0
 11
34.9853
 21
11.688
 31
0.0
  0
LINE
  5
5D5
  8
0
 62
1
 10
34.9853
 20
11.688
 30
0.0
 11
34.9279
 21
11.8855
 31
0.0
  0
LINE
  5
5D6
  8
0
 62
1
 10
34.9279
 20
11.8855
 30
0.0
 11
34.883
 21
12.0863
 31
0.0
  0
LINE
  5
5D7
  8
0
 62
1
 10
34.883
 20
12.0863
 30
0.0
 11
34.8508
 21
12.2895
 31
0.0
  0
LINE
  5
5D8
  8
0
 62
1
 10
34.8508
 20
12.2895
 30
0.0
 11
34.8315
 21
12.4944
 31
0.0
  0
LINE
  5
5D9
  8
0
 62
1
 10
34.8315
 20
12.4944
 30
0.0
 11
34.825
 21
12.7
 31
0.0
  0
LINE
  5
5DA
  8
0
 62
1
 10
34.825
 20
12.7
 30
0.0
 11
34.8315
 21
12.9056
 31
0.0
  0
LINE
  5
5DB
  8
0
 62
1
 10
34.8315
 20
12.9056
 30
0.0
 11
34.8508
 21
13.1105
 31
0.0
  0
LINE
  5
5DC
  8
0
 62
1
 10
34.8508
 20
13.1105
 30
0.0
 11
34.883
 21
13.3137
 31
0.0
  0
LINE
  5
5DD
  8
0
 62
1
 10
34.883
 20
13.3137
 30
0.0
 11
34.9279
 21
13.5145
 31
0.0
  0
LINE
  5
5DE
  8
0
 62
1
 10
34.9279
 20
13.5145
 30
0.0
 11
34.9853
 21
13.712
 31
0.0
  0
LINE
  5
5DF
  8
0
 62
1
 10
34.9853
 20
13.712
 30
0.0
 11
35.055
 21
13.9056
 31
0.0
  0
LINE
  5
5E0
  8
0
 62
1
 10
35.055
 20
13.9056
 30
0.0
 11
35.1367
 21
14.0944
 31
0.0
  0
LINE
  5
5E1
  8
0
 62
1
 10
35.1367
 20
14.0944
 30
0.0
 11
35.2301
 21
14.2777
 31
0.0
  0
LINE
  5
5E2
  8
0
 62
1
 10
35.2301
 20
14.2777
 30
0.0
 11
35.3348
 21
14.4548
 31
0.0
  0
LINE
  5
5E3
  8
0
 62
1
 10
35.3348
 20
14.4548
 30
0.0
 11
35.4505
 21
14.625
 31
0.0
  0
LINE
  5
5E4
  8
0
 62
1
 10
35.4505
 20
14.625
 30
0.0
 11
35.5766
 21
14.7876
 31
0.0
  0
LINE
  5
5E5
  8
0
 62
1
 10
35.5766
 20
14.7876
 30
0.0
 11
35.7126
 21
14.9419
 31
0.0
  0
LINE
  5
5E6
  8
0
 62
1
 10
35.7126
 20
14.9419
 30
0.0
 11
35.8581
 21
15.0874
 31
0.0
  0
LINE
  5
5E7
  8
0
 62
1
 10
35.8581
 20
15.0874
 30
0.0
 11
36.0124
 21
15.2234
 31
0.0
  0
LINE
  5
5E8
  8
0
 62
1
 10
36.0124
 20
15.2234
 30
0.0
 11
36.175
 21
15.3495
 31
0.0
  0
LINE
  5
5E9
  8
0
 62
1
 10
36.175
 20
15.3495
 30
0.0
 11
36.3452
 21
15.4652
 31
0.0
  0
LINE
  5
5EA
  8
0
 62
1
 10
36.3452
 20
15.4652
 30
0.0
 11
36.5223
 21
15.5699
 31
0.0
  0
LINE
  5
5EB
  8
0
 62
1
 10
36.5223
 20
15.5699
 30
0.0
 11
36.7056
 21
15.6633
 31
0.0
  0
LINE
  5
5EC
  8
0
 62
1
 10
36.7056
 20
15.6633
 30
0.0
 11
36.8944
 21
15.745
 31
0.0
  0
LINE
  5
5ED
  8
0
 62
1
 10
36.8944
 20
15.745
 30
0.0
 11
37.088
 21
15.8147
 31
0.0
  0
LINE
  5
5EE
  8
0
 62
1
 10
37.088
 20
15.8147
 30
0.0
 11
37.2855
 21
15.8721
 31
0.0
  0
LINE
  5
5EF
  8
0
 62
1
 10
37.2855
 20
15.8721
 30
0.0
 11
37.4863
 21
15.917
 31
0.0
  0
LINE
  5
5F0
  8
0
 62
1
 10
37.4863
 20
15.917
 30
0.0
 11
37.6895
 21
15.9492
 31
0.0
  0
LINE
  5
5F1
  8
0
 62
1
 10
37.6895
 20
15.9492
 30
0.0
 11
37.8944
 21
15.9685
 31
0.0
  0
LINE
  5
5F2
  8
0
 62
1
 10
37.8944
 20
15.9685
 30
0.0
 11
38.1
 21
15.975
 31
0.0
  0
LINE
  5
5F3
  8
0
 62
1
 10
38.1
 20
15.975
 30
0.0
 11
38.3056
 21
15.9685
 31
0.0
  0
LINE
  5
5F4
  8
0
 62
1
 10
38.3056
 20
15.9685
 30
0.0
 11
38.5105
 21
15.9492
 31
0.0
  0
LINE
  5
5F5
  8
0
 62
1
 10
38.5105
 20
15.9492
 30
0.0
 11
38.7137
 21
15.917
 31
0.0
  0
LINE
  5
5F6
  8
0
 62
1
 10
38.7137
 20
15.917
 30
0.0
 11
38.9144
 21
15.8721
 31
0.0
  0
LINE
  5
5F7
  8
0
 62
1
 10
38.9144
 20
15.8721
 30
0.0
 11
39.112
 21
15.8147
 31
0.0
  0
LINE
  5
5F8
  8
0
 62
1
 10
39.112
 20
15.8147
 30
0.0
 11
39.3056
 21
15.745
 31
0.0
  0
LINE
  5
5F9
  8
0
 62
1
 10
39.3056
 20
15.745
 30
0.0
 11
39.4944
 21
15.6633
 31
0.0
  0
LINE
  5
5FA
  8
0
 62
1
 10
39.4944
 20
15.6633
 30
0.0
 11
39.6777
 21
15.5699
 31
0.0
  0
LINE
  5
5FB
  8
0
 62
1
 10
39.6777
 20
15.5699
 30
0.0
 11
39.8548
 21
15.4652
 31
0.0
  0
LINE
  5
5FC
  8
0
 62
1
 10
39.8548
 20
15.4652
 30
0.0
 11
40.025
 21
15.3495
 31
0.0
  0
LINE
  5
5FD
  8
0
 62
1
 10
40.025
 20
15.3495
 30
0.0
 11
40.1875
 21
15.2234
 31
0.0
  0
LINE
  5
5FE
  8
0
 62
1
 10
40.1875
 20
15.2234
 30
0.0
 11
40.3419
 21
15.0874
 31
0.0
  0
LINE
  5
5FF
  8
0
 62
1
 10
40.3419
 20
15.0874
 30
0.0
 11
40.4874
 21
14.9419
 31
0.0
  0
LINE
  5
600
  8
0
 62
1
 10
40.4874
 20
14.9419
 30
0.0
 11
40.6234
 21
14.7876
 31
0.0
  0
LINE
  5
601
  8
0
 62
1
 10
40.6234
 20
14.7876
 30
0.0
 11
40.7495
 21
14.625
 31
0.0
  0
LINE
  5
602
  8
0
 62
1
 10
40.7495
 20
14.625
 30
0.0
 11
40.8652
 21
14.4548
 31
0.0
  0
LINE
  5
603
  8
0
 62
1
 10
40.8652
 20
14.4548
 30
0.0
 11
40.9699
 21
14.2777
 31
0.0
  0
LINE
  5
604
  8
0
 62
1
 10
40.9699
 20
14.2777
 30
0.0
 11
41.0633
 21
14.0944
 31
0.0
  0
LINE
  5
605
  8
0
 62
1
 10
41.0633
 20
14.0944
 30
0.0
 11
41.145
 21
13.9056
 31
0.0
  0
LINE
  5
606
  8
0
 62
1
 10
41.145
 20
13.9056
 30
0.0
 11
41.2147
 21
13.712
 31
0.0
  0
LINE
  5
607
  8
0
 62
1
 10
41.2147
 20
13.712
 30
0.0
 11
41.2721
 21
13.5145
 31
0.0
  0
LINE
  5
608
  8
0
 62
1
 10
41.2721
 20
13.5145
 30
0.0
 11
41.317
 21
13.3137
 31
0.0
  0
LINE
  5
609
  8
0
 62
1
 10
41.317
 20
13.3137
 30
0.0
 11
41.3492
 21
13.1105
 31
0.0
  0
LINE
  5
60A
  8
0
 62
1
 10
41.3492
 20
13.1105
 30
0.0
 11
41.3685
 21
12.9056
 31
0.0
  0
LINE
  5
60B
  8
0
 62
1
 10
41.3685
 20
12.9056
 30
0.0
 11
41.375
 21
12.7
 31
0.0
  0
LINE
  5
60C
  8
0
 62
1
 10
41.375
 20
12.7
 30
0.0
 11
41.3685
 21
12.4944
 31
0.0
  0
LINE
  5
60D
  8
0
 62
1
 10
41.3685
 20
12.4944
 30
0.0
 11
41.3492
 21
12.2895
 31
0.0
  0
LINE
  5
60E
  8
0
 62
1
 10
41.3492
 20
12.2895
 30
0.0
 11
41.317
 21
12.0863
 31
0.0
  0
LINE
  5
60F
  8
0
 62
1
 10
41.317
 20
12.0863
 30
0.0
 11
41.2721
 21
11.8855
 31
0.0
  0
LINE
  5
610
  8
0
 62
1
 10
41.2721
 20
11.8855
 30
0.0
 11
41.2147
 21
11.688
 31
0.0
  0
LINE
  5
611
  8
0
 62
1
 10
41.2147
 20
11.688
 30
0.0
 11
41.145
 21
11.4944
 31
0.0
  0
LINE
  5
612
  8
0
 62
1
 10
41.145
 20
11.4944
 30
0.0
 11
41.0633
 21
11.3056
 31
0.0
  0
LINE
  5
613
  8
0
 62
1
 10
41.0633
 20
11.3056
 30
0.0
 11
40.9699
 21
11.1223
 31
0.0
  0
LINE
  5
614
  8
0
 62
1
 10
40.9699
 20
11.1223
 30
0.0
 11
40.8652
 21
10.9452
 31
0.0
  0
LINE
  5
615
  8
0
 62
1
 10
40.8652
 20
10.9452
 30
0.0
 11
40.7495
 21
10.775
 31
0.0
  0
LINE
  5
616
  8
0
 62
1
 10
40.7495
 20
10.775
 30
0.0
 11
40.6234
 21
10.6124
 31
0.0
  0
LINE
  5
617
  8
0
 62
1
 10
40.6234
 20
10.6124
 30
0.0
 11
40.4874
 21
10.4581
 31
0.0
  0
LINE
  5
618
  8
0
 62
1
 10
40.4874
 20
10.4581
 30
0.0
 11
40.3419
 21
10.3126
 31
0.0
  0
LINE
  5
619
  8
0
 62
1
 10
40.3419
 20
10.3126
 30
0.0
 11
40.1875
 21
10.1766
 31
0.0
  0
LINE
  5
61A
  8
0
 62
1
 10
40.1875
 20
10.1766
 30
0.0
 11
40.025
 21
10.0505
 31
0.0
  0
LINE
  5
61B
  8
0
 62
1
 10
40.025
 20
10.0505
 30
0.0
 11
39.8548
 21
9.93483
 31
0.0
  0
LINE
  5
61C
  8
0
 62
1
 10
39.8548
 20
9.93483
 30
0.0
 11
39.6777
 21
9.83009
 31
0.0
  0
LINE
  5
61D
  8
0
 62
1
 10
39.6777
 20
9.83009
 30
0.0
 11
39.4944
 21
9.73669
 31
0.0
  0
LINE
  5
61E
  8
0
 62
1
 10
39.4944
 20
9.73669
 30
0.0
 11
39.3056
 21
9.65498
 31
0.0
  0
LINE
  5
61F
  8
0
 62
1
 10
39.3056
 20
9.65498
 30
0.0
 11
39.112
 21
9.5853
 31
0.0
  0
LINE
  5
620
  8
0
 62
1
 10
39.112
 20
9.5853
 30
0.0
 11
38.9144
 21
9.52789
 31
0.0
  0
LINE
  5
621
  8
0
 62
1
 10
38.9144
 20
9.52789
 30
0.0
 11
38.7137
 21
9.48302
 31
0.0
  0
LINE
  5
622
  8
0
 62
1
 10
38.7137
 20
9.48302
 30
0.0
 11
38.5105
 21
9.45084
 31
0.0
  0
LINE
  5
623
  8
0
 62
1
 10
38.5105
 20
9.45084
 30
0.0
 11
38.3056
 21
9.43147
 31
0.0
  0
LINE
  5
624
  8
0
 62
1
 10
38.3056
 20
9.43147
 30
0.0
 11
38.1
 21
9.425
 31
0.0
  0
LINE
  5
625
  8
0
 62
1
 10
38.1
 20
9.425
 30
0.0
 11
37.8944
 21
9.43147
 31
0.0
  0
LINE
  5
626
  8
0
 62
1
 10
12.4944
 20
9.43147
 30
0.0
 11
12.2895
 21
9.45084
 31
0.0
  0
LINE
  5
627
  8
0
 62
1
 10
12.2895
 20
9.45084
 30
0.0
 11
12.0863
 21
9.48302
 31
0.0
  0
LINE
  5
628
  8
0
 62
1
 10
12.0863
 20
9.48302
 30
0.0
 11
11.8855
 21
9.52791
 31
0.0
  0
LINE
  5
629
  8
0
 62
1
 10
11.8855
 20
9.52791
 30
0.0
 11
11.688
 21
9.5853
 31
0.0
  0
LINE
  5
62A
  8
0
 62
1
 10
11.688
 20
9.5853
 30
0.0
 11
11.4944
 21
9.655
 31
0.0
  0
LINE
  5
62B
  8
0
 62
1
 10
11.4944
 20
9.655
 30
0.0
 11
11.3056
 21
9.73671
 31
0.0
  0
LINE
  5
62C
  8
0
 62
1
 10
11.3056
 20
9.73671
 30
0.0
 11
11.1223
 21
9.83011
 31
0.0
  0
LINE
  5
62D
  8
0
 62
1
 10
11.1223
 20
9.83011
 30
0.0
 11
10.9452
 21
9.93484
 31
0.0
  0
LINE
  5
62E
  8
0
 62
1
 10
10.9452
 20
9.93484
 30
0.0
 11
10.775
 21
10.0505
 31
0.0
  0
LINE
  5
62F
  8
0
 62
1
 10
10.775
 20
10.0505
 30
0.0
 11
10.6124
 21
10.1766
 31
0.0
  0
LINE
  5
630
  8
0
 62
1
 10
10.6124
 20
10.1766
 30
0.0
 11
10.4581
 21
10.3126
 31
0.0
  0
LINE
  5
631
  8
0
 62
1
 10
10.4581
 20
10.3126
 30
0.0
 11
10.3126
 21
10.4581
 31
0.0
  0
LINE
  5
632
  8
0
 62
1
 10
10.3126
 20
10.4581
 30
0.0
 11
10.1766
 21
10.6125
 31
0.0
  0
LINE
  5
633
  8
0
 62
1
 10
10.1766
 20
10.6125
 30
0.0
 11
10.0505
 21
10.775
 31
0.0
  0
LINE
  5
634
  8
0
 62
1
 10
10.0505
 20
10.775
 30
0.0
 11
9.93483
 21
10.9452
 31
0.0
  0
LINE
  5
635
  8
0
 62
1
 10
9.93483
 20
10.9452
 30
0.0
 11
9.83009
 21
11.1223
 31
0.0
  0
LINE
  5
636
  8
0
 62
1
 10
9.83009
 20
11.1223
 30
0.0
 11
9.73669
 21
11.3056
 31
0.0
  0
LINE
  5
637
  8
0
 62
1
 10
9.73669
 20
11.3056
 30
0.0
 11
9.65498
 21
11.4944
 31
0.0
  0
LINE
  5
638
  8
0
 62
1
 10
9.65498
 20
11.4944
 30
0.0
 11
9.5853
 21
11.688
 31
0.0
  0
LINE
  5
639
  8
0
 62
1
 10
9.5853
 20
11.688
 30
0.0
 11
9.52789
 21
11.8856
 31
0.0
  0
LINE
  5
63A
  8
0
 62
1
 10
9.52789
 20
11.8856
 30
0.0
 11
9.48302
 21
12.0863
 31
0.0
  0
LINE
  5
63B
  8
0
 62
1
 10
9.48302
 20
12.0863
 30
0.0
 11
9.45084
 21
12.2896
 31
0.0
  0
LINE
  5
63C
  8
0
 62
1
 10
9.45084
 20
12.2896
 30
0.0
 11
9.43147
 21
12.4944
 31
0.0
  0
LINE
  5
63D
  8
0
 62
1
 10
9.43147
 20
12.4944
 30
0.0
 11
9.425
 21
12.7
 31
0.0
  0
LINE
  5
63E
  8
0
 62
1
 10
9.425
 20
12.7
 30
0.0
 11
9.43147
 21
12.9056
 31
0.0
  0
LINE
  5
63F
  8
0
 62
1
 10
9.43147
 20
12.9056
 30
0.0
 11
9.45084
 21
13.1105
 31
0.0
  0
LINE
  5
640
  8
0
 62
1
 10
9.45084
 20
13.1105
 30
0.0
 11
9.48302
 21
13.3137
 31
0.0
  0
LINE
  5
641
  8
0
 62
1
 10
9.48302
 20
13.3137
 30
0.0
 11
9.52789
 21
13.5145
 31
0.0
  0
LINE
  5
642
  8
0
 62
1
 10
9.52789
 20
13.5145
 30
0.0
 11
9.5853
 21
13.712
 31
0.0
  0
LINE
  5
643
  8
0
 62
1
 10
9.5853
 20
13.712
 30
0.0
 11
9.65498
 21
13.9056
 31
0.0
  0
LINE
  5
644
  8
0
 62
1
 10
9.65498
 20
13.9056
 30
0.0
 11
9.73669
 21
14.0944
 31
0.0
  0
LINE
  5
645
  8
0
 62
1
 10
9.73669
 20
14.0944
 30
0.0
 11
9.83009
 21
14.2777
 31
0.0
  0
LINE
  5
646
  8
0
 62
1
 10
9.83009
 20
14.2777
 30
0.0
 11
9.93483
 21
14.4548
 31
0.0
  0
LINE
  5
647
  8
0
 62
1
 10
9.93483
 20
14.4548
 30
0.0
 11
10.0505
 21
14.625
 31
0.0
  0
LINE
  5
648
  8
0
 62
1
 10
10.0505
 20
14.625
 30
0.0
 11
10.1766
 21
14.7876
 31
0.0
  0
LINE
  5
649
  8
0
 62
1
 10
10.1766
 20
14.7876
 30
0.0
 11
10.3126
 21
14.9419
 31
0.0
  0
LINE
  5
64A
  8
0
 62
1
 10
10.3126
 20
14.9419
 30
0.0
 11
10.4581
 21
15.0874
 31
0.0
  0
LINE
  5
64B
  8
0
 62
1
 10
10.4581
 20
15.0874
 30
0.0
 11
10.6124
 21
15.2234
 31
0.0
  0
LINE
  5
64C
  8
0
 62
1
 10
10.6124
 20
15.2234
 30
0.0
 11
10.775
 21
15.3495
 31
0.0
  0
LINE
  5
64D
  8
0
 62
1
 10
10.775
 20
15.3495
 30
0.0
 11
10.9452
 21
15.4652
 31
0.0
  0
LINE
  5
64E
  8
0
 62
1
 10
10.9452
 20
15.4652
 30
0.0
 11
11.1223
 21
15.5699
 31
0.0
  0
LINE
  5
64F
  8
0
 62
1
 10
11.1223
 20
15.5699
 30
0.0
 11
11.3056
 21
15.6633
 31
0.0
  0
LINE
  5
650
  8
0
 62
1
 10
11.3056
 20
15.6633
 30
0.0
 11
11.4944
 21
15.745
 31
0.0
  0
LINE
  5
651
  8
0
 62
1
 10
11.4944
 20
15.745
 30
0.0
 11
11.688
 21
15.8147
 31
0.0
  0
LINE
  5
652
  8
0
 62
1
 10
11.688
 20
15.8147
 30
0.0
 11
11.8855
 21
15.8721
 31
0.0
  0
LINE
  5
653
  8
0
 62
1
 10
11.8855
 20
15.8721
 30
0.0
 11
12.0863
 21
15.917
 31
0.0
  0
LINE
  5
654
  8
0
 62
1
 10
12.0863
 20
15.917
 30
0.0
 11
12.2895
 21
15.9492
 31
0.0
  0
LINE
  5
655
  8
0
 62
1
 10
12.2895
 20
15.9492
 30
0.0
 11
12.4944
 21
15.9685
 31
0.0
  0
LINE
  5
656
  8
0
 62
1
 10
12.4944
 20
15.9685
 30
0.0
 11
12.7
 21
15.975
 31
0.0
  0
LINE
  5
657
  8
0
 62
1
 10
12.7
 20
15.975
 30
0.0
 11
12.9056
 21
15.9685
 31
0.0
  0
LINE
  5
658
  8
0
 62
1
 10
12.9056
 20
15.9685
 30
0.0
 11
13.1105
 21
15.9492
 31
0.0
  0
LINE
  5
659
  8
0
 62
1
 10
13.1105
 20
15.9492
 30
0.0
 11
13.3137
 21
15.917
 31
0.0
  0
LINE
  5
65A
  8
0
 62
1
 10
13.3137
 20
15.917
 30
0.0
 11
13.5145
 21
15.8721
 31
0.0
  0
LINE
  5
65B
  8
0
 62
1
 10
13.5145
 20
15.8721
 30
0.0
 11
13.712
 21
15.8147
 31
0.0
  0
LINE
  5
65C
  8
0
 62
1
 10
13.712
 20
15.8147
 30
0.0
 11
13.9056
 21
15.745
 31
0.0
  0
LINE
  5
65D
  8
0
 62
1
 10
13.9056
 20
15.745
 30
0.0
 11
14.0944
 21
15.6633
 31
0.0
  0
LINE
  5
65E
  8
0
 62
1
 10
14.0944
 20
15.6633
 30
0.0
 11
14.2777
 21
15.5699
 31
0.0
  0
LINE
  5
65F
  8
0
 62
1
 10
14.2777
 20
15.5699
 30
0.0
 11
14.4548
 21
15.4652
 31
0.0
  0
LINE
  5
660
  8
0
 62
1
 10
14.4548
 20
15.4652
 30
0.0
 11
14.625
 21
15.3495
 31
0.0
  0
LINE
  5
661
  8
0
 62
1
 10
14.625
 20
15.3495
 30
0.0
 11
14.7876
 21
15.2234
 31
0.0
  0
LINE
  5
662
  8
0
 62
1
 10
14.7876
 20
15.2234
 30
0.0
 11
14.9419
 21
15.0874
 31
0.0
  0
LINE
  5
663
  8
0
 62
1
 10
14.9419
 20
15.0874
 30
0.0
 11
15.0874
 21
14.9419
 31
0.0
  0
LINE
  5
664
  8
0
 62
1
 10
15.0874
 20
14.9419
 30
0.0
 11
15.2234
 21
14.7876
 31
0.0
  0
LINE
  5
665
  8
0
 62
1
 10
15.2234
 20
14.7876
 30
0.0
 11
15.3495
 21
14.625
 31
0.0
  0
LINE
  5
666
  8
0
 62
1
 10
15.3495
 20
14.625
 30
0.0
 11
15.4652
 21
14.4548
 31
0.0
  0
LINE
  5
667
  8
0
 62
1
 10
15.4652
 20
14.4548
 30
0.0
 11
15.5699
 21
14.2777
 31
0.0
  0
LINE
  5
668
  8
0
 62
1
 10
15.5699
 20
14.2777
 30
0.0
 11
15.6633
 21
14.0944
 31
0.0
  0
LINE
  5
669
  8
0
 62
1
 10
15.6633
 20
14.0944
 30
0.0
 11
15.745
 21
13.9056
 31
0.0
  0
LINE
  5
66A
  8
0
 62
1
 10
15.745
 20
13.9056
 30
0.0
 11
15.8147
 21
13.712
 31
0.0
  0
LINE
  5
66B
  8
0
 62
1
 10
15.8147
 20
13.712
 30
0.0
 11
15.8721
 21
13.5145
 31
0.0
  0
LINE
  5
66C
  8
0
 62
1
 10
15.8721
 20
13.5145
 30
0.0
 11
15.917
 21
13.3137
 31
0.0
  0
LINE
  5
66D
  8
0
 62
1
 10
15.917
 20
13.3137
 30
0.0
 11
15.9492
 21
13.1105
 31
0.0
  0
LINE
  5
66E
  8
0
 62
1
 10
15.9492
 20
13.1105
 30
0.0
 11
15.9685
 21
12.9056
 31
0.0
  0
LINE
  5
66F
  8
0
 62
1
 10
15.9685
 20
12.9056
 30
0.0
 11
15.975
 21
12.7
 31
0.0
  0
LINE
  5
670
  8
0
 62
1
 10
15.975
 20
12.7
 30
0.0
 11
15.9685
 21
12.4944
 31
0.0
  0
LINE
  5
671
  8
0
 62
1
 10
15.9685
 20
12.4944
 30
0.0
 11
15.9492
 21
12.2896
 31
0.0
  0
LINE
  5
672
  8
0
 62
1
 10
15.9492
 20
12.2896
 30
0.0
 11
15.917
 21
12.0863
 31
0.0
  0
LINE
  5
673
  8
0
 62
1
 10
15.917
 20
12.0863
 30
0.0
 11
15.8721
 21
11.8856
 31
0.0
  0
LINE
  5
674
  8
0
 62
1
 10
15.8721
 20
11.8856
 30
0.0
 11
15.8147
 21
11.688
 31
0.0
  0
LINE
  5
675
  8
0
 62
1
 10
15.8147
 20
11.688
 30
0.0
 11
15.745
 21
11.4944
 31
0.0
  0
LINE
  5
676
  8
0
 62
1
 10
15.745
 20
11.4944
 30
0.0
 11
15.6633
 21
11.3056
 31
0.0
  0
LINE
  5
677
  8
0
 62
1
 10
15.6633
 20
11.3056
 30
0.0
 11
15.5699
 21
11.1223
 31
0.0
  0
LINE
  5
678
  8
0
 62
1
 10
15.5699
 20
11.1223
 30
0.0
 11
15.4652
 21
10.9452
 31
0.0
  0
LINE
  5
679
  8
0
 62
1
 10
15.4652
 20
10.9452
 30
0.0
 11
15.3495
 21
10.775
 31
0.0
  0
LINE
  5
67A
  8
0
 62
1
 10
15.3495
 20
10.775
 30
0.0
 11
15.2234
 21
10.6125
 31
0.0
  0
LINE
  5
67B
  8
0
 62
1
 10
15.2234
 20
10.6125
 30
0.0
 11
15.0874
 21
10.4581
 31
0.0
  0
LINE
  5
67C
  8
0
 62
1
 10
15.0874
 20
10.4581
 30
0.0
 11
14.9419
 21
10.3126
 31
0.0
  0
LINE
  5
67D
  8
0
 62
1
 10
14.9419
 20
10.3126
 30
0.0
 11
14.7876
 21
10.1766
 31
0.0
  0
LINE
  5
67E
  8
0
 62
1
 10
14.7876
 20
10.1766
 30
0.0
 11
14.625
 21
10.0505
 31
0.0
  0
LINE
  5
67F
  8
0
 62
1
 10
14.625
 20
10.0505
 30
0.0
 11
14.4548
 21
9.93484
 31
0.0
  0
LINE
  5
680
  8
0
 62
1
 10
14.4548
 20
9.93484
 30
0.0
 11
14.2777
 21
9.83011
 31
0.0
  0
LINE
  5
681
  8
0
 62
1
 10
14.2777
 20
9.83011
 30
0.0
 11
14.0944
 21
9.73671
 31
0.0
  0
LINE
  5
682
  8
0
 62
1
 10
14.0944
 20
9.73671
 30
0.0
 11
13.9056
 21
9.655
 31
0.0
  0
LINE
  5
683
  8
0
 62
1
 10
13.9056
 20
9.655
 30
0.0
 11
13.712
 21
9.5853
 31
0.0
  0
LINE
  5
684
  8
0
 62
1
 10
13.712
 20
9.5853
 30
0.0
 11
13.5145
 21
9.52791
 31
0.0
  0
LINE
  5
685
  8
0
 62
1
 10
13.5145
 20
9.52791
 30
0.0
 11
13.3137
 21
9.48302
 31
0.0
  0
LINE
  5
686
  8
0
 62
1
 10
13.3137
 20
9.48302
 30
0.0
 11
13.1105
 21
9.45084
 31
0.0
  0
LINE
  5
687
  8
0
 62
1
 10
13.1105
 20
9.45084
 30
0.0
 11
12.9056
 21
9.43147
 31
0.0
  0
LINE
  5
688
  8
0
 62
1
 10
12.9056
 20
9.43147
 30
0.0
 11
12.7
 21
9.42502
 31
0.0
  0
LINE
  5
689
  8
0
 62
1
 10
12.7
 20
9.42502
 30
0.0
 11
12.4944
 21
9.43147
 31
0.0
  0
LINE
  5
68A
  8
0
 62
1
 10
63.2943
 20
9.43147
 30
0.0
 11
63.0895
 21
9.45084
 31
0.0
  0
LINE
  5
68B
  8
0
 62
1
 10
63.0895
 20
9.45084
 30
0.0
 11
62.8863
 21
9.48302
 31
0.0
  0
LINE
  5
68C
  8
0
 62
1
 10
62.8863
 20
9.48302
 30
0.0
 11
62.6855
 21
9.52789
 31
0.0
  0
LINE
  5
68D
  8
0
 62
1
 10
62.6855
 20
9.52789
 30
0.0
 11
62.4879
 21
9.5853
 31
0.0
  0
LINE
  5
68E
  8
0
 62
1
 10
62.4879
 20
9.5853
 30
0.0
 11
62.2944
 21
9.65498
 31
0.0
  0
LINE
  5
68F
  8
0
 62
1
 10
62.2944
 20
9.65498
 30
0.0
 11
62.1056
 21
9.73669
 31
0.0
  0
LINE
  5
690
  8
0
 62
1
 10
62.1056
 20
9.73669
 30
0.0
 11
61.9222
 21
9.83009
 31
0.0
  0
LINE
  5
691
  8
0
 62
1
 10
61.9222
 20
9.83009
 30
0.0
 11
61.7451
 21
9.93483
 31
0.0
  0
LINE
  5
692
  8
0
 62
1
 10
61.7451
 20
9.93483
 30
0.0
 11
61.575
 21
10.0505
 31
0.0
  0
LINE
  5
693
  8
0
 62
1
 10
61.575
 20
10.0505
 30
0.0
 11
61.4124
 21
10.1766
 31
0.0
  0
LINE
  5
694
  8
0
 62
1
 10
61.4124
 20
10.1766
 30
0.0
 11
61.2581
 21
10.3126
 31
0.0
  0
LINE
  5
695
  8
0
 62
1
 10
61.2581
 20
10.3126
 30
0.0
 11
61.1126
 21
10.4581
 31
0.0
  0
LINE
  5
696
  8
0
 62
1
 10
61.1126
 20
10.4581
 30
0.0
 11
60.9765
 21
10.6124
 31
0.0
  0
LINE
  5
697
  8
0
 62
1
 10
60.9765
 20
10.6124
 30
0.0
 11
60.8504
 21
10.775
 31
0.0
  0
LINE
  5
698
  8
0
 62
1
 10
60.8504
 20
10.775
 30
0.0
 11
60.7348
 21
10.9452
 31
0.0
  0
LINE
  5
699
  8
0
 62
1
 10
60.7348
 20
10.9452
 30
0.0
 11
60.6301
 21
11.1223
 31
0.0
  0
LINE
  5
69A
  8
0
 62
1
 10
60.6301
 20
11.1223
 30
0.0
 11
60.5367
 21
11.3056
 31
0.0
  0
LINE
  5
69B
  8
0
 62
1
 10
60.5367
 20
11.3056
 30
0.0
 11
60.455
 21
11.4944
 31
0.0
  0
LINE
  5
69C
  8
0
 62
1
 10
60.455
 20
11.4944
 30
0.0
 11
60.3853
 21
11.688
 31
0.0
  0
LINE
  5
69D
  8
0
 62
1
 10
60.3853
 20
11.688
 30
0.0
 11
60.3279
 21
11.8855
 31
0.0
  0
LINE
  5
69E
  8
0
 62
1
 10
60.3279
 20
11.8855
 30
0.0
 11
60.283
 21
12.0863
 31
0.0
  0
LINE
  5
69F
  8
0
 62
1
 10
60.283
 20
12.0863
 30
0.0
 11
60.2508
 21
12.2895
 31
0.0
  0
LINE
  5
6A0
  8
0
 62
1
 10
60.2508
 20
12.2895
 30
0.0
 11
60.2314
 21
12.4944
 31
0.0
  0
LINE
  5
6A1
  8
0
 62
1
 10
60.2314
 20
12.4944
 30
0.0
 11
60.225
 21
12.7
 31
0.0
  0
LINE
  5
6A2
  8
0
 62
1
 10
60.225
 20
12.7
 30
0.0
 11
60.2314
 21
12.9056
 31
0.0
  0
LINE
  5
6A3
  8
0
 62
1
 10
60.2314
 20
12.9056
 30
0.0
 11
60.2508
 21
13.1105
 31
0.0
  0
LINE
  5
6A4
  8
0
 62
1
 10
60.2508
 20
13.1105
 30
0.0
 11
60.283
 21
13.3137
 31
0.0
  0
LINE
  5
6A5
  8
0
 62
1
 10
60.283
 20
13.3137
 30
0.0
 11
60.3279
 21
13.5145
 31
0.0
  0
LINE
  5
6A6
  8
0
 62
1
 10
60.3279
 20
13.5145
 30
0.0
 11
60.3853
 21
13.712
 31
0.0
  0
LINE
  5
6A7
  8
0
 62
1
 10
60.3853
 20
13.712
 30
0.0
 11
60.455
 21
13.9056
 31
0.0
  0
LINE
  5
6A8
  8
0
 62
1
 10
60.455
 20
13.9056
 30
0.0
 11
60.5367
 21
14.0944
 31
0.0
  0
LINE
  5
6A9
  8
0
 62
1
 10
60.5367
 20
14.0944
 30
0.0
 11
60.6301
 21
14.2777
 31
0.0
  0
LINE
  5
6AA
  8
0
 62
1
 10
60.6301
 20
14.2777
 30
0.0
 11
60.7348
 21
14.4548
 31
0.0
  0
LINE
  5
6AB
  8
0
 62
1
 10
60.7348
 20
14.4548
 30
0.0
 11
60.8504
 21
14.625
 31
0.0
  0
LINE
  5
6AC
  8
0
 62
1
 10
60.8504
 20
14.625
 30
0.0
 11
60.9765
 21
14.7876
 31
0.0
  0
LINE
  5
6AD
  8
0
 62
1
 10
60.9765
 20
14.7876
 30
0.0
 11
61.1126
 21
14.9419
 31
0.0
  0
LINE
  5
6AE
  8
0
 62
1
 10
61.1126
 20
14.9419
 30
0.0
 11
61.2581
 21
15.0874
 31
0.0
  0
LINE
  5
6AF
  8
0
 62
1
 10
61.2581
 20
15.0874
 30
0.0
 11
61.4124
 21
15.2234
 31
0.0
  0
LINE
  5
6B0
  8
0
 62
1
 10
61.4124
 20
15.2234
 30
0.0
 11
61.575
 21
15.3495
 31
0.0
  0
LINE
  5
6B1
  8
0
 62
1
 10
61.575
 20
15.3495
 30
0.0
 11
61.7451
 21
15.4652
 31
0.0
  0
LINE
  5
6B2
  8
0
 62
1
 10
61.7451
 20
15.4652
 30
0.0
 11
61.9222
 21
15.5699
 31
0.0
  0
LINE
  5
6B3
  8
0
 62
1
 10
61.9222
 20
15.5699
 30
0.0
 11
62.1056
 21
15.6633
 31
0.0
  0
LINE
  5
6B4
  8
0
 62
1
 10
62.1056
 20
15.6633
 30
0.0
 11
62.2944
 21
15.745
 31
0.0
  0
LINE
  5
6B5
  8
0
 62
1
 10
62.2944
 20
15.745
 30
0.0
 11
62.4879
 21
15.8147
 31
0.0
  0
LINE
  5
6B6
  8
0
 62
1
 10
62.4879
 20
15.8147
 30
0.0
 11
62.6855
 21
15.8721
 31
0.0
  0
LINE
  5
6B7
  8
0
 62
1
 10
62.6855
 20
15.8721
 30
0.0
 11
62.8863
 21
15.917
 31
0.0
  0
LINE
  5
6B8
  8
0
 62
1
 10
62.8863
 20
15.917
 30
0.0
 11
63.0895
 21
15.9492
 31
0.0
  0
LINE
  5
6B9
  8
0
 62
1
 10
63.0895
 20
15.9492
 30
0.0
 11
63.2943
 21
15.9685
 31
0.0
  0
LINE
  5
6BA
  8
0
 62
1
 10
63.2943
 20
15.9685
 30
0.0
 11
63.5
 21
15.975
 31
0.0
  0
LINE
  5
6BB
  8
0
 62
1
 10
63.5
 20
15.975
 30
0.0
 11
63.7056
 21
15.9685
 31
0.0
  0
LINE
  5
6BC
  8
0
 62
1
 10
63.7056
 20
15.9685
 30
0.0
 11
63.9104
 21
15.9492
 31
0.0
  0
LINE
  5
6BD
  8
0
 62
1
 10
63.9104
 20
15.9492
 30
0.0
 11
64.1137
 21
15.917
 31
0.0
  0
LINE
  5
6BE
  8
0
 62
1
 10
64.1137
 20
15.917
 30
0.0
 11
64.3144
 21
15.8721
 31
0.0
  0
LINE
  5
6BF
  8
0
 62
1
 10
64.3144
 20
15.8721
 30
0.0
 11
64.512
 21
15.8147
 31
0.0
  0
LINE
  5
6C0
  8
0
 62
1
 10
64.512
 20
15.8147
 30
0.0
 11
64.7056
 21
15.745
 31
0.0
  0
LINE
  5
6C1
  8
0
 62
1
 10
64.7056
 20
15.745
 30
0.0
 11
64.8944
 21
15.6633
 31
0.0
  0
LINE
  5
6C2
  8
0
 62
1
 10
64.8944
 20
15.6633
 30
0.0
 11
65.0777
 21
15.5699
 31
0.0
  0
LINE
  5
6C3
  8
0
 62
1
 10
65.0777
 20
15.5699
 30
0.0
 11
65.2548
 21
15.4652
 31
0.0
  0
LINE
  5
6C4
  8
0
 62
1
 10
65.2548
 20
15.4652
 30
0.0
 11
65.425
 21
15.3495
 31
0.0
  0
LINE
  5
6C5
  8
0
 62
1
 10
65.425
 20
15.3495
 30
0.0
 11
65.5875
 21
15.2234
 31
0.0
  0
LINE
  5
6C6
  8
0
 62
1
 10
65.5875
 20
15.2234
 30
0.0
 11
65.7419
 21
15.0874
 31
0.0
  0
LINE
  5
6C7
  8
0
 62
1
 10
65.7419
 20
15.0874
 30
0.0
 11
65.8874
 21
14.9419
 31
0.0
  0
LINE
  5
6C8
  8
0
 62
1
 10
65.8874
 20
14.9419
 30
0.0
 11
66.0234
 21
14.7876
 31
0.0
  0
LINE
  5
6C9
  8
0
 62
1
 10
66.0234
 20
14.7876
 30
0.0
 11
66.1495
 21
14.625
 31
0.0
  0
LINE
  5
6CA
  8
0
 62
1
 10
66.1495
 20
14.625
 30
0.0
 11
66.2652
 21
14.4548
 31
0.0
  0
LINE
  5
6CB
  8
0
 62
1
 10
66.2652
 20
14.4548
 30
0.0
 11
66.3699
 21
14.2777
 31
0.0
  0
LINE
  5
6CC
  8
0
 62
1
 10
66.3699
 20
14.2777
 30
0.0
 11
66.4633
 21
14.0944
 31
0.0
  0
LINE
  5
6CD
  8
0
 62
1
 10
66.4633
 20
14.0944
 30
0.0
 11
66.545
 21
13.9056
 31
0.0
  0
LINE
  5
6CE
  8
0
 62
1
 10
66.545
 20
13.9056
 30
0.0
 11
66.6147
 21
13.712
 31
0.0
  0
LINE
  5
6CF
  8
0
 62
1
 10
66.6147
 20
13.712
 30
0.0
 11
66.6721
 21
13.5145
 31
0.0
  0
LINE
  5
6D0
  8
0
 62
1
 10
66.6721
 20
13.5145
 30
0.0
 11
66.717
 21
13.3137
 31
0.0
  0
LINE
  5
6D1
  8
0
 62
1
 10
66.717
 20
13.3137
 30
0.0
 11
66.7492
 21
13.1105
 31
0.0
  0
LINE
  5
6D2
  8
0
 62
1
 10
66.7492
 20
13.1105
 30
0.0
 11
66.7685
 21
12.9056
 31
0.0
  0
LINE
  5
6D3
  8
0
 62
1
 10
66.7685
 20
12.9056
 30
0.0
 11
66.775
 21
12.7
 31
0.0
  0
LINE
  5
6D4
  8
0
 62
1
 10
66.775
 20
12.7
 30
0.0
 11
66.7685
 21
12.4944
 31
0.0
  0
LINE
  5
6D5
  8
0
 62
1
 10
66.7685
 20
12.4944
 30
0.0
 11
66.7492
 21
12.2895
 31
0.0
  0
LINE
  5
6D6
  8
0
 62
1
 10
66.7492
 20
12.2895
 30
0.0
 11
66.717
 21
12.0863
 31
0.0
  0
LINE
  5
6D7
  8
0
 62
1
 10
66.717
 20
12.0863
 30
0.0
 11
66.6721
 21
11.8855
 31
0.0
  0
LINE
  5
6D8
  8
0
 62
1
 10
66.6721
 20
11.8855
 30
0.0
 11
66.6147
 21
11.688
 31
0.0
  0
LINE
  5
6D9
  8
0
 62
1
 10
66.6147
 20
11.688
 30
0.0
 11
66.545
 21
11.4944
 31
0.0
  0
LINE
  5
6DA
  8
0
 62
1
 10
66.545
 20
11.4944
 30
0.0
 11
66.4633
 21
11.3056
 31
0.0
  0
LINE
  5
6DB
  8
0
 62
1
 10
66.4633
 20
11.3056
 30
0.0
 11
66.3699
 21
11.1223
 31
0.0
  0
LINE
  5
6DC
  8
0
 62
1
 10
66.3699
 20
11.1223
 30
0.0
 11
66.2652
 21
10.9452
 31
0.0
  0
LINE
  5
6DD
  8
0
 62
1
 10
66.2652
 20
10.9452
 30
0.0
 11
66.1495
 21
10.775
 31
0.0
  0
LINE
  5
6DE
  8
0
 62
1
 10
66.1495
 20
10.775
 30
0.0
 11
66.0234
 21
10.6124
 31
0.0
  0
LINE
  5
6DF
  8
0
 62
1
 10
66.0234
 20
10.6124
 30
0.0
 11
65.8874
 21
10.4581
 31
0.0
  0
LINE
  5
6E0
  8
0
 62
1
 10
65.8874
 20
10.4581
 30
0.0
 11
65.7419
 21
10.3126
 31
0.0
  0
LINE
  5
6E1
  8
0
 62
1
 10
65.7419
 20
10.3126
 30
0.0
 11
65.5875
 21
10.1766
 31
0.0
  0
LINE
  5
6E2
  8
0
 62
1
 10
65.5875
 20
10.1766
 30
0.0
 11
65.425
 21
10.0505
 31
0.0
  0
LINE
  5
6E3
  8
0
 62
1
 10
65.425
 20
10.0505
 30
0.0
 11
65.2548
 21
9.93483
 31
0.0
  0
LINE
  5
6E4
  8
0
 62
1
 10
65.2548
 20
9.93483
 30
0.0
 11
65.0777
 21
9.83009
 31
0.0
  0
LINE
  5
6E5
  8
0
 62
1
 10
65.0777
 20
9.83009
 30
0.0
 11
64.8944
 21
9.73669
 31
0.0
  0
LINE
  5
6E6
  8
0
 62
1
 10
64.8944
 20
9.73669
 30
0.0
 11
64.7056
 21
9.65498
 31
0.0
  0
LINE
  5
6E7
  8
0
 62
1
 10
64.7056
 20
9.65498
 30
0.0
 11
64.512
 21
9.5853
 31
0.0
  0
LINE
  5
6E8
  8
0
 62
1
 10
64.512
 20
9.5853
 30
0.0
 11
64.3144
 21
9.52789
 31
0.0
  0
LINE
  5
6E9
  8
0
 62
1
 10
64.3144
 20
9.52789
 30
0.0
 11
64.1137
 21
9.48302
 31
0.0
  0
LINE
  5
6EA
  8
0
 62
1
 10
64.1137
 20
9.48302
 30
0.0
 11
63.9104
 21
9.45084
 31
0.0
  0
LINE
  5
6EB
  8
0
 62
1
 10
63.9104
 20
9.45084
 30
0.0
 11
63.7056
 21
9.43147
 31
0.0
  0
LINE
  5
6EC
  8
0
 62
1
 10
63.7056
 20
9.43147
 30
0.0
 11
63.5
 21
9.425
 31
0.0
  0
LINE
  5
6ED
  8
0
 62
1
 10
63.5
 20
9.425
 30
0.0
 11
63.2943
 21
9.43147
 31
0.0
  0
LINE
  5
6EE
  8
0
 62
1
 10
157.4
 20
25.4
 30
0.0
 11
106.6
 21
25.4
 31
0.0
  0
LINE
  5
6EF
  8
0
 62
1
 10
106.6
 20
25.4
 30
0.0
 11
106.6
 21
76.2
 31
0.0
  0
LINE
  5
6F0
  8
0
 62
1
 10
106.6
 20
76.2
 30
0.0
 11
81.2
 21
76.2
 31
0.0
  0
LINE
  5
6F1
  8
0
 62
1
 10
81.2
 20
76.2
 30
0.0
 11
81.2
 21
0.0
 31
0.0
  0
LINE
  5
6F2
  8
0
 62
1
 10
81.2
 20
0.0
 30
0.0
 11
157.4
 21
0.0
 31
0.0
  0
LINE
  5
6F3
  8
0
 62
1
 10
157.4
 20
0.0
 30
0.0
 11
157.4
 21
25.4
 31
0.0
  0
LINE
  5
6F4
  8
0
 62
1
 10
93.6944
 20
60.2314
 30
0.0
 11
93.4895
 21
60.2508
 31
0.0
  0
LINE
  5
6F5
  8
0
 62
1
 10
93.4895
 20
60.2508
 30
0.0
 11
93.2863
 21
60.283
 31
0.0
  0
LINE
  5
6F6
  8
0
 62
1
 10
93.2863
 20
60.283
 30
0.0
 11
93.0855
 21
60.3279
 31
0.0
  0
LINE
  5
6F7
  8
0
 62
1
 10
93.0855
 20
60.3279
 30
0.0
 11
92.888
 21
60.3853
 31
0.0
  0
LINE
  5
6F8
  8
0
 62
1
 10
92.888
 20
60.3853
 30
0.0
 11
92.6944
 21
60.455
 31
0.0
  0
LINE
  5
6F9
  8
0
 62
1
 10
92.6944
 20
60.455
 30
0.0
 11
92.5056
 21
60.5367
 31
0.0
  0
LINE
  5
6FA
  8
0
 62
1
 10
92.5056
 20
60.5367
 30
0.0
 11
92.3223
 21
60.6301
 31
0.0
  0
LINE
  5
6FB
  8
0
 62
1
 10
92.3223
 20
60.6301
 30
0.0
 11
92.1452
 21
60.7348
 31
0.0
  0
LINE
  5
6FC
  8
0
 62
1
 10
92.1452
 20
60.7348
 30
0.0
 11
91.975
 21
60.8504
 31
0.0
  0
LINE
  5
6FD
  8
0
 62
1
 10
91.975
 20
60.8504
 30
0.0
 11
91.8124
 21
60.9765
 31
0.0
  0
LINE
  5
6FE
  8
0
 62
1
 10
91.8124
 20
60.9765
 30
0.0
 11
91.6581
 21
61.1126
 31
0.0
  0
LINE
  5
6FF
  8
0
 62
1
 10
91.6581
 20
61.1126
 30
0.0
 11
91.5126
 21
61.2581
 31
0.0
  0
LINE
  5
700
  8
0
 62
1
 10
91.5126
 20
61.2581
 30
0.0
 11
91.3766
 21
61.4124
 31
0.0
  0
LINE
  5
701
  8
0
 62
1
 10
91.3766
 20
61.4124
 30
0.0
 11
91.2505
 21
61.575
 31
0.0
  0
LINE
  5
702
  8
0
 62
1
 10
91.2505
 20
61.575
 30
0.0
 11
91.1348
 21
61.7451
 31
0.0
  0
LINE
  5
703
  8
0
 62
1
 10
91.1348
 20
61.7451
 30
0.0
 11
91.0301
 21
61.9222
 31
0.0
  0
LINE
  5
704
  8
0
 62
1
 10
91.0301
 20
61.9222
 30
0.0
 11
90.9367
 21
62.1056
 31
0.0
  0
LINE
  5
705
  8
0
 62
1
 10
90.9367
 20
62.1056
 30
0.0
 11
90.855
 21
62.2944
 31
0.0
  0
LINE
  5
706
  8
0
 62
1
 10
90.855
 20
62.2944
 30
0.0
 11
90.7853
 21
62.4879
 31
0.0
  0
LINE
  5
707
  8
0
 62
1
 10
90.7853
 20
62.4879
 30
0.0
 11
90.7279
 21
62.6855
 31
0.0
  0
LINE
  5
708
  8
0
 62
1
 10
90.7279
 20
62.6855
 30
0.0
 11
90.683
 21
62.8863
 31
0.0
  0
LINE
  5
709
  8
0
 62
1
 10
90.683
 20
62.8863
 30
0.0
 11
90.6508
 21
63.0895
 31
0.0
  0
LINE
  5
70A
  8
0
 62
1
 10
90.6508
 20
63.0895
 30
0.0
 11
90.6315
 21
63.2943
 31
0.0
  0
LINE
  5
70B
  8
0
 62
1
 10
90.6315
 20
63.2943
 30
0.0
 11
90.625
 21
63.5
 31
0.0
  0
LINE
  5
70C
  8
0
 62
1
 10
90.625
 20
63.5
 30
0.0
 11
90.6315
 21
63.7056
 31
0.0
  0
LINE
  5
70D
  8
0
 62
1
 10
90.6315
 20
63.7056
 30
0.0
 11
90.6508
 21
63.9104
 31
0.0
  0
LINE
  5
70E
  8
0
 62
1
 10
90.6508
 20
63.9104
 30
0.0
 11
90.683
 21
64.1137
 31
0.0
  0
LINE
  5
70F
  8
0
 62
1
 10
90.683
 20
64.1137
 30
0.0
 11
90.7279
 21
64.3144
 31
0.0
  0
LINE
  5
710
  8
0
 62
1
 10
90.7279
 20
64.3144
 30
0.0
 11
90.7853
 21
64.512
 31
0.0
  0
LINE
  5
711
  8
0
 62
1
 10
90.7853
 20
64.512
 30
0.0
 11
90.855
 21
64.7056
 31
0.0
  0
LINE
  5
712
  8
0
 62
1
 10
90.855
 20
64.7056
 30
0.0
 11
90.9367
 21
64.8944
 31
0.0
  0
LINE
  5
713
  8
0
 62
1
 10
90.9367
 20
64.8944
 30
0.0
 11
91.0301
 21
65.0777
 31
0.0
  0
LINE
  5
714
  8
0
 62
1
 10
91.0301
 20
65.0777
 30
0.0
 11
91.1348
 21
65.2548
 31
0.0
  0
LINE
  5
715
  8
0
 62
1
 10
91.1348
 20
65.2548
 30
0.0
 11
91.2505
 21
65.425
 31
0.0
  0
LINE
  5
716
  8
0
 62
1
 10
91.2505
 20
65.425
 30
0.0
 11
91.3766
 21
65.5875
 31
0.0
  0
LINE
  5
717
  8
0
 62
1
 10
91.3766
 20
65.5875
 30
0.0
 11
91.5126
 21
65.7419
 31
0.0
  0
LINE
  5
718
  8
0
 62
1
 10
91.5126
 20
65.7419
 30
0.0
 11
91.6581
 21
65.8874
 31
0.0
  0
LINE
  5
719
  8
0
 62
1
 10
91.6581
 20
65.8874
 30
0.0
 11
91.8124
 21
66.0234
 31
0.0
  0
LINE
  5
71A
  8
0
 62
1
 10
91.8124
 20
66.0234
 30
0.0
 11
91.975
 21
66.1495
 31
0.0
  0
LINE
  5
71B
  8
0
 62
1
 10
91.975
 20
66.1495
 30
0.0
 11
92.1452
 21
66.2652
 31
0.0
  0
LINE
  5
71C
  8
0
 62
1
 10
92.1452
 20
66.2652
 30
0.0
 11
92.3223
 21
66.3699
 31
0.0
  0
LINE
  5
71D
  8
0
 62
1
 10
92.3223
 20
66.3699
 30
0.0
 11
92.5056
 21
66.4633
 31
0.0
  0
LINE
  5
71E
  8
0
 62
1
 10
92.5056
 20
66.4633
 30
0.0
 11
92.6944
 21
66.545
 31
0.0
  0
LINE
  5
71F
  8
0
 62
1
 10
92.6944
 20
66.545
 30
0.0
 11
92.888
 21
66.6147
 31
0.0
  0
LINE
  5
720
  8
0
 62
1
 10
92.888
 20
66.6147
 30
0.0
 11
93.0855
 21
66.6721
 31
0.0
  0
LINE
  5
721
  8
0
 62
1
 10
93.0855
 20
66.6721
 30
0.0
 11
93.2863
 21
66.717
 31
0.0
  0
LINE
  5
722
  8
0
 62
1
 10
93.2863
 20
66.717
 30
0.0
 11
93.4895
 21
66.7492
 31
0.0
  0
LINE
  5
723
  8
0
 62
1
 10
93.4895
 20
66.7492
 30
0.0
 11
93.6944
 21
66.7685
 31
0.0
  0
LINE
  5
724
  8
0
 62
1
 10
93.6944
 20
66.7685
 30
0.0
 11
93.9
 21
66.775
 31
0.0
  0
LINE
  5
725
  8
0
 62
1
 10
93.9
 20
66.775
 30
0.0
 11
94.1056
 21
66.7685
 31
0.0
  0
LINE
  5
726
  8
0
 62
1
 10
94.1056
 20
66.7685
 30
0.0
 11
94.3105
 21
66.7492
 31
0.0
  0
LINE
  5
727
  8
0
 62
1
 10
94.3105
 20
66.7492
 30
0.0
 11
94.5137
 21
66.717
 31
0.0
  0
LINE
  5
728
  8
0
 62
1
 10
94.5137
 20
66.717
 30
0.0
 11
94.7144
 21
66.6721
 31
0.0
  0
LINE
  5
729
  8
0
 62
1
 10
94.7144
 20
66.6721
 30
0.0
 11
94.912
 21
66.6147
 31
0.0
  0
LINE
  5
72A
  8
0
 62
1
 10
94.912
 20
66.6147
 30
0.0
 11
95.1056
 21
66.545
 31
0.0
  0
LINE
  5
72B
  8
0
 62
1
 10
95.1056
 20
66.545
 30
0.0
 11
95.2944
 21
66.4633
 31
0.0
  0
LINE
  5
72C
  8
0
 62
1
 10
95.2944
 20
66.4633
 30
0.0
 11
95.4777
 21
66.3699
 31
0.0
  0
LINE
  5
72D
  8
0
 62
1
 10
95.4777
 20
66.3699
 30
0.0
 11
95.6548
 21
66.2652
 31
0.0
  0
LINE
  5
72E
  8
0
 62
1
 10
95.6548
 20
66.2652
 30
0.0
 11
95.825
 21
66.1495
 31
0.0
  0
LINE
  5
72F
  8
0
 62
1
 10
95.825
 20
66.1495
 30
0.0
 11
95.9875
 21
66.0234
 31
0.0
  0
LINE
  5
730
  8
0
 62
1
 10
95.9875
 20
66.0234
 30
0.0
 11
96.1419
 21
65.8874
 31
0.0
  0
LINE
  5
731
  8
0
 62
1
 10
96.1419
 20
65.8874
 30
0.0
 11
96.2874
 21
65.7419
 31
0.0
  0
LINE
  5
732
  8
0
 62
1
 10
96.2874
 20
65.7419
 30
0.0
 11
96.4234
 21
65.5875
 31
0.0
  0
LINE
  5
733
  8
0
 62
1
 10
96.4234
 20
65.5875
 30
0.0
 11
96.5495
 21
65.425
 31
0.0
  0
LINE
  5
734
  8
0
 62
1
 10
96.5495
 20
65.425
 30
0.0
 11
96.6652
 21
65.2548
 31
0.0
  0
LINE
  5
735
  8
0
 62
1
 10
96.6652
 20
65.2548
 30
0.0
 11
96.7699
 21
65.0777
 31
0.0
  0
LINE
  5
736
  8
0
 62
1
 10
96.7699
 20
65.0777
 30
0.0
 11
96.8633
 21
64.8944
 31
0.0
  0
LINE
  5
737
  8
0
 62
1
 10
96.8633
 20
64.8944
 30
0.0
 11
96.945
 21
64.7056
 31
0.0
  0
LINE
  5
738
  8
0
 62
1
 10
96.945
 20
64.7056
 30
0.0
 11
97.0147
 21
64.512
 31
0.0
  0
LINE
  5
739
  8
0
 62
1
 10
97.0147
 20
64.512
 30
0.0
 11
97.0721
 21
64.3144
 31
0.0
  0
LINE
  5
73A
  8
0
 62
1
 10
97.0721
 20
64.3144
 30
0.0
 11
97.117
 21
64.1137
 31
0.0
  0
LINE
  5
73B
  8
0
 62
1
 10
97.117
 20
64.1137
 30
0.0
 11
97.1492
 21
63.9104
 31
0.0
  0
LINE
  5
73C
  8
0
 62
1
 10
97.1492
 20
63.9104
 30
0.0
 11
97.1685
 21
63.7056
 31
0.0
  0
LINE
  5
73D
  8
0
 62
1
 10
97.1685
 20
63.7056
 30
0.0
 11
97.175
 21
63.5
 31
0.0
  0
LINE
  5
73E
  8
0
 62
1
 10
97.175
 20
63.5
 30
0.0
 11
97.1685
 21
63.2943
 31
0.0
  0
LINE
  5
73F
  8
0
 62
1
 10
97.1685
 20
63.2943
 30
0.0
 11
97.1492
 21
63.0895
 31
0.0
  0
LINE
  5
740
  8
0
 62
1
 10
97.1492
 20
63.0895
 30
0.0
 11
97.117
 21
62.8863
 31
0.0
  0
LINE
  5
741
  8
0
 62
1
 10
97.117
 20
62.8863
 30
0.0
 11
97.0721
 21
62.6855
 31
0.0
  0
LINE
  5
742
  8
0
 62
1
 10
97.0721
 20
62.6855
 30
0.0
 11
97.0147
 21
62.4879
 31
0.0
  0
LINE
  5
743
  8
0
 62
1
 10
97.0147
 20
62.4879
 30
0.0
 11
96.945
 21
62.2944
 31
0.0
  0
LINE
  5
744
  8
0
 62
1
 10
96.945
 20
62.2944
 30
0.0
 11
96.8633
 21
62.1056
 31
0.0
  0
LINE
  5
745
  8
0
 62
1
 10
96.8633
 20
62.1056
 30
0.0
 11
96.7699
 21
61.9222
 31
0.0
  0
LINE
  5
746
  8
0
 62
1
 10
96.7699
 20
61.9222
 30
0.0
 11
96.6652
 21
61.7451
 31
0.0
  0
LINE
  5
747
  8
0
 62
1
 10
96.6652
 20
61.7451
 30
0.0
 11
96.5495
 21
61.575
 31
0.0
  0
LINE
  5
748
  8
0
 62
1
 10
96.5495
 20
61.575
 30
0.0
 11
96.4234
 21
61.4124
 31
0.0
  0
LINE
  5
749
  8
0
 62
1
 10
96.4234
 20
61.4124
 30
0.0
 11
96.2874
 21
61.2581
 31
0.0
  0
LINE
  5
74A
  8
0
 62
1
 10
96.2874
 20
61.2581
 30
0.0
 11
96.1419
 21
61.1126
 31
0.0
  0
LINE
  5
74B
  8
0
 62
1
 10
96.1419
 20
61.1126
 30
0.0
 11
95.9875
 21
60.9765
 31
0.0
  0
LINE
  5
74C
  8
0
 62
1
 10
95.9875
 20
60.9765
 30
0.0
 11
95.825
 21
60.8504
 31
0.0
  0
LINE
  5
74D
  8
0
 62
1
 10
95.825
 20
60.8504
 30
0.0
 11
95.6548
 21
60.7348
 31
0.0
  0
LINE
  5
74E
  8
0
 62
1
 10
95.6548
 20
60.7348
 30
0.0
 11
95.4777
 21
60.6301
 31
0.0
  0
LINE
  5
74F
  8
0
 62
1
 10
95.4777
 20
60.6301
 30
0.0
 11
95.2944
 21
60.5367
 31
0.0
  0
LINE
  5
750
  8
0
 62
1
 10
95.2944
 20
60.5367
 30
0.0
 11
95.1056
 21
60.455
 31
0.0
  0
LINE
  5
751
  8
0
 62
1
 10
95.1056
 20
60.455
 30
0.0
 11
94.912
 21
60.3853
 31
0.0
  0
LINE
  5
752
  8
0
 62
1
 10
94.912
 20
60.3853
 30
0.0
 11
94.7144
 21
60.3279
 31
0.0
  0
LINE
  5
753
  8
0
 62
1
 10
94.7144
 20
60.3279
 30
0.0
 11
94.5137
 21
60.283
 31
0.0
  0
LINE
  5
754
  8
0
 62
1
 10
94.5137
 20
60.283
 30
0.0
 11
94.3105
 21
60.2508
 31
0.0
  0
LINE
  5
755
  8
0
 62
1
 10
94.3105
 20
60.2508
 30
0.0
 11
94.1056
 21
60.2314
 31
0.0
  0
LINE
  5
756
  8
0
 62
1
 10
94.1056
 20
60.2314
 30
0.0
 11
93.9
 21
60.225
 31
0.0
  0
LINE
  5
757
  8
0
 62
1
 10
93.9
 20
60.225
 30
0.0
 11
93.6944
 21
60.2314
 31
0.0
  0
LINE
  5
758
  8
0
 62
1
 10
93.6944
 20
34.8315
 30
0.0
 11
93.4895
 21
34.8508
 31
0.0
  0
LINE
  5
759
  8
0
 62
1
 10
93.4895
 20
34.8508
 30
0.0
 11
93.2863
 21
34.883
 31
0.0
  0
LINE
  5
75A
  8
0
 62
1
 10
93.2863
 20
34.883
 30
0.0
 11
93.0855
 21
34.9279
 31
0.0
  0
LINE
  5
75B
  8
0
 62
1
 10
93.0855
 20
34.9279
 30
0.0
 11
92.888
 21
34.9853
 31
0.0
  0
LINE
  5
75C
  8
0
 62
1
 10
92.888
 20
34.9853
 30
0.0
 11
92.6944
 21
35.055
 31
0.0
  0
LINE
  5
75D
  8
0
 62
1
 10
92.6944
 20
35.055
 30
0.0
 11
92.5056
 21
35.1367
 31
0.0
  0
LINE
  5
75E
  8
0
 62
1
 10
92.5056
 20
35.1367
 30
0.0
 11
92.3223
 21
35.2301
 31
0.0
  0
LINE
  5
75F
  8
0
 62
1
 10
92.3223
 20
35.2301
 30
0.0
 11
92.1452
 21
35.3348
 31
0.0
  0
LINE
  5
760
  8
0
 62
1
 10
92.1452
 20
35.3348
 30
0.0
 11
91.975
 21
35.4505
 31
0.0
  0
LINE
  5
761
  8
0
 62
1
 10
91.975
 20
35.4505
 30
0.0
 11
91.8124
 21
35.5766
 31
0.0
  0
LINE
  5
762
  8
0
 62
1
 10
91.8124
 20
35.5766
 30
0.0
 11
91.6581
 21
35.7126
 31
0.0
  0
LINE
  5
763
  8
0
 62
1
 10
91.6581
 20
35.7126
 30
0.0
 11
91.5126
 21
35.8581
 31
0.0
  0
LINE
  5
764
  8
0
 62
1
 10
91.5126
 20
35.8581
 30
0.0
 11
91.3766
 21
36.0124
 31
0.0
  0
LINE
  5
765
  8
0
 62
1
 10
91.3766
 20
36.0124
 30
0.0
 11
91.2505
 21
36.175
 31
0.0
  0
LINE
  5
766
  8
0
 62
1
 10
91.2505
 20
36.175
 30
0.0
 11
91.1348
 21
36.3452
 31
0.0
  0
LINE
  5
767
  8
0
 62
1
 10
91.1348
 20
36.3452
 30
0.0
 11
91.0301
 21
36.5223
 31
0.0
  0
LINE
  5
768
  8
0
 62
1
 10
91.0301
 20
36.5223
 30
0.0
 11
90.9367
 21
36.7056
 31
0.0
  0
LINE
  5
769
  8
0
 62
1
 10
90.9367
 20
36.7056
 30
0.0
 11
90.855
 21
36.8944
 31
0.0
  0
LINE
  5
76A
  8
0
 62
1
 10
90.855
 20
36.8944
 30
0.0
 11
90.7853
 21
37.088
 31
0.0
  0
LINE
  5
76B
  8
0
 62
1
 10
90.7853
 20
37.088
 30
0.0
 11
90.7279
 21
37.2855
 31
0.0
  0
LINE
  5
76C
  8
0
 62
1
 10
90.7279
 20
37.2855
 30
0.0
 11
90.683
 21
37.4863
 31
0.0
  0
LINE
  5
76D
  8
0
 62
1
 10
90.683
 20
37.4863
 30
0.0
 11
90.6508
 21
37.6895
 31
0.0
  0
LINE
  5
76E
  8
0
 62
1
 10
90.6508
 20
37.6895
 30
0.0
 11
90.6315
 21
37.8944
 31
0.0
  0
LINE
  5
76F
  8
0
 62
1
 10
90.6315
 20
37.8944
 30
0.0
 11
90.625
 21
38.1
 31
0.0
  0
LINE
  5
770
  8
0
 62
1
 10
90.625
 20
38.1
 30
0.0
 11
90.6315
 21
38.3056
 31
0.0
  0
LINE
  5
771
  8
0
 62
1
 10
90.6315
 20
38.3056
 30
0.0
 11
90.6508
 21
38.5105
 31
0.0
  0
LINE
  5
772
  8
0
 62
1
 10
90.6508
 20
38.5105
 30
0.0
 11
90.683
 21
38.7137
 31
0.0
  0
LINE
  5
773
  8
0
 62
1
 10
90.683
 20
38.7137
 30
0.0
 11
90.7279
 21
38.9144
 31
0.0
  0
LINE
  5
774
  8
0
 62
1
 10
90.7279
 20
38.9144
 30
0.0
 11
90.7853
 21
39.112
 31
0.0
  0
LINE
  5
775
  8
0
 62
1
 10
90.7853
 20
39.112
 30
0.0
 11
90.855
 21
39.3056
 31
0.0
  0
LINE
  5
776
  8
0
 62
1
 10
90.855
 20
39.3056
 30
0.0
 11
90.9367
 21
39.4944
 31
0.0
  0
LINE
  5
777
  8
0
 62
1
 10
90.9367
 20
39.4944
 30
0.0
 11
91.0301
 21
39.6777
 31
0.0
  0
LINE
  5
778
  8
0
 62
1
 10
91.0301
 20
39.6777
 30
0.0
 11
91.1348
 21
39.8548
 31
0.0
  0
LINE
  5
779
  8
0
 62
1
 10
91.1348
 20
39.8548
 30
0.0
 11
91.2505
 21
40.025
 31
0.0
  0
LINE
  5
77A
  8
0
 62
1
 10
91.2505
 20
40.025
 30
0.0
 11
91.3766
 21
40.1875
 31
0.0
  0
LINE
  5
77B
  8
0
 62
1
 10
91.3766
 20
40.1875
 30
0.0
 11
91.5126
 21
40.3419
 31
0.0
  0
LINE
  5
77C
  8
0
 62
1
 10
91.5126
 20
40.3419
 30
0.0
 11
91.6581
 21
40.4874
 31
0.0
  0
LINE
  5
77D
  8
0
 62
1
 10
91.6581
 20
40.4874
 30
0.0
 11
91.8124
 21
40.6234
 31
0.0
  0
LINE
  5
77E
  8
0
 62
1
 10
91.8124
 20
40.6234
 30
0.0
 11
91.975
 21
40.7495
 31
0.0
  0
LINE
  5
77F
  8
0
 62
1
 10
91.975
 20
40.7495
 30
0.0
 11
92.1452
 21
40.8652
 31
0.0
  0
LINE
  5
780
  8
0
 62
1
 10
92.1452
 20
40.8652
 30
0.0
 11
92.3223
 21
40.9699
 31
0.0
  0
LINE
  5
781
  8
0
 62
1
 10
92.3223
 20
40.9699
 30
0.0
 11
92.5056
 21
41.0633
 31
0.0
  0
LINE
  5
782
  8
0
 62
1
 10
92.5056
 20
41.0633
 30
0.0
 11
92.6944
 21
41.145
 31
0.0
  0
LINE
  5
783
  8
0
 62
1
 10
92.6944
 20
41.145
 30
0.0
 11
92.888
 21
41.2147
 31
0.0
  0
LINE
  5
784
  8
0
 62
1
 10
92.888
 20
41.2147
 30
0.0
 11
93.0855
 21
41.2721
 31
0.0
  0
LINE
  5
785
  8
0
 62
1
 10
93.0855
 20
41.2721
 30
0.0
 11
93.2863
 21
41.317
 31
0.0
  0
LINE
  5
786
  8
0
 62
1
 10
93.2863
 20
41.317
 30
0.0
 11
93.4895
 21
41.3492
 31
0.0
  0
LINE
  5
787
  8
0
 62
1
 10
93.4895
 20
41.3492
 30
0.0
 11
93.6944
 21
41.3685
 31
0.0
  0
LINE
  5
788
  8
0
 62
1
 10
93.6944
 20
41.3685
 30
0.0
 11
93.9
 21
41.375
 31
0.0
  0
LINE
  5
789
  8
0
 62
1
 10
93.9
 20
41.375
 30
0.0
 11
94.1056
 21
41.3685
 31
0.0
  0
LINE
  5
78A
  8
0
 62
1
 10
94.1056
 20
41.3685
 30
0.0
 11
94.3105
 21
41.3492
 31
0.0
  0
LINE
  5
78B
  8
0
 62
1
 10
94.3105
 20
41.3492
 30
0.0
 11
94.5137
 21
41.317
 31
0.0
  0
LINE
  5
78C
  8
0
 62
1
 10
94.5137
 20
41.317
 30
0.0
 11
94.7144
 21
41.2721
 31
0.0
  0
LINE
  5
78D
  8
0
 62
1
 10
94.7144
 20
41.2721
 30
0.0
 11
94.912
 21
41.2147
 31
0.0
  0
LINE
  5
78E
  8
0
 62
1
 10
94.912
 20
41.2147
 30
0.0
 11
95.1056
 21
41.145
 31
0.0
  0
LINE
  5
78F
  8
0
 62
1
 10
95.1056
 20
41.145
 30
0.0
 11
95.2944
 21
41.0633
 31
0.0
  0
LINE
  5
790
  8
0
 62
1
 10
95.2944
 20
41.0633
 30
0.0
 11
95.4777
 21
40.9699
 31
0.0
  0
LINE
  5
791
  8
0
 62
1
 10
95.4777
 20
40.9699
 30
0.0
 11
95.6548
 21
40.8652
 31
0.0
  0
LINE
  5
792
  8
0
 62
1
 10
95.6548
 20
40.8652
 30
0.0
 11
95.825
 21
40.7495
 31
0.0
  0
LINE
  5
793
  8
0
 62
1
 10
95.825
 20
40.7495
 30
0.0
 11
95.9875
 21
40.6234
 31
0.0
  0
LINE
  5
794
  8
0
 62
1
 10
95.9875
 20
40.6234
 30
0.0
 11
96.1419
 21
40.4874
 31
0.0
  0
LINE
  5
795
  8
0
 62
1
 10
96.1419
 20
40.4874
 30
0.0
 11
96.2874
 21
40.3419
 31
0.0
  0
LINE
  5
796
  8
0
 62
1
 10
96.2874
 20
40.3419
 30
0.0
 11
96.4234
 21
40.1875
 31
0.0
  0
LINE
  5
797
  8
0
 62
1
 10
96.4234
 20
40.1875
 30
0.0
 11
96.5495
 21
40.025
 31
0.0
  0
LINE
  5
798
  8
0
 62
1
 10
96.5495
 20
40.025
 30
0.0
 11
96.6652
 21
39.8548
 31
0.0
  0
LINE
  5
799
  8
0
 62
1
 10
96.6652
 20
39.8548
 30
0.0
 11
96.7699
 21
39.6777
 31
0.0
  0
LINE
  5
79A
  8
0
 62
1
 10
96.7699
 20
39.6777
 30
0.0
 11
96.8633
 21
39.4944
 31
0.0
  0
LINE
  5
79B
  8
0
 62
1
 10
96.8633
 20
39.4944
 30
0.0
 11
96.945
 21
39.3056
 31
0.0
  0
LINE
  5
79C
  8
0
 62
1
 10
96.945
 20
39.3056
 30
0.0
 11
97.0147
 21
39.112
 31
0.0
  0
LINE
  5
79D
  8
0
 62
1
 10
97.0147
 20
39.112
 30
0.0
 11
97.0721
 21
38.9144
 31
0.0
  0
LINE
  5
79E
  8
0
 62
1
 10
97.0721
 20
38.9144
 30
0.0
 11
97.117
 21
38.7137
 31
0.0
  0
LINE
  5
79F
  8
0
 62
1
 10
97.117
 20
38.7137
 30
0.0
 11
97.1492
 21
38.5105
 31
0.0
  0
LINE
  5
7A0
  8
0
 62
1
 10
97.1492
 20
38.5105
 30
0.0
 11
97.1685
 21
38.3056
 31
0.0
  0
LINE
  5
7A1
  8
0
 62
1
 10
97.1685
 20
38.3056
 30
0.0
 11
97.175
 21
38.1
 31
0.0
  0
LINE
  5
7A2
  8
0
 62
1
 10
97.175
 20
38.1
 30
0.0
 11
97.1685
 21
37.8944
 31
0.0
  0
LINE
  5
7A3
  8
0
 62
1
 10
97.1685
 20
37.8944
 30
0.0
 11
97.1492
 21
37.6895
 31
0.0
  0
LINE
  5
7A4
  8
0
 62
1
 10
97.1492
 20
37.6895
 30
0.0
 11
97.117
 21
37.4863
 31
0.0
  0
LINE
  5
7A5
  8
0
 62
1
 10
97.117
 20
37.4863
 30
0.0
 11
97.0721
 21
37.2855
 31
0.0
  0
LINE
  5
7A6
  8
0
 62
1
 10
97.0721
 20
37.2855
 30
0.0
 11
97.0147
 21
37.088
 31
0.0
  0
LINE
  5
7A7
  8
0
 62
1
 10
97.0147
 20
37.088
 30
0.0
 11
96.945
 21
36.8944
 31
0.0
  0
LINE
  5
7A8
  8
0
 62
1
 10
96.945
 20
36.8944
 30
0.0
 11
96.8633
 21
36.7056
 31
0.0
  0
LINE
  5
7A9
  8
0
 62
1
 10
96.8633
 20
36.7056
 30
0.0
 11
96.7699
 21
36.5223
 31
0.0
  0
LINE
  5
7AA
  8
0
 62
1
 10
96.7699
 20
36.5223
 30
0.0
 11
96.6652
 21
36.3452
 31
0.0
  0
LINE
  5
7AB
  8
0
 62
1
 10
96.6652
 20
36.3452
 30
0.0
 11
96.5495
 21
36.175
 31
0.0
  0
LINE
  5
7AC
  8
0
 62
1
 10
96.5495
 20
36.175
 30
0.0
 11
96.4234
 21
36.0124
 31
0.0
  0
LINE
  5
7AD
  8
0
 62
1
 10
96.4234
 20
36.0124
 30
0.0
 11
96.2874
 21
35.8581
 31
0.0
  0
LINE
  5
7AE
  8
0
 62
1
 10
96.2874
 20
35.8581
 30
0.0
 11
96.1419
 21
35.7126
 31
0.0
  0
LINE
  5
7AF
  8
0
 62
1
 10
96.1419
 20
35.7126
 30
0.0
 11
95.9875
 21
35.5766
 31
0.0
  0
LINE
  5
7B0
  8
0
 62
1
 10
95.9875
 20
35.5766
 30
0.0
 11
95.825
 21
35.4505
 31
0.0
  0
LINE
  5
7B1
  8
0
 62
1
 10
95.825
 20
35.4505
 30
0.0
 11
95.6548
 21
35.3348
 31
0.0
  0
LINE
  5
7B2
  8
0
 62
1
 10
95.6548
 20
35.3348
 30
0.0
 11
95.4777
 21
35.2301
 31
0.0
  0
LINE
  5
7B3
  8
0
 62
1
 10
95.4777
 20
35.2301
 30
0.0
 11
95.2944
 21
35.1367
 31
0.0
  0
LINE
  5
7B4
  8
0
 62
1
 10
95.2944
 20
35.1367
 30
0.0
 11
95.1056
 21
35.055
 31
0.0
  0
LINE
  5
7B5
  8
0
 62
1
 10
95.1056
 20
35.055
 30
0.0
 11
94.912
 21
34.9853
 31
0.0
  0
LINE
  5
7B6
  8
0
 62
1
 10
94.912
 20
34.9853
 30
0.0
 11
94.7144
 21
34.9279
 31
0.0
  0
LINE
  5
7B7
  8
0
 62
1
 10
94.7144
 20
34.9279
 30
0.0
 11
94.5137
 21
34.883
 31
0.0
  0
LINE
  5
7B8
  8
0
 62
1
 10
94.5137
 20
34.883
 30
0.0
 11
94.3105
 21
34.8508
 31
0.0
  0
LINE
  5
7B9
  8
0
 62
1
 10
94.3105
 20
34.8508
 30
0.0
 11
94.1056
 21
34.8315
 31
0.0
  0
LINE
  5
7BA
  8
0
 62
1
 10
94.1056
 20
34.8315
 30
0.0
 11
93.9
 21
34.825
 31
0.0
  0
LINE
  5
7BB
  8
0
 62
1
 10
93.9
 20
34.825
 30
0.0
 11
93.6944
 21
34.8315
 31
0.0
  0
LINE
  5
7BC
  8
0
 62
1
 10
144.494
 20
9.43147
 30
0.0
 11
144.29
 21
9.45084
 31
0.0
  0
LINE
  5
7BD
  8
0
 62
1
 10
144.29
 20
9.45084
 30
0.0
 11
144.086
 21
9.48302
 31
0.0
  0
LINE
  5
7BE
  8
0
 62
1
 10
144.086
 20
9.48302
 30
0.0
 11
143.886
 21
9.52789
 31
0.0
  0
LINE
  5
7BF
  8
0
 62
1
 10
143.886
 20
9.52789
 30
0.0
 11
143.688
 21
9.5853
 31
0.0
  0
LINE
  5
7C0
  8
0
 62
1
 10
143.688
 20
9.5853
 30
0.0
 11
143.494
 21
9.65498
 31
0.0
  0
LINE
  5
7C1
  8
0
 62
1
 10
143.494
 20
9.65498
 30
0.0
 11
143.306
 21
9.73669
 31
0.0
  0
LINE
  5
7C2
  8
0
 62
1
 10
143.306
 20
9.73669
 30
0.0
 11
143.122
 21
9.83009
 31
0.0
  0
LINE
  5
7C3
  8
0
 62
1
 10
143.122
 20
9.83009
 30
0.0
 11
142.945
 21
9.93483
 31
0.0
  0
LINE
  5
7C4
  8
0
 62
1
 10
142.945
 20
9.93483
 30
0.0
 11
142.775
 21
10.0505
 31
0.0
  0
LINE
  5
7C5
  8
0
 62
1
 10
142.775
 20
10.0505
 30
0.0
 11
142.612
 21
10.1766
 31
0.0
  0
LINE
  5
7C6
  8
0
 62
1
 10
142.612
 20
10.1766
 30
0.0
 11
142.458
 21
10.3126
 31
0.0
  0
LINE
  5
7C7
  8
0
 62
1
 10
142.458
 20
10.3126
 30
0.0
 11
142.313
 21
10.4581
 31
0.0
  0
LINE
  5
7C8
  8
0
 62
1
 10
142.313
 20
10.4581
 30
0.0
 11
142.177
 21
10.6124
 31
0.0
  0
LINE
  5
7C9
  8
0
 62
1
 10
142.177
 20
10.6124
 30
0.0
 11
142.05
 21
10.775
 31
0.0
  0
LINE
  5
7CA
  8
0
 62
1
 10
142.05
 20
10.775
 30
0.0
 11
141.935
 21
10.9452
 31
0.0
  0
LINE
  5
7CB
  8
0
 62
1
 10
141.935
 20
10.9452
 30
0.0
 11
141.83
 21
11.1223
 31
0.0
  0
LINE
  5
7CC
  8
0
 62
1
 10
141.83
 20
11.1223
 30
0.0
 11
141.737
 21
11.3056
 31
0.0
  0
LINE
  5
7CD
  8
0
 62
1
 10
141.737
 20
11.3056
 30
0.0
 11
141.655
 21
11.4944
 31
0.0
  0
LINE
  5
7CE
  8
0
 62
1
 10
141.655
 20
11.4944
 30
0.0
 11
141.585
 21
11.688
 31
0.0
  0
LINE
  5
7CF
  8
0
 62
1
 10
141.585
 20
11.688
 30
0.0
 11
141.528
 21
11.8855
 31
0.0
  0
LINE
  5
7D0
  8
0
 62
1
 10
141.528
 20
11.8855
 30
0.0
 11
141.483
 21
12.0863
 31
0.0
  0
LINE
  5
7D1
  8
0
 62
1
 10
141.483
 20
12.0863
 30
0.0
 11
141.451
 21
12.2895
 31
0.0
  0
LINE
  5
7D2
  8
0
 62
1
 10
141.451
 20
12.2895
 30
0.0
 11
141.431
 21
12.4944
 31
0.0
  0
LINE
  5
7D3
  8
0
 62
1
 10
141.431
 20
12.4944
 30
0.0
 11
141.425
 21
12.7
 31
0.0
  0
LINE
  5
7D4
  8
0
 62
1
 10
141.425
 20
12.7
 30
0.0
 11
141.431
 21
12.9056
 31
0.0
  0
LINE
  5
7D5
  8
0
 62
1
 10
141.431
 20
12.9056
 30
0.0
 11
141.451
 21
13.1105
 31
0.0
  0
LINE
  5
7D6
  8
0
 62
1
 10
141.451
 20
13.1105
 30
0.0
 11
141.483
 21
13.3137
 31
0.0
  0
LINE
  5
7D7
  8
0
 62
1
 10
141.483
 20
13.3137
 30
0.0
 11
141.528
 21
13.5145
 31
0.0
  0
LINE
  5
7D8
  8
0
 62
1
 10
141.528
 20
13.5145
 30
0.0
 11
141.585
 21
13.712
 31
0.0
  0
LINE
  5
7D9
  8
0
 62
1
 10
141.585
 20
13.712
 30
0.0
 11
141.655
 21
13.9056
 31
0.0
  0
LINE
  5
7DA
  8
0
 62
1
 10
141.655
 20
13.9056
 30
0.0
 11
141.737
 21
14.0944
 31
0.0
  0
LINE
  5
7DB
  8
0
 62
1
 10
141.737
 20
14.0944
 30
0.0
 11
141.83
 21
14.2777
 31
0.0
  0
LINE
  5
7DC
  8
0
 62
1
 10
141.83
 20
14.2777
 30
0.0
 11
141.935
 21
14.4548
 31
0.0
  0
LINE
  5
7DD
  8
0
 62
1
 10
141.935
 20
14.4548
 30
0.0
 11
142.05
 21
14.625
 31
0.0
  0
LINE
  5
7DE
  8
0
 62
1
 10
142.05
 20
14.625
 30
0.0
 11
142.177
 21
14.7876
 31
0.0
  0
LINE
  5
7DF
  8
0
 62
1
 10
142.177
 20
14.7876
 30
0.0
 11
142.313
 21
14.9419
 31
0.0
  0
LINE
  5
7E0
  8
0
 62
1
 10
142.313
 20
14.9419
 30
0.0
 11
142.458
 21
15.0874
 31
0.0
  0
LINE
  5
7E1
  8
0
 62
1
 10
142.458
 20
15.0874
 30
0.0
 11
142.612
 21
15.2234
 31
0.0
  0
LINE
  5
7E2
  8
0
 62
1
 10
142.612
 20
15.2234
 30
0.0
 11
142.775
 21
15.3495
 31
0.0
  0
LINE
  5
7E3
  8
0
 62
1
 10
142.775
 20
15.3495
 30
0.0
 11
142.945
 21
15.4652
 31
0.0
  0
LINE
  5
7E4
  8
0
 62
1
 10
142.945
 20
15.4652
 30
0.0
 11
143.122
 21
15.5699
 31
0.0
  0
LINE
  5
7E5
  8
0
 62
1
 10
143.122
 20
15.5699
 30
0.0
 11
143.306
 21
15.6633
 31
0.0
  0
LINE
  5
7E6
  8
0
 62
1
 10
143.306
 20
15.6633
 30
0.0
 11
143.494
 21
15.745
 31
0.0
  0
LINE
  5
7E7
  8
0
 62
1
 10
143.494
 20
15.745
 30
0.0
 11
143.688
 21
15.8147
 31
0.0
  0
LINE
  5
7E8
  8
0
 62
1
 10
143.688
 20
15.8147
 30
0.0
 11
143.886
 21
15.8721
 31
0.0
  0
LINE
  5
7E9
  8
0
 62
1
 10
143.886
 20
15.8721
 30
0.0
 11
144.086
 21
15.917
 31
0.0
  0
LINE
  5
7EA
  8
0
 62
1
 10
144.086
 20
15.917
 30
0.0
 11
144.29
 21
15.9492
 31
0.0
  0
LINE
  5
7EB
  8
0
 62
1
 10
144.29
 20
15.9492
 30
0.0
 11
144.494
 21
15.9685
 31
0.0
  0
LINE
  5
7EC
  8
0
 62
1
 10
144.494
 20
15.9685
 30
0.0
 11
144.7
 21
15.975
 31
0.0
  0
LINE
  5
7ED
  8
0
 62
1
 10
144.7
 20
15.975
 30
0.0
 11
144.906
 21
15.9685
 31
0.0
  0
LINE
  5
7EE
  8
0
 62
1
 10
144.906
 20
15.9685
 30
0.0
 11
145.11
 21
15.9492
 31
0.0
  0
LINE
  5
7EF
  8
0
 62
1
 10
145.11
 20
15.9492
 30
0.0
 11
145.314
 21
15.917
 31
0.0
  0
LINE
  5
7F0
  8
0
 62
1
 10
145.314
 20
15.917
 30
0.0
 11
145.514
 21
15.8721
 31
0.0
  0
LINE
  5
7F1
  8
0
 62
1
 10
145.514
 20
15.8721
 30
0.0
 11
145.712
 21
15.8147
 31
0.0
  0
LINE
  5
7F2
  8
0
 62
1
 10
145.712
 20
15.8147
 30
0.0
 11
145.906
 21
15.745
 31
0.0
  0
LINE
  5
7F3
  8
0
 62
1
 10
145.906
 20
15.745
 30
0.0
 11
146.094
 21
15.6633
 31
0.0
  0
LINE
  5
7F4
  8
0
 62
1
 10
146.094
 20
15.6633
 30
0.0
 11
146.278
 21
15.5699
 31
0.0
  0
LINE
  5
7F5
  8
0
 62
1
 10
146.278
 20
15.5699
 30
0.0
 11
146.455
 21
15.4652
 31
0.0
  0
LINE
  5
7F6
  8
0
 62
1
 10
146.455
 20
15.4652
 30
0.0
 11
146.625
 21
15.3495
 31
0.0
  0
LINE
  5
7F7
  8
0
 62
1
 10
146.625
 20
15.3495
 30
0.0
 11
146.788
 21
15.2234
 31
0.0
  0
LINE
  5
7F8
  8
0
 62
1
 10
146.788
 20
15.2234
 30
0.0
 11
146.942
 21
15.0874
 31
0.0
  0
LINE
  5
7F9
  8
0
 62
1
 10
146.942
 20
15.0874
 30
0.0
 11
147.087
 21
14.9419
 31
0.0
  0
LINE
  5
7FA
  8
0
 62
1
 10
147.087
 20
14.9419
 30
0.0
 11
147.223
 21
14.7876
 31
0.0
  0
LINE
  5
7FB
  8
0
 62
1
 10
147.223
 20
14.7876
 30
0.0
 11
147.35
 21
14.625
 31
0.0
  0
LINE
  5
7FC
  8
0
 62
1
 10
147.35
 20
14.625
 30
0.0
 11
147.465
 21
14.4548
 31
0.0
  0
LINE
  5
7FD
  8
0
 62
1
 10
147.465
 20
14.4548
 30
0.0
 11
147.57
 21
14.2777
 31
0.0
  0
LINE
  5
7FE
  8
0
 62
1
 10
147.57
 20
14.2777
 30
0.0
 11
147.663
 21
14.0944
 31
0.0
  0
LINE
  5
7FF
  8
0
 62
1
 10
147.663
 20
14.0944
 30
0.0
 11
147.745
 21
13.9056
 31
0.0
  0
LINE
  5
800
  8
0
 62
1
 10
147.745
 20
13.9056
 30
0.0
 11
147.815
 21
13.712
 31
0.0
  0
LINE
  5
801
  8
0
 62
1
 10
147.815
 20
13.712
 30
0.0
 11
147.872
 21
13.5145
 31
0.0
  0
LINE
  5
802
  8
0
 62
1
 10
147.872
 20
13.5145
 30
0.0
 11
147.917
 21
13.3137
 31
0.0
  0
LINE
  5
803
  8
0
 62
1
 10
147.917
 20
13.3137
 30
0.0
 11
147.949
 21
13.1105
 31
0.0
  0
LINE
  5
804
  8
0
 62
1
 10
147.949
 20
13.1105
 30
0.0
 11
147.969
 21
12.9056
 31
0.0
  0
LINE
  5
805
  8
0
 62
1
 10
147.969
 20
12.9056
 30
0.0
 11
147.975
 21
12.7
 31
0.0
  0
LINE
  5
806
  8
0
 62
1
 10
147.975
 20
12.7
 30
0.0
 11
147.969
 21
12.4944
 31
0.0
  0
LINE
  5
807
  8
0
 62
1
 10
147.969
 20
12.4944
 30
0.0
 11
147.949
 21
12.2895
 31
0.0
  0
LINE
  5
808
  8
0
 62
1
 10
147.949
 20
12.2895
 30
0.0
 11
147.917
 21
12.0863
 31
0.0
  0
LINE
  5
809
  8
0
 62
1
 10
147.917
 20
12.0863
 30
0.0
 11
147.872
 21
11.8855
 31
0.0
  0
LINE
  5
80A
  8
0
 62
1
 10
147.872
 20
11.8855
 30
0.0
 11
147.815
 21
11.688
 31
0.0
  0
LINE
  5
80B
  8
0
 62
1
 10
147.815
 20
11.688
 30
0.0
 11
147.745
 21
11.4944
 31
0.0
  0
LINE
  5
80C
  8
0
 62
1
 10
147.745
 20
11.4944
 30
0.0
 11
147.663
 21
11.3056
 31
0.0
  0
LINE
  5
80D
  8
0
 62
1
 10
147.663
 20
11.3056
 30
0.0
 11
147.57
 21
11.1223
 31
0.0
  0
LINE
  5
80E
  8
0
 62
1
 10
147.57
 20
11.1223
 30
0.0
 11
147.465
 21
10.9452
 31
0.0
  0
LINE
  5
80F
  8
0
 62
1
 10
147.465
 20
10.9452
 30
0.0
 11
147.35
 21
10.775
 31
0.0
  0
LINE
  5
810
  8
0
 62
1
 10
147.35
 20
10.775
 30
0.0
 11
147.223
 21
10.6124
 31
0.0
  0
LINE
  5
811
  8
0
 62
1
 10
147.223
 20
10.6124
 30
0.0
 11
147.087
 21
10.4581
 31
0.0
  0
LINE
  5
812
  8
0
 62
1
 10
147.087
 20
10.4581
 30
0.0
 11
146.942
 21
10.3126
 31
0.0
  0
LINE
  5
813
  8
0
 62
1
 10
146.942
 20
10.3126
 30
0.0
 11
146.788
 21
10.1766
 31
0.0
  0
LINE
  5
814
  8
0
 62
1
 10
146.788
 20
10.1766
 30
0.0
 11
146.625
 21
10.0505
 31
0.0
  0
LINE
  5
815
  8
0
 62
1
 10
146.625
 20
10.0505
 30
0.0
 11
146.455
 21
9.93483
 31
0.0
  0
LINE
  5
816
  8
0
 62
1
 10
146.455
 20
9.93483
 30
0.0
 11
146.278
 21
9.83009
 31
0.0
  0
LINE
  5
817
  8
0
 62
1
 10
146.278
 20
9.83009
 30
0.0
 11
146.094
 21
9.73669
 31
0.0
  0
LINE
  5
818
  8
0
 62
1
 10
146.094
 20
9.73669
 30
0.0
 11
145.906
 21
9.65498
 31
0.0
  0
LINE
  5
819
  8
0
 62
1
 10
145.906
 20
9.65498
 30
0.0
 11
145.712
 21
9.5853
 31
0.0
  0
LINE
  5
81A
  8
0
 62
1
 10
145.712
 20
9.5853
 30
0.0
 11
145.514
 21
9.52789
 31
0.0
  0
LINE
  5
81B
  8
0
 62
1
 10
145.514
 20
9.52789
 30
0.0
 11
145.314
 21
9.48302
 31
0.0
  0
LINE
  5
81C
  8
0
 62
1
 10
145.314
 20
9.48302
 30
0.0
 11
145.11
 21
9.45084
 31
0.0
  0
LINE
  5
81D
  8
0
 62
1
 10
145.11
 20
9.45084
 30
0.0
 11
144.906
 21
9.43147
 31
0.0
  0
LINE
  5
81E
  8
0
 62
1
 10
144.906
 20
9.43147
 30
0.0
 11
144.7
 21
9.425
 31
0.0
  0
LINE
  5
81F
  8
0
 62
1
 10
144.7
 20
9.425
 30
0.0
 11
144.494
 21
9.43147
 31
0.0
  0
LINE
  5
820
  8
0
 62
1
 10
119.094
 20
9.43147
 30
0.0
 11
118.89
 21
9.45084
 31
0.0
  0
LINE
  5
821
  8
0
 62
1
 10
118.89
 20
9.45084
 30
0.0
 11
118.686
 21
9.48302
 31
0.0
  0
LINE
  5
822
  8
0
 62
1
 10
118.686
 20
9.48302
 30
0.0
 11
118.486
 21
9.52789
 31
0.0
  0
LINE
  5
823
  8
0
 62
1
 10
118.486
 20
9.52789
 30
0.0
 11
118.288
 21
9.5853
 31
0.0
  0
LINE
  5
824
  8
0
 62
1
 10
118.288
 20
9.5853
 30
0.0
 11
118.094
 21
9.65498
 31
0.0
  0
LINE
  5
825
  8
0
 62
1
 10
118.094
 20
9.65498
 30
0.0
 11
117.906
 21
9.73669
 31
0.0
  0
LINE
  5
826
  8
0
 62
1
 10
117.906
 20
9.73669
 30
0.0
 11
117.722
 21
9.83009
 31
0.0
  0
LINE
  5
827
  8
0
 62
1
 10
117.722
 20
9.83009
 30
0.0
 11
117.545
 21
9.93483
 31
0.0
  0
LINE
  5
828
  8
0
 62
1
 10
117.545
 20
9.93483
 30
0.0
 11
117.375
 21
10.0505
 31
0.0
  0
LINE
  5
829
  8
0
 62
1
 10
117.375
 20
10.0505
 30
0.0
 11
117.212
 21
10.1766
 31
0.0
  0
LINE
  5
82A
  8
0
 62
1
 10
117.212
 20
10.1766
 30
0.0
 11
117.058
 21
10.3126
 31
0.0
  0
LINE
  5
82B
  8
0
 62
1
 10
117.058
 20
10.3126
 30
0.0
 11
116.913
 21
10.4581
 31
0.0
  0
LINE
  5
82C
  8
0
 62
1
 10
116.913
 20
10.4581
 30
0.0
 11
116.777
 21
10.6124
 31
0.0
  0
LINE
  5
82D
  8
0
 62
1
 10
116.777
 20
10.6124
 30
0.0
 11
116.65
 21
10.775
 31
0.0
  0
LINE
  5
82E
  8
0
 62
1
 10
116.65
 20
10.775
 30
0.0
 11
116.535
 21
10.9452
 31
0.0
  0
LINE
  5
82F
  8
0
 62
1
 10
116.535
 20
10.9452
 30
0.0
 11
116.43
 21
11.1223
 31
0.0
  0
LINE
  5
830
  8
0
 62
1
 10
116.43
 20
11.1223
 30
0.0
 11
116.337
 21
11.3056
 31
0.0
  0
LINE
  5
831
  8
0
 62
1
 10
116.337
 20
11.3056
 30
0.0
 11
116.255
 21
11.4944
 31
0.0
  0
LINE
  5
832
  8
0
 62
1
 10
116.255
 20
11.4944
 30
0.0
 11
116.185
 21
11.688
 31
0.0
  0
LINE
  5
833
  8
0
 62
1
 10
116.185
 20
11.688
 30
0.0
 11
116.128
 21
11.8855
 31
0.0
  0
LINE
  5
834
  8
0
 62
1
 10
116.128
 20
11.8855
 30
0.0
 11
116.083
 21
12.0863
 31
0.0
  0
LINE
  5
835
  8
0
 62
1
 10
116.083
 20
12.0863
 30
0.0
 11
116.051
 21
12.2895
 31
0.0
  0
LINE
  5
836
  8
0
 62
1
 10
116.051
 20
12.2895
 30
0.0
 11
116.031
 21
12.4944
 31
0.0
  0
LINE
  5
837
  8
0
 62
1
 10
116.031
 20
12.4944
 30
0.0
 11
116.025
 21
12.7
 31
0.0
  0
LINE
  5
838
  8
0
 62
1
 10
116.025
 20
12.7
 30
0.0
 11
116.031
 21
12.9056
 31
0.0
  0
LINE
  5
839
  8
0
 62
1
 10
116.031
 20
12.9056
 30
0.0
 11
116.051
 21
13.1105
 31
0.0
  0
LINE
  5
83A
  8
0
 62
1
 10
116.051
 20
13.1105
 30
0.0
 11
116.083
 21
13.3137
 31
0.0
  0
LINE
  5
83B
  8
0
 62
1
 10
116.083
 20
13.3137
 30
0.0
 11
116.128
 21
13.5145
 31
0.0
  0
LINE
  5
83C
  8
0
 62
1
 10
116.128
 20
13.5145
 30
0.0
 11
116.185
 21
13.712
 31
0.0
  0
LINE
  5
83D
  8
0
 62
1
 10
116.185
 20
13.712
 30
0.0
 11
116.255
 21
13.9056
 31
0.0
  0
LINE
  5
83E
  8
0
 62
1
 10
116.255
 20
13.9056
 30
0.0
 11
116.337
 21
14.0944
 31
0.0
  0
LINE
  5
83F
  8
0
 62
1
 10
116.337
 20
14.0944
 30
0.0
 11
116.43
 21
14.2777
 31
0.0
  0
LINE
  5
840
  8
0
 62
1
 10
116.43
 20
14.2777
 30
0.0
 11
116.535
 21
14.4548
 31
0.0
  0
LINE
  5
841
  8
0
 62
1
 10
116.535
 20
14.4548
 30
0.0
 11
116.65
 21
14.625
 31
0.0
  0
LINE
  5
842
  8
0
 62
1
 10
116.65
 20
14.625
 30
0.0
 11
116.777
 21
14.7876
 31
0.0
  0
LINE
  5
843
  8
0
 62
1
 10
116.777
 20
14.7876
 30
0.0
 11
116.913
 21
14.9419
 31
0.0
  0
LINE
  5
844
  8
0
 62
1
 10
116.913
 20
14.9419
 30
0.0
 11
117.058
 21
15.0874
 31
0.0
  0
LINE
  5
845
  8
0
 62
1
 10
117.058
 20
15.0874
 30
0.0
 11
117.212
 21
15.2234
 31
0.0
  0
LINE
  5
846
  8
0
 62
1
 10
117.212
 20
15.2234
 30
0.0
 11
117.375
 21
15.3495
 31
0.0
  0
LINE
  5
847
  8
0
 62
1
 10
117.375
 20
15.3495
 30
0.0
 11
117.545
 21
15.4652
 31
0.0
  0
LINE
  5
848
  8
0
 62
1
 10
117.545
 20
15.4652
 30
0.0
 11
117.722
 21
15.5699
 31
0.0
  0
LINE
  5
849
  8
0
 62
1
 10
117.722
 20
15.5699
 30
0.0
 11
117.906
 21
15.6633
 31
0.0
  0
LINE
  5
84A
  8
0
 62
1
 10
117.906
 20
15.6633
 30
0.0
 11
118.094
 21
15.745
 31
0.0
  0
LINE
  5
84B
  8
0
 62
1
 10
118.094
 20
15.745
 30
0.0
 11
118.288
 21
15.8147
 31
0.0
  0
LINE
  5
84C
  8
0
 62
1
 10
118.288
 20
15.8147
 30
0.0
 11
118.486
 21
15.8721
 31
0.0
  0
LINE
  5
84D
  8
0
 62
1
 10
118.486
 20
15.8721
 30
0.0
 11
118.686
 21
15.917
 31
0.0
  0
LINE
  5
84E
  8
0
 62
1
 10
118.686
 20
15.917
 30
0.0
 11
118.89
 21
15.9492
 31
0.0
  0
LINE
  5
84F
  8
0
 62
1
 10
118.89
 20
15.9492
 30
0.0
 11
119.094
 21
15.9685
 31
0.0
  0
LINE
  5
850
  8
0
 62
1
 10
119.094
 20
15.9685
 30
0.0
 11
119.3
 21
15.975
 31
0.0
  0
LINE
  5
851
  8
0
 62
1
 10
119.3
 20
15.975
 30
0.0
 11
119.506
 21
15.9685
 31
0.0
  0
LINE
  5
852
  8
0
 62
1
 10
119.506
 20
15.9685
 30
0.0
 11
119.71
 21
15.9492
 31
0.0
  0
LINE
  5
853
  8
0
 62
1
 10
119.71
 20
15.9492
 30
0.0
 11
119.914
 21
15.917
 31
0.0
  0
LINE
  5
854
  8
0
 62
1
 10
119.914
 20
15.917
 30
0.0
 11
120.114
 21
15.8721
 31
0.0
  0
LINE
  5
855
  8
0
 62
1
 10
120.114
 20
15.8721
 30
0.0
 11
120.312
 21
15.8147
 31
0.0
  0
LINE
  5
856
  8
0
 62
1
 10
120.312
 20
15.8147
 30
0.0
 11
120.506
 21
15.745
 31
0.0
  0
LINE
  5
857
  8
0
 62
1
 10
120.506
 20
15.745
 30
0.0
 11
120.694
 21
15.6633
 31
0.0
  0
LINE
  5
858
  8
0
 62
1
 10
120.694
 20
15.6633
 30
0.0
 11
120.878
 21
15.5699
 31
0.0
  0
LINE
  5
859
  8
0
 62
1
 10
120.878
 20
15.5699
 30
0.0
 11
121.055
 21
15.4652
 31
0.0
  0
LINE
  5
85A
  8
0
 62
1
 10
121.055
 20
15.4652
 30
0.0
 11
121.225
 21
15.3495
 31
0.0
  0
LINE
  5
85B
  8
0
 62
1
 10
121.225
 20
15.3495
 30
0.0
 11
121.388
 21
15.2234
 31
0.0
  0
LINE
  5
85C
  8
0
 62
1
 10
121.388
 20
15.2234
 30
0.0
 11
121.542
 21
15.0874
 31
0.0
  0
LINE
  5
85D
  8
0
 62
1
 10
121.542
 20
15.0874
 30
0.0
 11
121.687
 21
14.9419
 31
0.0
  0
LINE
  5
85E
  8
0
 62
1
 10
121.687
 20
14.9419
 30
0.0
 11
121.823
 21
14.7876
 31
0.0
  0
LINE
  5
85F
  8
0
 62
1
 10
121.823
 20
14.7876
 30
0.0
 11
121.95
 21
14.625
 31
0.0
  0
LINE
  5
860
  8
0
 62
1
 10
121.95
 20
14.625
 30
0.0
 11
122.065
 21
14.4548
 31
0.0
  0
LINE
  5
861
  8
0
 62
1
 10
122.065
 20
14.4548
 30
0.0
 11
122.17
 21
14.2777
 31
0.0
  0
LINE
  5
862
  8
0
 62
1
 10
122.17
 20
14.2777
 30
0.0
 11
122.263
 21
14.0944
 31
0.0
  0
LINE
  5
863
  8
0
 62
1
 10
122.263
 20
14.0944
 30
0.0
 11
122.345
 21
13.9056
 31
0.0
  0
LINE
  5
864
  8
0
 62
1
 10
122.345
 20
13.9056
 30
0.0
 11
122.415
 21
13.712
 31
0.0
  0
LINE
  5
865
  8
0
 62
1
 10
122.415
 20
13.712
 30
0.0
 11
122.472
 21
13.5145
 31
0.0
  0
LINE
  5
866
  8
0
 62
1
 10
122.472
 20
13.5145
 30
0.0
 11
122.517
 21
13.3137
 31
0.0
  0
LINE
  5
867
  8
0
 62
1
 10
122.517
 20
13.3137
 30
0.0
 11
122.549
 21
13.1105
 31
0.0
  0
LINE
  5
868
  8
0
 62
1
 10
122.549
 20
13.1105
 30
0.0
 11
122.569
 21
12.9056
 31
0.0
  0
LINE
  5
869
  8
0
 62
1
 10
122.569
 20
12.9056
 30
0.0
 11
122.575
 21
12.7
 31
0.0
  0
LINE
  5
86A
  8
0
 62
1
 10
122.575
 20
12.7
 30
0.0
 11
122.569
 21
12.4944
 31
0.0
  0
LINE
  5
86B
  8
0
 62
1
 10
122.569
 20
12.4944
 30
0.0
 11
122.549
 21
12.2895
 31
0.0
  0
LINE
  5
86C
  8
0
 62
1
 10
122.549
 20
12.2895
 30
0.0
 11
122.517
 21
12.0863
 31
0.0
  0
LINE
  5
86D
  8
0
 62
1
 10
122.517
 20
12.0863
 30
0.0
 11
122.472
 21
11.8855
 31
0.0
  0
LINE
  5
86E
  8
0
 62
1
 10
122.472
 20
11.8855
 30
0.0
 11
122.415
 21
11.688
 31
0.0
  0
LINE
  5
86F
  8
0
 62
1
 10
122.415
 20
11.688
 30
0.0
 11
122.345
 21
11.4944
 31
0.0
  0
LINE
  5
870
  8
0
 62
1
 10
122.345
 20
11.4944
 30
0.0
 11
122.263
 21
11.3056
 31
0.0
  0
LINE
  5
871
  8
0
 62
1
 10
122.263
 20
11.3056
 30
0.0
 11
122.17
 21
11.1223
 31
0.0
  0
LINE
  5
872
  8
0
 62
1
 10
122.17
 20
11.1223
 30
0.0
 11
122.065
 21
10.9452
 31
0.0
  0
LINE
  5
873
  8
0
 62
1
 10
122.065
 20
10.9452
 30
0.0
 11
121.95
 21
10.775
 31
0.0
  0
LINE
  5
874
  8
0
 62
1
 10
121.95
 20
10.775
 30
0.0
 11
121.823
 21
10.6124
 31
0.0
  0
LINE
  5
875
  8
0
 62
1
 10
121.823
 20
10.6124
 30
0.0
 11
121.687
 21
10.4581
 31
0.0
  0
LINE
  5
876
  8
0
 62
1
 10
121.687
 20
10.4581
 30
0.0
 11
121.542
 21
10.3126
 31
0.0
  0
LINE
  5
877
  8
0
 62
1
 10
121.542
 20
10.3126
 30
0.0
 11
121.388
 21
10.1766
 31
0.0
  0
LINE
  5
878
  8
0
 62
1
 10
121.388
 20
10.1766
 30
0.0
 11
121.225
 21
10.0505
 31
0.0
  0
LINE
  5
879
  8
0
 62
1
 10
121.225
 20
10.0505
 30
0.0
 11
121.055
 21
9.93483
 31
0.0
  0
LINE
  5
87A
  8
0
 62
1
 10
121.055
 20
9.93483
 30
0.0
 11
120.878
 21
9.83009
 31
0.0
  0
LINE
  5
87B
  8
0
 62
1
 10
120.878
 20
9.83009
 30
0.0
 11
120.694
 21
9.73669
 31
0.0
  0
LINE
  5
87C
  8
0
 62
1
 10
120.694
 20
9.73669
 30
0.0
 11
120.506
 21
9.65498
 31
0.0
  0
LINE
  5
87D
  8
0
 62
1
 10
120.506
 20
9.65498
 30
0.0
 11
120.312
 21
9.5853
 31
0.0
  0
LINE
  5
87E
  8
0
 62
1
 10
120.312
 20
9.5853
 30
0.0
 11
120.114
 21
9.52789
 31
0.0
  0
LINE
  5
87F
  8
0
 62
1
 10
120.114
 20
9.52789
 30
0.0
 11
119.914
 21
9.48302
 31
0.0
  0
LINE
  5
880
  8
0
 62
1
 10
119.914
 20
9.48302
 30
0.0
 11
119.71
 21
9.45084
 31
0.0
  0
LINE
  5
881
  8
0
 62
1
 10
119.71
 20
9.45084
 30
0.0
 11
119.506
 21
9.43147
 31
0.0
  0
LINE
  5
882
  8
0
 62
1
 10
119.506
 20
9.43147
 30
0.0
 11
119.3
 21
9.425
 31
0.0
  0
LINE
  5
883
  8
0
 62
1
 10
119.3
 20
9.425
 30
0.0
 11
119.094
 21
9.43147
 31
0.0
  0
LINE
  5
884
  8
0
 62
1
 10
93.6944
 20
9.43147
 30
0.0
 11
93.4895
 21
9.45084
 31
0.0
  0
LINE
  5
885
  8
0
 62
1
 10
93.4895
 20
9.45084
 30
0.0
 11
93.2863
 21
9.48302
 31
0.0
  0
LINE
  5
886
  8
0
 62
1
 10
93.2863
 20
9.48302
 30
0.0
 11
93.0855
 21
9.52791
 31
0.0
  0
LINE
  5
887
  8
0
 62
1
 10
93.0855
 20
9.52791
 30
0.0
 11
92.888
 21
9.5853
 31
0.0
  0
LINE
  5
888
  8
0
 62
1
 10
92.888
 20
9.5853
 30
0.0
 11
92.6944
 21
9.655
 31
0.0
  0
LINE
  5
889
  8
0
 62
1
 10
92.6944
 20
9.655
 30
0.0
 11
92.5056
 21
9.73671
 31
0.0
  0
LINE
  5
88A
  8
0
 62
1
 10
92.5056
 20
9.73671
 30
0.0
 11
92.3223
 21
9.83011
 31
0.0
  0
LINE
  5
88B
  8
0
 62
1
 10
92.3223
 20
9.83011
 30
0.0
 11
92.1452
 21
9.93484
 31
0.0
  0
LINE
  5
88C
  8
0
 62
1
 10
92.1452
 20
9.93484
 30
0.0
 11
91.975
 21
10.0505
 31
0.0
  0
LINE
  5
88D
  8
0
 62
1
 10
91.975
 20
10.0505
 30
0.0
 11
91.8124
 21
10.1766
 31
0.0
  0
LINE
  5
88E
  8
0
 62
1
 10
91.8124
 20
10.1766
 30
0.0
 11
91.6581
 21
10.3126
 31
0.0
  0
LINE
  5
88F
  8
0
 62
1
 10
91.6581
 20
10.3126
 30
0.0
 11
91.5126
 21
10.4581
 31
0.0
  0
LINE
  5
890
  8
0
 62
1
 10
91.5126
 20
10.4581
 30
0.0
 11
91.3766
 21
10.6125
 31
0.0
  0
LINE
  5
891
  8
0
 62
1
 10
91.3766
 20
10.6125
 30
0.0
 11
91.2505
 21
10.775
 31
0.0
  0
LINE
  5
892
  8
0
 62
1
 10
91.2505
 20
10.775
 30
0.0
 11
91.1348
 21
10.9452
 31
0.0
  0
LINE
  5
893
  8
0
 62
1
 10
91.1348
 20
10.9452
 30
0.0
 11
91.0301
 21
11.1223
 31
0.0
  0
LINE
  5
894
  8
0
 62
1
 10
91.0301
 20
11.1223
 30
0.0
 11
90.9367
 21
11.3056
 31
0.0
  0
LINE
  5
895
  8
0
 62
1
 10
90.9367
 20
11.3056
 30
0.0
 11
90.855
 21
11.4944
 31
0.0
  0
LINE
  5
896
  8
0
 62
1
 10
90.855
 20
11.4944
 30
0.0
 11
90.7853
 21
11.688
 31
0.0
  0
LINE
  5
897
  8
0
 62
1
 10
90.7853
 20
11.688
 30
0.0
 11
90.7279
 21
11.8856
 31
0.0
  0
LINE
  5
898
  8
0
 62
1
 10
90.7279
 20
11.8856
 30
0.0
 11
90.683
 21
12.0863
 31
0.0
  0
LINE
  5
899
  8
0
 62
1
 10
90.683
 20
12.0863
 30
0.0
 11
90.6508
 21
12.2896
 31
0.0
  0
LINE
  5
89A
  8
0
 62
1
 10
90.6508
 20
12.2896
 30
0.0
 11
90.6315
 21
12.4944
 31
0.0
  0
LINE
  5
89B
  8
0
 62
1
 10
90.6315
 20
12.4944
 30
0.0
 11
90.625
 21
12.7
 31
0.0
  0
LINE
  5
89C
  8
0
 62
1
 10
90.625
 20
12.7
 30
0.0
 11
90.6315
 21
12.9056
 31
0.0
  0
LINE
  5
89D
  8
0
 62
1
 10
90.6315
 20
12.9056
 30
0.0
 11
90.6508
 21
13.1105
 31
0.0
  0
LINE
  5
89E
  8
0
 62
1
 10
90.6508
 20
13.1105
 30
0.0
 11
90.683
 21
13.3137
 31
0.0
  0
LINE
  5
89F
  8
0
 62
1
 10
90.683
 20
13.3137
 30
0.0
 11
90.7279
 21
13.5145
 31
0.0
  0
LINE
  5
8A0
  8
0
 62
1
 10
90.7279
 20
13.5145
 30
0.0
 11
90.7853
 21
13.712
 31
0.0
  0
LINE
  5
8A1
  8
0
 62
1
 10
90.7853
 20
13.712
 30
0.0
 11
90.855
 21
13.9056
 31
0.0
  0
LINE
  5
8A2
  8
0
 62
1
 10
90.855
 20
13.9056
 30
0.0
 11
90.9367
 21
14.0944
 31
0.0
  0
LINE
  5
8A3
  8
0
 62
1
 10
90.9367
 20
14.0944
 30
0.0
 11
91.0301
 21
14.2777
 31
0.0
  0
LINE
  5
8A4
  8
0
 62
1
 10
91.0301
 20
14.2777
 30
0.0
 11
91.1348
 21
14.4548
 31
0.0
  0
LINE
  5
8A5
  8
0
 62
1
 10
91.1348
 20
14.4548
 30
0.0
 11
91.2505
 21
14.625
 31
0.0
  0
LINE
  5
8A6
  8
0
 62
1
 10
91.2505
 20
14.625
 30
0.0
 11
91.3766
 21
14.7876
 31
0.0
  0
LINE
  5
8A7
  8
0
 62
1
 10
91.3766
 20
14.7876
 30
0.0
 11
91.5126
 21
14.9419
 31
0.0
  0
LINE
  5
8A8
  8
0
 62
1
 10
91.5126
 20
14.9419
 30
0.0
 11
91.6581
 21
15.0874
 31
0.0
  0
LINE
  5
8A9
  8
0
 62
1
 10
91.6581
 20
15.0874
 30
0.0
 11
91.8124
 21
15.2234
 31
0.0
  0
LINE
  5
8AA
  8
0
 62
1
 10
91.8124
 20
15.2234
 30
0.0
 11
91.975
 21
15.3495
 31
0.0
  0
LINE
  5
8AB
  8
0
 62
1
 10
91.975
 20
15.3495
 30
0.0
 11
92.1452
 21
15.4652
 31
0.0
  0
LINE
  5
8AC
  8
0
 62
1
 10
92.1452
 20
15.4652
 30
0.0
 11
92.3223
 21
15.5699
 31
0.0
  0
LINE
  5
8AD
  8
0
 62
1
 10
92.3223
 20
15.5699
 30
0.0
 11
92.5056
 21
15.6633
 31
0.0
  0
LINE
  5
8AE
  8
0
 62
1
 10
92.5056
 20
15.6633
 30
0.0
 11
92.6944
 21
15.745
 31
0.0
  0
LINE
  5
8AF
  8
0
 62
1
 10
92.6944
 20
15.745
 30
0.0
 11
92.888
 21
15.8147
 31
0.0
  0
LINE
  5
8B0
  8
0
 62
1
 10
92.888
 20
15.8147
 30
0.0
 11
93.0855
 21
15.8721
 31
0.0
  0
LINE
  5
8B1
  8
0
 62
1
 10
93.0855
 20
15.8721
 30
0.0
 11
93.2863
 21
15.917
 31
0.0
  0
LINE
  5
8B2
  8
0
 62
1
 10
93.2863
 20
15.917
 30
0.0
 11
93.4895
 21
15.9492
 31
0.0
  0
LINE
  5
8B3
  8
0
 62
1
 10
93.4895
 20
15.9492
 30
0.0
 11
93.6944
 21
15.9685
 31
0.0
  0
LINE
  5
8B4
  8
0
 62
1
 10
93.6944
 20
15.9685
 30
0.0
 11
93.9
 21
15.975
 31
0.0
  0
LINE
  5
8B5
  8
0
 62
1
 10
93.9
 20
15.975
 30
0.0
 11
94.1056
 21
15.9685
 31
0.0
  0
LINE
  5
8B6
  8
0
 62
1
 10
94.1056
 20
15.9685
 30
0.0
 11
94.3105
 21
15.9492
 31
0.0
  0
LINE
  5
8B7
  8
0
 62
1
 10
94.3105
 20
15.9492
 30
0.0
 11
94.5137
 21
15.917
 31
0.0
  0
LINE
  5
8B8
  8
0
 62
1
 10
94.5137
 20
15.917
 30
0.0
 11
94.7144
 21
15.8721
 31
0.0
  0
LINE
  5
8B9
  8
0
 62
1
 10
94.7144
 20
15.8721
 30
0.0
 11
94.912
 21
15.8147
 31
0.0
  0
LINE
  5
8BA
  8
0
 62
1
 10
94.912
 20
15.8147
 30
0.0
 11
95.1056
 21
15.745
 31
0.0
  0
LINE
  5
8BB
  8
0
 62
1
 10
95.1056
 20
15.745
 30
0.0
 11
95.2944
 21
15.6633
 31
0.0
  0
LINE
  5
8BC
  8
0
 62
1
 10
95.2944
 20
15.6633
 30
0.0
 11
95.4777
 21
15.5699
 31
0.0
  0
LINE
  5
8BD
  8
0
 62
1
 10
95.4777
 20
15.5699
 30
0.0
 11
95.6548
 21
15.4652
 31
0.0
  0
LINE
  5
8BE
  8
0
 62
1
 10
95.6548
 20
15.4652
 30
0.0
 11
95.825
 21
15.3495
 31
0.0
  0
LINE
  5
8BF
  8
0
 62
1
 10
95.825
 20
15.3495
 30
0.0
 11
95.9876
 21
15.2234
 31
0.0
  0
LINE
  5
8C0
  8
0
 62
1
 10
95.9876
 20
15.2234
 30
0.0
 11
96.1419
 21
15.0874
 31
0.0
  0
LINE
  5
8C1
  8
0
 62
1
 10
96.1419
 20
15.0874
 30
0.0
 11
96.2874
 21
14.9419
 31
0.0
  0
LINE
  5
8C2
  8
0
 62
1
 10
96.2874
 20
14.9419
 30
0.0
 11
96.4234
 21
14.7876
 31
0.0
  0
LINE
  5
8C3
  8
0
 62
1
 10
96.4234
 20
14.7876
 30
0.0
 11
96.5495
 21
14.625
 31
0.0
  0
LINE
  5
8C4
  8
0
 62
1
 10
96.5495
 20
14.625
 30
0.0
 11
96.6652
 21
14.4548
 31
0.0
  0
LINE
  5
8C5
  8
0
 62
1
 10
96.6652
 20
14.4548
 30
0.0
 11
96.7699
 21
14.2777
 31
0.0
  0
LINE
  5
8C6
  8
0
 62
1
 10
96.7699
 20
14.2777
 30
0.0
 11
96.8633
 21
14.0944
 31
0.0
  0
LINE
  5
8C7
  8
0
 62
1
 10
96.8633
 20
14.0944
 30
0.0
 11
96.945
 21
13.9056
 31
0.0
  0
LINE
  5
8C8
  8
0
 62
1
 10
96.945
 20
13.9056
 30
0.0
 11
97.0147
 21
13.712
 31
0.0
  0
LINE
  5
8C9
  8
0
 62
1
 10
97.0147
 20
13.712
 30
0.0
 11
97.0721
 21
13.5145
 31
0.0
  0
LINE
  5
8CA
  8
0
 62
1
 10
97.0721
 20
13.5145
 30
0.0
 11
97.117
 21
13.3137
 31
0.0
  0
LINE
  5
8CB
  8
0
 62
1
 10
97.117
 20
13.3137
 30
0.0
 11
97.1492
 21
13.1105
 31
0.0
  0
LINE
  5
8CC
  8
0
 62
1
 10
97.1492
 20
13.1105
 30
0.0
 11
97.1685
 21
12.9056
 31
0.0
  0
LINE
  5
8CD
  8
0
 62
1
 10
97.1685
 20
12.9056
 30
0.0
 11
97.175
 21
12.7
 31
0.0
  0
LINE
  5
8CE
  8
0
 62
1
 10
97.175
 20
12.7
 30
0.0
 11
97.1685
 21
12.4944
 31
0.0
  0
LINE
  5
8CF
  8
0
 62
1
 10
97.1685
 20
12.4944
 30
0.0
 11
97.1492
 21
12.2896
 31
0.0
  0
LINE
  5
8D0
  8
0
 62
1
 10
97.1492
 20
12.2896
 30
0.0
 11
97.117
 21
12.0863
 31
0.0
  0
LINE
  5
8D1
  8
0
 62
1
 10
97.117
 20
12.0863
 30
0.0
 11
97.0721
 21
11.8856
 31
0.0
  0
LINE
  5
8D2
  8
0
 62
1
 10
97.0721
 20
11.8856
 30
0.0
 11
97.0147
 21
11.688
 31
0.0
  0
LINE
  5
8D3
  8
0
 62
1
 10
97.0147
 20
11.688
 30
0.0
 11
96.945
 21
11.4944
 31
0.0
  0
LINE
  5
8D4
  8
0
 62
1
 10
96.945
 20
11.4944
 30
0.0
 11
96.8633
 21
11.3056
 31
0.0
  0
LINE
  5
8D5
  8
0
 62
1
 10
96.8633
 20
11.3056
 30
0.0
 11
96.7699
 21
11.1223
 31
0.0
  0
LINE
  5
8D6
  8
0
 62
1
 10
96.7699
 20
11.1223
 30
0.0
 11
96.6652
 21
10.9452
 31
0.0
  0
LINE
  5
8D7
  8
0
 62
1
 10
96.6652
 20
10.9452
 30
0.0
 11
96.5495
 21
10.775
 31
0.0
  0
LINE
  5
8D8
  8
0
 62
1
 10
96.5495
 20
10.775
 30
0.0
 11
96.4234
 21
10.6125
 31
0.0
  0
LINE
  5
8D9
  8
0
 62
1
 10
96.4234
 20
10.6125
 30
0.0
 11
96.2874
 21
10.4581
 31
0.0
  0
LINE
  5
8DA
  8
0
 62
1
 10
96.2874
 20
10.4581
 30
0.0
 11
96.1419
 21
10.3126
 31
0.0
  0
LINE
  5
8DB
  8
0
 62
1
 10
96.1419
 20
10.3126
 30
0.0
 11
95.9875
 21
10.1766
 31
0.0
  0
LINE
  5
8DC
  8
0
 62
1
 10
95.9875
 20
10.1766
 30
0.0
 11
95.825
 21
10.0505
 31
0.0
  0
LINE
  5
8DD
  8
0
 62
1
 10
95.825
 20
10.0505
 30
0.0
 11
95.6548
 21
9.93484
 31
0.0
  0
LINE
  5
8DE
  8
0
 62
1
 10
95.6548
 20
9.93484
 30
0.0
 11
95.4777
 21
9.83011
 31
0.0
  0
LINE
  5
8DF
  8
0
 62
1
 10
95.4777
 20
9.83011
 30
0.0
 11
95.2944
 21
9.73671
 31
0.0
  0
LINE
  5
8E0
  8
0
 62
1
 10
95.2944
 20
9.73671
 30
0.0
 11
95.1056
 21
9.655
 31
0.0
  0
LINE
  5
8E1
  8
0
 62
1
 10
95.1056
 20
9.655
 30
0.0
 11
94.912
 21
9.5853
 31
0.0
  0
LINE
  5
8E2
  8
0
 62
1
 10
94.912
 20
9.5853
 30
0.0
 11
94.7144
 21
9.52791
 31
0.0
  0
LINE
  5
8E3
  8
0
 62
1
 10
94.7144
 20
9.52791
 30
0.0
 11
94.5137
 21
9.48302
 31
0.0
  0
LINE
  5
8E4
  8
0
 62
1
 10
94.5137
 20
9.48302
 30
0.0
 11
94.3105
 21
9.45084
 31
0.0
  0
LINE
  5
8E5
  8
0
 62
1
 10
94.3105
 20
9.45084
 30
0.0
 11
94.1056
 21
9.43147
 31
0.0
  0
LINE
  5
8E6
  8
0
 62
1
 10
94.1056
 20
9.43147
 30
0.0
 11
93.9
 21
9.42502
 31
0.0
  0
LINE
  5
8E7
  8
0
 62
1
 10
93.9
 20
9.42502
 30
0.0
 11
93.6944
 21
9.43147
 31
0.0
  0
ENDSEC
  0
EOF
