  0
SECTION
  2
BLOCKS
  0
ENDSEC
  0
SECTION
  2
ENTITIES
  0
LINE
  8
0
 10
76.2
 20
106.6
 11
0
 21
106.6
  0
LINE
  8
0
 10
0
 20
106.6
 11
0
 21
81.2
  0
LINE
  8
0
 10
0
 20
81.2
 11
50.8
 21
81.2
  0
LINE
  8
0
 10
50.8
 20
81.2
 11
50.8
 21
30.4
  0
LINE
  8
0
 10
50.8
 20
30.4
 11
76.2
 21
30.4
  0
LINE
  8
0
 10
76.2
 20
30.4
 11
76.2
 21
106.6
  0
LINE
  8
0
 10
12.4944
 20
90.6315
 11
12.2895
 21
90.6508
  0
LINE
  8
0
 10
12.2895
 20
90.6508
 11
12.0863
 21
90.683
  0
LINE
  8
0
 10
12.0863
 20
90.683
 11
11.8855
 21
90.7279
  0
LINE
  8
0
 10
11.8855
 20
90.7279
 11
11.688
 21
90.7853
  0
LINE
  8
0
 10
11.688
 20
90.7853
 11
11.4944
 21
90.855
  0
LINE
  8
0
 10
11.4944
 20
90.855
 11
11.3056
 21
90.9367
  0
LINE
  8
0
 10
11.3056
 20
90.9367
 11
11.1223
 21
91.0301
  0
LINE
  8
0
 10
11.1223
 20
91.0301
 11
10.9452
 21
91.1348
  0
LINE
  8
0
 10
10.9452
 20
91.1348
 11
10.775
 21
91.2505
  0
LINE
  8
0
 10
10.775
 20
91.2505
 11
10.6124
 21
91.3766
  0
LINE
  8
0
 10
10.6124
 20
91.3766
 11
10.4581
 21
91.5126
  0
LINE
  8
0
 10
10.4581
 20
91.5126
 11
10.3126
 21
91.6581
  0
LINE
  8
0
 10
10.3126
 20
91.6581
 11
10.1766
 21
91.8124
  0
LINE
  8
0
 10
10.1766
 20
91.8124
 11
10.0505
 21
91.975
  0
LINE
  8
0
 10
10.0505
 20
91.975
 11
9.93483
 21
92.1452
  0
LINE
  8
0
 10
9.93483
 20
92.1452
 11
9.83009
 21
92.3223
  0
LINE
  8
0
 10
9.83009
 20
92.3223
 11
9.73669
 21
92.5056
  0
LINE
  8
0
 10
9.73669
 20
92.5056
 11
9.65498
 21
92.6944
  0
LINE
  8
0
 10
9.65498
 20
92.6944
 11
9.58528
 21
92.888
  0
LINE
  8
0
 10
9.58528
 20
92.888
 11
9.52789
 21
93.0855
  0
LINE
  8
0
 10
9.52789
 20
93.0855
 11
9.483
 21
93.2863
  0
LINE
  8
0
 10
9.483
 20
93.2863
 11
9.45082
 21
93.4895
  0
LINE
  8
0
 10
9.45082
 20
93.4895
 11
9.43146
 21
93.6944
  0
LINE
  8
0
 10
9.43146
 20
93.6944
 11
9.425
 21
93.9
  0
LINE
  8
0
 10
9.425
 20
93.9
 11
9.43146
 21
94.1056
  0
LINE
  8
0
 10
9.43146
 20
94.1056
 11
9.45082
 21
94.3105
  0
LINE
  8
0
 10
9.45082
 20
94.3105
 11
9.483
 21
94.5137
  0
LINE
  8
0
 10
9.483
 20
94.5137
 11
9.52789
 21
94.7144
  0
LINE
  8
0
 10
9.52789
 20
94.7144
 11
9.58528
 21
94.912
  0
LINE
  8
0
 10
9.58528
 20
94.912
 11
9.65498
 21
95.1056
  0
LINE
  8
0
 10
9.65498
 20
95.1056
 11
9.73669
 21
95.2944
  0
LINE
  8
0
 10
9.73669
 20
95.2944
 11
9.83009
 21
95.4777
  0
LINE
  8
0
 10
9.83009
 20
95.4777
 11
9.93483
 21
95.6548
  0
LINE
  8
0
 10
9.93483
 20
95.6548
 11
10.0505
 21
95.825
  0
LINE
  8
0
 10
10.0505
 20
95.825
 11
10.1766
 21
95.9875
  0
LINE
  8
0
 10
10.1766
 20
95.9875
 11
10.3126
 21
96.1419
  0
LINE
  8
0
 10
10.3126
 20
96.1419
 11
10.4581
 21
96.2874
  0
LINE
  8
0
 10
10.4581
 20
96.2874
 11
10.6124
 21
96.4234
  0
LINE
  8
0
 10
10.6124
 20
96.4234
 11
10.775
 21
96.5495
  0
LINE
  8
0
 10
10.775
 20
96.5495
 11
10.9452
 21
96.6652
  0
LINE
  8
0
 10
10.9452
 20
96.6652
 11
11.1223
 21
96.7699
  0
LINE
  8
0
 10
11.1223
 20
96.7699
 11
11.3056
 21
96.8633
  0
LINE
  8
0
 10
11.3056
 20
96.8633
 11
11.4944
 21
96.945
  0
LINE
  8
0
 10
11.4944
 20
96.945
 11
11.688
 21
97.0147
  0
LINE
  8
0
 10
11.688
 20
97.0147
 11
11.8855
 21
97.0721
  0
LINE
  8
0
 10
11.8855
 20
97.0721
 11
12.0863
 21
97.117
  0
LINE
  8
0
 10
12.0863
 20
97.117
 11
12.2895
 21
97.1492
  0
LINE
  8
0
 10
12.2895
 20
97.1492
 11
12.4944
 21
97.1685
  0
LINE
  8
0
 10
12.4944
 20
97.1685
 11
12.7
 21
97.175
  0
LINE
  8
0
 10
12.7
 20
97.175
 11
12.9056
 21
97.1685
  0
LINE
  8
0
 10
12.9056
 20
97.1685
 11
13.1105
 21
97.1492
  0
LINE
  8
0
 10
13.1105
 20
97.1492
 11
13.3137
 21
97.117
  0
LINE
  8
0
 10
13.3137
 20
97.117
 11
13.5145
 21
97.0721
  0
LINE
  8
0
 10
13.5145
 20
97.0721
 11
13.712
 21
97.0147
  0
LINE
  8
0
 10
13.712
 20
97.0147
 11
13.9056
 21
96.945
  0
LINE
  8
0
 10
13.9056
 20
96.945
 11
14.0944
 21
96.8633
  0
LINE
  8
0
 10
14.0944
 20
96.8633
 11
14.2777
 21
96.7699
  0
LINE
  8
0
 10
14.2777
 20
96.7699
 11
14.4548
 21
96.6652
  0
LINE
  8
0
 10
14.4548
 20
96.6652
 11
14.625
 21
96.5495
  0
LINE
  8
0
 10
14.625
 20
96.5495
 11
14.7876
 21
96.4234
  0
LINE
  8
0
 10
14.7876
 20
96.4234
 11
14.9419
 21
96.2874
  0
LINE
  8
0
 10
14.9419
 20
96.2874
 11
15.0874
 21
96.1419
  0
LINE
  8
0
 10
15.0874
 20
96.1419
 11
15.2234
 21
95.9875
  0
LINE
  8
0
 10
15.2234
 20
95.9875
 11
15.3495
 21
95.825
  0
LINE
  8
0
 10
15.3495
 20
95.825
 11
15.4652
 21
95.6548
  0
LINE
  8
0
 10
15.4652
 20
95.6548
 11
15.5699
 21
95.4777
  0
LINE
  8
0
 10
15.5699
 20
95.4777
 11
15.6633
 21
95.2944
  0
LINE
  8
0
 10
15.6633
 20
95.2944
 11
15.745
 21
95.1056
  0
LINE
  8
0
 10
15.745
 20
95.1056
 11
15.8147
 21
94.912
  0
LINE
  8
0
 10
15.8147
 20
94.912
 11
15.8721
 21
94.7144
  0
LINE
  8
0
 10
15.8721
 20
94.7144
 11
15.917
 21
94.5137
  0
LINE
  8
0
 10
15.917
 20
94.5137
 11
15.9492
 21
94.3105
  0
LINE
  8
0
 10
15.9492
 20
94.3105
 11
15.9685
 21
94.1056
  0
LINE
  8
0
 10
15.9685
 20
94.1056
 11
15.975
 21
93.9
  0
LINE
  8
0
 10
15.975
 20
93.9
 11
15.9685
 21
93.6944
  0
LINE
  8
0
 10
15.9685
 20
93.6944
 11
15.9492
 21
93.4895
  0
LINE
  8
0
 10
15.9492
 20
93.4895
 11
15.917
 21
93.2863
  0
LINE
  8
0
 10
15.917
 20
93.2863
 11
15.8721
 21
93.0855
  0
LINE
  8
0
 10
15.8721
 20
93.0855
 11
15.8147
 21
92.888
  0
LINE
  8
0
 10
15.8147
 20
92.888
 11
15.745
 21
92.6944
  0
LINE
  8
0
 10
15.745
 20
92.6944
 11
15.6633
 21
92.5056
  0
LINE
  8
0
 10
15.6633
 20
92.5056
 11
15.5699
 21
92.3223
  0
LINE
  8
0
 10
15.5699
 20
92.3223
 11
15.4652
 21
92.1452
  0
LINE
  8
0
 10
15.4652
 20
92.1452
 11
15.3495
 21
91.975
  0
LINE
  8
0
 10
15.3495
 20
91.975
 11
15.2234
 21
91.8124
  0
LINE
  8
0
 10
15.2234
 20
91.8124
 11
15.0874
 21
91.6581
  0
LINE
  8
0
 10
15.0874
 20
91.6581
 11
14.9419
 21
91.5126
  0
LINE
  8
0
 10
14.9419
 20
91.5126
 11
14.7876
 21
91.3766
  0
LINE
  8
0
 10
14.7876
 20
91.3766
 11
14.625
 21
91.2505
  0
LINE
  8
0
 10
14.625
 20
91.2505
 11
14.4548
 21
91.1348
  0
LINE
  8
0
 10
14.4548
 20
91.1348
 11
14.2777
 21
91.0301
  0
LINE
  8
0
 10
14.2777
 20
91.0301
 11
14.0944
 21
90.9367
  0
LINE
  8
0
 10
14.0944
 20
90.9367
 11
13.9056
 21
90.855
  0
LINE
  8
0
 10
13.9056
 20
90.855
 11
13.712
 21
90.7853
  0
LINE
  8
0
 10
13.712
 20
90.7853
 11
13.5145
 21
90.7279
  0
LINE
  8
0
 10
13.5145
 20
90.7279
 11
13.3137
 21
90.683
  0
LINE
  8
0
 10
13.3137
 20
90.683
 11
13.1105
 21
90.6508
  0
LINE
  8
0
 10
13.1105
 20
90.6508
 11
12.9056
 21
90.6315
  0
LINE
  8
0
 10
12.9056
 20
90.6315
 11
12.7
 21
90.625
  0
LINE
  8
0
 10
12.7
 20
90.625
 11
12.4944
 21
90.6315
  0
LINE
  8
0
 10
37.8944
 20
90.6315
 11
37.6895
 21
90.6508
  0
LINE
  8
0
 10
37.6895
 20
90.6508
 11
37.4863
 21
90.683
  0
LINE
  8
0
 10
37.4863
 20
90.683
 11
37.2855
 21
90.7279
  0
LINE
  8
0
 10
37.2855
 20
90.7279
 11
37.088
 21
90.7853
  0
LINE
  8
0
 10
37.088
 20
90.7853
 11
36.8944
 21
90.855
  0
LINE
  8
0
 10
36.8944
 20
90.855
 11
36.7056
 21
90.9367
  0
LINE
  8
0
 10
36.7056
 20
90.9367
 11
36.5223
 21
91.0301
  0
LINE
  8
0
 10
36.5223
 20
91.0301
 11
36.3452
 21
91.1348
  0
LINE
  8
0
 10
36.3452
 20
91.1348
 11
36.175
 21
91.2505
  0
LINE
  8
0
 10
36.175
 20
91.2505
 11
36.0124
 21
91.3766
  0
LINE
  8
0
 10
36.0124
 20
91.3766
 11
35.8581
 21
91.5126
  0
LINE
  8
0
 10
35.8581
 20
91.5126
 11
35.7126
 21
91.6581
  0
LINE
  8
0
 10
35.7126
 20
91.6581
 11
35.5766
 21
91.8124
  0
LINE
  8
0
 10
35.5766
 20
91.8124
 11
35.4505
 21
91.975
  0
LINE
  8
0
 10
35.4505
 20
91.975
 11
35.3348
 21
92.1452
  0
LINE
  8
0
 10
35.3348
 20
92.1452
 11
35.2301
 21
92.3223
  0
LINE
  8
0
 10
35.2301
 20
92.3223
 11
35.1367
 21
92.5056
  0
LINE
  8
0
 10
35.1367
 20
92.5056
 11
35.055
 21
92.6944
  0
LINE
  8
0
 10
35.055
 20
92.6944
 11
34.9853
 21
92.888
  0
LINE
  8
0
 10
34.9853
 20
92.888
 11
34.9279
 21
93.0855
  0
LINE
  8
0
 10
34.9279
 20
93.0855
 11
34.883
 21
93.2863
  0
LINE
  8
0
 10
34.883
 20
93.2863
 11
34.8508
 21
93.4895
  0
LINE
  8
0
 10
34.8508
 20
93.4895
 11
34.8315
 21
93.6944
  0
LINE
  8
0
 10
34.8315
 20
93.6944
 11
34.825
 21
93.9
  0
LINE
  8
0
 10
34.825
 20
93.9
 11
34.8315
 21
94.1056
  0
LINE
  8
0
 10
34.8315
 20
94.1056
 11
34.8508
 21
94.3105
  0
LINE
  8
0
 10
34.8508
 20
94.3105
 11
34.883
 21
94.5137
  0
LINE
  8
0
 10
34.883
 20
94.5137
 11
34.9279
 21
94.7144
  0
LINE
  8
0
 10
34.9279
 20
94.7144
 11
34.9853
 21
94.912
  0
LINE
  8
0
 10
34.9853
 20
94.912
 11
35.055
 21
95.1056
  0
LINE
  8
0
 10
35.055
 20
95.1056
 11
35.1367
 21
95.2944
  0
LINE
  8
0
 10
35.1367
 20
95.2944
 11
35.2301
 21
95.4777
  0
LINE
  8
0
 10
35.2301
 20
95.4777
 11
35.3348
 21
95.6548
  0
LINE
  8
0
 10
35.3348
 20
95.6548
 11
35.4505
 21
95.825
  0
LINE
  8
0
 10
35.4505
 20
95.825
 11
35.5766
 21
95.9875
  0
LINE
  8
0
 10
35.5766
 20
95.9875
 11
35.7126
 21
96.1419
  0
LINE
  8
0
 10
35.7126
 20
96.1419
 11
35.8581
 21
96.2874
  0
LINE
  8
0
 10
35.8581
 20
96.2874
 11
36.0124
 21
96.4234
  0
LINE
  8
0
 10
36.0124
 20
96.4234
 11
36.175
 21
96.5495
  0
LINE
  8
0
 10
36.175
 20
96.5495
 11
36.3452
 21
96.6652
  0
LINE
  8
0
 10
36.3452
 20
96.6652
 11
36.5223
 21
96.7699
  0
LINE
  8
0
 10
36.5223
 20
96.7699
 11
36.7056
 21
96.8633
  0
LINE
  8
0
 10
36.7056
 20
96.8633
 11
36.8944
 21
96.945
  0
LINE
  8
0
 10
36.8944
 20
96.945
 11
37.088
 21
97.0147
  0
LINE
  8
0
 10
37.088
 20
97.0147
 11
37.2855
 21
97.0721
  0
LINE
  8
0
 10
37.2855
 20
97.0721
 11
37.4863
 21
97.117
  0
LINE
  8
0
 10
37.4863
 20
97.117
 11
37.6895
 21
97.1492
  0
LINE
  8
0
 10
37.6895
 20
97.1492
 11
37.8944
 21
97.1685
  0
LINE
  8
0
 10
37.8944
 20
97.1685
 11
38.1
 21
97.175
  0
LINE
  8
0
 10
38.1
 20
97.175
 11
38.3056
 21
97.1685
  0
LINE
  8
0
 10
38.3056
 20
97.1685
 11
38.5105
 21
97.1492
  0
LINE
  8
0
 10
38.5105
 20
97.1492
 11
38.7137
 21
97.117
  0
LINE
  8
0
 10
38.7137
 20
97.117
 11
38.9144
 21
97.0721
  0
LINE
  8
0
 10
38.9144
 20
97.0721
 11
39.112
 21
97.0147
  0
LINE
  8
0
 10
39.112
 20
97.0147
 11
39.3056
 21
96.945
  0
LINE
  8
0
 10
39.3056
 20
96.945
 11
39.4944
 21
96.8633
  0
LINE
  8
0
 10
39.4944
 20
96.8633
 11
39.6777
 21
96.7699
  0
LINE
  8
0
 10
39.6777
 20
96.7699
 11
39.8548
 21
96.6652
  0
LINE
  8
0
 10
39.8548
 20
96.6652
 11
40.025
 21
96.5495
  0
LINE
  8
0
 10
40.025
 20
96.5495
 11
40.1875
 21
96.4234
  0
LINE
  8
0
 10
40.1875
 20
96.4234
 11
40.3419
 21
96.2874
  0
LINE
  8
0
 10
40.3419
 20
96.2874
 11
40.4874
 21
96.1419
  0
LINE
  8
0
 10
40.4874
 20
96.1419
 11
40.6234
 21
95.9875
  0
LINE
  8
0
 10
40.6234
 20
95.9875
 11
40.7495
 21
95.825
  0
LINE
  8
0
 10
40.7495
 20
95.825
 11
40.8652
 21
95.6548
  0
LINE
  8
0
 10
40.8652
 20
95.6548
 11
40.9699
 21
95.4777
  0
LINE
  8
0
 10
40.9699
 20
95.4777
 11
41.0633
 21
95.2944
  0
LINE
  8
0
 10
41.0633
 20
95.2944
 11
41.145
 21
95.1056
  0
LINE
  8
0
 10
41.145
 20
95.1056
 11
41.2147
 21
94.912
  0
LINE
  8
0
 10
41.2147
 20
94.912
 11
41.2721
 21
94.7144
  0
LINE
  8
0
 10
41.2721
 20
94.7144
 11
41.317
 21
94.5137
  0
LINE
  8
0
 10
41.317
 20
94.5137
 11
41.3492
 21
94.3105
  0
LINE
  8
0
 10
41.3492
 20
94.3105
 11
41.3685
 21
94.1056
  0
LINE
  8
0
 10
41.3685
 20
94.1056
 11
41.375
 21
93.9
  0
LINE
  8
0
 10
41.375
 20
93.9
 11
41.3685
 21
93.6944
  0
LINE
  8
0
 10
41.3685
 20
93.6944
 11
41.3492
 21
93.4895
  0
LINE
  8
0
 10
41.3492
 20
93.4895
 11
41.317
 21
93.2863
  0
LINE
  8
0
 10
41.317
 20
93.2863
 11
41.2721
 21
93.0855
  0
LINE
  8
0
 10
41.2721
 20
93.0855
 11
41.2147
 21
92.888
  0
LINE
  8
0
 10
41.2147
 20
92.888
 11
41.145
 21
92.6944
  0
LINE
  8
0
 10
41.145
 20
92.6944
 11
41.0633
 21
92.5056
  0
LINE
  8
0
 10
41.0633
 20
92.5056
 11
40.9699
 21
92.3223
  0
LINE
  8
0
 10
40.9699
 20
92.3223
 11
40.8652
 21
92.1452
  0
LINE
  8
0
 10
40.8652
 20
92.1452
 11
40.7495
 21
91.975
  0
LINE
  8
0
 10
40.7495
 20
91.975
 11
40.6234
 21
91.8124
  0
LINE
  8
0
 10
40.6234
 20
91.8124
 11
40.4874
 21
91.6581
  0
LINE
  8
0
 10
40.4874
 20
91.6581
 11
40.3419
 21
91.5126
  0
LINE
  8
0
 10
40.3419
 20
91.5126
 11
40.1875
 21
91.3766
  0
LINE
  8
0
 10
40.1875
 20
91.3766
 11
40.025
 21
91.2505
  0
LINE
  8
0
 10
40.025
 20
91.2505
 11
39.8548
 21
91.1348
  0
LINE
  8
0
 10
39.8548
 20
91.1348
 11
39.6777
 21
91.0301
  0
LINE
  8
0
 10
39.6777
 20
91.0301
 11
39.4944
 21
90.9367
  0
LINE
  8
0
 10
39.4944
 20
90.9367
 11
39.3056
 21
90.855
  0
LINE
  8
0
 10
39.3056
 20
90.855
 11
39.112
 21
90.7853
  0
LINE
  8
0
 10
39.112
 20
90.7853
 11
38.9144
 21
90.7279
  0
LINE
  8
0
 10
38.9144
 20
90.7279
 11
38.7137
 21
90.683
  0
LINE
  8
0
 10
38.7137
 20
90.683
 11
38.5105
 21
90.6508
  0
LINE
  8
0
 10
38.5105
 20
90.6508
 11
38.3056
 21
90.6315
  0
LINE
  8
0
 10
38.3056
 20
90.6315
 11
38.1
 21
90.625
  0
LINE
  8
0
 10
38.1
 20
90.625
 11
37.8944
 21
90.6315
  0
LINE
  8
0
 10
63.2943
 20
90.6315
 11
63.0895
 21
90.6508
  0
LINE
  8
0
 10
63.0895
 20
90.6508
 11
62.8863
 21
90.683
  0
LINE
  8
0
 10
62.8863
 20
90.683
 11
62.6855
 21
90.7279
  0
LINE
  8
0
 10
62.6855
 20
90.7279
 11
62.4879
 21
90.7853
  0
LINE
  8
0
 10
62.4879
 20
90.7853
 11
62.2944
 21
90.855
  0
LINE
  8
0
 10
62.2944
 20
90.855
 11
62.1056
 21
90.9367
  0
LINE
  8
0
 10
62.1056
 20
90.9367
 11
61.9223
 21
91.0301
  0
LINE
  8
0
 10
61.9223
 20
91.0301
 11
61.7451
 21
91.1348
  0
LINE
  8
0
 10
61.7451
 20
91.1348
 11
61.575
 21
91.2505
  0
LINE
  8
0
 10
61.575
 20
91.2505
 11
61.4124
 21
91.3766
  0
LINE
  8
0
 10
61.4124
 20
91.3766
 11
61.2581
 21
91.5126
  0
LINE
  8
0
 10
61.2581
 20
91.5126
 11
61.1126
 21
91.6581
  0
LINE
  8
0
 10
61.1126
 20
91.6581
 11
60.9765
 21
91.8124
  0
LINE
  8
0
 10
60.9765
 20
91.8124
 11
60.8504
 21
91.975
  0
LINE
  8
0
 10
60.8504
 20
91.975
 11
60.7348
 21
92.1452
  0
LINE
  8
0
 10
60.7348
 20
92.1452
 11
60.6301
 21
92.3223
  0
LINE
  8
0
 10
60.6301
 20
92.3223
 11
60.5367
 21
92.5056
  0
LINE
  8
0
 10
60.5367
 20
92.5056
 11
60.455
 21
92.6944
  0
LINE
  8
0
 10
60.455
 20
92.6944
 11
60.3853
 21
92.888
  0
LINE
  8
0
 10
60.3853
 20
92.888
 11
60.3279
 21
93.0855
  0
LINE
  8
0
 10
60.3279
 20
93.0855
 11
60.283
 21
93.2863
  0
LINE
  8
0
 10
60.283
 20
93.2863
 11
60.2508
 21
93.4895
  0
LINE
  8
0
 10
60.2508
 20
93.4895
 11
60.2315
 21
93.6944
  0
LINE
  8
0
 10
60.2315
 20
93.6944
 11
60.225
 21
93.9
  0
LINE
  8
0
 10
60.225
 20
93.9
 11
60.2315
 21
94.1056
  0
LINE
  8
0
 10
60.2315
 20
94.1056
 11
60.2508
 21
94.3104
  0
LINE
  8
0
 10
60.2508
 20
94.3104
 11
60.283
 21
94.5137
  0
LINE
  8
0
 10
60.283
 20
94.5137
 11
60.3279
 21
94.7144
  0
LINE
  8
0
 10
60.3279
 20
94.7144
 11
60.3853
 21
94.912
  0
LINE
  8
0
 10
60.3853
 20
94.912
 11
60.455
 21
95.1056
  0
LINE
  8
0
 10
60.455
 20
95.1056
 11
60.5367
 21
95.2944
  0
LINE
  8
0
 10
60.5367
 20
95.2944
 11
60.6301
 21
95.4777
  0
LINE
  8
0
 10
60.6301
 20
95.4777
 11
60.7348
 21
95.6548
  0
LINE
  8
0
 10
60.7348
 20
95.6548
 11
60.8505
 21
95.825
  0
LINE
  8
0
 10
60.8505
 20
95.825
 11
60.9766
 21
95.9875
  0
LINE
  8
0
 10
60.9766
 20
95.9875
 11
61.1126
 21
96.1419
  0
LINE
  8
0
 10
61.1126
 20
96.1419
 11
61.2581
 21
96.2874
  0
LINE
  8
0
 10
61.2581
 20
96.2874
 11
61.4124
 21
96.4234
  0
LINE
  8
0
 10
61.4124
 20
96.4234
 11
61.575
 21
96.5495
  0
LINE
  8
0
 10
61.575
 20
96.5495
 11
61.7452
 21
96.6651
  0
LINE
  8
0
 10
61.7452
 20
96.6651
 11
61.9223
 21
96.7699
  0
LINE
  8
0
 10
61.9223
 20
96.7699
 11
62.1056
 21
96.8633
  0
LINE
  8
0
 10
62.1056
 20
96.8633
 11
62.2944
 21
96.945
  0
LINE
  8
0
 10
62.2944
 20
96.945
 11
62.488
 21
97.0147
  0
LINE
  8
0
 10
62.488
 20
97.0147
 11
62.6855
 21
97.0721
  0
LINE
  8
0
 10
62.6855
 20
97.0721
 11
62.8863
 21
97.117
  0
LINE
  8
0
 10
62.8863
 20
97.117
 11
63.0895
 21
97.1492
  0
LINE
  8
0
 10
63.0895
 20
97.1492
 11
63.2944
 21
97.1685
  0
LINE
  8
0
 10
63.2944
 20
97.1685
 11
63.5
 21
97.175
  0
LINE
  8
0
 10
63.5
 20
97.175
 11
63.7056
 21
97.1685
  0
LINE
  8
0
 10
63.7056
 20
97.1685
 11
63.9104
 21
97.1492
  0
LINE
  8
0
 10
63.9104
 20
97.1492
 11
64.1136
 21
97.117
  0
LINE
  8
0
 10
64.1136
 20
97.117
 11
64.3144
 21
97.0721
  0
LINE
  8
0
 10
64.3144
 20
97.0721
 11
64.512
 21
97.0147
  0
LINE
  8
0
 10
64.512
 20
97.0147
 11
64.7056
 21
96.945
  0
LINE
  8
0
 10
64.7056
 20
96.945
 11
64.8944
 21
96.8633
  0
LINE
  8
0
 10
64.8944
 20
96.8633
 11
65.0777
 21
96.7699
  0
LINE
  8
0
 10
65.0777
 20
96.7699
 11
65.2548
 21
96.6651
  0
LINE
  8
0
 10
65.2548
 20
96.6651
 11
65.425
 21
96.5495
  0
LINE
  8
0
 10
65.425
 20
96.5495
 11
65.5875
 21
96.4234
  0
LINE
  8
0
 10
65.5875
 20
96.4234
 11
65.7419
 21
96.2874
  0
LINE
  8
0
 10
65.7419
 20
96.2874
 11
65.8873
 21
96.1419
  0
LINE
  8
0
 10
65.8873
 20
96.1419
 11
66.0234
 21
95.9875
  0
LINE
  8
0
 10
66.0234
 20
95.9875
 11
66.1495
 21
95.825
  0
LINE
  8
0
 10
66.1495
 20
95.825
 11
66.2652
 21
95.6548
  0
LINE
  8
0
 10
66.2652
 20
95.6548
 11
66.3699
 21
95.4777
  0
LINE
  8
0
 10
66.3699
 20
95.4777
 11
66.4633
 21
95.2944
  0
LINE
  8
0
 10
66.4633
 20
95.2944
 11
66.545
 21
95.1056
  0
LINE
  8
0
 10
66.545
 20
95.1056
 11
66.6147
 21
94.912
  0
LINE
  8
0
 10
66.6147
 20
94.912
 11
66.6721
 21
94.7144
  0
LINE
  8
0
 10
66.6721
 20
94.7144
 11
66.717
 21
94.5137
  0
LINE
  8
0
 10
66.717
 20
94.5137
 11
66.7491
 21
94.3104
  0
LINE
  8
0
 10
66.7491
 20
94.3104
 11
66.7685
 21
94.1056
  0
LINE
  8
0
 10
66.7685
 20
94.1056
 11
66.775
 21
93.9
  0
LINE
  8
0
 10
66.775
 20
93.9
 11
66.7685
 21
93.6944
  0
LINE
  8
0
 10
66.7685
 20
93.6944
 11
66.7491
 21
93.4895
  0
LINE
  8
0
 10
66.7491
 20
93.4895
 11
66.717
 21
93.2863
  0
LINE
  8
0
 10
66.717
 20
93.2863
 11
66.6721
 21
93.0855
  0
LINE
  8
0
 10
66.6721
 20
93.0855
 11
66.6147
 21
92.888
  0
LINE
  8
0
 10
66.6147
 20
92.888
 11
66.545
 21
92.6944
  0
LINE
  8
0
 10
66.545
 20
92.6944
 11
66.4633
 21
92.5056
  0
LINE
  8
0
 10
66.4633
 20
92.5056
 11
66.3699
 21
92.3223
  0
LINE
  8
0
 10
66.3699
 20
92.3223
 11
66.2652
 21
92.1452
  0
LINE
  8
0
 10
66.2652
 20
92.1452
 11
66.1495
 21
91.975
  0
LINE
  8
0
 10
66.1495
 20
91.975
 11
66.0234
 21
91.8124
  0
LINE
  8
0
 10
66.0234
 20
91.8124
 11
65.8874
 21
91.6581
  0
LINE
  8
0
 10
65.8874
 20
91.6581
 11
65.7419
 21
91.5126
  0
LINE
  8
0
 10
65.7419
 20
91.5126
 11
65.5875
 21
91.3766
  0
LINE
  8
0
 10
65.5875
 20
91.3766
 11
65.425
 21
91.2505
  0
LINE
  8
0
 10
65.425
 20
91.2505
 11
65.2548
 21
91.1348
  0
LINE
  8
0
 10
65.2548
 20
91.1348
 11
65.0777
 21
91.0301
  0
LINE
  8
0
 10
65.0777
 20
91.0301
 11
64.8944
 21
90.9367
  0
LINE
  8
0
 10
64.8944
 20
90.9367
 11
64.7056
 21
90.855
  0
LINE
  8
0
 10
64.7056
 20
90.855
 11
64.512
 21
90.7853
  0
LINE
  8
0
 10
64.512
 20
90.7853
 11
64.3144
 21
90.7279
  0
LINE
  8
0
 10
64.3144
 20
90.7279
 11
64.1137
 21
90.683
  0
LINE
  8
0
 10
64.1137
 20
90.683
 11
63.9104
 21
90.6508
  0
LINE
  8
0
 10
63.9104
 20
90.6508
 11
63.7056
 21
90.6315
  0
LINE
  8
0
 10
63.7056
 20
90.6315
 11
63.5
 21
90.625
  0
LINE
  8
0
 10
63.5
 20
90.625
 11
63.2943
 21
90.6315
  0
LINE
  8
0
 10
63.2944
 20
65.2315
 11
63.0895
 21
65.2508
  0
LINE
  8
0
 10
63.0895
 20
65.2508
 11
62.8863
 21
65.283
  0
LINE
  8
0
 10
62.8863
 20
65.283
 11
62.6855
 21
65.3279
  0
LINE
  8
0
 10
62.6855
 20
65.3279
 11
62.488
 21
65.3853
  0
LINE
  8
0
 10
62.488
 20
65.3853
 11
62.2944
 21
65.455
  0
LINE
  8
0
 10
62.2944
 20
65.455
 11
62.1056
 21
65.5367
  0
LINE
  8
0
 10
62.1056
 20
65.5367
 11
61.9223
 21
65.6301
  0
LINE
  8
0
 10
61.9223
 20
65.6301
 11
61.7452
 21
65.7348
  0
LINE
  8
0
 10
61.7452
 20
65.7348
 11
61.575
 21
65.8505
  0
LINE
  8
0
 10
61.575
 20
65.8505
 11
61.4124
 21
65.9766
  0
LINE
  8
0
 10
61.4124
 20
65.9766
 11
61.2581
 21
66.1126
  0
LINE
  8
0
 10
61.2581
 20
66.1126
 11
61.1126
 21
66.2581
  0
LINE
  8
0
 10
61.1126
 20
66.2581
 11
60.9766
 21
66.4124
  0
LINE
  8
0
 10
60.9766
 20
66.4124
 11
60.8505
 21
66.575
  0
LINE
  8
0
 10
60.8505
 20
66.575
 11
60.7348
 21
66.7452
  0
LINE
  8
0
 10
60.7348
 20
66.7452
 11
60.6301
 21
66.9223
  0
LINE
  8
0
 10
60.6301
 20
66.9223
 11
60.5367
 21
67.1056
  0
LINE
  8
0
 10
60.5367
 20
67.1056
 11
60.455
 21
67.2944
  0
LINE
  8
0
 10
60.455
 20
67.2944
 11
60.3853
 21
67.488
  0
LINE
  8
0
 10
60.3853
 20
67.488
 11
60.3279
 21
67.6855
  0
LINE
  8
0
 10
60.3279
 20
67.6855
 11
60.283
 21
67.8863
  0
LINE
  8
0
 10
60.283
 20
67.8863
 11
60.2508
 21
68.0895
  0
LINE
  8
0
 10
60.2508
 20
68.0895
 11
60.2315
 21
68.2944
  0
LINE
  8
0
 10
60.2315
 20
68.2944
 11
60.225
 21
68.5
  0
LINE
  8
0
 10
60.225
 20
68.5
 11
60.2315
 21
68.7056
  0
LINE
  8
0
 10
60.2315
 20
68.7056
 11
60.2508
 21
68.9105
  0
LINE
  8
0
 10
60.2508
 20
68.9105
 11
60.283
 21
69.1137
  0
LINE
  8
0
 10
60.283
 20
69.1137
 11
60.3279
 21
69.3145
  0
LINE
  8
0
 10
60.3279
 20
69.3145
 11
60.3853
 21
69.512
  0
LINE
  8
0
 10
60.3853
 20
69.512
 11
60.455
 21
69.7056
  0
LINE
  8
0
 10
60.455
 20
69.7056
 11
60.5367
 21
69.8944
  0
LINE
  8
0
 10
60.5367
 20
69.8944
 11
60.6301
 21
70.0777
  0
LINE
  8
0
 10
60.6301
 20
70.0777
 11
60.7348
 21
70.2548
  0
LINE
  8
0
 10
60.7348
 20
70.2548
 11
60.8505
 21
70.425
  0
LINE
  8
0
 10
60.8505
 20
70.425
 11
60.9766
 21
70.5876
  0
LINE
  8
0
 10
60.9766
 20
70.5876
 11
61.1126
 21
70.7419
  0
LINE
  8
0
 10
61.1126
 20
70.7419
 11
61.2581
 21
70.8874
  0
LINE
  8
0
 10
61.2581
 20
70.8874
 11
61.4124
 21
71.0234
  0
LINE
  8
0
 10
61.4124
 20
71.0234
 11
61.575
 21
71.1495
  0
LINE
  8
0
 10
61.575
 20
71.1495
 11
61.7452
 21
71.2652
  0
LINE
  8
0
 10
61.7452
 20
71.2652
 11
61.9223
 21
71.3699
  0
LINE
  8
0
 10
61.9223
 20
71.3699
 11
62.1056
 21
71.4633
  0
LINE
  8
0
 10
62.1056
 20
71.4633
 11
62.2944
 21
71.545
  0
LINE
  8
0
 10
62.2944
 20
71.545
 11
62.488
 21
71.6147
  0
LINE
  8
0
 10
62.488
 20
71.6147
 11
62.6855
 21
71.6721
  0
LINE
  8
0
 10
62.6855
 20
71.6721
 11
62.8863
 21
71.717
  0
LINE
  8
0
 10
62.8863
 20
71.717
 11
63.0895
 21
71.7492
  0
LINE
  8
0
 10
63.0895
 20
71.7492
 11
63.2944
 21
71.7685
  0
LINE
  8
0
 10
63.2944
 20
71.7685
 11
63.5
 21
71.775
  0
LINE
  8
0
 10
63.5
 20
71.775
 11
63.7056
 21
71.7685
  0
LINE
  8
0
 10
63.7056
 20
71.7685
 11
63.9104
 21
71.7492
  0
LINE
  8
0
 10
63.9104
 20
71.7492
 11
64.1136
 21
71.717
  0
LINE
  8
0
 10
64.1136
 20
71.717
 11
64.3144
 21
71.6721
  0
LINE
  8
0
 10
64.3144
 20
71.6721
 11
64.512
 21
71.6147
  0
LINE
  8
0
 10
64.512
 20
71.6147
 11
64.7056
 21
71.545
  0
LINE
  8
0
 10
64.7056
 20
71.545
 11
64.8944
 21
71.4633
  0
LINE
  8
0
 10
64.8944
 20
71.4633
 11
65.0777
 21
71.3699
  0
LINE
  8
0
 10
65.0777
 20
71.3699
 11
65.2548
 21
71.2652
  0
LINE
  8
0
 10
65.2548
 20
71.2652
 11
65.425
 21
71.1495
  0
LINE
  8
0
 10
65.425
 20
71.1495
 11
65.5875
 21
71.0234
  0
LINE
  8
0
 10
65.5875
 20
71.0234
 11
65.7419
 21
70.8874
  0
LINE
  8
0
 10
65.7419
 20
70.8874
 11
65.8873
 21
70.7419
  0
LINE
  8
0
 10
65.8873
 20
70.7419
 11
66.0234
 21
70.5876
  0
LINE
  8
0
 10
66.0234
 20
70.5876
 11
66.1495
 21
70.425
  0
LINE
  8
0
 10
66.1495
 20
70.425
 11
66.2652
 21
70.2548
  0
LINE
  8
0
 10
66.2652
 20
70.2548
 11
66.3699
 21
70.0777
  0
LINE
  8
0
 10
66.3699
 20
70.0777
 11
66.4633
 21
69.8944
  0
LINE
  8
0
 10
66.4633
 20
69.8944
 11
66.545
 21
69.7056
  0
LINE
  8
0
 10
66.545
 20
69.7056
 11
66.6147
 21
69.512
  0
LINE
  8
0
 10
66.6147
 20
69.512
 11
66.6721
 21
69.3145
  0
LINE
  8
0
 10
66.6721
 20
69.3145
 11
66.717
 21
69.1137
  0
LINE
  8
0
 10
66.717
 20
69.1137
 11
66.7491
 21
68.9105
  0
LINE
  8
0
 10
66.7491
 20
68.9105
 11
66.7685
 21
68.7056
  0
LINE
  8
0
 10
66.7685
 20
68.7056
 11
66.775
 21
68.5
  0
LINE
  8
0
 10
66.775
 20
68.5
 11
66.7685
 21
68.2944
  0
LINE
  8
0
 10
66.7685
 20
68.2944
 11
66.7491
 21
68.0895
  0
LINE
  8
0
 10
66.7491
 20
68.0895
 11
66.717
 21
67.8863
  0
LINE
  8
0
 10
66.717
 20
67.8863
 11
66.6721
 21
67.6855
  0
LINE
  8
0
 10
66.6721
 20
67.6855
 11
66.6147
 21
67.488
  0
LINE
  8
0
 10
66.6147
 20
67.488
 11
66.545
 21
67.2944
  0
LINE
  8
0
 10
66.545
 20
67.2944
 11
66.4633
 21
67.1056
  0
LINE
  8
0
 10
66.4633
 20
67.1056
 11
66.3699
 21
66.9223
  0
LINE
  8
0
 10
66.3699
 20
66.9223
 11
66.2652
 21
66.7452
  0
LINE
  8
0
 10
66.2652
 20
66.7452
 11
66.1495
 21
66.575
  0
LINE
  8
0
 10
66.1495
 20
66.575
 11
66.0234
 21
66.4124
  0
LINE
  8
0
 10
66.0234
 20
66.4124
 11
65.8873
 21
66.2581
  0
LINE
  8
0
 10
65.8873
 20
66.2581
 11
65.7419
 21
66.1126
  0
LINE
  8
0
 10
65.7419
 20
66.1126
 11
65.5875
 21
65.9766
  0
LINE
  8
0
 10
65.5875
 20
65.9766
 11
65.425
 21
65.8505
  0
LINE
  8
0
 10
65.425
 20
65.8505
 11
65.2548
 21
65.7348
  0
LINE
  8
0
 10
65.2548
 20
65.7348
 11
65.0777
 21
65.6301
  0
LINE
  8
0
 10
65.0777
 20
65.6301
 11
64.8944
 21
65.5367
  0
LINE
  8
0
 10
64.8944
 20
65.5367
 11
64.7056
 21
65.455
  0
LINE
  8
0
 10
64.7056
 20
65.455
 11
64.512
 21
65.3853
  0
LINE
  8
0
 10
64.512
 20
65.3853
 11
64.3144
 21
65.3279
  0
LINE
  8
0
 10
64.3144
 20
65.3279
 11
64.1136
 21
65.283
  0
LINE
  8
0
 10
64.1136
 20
65.283
 11
63.9104
 21
65.2508
  0
LINE
  8
0
 10
63.9104
 20
65.2508
 11
63.7056
 21
65.2315
  0
LINE
  8
0
 10
63.7056
 20
65.2315
 11
63.5
 21
65.225
  0
LINE
  8
0
 10
63.5
 20
65.225
 11
63.2944
 21
65.2315
  0
LINE
  8
0
 10
63.2944
 20
39.8315
 11
63.0895
 21
39.8508
  0
LINE
  8
0
 10
63.0895
 20
39.8508
 11
62.8863
 21
39.883
  0
LINE
  8
0
 10
62.8863
 20
39.883
 11
62.6855
 21
39.9279
  0
LINE
  8
0
 10
62.6855
 20
39.9279
 11
62.488
 21
39.9853
  0
LINE
  8
0
 10
62.488
 20
39.9853
 11
62.2944
 21
40.055
  0
LINE
  8
0
 10
62.2944
 20
40.055
 11
62.1056
 21
40.1367
  0
LINE
  8
0
 10
62.1056
 20
40.1367
 11
61.9223
 21
40.2301
  0
LINE
  8
0
 10
61.9223
 20
40.2301
 11
61.7452
 21
40.3348
  0
LINE
  8
0
 10
61.7452
 20
40.3348
 11
61.575
 21
40.4505
  0
LINE
  8
0
 10
61.575
 20
40.4505
 11
61.4124
 21
40.5766
  0
LINE
  8
0
 10
61.4124
 20
40.5766
 11
61.2581
 21
40.7126
  0
LINE
  8
0
 10
61.2581
 20
40.7126
 11
61.1126
 21
40.8581
  0
LINE
  8
0
 10
61.1126
 20
40.8581
 11
60.9766
 21
41.0125
  0
LINE
  8
0
 10
60.9766
 20
41.0125
 11
60.8505
 21
41.175
  0
LINE
  8
0
 10
60.8505
 20
41.175
 11
60.7348
 21
41.3452
  0
LINE
  8
0
 10
60.7348
 20
41.3452
 11
60.6301
 21
41.5223
  0
LINE
  8
0
 10
60.6301
 20
41.5223
 11
60.5367
 21
41.7056
  0
LINE
  8
0
 10
60.5367
 20
41.7056
 11
60.455
 21
41.8944
  0
LINE
  8
0
 10
60.455
 20
41.8944
 11
60.3853
 21
42.088
  0
LINE
  8
0
 10
60.3853
 20
42.088
 11
60.3279
 21
42.2856
  0
LINE
  8
0
 10
60.3279
 20
42.2856
 11
60.283
 21
42.4863
  0
LINE
  8
0
 10
60.283
 20
42.4863
 11
60.2508
 21
42.6895
  0
LINE
  8
0
 10
60.2508
 20
42.6895
 11
60.2315
 21
42.8944
  0
LINE
  8
0
 10
60.2315
 20
42.8944
 11
60.225
 21
43.1
  0
LINE
  8
0
 10
60.225
 20
43.1
 11
60.2315
 21
43.3056
  0
LINE
  8
0
 10
60.2315
 20
43.3056
 11
60.2508
 21
43.5105
  0
LINE
  8
0
 10
60.2508
 20
43.5105
 11
60.283
 21
43.7137
  0
LINE
  8
0
 10
60.283
 20
43.7137
 11
60.3279
 21
43.9145
  0
LINE
  8
0
 10
60.3279
 20
43.9145
 11
60.3853
 21
44.112
  0
LINE
  8
0
 10
60.3853
 20
44.112
 11
60.455
 21
44.3056
  0
LINE
  8
0
 10
60.455
 20
44.3056
 11
60.5367
 21
44.4944
  0
LINE
  8
0
 10
60.5367
 20
44.4944
 11
60.6301
 21
44.6777
  0
LINE
  8
0
 10
60.6301
 20
44.6777
 11
60.7348
 21
44.8548
  0
LINE
  8
0
 10
60.7348
 20
44.8548
 11
60.8505
 21
45.025
  0
LINE
  8
0
 10
60.8505
 20
45.025
 11
60.9766
 21
45.1876
  0
LINE
  8
0
 10
60.9766
 20
45.1876
 11
61.1126
 21
45.3419
  0
LINE
  8
0
 10
61.1126
 20
45.3419
 11
61.2581
 21
45.4874
  0
LINE
  8
0
 10
61.2581
 20
45.4874
 11
61.4124
 21
45.6234
  0
LINE
  8
0
 10
61.4124
 20
45.6234
 11
61.575
 21
45.7495
  0
LINE
  8
0
 10
61.575
 20
45.7495
 11
61.7452
 21
45.8652
  0
LINE
  8
0
 10
61.7452
 20
45.8652
 11
61.9223
 21
45.9699
  0
LINE
  8
0
 10
61.9223
 20
45.9699
 11
62.1056
 21
46.0633
  0
LINE
  8
0
 10
62.1056
 20
46.0633
 11
62.2944
 21
46.145
  0
LINE
  8
0
 10
62.2944
 20
46.145
 11
62.488
 21
46.2147
  0
LINE
  8
0
 10
62.488
 20
46.2147
 11
62.6855
 21
46.2721
  0
LINE
  8
0
 10
62.6855
 20
46.2721
 11
62.8863
 21
46.317
  0
LINE
  8
0
 10
62.8863
 20
46.317
 11
63.0895
 21
46.3492
  0
LINE
  8
0
 10
63.0895
 20
46.3492
 11
63.2944
 21
46.3685
  0
LINE
  8
0
 10
63.2944
 20
46.3685
 11
63.5
 21
46.375
  0
LINE
  8
0
 10
63.5
 20
46.375
 11
63.7056
 21
46.3685
  0
LINE
  8
0
 10
63.7056
 20
46.3685
 11
63.9104
 21
46.3492
  0
LINE
  8
0
 10
63.9104
 20
46.3492
 11
64.1136
 21
46.317
  0
LINE
  8
0
 10
64.1136
 20
46.317
 11
64.3144
 21
46.2721
  0
LINE
  8
0
 10
64.3144
 20
46.2721
 11
64.512
 21
46.2147
  0
LINE
  8
0
 10
64.512
 20
46.2147
 11
64.7056
 21
46.145
  0
LINE
  8
0
 10
64.7056
 20
46.145
 11
64.8944
 21
46.0633
  0
LINE
  8
0
 10
64.8944
 20
46.0633
 11
65.0777
 21
45.9699
  0
LINE
  8
0
 10
65.0777
 20
45.9699
 11
65.2548
 21
45.8652
  0
LINE
  8
0
 10
65.2548
 20
45.8652
 11
65.425
 21
45.7495
  0
LINE
  8
0
 10
65.425
 20
45.7495
 11
65.5875
 21
45.6234
  0
LINE
  8
0
 10
65.5875
 20
45.6234
 11
65.7419
 21
45.4874
  0
LINE
  8
0
 10
65.7419
 20
45.4874
 11
65.8873
 21
45.3419
  0
LINE
  8
0
 10
65.8873
 20
45.3419
 11
66.0234
 21
45.1876
  0
LINE
  8
0
 10
66.0234
 20
45.1876
 11
66.1495
 21
45.025
  0
LINE
  8
0
 10
66.1495
 20
45.025
 11
66.2652
 21
44.8548
  0
LINE
  8
0
 10
66.2652
 20
44.8548
 11
66.3699
 21
44.6777
  0
LINE
  8
0
 10
66.3699
 20
44.6777
 11
66.4633
 21
44.4944
  0
LINE
  8
0
 10
66.4633
 20
44.4944
 11
66.545
 21
44.3056
  0
LINE
  8
0
 10
66.545
 20
44.3056
 11
66.6147
 21
44.112
  0
LINE
  8
0
 10
66.6147
 20
44.112
 11
66.6721
 21
43.9145
  0
LINE
  8
0
 10
66.6721
 20
43.9145
 11
66.717
 21
43.7137
  0
LINE
  8
0
 10
66.717
 20
43.7137
 11
66.7491
 21
43.5105
  0
LINE
  8
0
 10
66.7491
 20
43.5105
 11
66.7685
 21
43.3056
  0
LINE
  8
0
 10
66.7685
 20
43.3056
 11
66.775
 21
43.1
  0
LINE
  8
0
 10
66.775
 20
43.1
 11
66.7685
 21
42.8944
  0
LINE
  8
0
 10
66.7685
 20
42.8944
 11
66.7491
 21
42.6895
  0
LINE
  8
0
 10
66.7491
 20
42.6895
 11
66.717
 21
42.4863
  0
LINE
  8
0
 10
66.717
 20
42.4863
 11
66.6721
 21
42.2856
  0
LINE
  8
0
 10
66.6721
 20
42.2856
 11
66.6147
 21
42.088
  0
LINE
  8
0
 10
66.6147
 20
42.088
 11
66.545
 21
41.8944
  0
LINE
  8
0
 10
66.545
 20
41.8944
 11
66.4633
 21
41.7056
  0
LINE
  8
0
 10
66.4633
 20
41.7056
 11
66.3699
 21
41.5223
  0
LINE
  8
0
 10
66.3699
 20
41.5223
 11
66.2652
 21
41.3452
  0
LINE
  8
0
 10
66.2652
 20
41.3452
 11
66.1495
 21
41.175
  0
LINE
  8
0
 10
66.1495
 20
41.175
 11
66.0234
 21
41.0125
  0
LINE
  8
0
 10
66.0234
 20
41.0125
 11
65.8873
 21
40.8581
  0
LINE
  8
0
 10
65.8873
 20
40.8581
 11
65.7419
 21
40.7126
  0
LINE
  8
0
 10
65.7419
 20
40.7126
 11
65.5875
 21
40.5766
  0
LINE
  8
0
 10
65.5875
 20
40.5766
 11
65.425
 21
40.4505
  0
LINE
  8
0
 10
65.425
 20
40.4505
 11
65.2548
 21
40.3348
  0
LINE
  8
0
 10
65.2548
 20
40.3348
 11
65.0777
 21
40.2301
  0
LINE
  8
0
 10
65.0777
 20
40.2301
 11
64.8944
 21
40.1367
  0
LINE
  8
0
 10
64.8944
 20
40.1367
 11
64.7056
 21
40.055
  0
LINE
  8
0
 10
64.7056
 20
40.055
 11
64.512
 21
39.9853
  0
LINE
  8
0
 10
64.512
 20
39.9853
 11
64.3144
 21
39.9279
  0
LINE
  8
0
 10
64.3144
 20
39.9279
 11
64.1136
 21
39.883
  0
LINE
  8
0
 10
64.1136
 20
39.883
 11
63.9104
 21
39.8508
  0
LINE
  8
0
 10
63.9104
 20
39.8508
 11
63.7056
 21
39.8315
  0
LINE
  8
0
 10
63.7056
 20
39.8315
 11
63.5
 21
39.825
  0
LINE
  8
0
 10
63.5
 20
39.825
 11
63.2944
 21
39.8315
  0
LINE
  8
0
 10
157.4
 20
106.6
 11
81.2
 21
106.6
  0
LINE
  8
0
 10
81.2
 20
106.6
 11
81.2
 21
81.2
  0
LINE
  8
0
 10
81.2
 20
81.2
 11
132
 21
81.2
  0
LINE
  8
0
 10
132
 20
81.2
 11
132
 21
30.4
  0
LINE
  8
0
 10
132
 20
30.4
 11
157.4
 21
30.4
  0
LINE
  8
0
 10
157.4
 20
30.4
 11
157.4
 21
106.6
  0
LINE
  8
0
 10
119.094
 20
90.6315
 11
118.89
 21
90.6508
  0
LINE
  8
0
 10
118.89
 20
90.6508
 11
118.686
 21
90.683
  0
LINE
  8
0
 10
118.686
 20
90.683
 11
118.486
 21
90.7279
  0
LINE
  8
0
 10
118.486
 20
90.7279
 11
118.288
 21
90.7853
  0
LINE
  8
0
 10
118.288
 20
90.7853
 11
118.094
 21
90.855
  0
LINE
  8
0
 10
118.094
 20
90.855
 11
117.906
 21
90.9367
  0
LINE
  8
0
 10
117.906
 20
90.9367
 11
117.722
 21
91.0301
  0
LINE
  8
0
 10
117.722
 20
91.0301
 11
117.545
 21
91.1348
  0
LINE
  8
0
 10
117.545
 20
91.1348
 11
117.375
 21
91.2505
  0
LINE
  8
0
 10
117.375
 20
91.2505
 11
117.212
 21
91.3766
  0
LINE
  8
0
 10
117.212
 20
91.3766
 11
117.058
 21
91.5126
  0
LINE
  8
0
 10
117.058
 20
91.5126
 11
116.913
 21
91.6581
  0
LINE
  8
0
 10
116.913
 20
91.6581
 11
116.777
 21
91.8124
  0
LINE
  8
0
 10
116.777
 20
91.8124
 11
116.65
 21
91.975
  0
LINE
  8
0
 10
116.65
 20
91.975
 11
116.535
 21
92.1452
  0
LINE
  8
0
 10
116.535
 20
92.1452
 11
116.43
 21
92.3223
  0
LINE
  8
0
 10
116.43
 20
92.3223
 11
116.337
 21
92.5056
  0
LINE
  8
0
 10
116.337
 20
92.5056
 11
116.255
 21
92.6944
  0
LINE
  8
0
 10
116.255
 20
92.6944
 11
116.185
 21
92.888
  0
LINE
  8
0
 10
116.185
 20
92.888
 11
116.128
 21
93.0855
  0
LINE
  8
0
 10
116.128
 20
93.0855
 11
116.083
 21
93.2863
  0
LINE
  8
0
 10
116.083
 20
93.2863
 11
116.051
 21
93.4895
  0
LINE
  8
0
 10
116.051
 20
93.4895
 11
116.031
 21
93.6944
  0
LINE
  8
0
 10
116.031
 20
93.6944
 11
116.025
 21
93.9
  0
LINE
  8
0
 10
116.025
 20
93.9
 11
116.031
 21
94.1056
  0
LINE
  8
0
 10
116.031
 20
94.1056
 11
116.051
 21
94.3105
  0
LINE
  8
0
 10
116.051
 20
94.3105
 11
116.083
 21
94.5137
  0
LINE
  8
0
 10
116.083
 20
94.5137
 11
116.128
 21
94.7144
  0
LINE
  8
0
 10
116.128
 20
94.7144
 11
116.185
 21
94.912
  0
LINE
  8
0
 10
116.185
 20
94.912
 11
116.255
 21
95.1056
  0
LINE
  8
0
 10
116.255
 20
95.1056
 11
116.337
 21
95.2944
  0
LINE
  8
0
 10
116.337
 20
95.2944
 11
116.43
 21
95.4777
  0
LINE
  8
0
 10
116.43
 20
95.4777
 11
116.535
 21
95.6548
  0
LINE
  8
0
 10
116.535
 20
95.6548
 11
116.65
 21
95.825
  0
LINE
  8
0
 10
116.65
 20
95.825
 11
116.777
 21
95.9875
  0
LINE
  8
0
 10
116.777
 20
95.9875
 11
116.913
 21
96.1419
  0
LINE
  8
0
 10
116.913
 20
96.1419
 11
117.058
 21
96.2874
  0
LINE
  8
0
 10
117.058
 20
96.2874
 11
117.212
 21
96.4234
  0
LINE
  8
0
 10
117.212
 20
96.4234
 11
117.375
 21
96.5495
  0
LINE
  8
0
 10
117.375
 20
96.5495
 11
117.545
 21
96.6652
  0
LINE
  8
0
 10
117.545
 20
96.6652
 11
117.722
 21
96.7699
  0
LINE
  8
0
 10
117.722
 20
96.7699
 11
117.906
 21
96.8633
  0
LINE
  8
0
 10
117.906
 20
96.8633
 11
118.094
 21
96.945
  0
LINE
  8
0
 10
118.094
 20
96.945
 11
118.288
 21
97.0147
  0
LINE
  8
0
 10
118.288
 20
97.0147
 11
118.486
 21
97.0721
  0
LINE
  8
0
 10
118.486
 20
97.0721
 11
118.686
 21
97.117
  0
LINE
  8
0
 10
118.686
 20
97.117
 11
118.89
 21
97.1492
  0
LINE
  8
0
 10
118.89
 20
97.1492
 11
119.094
 21
97.1685
  0
LINE
  8
0
 10
119.094
 20
97.1685
 11
119.3
 21
97.175
  0
LINE
  8
0
 10
119.3
 20
97.175
 11
119.506
 21
97.1685
  0
LINE
  8
0
 10
119.506
 20
97.1685
 11
119.71
 21
97.1492
  0
LINE
  8
0
 10
119.71
 20
97.1492
 11
119.914
 21
97.117
  0
LINE
  8
0
 10
119.914
 20
97.117
 11
120.114
 21
97.0721
  0
LINE
  8
0
 10
120.114
 20
97.0721
 11
120.312
 21
97.0147
  0
LINE
  8
0
 10
120.312
 20
97.0147
 11
120.506
 21
96.945
  0
LINE
  8
0
 10
120.506
 20
96.945
 11
120.694
 21
96.8633
  0
LINE
  8
0
 10
120.694
 20
96.8633
 11
120.878
 21
96.7699
  0
LINE
  8
0
 10
120.878
 20
96.7699
 11
121.055
 21
96.6652
  0
LINE
  8
0
 10
121.055
 20
96.6652
 11
121.225
 21
96.5495
  0
LINE
  8
0
 10
121.225
 20
96.5495
 11
121.388
 21
96.4234
  0
LINE
  8
0
 10
121.388
 20
96.4234
 11
121.542
 21
96.2874
  0
LINE
  8
0
 10
121.542
 20
96.2874
 11
121.687
 21
96.1419
  0
LINE
  8
0
 10
121.687
 20
96.1419
 11
121.823
 21
95.9875
  0
LINE
  8
0
 10
121.823
 20
95.9875
 11
121.95
 21
95.825
  0
LINE
  8
0
 10
121.95
 20
95.825
 11
122.065
 21
95.6548
  0
LINE
  8
0
 10
122.065
 20
95.6548
 11
122.17
 21
95.4777
  0
LINE
  8
0
 10
122.17
 20
95.4777
 11
122.263
 21
95.2944
  0
LINE
  8
0
 10
122.263
 20
95.2944
 11
122.345
 21
95.1056
  0
LINE
  8
0
 10
122.345
 20
95.1056
 11
122.415
 21
94.912
  0
LINE
  8
0
 10
122.415
 20
94.912
 11
122.472
 21
94.7144
  0
LINE
  8
0
 10
122.472
 20
94.7144
 11
122.517
 21
94.5137
  0
LINE
  8
0
 10
122.517
 20
94.5137
 11
122.549
 21
94.3105
  0
LINE
  8
0
 10
122.549
 20
94.3105
 11
122.569
 21
94.1056
  0
LINE
  8
0
 10
122.569
 20
94.1056
 11
122.575
 21
93.9
  0
LINE
  8
0
 10
122.575
 20
93.9
 11
122.569
 21
93.6944
  0
LINE
  8
0
 10
122.569
 20
93.6944
 11
122.549
 21
93.4895
  0
LINE
  8
0
 10
122.549
 20
93.4895
 11
122.517
 21
93.2863
  0
LINE
  8
0
 10
122.517
 20
93.2863
 11
122.472
 21
93.0855
  0
LINE
  8
0
 10
122.472
 20
93.0855
 11
122.415
 21
92.888
  0
LINE
  8
0
 10
122.415
 20
92.888
 11
122.345
 21
92.6944
  0
LINE
  8
0
 10
122.345
 20
92.6944
 11
122.263
 21
92.5056
  0
LINE
  8
0
 10
122.263
 20
92.5056
 11
122.17
 21
92.3223
  0
LINE
  8
0
 10
122.17
 20
92.3223
 11
122.065
 21
92.1452
  0
LINE
  8
0
 10
122.065
 20
92.1452
 11
121.95
 21
91.975
  0
LINE
  8
0
 10
121.95
 20
91.975
 11
121.823
 21
91.8124
  0
LINE
  8
0
 10
121.823
 20
91.8124
 11
121.687
 21
91.6581
  0
LINE
  8
0
 10
121.687
 20
91.6581
 11
121.542
 21
91.5126
  0
LINE
  8
0
 10
121.542
 20
91.5126
 11
121.388
 21
91.3766
  0
LINE
  8
0
 10
121.388
 20
91.3766
 11
121.225
 21
91.2505
  0
LINE
  8
0
 10
121.225
 20
91.2505
 11
121.055
 21
91.1348
  0
LINE
  8
0
 10
121.055
 20
91.1348
 11
120.878
 21
91.0301
  0
LINE
  8
0
 10
120.878
 20
91.0301
 11
120.694
 21
90.9367
  0
LINE
  8
0
 10
120.694
 20
90.9367
 11
120.506
 21
90.855
  0
LINE
  8
0
 10
120.506
 20
90.855
 11
120.312
 21
90.7853
  0
LINE
  8
0
 10
120.312
 20
90.7853
 11
120.114
 21
90.7279
  0
LINE
  8
0
 10
120.114
 20
90.7279
 11
119.914
 21
90.683
  0
LINE
  8
0
 10
119.914
 20
90.683
 11
119.71
 21
90.6508
  0
LINE
  8
0
 10
119.71
 20
90.6508
 11
119.506
 21
90.6315
  0
LINE
  8
0
 10
119.506
 20
90.6315
 11
119.3
 21
90.625
  0
LINE
  8
0
 10
119.3
 20
90.625
 11
119.094
 21
90.6315
  0
LINE
  8
0
 10
93.6944
 20
90.6315
 11
93.4895
 21
90.6508
  0
LINE
  8
0
 10
93.4895
 20
90.6508
 11
93.2863
 21
90.683
  0
LINE
  8
0
 10
93.2863
 20
90.683
 11
93.0855
 21
90.7279
  0
LINE
  8
0
 10
93.0855
 20
90.7279
 11
92.888
 21
90.7853
  0
LINE
  8
0
 10
92.888
 20
90.7853
 11
92.6944
 21
90.855
  0
LINE
  8
0
 10
92.6944
 20
90.855
 11
92.5056
 21
90.9367
  0
LINE
  8
0
 10
92.5056
 20
90.9367
 11
92.3223
 21
91.0301
  0
LINE
  8
0
 10
92.3223
 20
91.0301
 11
92.1452
 21
91.1348
  0
LINE
  8
0
 10
92.1452
 20
91.1348
 11
91.975
 21
91.2505
  0
LINE
  8
0
 10
91.975
 20
91.2505
 11
91.8124
 21
91.3766
  0
LINE
  8
0
 10
91.8124
 20
91.3766
 11
91.6581
 21
91.5126
  0
LINE
  8
0
 10
91.6581
 20
91.5126
 11
91.5126
 21
91.6581
  0
LINE
  8
0
 10
91.5126
 20
91.6581
 11
91.3766
 21
91.8124
  0
LINE
  8
0
 10
91.3766
 20
91.8124
 11
91.2505
 21
91.975
  0
LINE
  8
0
 10
91.2505
 20
91.975
 11
91.1348
 21
92.1452
  0
LINE
  8
0
 10
91.1348
 20
92.1452
 11
91.0301
 21
92.3223
  0
LINE
  8
0
 10
91.0301
 20
92.3223
 11
90.9367
 21
92.5056
  0
LINE
  8
0
 10
90.9367
 20
92.5056
 11
90.855
 21
92.6944
  0
LINE
  8
0
 10
90.855
 20
92.6944
 11
90.7853
 21
92.888
  0
LINE
  8
0
 10
90.7853
 20
92.888
 11
90.7279
 21
93.0855
  0
LINE
  8
0
 10
90.7279
 20
93.0855
 11
90.683
 21
93.2863
  0
LINE
  8
0
 10
90.683
 20
93.2863
 11
90.6508
 21
93.4895
  0
LINE
  8
0
 10
90.6508
 20
93.4895
 11
90.6315
 21
93.6944
  0
LINE
  8
0
 10
90.6315
 20
93.6944
 11
90.625
 21
93.9
  0
LINE
  8
0
 10
90.625
 20
93.9
 11
90.6315
 21
94.1056
  0
LINE
  8
0
 10
90.6315
 20
94.1056
 11
90.6508
 21
94.3105
  0
LINE
  8
0
 10
90.6508
 20
94.3105
 11
90.683
 21
94.5137
  0
LINE
  8
0
 10
90.683
 20
94.5137
 11
90.7279
 21
94.7144
  0
LINE
  8
0
 10
90.7279
 20
94.7144
 11
90.7853
 21
94.912
  0
LINE
  8
0
 10
90.7853
 20
94.912
 11
90.855
 21
95.1056
  0
LINE
  8
0
 10
90.855
 20
95.1056
 11
90.9367
 21
95.2944
  0
LINE
  8
0
 10
90.9367
 20
95.2944
 11
91.0301
 21
95.4777
  0
LINE
  8
0
 10
91.0301
 20
95.4777
 11
91.1348
 21
95.6548
  0
LINE
  8
0
 10
91.1348
 20
95.6548
 11
91.2505
 21
95.825
  0
LINE
  8
0
 10
91.2505
 20
95.825
 11
91.3766
 21
95.9875
  0
LINE
  8
0
 10
91.3766
 20
95.9875
 11
91.5126
 21
96.1419
  0
LINE
  8
0
 10
91.5126
 20
96.1419
 11
91.6581
 21
96.2874
  0
LINE
  8
0
 10
91.6581
 20
96.2874
 11
91.8124
 21
96.4234
  0
LINE
  8
0
 10
91.8124
 20
96.4234
 11
91.975
 21
96.5495
  0
LINE
  8
0
 10
91.975
 20
96.5495
 11
92.1452
 21
96.6652
  0
LINE
  8
0
 10
92.1452
 20
96.6652
 11
92.3223
 21
96.7699
  0
LINE
  8
0
 10
92.3223
 20
96.7699
 11
92.5056
 21
96.8633
  0
LINE
  8
0
 10
92.5056
 20
96.8633
 11
92.6944
 21
96.945
  0
LINE
  8
0
 10
92.6944
 20
96.945
 11
92.888
 21
97.0147
  0
LINE
  8
0
 10
92.888
 20
97.0147
 11
93.0855
 21
97.0721
  0
LINE
  8
0
 10
93.0855
 20
97.0721
 11
93.2863
 21
97.117
  0
LINE
  8
0
 10
93.2863
 20
97.117
 11
93.4895
 21
97.1492
  0
LINE
  8
0
 10
93.4895
 20
97.1492
 11
93.6944
 21
97.1685
  0
LINE
  8
0
 10
93.6944
 20
97.1685
 11
93.9
 21
97.175
  0
LINE
  8
0
 10
93.9
 20
97.175
 11
94.1056
 21
97.1685
  0
LINE
  8
0
 10
94.1056
 20
97.1685
 11
94.3105
 21
97.1492
  0
LINE
  8
0
 10
94.3105
 20
97.1492
 11
94.5137
 21
97.117
  0
LINE
  8
0
 10
94.5137
 20
97.117
 11
94.7145
 21
97.0721
  0
LINE
  8
0
 10
94.7145
 20
97.0721
 11
94.912
 21
97.0147
  0
LINE
  8
0
 10
94.912
 20
97.0147
 11
95.1056
 21
96.945
  0
LINE
  8
0
 10
95.1056
 20
96.945
 11
95.2944
 21
96.8633
  0
LINE
  8
0
 10
95.2944
 20
96.8633
 11
95.4777
 21
96.7699
  0
LINE
  8
0
 10
95.4777
 20
96.7699
 11
95.6548
 21
96.6652
  0
LINE
  8
0
 10
95.6548
 20
96.6652
 11
95.825
 21
96.5495
  0
LINE
  8
0
 10
95.825
 20
96.5495
 11
95.9876
 21
96.4234
  0
LINE
  8
0
 10
95.9876
 20
96.4234
 11
96.1419
 21
96.2874
  0
LINE
  8
0
 10
96.1419
 20
96.2874
 11
96.2874
 21
96.1419
  0
LINE
  8
0
 10
96.2874
 20
96.1419
 11
96.4234
 21
95.9875
  0
LINE
  8
0
 10
96.4234
 20
95.9875
 11
96.5495
 21
95.825
  0
LINE
  8
0
 10
96.5495
 20
95.825
 11
96.6652
 21
95.6548
  0
LINE
  8
0
 10
96.6652
 20
95.6548
 11
96.7699
 21
95.4777
  0
LINE
  8
0
 10
96.7699
 20
95.4777
 11
96.8633
 21
95.2944
  0
LINE
  8
0
 10
96.8633
 20
95.2944
 11
96.945
 21
95.1056
  0
LINE
  8
0
 10
96.945
 20
95.1056
 11
97.0147
 21
94.912
  0
LINE
  8
0
 10
97.0147
 20
94.912
 11
97.0721
 21
94.7144
  0
LINE
  8
0
 10
97.0721
 20
94.7144
 11
97.117
 21
94.5137
  0
LINE
  8
0
 10
97.117
 20
94.5137
 11
97.1492
 21
94.3105
  0
LINE
  8
0
 10
97.1492
 20
94.3105
 11
97.1685
 21
94.1056
  0
LINE
  8
0
 10
97.1685
 20
94.1056
 11
97.175
 21
93.9
  0
LINE
  8
0
 10
97.175
 20
93.9
 11
97.1685
 21
93.6944
  0
LINE
  8
0
 10
97.1685
 20
93.6944
 11
97.1492
 21
93.4895
  0
LINE
  8
0
 10
97.1492
 20
93.4895
 11
97.117
 21
93.2863
  0
LINE
  8
0
 10
97.117
 20
93.2863
 11
97.0721
 21
93.0855
  0
LINE
  8
0
 10
97.0721
 20
93.0855
 11
97.0147
 21
92.888
  0
LINE
  8
0
 10
97.0147
 20
92.888
 11
96.945
 21
92.6944
  0
LINE
  8
0
 10
96.945
 20
92.6944
 11
96.8633
 21
92.5056
  0
LINE
  8
0
 10
96.8633
 20
92.5056
 11
96.7699
 21
92.3223
  0
LINE
  8
0
 10
96.7699
 20
92.3223
 11
96.6652
 21
92.1452
  0
LINE
  8
0
 10
96.6652
 20
92.1452
 11
96.5495
 21
91.975
  0
LINE
  8
0
 10
96.5495
 20
91.975
 11
96.4234
 21
91.8124
  0
LINE
  8
0
 10
96.4234
 20
91.8124
 11
96.2874
 21
91.6581
  0
LINE
  8
0
 10
96.2874
 20
91.6581
 11
96.1419
 21
91.5126
  0
LINE
  8
0
 10
96.1419
 20
91.5126
 11
95.9876
 21
91.3766
  0
LINE
  8
0
 10
95.9876
 20
91.3766
 11
95.825
 21
91.2505
  0
LINE
  8
0
 10
95.825
 20
91.2505
 11
95.6548
 21
91.1348
  0
LINE
  8
0
 10
95.6548
 20
91.1348
 11
95.4777
 21
91.0301
  0
LINE
  8
0
 10
95.4777
 20
91.0301
 11
95.2944
 21
90.9367
  0
LINE
  8
0
 10
95.2944
 20
90.9367
 11
95.1056
 21
90.855
  0
LINE
  8
0
 10
95.1056
 20
90.855
 11
94.912
 21
90.7853
  0
LINE
  8
0
 10
94.912
 20
90.7853
 11
94.7145
 21
90.7279
  0
LINE
  8
0
 10
94.7145
 20
90.7279
 11
94.5137
 21
90.683
  0
LINE
  8
0
 10
94.5137
 20
90.683
 11
94.3105
 21
90.6508
  0
LINE
  8
0
 10
94.3105
 20
90.6508
 11
94.1056
 21
90.6315
  0
LINE
  8
0
 10
94.1056
 20
90.6315
 11
93.9
 21
90.625
  0
LINE
  8
0
 10
93.9
 20
90.625
 11
93.6944
 21
90.6315
  0
LINE
  8
0
 10
144.494
 20
90.6315
 11
144.29
 21
90.6508
  0
LINE
  8
0
 10
144.29
 20
90.6508
 11
144.086
 21
90.683
  0
LINE
  8
0
 10
144.086
 20
90.683
 11
143.886
 21
90.7279
  0
LINE
  8
0
 10
143.886
 20
90.7279
 11
143.688
 21
90.7853
  0
LINE
  8
0
 10
143.688
 20
90.7853
 11
143.494
 21
90.855
  0
LINE
  8
0
 10
143.494
 20
90.855
 11
143.306
 21
90.9367
  0
LINE
  8
0
 10
143.306
 20
90.9367
 11
143.122
 21
91.0301
  0
LINE
  8
0
 10
143.122
 20
91.0301
 11
142.945
 21
91.1348
  0
LINE
  8
0
 10
142.945
 20
91.1348
 11
142.775
 21
91.2505
  0
LINE
  8
0
 10
142.775
 20
91.2505
 11
142.612
 21
91.3766
  0
LINE
  8
0
 10
142.612
 20
91.3766
 11
142.458
 21
91.5126
  0
LINE
  8
0
 10
142.458
 20
91.5126
 11
142.313
 21
91.6581
  0
LINE
  8
0
 10
142.313
 20
91.6581
 11
142.177
 21
91.8124
  0
LINE
  8
0
 10
142.177
 20
91.8124
 11
142.05
 21
91.975
  0
LINE
  8
0
 10
142.05
 20
91.975
 11
141.935
 21
92.1452
  0
LINE
  8
0
 10
141.935
 20
92.1452
 11
141.83
 21
92.3223
  0
LINE
  8
0
 10
141.83
 20
92.3223
 11
141.737
 21
92.5056
  0
LINE
  8
0
 10
141.737
 20
92.5056
 11
141.655
 21
92.6944
  0
LINE
  8
0
 10
141.655
 20
92.6944
 11
141.585
 21
92.888
  0
LINE
  8
0
 10
141.585
 20
92.888
 11
141.528
 21
93.0855
  0
LINE
  8
0
 10
141.528
 20
93.0855
 11
141.483
 21
93.2863
  0
LINE
  8
0
 10
141.483
 20
93.2863
 11
141.451
 21
93.4895
  0
LINE
  8
0
 10
141.451
 20
93.4895
 11
141.431
 21
93.6944
  0
LINE
  8
0
 10
141.431
 20
93.6944
 11
141.425
 21
93.9
  0
LINE
  8
0
 10
141.425
 20
93.9
 11
141.431
 21
94.1056
  0
LINE
  8
0
 10
141.431
 20
94.1056
 11
141.451
 21
94.3104
  0
LINE
  8
0
 10
141.451
 20
94.3104
 11
141.483
 21
94.5137
  0
LINE
  8
0
 10
141.483
 20
94.5137
 11
141.528
 21
94.7144
  0
LINE
  8
0
 10
141.528
 20
94.7144
 11
141.585
 21
94.912
  0
LINE
  8
0
 10
141.585
 20
94.912
 11
141.655
 21
95.1056
  0
LINE
  8
0
 10
141.655
 20
95.1056
 11
141.737
 21
95.2944
  0
LINE
  8
0
 10
141.737
 20
95.2944
 11
141.83
 21
95.4777
  0
LINE
  8
0
 10
141.83
 20
95.4777
 11
141.935
 21
95.6548
  0
LINE
  8
0
 10
141.935
 20
95.6548
 11
142.05
 21
95.825
  0
LINE
  8
0
 10
142.05
 20
95.825
 11
142.177
 21
95.9875
  0
LINE
  8
0
 10
142.177
 20
95.9875
 11
142.313
 21
96.1419
  0
LINE
  8
0
 10
142.313
 20
96.1419
 11
142.458
 21
96.2874
  0
LINE
  8
0
 10
142.458
 20
96.2874
 11
142.612
 21
96.4234
  0
LINE
  8
0
 10
142.612
 20
96.4234
 11
142.775
 21
96.5495
  0
LINE
  8
0
 10
142.775
 20
96.5495
 11
142.945
 21
96.6651
  0
LINE
  8
0
 10
142.945
 20
96.6651
 11
143.122
 21
96.7699
  0
LINE
  8
0
 10
143.122
 20
96.7699
 11
143.306
 21
96.8633
  0
LINE
  8
0
 10
143.306
 20
96.8633
 11
143.494
 21
96.945
  0
LINE
  8
0
 10
143.494
 20
96.945
 11
143.688
 21
97.0147
  0
LINE
  8
0
 10
143.688
 20
97.0147
 11
143.886
 21
97.0721
  0
LINE
  8
0
 10
143.886
 20
97.0721
 11
144.086
 21
97.117
  0
LINE
  8
0
 10
144.086
 20
97.117
 11
144.29
 21
97.1492
  0
LINE
  8
0
 10
144.29
 20
97.1492
 11
144.494
 21
97.1685
  0
LINE
  8
0
 10
144.494
 20
97.1685
 11
144.7
 21
97.175
  0
LINE
  8
0
 10
144.7
 20
97.175
 11
144.906
 21
97.1685
  0
LINE
  8
0
 10
144.906
 20
97.1685
 11
145.11
 21
97.1492
  0
LINE
  8
0
 10
145.11
 20
97.1492
 11
145.314
 21
97.117
  0
LINE
  8
0
 10
145.314
 20
97.117
 11
145.514
 21
97.0721
  0
LINE
  8
0
 10
145.514
 20
97.0721
 11
145.712
 21
97.0147
  0
LINE
  8
0
 10
145.712
 20
97.0147
 11
145.906
 21
96.945
  0
LINE
  8
0
 10
145.906
 20
96.945
 11
146.094
 21
96.8633
  0
LINE
  8
0
 10
146.094
 20
96.8633
 11
146.278
 21
96.7699
  0
LINE
  8
0
 10
146.278
 20
96.7699
 11
146.455
 21
96.6651
  0
LINE
  8
0
 10
146.455
 20
96.6651
 11
146.625
 21
96.5495
  0
LINE
  8
0
 10
146.625
 20
96.5495
 11
146.788
 21
96.4234
  0
LINE
  8
0
 10
146.788
 20
96.4234
 11
146.942
 21
96.2874
  0
LINE
  8
0
 10
146.942
 20
96.2874
 11
147.087
 21
96.1419
  0
LINE
  8
0
 10
147.087
 20
96.1419
 11
147.223
 21
95.9875
  0
LINE
  8
0
 10
147.223
 20
95.9875
 11
147.35
 21
95.825
  0
LINE
  8
0
 10
147.35
 20
95.825
 11
147.465
 21
95.6548
  0
LINE
  8
0
 10
147.465
 20
95.6548
 11
147.57
 21
95.4777
  0
LINE
  8
0
 10
147.57
 20
95.4777
 11
147.663
 21
95.2944
  0
LINE
  8
0
 10
147.663
 20
95.2944
 11
147.745
 21
95.1056
  0
LINE
  8
0
 10
147.745
 20
95.1056
 11
147.815
 21
94.912
  0
LINE
  8
0
 10
147.815
 20
94.912
 11
147.872
 21
94.7144
  0
LINE
  8
0
 10
147.872
 20
94.7144
 11
147.917
 21
94.5137
  0
LINE
  8
0
 10
147.917
 20
94.5137
 11
147.949
 21
94.3104
  0
LINE
  8
0
 10
147.949
 20
94.3104
 11
147.969
 21
94.1056
  0
LINE
  8
0
 10
147.969
 20
94.1056
 11
147.975
 21
93.9
  0
LINE
  8
0
 10
147.975
 20
93.9
 11
147.969
 21
93.6944
  0
LINE
  8
0
 10
147.969
 20
93.6944
 11
147.949
 21
93.4895
  0
LINE
  8
0
 10
147.949
 20
93.4895
 11
147.917
 21
93.2863
  0
LINE
  8
0
 10
147.917
 20
93.2863
 11
147.872
 21
93.0855
  0
LINE
  8
0
 10
147.872
 20
93.0855
 11
147.815
 21
92.888
  0
LINE
  8
0
 10
147.815
 20
92.888
 11
147.745
 21
92.6944
  0
LINE
  8
0
 10
147.745
 20
92.6944
 11
147.663
 21
92.5056
  0
LINE
  8
0
 10
147.663
 20
92.5056
 11
147.57
 21
92.3223
  0
LINE
  8
0
 10
147.57
 20
92.3223
 11
147.465
 21
92.1452
  0
LINE
  8
0
 10
147.465
 20
92.1452
 11
147.35
 21
91.975
  0
LINE
  8
0
 10
147.35
 20
91.975
 11
147.223
 21
91.8124
  0
LINE
  8
0
 10
147.223
 20
91.8124
 11
147.087
 21
91.6581
  0
LINE
  8
0
 10
147.087
 20
91.6581
 11
146.942
 21
91.5126
  0
LINE
  8
0
 10
146.942
 20
91.5126
 11
146.788
 21
91.3766
  0
LINE
  8
0
 10
146.788
 20
91.3766
 11
146.625
 21
91.2505
  0
LINE
  8
0
 10
146.625
 20
91.2505
 11
146.455
 21
91.1348
  0
LINE
  8
0
 10
146.455
 20
91.1348
 11
146.278
 21
91.0301
  0
LINE
  8
0
 10
146.278
 20
91.0301
 11
146.094
 21
90.9367
  0
LINE
  8
0
 10
146.094
 20
90.9367
 11
145.906
 21
90.855
  0
LINE
  8
0
 10
145.906
 20
90.855
 11
145.712
 21
90.7853
  0
LINE
  8
0
 10
145.712
 20
90.7853
 11
145.514
 21
90.7279
  0
LINE
  8
0
 10
145.514
 20
90.7279
 11
145.314
 21
90.683
  0
LINE
  8
0
 10
145.314
 20
90.683
 11
145.11
 21
90.6508
  0
LINE
  8
0
 10
145.11
 20
90.6508
 11
144.906
 21
90.6315
  0
LINE
  8
0
 10
144.906
 20
90.6315
 11
144.7
 21
90.625
  0
LINE
  8
0
 10
144.7
 20
90.625
 11
144.494
 21
90.6315
  0
LINE
  8
0
 10
144.494
 20
65.2315
 11
144.29
 21
65.2508
  0
LINE
  8
0
 10
144.29
 20
65.2508
 11
144.086
 21
65.283
  0
LINE
  8
0
 10
144.086
 20
65.283
 11
143.886
 21
65.3279
  0
LINE
  8
0
 10
143.886
 20
65.3279
 11
143.688
 21
65.3853
  0
LINE
  8
0
 10
143.688
 20
65.3853
 11
143.494
 21
65.455
  0
LINE
  8
0
 10
143.494
 20
65.455
 11
143.306
 21
65.5367
  0
LINE
  8
0
 10
143.306
 20
65.5367
 11
143.122
 21
65.6301
  0
LINE
  8
0
 10
143.122
 20
65.6301
 11
142.945
 21
65.7348
  0
LINE
  8
0
 10
142.945
 20
65.7348
 11
142.775
 21
65.8505
  0
LINE
  8
0
 10
142.775
 20
65.8505
 11
142.612
 21
65.9766
  0
LINE
  8
0
 10
142.612
 20
65.9766
 11
142.458
 21
66.1126
  0
LINE
  8
0
 10
142.458
 20
66.1126
 11
142.313
 21
66.2581
  0
LINE
  8
0
 10
142.313
 20
66.2581
 11
142.177
 21
66.4124
  0
LINE
  8
0
 10
142.177
 20
66.4124
 11
142.05
 21
66.575
  0
LINE
  8
0
 10
142.05
 20
66.575
 11
141.935
 21
66.7452
  0
LINE
  8
0
 10
141.935
 20
66.7452
 11
141.83
 21
66.9223
  0
LINE
  8
0
 10
141.83
 20
66.9223
 11
141.737
 21
67.1056
  0
LINE
  8
0
 10
141.737
 20
67.1056
 11
141.655
 21
67.2944
  0
LINE
  8
0
 10
141.655
 20
67.2944
 11
141.585
 21
67.488
  0
LINE
  8
0
 10
141.585
 20
67.488
 11
141.528
 21
67.6855
  0
LINE
  8
0
 10
141.528
 20
67.6855
 11
141.483
 21
67.8863
  0
LINE
  8
0
 10
141.483
 20
67.8863
 11
141.451
 21
68.0895
  0
LINE
  8
0
 10
141.451
 20
68.0895
 11
141.431
 21
68.2944
  0
LINE
  8
0
 10
141.431
 20
68.2944
 11
141.425
 21
68.5
  0
LINE
  8
0
 10
141.425
 20
68.5
 11
141.431
 21
68.7056
  0
LINE
  8
0
 10
141.431
 20
68.7056
 11
141.451
 21
68.9105
  0
LINE
  8
0
 10
141.451
 20
68.9105
 11
141.483
 21
69.1137
  0
LINE
  8
0
 10
141.483
 20
69.1137
 11
141.528
 21
69.3145
  0
LINE
  8
0
 10
141.528
 20
69.3145
 11
141.585
 21
69.512
  0
LINE
  8
0
 10
141.585
 20
69.512
 11
141.655
 21
69.7056
  0
LINE
  8
0
 10
141.655
 20
69.7056
 11
141.737
 21
69.8944
  0
LINE
  8
0
 10
141.737
 20
69.8944
 11
141.83
 21
70.0777
  0
LINE
  8
0
 10
141.83
 20
70.0777
 11
141.935
 21
70.2548
  0
LINE
  8
0
 10
141.935
 20
70.2548
 11
142.05
 21
70.425
  0
LINE
  8
0
 10
142.05
 20
70.425
 11
142.177
 21
70.5876
  0
LINE
  8
0
 10
142.177
 20
70.5876
 11
142.313
 21
70.7419
  0
LINE
  8
0
 10
142.313
 20
70.7419
 11
142.458
 21
70.8874
  0
LINE
  8
0
 10
142.458
 20
70.8874
 11
142.612
 21
71.0234
  0
LINE
  8
0
 10
142.612
 20
71.0234
 11
142.775
 21
71.1495
  0
LINE
  8
0
 10
142.775
 20
71.1495
 11
142.945
 21
71.2652
  0
LINE
  8
0
 10
142.945
 20
71.2652
 11
143.122
 21
71.3699
  0
LINE
  8
0
 10
143.122
 20
71.3699
 11
143.306
 21
71.4633
  0
LINE
  8
0
 10
143.306
 20
71.4633
 11
143.494
 21
71.545
  0
LINE
  8
0
 10
143.494
 20
71.545
 11
143.688
 21
71.6147
  0
LINE
  8
0
 10
143.688
 20
71.6147
 11
143.886
 21
71.6721
  0
LINE
  8
0
 10
143.886
 20
71.6721
 11
144.086
 21
71.717
  0
LINE
  8
0
 10
144.086
 20
71.717
 11
144.29
 21
71.7492
  0
LINE
  8
0
 10
144.29
 20
71.7492
 11
144.494
 21
71.7685
  0
LINE
  8
0
 10
144.494
 20
71.7685
 11
144.7
 21
71.775
  0
LINE
  8
0
 10
144.7
 20
71.775
 11
144.906
 21
71.7685
  0
LINE
  8
0
 10
144.906
 20
71.7685
 11
145.11
 21
71.7492
  0
LINE
  8
0
 10
145.11
 20
71.7492
 11
145.314
 21
71.717
  0
LINE
  8
0
 10
145.314
 20
71.717
 11
145.514
 21
71.6721
  0
LINE
  8
0
 10
145.514
 20
71.6721
 11
145.712
 21
71.6147
  0
LINE
  8
0
 10
145.712
 20
71.6147
 11
145.906
 21
71.545
  0
LINE
  8
0
 10
145.906
 20
71.545
 11
146.094
 21
71.4633
  0
LINE
  8
0
 10
146.094
 20
71.4633
 11
146.278
 21
71.3699
  0
LINE
  8
0
 10
146.278
 20
71.3699
 11
146.455
 21
71.2652
  0
LINE
  8
0
 10
146.455
 20
71.2652
 11
146.625
 21
71.1495
  0
LINE
  8
0
 10
146.625
 20
71.1495
 11
146.788
 21
71.0234
  0
LINE
  8
0
 10
146.788
 20
71.0234
 11
146.942
 21
70.8874
  0
LINE
  8
0
 10
146.942
 20
70.8874
 11
147.087
 21
70.7419
  0
LINE
  8
0
 10
147.087
 20
70.7419
 11
147.223
 21
70.5876
  0
LINE
  8
0
 10
147.223
 20
70.5876
 11
147.35
 21
70.425
  0
LINE
  8
0
 10
147.35
 20
70.425
 11
147.465
 21
70.2548
  0
LINE
  8
0
 10
147.465
 20
70.2548
 11
147.57
 21
70.0777
  0
LINE
  8
0
 10
147.57
 20
70.0777
 11
147.663
 21
69.8944
  0
LINE
  8
0
 10
147.663
 20
69.8944
 11
147.745
 21
69.7056
  0
LINE
  8
0
 10
147.745
 20
69.7056
 11
147.815
 21
69.512
  0
LINE
  8
0
 10
147.815
 20
69.512
 11
147.872
 21
69.3145
  0
LINE
  8
0
 10
147.872
 20
69.3145
 11
147.917
 21
69.1137
  0
LINE
  8
0
 10
147.917
 20
69.1137
 11
147.949
 21
68.9105
  0
LINE
  8
0
 10
147.949
 20
68.9105
 11
147.969
 21
68.7056
  0
LINE
  8
0
 10
147.969
 20
68.7056
 11
147.975
 21
68.5
  0
LINE
  8
0
 10
147.975
 20
68.5
 11
147.969
 21
68.2944
  0
LINE
  8
0
 10
147.969
 20
68.2944
 11
147.949
 21
68.0895
  0
LINE
  8
0
 10
147.949
 20
68.0895
 11
147.917
 21
67.8863
  0
LINE
  8
0
 10
147.917
 20
67.8863
 11
147.872
 21
67.6855
  0
LINE
  8
0
 10
147.872
 20
67.6855
 11
147.815
 21
67.488
  0
LINE
  8
0
 10
147.815
 20
67.488
 11
147.745
 21
67.2944
  0
LINE
  8
0
 10
147.745
 20
67.2944
 11
147.663
 21
67.1056
  0
LINE
  8
0
 10
147.663
 20
67.1056
 11
147.57
 21
66.9223
  0
LINE
  8
0
 10
147.57
 20
66.9223
 11
147.465
 21
66.7452
  0
LINE
  8
0
 10
147.465
 20
66.7452
 11
147.35
 21
66.575
  0
LINE
  8
0
 10
147.35
 20
66.575
 11
147.223
 21
66.4124
  0
LINE
  8
0
 10
147.223
 20
66.4124
 11
147.087
 21
66.2581
  0
LINE
  8
0
 10
147.087
 20
66.2581
 11
146.942
 21
66.1126
  0
LINE
  8
0
 10
146.942
 20
66.1126
 11
146.788
 21
65.9766
  0
LINE
  8
0
 10
146.788
 20
65.9766
 11
146.625
 21
65.8505
  0
LINE
  8
0
 10
146.625
 20
65.8505
 11
146.455
 21
65.7348
  0
LINE
  8
0
 10
146.455
 20
65.7348
 11
146.278
 21
65.6301
  0
LINE
  8
0
 10
146.278
 20
65.6301
 11
146.094
 21
65.5367
  0
LINE
  8
0
 10
146.094
 20
65.5367
 11
145.906
 21
65.455
  0
LINE
  8
0
 10
145.906
 20
65.455
 11
145.712
 21
65.3853
  0
LINE
  8
0
 10
145.712
 20
65.3853
 11
145.514
 21
65.3279
  0
LINE
  8
0
 10
145.514
 20
65.3279
 11
145.314
 21
65.283
  0
LINE
  8
0
 10
145.314
 20
65.283
 11
145.11
 21
65.2508
  0
LINE
  8
0
 10
145.11
 20
65.2508
 11
144.906
 21
65.2315
  0
LINE
  8
0
 10
144.906
 20
65.2315
 11
144.7
 21
65.225
  0
LINE
  8
0
 10
144.7
 20
65.225
 11
144.494
 21
65.2315
  0
LINE
  8
0
 10
144.494
 20
39.8315
 11
144.29
 21
39.8508
  0
LINE
  8
0
 10
144.29
 20
39.8508
 11
144.086
 21
39.883
  0
LINE
  8
0
 10
144.086
 20
39.883
 11
143.886
 21
39.9279
  0
LINE
  8
0
 10
143.886
 20
39.9279
 11
143.688
 21
39.9853
  0
LINE
  8
0
 10
143.688
 20
39.9853
 11
143.494
 21
40.055
  0
LINE
  8
0
 10
143.494
 20
40.055
 11
143.306
 21
40.1367
  0
LINE
  8
0
 10
143.306
 20
40.1367
 11
143.122
 21
40.2301
  0
LINE
  8
0
 10
143.122
 20
40.2301
 11
142.945
 21
40.3348
  0
LINE
  8
0
 10
142.945
 20
40.3348
 11
142.775
 21
40.4505
  0
LINE
  8
0
 10
142.775
 20
40.4505
 11
142.612
 21
40.5766
  0
LINE
  8
0
 10
142.612
 20
40.5766
 11
142.458
 21
40.7126
  0
LINE
  8
0
 10
142.458
 20
40.7126
 11
142.313
 21
40.8581
  0
LINE
  8
0
 10
142.313
 20
40.8581
 11
142.177
 21
41.0125
  0
LINE
  8
0
 10
142.177
 20
41.0125
 11
142.05
 21
41.175
  0
LINE
  8
0
 10
142.05
 20
41.175
 11
141.935
 21
41.3452
  0
LINE
  8
0
 10
141.935
 20
41.3452
 11
141.83
 21
41.5223
  0
LINE
  8
0
 10
141.83
 20
41.5223
 11
141.737
 21
41.7056
  0
LINE
  8
0
 10
141.737
 20
41.7056
 11
141.655
 21
41.8944
  0
LINE
  8
0
 10
141.655
 20
41.8944
 11
141.585
 21
42.088
  0
LINE
  8
0
 10
141.585
 20
42.088
 11
141.528
 21
42.2856
  0
LINE
  8
0
 10
141.528
 20
42.2856
 11
141.483
 21
42.4863
  0
LINE
  8
0
 10
141.483
 20
42.4863
 11
141.451
 21
42.6895
  0
LINE
  8
0
 10
141.451
 20
42.6895
 11
141.431
 21
42.8944
  0
LINE
  8
0
 10
141.431
 20
42.8944
 11
141.425
 21
43.1
  0
LINE
  8
0
 10
141.425
 20
43.1
 11
141.431
 21
43.3056
  0
LINE
  8
0
 10
141.431
 20
43.3056
 11
141.451
 21
43.5105
  0
LINE
  8
0
 10
141.451
 20
43.5105
 11
141.483
 21
43.7137
  0
LINE
  8
0
 10
141.483
 20
43.7137
 11
141.528
 21
43.9145
  0
LINE
  8
0
 10
141.528
 20
43.9145
 11
141.585
 21
44.112
  0
LINE
  8
0
 10
141.585
 20
44.112
 11
141.655
 21
44.3056
  0
LINE
  8
0
 10
141.655
 20
44.3056
 11
141.737
 21
44.4944
  0
LINE
  8
0
 10
141.737
 20
44.4944
 11
141.83
 21
44.6777
  0
LINE
  8
0
 10
141.83
 20
44.6777
 11
141.935
 21
44.8548
  0
LINE
  8
0
 10
141.935
 20
44.8548
 11
142.05
 21
45.025
  0
LINE
  8
0
 10
142.05
 20
45.025
 11
142.177
 21
45.1876
  0
LINE
  8
0
 10
142.177
 20
45.1876
 11
142.313
 21
45.3419
  0
LINE
  8
0
 10
142.313
 20
45.3419
 11
142.458
 21
45.4874
  0
LINE
  8
0
 10
142.458
 20
45.4874
 11
142.612
 21
45.6234
  0
LINE
  8
0
 10
142.612
 20
45.6234
 11
142.775
 21
45.7495
  0
LINE
  8
0
 10
142.775
 20
45.7495
 11
142.945
 21
45.8652
  0
LINE
  8
0
 10
142.945
 20
45.8652
 11
143.122
 21
45.9699
  0
LINE
  8
0
 10
143.122
 20
45.9699
 11
143.306
 21
46.0633
  0
LINE
  8
0
 10
143.306
 20
46.0633
 11
143.494
 21
46.145
  0
LINE
  8
0
 10
143.494
 20
46.145
 11
143.688
 21
46.2147
  0
LINE
  8
0
 10
143.688
 20
46.2147
 11
143.886
 21
46.2721
  0
LINE
  8
0
 10
143.886
 20
46.2721
 11
144.086
 21
46.317
  0
LINE
  8
0
 10
144.086
 20
46.317
 11
144.29
 21
46.3492
  0
LINE
  8
0
 10
144.29
 20
46.3492
 11
144.494
 21
46.3685
  0
LINE
  8
0
 10
144.494
 20
46.3685
 11
144.7
 21
46.375
  0
LINE
  8
0
 10
144.7
 20
46.375
 11
144.906
 21
46.3685
  0
LINE
  8
0
 10
144.906
 20
46.3685
 11
145.11
 21
46.3492
  0
LINE
  8
0
 10
145.11
 20
46.3492
 11
145.314
 21
46.317
  0
LINE
  8
0
 10
145.314
 20
46.317
 11
145.514
 21
46.2721
  0
LINE
  8
0
 10
145.514
 20
46.2721
 11
145.712
 21
46.2147
  0
LINE
  8
0
 10
145.712
 20
46.2147
 11
145.906
 21
46.145
  0
LINE
  8
0
 10
145.906
 20
46.145
 11
146.094
 21
46.0633
  0
LINE
  8
0
 10
146.094
 20
46.0633
 11
146.278
 21
45.9699
  0
LINE
  8
0
 10
146.278
 20
45.9699
 11
146.455
 21
45.8652
  0
LINE
  8
0
 10
146.455
 20
45.8652
 11
146.625
 21
45.7495
  0
LINE
  8
0
 10
146.625
 20
45.7495
 11
146.788
 21
45.6234
  0
LINE
  8
0
 10
146.788
 20
45.6234
 11
146.942
 21
45.4874
  0
LINE
  8
0
 10
146.942
 20
45.4874
 11
147.087
 21
45.3419
  0
LINE
  8
0
 10
147.087
 20
45.3419
 11
147.223
 21
45.1876
  0
LINE
  8
0
 10
147.223
 20
45.1876
 11
147.35
 21
45.025
  0
LINE
  8
0
 10
147.35
 20
45.025
 11
147.465
 21
44.8548
  0
LINE
  8
0
 10
147.465
 20
44.8548
 11
147.57
 21
44.6777
  0
LINE
  8
0
 10
147.57
 20
44.6777
 11
147.663
 21
44.4944
  0
LINE
  8
0
 10
147.663
 20
44.4944
 11
147.745
 21
44.3056
  0
LINE
  8
0
 10
147.745
 20
44.3056
 11
147.815
 21
44.112
  0
LINE
  8
0
 10
147.815
 20
44.112
 11
147.872
 21
43.9145
  0
LINE
  8
0
 10
147.872
 20
43.9145
 11
147.917
 21
43.7137
  0
LINE
  8
0
 10
147.917
 20
43.7137
 11
147.949
 21
43.5105
  0
LINE
  8
0
 10
147.949
 20
43.5105
 11
147.969
 21
43.3056
  0
LINE
  8
0
 10
147.969
 20
43.3056
 11
147.975
 21
43.1
  0
LINE
  8
0
 10
147.975
 20
43.1
 11
147.969
 21
42.8944
  0
LINE
  8
0
 10
147.969
 20
42.8944
 11
147.949
 21
42.6895
  0
LINE
  8
0
 10
147.949
 20
42.6895
 11
147.917
 21
42.4863
  0
LINE
  8
0
 10
147.917
 20
42.4863
 11
147.872
 21
42.2856
  0
LINE
  8
0
 10
147.872
 20
42.2856
 11
147.815
 21
42.088
  0
LINE
  8
0
 10
147.815
 20
42.088
 11
147.745
 21
41.8944
  0
LINE
  8
0
 10
147.745
 20
41.8944
 11
147.663
 21
41.7056
  0
LINE
  8
0
 10
147.663
 20
41.7056
 11
147.57
 21
41.5223
  0
LINE
  8
0
 10
147.57
 20
41.5223
 11
147.465
 21
41.3452
  0
LINE
  8
0
 10
147.465
 20
41.3452
 11
147.35
 21
41.175
  0
LINE
  8
0
 10
147.35
 20
41.175
 11
147.223
 21
41.0125
  0
LINE
  8
0
 10
147.223
 20
41.0125
 11
147.087
 21
40.8581
  0
LINE
  8
0
 10
147.087
 20
40.8581
 11
146.942
 21
40.7126
  0
LINE
  8
0
 10
146.942
 20
40.7126
 11
146.788
 21
40.5766
  0
LINE
  8
0
 10
146.788
 20
40.5766
 11
146.625
 21
40.4505
  0
LINE
  8
0
 10
146.625
 20
40.4505
 11
146.455
 21
40.3348
  0
LINE
  8
0
 10
146.455
 20
40.3348
 11
146.278
 21
40.2301
  0
LINE
  8
0
 10
146.278
 20
40.2301
 11
146.094
 21
40.1367
  0
LINE
  8
0
 10
146.094
 20
40.1367
 11
145.906
 21
40.055
  0
LINE
  8
0
 10
145.906
 20
40.055
 11
145.712
 21
39.9853
  0
LINE
  8
0
 10
145.712
 20
39.9853
 11
145.514
 21
39.9279
  0
LINE
  8
0
 10
145.514
 20
39.9279
 11
145.314
 21
39.883
  0
LINE
  8
0
 10
145.314
 20
39.883
 11
145.11
 21
39.8508
  0
LINE
  8
0
 10
145.11
 20
39.8508
 11
144.906
 21
39.8315
  0
LINE
  8
0
 10
144.906
 20
39.8315
 11
144.7
 21
39.825
  0
LINE
  8
0
 10
144.7
 20
39.825
 11
144.494
 21
39.8315
  0
LINE
  8
0
 10
76.2
 20
25.4
 11
25.4
 21
25.4
  0
LINE
  8
0
 10
25.4
 20
25.4
 11
25.4
 21
76.2
  0
LINE
  8
0
 10
25.4
 20
76.2
 11
0
 21
76.2
  0
LINE
  8
0
 10
0
 20
76.2
 11
0
 21
0
  0
LINE
  8
0
 10
0
 20
0
 11
76.2
 21
0
  0
LINE
  8
0
 10
76.2
 20
0
 11
76.2
 21
25.4
  0
LINE
  8
0
 10
12.4944
 20
60.2314
 11
12.2895
 21
60.2508
  0
LINE
  8
0
 10
12.2895
 20
60.2508
 11
12.0863
 21
60.283
  0
LINE
  8
0
 10
12.0863
 20
60.283
 11
11.8855
 21
60.3279
  0
LINE
  8
0
 10
11.8855
 20
60.3279
 11
11.688
 21
60.3853
  0
LINE
  8
0
 10
11.688
 20
60.3853
 11
11.4944
 21
60.455
  0
LINE
  8
0
 10
11.4944
 20
60.455
 11
11.3056
 21
60.5367
  0
LINE
  8
0
 10
11.3056
 20
60.5367
 11
11.1223
 21
60.6301
  0
LINE
  8
0
 10
11.1223
 20
60.6301
 11
10.9452
 21
60.7348
  0
LINE
  8
0
 10
10.9452
 20
60.7348
 11
10.775
 21
60.8504
  0
LINE
  8
0
 10
10.775
 20
60.8504
 11
10.6124
 21
60.9765
  0
LINE
  8
0
 10
10.6124
 20
60.9765
 11
10.4581
 21
61.1126
  0
LINE
  8
0
 10
10.4581
 20
61.1126
 11
10.3126
 21
61.2581
  0
LINE
  8
0
 10
10.3126
 20
61.2581
 11
10.1766
 21
61.4124
  0
LINE
  8
0
 10
10.1766
 20
61.4124
 11
10.0505
 21
61.575
  0
LINE
  8
0
 10
10.0505
 20
61.575
 11
9.93483
 21
61.7451
  0
LINE
  8
0
 10
9.93483
 20
61.7451
 11
9.83009
 21
61.9222
  0
LINE
  8
0
 10
9.83009
 20
61.9222
 11
9.73669
 21
62.1056
  0
LINE
  8
0
 10
9.73669
 20
62.1056
 11
9.65498
 21
62.2944
  0
LINE
  8
0
 10
9.65498
 20
62.2944
 11
9.5853
 21
62.4879
  0
LINE
  8
0
 10
9.5853
 20
62.4879
 11
9.52789
 21
62.6855
  0
LINE
  8
0
 10
9.52789
 20
62.6855
 11
9.48302
 21
62.8863
  0
LINE
  8
0
 10
9.48302
 20
62.8863
 11
9.45084
 21
63.0895
  0
LINE
  8
0
 10
9.45084
 20
63.0895
 11
9.43147
 21
63.2943
  0
LINE
  8
0
 10
9.43147
 20
63.2943
 11
9.425
 21
63.5
  0
LINE
  8
0
 10
9.425
 20
63.5
 11
9.43147
 21
63.7056
  0
LINE
  8
0
 10
9.43147
 20
63.7056
 11
9.45084
 21
63.9104
  0
LINE
  8
0
 10
9.45084
 20
63.9104
 11
9.48302
 21
64.1137
  0
LINE
  8
0
 10
9.48302
 20
64.1137
 11
9.52789
 21
64.3144
  0
LINE
  8
0
 10
9.52789
 20
64.3144
 11
9.5853
 21
64.512
  0
LINE
  8
0
 10
9.5853
 20
64.512
 11
9.65498
 21
64.7056
  0
LINE
  8
0
 10
9.65498
 20
64.7056
 11
9.73669
 21
64.8944
  0
LINE
  8
0
 10
9.73669
 20
64.8944
 11
9.83009
 21
65.0777
  0
LINE
  8
0
 10
9.83009
 20
65.0777
 11
9.93483
 21
65.2548
  0
LINE
  8
0
 10
9.93483
 20
65.2548
 11
10.0505
 21
65.425
  0
LINE
  8
0
 10
10.0505
 20
65.425
 11
10.1766
 21
65.5875
  0
LINE
  8
0
 10
10.1766
 20
65.5875
 11
10.3126
 21
65.7419
  0
LINE
  8
0
 10
10.3126
 20
65.7419
 11
10.4581
 21
65.8874
  0
LINE
  8
0
 10
10.4581
 20
65.8874
 11
10.6124
 21
66.0234
  0
LINE
  8
0
 10
10.6124
 20
66.0234
 11
10.775
 21
66.1495
  0
LINE
  8
0
 10
10.775
 20
66.1495
 11
10.9452
 21
66.2652
  0
LINE
  8
0
 10
10.9452
 20
66.2652
 11
11.1223
 21
66.3699
  0
LINE
  8
0
 10
11.1223
 20
66.3699
 11
11.3056
 21
66.4633
  0
LINE
  8
0
 10
11.3056
 20
66.4633
 11
11.4944
 21
66.545
  0
LINE
  8
0
 10
11.4944
 20
66.545
 11
11.688
 21
66.6147
  0
LINE
  8
0
 10
11.688
 20
66.6147
 11
11.8855
 21
66.6721
  0
LINE
  8
0
 10
11.8855
 20
66.6721
 11
12.0863
 21
66.717
  0
LINE
  8
0
 10
12.0863
 20
66.717
 11
12.2895
 21
66.7492
  0
LINE
  8
0
 10
12.2895
 20
66.7492
 11
12.4944
 21
66.7685
  0
LINE
  8
0
 10
12.4944
 20
66.7685
 11
12.7
 21
66.775
  0
LINE
  8
0
 10
12.7
 20
66.775
 11
12.9056
 21
66.7685
  0
LINE
  8
0
 10
12.9056
 20
66.7685
 11
13.1105
 21
66.7492
  0
LINE
  8
0
 10
13.1105
 20
66.7492
 11
13.3137
 21
66.717
  0
LINE
  8
0
 10
13.3137
 20
66.717
 11
13.5145
 21
66.6721
  0
LINE
  8
0
 10
13.5145
 20
66.6721
 11
13.712
 21
66.6147
  0
LINE
  8
0
 10
13.712
 20
66.6147
 11
13.9056
 21
66.545
  0
LINE
  8
0
 10
13.9056
 20
66.545
 11
14.0944
 21
66.4633
  0
LINE
  8
0
 10
14.0944
 20
66.4633
 11
14.2777
 21
66.3699
  0
LINE
  8
0
 10
14.2777
 20
66.3699
 11
14.4548
 21
66.2652
  0
LINE
  8
0
 10
14.4548
 20
66.2652
 11
14.625
 21
66.1495
  0
LINE
  8
0
 10
14.625
 20
66.1495
 11
14.7876
 21
66.0234
  0
LINE
  8
0
 10
14.7876
 20
66.0234
 11
14.9419
 21
65.8874
  0
LINE
  8
0
 10
14.9419
 20
65.8874
 11
15.0874
 21
65.7419
  0
LINE
  8
0
 10
15.0874
 20
65.7419
 11
15.2234
 21
65.5875
  0
LINE
  8
0
 10
15.2234
 20
65.5875
 11
15.3495
 21
65.425
  0
LINE
  8
0
 10
15.3495
 20
65.425
 11
15.4652
 21
65.2548
  0
LINE
  8
0
 10
15.4652
 20
65.2548
 11
15.5699
 21
65.0777
  0
LINE
  8
0
 10
15.5699
 20
65.0777
 11
15.6633
 21
64.8944
  0
LINE
  8
0
 10
15.6633
 20
64.8944
 11
15.745
 21
64.7056
  0
LINE
  8
0
 10
15.745
 20
64.7056
 11
15.8147
 21
64.512
  0
LINE
  8
0
 10
15.8147
 20
64.512
 11
15.8721
 21
64.3144
  0
LINE
  8
0
 10
15.8721
 20
64.3144
 11
15.917
 21
64.1137
  0
LINE
  8
0
 10
15.917
 20
64.1137
 11
15.9492
 21
63.9104
  0
LINE
  8
0
 10
15.9492
 20
63.9104
 11
15.9685
 21
63.7056
  0
LINE
  8
0
 10
15.9685
 20
63.7056
 11
15.975
 21
63.5
  0
LINE
  8
0
 10
15.975
 20
63.5
 11
15.9685
 21
63.2943
  0
LINE
  8
0
 10
15.9685
 20
63.2943
 11
15.9492
 21
63.0895
  0
LINE
  8
0
 10
15.9492
 20
63.0895
 11
15.917
 21
62.8863
  0
LINE
  8
0
 10
15.917
 20
62.8863
 11
15.8721
 21
62.6855
  0
LINE
  8
0
 10
15.8721
 20
62.6855
 11
15.8147
 21
62.4879
  0
LINE
  8
0
 10
15.8147
 20
62.4879
 11
15.745
 21
62.2944
  0
LINE
  8
0
 10
15.745
 20
62.2944
 11
15.6633
 21
62.1056
  0
LINE
  8
0
 10
15.6633
 20
62.1056
 11
15.5699
 21
61.9222
  0
LINE
  8
0
 10
15.5699
 20
61.9222
 11
15.4652
 21
61.7451
  0
LINE
  8
0
 10
15.4652
 20
61.7451
 11
15.3495
 21
61.575
  0
LINE
  8
0
 10
15.3495
 20
61.575
 11
15.2234
 21
61.4124
  0
LINE
  8
0
 10
15.2234
 20
61.4124
 11
15.0874
 21
61.2581
  0
LINE
  8
0
 10
15.0874
 20
61.2581
 11
14.9419
 21
61.1126
  0
LINE
  8
0
 10
14.9419
 20
61.1126
 11
14.7876
 21
60.9765
  0
LINE
  8
0
 10
14.7876
 20
60.9765
 11
14.625
 21
60.8504
  0
LINE
  8
0
 10
14.625
 20
60.8504
 11
14.4548
 21
60.7348
  0
LINE
  8
0
 10
14.4548
 20
60.7348
 11
14.2777
 21
60.6301
  0
LINE
  8
0
 10
14.2777
 20
60.6301
 11
14.0944
 21
60.5367
  0
LINE
  8
0
 10
14.0944
 20
60.5367
 11
13.9056
 21
60.455
  0
LINE
  8
0
 10
13.9056
 20
60.455
 11
13.712
 21
60.3853
  0
LINE
  8
0
 10
13.712
 20
60.3853
 11
13.5145
 21
60.3279
  0
LINE
  8
0
 10
13.5145
 20
60.3279
 11
13.3137
 21
60.283
  0
LINE
  8
0
 10
13.3137
 20
60.283
 11
13.1105
 21
60.2508
  0
LINE
  8
0
 10
13.1105
 20
60.2508
 11
12.9056
 21
60.2314
  0
LINE
  8
0
 10
12.9056
 20
60.2314
 11
12.7
 21
60.225
  0
LINE
  8
0
 10
12.7
 20
60.225
 11
12.4944
 21
60.2314
  0
LINE
  8
0
 10
12.4944
 20
34.8315
 11
12.2895
 21
34.8508
  0
LINE
  8
0
 10
12.2895
 20
34.8508
 11
12.0863
 21
34.883
  0
LINE
  8
0
 10
12.0863
 20
34.883
 11
11.8855
 21
34.9279
  0
LINE
  8
0
 10
11.8855
 20
34.9279
 11
11.688
 21
34.9853
  0
LINE
  8
0
 10
11.688
 20
34.9853
 11
11.4944
 21
35.055
  0
LINE
  8
0
 10
11.4944
 20
35.055
 11
11.3056
 21
35.1367
  0
LINE
  8
0
 10
11.3056
 20
35.1367
 11
11.1223
 21
35.2301
  0
LINE
  8
0
 10
11.1223
 20
35.2301
 11
10.9452
 21
35.3348
  0
LINE
  8
0
 10
10.9452
 20
35.3348
 11
10.775
 21
35.4505
  0
LINE
  8
0
 10
10.775
 20
35.4505
 11
10.6124
 21
35.5766
  0
LINE
  8
0
 10
10.6124
 20
35.5766
 11
10.4581
 21
35.7126
  0
LINE
  8
0
 10
10.4581
 20
35.7126
 11
10.3126
 21
35.8581
  0
LINE
  8
0
 10
10.3126
 20
35.8581
 11
10.1766
 21
36.0124
  0
LINE
  8
0
 10
10.1766
 20
36.0124
 11
10.0505
 21
36.175
  0
LINE
  8
0
 10
10.0505
 20
36.175
 11
9.93483
 21
36.3452
  0
LINE
  8
0
 10
9.93483
 20
36.3452
 11
9.83009
 21
36.5223
  0
LINE
  8
0
 10
9.83009
 20
36.5223
 11
9.73669
 21
36.7056
  0
LINE
  8
0
 10
9.73669
 20
36.7056
 11
9.65498
 21
36.8944
  0
LINE
  8
0
 10
9.65498
 20
36.8944
 11
9.5853
 21
37.088
  0
LINE
  8
0
 10
9.5853
 20
37.088
 11
9.52789
 21
37.2855
  0
LINE
  8
0
 10
9.52789
 20
37.2855
 11
9.48302
 21
37.4863
  0
LINE
  8
0
 10
9.48302
 20
37.4863
 11
9.45084
 21
37.6895
  0
LINE
  8
0
 10
9.45084
 20
37.6895
 11
9.43147
 21
37.8944
  0
LINE
  8
0
 10
9.43147
 20
37.8944
 11
9.425
 21
38.1
  0
LINE
  8
0
 10
9.425
 20
38.1
 11
9.43147
 21
38.3056
  0
LINE
  8
0
 10
9.43147
 20
38.3056
 11
9.45084
 21
38.5105
  0
LINE
  8
0
 10
9.45084
 20
38.5105
 11
9.48302
 21
38.7137
  0
LINE
  8
0
 10
9.48302
 20
38.7137
 11
9.52789
 21
38.9144
  0
LINE
  8
0
 10
9.52789
 20
38.9144
 11
9.5853
 21
39.112
  0
LINE
  8
0
 10
9.5853
 20
39.112
 11
9.65498
 21
39.3056
  0
LINE
  8
0
 10
9.65498
 20
39.3056
 11
9.73669
 21
39.4944
  0
LINE
  8
0
 10
9.73669
 20
39.4944
 11
9.83009
 21
39.6777
  0
LINE
  8
0
 10
9.83009
 20
39.6777
 11
9.93483
 21
39.8548
  0
LINE
  8
0
 10
9.93483
 20
39.8548
 11
10.0505
 21
40.025
  0
LINE
  8
0
 10
10.0505
 20
40.025
 11
10.1766
 21
40.1875
  0
LINE
  8
0
 10
10.1766
 20
40.1875
 11
10.3126
 21
40.3419
  0
LINE
  8
0
 10
10.3126
 20
40.3419
 11
10.4581
 21
40.4874
  0
LINE
  8
0
 10
10.4581
 20
40.4874
 11
10.6124
 21
40.6234
  0
LINE
  8
0
 10
10.6124
 20
40.6234
 11
10.775
 21
40.7495
  0
LINE
  8
0
 10
10.775
 20
40.7495
 11
10.9452
 21
40.8652
  0
LINE
  8
0
 10
10.9452
 20
40.8652
 11
11.1223
 21
40.9699
  0
LINE
  8
0
 10
11.1223
 20
40.9699
 11
11.3056
 21
41.0633
  0
LINE
  8
0
 10
11.3056
 20
41.0633
 11
11.4944
 21
41.145
  0
LINE
  8
0
 10
11.4944
 20
41.145
 11
11.688
 21
41.2147
  0
LINE
  8
0
 10
11.688
 20
41.2147
 11
11.8855
 21
41.2721
  0
LINE
  8
0
 10
11.8855
 20
41.2721
 11
12.0863
 21
41.317
  0
LINE
  8
0
 10
12.0863
 20
41.317
 11
12.2895
 21
41.3492
  0
LINE
  8
0
 10
12.2895
 20
41.3492
 11
12.4944
 21
41.3685
  0
LINE
  8
0
 10
12.4944
 20
41.3685
 11
12.7
 21
41.375
  0
LINE
  8
0
 10
12.7
 20
41.375
 11
12.9056
 21
41.3685
  0
LINE
  8
0
 10
12.9056
 20
41.3685
 11
13.1105
 21
41.3492
  0
LINE
  8
0
 10
13.1105
 20
41.3492
 11
13.3137
 21
41.317
  0
LINE
  8
0
 10
13.3137
 20
41.317
 11
13.5145
 21
41.2721
  0
LINE
  8
0
 10
13.5145
 20
41.2721
 11
13.712
 21
41.2147
  0
LINE
  8
0
 10
13.712
 20
41.2147
 11
13.9056
 21
41.145
  0
LINE
  8
0
 10
13.9056
 20
41.145
 11
14.0944
 21
41.0633
  0
LINE
  8
0
 10
14.0944
 20
41.0633
 11
14.2777
 21
40.9699
  0
LINE
  8
0
 10
14.2777
 20
40.9699
 11
14.4548
 21
40.8652
  0
LINE
  8
0
 10
14.4548
 20
40.8652
 11
14.625
 21
40.7495
  0
LINE
  8
0
 10
14.625
 20
40.7495
 11
14.7876
 21
40.6234
  0
LINE
  8
0
 10
14.7876
 20
40.6234
 11
14.9419
 21
40.4874
  0
LINE
  8
0
 10
14.9419
 20
40.4874
 11
15.0874
 21
40.3419
  0
LINE
  8
0
 10
15.0874
 20
40.3419
 11
15.2234
 21
40.1875
  0
LINE
  8
0
 10
15.2234
 20
40.1875
 11
15.3495
 21
40.025
  0
LINE
  8
0
 10
15.3495
 20
40.025
 11
15.4652
 21
39.8548
  0
LINE
  8
0
 10
15.4652
 20
39.8548
 11
15.5699
 21
39.6777
  0
LINE
  8
0
 10
15.5699
 20
39.6777
 11
15.6633
 21
39.4944
  0
LINE
  8
0
 10
15.6633
 20
39.4944
 11
15.745
 21
39.3056
  0
LINE
  8
0
 10
15.745
 20
39.3056
 11
15.8147
 21
39.112
  0
LINE
  8
0
 10
15.8147
 20
39.112
 11
15.8721
 21
38.9144
  0
LINE
  8
0
 10
15.8721
 20
38.9144
 11
15.917
 21
38.7137
  0
LINE
  8
0
 10
15.917
 20
38.7137
 11
15.9492
 21
38.5105
  0
LINE
  8
0
 10
15.9492
 20
38.5105
 11
15.9685
 21
38.3056
  0
LINE
  8
0
 10
15.9685
 20
38.3056
 11
15.975
 21
38.1
  0
LINE
  8
0
 10
15.975
 20
38.1
 11
15.9685
 21
37.8944
  0
LINE
  8
0
 10
15.9685
 20
37.8944
 11
15.9492
 21
37.6895
  0
LINE
  8
0
 10
15.9492
 20
37.6895
 11
15.917
 21
37.4863
  0
LINE
  8
0
 10
15.917
 20
37.4863
 11
15.8721
 21
37.2855
  0
LINE
  8
0
 10
15.8721
 20
37.2855
 11
15.8147
 21
37.088
  0
LINE
  8
0
 10
15.8147
 20
37.088
 11
15.745
 21
36.8944
  0
LINE
  8
0
 10
15.745
 20
36.8944
 11
15.6633
 21
36.7056
  0
LINE
  8
0
 10
15.6633
 20
36.7056
 11
15.5699
 21
36.5223
  0
LINE
  8
0
 10
15.5699
 20
36.5223
 11
15.4652
 21
36.3452
  0
LINE
  8
0
 10
15.4652
 20
36.3452
 11
15.3495
 21
36.175
  0
LINE
  8
0
 10
15.3495
 20
36.175
 11
15.2234
 21
36.0124
  0
LINE
  8
0
 10
15.2234
 20
36.0124
 11
15.0874
 21
35.8581
  0
LINE
  8
0
 10
15.0874
 20
35.8581
 11
14.9419
 21
35.7126
  0
LINE
  8
0
 10
14.9419
 20
35.7126
 11
14.7876
 21
35.5766
  0
LINE
  8
0
 10
14.7876
 20
35.5766
 11
14.625
 21
35.4505
  0
LINE
  8
0
 10
14.625
 20
35.4505
 11
14.4548
 21
35.3348
  0
LINE
  8
0
 10
14.4548
 20
35.3348
 11
14.2777
 21
35.2301
  0
LINE
  8
0
 10
14.2777
 20
35.2301
 11
14.0944
 21
35.1367
  0
LINE
  8
0
 10
14.0944
 20
35.1367
 11
13.9056
 21
35.055
  0
LINE
  8
0
 10
13.9056
 20
35.055
 11
13.712
 21
34.9853
  0
LINE
  8
0
 10
13.712
 20
34.9853
 11
13.5145
 21
34.9279
  0
LINE
  8
0
 10
13.5145
 20
34.9279
 11
13.3137
 21
34.883
  0
LINE
  8
0
 10
13.3137
 20
34.883
 11
13.1105
 21
34.8508
  0
LINE
  8
0
 10
13.1105
 20
34.8508
 11
12.9056
 21
34.8315
  0
LINE
  8
0
 10
12.9056
 20
34.8315
 11
12.7
 21
34.825
  0
LINE
  8
0
 10
12.7
 20
34.825
 11
12.4944
 21
34.8315
  0
LINE
  8
0
 10
37.8944
 20
9.43147
 11
37.6895
 21
9.45084
  0
LINE
  8
0
 10
37.6895
 20
9.45084
 11
37.4863
 21
9.48302
  0
LINE
  8
0
 10
37.4863
 20
9.48302
 11
37.2855
 21
9.52789
  0
LINE
  8
0
 10
37.2855
 20
9.52789
 11
37.088
 21
9.5853
  0
LINE
  8
0
 10
37.088
 20
9.5853
 11
36.8944
 21
9.65498
  0
LINE
  8
0
 10
36.8944
 20
9.65498
 11
36.7056
 21
9.73669
  0
LINE
  8
0
 10
36.7056
 20
9.73669
 11
36.5223
 21
9.83009
  0
LINE
  8
0
 10
36.5223
 20
9.83009
 11
36.3452
 21
9.93483
  0
LINE
  8
0
 10
36.3452
 20
9.93483
 11
36.175
 21
10.0505
  0
LINE
  8
0
 10
36.175
 20
10.0505
 11
36.0124
 21
10.1766
  0
LINE
  8
0
 10
36.0124
 20
10.1766
 11
35.8581
 21
10.3126
  0
LINE
  8
0
 10
35.8581
 20
10.3126
 11
35.7126
 21
10.4581
  0
LINE
  8
0
 10
35.7126
 20
10.4581
 11
35.5766
 21
10.6124
  0
LINE
  8
0
 10
35.5766
 20
10.6124
 11
35.4505
 21
10.775
  0
LINE
  8
0
 10
35.4505
 20
10.775
 11
35.3348
 21
10.9452
  0
LINE
  8
0
 10
35.3348
 20
10.9452
 11
35.2301
 21
11.1223
  0
LINE
  8
0
 10
35.2301
 20
11.1223
 11
35.1367
 21
11.3056
  0
LINE
  8
0
 10
35.1367
 20
11.3056
 11
35.055
 21
11.4944
  0
LINE
  8
0
 10
35.055
 20
11.4944
 11
34.9853
 21
11.688
  0
LINE
  8
0
 10
34.9853
 20
11.688
 11
34.9279
 21
11.8855
  0
LINE
  8
0
 10
34.9279
 20
11.8855
 11
34.883
 21
12.0863
  0
LINE
  8
0
 10
34.883
 20
12.0863
 11
34.8508
 21
12.2895
  0
LINE
  8
0
 10
34.8508
 20
12.2895
 11
34.8315
 21
12.4944
  0
LINE
  8
0
 10
34.8315
 20
12.4944
 11
34.825
 21
12.7
  0
LINE
  8
0
 10
34.825
 20
12.7
 11
34.8315
 21
12.9056
  0
LINE
  8
0
 10
34.8315
 20
12.9056
 11
34.8508
 21
13.1105
  0
LINE
  8
0
 10
34.8508
 20
13.1105
 11
34.883
 21
13.3137
  0
LINE
  8
0
 10
34.883
 20
13.3137
 11
34.9279
 21
13.5145
  0
LINE
  8
0
 10
34.9279
 20
13.5145
 11
34.9853
 21
13.712
  0
LINE
  8
0
 10
34.9853
 20
13.712
 11
35.055
 21
13.9056
  0
LINE
  8
0
 10
35.055
 20
13.9056
 11
35.1367
 21
14.0944
  0
LINE
  8
0
 10
35.1367
 20
14.0944
 11
35.2301
 21
14.2777
  0
LINE
  8
0
 10
35.2301
 20
14.2777
 11
35.3348
 21
14.4548
  0
LINE
  8
0
 10
35.3348
 20
14.4548
 11
35.4505
 21
14.625
  0
LINE
  8
0
 10
35.4505
 20
14.625
 11
35.5766
 21
14.7876
  0
LINE
  8
0
 10
35.5766
 20
14.7876
 11
35.7126
 21
14.9419
  0
LINE
  8
0
 10
35.7126
 20
14.9419
 11
35.8581
 21
15.0874
  0
LINE
  8
0
 10
35.8581
 20
15.0874
 11
36.0124
 21
15.2234
  0
LINE
  8
0
 10
36.0124
 20
15.2234
 11
36.175
 21
15.3495
  0
LINE
  8
0
 10
36.175
 20
15.3495
 11
36.3452
 21
15.4652
  0
LINE
  8
0
 10
36.3452
 20
15.4652
 11
36.5223
 21
15.5699
  0
LINE
  8
0
 10
36.5223
 20
15.5699
 11
36.7056
 21
15.6633
  0
LINE
  8
0
 10
36.7056
 20
15.6633
 11
36.8944
 21
15.745
  0
LINE
  8
0
 10
36.8944
 20
15.745
 11
37.088
 21
15.8147
  0
LINE
  8
0
 10
37.088
 20
15.8147
 11
37.2855
 21
15.8721
  0
LINE
  8
0
 10
37.2855
 20
15.8721
 11
37.4863
 21
15.917
  0
LINE
  8
0
 10
37.4863
 20
15.917
 11
37.6895
 21
15.9492
  0
LINE
  8
0
 10
37.6895
 20
15.9492
 11
37.8944
 21
15.9685
  0
LINE
  8
0
 10
37.8944
 20
15.9685
 11
38.1
 21
15.975
  0
LINE
  8
0
 10
38.1
 20
15.975
 11
38.3056
 21
15.9685
  0
LINE
  8
0
 10
38.3056
 20
15.9685
 11
38.5105
 21
15.9492
  0
LINE
  8
0
 10
38.5105
 20
15.9492
 11
38.7137
 21
15.917
  0
LINE
  8
0
 10
38.7137
 20
15.917
 11
38.9144
 21
15.8721
  0
LINE
  8
0
 10
38.9144
 20
15.8721
 11
39.112
 21
15.8147
  0
LINE
  8
0
 10
39.112
 20
15.8147
 11
39.3056
 21
15.745
  0
LINE
  8
0
 10
39.3056
 20
15.745
 11
39.4944
 21
15.6633
  0
LINE
  8
0
 10
39.4944
 20
15.6633
 11
39.6777
 21
15.5699
  0
LINE
  8
0
 10
39.6777
 20
15.5699
 11
39.8548
 21
15.4652
  0
LINE
  8
0
 10
39.8548
 20
15.4652
 11
40.025
 21
15.3495
  0
LINE
  8
0
 10
40.025
 20
15.3495
 11
40.1875
 21
15.2234
  0
LINE
  8
0
 10
40.1875
 20
15.2234
 11
40.3419
 21
15.0874
  0
LINE
  8
0
 10
40.3419
 20
15.0874
 11
40.4874
 21
14.9419
  0
LINE
  8
0
 10
40.4874
 20
14.9419
 11
40.6234
 21
14.7876
  0
LINE
  8
0
 10
40.6234
 20
14.7876
 11
40.7495
 21
14.625
  0
LINE
  8
0
 10
40.7495
 20
14.625
 11
40.8652
 21
14.4548
  0
LINE
  8
0
 10
40.8652
 20
14.4548
 11
40.9699
 21
14.2777
  0
LINE
  8
0
 10
40.9699
 20
14.2777
 11
41.0633
 21
14.0944
  0
LINE
  8
0
 10
41.0633
 20
14.0944
 11
41.145
 21
13.9056
  0
LINE
  8
0
 10
41.145
 20
13.9056
 11
41.2147
 21
13.712
  0
LINE
  8
0
 10
41.2147
 20
13.712
 11
41.2721
 21
13.5145
  0
LINE
  8
0
 10
41.2721
 20
13.5145
 11
41.317
 21
13.3137
  0
LINE
  8
0
 10
41.317
 20
13.3137
 11
41.3492
 21
13.1105
  0
LINE
  8
0
 10
41.3492
 20
13.1105
 11
41.3685
 21
12.9056
  0
LINE
  8
0
 10
41.3685
 20
12.9056
 11
41.375
 21
12.7
  0
LINE
  8
0
 10
41.375
 20
12.7
 11
41.3685
 21
12.4944
  0
LINE
  8
0
 10
41.3685
 20
12.4944
 11
41.3492
 21
12.2895
  0
LINE
  8
0
 10
41.3492
 20
12.2895
 11
41.317
 21
12.0863
  0
LINE
  8
0
 10
41.317
 20
12.0863
 11
41.2721
 21
11.8855
  0
LINE
  8
0
 10
41.2721
 20
11.8855
 11
41.2147
 21
11.688
  0
LINE
  8
0
 10
41.2147
 20
11.688
 11
41.145
 21
11.4944
  0
LINE
  8
0
 10
41.145
 20
11.4944
 11
41.0633
 21
11.3056
  0
LINE
  8
0
 10
41.0633
 20
11.3056
 11
40.9699
 21
11.1223
  0
LINE
  8
0
 10
40.9699
 20
11.1223
 11
40.8652
 21
10.9452
  0
LINE
  8
0
 10
40.8652
 20
10.9452
 11
40.7495
 21
10.775
  0
LINE
  8
0
 10
40.7495
 20
10.775
 11
40.6234
 21
10.6124
  0
LINE
  8
0
 10
40.6234
 20
10.6124
 11
40.4874
 21
10.4581
  0
LINE
  8
0
 10
40.4874
 20
10.4581
 11
40.3419
 21
10.3126
  0
LINE
  8
0
 10
40.3419
 20
10.3126
 11
40.1875
 21
10.1766
  0
LINE
  8
0
 10
40.1875
 20
10.1766
 11
40.025
 21
10.0505
  0
LINE
  8
0
 10
40.025
 20
10.0505
 11
39.8548
 21
9.93483
  0
LINE
  8
0
 10
39.8548
 20
9.93483
 11
39.6777
 21
9.83009
  0
LINE
  8
0
 10
39.6777
 20
9.83009
 11
39.4944
 21
9.73669
  0
LINE
  8
0
 10
39.4944
 20
9.73669
 11
39.3056
 21
9.65498
  0
LINE
  8
0
 10
39.3056
 20
9.65498
 11
39.112
 21
9.5853
  0
LINE
  8
0
 10
39.112
 20
9.5853
 11
38.9144
 21
9.52789
  0
LINE
  8
0
 10
38.9144
 20
9.52789
 11
38.7137
 21
9.48302
  0
LINE
  8
0
 10
38.7137
 20
9.48302
 11
38.5105
 21
9.45084
  0
LINE
  8
0
 10
38.5105
 20
9.45084
 11
38.3056
 21
9.43147
  0
LINE
  8
0
 10
38.3056
 20
9.43147
 11
38.1
 21
9.425
  0
LINE
  8
0
 10
38.1
 20
9.425
 11
37.8944
 21
9.43147
  0
LINE
  8
0
 10
12.4944
 20
9.43147
 11
12.2895
 21
9.45084
  0
LINE
  8
0
 10
12.2895
 20
9.45084
 11
12.0863
 21
9.48302
  0
LINE
  8
0
 10
12.0863
 20
9.48302
 11
11.8855
 21
9.52791
  0
LINE
  8
0
 10
11.8855
 20
9.52791
 11
11.688
 21
9.5853
  0
LINE
  8
0
 10
11.688
 20
9.5853
 11
11.4944
 21
9.655
  0
LINE
  8
0
 10
11.4944
 20
9.655
 11
11.3056
 21
9.73671
  0
LINE
  8
0
 10
11.3056
 20
9.73671
 11
11.1223
 21
9.83011
  0
LINE
  8
0
 10
11.1223
 20
9.83011
 11
10.9452
 21
9.93484
  0
LINE
  8
0
 10
10.9452
 20
9.93484
 11
10.775
 21
10.0505
  0
LINE
  8
0
 10
10.775
 20
10.0505
 11
10.6124
 21
10.1766
  0
LINE
  8
0
 10
10.6124
 20
10.1766
 11
10.4581
 21
10.3126
  0
LINE
  8
0
 10
10.4581
 20
10.3126
 11
10.3126
 21
10.4581
  0
LINE
  8
0
 10
10.3126
 20
10.4581
 11
10.1766
 21
10.6125
  0
LINE
  8
0
 10
10.1766
 20
10.6125
 11
10.0505
 21
10.775
  0
LINE
  8
0
 10
10.0505
 20
10.775
 11
9.93483
 21
10.9452
  0
LINE
  8
0
 10
9.93483
 20
10.9452
 11
9.83009
 21
11.1223
  0
LINE
  8
0
 10
9.83009
 20
11.1223
 11
9.73669
 21
11.3056
  0
LINE
  8
0
 10
9.73669
 20
11.3056
 11
9.65498
 21
11.4944
  0
LINE
  8
0
 10
9.65498
 20
11.4944
 11
9.5853
 21
11.688
  0
LINE
  8
0
 10
9.5853
 20
11.688
 11
9.52789
 21
11.8856
  0
LINE
  8
0
 10
9.52789
 20
11.8856
 11
9.48302
 21
12.0863
  0
LINE
  8
0
 10
9.48302
 20
12.0863
 11
9.45084
 21
12.2896
  0
LINE
  8
0
 10
9.45084
 20
12.2896
 11
9.43147
 21
12.4944
  0
LINE
  8
0
 10
9.43147
 20
12.4944
 11
9.425
 21
12.7
  0
LINE
  8
0
 10
9.425
 20
12.7
 11
9.43147
 21
12.9056
  0
LINE
  8
0
 10
9.43147
 20
12.9056
 11
9.45084
 21
13.1105
  0
LINE
  8
0
 10
9.45084
 20
13.1105
 11
9.48302
 21
13.3137
  0
LINE
  8
0
 10
9.48302
 20
13.3137
 11
9.52789
 21
13.5145
  0
LINE
  8
0
 10
9.52789
 20
13.5145
 11
9.5853
 21
13.712
  0
LINE
  8
0
 10
9.5853
 20
13.712
 11
9.65498
 21
13.9056
  0
LINE
  8
0
 10
9.65498
 20
13.9056
 11
9.73669
 21
14.0944
  0
LINE
  8
0
 10
9.73669
 20
14.0944
 11
9.83009
 21
14.2777
  0
LINE
  8
0
 10
9.83009
 20
14.2777
 11
9.93483
 21
14.4548
  0
LINE
  8
0
 10
9.93483
 20
14.4548
 11
10.0505
 21
14.625
  0
LINE
  8
0
 10
10.0505
 20
14.625
 11
10.1766
 21
14.7876
  0
LINE
  8
0
 10
10.1766
 20
14.7876
 11
10.3126
 21
14.9419
  0
LINE
  8
0
 10
10.3126
 20
14.9419
 11
10.4581
 21
15.0874
  0
LINE
  8
0
 10
10.4581
 20
15.0874
 11
10.6124
 21
15.2234
  0
LINE
  8
0
 10
10.6124
 20
15.2234
 11
10.775
 21
15.3495
  0
LINE
  8
0
 10
10.775
 20
15.3495
 11
10.9452
 21
15.4652
  0
LINE
  8
0
 10
10.9452
 20
15.4652
 11
11.1223
 21
15.5699
  0
LINE
  8
0
 10
11.1223
 20
15.5699
 11
11.3056
 21
15.6633
  0
LINE
  8
0
 10
11.3056
 20
15.6633
 11
11.4944
 21
15.745
  0
LINE
  8
0
 10
11.4944
 20
15.745
 11
11.688
 21
15.8147
  0
LINE
  8
0
 10
11.688
 20
15.8147
 11
11.8855
 21
15.8721
  0
LINE
  8
0
 10
11.8855
 20
15.8721
 11
12.0863
 21
15.917
  0
LINE
  8
0
 10
12.0863
 20
15.917
 11
12.2895
 21
15.9492
  0
LINE
  8
0
 10
12.2895
 20
15.9492
 11
12.4944
 21
15.9685
  0
LINE
  8
0
 10
12.4944
 20
15.9685
 11
12.7
 21
15.975
  0
LINE
  8
0
 10
12.7
 20
15.975
 11
12.9056
 21
15.9685
  0
LINE
  8
0
 10
12.9056
 20
15.9685
 11
13.1105
 21
15.9492
  0
LINE
  8
0
 10
13.1105
 20
15.9492
 11
13.3137
 21
15.917
  0
LINE
  8
0
 10
13.3137
 20
15.917
 11
13.5145
 21
15.8721
  0
LINE
  8
0
 10
13.5145
 20
15.8721
 11
13.712
 21
15.8147
  0
LINE
  8
0
 10
13.712
 20
15.8147
 11
13.9056
 21
15.745
  0
LINE
  8
0
 10
13.9056
 20
15.745
 11
14.0944
 21
15.6633
  0
LINE
  8
0
 10
14.0944
 20
15.6633
 11
14.2777
 21
15.5699
  0
LINE
  8
0
 10
14.2777
 20
15.5699
 11
14.4548
 21
15.4652
  0
LINE
  8
0
 10
14.4548
 20
15.4652
 11
14.625
 21
15.3495
  0
LINE
  8
0
 10
14.625
 20
15.3495
 11
14.7876
 21
15.2234
  0
LINE
  8
0
 10
14.7876
 20
15.2234
 11
14.9419
 21
15.0874
  0
LINE
  8
0
 10
14.9419
 20
15.0874
 11
15.0874
 21
14.9419
  0
LINE
  8
0
 10
15.0874
 20
14.9419
 11
15.2234
 21
14.7876
  0
LINE
  8
0
 10
15.2234
 20
14.7876
 11
15.3495
 21
14.625
  0
LINE
  8
0
 10
15.3495
 20
14.625
 11
15.4652
 21
14.4548
  0
LINE
  8
0
 10
15.4652
 20
14.4548
 11
15.5699
 21
14.2777
  0
LINE
  8
0
 10
15.5699
 20
14.2777
 11
15.6633
 21
14.0944
  0
LINE
  8
0
 10
15.6633
 20
14.0944
 11
15.745
 21
13.9056
  0
LINE
  8
0
 10
15.745
 20
13.9056
 11
15.8147
 21
13.712
  0
LINE
  8
0
 10
15.8147
 20
13.712
 11
15.8721
 21
13.5145
  0
LINE
  8
0
 10
15.8721
 20
13.5145
 11
15.917
 21
13.3137
  0
LINE
  8
0
 10
15.917
 20
13.3137
 11
15.9492
 21
13.1105
  0
LINE
  8
0
 10
15.9492
 20
13.1105
 11
15.9685
 21
12.9056
  0
LINE
  8
0
 10
15.9685
 20
12.9056
 11
15.975
 21
12.7
  0
LINE
  8
0
 10
15.975
 20
12.7
 11
15.9685
 21
12.4944
  0
LINE
  8
0
 10
15.9685
 20
12.4944
 11
15.9492
 21
12.2896
  0
LINE
  8
0
 10
15.9492
 20
12.2896
 11
15.917
 21
12.0863
  0
LINE
  8
0
 10
15.917
 20
12.0863
 11
15.8721
 21
11.8856
  0
LINE
  8
0
 10
15.8721
 20
11.8856
 11
15.8147
 21
11.688
  0
LINE
  8
0
 10
15.8147
 20
11.688
 11
15.745
 21
11.4944
  0
LINE
  8
0
 10
15.745
 20
11.4944
 11
15.6633
 21
11.3056
  0
LINE
  8
0
 10
15.6633
 20
11.3056
 11
15.5699
 21
11.1223
  0
LINE
  8
0
 10
15.5699
 20
11.1223
 11
15.4652
 21
10.9452
  0
LINE
  8
0
 10
15.4652
 20
10.9452
 11
15.3495
 21
10.775
  0
LINE
  8
0
 10
15.3495
 20
10.775
 11
15.2234
 21
10.6125
  0
LINE
  8
0
 10
15.2234
 20
10.6125
 11
15.0874
 21
10.4581
  0
LINE
  8
0
 10
15.0874
 20
10.4581
 11
14.9419
 21
10.3126
  0
LINE
  8
0
 10
14.9419
 20
10.3126
 11
14.7876
 21
10.1766
  0
LINE
  8
0
 10
14.7876
 20
10.1766
 11
14.625
 21
10.0505
  0
LINE
  8
0
 10
14.625
 20
10.0505
 11
14.4548
 21
9.93484
  0
LINE
  8
0
 10
14.4548
 20
9.93484
 11
14.2777
 21
9.83011
  0
LINE
  8
0
 10
14.2777
 20
9.83011
 11
14.0944
 21
9.73671
  0
LINE
  8
0
 10
14.0944
 20
9.73671
 11
13.9056
 21
9.655
  0
LINE
  8
0
 10
13.9056
 20
9.655
 11
13.712
 21
9.5853
  0
LINE
  8
0
 10
13.712
 20
9.5853
 11
13.5145
 21
9.52791
  0
LINE
  8
0
 10
13.5145
 20
9.52791
 11
13.3137
 21
9.48302
  0
LINE
  8
0
 10
13.3137
 20
9.48302
 11
13.1105
 21
9.45084
  0
LINE
  8
0
 10
13.1105
 20
9.45084
 11
12.9056
 21
9.43147
  0
LINE
  8
0
 10
12.9056
 20
9.43147
 11
12.7
 21
9.42502
  0
LINE
  8
0
 10
12.7
 20
9.42502
 11
12.4944
 21
9.43147
  0
LINE
  8
0
 10
63.2943
 20
9.43147
 11
63.0895
 21
9.45084
  0
LINE
  8
0
 10
63.0895
 20
9.45084
 11
62.8863
 21
9.48302
  0
LINE
  8
0
 10
62.8863
 20
9.48302
 11
62.6855
 21
9.52789
  0
LINE
  8
0
 10
62.6855
 20
9.52789
 11
62.4879
 21
9.5853
  0
LINE
  8
0
 10
62.4879
 20
9.5853
 11
62.2944
 21
9.65498
  0
LINE
  8
0
 10
62.2944
 20
9.65498
 11
62.1056
 21
9.73669
  0
LINE
  8
0
 10
62.1056
 20
9.73669
 11
61.9222
 21
9.83009
  0
LINE
  8
0
 10
61.9222
 20
9.83009
 11
61.7451
 21
9.93483
  0
LINE
  8
0
 10
61.7451
 20
9.93483
 11
61.575
 21
10.0505
  0
LINE
  8
0
 10
61.575
 20
10.0505
 11
61.4124
 21
10.1766
  0
LINE
  8
0
 10
61.4124
 20
10.1766
 11
61.2581
 21
10.3126
  0
LINE
  8
0
 10
61.2581
 20
10.3126
 11
61.1126
 21
10.4581
  0
LINE
  8
0
 10
61.1126
 20
10.4581
 11
60.9765
 21
10.6124
  0
LINE
  8
0
 10
60.9765
 20
10.6124
 11
60.8504
 21
10.775
  0
LINE
  8
0
 10
60.8504
 20
10.775
 11
60.7348
 21
10.9452
  0
LINE
  8
0
 10
60.7348
 20
10.9452
 11
60.6301
 21
11.1223
  0
LINE
  8
0
 10
60.6301
 20
11.1223
 11
60.5367
 21
11.3056
  0
LINE
  8
0
 10
60.5367
 20
11.3056
 11
60.455
 21
11.4944
  0
LINE
  8
0
 10
60.455
 20
11.4944
 11
60.3853
 21
11.688
  0
LINE
  8
0
 10
60.3853
 20
11.688
 11
60.3279
 21
11.8855
  0
LINE
  8
0
 10
60.3279
 20
11.8855
 11
60.283
 21
12.0863
  0
LINE
  8
0
 10
60.283
 20
12.0863
 11
60.2508
 21
12.2895
  0
LINE
  8
0
 10
60.2508
 20
12.2895
 11
60.2314
 21
12.4944
  0
LINE
  8
0
 10
60.2314
 20
12.4944
 11
60.225
 21
12.7
  0
LINE
  8
0
 10
60.225
 20
12.7
 11
60.2314
 21
12.9056
  0
LINE
  8
0
 10
60.2314
 20
12.9056
 11
60.2508
 21
13.1105
  0
LINE
  8
0
 10
60.2508
 20
13.1105
 11
60.283
 21
13.3137
  0
LINE
  8
0
 10
60.283
 20
13.3137
 11
60.3279
 21
13.5145
  0
LINE
  8
0
 10
60.3279
 20
13.5145
 11
60.3853
 21
13.712
  0
LINE
  8
0
 10
60.3853
 20
13.712
 11
60.455
 21
13.9056
  0
LINE
  8
0
 10
60.455
 20
13.9056
 11
60.5367
 21
14.0944
  0
LINE
  8
0
 10
60.5367
 20
14.0944
 11
60.6301
 21
14.2777
  0
LINE
  8
0
 10
60.6301
 20
14.2777
 11
60.7348
 21
14.4548
  0
LINE
  8
0
 10
60.7348
 20
14.4548
 11
60.8504
 21
14.625
  0
LINE
  8
0
 10
60.8504
 20
14.625
 11
60.9765
 21
14.7876
  0
LINE
  8
0
 10
60.9765
 20
14.7876
 11
61.1126
 21
14.9419
  0
LINE
  8
0
 10
61.1126
 20
14.9419
 11
61.2581
 21
15.0874
  0
LINE
  8
0
 10
61.2581
 20
15.0874
 11
61.4124
 21
15.2234
  0
LINE
  8
0
 10
61.4124
 20
15.2234
 11
61.575
 21
15.3495
  0
LINE
  8
0
 10
61.575
 20
15.3495
 11
61.7451
 21
15.4652
  0
LINE
  8
0
 10
61.7451
 20
15.4652
 11
61.9222
 21
15.5699
  0
LINE
  8
0
 10
61.9222
 20
15.5699
 11
62.1056
 21
15.6633
  0
LINE
  8
0
 10
62.1056
 20
15.6633
 11
62.2944
 21
15.745
  0
LINE
  8
0
 10
62.2944
 20
15.745
 11
62.4879
 21
15.8147
  0
LINE
  8
0
 10
62.4879
 20
15.8147
 11
62.6855
 21
15.8721
  0
LINE
  8
0
 10
62.6855
 20
15.8721
 11
62.8863
 21
15.917
  0
LINE
  8
0
 10
62.8863
 20
15.917
 11
63.0895
 21
15.9492
  0
LINE
  8
0
 10
63.0895
 20
15.9492
 11
63.2943
 21
15.9685
  0
LINE
  8
0
 10
63.2943
 20
15.9685
 11
63.5
 21
15.975
  0
LINE
  8
0
 10
63.5
 20
15.975
 11
63.7056
 21
15.9685
  0
LINE
  8
0
 10
63.7056
 20
15.9685
 11
63.9104
 21
15.9492
  0
LINE
  8
0
 10
63.9104
 20
15.9492
 11
64.1137
 21
15.917
  0
LINE
  8
0
 10
64.1137
 20
15.917
 11
64.3144
 21
15.8721
  0
LINE
  8
0
 10
64.3144
 20
15.8721
 11
64.512
 21
15.8147
  0
LINE
  8
0
 10
64.512
 20
15.8147
 11
64.7056
 21
15.745
  0
LINE
  8
0
 10
64.7056
 20
15.745
 11
64.8944
 21
15.6633
  0
LINE
  8
0
 10
64.8944
 20
15.6633
 11
65.0777
 21
15.5699
  0
LINE
  8
0
 10
65.0777
 20
15.5699
 11
65.2548
 21
15.4652
  0
LINE
  8
0
 10
65.2548
 20
15.4652
 11
65.425
 21
15.3495
  0
LINE
  8
0
 10
65.425
 20
15.3495
 11
65.5875
 21
15.2234
  0
LINE
  8
0
 10
65.5875
 20
15.2234
 11
65.7419
 21
15.0874
  0
LINE
  8
0
 10
65.7419
 20
15.0874
 11
65.8874
 21
14.9419
  0
LINE
  8
0
 10
65.8874
 20
14.9419
 11
66.0234
 21
14.7876
  0
LINE
  8
0
 10
66.0234
 20
14.7876
 11
66.1495
 21
14.625
  0
LINE
  8
0
 10
66.1495
 20
14.625
 11
66.2652
 21
14.4548
  0
LINE
  8
0
 10
66.2652
 20
14.4548
 11
66.3699
 21
14.2777
  0
LINE
  8
0
 10
66.3699
 20
14.2777
 11
66.4633
 21
14.0944
  0
LINE
  8
0
 10
66.4633
 20
14.0944
 11
66.545
 21
13.9056
  0
LINE
  8
0
 10
66.545
 20
13.9056
 11
66.6147
 21
13.712
  0
LINE
  8
0
 10
66.6147
 20
13.712
 11
66.6721
 21
13.5145
  0
LINE
  8
0
 10
66.6721
 20
13.5145
 11
66.717
 21
13.3137
  0
LINE
  8
0
 10
66.717
 20
13.3137
 11
66.7492
 21
13.1105
  0
LINE
  8
0
 10
66.7492
 20
13.1105
 11
66.7685
 21
12.9056
  0
LINE
  8
0
 10
66.7685
 20
12.9056
 11
66.775
 21
12.7
  0
LINE
  8
0
 10
66.775
 20
12.7
 11
66.7685
 21
12.4944
  0
LINE
  8
0
 10
66.7685
 20
12.4944
 11
66.7492
 21
12.2895
  0
LINE
  8
0
 10
66.7492
 20
12.2895
 11
66.717
 21
12.0863
  0
LINE
  8
0
 10
66.717
 20
12.0863
 11
66.6721
 21
11.8855
  0
LINE
  8
0
 10
66.6721
 20
11.8855
 11
66.6147
 21
11.688
  0
LINE
  8
0
 10
66.6147
 20
11.688
 11
66.545
 21
11.4944
  0
LINE
  8
0
 10
66.545
 20
11.4944
 11
66.4633
 21
11.3056
  0
LINE
  8
0
 10
66.4633
 20
11.3056
 11
66.3699
 21
11.1223
  0
LINE
  8
0
 10
66.3699
 20
11.1223
 11
66.2652
 21
10.9452
  0
LINE
  8
0
 10
66.2652
 20
10.9452
 11
66.1495
 21
10.775
  0
LINE
  8
0
 10
66.1495
 20
10.775
 11
66.0234
 21
10.6124
  0
LINE
  8
0
 10
66.0234
 20
10.6124
 11
65.8874
 21
10.4581
  0
LINE
  8
0
 10
65.8874
 20
10.4581
 11
65.7419
 21
10.3126
  0
LINE
  8
0
 10
65.7419
 20
10.3126
 11
65.5875
 21
10.1766
  0
LINE
  8
0
 10
65.5875
 20
10.1766
 11
65.425
 21
10.0505
  0
LINE
  8
0
 10
65.425
 20
10.0505
 11
65.2548
 21
9.93483
  0
LINE
  8
0
 10
65.2548
 20
9.93483
 11
65.0777
 21
9.83009
  0
LINE
  8
0
 10
65.0777
 20
9.83009
 11
64.8944
 21
9.73669
  0
LINE
  8
0
 10
64.8944
 20
9.73669
 11
64.7056
 21
9.65498
  0
LINE
  8
0
 10
64.7056
 20
9.65498
 11
64.512
 21
9.5853
  0
LINE
  8
0
 10
64.512
 20
9.5853
 11
64.3144
 21
9.52789
  0
LINE
  8
0
 10
64.3144
 20
9.52789
 11
64.1137
 21
9.48302
  0
LINE
  8
0
 10
64.1137
 20
9.48302
 11
63.9104
 21
9.45084
  0
LINE
  8
0
 10
63.9104
 20
9.45084
 11
63.7056
 21
9.43147
  0
LINE
  8
0
 10
63.7056
 20
9.43147
 11
63.5
 21
9.425
  0
LINE
  8
0
 10
63.5
 20
9.425
 11
63.2943
 21
9.43147
  0
LINE
  8
0
 10
157.4
 20
25.4
 11
106.6
 21
25.4
  0
LINE
  8
0
 10
106.6
 20
25.4
 11
106.6
 21
76.2
  0
LINE
  8
0
 10
106.6
 20
76.2
 11
81.2
 21
76.2
  0
LINE
  8
0
 10
81.2
 20
76.2
 11
81.2
 21
0
  0
LINE
  8
0
 10
81.2
 20
0
 11
157.4
 21
0
  0
LINE
  8
0
 10
157.4
 20
0
 11
157.4
 21
25.4
  0
LINE
  8
0
 10
93.6944
 20
60.2314
 11
93.4895
 21
60.2508
  0
LINE
  8
0
 10
93.4895
 20
60.2508
 11
93.2863
 21
60.283
  0
LINE
  8
0
 10
93.2863
 20
60.283
 11
93.0855
 21
60.3279
  0
LINE
  8
0
 10
93.0855
 20
60.3279
 11
92.888
 21
60.3853
  0
LINE
  8
0
 10
92.888
 20
60.3853
 11
92.6944
 21
60.455
  0
LINE
  8
0
 10
92.6944
 20
60.455
 11
92.5056
 21
60.5367
  0
LINE
  8
0
 10
92.5056
 20
60.5367
 11
92.3223
 21
60.6301
  0
LINE
  8
0
 10
92.3223
 20
60.6301
 11
92.1452
 21
60.7348
  0
LINE
  8
0
 10
92.1452
 20
60.7348
 11
91.975
 21
60.8504
  0
LINE
  8
0
 10
91.975
 20
60.8504
 11
91.8124
 21
60.9765
  0
LINE
  8
0
 10
91.8124
 20
60.9765
 11
91.6581
 21
61.1126
  0
LINE
  8
0
 10
91.6581
 20
61.1126
 11
91.5126
 21
61.2581
  0
LINE
  8
0
 10
91.5126
 20
61.2581
 11
91.3766
 21
61.4124
  0
LINE
  8
0
 10
91.3766
 20
61.4124
 11
91.2505
 21
61.575
  0
LINE
  8
0
 10
91.2505
 20
61.575
 11
91.1348
 21
61.7451
  0
LINE
  8
0
 10
91.1348
 20
61.7451
 11
91.0301
 21
61.9222
  0
LINE
  8
0
 10
91.0301
 20
61.9222
 11
90.9367
 21
62.1056
  0
LINE
  8
0
 10
90.9367
 20
62.1056
 11
90.855
 21
62.2944
  0
LINE
  8
0
 10
90.855
 20
62.2944
 11
90.7853
 21
62.4879
  0
LINE
  8
0
 10
90.7853
 20
62.4879
 11
90.7279
 21
62.6855
  0
LINE
  8
0
 10
90.7279
 20
62.6855
 11
90.683
 21
62.8863
  0
LINE
  8
0
 10
90.683
 20
62.8863
 11
90.6508
 21
63.0895
  0
LINE
  8
0
 10
90.6508
 20
63.0895
 11
90.6315
 21
63.2943
  0
LINE
  8
0
 10
90.6315
 20
63.2943
 11
90.625
 21
63.5
  0
LINE
  8
0
 10
90.625
 20
63.5
 11
90.6315
 21
63.7056
  0
LINE
  8
0
 10
90.6315
 20
63.7056
 11
90.6508
 21
63.9104
  0
LINE
  8
0
 10
90.6508
 20
63.9104
 11
90.683
 21
64.1137
  0
LINE
  8
0
 10
90.683
 20
64.1137
 11
90.7279
 21
64.3144
  0
LINE
  8
0
 10
90.7279
 20
64.3144
 11
90.7853
 21
64.512
  0
LINE
  8
0
 10
90.7853
 20
64.512
 11
90.855
 21
64.7056
  0
LINE
  8
0
 10
90.855
 20
64.7056
 11
90.9367
 21
64.8944
  0
LINE
  8
0
 10
90.9367
 20
64.8944
 11
91.0301
 21
65.0777
  0
LINE
  8
0
 10
91.0301
 20
65.0777
 11
91.1348
 21
65.2548
  0
LINE
  8
0
 10
91.1348
 20
65.2548
 11
91.2505
 21
65.425
  0
LINE
  8
0
 10
91.2505
 20
65.425
 11
91.3766
 21
65.5875
  0
LINE
  8
0
 10
91.3766
 20
65.5875
 11
91.5126
 21
65.7419
  0
LINE
  8
0
 10
91.5126
 20
65.7419
 11
91.6581
 21
65.8874
  0
LINE
  8
0
 10
91.6581
 20
65.8874
 11
91.8124
 21
66.0234
  0
LINE
  8
0
 10
91.8124
 20
66.0234
 11
91.975
 21
66.1495
  0
LINE
  8
0
 10
91.975
 20
66.1495
 11
92.1452
 21
66.2652
  0
LINE
  8
0
 10
92.1452
 20
66.2652
 11
92.3223
 21
66.3699
  0
LINE
  8
0
 10
92.3223
 20
66.3699
 11
92.5056
 21
66.4633
  0
LINE
  8
0
 10
92.5056
 20
66.4633
 11
92.6944
 21
66.545
  0
LINE
  8
0
 10
92.6944
 20
66.545
 11
92.888
 21
66.6147
  0
LINE
  8
0
 10
92.888
 20
66.6147
 11
93.0855
 21
66.6721
  0
LINE
  8
0
 10
93.0855
 20
66.6721
 11
93.2863
 21
66.717
  0
LINE
  8
0
 10
93.2863
 20
66.717
 11
93.4895
 21
66.7492
  0
LINE
  8
0
 10
93.4895
 20
66.7492
 11
93.6944
 21
66.7685
  0
LINE
  8
0
 10
93.6944
 20
66.7685
 11
93.9
 21
66.775
  0
LINE
  8
0
 10
93.9
 20
66.775
 11
94.1056
 21
66.7685
  0
LINE
  8
0
 10
94.1056
 20
66.7685
 11
94.3105
 21
66.7492
  0
LINE
  8
0
 10
94.3105
 20
66.7492
 11
94.5137
 21
66.717
  0
LINE
  8
0
 10
94.5137
 20
66.717
 11
94.7144
 21
66.6721
  0
LINE
  8
0
 10
94.7144
 20
66.6721
 11
94.912
 21
66.6147
  0
LINE
  8
0
 10
94.912
 20
66.6147
 11
95.1056
 21
66.545
  0
LINE
  8
0
 10
95.1056
 20
66.545
 11
95.2944
 21
66.4633
  0
LINE
  8
0
 10
95.2944
 20
66.4633
 11
95.4777
 21
66.3699
  0
LINE
  8
0
 10
95.4777
 20
66.3699
 11
95.6548
 21
66.2652
  0
LINE
  8
0
 10
95.6548
 20
66.2652
 11
95.825
 21
66.1495
  0
LINE
  8
0
 10
95.825
 20
66.1495
 11
95.9875
 21
66.0234
  0
LINE
  8
0
 10
95.9875
 20
66.0234
 11
96.1419
 21
65.8874
  0
LINE
  8
0
 10
96.1419
 20
65.8874
 11
96.2874
 21
65.7419
  0
LINE
  8
0
 10
96.2874
 20
65.7419
 11
96.4234
 21
65.5875
  0
LINE
  8
0
 10
96.4234
 20
65.5875
 11
96.5495
 21
65.425
  0
LINE
  8
0
 10
96.5495
 20
65.425
 11
96.6652
 21
65.2548
  0
LINE
  8
0
 10
96.6652
 20
65.2548
 11
96.7699
 21
65.0777
  0
LINE
  8
0
 10
96.7699
 20
65.0777
 11
96.8633
 21
64.8944
  0
LINE
  8
0
 10
96.8633
 20
64.8944
 11
96.945
 21
64.7056
  0
LINE
  8
0
 10
96.945
 20
64.7056
 11
97.0147
 21
64.512
  0
LINE
  8
0
 10
97.0147
 20
64.512
 11
97.0721
 21
64.3144
  0
LINE
  8
0
 10
97.0721
 20
64.3144
 11
97.117
 21
64.1137
  0
LINE
  8
0
 10
97.117
 20
64.1137
 11
97.1492
 21
63.9104
  0
LINE
  8
0
 10
97.1492
 20
63.9104
 11
97.1685
 21
63.7056
  0
LINE
  8
0
 10
97.1685
 20
63.7056
 11
97.175
 21
63.5
  0
LINE
  8
0
 10
97.175
 20
63.5
 11
97.1685
 21
63.2943
  0
LINE
  8
0
 10
97.1685
 20
63.2943
 11
97.1492
 21
63.0895
  0
LINE
  8
0
 10
97.1492
 20
63.0895
 11
97.117
 21
62.8863
  0
LINE
  8
0
 10
97.117
 20
62.8863
 11
97.0721
 21
62.6855
  0
LINE
  8
0
 10
97.0721
 20
62.6855
 11
97.0147
 21
62.4879
  0
LINE
  8
0
 10
97.0147
 20
62.4879
 11
96.945
 21
62.2944
  0
LINE
  8
0
 10
96.945
 20
62.2944
 11
96.8633
 21
62.1056
  0
LINE
  8
0
 10
96.8633
 20
62.1056
 11
96.7699
 21
61.9222
  0
LINE
  8
0
 10
96.7699
 20
61.9222
 11
96.6652
 21
61.7451
  0
LINE
  8
0
 10
96.6652
 20
61.7451
 11
96.5495
 21
61.575
  0
LINE
  8
0
 10
96.5495
 20
61.575
 11
96.4234
 21
61.4124
  0
LINE
  8
0
 10
96.4234
 20
61.4124
 11
96.2874
 21
61.2581
  0
LINE
  8
0
 10
96.2874
 20
61.2581
 11
96.1419
 21
61.1126
  0
LINE
  8
0
 10
96.1419
 20
61.1126
 11
95.9875
 21
60.9765
  0
LINE
  8
0
 10
95.9875
 20
60.9765
 11
95.825
 21
60.8504
  0
LINE
  8
0
 10
95.825
 20
60.8504
 11
95.6548
 21
60.7348
  0
LINE
  8
0
 10
95.6548
 20
60.7348
 11
95.4777
 21
60.6301
  0
LINE
  8
0
 10
95.4777
 20
60.6301
 11
95.2944
 21
60.5367
  0
LINE
  8
0
 10
95.2944
 20
60.5367
 11
95.1056
 21
60.455
  0
LINE
  8
0
 10
95.1056
 20
60.455
 11
94.912
 21
60.3853
  0
LINE
  8
0
 10
94.912
 20
60.3853
 11
94.7144
 21
60.3279
  0
LINE
  8
0
 10
94.7144
 20
60.3279
 11
94.5137
 21
60.283
  0
LINE
  8
0
 10
94.5137
 20
60.283
 11
94.3105
 21
60.2508
  0
LINE
  8
0
 10
94.3105
 20
60.2508
 11
94.1056
 21
60.2314
  0
LINE
  8
0
 10
94.1056
 20
60.2314
 11
93.9
 21
60.225
  0
LINE
  8
0
 10
93.9
 20
60.225
 11
93.6944
 21
60.2314
  0
LINE
  8
0
 10
93.6944
 20
34.8315
 11
93.4895
 21
34.8508
  0
LINE
  8
0
 10
93.4895
 20
34.8508
 11
93.2863
 21
34.883
  0
LINE
  8
0
 10
93.2863
 20
34.883
 11
93.0855
 21
34.9279
  0
LINE
  8
0
 10
93.0855
 20
34.9279
 11
92.888
 21
34.9853
  0
LINE
  8
0
 10
92.888
 20
34.9853
 11
92.6944
 21
35.055
  0
LINE
  8
0
 10
92.6944
 20
35.055
 11
92.5056
 21
35.1367
  0
LINE
  8
0
 10
92.5056
 20
35.1367
 11
92.3223
 21
35.2301
  0
LINE
  8
0
 10
92.3223
 20
35.2301
 11
92.1452
 21
35.3348
  0
LINE
  8
0
 10
92.1452
 20
35.3348
 11
91.975
 21
35.4505
  0
LINE
  8
0
 10
91.975
 20
35.4505
 11
91.8124
 21
35.5766
  0
LINE
  8
0
 10
91.8124
 20
35.5766
 11
91.6581
 21
35.7126
  0
LINE
  8
0
 10
91.6581
 20
35.7126
 11
91.5126
 21
35.8581
  0
LINE
  8
0
 10
91.5126
 20
35.8581
 11
91.3766
 21
36.0124
  0
LINE
  8
0
 10
91.3766
 20
36.0124
 11
91.2505
 21
36.175
  0
LINE
  8
0
 10
91.2505
 20
36.175
 11
91.1348
 21
36.3452
  0
LINE
  8
0
 10
91.1348
 20
36.3452
 11
91.0301
 21
36.5223
  0
LINE
  8
0
 10
91.0301
 20
36.5223
 11
90.9367
 21
36.7056
  0
LINE
  8
0
 10
90.9367
 20
36.7056
 11
90.855
 21
36.8944
  0
LINE
  8
0
 10
90.855
 20
36.8944
 11
90.7853
 21
37.088
  0
LINE
  8
0
 10
90.7853
 20
37.088
 11
90.7279
 21
37.2855
  0
LINE
  8
0
 10
90.7279
 20
37.2855
 11
90.683
 21
37.4863
  0
LINE
  8
0
 10
90.683
 20
37.4863
 11
90.6508
 21
37.6895
  0
LINE
  8
0
 10
90.6508
 20
37.6895
 11
90.6315
 21
37.8944
  0
LINE
  8
0
 10
90.6315
 20
37.8944
 11
90.625
 21
38.1
  0
LINE
  8
0
 10
90.625
 20
38.1
 11
90.6315
 21
38.3056
  0
LINE
  8
0
 10
90.6315
 20
38.3056
 11
90.6508
 21
38.5105
  0
LINE
  8
0
 10
90.6508
 20
38.5105
 11
90.683
 21
38.7137
  0
LINE
  8
0
 10
90.683
 20
38.7137
 11
90.7279
 21
38.9144
  0
LINE
  8
0
 10
90.7279
 20
38.9144
 11
90.7853
 21
39.112
  0
LINE
  8
0
 10
90.7853
 20
39.112
 11
90.855
 21
39.3056
  0
LINE
  8
0
 10
90.855
 20
39.3056
 11
90.9367
 21
39.4944
  0
LINE
  8
0
 10
90.9367
 20
39.4944
 11
91.0301
 21
39.6777
  0
LINE
  8
0
 10
91.0301
 20
39.6777
 11
91.1348
 21
39.8548
  0
LINE
  8
0
 10
91.1348
 20
39.8548
 11
91.2505
 21
40.025
  0
LINE
  8
0
 10
91.2505
 20
40.025
 11
91.3766
 21
40.1875
  0
LINE
  8
0
 10
91.3766
 20
40.1875
 11
91.5126
 21
40.3419
  0
LINE
  8
0
 10
91.5126
 20
40.3419
 11
91.6581
 21
40.4874
  0
LINE
  8
0
 10
91.6581
 20
40.4874
 11
91.8124
 21
40.6234
  0
LINE
  8
0
 10
91.8124
 20
40.6234
 11
91.975
 21
40.7495
  0
LINE
  8
0
 10
91.975
 20
40.7495
 11
92.1452
 21
40.8652
  0
LINE
  8
0
 10
92.1452
 20
40.8652
 11
92.3223
 21
40.9699
  0
LINE
  8
0
 10
92.3223
 20
40.9699
 11
92.5056
 21
41.0633
  0
LINE
  8
0
 10
92.5056
 20
41.0633
 11
92.6944
 21
41.145
  0
LINE
  8
0
 10
92.6944
 20
41.145
 11
92.888
 21
41.2147
  0
LINE
  8
0
 10
92.888
 20
41.2147
 11
93.0855
 21
41.2721
  0
LINE
  8
0
 10
93.0855
 20
41.2721
 11
93.2863
 21
41.317
  0
LINE
  8
0
 10
93.2863
 20
41.317
 11
93.4895
 21
41.3492
  0
LINE
  8
0
 10
93.4895
 20
41.3492
 11
93.6944
 21
41.3685
  0
LINE
  8
0
 10
93.6944
 20
41.3685
 11
93.9
 21
41.375
  0
LINE
  8
0
 10
93.9
 20
41.375
 11
94.1056
 21
41.3685
  0
LINE
  8
0
 10
94.1056
 20
41.3685
 11
94.3105
 21
41.3492
  0
LINE
  8
0
 10
94.3105
 20
41.3492
 11
94.5137
 21
41.317
  0
LINE
  8
0
 10
94.5137
 20
41.317
 11
94.7144
 21
41.2721
  0
LINE
  8
0
 10
94.7144
 20
41.2721
 11
94.912
 21
41.2147
  0
LINE
  8
0
 10
94.912
 20
41.2147
 11
95.1056
 21
41.145
  0
LINE
  8
0
 10
95.1056
 20
41.145
 11
95.2944
 21
41.0633
  0
LINE
  8
0
 10
95.2944
 20
41.0633
 11
95.4777
 21
40.9699
  0
LINE
  8
0
 10
95.4777
 20
40.9699
 11
95.6548
 21
40.8652
  0
LINE
  8
0
 10
95.6548
 20
40.8652
 11
95.825
 21
40.7495
  0
LINE
  8
0
 10
95.825
 20
40.7495
 11
95.9875
 21
40.6234
  0
LINE
  8
0
 10
95.9875
 20
40.6234
 11
96.1419
 21
40.4874
  0
LINE
  8
0
 10
96.1419
 20
40.4874
 11
96.2874
 21
40.3419
  0
LINE
  8
0
 10
96.2874
 20
40.3419
 11
96.4234
 21
40.1875
  0
LINE
  8
0
 10
96.4234
 20
40.1875
 11
96.5495
 21
40.025
  0
LINE
  8
0
 10
96.5495
 20
40.025
 11
96.6652
 21
39.8548
  0
LINE
  8
0
 10
96.6652
 20
39.8548
 11
96.7699
 21
39.6777
  0
LINE
  8
0
 10
96.7699
 20
39.6777
 11
96.8633
 21
39.4944
  0
LINE
  8
0
 10
96.8633
 20
39.4944
 11
96.945
 21
39.3056
  0
LINE
  8
0
 10
96.945
 20
39.3056
 11
97.0147
 21
39.112
  0
LINE
  8
0
 10
97.0147
 20
39.112
 11
97.0721
 21
38.9144
  0
LINE
  8
0
 10
97.0721
 20
38.9144
 11
97.117
 21
38.7137
  0
LINE
  8
0
 10
97.117
 20
38.7137
 11
97.1492
 21
38.5105
  0
LINE
  8
0
 10
97.1492
 20
38.5105
 11
97.1685
 21
38.3056
  0
LINE
  8
0
 10
97.1685
 20
38.3056
 11
97.175
 21
38.1
  0
LINE
  8
0
 10
97.175
 20
38.1
 11
97.1685
 21
37.8944
  0
LINE
  8
0
 10
97.1685
 20
37.8944
 11
97.1492
 21
37.6895
  0
LINE
  8
0
 10
97.1492
 20
37.6895
 11
97.117
 21
37.4863
  0
LINE
  8
0
 10
97.117
 20
37.4863
 11
97.0721
 21
37.2855
  0
LINE
  8
0
 10
97.0721
 20
37.2855
 11
97.0147
 21
37.088
  0
LINE
  8
0
 10
97.0147
 20
37.088
 11
96.945
 21
36.8944
  0
LINE
  8
0
 10
96.945
 20
36.8944
 11
96.8633
 21
36.7056
  0
LINE
  8
0
 10
96.8633
 20
36.7056
 11
96.7699
 21
36.5223
  0
LINE
  8
0
 10
96.7699
 20
36.5223
 11
96.6652
 21
36.3452
  0
LINE
  8
0
 10
96.6652
 20
36.3452
 11
96.5495
 21
36.175
  0
LINE
  8
0
 10
96.5495
 20
36.175
 11
96.4234
 21
36.0124
  0
LINE
  8
0
 10
96.4234
 20
36.0124
 11
96.2874
 21
35.8581
  0
LINE
  8
0
 10
96.2874
 20
35.8581
 11
96.1419
 21
35.7126
  0
LINE
  8
0
 10
96.1419
 20
35.7126
 11
95.9875
 21
35.5766
  0
LINE
  8
0
 10
95.9875
 20
35.5766
 11
95.825
 21
35.4505
  0
LINE
  8
0
 10
95.825
 20
35.4505
 11
95.6548
 21
35.3348
  0
LINE
  8
0
 10
95.6548
 20
35.3348
 11
95.4777
 21
35.2301
  0
LINE
  8
0
 10
95.4777
 20
35.2301
 11
95.2944
 21
35.1367
  0
LINE
  8
0
 10
95.2944
 20
35.1367
 11
95.1056
 21
35.055
  0
LINE
  8
0
 10
95.1056
 20
35.055
 11
94.912
 21
34.9853
  0
LINE
  8
0
 10
94.912
 20
34.9853
 11
94.7144
 21
34.9279
  0
LINE
  8
0
 10
94.7144
 20
34.9279
 11
94.5137
 21
34.883
  0
LINE
  8
0
 10
94.5137
 20
34.883
 11
94.3105
 21
34.8508
  0
LINE
  8
0
 10
94.3105
 20
34.8508
 11
94.1056
 21
34.8315
  0
LINE
  8
0
 10
94.1056
 20
34.8315
 11
93.9
 21
34.825
  0
LINE
  8
0
 10
93.9
 20
34.825
 11
93.6944
 21
34.8315
  0
LINE
  8
0
 10
144.494
 20
9.43147
 11
144.29
 21
9.45084
  0
LINE
  8
0
 10
144.29
 20
9.45084
 11
144.086
 21
9.48302
  0
LINE
  8
0
 10
144.086
 20
9.48302
 11
143.886
 21
9.52789
  0
LINE
  8
0
 10
143.886
 20
9.52789
 11
143.688
 21
9.5853
  0
LINE
  8
0
 10
143.688
 20
9.5853
 11
143.494
 21
9.65498
  0
LINE
  8
0
 10
143.494
 20
9.65498
 11
143.306
 21
9.73669
  0
LINE
  8
0
 10
143.306
 20
9.73669
 11
143.122
 21
9.83009
  0
LINE
  8
0
 10
143.122
 20
9.83009
 11
142.945
 21
9.93483
  0
LINE
  8
0
 10
142.945
 20
9.93483
 11
142.775
 21
10.0505
  0
LINE
  8
0
 10
142.775
 20
10.0505
 11
142.612
 21
10.1766
  0
LINE
  8
0
 10
142.612
 20
10.1766
 11
142.458
 21
10.3126
  0
LINE
  8
0
 10
142.458
 20
10.3126
 11
142.313
 21
10.4581
  0
LINE
  8
0
 10
142.313
 20
10.4581
 11
142.177
 21
10.6124
  0
LINE
  8
0
 10
142.177
 20
10.6124
 11
142.05
 21
10.775
  0
LINE
  8
0
 10
142.05
 20
10.775
 11
141.935
 21
10.9452
  0
LINE
  8
0
 10
141.935
 20
10.9452
 11
141.83
 21
11.1223
  0
LINE
  8
0
 10
141.83
 20
11.1223
 11
141.737
 21
11.3056
  0
LINE
  8
0
 10
141.737
 20
11.3056
 11
141.655
 21
11.4944
  0
LINE
  8
0
 10
141.655
 20
11.4944
 11
141.585
 21
11.688
  0
LINE
  8
0
 10
141.585
 20
11.688
 11
141.528
 21
11.8855
  0
LINE
  8
0
 10
141.528
 20
11.8855
 11
141.483
 21
12.0863
  0
LINE
  8
0
 10
141.483
 20
12.0863
 11
141.451
 21
12.2895
  0
LINE
  8
0
 10
141.451
 20
12.2895
 11
141.431
 21
12.4944
  0
LINE
  8
0
 10
141.431
 20
12.4944
 11
141.425
 21
12.7
  0
LINE
  8
0
 10
141.425
 20
12.7
 11
141.431
 21
12.9056
  0
LINE
  8
0
 10
141.431
 20
12.9056
 11
141.451
 21
13.1105
  0
LINE
  8
0
 10
141.451
 20
13.1105
 11
141.483
 21
13.3137
  0
LINE
  8
0
 10
141.483
 20
13.3137
 11
141.528
 21
13.5145
  0
LINE
  8
0
 10
141.528
 20
13.5145
 11
141.585
 21
13.712
  0
LINE
  8
0
 10
141.585
 20
13.712
 11
141.655
 21
13.9056
  0
LINE
  8
0
 10
141.655
 20
13.9056
 11
141.737
 21
14.0944
  0
LINE
  8
0
 10
141.737
 20
14.0944
 11
141.83
 21
14.2777
  0
LINE
  8
0
 10
141.83
 20
14.2777
 11
141.935
 21
14.4548
  0
LINE
  8
0
 10
141.935
 20
14.4548
 11
142.05
 21
14.625
  0
LINE
  8
0
 10
142.05
 20
14.625
 11
142.177
 21
14.7876
  0
LINE
  8
0
 10
142.177
 20
14.7876
 11
142.313
 21
14.9419
  0
LINE
  8
0
 10
142.313
 20
14.9419
 11
142.458
 21
15.0874
  0
LINE
  8
0
 10
142.458
 20
15.0874
 11
142.612
 21
15.2234
  0
LINE
  8
0
 10
142.612
 20
15.2234
 11
142.775
 21
15.3495
  0
LINE
  8
0
 10
142.775
 20
15.3495
 11
142.945
 21
15.4652
  0
LINE
  8
0
 10
142.945
 20
15.4652
 11
143.122
 21
15.5699
  0
LINE
  8
0
 10
143.122
 20
15.5699
 11
143.306
 21
15.6633
  0
LINE
  8
0
 10
143.306
 20
15.6633
 11
143.494
 21
15.745
  0
LINE
  8
0
 10
143.494
 20
15.745
 11
143.688
 21
15.8147
  0
LINE
  8
0
 10
143.688
 20
15.8147
 11
143.886
 21
15.8721
  0
LINE
  8
0
 10
143.886
 20
15.8721
 11
144.086
 21
15.917
  0
LINE
  8
0
 10
144.086
 20
15.917
 11
144.29
 21
15.9492
  0
LINE
  8
0
 10
144.29
 20
15.9492
 11
144.494
 21
15.9685
  0
LINE
  8
0
 10
144.494
 20
15.9685
 11
144.7
 21
15.975
  0
LINE
  8
0
 10
144.7
 20
15.975
 11
144.906
 21
15.9685
  0
LINE
  8
0
 10
144.906
 20
15.9685
 11
145.11
 21
15.9492
  0
LINE
  8
0
 10
145.11
 20
15.9492
 11
145.314
 21
15.917
  0
LINE
  8
0
 10
145.314
 20
15.917
 11
145.514
 21
15.8721
  0
LINE
  8
0
 10
145.514
 20
15.8721
 11
145.712
 21
15.8147
  0
LINE
  8
0
 10
145.712
 20
15.8147
 11
145.906
 21
15.745
  0
LINE
  8
0
 10
145.906
 20
15.745
 11
146.094
 21
15.6633
  0
LINE
  8
0
 10
146.094
 20
15.6633
 11
146.278
 21
15.5699
  0
LINE
  8
0
 10
146.278
 20
15.5699
 11
146.455
 21
15.4652
  0
LINE
  8
0
 10
146.455
 20
15.4652
 11
146.625
 21
15.3495
  0
LINE
  8
0
 10
146.625
 20
15.3495
 11
146.788
 21
15.2234
  0
LINE
  8
0
 10
146.788
 20
15.2234
 11
146.942
 21
15.0874
  0
LINE
  8
0
 10
146.942
 20
15.0874
 11
147.087
 21
14.9419
  0
LINE
  8
0
 10
147.087
 20
14.9419
 11
147.223
 21
14.7876
  0
LINE
  8
0
 10
147.223
 20
14.7876
 11
147.35
 21
14.625
  0
LINE
  8
0
 10
147.35
 20
14.625
 11
147.465
 21
14.4548
  0
LINE
  8
0
 10
147.465
 20
14.4548
 11
147.57
 21
14.2777
  0
LINE
  8
0
 10
147.57
 20
14.2777
 11
147.663
 21
14.0944
  0
LINE
  8
0
 10
147.663
 20
14.0944
 11
147.745
 21
13.9056
  0
LINE
  8
0
 10
147.745
 20
13.9056
 11
147.815
 21
13.712
  0
LINE
  8
0
 10
147.815
 20
13.712
 11
147.872
 21
13.5145
  0
LINE
  8
0
 10
147.872
 20
13.5145
 11
147.917
 21
13.3137
  0
LINE
  8
0
 10
147.917
 20
13.3137
 11
147.949
 21
13.1105
  0
LINE
  8
0
 10
147.949
 20
13.1105
 11
147.969
 21
12.9056
  0
LINE
  8
0
 10
147.969
 20
12.9056
 11
147.975
 21
12.7
  0
LINE
  8
0
 10
147.975
 20
12.7
 11
147.969
 21
12.4944
  0
LINE
  8
0
 10
147.969
 20
12.4944
 11
147.949
 21
12.2895
  0
LINE
  8
0
 10
147.949
 20
12.2895
 11
147.917
 21
12.0863
  0
LINE
  8
0
 10
147.917
 20
12.0863
 11
147.872
 21
11.8855
  0
LINE
  8
0
 10
147.872
 20
11.8855
 11
147.815
 21
11.688
  0
LINE
  8
0
 10
147.815
 20
11.688
 11
147.745
 21
11.4944
  0
LINE
  8
0
 10
147.745
 20
11.4944
 11
147.663
 21
11.3056
  0
LINE
  8
0
 10
147.663
 20
11.3056
 11
147.57
 21
11.1223
  0
LINE
  8
0
 10
147.57
 20
11.1223
 11
147.465
 21
10.9452
  0
LINE
  8
0
 10
147.465
 20
10.9452
 11
147.35
 21
10.775
  0
LINE
  8
0
 10
147.35
 20
10.775
 11
147.223
 21
10.6124
  0
LINE
  8
0
 10
147.223
 20
10.6124
 11
147.087
 21
10.4581
  0
LINE
  8
0
 10
147.087
 20
10.4581
 11
146.942
 21
10.3126
  0
LINE
  8
0
 10
146.942
 20
10.3126
 11
146.788
 21
10.1766
  0
LINE
  8
0
 10
146.788
 20
10.1766
 11
146.625
 21
10.0505
  0
LINE
  8
0
 10
146.625
 20
10.0505
 11
146.455
 21
9.93483
  0
LINE
  8
0
 10
146.455
 20
9.93483
 11
146.278
 21
9.83009
  0
LINE
  8
0
 10
146.278
 20
9.83009
 11
146.094
 21
9.73669
  0
LINE
  8
0
 10
146.094
 20
9.73669
 11
145.906
 21
9.65498
  0
LINE
  8
0
 10
145.906
 20
9.65498
 11
145.712
 21
9.5853
  0
LINE
  8
0
 10
145.712
 20
9.5853
 11
145.514
 21
9.52789
  0
LINE
  8
0
 10
145.514
 20
9.52789
 11
145.314
 21
9.48302
  0
LINE
  8
0
 10
145.314
 20
9.48302
 11
145.11
 21
9.45084
  0
LINE
  8
0
 10
145.11
 20
9.45084
 11
144.906
 21
9.43147
  0
LINE
  8
0
 10
144.906
 20
9.43147
 11
144.7
 21
9.425
  0
LINE
  8
0
 10
144.7
 20
9.425
 11
144.494
 21
9.43147
  0
LINE
  8
0
 10
119.094
 20
9.43147
 11
118.89
 21
9.45084
  0
LINE
  8
0
 10
118.89
 20
9.45084
 11
118.686
 21
9.48302
  0
LINE
  8
0
 10
118.686
 20
9.48302
 11
118.486
 21
9.52789
  0
LINE
  8
0
 10
118.486
 20
9.52789
 11
118.288
 21
9.5853
  0
LINE
  8
0
 10
118.288
 20
9.5853
 11
118.094
 21
9.65498
  0
LINE
  8
0
 10
118.094
 20
9.65498
 11
117.906
 21
9.73669
  0
LINE
  8
0
 10
117.906
 20
9.73669
 11
117.722
 21
9.83009
  0
LINE
  8
0
 10
117.722
 20
9.83009
 11
117.545
 21
9.93483
  0
LINE
  8
0
 10
117.545
 20
9.93483
 11
117.375
 21
10.0505
  0
LINE
  8
0
 10
117.375
 20
10.0505
 11
117.212
 21
10.1766
  0
LINE
  8
0
 10
117.212
 20
10.1766
 11
117.058
 21
10.3126
  0
LINE
  8
0
 10
117.058
 20
10.3126
 11
116.913
 21
10.4581
  0
LINE
  8
0
 10
116.913
 20
10.4581
 11
116.777
 21
10.6124
  0
LINE
  8
0
 10
116.777
 20
10.6124
 11
116.65
 21
10.775
  0
LINE
  8
0
 10
116.65
 20
10.775
 11
116.535
 21
10.9452
  0
LINE
  8
0
 10
116.535
 20
10.9452
 11
116.43
 21
11.1223
  0
LINE
  8
0
 10
116.43
 20
11.1223
 11
116.337
 21
11.3056
  0
LINE
  8
0
 10
116.337
 20
11.3056
 11
116.255
 21
11.4944
  0
LINE
  8
0
 10
116.255
 20
11.4944
 11
116.185
 21
11.688
  0
LINE
  8
0
 10
116.185
 20
11.688
 11
116.128
 21
11.8855
  0
LINE
  8
0
 10
116.128
 20
11.8855
 11
116.083
 21
12.0863
  0
LINE
  8
0
 10
116.083
 20
12.0863
 11
116.051
 21
12.2895
  0
LINE
  8
0
 10
116.051
 20
12.2895
 11
116.031
 21
12.4944
  0
LINE
  8
0
 10
116.031
 20
12.4944
 11
116.025
 21
12.7
  0
LINE
  8
0
 10
116.025
 20
12.7
 11
116.031
 21
12.9056
  0
LINE
  8
0
 10
116.031
 20
12.9056
 11
116.051
 21
13.1105
  0
LINE
  8
0
 10
116.051
 20
13.1105
 11
116.083
 21
13.3137
  0
LINE
  8
0
 10
116.083
 20
13.3137
 11
116.128
 21
13.5145
  0
LINE
  8
0
 10
116.128
 20
13.5145
 11
116.185
 21
13.712
  0
LINE
  8
0
 10
116.185
 20
13.712
 11
116.255
 21
13.9056
  0
LINE
  8
0
 10
116.255
 20
13.9056
 11
116.337
 21
14.0944
  0
LINE
  8
0
 10
116.337
 20
14.0944
 11
116.43
 21
14.2777
  0
LINE
  8
0
 10
116.43
 20
14.2777
 11
116.535
 21
14.4548
  0
LINE
  8
0
 10
116.535
 20
14.4548
 11
116.65
 21
14.625
  0
LINE
  8
0
 10
116.65
 20
14.625
 11
116.777
 21
14.7876
  0
LINE
  8
0
 10
116.777
 20
14.7876
 11
116.913
 21
14.9419
  0
LINE
  8
0
 10
116.913
 20
14.9419
 11
117.058
 21
15.0874
  0
LINE
  8
0
 10
117.058
 20
15.0874
 11
117.212
 21
15.2234
  0
LINE
  8
0
 10
117.212
 20
15.2234
 11
117.375
 21
15.3495
  0
LINE
  8
0
 10
117.375
 20
15.3495
 11
117.545
 21
15.4652
  0
LINE
  8
0
 10
117.545
 20
15.4652
 11
117.722
 21
15.5699
  0
LINE
  8
0
 10
117.722
 20
15.5699
 11
117.906
 21
15.6633
  0
LINE
  8
0
 10
117.906
 20
15.6633
 11
118.094
 21
15.745
  0
LINE
  8
0
 10
118.094
 20
15.745
 11
118.288
 21
15.8147
  0
LINE
  8
0
 10
118.288
 20
15.8147
 11
118.486
 21
15.8721
  0
LINE
  8
0
 10
118.486
 20
15.8721
 11
118.686
 21
15.917
  0
LINE
  8
0
 10
118.686
 20
15.917
 11
118.89
 21
15.9492
  0
LINE
  8
0
 10
118.89
 20
15.9492
 11
119.094
 21
15.9685
  0
LINE
  8
0
 10
119.094
 20
15.9685
 11
119.3
 21
15.975
  0
LINE
  8
0
 10
119.3
 20
15.975
 11
119.506
 21
15.9685
  0
LINE
  8
0
 10
119.506
 20
15.9685
 11
119.71
 21
15.9492
  0
LINE
  8
0
 10
119.71
 20
15.9492
 11
119.914
 21
15.917
  0
LINE
  8
0
 10
119.914
 20
15.917
 11
120.114
 21
15.8721
  0
LINE
  8
0
 10
120.114
 20
15.8721
 11
120.312
 21
15.8147
  0
LINE
  8
0
 10
120.312
 20
15.8147
 11
120.506
 21
15.745
  0
LINE
  8
0
 10
120.506
 20
15.745
 11
120.694
 21
15.6633
  0
LINE
  8
0
 10
120.694
 20
15.6633
 11
120.878
 21
15.5699
  0
LINE
  8
0
 10
120.878
 20
15.5699
 11
121.055
 21
15.4652
  0
LINE
  8
0
 10
121.055
 20
15.4652
 11
121.225
 21
15.3495
  0
LINE
  8
0
 10
121.225
 20
15.3495
 11
121.388
 21
15.2234
  0
LINE
  8
0
 10
121.388
 20
15.2234
 11
121.542
 21
15.0874
  0
LINE
  8
0
 10
121.542
 20
15.0874
 11
121.687
 21
14.9419
  0
LINE
  8
0
 10
121.687
 20
14.9419
 11
121.823
 21
14.7876
  0
LINE
  8
0
 10
121.823
 20
14.7876
 11
121.95
 21
14.625
  0
LINE
  8
0
 10
121.95
 20
14.625
 11
122.065
 21
14.4548
  0
LINE
  8
0
 10
122.065
 20
14.4548
 11
122.17
 21
14.2777
  0
LINE
  8
0
 10
122.17
 20
14.2777
 11
122.263
 21
14.0944
  0
LINE
  8
0
 10
122.263
 20
14.0944
 11
122.345
 21
13.9056
  0
LINE
  8
0
 10
122.345
 20
13.9056
 11
122.415
 21
13.712
  0
LINE
  8
0
 10
122.415
 20
13.712
 11
122.472
 21
13.5145
  0
LINE
  8
0
 10
122.472
 20
13.5145
 11
122.517
 21
13.3137
  0
LINE
  8
0
 10
122.517
 20
13.3137
 11
122.549
 21
13.1105
  0
LINE
  8
0
 10
122.549
 20
13.1105
 11
122.569
 21
12.9056
  0
LINE
  8
0
 10
122.569
 20
12.9056
 11
122.575
 21
12.7
  0
LINE
  8
0
 10
122.575
 20
12.7
 11
122.569
 21
12.4944
  0
LINE
  8
0
 10
122.569
 20
12.4944
 11
122.549
 21
12.2895
  0
LINE
  8
0
 10
122.549
 20
12.2895
 11
122.517
 21
12.0863
  0
LINE
  8
0
 10
122.517
 20
12.0863
 11
122.472
 21
11.8855
  0
LINE
  8
0
 10
122.472
 20
11.8855
 11
122.415
 21
11.688
  0
LINE
  8
0
 10
122.415
 20
11.688
 11
122.345
 21
11.4944
  0
LINE
  8
0
 10
122.345
 20
11.4944
 11
122.263
 21
11.3056
  0
LINE
  8
0
 10
122.263
 20
11.3056
 11
122.17
 21
11.1223
  0
LINE
  8
0
 10
122.17
 20
11.1223
 11
122.065
 21
10.9452
  0
LINE
  8
0
 10
122.065
 20
10.9452
 11
121.95
 21
10.775
  0
LINE
  8
0
 10
121.95
 20
10.775
 11
121.823
 21
10.6124
  0
LINE
  8
0
 10
121.823
 20
10.6124
 11
121.687
 21
10.4581
  0
LINE
  8
0
 10
121.687
 20
10.4581
 11
121.542
 21
10.3126
  0
LINE
  8
0
 10
121.542
 20
10.3126
 11
121.388
 21
10.1766
  0
LINE
  8
0
 10
121.388
 20
10.1766
 11
121.225
 21
10.0505
  0
LINE
  8
0
 10
121.225
 20
10.0505
 11
121.055
 21
9.93483
  0
LINE
  8
0
 10
121.055
 20
9.93483
 11
120.878
 21
9.83009
  0
LINE
  8
0
 10
120.878
 20
9.83009
 11
120.694
 21
9.73669
  0
LINE
  8
0
 10
120.694
 20
9.73669
 11
120.506
 21
9.65498
  0
LINE
  8
0
 10
120.506
 20
9.65498
 11
120.312
 21
9.5853
  0
LINE
  8
0
 10
120.312
 20
9.5853
 11
120.114
 21
9.52789
  0
LINE
  8
0
 10
120.114
 20
9.52789
 11
119.914
 21
9.48302
  0
LINE
  8
0
 10
119.914
 20
9.48302
 11
119.71
 21
9.45084
  0
LINE
  8
0
 10
119.71
 20
9.45084
 11
119.506
 21
9.43147
  0
LINE
  8
0
 10
119.506
 20
9.43147
 11
119.3
 21
9.425
  0
LINE
  8
0
 10
119.3
 20
9.425
 11
119.094
 21
9.43147
  0
LINE
  8
0
 10
93.6944
 20
9.43147
 11
93.4895
 21
9.45084
  0
LINE
  8
0
 10
93.4895
 20
9.45084
 11
93.2863
 21
9.48302
  0
LINE
  8
0
 10
93.2863
 20
9.48302
 11
93.0855
 21
9.52791
  0
LINE
  8
0
 10
93.0855
 20
9.52791
 11
92.888
 21
9.5853
  0
LINE
  8
0
 10
92.888
 20
9.5853
 11
92.6944
 21
9.655
  0
LINE
  8
0
 10
92.6944
 20
9.655
 11
92.5056
 21
9.73671
  0
LINE
  8
0
 10
92.5056
 20
9.73671
 11
92.3223
 21
9.83011
  0
LINE
  8
0
 10
92.3223
 20
9.83011
 11
92.1452
 21
9.93484
  0
LINE
  8
0
 10
92.1452
 20
9.93484
 11
91.975
 21
10.0505
  0
LINE
  8
0
 10
91.975
 20
10.0505
 11
91.8124
 21
10.1766
  0
LINE
  8
0
 10
91.8124
 20
10.1766
 11
91.6581
 21
10.3126
  0
LINE
  8
0
 10
91.6581
 20
10.3126
 11
91.5126
 21
10.4581
  0
LINE
  8
0
 10
91.5126
 20
10.4581
 11
91.3766
 21
10.6125
  0
LINE
  8
0
 10
91.3766
 20
10.6125
 11
91.2505
 21
10.775
  0
LINE
  8
0
 10
91.2505
 20
10.775
 11
91.1348
 21
10.9452
  0
LINE
  8
0
 10
91.1348
 20
10.9452
 11
91.0301
 21
11.1223
  0
LINE
  8
0
 10
91.0301
 20
11.1223
 11
90.9367
 21
11.3056
  0
LINE
  8
0
 10
90.9367
 20
11.3056
 11
90.855
 21
11.4944
  0
LINE
  8
0
 10
90.855
 20
11.4944
 11
90.7853
 21
11.688
  0
LINE
  8
0
 10
90.7853
 20
11.688
 11
90.7279
 21
11.8856
  0
LINE
  8
0
 10
90.7279
 20
11.8856
 11
90.683
 21
12.0863
  0
LINE
  8
0
 10
90.683
 20
12.0863
 11
90.6508
 21
12.2896
  0
LINE
  8
0
 10
90.6508
 20
12.2896
 11
90.6315
 21
12.4944
  0
LINE
  8
0
 10
90.6315
 20
12.4944
 11
90.625
 21
12.7
  0
LINE
  8
0
 10
90.625
 20
12.7
 11
90.6315
 21
12.9056
  0
LINE
  8
0
 10
90.6315
 20
12.9056
 11
90.6508
 21
13.1105
  0
LINE
  8
0
 10
90.6508
 20
13.1105
 11
90.683
 21
13.3137
  0
LINE
  8
0
 10
90.683
 20
13.3137
 11
90.7279
 21
13.5145
  0
LINE
  8
0
 10
90.7279
 20
13.5145
 11
90.7853
 21
13.712
  0
LINE
  8
0
 10
90.7853
 20
13.712
 11
90.855
 21
13.9056
  0
LINE
  8
0
 10
90.855
 20
13.9056
 11
90.9367
 21
14.0944
  0
LINE
  8
0
 10
90.9367
 20
14.0944
 11
91.0301
 21
14.2777
  0
LINE
  8
0
 10
91.0301
 20
14.2777
 11
91.1348
 21
14.4548
  0
LINE
  8
0
 10
91.1348
 20
14.4548
 11
91.2505
 21
14.625
  0
LINE
  8
0
 10
91.2505
 20
14.625
 11
91.3766
 21
14.7876
  0
LINE
  8
0
 10
91.3766
 20
14.7876
 11
91.5126
 21
14.9419
  0
LINE
  8
0
 10
91.5126
 20
14.9419
 11
91.6581
 21
15.0874
  0
LINE
  8
0
 10
91.6581
 20
15.0874
 11
91.8124
 21
15.2234
  0
LINE
  8
0
 10
91.8124
 20
15.2234
 11
91.975
 21
15.3495
  0
LINE
  8
0
 10
91.975
 20
15.3495
 11
92.1452
 21
15.4652
  0
LINE
  8
0
 10
92.1452
 20
15.4652
 11
92.3223
 21
15.5699
  0
LINE
  8
0
 10
92.3223
 20
15.5699
 11
92.5056
 21
15.6633
  0
LINE
  8
0
 10
92.5056
 20
15.6633
 11
92.6944
 21
15.745
  0
LINE
  8
0
 10
92.6944
 20
15.745
 11
92.888
 21
15.8147
  0
LINE
  8
0
 10
92.888
 20
15.8147
 11
93.0855
 21
15.8721
  0
LINE
  8
0
 10
93.0855
 20
15.8721
 11
93.2863
 21
15.917
  0
LINE
  8
0
 10
93.2863
 20
15.917
 11
93.4895
 21
15.9492
  0
LINE
  8
0
 10
93.4895
 20
15.9492
 11
93.6944
 21
15.9685
  0
LINE
  8
0
 10
93.6944
 20
15.9685
 11
93.9
 21
15.975
  0
LINE
  8
0
 10
93.9
 20
15.975
 11
94.1056
 21
15.9685
  0
LINE
  8
0
 10
94.1056
 20
15.9685
 11
94.3105
 21
15.9492
  0
LINE
  8
0
 10
94.3105
 20
15.9492
 11
94.5137
 21
15.917
  0
LINE
  8
0
 10
94.5137
 20
15.917
 11
94.7144
 21
15.8721
  0
LINE
  8
0
 10
94.7144
 20
15.8721
 11
94.912
 21
15.8147
  0
LINE
  8
0
 10
94.912
 20
15.8147
 11
95.1056
 21
15.745
  0
LINE
  8
0
 10
95.1056
 20
15.745
 11
95.2944
 21
15.6633
  0
LINE
  8
0
 10
95.2944
 20
15.6633
 11
95.4777
 21
15.5699
  0
LINE
  8
0
 10
95.4777
 20
15.5699
 11
95.6548
 21
15.4652
  0
LINE
  8
0
 10
95.6548
 20
15.4652
 11
95.825
 21
15.3495
  0
LINE
  8
0
 10
95.825
 20
15.3495
 11
95.9876
 21
15.2234
  0
LINE
  8
0
 10
95.9876
 20
15.2234
 11
96.1419
 21
15.0874
  0
LINE
  8
0
 10
96.1419
 20
15.0874
 11
96.2874
 21
14.9419
  0
LINE
  8
0
 10
96.2874
 20
14.9419
 11
96.4234
 21
14.7876
  0
LINE
  8
0
 10
96.4234
 20
14.7876
 11
96.5495
 21
14.625
  0
LINE
  8
0
 10
96.5495
 20
14.625
 11
96.6652
 21
14.4548
  0
LINE
  8
0
 10
96.6652
 20
14.4548
 11
96.7699
 21
14.2777
  0
LINE
  8
0
 10
96.7699
 20
14.2777
 11
96.8633
 21
14.0944
  0
LINE
  8
0
 10
96.8633
 20
14.0944
 11
96.945
 21
13.9056
  0
LINE
  8
0
 10
96.945
 20
13.9056
 11
97.0147
 21
13.712
  0
LINE
  8
0
 10
97.0147
 20
13.712
 11
97.0721
 21
13.5145
  0
LINE
  8
0
 10
97.0721
 20
13.5145
 11
97.117
 21
13.3137
  0
LINE
  8
0
 10
97.117
 20
13.3137
 11
97.1492
 21
13.1105
  0
LINE
  8
0
 10
97.1492
 20
13.1105
 11
97.1685
 21
12.9056
  0
LINE
  8
0
 10
97.1685
 20
12.9056
 11
97.175
 21
12.7
  0
LINE
  8
0
 10
97.175
 20
12.7
 11
97.1685
 21
12.4944
  0
LINE
  8
0
 10
97.1685
 20
12.4944
 11
97.1492
 21
12.2896
  0
LINE
  8
0
 10
97.1492
 20
12.2896
 11
97.117
 21
12.0863
  0
LINE
  8
0
 10
97.117
 20
12.0863
 11
97.0721
 21
11.8856
  0
LINE
  8
0
 10
97.0721
 20
11.8856
 11
97.0147
 21
11.688
  0
LINE
  8
0
 10
97.0147
 20
11.688
 11
96.945
 21
11.4944
  0
LINE
  8
0
 10
96.945
 20
11.4944
 11
96.8633
 21
11.3056
  0
LINE
  8
0
 10
96.8633
 20
11.3056
 11
96.7699
 21
11.1223
  0
LINE
  8
0
 10
96.7699
 20
11.1223
 11
96.6652
 21
10.9452
  0
LINE
  8
0
 10
96.6652
 20
10.9452
 11
96.5495
 21
10.775
  0
LINE
  8
0
 10
96.5495
 20
10.775
 11
96.4234
 21
10.6125
  0
LINE
  8
0
 10
96.4234
 20
10.6125
 11
96.2874
 21
10.4581
  0
LINE
  8
0
 10
96.2874
 20
10.4581
 11
96.1419
 21
10.3126
  0
LINE
  8
0
 10
96.1419
 20
10.3126
 11
95.9875
 21
10.1766
  0
LINE
  8
0
 10
95.9875
 20
10.1766
 11
95.825
 21
10.0505
  0
LINE
  8
0
 10
95.825
 20
10.0505
 11
95.6548
 21
9.93484
  0
LINE
  8
0
 10
95.6548
 20
9.93484
 11
95.4777
 21
9.83011
  0
LINE
  8
0
 10
95.4777
 20
9.83011
 11
95.2944
 21
9.73671
  0
LINE
  8
0
 10
95.2944
 20
9.73671
 11
95.1056
 21
9.655
  0
LINE
  8
0
 10
95.1056
 20
9.655
 11
94.912
 21
9.5853
  0
LINE
  8
0
 10
94.912
 20
9.5853
 11
94.7144
 21
9.52791
  0
LINE
  8
0
 10
94.7144
 20
9.52791
 11
94.5137
 21
9.48302
  0
LINE
  8
0
 10
94.5137
 20
9.48302
 11
94.3105
 21
9.45084
  0
LINE
  8
0
 10
94.3105
 20
9.45084
 11
94.1056
 21
9.43147
  0
LINE
  8
0
 10
94.1056
 20
9.43147
 11
93.9
 21
9.42502
  0
LINE
  8
0
 10
93.9
 20
9.42502
 11
93.6944
 21
9.43147
  0
ENDSEC
  0
SECTION
  2
OBJECTS
  0
DICTIONARY
  0
ENDSEC
  0
EOF
