  0
SECTION
  2
BLOCKS
  0
ENDSEC
  0
SECTION
  2
ENTITIES
  0
LINE
  8
0
 10
24.5
 20
77.5
 11
2
 21
77.5
  0
LINE
  8
0
 10
2
 20
77.5
 11
24.5
 21
55
  0
LINE
  8
0
 10
24.5
 20
55
 11
24.5
 21
77.5
  0
LINE
  8
0
 10
17.1666
 20
68.1792
 11
17.0337
 21
68.1918
  0
LINE
  8
0
 10
17.0337
 20
68.1918
 11
16.9018
 21
68.2126
  0
LINE
  8
0
 10
16.9018
 20
68.2126
 11
16.7715
 21
68.2418
  0
LINE
  8
0
 10
16.7715
 20
68.2418
 11
16.6433
 21
68.279
  0
LINE
  8
0
 10
16.6433
 20
68.279
 11
16.5177
 21
68.3242
  0
LINE
  8
0
 10
16.5177
 20
68.3242
 11
16.3952
 21
68.3772
  0
LINE
  8
0
 10
16.3952
 20
68.3772
 11
16.2763
 21
68.4379
  0
LINE
  8
0
 10
16.2763
 20
68.4379
 11
16.1614
 21
68.5058
  0
LINE
  8
0
 10
16.1614
 20
68.5058
 11
16.051
 21
68.5808
  0
LINE
  8
0
 10
16.051
 20
68.5808
 11
15.9455
 21
68.6627
  0
LINE
  8
0
 10
15.9455
 20
68.6627
 11
15.8454
 21
68.7509
  0
LINE
  8
0
 10
15.8454
 20
68.7509
 11
15.7509
 21
68.8454
  0
LINE
  8
0
 10
15.7509
 20
68.8454
 11
15.6627
 21
68.9455
  0
LINE
  8
0
 10
15.6627
 20
68.9455
 11
15.5808
 21
69.051
  0
LINE
  8
0
 10
15.5808
 20
69.051
 11
15.5058
 21
69.1614
  0
LINE
  8
0
 10
15.5058
 20
69.1614
 11
15.4379
 21
69.2763
  0
LINE
  8
0
 10
15.4379
 20
69.2763
 11
15.3772
 21
69.3952
  0
LINE
  8
0
 10
15.3772
 20
69.3952
 11
15.3242
 21
69.5177
  0
LINE
  8
0
 10
15.3242
 20
69.5177
 11
15.279
 21
69.6433
  0
LINE
  8
0
 10
15.279
 20
69.6433
 11
15.2418
 21
69.7715
  0
LINE
  8
0
 10
15.2418
 20
69.7715
 11
15.2126
 21
69.9018
  0
LINE
  8
0
 10
15.2126
 20
69.9018
 11
15.1918
 21
70.0337
  0
LINE
  8
0
 10
15.1918
 20
70.0337
 11
15.1792
 21
70.1666
  0
LINE
  8
0
 10
15.1792
 20
70.1666
 11
15.175
 21
70.3
  0
LINE
  8
0
 10
15.175
 20
70.3
 11
15.1792
 21
70.4334
  0
LINE
  8
0
 10
15.1792
 20
70.4334
 11
15.1918
 21
70.5663
  0
LINE
  8
0
 10
15.1918
 20
70.5663
 11
15.2126
 21
70.6982
  0
LINE
  8
0
 10
15.2126
 20
70.6982
 11
15.2418
 21
70.8285
  0
LINE
  8
0
 10
15.2418
 20
70.8285
 11
15.279
 21
70.9567
  0
LINE
  8
0
 10
15.279
 20
70.9567
 11
15.3242
 21
71.0823
  0
LINE
  8
0
 10
15.3242
 20
71.0823
 11
15.3772
 21
71.2048
  0
LINE
  8
0
 10
15.3772
 20
71.2048
 11
15.4379
 21
71.3237
  0
LINE
  8
0
 10
15.4379
 20
71.3237
 11
15.5058
 21
71.4386
  0
LINE
  8
0
 10
15.5058
 20
71.4386
 11
15.5808
 21
71.5491
  0
LINE
  8
0
 10
15.5808
 20
71.5491
 11
15.6627
 21
71.6545
  0
LINE
  8
0
 10
15.6627
 20
71.6545
 11
15.7509
 21
71.7547
  0
LINE
  8
0
 10
15.7509
 20
71.7547
 11
15.8454
 21
71.8491
  0
LINE
  8
0
 10
15.8454
 20
71.8491
 11
15.9455
 21
71.9373
  0
LINE
  8
0
 10
15.9455
 20
71.9373
 11
16.051
 21
72.0192
  0
LINE
  8
0
 10
16.051
 20
72.0192
 11
16.1614
 21
72.0942
  0
LINE
  8
0
 10
16.1614
 20
72.0942
 11
16.2763
 21
72.1622
  0
LINE
  8
0
 10
16.2763
 20
72.1622
 11
16.3952
 21
72.2228
  0
LINE
  8
0
 10
16.3952
 20
72.2228
 11
16.5177
 21
72.2758
  0
LINE
  8
0
 10
16.5177
 20
72.2758
 11
16.6433
 21
72.321
  0
LINE
  8
0
 10
16.6433
 20
72.321
 11
16.7715
 21
72.3582
  0
LINE
  8
0
 10
16.7715
 20
72.3582
 11
16.9018
 21
72.3874
  0
LINE
  8
0
 10
16.9018
 20
72.3874
 11
17.0337
 21
72.4082
  0
LINE
  8
0
 10
17.0337
 20
72.4082
 11
17.1666
 21
72.4208
  0
LINE
  8
0
 10
17.1666
 20
72.4208
 11
17.3
 21
72.425
  0
LINE
  8
0
 10
17.3
 20
72.425
 11
17.4334
 21
72.4208
  0
LINE
  8
0
 10
17.4334
 20
72.4208
 11
17.5663
 21
72.4082
  0
LINE
  8
0
 10
17.5663
 20
72.4082
 11
17.6982
 21
72.3874
  0
LINE
  8
0
 10
17.6982
 20
72.3874
 11
17.8285
 21
72.3582
  0
LINE
  8
0
 10
17.8285
 20
72.3582
 11
17.9567
 21
72.321
  0
LINE
  8
0
 10
17.9567
 20
72.321
 11
18.0823
 21
72.2758
  0
LINE
  8
0
 10
18.0823
 20
72.2758
 11
18.2048
 21
72.2228
  0
LINE
  8
0
 10
18.2048
 20
72.2228
 11
18.3237
 21
72.1622
  0
LINE
  8
0
 10
18.3237
 20
72.1622
 11
18.4386
 21
72.0942
  0
LINE
  8
0
 10
18.4386
 20
72.0942
 11
18.5491
 21
72.0192
  0
LINE
  8
0
 10
18.5491
 20
72.0192
 11
18.6545
 21
71.9373
  0
LINE
  8
0
 10
18.6545
 20
71.9373
 11
18.7547
 21
71.8491
  0
LINE
  8
0
 10
18.7547
 20
71.8491
 11
18.8491
 21
71.7547
  0
LINE
  8
0
 10
18.8491
 20
71.7547
 11
18.9373
 21
71.6545
  0
LINE
  8
0
 10
18.9373
 20
71.6545
 11
19.0192
 21
71.5491
  0
LINE
  8
0
 10
19.0192
 20
71.5491
 11
19.0942
 21
71.4386
  0
LINE
  8
0
 10
19.0942
 20
71.4386
 11
19.1622
 21
71.3237
  0
LINE
  8
0
 10
19.1622
 20
71.3237
 11
19.2228
 21
71.2048
  0
LINE
  8
0
 10
19.2228
 20
71.2048
 11
19.2758
 21
71.0823
  0
LINE
  8
0
 10
19.2758
 20
71.0823
 11
19.321
 21
70.9567
  0
LINE
  8
0
 10
19.321
 20
70.9567
 11
19.3582
 21
70.8285
  0
LINE
  8
0
 10
19.3582
 20
70.8285
 11
19.3874
 21
70.6982
  0
LINE
  8
0
 10
19.3874
 20
70.6982
 11
19.4082
 21
70.5663
  0
LINE
  8
0
 10
19.4082
 20
70.5663
 11
19.4208
 21
70.4334
  0
LINE
  8
0
 10
19.4208
 20
70.4334
 11
19.425
 21
70.3
  0
LINE
  8
0
 10
19.425
 20
70.3
 11
19.4208
 21
70.1666
  0
LINE
  8
0
 10
19.4208
 20
70.1666
 11
19.4082
 21
70.0337
  0
LINE
  8
0
 10
19.4082
 20
70.0337
 11
19.3874
 21
69.9018
  0
LINE
  8
0
 10
19.3874
 20
69.9018
 11
19.3582
 21
69.7715
  0
LINE
  8
0
 10
19.3582
 20
69.7715
 11
19.321
 21
69.6433
  0
LINE
  8
0
 10
19.321
 20
69.6433
 11
19.2758
 21
69.5177
  0
LINE
  8
0
 10
19.2758
 20
69.5177
 11
19.2228
 21
69.3952
  0
LINE
  8
0
 10
19.2228
 20
69.3952
 11
19.1622
 21
69.2763
  0
LINE
  8
0
 10
19.1622
 20
69.2763
 11
19.0942
 21
69.1614
  0
LINE
  8
0
 10
19.0942
 20
69.1614
 11
19.0192
 21
69.051
  0
LINE
  8
0
 10
19.0192
 20
69.051
 11
18.9373
 21
68.9455
  0
LINE
  8
0
 10
18.9373
 20
68.9455
 11
18.8491
 21
68.8454
  0
LINE
  8
0
 10
18.8491
 20
68.8454
 11
18.7547
 21
68.7509
  0
LINE
  8
0
 10
18.7547
 20
68.7509
 11
18.6545
 21
68.6627
  0
LINE
  8
0
 10
18.6545
 20
68.6627
 11
18.5491
 21
68.5808
  0
LINE
  8
0
 10
18.5491
 20
68.5808
 11
18.4386
 21
68.5058
  0
LINE
  8
0
 10
18.4386
 20
68.5058
 11
18.3237
 21
68.4379
  0
LINE
  8
0
 10
18.3237
 20
68.4379
 11
18.2048
 21
68.3772
  0
LINE
  8
0
 10
18.2048
 20
68.3772
 11
18.0823
 21
68.3242
  0
LINE
  8
0
 10
18.0823
 20
68.3242
 11
17.9567
 21
68.279
  0
LINE
  8
0
 10
17.9567
 20
68.279
 11
17.8285
 21
68.2418
  0
LINE
  8
0
 10
17.8285
 20
68.2418
 11
17.6982
 21
68.2126
  0
LINE
  8
0
 10
17.6982
 20
68.2126
 11
17.5663
 21
68.1918
  0
LINE
  8
0
 10
17.5663
 20
68.1918
 11
17.4334
 21
68.1792
  0
LINE
  8
0
 10
17.4334
 20
68.1792
 11
17.3
 21
68.175
  0
LINE
  8
0
 10
17.3
 20
68.175
 11
17.1666
 21
68.1792
  0
LINE
  8
0
 10
77.5
 20
77.5
 11
55
 21
77.5
  0
LINE
  8
0
 10
55
 20
77.5
 11
77.5
 21
55
  0
LINE
  8
0
 10
77.5
 20
55
 11
77.5
 21
77.5
  0
LINE
  8
0
 10
70.1666
 20
68.1792
 11
70.0337
 21
68.1918
  0
LINE
  8
0
 10
70.0337
 20
68.1918
 11
69.9018
 21
68.2126
  0
LINE
  8
0
 10
69.9018
 20
68.2126
 11
69.7715
 21
68.2418
  0
LINE
  8
0
 10
69.7715
 20
68.2418
 11
69.6433
 21
68.279
  0
LINE
  8
0
 10
69.6433
 20
68.279
 11
69.5177
 21
68.3242
  0
LINE
  8
0
 10
69.5177
 20
68.3242
 11
69.3952
 21
68.3772
  0
LINE
  8
0
 10
69.3952
 20
68.3772
 11
69.2763
 21
68.4379
  0
LINE
  8
0
 10
69.2763
 20
68.4379
 11
69.1614
 21
68.5058
  0
LINE
  8
0
 10
69.1614
 20
68.5058
 11
69.051
 21
68.5808
  0
LINE
  8
0
 10
69.051
 20
68.5808
 11
68.9455
 21
68.6627
  0
LINE
  8
0
 10
68.9455
 20
68.6627
 11
68.8454
 21
68.7509
  0
LINE
  8
0
 10
68.8454
 20
68.7509
 11
68.7509
 21
68.8454
  0
LINE
  8
0
 10
68.7509
 20
68.8454
 11
68.6627
 21
68.9455
  0
LINE
  8
0
 10
68.6627
 20
68.9455
 11
68.5808
 21
69.051
  0
LINE
  8
0
 10
68.5808
 20
69.051
 11
68.5058
 21
69.1614
  0
LINE
  8
0
 10
68.5058
 20
69.1614
 11
68.4379
 21
69.2763
  0
LINE
  8
0
 10
68.4379
 20
69.2763
 11
68.3772
 21
69.3952
  0
LINE
  8
0
 10
68.3772
 20
69.3952
 11
68.3242
 21
69.5177
  0
LINE
  8
0
 10
68.3242
 20
69.5177
 11
68.279
 21
69.6433
  0
LINE
  8
0
 10
68.279
 20
69.6433
 11
68.2418
 21
69.7715
  0
LINE
  8
0
 10
68.2418
 20
69.7715
 11
68.2126
 21
69.9018
  0
LINE
  8
0
 10
68.2126
 20
69.9018
 11
68.1918
 21
70.0337
  0
LINE
  8
0
 10
68.1918
 20
70.0337
 11
68.1792
 21
70.1666
  0
LINE
  8
0
 10
68.1792
 20
70.1666
 11
68.175
 21
70.3
  0
LINE
  8
0
 10
68.175
 20
70.3
 11
68.1792
 21
70.4334
  0
LINE
  8
0
 10
68.1792
 20
70.4334
 11
68.1918
 21
70.5663
  0
LINE
  8
0
 10
68.1918
 20
70.5663
 11
68.2126
 21
70.6982
  0
LINE
  8
0
 10
68.2126
 20
70.6982
 11
68.2418
 21
70.8285
  0
LINE
  8
0
 10
68.2418
 20
70.8285
 11
68.279
 21
70.9567
  0
LINE
  8
0
 10
68.279
 20
70.9567
 11
68.3242
 21
71.0823
  0
LINE
  8
0
 10
68.3242
 20
71.0823
 11
68.3772
 21
71.2048
  0
LINE
  8
0
 10
68.3772
 20
71.2048
 11
68.4379
 21
71.3237
  0
LINE
  8
0
 10
68.4379
 20
71.3237
 11
68.5058
 21
71.4386
  0
LINE
  8
0
 10
68.5058
 20
71.4386
 11
68.5808
 21
71.5491
  0
LINE
  8
0
 10
68.5808
 20
71.5491
 11
68.6627
 21
71.6545
  0
LINE
  8
0
 10
68.6627
 20
71.6545
 11
68.7509
 21
71.7547
  0
LINE
  8
0
 10
68.7509
 20
71.7547
 11
68.8454
 21
71.8491
  0
LINE
  8
0
 10
68.8454
 20
71.8491
 11
68.9455
 21
71.9373
  0
LINE
  8
0
 10
68.9455
 20
71.9373
 11
69.051
 21
72.0192
  0
LINE
  8
0
 10
69.051
 20
72.0192
 11
69.1614
 21
72.0942
  0
LINE
  8
0
 10
69.1614
 20
72.0942
 11
69.2763
 21
72.1622
  0
LINE
  8
0
 10
69.2763
 20
72.1622
 11
69.3952
 21
72.2228
  0
LINE
  8
0
 10
69.3952
 20
72.2228
 11
69.5177
 21
72.2758
  0
LINE
  8
0
 10
69.5177
 20
72.2758
 11
69.6433
 21
72.321
  0
LINE
  8
0
 10
69.6433
 20
72.321
 11
69.7715
 21
72.3582
  0
LINE
  8
0
 10
69.7715
 20
72.3582
 11
69.9018
 21
72.3874
  0
LINE
  8
0
 10
69.9018
 20
72.3874
 11
70.0337
 21
72.4082
  0
LINE
  8
0
 10
70.0337
 20
72.4082
 11
70.1666
 21
72.4208
  0
LINE
  8
0
 10
70.1666
 20
72.4208
 11
70.3
 21
72.425
  0
LINE
  8
0
 10
70.3
 20
72.425
 11
70.4334
 21
72.4208
  0
LINE
  8
0
 10
70.4334
 20
72.4208
 11
70.5663
 21
72.4082
  0
LINE
  8
0
 10
70.5663
 20
72.4082
 11
70.6982
 21
72.3874
  0
LINE
  8
0
 10
70.6982
 20
72.3874
 11
70.8285
 21
72.3582
  0
LINE
  8
0
 10
70.8285
 20
72.3582
 11
70.9567
 21
72.321
  0
LINE
  8
0
 10
70.9567
 20
72.321
 11
71.0823
 21
72.2758
  0
LINE
  8
0
 10
71.0823
 20
72.2758
 11
71.2048
 21
72.2228
  0
LINE
  8
0
 10
71.2048
 20
72.2228
 11
71.3237
 21
72.1622
  0
LINE
  8
0
 10
71.3237
 20
72.1622
 11
71.4386
 21
72.0942
  0
LINE
  8
0
 10
71.4386
 20
72.0942
 11
71.5491
 21
72.0192
  0
LINE
  8
0
 10
71.5491
 20
72.0192
 11
71.6545
 21
71.9373
  0
LINE
  8
0
 10
71.6545
 20
71.9373
 11
71.7547
 21
71.8491
  0
LINE
  8
0
 10
71.7547
 20
71.8491
 11
71.8491
 21
71.7547
  0
LINE
  8
0
 10
71.8491
 20
71.7547
 11
71.9373
 21
71.6545
  0
LINE
  8
0
 10
71.9373
 20
71.6545
 11
72.0192
 21
71.5491
  0
LINE
  8
0
 10
72.0192
 20
71.5491
 11
72.0942
 21
71.4386
  0
LINE
  8
0
 10
72.0942
 20
71.4386
 11
72.1622
 21
71.3237
  0
LINE
  8
0
 10
72.1622
 20
71.3237
 11
72.2228
 21
71.2048
  0
LINE
  8
0
 10
72.2228
 20
71.2048
 11
72.2758
 21
71.0823
  0
LINE
  8
0
 10
72.2758
 20
71.0823
 11
72.321
 21
70.9567
  0
LINE
  8
0
 10
72.321
 20
70.9567
 11
72.3582
 21
70.8285
  0
LINE
  8
0
 10
72.3582
 20
70.8285
 11
72.3874
 21
70.6982
  0
LINE
  8
0
 10
72.3874
 20
70.6982
 11
72.4082
 21
70.5663
  0
LINE
  8
0
 10
72.4082
 20
70.5663
 11
72.4208
 21
70.4334
  0
LINE
  8
0
 10
72.4208
 20
70.4334
 11
72.425
 21
70.3
  0
LINE
  8
0
 10
72.425
 20
70.3
 11
72.4208
 21
70.1666
  0
LINE
  8
0
 10
72.4208
 20
70.1666
 11
72.4082
 21
70.0337
  0
LINE
  8
0
 10
72.4082
 20
70.0337
 11
72.3874
 21
69.9018
  0
LINE
  8
0
 10
72.3874
 20
69.9018
 11
72.3582
 21
69.7715
  0
LINE
  8
0
 10
72.3582
 20
69.7715
 11
72.321
 21
69.6433
  0
LINE
  8
0
 10
72.321
 20
69.6433
 11
72.2758
 21
69.5177
  0
LINE
  8
0
 10
72.2758
 20
69.5177
 11
72.2228
 21
69.3952
  0
LINE
  8
0
 10
72.2228
 20
69.3952
 11
72.1622
 21
69.2763
  0
LINE
  8
0
 10
72.1622
 20
69.2763
 11
72.0942
 21
69.1614
  0
LINE
  8
0
 10
72.0942
 20
69.1614
 11
72.0192
 21
69.051
  0
LINE
  8
0
 10
72.0192
 20
69.051
 11
71.9373
 21
68.9455
  0
LINE
  8
0
 10
71.9373
 20
68.9455
 11
71.8491
 21
68.8454
  0
LINE
  8
0
 10
71.8491
 20
68.8454
 11
71.7547
 21
68.7509
  0
LINE
  8
0
 10
71.7547
 20
68.7509
 11
71.6545
 21
68.6627
  0
LINE
  8
0
 10
71.6545
 20
68.6627
 11
71.5491
 21
68.5808
  0
LINE
  8
0
 10
71.5491
 20
68.5808
 11
71.4386
 21
68.5058
  0
LINE
  8
0
 10
71.4386
 20
68.5058
 11
71.3237
 21
68.4379
  0
LINE
  8
0
 10
71.3237
 20
68.4379
 11
71.2048
 21
68.3772
  0
LINE
  8
0
 10
71.2048
 20
68.3772
 11
71.0823
 21
68.3242
  0
LINE
  8
0
 10
71.0823
 20
68.3242
 11
70.9567
 21
68.279
  0
LINE
  8
0
 10
70.9567
 20
68.279
 11
70.8285
 21
68.2418
  0
LINE
  8
0
 10
70.8285
 20
68.2418
 11
70.6982
 21
68.2126
  0
LINE
  8
0
 10
70.6982
 20
68.2126
 11
70.5663
 21
68.1918
  0
LINE
  8
0
 10
70.5663
 20
68.1918
 11
70.4334
 21
68.1792
  0
LINE
  8
0
 10
70.4334
 20
68.1792
 11
70.3
 21
68.175
  0
LINE
  8
0
 10
70.3
 20
68.175
 11
70.1666
 21
68.1792
  0
LINE
  8
0
 10
51
 20
77.5
 11
28.5
 21
77.5
  0
LINE
  8
0
 10
28.5
 20
77.5
 11
51
 21
55
  0
LINE
  8
0
 10
51
 20
55
 11
51
 21
77.5
  0
LINE
  8
0
 10
43.6666
 20
68.1792
 11
43.5337
 21
68.1918
  0
LINE
  8
0
 10
43.5337
 20
68.1918
 11
43.4018
 21
68.2126
  0
LINE
  8
0
 10
43.4018
 20
68.2126
 11
43.2715
 21
68.2418
  0
LINE
  8
0
 10
43.2715
 20
68.2418
 11
43.1433
 21
68.279
  0
LINE
  8
0
 10
43.1433
 20
68.279
 11
43.0177
 21
68.3242
  0
LINE
  8
0
 10
43.0177
 20
68.3242
 11
42.8952
 21
68.3772
  0
LINE
  8
0
 10
42.8952
 20
68.3772
 11
42.7763
 21
68.4379
  0
LINE
  8
0
 10
42.7763
 20
68.4379
 11
42.6614
 21
68.5058
  0
LINE
  8
0
 10
42.6614
 20
68.5058
 11
42.551
 21
68.5808
  0
LINE
  8
0
 10
42.551
 20
68.5808
 11
42.4455
 21
68.6627
  0
LINE
  8
0
 10
42.4455
 20
68.6627
 11
42.3454
 21
68.7509
  0
LINE
  8
0
 10
42.3454
 20
68.7509
 11
42.2509
 21
68.8454
  0
LINE
  8
0
 10
42.2509
 20
68.8454
 11
42.1627
 21
68.9455
  0
LINE
  8
0
 10
42.1627
 20
68.9455
 11
42.0808
 21
69.051
  0
LINE
  8
0
 10
42.0808
 20
69.051
 11
42.0058
 21
69.1614
  0
LINE
  8
0
 10
42.0058
 20
69.1614
 11
41.9379
 21
69.2763
  0
LINE
  8
0
 10
41.9379
 20
69.2763
 11
41.8772
 21
69.3952
  0
LINE
  8
0
 10
41.8772
 20
69.3952
 11
41.8242
 21
69.5177
  0
LINE
  8
0
 10
41.8242
 20
69.5177
 11
41.779
 21
69.6433
  0
LINE
  8
0
 10
41.779
 20
69.6433
 11
41.7418
 21
69.7715
  0
LINE
  8
0
 10
41.7418
 20
69.7715
 11
41.7126
 21
69.9018
  0
LINE
  8
0
 10
41.7126
 20
69.9018
 11
41.6918
 21
70.0337
  0
LINE
  8
0
 10
41.6918
 20
70.0337
 11
41.6792
 21
70.1666
  0
LINE
  8
0
 10
41.6792
 20
70.1666
 11
41.675
 21
70.3
  0
LINE
  8
0
 10
41.675
 20
70.3
 11
41.6792
 21
70.4334
  0
LINE
  8
0
 10
41.6792
 20
70.4334
 11
41.6918
 21
70.5663
  0
LINE
  8
0
 10
41.6918
 20
70.5663
 11
41.7126
 21
70.6982
  0
LINE
  8
0
 10
41.7126
 20
70.6982
 11
41.7418
 21
70.8285
  0
LINE
  8
0
 10
41.7418
 20
70.8285
 11
41.779
 21
70.9567
  0
LINE
  8
0
 10
41.779
 20
70.9567
 11
41.8242
 21
71.0823
  0
LINE
  8
0
 10
41.8242
 20
71.0823
 11
41.8772
 21
71.2048
  0
LINE
  8
0
 10
41.8772
 20
71.2048
 11
41.9379
 21
71.3237
  0
LINE
  8
0
 10
41.9379
 20
71.3237
 11
42.0058
 21
71.4386
  0
LINE
  8
0
 10
42.0058
 20
71.4386
 11
42.0808
 21
71.5491
  0
LINE
  8
0
 10
42.0808
 20
71.5491
 11
42.1627
 21
71.6545
  0
LINE
  8
0
 10
42.1627
 20
71.6545
 11
42.2509
 21
71.7547
  0
LINE
  8
0
 10
42.2509
 20
71.7547
 11
42.3454
 21
71.8491
  0
LINE
  8
0
 10
42.3454
 20
71.8491
 11
42.4455
 21
71.9373
  0
LINE
  8
0
 10
42.4455
 20
71.9373
 11
42.551
 21
72.0192
  0
LINE
  8
0
 10
42.551
 20
72.0192
 11
42.6614
 21
72.0942
  0
LINE
  8
0
 10
42.6614
 20
72.0942
 11
42.7763
 21
72.1622
  0
LINE
  8
0
 10
42.7763
 20
72.1622
 11
42.8952
 21
72.2228
  0
LINE
  8
0
 10
42.8952
 20
72.2228
 11
43.0177
 21
72.2758
  0
LINE
  8
0
 10
43.0177
 20
72.2758
 11
43.1433
 21
72.321
  0
LINE
  8
0
 10
43.1433
 20
72.321
 11
43.2715
 21
72.3582
  0
LINE
  8
0
 10
43.2715
 20
72.3582
 11
43.4018
 21
72.3874
  0
LINE
  8
0
 10
43.4018
 20
72.3874
 11
43.5337
 21
72.4082
  0
LINE
  8
0
 10
43.5337
 20
72.4082
 11
43.6666
 21
72.4208
  0
LINE
  8
0
 10
43.6666
 20
72.4208
 11
43.8
 21
72.425
  0
LINE
  8
0
 10
43.8
 20
72.425
 11
43.9334
 21
72.4208
  0
LINE
  8
0
 10
43.9334
 20
72.4208
 11
44.0663
 21
72.4082
  0
LINE
  8
0
 10
44.0663
 20
72.4082
 11
44.1982
 21
72.3874
  0
LINE
  8
0
 10
44.1982
 20
72.3874
 11
44.3285
 21
72.3582
  0
LINE
  8
0
 10
44.3285
 20
72.3582
 11
44.4567
 21
72.321
  0
LINE
  8
0
 10
44.4567
 20
72.321
 11
44.5823
 21
72.2758
  0
LINE
  8
0
 10
44.5823
 20
72.2758
 11
44.7048
 21
72.2228
  0
LINE
  8
0
 10
44.7048
 20
72.2228
 11
44.8237
 21
72.1622
  0
LINE
  8
0
 10
44.8237
 20
72.1622
 11
44.9386
 21
72.0942
  0
LINE
  8
0
 10
44.9386
 20
72.0942
 11
45.0491
 21
72.0192
  0
LINE
  8
0
 10
45.0491
 20
72.0192
 11
45.1545
 21
71.9373
  0
LINE
  8
0
 10
45.1545
 20
71.9373
 11
45.2547
 21
71.8491
  0
LINE
  8
0
 10
45.2547
 20
71.8491
 11
45.3491
 21
71.7547
  0
LINE
  8
0
 10
45.3491
 20
71.7547
 11
45.4373
 21
71.6545
  0
LINE
  8
0
 10
45.4373
 20
71.6545
 11
45.5192
 21
71.5491
  0
LINE
  8
0
 10
45.5192
 20
71.5491
 11
45.5942
 21
71.4386
  0
LINE
  8
0
 10
45.5942
 20
71.4386
 11
45.6622
 21
71.3237
  0
LINE
  8
0
 10
45.6622
 20
71.3237
 11
45.7228
 21
71.2048
  0
LINE
  8
0
 10
45.7228
 20
71.2048
 11
45.7758
 21
71.0823
  0
LINE
  8
0
 10
45.7758
 20
71.0823
 11
45.821
 21
70.9567
  0
LINE
  8
0
 10
45.821
 20
70.9567
 11
45.8582
 21
70.8285
  0
LINE
  8
0
 10
45.8582
 20
70.8285
 11
45.8874
 21
70.6982
  0
LINE
  8
0
 10
45.8874
 20
70.6982
 11
45.9082
 21
70.5663
  0
LINE
  8
0
 10
45.9082
 20
70.5663
 11
45.9208
 21
70.4334
  0
LINE
  8
0
 10
45.9208
 20
70.4334
 11
45.925
 21
70.3
  0
LINE
  8
0
 10
45.925
 20
70.3
 11
45.9208
 21
70.1666
  0
LINE
  8
0
 10
45.9208
 20
70.1666
 11
45.9082
 21
70.0337
  0
LINE
  8
0
 10
45.9082
 20
70.0337
 11
45.8874
 21
69.9018
  0
LINE
  8
0
 10
45.8874
 20
69.9018
 11
45.8582
 21
69.7715
  0
LINE
  8
0
 10
45.8582
 20
69.7715
 11
45.821
 21
69.6433
  0
LINE
  8
0
 10
45.821
 20
69.6433
 11
45.7758
 21
69.5177
  0
LINE
  8
0
 10
45.7758
 20
69.5177
 11
45.7228
 21
69.3952
  0
LINE
  8
0
 10
45.7228
 20
69.3952
 11
45.6622
 21
69.2763
  0
LINE
  8
0
 10
45.6622
 20
69.2763
 11
45.5942
 21
69.1614
  0
LINE
  8
0
 10
45.5942
 20
69.1614
 11
45.5192
 21
69.051
  0
LINE
  8
0
 10
45.5192
 20
69.051
 11
45.4373
 21
68.9455
  0
LINE
  8
0
 10
45.4373
 20
68.9455
 11
45.3491
 21
68.8454
  0
LINE
  8
0
 10
45.3491
 20
68.8454
 11
45.2547
 21
68.7509
  0
LINE
  8
0
 10
45.2547
 20
68.7509
 11
45.1545
 21
68.6627
  0
LINE
  8
0
 10
45.1545
 20
68.6627
 11
45.0491
 21
68.5808
  0
LINE
  8
0
 10
45.0491
 20
68.5808
 11
44.9386
 21
68.5058
  0
LINE
  8
0
 10
44.9386
 20
68.5058
 11
44.8237
 21
68.4379
  0
LINE
  8
0
 10
44.8237
 20
68.4379
 11
44.7048
 21
68.3772
  0
LINE
  8
0
 10
44.7048
 20
68.3772
 11
44.5823
 21
68.3242
  0
LINE
  8
0
 10
44.5823
 20
68.3242
 11
44.4567
 21
68.279
  0
LINE
  8
0
 10
44.4567
 20
68.279
 11
44.3285
 21
68.2418
  0
LINE
  8
0
 10
44.3285
 20
68.2418
 11
44.1982
 21
68.2126
  0
LINE
  8
0
 10
44.1982
 20
68.2126
 11
44.0663
 21
68.1918
  0
LINE
  8
0
 10
44.0663
 20
68.1918
 11
43.9334
 21
68.1792
  0
LINE
  8
0
 10
43.9334
 20
68.1792
 11
43.8
 21
68.175
  0
LINE
  8
0
 10
43.8
 20
68.175
 11
43.6666
 21
68.1792
  0
LINE
  8
0
 10
53
 20
75.5
 11
53
 21
53
  0
LINE
  8
0
 10
53
 20
53
 11
75.5
 21
53
  0
LINE
  8
0
 10
75.5
 20
53
 11
53
 21
75.5
  0
LINE
  8
0
 10
60.0666
 20
58.0792
 11
59.9337
 21
58.0918
  0
LINE
  8
0
 10
59.9337
 20
58.0918
 11
59.8018
 21
58.1126
  0
LINE
  8
0
 10
59.8018
 20
58.1126
 11
59.6715
 21
58.1418
  0
LINE
  8
0
 10
59.6715
 20
58.1418
 11
59.5433
 21
58.179
  0
LINE
  8
0
 10
59.5433
 20
58.179
 11
59.4177
 21
58.2242
  0
LINE
  8
0
 10
59.4177
 20
58.2242
 11
59.2952
 21
58.2772
  0
LINE
  8
0
 10
59.2952
 20
58.2772
 11
59.1763
 21
58.3378
  0
LINE
  8
0
 10
59.1763
 20
58.3378
 11
59.0614
 21
58.4058
  0
LINE
  8
0
 10
59.0614
 20
58.4058
 11
58.9509
 21
58.4808
  0
LINE
  8
0
 10
58.9509
 20
58.4808
 11
58.8455
 21
58.5627
  0
LINE
  8
0
 10
58.8455
 20
58.5627
 11
58.7453
 21
58.6509
  0
LINE
  8
0
 10
58.7453
 20
58.6509
 11
58.6509
 21
58.7453
  0
LINE
  8
0
 10
58.6509
 20
58.7453
 11
58.5627
 21
58.8455
  0
LINE
  8
0
 10
58.5627
 20
58.8455
 11
58.4808
 21
58.9509
  0
LINE
  8
0
 10
58.4808
 20
58.9509
 11
58.4058
 21
59.0614
  0
LINE
  8
0
 10
58.4058
 20
59.0614
 11
58.3378
 21
59.1763
  0
LINE
  8
0
 10
58.3378
 20
59.1763
 11
58.2772
 21
59.2952
  0
LINE
  8
0
 10
58.2772
 20
59.2952
 11
58.2242
 21
59.4177
  0
LINE
  8
0
 10
58.2242
 20
59.4177
 11
58.179
 21
59.5433
  0
LINE
  8
0
 10
58.179
 20
59.5433
 11
58.1418
 21
59.6715
  0
LINE
  8
0
 10
58.1418
 20
59.6715
 11
58.1126
 21
59.8018
  0
LINE
  8
0
 10
58.1126
 20
59.8018
 11
58.0918
 21
59.9337
  0
LINE
  8
0
 10
58.0918
 20
59.9337
 11
58.0792
 21
60.0666
  0
LINE
  8
0
 10
58.0792
 20
60.0666
 11
58.075
 21
60.2
  0
LINE
  8
0
 10
58.075
 20
60.2
 11
58.0792
 21
60.3334
  0
LINE
  8
0
 10
58.0792
 20
60.3334
 11
58.0918
 21
60.4663
  0
LINE
  8
0
 10
58.0918
 20
60.4663
 11
58.1126
 21
60.5982
  0
LINE
  8
0
 10
58.1126
 20
60.5982
 11
58.1418
 21
60.7285
  0
LINE
  8
0
 10
58.1418
 20
60.7285
 11
58.179
 21
60.8567
  0
LINE
  8
0
 10
58.179
 20
60.8567
 11
58.2242
 21
60.9823
  0
LINE
  8
0
 10
58.2242
 20
60.9823
 11
58.2772
 21
61.1048
  0
LINE
  8
0
 10
58.2772
 20
61.1048
 11
58.3378
 21
61.2237
  0
LINE
  8
0
 10
58.3378
 20
61.2237
 11
58.4058
 21
61.3386
  0
LINE
  8
0
 10
58.4058
 20
61.3386
 11
58.4808
 21
61.449
  0
LINE
  8
0
 10
58.4808
 20
61.449
 11
58.5627
 21
61.5545
  0
LINE
  8
0
 10
58.5627
 20
61.5545
 11
58.6509
 21
61.6546
  0
LINE
  8
0
 10
58.6509
 20
61.6546
 11
58.7453
 21
61.7491
  0
LINE
  8
0
 10
58.7453
 20
61.7491
 11
58.8455
 21
61.8373
  0
LINE
  8
0
 10
58.8455
 20
61.8373
 11
58.9509
 21
61.9192
  0
LINE
  8
0
 10
58.9509
 20
61.9192
 11
59.0614
 21
61.9942
  0
LINE
  8
0
 10
59.0614
 20
61.9942
 11
59.1763
 21
62.0621
  0
LINE
  8
0
 10
59.1763
 20
62.0621
 11
59.2952
 21
62.1228
  0
LINE
  8
0
 10
59.2952
 20
62.1228
 11
59.4177
 21
62.1758
  0
LINE
  8
0
 10
59.4177
 20
62.1758
 11
59.5433
 21
62.221
  0
LINE
  8
0
 10
59.5433
 20
62.221
 11
59.6715
 21
62.2582
  0
LINE
  8
0
 10
59.6715
 20
62.2582
 11
59.8018
 21
62.2874
  0
LINE
  8
0
 10
59.8018
 20
62.2874
 11
59.9337
 21
62.3082
  0
LINE
  8
0
 10
59.9337
 20
62.3082
 11
60.0666
 21
62.3208
  0
LINE
  8
0
 10
60.0666
 20
62.3208
 11
60.2
 21
62.325
  0
LINE
  8
0
 10
60.2
 20
62.325
 11
60.3334
 21
62.3208
  0
LINE
  8
0
 10
60.3334
 20
62.3208
 11
60.4663
 21
62.3082
  0
LINE
  8
0
 10
60.4663
 20
62.3082
 11
60.5982
 21
62.2874
  0
LINE
  8
0
 10
60.5982
 20
62.2874
 11
60.7285
 21
62.2582
  0
LINE
  8
0
 10
60.7285
 20
62.2582
 11
60.8567
 21
62.221
  0
LINE
  8
0
 10
60.8567
 20
62.221
 11
60.9823
 21
62.1758
  0
LINE
  8
0
 10
60.9823
 20
62.1758
 11
61.1048
 21
62.1228
  0
LINE
  8
0
 10
61.1048
 20
62.1228
 11
61.2237
 21
62.0621
  0
LINE
  8
0
 10
61.2237
 20
62.0621
 11
61.3386
 21
61.9942
  0
LINE
  8
0
 10
61.3386
 20
61.9942
 11
61.449
 21
61.9192
  0
LINE
  8
0
 10
61.449
 20
61.9192
 11
61.5545
 21
61.8373
  0
LINE
  8
0
 10
61.5545
 20
61.8373
 11
61.6546
 21
61.7491
  0
LINE
  8
0
 10
61.6546
 20
61.7491
 11
61.7491
 21
61.6546
  0
LINE
  8
0
 10
61.7491
 20
61.6546
 11
61.8373
 21
61.5545
  0
LINE
  8
0
 10
61.8373
 20
61.5545
 11
61.9192
 21
61.449
  0
LINE
  8
0
 10
61.9192
 20
61.449
 11
61.9942
 21
61.3386
  0
LINE
  8
0
 10
61.9942
 20
61.3386
 11
62.0621
 21
61.2237
  0
LINE
  8
0
 10
62.0621
 20
61.2237
 11
62.1228
 21
61.1048
  0
LINE
  8
0
 10
62.1228
 20
61.1048
 11
62.1758
 21
60.9823
  0
LINE
  8
0
 10
62.1758
 20
60.9823
 11
62.221
 21
60.8567
  0
LINE
  8
0
 10
62.221
 20
60.8567
 11
62.2582
 21
60.7285
  0
LINE
  8
0
 10
62.2582
 20
60.7285
 11
62.2874
 21
60.5982
  0
LINE
  8
0
 10
62.2874
 20
60.5982
 11
62.3082
 21
60.4663
  0
LINE
  8
0
 10
62.3082
 20
60.4663
 11
62.3208
 21
60.3334
  0
LINE
  8
0
 10
62.3208
 20
60.3334
 11
62.325
 21
60.2
  0
LINE
  8
0
 10
62.325
 20
60.2
 11
62.3208
 21
60.0666
  0
LINE
  8
0
 10
62.3208
 20
60.0666
 11
62.3082
 21
59.9337
  0
LINE
  8
0
 10
62.3082
 20
59.9337
 11
62.2874
 21
59.8018
  0
LINE
  8
0
 10
62.2874
 20
59.8018
 11
62.2582
 21
59.6715
  0
LINE
  8
0
 10
62.2582
 20
59.6715
 11
62.221
 21
59.5433
  0
LINE
  8
0
 10
62.221
 20
59.5433
 11
62.1758
 21
59.4177
  0
LINE
  8
0
 10
62.1758
 20
59.4177
 11
62.1228
 21
59.2952
  0
LINE
  8
0
 10
62.1228
 20
59.2952
 11
62.0621
 21
59.1763
  0
LINE
  8
0
 10
62.0621
 20
59.1763
 11
61.9942
 21
59.0614
  0
LINE
  8
0
 10
61.9942
 20
59.0614
 11
61.9192
 21
58.9509
  0
LINE
  8
0
 10
61.9192
 20
58.9509
 11
61.8373
 21
58.8455
  0
LINE
  8
0
 10
61.8373
 20
58.8455
 11
61.7491
 21
58.7453
  0
LINE
  8
0
 10
61.7491
 20
58.7453
 11
61.6546
 21
58.6509
  0
LINE
  8
0
 10
61.6546
 20
58.6509
 11
61.5545
 21
58.5627
  0
LINE
  8
0
 10
61.5545
 20
58.5627
 11
61.449
 21
58.4808
  0
LINE
  8
0
 10
61.449
 20
58.4808
 11
61.3386
 21
58.4058
  0
LINE
  8
0
 10
61.3386
 20
58.4058
 11
61.2237
 21
58.3378
  0
LINE
  8
0
 10
61.2237
 20
58.3378
 11
61.1048
 21
58.2772
  0
LINE
  8
0
 10
61.1048
 20
58.2772
 11
60.9823
 21
58.2242
  0
LINE
  8
0
 10
60.9823
 20
58.2242
 11
60.8567
 21
58.179
  0
LINE
  8
0
 10
60.8567
 20
58.179
 11
60.7285
 21
58.1418
  0
LINE
  8
0
 10
60.7285
 20
58.1418
 11
60.5982
 21
58.1126
  0
LINE
  8
0
 10
60.5982
 20
58.1126
 11
60.4663
 21
58.0918
  0
LINE
  8
0
 10
60.4663
 20
58.0918
 11
60.3334
 21
58.0792
  0
LINE
  8
0
 10
60.3334
 20
58.0792
 11
60.2
 21
58.075
  0
LINE
  8
0
 10
60.2
 20
58.075
 11
60.0666
 21
58.0792
  0
LINE
  8
0
 10
26.5
 20
75.5
 11
26.5
 21
53
  0
LINE
  8
0
 10
26.5
 20
53
 11
49
 21
53
  0
LINE
  8
0
 10
49
 20
53
 11
26.5
 21
75.5
  0
LINE
  8
0
 10
33.5666
 20
58.0792
 11
33.4337
 21
58.0918
  0
LINE
  8
0
 10
33.4337
 20
58.0918
 11
33.3018
 21
58.1126
  0
LINE
  8
0
 10
33.3018
 20
58.1126
 11
33.1715
 21
58.1418
  0
LINE
  8
0
 10
33.1715
 20
58.1418
 11
33.0433
 21
58.179
  0
LINE
  8
0
 10
33.0433
 20
58.179
 11
32.9177
 21
58.2242
  0
LINE
  8
0
 10
32.9177
 20
58.2242
 11
32.7952
 21
58.2772
  0
LINE
  8
0
 10
32.7952
 20
58.2772
 11
32.6763
 21
58.3378
  0
LINE
  8
0
 10
32.6763
 20
58.3378
 11
32.5614
 21
58.4058
  0
LINE
  8
0
 10
32.5614
 20
58.4058
 11
32.4509
 21
58.4808
  0
LINE
  8
0
 10
32.4509
 20
58.4808
 11
32.3455
 21
58.5627
  0
LINE
  8
0
 10
32.3455
 20
58.5627
 11
32.2453
 21
58.6509
  0
LINE
  8
0
 10
32.2453
 20
58.6509
 11
32.1509
 21
58.7453
  0
LINE
  8
0
 10
32.1509
 20
58.7453
 11
32.0627
 21
58.8455
  0
LINE
  8
0
 10
32.0627
 20
58.8455
 11
31.9808
 21
58.9509
  0
LINE
  8
0
 10
31.9808
 20
58.9509
 11
31.9058
 21
59.0614
  0
LINE
  8
0
 10
31.9058
 20
59.0614
 11
31.8378
 21
59.1763
  0
LINE
  8
0
 10
31.8378
 20
59.1763
 11
31.7772
 21
59.2952
  0
LINE
  8
0
 10
31.7772
 20
59.2952
 11
31.7242
 21
59.4177
  0
LINE
  8
0
 10
31.7242
 20
59.4177
 11
31.679
 21
59.5433
  0
LINE
  8
0
 10
31.679
 20
59.5433
 11
31.6418
 21
59.6715
  0
LINE
  8
0
 10
31.6418
 20
59.6715
 11
31.6126
 21
59.8018
  0
LINE
  8
0
 10
31.6126
 20
59.8018
 11
31.5918
 21
59.9337
  0
LINE
  8
0
 10
31.5918
 20
59.9337
 11
31.5792
 21
60.0666
  0
LINE
  8
0
 10
31.5792
 20
60.0666
 11
31.575
 21
60.2
  0
LINE
  8
0
 10
31.575
 20
60.2
 11
31.5792
 21
60.3334
  0
LINE
  8
0
 10
31.5792
 20
60.3334
 11
31.5918
 21
60.4663
  0
LINE
  8
0
 10
31.5918
 20
60.4663
 11
31.6126
 21
60.5982
  0
LINE
  8
0
 10
31.6126
 20
60.5982
 11
31.6418
 21
60.7285
  0
LINE
  8
0
 10
31.6418
 20
60.7285
 11
31.679
 21
60.8567
  0
LINE
  8
0
 10
31.679
 20
60.8567
 11
31.7242
 21
60.9823
  0
LINE
  8
0
 10
31.7242
 20
60.9823
 11
31.7772
 21
61.1048
  0
LINE
  8
0
 10
31.7772
 20
61.1048
 11
31.8378
 21
61.2237
  0
LINE
  8
0
 10
31.8378
 20
61.2237
 11
31.9058
 21
61.3386
  0
LINE
  8
0
 10
31.9058
 20
61.3386
 11
31.9808
 21
61.449
  0
LINE
  8
0
 10
31.9808
 20
61.449
 11
32.0627
 21
61.5545
  0
LINE
  8
0
 10
32.0627
 20
61.5545
 11
32.1509
 21
61.6546
  0
LINE
  8
0
 10
32.1509
 20
61.6546
 11
32.2453
 21
61.7491
  0
LINE
  8
0
 10
32.2453
 20
61.7491
 11
32.3455
 21
61.8373
  0
LINE
  8
0
 10
32.3455
 20
61.8373
 11
32.4509
 21
61.9192
  0
LINE
  8
0
 10
32.4509
 20
61.9192
 11
32.5614
 21
61.9942
  0
LINE
  8
0
 10
32.5614
 20
61.9942
 11
32.6763
 21
62.0621
  0
LINE
  8
0
 10
32.6763
 20
62.0621
 11
32.7952
 21
62.1228
  0
LINE
  8
0
 10
32.7952
 20
62.1228
 11
32.9177
 21
62.1758
  0
LINE
  8
0
 10
32.9177
 20
62.1758
 11
33.0433
 21
62.221
  0
LINE
  8
0
 10
33.0433
 20
62.221
 11
33.1715
 21
62.2582
  0
LINE
  8
0
 10
33.1715
 20
62.2582
 11
33.3018
 21
62.2874
  0
LINE
  8
0
 10
33.3018
 20
62.2874
 11
33.4337
 21
62.3082
  0
LINE
  8
0
 10
33.4337
 20
62.3082
 11
33.5666
 21
62.3208
  0
LINE
  8
0
 10
33.5666
 20
62.3208
 11
33.7
 21
62.325
  0
LINE
  8
0
 10
33.7
 20
62.325
 11
33.8334
 21
62.3208
  0
LINE
  8
0
 10
33.8334
 20
62.3208
 11
33.9663
 21
62.3082
  0
LINE
  8
0
 10
33.9663
 20
62.3082
 11
34.0982
 21
62.2874
  0
LINE
  8
0
 10
34.0982
 20
62.2874
 11
34.2285
 21
62.2582
  0
LINE
  8
0
 10
34.2285
 20
62.2582
 11
34.3567
 21
62.221
  0
LINE
  8
0
 10
34.3567
 20
62.221
 11
34.4823
 21
62.1758
  0
LINE
  8
0
 10
34.4823
 20
62.1758
 11
34.6048
 21
62.1228
  0
LINE
  8
0
 10
34.6048
 20
62.1228
 11
34.7237
 21
62.0621
  0
LINE
  8
0
 10
34.7237
 20
62.0621
 11
34.8386
 21
61.9942
  0
LINE
  8
0
 10
34.8386
 20
61.9942
 11
34.949
 21
61.9192
  0
LINE
  8
0
 10
34.949
 20
61.9192
 11
35.0545
 21
61.8373
  0
LINE
  8
0
 10
35.0545
 20
61.8373
 11
35.1546
 21
61.7491
  0
LINE
  8
0
 10
35.1546
 20
61.7491
 11
35.2491
 21
61.6546
  0
LINE
  8
0
 10
35.2491
 20
61.6546
 11
35.3373
 21
61.5545
  0
LINE
  8
0
 10
35.3373
 20
61.5545
 11
35.4192
 21
61.449
  0
LINE
  8
0
 10
35.4192
 20
61.449
 11
35.4942
 21
61.3386
  0
LINE
  8
0
 10
35.4942
 20
61.3386
 11
35.5621
 21
61.2237
  0
LINE
  8
0
 10
35.5621
 20
61.2237
 11
35.6228
 21
61.1048
  0
LINE
  8
0
 10
35.6228
 20
61.1048
 11
35.6758
 21
60.9823
  0
LINE
  8
0
 10
35.6758
 20
60.9823
 11
35.721
 21
60.8567
  0
LINE
  8
0
 10
35.721
 20
60.8567
 11
35.7582
 21
60.7285
  0
LINE
  8
0
 10
35.7582
 20
60.7285
 11
35.7874
 21
60.5982
  0
LINE
  8
0
 10
35.7874
 20
60.5982
 11
35.8082
 21
60.4663
  0
LINE
  8
0
 10
35.8082
 20
60.4663
 11
35.8208
 21
60.3334
  0
LINE
  8
0
 10
35.8208
 20
60.3334
 11
35.825
 21
60.2
  0
LINE
  8
0
 10
35.825
 20
60.2
 11
35.8208
 21
60.0666
  0
LINE
  8
0
 10
35.8208
 20
60.0666
 11
35.8082
 21
59.9337
  0
LINE
  8
0
 10
35.8082
 20
59.9337
 11
35.7874
 21
59.8018
  0
LINE
  8
0
 10
35.7874
 20
59.8018
 11
35.7582
 21
59.6715
  0
LINE
  8
0
 10
35.7582
 20
59.6715
 11
35.721
 21
59.5433
  0
LINE
  8
0
 10
35.721
 20
59.5433
 11
35.6758
 21
59.4177
  0
LINE
  8
0
 10
35.6758
 20
59.4177
 11
35.6228
 21
59.2952
  0
LINE
  8
0
 10
35.6228
 20
59.2952
 11
35.5621
 21
59.1763
  0
LINE
  8
0
 10
35.5621
 20
59.1763
 11
35.4942
 21
59.0614
  0
LINE
  8
0
 10
35.4942
 20
59.0614
 11
35.4192
 21
58.9509
  0
LINE
  8
0
 10
35.4192
 20
58.9509
 11
35.3373
 21
58.8455
  0
LINE
  8
0
 10
35.3373
 20
58.8455
 11
35.2491
 21
58.7453
  0
LINE
  8
0
 10
35.2491
 20
58.7453
 11
35.1546
 21
58.6509
  0
LINE
  8
0
 10
35.1546
 20
58.6509
 11
35.0545
 21
58.5627
  0
LINE
  8
0
 10
35.0545
 20
58.5627
 11
34.949
 21
58.4808
  0
LINE
  8
0
 10
34.949
 20
58.4808
 11
34.8386
 21
58.4058
  0
LINE
  8
0
 10
34.8386
 20
58.4058
 11
34.7237
 21
58.3378
  0
LINE
  8
0
 10
34.7237
 20
58.3378
 11
34.6048
 21
58.2772
  0
LINE
  8
0
 10
34.6048
 20
58.2772
 11
34.4823
 21
58.2242
  0
LINE
  8
0
 10
34.4823
 20
58.2242
 11
34.3567
 21
58.179
  0
LINE
  8
0
 10
34.3567
 20
58.179
 11
34.2285
 21
58.1418
  0
LINE
  8
0
 10
34.2285
 20
58.1418
 11
34.0982
 21
58.1126
  0
LINE
  8
0
 10
34.0982
 20
58.1126
 11
33.9663
 21
58.0918
  0
LINE
  8
0
 10
33.9663
 20
58.0918
 11
33.8334
 21
58.0792
  0
LINE
  8
0
 10
33.8334
 20
58.0792
 11
33.7
 21
58.075
  0
LINE
  8
0
 10
33.7
 20
58.075
 11
33.5666
 21
58.0792
  0
LINE
  8
0
 10
0
 20
75.5
 11
0
 21
53
  0
LINE
  8
0
 10
0
 20
53
 11
22.5
 21
53
  0
LINE
  8
0
 10
22.5
 20
53
 11
0
 21
75.5
  0
LINE
  8
0
 10
7.06656
 20
58.0792
 11
6.93365
 21
58.0918
  0
LINE
  8
0
 10
6.93365
 20
58.0918
 11
6.8018
 21
58.1126
  0
LINE
  8
0
 10
6.8018
 20
58.1126
 11
6.67152
 21
58.1418
  0
LINE
  8
0
 10
6.67152
 20
58.1418
 11
6.54333
 21
58.179
  0
LINE
  8
0
 10
6.54333
 20
58.179
 11
6.41772
 21
58.2242
  0
LINE
  8
0
 10
6.41772
 20
58.2242
 11
6.29521
 21
58.2772
  0
LINE
  8
0
 10
6.29521
 20
58.2772
 11
6.17627
 21
58.3378
  0
LINE
  8
0
 10
6.17627
 20
58.3378
 11
6.06136
 21
58.4058
  0
LINE
  8
0
 10
6.06136
 20
58.4058
 11
5.95094
 21
58.4808
  0
LINE
  8
0
 10
5.95094
 20
58.4808
 11
5.84546
 21
58.5627
  0
LINE
  8
0
 10
5.84546
 20
58.5627
 11
5.74533
 21
58.6509
  0
LINE
  8
0
 10
5.74533
 20
58.6509
 11
5.65094
 21
58.7453
  0
LINE
  8
0
 10
5.65094
 20
58.7453
 11
5.56265
 21
58.8455
  0
LINE
  8
0
 10
5.56265
 20
58.8455
 11
5.48083
 21
58.9509
  0
LINE
  8
0
 10
5.48083
 20
58.9509
 11
5.40579
 21
59.0614
  0
LINE
  8
0
 10
5.40579
 20
59.0614
 11
5.33784
 21
59.1763
  0
LINE
  8
0
 10
5.33784
 20
59.1763
 11
5.27724
 21
59.2952
  0
LINE
  8
0
 10
5.27724
 20
59.2952
 11
5.22421
 21
59.4177
  0
LINE
  8
0
 10
5.22421
 20
59.4177
 11
5.179
 21
59.5433
  0
LINE
  8
0
 10
5.179
 20
59.5433
 11
5.14175
 21
59.6715
  0
LINE
  8
0
 10
5.14175
 20
59.6715
 11
5.11263
 21
59.8018
  0
LINE
  8
0
 10
5.11263
 20
59.8018
 11
5.09175
 21
59.9337
  0
LINE
  8
0
 10
5.09175
 20
59.9337
 11
5.07919
 21
60.0666
  0
LINE
  8
0
 10
5.07919
 20
60.0666
 11
5.075
 21
60.2
  0
LINE
  8
0
 10
5.075
 20
60.2
 11
5.07919
 21
60.3334
  0
LINE
  8
0
 10
5.07919
 20
60.3334
 11
5.09175
 21
60.4663
  0
LINE
  8
0
 10
5.09175
 20
60.4663
 11
5.11263
 21
60.5982
  0
LINE
  8
0
 10
5.11263
 20
60.5982
 11
5.14175
 21
60.7285
  0
LINE
  8
0
 10
5.14175
 20
60.7285
 11
5.179
 21
60.8567
  0
LINE
  8
0
 10
5.179
 20
60.8567
 11
5.22421
 21
60.9823
  0
LINE
  8
0
 10
5.22421
 20
60.9823
 11
5.27724
 21
61.1048
  0
LINE
  8
0
 10
5.27724
 20
61.1048
 11
5.33784
 21
61.2237
  0
LINE
  8
0
 10
5.33784
 20
61.2237
 11
5.40579
 21
61.3386
  0
LINE
  8
0
 10
5.40579
 20
61.3386
 11
5.48083
 21
61.449
  0
LINE
  8
0
 10
5.48083
 20
61.449
 11
5.56265
 21
61.5545
  0
LINE
  8
0
 10
5.56265
 20
61.5545
 11
5.65094
 21
61.6546
  0
LINE
  8
0
 10
5.65094
 20
61.6546
 11
5.74533
 21
61.7491
  0
LINE
  8
0
 10
5.74533
 20
61.7491
 11
5.84546
 21
61.8373
  0
LINE
  8
0
 10
5.84546
 20
61.8373
 11
5.95094
 21
61.9192
  0
LINE
  8
0
 10
5.95094
 20
61.9192
 11
6.06136
 21
61.9942
  0
LINE
  8
0
 10
6.06136
 20
61.9942
 11
6.17627
 21
62.0621
  0
LINE
  8
0
 10
6.17627
 20
62.0621
 11
6.29521
 21
62.1228
  0
LINE
  8
0
 10
6.29521
 20
62.1228
 11
6.41772
 21
62.1758
  0
LINE
  8
0
 10
6.41772
 20
62.1758
 11
6.54333
 21
62.221
  0
LINE
  8
0
 10
6.54333
 20
62.221
 11
6.67152
 21
62.2582
  0
LINE
  8
0
 10
6.67152
 20
62.2582
 11
6.8018
 21
62.2874
  0
LINE
  8
0
 10
6.8018
 20
62.2874
 11
6.93365
 21
62.3082
  0
LINE
  8
0
 10
6.93365
 20
62.3082
 11
7.06656
 21
62.3208
  0
LINE
  8
0
 10
7.06656
 20
62.3208
 11
7.2
 21
62.325
  0
LINE
  8
0
 10
7.2
 20
62.325
 11
7.33342
 21
62.3208
  0
LINE
  8
0
 10
7.33342
 20
62.3208
 11
7.46632
 21
62.3082
  0
LINE
  8
0
 10
7.46632
 20
62.3082
 11
7.59818
 21
62.2874
  0
LINE
  8
0
 10
7.59818
 20
62.2874
 11
7.72845
 21
62.2582
  0
LINE
  8
0
 10
7.72845
 20
62.2582
 11
7.85666
 21
62.221
  0
LINE
  8
0
 10
7.85666
 20
62.221
 11
7.98225
 21
62.1758
  0
LINE
  8
0
 10
7.98225
 20
62.1758
 11
8.10477
 21
62.1228
  0
LINE
  8
0
 10
8.10477
 20
62.1228
 11
8.22372
 21
62.0621
  0
LINE
  8
0
 10
8.22372
 20
62.0621
 11
8.33862
 21
61.9942
  0
LINE
  8
0
 10
8.33862
 20
61.9942
 11
8.44904
 21
61.9192
  0
LINE
  8
0
 10
8.44904
 20
61.9192
 11
8.55452
 21
61.8373
  0
LINE
  8
0
 10
8.55452
 20
61.8373
 11
8.65465
 21
61.7491
  0
LINE
  8
0
 10
8.65465
 20
61.7491
 11
8.74905
 21
61.6546
  0
LINE
  8
0
 10
8.74905
 20
61.6546
 11
8.83733
 21
61.5545
  0
LINE
  8
0
 10
8.83733
 20
61.5545
 11
8.91916
 21
61.449
  0
LINE
  8
0
 10
8.91916
 20
61.449
 11
8.99419
 21
61.3386
  0
LINE
  8
0
 10
8.99419
 20
61.3386
 11
9.06215
 21
61.2237
  0
LINE
  8
0
 10
9.06215
 20
61.2237
 11
9.12276
 21
61.1048
  0
LINE
  8
0
 10
9.12276
 20
61.1048
 11
9.17577
 21
60.9823
  0
LINE
  8
0
 10
9.17577
 20
60.9823
 11
9.22099
 21
60.8567
  0
LINE
  8
0
 10
9.22099
 20
60.8567
 11
9.25822
 21
60.7285
  0
LINE
  8
0
 10
9.25822
 20
60.7285
 11
9.28735
 21
60.5982
  0
LINE
  8
0
 10
9.28735
 20
60.5982
 11
9.30824
 21
60.4663
  0
LINE
  8
0
 10
9.30824
 20
60.4663
 11
9.3208
 21
60.3334
  0
LINE
  8
0
 10
9.3208
 20
60.3334
 11
9.325
 21
60.2
  0
LINE
  8
0
 10
9.325
 20
60.2
 11
9.3208
 21
60.0666
  0
LINE
  8
0
 10
9.3208
 20
60.0666
 11
9.30824
 21
59.9337
  0
LINE
  8
0
 10
9.30824
 20
59.9337
 11
9.28735
 21
59.8018
  0
LINE
  8
0
 10
9.28735
 20
59.8018
 11
9.25822
 21
59.6715
  0
LINE
  8
0
 10
9.25822
 20
59.6715
 11
9.22099
 21
59.5433
  0
LINE
  8
0
 10
9.22099
 20
59.5433
 11
9.17577
 21
59.4177
  0
LINE
  8
0
 10
9.17577
 20
59.4177
 11
9.12276
 21
59.2952
  0
LINE
  8
0
 10
9.12276
 20
59.2952
 11
9.06215
 21
59.1763
  0
LINE
  8
0
 10
9.06215
 20
59.1763
 11
8.99419
 21
59.0614
  0
LINE
  8
0
 10
8.99419
 20
59.0614
 11
8.91916
 21
58.9509
  0
LINE
  8
0
 10
8.91916
 20
58.9509
 11
8.83733
 21
58.8455
  0
LINE
  8
0
 10
8.83733
 20
58.8455
 11
8.74905
 21
58.7453
  0
LINE
  8
0
 10
8.74905
 20
58.7453
 11
8.65465
 21
58.6509
  0
LINE
  8
0
 10
8.65465
 20
58.6509
 11
8.55452
 21
58.5627
  0
LINE
  8
0
 10
8.55452
 20
58.5627
 11
8.44904
 21
58.4808
  0
LINE
  8
0
 10
8.44904
 20
58.4808
 11
8.33862
 21
58.4058
  0
LINE
  8
0
 10
8.33862
 20
58.4058
 11
8.22372
 21
58.3378
  0
LINE
  8
0
 10
8.22372
 20
58.3378
 11
8.10477
 21
58.2772
  0
LINE
  8
0
 10
8.10477
 20
58.2772
 11
7.98225
 21
58.2242
  0
LINE
  8
0
 10
7.98225
 20
58.2242
 11
7.85666
 21
58.179
  0
LINE
  8
0
 10
7.85666
 20
58.179
 11
7.72845
 21
58.1418
  0
LINE
  8
0
 10
7.72845
 20
58.1418
 11
7.59818
 21
58.1126
  0
LINE
  8
0
 10
7.59818
 20
58.1126
 11
7.46632
 21
58.0918
  0
LINE
  8
0
 10
7.46632
 20
58.0918
 11
7.33342
 21
58.0792
  0
LINE
  8
0
 10
7.33342
 20
58.0792
 11
7.2
 21
58.075
  0
LINE
  8
0
 10
7.2
 20
58.075
 11
7.06656
 21
58.0792
  0
LINE
  8
0
 10
24.5
 20
51
 11
2
 21
51
  0
LINE
  8
0
 10
2
 20
51
 11
24.5
 21
28.5
  0
LINE
  8
0
 10
24.5
 20
28.5
 11
24.5
 21
51
  0
LINE
  8
0
 10
17.1666
 20
41.6792
 11
17.0337
 21
41.6918
  0
LINE
  8
0
 10
17.0337
 20
41.6918
 11
16.9018
 21
41.7126
  0
LINE
  8
0
 10
16.9018
 20
41.7126
 11
16.7715
 21
41.7418
  0
LINE
  8
0
 10
16.7715
 20
41.7418
 11
16.6433
 21
41.779
  0
LINE
  8
0
 10
16.6433
 20
41.779
 11
16.5177
 21
41.8242
  0
LINE
  8
0
 10
16.5177
 20
41.8242
 11
16.3952
 21
41.8772
  0
LINE
  8
0
 10
16.3952
 20
41.8772
 11
16.2763
 21
41.9379
  0
LINE
  8
0
 10
16.2763
 20
41.9379
 11
16.1614
 21
42.0058
  0
LINE
  8
0
 10
16.1614
 20
42.0058
 11
16.051
 21
42.0808
  0
LINE
  8
0
 10
16.051
 20
42.0808
 11
15.9455
 21
42.1627
  0
LINE
  8
0
 10
15.9455
 20
42.1627
 11
15.8454
 21
42.2509
  0
LINE
  8
0
 10
15.8454
 20
42.2509
 11
15.7509
 21
42.3454
  0
LINE
  8
0
 10
15.7509
 20
42.3454
 11
15.6627
 21
42.4455
  0
LINE
  8
0
 10
15.6627
 20
42.4455
 11
15.5808
 21
42.551
  0
LINE
  8
0
 10
15.5808
 20
42.551
 11
15.5058
 21
42.6614
  0
LINE
  8
0
 10
15.5058
 20
42.6614
 11
15.4379
 21
42.7763
  0
LINE
  8
0
 10
15.4379
 20
42.7763
 11
15.3772
 21
42.8952
  0
LINE
  8
0
 10
15.3772
 20
42.8952
 11
15.3242
 21
43.0177
  0
LINE
  8
0
 10
15.3242
 20
43.0177
 11
15.279
 21
43.1433
  0
LINE
  8
0
 10
15.279
 20
43.1433
 11
15.2418
 21
43.2715
  0
LINE
  8
0
 10
15.2418
 20
43.2715
 11
15.2126
 21
43.4018
  0
LINE
  8
0
 10
15.2126
 20
43.4018
 11
15.1918
 21
43.5337
  0
LINE
  8
0
 10
15.1918
 20
43.5337
 11
15.1792
 21
43.6666
  0
LINE
  8
0
 10
15.1792
 20
43.6666
 11
15.175
 21
43.8
  0
LINE
  8
0
 10
15.175
 20
43.8
 11
15.1792
 21
43.9334
  0
LINE
  8
0
 10
15.1792
 20
43.9334
 11
15.1918
 21
44.0663
  0
LINE
  8
0
 10
15.1918
 20
44.0663
 11
15.2126
 21
44.1982
  0
LINE
  8
0
 10
15.2126
 20
44.1982
 11
15.2418
 21
44.3285
  0
LINE
  8
0
 10
15.2418
 20
44.3285
 11
15.279
 21
44.4567
  0
LINE
  8
0
 10
15.279
 20
44.4567
 11
15.3242
 21
44.5823
  0
LINE
  8
0
 10
15.3242
 20
44.5823
 11
15.3772
 21
44.7048
  0
LINE
  8
0
 10
15.3772
 20
44.7048
 11
15.4379
 21
44.8237
  0
LINE
  8
0
 10
15.4379
 20
44.8237
 11
15.5058
 21
44.9386
  0
LINE
  8
0
 10
15.5058
 20
44.9386
 11
15.5808
 21
45.0491
  0
LINE
  8
0
 10
15.5808
 20
45.0491
 11
15.6627
 21
45.1545
  0
LINE
  8
0
 10
15.6627
 20
45.1545
 11
15.7509
 21
45.2547
  0
LINE
  8
0
 10
15.7509
 20
45.2547
 11
15.8454
 21
45.3491
  0
LINE
  8
0
 10
15.8454
 20
45.3491
 11
15.9455
 21
45.4373
  0
LINE
  8
0
 10
15.9455
 20
45.4373
 11
16.051
 21
45.5192
  0
LINE
  8
0
 10
16.051
 20
45.5192
 11
16.1614
 21
45.5942
  0
LINE
  8
0
 10
16.1614
 20
45.5942
 11
16.2763
 21
45.6622
  0
LINE
  8
0
 10
16.2763
 20
45.6622
 11
16.3952
 21
45.7228
  0
LINE
  8
0
 10
16.3952
 20
45.7228
 11
16.5177
 21
45.7758
  0
LINE
  8
0
 10
16.5177
 20
45.7758
 11
16.6433
 21
45.821
  0
LINE
  8
0
 10
16.6433
 20
45.821
 11
16.7715
 21
45.8582
  0
LINE
  8
0
 10
16.7715
 20
45.8582
 11
16.9018
 21
45.8874
  0
LINE
  8
0
 10
16.9018
 20
45.8874
 11
17.0337
 21
45.9082
  0
LINE
  8
0
 10
17.0337
 20
45.9082
 11
17.1666
 21
45.9208
  0
LINE
  8
0
 10
17.1666
 20
45.9208
 11
17.3
 21
45.925
  0
LINE
  8
0
 10
17.3
 20
45.925
 11
17.4334
 21
45.9208
  0
LINE
  8
0
 10
17.4334
 20
45.9208
 11
17.5663
 21
45.9082
  0
LINE
  8
0
 10
17.5663
 20
45.9082
 11
17.6982
 21
45.8874
  0
LINE
  8
0
 10
17.6982
 20
45.8874
 11
17.8285
 21
45.8582
  0
LINE
  8
0
 10
17.8285
 20
45.8582
 11
17.9567
 21
45.821
  0
LINE
  8
0
 10
17.9567
 20
45.821
 11
18.0823
 21
45.7758
  0
LINE
  8
0
 10
18.0823
 20
45.7758
 11
18.2048
 21
45.7228
  0
LINE
  8
0
 10
18.2048
 20
45.7228
 11
18.3237
 21
45.6622
  0
LINE
  8
0
 10
18.3237
 20
45.6622
 11
18.4386
 21
45.5942
  0
LINE
  8
0
 10
18.4386
 20
45.5942
 11
18.5491
 21
45.5192
  0
LINE
  8
0
 10
18.5491
 20
45.5192
 11
18.6545
 21
45.4373
  0
LINE
  8
0
 10
18.6545
 20
45.4373
 11
18.7547
 21
45.3491
  0
LINE
  8
0
 10
18.7547
 20
45.3491
 11
18.8491
 21
45.2547
  0
LINE
  8
0
 10
18.8491
 20
45.2547
 11
18.9373
 21
45.1545
  0
LINE
  8
0
 10
18.9373
 20
45.1545
 11
19.0192
 21
45.0491
  0
LINE
  8
0
 10
19.0192
 20
45.0491
 11
19.0942
 21
44.9386
  0
LINE
  8
0
 10
19.0942
 20
44.9386
 11
19.1622
 21
44.8237
  0
LINE
  8
0
 10
19.1622
 20
44.8237
 11
19.2228
 21
44.7048
  0
LINE
  8
0
 10
19.2228
 20
44.7048
 11
19.2758
 21
44.5823
  0
LINE
  8
0
 10
19.2758
 20
44.5823
 11
19.321
 21
44.4567
  0
LINE
  8
0
 10
19.321
 20
44.4567
 11
19.3582
 21
44.3285
  0
LINE
  8
0
 10
19.3582
 20
44.3285
 11
19.3874
 21
44.1982
  0
LINE
  8
0
 10
19.3874
 20
44.1982
 11
19.4082
 21
44.0663
  0
LINE
  8
0
 10
19.4082
 20
44.0663
 11
19.4208
 21
43.9334
  0
LINE
  8
0
 10
19.4208
 20
43.9334
 11
19.425
 21
43.8
  0
LINE
  8
0
 10
19.425
 20
43.8
 11
19.4208
 21
43.6666
  0
LINE
  8
0
 10
19.4208
 20
43.6666
 11
19.4082
 21
43.5337
  0
LINE
  8
0
 10
19.4082
 20
43.5337
 11
19.3874
 21
43.4018
  0
LINE
  8
0
 10
19.3874
 20
43.4018
 11
19.3582
 21
43.2715
  0
LINE
  8
0
 10
19.3582
 20
43.2715
 11
19.321
 21
43.1433
  0
LINE
  8
0
 10
19.321
 20
43.1433
 11
19.2758
 21
43.0177
  0
LINE
  8
0
 10
19.2758
 20
43.0177
 11
19.2228
 21
42.8952
  0
LINE
  8
0
 10
19.2228
 20
42.8952
 11
19.1622
 21
42.7763
  0
LINE
  8
0
 10
19.1622
 20
42.7763
 11
19.0942
 21
42.6614
  0
LINE
  8
0
 10
19.0942
 20
42.6614
 11
19.0192
 21
42.551
  0
LINE
  8
0
 10
19.0192
 20
42.551
 11
18.9373
 21
42.4455
  0
LINE
  8
0
 10
18.9373
 20
42.4455
 11
18.8491
 21
42.3454
  0
LINE
  8
0
 10
18.8491
 20
42.3454
 11
18.7547
 21
42.2509
  0
LINE
  8
0
 10
18.7547
 20
42.2509
 11
18.6545
 21
42.1627
  0
LINE
  8
0
 10
18.6545
 20
42.1627
 11
18.5491
 21
42.0808
  0
LINE
  8
0
 10
18.5491
 20
42.0808
 11
18.4386
 21
42.0058
  0
LINE
  8
0
 10
18.4386
 20
42.0058
 11
18.3237
 21
41.9379
  0
LINE
  8
0
 10
18.3237
 20
41.9379
 11
18.2048
 21
41.8772
  0
LINE
  8
0
 10
18.2048
 20
41.8772
 11
18.0823
 21
41.8242
  0
LINE
  8
0
 10
18.0823
 20
41.8242
 11
17.9567
 21
41.779
  0
LINE
  8
0
 10
17.9567
 20
41.779
 11
17.8285
 21
41.7418
  0
LINE
  8
0
 10
17.8285
 20
41.7418
 11
17.6982
 21
41.7126
  0
LINE
  8
0
 10
17.6982
 20
41.7126
 11
17.5663
 21
41.6918
  0
LINE
  8
0
 10
17.5663
 20
41.6918
 11
17.4334
 21
41.6792
  0
LINE
  8
0
 10
17.4334
 20
41.6792
 11
17.3
 21
41.675
  0
LINE
  8
0
 10
17.3
 20
41.675
 11
17.1666
 21
41.6792
  0
LINE
  8
0
 10
77.5
 20
51
 11
55
 21
51
  0
LINE
  8
0
 10
55
 20
51
 11
77.5
 21
28.5
  0
LINE
  8
0
 10
77.5
 20
28.5
 11
77.5
 21
51
  0
LINE
  8
0
 10
70.1666
 20
41.6792
 11
70.0337
 21
41.6918
  0
LINE
  8
0
 10
70.0337
 20
41.6918
 11
69.9018
 21
41.7126
  0
LINE
  8
0
 10
69.9018
 20
41.7126
 11
69.7715
 21
41.7418
  0
LINE
  8
0
 10
69.7715
 20
41.7418
 11
69.6433
 21
41.779
  0
LINE
  8
0
 10
69.6433
 20
41.779
 11
69.5177
 21
41.8242
  0
LINE
  8
0
 10
69.5177
 20
41.8242
 11
69.3952
 21
41.8772
  0
LINE
  8
0
 10
69.3952
 20
41.8772
 11
69.2763
 21
41.9379
  0
LINE
  8
0
 10
69.2763
 20
41.9379
 11
69.1614
 21
42.0058
  0
LINE
  8
0
 10
69.1614
 20
42.0058
 11
69.051
 21
42.0808
  0
LINE
  8
0
 10
69.051
 20
42.0808
 11
68.9455
 21
42.1627
  0
LINE
  8
0
 10
68.9455
 20
42.1627
 11
68.8454
 21
42.2509
  0
LINE
  8
0
 10
68.8454
 20
42.2509
 11
68.7509
 21
42.3454
  0
LINE
  8
0
 10
68.7509
 20
42.3454
 11
68.6627
 21
42.4455
  0
LINE
  8
0
 10
68.6627
 20
42.4455
 11
68.5808
 21
42.551
  0
LINE
  8
0
 10
68.5808
 20
42.551
 11
68.5058
 21
42.6614
  0
LINE
  8
0
 10
68.5058
 20
42.6614
 11
68.4379
 21
42.7763
  0
LINE
  8
0
 10
68.4379
 20
42.7763
 11
68.3772
 21
42.8952
  0
LINE
  8
0
 10
68.3772
 20
42.8952
 11
68.3242
 21
43.0177
  0
LINE
  8
0
 10
68.3242
 20
43.0177
 11
68.279
 21
43.1433
  0
LINE
  8
0
 10
68.279
 20
43.1433
 11
68.2418
 21
43.2715
  0
LINE
  8
0
 10
68.2418
 20
43.2715
 11
68.2126
 21
43.4018
  0
LINE
  8
0
 10
68.2126
 20
43.4018
 11
68.1918
 21
43.5337
  0
LINE
  8
0
 10
68.1918
 20
43.5337
 11
68.1792
 21
43.6666
  0
LINE
  8
0
 10
68.1792
 20
43.6666
 11
68.175
 21
43.8
  0
LINE
  8
0
 10
68.175
 20
43.8
 11
68.1792
 21
43.9334
  0
LINE
  8
0
 10
68.1792
 20
43.9334
 11
68.1918
 21
44.0663
  0
LINE
  8
0
 10
68.1918
 20
44.0663
 11
68.2126
 21
44.1982
  0
LINE
  8
0
 10
68.2126
 20
44.1982
 11
68.2418
 21
44.3285
  0
LINE
  8
0
 10
68.2418
 20
44.3285
 11
68.279
 21
44.4567
  0
LINE
  8
0
 10
68.279
 20
44.4567
 11
68.3242
 21
44.5823
  0
LINE
  8
0
 10
68.3242
 20
44.5823
 11
68.3772
 21
44.7048
  0
LINE
  8
0
 10
68.3772
 20
44.7048
 11
68.4379
 21
44.8237
  0
LINE
  8
0
 10
68.4379
 20
44.8237
 11
68.5058
 21
44.9386
  0
LINE
  8
0
 10
68.5058
 20
44.9386
 11
68.5808
 21
45.0491
  0
LINE
  8
0
 10
68.5808
 20
45.0491
 11
68.6627
 21
45.1545
  0
LINE
  8
0
 10
68.6627
 20
45.1545
 11
68.7509
 21
45.2547
  0
LINE
  8
0
 10
68.7509
 20
45.2547
 11
68.8454
 21
45.3491
  0
LINE
  8
0
 10
68.8454
 20
45.3491
 11
68.9455
 21
45.4373
  0
LINE
  8
0
 10
68.9455
 20
45.4373
 11
69.051
 21
45.5192
  0
LINE
  8
0
 10
69.051
 20
45.5192
 11
69.1614
 21
45.5942
  0
LINE
  8
0
 10
69.1614
 20
45.5942
 11
69.2763
 21
45.6622
  0
LINE
  8
0
 10
69.2763
 20
45.6622
 11
69.3952
 21
45.7228
  0
LINE
  8
0
 10
69.3952
 20
45.7228
 11
69.5177
 21
45.7758
  0
LINE
  8
0
 10
69.5177
 20
45.7758
 11
69.6433
 21
45.821
  0
LINE
  8
0
 10
69.6433
 20
45.821
 11
69.7715
 21
45.8582
  0
LINE
  8
0
 10
69.7715
 20
45.8582
 11
69.9018
 21
45.8874
  0
LINE
  8
0
 10
69.9018
 20
45.8874
 11
70.0337
 21
45.9082
  0
LINE
  8
0
 10
70.0337
 20
45.9082
 11
70.1666
 21
45.9208
  0
LINE
  8
0
 10
70.1666
 20
45.9208
 11
70.3
 21
45.925
  0
LINE
  8
0
 10
70.3
 20
45.925
 11
70.4334
 21
45.9208
  0
LINE
  8
0
 10
70.4334
 20
45.9208
 11
70.5663
 21
45.9082
  0
LINE
  8
0
 10
70.5663
 20
45.9082
 11
70.6982
 21
45.8874
  0
LINE
  8
0
 10
70.6982
 20
45.8874
 11
70.8285
 21
45.8582
  0
LINE
  8
0
 10
70.8285
 20
45.8582
 11
70.9567
 21
45.821
  0
LINE
  8
0
 10
70.9567
 20
45.821
 11
71.0823
 21
45.7758
  0
LINE
  8
0
 10
71.0823
 20
45.7758
 11
71.2048
 21
45.7228
  0
LINE
  8
0
 10
71.2048
 20
45.7228
 11
71.3237
 21
45.6622
  0
LINE
  8
0
 10
71.3237
 20
45.6622
 11
71.4386
 21
45.5942
  0
LINE
  8
0
 10
71.4386
 20
45.5942
 11
71.5491
 21
45.5192
  0
LINE
  8
0
 10
71.5491
 20
45.5192
 11
71.6545
 21
45.4373
  0
LINE
  8
0
 10
71.6545
 20
45.4373
 11
71.7547
 21
45.3491
  0
LINE
  8
0
 10
71.7547
 20
45.3491
 11
71.8491
 21
45.2547
  0
LINE
  8
0
 10
71.8491
 20
45.2547
 11
71.9373
 21
45.1545
  0
LINE
  8
0
 10
71.9373
 20
45.1545
 11
72.0192
 21
45.0491
  0
LINE
  8
0
 10
72.0192
 20
45.0491
 11
72.0942
 21
44.9386
  0
LINE
  8
0
 10
72.0942
 20
44.9386
 11
72.1622
 21
44.8237
  0
LINE
  8
0
 10
72.1622
 20
44.8237
 11
72.2228
 21
44.7048
  0
LINE
  8
0
 10
72.2228
 20
44.7048
 11
72.2758
 21
44.5823
  0
LINE
  8
0
 10
72.2758
 20
44.5823
 11
72.321
 21
44.4567
  0
LINE
  8
0
 10
72.321
 20
44.4567
 11
72.3582
 21
44.3285
  0
LINE
  8
0
 10
72.3582
 20
44.3285
 11
72.3874
 21
44.1982
  0
LINE
  8
0
 10
72.3874
 20
44.1982
 11
72.4082
 21
44.0663
  0
LINE
  8
0
 10
72.4082
 20
44.0663
 11
72.4208
 21
43.9334
  0
LINE
  8
0
 10
72.4208
 20
43.9334
 11
72.425
 21
43.8
  0
LINE
  8
0
 10
72.425
 20
43.8
 11
72.4208
 21
43.6666
  0
LINE
  8
0
 10
72.4208
 20
43.6666
 11
72.4082
 21
43.5337
  0
LINE
  8
0
 10
72.4082
 20
43.5337
 11
72.3874
 21
43.4018
  0
LINE
  8
0
 10
72.3874
 20
43.4018
 11
72.3582
 21
43.2715
  0
LINE
  8
0
 10
72.3582
 20
43.2715
 11
72.321
 21
43.1433
  0
LINE
  8
0
 10
72.321
 20
43.1433
 11
72.2758
 21
43.0177
  0
LINE
  8
0
 10
72.2758
 20
43.0177
 11
72.2228
 21
42.8952
  0
LINE
  8
0
 10
72.2228
 20
42.8952
 11
72.1622
 21
42.7763
  0
LINE
  8
0
 10
72.1622
 20
42.7763
 11
72.0942
 21
42.6614
  0
LINE
  8
0
 10
72.0942
 20
42.6614
 11
72.0192
 21
42.551
  0
LINE
  8
0
 10
72.0192
 20
42.551
 11
71.9373
 21
42.4455
  0
LINE
  8
0
 10
71.9373
 20
42.4455
 11
71.8491
 21
42.3454
  0
LINE
  8
0
 10
71.8491
 20
42.3454
 11
71.7547
 21
42.2509
  0
LINE
  8
0
 10
71.7547
 20
42.2509
 11
71.6545
 21
42.1627
  0
LINE
  8
0
 10
71.6545
 20
42.1627
 11
71.5491
 21
42.0808
  0
LINE
  8
0
 10
71.5491
 20
42.0808
 11
71.4386
 21
42.0058
  0
LINE
  8
0
 10
71.4386
 20
42.0058
 11
71.3237
 21
41.9379
  0
LINE
  8
0
 10
71.3237
 20
41.9379
 11
71.2048
 21
41.8772
  0
LINE
  8
0
 10
71.2048
 20
41.8772
 11
71.0823
 21
41.8242
  0
LINE
  8
0
 10
71.0823
 20
41.8242
 11
70.9567
 21
41.779
  0
LINE
  8
0
 10
70.9567
 20
41.779
 11
70.8285
 21
41.7418
  0
LINE
  8
0
 10
70.8285
 20
41.7418
 11
70.6982
 21
41.7126
  0
LINE
  8
0
 10
70.6982
 20
41.7126
 11
70.5663
 21
41.6918
  0
LINE
  8
0
 10
70.5663
 20
41.6918
 11
70.4334
 21
41.6792
  0
LINE
  8
0
 10
70.4334
 20
41.6792
 11
70.3
 21
41.675
  0
LINE
  8
0
 10
70.3
 20
41.675
 11
70.1666
 21
41.6792
  0
LINE
  8
0
 10
51
 20
51
 11
28.5
 21
51
  0
LINE
  8
0
 10
28.5
 20
51
 11
51
 21
28.5
  0
LINE
  8
0
 10
51
 20
28.5
 11
51
 21
51
  0
LINE
  8
0
 10
43.6666
 20
41.6792
 11
43.5337
 21
41.6918
  0
LINE
  8
0
 10
43.5337
 20
41.6918
 11
43.4018
 21
41.7126
  0
LINE
  8
0
 10
43.4018
 20
41.7126
 11
43.2715
 21
41.7418
  0
LINE
  8
0
 10
43.2715
 20
41.7418
 11
43.1433
 21
41.779
  0
LINE
  8
0
 10
43.1433
 20
41.779
 11
43.0177
 21
41.8242
  0
LINE
  8
0
 10
43.0177
 20
41.8242
 11
42.8952
 21
41.8772
  0
LINE
  8
0
 10
42.8952
 20
41.8772
 11
42.7763
 21
41.9379
  0
LINE
  8
0
 10
42.7763
 20
41.9379
 11
42.6614
 21
42.0058
  0
LINE
  8
0
 10
42.6614
 20
42.0058
 11
42.551
 21
42.0808
  0
LINE
  8
0
 10
42.551
 20
42.0808
 11
42.4455
 21
42.1627
  0
LINE
  8
0
 10
42.4455
 20
42.1627
 11
42.3454
 21
42.2509
  0
LINE
  8
0
 10
42.3454
 20
42.2509
 11
42.2509
 21
42.3454
  0
LINE
  8
0
 10
42.2509
 20
42.3454
 11
42.1627
 21
42.4455
  0
LINE
  8
0
 10
42.1627
 20
42.4455
 11
42.0808
 21
42.551
  0
LINE
  8
0
 10
42.0808
 20
42.551
 11
42.0058
 21
42.6614
  0
LINE
  8
0
 10
42.0058
 20
42.6614
 11
41.9379
 21
42.7763
  0
LINE
  8
0
 10
41.9379
 20
42.7763
 11
41.8772
 21
42.8952
  0
LINE
  8
0
 10
41.8772
 20
42.8952
 11
41.8242
 21
43.0177
  0
LINE
  8
0
 10
41.8242
 20
43.0177
 11
41.779
 21
43.1433
  0
LINE
  8
0
 10
41.779
 20
43.1433
 11
41.7418
 21
43.2715
  0
LINE
  8
0
 10
41.7418
 20
43.2715
 11
41.7126
 21
43.4018
  0
LINE
  8
0
 10
41.7126
 20
43.4018
 11
41.6918
 21
43.5337
  0
LINE
  8
0
 10
41.6918
 20
43.5337
 11
41.6792
 21
43.6666
  0
LINE
  8
0
 10
41.6792
 20
43.6666
 11
41.675
 21
43.8
  0
LINE
  8
0
 10
41.675
 20
43.8
 11
41.6792
 21
43.9334
  0
LINE
  8
0
 10
41.6792
 20
43.9334
 11
41.6918
 21
44.0663
  0
LINE
  8
0
 10
41.6918
 20
44.0663
 11
41.7126
 21
44.1982
  0
LINE
  8
0
 10
41.7126
 20
44.1982
 11
41.7418
 21
44.3285
  0
LINE
  8
0
 10
41.7418
 20
44.3285
 11
41.779
 21
44.4567
  0
LINE
  8
0
 10
41.779
 20
44.4567
 11
41.8242
 21
44.5823
  0
LINE
  8
0
 10
41.8242
 20
44.5823
 11
41.8772
 21
44.7048
  0
LINE
  8
0
 10
41.8772
 20
44.7048
 11
41.9379
 21
44.8237
  0
LINE
  8
0
 10
41.9379
 20
44.8237
 11
42.0058
 21
44.9386
  0
LINE
  8
0
 10
42.0058
 20
44.9386
 11
42.0808
 21
45.0491
  0
LINE
  8
0
 10
42.0808
 20
45.0491
 11
42.1627
 21
45.1545
  0
LINE
  8
0
 10
42.1627
 20
45.1545
 11
42.2509
 21
45.2547
  0
LINE
  8
0
 10
42.2509
 20
45.2547
 11
42.3454
 21
45.3491
  0
LINE
  8
0
 10
42.3454
 20
45.3491
 11
42.4455
 21
45.4373
  0
LINE
  8
0
 10
42.4455
 20
45.4373
 11
42.551
 21
45.5192
  0
LINE
  8
0
 10
42.551
 20
45.5192
 11
42.6614
 21
45.5942
  0
LINE
  8
0
 10
42.6614
 20
45.5942
 11
42.7763
 21
45.6622
  0
LINE
  8
0
 10
42.7763
 20
45.6622
 11
42.8952
 21
45.7228
  0
LINE
  8
0
 10
42.8952
 20
45.7228
 11
43.0177
 21
45.7758
  0
LINE
  8
0
 10
43.0177
 20
45.7758
 11
43.1433
 21
45.821
  0
LINE
  8
0
 10
43.1433
 20
45.821
 11
43.2715
 21
45.8582
  0
LINE
  8
0
 10
43.2715
 20
45.8582
 11
43.4018
 21
45.8874
  0
LINE
  8
0
 10
43.4018
 20
45.8874
 11
43.5337
 21
45.9082
  0
LINE
  8
0
 10
43.5337
 20
45.9082
 11
43.6666
 21
45.9208
  0
LINE
  8
0
 10
43.6666
 20
45.9208
 11
43.8
 21
45.925
  0
LINE
  8
0
 10
43.8
 20
45.925
 11
43.9334
 21
45.9208
  0
LINE
  8
0
 10
43.9334
 20
45.9208
 11
44.0663
 21
45.9082
  0
LINE
  8
0
 10
44.0663
 20
45.9082
 11
44.1982
 21
45.8874
  0
LINE
  8
0
 10
44.1982
 20
45.8874
 11
44.3285
 21
45.8582
  0
LINE
  8
0
 10
44.3285
 20
45.8582
 11
44.4567
 21
45.821
  0
LINE
  8
0
 10
44.4567
 20
45.821
 11
44.5823
 21
45.7758
  0
LINE
  8
0
 10
44.5823
 20
45.7758
 11
44.7048
 21
45.7228
  0
LINE
  8
0
 10
44.7048
 20
45.7228
 11
44.8237
 21
45.6622
  0
LINE
  8
0
 10
44.8237
 20
45.6622
 11
44.9386
 21
45.5942
  0
LINE
  8
0
 10
44.9386
 20
45.5942
 11
45.0491
 21
45.5192
  0
LINE
  8
0
 10
45.0491
 20
45.5192
 11
45.1545
 21
45.4373
  0
LINE
  8
0
 10
45.1545
 20
45.4373
 11
45.2547
 21
45.3491
  0
LINE
  8
0
 10
45.2547
 20
45.3491
 11
45.3491
 21
45.2547
  0
LINE
  8
0
 10
45.3491
 20
45.2547
 11
45.4373
 21
45.1545
  0
LINE
  8
0
 10
45.4373
 20
45.1545
 11
45.5192
 21
45.0491
  0
LINE
  8
0
 10
45.5192
 20
45.0491
 11
45.5942
 21
44.9386
  0
LINE
  8
0
 10
45.5942
 20
44.9386
 11
45.6622
 21
44.8237
  0
LINE
  8
0
 10
45.6622
 20
44.8237
 11
45.7228
 21
44.7048
  0
LINE
  8
0
 10
45.7228
 20
44.7048
 11
45.7758
 21
44.5823
  0
LINE
  8
0
 10
45.7758
 20
44.5823
 11
45.821
 21
44.4567
  0
LINE
  8
0
 10
45.821
 20
44.4567
 11
45.8582
 21
44.3285
  0
LINE
  8
0
 10
45.8582
 20
44.3285
 11
45.8874
 21
44.1982
  0
LINE
  8
0
 10
45.8874
 20
44.1982
 11
45.9082
 21
44.0663
  0
LINE
  8
0
 10
45.9082
 20
44.0663
 11
45.9208
 21
43.9334
  0
LINE
  8
0
 10
45.9208
 20
43.9334
 11
45.925
 21
43.8
  0
LINE
  8
0
 10
45.925
 20
43.8
 11
45.9208
 21
43.6666
  0
LINE
  8
0
 10
45.9208
 20
43.6666
 11
45.9082
 21
43.5337
  0
LINE
  8
0
 10
45.9082
 20
43.5337
 11
45.8874
 21
43.4018
  0
LINE
  8
0
 10
45.8874
 20
43.4018
 11
45.8582
 21
43.2715
  0
LINE
  8
0
 10
45.8582
 20
43.2715
 11
45.821
 21
43.1433
  0
LINE
  8
0
 10
45.821
 20
43.1433
 11
45.7758
 21
43.0177
  0
LINE
  8
0
 10
45.7758
 20
43.0177
 11
45.7228
 21
42.8952
  0
LINE
  8
0
 10
45.7228
 20
42.8952
 11
45.6622
 21
42.7763
  0
LINE
  8
0
 10
45.6622
 20
42.7763
 11
45.5942
 21
42.6614
  0
LINE
  8
0
 10
45.5942
 20
42.6614
 11
45.5192
 21
42.551
  0
LINE
  8
0
 10
45.5192
 20
42.551
 11
45.4373
 21
42.4455
  0
LINE
  8
0
 10
45.4373
 20
42.4455
 11
45.3491
 21
42.3454
  0
LINE
  8
0
 10
45.3491
 20
42.3454
 11
45.2547
 21
42.2509
  0
LINE
  8
0
 10
45.2547
 20
42.2509
 11
45.1545
 21
42.1627
  0
LINE
  8
0
 10
45.1545
 20
42.1627
 11
45.0491
 21
42.0808
  0
LINE
  8
0
 10
45.0491
 20
42.0808
 11
44.9386
 21
42.0058
  0
LINE
  8
0
 10
44.9386
 20
42.0058
 11
44.8237
 21
41.9379
  0
LINE
  8
0
 10
44.8237
 20
41.9379
 11
44.7048
 21
41.8772
  0
LINE
  8
0
 10
44.7048
 20
41.8772
 11
44.5823
 21
41.8242
  0
LINE
  8
0
 10
44.5823
 20
41.8242
 11
44.4567
 21
41.779
  0
LINE
  8
0
 10
44.4567
 20
41.779
 11
44.3285
 21
41.7418
  0
LINE
  8
0
 10
44.3285
 20
41.7418
 11
44.1982
 21
41.7126
  0
LINE
  8
0
 10
44.1982
 20
41.7126
 11
44.0663
 21
41.6918
  0
LINE
  8
0
 10
44.0663
 20
41.6918
 11
43.9334
 21
41.6792
  0
LINE
  8
0
 10
43.9334
 20
41.6792
 11
43.8
 21
41.675
  0
LINE
  8
0
 10
43.8
 20
41.675
 11
43.6666
 21
41.6792
  0
LINE
  8
0
 10
26.5
 20
49
 11
26.5
 21
26.5
  0
LINE
  8
0
 10
26.5
 20
26.5
 11
49
 21
26.5
  0
LINE
  8
0
 10
49
 20
26.5
 11
26.5
 21
49
  0
LINE
  8
0
 10
33.5666
 20
31.5792
 11
33.4337
 21
31.5918
  0
LINE
  8
0
 10
33.4337
 20
31.5918
 11
33.3018
 21
31.6126
  0
LINE
  8
0
 10
33.3018
 20
31.6126
 11
33.1715
 21
31.6418
  0
LINE
  8
0
 10
33.1715
 20
31.6418
 11
33.0433
 21
31.679
  0
LINE
  8
0
 10
33.0433
 20
31.679
 11
32.9177
 21
31.7242
  0
LINE
  8
0
 10
32.9177
 20
31.7242
 11
32.7952
 21
31.7772
  0
LINE
  8
0
 10
32.7952
 20
31.7772
 11
32.6763
 21
31.8378
  0
LINE
  8
0
 10
32.6763
 20
31.8378
 11
32.5614
 21
31.9058
  0
LINE
  8
0
 10
32.5614
 20
31.9058
 11
32.4509
 21
31.9808
  0
LINE
  8
0
 10
32.4509
 20
31.9808
 11
32.3455
 21
32.0627
  0
LINE
  8
0
 10
32.3455
 20
32.0627
 11
32.2453
 21
32.1509
  0
LINE
  8
0
 10
32.2453
 20
32.1509
 11
32.1509
 21
32.2453
  0
LINE
  8
0
 10
32.1509
 20
32.2453
 11
32.0627
 21
32.3455
  0
LINE
  8
0
 10
32.0627
 20
32.3455
 11
31.9808
 21
32.4509
  0
LINE
  8
0
 10
31.9808
 20
32.4509
 11
31.9058
 21
32.5614
  0
LINE
  8
0
 10
31.9058
 20
32.5614
 11
31.8378
 21
32.6763
  0
LINE
  8
0
 10
31.8378
 20
32.6763
 11
31.7772
 21
32.7952
  0
LINE
  8
0
 10
31.7772
 20
32.7952
 11
31.7242
 21
32.9177
  0
LINE
  8
0
 10
31.7242
 20
32.9177
 11
31.679
 21
33.0433
  0
LINE
  8
0
 10
31.679
 20
33.0433
 11
31.6418
 21
33.1715
  0
LINE
  8
0
 10
31.6418
 20
33.1715
 11
31.6126
 21
33.3018
  0
LINE
  8
0
 10
31.6126
 20
33.3018
 11
31.5918
 21
33.4337
  0
LINE
  8
0
 10
31.5918
 20
33.4337
 11
31.5792
 21
33.5666
  0
LINE
  8
0
 10
31.5792
 20
33.5666
 11
31.575
 21
33.7
  0
LINE
  8
0
 10
31.575
 20
33.7
 11
31.5792
 21
33.8334
  0
LINE
  8
0
 10
31.5792
 20
33.8334
 11
31.5918
 21
33.9663
  0
LINE
  8
0
 10
31.5918
 20
33.9663
 11
31.6126
 21
34.0982
  0
LINE
  8
0
 10
31.6126
 20
34.0982
 11
31.6418
 21
34.2285
  0
LINE
  8
0
 10
31.6418
 20
34.2285
 11
31.679
 21
34.3567
  0
LINE
  8
0
 10
31.679
 20
34.3567
 11
31.7242
 21
34.4823
  0
LINE
  8
0
 10
31.7242
 20
34.4823
 11
31.7772
 21
34.6048
  0
LINE
  8
0
 10
31.7772
 20
34.6048
 11
31.8378
 21
34.7237
  0
LINE
  8
0
 10
31.8378
 20
34.7237
 11
31.9058
 21
34.8386
  0
LINE
  8
0
 10
31.9058
 20
34.8386
 11
31.9808
 21
34.949
  0
LINE
  8
0
 10
31.9808
 20
34.949
 11
32.0627
 21
35.0545
  0
LINE
  8
0
 10
32.0627
 20
35.0545
 11
32.1509
 21
35.1546
  0
LINE
  8
0
 10
32.1509
 20
35.1546
 11
32.2453
 21
35.2491
  0
LINE
  8
0
 10
32.2453
 20
35.2491
 11
32.3455
 21
35.3373
  0
LINE
  8
0
 10
32.3455
 20
35.3373
 11
32.4509
 21
35.4192
  0
LINE
  8
0
 10
32.4509
 20
35.4192
 11
32.5614
 21
35.4942
  0
LINE
  8
0
 10
32.5614
 20
35.4942
 11
32.6763
 21
35.5621
  0
LINE
  8
0
 10
32.6763
 20
35.5621
 11
32.7952
 21
35.6228
  0
LINE
  8
0
 10
32.7952
 20
35.6228
 11
32.9177
 21
35.6758
  0
LINE
  8
0
 10
32.9177
 20
35.6758
 11
33.0433
 21
35.721
  0
LINE
  8
0
 10
33.0433
 20
35.721
 11
33.1715
 21
35.7582
  0
LINE
  8
0
 10
33.1715
 20
35.7582
 11
33.3018
 21
35.7874
  0
LINE
  8
0
 10
33.3018
 20
35.7874
 11
33.4337
 21
35.8082
  0
LINE
  8
0
 10
33.4337
 20
35.8082
 11
33.5666
 21
35.8208
  0
LINE
  8
0
 10
33.5666
 20
35.8208
 11
33.7
 21
35.825
  0
LINE
  8
0
 10
33.7
 20
35.825
 11
33.8334
 21
35.8208
  0
LINE
  8
0
 10
33.8334
 20
35.8208
 11
33.9663
 21
35.8082
  0
LINE
  8
0
 10
33.9663
 20
35.8082
 11
34.0982
 21
35.7874
  0
LINE
  8
0
 10
34.0982
 20
35.7874
 11
34.2285
 21
35.7582
  0
LINE
  8
0
 10
34.2285
 20
35.7582
 11
34.3567
 21
35.721
  0
LINE
  8
0
 10
34.3567
 20
35.721
 11
34.4823
 21
35.6758
  0
LINE
  8
0
 10
34.4823
 20
35.6758
 11
34.6048
 21
35.6228
  0
LINE
  8
0
 10
34.6048
 20
35.6228
 11
34.7237
 21
35.5621
  0
LINE
  8
0
 10
34.7237
 20
35.5621
 11
34.8386
 21
35.4942
  0
LINE
  8
0
 10
34.8386
 20
35.4942
 11
34.949
 21
35.4192
  0
LINE
  8
0
 10
34.949
 20
35.4192
 11
35.0545
 21
35.3373
  0
LINE
  8
0
 10
35.0545
 20
35.3373
 11
35.1546
 21
35.2491
  0
LINE
  8
0
 10
35.1546
 20
35.2491
 11
35.2491
 21
35.1546
  0
LINE
  8
0
 10
35.2491
 20
35.1546
 11
35.3373
 21
35.0545
  0
LINE
  8
0
 10
35.3373
 20
35.0545
 11
35.4192
 21
34.949
  0
LINE
  8
0
 10
35.4192
 20
34.949
 11
35.4942
 21
34.8386
  0
LINE
  8
0
 10
35.4942
 20
34.8386
 11
35.5621
 21
34.7237
  0
LINE
  8
0
 10
35.5621
 20
34.7237
 11
35.6228
 21
34.6048
  0
LINE
  8
0
 10
35.6228
 20
34.6048
 11
35.6758
 21
34.4823
  0
LINE
  8
0
 10
35.6758
 20
34.4823
 11
35.721
 21
34.3567
  0
LINE
  8
0
 10
35.721
 20
34.3567
 11
35.7582
 21
34.2285
  0
LINE
  8
0
 10
35.7582
 20
34.2285
 11
35.7874
 21
34.0982
  0
LINE
  8
0
 10
35.7874
 20
34.0982
 11
35.8082
 21
33.9663
  0
LINE
  8
0
 10
35.8082
 20
33.9663
 11
35.8208
 21
33.8334
  0
LINE
  8
0
 10
35.8208
 20
33.8334
 11
35.825
 21
33.7
  0
LINE
  8
0
 10
35.825
 20
33.7
 11
35.8208
 21
33.5666
  0
LINE
  8
0
 10
35.8208
 20
33.5666
 11
35.8082
 21
33.4337
  0
LINE
  8
0
 10
35.8082
 20
33.4337
 11
35.7874
 21
33.3018
  0
LINE
  8
0
 10
35.7874
 20
33.3018
 11
35.7582
 21
33.1715
  0
LINE
  8
0
 10
35.7582
 20
33.1715
 11
35.721
 21
33.0433
  0
LINE
  8
0
 10
35.721
 20
33.0433
 11
35.6758
 21
32.9177
  0
LINE
  8
0
 10
35.6758
 20
32.9177
 11
35.6228
 21
32.7952
  0
LINE
  8
0
 10
35.6228
 20
32.7952
 11
35.5621
 21
32.6763
  0
LINE
  8
0
 10
35.5621
 20
32.6763
 11
35.4942
 21
32.5614
  0
LINE
  8
0
 10
35.4942
 20
32.5614
 11
35.4192
 21
32.4509
  0
LINE
  8
0
 10
35.4192
 20
32.4509
 11
35.3373
 21
32.3455
  0
LINE
  8
0
 10
35.3373
 20
32.3455
 11
35.2491
 21
32.2453
  0
LINE
  8
0
 10
35.2491
 20
32.2453
 11
35.1546
 21
32.1509
  0
LINE
  8
0
 10
35.1546
 20
32.1509
 11
35.0545
 21
32.0627
  0
LINE
  8
0
 10
35.0545
 20
32.0627
 11
34.949
 21
31.9808
  0
LINE
  8
0
 10
34.949
 20
31.9808
 11
34.8386
 21
31.9058
  0
LINE
  8
0
 10
34.8386
 20
31.9058
 11
34.7237
 21
31.8378
  0
LINE
  8
0
 10
34.7237
 20
31.8378
 11
34.6048
 21
31.7772
  0
LINE
  8
0
 10
34.6048
 20
31.7772
 11
34.4823
 21
31.7242
  0
LINE
  8
0
 10
34.4823
 20
31.7242
 11
34.3567
 21
31.679
  0
LINE
  8
0
 10
34.3567
 20
31.679
 11
34.2285
 21
31.6418
  0
LINE
  8
0
 10
34.2285
 20
31.6418
 11
34.0982
 21
31.6126
  0
LINE
  8
0
 10
34.0982
 20
31.6126
 11
33.9663
 21
31.5918
  0
LINE
  8
0
 10
33.9663
 20
31.5918
 11
33.8334
 21
31.5792
  0
LINE
  8
0
 10
33.8334
 20
31.5792
 11
33.7
 21
31.575
  0
LINE
  8
0
 10
33.7
 20
31.575
 11
33.5666
 21
31.5792
  0
LINE
  8
0
 10
53
 20
49
 11
53
 21
26.5
  0
LINE
  8
0
 10
53
 20
26.5
 11
75.5
 21
26.5
  0
LINE
  8
0
 10
75.5
 20
26.5
 11
53
 21
49
  0
LINE
  8
0
 10
60.0666
 20
31.5792
 11
59.9337
 21
31.5918
  0
LINE
  8
0
 10
59.9337
 20
31.5918
 11
59.8018
 21
31.6126
  0
LINE
  8
0
 10
59.8018
 20
31.6126
 11
59.6715
 21
31.6418
  0
LINE
  8
0
 10
59.6715
 20
31.6418
 11
59.5433
 21
31.679
  0
LINE
  8
0
 10
59.5433
 20
31.679
 11
59.4177
 21
31.7242
  0
LINE
  8
0
 10
59.4177
 20
31.7242
 11
59.2952
 21
31.7772
  0
LINE
  8
0
 10
59.2952
 20
31.7772
 11
59.1763
 21
31.8378
  0
LINE
  8
0
 10
59.1763
 20
31.8378
 11
59.0614
 21
31.9058
  0
LINE
  8
0
 10
59.0614
 20
31.9058
 11
58.9509
 21
31.9808
  0
LINE
  8
0
 10
58.9509
 20
31.9808
 11
58.8455
 21
32.0627
  0
LINE
  8
0
 10
58.8455
 20
32.0627
 11
58.7453
 21
32.1509
  0
LINE
  8
0
 10
58.7453
 20
32.1509
 11
58.6509
 21
32.2453
  0
LINE
  8
0
 10
58.6509
 20
32.2453
 11
58.5627
 21
32.3455
  0
LINE
  8
0
 10
58.5627
 20
32.3455
 11
58.4808
 21
32.4509
  0
LINE
  8
0
 10
58.4808
 20
32.4509
 11
58.4058
 21
32.5614
  0
LINE
  8
0
 10
58.4058
 20
32.5614
 11
58.3378
 21
32.6763
  0
LINE
  8
0
 10
58.3378
 20
32.6763
 11
58.2772
 21
32.7952
  0
LINE
  8
0
 10
58.2772
 20
32.7952
 11
58.2242
 21
32.9177
  0
LINE
  8
0
 10
58.2242
 20
32.9177
 11
58.179
 21
33.0433
  0
LINE
  8
0
 10
58.179
 20
33.0433
 11
58.1418
 21
33.1715
  0
LINE
  8
0
 10
58.1418
 20
33.1715
 11
58.1126
 21
33.3018
  0
LINE
  8
0
 10
58.1126
 20
33.3018
 11
58.0918
 21
33.4337
  0
LINE
  8
0
 10
58.0918
 20
33.4337
 11
58.0792
 21
33.5666
  0
LINE
  8
0
 10
58.0792
 20
33.5666
 11
58.075
 21
33.7
  0
LINE
  8
0
 10
58.075
 20
33.7
 11
58.0792
 21
33.8334
  0
LINE
  8
0
 10
58.0792
 20
33.8334
 11
58.0918
 21
33.9663
  0
LINE
  8
0
 10
58.0918
 20
33.9663
 11
58.1126
 21
34.0982
  0
LINE
  8
0
 10
58.1126
 20
34.0982
 11
58.1418
 21
34.2285
  0
LINE
  8
0
 10
58.1418
 20
34.2285
 11
58.179
 21
34.3567
  0
LINE
  8
0
 10
58.179
 20
34.3567
 11
58.2242
 21
34.4823
  0
LINE
  8
0
 10
58.2242
 20
34.4823
 11
58.2772
 21
34.6048
  0
LINE
  8
0
 10
58.2772
 20
34.6048
 11
58.3378
 21
34.7237
  0
LINE
  8
0
 10
58.3378
 20
34.7237
 11
58.4058
 21
34.8386
  0
LINE
  8
0
 10
58.4058
 20
34.8386
 11
58.4808
 21
34.949
  0
LINE
  8
0
 10
58.4808
 20
34.949
 11
58.5627
 21
35.0545
  0
LINE
  8
0
 10
58.5627
 20
35.0545
 11
58.6509
 21
35.1546
  0
LINE
  8
0
 10
58.6509
 20
35.1546
 11
58.7453
 21
35.2491
  0
LINE
  8
0
 10
58.7453
 20
35.2491
 11
58.8455
 21
35.3373
  0
LINE
  8
0
 10
58.8455
 20
35.3373
 11
58.9509
 21
35.4192
  0
LINE
  8
0
 10
58.9509
 20
35.4192
 11
59.0614
 21
35.4942
  0
LINE
  8
0
 10
59.0614
 20
35.4942
 11
59.1763
 21
35.5621
  0
LINE
  8
0
 10
59.1763
 20
35.5621
 11
59.2952
 21
35.6228
  0
LINE
  8
0
 10
59.2952
 20
35.6228
 11
59.4177
 21
35.6758
  0
LINE
  8
0
 10
59.4177
 20
35.6758
 11
59.5433
 21
35.721
  0
LINE
  8
0
 10
59.5433
 20
35.721
 11
59.6715
 21
35.7582
  0
LINE
  8
0
 10
59.6715
 20
35.7582
 11
59.8018
 21
35.7874
  0
LINE
  8
0
 10
59.8018
 20
35.7874
 11
59.9337
 21
35.8082
  0
LINE
  8
0
 10
59.9337
 20
35.8082
 11
60.0666
 21
35.8208
  0
LINE
  8
0
 10
60.0666
 20
35.8208
 11
60.2
 21
35.825
  0
LINE
  8
0
 10
60.2
 20
35.825
 11
60.3334
 21
35.8208
  0
LINE
  8
0
 10
60.3334
 20
35.8208
 11
60.4663
 21
35.8082
  0
LINE
  8
0
 10
60.4663
 20
35.8082
 11
60.5982
 21
35.7874
  0
LINE
  8
0
 10
60.5982
 20
35.7874
 11
60.7285
 21
35.7582
  0
LINE
  8
0
 10
60.7285
 20
35.7582
 11
60.8567
 21
35.721
  0
LINE
  8
0
 10
60.8567
 20
35.721
 11
60.9823
 21
35.6758
  0
LINE
  8
0
 10
60.9823
 20
35.6758
 11
61.1048
 21
35.6228
  0
LINE
  8
0
 10
61.1048
 20
35.6228
 11
61.2237
 21
35.5621
  0
LINE
  8
0
 10
61.2237
 20
35.5621
 11
61.3386
 21
35.4942
  0
LINE
  8
0
 10
61.3386
 20
35.4942
 11
61.449
 21
35.4192
  0
LINE
  8
0
 10
61.449
 20
35.4192
 11
61.5545
 21
35.3373
  0
LINE
  8
0
 10
61.5545
 20
35.3373
 11
61.6546
 21
35.2491
  0
LINE
  8
0
 10
61.6546
 20
35.2491
 11
61.7491
 21
35.1546
  0
LINE
  8
0
 10
61.7491
 20
35.1546
 11
61.8373
 21
35.0545
  0
LINE
  8
0
 10
61.8373
 20
35.0545
 11
61.9192
 21
34.949
  0
LINE
  8
0
 10
61.9192
 20
34.949
 11
61.9942
 21
34.8386
  0
LINE
  8
0
 10
61.9942
 20
34.8386
 11
62.0621
 21
34.7237
  0
LINE
  8
0
 10
62.0621
 20
34.7237
 11
62.1228
 21
34.6048
  0
LINE
  8
0
 10
62.1228
 20
34.6048
 11
62.1758
 21
34.4823
  0
LINE
  8
0
 10
62.1758
 20
34.4823
 11
62.221
 21
34.3567
  0
LINE
  8
0
 10
62.221
 20
34.3567
 11
62.2582
 21
34.2285
  0
LINE
  8
0
 10
62.2582
 20
34.2285
 11
62.2874
 21
34.0982
  0
LINE
  8
0
 10
62.2874
 20
34.0982
 11
62.3082
 21
33.9663
  0
LINE
  8
0
 10
62.3082
 20
33.9663
 11
62.3208
 21
33.8334
  0
LINE
  8
0
 10
62.3208
 20
33.8334
 11
62.325
 21
33.7
  0
LINE
  8
0
 10
62.325
 20
33.7
 11
62.3208
 21
33.5666
  0
LINE
  8
0
 10
62.3208
 20
33.5666
 11
62.3082
 21
33.4337
  0
LINE
  8
0
 10
62.3082
 20
33.4337
 11
62.2874
 21
33.3018
  0
LINE
  8
0
 10
62.2874
 20
33.3018
 11
62.2582
 21
33.1715
  0
LINE
  8
0
 10
62.2582
 20
33.1715
 11
62.221
 21
33.0433
  0
LINE
  8
0
 10
62.221
 20
33.0433
 11
62.1758
 21
32.9177
  0
LINE
  8
0
 10
62.1758
 20
32.9177
 11
62.1228
 21
32.7952
  0
LINE
  8
0
 10
62.1228
 20
32.7952
 11
62.0621
 21
32.6763
  0
LINE
  8
0
 10
62.0621
 20
32.6763
 11
61.9942
 21
32.5614
  0
LINE
  8
0
 10
61.9942
 20
32.5614
 11
61.9192
 21
32.4509
  0
LINE
  8
0
 10
61.9192
 20
32.4509
 11
61.8373
 21
32.3455
  0
LINE
  8
0
 10
61.8373
 20
32.3455
 11
61.7491
 21
32.2453
  0
LINE
  8
0
 10
61.7491
 20
32.2453
 11
61.6546
 21
32.1509
  0
LINE
  8
0
 10
61.6546
 20
32.1509
 11
61.5545
 21
32.0627
  0
LINE
  8
0
 10
61.5545
 20
32.0627
 11
61.449
 21
31.9808
  0
LINE
  8
0
 10
61.449
 20
31.9808
 11
61.3386
 21
31.9058
  0
LINE
  8
0
 10
61.3386
 20
31.9058
 11
61.2237
 21
31.8378
  0
LINE
  8
0
 10
61.2237
 20
31.8378
 11
61.1048
 21
31.7772
  0
LINE
  8
0
 10
61.1048
 20
31.7772
 11
60.9823
 21
31.7242
  0
LINE
  8
0
 10
60.9823
 20
31.7242
 11
60.8567
 21
31.679
  0
LINE
  8
0
 10
60.8567
 20
31.679
 11
60.7285
 21
31.6418
  0
LINE
  8
0
 10
60.7285
 20
31.6418
 11
60.5982
 21
31.6126
  0
LINE
  8
0
 10
60.5982
 20
31.6126
 11
60.4663
 21
31.5918
  0
LINE
  8
0
 10
60.4663
 20
31.5918
 11
60.3334
 21
31.5792
  0
LINE
  8
0
 10
60.3334
 20
31.5792
 11
60.2
 21
31.575
  0
LINE
  8
0
 10
60.2
 20
31.575
 11
60.0666
 21
31.5792
  0
LINE
  8
0
 10
0
 20
49
 11
0
 21
26.5
  0
LINE
  8
0
 10
0
 20
26.5
 11
22.5
 21
26.5
  0
LINE
  8
0
 10
22.5
 20
26.5
 11
0
 21
49
  0
LINE
  8
0
 10
7.06656
 20
31.5792
 11
6.93365
 21
31.5918
  0
LINE
  8
0
 10
6.93365
 20
31.5918
 11
6.8018
 21
31.6126
  0
LINE
  8
0
 10
6.8018
 20
31.6126
 11
6.67152
 21
31.6418
  0
LINE
  8
0
 10
6.67152
 20
31.6418
 11
6.54333
 21
31.679
  0
LINE
  8
0
 10
6.54333
 20
31.679
 11
6.41772
 21
31.7242
  0
LINE
  8
0
 10
6.41772
 20
31.7242
 11
6.29521
 21
31.7772
  0
LINE
  8
0
 10
6.29521
 20
31.7772
 11
6.17627
 21
31.8378
  0
LINE
  8
0
 10
6.17627
 20
31.8378
 11
6.06136
 21
31.9058
  0
LINE
  8
0
 10
6.06136
 20
31.9058
 11
5.95094
 21
31.9808
  0
LINE
  8
0
 10
5.95094
 20
31.9808
 11
5.84546
 21
32.0627
  0
LINE
  8
0
 10
5.84546
 20
32.0627
 11
5.74533
 21
32.1509
  0
LINE
  8
0
 10
5.74533
 20
32.1509
 11
5.65094
 21
32.2453
  0
LINE
  8
0
 10
5.65094
 20
32.2453
 11
5.56265
 21
32.3455
  0
LINE
  8
0
 10
5.56265
 20
32.3455
 11
5.48083
 21
32.4509
  0
LINE
  8
0
 10
5.48083
 20
32.4509
 11
5.40579
 21
32.5614
  0
LINE
  8
0
 10
5.40579
 20
32.5614
 11
5.33784
 21
32.6763
  0
LINE
  8
0
 10
5.33784
 20
32.6763
 11
5.27724
 21
32.7952
  0
LINE
  8
0
 10
5.27724
 20
32.7952
 11
5.22421
 21
32.9177
  0
LINE
  8
0
 10
5.22421
 20
32.9177
 11
5.179
 21
33.0433
  0
LINE
  8
0
 10
5.179
 20
33.0433
 11
5.14175
 21
33.1715
  0
LINE
  8
0
 10
5.14175
 20
33.1715
 11
5.11263
 21
33.3018
  0
LINE
  8
0
 10
5.11263
 20
33.3018
 11
5.09175
 21
33.4337
  0
LINE
  8
0
 10
5.09175
 20
33.4337
 11
5.07919
 21
33.5666
  0
LINE
  8
0
 10
5.07919
 20
33.5666
 11
5.075
 21
33.7
  0
LINE
  8
0
 10
5.075
 20
33.7
 11
5.07919
 21
33.8334
  0
LINE
  8
0
 10
5.07919
 20
33.8334
 11
5.09175
 21
33.9663
  0
LINE
  8
0
 10
5.09175
 20
33.9663
 11
5.11263
 21
34.0982
  0
LINE
  8
0
 10
5.11263
 20
34.0982
 11
5.14175
 21
34.2285
  0
LINE
  8
0
 10
5.14175
 20
34.2285
 11
5.179
 21
34.3567
  0
LINE
  8
0
 10
5.179
 20
34.3567
 11
5.22421
 21
34.4823
  0
LINE
  8
0
 10
5.22421
 20
34.4823
 11
5.27724
 21
34.6048
  0
LINE
  8
0
 10
5.27724
 20
34.6048
 11
5.33784
 21
34.7237
  0
LINE
  8
0
 10
5.33784
 20
34.7237
 11
5.40579
 21
34.8386
  0
LINE
  8
0
 10
5.40579
 20
34.8386
 11
5.48083
 21
34.949
  0
LINE
  8
0
 10
5.48083
 20
34.949
 11
5.56265
 21
35.0545
  0
LINE
  8
0
 10
5.56265
 20
35.0545
 11
5.65094
 21
35.1546
  0
LINE
  8
0
 10
5.65094
 20
35.1546
 11
5.74533
 21
35.2491
  0
LINE
  8
0
 10
5.74533
 20
35.2491
 11
5.84546
 21
35.3373
  0
LINE
  8
0
 10
5.84546
 20
35.3373
 11
5.95094
 21
35.4192
  0
LINE
  8
0
 10
5.95094
 20
35.4192
 11
6.06136
 21
35.4942
  0
LINE
  8
0
 10
6.06136
 20
35.4942
 11
6.17627
 21
35.5621
  0
LINE
  8
0
 10
6.17627
 20
35.5621
 11
6.29521
 21
35.6228
  0
LINE
  8
0
 10
6.29521
 20
35.6228
 11
6.41772
 21
35.6758
  0
LINE
  8
0
 10
6.41772
 20
35.6758
 11
6.54333
 21
35.721
  0
LINE
  8
0
 10
6.54333
 20
35.721
 11
6.67152
 21
35.7582
  0
LINE
  8
0
 10
6.67152
 20
35.7582
 11
6.8018
 21
35.7874
  0
LINE
  8
0
 10
6.8018
 20
35.7874
 11
6.93365
 21
35.8082
  0
LINE
  8
0
 10
6.93365
 20
35.8082
 11
7.06656
 21
35.8208
  0
LINE
  8
0
 10
7.06656
 20
35.8208
 11
7.2
 21
35.825
  0
LINE
  8
0
 10
7.2
 20
35.825
 11
7.33342
 21
35.8208
  0
LINE
  8
0
 10
7.33342
 20
35.8208
 11
7.46632
 21
35.8082
  0
LINE
  8
0
 10
7.46632
 20
35.8082
 11
7.59818
 21
35.7874
  0
LINE
  8
0
 10
7.59818
 20
35.7874
 11
7.72845
 21
35.7582
  0
LINE
  8
0
 10
7.72845
 20
35.7582
 11
7.85666
 21
35.721
  0
LINE
  8
0
 10
7.85666
 20
35.721
 11
7.98225
 21
35.6758
  0
LINE
  8
0
 10
7.98225
 20
35.6758
 11
8.10477
 21
35.6228
  0
LINE
  8
0
 10
8.10477
 20
35.6228
 11
8.22372
 21
35.5621
  0
LINE
  8
0
 10
8.22372
 20
35.5621
 11
8.33862
 21
35.4942
  0
LINE
  8
0
 10
8.33862
 20
35.4942
 11
8.44904
 21
35.4192
  0
LINE
  8
0
 10
8.44904
 20
35.4192
 11
8.55452
 21
35.3373
  0
LINE
  8
0
 10
8.55452
 20
35.3373
 11
8.65465
 21
35.2491
  0
LINE
  8
0
 10
8.65465
 20
35.2491
 11
8.74905
 21
35.1546
  0
LINE
  8
0
 10
8.74905
 20
35.1546
 11
8.83733
 21
35.0545
  0
LINE
  8
0
 10
8.83733
 20
35.0545
 11
8.91916
 21
34.949
  0
LINE
  8
0
 10
8.91916
 20
34.949
 11
8.99419
 21
34.8386
  0
LINE
  8
0
 10
8.99419
 20
34.8386
 11
9.06215
 21
34.7237
  0
LINE
  8
0
 10
9.06215
 20
34.7237
 11
9.12276
 21
34.6048
  0
LINE
  8
0
 10
9.12276
 20
34.6048
 11
9.17577
 21
34.4823
  0
LINE
  8
0
 10
9.17577
 20
34.4823
 11
9.22099
 21
34.3567
  0
LINE
  8
0
 10
9.22099
 20
34.3567
 11
9.25822
 21
34.2285
  0
LINE
  8
0
 10
9.25822
 20
34.2285
 11
9.28735
 21
34.0982
  0
LINE
  8
0
 10
9.28735
 20
34.0982
 11
9.30824
 21
33.9663
  0
LINE
  8
0
 10
9.30824
 20
33.9663
 11
9.3208
 21
33.8334
  0
LINE
  8
0
 10
9.3208
 20
33.8334
 11
9.325
 21
33.7
  0
LINE
  8
0
 10
9.325
 20
33.7
 11
9.3208
 21
33.5666
  0
LINE
  8
0
 10
9.3208
 20
33.5666
 11
9.30824
 21
33.4337
  0
LINE
  8
0
 10
9.30824
 20
33.4337
 11
9.28735
 21
33.3018
  0
LINE
  8
0
 10
9.28735
 20
33.3018
 11
9.25822
 21
33.1715
  0
LINE
  8
0
 10
9.25822
 20
33.1715
 11
9.22099
 21
33.0433
  0
LINE
  8
0
 10
9.22099
 20
33.0433
 11
9.17577
 21
32.9177
  0
LINE
  8
0
 10
9.17577
 20
32.9177
 11
9.12276
 21
32.7952
  0
LINE
  8
0
 10
9.12276
 20
32.7952
 11
9.06215
 21
32.6763
  0
LINE
  8
0
 10
9.06215
 20
32.6763
 11
8.99419
 21
32.5614
  0
LINE
  8
0
 10
8.99419
 20
32.5614
 11
8.91916
 21
32.4509
  0
LINE
  8
0
 10
8.91916
 20
32.4509
 11
8.83733
 21
32.3455
  0
LINE
  8
0
 10
8.83733
 20
32.3455
 11
8.74905
 21
32.2453
  0
LINE
  8
0
 10
8.74905
 20
32.2453
 11
8.65465
 21
32.1509
  0
LINE
  8
0
 10
8.65465
 20
32.1509
 11
8.55452
 21
32.0627
  0
LINE
  8
0
 10
8.55452
 20
32.0627
 11
8.44904
 21
31.9808
  0
LINE
  8
0
 10
8.44904
 20
31.9808
 11
8.33862
 21
31.9058
  0
LINE
  8
0
 10
8.33862
 20
31.9058
 11
8.22372
 21
31.8378
  0
LINE
  8
0
 10
8.22372
 20
31.8378
 11
8.10477
 21
31.7772
  0
LINE
  8
0
 10
8.10477
 20
31.7772
 11
7.98225
 21
31.7242
  0
LINE
  8
0
 10
7.98225
 20
31.7242
 11
7.85666
 21
31.679
  0
LINE
  8
0
 10
7.85666
 20
31.679
 11
7.72845
 21
31.6418
  0
LINE
  8
0
 10
7.72845
 20
31.6418
 11
7.59818
 21
31.6126
  0
LINE
  8
0
 10
7.59818
 20
31.6126
 11
7.46632
 21
31.5918
  0
LINE
  8
0
 10
7.46632
 20
31.5918
 11
7.33342
 21
31.5792
  0
LINE
  8
0
 10
7.33342
 20
31.5792
 11
7.2
 21
31.575
  0
LINE
  8
0
 10
7.2
 20
31.575
 11
7.06656
 21
31.5792
  0
LINE
  8
0
 10
24.5
 20
24.5
 11
2
 21
24.5
  0
LINE
  8
0
 10
2
 20
24.5
 11
24.5
 21
2
  0
LINE
  8
0
 10
24.5
 20
2
 11
24.5
 21
24.5
  0
LINE
  8
0
 10
17.1666
 20
15.1792
 11
17.0337
 21
15.1918
  0
LINE
  8
0
 10
17.0337
 20
15.1918
 11
16.9018
 21
15.2126
  0
LINE
  8
0
 10
16.9018
 20
15.2126
 11
16.7715
 21
15.2418
  0
LINE
  8
0
 10
16.7715
 20
15.2418
 11
16.6433
 21
15.279
  0
LINE
  8
0
 10
16.6433
 20
15.279
 11
16.5177
 21
15.3242
  0
LINE
  8
0
 10
16.5177
 20
15.3242
 11
16.3952
 21
15.3772
  0
LINE
  8
0
 10
16.3952
 20
15.3772
 11
16.2763
 21
15.4379
  0
LINE
  8
0
 10
16.2763
 20
15.4379
 11
16.1614
 21
15.5058
  0
LINE
  8
0
 10
16.1614
 20
15.5058
 11
16.051
 21
15.5808
  0
LINE
  8
0
 10
16.051
 20
15.5808
 11
15.9455
 21
15.6627
  0
LINE
  8
0
 10
15.9455
 20
15.6627
 11
15.8454
 21
15.7509
  0
LINE
  8
0
 10
15.8454
 20
15.7509
 11
15.7509
 21
15.8454
  0
LINE
  8
0
 10
15.7509
 20
15.8454
 11
15.6627
 21
15.9455
  0
LINE
  8
0
 10
15.6627
 20
15.9455
 11
15.5808
 21
16.051
  0
LINE
  8
0
 10
15.5808
 20
16.051
 11
15.5058
 21
16.1614
  0
LINE
  8
0
 10
15.5058
 20
16.1614
 11
15.4379
 21
16.2763
  0
LINE
  8
0
 10
15.4379
 20
16.2763
 11
15.3772
 21
16.3952
  0
LINE
  8
0
 10
15.3772
 20
16.3952
 11
15.3242
 21
16.5177
  0
LINE
  8
0
 10
15.3242
 20
16.5177
 11
15.279
 21
16.6433
  0
LINE
  8
0
 10
15.279
 20
16.6433
 11
15.2418
 21
16.7715
  0
LINE
  8
0
 10
15.2418
 20
16.7715
 11
15.2126
 21
16.9018
  0
LINE
  8
0
 10
15.2126
 20
16.9018
 11
15.1918
 21
17.0337
  0
LINE
  8
0
 10
15.1918
 20
17.0337
 11
15.1792
 21
17.1666
  0
LINE
  8
0
 10
15.1792
 20
17.1666
 11
15.175
 21
17.3
  0
LINE
  8
0
 10
15.175
 20
17.3
 11
15.1792
 21
17.4334
  0
LINE
  8
0
 10
15.1792
 20
17.4334
 11
15.1918
 21
17.5663
  0
LINE
  8
0
 10
15.1918
 20
17.5663
 11
15.2126
 21
17.6982
  0
LINE
  8
0
 10
15.2126
 20
17.6982
 11
15.2418
 21
17.8285
  0
LINE
  8
0
 10
15.2418
 20
17.8285
 11
15.279
 21
17.9567
  0
LINE
  8
0
 10
15.279
 20
17.9567
 11
15.3242
 21
18.0823
  0
LINE
  8
0
 10
15.3242
 20
18.0823
 11
15.3772
 21
18.2048
  0
LINE
  8
0
 10
15.3772
 20
18.2048
 11
15.4379
 21
18.3237
  0
LINE
  8
0
 10
15.4379
 20
18.3237
 11
15.5058
 21
18.4386
  0
LINE
  8
0
 10
15.5058
 20
18.4386
 11
15.5808
 21
18.5491
  0
LINE
  8
0
 10
15.5808
 20
18.5491
 11
15.6627
 21
18.6545
  0
LINE
  8
0
 10
15.6627
 20
18.6545
 11
15.7509
 21
18.7547
  0
LINE
  8
0
 10
15.7509
 20
18.7547
 11
15.8454
 21
18.8491
  0
LINE
  8
0
 10
15.8454
 20
18.8491
 11
15.9455
 21
18.9373
  0
LINE
  8
0
 10
15.9455
 20
18.9373
 11
16.051
 21
19.0192
  0
LINE
  8
0
 10
16.051
 20
19.0192
 11
16.1614
 21
19.0942
  0
LINE
  8
0
 10
16.1614
 20
19.0942
 11
16.2763
 21
19.1622
  0
LINE
  8
0
 10
16.2763
 20
19.1622
 11
16.3952
 21
19.2228
  0
LINE
  8
0
 10
16.3952
 20
19.2228
 11
16.5177
 21
19.2758
  0
LINE
  8
0
 10
16.5177
 20
19.2758
 11
16.6433
 21
19.321
  0
LINE
  8
0
 10
16.6433
 20
19.321
 11
16.7715
 21
19.3582
  0
LINE
  8
0
 10
16.7715
 20
19.3582
 11
16.9018
 21
19.3874
  0
LINE
  8
0
 10
16.9018
 20
19.3874
 11
17.0337
 21
19.4082
  0
LINE
  8
0
 10
17.0337
 20
19.4082
 11
17.1666
 21
19.4208
  0
LINE
  8
0
 10
17.1666
 20
19.4208
 11
17.3
 21
19.425
  0
LINE
  8
0
 10
17.3
 20
19.425
 11
17.4334
 21
19.4208
  0
LINE
  8
0
 10
17.4334
 20
19.4208
 11
17.5663
 21
19.4082
  0
LINE
  8
0
 10
17.5663
 20
19.4082
 11
17.6982
 21
19.3874
  0
LINE
  8
0
 10
17.6982
 20
19.3874
 11
17.8285
 21
19.3582
  0
LINE
  8
0
 10
17.8285
 20
19.3582
 11
17.9567
 21
19.321
  0
LINE
  8
0
 10
17.9567
 20
19.321
 11
18.0823
 21
19.2758
  0
LINE
  8
0
 10
18.0823
 20
19.2758
 11
18.2048
 21
19.2228
  0
LINE
  8
0
 10
18.2048
 20
19.2228
 11
18.3237
 21
19.1622
  0
LINE
  8
0
 10
18.3237
 20
19.1622
 11
18.4386
 21
19.0942
  0
LINE
  8
0
 10
18.4386
 20
19.0942
 11
18.5491
 21
19.0192
  0
LINE
  8
0
 10
18.5491
 20
19.0192
 11
18.6545
 21
18.9373
  0
LINE
  8
0
 10
18.6545
 20
18.9373
 11
18.7547
 21
18.8491
  0
LINE
  8
0
 10
18.7547
 20
18.8491
 11
18.8491
 21
18.7547
  0
LINE
  8
0
 10
18.8491
 20
18.7547
 11
18.9373
 21
18.6545
  0
LINE
  8
0
 10
18.9373
 20
18.6545
 11
19.0192
 21
18.5491
  0
LINE
  8
0
 10
19.0192
 20
18.5491
 11
19.0942
 21
18.4386
  0
LINE
  8
0
 10
19.0942
 20
18.4386
 11
19.1622
 21
18.3237
  0
LINE
  8
0
 10
19.1622
 20
18.3237
 11
19.2228
 21
18.2048
  0
LINE
  8
0
 10
19.2228
 20
18.2048
 11
19.2758
 21
18.0823
  0
LINE
  8
0
 10
19.2758
 20
18.0823
 11
19.321
 21
17.9567
  0
LINE
  8
0
 10
19.321
 20
17.9567
 11
19.3582
 21
17.8285
  0
LINE
  8
0
 10
19.3582
 20
17.8285
 11
19.3874
 21
17.6982
  0
LINE
  8
0
 10
19.3874
 20
17.6982
 11
19.4082
 21
17.5663
  0
LINE
  8
0
 10
19.4082
 20
17.5663
 11
19.4208
 21
17.4334
  0
LINE
  8
0
 10
19.4208
 20
17.4334
 11
19.425
 21
17.3
  0
LINE
  8
0
 10
19.425
 20
17.3
 11
19.4208
 21
17.1666
  0
LINE
  8
0
 10
19.4208
 20
17.1666
 11
19.4082
 21
17.0337
  0
LINE
  8
0
 10
19.4082
 20
17.0337
 11
19.3874
 21
16.9018
  0
LINE
  8
0
 10
19.3874
 20
16.9018
 11
19.3582
 21
16.7715
  0
LINE
  8
0
 10
19.3582
 20
16.7715
 11
19.321
 21
16.6433
  0
LINE
  8
0
 10
19.321
 20
16.6433
 11
19.2758
 21
16.5177
  0
LINE
  8
0
 10
19.2758
 20
16.5177
 11
19.2228
 21
16.3952
  0
LINE
  8
0
 10
19.2228
 20
16.3952
 11
19.1622
 21
16.2763
  0
LINE
  8
0
 10
19.1622
 20
16.2763
 11
19.0942
 21
16.1614
  0
LINE
  8
0
 10
19.0942
 20
16.1614
 11
19.0192
 21
16.051
  0
LINE
  8
0
 10
19.0192
 20
16.051
 11
18.9373
 21
15.9455
  0
LINE
  8
0
 10
18.9373
 20
15.9455
 11
18.8491
 21
15.8454
  0
LINE
  8
0
 10
18.8491
 20
15.8454
 11
18.7547
 21
15.7509
  0
LINE
  8
0
 10
18.7547
 20
15.7509
 11
18.6545
 21
15.6627
  0
LINE
  8
0
 10
18.6545
 20
15.6627
 11
18.5491
 21
15.5808
  0
LINE
  8
0
 10
18.5491
 20
15.5808
 11
18.4386
 21
15.5058
  0
LINE
  8
0
 10
18.4386
 20
15.5058
 11
18.3237
 21
15.4379
  0
LINE
  8
0
 10
18.3237
 20
15.4379
 11
18.2048
 21
15.3772
  0
LINE
  8
0
 10
18.2048
 20
15.3772
 11
18.0823
 21
15.3242
  0
LINE
  8
0
 10
18.0823
 20
15.3242
 11
17.9567
 21
15.279
  0
LINE
  8
0
 10
17.9567
 20
15.279
 11
17.8285
 21
15.2418
  0
LINE
  8
0
 10
17.8285
 20
15.2418
 11
17.6982
 21
15.2126
  0
LINE
  8
0
 10
17.6982
 20
15.2126
 11
17.5663
 21
15.1918
  0
LINE
  8
0
 10
17.5663
 20
15.1918
 11
17.4334
 21
15.1792
  0
LINE
  8
0
 10
17.4334
 20
15.1792
 11
17.3
 21
15.175
  0
LINE
  8
0
 10
17.3
 20
15.175
 11
17.1666
 21
15.1792
  0
LINE
  8
0
 10
51
 20
24.5
 11
28.5
 21
24.5
  0
LINE
  8
0
 10
28.5
 20
24.5
 11
51
 21
2
  0
LINE
  8
0
 10
51
 20
2
 11
51
 21
24.5
  0
LINE
  8
0
 10
43.6666
 20
15.1792
 11
43.5337
 21
15.1918
  0
LINE
  8
0
 10
43.5337
 20
15.1918
 11
43.4018
 21
15.2126
  0
LINE
  8
0
 10
43.4018
 20
15.2126
 11
43.2715
 21
15.2418
  0
LINE
  8
0
 10
43.2715
 20
15.2418
 11
43.1433
 21
15.279
  0
LINE
  8
0
 10
43.1433
 20
15.279
 11
43.0177
 21
15.3242
  0
LINE
  8
0
 10
43.0177
 20
15.3242
 11
42.8952
 21
15.3772
  0
LINE
  8
0
 10
42.8952
 20
15.3772
 11
42.7763
 21
15.4379
  0
LINE
  8
0
 10
42.7763
 20
15.4379
 11
42.6614
 21
15.5058
  0
LINE
  8
0
 10
42.6614
 20
15.5058
 11
42.551
 21
15.5808
  0
LINE
  8
0
 10
42.551
 20
15.5808
 11
42.4455
 21
15.6627
  0
LINE
  8
0
 10
42.4455
 20
15.6627
 11
42.3454
 21
15.7509
  0
LINE
  8
0
 10
42.3454
 20
15.7509
 11
42.2509
 21
15.8454
  0
LINE
  8
0
 10
42.2509
 20
15.8454
 11
42.1627
 21
15.9455
  0
LINE
  8
0
 10
42.1627
 20
15.9455
 11
42.0808
 21
16.051
  0
LINE
  8
0
 10
42.0808
 20
16.051
 11
42.0058
 21
16.1614
  0
LINE
  8
0
 10
42.0058
 20
16.1614
 11
41.9379
 21
16.2763
  0
LINE
  8
0
 10
41.9379
 20
16.2763
 11
41.8772
 21
16.3952
  0
LINE
  8
0
 10
41.8772
 20
16.3952
 11
41.8242
 21
16.5177
  0
LINE
  8
0
 10
41.8242
 20
16.5177
 11
41.779
 21
16.6433
  0
LINE
  8
0
 10
41.779
 20
16.6433
 11
41.7418
 21
16.7715
  0
LINE
  8
0
 10
41.7418
 20
16.7715
 11
41.7126
 21
16.9018
  0
LINE
  8
0
 10
41.7126
 20
16.9018
 11
41.6918
 21
17.0337
  0
LINE
  8
0
 10
41.6918
 20
17.0337
 11
41.6792
 21
17.1666
  0
LINE
  8
0
 10
41.6792
 20
17.1666
 11
41.675
 21
17.3
  0
LINE
  8
0
 10
41.675
 20
17.3
 11
41.6792
 21
17.4334
  0
LINE
  8
0
 10
41.6792
 20
17.4334
 11
41.6918
 21
17.5663
  0
LINE
  8
0
 10
41.6918
 20
17.5663
 11
41.7126
 21
17.6982
  0
LINE
  8
0
 10
41.7126
 20
17.6982
 11
41.7418
 21
17.8285
  0
LINE
  8
0
 10
41.7418
 20
17.8285
 11
41.779
 21
17.9567
  0
LINE
  8
0
 10
41.779
 20
17.9567
 11
41.8242
 21
18.0823
  0
LINE
  8
0
 10
41.8242
 20
18.0823
 11
41.8772
 21
18.2048
  0
LINE
  8
0
 10
41.8772
 20
18.2048
 11
41.9379
 21
18.3237
  0
LINE
  8
0
 10
41.9379
 20
18.3237
 11
42.0058
 21
18.4386
  0
LINE
  8
0
 10
42.0058
 20
18.4386
 11
42.0808
 21
18.5491
  0
LINE
  8
0
 10
42.0808
 20
18.5491
 11
42.1627
 21
18.6545
  0
LINE
  8
0
 10
42.1627
 20
18.6545
 11
42.2509
 21
18.7547
  0
LINE
  8
0
 10
42.2509
 20
18.7547
 11
42.3454
 21
18.8491
  0
LINE
  8
0
 10
42.3454
 20
18.8491
 11
42.4455
 21
18.9373
  0
LINE
  8
0
 10
42.4455
 20
18.9373
 11
42.551
 21
19.0192
  0
LINE
  8
0
 10
42.551
 20
19.0192
 11
42.6614
 21
19.0942
  0
LINE
  8
0
 10
42.6614
 20
19.0942
 11
42.7763
 21
19.1622
  0
LINE
  8
0
 10
42.7763
 20
19.1622
 11
42.8952
 21
19.2228
  0
LINE
  8
0
 10
42.8952
 20
19.2228
 11
43.0177
 21
19.2758
  0
LINE
  8
0
 10
43.0177
 20
19.2758
 11
43.1433
 21
19.321
  0
LINE
  8
0
 10
43.1433
 20
19.321
 11
43.2715
 21
19.3582
  0
LINE
  8
0
 10
43.2715
 20
19.3582
 11
43.4018
 21
19.3874
  0
LINE
  8
0
 10
43.4018
 20
19.3874
 11
43.5337
 21
19.4082
  0
LINE
  8
0
 10
43.5337
 20
19.4082
 11
43.6666
 21
19.4208
  0
LINE
  8
0
 10
43.6666
 20
19.4208
 11
43.8
 21
19.425
  0
LINE
  8
0
 10
43.8
 20
19.425
 11
43.9334
 21
19.4208
  0
LINE
  8
0
 10
43.9334
 20
19.4208
 11
44.0663
 21
19.4082
  0
LINE
  8
0
 10
44.0663
 20
19.4082
 11
44.1982
 21
19.3874
  0
LINE
  8
0
 10
44.1982
 20
19.3874
 11
44.3285
 21
19.3582
  0
LINE
  8
0
 10
44.3285
 20
19.3582
 11
44.4567
 21
19.321
  0
LINE
  8
0
 10
44.4567
 20
19.321
 11
44.5823
 21
19.2758
  0
LINE
  8
0
 10
44.5823
 20
19.2758
 11
44.7048
 21
19.2228
  0
LINE
  8
0
 10
44.7048
 20
19.2228
 11
44.8237
 21
19.1622
  0
LINE
  8
0
 10
44.8237
 20
19.1622
 11
44.9386
 21
19.0942
  0
LINE
  8
0
 10
44.9386
 20
19.0942
 11
45.0491
 21
19.0192
  0
LINE
  8
0
 10
45.0491
 20
19.0192
 11
45.1545
 21
18.9373
  0
LINE
  8
0
 10
45.1545
 20
18.9373
 11
45.2547
 21
18.8491
  0
LINE
  8
0
 10
45.2547
 20
18.8491
 11
45.3491
 21
18.7547
  0
LINE
  8
0
 10
45.3491
 20
18.7547
 11
45.4373
 21
18.6545
  0
LINE
  8
0
 10
45.4373
 20
18.6545
 11
45.5192
 21
18.5491
  0
LINE
  8
0
 10
45.5192
 20
18.5491
 11
45.5942
 21
18.4386
  0
LINE
  8
0
 10
45.5942
 20
18.4386
 11
45.6622
 21
18.3237
  0
LINE
  8
0
 10
45.6622
 20
18.3237
 11
45.7228
 21
18.2048
  0
LINE
  8
0
 10
45.7228
 20
18.2048
 11
45.7758
 21
18.0823
  0
LINE
  8
0
 10
45.7758
 20
18.0823
 11
45.821
 21
17.9567
  0
LINE
  8
0
 10
45.821
 20
17.9567
 11
45.8582
 21
17.8285
  0
LINE
  8
0
 10
45.8582
 20
17.8285
 11
45.8874
 21
17.6982
  0
LINE
  8
0
 10
45.8874
 20
17.6982
 11
45.9082
 21
17.5663
  0
LINE
  8
0
 10
45.9082
 20
17.5663
 11
45.9208
 21
17.4334
  0
LINE
  8
0
 10
45.9208
 20
17.4334
 11
45.925
 21
17.3
  0
LINE
  8
0
 10
45.925
 20
17.3
 11
45.9208
 21
17.1666
  0
LINE
  8
0
 10
45.9208
 20
17.1666
 11
45.9082
 21
17.0337
  0
LINE
  8
0
 10
45.9082
 20
17.0337
 11
45.8874
 21
16.9018
  0
LINE
  8
0
 10
45.8874
 20
16.9018
 11
45.8582
 21
16.7715
  0
LINE
  8
0
 10
45.8582
 20
16.7715
 11
45.821
 21
16.6433
  0
LINE
  8
0
 10
45.821
 20
16.6433
 11
45.7758
 21
16.5177
  0
LINE
  8
0
 10
45.7758
 20
16.5177
 11
45.7228
 21
16.3952
  0
LINE
  8
0
 10
45.7228
 20
16.3952
 11
45.6622
 21
16.2763
  0
LINE
  8
0
 10
45.6622
 20
16.2763
 11
45.5942
 21
16.1614
  0
LINE
  8
0
 10
45.5942
 20
16.1614
 11
45.5192
 21
16.051
  0
LINE
  8
0
 10
45.5192
 20
16.051
 11
45.4373
 21
15.9455
  0
LINE
  8
0
 10
45.4373
 20
15.9455
 11
45.3491
 21
15.8454
  0
LINE
  8
0
 10
45.3491
 20
15.8454
 11
45.2547
 21
15.7509
  0
LINE
  8
0
 10
45.2547
 20
15.7509
 11
45.1545
 21
15.6627
  0
LINE
  8
0
 10
45.1545
 20
15.6627
 11
45.0491
 21
15.5808
  0
LINE
  8
0
 10
45.0491
 20
15.5808
 11
44.9386
 21
15.5058
  0
LINE
  8
0
 10
44.9386
 20
15.5058
 11
44.8237
 21
15.4379
  0
LINE
  8
0
 10
44.8237
 20
15.4379
 11
44.7048
 21
15.3772
  0
LINE
  8
0
 10
44.7048
 20
15.3772
 11
44.5823
 21
15.3242
  0
LINE
  8
0
 10
44.5823
 20
15.3242
 11
44.4567
 21
15.279
  0
LINE
  8
0
 10
44.4567
 20
15.279
 11
44.3285
 21
15.2418
  0
LINE
  8
0
 10
44.3285
 20
15.2418
 11
44.1982
 21
15.2126
  0
LINE
  8
0
 10
44.1982
 20
15.2126
 11
44.0663
 21
15.1918
  0
LINE
  8
0
 10
44.0663
 20
15.1918
 11
43.9334
 21
15.1792
  0
LINE
  8
0
 10
43.9334
 20
15.1792
 11
43.8
 21
15.175
  0
LINE
  8
0
 10
43.8
 20
15.175
 11
43.6666
 21
15.1792
  0
LINE
  8
0
 10
77.5
 20
24.5
 11
55
 21
24.5
  0
LINE
  8
0
 10
55
 20
24.5
 11
77.5
 21
2
  0
LINE
  8
0
 10
77.5
 20
2
 11
77.5
 21
24.5
  0
LINE
  8
0
 10
70.1666
 20
15.1792
 11
70.0337
 21
15.1918
  0
LINE
  8
0
 10
70.0337
 20
15.1918
 11
69.9018
 21
15.2126
  0
LINE
  8
0
 10
69.9018
 20
15.2126
 11
69.7715
 21
15.2418
  0
LINE
  8
0
 10
69.7715
 20
15.2418
 11
69.6433
 21
15.279
  0
LINE
  8
0
 10
69.6433
 20
15.279
 11
69.5177
 21
15.3242
  0
LINE
  8
0
 10
69.5177
 20
15.3242
 11
69.3952
 21
15.3772
  0
LINE
  8
0
 10
69.3952
 20
15.3772
 11
69.2763
 21
15.4379
  0
LINE
  8
0
 10
69.2763
 20
15.4379
 11
69.1614
 21
15.5058
  0
LINE
  8
0
 10
69.1614
 20
15.5058
 11
69.051
 21
15.5808
  0
LINE
  8
0
 10
69.051
 20
15.5808
 11
68.9455
 21
15.6627
  0
LINE
  8
0
 10
68.9455
 20
15.6627
 11
68.8454
 21
15.7509
  0
LINE
  8
0
 10
68.8454
 20
15.7509
 11
68.7509
 21
15.8454
  0
LINE
  8
0
 10
68.7509
 20
15.8454
 11
68.6627
 21
15.9455
  0
LINE
  8
0
 10
68.6627
 20
15.9455
 11
68.5808
 21
16.051
  0
LINE
  8
0
 10
68.5808
 20
16.051
 11
68.5058
 21
16.1614
  0
LINE
  8
0
 10
68.5058
 20
16.1614
 11
68.4379
 21
16.2763
  0
LINE
  8
0
 10
68.4379
 20
16.2763
 11
68.3772
 21
16.3952
  0
LINE
  8
0
 10
68.3772
 20
16.3952
 11
68.3242
 21
16.5177
  0
LINE
  8
0
 10
68.3242
 20
16.5177
 11
68.279
 21
16.6433
  0
LINE
  8
0
 10
68.279
 20
16.6433
 11
68.2418
 21
16.7715
  0
LINE
  8
0
 10
68.2418
 20
16.7715
 11
68.2126
 21
16.9018
  0
LINE
  8
0
 10
68.2126
 20
16.9018
 11
68.1918
 21
17.0337
  0
LINE
  8
0
 10
68.1918
 20
17.0337
 11
68.1792
 21
17.1666
  0
LINE
  8
0
 10
68.1792
 20
17.1666
 11
68.175
 21
17.3
  0
LINE
  8
0
 10
68.175
 20
17.3
 11
68.1792
 21
17.4334
  0
LINE
  8
0
 10
68.1792
 20
17.4334
 11
68.1918
 21
17.5663
  0
LINE
  8
0
 10
68.1918
 20
17.5663
 11
68.2126
 21
17.6982
  0
LINE
  8
0
 10
68.2126
 20
17.6982
 11
68.2418
 21
17.8285
  0
LINE
  8
0
 10
68.2418
 20
17.8285
 11
68.279
 21
17.9567
  0
LINE
  8
0
 10
68.279
 20
17.9567
 11
68.3242
 21
18.0823
  0
LINE
  8
0
 10
68.3242
 20
18.0823
 11
68.3772
 21
18.2048
  0
LINE
  8
0
 10
68.3772
 20
18.2048
 11
68.4379
 21
18.3237
  0
LINE
  8
0
 10
68.4379
 20
18.3237
 11
68.5058
 21
18.4386
  0
LINE
  8
0
 10
68.5058
 20
18.4386
 11
68.5808
 21
18.5491
  0
LINE
  8
0
 10
68.5808
 20
18.5491
 11
68.6627
 21
18.6545
  0
LINE
  8
0
 10
68.6627
 20
18.6545
 11
68.7509
 21
18.7547
  0
LINE
  8
0
 10
68.7509
 20
18.7547
 11
68.8454
 21
18.8491
  0
LINE
  8
0
 10
68.8454
 20
18.8491
 11
68.9455
 21
18.9373
  0
LINE
  8
0
 10
68.9455
 20
18.9373
 11
69.051
 21
19.0192
  0
LINE
  8
0
 10
69.051
 20
19.0192
 11
69.1614
 21
19.0942
  0
LINE
  8
0
 10
69.1614
 20
19.0942
 11
69.2763
 21
19.1622
  0
LINE
  8
0
 10
69.2763
 20
19.1622
 11
69.3952
 21
19.2228
  0
LINE
  8
0
 10
69.3952
 20
19.2228
 11
69.5177
 21
19.2758
  0
LINE
  8
0
 10
69.5177
 20
19.2758
 11
69.6433
 21
19.321
  0
LINE
  8
0
 10
69.6433
 20
19.321
 11
69.7715
 21
19.3582
  0
LINE
  8
0
 10
69.7715
 20
19.3582
 11
69.9018
 21
19.3874
  0
LINE
  8
0
 10
69.9018
 20
19.3874
 11
70.0337
 21
19.4082
  0
LINE
  8
0
 10
70.0337
 20
19.4082
 11
70.1666
 21
19.4208
  0
LINE
  8
0
 10
70.1666
 20
19.4208
 11
70.3
 21
19.425
  0
LINE
  8
0
 10
70.3
 20
19.425
 11
70.4334
 21
19.4208
  0
LINE
  8
0
 10
70.4334
 20
19.4208
 11
70.5663
 21
19.4082
  0
LINE
  8
0
 10
70.5663
 20
19.4082
 11
70.6982
 21
19.3874
  0
LINE
  8
0
 10
70.6982
 20
19.3874
 11
70.8285
 21
19.3582
  0
LINE
  8
0
 10
70.8285
 20
19.3582
 11
70.9567
 21
19.321
  0
LINE
  8
0
 10
70.9567
 20
19.321
 11
71.0823
 21
19.2758
  0
LINE
  8
0
 10
71.0823
 20
19.2758
 11
71.2048
 21
19.2228
  0
LINE
  8
0
 10
71.2048
 20
19.2228
 11
71.3237
 21
19.1622
  0
LINE
  8
0
 10
71.3237
 20
19.1622
 11
71.4386
 21
19.0942
  0
LINE
  8
0
 10
71.4386
 20
19.0942
 11
71.5491
 21
19.0192
  0
LINE
  8
0
 10
71.5491
 20
19.0192
 11
71.6545
 21
18.9373
  0
LINE
  8
0
 10
71.6545
 20
18.9373
 11
71.7547
 21
18.8491
  0
LINE
  8
0
 10
71.7547
 20
18.8491
 11
71.8491
 21
18.7547
  0
LINE
  8
0
 10
71.8491
 20
18.7547
 11
71.9373
 21
18.6545
  0
LINE
  8
0
 10
71.9373
 20
18.6545
 11
72.0192
 21
18.5491
  0
LINE
  8
0
 10
72.0192
 20
18.5491
 11
72.0942
 21
18.4386
  0
LINE
  8
0
 10
72.0942
 20
18.4386
 11
72.1622
 21
18.3237
  0
LINE
  8
0
 10
72.1622
 20
18.3237
 11
72.2228
 21
18.2048
  0
LINE
  8
0
 10
72.2228
 20
18.2048
 11
72.2758
 21
18.0823
  0
LINE
  8
0
 10
72.2758
 20
18.0823
 11
72.321
 21
17.9567
  0
LINE
  8
0
 10
72.321
 20
17.9567
 11
72.3582
 21
17.8285
  0
LINE
  8
0
 10
72.3582
 20
17.8285
 11
72.3874
 21
17.6982
  0
LINE
  8
0
 10
72.3874
 20
17.6982
 11
72.4082
 21
17.5663
  0
LINE
  8
0
 10
72.4082
 20
17.5663
 11
72.4208
 21
17.4334
  0
LINE
  8
0
 10
72.4208
 20
17.4334
 11
72.425
 21
17.3
  0
LINE
  8
0
 10
72.425
 20
17.3
 11
72.4208
 21
17.1666
  0
LINE
  8
0
 10
72.4208
 20
17.1666
 11
72.4082
 21
17.0337
  0
LINE
  8
0
 10
72.4082
 20
17.0337
 11
72.3874
 21
16.9018
  0
LINE
  8
0
 10
72.3874
 20
16.9018
 11
72.3582
 21
16.7715
  0
LINE
  8
0
 10
72.3582
 20
16.7715
 11
72.321
 21
16.6433
  0
LINE
  8
0
 10
72.321
 20
16.6433
 11
72.2758
 21
16.5177
  0
LINE
  8
0
 10
72.2758
 20
16.5177
 11
72.2228
 21
16.3952
  0
LINE
  8
0
 10
72.2228
 20
16.3952
 11
72.1622
 21
16.2763
  0
LINE
  8
0
 10
72.1622
 20
16.2763
 11
72.0942
 21
16.1614
  0
LINE
  8
0
 10
72.0942
 20
16.1614
 11
72.0192
 21
16.051
  0
LINE
  8
0
 10
72.0192
 20
16.051
 11
71.9373
 21
15.9455
  0
LINE
  8
0
 10
71.9373
 20
15.9455
 11
71.8491
 21
15.8454
  0
LINE
  8
0
 10
71.8491
 20
15.8454
 11
71.7547
 21
15.7509
  0
LINE
  8
0
 10
71.7547
 20
15.7509
 11
71.6545
 21
15.6627
  0
LINE
  8
0
 10
71.6545
 20
15.6627
 11
71.5491
 21
15.5808
  0
LINE
  8
0
 10
71.5491
 20
15.5808
 11
71.4386
 21
15.5058
  0
LINE
  8
0
 10
71.4386
 20
15.5058
 11
71.3237
 21
15.4379
  0
LINE
  8
0
 10
71.3237
 20
15.4379
 11
71.2048
 21
15.3772
  0
LINE
  8
0
 10
71.2048
 20
15.3772
 11
71.0823
 21
15.3242
  0
LINE
  8
0
 10
71.0823
 20
15.3242
 11
70.9567
 21
15.279
  0
LINE
  8
0
 10
70.9567
 20
15.279
 11
70.8285
 21
15.2418
  0
LINE
  8
0
 10
70.8285
 20
15.2418
 11
70.6982
 21
15.2126
  0
LINE
  8
0
 10
70.6982
 20
15.2126
 11
70.5663
 21
15.1918
  0
LINE
  8
0
 10
70.5663
 20
15.1918
 11
70.4334
 21
15.1792
  0
LINE
  8
0
 10
70.4334
 20
15.1792
 11
70.3
 21
15.175
  0
LINE
  8
0
 10
70.3
 20
15.175
 11
70.1666
 21
15.1792
  0
LINE
  8
0
 10
53
 20
22.5
 11
53
 21
0
  0
LINE
  8
0
 10
53
 20
0
 11
75.5
 21
0
  0
LINE
  8
0
 10
75.5
 20
0
 11
53
 21
22.5
  0
LINE
  8
0
 10
60.0666
 20
5.07919
 11
59.9337
 21
5.09175
  0
LINE
  8
0
 10
59.9337
 20
5.09175
 11
59.8018
 21
5.11263
  0
LINE
  8
0
 10
59.8018
 20
5.11263
 11
59.6715
 21
5.14175
  0
LINE
  8
0
 10
59.6715
 20
5.14175
 11
59.5433
 21
5.179
  0
LINE
  8
0
 10
59.5433
 20
5.179
 11
59.4177
 21
5.22421
  0
LINE
  8
0
 10
59.4177
 20
5.22421
 11
59.2952
 21
5.27724
  0
LINE
  8
0
 10
59.2952
 20
5.27724
 11
59.1763
 21
5.33784
  0
LINE
  8
0
 10
59.1763
 20
5.33784
 11
59.0614
 21
5.40579
  0
LINE
  8
0
 10
59.0614
 20
5.40579
 11
58.9509
 21
5.48083
  0
LINE
  8
0
 10
58.9509
 20
5.48083
 11
58.8455
 21
5.56265
  0
LINE
  8
0
 10
58.8455
 20
5.56265
 11
58.7453
 21
5.65094
  0
LINE
  8
0
 10
58.7453
 20
5.65094
 11
58.6509
 21
5.74533
  0
LINE
  8
0
 10
58.6509
 20
5.74533
 11
58.5627
 21
5.84546
  0
LINE
  8
0
 10
58.5627
 20
5.84546
 11
58.4808
 21
5.95094
  0
LINE
  8
0
 10
58.4808
 20
5.95094
 11
58.4058
 21
6.06136
  0
LINE
  8
0
 10
58.4058
 20
6.06136
 11
58.3378
 21
6.17627
  0
LINE
  8
0
 10
58.3378
 20
6.17627
 11
58.2772
 21
6.29521
  0
LINE
  8
0
 10
58.2772
 20
6.29521
 11
58.2242
 21
6.41772
  0
LINE
  8
0
 10
58.2242
 20
6.41772
 11
58.179
 21
6.54333
  0
LINE
  8
0
 10
58.179
 20
6.54333
 11
58.1418
 21
6.67152
  0
LINE
  8
0
 10
58.1418
 20
6.67152
 11
58.1126
 21
6.8018
  0
LINE
  8
0
 10
58.1126
 20
6.8018
 11
58.0918
 21
6.93365
  0
LINE
  8
0
 10
58.0918
 20
6.93365
 11
58.0792
 21
7.06656
  0
LINE
  8
0
 10
58.0792
 20
7.06656
 11
58.075
 21
7.2
  0
LINE
  8
0
 10
58.075
 20
7.2
 11
58.0792
 21
7.33342
  0
LINE
  8
0
 10
58.0792
 20
7.33342
 11
58.0918
 21
7.46632
  0
LINE
  8
0
 10
58.0918
 20
7.46632
 11
58.1126
 21
7.59818
  0
LINE
  8
0
 10
58.1126
 20
7.59818
 11
58.1418
 21
7.72845
  0
LINE
  8
0
 10
58.1418
 20
7.72845
 11
58.179
 21
7.85666
  0
LINE
  8
0
 10
58.179
 20
7.85666
 11
58.2242
 21
7.98225
  0
LINE
  8
0
 10
58.2242
 20
7.98225
 11
58.2772
 21
8.10477
  0
LINE
  8
0
 10
58.2772
 20
8.10477
 11
58.3378
 21
8.22372
  0
LINE
  8
0
 10
58.3378
 20
8.22372
 11
58.4058
 21
8.33862
  0
LINE
  8
0
 10
58.4058
 20
8.33862
 11
58.4808
 21
8.44904
  0
LINE
  8
0
 10
58.4808
 20
8.44904
 11
58.5627
 21
8.55452
  0
LINE
  8
0
 10
58.5627
 20
8.55452
 11
58.6509
 21
8.65465
  0
LINE
  8
0
 10
58.6509
 20
8.65465
 11
58.7453
 21
8.74905
  0
LINE
  8
0
 10
58.7453
 20
8.74905
 11
58.8455
 21
8.83733
  0
LINE
  8
0
 10
58.8455
 20
8.83733
 11
58.9509
 21
8.91916
  0
LINE
  8
0
 10
58.9509
 20
8.91916
 11
59.0614
 21
8.99419
  0
LINE
  8
0
 10
59.0614
 20
8.99419
 11
59.1763
 21
9.06215
  0
LINE
  8
0
 10
59.1763
 20
9.06215
 11
59.2952
 21
9.12276
  0
LINE
  8
0
 10
59.2952
 20
9.12276
 11
59.4177
 21
9.17577
  0
LINE
  8
0
 10
59.4177
 20
9.17577
 11
59.5433
 21
9.22099
  0
LINE
  8
0
 10
59.5433
 20
9.22099
 11
59.6715
 21
9.25822
  0
LINE
  8
0
 10
59.6715
 20
9.25822
 11
59.8018
 21
9.28735
  0
LINE
  8
0
 10
59.8018
 20
9.28735
 11
59.9337
 21
9.30824
  0
LINE
  8
0
 10
59.9337
 20
9.30824
 11
60.0666
 21
9.3208
  0
LINE
  8
0
 10
60.0666
 20
9.3208
 11
60.2
 21
9.325
  0
LINE
  8
0
 10
60.2
 20
9.325
 11
60.3334
 21
9.3208
  0
LINE
  8
0
 10
60.3334
 20
9.3208
 11
60.4663
 21
9.30824
  0
LINE
  8
0
 10
60.4663
 20
9.30824
 11
60.5982
 21
9.28735
  0
LINE
  8
0
 10
60.5982
 20
9.28735
 11
60.7285
 21
9.25822
  0
LINE
  8
0
 10
60.7285
 20
9.25822
 11
60.8567
 21
9.22099
  0
LINE
  8
0
 10
60.8567
 20
9.22099
 11
60.9823
 21
9.17577
  0
LINE
  8
0
 10
60.9823
 20
9.17577
 11
61.1048
 21
9.12276
  0
LINE
  8
0
 10
61.1048
 20
9.12276
 11
61.2237
 21
9.06215
  0
LINE
  8
0
 10
61.2237
 20
9.06215
 11
61.3386
 21
8.99419
  0
LINE
  8
0
 10
61.3386
 20
8.99419
 11
61.449
 21
8.91916
  0
LINE
  8
0
 10
61.449
 20
8.91916
 11
61.5545
 21
8.83733
  0
LINE
  8
0
 10
61.5545
 20
8.83733
 11
61.6546
 21
8.74905
  0
LINE
  8
0
 10
61.6546
 20
8.74905
 11
61.7491
 21
8.65465
  0
LINE
  8
0
 10
61.7491
 20
8.65465
 11
61.8373
 21
8.55452
  0
LINE
  8
0
 10
61.8373
 20
8.55452
 11
61.9192
 21
8.44904
  0
LINE
  8
0
 10
61.9192
 20
8.44904
 11
61.9942
 21
8.33862
  0
LINE
  8
0
 10
61.9942
 20
8.33862
 11
62.0621
 21
8.22372
  0
LINE
  8
0
 10
62.0621
 20
8.22372
 11
62.1228
 21
8.10477
  0
LINE
  8
0
 10
62.1228
 20
8.10477
 11
62.1758
 21
7.98225
  0
LINE
  8
0
 10
62.1758
 20
7.98225
 11
62.221
 21
7.85666
  0
LINE
  8
0
 10
62.221
 20
7.85666
 11
62.2582
 21
7.72845
  0
LINE
  8
0
 10
62.2582
 20
7.72845
 11
62.2874
 21
7.59818
  0
LINE
  8
0
 10
62.2874
 20
7.59818
 11
62.3082
 21
7.46632
  0
LINE
  8
0
 10
62.3082
 20
7.46632
 11
62.3208
 21
7.33342
  0
LINE
  8
0
 10
62.3208
 20
7.33342
 11
62.325
 21
7.2
  0
LINE
  8
0
 10
62.325
 20
7.2
 11
62.3208
 21
7.06656
  0
LINE
  8
0
 10
62.3208
 20
7.06656
 11
62.3082
 21
6.93365
  0
LINE
  8
0
 10
62.3082
 20
6.93365
 11
62.2874
 21
6.8018
  0
LINE
  8
0
 10
62.2874
 20
6.8018
 11
62.2582
 21
6.67152
  0
LINE
  8
0
 10
62.2582
 20
6.67152
 11
62.221
 21
6.54333
  0
LINE
  8
0
 10
62.221
 20
6.54333
 11
62.1758
 21
6.41772
  0
LINE
  8
0
 10
62.1758
 20
6.41772
 11
62.1228
 21
6.29521
  0
LINE
  8
0
 10
62.1228
 20
6.29521
 11
62.0621
 21
6.17627
  0
LINE
  8
0
 10
62.0621
 20
6.17627
 11
61.9942
 21
6.06136
  0
LINE
  8
0
 10
61.9942
 20
6.06136
 11
61.9192
 21
5.95094
  0
LINE
  8
0
 10
61.9192
 20
5.95094
 11
61.8373
 21
5.84546
  0
LINE
  8
0
 10
61.8373
 20
5.84546
 11
61.7491
 21
5.74533
  0
LINE
  8
0
 10
61.7491
 20
5.74533
 11
61.6546
 21
5.65094
  0
LINE
  8
0
 10
61.6546
 20
5.65094
 11
61.5545
 21
5.56265
  0
LINE
  8
0
 10
61.5545
 20
5.56265
 11
61.449
 21
5.48083
  0
LINE
  8
0
 10
61.449
 20
5.48083
 11
61.3386
 21
5.40579
  0
LINE
  8
0
 10
61.3386
 20
5.40579
 11
61.2237
 21
5.33784
  0
LINE
  8
0
 10
61.2237
 20
5.33784
 11
61.1048
 21
5.27724
  0
LINE
  8
0
 10
61.1048
 20
5.27724
 11
60.9823
 21
5.22421
  0
LINE
  8
0
 10
60.9823
 20
5.22421
 11
60.8567
 21
5.179
  0
LINE
  8
0
 10
60.8567
 20
5.179
 11
60.7285
 21
5.14175
  0
LINE
  8
0
 10
60.7285
 20
5.14175
 11
60.5982
 21
5.11263
  0
LINE
  8
0
 10
60.5982
 20
5.11263
 11
60.4663
 21
5.09175
  0
LINE
  8
0
 10
60.4663
 20
5.09175
 11
60.3334
 21
5.07919
  0
LINE
  8
0
 10
60.3334
 20
5.07919
 11
60.2
 21
5.075
  0
LINE
  8
0
 10
60.2
 20
5.075
 11
60.0666
 21
5.07919
  0
LINE
  8
0
 10
0
 20
22.5
 11
0
 21
0
  0
LINE
  8
0
 10
0
 20
0
 11
22.5
 21
0
  0
LINE
  8
0
 10
22.5
 20
0
 11
0
 21
22.5
  0
LINE
  8
0
 10
7.06656
 20
5.07919
 11
6.93365
 21
5.09175
  0
LINE
  8
0
 10
6.93365
 20
5.09175
 11
6.8018
 21
5.11263
  0
LINE
  8
0
 10
6.8018
 20
5.11263
 11
6.67152
 21
5.14175
  0
LINE
  8
0
 10
6.67152
 20
5.14175
 11
6.54333
 21
5.179
  0
LINE
  8
0
 10
6.54333
 20
5.179
 11
6.41772
 21
5.22421
  0
LINE
  8
0
 10
6.41772
 20
5.22421
 11
6.29521
 21
5.27724
  0
LINE
  8
0
 10
6.29521
 20
5.27724
 11
6.17627
 21
5.33784
  0
LINE
  8
0
 10
6.17627
 20
5.33784
 11
6.06136
 21
5.40579
  0
LINE
  8
0
 10
6.06136
 20
5.40579
 11
5.95094
 21
5.48083
  0
LINE
  8
0
 10
5.95094
 20
5.48083
 11
5.84546
 21
5.56265
  0
LINE
  8
0
 10
5.84546
 20
5.56265
 11
5.74533
 21
5.65094
  0
LINE
  8
0
 10
5.74533
 20
5.65094
 11
5.65094
 21
5.74533
  0
LINE
  8
0
 10
5.65094
 20
5.74533
 11
5.56265
 21
5.84546
  0
LINE
  8
0
 10
5.56265
 20
5.84546
 11
5.48083
 21
5.95094
  0
LINE
  8
0
 10
5.48083
 20
5.95094
 11
5.40579
 21
6.06136
  0
LINE
  8
0
 10
5.40579
 20
6.06136
 11
5.33784
 21
6.17627
  0
LINE
  8
0
 10
5.33784
 20
6.17627
 11
5.27724
 21
6.29521
  0
LINE
  8
0
 10
5.27724
 20
6.29521
 11
5.22421
 21
6.41772
  0
LINE
  8
0
 10
5.22421
 20
6.41772
 11
5.179
 21
6.54333
  0
LINE
  8
0
 10
5.179
 20
6.54333
 11
5.14175
 21
6.67152
  0
LINE
  8
0
 10
5.14175
 20
6.67152
 11
5.11263
 21
6.8018
  0
LINE
  8
0
 10
5.11263
 20
6.8018
 11
5.09175
 21
6.93365
  0
LINE
  8
0
 10
5.09175
 20
6.93365
 11
5.07919
 21
7.06656
  0
LINE
  8
0
 10
5.07919
 20
7.06656
 11
5.075
 21
7.2
  0
LINE
  8
0
 10
5.075
 20
7.2
 11
5.07919
 21
7.33342
  0
LINE
  8
0
 10
5.07919
 20
7.33342
 11
5.09175
 21
7.46632
  0
LINE
  8
0
 10
5.09175
 20
7.46632
 11
5.11263
 21
7.59818
  0
LINE
  8
0
 10
5.11263
 20
7.59818
 11
5.14175
 21
7.72845
  0
LINE
  8
0
 10
5.14175
 20
7.72845
 11
5.179
 21
7.85666
  0
LINE
  8
0
 10
5.179
 20
7.85666
 11
5.22421
 21
7.98225
  0
LINE
  8
0
 10
5.22421
 20
7.98225
 11
5.27724
 21
8.10477
  0
LINE
  8
0
 10
5.27724
 20
8.10477
 11
5.33784
 21
8.22372
  0
LINE
  8
0
 10
5.33784
 20
8.22372
 11
5.40579
 21
8.33862
  0
LINE
  8
0
 10
5.40579
 20
8.33862
 11
5.48083
 21
8.44904
  0
LINE
  8
0
 10
5.48083
 20
8.44904
 11
5.56265
 21
8.55452
  0
LINE
  8
0
 10
5.56265
 20
8.55452
 11
5.65094
 21
8.65465
  0
LINE
  8
0
 10
5.65094
 20
8.65465
 11
5.74533
 21
8.74905
  0
LINE
  8
0
 10
5.74533
 20
8.74905
 11
5.84546
 21
8.83733
  0
LINE
  8
0
 10
5.84546
 20
8.83733
 11
5.95094
 21
8.91916
  0
LINE
  8
0
 10
5.95094
 20
8.91916
 11
6.06136
 21
8.99419
  0
LINE
  8
0
 10
6.06136
 20
8.99419
 11
6.17627
 21
9.06215
  0
LINE
  8
0
 10
6.17627
 20
9.06215
 11
6.29521
 21
9.12276
  0
LINE
  8
0
 10
6.29521
 20
9.12276
 11
6.41772
 21
9.17577
  0
LINE
  8
0
 10
6.41772
 20
9.17577
 11
6.54333
 21
9.22099
  0
LINE
  8
0
 10
6.54333
 20
9.22099
 11
6.67152
 21
9.25822
  0
LINE
  8
0
 10
6.67152
 20
9.25822
 11
6.8018
 21
9.28735
  0
LINE
  8
0
 10
6.8018
 20
9.28735
 11
6.93365
 21
9.30824
  0
LINE
  8
0
 10
6.93365
 20
9.30824
 11
7.06656
 21
9.3208
  0
LINE
  8
0
 10
7.06656
 20
9.3208
 11
7.2
 21
9.325
  0
LINE
  8
0
 10
7.2
 20
9.325
 11
7.33342
 21
9.3208
  0
LINE
  8
0
 10
7.33342
 20
9.3208
 11
7.46632
 21
9.30824
  0
LINE
  8
0
 10
7.46632
 20
9.30824
 11
7.59818
 21
9.28735
  0
LINE
  8
0
 10
7.59818
 20
9.28735
 11
7.72845
 21
9.25822
  0
LINE
  8
0
 10
7.72845
 20
9.25822
 11
7.85666
 21
9.22099
  0
LINE
  8
0
 10
7.85666
 20
9.22099
 11
7.98225
 21
9.17577
  0
LINE
  8
0
 10
7.98225
 20
9.17577
 11
8.10477
 21
9.12276
  0
LINE
  8
0
 10
8.10477
 20
9.12276
 11
8.22372
 21
9.06215
  0
LINE
  8
0
 10
8.22372
 20
9.06215
 11
8.33862
 21
8.99419
  0
LINE
  8
0
 10
8.33862
 20
8.99419
 11
8.44904
 21
8.91916
  0
LINE
  8
0
 10
8.44904
 20
8.91916
 11
8.55452
 21
8.83733
  0
LINE
  8
0
 10
8.55452
 20
8.83733
 11
8.65465
 21
8.74905
  0
LINE
  8
0
 10
8.65465
 20
8.74905
 11
8.74905
 21
8.65465
  0
LINE
  8
0
 10
8.74905
 20
8.65465
 11
8.83733
 21
8.55452
  0
LINE
  8
0
 10
8.83733
 20
8.55452
 11
8.91916
 21
8.44904
  0
LINE
  8
0
 10
8.91916
 20
8.44904
 11
8.99419
 21
8.33862
  0
LINE
  8
0
 10
8.99419
 20
8.33862
 11
9.06215
 21
8.22372
  0
LINE
  8
0
 10
9.06215
 20
8.22372
 11
9.12276
 21
8.10477
  0
LINE
  8
0
 10
9.12276
 20
8.10477
 11
9.17577
 21
7.98225
  0
LINE
  8
0
 10
9.17577
 20
7.98225
 11
9.22099
 21
7.85666
  0
LINE
  8
0
 10
9.22099
 20
7.85666
 11
9.25822
 21
7.72845
  0
LINE
  8
0
 10
9.25822
 20
7.72845
 11
9.28735
 21
7.59818
  0
LINE
  8
0
 10
9.28735
 20
7.59818
 11
9.30824
 21
7.46632
  0
LINE
  8
0
 10
9.30824
 20
7.46632
 11
9.3208
 21
7.33342
  0
LINE
  8
0
 10
9.3208
 20
7.33342
 11
9.325
 21
7.2
  0
LINE
  8
0
 10
9.325
 20
7.2
 11
9.3208
 21
7.06656
  0
LINE
  8
0
 10
9.3208
 20
7.06656
 11
9.30824
 21
6.93365
  0
LINE
  8
0
 10
9.30824
 20
6.93365
 11
9.28735
 21
6.8018
  0
LINE
  8
0
 10
9.28735
 20
6.8018
 11
9.25822
 21
6.67152
  0
LINE
  8
0
 10
9.25822
 20
6.67152
 11
9.22099
 21
6.54333
  0
LINE
  8
0
 10
9.22099
 20
6.54333
 11
9.17577
 21
6.41772
  0
LINE
  8
0
 10
9.17577
 20
6.41772
 11
9.12276
 21
6.29521
  0
LINE
  8
0
 10
9.12276
 20
6.29521
 11
9.06215
 21
6.17627
  0
LINE
  8
0
 10
9.06215
 20
6.17627
 11
8.99419
 21
6.06136
  0
LINE
  8
0
 10
8.99419
 20
6.06136
 11
8.91916
 21
5.95094
  0
LINE
  8
0
 10
8.91916
 20
5.95094
 11
8.83733
 21
5.84546
  0
LINE
  8
0
 10
8.83733
 20
5.84546
 11
8.74905
 21
5.74533
  0
LINE
  8
0
 10
8.74905
 20
5.74533
 11
8.65465
 21
5.65094
  0
LINE
  8
0
 10
8.65465
 20
5.65094
 11
8.55452
 21
5.56265
  0
LINE
  8
0
 10
8.55452
 20
5.56265
 11
8.44904
 21
5.48083
  0
LINE
  8
0
 10
8.44904
 20
5.48083
 11
8.33862
 21
5.40579
  0
LINE
  8
0
 10
8.33862
 20
5.40579
 11
8.22372
 21
5.33784
  0
LINE
  8
0
 10
8.22372
 20
5.33784
 11
8.10477
 21
5.27724
  0
LINE
  8
0
 10
8.10477
 20
5.27724
 11
7.98225
 21
5.22421
  0
LINE
  8
0
 10
7.98225
 20
5.22421
 11
7.85666
 21
5.179
  0
LINE
  8
0
 10
7.85666
 20
5.179
 11
7.72845
 21
5.14175
  0
LINE
  8
0
 10
7.72845
 20
5.14175
 11
7.59818
 21
5.11263
  0
LINE
  8
0
 10
7.59818
 20
5.11263
 11
7.46632
 21
5.09175
  0
LINE
  8
0
 10
7.46632
 20
5.09175
 11
7.33342
 21
5.07919
  0
LINE
  8
0
 10
7.33342
 20
5.07919
 11
7.2
 21
5.075
  0
LINE
  8
0
 10
7.2
 20
5.075
 11
7.06656
 21
5.07919
  0
LINE
  8
0
 10
26.5
 20
22.5
 11
26.5
 21
0
  0
LINE
  8
0
 10
26.5
 20
0
 11
49
 21
0
  0
LINE
  8
0
 10
49
 20
0
 11
26.5
 21
22.5
  0
LINE
  8
0
 10
33.5666
 20
5.07919
 11
33.4337
 21
5.09175
  0
LINE
  8
0
 10
33.4337
 20
5.09175
 11
33.3018
 21
5.11263
  0
LINE
  8
0
 10
33.3018
 20
5.11263
 11
33.1715
 21
5.14175
  0
LINE
  8
0
 10
33.1715
 20
5.14175
 11
33.0433
 21
5.179
  0
LINE
  8
0
 10
33.0433
 20
5.179
 11
32.9177
 21
5.22421
  0
LINE
  8
0
 10
32.9177
 20
5.22421
 11
32.7952
 21
5.27724
  0
LINE
  8
0
 10
32.7952
 20
5.27724
 11
32.6763
 21
5.33784
  0
LINE
  8
0
 10
32.6763
 20
5.33784
 11
32.5614
 21
5.40579
  0
LINE
  8
0
 10
32.5614
 20
5.40579
 11
32.4509
 21
5.48083
  0
LINE
  8
0
 10
32.4509
 20
5.48083
 11
32.3455
 21
5.56265
  0
LINE
  8
0
 10
32.3455
 20
5.56265
 11
32.2453
 21
5.65094
  0
LINE
  8
0
 10
32.2453
 20
5.65094
 11
32.1509
 21
5.74533
  0
LINE
  8
0
 10
32.1509
 20
5.74533
 11
32.0627
 21
5.84546
  0
LINE
  8
0
 10
32.0627
 20
5.84546
 11
31.9808
 21
5.95094
  0
LINE
  8
0
 10
31.9808
 20
5.95094
 11
31.9058
 21
6.06136
  0
LINE
  8
0
 10
31.9058
 20
6.06136
 11
31.8378
 21
6.17627
  0
LINE
  8
0
 10
31.8378
 20
6.17627
 11
31.7772
 21
6.29521
  0
LINE
  8
0
 10
31.7772
 20
6.29521
 11
31.7242
 21
6.41772
  0
LINE
  8
0
 10
31.7242
 20
6.41772
 11
31.679
 21
6.54333
  0
LINE
  8
0
 10
31.679
 20
6.54333
 11
31.6418
 21
6.67152
  0
LINE
  8
0
 10
31.6418
 20
6.67152
 11
31.6126
 21
6.8018
  0
LINE
  8
0
 10
31.6126
 20
6.8018
 11
31.5918
 21
6.93365
  0
LINE
  8
0
 10
31.5918
 20
6.93365
 11
31.5792
 21
7.06656
  0
LINE
  8
0
 10
31.5792
 20
7.06656
 11
31.575
 21
7.2
  0
LINE
  8
0
 10
31.575
 20
7.2
 11
31.5792
 21
7.33342
  0
LINE
  8
0
 10
31.5792
 20
7.33342
 11
31.5918
 21
7.46632
  0
LINE
  8
0
 10
31.5918
 20
7.46632
 11
31.6126
 21
7.59818
  0
LINE
  8
0
 10
31.6126
 20
7.59818
 11
31.6418
 21
7.72845
  0
LINE
  8
0
 10
31.6418
 20
7.72845
 11
31.679
 21
7.85666
  0
LINE
  8
0
 10
31.679
 20
7.85666
 11
31.7242
 21
7.98225
  0
LINE
  8
0
 10
31.7242
 20
7.98225
 11
31.7772
 21
8.10477
  0
LINE
  8
0
 10
31.7772
 20
8.10477
 11
31.8378
 21
8.22372
  0
LINE
  8
0
 10
31.8378
 20
8.22372
 11
31.9058
 21
8.33862
  0
LINE
  8
0
 10
31.9058
 20
8.33862
 11
31.9808
 21
8.44904
  0
LINE
  8
0
 10
31.9808
 20
8.44904
 11
32.0627
 21
8.55452
  0
LINE
  8
0
 10
32.0627
 20
8.55452
 11
32.1509
 21
8.65465
  0
LINE
  8
0
 10
32.1509
 20
8.65465
 11
32.2453
 21
8.74905
  0
LINE
  8
0
 10
32.2453
 20
8.74905
 11
32.3455
 21
8.83733
  0
LINE
  8
0
 10
32.3455
 20
8.83733
 11
32.4509
 21
8.91916
  0
LINE
  8
0
 10
32.4509
 20
8.91916
 11
32.5614
 21
8.99419
  0
LINE
  8
0
 10
32.5614
 20
8.99419
 11
32.6763
 21
9.06215
  0
LINE
  8
0
 10
32.6763
 20
9.06215
 11
32.7952
 21
9.12276
  0
LINE
  8
0
 10
32.7952
 20
9.12276
 11
32.9177
 21
9.17577
  0
LINE
  8
0
 10
32.9177
 20
9.17577
 11
33.0433
 21
9.22099
  0
LINE
  8
0
 10
33.0433
 20
9.22099
 11
33.1715
 21
9.25822
  0
LINE
  8
0
 10
33.1715
 20
9.25822
 11
33.3018
 21
9.28735
  0
LINE
  8
0
 10
33.3018
 20
9.28735
 11
33.4337
 21
9.30824
  0
LINE
  8
0
 10
33.4337
 20
9.30824
 11
33.5666
 21
9.3208
  0
LINE
  8
0
 10
33.5666
 20
9.3208
 11
33.7
 21
9.325
  0
LINE
  8
0
 10
33.7
 20
9.325
 11
33.8334
 21
9.3208
  0
LINE
  8
0
 10
33.8334
 20
9.3208
 11
33.9663
 21
9.30824
  0
LINE
  8
0
 10
33.9663
 20
9.30824
 11
34.0982
 21
9.28735
  0
LINE
  8
0
 10
34.0982
 20
9.28735
 11
34.2285
 21
9.25822
  0
LINE
  8
0
 10
34.2285
 20
9.25822
 11
34.3567
 21
9.22099
  0
LINE
  8
0
 10
34.3567
 20
9.22099
 11
34.4823
 21
9.17577
  0
LINE
  8
0
 10
34.4823
 20
9.17577
 11
34.6048
 21
9.12276
  0
LINE
  8
0
 10
34.6048
 20
9.12276
 11
34.7237
 21
9.06215
  0
LINE
  8
0
 10
34.7237
 20
9.06215
 11
34.8386
 21
8.99419
  0
LINE
  8
0
 10
34.8386
 20
8.99419
 11
34.949
 21
8.91916
  0
LINE
  8
0
 10
34.949
 20
8.91916
 11
35.0545
 21
8.83733
  0
LINE
  8
0
 10
35.0545
 20
8.83733
 11
35.1546
 21
8.74905
  0
LINE
  8
0
 10
35.1546
 20
8.74905
 11
35.2491
 21
8.65465
  0
LINE
  8
0
 10
35.2491
 20
8.65465
 11
35.3373
 21
8.55452
  0
LINE
  8
0
 10
35.3373
 20
8.55452
 11
35.4192
 21
8.44904
  0
LINE
  8
0
 10
35.4192
 20
8.44904
 11
35.4942
 21
8.33862
  0
LINE
  8
0
 10
35.4942
 20
8.33862
 11
35.5621
 21
8.22372
  0
LINE
  8
0
 10
35.5621
 20
8.22372
 11
35.6228
 21
8.10477
  0
LINE
  8
0
 10
35.6228
 20
8.10477
 11
35.6758
 21
7.98225
  0
LINE
  8
0
 10
35.6758
 20
7.98225
 11
35.721
 21
7.85666
  0
LINE
  8
0
 10
35.721
 20
7.85666
 11
35.7582
 21
7.72845
  0
LINE
  8
0
 10
35.7582
 20
7.72845
 11
35.7874
 21
7.59818
  0
LINE
  8
0
 10
35.7874
 20
7.59818
 11
35.8082
 21
7.46632
  0
LINE
  8
0
 10
35.8082
 20
7.46632
 11
35.8208
 21
7.33342
  0
LINE
  8
0
 10
35.8208
 20
7.33342
 11
35.825
 21
7.2
  0
LINE
  8
0
 10
35.825
 20
7.2
 11
35.8208
 21
7.06656
  0
LINE
  8
0
 10
35.8208
 20
7.06656
 11
35.8082
 21
6.93365
  0
LINE
  8
0
 10
35.8082
 20
6.93365
 11
35.7874
 21
6.8018
  0
LINE
  8
0
 10
35.7874
 20
6.8018
 11
35.7582
 21
6.67152
  0
LINE
  8
0
 10
35.7582
 20
6.67152
 11
35.721
 21
6.54333
  0
LINE
  8
0
 10
35.721
 20
6.54333
 11
35.6758
 21
6.41772
  0
LINE
  8
0
 10
35.6758
 20
6.41772
 11
35.6228
 21
6.29521
  0
LINE
  8
0
 10
35.6228
 20
6.29521
 11
35.5621
 21
6.17627
  0
LINE
  8
0
 10
35.5621
 20
6.17627
 11
35.4942
 21
6.06136
  0
LINE
  8
0
 10
35.4942
 20
6.06136
 11
35.4192
 21
5.95094
  0
LINE
  8
0
 10
35.4192
 20
5.95094
 11
35.3373
 21
5.84546
  0
LINE
  8
0
 10
35.3373
 20
5.84546
 11
35.2491
 21
5.74533
  0
LINE
  8
0
 10
35.2491
 20
5.74533
 11
35.1546
 21
5.65094
  0
LINE
  8
0
 10
35.1546
 20
5.65094
 11
35.0545
 21
5.56265
  0
LINE
  8
0
 10
35.0545
 20
5.56265
 11
34.949
 21
5.48083
  0
LINE
  8
0
 10
34.949
 20
5.48083
 11
34.8386
 21
5.40579
  0
LINE
  8
0
 10
34.8386
 20
5.40579
 11
34.7237
 21
5.33784
  0
LINE
  8
0
 10
34.7237
 20
5.33784
 11
34.6048
 21
5.27724
  0
LINE
  8
0
 10
34.6048
 20
5.27724
 11
34.4823
 21
5.22421
  0
LINE
  8
0
 10
34.4823
 20
5.22421
 11
34.3567
 21
5.179
  0
LINE
  8
0
 10
34.3567
 20
5.179
 11
34.2285
 21
5.14175
  0
LINE
  8
0
 10
34.2285
 20
5.14175
 11
34.0982
 21
5.11263
  0
LINE
  8
0
 10
34.0982
 20
5.11263
 11
33.9663
 21
5.09175
  0
LINE
  8
0
 10
33.9663
 20
5.09175
 11
33.8334
 21
5.07919
  0
LINE
  8
0
 10
33.8334
 20
5.07919
 11
33.7
 21
5.075
  0
LINE
  8
0
 10
33.7
 20
5.075
 11
33.5666
 21
5.07919
  0
ENDSEC
  0
SECTION
  2
OBJECTS
  0
DICTIONARY
  0
ENDSEC
  0
EOF
