  0
SECTION
  2
HEADER
  9
$ACADVER
  1
AC1009
  9
$DWGCODEPAGE
  3
ANSI_1252
  9
$INSBASE
 10
0.0
 20
0.0
 30
0.0
  9
$EXTMIN
 10
1e+20
 20
1e+20
 30
1e+20
  9
$EXTMAX
 10
-1e+20
 20
-1e+20
 30
-1e+20
  9
$LIMMIN
 10
0.0
 20
0.0
  9
$LIMMAX
 10
420.0
 20
297.0
  9
$ORTHOMODE
 70
0
  9
$REGENMODE
 70
1
  9
$FILLMODE
 70
1
  9
$DRAGMODE
 70
2
  9
$QTEXTMODE
 70
0
  9
$MIRRTEXT
 70
1
  9
$OSMODE
 70
20583
  9
$LTSCALE
 40
1.0
  9
$ATTMODE
 70
1
  9
$TEXTSIZE
 40
2.5
  9
$TRACEWID
 40
1.0
  9
$TEXTSTYLE
  7
Standard
  9
$CLAYER
  8
0
  9
$CELTYPE
  6
ByLayer
  9
$CECOLOR
 62
256
  9
$DIMSCALE
 40
1.0
  9
$DIMASZ
 40
2.5
  9
$DIMEXO
 40
0.625
  9
$DIMDLI
 40
3.75
  9
$DIMRND
 40
0.0
  9
$DIMDLE
 40
0.0
  9
$DIMEXE
 40
1.25
  9
$DIMTP
 40
0.0
  9
$DIMTM
 40
0.0
  9
$DIMTXT
 40
2.5
  9
$DIMCEN
 40
2.5
  9
$DIMTSZ
 40
0.0
  9
$DIMTOL
 70
0
  9
$DIMLIM
 70
0
  9
$DIMTIH
 70
0
  9
$DIMTOH
 70
0
  9
$DIMSE1
 70
0
  9
$DIMSE2
 70
0
  9
$DIMTAD
 70
1
  9
$DIMZIN
 70
8
  9
$DIMBLK
  1

  9
$DIMASO
 70
1
  9
$DIMSHO
 70
1
  9
$DIMPOST
  1

  9
$DIMAPOST
  1

  9
$DIMALT
 70
0
  9
$DIMALTD
 70
3
  9
$DIMALTF
 40
0.03937007874
  9
$DIMLFAC
 40
1.0
  9
$DIMTOFL
 70
1
  9
$DIMTVP
 40
0.0
  9
$DIMTIX
 70
0
  9
$DIMSOXD
 70
0
  9
$DIMSAH
 70
0
  9
$DIMBLK1
  1

  9
$DIMBLK2
  1

  9
$DIMSTYLE
  2
ISO-25
  9
$DIMCLRD
 70
0
  9
$DIMCLRE
 70
0
  9
$DIMCLRT
 70
0
  9
$DIMTFAC
 40
1.0
  9
$DIMGAP
 40
0.625
  9
$COORDS
 70
1
  9
$ATTDIA
 70
0
  9
$ATTREQ
 70
1
  9
$HANDLING
 70
1
  9
$LUNITS
 70
2
  9
$LUPREC
 70
4
  9
$SKETCHINC
 40
1.0
  9
$FILLETRAD
 40
10.0
  9
$AUNITS
 70
0
  9
$AUPREC
 70
2
  9
$MENU
  1
.
  9
$ELEVATION
 40
0.0
  9
$PELEVATION
 40
0.0
  9
$THICKNESS
 40
0.0
  9
$LIMCHECK
 70
0
  9
$CHAMFERA
 40
0.0
  9
$CHAMFERB
 40
0.0
  9
$SKPOLY
 70
0
  9
$TDCREATE
 40
2461284.4674421297
  9
$TDUPDATE
 40
2461284.4674421297
  9
$TDINDWG
 40
0.0
  9
$TDUSRTIMER
 40
0.0
  9
$USRTIMER
 70
1
  9
$ANGBASE
 50
0.0
  9
$ANGDIR
 70
0
  9
$PDMODE
 70
0
  9
$PDSIZE
 40
0.0
  9
$PLINEWID
 40
0.0
  9
$SPLFRAME
 70
0
  9
$SPLINETYPE
 70
6
  9
$SPLINESEGS
 70
8
  9
$HANDSEED
  5
875
  9
$SURFTAB1
 70
6
  9
$SURFTAB2
 70
6
  9
$SURFTYPE
 70
6
  9
$SURFU
 70
6
  9
$SURFV
 70
6
  9
$UCSNAME
  2

  9
$UCSORG
 10
0.0
 20
0.0
 30
0.0
  9
$UCSXDIR
 10
1.0
 20
0.0
 30
0.0
  9
$UCSYDIR
 10
0.0
 20
1.0
 30
0.0
  9
$PUCSNAME
  2

  9
$PUCSORG
 10
0.0
 20
0.0
 30
0.0
  9
$PUCSXDIR
 10
1.0
 20
0.0
 30
0.0
  9
$PUCSYDIR
 10
0.0
 20
1.0
 30
0.0
  9
$USERI1
 70
0
  9
$USERI2
 70
0
  9
$USERI3
 70
0
  9
$USERI4
 70
0
  9
$USERI5
 70
0
  9
$USERR1
 40
0.0
  9
$USERR2
 40
0.0
  9
$USERR3
 40
0.0
  9
$USERR4
 40
0.0
  9
$USERR5
 40
0.0
  9
$WORLDVIEW
 70
1
  9
$SHADEDGE
 70
3
  9
$SHADEDIF
 70
70
  9
$TILEMODE
 70
1
  9
$MAXACTVP
 70
64
  9
$PLIMCHECK
 70
0
  9
$PEXTMIN
 10
1e+20
 20
1e+20
 30
1e+20
  9
$PEXTMAX
 10
-1e+20
 20
-1e+20
 30
-1e+20
  9
$PLIMMIN
 10
0.0
 20
0.0
  9
$PLIMMAX
 10
420.0
 20
297.0
  9
$UNITMODE
 70
0
  9
$VISRETAIN
 70
1
  9
$PLINEGEN
 70
0
  9
$PSLTSCALE
 70
1
  0
ENDSEC
  0
SECTION
  2
TABLES
  0
TABLE
  2
VPORT
 70
1
  0
VPORT
  5
869
  2
*Active
 70
0
 10
0.0
 20
0.0
 11
1.0
 21
1.0
 12
0.0
 22
0.0
 13
0.0
 23
0.0
 14
0.5
 24
0.5
 15
0.5
 25
0.5
 16
0.0
 26
0.0
 36
1.0
 17
0.0
 27
0.0
 37
0.0
 40
1000.0
 41
1.34
 42
50.0
 43
0.0
 44
0.0
 50
0.0
 51
0.0
 71
0
 72
1000
 73
1
 74
3
 75
0
 76
0
 77
0
 78
0
  0
ENDTAB
  0
TABLE
  2
LTYPE
 70
3
  0
LTYPE
  5
86A
  2
ByBlock
 70
0
  3

 72
65
 73
0
 40
0.0
  0
LTYPE
  5
86B
  2
ByLayer
 70
0
  3

 72
65
 73
0
 40
0.0
  0
LTYPE
  5
86C
  2
Continuous
 70
0
  3

 72
65
 73
0
 40
0.0
  0
ENDTAB
  0
TABLE
  2
LAYER
 70
2
  0
LAYER
  5
86D
  2
0
 70
0
 62
1
  6
Continuous
  0
LAYER
  5
86E
  2
Defpoints
 70
0
 62
7
  6
Continuous
  0
ENDTAB
  0
TABLE
  2
STYLE
 70
1
  0
STYLE
  5
86F
  2
Standard
 70
0
 40
0.0
 41
1.0
 50
0.0
 71
0
 42
2.5
  3
txt
  4

  0
ENDTAB
  0
TABLE
  2
VIEW
 70
0
  0
ENDTAB
  0
TABLE
  2
UCS
 70
0
  0
ENDTAB
  0
TABLE
  2
APPID
 70
3
  0
APPID
  5
870
  2
ACAD
 70
0
  0
APPID
  5
873
  2
HATCHBACKGROUNDCOLOR
 70
0
  0
APPID
  5
874
  2
EZDXF
 70
0
  0
ENDTAB
  0
TABLE
  2
DIMSTYLE
 70
1
  0
DIMSTYLE
105
871
  2
Standard
 70
0
  3

  4

  5

  6

  7

 40
1.0
 41
2.5
 42
0.625
 43
3.75
 44
1.25
 45
0.0
 46
0.0
 47
0.0
 48
0.0
140
2.5
141
2.5
142
0.0
143
0.03937007874
144
1.0
145
0.0
146
1.0
147
0.625
 71
0
 72
0
 73
0
 74
0
 75
0
 76
0
 77
1
 78
8
170
0
171
3
172
1
173
0
174
0
175
0
176
0
177
0
178
0
  0
ENDTAB
  0
ENDSEC
  0
SECTION
  2
BLOCKS
  0
BLOCK
  5
84A
  8
0
  2
$Model_Space
 70
0
 10
0.0
 20
0.0
 30
0.0
  3
$Model_Space
  1

1001
EZDXF
1000
WRITTEN_BY_EZDXF
1000
1.4.4 @ 2026-08-31T15:13:07.451731+00:00
  0
ENDBLK
  5
84B
  8
0
  0
BLOCK
  5
84C
  8
0
  2
$Paper_Space
 70
0
 10
0.0
 20
0.0
 30
0.0
  3
$Paper_Space
  1

  0
ENDBLK
  5
84D
  8
0
  0
ENDSEC
  0
SECTION
  2
ENTITIES
  0
LINE
  5
100
  8
0
 62
1
 10
24.5
 20
77.5
 30
0.0
 11
2.0
 21
77.5
 31
0.0
  0
LINE
  5
101
  8
0
 62
1
 10
2.0
 20
77.5
 30
0.0
 11
24.5
 21
55.0
 31
0.0
  0
LINE
  5
102
  8
0
 62
1
 10
24.5
 20
55.0
 30
0.0
 11
24.5
 21
77.5
 31
0.0
  0
LINE
  5
103
  8
0
 62
1
 10
17.1666
 20
68.1792
 30
0.0
 11
17.0337
 21
68.1918
 31
0.0
  0
LINE
  5
104
  8
0
 62
1
 10
17.0337
 20
68.1918
 30
0.0
 11
16.9018
 21
68.2126
 31
0.0
  0
LINE
  5
105
  8
0
 62
1
 10
16.9018
 20
68.2126
 30
0.0
 11
16.7715
 21
68.2418
 31
0.0
  0
LINE
  5
106
  8
0
 62
1
 10
16.7715
 20
68.2418
 30
0.0
 11
16.6433
 21
68.279
 31
0.0
  0
LINE
  5
107
  8
0
 62
1
 10
16.6433
 20
68.279
 30
0.0
 11
16.5177
 21
68.3242
 31
0.0
  0
LINE
  5
108
  8
0
 62
1
 10
16.5177
 20
68.3242
 30
0.0
 11
16.3952
 21
68.3772
 31
0.0
  0
LINE
  5
109
  8
0
 62
1
 10
16.3952
 20
68.3772
 30
0.0
 11
16.2763
 21
68.4379
 31
0.0
  0
LINE
  5
10A
  8
0
 62
1
 10
16.2763
 20
68.4379
 30
0.0
 11
16.1614
 21
68.5058
 31
0.0
  0
LINE
  5
10B
  8
0
 62
1
 10
16.1614
 20
68.5058
 30
0.0
 11
16.051
 21
68.5808
 31
0.0
  0
LINE
  5
10C
  8
0
 62
1
 10
16.051
 20
68.5808
 30
0.0
 11
15.9455
 21
68.6627
 31
0.0
  0
LINE
  5
10D
  8
0
 62
1
 10
15.9455
 20
68.6627
 30
0.0
 11
15.8454
 21
68.7509
 31
0.0
  0
LINE
  5
10E
  8
0
 62
1
 10
15.8454
 20
68.7509
 30
0.0
 11
15.7509
 21
68.8454
 31
0.0
  0
LINE
  5
10F
  8
0
 62
1
 10
15.7509
 20
68.8454
 30
0.0
 11
15.6627
 21
68.9455
 31
0.0
  0
LINE
  5
110
  8
0
 62
1
 10
15.6627
 20
68.9455
 30
0.0
 11
15.5808
 21
69.051
 31
0.0
  0
LINE
  5
111
  8
0
 62
1
 10
15.5808
 20
69.051
 30
0.0
 11
15.5058
 21
69.1614
 31
0.0
  0
LINE
  5
112
  8
0
 62
1
 10
15.5058
 20
69.1614
 30
0.0
 11
15.4379
 21
69.2763
 31
0.0
  0
LINE
  5
113
  8
0
 62
1
 10
15.4379
 20
69.2763
 30
0.0
 11
15.3772
 21
69.3952
 31
0.0
  0
LINE
  5
114
  8
0
 62
1
 10
15.3772
 20
69.3952
 30
0.0
 11
15.3242
 21
69.5177
 31
0.0
  0
LINE
  5
115
  8
0
 62
1
 10
15.3242
 20
69.5177
 30
0.0
 11
15.279
 21
69.6433
 31
0.0
  0
LINE
  5
116
  8
0
 62
1
 10
15.279
 20
69.6433
 30
0.0
 11
15.2418
 21
69.7715
 31
0.0
  0
LINE
  5
117
  8
0
 62
1
 10
15.2418
 20
69.7715
 30
0.0
 11
15.2126
 21
69.9018
 31
0.0
  0
LINE
  5
118
  8
0
 62
1
 10
15.2126
 20
69.9018
 30
0.0
 11
15.1918
 21
70.0337
 31
0.0
  0
LINE
  5
119
  8
0
 62
1
 10
15.1918
 20
70.0337
 30
0.0
 11
15.1792
 21
70.1666
 31
0.0
  0
LINE
  5
11A
  8
0
 62
1
 10
15.1792
 20
70.1666
 30
0.0
 11
15.175
 21
70.3
 31
0.0
  0
LINE
  5
11B
  8
0
 62
1
 10
15.175
 20
70.3
 30
0.0
 11
15.1792
 21
70.4334
 31
0.0
  0
LINE
  5
11C
  8
0
 62
1
 10
15.1792
 20
70.4334
 30
0.0
 11
15.1918
 21
70.5663
 31
0.0
  0
LINE
  5
11D
  8
0
 62
1
 10
15.1918
 20
70.5663
 30
0.0
 11
15.2126
 21
70.6982
 31
0.0
  0
LINE
  5
11E
  8
0
 62
1
 10
15.2126
 20
70.6982
 30
0.0
 11
15.2418
 21
70.8285
 31
0.0
  0
LINE
  5
11F
  8
0
 62
1
 10
15.2418
 20
70.8285
 30
0.0
 11
15.279
 21
70.9567
 31
0.0
  0
LINE
  5
120
  8
0
 62
1
 10
15.279
 20
70.9567
 30
0.0
 11
15.3242
 21
71.0823
 31
0.0
  0
LINE
  5
121
  8
0
 62
1
 10
15.3242
 20
71.0823
 30
0.0
 11
15.3772
 21
71.2048
 31
0.0
  0
LINE
  5
122
  8
0
 62
1
 10
15.3772
 20
71.2048
 30
0.0
 11
15.4379
 21
71.3237
 31
0.0
  0
LINE
  5
123
  8
0
 62
1
 10
15.4379
 20
71.3237
 30
0.0
 11
15.5058
 21
71.4386
 31
0.0
  0
LINE
  5
124
  8
0
 62
1
 10
15.5058
 20
71.4386
 30
0.0
 11
15.5808
 21
71.5491
 31
0.0
  0
LINE
  5
125
  8
0
 62
1
 10
15.5808
 20
71.5491
 30
0.0
 11
15.6627
 21
71.6545
 31
0.0
  0
LINE
  5
126
  8
0
 62
1
 10
15.6627
 20
71.6545
 30
0.0
 11
15.7509
 21
71.7547
 31
0.0
  0
LINE
  5
127
  8
0
 62
1
 10
15.7509
 20
71.7547
 30
0.0
 11
15.8454
 21
71.8491
 31
0.0
  0
LINE
  5
128
  8
0
 62
1
 10
15.8454
 20
71.8491
 30
0.0
 11
15.9455
 21
71.9373
 31
0.0
  0
LINE
  5
129
  8
0
 62
1
 10
15.9455
 20
71.9373
 30
0.0
 11
16.051
 21
72.0192
 31
0.0
  0
LINE
  5
12A
  8
0
 62
1
 10
16.051
 20
72.0192
 30
0.0
 11
16.1614
 21
72.0942
 31
0.0
  0
LINE
  5
12B
  8
0
 62
1
 10
16.1614
 20
72.0942
 30
0.0
 11
16.2763
 21
72.1622
 31
0.0
  0
LINE
  5
12C
  8
0
 62
1
 10
16.2763
 20
72.1622
 30
0.0
 11
16.3952
 21
72.2228
 31
0.0
  0
LINE
  5
12D
  8
0
 62
1
 10
16.3952
 20
72.2228
 30
0.0
 11
16.5177
 21
72.2758
 31
0.0
  0
LINE
  5
12E
  8
0
 62
1
 10
16.5177
 20
72.2758
 30
0.0
 11
16.6433
 21
72.321
 31
0.0
  0
LINE
  5
12F
  8
0
 62
1
 10
16.6433
 20
72.321
 30
0.0
 11
16.7715
 21
72.3582
 31
0.0
  0
LINE
  5
130
  8
0
 62
1
 10
16.7715
 20
72.3582
 30
0.0
 11
16.9018
 21
72.3874
 31
0.0
  0
LINE
  5
131
  8
0
 62
1
 10
16.9018
 20
72.3874
 30
0.0
 11
17.0337
 21
72.4082
 31
0.0
  0
LINE
  5
132
  8
0
 62
1
 10
17.0337
 20
72.4082
 30
0.0
 11
17.1666
 21
72.4208
 31
0.0
  0
LINE
  5
133
  8
0
 62
1
 10
17.1666
 20
72.4208
 30
0.0
 11
17.3
 21
72.425
 31
0.0
  0
LINE
  5
134
  8
0
 62
1
 10
17.3
 20
72.425
 30
0.0
 11
17.4334
 21
72.4208
 31
0.0
  0
LINE
  5
135
  8
0
 62
1
 10
17.4334
 20
72.4208
 30
0.0
 11
17.5663
 21
72.4082
 31
0.0
  0
LINE
  5
136
  8
0
 62
1
 10
17.5663
 20
72.4082
 30
0.0
 11
17.6982
 21
72.3874
 31
0.0
  0
LINE
  5
137
  8
0
 62
1
 10
17.6982
 20
72.3874
 30
0.0
 11
17.8285
 21
72.3582
 31
0.0
  0
LINE
  5
138
  8
0
 62
1
 10
17.8285
 20
72.3582
 30
0.0
 11
17.9567
 21
72.321
 31
0.0
  0
LINE
  5
139
  8
0
 62
1
 10
17.9567
 20
72.321
 30
0.0
 11
18.0823
 21
72.2758
 31
0.0
  0
LINE
  5
13A
  8
0
 62
1
 10
18.0823
 20
72.2758
 30
0.0
 11
18.2048
 21
72.2228
 31
0.0
  0
LINE
  5
13B
  8
0
 62
1
 10
18.2048
 20
72.2228
 30
0.0
 11
18.3237
 21
72.1622
 31
0.0
  0
LINE
  5
13C
  8
0
 62
1
 10
18.3237
 20
72.1622
 30
0.0
 11
18.4386
 21
72.0942
 31
0.0
  0
LINE
  5
13D
  8
0
 62
1
 10
18.4386
 20
72.0942
 30
0.0
 11
18.5491
 21
72.0192
 31
0.0
  0
LINE
  5
13E
  8
0
 62
1
 10
18.5491
 20
72.0192
 30
0.0
 11
18.6545
 21
71.9373
 31
0.0
  0
LINE
  5
13F
  8
0
 62
1
 10
18.6545
 20
71.9373
 30
0.0
 11
18.7547
 21
71.8491
 31
0.0
  0
LINE
  5
140
  8
0
 62
1
 10
18.7547
 20
71.8491
 30
0.0
 11
18.8491
 21
71.7547
 31
0.0
  0
LINE
  5
141
  8
0
 62
1
 10
18.8491
 20
71.7547
 30
0.0
 11
18.9373
 21
71.6545
 31
0.0
  0
LINE
  5
142
  8
0
 62
1
 10
18.9373
 20
71.6545
 30
0.0
 11
19.0192
 21
71.5491
 31
0.0
  0
LINE
  5
143
  8
0
 62
1
 10
19.0192
 20
71.5491
 30
0.0
 11
19.0942
 21
71.4386
 31
0.0
  0
LINE
  5
144
  8
0
 62
1
 10
19.0942
 20
71.4386
 30
0.0
 11
19.1622
 21
71.3237
 31
0.0
  0
LINE
  5
145
  8
0
 62
1
 10
19.1622
 20
71.3237
 30
0.0
 11
19.2228
 21
71.2048
 31
0.0
  0
LINE
  5
146
  8
0
 62
1
 10
19.2228
 20
71.2048
 30
0.0
 11
19.2758
 21
71.0823
 31
0.0
  0
LINE
  5
147
  8
0
 62
1
 10
19.2758
 20
71.0823
 30
0.0
 11
19.321
 21
70.9567
 31
0.0
  0
LINE
  5
148
  8
0
 62
1
 10
19.321
 20
70.9567
 30
0.0
 11
19.3582
 21
70.8285
 31
0.0
  0
LINE
  5
149
  8
0
 62
1
 10
19.3582
 20
70.8285
 30
0.0
 11
19.3874
 21
70.6982
 31
0.0
  0
LINE
  5
14A
  8
0
 62
1
 10
19.3874
 20
70.6982
 30
0.0
 11
19.4082
 21
70.5663
 31
0.0
  0
LINE
  5
14B
  8
0
 62
1
 10
19.4082
 20
70.5663
 30
0.0
 11
19.4208
 21
70.4334
 31
0.0
  0
LINE
  5
14C
  8
0
 62
1
 10
19.4208
 20
70.4334
 30
0.0
 11
19.425
 21
70.3
 31
0.0
  0
LINE
  5
14D
  8
0
 62
1
 10
19.425
 20
70.3
 30
0.0
 11
19.4208
 21
70.1666
 31
0.0
  0
LINE
  5
14E
  8
0
 62
1
 10
19.4208
 20
70.1666
 30
0.0
 11
19.4082
 21
70.0337
 31
0.0
  0
LINE
  5
14F
  8
0
 62
1
 10
19.4082
 20
70.0337
 30
0.0
 11
19.3874
 21
69.9018
 31
0.0
  0
LINE
  5
150
  8
0
 62
1
 10
19.3874
 20
69.9018
 30
0.0
 11
19.3582
 21
69.7715
 31
0.0
  0
LINE
  5
151
  8
0
 62
1
 10
19.3582
 20
69.7715
 30
0.0
 11
19.321
 21
69.6433
 31
0.0
  0
LINE
  5
152
  8
0
 62
1
 10
19.321
 20
69.6433
 30
0.0
 11
19.2758
 21
69.5177
 31
0.0
  0
LINE
  5
153
  8
0
 62
1
 10
19.2758
 20
69.5177
 30
0.0
 11
19.2228
 21
69.3952
 31
0.0
  0
LINE
  5
154
  8
0
 62
1
 10
19.2228
 20
69.3952
 30
0.0
 11
19.1622
 21
69.2763
 31
0.0
  0
LINE
  5
155
  8
0
 62
1
 10
19.1622
 20
69.2763
 30
0.0
 11
19.0942
 21
69.1614
 31
0.0
  0
LINE
  5
156
  8
0
 62
1
 10
19.0942
 20
69.1614
 30
0.0
 11
19.0192
 21
69.051
 31
0.0
  0
LINE
  5
157
  8
0
 62
1
 10
19.0192
 20
69.051
 30
0.0
 11
18.9373
 21
68.9455
 31
0.0
  0
LINE
  5
158
  8
0
 62
1
 10
18.9373
 20
68.9455
 30
0.0
 11
18.8491
 21
68.8454
 31
0.0
  0
LINE
  5
159
  8
0
 62
1
 10
18.8491
 20
68.8454
 30
0.0
 11
18.7547
 21
68.7509
 31
0.0
  0
LINE
  5
15A
  8
0
 62
1
 10
18.7547
 20
68.7509
 30
0.0
 11
18.6545
 21
68.6627
 31
0.0
  0
LINE
  5
15B
  8
0
 62
1
 10
18.6545
 20
68.6627
 30
0.0
 11
18.5491
 21
68.5808
 31
0.0
  0
LINE
  5
15C
  8
0
 62
1
 10
18.5491
 20
68.5808
 30
0.0
 11
18.4386
 21
68.5058
 31
0.0
  0
LINE
  5
15D
  8
0
 62
1
 10
18.4386
 20
68.5058
 30
0.0
 11
18.3237
 21
68.4379
 31
0.0
  0
LINE
  5
15E
  8
0
 62
1
 10
18.3237
 20
68.4379
 30
0.0
 11
18.2048
 21
68.3772
 31
0.0
  0
LINE
  5
15F
  8
0
 62
1
 10
18.2048
 20
68.3772
 30
0.0
 11
18.0823
 21
68.3242
 31
0.0
  0
LINE
  5
160
  8
0
 62
1
 10
18.0823
 20
68.3242
 30
0.0
 11
17.9567
 21
68.279
 31
0.0
  0
LINE
  5
161
  8
0
 62
1
 10
17.9567
 20
68.279
 30
0.0
 11
17.8285
 21
68.2418
 31
0.0
  0
LINE
  5
162
  8
0
 62
1
 10
17.8285
 20
68.2418
 30
0.0
 11
17.6982
 21
68.2126
 31
0.0
  0
LINE
  5
163
  8
0
 62
1
 10
17.6982
 20
68.2126
 30
0.0
 11
17.5663
 21
68.1918
 31
0.0
  0
LINE
  5
164
  8
0
 62
1
 10
17.5663
 20
68.1918
 30
0.0
 11
17.4334
 21
68.1792
 31
0.0
  0
LINE
  5
165
  8
0
 62
1
 10
17.4334
 20
68.1792
 30
0.0
 11
17.3
 21
68.175
 31
0.0
  0
LINE
  5
166
  8
0
 62
1
 10
17.3
 20
68.175
 30
0.0
 11
17.1666
 21
68.1792
 31
0.0
  0
LINE
  5
167
  8
0
 62
1
 10
77.5
 20
77.5
 30
0.0
 11
55.0
 21
77.5
 31
0.0
  0
LINE
  5
168
  8
0
 62
1
 10
55.0
 20
77.5
 30
0.0
 11
77.5
 21
55.0
 31
0.0
  0
LINE
  5
169
  8
0
 62
1
 10
77.5
 20
55.0
 30
0.0
 11
77.5
 21
77.5
 31
0.0
  0
LINE
  5
16A
  8
0
 62
1
 10
70.1666
 20
68.1792
 30
0.0
 11
70.0337
 21
68.1918
 31
0.0
  0
LINE
  5
16B
  8
0
 62
1
 10
70.0337
 20
68.1918
 30
0.0
 11
69.9018
 21
68.2126
 31
0.0
  0
LINE
  5
16C
  8
0
 62
1
 10
69.9018
 20
68.2126
 30
0.0
 11
69.7715
 21
68.2418
 31
0.0
  0
LINE
  5
16D
  8
0
 62
1
 10
69.7715
 20
68.2418
 30
0.0
 11
69.6433
 21
68.279
 31
0.0
  0
LINE
  5
16E
  8
0
 62
1
 10
69.6433
 20
68.279
 30
0.0
 11
69.5177
 21
68.3242
 31
0.0
  0
LINE
  5
16F
  8
0
 62
1
 10
69.5177
 20
68.3242
 30
0.0
 11
69.3952
 21
68.3772
 31
0.0
  0
LINE
  5
170
  8
0
 62
1
 10
69.3952
 20
68.3772
 30
0.0
 11
69.2763
 21
68.4379
 31
0.0
  0
LINE
  5
171
  8
0
 62
1
 10
69.2763
 20
68.4379
 30
0.0
 11
69.1614
 21
68.5058
 31
0.0
  0
LINE
  5
172
  8
0
 62
1
 10
69.1614
 20
68.5058
 30
0.0
 11
69.051
 21
68.5808
 31
0.0
  0
LINE
  5
173
  8
0
 62
1
 10
69.051
 20
68.5808
 30
0.0
 11
68.9455
 21
68.6627
 31
0.0
  0
LINE
  5
174
  8
0
 62
1
 10
68.9455
 20
68.6627
 30
0.0
 11
68.8454
 21
68.7509
 31
0.0
  0
LINE
  5
175
  8
0
 62
1
 10
68.8454
 20
68.7509
 30
0.0
 11
68.7509
 21
68.8454
 31
0.0
  0
LINE
  5
176
  8
0
 62
1
 10
68.7509
 20
68.8454
 30
0.0
 11
68.6627
 21
68.9455
 31
0.0
  0
LINE
  5
177
  8
0
 62
1
 10
68.6627
 20
68.9455
 30
0.0
 11
68.5808
 21
69.051
 31
0.0
  0
LINE
  5
178
  8
0
 62
1
 10
68.5808
 20
69.051
 30
0.0
 11
68.5058
 21
69.1614
 31
0.0
  0
LINE
  5
179
  8
0
 62
1
 10
68.5058
 20
69.1614
 30
0.0
 11
68.4379
 21
69.2763
 31
0.0
  0
LINE
  5
17A
  8
0
 62
1
 10
68.4379
 20
69.2763
 30
0.0
 11
68.3772
 21
69.3952
 31
0.0
  0
LINE
  5
17B
  8
0
 62
1
 10
68.3772
 20
69.3952
 30
0.0
 11
68.3242
 21
69.5177
 31
0.0
  0
LINE
  5
17C
  8
0
 62
1
 10
68.3242
 20
69.5177
 30
0.0
 11
68.279
 21
69.6433
 31
0.0
  0
LINE
  5
17D
  8
0
 62
1
 10
68.279
 20
69.6433
 30
0.0
 11
68.2418
 21
69.7715
 31
0.0
  0
LINE
  5
17E
  8
0
 62
1
 10
68.2418
 20
69.7715
 30
0.0
 11
68.2126
 21
69.9018
 31
0.0
  0
LINE
  5
17F
  8
0
 62
1
 10
68.2126
 20
69.9018
 30
0.0
 11
68.1918
 21
70.0337
 31
0.0
  0
LINE
  5
180
  8
0
 62
1
 10
68.1918
 20
70.0337
 30
0.0
 11
68.1792
 21
70.1666
 31
0.0
  0
LINE
  5
181
  8
0
 62
1
 10
68.1792
 20
70.1666
 30
0.0
 11
68.175
 21
70.3
 31
0.0
  0
LINE
  5
182
  8
0
 62
1
 10
68.175
 20
70.3
 30
0.0
 11
68.1792
 21
70.4334
 31
0.0
  0
LINE
  5
183
  8
0
 62
1
 10
68.1792
 20
70.4334
 30
0.0
 11
68.1918
 21
70.5663
 31
0.0
  0
LINE
  5
184
  8
0
 62
1
 10
68.1918
 20
70.5663
 30
0.0
 11
68.2126
 21
70.6982
 31
0.0
  0
LINE
  5
185
  8
0
 62
1
 10
68.2126
 20
70.6982
 30
0.0
 11
68.2418
 21
70.8285
 31
0.0
  0
LINE
  5
186
  8
0
 62
1
 10
68.2418
 20
70.8285
 30
0.0
 11
68.279
 21
70.9567
 31
0.0
  0
LINE
  5
187
  8
0
 62
1
 10
68.279
 20
70.9567
 30
0.0
 11
68.3242
 21
71.0823
 31
0.0
  0
LINE
  5
188
  8
0
 62
1
 10
68.3242
 20
71.0823
 30
0.0
 11
68.3772
 21
71.2048
 31
0.0
  0
LINE
  5
189
  8
0
 62
1
 10
68.3772
 20
71.2048
 30
0.0
 11
68.4379
 21
71.3237
 31
0.0
  0
LINE
  5
18A
  8
0
 62
1
 10
68.4379
 20
71.3237
 30
0.0
 11
68.5058
 21
71.4386
 31
0.0
  0
LINE
  5
18B
  8
0
 62
1
 10
68.5058
 20
71.4386
 30
0.0
 11
68.5808
 21
71.5491
 31
0.0
  0
LINE
  5
18C
  8
0
 62
1
 10
68.5808
 20
71.5491
 30
0.0
 11
68.6627
 21
71.6545
 31
0.0
  0
LINE
  5
18D
  8
0
 62
1
 10
68.6627
 20
71.6545
 30
0.0
 11
68.7509
 21
71.7547
 31
0.0
  0
LINE
  5
18E
  8
0
 62
1
 10
68.7509
 20
71.7547
 30
0.0
 11
68.8454
 21
71.8491
 31
0.0
  0
LINE
  5
18F
  8
0
 62
1
 10
68.8454
 20
71.8491
 30
0.0
 11
68.9455
 21
71.9373
 31
0.0
  0
LINE
  5
190
  8
0
 62
1
 10
68.9455
 20
71.9373
 30
0.0
 11
69.051
 21
72.0192
 31
0.0
  0
LINE
  5
191
  8
0
 62
1
 10
69.051
 20
72.0192
 30
0.0
 11
69.1614
 21
72.0942
 31
0.0
  0
LINE
  5
192
  8
0
 62
1
 10
69.1614
 20
72.0942
 30
0.0
 11
69.2763
 21
72.1622
 31
0.0
  0
LINE
  5
193
  8
0
 62
1
 10
69.2763
 20
72.1622
 30
0.0
 11
69.3952
 21
72.2228
 31
0.0
  0
LINE
  5
194
  8
0
 62
1
 10
69.3952
 20
72.2228
 30
0.0
 11
69.5177
 21
72.2758
 31
0.0
  0
LINE
  5
195
  8
0
 62
1
 10
69.5177
 20
72.2758
 30
0.0
 11
69.6433
 21
72.321
 31
0.0
  0
LINE
  5
196
  8
0
 62
1
 10
69.6433
 20
72.321
 30
0.0
 11
69.7715
 21
72.3582
 31
0.0
  0
LINE
  5
197
  8
0
 62
1
 10
69.7715
 20
72.3582
 30
0.0
 11
69.9018
 21
72.3874
 31
0.0
  0
LINE
  5
198
  8
0
 62
1
 10
69.9018
 20
72.3874
 30
0.0
 11
70.0337
 21
72.4082
 31
0.0
  0
LINE
  5
199
  8
0
 62
1
 10
70.0337
 20
72.4082
 30
0.0
 11
70.1666
 21
72.4208
 31
0.0
  0
LINE
  5
19A
  8
0
 62
1
 10
70.1666
 20
72.4208
 30
0.0
 11
70.3
 21
72.425
 31
0.0
  0
LINE
  5
19B
  8
0
 62
1
 10
70.3
 20
72.425
 30
0.0
 11
70.4334
 21
72.4208
 31
0.0
  0
LINE
  5
19C
  8
0
 62
1
 10
70.4334
 20
72.4208
 30
0.0
 11
70.5663
 21
72.4082
 31
0.0
  0
LINE
  5
19D
  8
0
 62
1
 10
70.5663
 20
72.4082
 30
0.0
 11
70.6982
 21
72.3874
 31
0.0
  0
LINE
  5
19E
  8
0
 62
1
 10
70.6982
 20
72.3874
 30
0.0
 11
70.8285
 21
72.3582
 31
0.0
  0
LINE
  5
19F
  8
0
 62
1
 10
70.8285
 20
72.3582
 30
0.0
 11
70.9567
 21
72.321
 31
0.0
  0
LINE
  5
1A0
  8
0
 62
1
 10
70.9567
 20
72.321
 30
0.0
 11
71.0823
 21
72.2758
 31
0.0
  0
LINE
  5
1A1
  8
0
 62
1
 10
71.0823
 20
72.2758
 30
0.0
 11
71.2048
 21
72.2228
 31
0.0
  0
LINE
  5
1A2
  8
0
 62
1
 10
71.2048
 20
72.2228
 30
0.0
 11
71.3237
 21
72.1622
 31
0.0
  0
LINE
  5
1A3
  8
0
 62
1
 10
71.3237
 20
72.1622
 30
0.0
 11
71.4386
 21
72.0942
 31
0.0
  0
LINE
  5
1A4
  8
0
 62
1
 10
71.4386
 20
72.0942
 30
0.0
 11
71.5491
 21
72.0192
 31
0.0
  0
LINE
  5
1A5
  8
0
 62
1
 10
71.5491
 20
72.0192
 30
0.0
 11
71.6545
 21
71.9373
 31
0.0
  0
LINE
  5
1A6
  8
0
 62
1
 10
71.6545
 20
71.9373
 30
0.0
 11
71.7547
 21
71.8491
 31
0.0
  0
LINE
  5
1A7
  8
0
 62
1
 10
71.7547
 20
71.8491
 30
0.0
 11
71.8491
 21
71.7547
 31
0.0
  0
LINE
  5
1A8
  8
0
 62
1
 10
71.8491
 20
71.7547
 30
0.0
 11
71.9373
 21
71.6545
 31
0.0
  0
LINE
  5
1A9
  8
0
 62
1
 10
71.9373
 20
71.6545
 30
0.0
 11
72.0192
 21
71.5491
 31
0.0
  0
LINE
  5
1AA
  8
0
 62
1
 10
72.0192
 20
71.5491
 30
0.0
 11
72.0942
 21
71.4386
 31
0.0
  0
LINE
  5
1AB
  8
0
 62
1
 10
72.0942
 20
71.4386
 30
0.0
 11
72.1622
 21
71.3237
 31
0.0
  0
LINE
  5
1AC
  8
0
 62
1
 10
72.1622
 20
71.3237
 30
0.0
 11
72.2228
 21
71.2048
 31
0.0
  0
LINE
  5
1AD
  8
0
 62
1
 10
72.2228
 20
71.2048
 30
0.0
 11
72.2758
 21
71.0823
 31
0.0
  0
LINE
  5
1AE
  8
0
 62
1
 10
72.2758
 20
71.0823
 30
0.0
 11
72.321
 21
70.9567
 31
0.0
  0
LINE
  5
1AF
  8
0
 62
1
 10
72.321
 20
70.9567
 30
0.0
 11
72.3582
 21
70.8285
 31
0.0
  0
LINE
  5
1B0
  8
0
 62
1
 10
72.3582
 20
70.8285
 30
0.0
 11
72.3874
 21
70.6982
 31
0.0
  0
LINE
  5
1B1
  8
0
 62
1
 10
72.3874
 20
70.6982
 30
0.0
 11
72.4082
 21
70.5663
 31
0.0
  0
LINE
  5
1B2
  8
0
 62
1
 10
72.4082
 20
70.5663
 30
0.0
 11
72.4208
 21
70.4334
 31
0.0
  0
LINE
  5
1B3
  8
0
 62
1
 10
72.4208
 20
70.4334
 30
0.0
 11
72.425
 21
70.3
 31
0.0
  0
LINE
  5
1B4
  8
0
 62
1
 10
72.425
 20
70.3
 30
0.0
 11
72.4208
 21
70.1666
 31
0.0
  0
LINE
  5
1B5
  8
0
 62
1
 10
72.4208
 20
70.1666
 30
0.0
 11
72.4082
 21
70.0337
 31
0.0
  0
LINE
  5
1B6
  8
0
 62
1
 10
72.4082
 20
70.0337
 30
0.0
 11
72.3874
 21
69.9018
 31
0.0
  0
LINE
  5
1B7
  8
0
 62
1
 10
72.3874
 20
69.9018
 30
0.0
 11
72.3582
 21
69.7715
 31
0.0
  0
LINE
  5
1B8
  8
0
 62
1
 10
72.3582
 20
69.7715
 30
0.0
 11
72.321
 21
69.6433
 31
0.0
  0
LINE
  5
1B9
  8
0
 62
1
 10
72.321
 20
69.6433
 30
0.0
 11
72.2758
 21
69.5177
 31
0.0
  0
LINE
  5
1BA
  8
0
 62
1
 10
72.2758
 20
69.5177
 30
0.0
 11
72.2228
 21
69.3952
 31
0.0
  0
LINE
  5
1BB
  8
0
 62
1
 10
72.2228
 20
69.3952
 30
0.0
 11
72.1622
 21
69.2763
 31
0.0
  0
LINE
  5
1BC
  8
0
 62
1
 10
72.1622
 20
69.2763
 30
0.0
 11
72.0942
 21
69.1614
 31
0.0
  0
LINE
  5
1BD
  8
0
 62
1
 10
72.0942
 20
69.1614
 30
0.0
 11
72.0192
 21
69.051
 31
0.0
  0
LINE
  5
1BE
  8
0
 62
1
 10
72.0192
 20
69.051
 30
0.0
 11
71.9373
 21
68.9455
 31
0.0
  0
LINE
  5
1BF
  8
0
 62
1
 10
71.9373
 20
68.9455
 30
0.0
 11
71.8491
 21
68.8454
 31
0.0
  0
LINE
  5
1C0
  8
0
 62
1
 10
71.8491
 20
68.8454
 30
0.0
 11
71.7547
 21
68.7509
 31
0.0
  0
LINE
  5
1C1
  8
0
 62
1
 10
71.7547
 20
68.7509
 30
0.0
 11
71.6545
 21
68.6627
 31
0.0
  0
LINE
  5
1C2
  8
0
 62
1
 10
71.6545
 20
68.6627
 30
0.0
 11
71.5491
 21
68.5808
 31
0.0
  0
LINE
  5
1C3
  8
0
 62
1
 10
71.5491
 20
68.5808
 30
0.0
 11
71.4386
 21
68.5058
 31
0.0
  0
LINE
  5
1C4
  8
0
 62
1
 10
71.4386
 20
68.5058
 30
0.0
 11
71.3237
 21
68.4379
 31
0.0
  0
LINE
  5
1C5
  8
0
 62
1
 10
71.3237
 20
68.4379
 30
0.0
 11
71.2048
 21
68.3772
 31
0.0
  0
LINE
  5
1C6
  8
0
 62
1
 10
71.2048
 20
68.3772
 30
0.0
 11
71.0823
 21
68.3242
 31
0.0
  0
LINE
  5
1C7
  8
0
 62
1
 10
71.0823
 20
68.3242
 30
0.0
 11
70.9567
 21
68.279
 31
0.0
  0
LINE
  5
1C8
  8
0
 62
1
 10
70.9567
 20
68.279
 30
0.0
 11
70.8285
 21
68.2418
 31
0.0
  0
LINE
  5
1C9
  8
0
 62
1
 10
70.8285
 20
68.2418
 30
0.0
 11
70.6982
 21
68.2126
 31
0.0
  0
LINE
  5
1CA
  8
0
 62
1
 10
70.6982
 20
68.2126
 30
0.0
 11
70.5663
 21
68.1918
 31
0.0
  0
LINE
  5
1CB
  8
0
 62
1
 10
70.5663
 20
68.1918
 30
0.0
 11
70.4334
 21
68.1792
 31
0.0
  0
LINE
  5
1CC
  8
0
 62
1
 10
70.4334
 20
68.1792
 30
0.0
 11
70.3
 21
68.175
 31
0.0
  0
LINE
  5
1CD
  8
0
 62
1
 10
70.3
 20
68.175
 30
0.0
 11
70.1666
 21
68.1792
 31
0.0
  0
LINE
  5
1CE
  8
0
 62
1
 10
51.0
 20
77.5
 30
0.0
 11
28.5
 21
77.5
 31
0.0
  0
LINE
  5
1CF
  8
0
 62
1
 10
28.5
 20
77.5
 30
0.0
 11
51.0
 21
55.0
 31
0.0
  0
LINE
  5
1D0
  8
0
 62
1
 10
51.0
 20
55.0
 30
0.0
 11
51.0
 21
77.5
 31
0.0
  0
LINE
  5
1D1
  8
0
 62
1
 10
43.6666
 20
68.1792
 30
0.0
 11
43.5337
 21
68.1918
 31
0.0
  0
LINE
  5
1D2
  8
0
 62
1
 10
43.5337
 20
68.1918
 30
0.0
 11
43.4018
 21
68.2126
 31
0.0
  0
LINE
  5
1D3
  8
0
 62
1
 10
43.4018
 20
68.2126
 30
0.0
 11
43.2715
 21
68.2418
 31
0.0
  0
LINE
  5
1D4
  8
0
 62
1
 10
43.2715
 20
68.2418
 30
0.0
 11
43.1433
 21
68.279
 31
0.0
  0
LINE
  5
1D5
  8
0
 62
1
 10
43.1433
 20
68.279
 30
0.0
 11
43.0177
 21
68.3242
 31
0.0
  0
LINE
  5
1D6
  8
0
 62
1
 10
43.0177
 20
68.3242
 30
0.0
 11
42.8952
 21
68.3772
 31
0.0
  0
LINE
  5
1D7
  8
0
 62
1
 10
42.8952
 20
68.3772
 30
0.0
 11
42.7763
 21
68.4379
 31
0.0
  0
LINE
  5
1D8
  8
0
 62
1
 10
42.7763
 20
68.4379
 30
0.0
 11
42.6614
 21
68.5058
 31
0.0
  0
LINE
  5
1D9
  8
0
 62
1
 10
42.6614
 20
68.5058
 30
0.0
 11
42.551
 21
68.5808
 31
0.0
  0
LINE
  5
1DA
  8
0
 62
1
 10
42.551
 20
68.5808
 30
0.0
 11
42.4455
 21
68.6627
 31
0.0
  0
LINE
  5
1DB
  8
0
 62
1
 10
42.4455
 20
68.6627
 30
0.0
 11
42.3454
 21
68.7509
 31
0.0
  0
LINE
  5
1DC
  8
0
 62
1
 10
42.3454
 20
68.7509
 30
0.0
 11
42.2509
 21
68.8454
 31
0.0
  0
LINE
  5
1DD
  8
0
 62
1
 10
42.2509
 20
68.8454
 30
0.0
 11
42.1627
 21
68.9455
 31
0.0
  0
LINE
  5
1DE
  8
0
 62
1
 10
42.1627
 20
68.9455
 30
0.0
 11
42.0808
 21
69.051
 31
0.0
  0
LINE
  5
1DF
  8
0
 62
1
 10
42.0808
 20
69.051
 30
0.0
 11
42.0058
 21
69.1614
 31
0.0
  0
LINE
  5
1E0
  8
0
 62
1
 10
42.0058
 20
69.1614
 30
0.0
 11
41.9379
 21
69.2763
 31
0.0
  0
LINE
  5
1E1
  8
0
 62
1
 10
41.9379
 20
69.2763
 30
0.0
 11
41.8772
 21
69.3952
 31
0.0
  0
LINE
  5
1E2
  8
0
 62
1
 10
41.8772
 20
69.3952
 30
0.0
 11
41.8242
 21
69.5177
 31
0.0
  0
LINE
  5
1E3
  8
0
 62
1
 10
41.8242
 20
69.5177
 30
0.0
 11
41.779
 21
69.6433
 31
0.0
  0
LINE
  5
1E4
  8
0
 62
1
 10
41.779
 20
69.6433
 30
0.0
 11
41.7418
 21
69.7715
 31
0.0
  0
LINE
  5
1E5
  8
0
 62
1
 10
41.7418
 20
69.7715
 30
0.0
 11
41.7126
 21
69.9018
 31
0.0
  0
LINE
  5
1E6
  8
0
 62
1
 10
41.7126
 20
69.9018
 30
0.0
 11
41.6918
 21
70.0337
 31
0.0
  0
LINE
  5
1E7
  8
0
 62
1
 10
41.6918
 20
70.0337
 30
0.0
 11
41.6792
 21
70.1666
 31
0.0
  0
LINE
  5
1E8
  8
0
 62
1
 10
41.6792
 20
70.1666
 30
0.0
 11
41.675
 21
70.3
 31
0.0
  0
LINE
  5
1E9
  8
0
 62
1
 10
41.675
 20
70.3
 30
0.0
 11
41.6792
 21
70.4334
 31
0.0
  0
LINE
  5
1EA
  8
0
 62
1
 10
41.6792
 20
70.4334
 30
0.0
 11
41.6918
 21
70.5663
 31
0.0
  0
LINE
  5
1EB
  8
0
 62
1
 10
41.6918
 20
70.5663
 30
0.0
 11
41.7126
 21
70.6982
 31
0.0
  0
LINE
  5
1EC
  8
0
 62
1
 10
41.7126
 20
70.6982
 30
0.0
 11
41.7418
 21
70.8285
 31
0.0
  0
LINE
  5
1ED
  8
0
 62
1
 10
41.7418
 20
70.8285
 30
0.0
 11
41.779
 21
70.9567
 31
0.0
  0
LINE
  5
1EE
  8
0
 62
1
 10
41.779
 20
70.9567
 30
0.0
 11
41.8242
 21
71.0823
 31
0.0
  0
LINE
  5
1EF
  8
0
 62
1
 10
41.8242
 20
71.0823
 30
0.0
 11
41.8772
 21
71.2048
 31
0.0
  0
LINE
  5
1F0
  8
0
 62
1
 10
41.8772
 20
71.2048
 30
0.0
 11
41.9379
 21
71.3237
 31
0.0
  0
LINE
  5
1F1
  8
0
 62
1
 10
41.9379
 20
71.3237
 30
0.0
 11
42.0058
 21
71.4386
 31
0.0
  0
LINE
  5
1F2
  8
0
 62
1
 10
42.0058
 20
71.4386
 30
0.0
 11
42.0808
 21
71.5491
 31
0.0
  0
LINE
  5
1F3
  8
0
 62
1
 10
42.0808
 20
71.5491
 30
0.0
 11
42.1627
 21
71.6545
 31
0.0
  0
LINE
  5
1F4
  8
0
 62
1
 10
42.1627
 20
71.6545
 30
0.0
 11
42.2509
 21
71.7547
 31
0.0
  0
LINE
  5
1F5
  8
0
 62
1
 10
42.2509
 20
71.7547
 30
0.0
 11
42.3454
 21
71.8491
 31
0.0
  0
LINE
  5
1F6
  8
0
 62
1
 10
42.3454
 20
71.8491
 30
0.0
 11
42.4455
 21
71.9373
 31
0.0
  0
LINE
  5
1F7
  8
0
 62
1
 10
42.4455
 20
71.9373
 30
0.0
 11
42.551
 21
72.0192
 31
0.0
  0
LINE
  5
1F8
  8
0
 62
1
 10
42.551
 20
72.0192
 30
0.0
 11
42.6614
 21
72.0942
 31
0.0
  0
LINE
  5
1F9
  8
0
 62
1
 10
42.6614
 20
72.0942
 30
0.0
 11
42.7763
 21
72.1622
 31
0.0
  0
LINE
  5
1FA
  8
0
 62
1
 10
42.7763
 20
72.1622
 30
0.0
 11
42.8952
 21
72.2228
 31
0.0
  0
LINE
  5
1FB
  8
0
 62
1
 10
42.8952
 20
72.2228
 30
0.0
 11
43.0177
 21
72.2758
 31
0.0
  0
LINE
  5
1FC
  8
0
 62
1
 10
43.0177
 20
72.2758
 30
0.0
 11
43.1433
 21
72.321
 31
0.0
  0
LINE
  5
1FD
  8
0
 62
1
 10
43.1433
 20
72.321
 30
0.0
 11
43.2715
 21
72.3582
 31
0.0
  0
LINE
  5
1FE
  8
0
 62
1
 10
43.2715
 20
72.3582
 30
0.0
 11
43.4018
 21
72.3874
 31
0.0
  0
LINE
  5
1FF
  8
0
 62
1
 10
43.4018
 20
72.3874
 30
0.0
 11
43.5337
 21
72.4082
 31
0.0
  0
LINE
  5
200
  8
0
 62
1
 10
43.5337
 20
72.4082
 30
0.0
 11
43.6666
 21
72.4208
 31
0.0
  0
LINE
  5
201
  8
0
 62
1
 10
43.6666
 20
72.4208
 30
0.0
 11
43.8
 21
72.425
 31
0.0
  0
LINE
  5
202
  8
0
 62
1
 10
43.8
 20
72.425
 30
0.0
 11
43.9334
 21
72.4208
 31
0.0
  0
LINE
  5
203
  8
0
 62
1
 10
43.9334
 20
72.4208
 30
0.0
 11
44.0663
 21
72.4082
 31
0.0
  0
LINE
  5
204
  8
0
 62
1
 10
44.0663
 20
72.4082
 30
0.0
 11
44.1982
 21
72.3874
 31
0.0
  0
LINE
  5
205
  8
0
 62
1
 10
44.1982
 20
72.3874
 30
0.0
 11
44.3285
 21
72.3582
 31
0.0
  0
LINE
  5
206
  8
0
 62
1
 10
44.3285
 20
72.3582
 30
0.0
 11
44.4567
 21
72.321
 31
0.0
  0
LINE
  5
207
  8
0
 62
1
 10
44.4567
 20
72.321
 30
0.0
 11
44.5823
 21
72.2758
 31
0.0
  0
LINE
  5
208
  8
0
 62
1
 10
44.5823
 20
72.2758
 30
0.0
 11
44.7048
 21
72.2228
 31
0.0
  0
LINE
  5
209
  8
0
 62
1
 10
44.7048
 20
72.2228
 30
0.0
 11
44.8237
 21
72.1622
 31
0.0
  0
LINE
  5
20A
  8
0
 62
1
 10
44.8237
 20
72.1622
 30
0.0
 11
44.9386
 21
72.0942
 31
0.0
  0
LINE
  5
20B
  8
0
 62
1
 10
44.9386
 20
72.0942
 30
0.0
 11
45.0491
 21
72.0192
 31
0.0
  0
LINE
  5
20C
  8
0
 62
1
 10
45.0491
 20
72.0192
 30
0.0
 11
45.1545
 21
71.9373
 31
0.0
  0
LINE
  5
20D
  8
0
 62
1
 10
45.1545
 20
71.9373
 30
0.0
 11
45.2547
 21
71.8491
 31
0.0
  0
LINE
  5
20E
  8
0
 62
1
 10
45.2547
 20
71.8491
 30
0.0
 11
45.3491
 21
71.7547
 31
0.0
  0
LINE
  5
20F
  8
0
 62
1
 10
45.3491
 20
71.7547
 30
0.0
 11
45.4373
 21
71.6545
 31
0.0
  0
LINE
  5
210
  8
0
 62
1
 10
45.4373
 20
71.6545
 30
0.0
 11
45.5192
 21
71.5491
 31
0.0
  0
LINE
  5
211
  8
0
 62
1
 10
45.5192
 20
71.5491
 30
0.0
 11
45.5942
 21
71.4386
 31
0.0
  0
LINE
  5
212
  8
0
 62
1
 10
45.5942
 20
71.4386
 30
0.0
 11
45.6622
 21
71.3237
 31
0.0
  0
LINE
  5
213
  8
0
 62
1
 10
45.6622
 20
71.3237
 30
0.0
 11
45.7228
 21
71.2048
 31
0.0
  0
LINE
  5
214
  8
0
 62
1
 10
45.7228
 20
71.2048
 30
0.0
 11
45.7758
 21
71.0823
 31
0.0
  0
LINE
  5
215
  8
0
 62
1
 10
45.7758
 20
71.0823
 30
0.0
 11
45.821
 21
70.9567
 31
0.0
  0
LINE
  5
216
  8
0
 62
1
 10
45.821
 20
70.9567
 30
0.0
 11
45.8582
 21
70.8285
 31
0.0
  0
LINE
  5
217
  8
0
 62
1
 10
45.8582
 20
70.8285
 30
0.0
 11
45.8874
 21
70.6982
 31
0.0
  0
LINE
  5
218
  8
0
 62
1
 10
45.8874
 20
70.6982
 30
0.0
 11
45.9082
 21
70.5663
 31
0.0
  0
LINE
  5
219
  8
0
 62
1
 10
45.9082
 20
70.5663
 30
0.0
 11
45.9208
 21
70.4334
 31
0.0
  0
LINE
  5
21A
  8
0
 62
1
 10
45.9208
 20
70.4334
 30
0.0
 11
45.925
 21
70.3
 31
0.0
  0
LINE
  5
21B
  8
0
 62
1
 10
45.925
 20
70.3
 30
0.0
 11
45.9208
 21
70.1666
 31
0.0
  0
LINE
  5
21C
  8
0
 62
1
 10
45.9208
 20
70.1666
 30
0.0
 11
45.9082
 21
70.0337
 31
0.0
  0
LINE
  5
21D
  8
0
 62
1
 10
45.9082
 20
70.0337
 30
0.0
 11
45.8874
 21
69.9018
 31
0.0
  0
LINE
  5
21E
  8
0
 62
1
 10
45.8874
 20
69.9018
 30
0.0
 11
45.8582
 21
69.7715
 31
0.0
  0
LINE
  5
21F
  8
0
 62
1
 10
45.8582
 20
69.7715
 30
0.0
 11
45.821
 21
69.6433
 31
0.0
  0
LINE
  5
220
  8
0
 62
1
 10
45.821
 20
69.6433
 30
0.0
 11
45.7758
 21
69.5177
 31
0.0
  0
LINE
  5
221
  8
0
 62
1
 10
45.7758
 20
69.5177
 30
0.0
 11
45.7228
 21
69.3952
 31
0.0
  0
LINE
  5
222
  8
0
 62
1
 10
45.7228
 20
69.3952
 30
0.0
 11
45.6622
 21
69.2763
 31
0.0
  0
LINE
  5
223
  8
0
 62
1
 10
45.6622
 20
69.2763
 30
0.0
 11
45.5942
 21
69.1614
 31
0.0
  0
LINE
  5
224
  8
0
 62
1
 10
45.5942
 20
69.1614
 30
0.0
 11
45.5192
 21
69.051
 31
0.0
  0
LINE
  5
225
  8
0
 62
1
 10
45.5192
 20
69.051
 30
0.0
 11
45.4373
 21
68.9455
 31
0.0
  0
LINE
  5
226
  8
0
 62
1
 10
45.4373
 20
68.9455
 30
0.0
 11
45.3491
 21
68.8454
 31
0.0
  0
LINE
  5
227
  8
0
 62
1
 10
45.3491
 20
68.8454
 30
0.0
 11
45.2547
 21
68.7509
 31
0.0
  0
LINE
  5
228
  8
0
 62
1
 10
45.2547
 20
68.7509
 30
0.0
 11
45.1545
 21
68.6627
 31
0.0
  0
LINE
  5
229
  8
0
 62
1
 10
45.1545
 20
68.6627
 30
0.0
 11
45.0491
 21
68.5808
 31
0.0
  0
LINE
  5
22A
  8
0
 62
1
 10
45.0491
 20
68.5808
 30
0.0
 11
44.9386
 21
68.5058
 31
0.0
  0
LINE
  5
22B
  8
0
 62
1
 10
44.9386
 20
68.5058
 30
0.0
 11
44.8237
 21
68.4379
 31
0.0
  0
LINE
  5
22C
  8
0
 62
1
 10
44.8237
 20
68.4379
 30
0.0
 11
44.7048
 21
68.3772
 31
0.0
  0
LINE
  5
22D
  8
0
 62
1
 10
44.7048
 20
68.3772
 30
0.0
 11
44.5823
 21
68.3242
 31
0.0
  0
LINE
  5
22E
  8
0
 62
1
 10
44.5823
 20
68.3242
 30
0.0
 11
44.4567
 21
68.279
 31
0.0
  0
LINE
  5
22F
  8
0
 62
1
 10
44.4567
 20
68.279
 30
0.0
 11
44.3285
 21
68.2418
 31
0.0
  0
LINE
  5
230
  8
0
 62
1
 10
44.3285
 20
68.2418
 30
0.0
 11
44.1982
 21
68.2126
 31
0.0
  0
LINE
  5
231
  8
0
 62
1
 10
44.1982
 20
68.2126
 30
0.0
 11
44.0663
 21
68.1918
 31
0.0
  0
LINE
  5
232
  8
0
 62
1
 10
44.0663
 20
68.1918
 30
0.0
 11
43.9334
 21
68.1792
 31
0.0
  0
LINE
  5
233
  8
0
 62
1
 10
43.9334
 20
68.1792
 30
0.0
 11
43.8
 21
68.175
 31
0.0
  0
LINE
  5
234
  8
0
 62
1
 10
43.8
 20
68.175
 30
0.0
 11
43.6666
 21
68.1792
 31
0.0
  0
LINE
  5
235
  8
0
 62
1
 10
53.0
 20
75.5
 30
0.0
 11
53.0
 21
53.0
 31
0.0
  0
LINE
  5
236
  8
0
 62
1
 10
53.0
 20
53.0
 30
0.0
 11
75.5
 21
53.0
 31
0.0
  0
LINE
  5
237
  8
0
 62
1
 10
75.5
 20
53.0
 30
0.0
 11
53.0
 21
75.5
 31
0.0
  0
LINE
  5
238
  8
0
 62
1
 10
60.0666
 20
58.0792
 30
0.0
 11
59.9337
 21
58.0918
 31
0.0
  0
LINE
  5
239
  8
0
 62
1
 10
59.9337
 20
58.0918
 30
0.0
 11
59.8018
 21
58.1126
 31
0.0
  0
LINE
  5
23A
  8
0
 62
1
 10
59.8018
 20
58.1126
 30
0.0
 11
59.6715
 21
58.1418
 31
0.0
  0
LINE
  5
23B
  8
0
 62
1
 10
59.6715
 20
58.1418
 30
0.0
 11
59.5433
 21
58.179
 31
0.0
  0
LINE
  5
23C
  8
0
 62
1
 10
59.5433
 20
58.179
 30
0.0
 11
59.4177
 21
58.2242
 31
0.0
  0
LINE
  5
23D
  8
0
 62
1
 10
59.4177
 20
58.2242
 30
0.0
 11
59.2952
 21
58.2772
 31
0.0
  0
LINE
  5
23E
  8
0
 62
1
 10
59.2952
 20
58.2772
 30
0.0
 11
59.1763
 21
58.3378
 31
0.0
  0
LINE
  5
23F
  8
0
 62
1
 10
59.1763
 20
58.3378
 30
0.0
 11
59.0614
 21
58.4058
 31
0.0
  0
LINE
  5
240
  8
0
 62
1
 10
59.0614
 20
58.4058
 30
0.0
 11
58.9509
 21
58.4808
 31
0.0
  0
LINE
  5
241
  8
0
 62
1
 10
58.9509
 20
58.4808
 30
0.0
 11
58.8455
 21
58.5627
 31
0.0
  0
LINE
  5
242
  8
0
 62
1
 10
58.8455
 20
58.5627
 30
0.0
 11
58.7453
 21
58.6509
 31
0.0
  0
LINE
  5
243
  8
0
 62
1
 10
58.7453
 20
58.6509
 30
0.0
 11
58.6509
 21
58.7453
 31
0.0
  0
LINE
  5
244
  8
0
 62
1
 10
58.6509
 20
58.7453
 30
0.0
 11
58.5627
 21
58.8455
 31
0.0
  0
LINE
  5
245
  8
0
 62
1
 10
58.5627
 20
58.8455
 30
0.0
 11
58.4808
 21
58.9509
 31
0.0
  0
LINE
  5
246
  8
0
 62
1
 10
58.4808
 20
58.9509
 30
0.0
 11
58.4058
 21
59.0614
 31
0.0
  0
LINE
  5
247
  8
0
 62
1
 10
58.4058
 20
59.0614
 30
0.0
 11
58.3378
 21
59.1763
 31
0.0
  0
LINE
  5
248
  8
0
 62
1
 10
58.3378
 20
59.1763
 30
0.0
 11
58.2772
 21
59.2952
 31
0.0
  0
LINE
  5
249
  8
0
 62
1
 10
58.2772
 20
59.2952
 30
0.0
 11
58.2242
 21
59.4177
 31
0.0
  0
LINE
  5
24A
  8
0
 62
1
 10
58.2242
 20
59.4177
 30
0.0
 11
58.179
 21
59.5433
 31
0.0
  0
LINE
  5
24B
  8
0
 62
1
 10
58.179
 20
59.5433
 30
0.0
 11
58.1418
 21
59.6715
 31
0.0
  0
LINE
  5
24C
  8
0
 62
1
 10
58.1418
 20
59.6715
 30
0.0
 11
58.1126
 21
59.8018
 31
0.0
  0
LINE
  5
24D
  8
0
 62
1
 10
58.1126
 20
59.8018
 30
0.0
 11
58.0918
 21
59.9337
 31
0.0
  0
LINE
  5
24E
  8
0
 62
1
 10
58.0918
 20
59.9337
 30
0.0
 11
58.0792
 21
60.0666
 31
0.0
  0
LINE
  5
24F
  8
0
 62
1
 10
58.0792
 20
60.0666
 30
0.0
 11
58.075
 21
60.2
 31
0.0
  0
LINE
  5
250
  8
0
 62
1
 10
58.075
 20
60.2
 30
0.0
 11
58.0792
 21
60.3334
 31
0.0
  0
LINE
  5
251
  8
0
 62
1
 10
58.0792
 20
60.3334
 30
0.0
 11
58.0918
 21
60.4663
 31
0.0
  0
LINE
  5
252
  8
0
 62
1
 10
58.0918
 20
60.4663
 30
0.0
 11
58.1126
 21
60.5982
 31
0.0
  0
LINE
  5
253
  8
0
 62
1
 10
58.1126
 20
60.5982
 30
0.0
 11
58.1418
 21
60.7285
 31
0.0
  0
LINE
  5
254
  8
0
 62
1
 10
58.1418
 20
60.7285
 30
0.0
 11
58.179
 21
60.8567
 31
0.0
  0
LINE
  5
255
  8
0
 62
1
 10
58.179
 20
60.8567
 30
0.0
 11
58.2242
 21
60.9823
 31
0.0
  0
LINE
  5
256
  8
0
 62
1
 10
58.2242
 20
60.9823
 30
0.0
 11
58.2772
 21
61.1048
 31
0.0
  0
LINE
  5
257
  8
0
 62
1
 10
58.2772
 20
61.1048
 30
0.0
 11
58.3378
 21
61.2237
 31
0.0
  0
LINE
  5
258
  8
0
 62
1
 10
58.3378
 20
61.2237
 30
0.0
 11
58.4058
 21
61.3386
 31
0.0
  0
LINE
  5
259
  8
0
 62
1
 10
58.4058
 20
61.3386
 30
0.0
 11
58.4808
 21
61.449
 31
0.0
  0
LINE
  5
25A
  8
0
 62
1
 10
58.4808
 20
61.449
 30
0.0
 11
58.5627
 21
61.5545
 31
0.0
  0
LINE
  5
25B
  8
0
 62
1
 10
58.5627
 20
61.5545
 30
0.0
 11
58.6509
 21
61.6546
 31
0.0
  0
LINE
  5
25C
  8
0
 62
1
 10
58.6509
 20
61.6546
 30
0.0
 11
58.7453
 21
61.7491
 31
0.0
  0
LINE
  5
25D
  8
0
 62
1
 10
58.7453
 20
61.7491
 30
0.0
 11
58.8455
 21
61.8373
 31
0.0
  0
LINE
  5
25E
  8
0
 62
1
 10
58.8455
 20
61.8373
 30
0.0
 11
58.9509
 21
61.9192
 31
0.0
  0
LINE
  5
25F
  8
0
 62
1
 10
58.9509
 20
61.9192
 30
0.0
 11
59.0614
 21
61.9942
 31
0.0
  0
LINE
  5
260
  8
0
 62
1
 10
59.0614
 20
61.9942
 30
0.0
 11
59.1763
 21
62.0621
 31
0.0
  0
LINE
  5
261
  8
0
 62
1
 10
59.1763
 20
62.0621
 30
0.0
 11
59.2952
 21
62.1228
 31
0.0
  0
LINE
  5
262
  8
0
 62
1
 10
59.2952
 20
62.1228
 30
0.0
 11
59.4177
 21
62.1758
 31
0.0
  0
LINE
  5
263
  8
0
 62
1
 10
59.4177
 20
62.1758
 30
0.0
 11
59.5433
 21
62.221
 31
0.0
  0
LINE
  5
264
  8
0
 62
1
 10
59.5433
 20
62.221
 30
0.0
 11
59.6715
 21
62.2582
 31
0.0
  0
LINE
  5
265
  8
0
 62
1
 10
59.6715
 20
62.2582
 30
0.0
 11
59.8018
 21
62.2874
 31
0.0
  0
LINE
  5
266
  8
0
 62
1
 10
59.8018
 20
62.2874
 30
0.0
 11
59.9337
 21
62.3082
 31
0.0
  0
LINE
  5
267
  8
0
 62
1
 10
59.9337
 20
62.3082
 30
0.0
 11
60.0666
 21
62.3208
 31
0.0
  0
LINE
  5
268
  8
0
 62
1
 10
60.0666
 20
62.3208
 30
0.0
 11
60.2
 21
62.325
 31
0.0
  0
LINE
  5
269
  8
0
 62
1
 10
60.2
 20
62.325
 30
0.0
 11
60.3334
 21
62.3208
 31
0.0
  0
LINE
  5
26A
  8
0
 62
1
 10
60.3334
 20
62.3208
 30
0.0
 11
60.4663
 21
62.3082
 31
0.0
  0
LINE
  5
26B
  8
0
 62
1
 10
60.4663
 20
62.3082
 30
0.0
 11
60.5982
 21
62.2874
 31
0.0
  0
LINE
  5
26C
  8
0
 62
1
 10
60.5982
 20
62.2874
 30
0.0
 11
60.7285
 21
62.2582
 31
0.0
  0
LINE
  5
26D
  8
0
 62
1
 10
60.7285
 20
62.2582
 30
0.0
 11
60.8567
 21
62.221
 31
0.0
  0
LINE
  5
26E
  8
0
 62
1
 10
60.8567
 20
62.221
 30
0.0
 11
60.9823
 21
62.1758
 31
0.0
  0
LINE
  5
26F
  8
0
 62
1
 10
60.9823
 20
62.1758
 30
0.0
 11
61.1048
 21
62.1228
 31
0.0
  0
LINE
  5
270
  8
0
 62
1
 10
61.1048
 20
62.1228
 30
0.0
 11
61.2237
 21
62.0621
 31
0.0
  0
LINE
  5
271
  8
0
 62
1
 10
61.2237
 20
62.0621
 30
0.0
 11
61.3386
 21
61.9942
 31
0.0
  0
LINE
  5
272
  8
0
 62
1
 10
61.3386
 20
61.9942
 30
0.0
 11
61.449
 21
61.9192
 31
0.0
  0
LINE
  5
273
  8
0
 62
1
 10
61.449
 20
61.9192
 30
0.0
 11
61.5545
 21
61.8373
 31
0.0
  0
LINE
  5
274
  8
0
 62
1
 10
61.5545
 20
61.8373
 30
0.0
 11
61.6546
 21
61.7491
 31
0.0
  0
LINE
  5
275
  8
0
 62
1
 10
61.6546
 20
61.7491
 30
0.0
 11
61.7491
 21
61.6546
 31
0.0
  0
LINE
  5
276
  8
0
 62
1
 10
61.7491
 20
61.6546
 30
0.0
 11
61.8373
 21
61.5545
 31
0.0
  0
LINE
  5
277
  8
0
 62
1
 10
61.8373
 20
61.5545
 30
0.0
 11
61.9192
 21
61.449
 31
0.0
  0
LINE
  5
278
  8
0
 62
1
 10
61.9192
 20
61.449
 30
0.0
 11
61.9942
 21
61.3386
 31
0.0
  0
LINE
  5
279
  8
0
 62
1
 10
61.9942
 20
61.3386
 30
0.0
 11
62.0621
 21
61.2237
 31
0.0
  0
LINE
  5
27A
  8
0
 62
1
 10
62.0621
 20
61.2237
 30
0.0
 11
62.1228
 21
61.1048
 31
0.0
  0
LINE
  5
27B
  8
0
 62
1
 10
62.1228
 20
61.1048
 30
0.0
 11
62.1758
 21
60.9823
 31
0.0
  0
LINE
  5
27C
  8
0
 62
1
 10
62.1758
 20
60.9823
 30
0.0
 11
62.221
 21
60.8567
 31
0.0
  0
LINE
  5
27D
  8
0
 62
1
 10
62.221
 20
60.8567
 30
0.0
 11
62.2582
 21
60.7285
 31
0.0
  0
LINE
  5
27E
  8
0
 62
1
 10
62.2582
 20
60.7285
 30
0.0
 11
62.2874
 21
60.5982
 31
0.0
  0
LINE
  5
27F
  8
0
 62
1
 10
62.2874
 20
60.5982
 30
0.0
 11
62.3082
 21
60.4663
 31
0.0
  0
LINE
  5
280
  8
0
 62
1
 10
62.3082
 20
60.4663
 30
0.0
 11
62.3208
 21
60.3334
 31
0.0
  0
LINE
  5
281
  8
0
 62
1
 10
62.3208
 20
60.3334
 30
0.0
 11
62.325
 21
60.2
 31
0.0
  0
LINE
  5
282
  8
0
 62
1
 10
62.325
 20
60.2
 30
0.0
 11
62.3208
 21
60.0666
 31
0.0
  0
LINE
  5
283
  8
0
 62
1
 10
62.3208
 20
60.0666
 30
0.0
 11
62.3082
 21
59.9337
 31
0.0
  0
LINE
  5
284
  8
0
 62
1
 10
62.3082
 20
59.9337
 30
0.0
 11
62.2874
 21
59.8018
 31
0.0
  0
LINE
  5
285
  8
0
 62
1
 10
62.2874
 20
59.8018
 30
0.0
 11
62.2582
 21
59.6715
 31
0.0
  0
LINE
  5
286
  8
0
 62
1
 10
62.2582
 20
59.6715
 30
0.0
 11
62.221
 21
59.5433
 31
0.0
  0
LINE
  5
287
  8
0
 62
1
 10
62.221
 20
59.5433
 30
0.0
 11
62.1758
 21
59.4177
 31
0.0
  0
LINE
  5
288
  8
0
 62
1
 10
62.1758
 20
59.4177
 30
0.0
 11
62.1228
 21
59.2952
 31
0.0
  0
LINE
  5
289
  8
0
 62
1
 10
62.1228
 20
59.2952
 30
0.0
 11
62.0621
 21
59.1763
 31
0.0
  0
LINE
  5
28A
  8
0
 62
1
 10
62.0621
 20
59.1763
 30
0.0
 11
61.9942
 21
59.0614
 31
0.0
  0
LINE
  5
28B
  8
0
 62
1
 10
61.9942
 20
59.0614
 30
0.0
 11
61.9192
 21
58.9509
 31
0.0
  0
LINE
  5
28C
  8
0
 62
1
 10
61.9192
 20
58.9509
 30
0.0
 11
61.8373
 21
58.8455
 31
0.0
  0
LINE
  5
28D
  8
0
 62
1
 10
61.8373
 20
58.8455
 30
0.0
 11
61.7491
 21
58.7453
 31
0.0
  0
LINE
  5
28E
  8
0
 62
1
 10
61.7491
 20
58.7453
 30
0.0
 11
61.6546
 21
58.6509
 31
0.0
  0
LINE
  5
28F
  8
0
 62
1
 10
61.6546
 20
58.6509
 30
0.0
 11
61.5545
 21
58.5627
 31
0.0
  0
LINE
  5
290
  8
0
 62
1
 10
61.5545
 20
58.5627
 30
0.0
 11
61.449
 21
58.4808
 31
0.0
  0
LINE
  5
291
  8
0
 62
1
 10
61.449
 20
58.4808
 30
0.0
 11
61.3386
 21
58.4058
 31
0.0
  0
LINE
  5
292
  8
0
 62
1
 10
61.3386
 20
58.4058
 30
0.0
 11
61.2237
 21
58.3378
 31
0.0
  0
LINE
  5
293
  8
0
 62
1
 10
61.2237
 20
58.3378
 30
0.0
 11
61.1048
 21
58.2772
 31
0.0
  0
LINE
  5
294
  8
0
 62
1
 10
61.1048
 20
58.2772
 30
0.0
 11
60.9823
 21
58.2242
 31
0.0
  0
LINE
  5
295
  8
0
 62
1
 10
60.9823
 20
58.2242
 30
0.0
 11
60.8567
 21
58.179
 31
0.0
  0
LINE
  5
296
  8
0
 62
1
 10
60.8567
 20
58.179
 30
0.0
 11
60.7285
 21
58.1418
 31
0.0
  0
LINE
  5
297
  8
0
 62
1
 10
60.7285
 20
58.1418
 30
0.0
 11
60.5982
 21
58.1126
 31
0.0
  0
LINE
  5
298
  8
0
 62
1
 10
60.5982
 20
58.1126
 30
0.0
 11
60.4663
 21
58.0918
 31
0.0
  0
LINE
  5
299
  8
0
 62
1
 10
60.4663
 20
58.0918
 30
0.0
 11
60.3334
 21
58.0792
 31
0.0
  0
LINE
  5
29A
  8
0
 62
1
 10
60.3334
 20
58.0792
 30
0.0
 11
60.2
 21
58.075
 31
0.0
  0
LINE
  5
29B
  8
0
 62
1
 10
60.2
 20
58.075
 30
0.0
 11
60.0666
 21
58.0792
 31
0.0
  0
LINE
  5
29C
  8
0
 62
1
 10
26.5
 20
75.5
 30
0.0
 11
26.5
 21
53.0
 31
0.0
  0
LINE
  5
29D
  8
0
 62
1
 10
26.5
 20
53.0
 30
0.0
 11
49.0
 21
53.0
 31
0.0
  0
LINE
  5
29E
  8
0
 62
1
 10
49.0
 20
53.0
 30
0.0
 11
26.5
 21
75.5
 31
0.0
  0
LINE
  5
29F
  8
0
 62
1
 10
33.5666
 20
58.0792
 30
0.0
 11
33.4337
 21
58.0918
 31
0.0
  0
LINE
  5
2A0
  8
0
 62
1
 10
33.4337
 20
58.0918
 30
0.0
 11
33.3018
 21
58.1126
 31
0.0
  0
LINE
  5
2A1
  8
0
 62
1
 10
33.3018
 20
58.1126
 30
0.0
 11
33.1715
 21
58.1418
 31
0.0
  0
LINE
  5
2A2
  8
0
 62
1
 10
33.1715
 20
58.1418
 30
0.0
 11
33.0433
 21
58.179
 31
0.0
  0
LINE
  5
2A3
  8
0
 62
1
 10
33.0433
 20
58.179
 30
0.0
 11
32.9177
 21
58.2242
 31
0.0
  0
LINE
  5
2A4
  8
0
 62
1
 10
32.9177
 20
58.2242
 30
0.0
 11
32.7952
 21
58.2772
 31
0.0
  0
LINE
  5
2A5
  8
0
 62
1
 10
32.7952
 20
58.2772
 30
0.0
 11
32.6763
 21
58.3378
 31
0.0
  0
LINE
  5
2A6
  8
0
 62
1
 10
32.6763
 20
58.3378
 30
0.0
 11
32.5614
 21
58.4058
 31
0.0
  0
LINE
  5
2A7
  8
0
 62
1
 10
32.5614
 20
58.4058
 30
0.0
 11
32.4509
 21
58.4808
 31
0.0
  0
LINE
  5
2A8
  8
0
 62
1
 10
32.4509
 20
58.4808
 30
0.0
 11
32.3455
 21
58.5627
 31
0.0
  0
LINE
  5
2A9
  8
0
 62
1
 10
32.3455
 20
58.5627
 30
0.0
 11
32.2453
 21
58.6509
 31
0.0
  0
LINE
  5
2AA
  8
0
 62
1
 10
32.2453
 20
58.6509
 30
0.0
 11
32.1509
 21
58.7453
 31
0.0
  0
LINE
  5
2AB
  8
0
 62
1
 10
32.1509
 20
58.7453
 30
0.0
 11
32.0627
 21
58.8455
 31
0.0
  0
LINE
  5
2AC
  8
0
 62
1
 10
32.0627
 20
58.8455
 30
0.0
 11
31.9808
 21
58.9509
 31
0.0
  0
LINE
  5
2AD
  8
0
 62
1
 10
31.9808
 20
58.9509
 30
0.0
 11
31.9058
 21
59.0614
 31
0.0
  0
LINE
  5
2AE
  8
0
 62
1
 10
31.9058
 20
59.0614
 30
0.0
 11
31.8378
 21
59.1763
 31
0.0
  0
LINE
  5
2AF
  8
0
 62
1
 10
31.8378
 20
59.1763
 30
0.0
 11
31.7772
 21
59.2952
 31
0.0
  0
LINE
  5
2B0
  8
0
 62
1
 10
31.7772
 20
59.2952
 30
0.0
 11
31.7242
 21
59.4177
 31
0.0
  0
LINE
  5
2B1
  8
0
 62
1
 10
31.7242
 20
59.4177
 30
0.0
 11
31.679
 21
59.5433
 31
0.0
  0
LINE
  5
2B2
  8
0
 62
1
 10
31.679
 20
59.5433
 30
0.0
 11
31.6418
 21
59.6715
 31
0.0
  0
LINE
  5
2B3
  8
0
 62
1
 10
31.6418
 20
59.6715
 30
0.0
 11
31.6126
 21
59.8018
 31
0.0
  0
LINE
  5
2B4
  8
0
 62
1
 10
31.6126
 20
59.8018
 30
0.0
 11
31.5918
 21
59.9337
 31
0.0
  0
LINE
  5
2B5
  8
0
 62
1
 10
31.5918
 20
59.9337
 30
0.0
 11
31.5792
 21
60.0666
 31
0.0
  0
LINE
  5
2B6
  8
0
 62
1
 10
31.5792
 20
60.0666
 30
0.0
 11
31.575
 21
60.2
 31
0.0
  0
LINE
  5
2B7
  8
0
 62
1
 10
31.575
 20
60.2
 30
0.0
 11
31.5792
 21
60.3334
 31
0.0
  0
LINE
  5
2B8
  8
0
 62
1
 10
31.5792
 20
60.3334
 30
0.0
 11
31.5918
 21
60.4663
 31
0.0
  0
LINE
  5
2B9
  8
0
 62
1
 10
31.5918
 20
60.4663
 30
0.0
 11
31.6126
 21
60.5982
 31
0.0
  0
LINE
  5
2BA
  8
0
 62
1
 10
31.6126
 20
60.5982
 30
0.0
 11
31.6418
 21
60.7285
 31
0.0
  0
LINE
  5
2BB
  8
0
 62
1
 10
31.6418
 20
60.7285
 30
0.0
 11
31.679
 21
60.8567
 31
0.0
  0
LINE
  5
2BC
  8
0
 62
1
 10
31.679
 20
60.8567
 30
0.0
 11
31.7242
 21
60.9823
 31
0.0
  0
LINE
  5
2BD
  8
0
 62
1
 10
31.7242
 20
60.9823
 30
0.0
 11
31.7772
 21
61.1048
 31
0.0
  0
LINE
  5
2BE
  8
0
 62
1
 10
31.7772
 20
61.1048
 30
0.0
 11
31.8378
 21
61.2237
 31
0.0
  0
LINE
  5
2BF
  8
0
 62
1
 10
31.8378
 20
61.2237
 30
0.0
 11
31.9058
 21
61.3386
 31
0.0
  0
LINE
  5
2C0
  8
0
 62
1
 10
31.9058
 20
61.3386
 30
0.0
 11
31.9808
 21
61.449
 31
0.0
  0
LINE
  5
2C1
  8
0
 62
1
 10
31.9808
 20
61.449
 30
0.0
 11
32.0627
 21
61.5545
 31
0.0
  0
LINE
  5
2C2
  8
0
 62
1
 10
32.0627
 20
61.5545
 30
0.0
 11
32.1509
 21
61.6546
 31
0.0
  0
LINE
  5
2C3
  8
0
 62
1
 10
32.1509
 20
61.6546
 30
0.0
 11
32.2453
 21
61.7491
 31
0.0
  0
LINE
  5
2C4
  8
0
 62
1
 10
32.2453
 20
61.7491
 30
0.0
 11
32.3455
 21
61.8373
 31
0.0
  0
LINE
  5
2C5
  8
0
 62
1
 10
32.3455
 20
61.8373
 30
0.0
 11
32.4509
 21
61.9192
 31
0.0
  0
LINE
  5
2C6
  8
0
 62
1
 10
32.4509
 20
61.9192
 30
0.0
 11
32.5614
 21
61.9942
 31
0.0
  0
LINE
  5
2C7
  8
0
 62
1
 10
32.5614
 20
61.9942
 30
0.0
 11
32.6763
 21
62.0621
 31
0.0
  0
LINE
  5
2C8
  8
0
 62
1
 10
32.6763
 20
62.0621
 30
0.0
 11
32.7952
 21
62.1228
 31
0.0
  0
LINE
  5
2C9
  8
0
 62
1
 10
32.7952
 20
62.1228
 30
0.0
 11
32.9177
 21
62.1758
 31
0.0
  0
LINE
  5
2CA
  8
0
 62
1
 10
32.9177
 20
62.1758
 30
0.0
 11
33.0433
 21
62.221
 31
0.0
  0
LINE
  5
2CB
  8
0
 62
1
 10
33.0433
 20
62.221
 30
0.0
 11
33.1715
 21
62.2582
 31
0.0
  0
LINE
  5
2CC
  8
0
 62
1
 10
33.1715
 20
62.2582
 30
0.0
 11
33.3018
 21
62.2874
 31
0.0
  0
LINE
  5
2CD
  8
0
 62
1
 10
33.3018
 20
62.2874
 30
0.0
 11
33.4337
 21
62.3082
 31
0.0
  0
LINE
  5
2CE
  8
0
 62
1
 10
33.4337
 20
62.3082
 30
0.0
 11
33.5666
 21
62.3208
 31
0.0
  0
LINE
  5
2CF
  8
0
 62
1
 10
33.5666
 20
62.3208
 30
0.0
 11
33.7
 21
62.325
 31
0.0
  0
LINE
  5
2D0
  8
0
 62
1
 10
33.7
 20
62.325
 30
0.0
 11
33.8334
 21
62.3208
 31
0.0
  0
LINE
  5
2D1
  8
0
 62
1
 10
33.8334
 20
62.3208
 30
0.0
 11
33.9663
 21
62.3082
 31
0.0
  0
LINE
  5
2D2
  8
0
 62
1
 10
33.9663
 20
62.3082
 30
0.0
 11
34.0982
 21
62.2874
 31
0.0
  0
LINE
  5
2D3
  8
0
 62
1
 10
34.0982
 20
62.2874
 30
0.0
 11
34.2285
 21
62.2582
 31
0.0
  0
LINE
  5
2D4
  8
0
 62
1
 10
34.2285
 20
62.2582
 30
0.0
 11
34.3567
 21
62.221
 31
0.0
  0
LINE
  5
2D5
  8
0
 62
1
 10
34.3567
 20
62.221
 30
0.0
 11
34.4823
 21
62.1758
 31
0.0
  0
LINE
  5
2D6
  8
0
 62
1
 10
34.4823
 20
62.1758
 30
0.0
 11
34.6048
 21
62.1228
 31
0.0
  0
LINE
  5
2D7
  8
0
 62
1
 10
34.6048
 20
62.1228
 30
0.0
 11
34.7237
 21
62.0621
 31
0.0
  0
LINE
  5
2D8
  8
0
 62
1
 10
34.7237
 20
62.0621
 30
0.0
 11
34.8386
 21
61.9942
 31
0.0
  0
LINE
  5
2D9
  8
0
 62
1
 10
34.8386
 20
61.9942
 30
0.0
 11
34.949
 21
61.9192
 31
0.0
  0
LINE
  5
2DA
  8
0
 62
1
 10
34.949
 20
61.9192
 30
0.0
 11
35.0545
 21
61.8373
 31
0.0
  0
LINE
  5
2DB
  8
0
 62
1
 10
35.0545
 20
61.8373
 30
0.0
 11
35.1546
 21
61.7491
 31
0.0
  0
LINE
  5
2DC
  8
0
 62
1
 10
35.1546
 20
61.7491
 30
0.0
 11
35.2491
 21
61.6546
 31
0.0
  0
LINE
  5
2DD
  8
0
 62
1
 10
35.2491
 20
61.6546
 30
0.0
 11
35.3373
 21
61.5545
 31
0.0
  0
LINE
  5
2DE
  8
0
 62
1
 10
35.3373
 20
61.5545
 30
0.0
 11
35.4192
 21
61.449
 31
0.0
  0
LINE
  5
2DF
  8
0
 62
1
 10
35.4192
 20
61.449
 30
0.0
 11
35.4942
 21
61.3386
 31
0.0
  0
LINE
  5
2E0
  8
0
 62
1
 10
35.4942
 20
61.3386
 30
0.0
 11
35.5621
 21
61.2237
 31
0.0
  0
LINE
  5
2E1
  8
0
 62
1
 10
35.5621
 20
61.2237
 30
0.0
 11
35.6228
 21
61.1048
 31
0.0
  0
LINE
  5
2E2
  8
0
 62
1
 10
35.6228
 20
61.1048
 30
0.0
 11
35.6758
 21
60.9823
 31
0.0
  0
LINE
  5
2E3
  8
0
 62
1
 10
35.6758
 20
60.9823
 30
0.0
 11
35.721
 21
60.8567
 31
0.0
  0
LINE
  5
2E4
  8
0
 62
1
 10
35.721
 20
60.8567
 30
0.0
 11
35.7582
 21
60.7285
 31
0.0
  0
LINE
  5
2E5
  8
0
 62
1
 10
35.7582
 20
60.7285
 30
0.0
 11
35.7874
 21
60.5982
 31
0.0
  0
LINE
  5
2E6
  8
0
 62
1
 10
35.7874
 20
60.5982
 30
0.0
 11
35.8082
 21
60.4663
 31
0.0
  0
LINE
  5
2E7
  8
0
 62
1
 10
35.8082
 20
60.4663
 30
0.0
 11
35.8208
 21
60.3334
 31
0.0
  0
LINE
  5
2E8
  8
0
 62
1
 10
35.8208
 20
60.3334
 30
0.0
 11
35.825
 21
60.2
 31
0.0
  0
LINE
  5
2E9
  8
0
 62
1
 10
35.825
 20
60.2
 30
0.0
 11
35.8208
 21
60.0666
 31
0.0
  0
LINE
  5
2EA
  8
0
 62
1
 10
35.8208
 20
60.0666
 30
0.0
 11
35.8082
 21
59.9337
 31
0.0
  0
LINE
  5
2EB
  8
0
 62
1
 10
35.8082
 20
59.9337
 30
0.0
 11
35.7874
 21
59.8018
 31
0.0
  0
LINE
  5
2EC
  8
0
 62
1
 10
35.7874
 20
59.8018
 30
0.0
 11
35.7582
 21
59.6715
 31
0.0
  0
LINE
  5
2ED
  8
0
 62
1
 10
35.7582
 20
59.6715
 30
0.0
 11
35.721
 21
59.5433
 31
0.0
  0
LINE
  5
2EE
  8
0
 62
1
 10
35.721
 20
59.5433
 30
0.0
 11
35.6758
 21
59.4177
 31
0.0
  0
LINE
  5
2EF
  8
0
 62
1
 10
35.6758
 20
59.4177
 30
0.0
 11
35.6228
 21
59.2952
 31
0.0
  0
LINE
  5
2F0
  8
0
 62
1
 10
35.6228
 20
59.2952
 30
0.0
 11
35.5621
 21
59.1763
 31
0.0
  0
LINE
  5
2F1
  8
0
 62
1
 10
35.5621
 20
59.1763
 30
0.0
 11
35.4942
 21
59.0614
 31
0.0
  0
LINE
  5
2F2
  8
0
 62
1
 10
35.4942
 20
59.0614
 30
0.0
 11
35.4192
 21
58.9509
 31
0.0
  0
LINE
  5
2F3
  8
0
 62
1
 10
35.4192
 20
58.9509
 30
0.0
 11
35.3373
 21
58.8455
 31
0.0
  0
LINE
  5
2F4
  8
0
 62
1
 10
35.3373
 20
58.8455
 30
0.0
 11
35.2491
 21
58.7453
 31
0.0
  0
LINE
  5
2F5
  8
0
 62
1
 10
35.2491
 20
58.7453
 30
0.0
 11
35.1546
 21
58.6509
 31
0.0
  0
LINE
  5
2F6
  8
0
 62
1
 10
35.1546
 20
58.6509
 30
0.0
 11
35.0545
 21
58.5627
 31
0.0
  0
LINE
  5
2F7
  8
0
 62
1
 10
35.0545
 20
58.5627
 30
0.0
 11
34.949
 21
58.4808
 31
0.0
  0
LINE
  5
2F8
  8
0
 62
1
 10
34.949
 20
58.4808
 30
0.0
 11
34.8386
 21
58.4058
 31
0.0
  0
LINE
  5
2F9
  8
0
 62
1
 10
34.8386
 20
58.4058
 30
0.0
 11
34.7237
 21
58.3378
 31
0.0
  0
LINE
  5
2FA
  8
0
 62
1
 10
34.7237
 20
58.3378
 30
0.0
 11
34.6048
 21
58.2772
 31
0.0
  0
LINE
  5
2FB
  8
0
 62
1
 10
34.6048
 20
58.2772
 30
0.0
 11
34.4823
 21
58.2242
 31
0.0
  0
LINE
  5
2FC
  8
0
 62
1
 10
34.4823
 20
58.2242
 30
0.0
 11
34.3567
 21
58.179
 31
0.0
  0
LINE
  5
2FD
  8
0
 62
1
 10
34.3567
 20
58.179
 30
0.0
 11
34.2285
 21
58.1418
 31
0.0
  0
LINE
  5
2FE
  8
0
 62
1
 10
34.2285
 20
58.1418
 30
0.0
 11
34.0982
 21
58.1126
 31
0.0
  0
LINE
  5
2FF
  8
0
 62
1
 10
34.0982
 20
58.1126
 30
0.0
 11
33.9663
 21
58.0918
 31
0.0
  0
LINE
  5
300
  8
0
 62
1
 10
33.9663
 20
58.0918
 30
0.0
 11
33.8334
 21
58.0792
 31
0.0
  0
LINE
  5
301
  8
0
 62
1
 10
33.8334
 20
58.0792
 30
0.0
 11
33.7
 21
58.075
 31
0.0
  0
LINE
  5
302
  8
0
 62
1
 10
33.7
 20
58.075
 30
0.0
 11
33.5666
 21
58.0792
 31
0.0
  0
LINE
  5
303
  8
0
 62
1
 10
0.0
 20
75.5
 30
0.0
 11
0.0
 21
53.0
 31
0.0
  0
LINE
  5
304
  8
0
 62
1
 10
0.0
 20
53.0
 30
0.0
 11
22.5
 21
53.0
 31
0.0
  0
LINE
  5
305
  8
0
 62
1
 10
22.5
 20
53.0
 30
0.0
 11
0.0
 21
75.5
 31
0.0
  0
LINE
  5
306
  8
0
 62
1
 10
7.06656
 20
58.0792
 30
0.0
 11
6.93365
 21
58.0918
 31
0.0
  0
LINE
  5
307
  8
0
 62
1
 10
6.93365
 20
58.0918
 30
0.0
 11
6.8018
 21
58.1126
 31
0.0
  0
LINE
  5
308
  8
0
 62
1
 10
6.8018
 20
58.1126
 30
0.0
 11
6.67152
 21
58.1418
 31
0.0
  0
LINE
  5
309
  8
0
 62
1
 10
6.67152
 20
58.1418
 30
0.0
 11
6.54333
 21
58.179
 31
0.0
  0
LINE
  5
30A
  8
0
 62
1
 10
6.54333
 20
58.179
 30
0.0
 11
6.41772
 21
58.2242
 31
0.0
  0
LINE
  5
30B
  8
0
 62
1
 10
6.41772
 20
58.2242
 30
0.0
 11
6.29521
 21
58.2772
 31
0.0
  0
LINE
  5
30C
  8
0
 62
1
 10
6.29521
 20
58.2772
 30
0.0
 11
6.17627
 21
58.3378
 31
0.0
  0
LINE
  5
30D
  8
0
 62
1
 10
6.17627
 20
58.3378
 30
0.0
 11
6.06136
 21
58.4058
 31
0.0
  0
LINE
  5
30E
  8
0
 62
1
 10
6.06136
 20
58.4058
 30
0.0
 11
5.95094
 21
58.4808
 31
0.0
  0
LINE
  5
30F
  8
0
 62
1
 10
5.95094
 20
58.4808
 30
0.0
 11
5.84546
 21
58.5627
 31
0.0
  0
LINE
  5
310
  8
0
 62
1
 10
5.84546
 20
58.5627
 30
0.0
 11
5.74533
 21
58.6509
 31
0.0
  0
LINE
  5
311
  8
0
 62
1
 10
5.74533
 20
58.6509
 30
0.0
 11
5.65094
 21
58.7453
 31
0.0
  0
LINE
  5
312
  8
0
 62
1
 10
5.65094
 20
58.7453
 30
0.0
 11
5.56265
 21
58.8455
 31
0.0
  0
LINE
  5
313
  8
0
 62
1
 10
5.56265
 20
58.8455
 30
0.0
 11
5.48083
 21
58.9509
 31
0.0
  0
LINE
  5
314
  8
0
 62
1
 10
5.48083
 20
58.9509
 30
0.0
 11
5.40579
 21
59.0614
 31
0.0
  0
LINE
  5
315
  8
0
 62
1
 10
5.40579
 20
59.0614
 30
0.0
 11
5.33784
 21
59.1763
 31
0.0
  0
LINE
  5
316
  8
0
 62
1
 10
5.33784
 20
59.1763
 30
0.0
 11
5.27724
 21
59.2952
 31
0.0
  0
LINE
  5
317
  8
0
 62
1
 10
5.27724
 20
59.2952
 30
0.0
 11
5.22421
 21
59.4177
 31
0.0
  0
LINE
  5
318
  8
0
 62
1
 10
5.22421
 20
59.4177
 30
0.0
 11
5.179
 21
59.5433
 31
0.0
  0
LINE
  5
319
  8
0
 62
1
 10
5.179
 20
59.5433
 30
0.0
 11
5.14175
 21
59.6715
 31
0.0
  0
LINE
  5
31A
  8
0
 62
1
 10
5.14175
 20
59.6715
 30
0.0
 11
5.11263
 21
59.8018
 31
0.0
  0
LINE
  5
31B
  8
0
 62
1
 10
5.11263
 20
59.8018
 30
0.0
 11
5.09175
 21
59.9337
 31
0.0
  0
LINE
  5
31C
  8
0
 62
1
 10
5.09175
 20
59.9337
 30
0.0
 11
5.07919
 21
60.0666
 31
0.0
  0
LINE
  5
31D
  8
0
 62
1
 10
5.07919
 20
60.0666
 30
0.0
 11
5.075
 21
60.2
 31
0.0
  0
LINE
  5
31E
  8
0
 62
1
 10
5.075
 20
60.2
 30
0.0
 11
5.07919
 21
60.3334
 31
0.0
  0
LINE
  5
31F
  8
0
 62
1
 10
5.07919
 20
60.3334
 30
0.0
 11
5.09175
 21
60.4663
 31
0.0
  0
LINE
  5
320
  8
0
 62
1
 10
5.09175
 20
60.4663
 30
0.0
 11
5.11263
 21
60.5982
 31
0.0
  0
LINE
  5
321
  8
0
 62
1
 10
5.11263
 20
60.5982
 30
0.0
 11
5.14175
 21
60.7285
 31
0.0
  0
LINE
  5
322
  8
0
 62
1
 10
5.14175
 20
60.7285
 30
0.0
 11
5.179
 21
60.8567
 31
0.0
  0
LINE
  5
323
  8
0
 62
1
 10
5.179
 20
60.8567
 30
0.0
 11
5.22421
 21
60.9823
 31
0.0
  0
LINE
  5
324
  8
0
 62
1
 10
5.22421
 20
60.9823
 30
0.0
 11
5.27724
 21
61.1048
 31
0.0
  0
LINE
  5
325
  8
0
 62
1
 10
5.27724
 20
61.1048
 30
0.0
 11
5.33784
 21
61.2237
 31
0.0
  0
LINE
  5
326
  8
0
 62
1
 10
5.33784
 20
61.2237
 30
0.0
 11
5.40579
 21
61.3386
 31
0.0
  0
LINE
  5
327
  8
0
 62
1
 10
5.40579
 20
61.3386
 30
0.0
 11
5.48083
 21
61.449
 31
0.0
  0
LINE
  5
328
  8
0
 62
1
 10
5.48083
 20
61.449
 30
0.0
 11
5.56265
 21
61.5545
 31
0.0
  0
LINE
  5
329
  8
0
 62
1
 10
5.56265
 20
61.5545
 30
0.0
 11
5.65094
 21
61.6546
 31
0.0
  0
LINE
  5
32A
  8
0
 62
1
 10
5.65094
 20
61.6546
 30
0.0
 11
5.74533
 21
61.7491
 31
0.0
  0
LINE
  5
32B
  8
0
 62
1
 10
5.74533
 20
61.7491
 30
0.0
 11
5.84546
 21
61.8373
 31
0.0
  0
LINE
  5
32C
  8
0
 62
1
 10
5.84546
 20
61.8373
 30
0.0
 11
5.95094
 21
61.9192
 31
0.0
  0
LINE
  5
32D
  8
0
 62
1
 10
5.95094
 20
61.9192
 30
0.0
 11
6.06136
 21
61.9942
 31
0.0
  0
LINE
  5
32E
  8
0
 62
1
 10
6.06136
 20
61.9942
 30
0.0
 11
6.17627
 21
62.0621
 31
0.0
  0
LINE
  5
32F
  8
0
 62
1
 10
6.17627
 20
62.0621
 30
0.0
 11
6.29521
 21
62.1228
 31
0.0
  0
LINE
  5
330
  8
0
 62
1
 10
6.29521
 20
62.1228
 30
0.0
 11
6.41772
 21
62.1758
 31
0.0
  0
LINE
  5
331
  8
0
 62
1
 10
6.41772
 20
62.1758
 30
0.0
 11
6.54333
 21
62.221
 31
0.0
  0
LINE
  5
332
  8
0
 62
1
 10
6.54333
 20
62.221
 30
0.0
 11
6.67152
 21
62.2582
 31
0.0
  0
LINE
  5
333
  8
0
 62
1
 10
6.67152
 20
62.2582
 30
0.0
 11
6.8018
 21
62.2874
 31
0.0
  0
LINE
  5
334
  8
0
 62
1
 10
6.8018
 20
62.2874
 30
0.0
 11
6.93365
 21
62.3082
 31
0.0
  0
LINE
  5
335
  8
0
 62
1
 10
6.93365
 20
62.3082
 30
0.0
 11
7.06656
 21
62.3208
 31
0.0
  0
LINE
  5
336
  8
0
 62
1
 10
7.06656
 20
62.3208
 30
0.0
 11
7.2
 21
62.325
 31
0.0
  0
LINE
  5
337
  8
0
 62
1
 10
7.2
 20
62.325
 30
0.0
 11
7.33342
 21
62.3208
 31
0.0
  0
LINE
  5
338
  8
0
 62
1
 10
7.33342
 20
62.3208
 30
0.0
 11
7.46632
 21
62.3082
 31
0.0
  0
LINE
  5
339
  8
0
 62
1
 10
7.46632
 20
62.3082
 30
0.0
 11
7.59818
 21
62.2874
 31
0.0
  0
LINE
  5
33A
  8
0
 62
1
 10
7.59818
 20
62.2874
 30
0.0
 11
7.72845
 21
62.2582
 31
0.0
  0
LINE
  5
33B
  8
0
 62
1
 10
7.72845
 20
62.2582
 30
0.0
 11
7.85666
 21
62.221
 31
0.0
  0
LINE
  5
33C
  8
0
 62
1
 10
7.85666
 20
62.221
 30
0.0
 11
7.98225
 21
62.1758
 31
0.0
  0
LINE
  5
33D
  8
0
 62
1
 10
7.98225
 20
62.1758
 30
0.0
 11
8.10477
 21
62.1228
 31
0.0
  0
LINE
  5
33E
  8
0
 62
1
 10
8.10477
 20
62.1228
 30
0.0
 11
8.22372
 21
62.0621
 31
0.0
  0
LINE
  5
33F
  8
0
 62
1
 10
8.22372
 20
62.0621
 30
0.0
 11
8.33862
 21
61.9942
 31
0.0
  0
LINE
  5
340
  8
0
 62
1
 10
8.33862
 20
61.9942
 30
0.0
 11
8.44904
 21
61.9192
 31
0.0
  0
LINE
  5
341
  8
0
 62
1
 10
8.44904
 20
61.9192
 30
0.0
 11
8.55452
 21
61.8373
 31
0.0
  0
LINE
  5
342
  8
0
 62
1
 10
8.55452
 20
61.8373
 30
0.0
 11
8.65465
 21
61.7491
 31
0.0
  0
LINE
  5
343
  8
0
 62
1
 10
8.65465
 20
61.7491
 30
0.0
 11
8.74905
 21
61.6546
 31
0.0
  0
LINE
  5
344
  8
0
 62
1
 10
8.74905
 20
61.6546
 30
0.0
 11
8.83733
 21
61.5545
 31
0.0
  0
LINE
  5
345
  8
0
 62
1
 10
8.83733
 20
61.5545
 30
0.0
 11
8.91916
 21
61.449
 31
0.0
  0
LINE
  5
346
  8
0
 62
1
 10
8.91916
 20
61.449
 30
0.0
 11
8.99419
 21
61.3386
 31
0.0
  0
LINE
  5
347
  8
0
 62
1
 10
8.99419
 20
61.3386
 30
0.0
 11
9.06215
 21
61.2237
 31
0.0
  0
LINE
  5
348
  8
0
 62
1
 10
9.06215
 20
61.2237
 30
0.0
 11
9.12276
 21
61.1048
 31
0.0
  0
LINE
  5
349
  8
0
 62
1
 10
9.12276
 20
61.1048
 30
0.0
 11
9.17577
 21
60.9823
 31
0.0
  0
LINE
  5
34A
  8
0
 62
1
 10
9.17577
 20
60.9823
 30
0.0
 11
9.22099
 21
60.8567
 31
0.0
  0
LINE
  5
34B
  8
0
 62
1
 10
9.22099
 20
60.8567
 30
0.0
 11
9.25822
 21
60.7285
 31
0.0
  0
LINE
  5
34C
  8
0
 62
1
 10
9.25822
 20
60.7285
 30
0.0
 11
9.28735
 21
60.5982
 31
0.0
  0
LINE
  5
34D
  8
0
 62
1
 10
9.28735
 20
60.5982
 30
0.0
 11
9.30824
 21
60.4663
 31
0.0
  0
LINE
  5
34E
  8
0
 62
1
 10
9.30824
 20
60.4663
 30
0.0
 11
9.3208
 21
60.3334
 31
0.0
  0
LINE
  5
34F
  8
0
 62
1
 10
9.3208
 20
60.3334
 30
0.0
 11
9.325
 21
60.2
 31
0.0
  0
LINE
  5
350
  8
0
 62
1
 10
9.325
 20
60.2
 30
0.0
 11
9.3208
 21
60.0666
 31
0.0
  0
LINE
  5
351
  8
0
 62
1
 10
9.3208
 20
60.0666
 30
0.0
 11
9.30824
 21
59.9337
 31
0.0
  0
LINE
  5
352
  8
0
 62
1
 10
9.30824
 20
59.9337
 30
0.0
 11
9.28735
 21
59.8018
 31
0.0
  0
LINE
  5
353
  8
0
 62
1
 10
9.28735
 20
59.8018
 30
0.0
 11
9.25822
 21
59.6715
 31
0.0
  0
LINE
  5
354
  8
0
 62
1
 10
9.25822
 20
59.6715
 30
0.0
 11
9.22099
 21
59.5433
 31
0.0
  0
LINE
  5
355
  8
0
 62
1
 10
9.22099
 20
59.5433
 30
0.0
 11
9.17577
 21
59.4177
 31
0.0
  0
LINE
  5
356
  8
0
 62
1
 10
9.17577
 20
59.4177
 30
0.0
 11
9.12276
 21
59.2952
 31
0.0
  0
LINE
  5
357
  8
0
 62
1
 10
9.12276
 20
59.2952
 30
0.0
 11
9.06215
 21
59.1763
 31
0.0
  0
LINE
  5
358
  8
0
 62
1
 10
9.06215
 20
59.1763
 30
0.0
 11
8.99419
 21
59.0614
 31
0.0
  0
LINE
  5
359
  8
0
 62
1
 10
8.99419
 20
59.0614
 30
0.0
 11
8.91916
 21
58.9509
 31
0.0
  0
LINE
  5
35A
  8
0
 62
1
 10
8.91916
 20
58.9509
 30
0.0
 11
8.83733
 21
58.8455
 31
0.0
  0
LINE
  5
35B
  8
0
 62
1
 10
8.83733
 20
58.8455
 30
0.0
 11
8.74905
 21
58.7453
 31
0.0
  0
LINE
  5
35C
  8
0
 62
1
 10
8.74905
 20
58.7453
 30
0.0
 11
8.65465
 21
58.6509
 31
0.0
  0
LINE
  5
35D
  8
0
 62
1
 10
8.65465
 20
58.6509
 30
0.0
 11
8.55452
 21
58.5627
 31
0.0
  0
LINE
  5
35E
  8
0
 62
1
 10
8.55452
 20
58.5627
 30
0.0
 11
8.44904
 21
58.4808
 31
0.0
  0
LINE
  5
35F
  8
0
 62
1
 10
8.44904
 20
58.4808
 30
0.0
 11
8.33862
 21
58.4058
 31
0.0
  0
LINE
  5
360
  8
0
 62
1
 10
8.33862
 20
58.4058
 30
0.0
 11
8.22372
 21
58.3378
 31
0.0
  0
LINE
  5
361
  8
0
 62
1
 10
8.22372
 20
58.3378
 30
0.0
 11
8.10477
 21
58.2772
 31
0.0
  0
LINE
  5
362
  8
0
 62
1
 10
8.10477
 20
58.2772
 30
0.0
 11
7.98225
 21
58.2242
 31
0.0
  0
LINE
  5
363
  8
0
 62
1
 10
7.98225
 20
58.2242
 30
0.0
 11
7.85666
 21
58.179
 31
0.0
  0
LINE
  5
364
  8
0
 62
1
 10
7.85666
 20
58.179
 30
0.0
 11
7.72845
 21
58.1418
 31
0.0
  0
LINE
  5
365
  8
0
 62
1
 10
7.72845
 20
58.1418
 30
0.0
 11
7.59818
 21
58.1126
 31
0.0
  0
LINE
  5
366
  8
0
 62
1
 10
7.59818
 20
58.1126
 30
0.0
 11
7.46632
 21
58.0918
 31
0.0
  0
LINE
  5
367
  8
0
 62
1
 10
7.46632
 20
58.0918
 30
0.0
 11
7.33342
 21
58.0792
 31
0.0
  0
LINE
  5
368
  8
0
 62
1
 10
7.33342
 20
58.0792
 30
0.0
 11
7.2
 21
58.075
 31
0.0
  0
LINE
  5
369
  8
0
 62
1
 10
7.2
 20
58.075
 30
0.0
 11
7.06656
 21
58.0792
 31
0.0
  0
LINE
  5
36A
  8
0
 62
1
 10
24.5
 20
51.0
 30
0.0
 11
2.0
 21
51.0
 31
0.0
  0
LINE
  5
36B
  8
0
 62
1
 10
2.0
 20
51.0
 30
0.0
 11
24.5
 21
28.5
 31
0.0
  0
LINE
  5
36C
  8
0
 62
1
 10
24.5
 20
28.5
 30
0.0
 11
24.5
 21
51.0
 31
0.0
  0
LINE
  5
36D
  8
0
 62
1
 10
17.1666
 20
41.6792
 30
0.0
 11
17.0337
 21
41.6918
 31
0.0
  0
LINE
  5
36E
  8
0
 62
1
 10
17.0337
 20
41.6918
 30
0.0
 11
16.9018
 21
41.7126
 31
0.0
  0
LINE
  5
36F
  8
0
 62
1
 10
16.9018
 20
41.7126
 30
0.0
 11
16.7715
 21
41.7418
 31
0.0
  0
LINE
  5
370
  8
0
 62
1
 10
16.7715
 20
41.7418
 30
0.0
 11
16.6433
 21
41.779
 31
0.0
  0
LINE
  5
371
  8
0
 62
1
 10
16.6433
 20
41.779
 30
0.0
 11
16.5177
 21
41.8242
 31
0.0
  0
LINE
  5
372
  8
0
 62
1
 10
16.5177
 20
41.8242
 30
0.0
 11
16.3952
 21
41.8772
 31
0.0
  0
LINE
  5
373
  8
0
 62
1
 10
16.3952
 20
41.8772
 30
0.0
 11
16.2763
 21
41.9379
 31
0.0
  0
LINE
  5
374
  8
0
 62
1
 10
16.2763
 20
41.9379
 30
0.0
 11
16.1614
 21
42.0058
 31
0.0
  0
LINE
  5
375
  8
0
 62
1
 10
16.1614
 20
42.0058
 30
0.0
 11
16.051
 21
42.0808
 31
0.0
  0
LINE
  5
376
  8
0
 62
1
 10
16.051
 20
42.0808
 30
0.0
 11
15.9455
 21
42.1627
 31
0.0
  0
LINE
  5
377
  8
0
 62
1
 10
15.9455
 20
42.1627
 30
0.0
 11
15.8454
 21
42.2509
 31
0.0
  0
LINE
  5
378
  8
0
 62
1
 10
15.8454
 20
42.2509
 30
0.0
 11
15.7509
 21
42.3454
 31
0.0
  0
LINE
  5
379
  8
0
 62
1
 10
15.7509
 20
42.3454
 30
0.0
 11
15.6627
 21
42.4455
 31
0.0
  0
LINE
  5
37A
  8
0
 62
1
 10
15.6627
 20
42.4455
 30
0.0
 11
15.5808
 21
42.551
 31
0.0
  0
LINE
  5
37B
  8
0
 62
1
 10
15.5808
 20
42.551
 30
0.0
 11
15.5058
 21
42.6614
 31
0.0
  0
LINE
  5
37C
  8
0
 62
1
 10
15.5058
 20
42.6614
 30
0.0
 11
15.4379
 21
42.7763
 31
0.0
  0
LINE
  5
37D
  8
0
 62
1
 10
15.4379
 20
42.7763
 30
0.0
 11
15.3772
 21
42.8952
 31
0.0
  0
LINE
  5
37E
  8
0
 62
1
 10
15.3772
 20
42.8952
 30
0.0
 11
15.3242
 21
43.0177
 31
0.0
  0
LINE
  5
37F
  8
0
 62
1
 10
15.3242
 20
43.0177
 30
0.0
 11
15.279
 21
43.1433
 31
0.0
  0
LINE
  5
380
  8
0
 62
1
 10
15.279
 20
43.1433
 30
0.0
 11
15.2418
 21
43.2715
 31
0.0
  0
LINE
  5
381
  8
0
 62
1
 10
15.2418
 20
43.2715
 30
0.0
 11
15.2126
 21
43.4018
 31
0.0
  0
LINE
  5
382
  8
0
 62
1
 10
15.2126
 20
43.4018
 30
0.0
 11
15.1918
 21
43.5337
 31
0.0
  0
LINE
  5
383
  8
0
 62
1
 10
15.1918
 20
43.5337
 30
0.0
 11
15.1792
 21
43.6666
 31
0.0
  0
LINE
  5
384
  8
0
 62
1
 10
15.1792
 20
43.6666
 30
0.0
 11
15.175
 21
43.8
 31
0.0
  0
LINE
  5
385
  8
0
 62
1
 10
15.175
 20
43.8
 30
0.0
 11
15.1792
 21
43.9334
 31
0.0
  0
LINE
  5
386
  8
0
 62
1
 10
15.1792
 20
43.9334
 30
0.0
 11
15.1918
 21
44.0663
 31
0.0
  0
LINE
  5
387
  8
0
 62
1
 10
15.1918
 20
44.0663
 30
0.0
 11
15.2126
 21
44.1982
 31
0.0
  0
LINE
  5
388
  8
0
 62
1
 10
15.2126
 20
44.1982
 30
0.0
 11
15.2418
 21
44.3285
 31
0.0
  0
LINE
  5
389
  8
0
 62
1
 10
15.2418
 20
44.3285
 30
0.0
 11
15.279
 21
44.4567
 31
0.0
  0
LINE
  5
38A
  8
0
 62
1
 10
15.279
 20
44.4567
 30
0.0
 11
15.3242
 21
44.5823
 31
0.0
  0
LINE
  5
38B
  8
0
 62
1
 10
15.3242
 20
44.5823
 30
0.0
 11
15.3772
 21
44.7048
 31
0.0
  0
LINE
  5
38C
  8
0
 62
1
 10
15.3772
 20
44.7048
 30
0.0
 11
15.4379
 21
44.8237
 31
0.0
  0
LINE
  5
38D
  8
0
 62
1
 10
15.4379
 20
44.8237
 30
0.0
 11
15.5058
 21
44.9386
 31
0.0
  0
LINE
  5
38E
  8
0
 62
1
 10
15.5058
 20
44.9386
 30
0.0
 11
15.5808
 21
45.0491
 31
0.0
  0
LINE
  5
38F
  8
0
 62
1
 10
15.5808
 20
45.0491
 30
0.0
 11
15.6627
 21
45.1545
 31
0.0
  0
LINE
  5
390
  8
0
 62
1
 10
15.6627
 20
45.1545
 30
0.0
 11
15.7509
 21
45.2547
 31
0.0
  0
LINE
  5
391
  8
0
 62
1
 10
15.7509
 20
45.2547
 30
0.0
 11
15.8454
 21
45.3491
 31
0.0
  0
LINE
  5
392
  8
0
 62
1
 10
15.8454
 20
45.3491
 30
0.0
 11
15.9455
 21
45.4373
 31
0.0
  0
LINE
  5
393
  8
0
 62
1
 10
15.9455
 20
45.4373
 30
0.0
 11
16.051
 21
45.5192
 31
0.0
  0
LINE
  5
394
  8
0
 62
1
 10
16.051
 20
45.5192
 30
0.0
 11
16.1614
 21
45.5942
 31
0.0
  0
LINE
  5
395
  8
0
 62
1
 10
16.1614
 20
45.5942
 30
0.0
 11
16.2763
 21
45.6622
 31
0.0
  0
LINE
  5
396
  8
0
 62
1
 10
16.2763
 20
45.6622
 30
0.0
 11
16.3952
 21
45.7228
 31
0.0
  0
LINE
  5
397
  8
0
 62
1
 10
16.3952
 20
45.7228
 30
0.0
 11
16.5177
 21
45.7758
 31
0.0
  0
LINE
  5
398
  8
0
 62
1
 10
16.5177
 20
45.7758
 30
0.0
 11
16.6433
 21
45.821
 31
0.0
  0
LINE
  5
399
  8
0
 62
1
 10
16.6433
 20
45.821
 30
0.0
 11
16.7715
 21
45.8582
 31
0.0
  0
LINE
  5
39A
  8
0
 62
1
 10
16.7715
 20
45.8582
 30
0.0
 11
16.9018
 21
45.8874
 31
0.0
  0
LINE
  5
39B
  8
0
 62
1
 10
16.9018
 20
45.8874
 30
0.0
 11
17.0337
 21
45.9082
 31
0.0
  0
LINE
  5
39C
  8
0
 62
1
 10
17.0337
 20
45.9082
 30
0.0
 11
17.1666
 21
45.9208
 31
0.0
  0
LINE
  5
39D
  8
0
 62
1
 10
17.1666
 20
45.9208
 30
0.0
 11
17.3
 21
45.925
 31
0.0
  0
LINE
  5
39E
  8
0
 62
1
 10
17.3
 20
45.925
 30
0.0
 11
17.4334
 21
45.9208
 31
0.0
  0
LINE
  5
39F
  8
0
 62
1
 10
17.4334
 20
45.9208
 30
0.0
 11
17.5663
 21
45.9082
 31
0.0
  0
LINE
  5
3A0
  8
0
 62
1
 10
17.5663
 20
45.9082
 30
0.0
 11
17.6982
 21
45.8874
 31
0.0
  0
LINE
  5
3A1
  8
0
 62
1
 10
17.6982
 20
45.8874
 30
0.0
 11
17.8285
 21
45.8582
 31
0.0
  0
LINE
  5
3A2
  8
0
 62
1
 10
17.8285
 20
45.8582
 30
0.0
 11
17.9567
 21
45.821
 31
0.0
  0
LINE
  5
3A3
  8
0
 62
1
 10
17.9567
 20
45.821
 30
0.0
 11
18.0823
 21
45.7758
 31
0.0
  0
LINE
  5
3A4
  8
0
 62
1
 10
18.0823
 20
45.7758
 30
0.0
 11
18.2048
 21
45.7228
 31
0.0
  0
LINE
  5
3A5
  8
0
 62
1
 10
18.2048
 20
45.7228
 30
0.0
 11
18.3237
 21
45.6622
 31
0.0
  0
LINE
  5
3A6
  8
0
 62
1
 10
18.3237
 20
45.6622
 30
0.0
 11
18.4386
 21
45.5942
 31
0.0
  0
LINE
  5
3A7
  8
0
 62
1
 10
18.4386
 20
45.5942
 30
0.0
 11
18.5491
 21
45.5192
 31
0.0
  0
LINE
  5
3A8
  8
0
 62
1
 10
18.5491
 20
45.5192
 30
0.0
 11
18.6545
 21
45.4373
 31
0.0
  0
LINE
  5
3A9
  8
0
 62
1
 10
18.6545
 20
45.4373
 30
0.0
 11
18.7547
 21
45.3491
 31
0.0
  0
LINE
  5
3AA
  8
0
 62
1
 10
18.7547
 20
45.3491
 30
0.0
 11
18.8491
 21
45.2547
 31
0.0
  0
LINE
  5
3AB
  8
0
 62
1
 10
18.8491
 20
45.2547
 30
0.0
 11
18.9373
 21
45.1545
 31
0.0
  0
LINE
  5
3AC
  8
0
 62
1
 10
18.9373
 20
45.1545
 30
0.0
 11
19.0192
 21
45.0491
 31
0.0
  0
LINE
  5
3AD
  8
0
 62
1
 10
19.0192
 20
45.0491
 30
0.0
 11
19.0942
 21
44.9386
 31
0.0
  0
LINE
  5
3AE
  8
0
 62
1
 10
19.0942
 20
44.9386
 30
0.0
 11
19.1622
 21
44.8237
 31
0.0
  0
LINE
  5
3AF
  8
0
 62
1
 10
19.1622
 20
44.8237
 30
0.0
 11
19.2228
 21
44.7048
 31
0.0
  0
LINE
  5
3B0
  8
0
 62
1
 10
19.2228
 20
44.7048
 30
0.0
 11
19.2758
 21
44.5823
 31
0.0
  0
LINE
  5
3B1
  8
0
 62
1
 10
19.2758
 20
44.5823
 30
0.0
 11
19.321
 21
44.4567
 31
0.0
  0
LINE
  5
3B2
  8
0
 62
1
 10
19.321
 20
44.4567
 30
0.0
 11
19.3582
 21
44.3285
 31
0.0
  0
LINE
  5
3B3
  8
0
 62
1
 10
19.3582
 20
44.3285
 30
0.0
 11
19.3874
 21
44.1982
 31
0.0
  0
LINE
  5
3B4
  8
0
 62
1
 10
19.3874
 20
44.1982
 30
0.0
 11
19.4082
 21
44.0663
 31
0.0
  0
LINE
  5
3B5
  8
0
 62
1
 10
19.4082
 20
44.0663
 30
0.0
 11
19.4208
 21
43.9334
 31
0.0
  0
LINE
  5
3B6
  8
0
 62
1
 10
19.4208
 20
43.9334
 30
0.0
 11
19.425
 21
43.8
 31
0.0
  0
LINE
  5
3B7
  8
0
 62
1
 10
19.425
 20
43.8
 30
0.0
 11
19.4208
 21
43.6666
 31
0.0
  0
LINE
  5
3B8
  8
0
 62
1
 10
19.4208
 20
43.6666
 30
0.0
 11
19.4082
 21
43.5337
 31
0.0
  0
LINE
  5
3B9
  8
0
 62
1
 10
19.4082
 20
43.5337
 30
0.0
 11
19.3874
 21
43.4018
 31
0.0
  0
LINE
  5
3BA
  8
0
 62
1
 10
19.3874
 20
43.4018
 30
0.0
 11
19.3582
 21
43.2715
 31
0.0
  0
LINE
  5
3BB
  8
0
 62
1
 10
19.3582
 20
43.2715
 30
0.0
 11
19.321
 21
43.1433
 31
0.0
  0
LINE
  5
3BC
  8
0
 62
1
 10
19.321
 20
43.1433
 30
0.0
 11
19.2758
 21
43.0177
 31
0.0
  0
LINE
  5
3BD
  8
0
 62
1
 10
19.2758
 20
43.0177
 30
0.0
 11
19.2228
 21
42.8952
 31
0.0
  0
LINE
  5
3BE
  8
0
 62
1
 10
19.2228
 20
42.8952
 30
0.0
 11
19.1622
 21
42.7763
 31
0.0
  0
LINE
  5
3BF
  8
0
 62
1
 10
19.1622
 20
42.7763
 30
0.0
 11
19.0942
 21
42.6614
 31
0.0
  0
LINE
  5
3C0
  8
0
 62
1
 10
19.0942
 20
42.6614
 30
0.0
 11
19.0192
 21
42.551
 31
0.0
  0
LINE
  5
3C1
  8
0
 62
1
 10
19.0192
 20
42.551
 30
0.0
 11
18.9373
 21
42.4455
 31
0.0
  0
LINE
  5
3C2
  8
0
 62
1
 10
18.9373
 20
42.4455
 30
0.0
 11
18.8491
 21
42.3454
 31
0.0
  0
LINE
  5
3C3
  8
0
 62
1
 10
18.8491
 20
42.3454
 30
0.0
 11
18.7547
 21
42.2509
 31
0.0
  0
LINE
  5
3C4
  8
0
 62
1
 10
18.7547
 20
42.2509
 30
0.0
 11
18.6545
 21
42.1627
 31
0.0
  0
LINE
  5
3C5
  8
0
 62
1
 10
18.6545
 20
42.1627
 30
0.0
 11
18.5491
 21
42.0808
 31
0.0
  0
LINE
  5
3C6
  8
0
 62
1
 10
18.5491
 20
42.0808
 30
0.0
 11
18.4386
 21
42.0058
 31
0.0
  0
LINE
  5
3C7
  8
0
 62
1
 10
18.4386
 20
42.0058
 30
0.0
 11
18.3237
 21
41.9379
 31
0.0
  0
LINE
  5
3C8
  8
0
 62
1
 10
18.3237
 20
41.9379
 30
0.0
 11
18.2048
 21
41.8772
 31
0.0
  0
LINE
  5
3C9
  8
0
 62
1
 10
18.2048
 20
41.8772
 30
0.0
 11
18.0823
 21
41.8242
 31
0.0
  0
LINE
  5
3CA
  8
0
 62
1
 10
18.0823
 20
41.8242
 30
0.0
 11
17.9567
 21
41.779
 31
0.0
  0
LINE
  5
3CB
  8
0
 62
1
 10
17.9567
 20
41.779
 30
0.0
 11
17.8285
 21
41.7418
 31
0.0
  0
LINE
  5
3CC
  8
0
 62
1
 10
17.8285
 20
41.7418
 30
0.0
 11
17.6982
 21
41.7126
 31
0.0
  0
LINE
  5
3CD
  8
0
 62
1
 10
17.6982
 20
41.7126
 30
0.0
 11
17.5663
 21
41.6918
 31
0.0
  0
LINE
  5
3CE
  8
0
 62
1
 10
17.5663
 20
41.6918
 30
0.0
 11
17.4334
 21
41.6792
 31
0.0
  0
LINE
  5
3CF
  8
0
 62
1
 10
17.4334
 20
41.6792
 30
0.0
 11
17.3
 21
41.675
 31
0.0
  0
LINE
  5
3D0
  8
0
 62
1
 10
17.3
 20
41.675
 30
0.0
 11
17.1666
 21
41.6792
 31
0.0
  0
LINE
  5
3D1
  8
0
 62
1
 10
77.5
 20
51.0
 30
0.0
 11
55.0
 21
51.0
 31
0.0
  0
LINE
  5
3D2
  8
0
 62
1
 10
55.0
 20
51.0
 30
0.0
 11
77.5
 21
28.5
 31
0.0
  0
LINE
  5
3D3
  8
0
 62
1
 10
77.5
 20
28.5
 30
0.0
 11
77.5
 21
51.0
 31
0.0
  0
LINE
  5
3D4
  8
0
 62
1
 10
70.1666
 20
41.6792
 30
0.0
 11
70.0337
 21
41.6918
 31
0.0
  0
LINE
  5
3D5
  8
0
 62
1
 10
70.0337
 20
41.6918
 30
0.0
 11
69.9018
 21
41.7126
 31
0.0
  0
LINE
  5
3D6
  8
0
 62
1
 10
69.9018
 20
41.7126
 30
0.0
 11
69.7715
 21
41.7418
 31
0.0
  0
LINE
  5
3D7
  8
0
 62
1
 10
69.7715
 20
41.7418
 30
0.0
 11
69.6433
 21
41.779
 31
0.0
  0
LINE
  5
3D8
  8
0
 62
1
 10
69.6433
 20
41.779
 30
0.0
 11
69.5177
 21
41.8242
 31
0.0
  0
LINE
  5
3D9
  8
0
 62
1
 10
69.5177
 20
41.8242
 30
0.0
 11
69.3952
 21
41.8772
 31
0.0
  0
LINE
  5
3DA
  8
0
 62
1
 10
69.3952
 20
41.8772
 30
0.0
 11
69.2763
 21
41.9379
 31
0.0
  0
LINE
  5
3DB
  8
0
 62
1
 10
69.2763
 20
41.9379
 30
0.0
 11
69.1614
 21
42.0058
 31
0.0
  0
LINE
  5
3DC
  8
0
 62
1
 10
69.1614
 20
42.0058
 30
0.0
 11
69.051
 21
42.0808
 31
0.0
  0
LINE
  5
3DD
  8
0
 62
1
 10
69.051
 20
42.0808
 30
0.0
 11
68.9455
 21
42.1627
 31
0.0
  0
LINE
  5
3DE
  8
0
 62
1
 10
68.9455
 20
42.1627
 30
0.0
 11
68.8454
 21
42.2509
 31
0.0
  0
LINE
  5
3DF
  8
0
 62
1
 10
68.8454
 20
42.2509
 30
0.0
 11
68.7509
 21
42.3454
 31
0.0
  0
LINE
  5
3E0
  8
0
 62
1
 10
68.7509
 20
42.3454
 30
0.0
 11
68.6627
 21
42.4455
 31
0.0
  0
LINE
  5
3E1
  8
0
 62
1
 10
68.6627
 20
42.4455
 30
0.0
 11
68.5808
 21
42.551
 31
0.0
  0
LINE
  5
3E2
  8
0
 62
1
 10
68.5808
 20
42.551
 30
0.0
 11
68.5058
 21
42.6614
 31
0.0
  0
LINE
  5
3E3
  8
0
 62
1
 10
68.5058
 20
42.6614
 30
0.0
 11
68.4379
 21
42.7763
 31
0.0
  0
LINE
  5
3E4
  8
0
 62
1
 10
68.4379
 20
42.7763
 30
0.0
 11
68.3772
 21
42.8952
 31
0.0
  0
LINE
  5
3E5
  8
0
 62
1
 10
68.3772
 20
42.8952
 30
0.0
 11
68.3242
 21
43.0177
 31
0.0
  0
LINE
  5
3E6
  8
0
 62
1
 10
68.3242
 20
43.0177
 30
0.0
 11
68.279
 21
43.1433
 31
0.0
  0
LINE
  5
3E7
  8
0
 62
1
 10
68.279
 20
43.1433
 30
0.0
 11
68.2418
 21
43.2715
 31
0.0
  0
LINE
  5
3E8
  8
0
 62
1
 10
68.2418
 20
43.2715
 30
0.0
 11
68.2126
 21
43.4018
 31
0.0
  0
LINE
  5
3E9
  8
0
 62
1
 10
68.2126
 20
43.4018
 30
0.0
 11
68.1918
 21
43.5337
 31
0.0
  0
LINE
  5
3EA
  8
0
 62
1
 10
68.1918
 20
43.5337
 30
0.0
 11
68.1792
 21
43.6666
 31
0.0
  0
LINE
  5
3EB
  8
0
 62
1
 10
68.1792
 20
43.6666
 30
0.0
 11
68.175
 21
43.8
 31
0.0
  0
LINE
  5
3EC
  8
0
 62
1
 10
68.175
 20
43.8
 30
0.0
 11
68.1792
 21
43.9334
 31
0.0
  0
LINE
  5
3ED
  8
0
 62
1
 10
68.1792
 20
43.9334
 30
0.0
 11
68.1918
 21
44.0663
 31
0.0
  0
LINE
  5
3EE
  8
0
 62
1
 10
68.1918
 20
44.0663
 30
0.0
 11
68.2126
 21
44.1982
 31
0.0
  0
LINE
  5
3EF
  8
0
 62
1
 10
68.2126
 20
44.1982
 30
0.0
 11
68.2418
 21
44.3285
 31
0.0
  0
LINE
  5
3F0
  8
0
 62
1
 10
68.2418
 20
44.3285
 30
0.0
 11
68.279
 21
44.4567
 31
0.0
  0
LINE
  5
3F1
  8
0
 62
1
 10
68.279
 20
44.4567
 30
0.0
 11
68.3242
 21
44.5823
 31
0.0
  0
LINE
  5
3F2
  8
0
 62
1
 10
68.3242
 20
44.5823
 30
0.0
 11
68.3772
 21
44.7048
 31
0.0
  0
LINE
  5
3F3
  8
0
 62
1
 10
68.3772
 20
44.7048
 30
0.0
 11
68.4379
 21
44.8237
 31
0.0
  0
LINE
  5
3F4
  8
0
 62
1
 10
68.4379
 20
44.8237
 30
0.0
 11
68.5058
 21
44.9386
 31
0.0
  0
LINE
  5
3F5
  8
0
 62
1
 10
68.5058
 20
44.9386
 30
0.0
 11
68.5808
 21
45.0491
 31
0.0
  0
LINE
  5
3F6
  8
0
 62
1
 10
68.5808
 20
45.0491
 30
0.0
 11
68.6627
 21
45.1545
 31
0.0
  0
LINE
  5
3F7
  8
0
 62
1
 10
68.6627
 20
45.1545
 30
0.0
 11
68.7509
 21
45.2547
 31
0.0
  0
LINE
  5
3F8
  8
0
 62
1
 10
68.7509
 20
45.2547
 30
0.0
 11
68.8454
 21
45.3491
 31
0.0
  0
LINE
  5
3F9
  8
0
 62
1
 10
68.8454
 20
45.3491
 30
0.0
 11
68.9455
 21
45.4373
 31
0.0
  0
LINE
  5
3FA
  8
0
 62
1
 10
68.9455
 20
45.4373
 30
0.0
 11
69.051
 21
45.5192
 31
0.0
  0
LINE
  5
3FB
  8
0
 62
1
 10
69.051
 20
45.5192
 30
0.0
 11
69.1614
 21
45.5942
 31
0.0
  0
LINE
  5
3FC
  8
0
 62
1
 10
69.1614
 20
45.5942
 30
0.0
 11
69.2763
 21
45.6622
 31
0.0
  0
LINE
  5
3FD
  8
0
 62
1
 10
69.2763
 20
45.6622
 30
0.0
 11
69.3952
 21
45.7228
 31
0.0
  0
LINE
  5
3FE
  8
0
 62
1
 10
69.3952
 20
45.7228
 30
0.0
 11
69.5177
 21
45.7758
 31
0.0
  0
LINE
  5
3FF
  8
0
 62
1
 10
69.5177
 20
45.7758
 30
0.0
 11
69.6433
 21
45.821
 31
0.0
  0
LINE
  5
400
  8
0
 62
1
 10
69.6433
 20
45.821
 30
0.0
 11
69.7715
 21
45.8582
 31
0.0
  0
LINE
  5
401
  8
0
 62
1
 10
69.7715
 20
45.8582
 30
0.0
 11
69.9018
 21
45.8874
 31
0.0
  0
LINE
  5
402
  8
0
 62
1
 10
69.9018
 20
45.8874
 30
0.0
 11
70.0337
 21
45.9082
 31
0.0
  0
LINE
  5
403
  8
0
 62
1
 10
70.0337
 20
45.9082
 30
0.0
 11
70.1666
 21
45.9208
 31
0.0
  0
LINE
  5
404
  8
0
 62
1
 10
70.1666
 20
45.9208
 30
0.0
 11
70.3
 21
45.925
 31
0.0
  0
LINE
  5
405
  8
0
 62
1
 10
70.3
 20
45.925
 30
0.0
 11
70.4334
 21
45.9208
 31
0.0
  0
LINE
  5
406
  8
0
 62
1
 10
70.4334
 20
45.9208
 30
0.0
 11
70.5663
 21
45.9082
 31
0.0
  0
LINE
  5
407
  8
0
 62
1
 10
70.5663
 20
45.9082
 30
0.0
 11
70.6982
 21
45.8874
 31
0.0
  0
LINE
  5
408
  8
0
 62
1
 10
70.6982
 20
45.8874
 30
0.0
 11
70.8285
 21
45.8582
 31
0.0
  0
LINE
  5
409
  8
0
 62
1
 10
70.8285
 20
45.8582
 30
0.0
 11
70.9567
 21
45.821
 31
0.0
  0
LINE
  5
40A
  8
0
 62
1
 10
70.9567
 20
45.821
 30
0.0
 11
71.0823
 21
45.7758
 31
0.0
  0
LINE
  5
40B
  8
0
 62
1
 10
71.0823
 20
45.7758
 30
0.0
 11
71.2048
 21
45.7228
 31
0.0
  0
LINE
  5
40C
  8
0
 62
1
 10
71.2048
 20
45.7228
 30
0.0
 11
71.3237
 21
45.6622
 31
0.0
  0
LINE
  5
40D
  8
0
 62
1
 10
71.3237
 20
45.6622
 30
0.0
 11
71.4386
 21
45.5942
 31
0.0
  0
LINE
  5
40E
  8
0
 62
1
 10
71.4386
 20
45.5942
 30
0.0
 11
71.5491
 21
45.5192
 31
0.0
  0
LINE
  5
40F
  8
0
 62
1
 10
71.5491
 20
45.5192
 30
0.0
 11
71.6545
 21
45.4373
 31
0.0
  0
LINE
  5
410
  8
0
 62
1
 10
71.6545
 20
45.4373
 30
0.0
 11
71.7547
 21
45.3491
 31
0.0
  0
LINE
  5
411
  8
0
 62
1
 10
71.7547
 20
45.3491
 30
0.0
 11
71.8491
 21
45.2547
 31
0.0
  0
LINE
  5
412
  8
0
 62
1
 10
71.8491
 20
45.2547
 30
0.0
 11
71.9373
 21
45.1545
 31
0.0
  0
LINE
  5
413
  8
0
 62
1
 10
71.9373
 20
45.1545
 30
0.0
 11
72.0192
 21
45.0491
 31
0.0
  0
LINE
  5
414
  8
0
 62
1
 10
72.0192
 20
45.0491
 30
0.0
 11
72.0942
 21
44.9386
 31
0.0
  0
LINE
  5
415
  8
0
 62
1
 10
72.0942
 20
44.9386
 30
0.0
 11
72.1622
 21
44.8237
 31
0.0
  0
LINE
  5
416
  8
0
 62
1
 10
72.1622
 20
44.8237
 30
0.0
 11
72.2228
 21
44.7048
 31
0.0
  0
LINE
  5
417
  8
0
 62
1
 10
72.2228
 20
44.7048
 30
0.0
 11
72.2758
 21
44.5823
 31
0.0
  0
LINE
  5
418
  8
0
 62
1
 10
72.2758
 20
44.5823
 30
0.0
 11
72.321
 21
44.4567
 31
0.0
  0
LINE
  5
419
  8
0
 62
1
 10
72.321
 20
44.4567
 30
0.0
 11
72.3582
 21
44.3285
 31
0.0
  0
LINE
  5
41A
  8
0
 62
1
 10
72.3582
 20
44.3285
 30
0.0
 11
72.3874
 21
44.1982
 31
0.0
  0
LINE
  5
41B
  8
0
 62
1
 10
72.3874
 20
44.1982
 30
0.0
 11
72.4082
 21
44.0663
 31
0.0
  0
LINE
  5
41C
  8
0
 62
1
 10
72.4082
 20
44.0663
 30
0.0
 11
72.4208
 21
43.9334
 31
0.0
  0
LINE
  5
41D
  8
0
 62
1
 10
72.4208
 20
43.9334
 30
0.0
 11
72.425
 21
43.8
 31
0.0
  0
LINE
  5
41E
  8
0
 62
1
 10
72.425
 20
43.8
 30
0.0
 11
72.4208
 21
43.6666
 31
0.0
  0
LINE
  5
41F
  8
0
 62
1
 10
72.4208
 20
43.6666
 30
0.0
 11
72.4082
 21
43.5337
 31
0.0
  0
LINE
  5
420
  8
0
 62
1
 10
72.4082
 20
43.5337
 30
0.0
 11
72.3874
 21
43.4018
 31
0.0
  0
LINE
  5
421
  8
0
 62
1
 10
72.3874
 20
43.4018
 30
0.0
 11
72.3582
 21
43.2715
 31
0.0
  0
LINE
  5
422
  8
0
 62
1
 10
72.3582
 20
43.2715
 30
0.0
 11
72.321
 21
43.1433
 31
0.0
  0
LINE
  5
423
  8
0
 62
1
 10
72.321
 20
43.1433
 30
0.0
 11
72.2758
 21
43.0177
 31
0.0
  0
LINE
  5
424
  8
0
 62
1
 10
72.2758
 20
43.0177
 30
0.0
 11
72.2228
 21
42.8952
 31
0.0
  0
LINE
  5
425
  8
0
 62
1
 10
72.2228
 20
42.8952
 30
0.0
 11
72.1622
 21
42.7763
 31
0.0
  0
LINE
  5
426
  8
0
 62
1
 10
72.1622
 20
42.7763
 30
0.0
 11
72.0942
 21
42.6614
 31
0.0
  0
LINE
  5
427
  8
0
 62
1
 10
72.0942
 20
42.6614
 30
0.0
 11
72.0192
 21
42.551
 31
0.0
  0
LINE
  5
428
  8
0
 62
1
 10
72.0192
 20
42.551
 30
0.0
 11
71.9373
 21
42.4455
 31
0.0
  0
LINE
  5
429
  8
0
 62
1
 10
71.9373
 20
42.4455
 30
0.0
 11
71.8491
 21
42.3454
 31
0.0
  0
LINE
  5
42A
  8
0
 62
1
 10
71.8491
 20
42.3454
 30
0.0
 11
71.7547
 21
42.2509
 31
0.0
  0
LINE
  5
42B
  8
0
 62
1
 10
71.7547
 20
42.2509
 30
0.0
 11
71.6545
 21
42.1627
 31
0.0
  0
LINE
  5
42C
  8
0
 62
1
 10
71.6545
 20
42.1627
 30
0.0
 11
71.5491
 21
42.0808
 31
0.0
  0
LINE
  5
42D
  8
0
 62
1
 10
71.5491
 20
42.0808
 30
0.0
 11
71.4386
 21
42.0058
 31
0.0
  0
LINE
  5
42E
  8
0
 62
1
 10
71.4386
 20
42.0058
 30
0.0
 11
71.3237
 21
41.9379
 31
0.0
  0
LINE
  5
42F
  8
0
 62
1
 10
71.3237
 20
41.9379
 30
0.0
 11
71.2048
 21
41.8772
 31
0.0
  0
LINE
  5
430
  8
0
 62
1
 10
71.2048
 20
41.8772
 30
0.0
 11
71.0823
 21
41.8242
 31
0.0
  0
LINE
  5
431
  8
0
 62
1
 10
71.0823
 20
41.8242
 30
0.0
 11
70.9567
 21
41.779
 31
0.0
  0
LINE
  5
432
  8
0
 62
1
 10
70.9567
 20
41.779
 30
0.0
 11
70.8285
 21
41.7418
 31
0.0
  0
LINE
  5
433
  8
0
 62
1
 10
70.8285
 20
41.7418
 30
0.0
 11
70.6982
 21
41.7126
 31
0.0
  0
LINE
  5
434
  8
0
 62
1
 10
70.6982
 20
41.7126
 30
0.0
 11
70.5663
 21
41.6918
 31
0.0
  0
LINE
  5
435
  8
0
 62
1
 10
70.5663
 20
41.6918
 30
0.0
 11
70.4334
 21
41.6792
 31
0.0
  0
LINE
  5
436
  8
0
 62
1
 10
70.4334
 20
41.6792
 30
0.0
 11
70.3
 21
41.675
 31
0.0
  0
LINE
  5
437
  8
0
 62
1
 10
70.3
 20
41.675
 30
0.0
 11
70.1666
 21
41.6792
 31
0.0
  0
LINE
  5
438
  8
0
 62
1
 10
51.0
 20
51.0
 30
0.0
 11
28.5
 21
51.0
 31
0.0
  0
LINE
  5
439
  8
0
 62
1
 10
28.5
 20
51.0
 30
0.0
 11
51.0
 21
28.5
 31
0.0
  0
LINE
  5
43A
  8
0
 62
1
 10
51.0
 20
28.5
 30
0.0
 11
51.0
 21
51.0
 31
0.0
  0
LINE
  5
43B
  8
0
 62
1
 10
43.6666
 20
41.6792
 30
0.0
 11
43.5337
 21
41.6918
 31
0.0
  0
LINE
  5
43C
  8
0
 62
1
 10
43.5337
 20
41.6918
 30
0.0
 11
43.4018
 21
41.7126
 31
0.0
  0
LINE
  5
43D
  8
0
 62
1
 10
43.4018
 20
41.7126
 30
0.0
 11
43.2715
 21
41.7418
 31
0.0
  0
LINE
  5
43E
  8
0
 62
1
 10
43.2715
 20
41.7418
 30
0.0
 11
43.1433
 21
41.779
 31
0.0
  0
LINE
  5
43F
  8
0
 62
1
 10
43.1433
 20
41.779
 30
0.0
 11
43.0177
 21
41.8242
 31
0.0
  0
LINE
  5
440
  8
0
 62
1
 10
43.0177
 20
41.8242
 30
0.0
 11
42.8952
 21
41.8772
 31
0.0
  0
LINE
  5
441
  8
0
 62
1
 10
42.8952
 20
41.8772
 30
0.0
 11
42.7763
 21
41.9379
 31
0.0
  0
LINE
  5
442
  8
0
 62
1
 10
42.7763
 20
41.9379
 30
0.0
 11
42.6614
 21
42.0058
 31
0.0
  0
LINE
  5
443
  8
0
 62
1
 10
42.6614
 20
42.0058
 30
0.0
 11
42.551
 21
42.0808
 31
0.0
  0
LINE
  5
444
  8
0
 62
1
 10
42.551
 20
42.0808
 30
0.0
 11
42.4455
 21
42.1627
 31
0.0
  0
LINE
  5
445
  8
0
 62
1
 10
42.4455
 20
42.1627
 30
0.0
 11
42.3454
 21
42.2509
 31
0.0
  0
LINE
  5
446
  8
0
 62
1
 10
42.3454
 20
42.2509
 30
0.0
 11
42.2509
 21
42.3454
 31
0.0
  0
LINE
  5
447
  8
0
 62
1
 10
42.2509
 20
42.3454
 30
0.0
 11
42.1627
 21
42.4455
 31
0.0
  0
LINE
  5
448
  8
0
 62
1
 10
42.1627
 20
42.4455
 30
0.0
 11
42.0808
 21
42.551
 31
0.0
  0
LINE
  5
449
  8
0
 62
1
 10
42.0808
 20
42.551
 30
0.0
 11
42.0058
 21
42.6614
 31
0.0
  0
LINE
  5
44A
  8
0
 62
1
 10
42.0058
 20
42.6614
 30
0.0
 11
41.9379
 21
42.7763
 31
0.0
  0
LINE
  5
44B
  8
0
 62
1
 10
41.9379
 20
42.7763
 30
0.0
 11
41.8772
 21
42.8952
 31
0.0
  0
LINE
  5
44C
  8
0
 62
1
 10
41.8772
 20
42.8952
 30
0.0
 11
41.8242
 21
43.0177
 31
0.0
  0
LINE
  5
44D
  8
0
 62
1
 10
41.8242
 20
43.0177
 30
0.0
 11
41.779
 21
43.1433
 31
0.0
  0
LINE
  5
44E
  8
0
 62
1
 10
41.779
 20
43.1433
 30
0.0
 11
41.7418
 21
43.2715
 31
0.0
  0
LINE
  5
44F
  8
0
 62
1
 10
41.7418
 20
43.2715
 30
0.0
 11
41.7126
 21
43.4018
 31
0.0
  0
LINE
  5
450
  8
0
 62
1
 10
41.7126
 20
43.4018
 30
0.0
 11
41.6918
 21
43.5337
 31
0.0
  0
LINE
  5
451
  8
0
 62
1
 10
41.6918
 20
43.5337
 30
0.0
 11
41.6792
 21
43.6666
 31
0.0
  0
LINE
  5
452
  8
0
 62
1
 10
41.6792
 20
43.6666
 30
0.0
 11
41.675
 21
43.8
 31
0.0
  0
LINE
  5
453
  8
0
 62
1
 10
41.675
 20
43.8
 30
0.0
 11
41.6792
 21
43.9334
 31
0.0
  0
LINE
  5
454
  8
0
 62
1
 10
41.6792
 20
43.9334
 30
0.0
 11
41.6918
 21
44.0663
 31
0.0
  0
LINE
  5
455
  8
0
 62
1
 10
41.6918
 20
44.0663
 30
0.0
 11
41.7126
 21
44.1982
 31
0.0
  0
LINE
  5
456
  8
0
 62
1
 10
41.7126
 20
44.1982
 30
0.0
 11
41.7418
 21
44.3285
 31
0.0
  0
LINE
  5
457
  8
0
 62
1
 10
41.7418
 20
44.3285
 30
0.0
 11
41.779
 21
44.4567
 31
0.0
  0
LINE
  5
458
  8
0
 62
1
 10
41.779
 20
44.4567
 30
0.0
 11
41.8242
 21
44.5823
 31
0.0
  0
LINE
  5
459
  8
0
 62
1
 10
41.8242
 20
44.5823
 30
0.0
 11
41.8772
 21
44.7048
 31
0.0
  0
LINE
  5
45A
  8
0
 62
1
 10
41.8772
 20
44.7048
 30
0.0
 11
41.9379
 21
44.8237
 31
0.0
  0
LINE
  5
45B
  8
0
 62
1
 10
41.9379
 20
44.8237
 30
0.0
 11
42.0058
 21
44.9386
 31
0.0
  0
LINE
  5
45C
  8
0
 62
1
 10
42.0058
 20
44.9386
 30
0.0
 11
42.0808
 21
45.0491
 31
0.0
  0
LINE
  5
45D
  8
0
 62
1
 10
42.0808
 20
45.0491
 30
0.0
 11
42.1627
 21
45.1545
 31
0.0
  0
LINE
  5
45E
  8
0
 62
1
 10
42.1627
 20
45.1545
 30
0.0
 11
42.2509
 21
45.2547
 31
0.0
  0
LINE
  5
45F
  8
0
 62
1
 10
42.2509
 20
45.2547
 30
0.0
 11
42.3454
 21
45.3491
 31
0.0
  0
LINE
  5
460
  8
0
 62
1
 10
42.3454
 20
45.3491
 30
0.0
 11
42.4455
 21
45.4373
 31
0.0
  0
LINE
  5
461
  8
0
 62
1
 10
42.4455
 20
45.4373
 30
0.0
 11
42.551
 21
45.5192
 31
0.0
  0
LINE
  5
462
  8
0
 62
1
 10
42.551
 20
45.5192
 30
0.0
 11
42.6614
 21
45.5942
 31
0.0
  0
LINE
  5
463
  8
0
 62
1
 10
42.6614
 20
45.5942
 30
0.0
 11
42.7763
 21
45.6622
 31
0.0
  0
LINE
  5
464
  8
0
 62
1
 10
42.7763
 20
45.6622
 30
0.0
 11
42.8952
 21
45.7228
 31
0.0
  0
LINE
  5
465
  8
0
 62
1
 10
42.8952
 20
45.7228
 30
0.0
 11
43.0177
 21
45.7758
 31
0.0
  0
LINE
  5
466
  8
0
 62
1
 10
43.0177
 20
45.7758
 30
0.0
 11
43.1433
 21
45.821
 31
0.0
  0
LINE
  5
467
  8
0
 62
1
 10
43.1433
 20
45.821
 30
0.0
 11
43.2715
 21
45.8582
 31
0.0
  0
LINE
  5
468
  8
0
 62
1
 10
43.2715
 20
45.8582
 30
0.0
 11
43.4018
 21
45.8874
 31
0.0
  0
LINE
  5
469
  8
0
 62
1
 10
43.4018
 20
45.8874
 30
0.0
 11
43.5337
 21
45.9082
 31
0.0
  0
LINE
  5
46A
  8
0
 62
1
 10
43.5337
 20
45.9082
 30
0.0
 11
43.6666
 21
45.9208
 31
0.0
  0
LINE
  5
46B
  8
0
 62
1
 10
43.6666
 20
45.9208
 30
0.0
 11
43.8
 21
45.925
 31
0.0
  0
LINE
  5
46C
  8
0
 62
1
 10
43.8
 20
45.925
 30
0.0
 11
43.9334
 21
45.9208
 31
0.0
  0
LINE
  5
46D
  8
0
 62
1
 10
43.9334
 20
45.9208
 30
0.0
 11
44.0663
 21
45.9082
 31
0.0
  0
LINE
  5
46E
  8
0
 62
1
 10
44.0663
 20
45.9082
 30
0.0
 11
44.1982
 21
45.8874
 31
0.0
  0
LINE
  5
46F
  8
0
 62
1
 10
44.1982
 20
45.8874
 30
0.0
 11
44.3285
 21
45.8582
 31
0.0
  0
LINE
  5
470
  8
0
 62
1
 10
44.3285
 20
45.8582
 30
0.0
 11
44.4567
 21
45.821
 31
0.0
  0
LINE
  5
471
  8
0
 62
1
 10
44.4567
 20
45.821
 30
0.0
 11
44.5823
 21
45.7758
 31
0.0
  0
LINE
  5
472
  8
0
 62
1
 10
44.5823
 20
45.7758
 30
0.0
 11
44.7048
 21
45.7228
 31
0.0
  0
LINE
  5
473
  8
0
 62
1
 10
44.7048
 20
45.7228
 30
0.0
 11
44.8237
 21
45.6622
 31
0.0
  0
LINE
  5
474
  8
0
 62
1
 10
44.8237
 20
45.6622
 30
0.0
 11
44.9386
 21
45.5942
 31
0.0
  0
LINE
  5
475
  8
0
 62
1
 10
44.9386
 20
45.5942
 30
0.0
 11
45.0491
 21
45.5192
 31
0.0
  0
LINE
  5
476
  8
0
 62
1
 10
45.0491
 20
45.5192
 30
0.0
 11
45.1545
 21
45.4373
 31
0.0
  0
LINE
  5
477
  8
0
 62
1
 10
45.1545
 20
45.4373
 30
0.0
 11
45.2547
 21
45.3491
 31
0.0
  0
LINE
  5
478
  8
0
 62
1
 10
45.2547
 20
45.3491
 30
0.0
 11
45.3491
 21
45.2547
 31
0.0
  0
LINE
  5
479
  8
0
 62
1
 10
45.3491
 20
45.2547
 30
0.0
 11
45.4373
 21
45.1545
 31
0.0
  0
LINE
  5
47A
  8
0
 62
1
 10
45.4373
 20
45.1545
 30
0.0
 11
45.5192
 21
45.0491
 31
0.0
  0
LINE
  5
47B
  8
0
 62
1
 10
45.5192
 20
45.0491
 30
0.0
 11
45.5942
 21
44.9386
 31
0.0
  0
LINE
  5
47C
  8
0
 62
1
 10
45.5942
 20
44.9386
 30
0.0
 11
45.6622
 21
44.8237
 31
0.0
  0
LINE
  5
47D
  8
0
 62
1
 10
45.6622
 20
44.8237
 30
0.0
 11
45.7228
 21
44.7048
 31
0.0
  0
LINE
  5
47E
  8
0
 62
1
 10
45.7228
 20
44.7048
 30
0.0
 11
45.7758
 21
44.5823
 31
0.0
  0
LINE
  5
47F
  8
0
 62
1
 10
45.7758
 20
44.5823
 30
0.0
 11
45.821
 21
44.4567
 31
0.0
  0
LINE
  5
480
  8
0
 62
1
 10
45.821
 20
44.4567
 30
0.0
 11
45.8582
 21
44.3285
 31
0.0
  0
LINE
  5
481
  8
0
 62
1
 10
45.8582
 20
44.3285
 30
0.0
 11
45.8874
 21
44.1982
 31
0.0
  0
LINE
  5
482
  8
0
 62
1
 10
45.8874
 20
44.1982
 30
0.0
 11
45.9082
 21
44.0663
 31
0.0
  0
LINE
  5
483
  8
0
 62
1
 10
45.9082
 20
44.0663
 30
0.0
 11
45.9208
 21
43.9334
 31
0.0
  0
LINE
  5
484
  8
0
 62
1
 10
45.9208
 20
43.9334
 30
0.0
 11
45.925
 21
43.8
 31
0.0
  0
LINE
  5
485
  8
0
 62
1
 10
45.925
 20
43.8
 30
0.0
 11
45.9208
 21
43.6666
 31
0.0
  0
LINE
  5
486
  8
0
 62
1
 10
45.9208
 20
43.6666
 30
0.0
 11
45.9082
 21
43.5337
 31
0.0
  0
LINE
  5
487
  8
0
 62
1
 10
45.9082
 20
43.5337
 30
0.0
 11
45.8874
 21
43.4018
 31
0.0
  0
LINE
  5
488
  8
0
 62
1
 10
45.8874
 20
43.4018
 30
0.0
 11
45.8582
 21
43.2715
 31
0.0
  0
LINE
  5
489
  8
0
 62
1
 10
45.8582
 20
43.2715
 30
0.0
 11
45.821
 21
43.1433
 31
0.0
  0
LINE
  5
48A
  8
0
 62
1
 10
45.821
 20
43.1433
 30
0.0
 11
45.7758
 21
43.0177
 31
0.0
  0
LINE
  5
48B
  8
0
 62
1
 10
45.7758
 20
43.0177
 30
0.0
 11
45.7228
 21
42.8952
 31
0.0
  0
LINE
  5
48C
  8
0
 62
1
 10
45.7228
 20
42.8952
 30
0.0
 11
45.6622
 21
42.7763
 31
0.0
  0
LINE
  5
48D
  8
0
 62
1
 10
45.6622
 20
42.7763
 30
0.0
 11
45.5942
 21
42.6614
 31
0.0
  0
LINE
  5
48E
  8
0
 62
1
 10
45.5942
 20
42.6614
 30
0.0
 11
45.5192
 21
42.551
 31
0.0
  0
LINE
  5
48F
  8
0
 62
1
 10
45.5192
 20
42.551
 30
0.0
 11
45.4373
 21
42.4455
 31
0.0
  0
LINE
  5
490
  8
0
 62
1
 10
45.4373
 20
42.4455
 30
0.0
 11
45.3491
 21
42.3454
 31
0.0
  0
LINE
  5
491
  8
0
 62
1
 10
45.3491
 20
42.3454
 30
0.0
 11
45.2547
 21
42.2509
 31
0.0
  0
LINE
  5
492
  8
0
 62
1
 10
45.2547
 20
42.2509
 30
0.0
 11
45.1545
 21
42.1627
 31
0.0
  0
LINE
  5
493
  8
0
 62
1
 10
45.1545
 20
42.1627
 30
0.0
 11
45.0491
 21
42.0808
 31
0.0
  0
LINE
  5
494
  8
0
 62
1
 10
45.0491
 20
42.0808
 30
0.0
 11
44.9386
 21
42.0058
 31
0.0
  0
LINE
  5
495
  8
0
 62
1
 10
44.9386
 20
42.0058
 30
0.0
 11
44.8237
 21
41.9379
 31
0.0
  0
LINE
  5
496
  8
0
 62
1
 10
44.8237
 20
41.9379
 30
0.0
 11
44.7048
 21
41.8772
 31
0.0
  0
LINE
  5
497
  8
0
 62
1
 10
44.7048
 20
41.8772
 30
0.0
 11
44.5823
 21
41.8242
 31
0.0
  0
LINE
  5
498
  8
0
 62
1
 10
44.5823
 20
41.8242
 30
0.0
 11
44.4567
 21
41.779
 31
0.0
  0
LINE
  5
499
  8
0
 62
1
 10
44.4567
 20
41.779
 30
0.0
 11
44.3285
 21
41.7418
 31
0.0
  0
LINE
  5
49A
  8
0
 62
1
 10
44.3285
 20
41.7418
 30
0.0
 11
44.1982
 21
41.7126
 31
0.0
  0
LINE
  5
49B
  8
0
 62
1
 10
44.1982
 20
41.7126
 30
0.0
 11
44.0663
 21
41.6918
 31
0.0
  0
LINE
  5
49C
  8
0
 62
1
 10
44.0663
 20
41.6918
 30
0.0
 11
43.9334
 21
41.6792
 31
0.0
  0
LINE
  5
49D
  8
0
 62
1
 10
43.9334
 20
41.6792
 30
0.0
 11
43.8
 21
41.675
 31
0.0
  0
LINE
  5
49E
  8
0
 62
1
 10
43.8
 20
41.675
 30
0.0
 11
43.6666
 21
41.6792
 31
0.0
  0
LINE
  5
49F
  8
0
 62
1
 10
26.5
 20
49.0
 30
0.0
 11
26.5
 21
26.5
 31
0.0
  0
LINE
  5
4A0
  8
0
 62
1
 10
26.5
 20
26.5
 30
0.0
 11
49.0
 21
26.5
 31
0.0
  0
LINE
  5
4A1
  8
0
 62
1
 10
49.0
 20
26.5
 30
0.0
 11
26.5
 21
49.0
 31
0.0
  0
LINE
  5
4A2
  8
0
 62
1
 10
33.5666
 20
31.5792
 30
0.0
 11
33.4337
 21
31.5918
 31
0.0
  0
LINE
  5
4A3
  8
0
 62
1
 10
33.4337
 20
31.5918
 30
0.0
 11
33.3018
 21
31.6126
 31
0.0
  0
LINE
  5
4A4
  8
0
 62
1
 10
33.3018
 20
31.6126
 30
0.0
 11
33.1715
 21
31.6418
 31
0.0
  0
LINE
  5
4A5
  8
0
 62
1
 10
33.1715
 20
31.6418
 30
0.0
 11
33.0433
 21
31.679
 31
0.0
  0
LINE
  5
4A6
  8
0
 62
1
 10
33.0433
 20
31.679
 30
0.0
 11
32.9177
 21
31.7242
 31
0.0
  0
LINE
  5
4A7
  8
0
 62
1
 10
32.9177
 20
31.7242
 30
0.0
 11
32.7952
 21
31.7772
 31
0.0
  0
LINE
  5
4A8
  8
0
 62
1
 10
32.7952
 20
31.7772
 30
0.0
 11
32.6763
 21
31.8378
 31
0.0
  0
LINE
  5
4A9
  8
0
 62
1
 10
32.6763
 20
31.8378
 30
0.0
 11
32.5614
 21
31.9058
 31
0.0
  0
LINE
  5
4AA
  8
0
 62
1
 10
32.5614
 20
31.9058
 30
0.0
 11
32.4509
 21
31.9808
 31
0.0
  0
LINE
  5
4AB
  8
0
 62
1
 10
32.4509
 20
31.9808
 30
0.0
 11
32.3455
 21
32.0627
 31
0.0
  0
LINE
  5
4AC
  8
0
 62
1
 10
32.3455
 20
32.0627
 30
0.0
 11
32.2453
 21
32.1509
 31
0.0
  0
LINE
  5
4AD
  8
0
 62
1
 10
32.2453
 20
32.1509
 30
0.0
 11
32.1509
 21
32.2453
 31
0.0
  0
LINE
  5
4AE
  8
0
 62
1
 10
32.1509
 20
32.2453
 30
0.0
 11
32.0627
 21
32.3455
 31
0.0
  0
LINE
  5
4AF
  8
0
 62
1
 10
32.0627
 20
32.3455
 30
0.0
 11
31.9808
 21
32.4509
 31
0.0
  0
LINE
  5
4B0
  8
0
 62
1
 10
31.9808
 20
32.4509
 30
0.0
 11
31.9058
 21
32.5614
 31
0.0
  0
LINE
  5
4B1
  8
0
 62
1
 10
31.9058
 20
32.5614
 30
0.0
 11
31.8378
 21
32.6763
 31
0.0
  0
LINE
  5
4B2
  8
0
 62
1
 10
31.8378
 20
32.6763
 30
0.0
 11
31.7772
 21
32.7952
 31
0.0
  0
LINE
  5
4B3
  8
0
 62
1
 10
31.7772
 20
32.7952
 30
0.0
 11
31.7242
 21
32.9177
 31
0.0
  0
LINE
  5
4B4
  8
0
 62
1
 10
31.7242
 20
32.9177
 30
0.0
 11
31.679
 21
33.0433
 31
0.0
  0
LINE
  5
4B5
  8
0
 62
1
 10
31.679
 20
33.0433
 30
0.0
 11
31.6418
 21
33.1715
 31
0.0
  0
LINE
  5
4B6
  8
0
 62
1
 10
31.6418
 20
33.1715
 30
0.0
 11
31.6126
 21
33.3018
 31
0.0
  0
LINE
  5
4B7
  8
0
 62
1
 10
31.6126
 20
33.3018
 30
0.0
 11
31.5918
 21
33.4337
 31
0.0
  0
LINE
  5
4B8
  8
0
 62
1
 10
31.5918
 20
33.4337
 30
0.0
 11
31.5792
 21
33.5666
 31
0.0
  0
LINE
  5
4B9
  8
0
 62
1
 10
31.5792
 20
33.5666
 30
0.0
 11
31.575
 21
33.7
 31
0.0
  0
LINE
  5
4BA
  8
0
 62
1
 10
31.575
 20
33.7
 30
0.0
 11
31.5792
 21
33.8334
 31
0.0
  0
LINE
  5
4BB
  8
0
 62
1
 10
31.5792
 20
33.8334
 30
0.0
 11
31.5918
 21
33.9663
 31
0.0
  0
LINE
  5
4BC
  8
0
 62
1
 10
31.5918
 20
33.9663
 30
0.0
 11
31.6126
 21
34.0982
 31
0.0
  0
LINE
  5
4BD
  8
0
 62
1
 10
31.6126
 20
34.0982
 30
0.0
 11
31.6418
 21
34.2285
 31
0.0
  0
LINE
  5
4BE
  8
0
 62
1
 10
31.6418
 20
34.2285
 30
0.0
 11
31.679
 21
34.3567
 31
0.0
  0
LINE
  5
4BF
  8
0
 62
1
 10
31.679
 20
34.3567
 30
0.0
 11
31.7242
 21
34.4823
 31
0.0
  0
LINE
  5
4C0
  8
0
 62
1
 10
31.7242
 20
34.4823
 30
0.0
 11
31.7772
 21
34.6048
 31
0.0
  0
LINE
  5
4C1
  8
0
 62
1
 10
31.7772
 20
34.6048
 30
0.0
 11
31.8378
 21
34.7237
 31
0.0
  0
LINE
  5
4C2
  8
0
 62
1
 10
31.8378
 20
34.7237
 30
0.0
 11
31.9058
 21
34.8386
 31
0.0
  0
LINE
  5
4C3
  8
0
 62
1
 10
31.9058
 20
34.8386
 30
0.0
 11
31.9808
 21
34.949
 31
0.0
  0
LINE
  5
4C4
  8
0
 62
1
 10
31.9808
 20
34.949
 30
0.0
 11
32.0627
 21
35.0545
 31
0.0
  0
LINE
  5
4C5
  8
0
 62
1
 10
32.0627
 20
35.0545
 30
0.0
 11
32.1509
 21
35.1546
 31
0.0
  0
LINE
  5
4C6
  8
0
 62
1
 10
32.1509
 20
35.1546
 30
0.0
 11
32.2453
 21
35.2491
 31
0.0
  0
LINE
  5
4C7
  8
0
 62
1
 10
32.2453
 20
35.2491
 30
0.0
 11
32.3455
 21
35.3373
 31
0.0
  0
LINE
  5
4C8
  8
0
 62
1
 10
32.3455
 20
35.3373
 30
0.0
 11
32.4509
 21
35.4192
 31
0.0
  0
LINE
  5
4C9
  8
0
 62
1
 10
32.4509
 20
35.4192
 30
0.0
 11
32.5614
 21
35.4942
 31
0.0
  0
LINE
  5
4CA
  8
0
 62
1
 10
32.5614
 20
35.4942
 30
0.0
 11
32.6763
 21
35.5621
 31
0.0
  0
LINE
  5
4CB
  8
0
 62
1
 10
32.6763
 20
35.5621
 30
0.0
 11
32.7952
 21
35.6228
 31
0.0
  0
LINE
  5
4CC
  8
0
 62
1
 10
32.7952
 20
35.6228
 30
0.0
 11
32.9177
 21
35.6758
 31
0.0
  0
LINE
  5
4CD
  8
0
 62
1
 10
32.9177
 20
35.6758
 30
0.0
 11
33.0433
 21
35.721
 31
0.0
  0
LINE
  5
4CE
  8
0
 62
1
 10
33.0433
 20
35.721
 30
0.0
 11
33.1715
 21
35.7582
 31
0.0
  0
LINE
  5
4CF
  8
0
 62
1
 10
33.1715
 20
35.7582
 30
0.0
 11
33.3018
 21
35.7874
 31
0.0
  0
LINE
  5
4D0
  8
0
 62
1
 10
33.3018
 20
35.7874
 30
0.0
 11
33.4337
 21
35.8082
 31
0.0
  0
LINE
  5
4D1
  8
0
 62
1
 10
33.4337
 20
35.8082
 30
0.0
 11
33.5666
 21
35.8208
 31
0.0
  0
LINE
  5
4D2
  8
0
 62
1
 10
33.5666
 20
35.8208
 30
0.0
 11
33.7
 21
35.825
 31
0.0
  0
LINE
  5
4D3
  8
0
 62
1
 10
33.7
 20
35.825
 30
0.0
 11
33.8334
 21
35.8208
 31
0.0
  0
LINE
  5
4D4
  8
0
 62
1
 10
33.8334
 20
35.8208
 30
0.0
 11
33.9663
 21
35.8082
 31
0.0
  0
LINE
  5
4D5
  8
0
 62
1
 10
33.9663
 20
35.8082
 30
0.0
 11
34.0982
 21
35.7874
 31
0.0
  0
LINE
  5
4D6
  8
0
 62
1
 10
34.0982
 20
35.7874
 30
0.0
 11
34.2285
 21
35.7582
 31
0.0
  0
LINE
  5
4D7
  8
0
 62
1
 10
34.2285
 20
35.7582
 30
0.0
 11
34.3567
 21
35.721
 31
0.0
  0
LINE
  5
4D8
  8
0
 62
1
 10
34.3567
 20
35.721
 30
0.0
 11
34.4823
 21
35.6758
 31
0.0
  0
LINE
  5
4D9
  8
0
 62
1
 10
34.4823
 20
35.6758
 30
0.0
 11
34.6048
 21
35.6228
 31
0.0
  0
LINE
  5
4DA
  8
0
 62
1
 10
34.6048
 20
35.6228
 30
0.0
 11
34.7237
 21
35.5621
 31
0.0
  0
LINE
  5
4DB
  8
0
 62
1
 10
34.7237
 20
35.5621
 30
0.0
 11
34.8386
 21
35.4942
 31
0.0
  0
LINE
  5
4DC
  8
0
 62
1
 10
34.8386
 20
35.4942
 30
0.0
 11
34.949
 21
35.4192
 31
0.0
  0
LINE
  5
4DD
  8
0
 62
1
 10
34.949
 20
35.4192
 30
0.0
 11
35.0545
 21
35.3373
 31
0.0
  0
LINE
  5
4DE
  8
0
 62
1
 10
35.0545
 20
35.3373
 30
0.0
 11
35.1546
 21
35.2491
 31
0.0
  0
LINE
  5
4DF
  8
0
 62
1
 10
35.1546
 20
35.2491
 30
0.0
 11
35.2491
 21
35.1546
 31
0.0
  0
LINE
  5
4E0
  8
0
 62
1
 10
35.2491
 20
35.1546
 30
0.0
 11
35.3373
 21
35.0545
 31
0.0
  0
LINE
  5
4E1
  8
0
 62
1
 10
35.3373
 20
35.0545
 30
0.0
 11
35.4192
 21
34.949
 31
0.0
  0
LINE
  5
4E2
  8
0
 62
1
 10
35.4192
 20
34.949
 30
0.0
 11
35.4942
 21
34.8386
 31
0.0
  0
LINE
  5
4E3
  8
0
 62
1
 10
35.4942
 20
34.8386
 30
0.0
 11
35.5621
 21
34.7237
 31
0.0
  0
LINE
  5
4E4
  8
0
 62
1
 10
35.5621
 20
34.7237
 30
0.0
 11
35.6228
 21
34.6048
 31
0.0
  0
LINE
  5
4E5
  8
0
 62
1
 10
35.6228
 20
34.6048
 30
0.0
 11
35.6758
 21
34.4823
 31
0.0
  0
LINE
  5
4E6
  8
0
 62
1
 10
35.6758
 20
34.4823
 30
0.0
 11
35.721
 21
34.3567
 31
0.0
  0
LINE
  5
4E7
  8
0
 62
1
 10
35.721
 20
34.3567
 30
0.0
 11
35.7582
 21
34.2285
 31
0.0
  0
LINE
  5
4E8
  8
0
 62
1
 10
35.7582
 20
34.2285
 30
0.0
 11
35.7874
 21
34.0982
 31
0.0
  0
LINE
  5
4E9
  8
0
 62
1
 10
35.7874
 20
34.0982
 30
0.0
 11
35.8082
 21
33.9663
 31
0.0
  0
LINE
  5
4EA
  8
0
 62
1
 10
35.8082
 20
33.9663
 30
0.0
 11
35.8208
 21
33.8334
 31
0.0
  0
LINE
  5
4EB
  8
0
 62
1
 10
35.8208
 20
33.8334
 30
0.0
 11
35.825
 21
33.7
 31
0.0
  0
LINE
  5
4EC
  8
0
 62
1
 10
35.825
 20
33.7
 30
0.0
 11
35.8208
 21
33.5666
 31
0.0
  0
LINE
  5
4ED
  8
0
 62
1
 10
35.8208
 20
33.5666
 30
0.0
 11
35.8082
 21
33.4337
 31
0.0
  0
LINE
  5
4EE
  8
0
 62
1
 10
35.8082
 20
33.4337
 30
0.0
 11
35.7874
 21
33.3018
 31
0.0
  0
LINE
  5
4EF
  8
0
 62
1
 10
35.7874
 20
33.3018
 30
0.0
 11
35.7582
 21
33.1715
 31
0.0
  0
LINE
  5
4F0
  8
0
 62
1
 10
35.7582
 20
33.1715
 30
0.0
 11
35.721
 21
33.0433
 31
0.0
  0
LINE
  5
4F1
  8
0
 62
1
 10
35.721
 20
33.0433
 30
0.0
 11
35.6758
 21
32.9177
 31
0.0
  0
LINE
  5
4F2
  8
0
 62
1
 10
35.6758
 20
32.9177
 30
0.0
 11
35.6228
 21
32.7952
 31
0.0
  0
LINE
  5
4F3
  8
0
 62
1
 10
35.6228
 20
32.7952
 30
0.0
 11
35.5621
 21
32.6763
 31
0.0
  0
LINE
  5
4F4
  8
0
 62
1
 10
35.5621
 20
32.6763
 30
0.0
 11
35.4942
 21
32.5614
 31
0.0
  0
LINE
  5
4F5
  8
0
 62
1
 10
35.4942
 20
32.5614
 30
0.0
 11
35.4192
 21
32.4509
 31
0.0
  0
LINE
  5
4F6
  8
0
 62
1
 10
35.4192
 20
32.4509
 30
0.0
 11
35.3373
 21
32.3455
 31
0.0
  0
LINE
  5
4F7
  8
0
 62
1
 10
35.3373
 20
32.3455
 30
0.0
 11
35.2491
 21
32.2453
 31
0.0
  0
LINE
  5
4F8
  8
0
 62
1
 10
35.2491
 20
32.2453
 30
0.0
 11
35.1546
 21
32.1509
 31
0.0
  0
LINE
  5
4F9
  8
0
 62
1
 10
35.1546
 20
32.1509
 30
0.0
 11
35.0545
 21
32.0627
 31
0.0
  0
LINE
  5
4FA
  8
0
 62
1
 10
35.0545
 20
32.0627
 30
0.0
 11
34.949
 21
31.9808
 31
0.0
  0
LINE
  5
4FB
  8
0
 62
1
 10
34.949
 20
31.9808
 30
0.0
 11
34.8386
 21
31.9058
 31
0.0
  0
LINE
  5
4FC
  8
0
 62
1
 10
34.8386
 20
31.9058
 30
0.0
 11
34.7237
 21
31.8378
 31
0.0
  0
LINE
  5
4FD
  8
0
 62
1
 10
34.7237
 20
31.8378
 30
0.0
 11
34.6048
 21
31.7772
 31
0.0
  0
LINE
  5
4FE
  8
0
 62
1
 10
34.6048
 20
31.7772
 30
0.0
 11
34.4823
 21
31.7242
 31
0.0
  0
LINE
  5
4FF
  8
0
 62
1
 10
34.4823
 20
31.7242
 30
0.0
 11
34.3567
 21
31.679
 31
0.0
  0
LINE
  5
500
  8
0
 62
1
 10
34.3567
 20
31.679
 30
0.0
 11
34.2285
 21
31.6418
 31
0.0
  0
LINE
  5
501
  8
0
 62
1
 10
34.2285
 20
31.6418
 30
0.0
 11
34.0982
 21
31.6126
 31
0.0
  0
LINE
  5
502
  8
0
 62
1
 10
34.0982
 20
31.6126
 30
0.0
 11
33.9663
 21
31.5918
 31
0.0
  0
LINE
  5
503
  8
0
 62
1
 10
33.9663
 20
31.5918
 30
0.0
 11
33.8334
 21
31.5792
 31
0.0
  0
LINE
  5
504
  8
0
 62
1
 10
33.8334
 20
31.5792
 30
0.0
 11
33.7
 21
31.575
 31
0.0
  0
LINE
  5
505
  8
0
 62
1
 10
33.7
 20
31.575
 30
0.0
 11
33.5666
 21
31.5792
 31
0.0
  0
LINE
  5
506
  8
0
 62
1
 10
53.0
 20
49.0
 30
0.0
 11
53.0
 21
26.5
 31
0.0
  0
LINE
  5
507
  8
0
 62
1
 10
53.0
 20
26.5
 30
0.0
 11
75.5
 21
26.5
 31
0.0
  0
LINE
  5
508
  8
0
 62
1
 10
75.5
 20
26.5
 30
0.0
 11
53.0
 21
49.0
 31
0.0
  0
LINE
  5
509
  8
0
 62
1
 10
60.0666
 20
31.5792
 30
0.0
 11
59.9337
 21
31.5918
 31
0.0
  0
LINE
  5
50A
  8
0
 62
1
 10
59.9337
 20
31.5918
 30
0.0
 11
59.8018
 21
31.6126
 31
0.0
  0
LINE
  5
50B
  8
0
 62
1
 10
59.8018
 20
31.6126
 30
0.0
 11
59.6715
 21
31.6418
 31
0.0
  0
LINE
  5
50C
  8
0
 62
1
 10
59.6715
 20
31.6418
 30
0.0
 11
59.5433
 21
31.679
 31
0.0
  0
LINE
  5
50D
  8
0
 62
1
 10
59.5433
 20
31.679
 30
0.0
 11
59.4177
 21
31.7242
 31
0.0
  0
LINE
  5
50E
  8
0
 62
1
 10
59.4177
 20
31.7242
 30
0.0
 11
59.2952
 21
31.7772
 31
0.0
  0
LINE
  5
50F
  8
0
 62
1
 10
59.2952
 20
31.7772
 30
0.0
 11
59.1763
 21
31.8378
 31
0.0
  0
LINE
  5
510
  8
0
 62
1
 10
59.1763
 20
31.8378
 30
0.0
 11
59.0614
 21
31.9058
 31
0.0
  0
LINE
  5
511
  8
0
 62
1
 10
59.0614
 20
31.9058
 30
0.0
 11
58.9509
 21
31.9808
 31
0.0
  0
LINE
  5
512
  8
0
 62
1
 10
58.9509
 20
31.9808
 30
0.0
 11
58.8455
 21
32.0627
 31
0.0
  0
LINE
  5
513
  8
0
 62
1
 10
58.8455
 20
32.0627
 30
0.0
 11
58.7453
 21
32.1509
 31
0.0
  0
LINE
  5
514
  8
0
 62
1
 10
58.7453
 20
32.1509
 30
0.0
 11
58.6509
 21
32.2453
 31
0.0
  0
LINE
  5
515
  8
0
 62
1
 10
58.6509
 20
32.2453
 30
0.0
 11
58.5627
 21
32.3455
 31
0.0
  0
LINE
  5
516
  8
0
 62
1
 10
58.5627
 20
32.3455
 30
0.0
 11
58.4808
 21
32.4509
 31
0.0
  0
LINE
  5
517
  8
0
 62
1
 10
58.4808
 20
32.4509
 30
0.0
 11
58.4058
 21
32.5614
 31
0.0
  0
LINE
  5
518
  8
0
 62
1
 10
58.4058
 20
32.5614
 30
0.0
 11
58.3378
 21
32.6763
 31
0.0
  0
LINE
  5
519
  8
0
 62
1
 10
58.3378
 20
32.6763
 30
0.0
 11
58.2772
 21
32.7952
 31
0.0
  0
LINE
  5
51A
  8
0
 62
1
 10
58.2772
 20
32.7952
 30
0.0
 11
58.2242
 21
32.9177
 31
0.0
  0
LINE
  5
51B
  8
0
 62
1
 10
58.2242
 20
32.9177
 30
0.0
 11
58.179
 21
33.0433
 31
0.0
  0
LINE
  5
51C
  8
0
 62
1
 10
58.179
 20
33.0433
 30
0.0
 11
58.1418
 21
33.1715
 31
0.0
  0
LINE
  5
51D
  8
0
 62
1
 10
58.1418
 20
33.1715
 30
0.0
 11
58.1126
 21
33.3018
 31
0.0
  0
LINE
  5
51E
  8
0
 62
1
 10
58.1126
 20
33.3018
 30
0.0
 11
58.0918
 21
33.4337
 31
0.0
  0
LINE
  5
51F
  8
0
 62
1
 10
58.0918
 20
33.4337
 30
0.0
 11
58.0792
 21
33.5666
 31
0.0
  0
LINE
  5
520
  8
0
 62
1
 10
58.0792
 20
33.5666
 30
0.0
 11
58.075
 21
33.7
 31
0.0
  0
LINE
  5
521
  8
0
 62
1
 10
58.075
 20
33.7
 30
0.0
 11
58.0792
 21
33.8334
 31
0.0
  0
LINE
  5
522
  8
0
 62
1
 10
58.0792
 20
33.8334
 30
0.0
 11
58.0918
 21
33.9663
 31
0.0
  0
LINE
  5
523
  8
0
 62
1
 10
58.0918
 20
33.9663
 30
0.0
 11
58.1126
 21
34.0982
 31
0.0
  0
LINE
  5
524
  8
0
 62
1
 10
58.1126
 20
34.0982
 30
0.0
 11
58.1418
 21
34.2285
 31
0.0
  0
LINE
  5
525
  8
0
 62
1
 10
58.1418
 20
34.2285
 30
0.0
 11
58.179
 21
34.3567
 31
0.0
  0
LINE
  5
526
  8
0
 62
1
 10
58.179
 20
34.3567
 30
0.0
 11
58.2242
 21
34.4823
 31
0.0
  0
LINE
  5
527
  8
0
 62
1
 10
58.2242
 20
34.4823
 30
0.0
 11
58.2772
 21
34.6048
 31
0.0
  0
LINE
  5
528
  8
0
 62
1
 10
58.2772
 20
34.6048
 30
0.0
 11
58.3378
 21
34.7237
 31
0.0
  0
LINE
  5
529
  8
0
 62
1
 10
58.3378
 20
34.7237
 30
0.0
 11
58.4058
 21
34.8386
 31
0.0
  0
LINE
  5
52A
  8
0
 62
1
 10
58.4058
 20
34.8386
 30
0.0
 11
58.4808
 21
34.949
 31
0.0
  0
LINE
  5
52B
  8
0
 62
1
 10
58.4808
 20
34.949
 30
0.0
 11
58.5627
 21
35.0545
 31
0.0
  0
LINE
  5
52C
  8
0
 62
1
 10
58.5627
 20
35.0545
 30
0.0
 11
58.6509
 21
35.1546
 31
0.0
  0
LINE
  5
52D
  8
0
 62
1
 10
58.6509
 20
35.1546
 30
0.0
 11
58.7453
 21
35.2491
 31
0.0
  0
LINE
  5
52E
  8
0
 62
1
 10
58.7453
 20
35.2491
 30
0.0
 11
58.8455
 21
35.3373
 31
0.0
  0
LINE
  5
52F
  8
0
 62
1
 10
58.8455
 20
35.3373
 30
0.0
 11
58.9509
 21
35.4192
 31
0.0
  0
LINE
  5
530
  8
0
 62
1
 10
58.9509
 20
35.4192
 30
0.0
 11
59.0614
 21
35.4942
 31
0.0
  0
LINE
  5
531
  8
0
 62
1
 10
59.0614
 20
35.4942
 30
0.0
 11
59.1763
 21
35.5621
 31
0.0
  0
LINE
  5
532
  8
0
 62
1
 10
59.1763
 20
35.5621
 30
0.0
 11
59.2952
 21
35.6228
 31
0.0
  0
LINE
  5
533
  8
0
 62
1
 10
59.2952
 20
35.6228
 30
0.0
 11
59.4177
 21
35.6758
 31
0.0
  0
LINE
  5
534
  8
0
 62
1
 10
59.4177
 20
35.6758
 30
0.0
 11
59.5433
 21
35.721
 31
0.0
  0
LINE
  5
535
  8
0
 62
1
 10
59.5433
 20
35.721
 30
0.0
 11
59.6715
 21
35.7582
 31
0.0
  0
LINE
  5
536
  8
0
 62
1
 10
59.6715
 20
35.7582
 30
0.0
 11
59.8018
 21
35.7874
 31
0.0
  0
LINE
  5
537
  8
0
 62
1
 10
59.8018
 20
35.7874
 30
0.0
 11
59.9337
 21
35.8082
 31
0.0
  0
LINE
  5
538
  8
0
 62
1
 10
59.9337
 20
35.8082
 30
0.0
 11
60.0666
 21
35.8208
 31
0.0
  0
LINE
  5
539
  8
0
 62
1
 10
60.0666
 20
35.8208
 30
0.0
 11
60.2
 21
35.825
 31
0.0
  0
LINE
  5
53A
  8
0
 62
1
 10
60.2
 20
35.825
 30
0.0
 11
60.3334
 21
35.8208
 31
0.0
  0
LINE
  5
53B
  8
0
 62
1
 10
60.3334
 20
35.8208
 30
0.0
 11
60.4663
 21
35.8082
 31
0.0
  0
LINE
  5
53C
  8
0
 62
1
 10
60.4663
 20
35.8082
 30
0.0
 11
60.5982
 21
35.7874
 31
0.0
  0
LINE
  5
53D
  8
0
 62
1
 10
60.5982
 20
35.7874
 30
0.0
 11
60.7285
 21
35.7582
 31
0.0
  0
LINE
  5
53E
  8
0
 62
1
 10
60.7285
 20
35.7582
 30
0.0
 11
60.8567
 21
35.721
 31
0.0
  0
LINE
  5
53F
  8
0
 62
1
 10
60.8567
 20
35.721
 30
0.0
 11
60.9823
 21
35.6758
 31
0.0
  0
LINE
  5
540
  8
0
 62
1
 10
60.9823
 20
35.6758
 30
0.0
 11
61.1048
 21
35.6228
 31
0.0
  0
LINE
  5
541
  8
0
 62
1
 10
61.1048
 20
35.6228
 30
0.0
 11
61.2237
 21
35.5621
 31
0.0
  0
LINE
  5
542
  8
0
 62
1
 10
61.2237
 20
35.5621
 30
0.0
 11
61.3386
 21
35.4942
 31
0.0
  0
LINE
  5
543
  8
0
 62
1
 10
61.3386
 20
35.4942
 30
0.0
 11
61.449
 21
35.4192
 31
0.0
  0
LINE
  5
544
  8
0
 62
1
 10
61.449
 20
35.4192
 30
0.0
 11
61.5545
 21
35.3373
 31
0.0
  0
LINE
  5
545
  8
0
 62
1
 10
61.5545
 20
35.3373
 30
0.0
 11
61.6546
 21
35.2491
 31
0.0
  0
LINE
  5
546
  8
0
 62
1
 10
61.6546
 20
35.2491
 30
0.0
 11
61.7491
 21
35.1546
 31
0.0
  0
LINE
  5
547
  8
0
 62
1
 10
61.7491
 20
35.1546
 30
0.0
 11
61.8373
 21
35.0545
 31
0.0
  0
LINE
  5
548
  8
0
 62
1
 10
61.8373
 20
35.0545
 30
0.0
 11
61.9192
 21
34.949
 31
0.0
  0
LINE
  5
549
  8
0
 62
1
 10
61.9192
 20
34.949
 30
0.0
 11
61.9942
 21
34.8386
 31
0.0
  0
LINE
  5
54A
  8
0
 62
1
 10
61.9942
 20
34.8386
 30
0.0
 11
62.0621
 21
34.7237
 31
0.0
  0
LINE
  5
54B
  8
0
 62
1
 10
62.0621
 20
34.7237
 30
0.0
 11
62.1228
 21
34.6048
 31
0.0
  0
LINE
  5
54C
  8
0
 62
1
 10
62.1228
 20
34.6048
 30
0.0
 11
62.1758
 21
34.4823
 31
0.0
  0
LINE
  5
54D
  8
0
 62
1
 10
62.1758
 20
34.4823
 30
0.0
 11
62.221
 21
34.3567
 31
0.0
  0
LINE
  5
54E
  8
0
 62
1
 10
62.221
 20
34.3567
 30
0.0
 11
62.2582
 21
34.2285
 31
0.0
  0
LINE
  5
54F
  8
0
 62
1
 10
62.2582
 20
34.2285
 30
0.0
 11
62.2874
 21
34.0982
 31
0.0
  0
LINE
  5
550
  8
0
 62
1
 10
62.2874
 20
34.0982
 30
0.0
 11
62.3082
 21
33.9663
 31
0.0
  0
LINE
  5
551
  8
0
 62
1
 10
62.3082
 20
33.9663
 30
0.0
 11
62.3208
 21
33.8334
 31
0.0
  0
LINE
  5
552
  8
0
 62
1
 10
62.3208
 20
33.8334
 30
0.0
 11
62.325
 21
33.7
 31
0.0
  0
LINE
  5
553
  8
0
 62
1
 10
62.325
 20
33.7
 30
0.0
 11
62.3208
 21
33.5666
 31
0.0
  0
LINE
  5
554
  8
0
 62
1
 10
62.3208
 20
33.5666
 30
0.0
 11
62.3082
 21
33.4337
 31
0.0
  0
LINE
  5
555
  8
0
 62
1
 10
62.3082
 20
33.4337
 30
0.0
 11
62.2874
 21
33.3018
 31
0.0
  0
LINE
  5
556
  8
0
 62
1
 10
62.2874
 20
33.3018
 30
0.0
 11
62.2582
 21
33.1715
 31
0.0
  0
LINE
  5
557
  8
0
 62
1
 10
62.2582
 20
33.1715
 30
0.0
 11
62.221
 21
33.0433
 31
0.0
  0
LINE
  5
558
  8
0
 62
1
 10
62.221
 20
33.0433
 30
0.0
 11
62.1758
 21
32.9177
 31
0.0
  0
LINE
  5
559
  8
0
 62
1
 10
62.1758
 20
32.9177
 30
0.0
 11
62.1228
 21
32.7952
 31
0.0
  0
LINE
  5
55A
  8
0
 62
1
 10
62.1228
 20
32.7952
 30
0.0
 11
62.0621
 21
32.6763
 31
0.0
  0
LINE
  5
55B
  8
0
 62
1
 10
62.0621
 20
32.6763
 30
0.0
 11
61.9942
 21
32.5614
 31
0.0
  0
LINE
  5
55C
  8
0
 62
1
 10
61.9942
 20
32.5614
 30
0.0
 11
61.9192
 21
32.4509
 31
0.0
  0
LINE
  5
55D
  8
0
 62
1
 10
61.9192
 20
32.4509
 30
0.0
 11
61.8373
 21
32.3455
 31
0.0
  0
LINE
  5
55E
  8
0
 62
1
 10
61.8373
 20
32.3455
 30
0.0
 11
61.7491
 21
32.2453
 31
0.0
  0
LINE
  5
55F
  8
0
 62
1
 10
61.7491
 20
32.2453
 30
0.0
 11
61.6546
 21
32.1509
 31
0.0
  0
LINE
  5
560
  8
0
 62
1
 10
61.6546
 20
32.1509
 30
0.0
 11
61.5545
 21
32.0627
 31
0.0
  0
LINE
  5
561
  8
0
 62
1
 10
61.5545
 20
32.0627
 30
0.0
 11
61.449
 21
31.9808
 31
0.0
  0
LINE
  5
562
  8
0
 62
1
 10
61.449
 20
31.9808
 30
0.0
 11
61.3386
 21
31.9058
 31
0.0
  0
LINE
  5
563
  8
0
 62
1
 10
61.3386
 20
31.9058
 30
0.0
 11
61.2237
 21
31.8378
 31
0.0
  0
LINE
  5
564
  8
0
 62
1
 10
61.2237
 20
31.8378
 30
0.0
 11
61.1048
 21
31.7772
 31
0.0
  0
LINE
  5
565
  8
0
 62
1
 10
61.1048
 20
31.7772
 30
0.0
 11
60.9823
 21
31.7242
 31
0.0
  0
LINE
  5
566
  8
0
 62
1
 10
60.9823
 20
31.7242
 30
0.0
 11
60.8567
 21
31.679
 31
0.0
  0
LINE
  5
567
  8
0
 62
1
 10
60.8567
 20
31.679
 30
0.0
 11
60.7285
 21
31.6418
 31
0.0
  0
LINE
  5
568
  8
0
 62
1
 10
60.7285
 20
31.6418
 30
0.0
 11
60.5982
 21
31.6126
 31
0.0
  0
LINE
  5
569
  8
0
 62
1
 10
60.5982
 20
31.6126
 30
0.0
 11
60.4663
 21
31.5918
 31
0.0
  0
LINE
  5
56A
  8
0
 62
1
 10
60.4663
 20
31.5918
 30
0.0
 11
60.3334
 21
31.5792
 31
0.0
  0
LINE
  5
56B
  8
0
 62
1
 10
60.3334
 20
31.5792
 30
0.0
 11
60.2
 21
31.575
 31
0.0
  0
LINE
  5
56C
  8
0
 62
1
 10
60.2
 20
31.575
 30
0.0
 11
60.0666
 21
31.5792
 31
0.0
  0
LINE
  5
56D
  8
0
 62
1
 10
0.0
 20
49.0
 30
0.0
 11
0.0
 21
26.5
 31
0.0
  0
LINE
  5
56E
  8
0
 62
1
 10
0.0
 20
26.5
 30
0.0
 11
22.5
 21
26.5
 31
0.0
  0
LINE
  5
56F
  8
0
 62
1
 10
22.5
 20
26.5
 30
0.0
 11
0.0
 21
49.0
 31
0.0
  0
LINE
  5
570
  8
0
 62
1
 10
7.06656
 20
31.5792
 30
0.0
 11
6.93365
 21
31.5918
 31
0.0
  0
LINE
  5
571
  8
0
 62
1
 10
6.93365
 20
31.5918
 30
0.0
 11
6.8018
 21
31.6126
 31
0.0
  0
LINE
  5
572
  8
0
 62
1
 10
6.8018
 20
31.6126
 30
0.0
 11
6.67152
 21
31.6418
 31
0.0
  0
LINE
  5
573
  8
0
 62
1
 10
6.67152
 20
31.6418
 30
0.0
 11
6.54333
 21
31.679
 31
0.0
  0
LINE
  5
574
  8
0
 62
1
 10
6.54333
 20
31.679
 30
0.0
 11
6.41772
 21
31.7242
 31
0.0
  0
LINE
  5
575
  8
0
 62
1
 10
6.41772
 20
31.7242
 30
0.0
 11
6.29521
 21
31.7772
 31
0.0
  0
LINE
  5
576
  8
0
 62
1
 10
6.29521
 20
31.7772
 30
0.0
 11
6.17627
 21
31.8378
 31
0.0
  0
LINE
  5
577
  8
0
 62
1
 10
6.17627
 20
31.8378
 30
0.0
 11
6.06136
 21
31.9058
 31
0.0
  0
LINE
  5
578
  8
0
 62
1
 10
6.06136
 20
31.9058
 30
0.0
 11
5.95094
 21
31.9808
 31
0.0
  0
LINE
  5
579
  8
0
 62
1
 10
5.95094
 20
31.9808
 30
0.0
 11
5.84546
 21
32.0627
 31
0.0
  0
LINE
  5
57A
  8
0
 62
1
 10
5.84546
 20
32.0627
 30
0.0
 11
5.74533
 21
32.1509
 31
0.0
  0
LINE
  5
57B
  8
0
 62
1
 10
5.74533
 20
32.1509
 30
0.0
 11
5.65094
 21
32.2453
 31
0.0
  0
LINE
  5
57C
  8
0
 62
1
 10
5.65094
 20
32.2453
 30
0.0
 11
5.56265
 21
32.3455
 31
0.0
  0
LINE
  5
57D
  8
0
 62
1
 10
5.56265
 20
32.3455
 30
0.0
 11
5.48083
 21
32.4509
 31
0.0
  0
LINE
  5
57E
  8
0
 62
1
 10
5.48083
 20
32.4509
 30
0.0
 11
5.40579
 21
32.5614
 31
0.0
  0
LINE
  5
57F
  8
0
 62
1
 10
5.40579
 20
32.5614
 30
0.0
 11
5.33784
 21
32.6763
 31
0.0
  0
LINE
  5
580
  8
0
 62
1
 10
5.33784
 20
32.6763
 30
0.0
 11
5.27724
 21
32.7952
 31
0.0
  0
LINE
  5
581
  8
0
 62
1
 10
5.27724
 20
32.7952
 30
0.0
 11
5.22421
 21
32.9177
 31
0.0
  0
LINE
  5
582
  8
0
 62
1
 10
5.22421
 20
32.9177
 30
0.0
 11
5.179
 21
33.0433
 31
0.0
  0
LINE
  5
583
  8
0
 62
1
 10
5.179
 20
33.0433
 30
0.0
 11
5.14175
 21
33.1715
 31
0.0
  0
LINE
  5
584
  8
0
 62
1
 10
5.14175
 20
33.1715
 30
0.0
 11
5.11263
 21
33.3018
 31
0.0
  0
LINE
  5
585
  8
0
 62
1
 10
5.11263
 20
33.3018
 30
0.0
 11
5.09175
 21
33.4337
 31
0.0
  0
LINE
  5
586
  8
0
 62
1
 10
5.09175
 20
33.4337
 30
0.0
 11
5.07919
 21
33.5666
 31
0.0
  0
LINE
  5
587
  8
0
 62
1
 10
5.07919
 20
33.5666
 30
0.0
 11
5.075
 21
33.7
 31
0.0
  0
LINE
  5
588
  8
0
 62
1
 10
5.075
 20
33.7
 30
0.0
 11
5.07919
 21
33.8334
 31
0.0
  0
LINE
  5
589
  8
0
 62
1
 10
5.07919
 20
33.8334
 30
0.0
 11
5.09175
 21
33.9663
 31
0.0
  0
LINE
  5
58A
  8
0
 62
1
 10
5.09175
 20
33.9663
 30
0.0
 11
5.11263
 21
34.0982
 31
0.0
  0
LINE
  5
58B
  8
0
 62
1
 10
5.11263
 20
34.0982
 30
0.0
 11
5.14175
 21
34.2285
 31
0.0
  0
LINE
  5
58C
  8
0
 62
1
 10
5.14175
 20
34.2285
 30
0.0
 11
5.179
 21
34.3567
 31
0.0
  0
LINE
  5
58D
  8
0
 62
1
 10
5.179
 20
34.3567
 30
0.0
 11
5.22421
 21
34.4823
 31
0.0
  0
LINE
  5
58E
  8
0
 62
1
 10
5.22421
 20
34.4823
 30
0.0
 11
5.27724
 21
34.6048
 31
0.0
  0
LINE
  5
58F
  8
0
 62
1
 10
5.27724
 20
34.6048
 30
0.0
 11
5.33784
 21
34.7237
 31
0.0
  0
LINE
  5
590
  8
0
 62
1
 10
5.33784
 20
34.7237
 30
0.0
 11
5.40579
 21
34.8386
 31
0.0
  0
LINE
  5
591
  8
0
 62
1
 10
5.40579
 20
34.8386
 30
0.0
 11
5.48083
 21
34.949
 31
0.0
  0
LINE
  5
592
  8
0
 62
1
 10
5.48083
 20
34.949
 30
0.0
 11
5.56265
 21
35.0545
 31
0.0
  0
LINE
  5
593
  8
0
 62
1
 10
5.56265
 20
35.0545
 30
0.0
 11
5.65094
 21
35.1546
 31
0.0
  0
LINE
  5
594
  8
0
 62
1
 10
5.65094
 20
35.1546
 30
0.0
 11
5.74533
 21
35.2491
 31
0.0
  0
LINE
  5
595
  8
0
 62
1
 10
5.74533
 20
35.2491
 30
0.0
 11
5.84546
 21
35.3373
 31
0.0
  0
LINE
  5
596
  8
0
 62
1
 10
5.84546
 20
35.3373
 30
0.0
 11
5.95094
 21
35.4192
 31
0.0
  0
LINE
  5
597
  8
0
 62
1
 10
5.95094
 20
35.4192
 30
0.0
 11
6.06136
 21
35.4942
 31
0.0
  0
LINE
  5
598
  8
0
 62
1
 10
6.06136
 20
35.4942
 30
0.0
 11
6.17627
 21
35.5621
 31
0.0
  0
LINE
  5
599
  8
0
 62
1
 10
6.17627
 20
35.5621
 30
0.0
 11
6.29521
 21
35.6228
 31
0.0
  0
LINE
  5
59A
  8
0
 62
1
 10
6.29521
 20
35.6228
 30
0.0
 11
6.41772
 21
35.6758
 31
0.0
  0
LINE
  5
59B
  8
0
 62
1
 10
6.41772
 20
35.6758
 30
0.0
 11
6.54333
 21
35.721
 31
0.0
  0
LINE
  5
59C
  8
0
 62
1
 10
6.54333
 20
35.721
 30
0.0
 11
6.67152
 21
35.7582
 31
0.0
  0
LINE
  5
59D
  8
0
 62
1
 10
6.67152
 20
35.7582
 30
0.0
 11
6.8018
 21
35.7874
 31
0.0
  0
LINE
  5
59E
  8
0
 62
1
 10
6.8018
 20
35.7874
 30
0.0
 11
6.93365
 21
35.8082
 31
0.0
  0
LINE
  5
59F
  8
0
 62
1
 10
6.93365
 20
35.8082
 30
0.0
 11
7.06656
 21
35.8208
 31
0.0
  0
LINE
  5
5A0
  8
0
 62
1
 10
7.06656
 20
35.8208
 30
0.0
 11
7.2
 21
35.825
 31
0.0
  0
LINE
  5
5A1
  8
0
 62
1
 10
7.2
 20
35.825
 30
0.0
 11
7.33342
 21
35.8208
 31
0.0
  0
LINE
  5
5A2
  8
0
 62
1
 10
7.33342
 20
35.8208
 30
0.0
 11
7.46632
 21
35.8082
 31
0.0
  0
LINE
  5
5A3
  8
0
 62
1
 10
7.46632
 20
35.8082
 30
0.0
 11
7.59818
 21
35.7874
 31
0.0
  0
LINE
  5
5A4
  8
0
 62
1
 10
7.59818
 20
35.7874
 30
0.0
 11
7.72845
 21
35.7582
 31
0.0
  0
LINE
  5
5A5
  8
0
 62
1
 10
7.72845
 20
35.7582
 30
0.0
 11
7.85666
 21
35.721
 31
0.0
  0
LINE
  5
5A6
  8
0
 62
1
 10
7.85666
 20
35.721
 30
0.0
 11
7.98225
 21
35.6758
 31
0.0
  0
LINE
  5
5A7
  8
0
 62
1
 10
7.98225
 20
35.6758
 30
0.0
 11
8.10477
 21
35.6228
 31
0.0
  0
LINE
  5
5A8
  8
0
 62
1
 10
8.10477
 20
35.6228
 30
0.0
 11
8.22372
 21
35.5621
 31
0.0
  0
LINE
  5
5A9
  8
0
 62
1
 10
8.22372
 20
35.5621
 30
0.0
 11
8.33862
 21
35.4942
 31
0.0
  0
LINE
  5
5AA
  8
0
 62
1
 10
8.33862
 20
35.4942
 30
0.0
 11
8.44904
 21
35.4192
 31
0.0
  0
LINE
  5
5AB
  8
0
 62
1
 10
8.44904
 20
35.4192
 30
0.0
 11
8.55452
 21
35.3373
 31
0.0
  0
LINE
  5
5AC
  8
0
 62
1
 10
8.55452
 20
35.3373
 30
0.0
 11
8.65465
 21
35.2491
 31
0.0
  0
LINE
  5
5AD
  8
0
 62
1
 10
8.65465
 20
35.2491
 30
0.0
 11
8.74905
 21
35.1546
 31
0.0
  0
LINE
  5
5AE
  8
0
 62
1
 10
8.74905
 20
35.1546
 30
0.0
 11
8.83733
 21
35.0545
 31
0.0
  0
LINE
  5
5AF
  8
0
 62
1
 10
8.83733
 20
35.0545
 30
0.0
 11
8.91916
 21
34.949
 31
0.0
  0
LINE
  5
5B0
  8
0
 62
1
 10
8.91916
 20
34.949
 30
0.0
 11
8.99419
 21
34.8386
 31
0.0
  0
LINE
  5
5B1
  8
0
 62
1
 10
8.99419
 20
34.8386
 30
0.0
 11
9.06215
 21
34.7237
 31
0.0
  0
LINE
  5
5B2
  8
0
 62
1
 10
9.06215
 20
34.7237
 30
0.0
 11
9.12276
 21
34.6048
 31
0.0
  0
LINE
  5
5B3
  8
0
 62
1
 10
9.12276
 20
34.6048
 30
0.0
 11
9.17577
 21
34.4823
 31
0.0
  0
LINE
  5
5B4
  8
0
 62
1
 10
9.17577
 20
34.4823
 30
0.0
 11
9.22099
 21
34.3567
 31
0.0
  0
LINE
  5
5B5
  8
0
 62
1
 10
9.22099
 20
34.3567
 30
0.0
 11
9.25822
 21
34.2285
 31
0.0
  0
LINE
  5
5B6
  8
0
 62
1
 10
9.25822
 20
34.2285
 30
0.0
 11
9.28735
 21
34.0982
 31
0.0
  0
LINE
  5
5B7
  8
0
 62
1
 10
9.28735
 20
34.0982
 30
0.0
 11
9.30824
 21
33.9663
 31
0.0
  0
LINE
  5
5B8
  8
0
 62
1
 10
9.30824
 20
33.9663
 30
0.0
 11
9.3208
 21
33.8334
 31
0.0
  0
LINE
  5
5B9
  8
0
 62
1
 10
9.3208
 20
33.8334
 30
0.0
 11
9.325
 21
33.7
 31
0.0
  0
LINE
  5
5BA
  8
0
 62
1
 10
9.325
 20
33.7
 30
0.0
 11
9.3208
 21
33.5666
 31
0.0
  0
LINE
  5
5BB
  8
0
 62
1
 10
9.3208
 20
33.5666
 30
0.0
 11
9.30824
 21
33.4337
 31
0.0
  0
LINE
  5
5BC
  8
0
 62
1
 10
9.30824
 20
33.4337
 30
0.0
 11
9.28735
 21
33.3018
 31
0.0
  0
LINE
  5
5BD
  8
0
 62
1
 10
9.28735
 20
33.3018
 30
0.0
 11
9.25822
 21
33.1715
 31
0.0
  0
LINE
  5
5BE
  8
0
 62
1
 10
9.25822
 20
33.1715
 30
0.0
 11
9.22099
 21
33.0433
 31
0.0
  0
LINE
  5
5BF
  8
0
 62
1
 10
9.22099
 20
33.0433
 30
0.0
 11
9.17577
 21
32.9177
 31
0.0
  0
LINE
  5
5C0
  8
0
 62
1
 10
9.17577
 20
32.9177
 30
0.0
 11
9.12276
 21
32.7952
 31
0.0
  0
LINE
  5
5C1
  8
0
 62
1
 10
9.12276
 20
32.7952
 30
0.0
 11
9.06215
 21
32.6763
 31
0.0
  0
LINE
  5
5C2
  8
0
 62
1
 10
9.06215
 20
32.6763
 30
0.0
 11
8.99419
 21
32.5614
 31
0.0
  0
LINE
  5
5C3
  8
0
 62
1
 10
8.99419
 20
32.5614
 30
0.0
 11
8.91916
 21
32.4509
 31
0.0
  0
LINE
  5
5C4
  8
0
 62
1
 10
8.91916
 20
32.4509
 30
0.0
 11
8.83733
 21
32.3455
 31
0.0
  0
LINE
  5
5C5
  8
0
 62
1
 10
8.83733
 20
32.3455
 30
0.0
 11
8.74905
 21
32.2453
 31
0.0
  0
LINE
  5
5C6
  8
0
 62
1
 10
8.74905
 20
32.2453
 30
0.0
 11
8.65465
 21
32.1509
 31
0.0
  0
LINE
  5
5C7
  8
0
 62
1
 10
8.65465
 20
32.1509
 30
0.0
 11
8.55452
 21
32.0627
 31
0.0
  0
LINE
  5
5C8
  8
0
 62
1
 10
8.55452
 20
32.0627
 30
0.0
 11
8.44904
 21
31.9808
 31
0.0
  0
LINE
  5
5C9
  8
0
 62
1
 10
8.44904
 20
31.9808
 30
0.0
 11
8.33862
 21
31.9058
 31
0.0
  0
LINE
  5
5CA
  8
0
 62
1
 10
8.33862
 20
31.9058
 30
0.0
 11
8.22372
 21
31.8378
 31
0.0
  0
LINE
  5
5CB
  8
0
 62
1
 10
8.22372
 20
31.8378
 30
0.0
 11
8.10477
 21
31.7772
 31
0.0
  0
LINE
  5
5CC
  8
0
 62
1
 10
8.10477
 20
31.7772
 30
0.0
 11
7.98225
 21
31.7242
 31
0.0
  0
LINE
  5
5CD
  8
0
 62
1
 10
7.98225
 20
31.7242
 30
0.0
 11
7.85666
 21
31.679
 31
0.0
  0
LINE
  5
5CE
  8
0
 62
1
 10
7.85666
 20
31.679
 30
0.0
 11
7.72845
 21
31.6418
 31
0.0
  0
LINE
  5
5CF
  8
0
 62
1
 10
7.72845
 20
31.6418
 30
0.0
 11
7.59818
 21
31.6126
 31
0.0
  0
LINE
  5
5D0
  8
0
 62
1
 10
7.59818
 20
31.6126
 30
0.0
 11
7.46632
 21
31.5918
 31
0.0
  0
LINE
  5
5D1
  8
0
 62
1
 10
7.46632
 20
31.5918
 30
0.0
 11
7.33342
 21
31.5792
 31
0.0
  0
LINE
  5
5D2
  8
0
 62
1
 10
7.33342
 20
31.5792
 30
0.0
 11
7.2
 21
31.575
 31
0.0
  0
LINE
  5
5D3
  8
0
 62
1
 10
7.2
 20
31.575
 30
0.0
 11
7.06656
 21
31.5792
 31
0.0
  0
LINE
  5
5D4
  8
0
 62
1
 10
24.5
 20
24.5
 30
0.0
 11
2.0
 21
24.5
 31
0.0
  0
LINE
  5
5D5
  8
0
 62
1
 10
2.0
 20
24.5
 30
0.0
 11
24.5
 21
2.0
 31
0.0
  0
LINE
  5
5D6
  8
0
 62
1
 10
24.5
 20
2.0
 30
0.0
 11
24.5
 21
24.5
 31
0.0
  0
LINE
  5
5D7
  8
0
 62
1
 10
17.1666
 20
15.1792
 30
0.0
 11
17.0337
 21
15.1918
 31
0.0
  0
LINE
  5
5D8
  8
0
 62
1
 10
17.0337
 20
15.1918
 30
0.0
 11
16.9018
 21
15.2126
 31
0.0
  0
LINE
  5
5D9
  8
0
 62
1
 10
16.9018
 20
15.2126
 30
0.0
 11
16.7715
 21
15.2418
 31
0.0
  0
LINE
  5
5DA
  8
0
 62
1
 10
16.7715
 20
15.2418
 30
0.0
 11
16.6433
 21
15.279
 31
0.0
  0
LINE
  5
5DB
  8
0
 62
1
 10
16.6433
 20
15.279
 30
0.0
 11
16.5177
 21
15.3242
 31
0.0
  0
LINE
  5
5DC
  8
0
 62
1
 10
16.5177
 20
15.3242
 30
0.0
 11
16.3952
 21
15.3772
 31
0.0
  0
LINE
  5
5DD
  8
0
 62
1
 10
16.3952
 20
15.3772
 30
0.0
 11
16.2763
 21
15.4379
 31
0.0
  0
LINE
  5
5DE
  8
0
 62
1
 10
16.2763
 20
15.4379
 30
0.0
 11
16.1614
 21
15.5058
 31
0.0
  0
LINE
  5
5DF
  8
0
 62
1
 10
16.1614
 20
15.5058
 30
0.0
 11
16.051
 21
15.5808
 31
0.0
  0
LINE
  5
5E0
  8
0
 62
1
 10
16.051
 20
15.5808
 30
0.0
 11
15.9455
 21
15.6627
 31
0.0
  0
LINE
  5
5E1
  8
0
 62
1
 10
15.9455
 20
15.6627
 30
0.0
 11
15.8454
 21
15.7509
 31
0.0
  0
LINE
  5
5E2
  8
0
 62
1
 10
15.8454
 20
15.7509
 30
0.0
 11
15.7509
 21
15.8454
 31
0.0
  0
LINE
  5
5E3
  8
0
 62
1
 10
15.7509
 20
15.8454
 30
0.0
 11
15.6627
 21
15.9455
 31
0.0
  0
LINE
  5
5E4
  8
0
 62
1
 10
15.6627
 20
15.9455
 30
0.0
 11
15.5808
 21
16.051
 31
0.0
  0
LINE
  5
5E5
  8
0
 62
1
 10
15.5808
 20
16.051
 30
0.0
 11
15.5058
 21
16.1614
 31
0.0
  0
LINE
  5
5E6
  8
0
 62
1
 10
15.5058
 20
16.1614
 30
0.0
 11
15.4379
 21
16.2763
 31
0.0
  0
LINE
  5
5E7
  8
0
 62
1
 10
15.4379
 20
16.2763
 30
0.0
 11
15.3772
 21
16.3952
 31
0.0
  0
LINE
  5
5E8
  8
0
 62
1
 10
15.3772
 20
16.3952
 30
0.0
 11
15.3242
 21
16.5177
 31
0.0
  0
LINE
  5
5E9
  8
0
 62
1
 10
15.3242
 20
16.5177
 30
0.0
 11
15.279
 21
16.6433
 31
0.0
  0
LINE
  5
5EA
  8
0
 62
1
 10
15.279
 20
16.6433
 30
0.0
 11
15.2418
 21
16.7715
 31
0.0
  0
LINE
  5
5EB
  8
0
 62
1
 10
15.2418
 20
16.7715
 30
0.0
 11
15.2126
 21
16.9018
 31
0.0
  0
LINE
  5
5EC
  8
0
 62
1
 10
15.2126
 20
16.9018
 30
0.0
 11
15.1918
 21
17.0337
 31
0.0
  0
LINE
  5
5ED
  8
0
 62
1
 10
15.1918
 20
17.0337
 30
0.0
 11
15.1792
 21
17.1666
 31
0.0
  0
LINE
  5
5EE
  8
0
 62
1
 10
15.1792
 20
17.1666
 30
0.0
 11
15.175
 21
17.3
 31
0.0
  0
LINE
  5
5EF
  8
0
 62
1
 10
15.175
 20
17.3
 30
0.0
 11
15.1792
 21
17.4334
 31
0.0
  0
LINE
  5
5F0
  8
0
 62
1
 10
15.1792
 20
17.4334
 30
0.0
 11
15.1918
 21
17.5663
 31
0.0
  0
LINE
  5
5F1
  8
0
 62
1
 10
15.1918
 20
17.5663
 30
0.0
 11
15.2126
 21
17.6982
 31
0.0
  0
LINE
  5
5F2
  8
0
 62
1
 10
15.2126
 20
17.6982
 30
0.0
 11
15.2418
 21
17.8285
 31
0.0
  0
LINE
  5
5F3
  8
0
 62
1
 10
15.2418
 20
17.8285
 30
0.0
 11
15.279
 21
17.9567
 31
0.0
  0
LINE
  5
5F4
  8
0
 62
1
 10
15.279
 20
17.9567
 30
0.0
 11
15.3242
 21
18.0823
 31
0.0
  0
LINE
  5
5F5
  8
0
 62
1
 10
15.3242
 20
18.0823
 30
0.0
 11
15.3772
 21
18.2048
 31
0.0
  0
LINE
  5
5F6
  8
0
 62
1
 10
15.3772
 20
18.2048
 30
0.0
 11
15.4379
 21
18.3237
 31
0.0
  0
LINE
  5
5F7
  8
0
 62
1
 10
15.4379
 20
18.3237
 30
0.0
 11
15.5058
 21
18.4386
 31
0.0
  0
LINE
  5
5F8
  8
0
 62
1
 10
15.5058
 20
18.4386
 30
0.0
 11
15.5808
 21
18.5491
 31
0.0
  0
LINE
  5
5F9
  8
0
 62
1
 10
15.5808
 20
18.5491
 30
0.0
 11
15.6627
 21
18.6545
 31
0.0
  0
LINE
  5
5FA
  8
0
 62
1
 10
15.6627
 20
18.6545
 30
0.0
 11
15.7509
 21
18.7547
 31
0.0
  0
LINE
  5
5FB
  8
0
 62
1
 10
15.7509
 20
18.7547
 30
0.0
 11
15.8454
 21
18.8491
 31
0.0
  0
LINE
  5
5FC
  8
0
 62
1
 10
15.8454
 20
18.8491
 30
0.0
 11
15.9455
 21
18.9373
 31
0.0
  0
LINE
  5
5FD
  8
0
 62
1
 10
15.9455
 20
18.9373
 30
0.0
 11
16.051
 21
19.0192
 31
0.0
  0
LINE
  5
5FE
  8
0
 62
1
 10
16.051
 20
19.0192
 30
0.0
 11
16.1614
 21
19.0942
 31
0.0
  0
LINE
  5
5FF
  8
0
 62
1
 10
16.1614
 20
19.0942
 30
0.0
 11
16.2763
 21
19.1622
 31
0.0
  0
LINE
  5
600
  8
0
 62
1
 10
16.2763
 20
19.1622
 30
0.0
 11
16.3952
 21
19.2228
 31
0.0
  0
LINE
  5
601
  8
0
 62
1
 10
16.3952
 20
19.2228
 30
0.0
 11
16.5177
 21
19.2758
 31
0.0
  0
LINE
  5
602
  8
0
 62
1
 10
16.5177
 20
19.2758
 30
0.0
 11
16.6433
 21
19.321
 31
0.0
  0
LINE
  5
603
  8
0
 62
1
 10
16.6433
 20
19.321
 30
0.0
 11
16.7715
 21
19.3582
 31
0.0
  0
LINE
  5
604
  8
0
 62
1
 10
16.7715
 20
19.3582
 30
0.0
 11
16.9018
 21
19.3874
 31
0.0
  0
LINE
  5
605
  8
0
 62
1
 10
16.9018
 20
19.3874
 30
0.0
 11
17.0337
 21
19.4082
 31
0.0
  0
LINE
  5
606
  8
0
 62
1
 10
17.0337
 20
19.4082
 30
0.0
 11
17.1666
 21
19.4208
 31
0.0
  0
LINE
  5
607
  8
0
 62
1
 10
17.1666
 20
19.4208
 30
0.0
 11
17.3
 21
19.425
 31
0.0
  0
LINE
  5
608
  8
0
 62
1
 10
17.3
 20
19.425
 30
0.0
 11
17.4334
 21
19.4208
 31
0.0
  0
LINE
  5
609
  8
0
 62
1
 10
17.4334
 20
19.4208
 30
0.0
 11
17.5663
 21
19.4082
 31
0.0
  0
LINE
  5
60A
  8
0
 62
1
 10
17.5663
 20
19.4082
 30
0.0
 11
17.6982
 21
19.3874
 31
0.0
  0
LINE
  5
60B
  8
0
 62
1
 10
17.6982
 20
19.3874
 30
0.0
 11
17.8285
 21
19.3582
 31
0.0
  0
LINE
  5
60C
  8
0
 62
1
 10
17.8285
 20
19.3582
 30
0.0
 11
17.9567
 21
19.321
 31
0.0
  0
LINE
  5
60D
  8
0
 62
1
 10
17.9567
 20
19.321
 30
0.0
 11
18.0823
 21
19.2758
 31
0.0
  0
LINE
  5
60E
  8
0
 62
1
 10
18.0823
 20
19.2758
 30
0.0
 11
18.2048
 21
19.2228
 31
0.0
  0
LINE
  5
60F
  8
0
 62
1
 10
18.2048
 20
19.2228
 30
0.0
 11
18.3237
 21
19.1622
 31
0.0
  0
LINE
  5
610
  8
0
 62
1
 10
18.3237
 20
19.1622
 30
0.0
 11
18.4386
 21
19.0942
 31
0.0
  0
LINE
  5
611
  8
0
 62
1
 10
18.4386
 20
19.0942
 30
0.0
 11
18.5491
 21
19.0192
 31
0.0
  0
LINE
  5
612
  8
0
 62
1
 10
18.5491
 20
19.0192
 30
0.0
 11
18.6545
 21
18.9373
 31
0.0
  0
LINE
  5
613
  8
0
 62
1
 10
18.6545
 20
18.9373
 30
0.0
 11
18.7547
 21
18.8491
 31
0.0
  0
LINE
  5
614
  8
0
 62
1
 10
18.7547
 20
18.8491
 30
0.0
 11
18.8491
 21
18.7547
 31
0.0
  0
LINE
  5
615
  8
0
 62
1
 10
18.8491
 20
18.7547
 30
0.0
 11
18.9373
 21
18.6545
 31
0.0
  0
LINE
  5
616
  8
0
 62
1
 10
18.9373
 20
18.6545
 30
0.0
 11
19.0192
 21
18.5491
 31
0.0
  0
LINE
  5
617
  8
0
 62
1
 10
19.0192
 20
18.5491
 30
0.0
 11
19.0942
 21
18.4386
 31
0.0
  0
LINE
  5
618
  8
0
 62
1
 10
19.0942
 20
18.4386
 30
0.0
 11
19.1622
 21
18.3237
 31
0.0
  0
LINE
  5
619
  8
0
 62
1
 10
19.1622
 20
18.3237
 30
0.0
 11
19.2228
 21
18.2048
 31
0.0
  0
LINE
  5
61A
  8
0
 62
1
 10
19.2228
 20
18.2048
 30
0.0
 11
19.2758
 21
18.0823
 31
0.0
  0
LINE
  5
61B
  8
0
 62
1
 10
19.2758
 20
18.0823
 30
0.0
 11
19.321
 21
17.9567
 31
0.0
  0
LINE
  5
61C
  8
0
 62
1
 10
19.321
 20
17.9567
 30
0.0
 11
19.3582
 21
17.8285
 31
0.0
  0
LINE
  5
61D
  8
0
 62
1
 10
19.3582
 20
17.8285
 30
0.0
 11
19.3874
 21
17.6982
 31
0.0
  0
LINE
  5
61E
  8
0
 62
1
 10
19.3874
 20
17.6982
 30
0.0
 11
19.4082
 21
17.5663
 31
0.0
  0
LINE
  5
61F
  8
0
 62
1
 10
19.4082
 20
17.5663
 30
0.0
 11
19.4208
 21
17.4334
 31
0.0
  0
LINE
  5
620
  8
0
 62
1
 10
19.4208
 20
17.4334
 30
0.0
 11
19.425
 21
17.3
 31
0.0
  0
LINE
  5
621
  8
0
 62
1
 10
19.425
 20
17.3
 30
0.0
 11
19.4208
 21
17.1666
 31
0.0
  0
LINE
  5
622
  8
0
 62
1
 10
19.4208
 20
17.1666
 30
0.0
 11
19.4082
 21
17.0337
 31
0.0
  0
LINE
  5
623
  8
0
 62
1
 10
19.4082
 20
17.0337
 30
0.0
 11
19.3874
 21
16.9018
 31
0.0
  0
LINE
  5
624
  8
0
 62
1
 10
19.3874
 20
16.9018
 30
0.0
 11
19.3582
 21
16.7715
 31
0.0
  0
LINE
  5
625
  8
0
 62
1
 10
19.3582
 20
16.7715
 30
0.0
 11
19.321
 21
16.6433
 31
0.0
  0
LINE
  5
626
  8
0
 62
1
 10
19.321
 20
16.6433
 30
0.0
 11
19.2758
 21
16.5177
 31
0.0
  0
LINE
  5
627
  8
0
 62
1
 10
19.2758
 20
16.5177
 30
0.0
 11
19.2228
 21
16.3952
 31
0.0
  0
LINE
  5
628
  8
0
 62
1
 10
19.2228
 20
16.3952
 30
0.0
 11
19.1622
 21
16.2763
 31
0.0
  0
LINE
  5
629
  8
0
 62
1
 10
19.1622
 20
16.2763
 30
0.0
 11
19.0942
 21
16.1614
 31
0.0
  0
LINE
  5
62A
  8
0
 62
1
 10
19.0942
 20
16.1614
 30
0.0
 11
19.0192
 21
16.051
 31
0.0
  0
LINE
  5
62B
  8
0
 62
1
 10
19.0192
 20
16.051
 30
0.0
 11
18.9373
 21
15.9455
 31
0.0
  0
LINE
  5
62C
  8
0
 62
1
 10
18.9373
 20
15.9455
 30
0.0
 11
18.8491
 21
15.8454
 31
0.0
  0
LINE
  5
62D
  8
0
 62
1
 10
18.8491
 20
15.8454
 30
0.0
 11
18.7547
 21
15.7509
 31
0.0
  0
LINE
  5
62E
  8
0
 62
1
 10
18.7547
 20
15.7509
 30
0.0
 11
18.6545
 21
15.6627
 31
0.0
  0
LINE
  5
62F
  8
0
 62
1
 10
18.6545
 20
15.6627
 30
0.0
 11
18.5491
 21
15.5808
 31
0.0
  0
LINE
  5
630
  8
0
 62
1
 10
18.5491
 20
15.5808
 30
0.0
 11
18.4386
 21
15.5058
 31
0.0
  0
LINE
  5
631
  8
0
 62
1
 10
18.4386
 20
15.5058
 30
0.0
 11
18.3237
 21
15.4379
 31
0.0
  0
LINE
  5
632
  8
0
 62
1
 10
18.3237
 20
15.4379
 30
0.0
 11
18.2048
 21
15.3772
 31
0.0
  0
LINE
  5
633
  8
0
 62
1
 10
18.2048
 20
15.3772
 30
0.0
 11
18.0823
 21
15.3242
 31
0.0
  0
LINE
  5
634
  8
0
 62
1
 10
18.0823
 20
15.3242
 30
0.0
 11
17.9567
 21
15.279
 31
0.0
  0
LINE
  5
635
  8
0
 62
1
 10
17.9567
 20
15.279
 30
0.0
 11
17.8285
 21
15.2418
 31
0.0
  0
LINE
  5
636
  8
0
 62
1
 10
17.8285
 20
15.2418
 30
0.0
 11
17.6982
 21
15.2126
 31
0.0
  0
LINE
  5
637
  8
0
 62
1
 10
17.6982
 20
15.2126
 30
0.0
 11
17.5663
 21
15.1918
 31
0.0
  0
LINE
  5
638
  8
0
 62
1
 10
17.5663
 20
15.1918
 30
0.0
 11
17.4334
 21
15.1792
 31
0.0
  0
LINE
  5
639
  8
0
 62
1
 10
17.4334
 20
15.1792
 30
0.0
 11
17.3
 21
15.175
 31
0.0
  0
LINE
  5
63A
  8
0
 62
1
 10
17.3
 20
15.175
 30
0.0
 11
17.1666
 21
15.1792
 31
0.0
  0
LINE
  5
63B
  8
0
 62
1
 10
51.0
 20
24.5
 30
0.0
 11
28.5
 21
24.5
 31
0.0
  0
LINE
  5
63C
  8
0
 62
1
 10
28.5
 20
24.5
 30
0.0
 11
51.0
 21
2.0
 31
0.0
  0
LINE
  5
63D
  8
0
 62
1
 10
51.0
 20
2.0
 30
0.0
 11
51.0
 21
24.5
 31
0.0
  0
LINE
  5
63E
  8
0
 62
1
 10
43.6666
 20
15.1792
 30
0.0
 11
43.5337
 21
15.1918
 31
0.0
  0
LINE
  5
63F
  8
0
 62
1
 10
43.5337
 20
15.1918
 30
0.0
 11
43.4018
 21
15.2126
 31
0.0
  0
LINE
  5
640
  8
0
 62
1
 10
43.4018
 20
15.2126
 30
0.0
 11
43.2715
 21
15.2418
 31
0.0
  0
LINE
  5
641
  8
0
 62
1
 10
43.2715
 20
15.2418
 30
0.0
 11
43.1433
 21
15.279
 31
0.0
  0
LINE
  5
642
  8
0
 62
1
 10
43.1433
 20
15.279
 30
0.0
 11
43.0177
 21
15.3242
 31
0.0
  0
LINE
  5
643
  8
0
 62
1
 10
43.0177
 20
15.3242
 30
0.0
 11
42.8952
 21
15.3772
 31
0.0
  0
LINE
  5
644
  8
0
 62
1
 10
42.8952
 20
15.3772
 30
0.0
 11
42.7763
 21
15.4379
 31
0.0
  0
LINE
  5
645
  8
0
 62
1
 10
42.7763
 20
15.4379
 30
0.0
 11
42.6614
 21
15.5058
 31
0.0
  0
LINE
  5
646
  8
0
 62
1
 10
42.6614
 20
15.5058
 30
0.0
 11
42.551
 21
15.5808
 31
0.0
  0
LINE
  5
647
  8
0
 62
1
 10
42.551
 20
15.5808
 30
0.0
 11
42.4455
 21
15.6627
 31
0.0
  0
LINE
  5
648
  8
0
 62
1
 10
42.4455
 20
15.6627
 30
0.0
 11
42.3454
 21
15.7509
 31
0.0
  0
LINE
  5
649
  8
0
 62
1
 10
42.3454
 20
15.7509
 30
0.0
 11
42.2509
 21
15.8454
 31
0.0
  0
LINE
  5
64A
  8
0
 62
1
 10
42.2509
 20
15.8454
 30
0.0
 11
42.1627
 21
15.9455
 31
0.0
  0
LINE
  5
64B
  8
0
 62
1
 10
42.1627
 20
15.9455
 30
0.0
 11
42.0808
 21
16.051
 31
0.0
  0
LINE
  5
64C
  8
0
 62
1
 10
42.0808
 20
16.051
 30
0.0
 11
42.0058
 21
16.1614
 31
0.0
  0
LINE
  5
64D
  8
0
 62
1
 10
42.0058
 20
16.1614
 30
0.0
 11
41.9379
 21
16.2763
 31
0.0
  0
LINE
  5
64E
  8
0
 62
1
 10
41.9379
 20
16.2763
 30
0.0
 11
41.8772
 21
16.3952
 31
0.0
  0
LINE
  5
64F
  8
0
 62
1
 10
41.8772
 20
16.3952
 30
0.0
 11
41.8242
 21
16.5177
 31
0.0
  0
LINE
  5
650
  8
0
 62
1
 10
41.8242
 20
16.5177
 30
0.0
 11
41.779
 21
16.6433
 31
0.0
  0
LINE
  5
651
  8
0
 62
1
 10
41.779
 20
16.6433
 30
0.0
 11
41.7418
 21
16.7715
 31
0.0
  0
LINE
  5
652
  8
0
 62
1
 10
41.7418
 20
16.7715
 30
0.0
 11
41.7126
 21
16.9018
 31
0.0
  0
LINE
  5
653
  8
0
 62
1
 10
41.7126
 20
16.9018
 30
0.0
 11
41.6918
 21
17.0337
 31
0.0
  0
LINE
  5
654
  8
0
 62
1
 10
41.6918
 20
17.0337
 30
0.0
 11
41.6792
 21
17.1666
 31
0.0
  0
LINE
  5
655
  8
0
 62
1
 10
41.6792
 20
17.1666
 30
0.0
 11
41.675
 21
17.3
 31
0.0
  0
LINE
  5
656
  8
0
 62
1
 10
41.675
 20
17.3
 30
0.0
 11
41.6792
 21
17.4334
 31
0.0
  0
LINE
  5
657
  8
0
 62
1
 10
41.6792
 20
17.4334
 30
0.0
 11
41.6918
 21
17.5663
 31
0.0
  0
LINE
  5
658
  8
0
 62
1
 10
41.6918
 20
17.5663
 30
0.0
 11
41.7126
 21
17.6982
 31
0.0
  0
LINE
  5
659
  8
0
 62
1
 10
41.7126
 20
17.6982
 30
0.0
 11
41.7418
 21
17.8285
 31
0.0
  0
LINE
  5
65A
  8
0
 62
1
 10
41.7418
 20
17.8285
 30
0.0
 11
41.779
 21
17.9567
 31
0.0
  0
LINE
  5
65B
  8
0
 62
1
 10
41.779
 20
17.9567
 30
0.0
 11
41.8242
 21
18.0823
 31
0.0
  0
LINE
  5
65C
  8
0
 62
1
 10
41.8242
 20
18.0823
 30
0.0
 11
41.8772
 21
18.2048
 31
0.0
  0
LINE
  5
65D
  8
0
 62
1
 10
41.8772
 20
18.2048
 30
0.0
 11
41.9379
 21
18.3237
 31
0.0
  0
LINE
  5
65E
  8
0
 62
1
 10
41.9379
 20
18.3237
 30
0.0
 11
42.0058
 21
18.4386
 31
0.0
  0
LINE
  5
65F
  8
0
 62
1
 10
42.0058
 20
18.4386
 30
0.0
 11
42.0808
 21
18.5491
 31
0.0
  0
LINE
  5
660
  8
0
 62
1
 10
42.0808
 20
18.5491
 30
0.0
 11
42.1627
 21
18.6545
 31
0.0
  0
LINE
  5
661
  8
0
 62
1
 10
42.1627
 20
18.6545
 30
0.0
 11
42.2509
 21
18.7547
 31
0.0
  0
LINE
  5
662
  8
0
 62
1
 10
42.2509
 20
18.7547
 30
0.0
 11
42.3454
 21
18.8491
 31
0.0
  0
LINE
  5
663
  8
0
 62
1
 10
42.3454
 20
18.8491
 30
0.0
 11
42.4455
 21
18.9373
 31
0.0
  0
LINE
  5
664
  8
0
 62
1
 10
42.4455
 20
18.9373
 30
0.0
 11
42.551
 21
19.0192
 31
0.0
  0
LINE
  5
665
  8
0
 62
1
 10
42.551
 20
19.0192
 30
0.0
 11
42.6614
 21
19.0942
 31
0.0
  0
LINE
  5
666
  8
0
 62
1
 10
42.6614
 20
19.0942
 30
0.0
 11
42.7763
 21
19.1622
 31
0.0
  0
LINE
  5
667
  8
0
 62
1
 10
42.7763
 20
19.1622
 30
0.0
 11
42.8952
 21
19.2228
 31
0.0
  0
LINE
  5
668
  8
0
 62
1
 10
42.8952
 20
19.2228
 30
0.0
 11
43.0177
 21
19.2758
 31
0.0
  0
LINE
  5
669
  8
0
 62
1
 10
43.0177
 20
19.2758
 30
0.0
 11
43.1433
 21
19.321
 31
0.0
  0
LINE
  5
66A
  8
0
 62
1
 10
43.1433
 20
19.321
 30
0.0
 11
43.2715
 21
19.3582
 31
0.0
  0
LINE
  5
66B
  8
0
 62
1
 10
43.2715
 20
19.3582
 30
0.0
 11
43.4018
 21
19.3874
 31
0.0
  0
LINE
  5
66C
  8
0
 62
1
 10
43.4018
 20
19.3874
 30
0.0
 11
43.5337
 21
19.4082
 31
0.0
  0
LINE
  5
66D
  8
0
 62
1
 10
43.5337
 20
19.4082
 30
0.0
 11
43.6666
 21
19.4208
 31
0.0
  0
LINE
  5
66E
  8
0
 62
1
 10
43.6666
 20
19.4208
 30
0.0
 11
43.8
 21
19.425
 31
0.0
  0
LINE
  5
66F
  8
0
 62
1
 10
43.8
 20
19.425
 30
0.0
 11
43.9334
 21
19.4208
 31
0.0
  0
LINE
  5
670
  8
0
 62
1
 10
43.9334
 20
19.4208
 30
0.0
 11
44.0663
 21
19.4082
 31
0.0
  0
LINE
  5
671
  8
0
 62
1
 10
44.0663
 20
19.4082
 30
0.0
 11
44.1982
 21
19.3874
 31
0.0
  0
LINE
  5
672
  8
0
 62
1
 10
44.1982
 20
19.3874
 30
0.0
 11
44.3285
 21
19.3582
 31
0.0
  0
LINE
  5
673
  8
0
 62
1
 10
44.3285
 20
19.3582
 30
0.0
 11
44.4567
 21
19.321
 31
0.0
  0
LINE
  5
674
  8
0
 62
1
 10
44.4567
 20
19.321
 30
0.0
 11
44.5823
 21
19.2758
 31
0.0
  0
LINE
  5
675
  8
0
 62
1
 10
44.5823
 20
19.2758
 30
0.0
 11
44.7048
 21
19.2228
 31
0.0
  0
LINE
  5
676
  8
0
 62
1
 10
44.7048
 20
19.2228
 30
0.0
 11
44.8237
 21
19.1622
 31
0.0
  0
LINE
  5
677
  8
0
 62
1
 10
44.8237
 20
19.1622
 30
0.0
 11
44.9386
 21
19.0942
 31
0.0
  0
LINE
  5
678
  8
0
 62
1
 10
44.9386
 20
19.0942
 30
0.0
 11
45.0491
 21
19.0192
 31
0.0
  0
LINE
  5
679
  8
0
 62
1
 10
45.0491
 20
19.0192
 30
0.0
 11
45.1545
 21
18.9373
 31
0.0
  0
LINE
  5
67A
  8
0
 62
1
 10
45.1545
 20
18.9373
 30
0.0
 11
45.2547
 21
18.8491
 31
0.0
  0
LINE
  5
67B
  8
0
 62
1
 10
45.2547
 20
18.8491
 30
0.0
 11
45.3491
 21
18.7547
 31
0.0
  0
LINE
  5
67C
  8
0
 62
1
 10
45.3491
 20
18.7547
 30
0.0
 11
45.4373
 21
18.6545
 31
0.0
  0
LINE
  5
67D
  8
0
 62
1
 10
45.4373
 20
18.6545
 30
0.0
 11
45.5192
 21
18.5491
 31
0.0
  0
LINE
  5
67E
  8
0
 62
1
 10
45.5192
 20
18.5491
 30
0.0
 11
45.5942
 21
18.4386
 31
0.0
  0
LINE
  5
67F
  8
0
 62
1
 10
45.5942
 20
18.4386
 30
0.0
 11
45.6622
 21
18.3237
 31
0.0
  0
LINE
  5
680
  8
0
 62
1
 10
45.6622
 20
18.3237
 30
0.0
 11
45.7228
 21
18.2048
 31
0.0
  0
LINE
  5
681
  8
0
 62
1
 10
45.7228
 20
18.2048
 30
0.0
 11
45.7758
 21
18.0823
 31
0.0
  0
LINE
  5
682
  8
0
 62
1
 10
45.7758
 20
18.0823
 30
0.0
 11
45.821
 21
17.9567
 31
0.0
  0
LINE
  5
683
  8
0
 62
1
 10
45.821
 20
17.9567
 30
0.0
 11
45.8582
 21
17.8285
 31
0.0
  0
LINE
  5
684
  8
0
 62
1
 10
45.8582
 20
17.8285
 30
0.0
 11
45.8874
 21
17.6982
 31
0.0
  0
LINE
  5
685
  8
0
 62
1
 10
45.8874
 20
17.6982
 30
0.0
 11
45.9082
 21
17.5663
 31
0.0
  0
LINE
  5
686
  8
0
 62
1
 10
45.9082
 20
17.5663
 30
0.0
 11
45.9208
 21
17.4334
 31
0.0
  0
LINE
  5
687
  8
0
 62
1
 10
45.9208
 20
17.4334
 30
0.0
 11
45.925
 21
17.3
 31
0.0
  0
LINE
  5
688
  8
0
 62
1
 10
45.925
 20
17.3
 30
0.0
 11
45.9208
 21
17.1666
 31
0.0
  0
LINE
  5
689
  8
0
 62
1
 10
45.9208
 20
17.1666
 30
0.0
 11
45.9082
 21
17.0337
 31
0.0
  0
LINE
  5
68A
  8
0
 62
1
 10
45.9082
 20
17.0337
 30
0.0
 11
45.8874
 21
16.9018
 31
0.0
  0
LINE
  5
68B
  8
0
 62
1
 10
45.8874
 20
16.9018
 30
0.0
 11
45.8582
 21
16.7715
 31
0.0
  0
LINE
  5
68C
  8
0
 62
1
 10
45.8582
 20
16.7715
 30
0.0
 11
45.821
 21
16.6433
 31
0.0
  0
LINE
  5
68D
  8
0
 62
1
 10
45.821
 20
16.6433
 30
0.0
 11
45.7758
 21
16.5177
 31
0.0
  0
LINE
  5
68E
  8
0
 62
1
 10
45.7758
 20
16.5177
 30
0.0
 11
45.7228
 21
16.3952
 31
0.0
  0
LINE
  5
68F
  8
0
 62
1
 10
45.7228
 20
16.3952
 30
0.0
 11
45.6622
 21
16.2763
 31
0.0
  0
LINE
  5
690
  8
0
 62
1
 10
45.6622
 20
16.2763
 30
0.0
 11
45.5942
 21
16.1614
 31
0.0
  0
LINE
  5
691
  8
0
 62
1
 10
45.5942
 20
16.1614
 30
0.0
 11
45.5192
 21
16.051
 31
0.0
  0
LINE
  5
692
  8
0
 62
1
 10
45.5192
 20
16.051
 30
0.0
 11
45.4373
 21
15.9455
 31
0.0
  0
LINE
  5
693
  8
0
 62
1
 10
45.4373
 20
15.9455
 30
0.0
 11
45.3491
 21
15.8454
 31
0.0
  0
LINE
  5
694
  8
0
 62
1
 10
45.3491
 20
15.8454
 30
0.0
 11
45.2547
 21
15.7509
 31
0.0
  0
LINE
  5
695
  8
0
 62
1
 10
45.2547
 20
15.7509
 30
0.0
 11
45.1545
 21
15.6627
 31
0.0
  0
LINE
  5
696
  8
0
 62
1
 10
45.1545
 20
15.6627
 30
0.0
 11
45.0491
 21
15.5808
 31
0.0
  0
LINE
  5
697
  8
0
 62
1
 10
45.0491
 20
15.5808
 30
0.0
 11
44.9386
 21
15.5058
 31
0.0
  0
LINE
  5
698
  8
0
 62
1
 10
44.9386
 20
15.5058
 30
0.0
 11
44.8237
 21
15.4379
 31
0.0
  0
LINE
  5
699
  8
0
 62
1
 10
44.8237
 20
15.4379
 30
0.0
 11
44.7048
 21
15.3772
 31
0.0
  0
LINE
  5
69A
  8
0
 62
1
 10
44.7048
 20
15.3772
 30
0.0
 11
44.5823
 21
15.3242
 31
0.0
  0
LINE
  5
69B
  8
0
 62
1
 10
44.5823
 20
15.3242
 30
0.0
 11
44.4567
 21
15.279
 31
0.0
  0
LINE
  5
69C
  8
0
 62
1
 10
44.4567
 20
15.279
 30
0.0
 11
44.3285
 21
15.2418
 31
0.0
  0
LINE
  5
69D
  8
0
 62
1
 10
44.3285
 20
15.2418
 30
0.0
 11
44.1982
 21
15.2126
 31
0.0
  0
LINE
  5
69E
  8
0
 62
1
 10
44.1982
 20
15.2126
 30
0.0
 11
44.0663
 21
15.1918
 31
0.0
  0
LINE
  5
69F
  8
0
 62
1
 10
44.0663
 20
15.1918
 30
0.0
 11
43.9334
 21
15.1792
 31
0.0
  0
LINE
  5
6A0
  8
0
 62
1
 10
43.9334
 20
15.1792
 30
0.0
 11
43.8
 21
15.175
 31
0.0
  0
LINE
  5
6A1
  8
0
 62
1
 10
43.8
 20
15.175
 30
0.0
 11
43.6666
 21
15.1792
 31
0.0
  0
LINE
  5
6A2
  8
0
 62
1
 10
77.5
 20
24.5
 30
0.0
 11
55.0
 21
24.5
 31
0.0
  0
LINE
  5
6A3
  8
0
 62
1
 10
55.0
 20
24.5
 30
0.0
 11
77.5
 21
2.0
 31
0.0
  0
LINE
  5
6A4
  8
0
 62
1
 10
77.5
 20
2.0
 30
0.0
 11
77.5
 21
24.5
 31
0.0
  0
LINE
  5
6A5
  8
0
 62
1
 10
70.1666
 20
15.1792
 30
0.0
 11
70.0337
 21
15.1918
 31
0.0
  0
LINE
  5
6A6
  8
0
 62
1
 10
70.0337
 20
15.1918
 30
0.0
 11
69.9018
 21
15.2126
 31
0.0
  0
LINE
  5
6A7
  8
0
 62
1
 10
69.9018
 20
15.2126
 30
0.0
 11
69.7715
 21
15.2418
 31
0.0
  0
LINE
  5
6A8
  8
0
 62
1
 10
69.7715
 20
15.2418
 30
0.0
 11
69.6433
 21
15.279
 31
0.0
  0
LINE
  5
6A9
  8
0
 62
1
 10
69.6433
 20
15.279
 30
0.0
 11
69.5177
 21
15.3242
 31
0.0
  0
LINE
  5
6AA
  8
0
 62
1
 10
69.5177
 20
15.3242
 30
0.0
 11
69.3952
 21
15.3772
 31
0.0
  0
LINE
  5
6AB
  8
0
 62
1
 10
69.3952
 20
15.3772
 30
0.0
 11
69.2763
 21
15.4379
 31
0.0
  0
LINE
  5
6AC
  8
0
 62
1
 10
69.2763
 20
15.4379
 30
0.0
 11
69.1614
 21
15.5058
 31
0.0
  0
LINE
  5
6AD
  8
0
 62
1
 10
69.1614
 20
15.5058
 30
0.0
 11
69.051
 21
15.5808
 31
0.0
  0
LINE
  5
6AE
  8
0
 62
1
 10
69.051
 20
15.5808
 30
0.0
 11
68.9455
 21
15.6627
 31
0.0
  0
LINE
  5
6AF
  8
0
 62
1
 10
68.9455
 20
15.6627
 30
0.0
 11
68.8454
 21
15.7509
 31
0.0
  0
LINE
  5
6B0
  8
0
 62
1
 10
68.8454
 20
15.7509
 30
0.0
 11
68.7509
 21
15.8454
 31
0.0
  0
LINE
  5
6B1
  8
0
 62
1
 10
68.7509
 20
15.8454
 30
0.0
 11
68.6627
 21
15.9455
 31
0.0
  0
LINE
  5
6B2
  8
0
 62
1
 10
68.6627
 20
15.9455
 30
0.0
 11
68.5808
 21
16.051
 31
0.0
  0
LINE
  5
6B3
  8
0
 62
1
 10
68.5808
 20
16.051
 30
0.0
 11
68.5058
 21
16.1614
 31
0.0
  0
LINE
  5
6B4
  8
0
 62
1
 10
68.5058
 20
16.1614
 30
0.0
 11
68.4379
 21
16.2763
 31
0.0
  0
LINE
  5
6B5
  8
0
 62
1
 10
68.4379
 20
16.2763
 30
0.0
 11
68.3772
 21
16.3952
 31
0.0
  0
LINE
  5
6B6
  8
0
 62
1
 10
68.3772
 20
16.3952
 30
0.0
 11
68.3242
 21
16.5177
 31
0.0
  0
LINE
  5
6B7
  8
0
 62
1
 10
68.3242
 20
16.5177
 30
0.0
 11
68.279
 21
16.6433
 31
0.0
  0
LINE
  5
6B8
  8
0
 62
1
 10
68.279
 20
16.6433
 30
0.0
 11
68.2418
 21
16.7715
 31
0.0
  0
LINE
  5
6B9
  8
0
 62
1
 10
68.2418
 20
16.7715
 30
0.0
 11
68.2126
 21
16.9018
 31
0.0
  0
LINE
  5
6BA
  8
0
 62
1
 10
68.2126
 20
16.9018
 30
0.0
 11
68.1918
 21
17.0337
 31
0.0
  0
LINE
  5
6BB
  8
0
 62
1
 10
68.1918
 20
17.0337
 30
0.0
 11
68.1792
 21
17.1666
 31
0.0
  0
LINE
  5
6BC
  8
0
 62
1
 10
68.1792
 20
17.1666
 30
0.0
 11
68.175
 21
17.3
 31
0.0
  0
LINE
  5
6BD
  8
0
 62
1
 10
68.175
 20
17.3
 30
0.0
 11
68.1792
 21
17.4334
 31
0.0
  0
LINE
  5
6BE
  8
0
 62
1
 10
68.1792
 20
17.4334
 30
0.0
 11
68.1918
 21
17.5663
 31
0.0
  0
LINE
  5
6BF
  8
0
 62
1
 10
68.1918
 20
17.5663
 30
0.0
 11
68.2126
 21
17.6982
 31
0.0
  0
LINE
  5
6C0
  8
0
 62
1
 10
68.2126
 20
17.6982
 30
0.0
 11
68.2418
 21
17.8285
 31
0.0
  0
LINE
  5
6C1
  8
0
 62
1
 10
68.2418
 20
17.8285
 30
0.0
 11
68.279
 21
17.9567
 31
0.0
  0
LINE
  5
6C2
  8
0
 62
1
 10
68.279
 20
17.9567
 30
0.0
 11
68.3242
 21
18.0823
 31
0.0
  0
LINE
  5
6C3
  8
0
 62
1
 10
68.3242
 20
18.0823
 30
0.0
 11
68.3772
 21
18.2048
 31
0.0
  0
LINE
  5
6C4
  8
0
 62
1
 10
68.3772
 20
18.2048
 30
0.0
 11
68.4379
 21
18.3237
 31
0.0
  0
LINE
  5
6C5
  8
0
 62
1
 10
68.4379
 20
18.3237
 30
0.0
 11
68.5058
 21
18.4386
 31
0.0
  0
LINE
  5
6C6
  8
0
 62
1
 10
68.5058
 20
18.4386
 30
0.0
 11
68.5808
 21
18.5491
 31
0.0
  0
LINE
  5
6C7
  8
0
 62
1
 10
68.5808
 20
18.5491
 30
0.0
 11
68.6627
 21
18.6545
 31
0.0
  0
LINE
  5
6C8
  8
0
 62
1
 10
68.6627
 20
18.6545
 30
0.0
 11
68.7509
 21
18.7547
 31
0.0
  0
LINE
  5
6C9
  8
0
 62
1
 10
68.7509
 20
18.7547
 30
0.0
 11
68.8454
 21
18.8491
 31
0.0
  0
LINE
  5
6CA
  8
0
 62
1
 10
68.8454
 20
18.8491
 30
0.0
 11
68.9455
 21
18.9373
 31
0.0
  0
LINE
  5
6CB
  8
0
 62
1
 10
68.9455
 20
18.9373
 30
0.0
 11
69.051
 21
19.0192
 31
0.0
  0
LINE
  5
6CC
  8
0
 62
1
 10
69.051
 20
19.0192
 30
0.0
 11
69.1614
 21
19.0942
 31
0.0
  0
LINE
  5
6CD
  8
0
 62
1
 10
69.1614
 20
19.0942
 30
0.0
 11
69.2763
 21
19.1622
 31
0.0
  0
LINE
  5
6CE
  8
0
 62
1
 10
69.2763
 20
19.1622
 30
0.0
 11
69.3952
 21
19.2228
 31
0.0
  0
LINE
  5
6CF
  8
0
 62
1
 10
69.3952
 20
19.2228
 30
0.0
 11
69.5177
 21
19.2758
 31
0.0
  0
LINE
  5
6D0
  8
0
 62
1
 10
69.5177
 20
19.2758
 30
0.0
 11
69.6433
 21
19.321
 31
0.0
  0
LINE
  5
6D1
  8
0
 62
1
 10
69.6433
 20
19.321
 30
0.0
 11
69.7715
 21
19.3582
 31
0.0
  0
LINE
  5
6D2
  8
0
 62
1
 10
69.7715
 20
19.3582
 30
0.0
 11
69.9018
 21
19.3874
 31
0.0
  0
LINE
  5
6D3
  8
0
 62
1
 10
69.9018
 20
19.3874
 30
0.0
 11
70.0337
 21
19.4082
 31
0.0
  0
LINE
  5
6D4
  8
0
 62
1
 10
70.0337
 20
19.4082
 30
0.0
 11
70.1666
 21
19.4208
 31
0.0
  0
LINE
  5
6D5
  8
0
 62
1
 10
70.1666
 20
19.4208
 30
0.0
 11
70.3
 21
19.425
 31
0.0
  0
LINE
  5
6D6
  8
0
 62
1
 10
70.3
 20
19.425
 30
0.0
 11
70.4334
 21
19.4208
 31
0.0
  0
LINE
  5
6D7
  8
0
 62
1
 10
70.4334
 20
19.4208
 30
0.0
 11
70.5663
 21
19.4082
 31
0.0
  0
LINE
  5
6D8
  8
0
 62
1
 10
70.5663
 20
19.4082
 30
0.0
 11
70.6982
 21
19.3874
 31
0.0
  0
LINE
  5
6D9
  8
0
 62
1
 10
70.6982
 20
19.3874
 30
0.0
 11
70.8285
 21
19.3582
 31
0.0
  0
LINE
  5
6DA
  8
0
 62
1
 10
70.8285
 20
19.3582
 30
0.0
 11
70.9567
 21
19.321
 31
0.0
  0
LINE
  5
6DB
  8
0
 62
1
 10
70.9567
 20
19.321
 30
0.0
 11
71.0823
 21
19.2758
 31
0.0
  0
LINE
  5
6DC
  8
0
 62
1
 10
71.0823
 20
19.2758
 30
0.0
 11
71.2048
 21
19.2228
 31
0.0
  0
LINE
  5
6DD
  8
0
 62
1
 10
71.2048
 20
19.2228
 30
0.0
 11
71.3237
 21
19.1622
 31
0.0
  0
LINE
  5
6DE
  8
0
 62
1
 10
71.3237
 20
19.1622
 30
0.0
 11
71.4386
 21
19.0942
 31
0.0
  0
LINE
  5
6DF
  8
0
 62
1
 10
71.4386
 20
19.0942
 30
0.0
 11
71.5491
 21
19.0192
 31
0.0
  0
LINE
  5
6E0
  8
0
 62
1
 10
71.5491
 20
19.0192
 30
0.0
 11
71.6545
 21
18.9373
 31
0.0
  0
LINE
  5
6E1
  8
0
 62
1
 10
71.6545
 20
18.9373
 30
0.0
 11
71.7547
 21
18.8491
 31
0.0
  0
LINE
  5
6E2
  8
0
 62
1
 10
71.7547
 20
18.8491
 30
0.0
 11
71.8491
 21
18.7547
 31
0.0
  0
LINE
  5
6E3
  8
0
 62
1
 10
71.8491
 20
18.7547
 30
0.0
 11
71.9373
 21
18.6545
 31
0.0
  0
LINE
  5
6E4
  8
0
 62
1
 10
71.9373
 20
18.6545
 30
0.0
 11
72.0192
 21
18.5491
 31
0.0
  0
LINE
  5
6E5
  8
0
 62
1
 10
72.0192
 20
18.5491
 30
0.0
 11
72.0942
 21
18.4386
 31
0.0
  0
LINE
  5
6E6
  8
0
 62
1
 10
72.0942
 20
18.4386
 30
0.0
 11
72.1622
 21
18.3237
 31
0.0
  0
LINE
  5
6E7
  8
0
 62
1
 10
72.1622
 20
18.3237
 30
0.0
 11
72.2228
 21
18.2048
 31
0.0
  0
LINE
  5
6E8
  8
0
 62
1
 10
72.2228
 20
18.2048
 30
0.0
 11
72.2758
 21
18.0823
 31
0.0
  0
LINE
  5
6E9
  8
0
 62
1
 10
72.2758
 20
18.0823
 30
0.0
 11
72.321
 21
17.9567
 31
0.0
  0
LINE
  5
6EA
  8
0
 62
1
 10
72.321
 20
17.9567
 30
0.0
 11
72.3582
 21
17.8285
 31
0.0
  0
LINE
  5
6EB
  8
0
 62
1
 10
72.3582
 20
17.8285
 30
0.0
 11
72.3874
 21
17.6982
 31
0.0
  0
LINE
  5
6EC
  8
0
 62
1
 10
72.3874
 20
17.6982
 30
0.0
 11
72.4082
 21
17.5663
 31
0.0
  0
LINE
  5
6ED
  8
0
 62
1
 10
72.4082
 20
17.5663
 30
0.0
 11
72.4208
 21
17.4334
 31
0.0
  0
LINE
  5
6EE
  8
0
 62
1
 10
72.4208
 20
17.4334
 30
0.0
 11
72.425
 21
17.3
 31
0.0
  0
LINE
  5
6EF
  8
0
 62
1
 10
72.425
 20
17.3
 30
0.0
 11
72.4208
 21
17.1666
 31
0.0
  0
LINE
  5
6F0
  8
0
 62
1
 10
72.4208
 20
17.1666
 30
0.0
 11
72.4082
 21
17.0337
 31
0.0
  0
LINE
  5
6F1
  8
0
 62
1
 10
72.4082
 20
17.0337
 30
0.0
 11
72.3874
 21
16.9018
 31
0.0
  0
LINE
  5
6F2
  8
0
 62
1
 10
72.3874
 20
16.9018
 30
0.0
 11
72.3582
 21
16.7715
 31
0.0
  0
LINE
  5
6F3
  8
0
 62
1
 10
72.3582
 20
16.7715
 30
0.0
 11
72.321
 21
16.6433
 31
0.0
  0
LINE
  5
6F4
  8
0
 62
1
 10
72.321
 20
16.6433
 30
0.0
 11
72.2758
 21
16.5177
 31
0.0
  0
LINE
  5
6F5
  8
0
 62
1
 10
72.2758
 20
16.5177
 30
0.0
 11
72.2228
 21
16.3952
 31
0.0
  0
LINE
  5
6F6
  8
0
 62
1
 10
72.2228
 20
16.3952
 30
0.0
 11
72.1622
 21
16.2763
 31
0.0
  0
LINE
  5
6F7
  8
0
 62
1
 10
72.1622
 20
16.2763
 30
0.0
 11
72.0942
 21
16.1614
 31
0.0
  0
LINE
  5
6F8
  8
0
 62
1
 10
72.0942
 20
16.1614
 30
0.0
 11
72.0192
 21
16.051
 31
0.0
  0
LINE
  5
6F9
  8
0
 62
1
 10
72.0192
 20
16.051
 30
0.0
 11
71.9373
 21
15.9455
 31
0.0
  0
LINE
  5
6FA
  8
0
 62
1
 10
71.9373
 20
15.9455
 30
0.0
 11
71.8491
 21
15.8454
 31
0.0
  0
LINE
  5
6FB
  8
0
 62
1
 10
71.8491
 20
15.8454
 30
0.0
 11
71.7547
 21
15.7509
 31
0.0
  0
LINE
  5
6FC
  8
0
 62
1
 10
71.7547
 20
15.7509
 30
0.0
 11
71.6545
 21
15.6627
 31
0.0
  0
LINE
  5
6FD
  8
0
 62
1
 10
71.6545
 20
15.6627
 30
0.0
 11
71.5491
 21
15.5808
 31
0.0
  0
LINE
  5
6FE
  8
0
 62
1
 10
71.5491
 20
15.5808
 30
0.0
 11
71.4386
 21
15.5058
 31
0.0
  0
LINE
  5
6FF
  8
0
 62
1
 10
71.4386
 20
15.5058
 30
0.0
 11
71.3237
 21
15.4379
 31
0.0
  0
LINE
  5
700
  8
0
 62
1
 10
71.3237
 20
15.4379
 30
0.0
 11
71.2048
 21
15.3772
 31
0.0
  0
LINE
  5
701
  8
0
 62
1
 10
71.2048
 20
15.3772
 30
0.0
 11
71.0823
 21
15.3242
 31
0.0
  0
LINE
  5
702
  8
0
 62
1
 10
71.0823
 20
15.3242
 30
0.0
 11
70.9567
 21
15.279
 31
0.0
  0
LINE
  5
703
  8
0
 62
1
 10
70.9567
 20
15.279
 30
0.0
 11
70.8285
 21
15.2418
 31
0.0
  0
LINE
  5
704
  8
0
 62
1
 10
70.8285
 20
15.2418
 30
0.0
 11
70.6982
 21
15.2126
 31
0.0
  0
LINE
  5
705
  8
0
 62
1
 10
70.6982
 20
15.2126
 30
0.0
 11
70.5663
 21
15.1918
 31
0.0
  0
LINE
  5
706
  8
0
 62
1
 10
70.5663
 20
15.1918
 30
0.0
 11
70.4334
 21
15.1792
 31
0.0
  0
LINE
  5
707
  8
0
 62
1
 10
70.4334
 20
15.1792
 30
0.0
 11
70.3
 21
15.175
 31
0.0
  0
LINE
  5
708
  8
0
 62
1
 10
70.3
 20
15.175
 30
0.0
 11
70.1666
 21
15.1792
 31
0.0
  0
LINE
  5
709
  8
0
 62
1
 10
53.0
 20
22.5
 30
0.0
 11
53.0
 21
0.0
 31
0.0
  0
LINE
  5
70A
  8
0
 62
1
 10
53.0
 20
0.0
 30
0.0
 11
75.5
 21
0.0
 31
0.0
  0
LINE
  5
70B
  8
0
 62
1
 10
75.5
 20
0.0
 30
0.0
 11
53.0
 21
22.5
 31
0.0
  0
LINE
  5
70C
  8
0
 62
1
 10
60.0666
 20
5.07919
 30
0.0
 11
59.9337
 21
5.09175
 31
0.0
  0
LINE
  5
70D
  8
0
 62
1
 10
59.9337
 20
5.09175
 30
0.0
 11
59.8018
 21
5.11263
 31
0.0
  0
LINE
  5
70E
  8
0
 62
1
 10
59.8018
 20
5.11263
 30
0.0
 11
59.6715
 21
5.14175
 31
0.0
  0
LINE
  5
70F
  8
0
 62
1
 10
59.6715
 20
5.14175
 30
0.0
 11
59.5433
 21
5.179
 31
0.0
  0
LINE
  5
710
  8
0
 62
1
 10
59.5433
 20
5.179
 30
0.0
 11
59.4177
 21
5.22421
 31
0.0
  0
LINE
  5
711
  8
0
 62
1
 10
59.4177
 20
5.22421
 30
0.0
 11
59.2952
 21
5.27724
 31
0.0
  0
LINE
  5
712
  8
0
 62
1
 10
59.2952
 20
5.27724
 30
0.0
 11
59.1763
 21
5.33784
 31
0.0
  0
LINE
  5
713
  8
0
 62
1
 10
59.1763
 20
5.33784
 30
0.0
 11
59.0614
 21
5.40579
 31
0.0
  0
LINE
  5
714
  8
0
 62
1
 10
59.0614
 20
5.40579
 30
0.0
 11
58.9509
 21
5.48083
 31
0.0
  0
LINE
  5
715
  8
0
 62
1
 10
58.9509
 20
5.48083
 30
0.0
 11
58.8455
 21
5.56265
 31
0.0
  0
LINE
  5
716
  8
0
 62
1
 10
58.8455
 20
5.56265
 30
0.0
 11
58.7453
 21
5.65094
 31
0.0
  0
LINE
  5
717
  8
0
 62
1
 10
58.7453
 20
5.65094
 30
0.0
 11
58.6509
 21
5.74533
 31
0.0
  0
LINE
  5
718
  8
0
 62
1
 10
58.6509
 20
5.74533
 30
0.0
 11
58.5627
 21
5.84546
 31
0.0
  0
LINE
  5
719
  8
0
 62
1
 10
58.5627
 20
5.84546
 30
0.0
 11
58.4808
 21
5.95094
 31
0.0
  0
LINE
  5
71A
  8
0
 62
1
 10
58.4808
 20
5.95094
 30
0.0
 11
58.4058
 21
6.06136
 31
0.0
  0
LINE
  5
71B
  8
0
 62
1
 10
58.4058
 20
6.06136
 30
0.0
 11
58.3378
 21
6.17627
 31
0.0
  0
LINE
  5
71C
  8
0
 62
1
 10
58.3378
 20
6.17627
 30
0.0
 11
58.2772
 21
6.29521
 31
0.0
  0
LINE
  5
71D
  8
0
 62
1
 10
58.2772
 20
6.29521
 30
0.0
 11
58.2242
 21
6.41772
 31
0.0
  0
LINE
  5
71E
  8
0
 62
1
 10
58.2242
 20
6.41772
 30
0.0
 11
58.179
 21
6.54333
 31
0.0
  0
LINE
  5
71F
  8
0
 62
1
 10
58.179
 20
6.54333
 30
0.0
 11
58.1418
 21
6.67152
 31
0.0
  0
LINE
  5
720
  8
0
 62
1
 10
58.1418
 20
6.67152
 30
0.0
 11
58.1126
 21
6.8018
 31
0.0
  0
LINE
  5
721
  8
0
 62
1
 10
58.1126
 20
6.8018
 30
0.0
 11
58.0918
 21
6.93365
 31
0.0
  0
LINE
  5
722
  8
0
 62
1
 10
58.0918
 20
6.93365
 30
0.0
 11
58.0792
 21
7.06656
 31
0.0
  0
LINE
  5
723
  8
0
 62
1
 10
58.0792
 20
7.06656
 30
0.0
 11
58.075
 21
7.2
 31
0.0
  0
LINE
  5
724
  8
0
 62
1
 10
58.075
 20
7.2
 30
0.0
 11
58.0792
 21
7.33342
 31
0.0
  0
LINE
  5
725
  8
0
 62
1
 10
58.0792
 20
7.33342
 30
0.0
 11
58.0918
 21
7.46632
 31
0.0
  0
LINE
  5
726
  8
0
 62
1
 10
58.0918
 20
7.46632
 30
0.0
 11
58.1126
 21
7.59818
 31
0.0
  0
LINE
  5
727
  8
0
 62
1
 10
58.1126
 20
7.59818
 30
0.0
 11
58.1418
 21
7.72845
 31
0.0
  0
LINE
  5
728
  8
0
 62
1
 10
58.1418
 20
7.72845
 30
0.0
 11
58.179
 21
7.85666
 31
0.0
  0
LINE
  5
729
  8
0
 62
1
 10
58.179
 20
7.85666
 30
0.0
 11
58.2242
 21
7.98225
 31
0.0
  0
LINE
  5
72A
  8
0
 62
1
 10
58.2242
 20
7.98225
 30
0.0
 11
58.2772
 21
8.10477
 31
0.0
  0
LINE
  5
72B
  8
0
 62
1
 10
58.2772
 20
8.10477
 30
0.0
 11
58.3378
 21
8.22372
 31
0.0
  0
LINE
  5
72C
  8
0
 62
1
 10
58.3378
 20
8.22372
 30
0.0
 11
58.4058
 21
8.33862
 31
0.0
  0
LINE
  5
72D
  8
0
 62
1
 10
58.4058
 20
8.33862
 30
0.0
 11
58.4808
 21
8.44904
 31
0.0
  0
LINE
  5
72E
  8
0
 62
1
 10
58.4808
 20
8.44904
 30
0.0
 11
58.5627
 21
8.55452
 31
0.0
  0
LINE
  5
72F
  8
0
 62
1
 10
58.5627
 20
8.55452
 30
0.0
 11
58.6509
 21
8.65465
 31
0.0
  0
LINE
  5
730
  8
0
 62
1
 10
58.6509
 20
8.65465
 30
0.0
 11
58.7453
 21
8.74905
 31
0.0
  0
LINE
  5
731
  8
0
 62
1
 10
58.7453
 20
8.74905
 30
0.0
 11
58.8455
 21
8.83733
 31
0.0
  0
LINE
  5
732
  8
0
 62
1
 10
58.8455
 20
8.83733
 30
0.0
 11
58.9509
 21
8.91916
 31
0.0
  0
LINE
  5
733
  8
0
 62
1
 10
58.9509
 20
8.91916
 30
0.0
 11
59.0614
 21
8.99419
 31
0.0
  0
LINE
  5
734
  8
0
 62
1
 10
59.0614
 20
8.99419
 30
0.0
 11
59.1763
 21
9.06215
 31
0.0
  0
LINE
  5
735
  8
0
 62
1
 10
59.1763
 20
9.06215
 30
0.0
 11
59.2952
 21
9.12276
 31
0.0
  0
LINE
  5
736
  8
0
 62
1
 10
59.2952
 20
9.12276
 30
0.0
 11
59.4177
 21
9.17577
 31
0.0
  0
LINE
  5
737
  8
0
 62
1
 10
59.4177
 20
9.17577
 30
0.0
 11
59.5433
 21
9.22099
 31
0.0
  0
LINE
  5
738
  8
0
 62
1
 10
59.5433
 20
9.22099
 30
0.0
 11
59.6715
 21
9.25822
 31
0.0
  0
LINE
  5
739
  8
0
 62
1
 10
59.6715
 20
9.25822
 30
0.0
 11
59.8018
 21
9.28735
 31
0.0
  0
LINE
  5
73A
  8
0
 62
1
 10
59.8018
 20
9.28735
 30
0.0
 11
59.9337
 21
9.30824
 31
0.0
  0
LINE
  5
73B
  8
0
 62
1
 10
59.9337
 20
9.30824
 30
0.0
 11
60.0666
 21
9.3208
 31
0.0
  0
LINE
  5
73C
  8
0
 62
1
 10
60.0666
 20
9.3208
 30
0.0
 11
60.2
 21
9.325
 31
0.0
  0
LINE
  5
73D
  8
0
 62
1
 10
60.2
 20
9.325
 30
0.0
 11
60.3334
 21
9.3208
 31
0.0
  0
LINE
  5
73E
  8
0
 62
1
 10
60.3334
 20
9.3208
 30
0.0
 11
60.4663
 21
9.30824
 31
0.0
  0
LINE
  5
73F
  8
0
 62
1
 10
60.4663
 20
9.30824
 30
0.0
 11
60.5982
 21
9.28735
 31
0.0
  0
LINE
  5
740
  8
0
 62
1
 10
60.5982
 20
9.28735
 30
0.0
 11
60.7285
 21
9.25822
 31
0.0
  0
LINE
  5
741
  8
0
 62
1
 10
60.7285
 20
9.25822
 30
0.0
 11
60.8567
 21
9.22099
 31
0.0
  0
LINE
  5
742
  8
0
 62
1
 10
60.8567
 20
9.22099
 30
0.0
 11
60.9823
 21
9.17577
 31
0.0
  0
LINE
  5
743
  8
0
 62
1
 10
60.9823
 20
9.17577
 30
0.0
 11
61.1048
 21
9.12276
 31
0.0
  0
LINE
  5
744
  8
0
 62
1
 10
61.1048
 20
9.12276
 30
0.0
 11
61.2237
 21
9.06215
 31
0.0
  0
LINE
  5
745
  8
0
 62
1
 10
61.2237
 20
9.06215
 30
0.0
 11
61.3386
 21
8.99419
 31
0.0
  0
LINE
  5
746
  8
0
 62
1
 10
61.3386
 20
8.99419
 30
0.0
 11
61.449
 21
8.91916
 31
0.0
  0
LINE
  5
747
  8
0
 62
1
 10
61.449
 20
8.91916
 30
0.0
 11
61.5545
 21
8.83733
 31
0.0
  0
LINE
  5
748
  8
0
 62
1
 10
61.5545
 20
8.83733
 30
0.0
 11
61.6546
 21
8.74905
 31
0.0
  0
LINE
  5
749
  8
0
 62
1
 10
61.6546
 20
8.74905
 30
0.0
 11
61.7491
 21
8.65465
 31
0.0
  0
LINE
  5
74A
  8
0
 62
1
 10
61.7491
 20
8.65465
 30
0.0
 11
61.8373
 21
8.55452
 31
0.0
  0
LINE
  5
74B
  8
0
 62
1
 10
61.8373
 20
8.55452
 30
0.0
 11
61.9192
 21
8.44904
 31
0.0
  0
LINE
  5
74C
  8
0
 62
1
 10
61.9192
 20
8.44904
 30
0.0
 11
61.9942
 21
8.33862
 31
0.0
  0
LINE
  5
74D
  8
0
 62
1
 10
61.9942
 20
8.33862
 30
0.0
 11
62.0621
 21
8.22372
 31
0.0
  0
LINE
  5
74E
  8
0
 62
1
 10
62.0621
 20
8.22372
 30
0.0
 11
62.1228
 21
8.10477
 31
0.0
  0
LINE
  5
74F
  8
0
 62
1
 10
62.1228
 20
8.10477
 30
0.0
 11
62.1758
 21
7.98225
 31
0.0
  0
LINE
  5
750
  8
0
 62
1
 10
62.1758
 20
7.98225
 30
0.0
 11
62.221
 21
7.85666
 31
0.0
  0
LINE
  5
751
  8
0
 62
1
 10
62.221
 20
7.85666
 30
0.0
 11
62.2582
 21
7.72845
 31
0.0
  0
LINE
  5
752
  8
0
 62
1
 10
62.2582
 20
7.72845
 30
0.0
 11
62.2874
 21
7.59818
 31
0.0
  0
LINE
  5
753
  8
0
 62
1
 10
62.2874
 20
7.59818
 30
0.0
 11
62.3082
 21
7.46632
 31
0.0
  0
LINE
  5
754
  8
0
 62
1
 10
62.3082
 20
7.46632
 30
0.0
 11
62.3208
 21
7.33342
 31
0.0
  0
LINE
  5
755
  8
0
 62
1
 10
62.3208
 20
7.33342
 30
0.0
 11
62.325
 21
7.2
 31
0.0
  0
LINE
  5
756
  8
0
 62
1
 10
62.325
 20
7.2
 30
0.0
 11
62.3208
 21
7.06656
 31
0.0
  0
LINE
  5
757
  8
0
 62
1
 10
62.3208
 20
7.06656
 30
0.0
 11
62.3082
 21
6.93365
 31
0.0
  0
LINE
  5
758
  8
0
 62
1
 10
62.3082
 20
6.93365
 30
0.0
 11
62.2874
 21
6.8018
 31
0.0
  0
LINE
  5
759
  8
0
 62
1
 10
62.2874
 20
6.8018
 30
0.0
 11
62.2582
 21
6.67152
 31
0.0
  0
LINE
  5
75A
  8
0
 62
1
 10
62.2582
 20
6.67152
 30
0.0
 11
62.221
 21
6.54333
 31
0.0
  0
LINE
  5
75B
  8
0
 62
1
 10
62.221
 20
6.54333
 30
0.0
 11
62.1758
 21
6.41772
 31
0.0
  0
LINE
  5
75C
  8
0
 62
1
 10
62.1758
 20
6.41772
 30
0.0
 11
62.1228
 21
6.29521
 31
0.0
  0
LINE
  5
75D
  8
0
 62
1
 10
62.1228
 20
6.29521
 30
0.0
 11
62.0621
 21
6.17627
 31
0.0
  0
LINE
  5
75E
  8
0
 62
1
 10
62.0621
 20
6.17627
 30
0.0
 11
61.9942
 21
6.06136
 31
0.0
  0
LINE
  5
75F
  8
0
 62
1
 10
61.9942
 20
6.06136
 30
0.0
 11
61.9192
 21
5.95094
 31
0.0
  0
LINE
  5
760
  8
0
 62
1
 10
61.9192
 20
5.95094
 30
0.0
 11
61.8373
 21
5.84546
 31
0.0
  0
LINE
  5
761
  8
0
 62
1
 10
61.8373
 20
5.84546
 30
0.0
 11
61.7491
 21
5.74533
 31
0.0
  0
LINE
  5
762
  8
0
 62
1
 10
61.7491
 20
5.74533
 30
0.0
 11
61.6546
 21
5.65094
 31
0.0
  0
LINE
  5
763
  8
0
 62
1
 10
61.6546
 20
5.65094
 30
0.0
 11
61.5545
 21
5.56265
 31
0.0
  0
LINE
  5
764
  8
0
 62
1
 10
61.5545
 20
5.56265
 30
0.0
 11
61.449
 21
5.48083
 31
0.0
  0
LINE
  5
765
  8
0
 62
1
 10
61.449
 20
5.48083
 30
0.0
 11
61.3386
 21
5.40579
 31
0.0
  0
LINE
  5
766
  8
0
 62
1
 10
61.3386
 20
5.40579
 30
0.0
 11
61.2237
 21
5.33784
 31
0.0
  0
LINE
  5
767
  8
0
 62
1
 10
61.2237
 20
5.33784
 30
0.0
 11
61.1048
 21
5.27724
 31
0.0
  0
LINE
  5
768
  8
0
 62
1
 10
61.1048
 20
5.27724
 30
0.0
 11
60.9823
 21
5.22421
 31
0.0
  0
LINE
  5
769
  8
0
 62
1
 10
60.9823
 20
5.22421
 30
0.0
 11
60.8567
 21
5.179
 31
0.0
  0
LINE
  5
76A
  8
0
 62
1
 10
60.8567
 20
5.179
 30
0.0
 11
60.7285
 21
5.14175
 31
0.0
  0
LINE
  5
76B
  8
0
 62
1
 10
60.7285
 20
5.14175
 30
0.0
 11
60.5982
 21
5.11263
 31
0.0
  0
LINE
  5
76C
  8
0
 62
1
 10
60.5982
 20
5.11263
 30
0.0
 11
60.4663
 21
5.09175
 31
0.0
  0
LINE
  5
76D
  8
0
 62
1
 10
60.4663
 20
5.09175
 30
0.0
 11
60.3334
 21
5.07919
 31
0.0
  0
LINE
  5
76E
  8
0
 62
1
 10
60.3334
 20
5.07919
 30
0.0
 11
60.2
 21
5.075
 31
0.0
  0
LINE
  5
76F
  8
0
 62
1
 10
60.2
 20
5.075
 30
0.0
 11
60.0666
 21
5.07919
 31
0.0
  0
LINE
  5
770
  8
0
 62
1
 10
0.0
 20
22.5
 30
0.0
 11
0.0
 21
0.0
 31
0.0
  0
LINE
  5
771
  8
0
 62
1
 10
0.0
 20
0.0
 30
0.0
 11
22.5
 21
0.0
 31
0.0
  0
LINE
  5
772
  8
0
 62
1
 10
22.5
 20
0.0
 30
0.0
 11
0.0
 21
22.5
 31
0.0
  0
LINE
  5
773
  8
0
 62
1
 10
7.06656
 20
5.07919
 30
0.0
 11
6.93365
 21
5.09175
 31
0.0
  0
LINE
  5
774
  8
0
 62
1
 10
6.93365
 20
5.09175
 30
0.0
 11
6.8018
 21
5.11263
 31
0.0
  0
LINE
  5
775
  8
0
 62
1
 10
6.8018
 20
5.11263
 30
0.0
 11
6.67152
 21
5.14175
 31
0.0
  0
LINE
  5
776
  8
0
 62
1
 10
6.67152
 20
5.14175
 30
0.0
 11
6.54333
 21
5.179
 31
0.0
  0
LINE
  5
777
  8
0
 62
1
 10
6.54333
 20
5.179
 30
0.0
 11
6.41772
 21
5.22421
 31
0.0
  0
LINE
  5
778
  8
0
 62
1
 10
6.41772
 20
5.22421
 30
0.0
 11
6.29521
 21
5.27724
 31
0.0
  0
LINE
  5
779
  8
0
 62
1
 10
6.29521
 20
5.27724
 30
0.0
 11
6.17627
 21
5.33784
 31
0.0
  0
LINE
  5
77A
  8
0
 62
1
 10
6.17627
 20
5.33784
 30
0.0
 11
6.06136
 21
5.40579
 31
0.0
  0
LINE
  5
77B
  8
0
 62
1
 10
6.06136
 20
5.40579
 30
0.0
 11
5.95094
 21
5.48083
 31
0.0
  0
LINE
  5
77C
  8
0
 62
1
 10
5.95094
 20
5.48083
 30
0.0
 11
5.84546
 21
5.56265
 31
0.0
  0
LINE
  5
77D
  8
0
 62
1
 10
5.84546
 20
5.56265
 30
0.0
 11
5.74533
 21
5.65094
 31
0.0
  0
LINE
  5
77E
  8
0
 62
1
 10
5.74533
 20
5.65094
 30
0.0
 11
5.65094
 21
5.74533
 31
0.0
  0
LINE
  5
77F
  8
0
 62
1
 10
5.65094
 20
5.74533
 30
0.0
 11
5.56265
 21
5.84546
 31
0.0
  0
LINE
  5
780
  8
0
 62
1
 10
5.56265
 20
5.84546
 30
0.0
 11
5.48083
 21
5.95094
 31
0.0
  0
LINE
  5
781
  8
0
 62
1
 10
5.48083
 20
5.95094
 30
0.0
 11
5.40579
 21
6.06136
 31
0.0
  0
LINE
  5
782
  8
0
 62
1
 10
5.40579
 20
6.06136
 30
0.0
 11
5.33784
 21
6.17627
 31
0.0
  0
LINE
  5
783
  8
0
 62
1
 10
5.33784
 20
6.17627
 30
0.0
 11
5.27724
 21
6.29521
 31
0.0
  0
LINE
  5
784
  8
0
 62
1
 10
5.27724
 20
6.29521
 30
0.0
 11
5.22421
 21
6.41772
 31
0.0
  0
LINE
  5
785
  8
0
 62
1
 10
5.22421
 20
6.41772
 30
0.0
 11
5.179
 21
6.54333
 31
0.0
  0
LINE
  5
786
  8
0
 62
1
 10
5.179
 20
6.54333
 30
0.0
 11
5.14175
 21
6.67152
 31
0.0
  0
LINE
  5
787
  8
0
 62
1
 10
5.14175
 20
6.67152
 30
0.0
 11
5.11263
 21
6.8018
 31
0.0
  0
LINE
  5
788
  8
0
 62
1
 10
5.11263
 20
6.8018
 30
0.0
 11
5.09175
 21
6.93365
 31
0.0
  0
LINE
  5
789
  8
0
 62
1
 10
5.09175
 20
6.93365
 30
0.0
 11
5.07919
 21
7.06656
 31
0.0
  0
LINE
  5
78A
  8
0
 62
1
 10
5.07919
 20
7.06656
 30
0.0
 11
5.075
 21
7.2
 31
0.0
  0
LINE
  5
78B
  8
0
 62
1
 10
5.075
 20
7.2
 30
0.0
 11
5.07919
 21
7.33342
 31
0.0
  0
LINE
  5
78C
  8
0
 62
1
 10
5.07919
 20
7.33342
 30
0.0
 11
5.09175
 21
7.46632
 31
0.0
  0
LINE
  5
78D
  8
0
 62
1
 10
5.09175
 20
7.46632
 30
0.0
 11
5.11263
 21
7.59818
 31
0.0
  0
LINE
  5
78E
  8
0
 62
1
 10
5.11263
 20
7.59818
 30
0.0
 11
5.14175
 21
7.72845
 31
0.0
  0
LINE
  5
78F
  8
0
 62
1
 10
5.14175
 20
7.72845
 30
0.0
 11
5.179
 21
7.85666
 31
0.0
  0
LINE
  5
790
  8
0
 62
1
 10
5.179
 20
7.85666
 30
0.0
 11
5.22421
 21
7.98225
 31
0.0
  0
LINE
  5
791
  8
0
 62
1
 10
5.22421
 20
7.98225
 30
0.0
 11
5.27724
 21
8.10477
 31
0.0
  0
LINE
  5
792
  8
0
 62
1
 10
5.27724
 20
8.10477
 30
0.0
 11
5.33784
 21
8.22372
 31
0.0
  0
LINE
  5
793
  8
0
 62
1
 10
5.33784
 20
8.22372
 30
0.0
 11
5.40579
 21
8.33862
 31
0.0
  0
LINE
  5
794
  8
0
 62
1
 10
5.40579
 20
8.33862
 30
0.0
 11
5.48083
 21
8.44904
 31
0.0
  0
LINE
  5
795
  8
0
 62
1
 10
5.48083
 20
8.44904
 30
0.0
 11
5.56265
 21
8.55452
 31
0.0
  0
LINE
  5
796
  8
0
 62
1
 10
5.56265
 20
8.55452
 30
0.0
 11
5.65094
 21
8.65465
 31
0.0
  0
LINE
  5
797
  8
0
 62
1
 10
5.65094
 20
8.65465
 30
0.0
 11
5.74533
 21
8.74905
 31
0.0
  0
LINE
  5
798
  8
0
 62
1
 10
5.74533
 20
8.74905
 30
0.0
 11
5.84546
 21
8.83733
 31
0.0
  0
LINE
  5
799
  8
0
 62
1
 10
5.84546
 20
8.83733
 30
0.0
 11
5.95094
 21
8.91916
 31
0.0
  0
LINE
  5
79A
  8
0
 62
1
 10
5.95094
 20
8.91916
 30
0.0
 11
6.06136
 21
8.99419
 31
0.0
  0
LINE
  5
79B
  8
0
 62
1
 10
6.06136
 20
8.99419
 30
0.0
 11
6.17627
 21
9.06215
 31
0.0
  0
LINE
  5
79C
  8
0
 62
1
 10
6.17627
 20
9.06215
 30
0.0
 11
6.29521
 21
9.12276
 31
0.0
  0
LINE
  5
79D
  8
0
 62
1
 10
6.29521
 20
9.12276
 30
0.0
 11
6.41772
 21
9.17577
 31
0.0
  0
LINE
  5
79E
  8
0
 62
1
 10
6.41772
 20
9.17577
 30
0.0
 11
6.54333
 21
9.22099
 31
0.0
  0
LINE
  5
79F
  8
0
 62
1
 10
6.54333
 20
9.22099
 30
0.0
 11
6.67152
 21
9.25822
 31
0.0
  0
LINE
  5
7A0
  8
0
 62
1
 10
6.67152
 20
9.25822
 30
0.0
 11
6.8018
 21
9.28735
 31
0.0
  0
LINE
  5
7A1
  8
0
 62
1
 10
6.8018
 20
9.28735
 30
0.0
 11
6.93365
 21
9.30824
 31
0.0
  0
LINE
  5
7A2
  8
0
 62
1
 10
6.93365
 20
9.30824
 30
0.0
 11
7.06656
 21
9.3208
 31
0.0
  0
LINE
  5
7A3
  8
0
 62
1
 10
7.06656
 20
9.3208
 30
0.0
 11
7.2
 21
9.325
 31
0.0
  0
LINE
  5
7A4
  8
0
 62
1
 10
7.2
 20
9.325
 30
0.0
 11
7.33342
 21
9.3208
 31
0.0
  0
LINE
  5
7A5
  8
0
 62
1
 10
7.33342
 20
9.3208
 30
0.0
 11
7.46632
 21
9.30824
 31
0.0
  0
LINE
  5
7A6
  8
0
 62
1
 10
7.46632
 20
9.30824
 30
0.0
 11
7.59818
 21
9.28735
 31
0.0
  0
LINE
  5
7A7
  8
0
 62
1
 10
7.59818
 20
9.28735
 30
0.0
 11
7.72845
 21
9.25822
 31
0.0
  0
LINE
  5
7A8
  8
0
 62
1
 10
7.72845
 20
9.25822
 30
0.0
 11
7.85666
 21
9.22099
 31
0.0
  0
LINE
  5
7A9
  8
0
 62
1
 10
7.85666
 20
9.22099
 30
0.0
 11
7.98225
 21
9.17577
 31
0.0
  0
LINE
  5
7AA
  8
0
 62
1
 10
7.98225
 20
9.17577
 30
0.0
 11
8.10477
 21
9.12276
 31
0.0
  0
LINE
  5
7AB
  8
0
 62
1
 10
8.10477
 20
9.12276
 30
0.0
 11
8.22372
 21
9.06215
 31
0.0
  0
LINE
  5
7AC
  8
0
 62
1
 10
8.22372
 20
9.06215
 30
0.0
 11
8.33862
 21
8.99419
 31
0.0
  0
LINE
  5
7AD
  8
0
 62
1
 10
8.33862
 20
8.99419
 30
0.0
 11
8.44904
 21
8.91916
 31
0.0
  0
LINE
  5
7AE
  8
0
 62
1
 10
8.44904
 20
8.91916
 30
0.0
 11
8.55452
 21
8.83733
 31
0.0
  0
LINE
  5
7AF
  8
0
 62
1
 10
8.55452
 20
8.83733
 30
0.0
 11
8.65465
 21
8.74905
 31
0.0
  0
LINE
  5
7B0
  8
0
 62
1
 10
8.65465
 20
8.74905
 30
0.0
 11
8.74905
 21
8.65465
 31
0.0
  0
LINE
  5
7B1
  8
0
 62
1
 10
8.74905
 20
8.65465
 30
0.0
 11
8.83733
 21
8.55452
 31
0.0
  0
LINE
  5
7B2
  8
0
 62
1
 10
8.83733
 20
8.55452
 30
0.0
 11
8.91916
 21
8.44904
 31
0.0
  0
LINE
  5
7B3
  8
0
 62
1
 10
8.91916
 20
8.44904
 30
0.0
 11
8.99419
 21
8.33862
 31
0.0
  0
LINE
  5
7B4
  8
0
 62
1
 10
8.99419
 20
8.33862
 30
0.0
 11
9.06215
 21
8.22372
 31
0.0
  0
LINE
  5
7B5
  8
0
 62
1
 10
9.06215
 20
8.22372
 30
0.0
 11
9.12276
 21
8.10477
 31
0.0
  0
LINE
  5
7B6
  8
0
 62
1
 10
9.12276
 20
8.10477
 30
0.0
 11
9.17577
 21
7.98225
 31
0.0
  0
LINE
  5
7B7
  8
0
 62
1
 10
9.17577
 20
7.98225
 30
0.0
 11
9.22099
 21
7.85666
 31
0.0
  0
LINE
  5
7B8
  8
0
 62
1
 10
9.22099
 20
7.85666
 30
0.0
 11
9.25822
 21
7.72845
 31
0.0
  0
LINE
  5
7B9
  8
0
 62
1
 10
9.25822
 20
7.72845
 30
0.0
 11
9.28735
 21
7.59818
 31
0.0
  0
LINE
  5
7BA
  8
0
 62
1
 10
9.28735
 20
7.59818
 30
0.0
 11
9.30824
 21
7.46632
 31
0.0
  0
LINE
  5
7BB
  8
0
 62
1
 10
9.30824
 20
7.46632
 30
0.0
 11
9.3208
 21
7.33342
 31
0.0
  0
LINE
  5
7BC
  8
0
 62
1
 10
9.3208
 20
7.33342
 30
0.0
 11
9.325
 21
7.2
 31
0.0
  0
LINE
  5
7BD
  8
0
 62
1
 10
9.325
 20
7.2
 30
0.0
 11
9.3208
 21
7.06656
 31
0.0
  0
LINE
  5
7BE
  8
0
 62
1
 10
9.3208
 20
7.06656
 30
0.0
 11
9.30824
 21
6.93365
 31
0.0
  0
LINE
  5
7BF
  8
0
 62
1
 10
9.30824
 20
6.93365
 30
0.0
 11
9.28735
 21
6.8018
 31
0.0
  0
LINE
  5
7C0
  8
0
 62
1
 10
9.28735
 20
6.8018
 30
0.0
 11
9.25822
 21
6.67152
 31
0.0
  0
LINE
  5
7C1
  8
0
 62
1
 10
9.25822
 20
6.67152
 30
0.0
 11
9.22099
 21
6.54333
 31
0.0
  0
LINE
  5
7C2
  8
0
 62
1
 10
9.22099
 20
6.54333
 30
0.0
 11
9.17577
 21
6.41772
 31
0.0
  0
LINE
  5
7C3
  8
0
 62
1
 10
9.17577
 20
6.41772
 30
0.0
 11
9.12276
 21
6.29521
 31
0.0
  0
LINE
  5
7C4
  8
0
 62
1
 10
9.12276
 20
6.29521
 30
0.0
 11
9.06215
 21
6.17627
 31
0.0
  0
LINE
  5
7C5
  8
0
 62
1
 10
9.06215
 20
6.17627
 30
0.0
 11
8.99419
 21
6.06136
 31
0.0
  0
LINE
  5
7C6
  8
0
 62
1
 10
8.99419
 20
6.06136
 30
0.0
 11
8.91916
 21
5.95094
 31
0.0
  0
LINE
  5
7C7
  8
0
 62
1
 10
8.91916
 20
5.95094
 30
0.0
 11
8.83733
 21
5.84546
 31
0.0
  0
LINE
  5
7C8
  8
0
 62
1
 10
8.83733
 20
5.84546
 30
0.0
 11
8.74905
 21
5.74533
 31
0.0
  0
LINE
  5
7C9
  8
0
 62
1
 10
8.74905
 20
5.74533
 30
0.0
 11
8.65465
 21
5.65094
 31
0.0
  0
LINE
  5
7CA
  8
0
 62
1
 10
8.65465
 20
5.65094
 30
0.0
 11
8.55452
 21
5.56265
 31
0.0
  0
LINE
  5
7CB
  8
0
 62
1
 10
8.55452
 20
5.56265
 30
0.0
 11
8.44904
 21
5.48083
 31
0.0
  0
LINE
  5
7CC
  8
0
 62
1
 10
8.44904
 20
5.48083
 30
0.0
 11
8.33862
 21
5.40579
 31
0.0
  0
LINE
  5
7CD
  8
0
 62
1
 10
8.33862
 20
5.40579
 30
0.0
 11
8.22372
 21
5.33784
 31
0.0
  0
LINE
  5
7CE
  8
0
 62
1
 10
8.22372
 20
5.33784
 30
0.0
 11
8.10477
 21
5.27724
 31
0.0
  0
LINE
  5
7CF
  8
0
 62
1
 10
8.10477
 20
5.27724
 30
0.0
 11
7.98225
 21
5.22421
 31
0.0
  0
LINE
  5
7D0
  8
0
 62
1
 10
7.98225
 20
5.22421
 30
0.0
 11
7.85666
 21
5.179
 31
0.0
  0
LINE
  5
7D1
  8
0
 62
1
 10
7.85666
 20
5.179
 30
0.0
 11
7.72845
 21
5.14175
 31
0.0
  0
LINE
  5
7D2
  8
0
 62
1
 10
7.72845
 20
5.14175
 30
0.0
 11
7.59818
 21
5.11263
 31
0.0
  0
LINE
  5
7D3
  8
0
 62
1
 10
7.59818
 20
5.11263
 30
0.0
 11
7.46632
 21
5.09175
 31
0.0
  0
LINE
  5
7D4
  8
0
 62
1
 10
7.46632
 20
5.09175
 30
0.0
 11
7.33342
 21
5.07919
 31
0.0
  0
LINE
  5
7D5
  8
0
 62
1
 10
7.33342
 20
5.07919
 30
0.0
 11
7.2
 21
5.075
 31
0.0
  0
LINE
  5
7D6
  8
0
 62
1
 10
7.2
 20
5.075
 30
0.0
 11
7.06656
 21
5.07919
 31
0.0
  0
LINE
  5
7D7
  8
0
 62
1
 10
26.5
 20
22.5
 30
0.0
 11
26.5
 21
0.0
 31
0.0
  0
LINE
  5
7D8
  8
0
 62
1
 10
26.5
 20
0.0
 30
0.0
 11
49.0
 21
0.0
 31
0.0
  0
LINE
  5
7D9
  8
0
 62
1
 10
49.0
 20
0.0
 30
0.0
 11
26.5
 21
22.5
 31
0.0
  0
LINE
  5
7DA
  8
0
 62
1
 10
33.5666
 20
5.07919
 30
0.0
 11
33.4337
 21
5.09175
 31
0.0
  0
LINE
  5
7DB
  8
0
 62
1
 10
33.4337
 20
5.09175
 30
0.0
 11
33.3018
 21
5.11263
 31
0.0
  0
LINE
  5
7DC
  8
0
 62
1
 10
33.3018
 20
5.11263
 30
0.0
 11
33.1715
 21
5.14175
 31
0.0
  0
LINE
  5
7DD
  8
0
 62
1
 10
33.1715
 20
5.14175
 30
0.0
 11
33.0433
 21
5.179
 31
0.0
  0
LINE
  5
7DE
  8
0
 62
1
 10
33.0433
 20
5.179
 30
0.0
 11
32.9177
 21
5.22421
 31
0.0
  0
LINE
  5
7DF
  8
0
 62
1
 10
32.9177
 20
5.22421
 30
0.0
 11
32.7952
 21
5.27724
 31
0.0
  0
LINE
  5
7E0
  8
0
 62
1
 10
32.7952
 20
5.27724
 30
0.0
 11
32.6763
 21
5.33784
 31
0.0
  0
LINE
  5
7E1
  8
0
 62
1
 10
32.6763
 20
5.33784
 30
0.0
 11
32.5614
 21
5.40579
 31
0.0
  0
LINE
  5
7E2
  8
0
 62
1
 10
32.5614
 20
5.40579
 30
0.0
 11
32.4509
 21
5.48083
 31
0.0
  0
LINE
  5
7E3
  8
0
 62
1
 10
32.4509
 20
5.48083
 30
0.0
 11
32.3455
 21
5.56265
 31
0.0
  0
LINE
  5
7E4
  8
0
 62
1
 10
32.3455
 20
5.56265
 30
0.0
 11
32.2453
 21
5.65094
 31
0.0
  0
LINE
  5
7E5
  8
0
 62
1
 10
32.2453
 20
5.65094
 30
0.0
 11
32.1509
 21
5.74533
 31
0.0
  0
LINE
  5
7E6
  8
0
 62
1
 10
32.1509
 20
5.74533
 30
0.0
 11
32.0627
 21
5.84546
 31
0.0
  0
LINE
  5
7E7
  8
0
 62
1
 10
32.0627
 20
5.84546
 30
0.0
 11
31.9808
 21
5.95094
 31
0.0
  0
LINE
  5
7E8
  8
0
 62
1
 10
31.9808
 20
5.95094
 30
0.0
 11
31.9058
 21
6.06136
 31
0.0
  0
LINE
  5
7E9
  8
0
 62
1
 10
31.9058
 20
6.06136
 30
0.0
 11
31.8378
 21
6.17627
 31
0.0
  0
LINE
  5
7EA
  8
0
 62
1
 10
31.8378
 20
6.17627
 30
0.0
 11
31.7772
 21
6.29521
 31
0.0
  0
LINE
  5
7EB
  8
0
 62
1
 10
31.7772
 20
6.29521
 30
0.0
 11
31.7242
 21
6.41772
 31
0.0
  0
LINE
  5
7EC
  8
0
 62
1
 10
31.7242
 20
6.41772
 30
0.0
 11
31.679
 21
6.54333
 31
0.0
  0
LINE
  5
7ED
  8
0
 62
1
 10
31.679
 20
6.54333
 30
0.0
 11
31.6418
 21
6.67152
 31
0.0
  0
LINE
  5
7EE
  8
0
 62
1
 10
31.6418
 20
6.67152
 30
0.0
 11
31.6126
 21
6.8018
 31
0.0
  0
LINE
  5
7EF
  8
0
 62
1
 10
31.6126
 20
6.8018
 30
0.0
 11
31.5918
 21
6.93365
 31
0.0
  0
LINE
  5
7F0
  8
0
 62
1
 10
31.5918
 20
6.93365
 30
0.0
 11
31.5792
 21
7.06656
 31
0.0
  0
LINE
  5
7F1
  8
0
 62
1
 10
31.5792
 20
7.06656
 30
0.0
 11
31.575
 21
7.2
 31
0.0
  0
LINE
  5
7F2
  8
0
 62
1
 10
31.575
 20
7.2
 30
0.0
 11
31.5792
 21
7.33342
 31
0.0
  0
LINE
  5
7F3
  8
0
 62
1
 10
31.5792
 20
7.33342
 30
0.0
 11
31.5918
 21
7.46632
 31
0.0
  0
LINE
  5
7F4
  8
0
 62
1
 10
31.5918
 20
7.46632
 30
0.0
 11
31.6126
 21
7.59818
 31
0.0
  0
LINE
  5
7F5
  8
0
 62
1
 10
31.6126
 20
7.59818
 30
0.0
 11
31.6418
 21
7.72845
 31
0.0
  0
LINE
  5
7F6
  8
0
 62
1
 10
31.6418
 20
7.72845
 30
0.0
 11
31.679
 21
7.85666
 31
0.0
  0
LINE
  5
7F7
  8
0
 62
1
 10
31.679
 20
7.85666
 30
0.0
 11
31.7242
 21
7.98225
 31
0.0
  0
LINE
  5
7F8
  8
0
 62
1
 10
31.7242
 20
7.98225
 30
0.0
 11
31.7772
 21
8.10477
 31
0.0
  0
LINE
  5
7F9
  8
0
 62
1
 10
31.7772
 20
8.10477
 30
0.0
 11
31.8378
 21
8.22372
 31
0.0
  0
LINE
  5
7FA
  8
0
 62
1
 10
31.8378
 20
8.22372
 30
0.0
 11
31.9058
 21
8.33862
 31
0.0
  0
LINE
  5
7FB
  8
0
 62
1
 10
31.9058
 20
8.33862
 30
0.0
 11
31.9808
 21
8.44904
 31
0.0
  0
LINE
  5
7FC
  8
0
 62
1
 10
31.9808
 20
8.44904
 30
0.0
 11
32.0627
 21
8.55452
 31
0.0
  0
LINE
  5
7FD
  8
0
 62
1
 10
32.0627
 20
8.55452
 30
0.0
 11
32.1509
 21
8.65465
 31
0.0
  0
LINE
  5
7FE
  8
0
 62
1
 10
32.1509
 20
8.65465
 30
0.0
 11
32.2453
 21
8.74905
 31
0.0
  0
LINE
  5
7FF
  8
0
 62
1
 10
32.2453
 20
8.74905
 30
0.0
 11
32.3455
 21
8.83733
 31
0.0
  0
LINE
  5
800
  8
0
 62
1
 10
32.3455
 20
8.83733
 30
0.0
 11
32.4509
 21
8.91916
 31
0.0
  0
LINE
  5
801
  8
0
 62
1
 10
32.4509
 20
8.91916
 30
0.0
 11
32.5614
 21
8.99419
 31
0.0
  0
LINE
  5
802
  8
0
 62
1
 10
32.5614
 20
8.99419
 30
0.0
 11
32.6763
 21
9.06215
 31
0.0
  0
LINE
  5
803
  8
0
 62
1
 10
32.6763
 20
9.06215
 30
0.0
 11
32.7952
 21
9.12276
 31
0.0
  0
LINE
  5
804
  8
0
 62
1
 10
32.7952
 20
9.12276
 30
0.0
 11
32.9177
 21
9.17577
 31
0.0
  0
LINE
  5
805
  8
0
 62
1
 10
32.9177
 20
9.17577
 30
0.0
 11
33.0433
 21
9.22099
 31
0.0
  0
LINE
  5
806
  8
0
 62
1
 10
33.0433
 20
9.22099
 30
0.0
 11
33.1715
 21
9.25822
 31
0.0
  0
LINE
  5
807
  8
0
 62
1
 10
33.1715
 20
9.25822
 30
0.0
 11
33.3018
 21
9.28735
 31
0.0
  0
LINE
  5
808
  8
0
 62
1
 10
33.3018
 20
9.28735
 30
0.0
 11
33.4337
 21
9.30824
 31
0.0
  0
LINE
  5
809
  8
0
 62
1
 10
33.4337
 20
9.30824
 30
0.0
 11
33.5666
 21
9.3208
 31
0.0
  0
LINE
  5
80A
  8
0
 62
1
 10
33.5666
 20
9.3208
 30
0.0
 11
33.7
 21
9.325
 31
0.0
  0
LINE
  5
80B
  8
0
 62
1
 10
33.7
 20
9.325
 30
0.0
 11
33.8334
 21
9.3208
 31
0.0
  0
LINE
  5
80C
  8
0
 62
1
 10
33.8334
 20
9.3208
 30
0.0
 11
33.9663
 21
9.30824
 31
0.0
  0
LINE
  5
80D
  8
0
 62
1
 10
33.9663
 20
9.30824
 30
0.0
 11
34.0982
 21
9.28735
 31
0.0
  0
LINE
  5
80E
  8
0
 62
1
 10
34.0982
 20
9.28735
 30
0.0
 11
34.2285
 21
9.25822
 31
0.0
  0
LINE
  5
80F
  8
0
 62
1
 10
34.2285
 20
9.25822
 30
0.0
 11
34.3567
 21
9.22099
 31
0.0
  0
LINE
  5
810
  8
0
 62
1
 10
34.3567
 20
9.22099
 30
0.0
 11
34.4823
 21
9.17577
 31
0.0
  0
LINE
  5
811
  8
0
 62
1
 10
34.4823
 20
9.17577
 30
0.0
 11
34.6048
 21
9.12276
 31
0.0
  0
LINE
  5
812
  8
0
 62
1
 10
34.6048
 20
9.12276
 30
0.0
 11
34.7237
 21
9.06215
 31
0.0
  0
LINE
  5
813
  8
0
 62
1
 10
34.7237
 20
9.06215
 30
0.0
 11
34.8386
 21
8.99419
 31
0.0
  0
LINE
  5
814
  8
0
 62
1
 10
34.8386
 20
8.99419
 30
0.0
 11
34.949
 21
8.91916
 31
0.0
  0
LINE
  5
815
  8
0
 62
1
 10
34.949
 20
8.91916
 30
0.0
 11
35.0545
 21
8.83733
 31
0.0
  0
LINE
  5
816
  8
0
 62
1
 10
35.0545
 20
8.83733
 30
0.0
 11
35.1546
 21
8.74905
 31
0.0
  0
LINE
  5
817
  8
0
 62
1
 10
35.1546
 20
8.74905
 30
0.0
 11
35.2491
 21
8.65465
 31
0.0
  0
LINE
  5
818
  8
0
 62
1
 10
35.2491
 20
8.65465
 30
0.0
 11
35.3373
 21
8.55452
 31
0.0
  0
LINE
  5
819
  8
0
 62
1
 10
35.3373
 20
8.55452
 30
0.0
 11
35.4192
 21
8.44904
 31
0.0
  0
LINE
  5
81A
  8
0
 62
1
 10
35.4192
 20
8.44904
 30
0.0
 11
35.4942
 21
8.33862
 31
0.0
  0
LINE
  5
81B
  8
0
 62
1
 10
35.4942
 20
8.33862
 30
0.0
 11
35.5621
 21
8.22372
 31
0.0
  0
LINE
  5
81C
  8
0
 62
1
 10
35.5621
 20
8.22372
 30
0.0
 11
35.6228
 21
8.10477
 31
0.0
  0
LINE
  5
81D
  8
0
 62
1
 10
35.6228
 20
8.10477
 30
0.0
 11
35.6758
 21
7.98225
 31
0.0
  0
LINE
  5
81E
  8
0
 62
1
 10
35.6758
 20
7.98225
 30
0.0
 11
35.721
 21
7.85666
 31
0.0
  0
LINE
  5
81F
  8
0
 62
1
 10
35.721
 20
7.85666
 30
0.0
 11
35.7582
 21
7.72845
 31
0.0
  0
LINE
  5
820
  8
0
 62
1
 10
35.7582
 20
7.72845
 30
0.0
 11
35.7874
 21
7.59818
 31
0.0
  0
LINE
  5
821
  8
0
 62
1
 10
35.7874
 20
7.59818
 30
0.0
 11
35.8082
 21
7.46632
 31
0.0
  0
LINE
  5
822
  8
0
 62
1
 10
35.8082
 20
7.46632
 30
0.0
 11
35.8208
 21
7.33342
 31
0.0
  0
LINE
  5
823
  8
0
 62
1
 10
35.8208
 20
7.33342
 30
0.0
 11
35.825
 21
7.2
 31
0.0
  0
LINE
  5
824
  8
0
 62
1
 10
35.825
 20
7.2
 30
0.0
 11
35.8208
 21
7.06656
 31
0.0
  0
LINE
  5
825
  8
0
 62
1
 10
35.8208
 20
7.06656
 30
0.0
 11
35.8082
 21
6.93365
 31
0.0
  0
LINE
  5
826
  8
0
 62
1
 10
35.8082
 20
6.93365
 30
0.0
 11
35.7874
 21
6.8018
 31
0.0
  0
LINE
  5
827
  8
0
 62
1
 10
35.7874
 20
6.8018
 30
0.0
 11
35.7582
 21
6.67152
 31
0.0
  0
LINE
  5
828
  8
0
 62
1
 10
35.7582
 20
6.67152
 30
0.0
 11
35.721
 21
6.54333
 31
0.0
  0
LINE
  5
829
  8
0
 62
1
 10
35.721
 20
6.54333
 30
0.0
 11
35.6758
 21
6.41772
 31
0.0
  0
LINE
  5
82A
  8
0
 62
1
 10
35.6758
 20
6.41772
 30
0.0
 11
35.6228
 21
6.29521
 31
0.0
  0
LINE
  5
82B
  8
0
 62
1
 10
35.6228
 20
6.29521
 30
0.0
 11
35.5621
 21
6.17627
 31
0.0
  0
LINE
  5
82C
  8
0
 62
1
 10
35.5621
 20
6.17627
 30
0.0
 11
35.4942
 21
6.06136
 31
0.0
  0
LINE
  5
82D
  8
0
 62
1
 10
35.4942
 20
6.06136
 30
0.0
 11
35.4192
 21
5.95094
 31
0.0
  0
LINE
  5
82E
  8
0
 62
1
 10
35.4192
 20
5.95094
 30
0.0
 11
35.3373
 21
5.84546
 31
0.0
  0
LINE
  5
82F
  8
0
 62
1
 10
35.3373
 20
5.84546
 30
0.0
 11
35.2491
 21
5.74533
 31
0.0
  0
LINE
  5
830
  8
0
 62
1
 10
35.2491
 20
5.74533
 30
0.0
 11
35.1546
 21
5.65094
 31
0.0
  0
LINE
  5
831
  8
0
 62
1
 10
35.1546
 20
5.65094
 30
0.0
 11
35.0545
 21
5.56265
 31
0.0
  0
LINE
  5
832
  8
0
 62
1
 10
35.0545
 20
5.56265
 30
0.0
 11
34.949
 21
5.48083
 31
0.0
  0
LINE
  5
833
  8
0
 62
1
 10
34.949
 20
5.48083
 30
0.0
 11
34.8386
 21
5.40579
 31
0.0
  0
LINE
  5
834
  8
0
 62
1
 10
34.8386
 20
5.40579
 30
0.0
 11
34.7237
 21
5.33784
 31
0.0
  0
LINE
  5
835
  8
0
 62
1
 10
34.7237
 20
5.33784
 30
0.0
 11
34.6048
 21
5.27724
 31
0.0
  0
LINE
  5
836
  8
0
 62
1
 10
34.6048
 20
5.27724
 30
0.0
 11
34.4823
 21
5.22421
 31
0.0
  0
LINE
  5
837
  8
0
 62
1
 10
34.4823
 20
5.22421
 30
0.0
 11
34.3567
 21
5.179
 31
0.0
  0
LINE
  5
838
  8
0
 62
1
 10
34.3567
 20
5.179
 30
0.0
 11
34.2285
 21
5.14175
 31
0.0
  0
LINE
  5
839
  8
0
 62
1
 10
34.2285
 20
5.14175
 30
0.0
 11
34.0982
 21
5.11263
 31
0.0
  0
LINE
  5
83A
  8
0
 62
1
 10
34.0982
 20
5.11263
 30
0.0
 11
33.9663
 21
5.09175
 31
0.0
  0
LINE
  5
83B
  8
0
 62
1
 10
33.9663
 20
5.09175
 30
0.0
 11
33.8334
 21
5.07919
 31
0.0
  0
LINE
  5
83C
  8
0
 62
1
 10
33.8334
 20
5.07919
 30
0.0
 11
33.7
 21
5.075
 31
0.0
  0
LINE
  5
83D
  8
0
 62
1
 10
33.7
 20
5.075
 30
0.0
 11
33.5666
 21
5.07919
 31
0.0
  0
ENDSEC
  0
EOF
