  0
SECTION
  2
BLOCKS
  0
ENDSEC
  0
SECTION
  2
ENTITIES
  0
LINE
  8
0
 10
-119.3
 20
12.7
 11
-119.3
 21
-12.7
  0
LINE
  8
0
 10
-119.3
 20
-12.7
 11
-43.1
 21
-12.7
  0
LINE
  8
0
 10
-43.1
 20
-12.7
 11
-43.1
 21
12.7
  0
LINE
  8
0
 10
-43.1
 20
12.7
 11
-119.3
 21
12.7
  0
LINE
  8
0
 10
-103.232
 20
-0.211914
 11
-103.252
 21
-0.422989
  0
LINE
  8
0
 10
-103.252
 20
-0.422989
 11
-103.285
 21
-0.632401
  0
LINE
  8
0
 10
-103.285
 20
-0.632401
 11
-103.331
 21
-0.839325
  0
LINE
  8
0
 10
-103.331
 20
-0.839325
 11
-103.39
 21
-1.04292
  0
LINE
  8
0
 10
-103.39
 20
-1.04292
 11
-103.462
 21
-1.24242
  0
LINE
  8
0
 10
-103.462
 20
-1.24242
 11
-103.546
 21
-1.437
  0
LINE
  8
0
 10
-103.546
 20
-1.437
 11
-103.642
 21
-1.62592
  0
LINE
  8
0
 10
-103.642
 20
-1.62592
 11
-103.75
 21
-1.80841
  0
LINE
  8
0
 10
-103.75
 20
-1.80841
 11
-103.87
 21
-1.98376
  0
LINE
  8
0
 10
-103.87
 20
-1.98376
 11
-104
 21
-2.15129
  0
LINE
  8
0
 10
-104
 20
-2.15129
 11
-104.14
 21
-2.31033
  0
LINE
  8
0
 10
-104.14
 20
-2.31033
 11
-104.29
 21
-2.46027
  0
LINE
  8
0
 10
-104.29
 20
-2.46027
 11
-104.449
 21
-2.60048
  0
LINE
  8
0
 10
-104.449
 20
-2.60048
 11
-104.616
 21
-2.73042
  0
LINE
  8
0
 10
-104.616
 20
-2.73042
 11
-104.792
 21
-2.84959
  0
LINE
  8
0
 10
-104.792
 20
-2.84959
 11
-104.974
 21
-2.95753
  0
LINE
  8
0
 10
-104.974
 20
-2.95753
 11
-105.163
 21
-3.05379
  0
LINE
  8
0
 10
-105.163
 20
-3.05379
 11
-105.358
 21
-3.13799
  0
LINE
  8
0
 10
-105.358
 20
-3.13799
 11
-105.557
 21
-3.20981
  0
LINE
  8
0
 10
-105.557
 20
-3.20981
 11
-105.761
 21
-3.26897
  0
LINE
  8
0
 10
-105.761
 20
-3.26897
 11
-105.968
 21
-3.31522
  0
LINE
  8
0
 10
-105.968
 20
-3.31522
 11
-106.177
 21
-3.34837
  0
LINE
  8
0
 10
-106.177
 20
-3.34837
 11
-106.388
 21
-3.36833
  0
LINE
  8
0
 10
-106.388
 20
-3.36833
 11
-106.6
 21
-3.375
  0
LINE
  8
0
 10
-106.6
 20
-3.375
 11
-106.812
 21
-3.36833
  0
LINE
  8
0
 10
-106.812
 20
-3.36833
 11
-107.023
 21
-3.34837
  0
LINE
  8
0
 10
-107.023
 20
-3.34837
 11
-107.232
 21
-3.31522
  0
LINE
  8
0
 10
-107.232
 20
-3.31522
 11
-107.439
 21
-3.26897
  0
LINE
  8
0
 10
-107.439
 20
-3.26897
 11
-107.643
 21
-3.20981
  0
LINE
  8
0
 10
-107.643
 20
-3.20981
 11
-107.842
 21
-3.13799
  0
LINE
  8
0
 10
-107.842
 20
-3.13799
 11
-108.037
 21
-3.05379
  0
LINE
  8
0
 10
-108.037
 20
-3.05379
 11
-108.226
 21
-2.95753
  0
LINE
  8
0
 10
-108.226
 20
-2.95753
 11
-108.408
 21
-2.84959
  0
LINE
  8
0
 10
-108.408
 20
-2.84959
 11
-108.584
 21
-2.73042
  0
LINE
  8
0
 10
-108.584
 20
-2.73042
 11
-108.751
 21
-2.60048
  0
LINE
  8
0
 10
-108.751
 20
-2.60048
 11
-108.91
 21
-2.46027
  0
LINE
  8
0
 10
-108.91
 20
-2.46027
 11
-109.06
 21
-2.31033
  0
LINE
  8
0
 10
-109.06
 20
-2.31033
 11
-109.2
 21
-2.15129
  0
LINE
  8
0
 10
-109.2
 20
-2.15129
 11
-109.33
 21
-1.98376
  0
LINE
  8
0
 10
-109.33
 20
-1.98376
 11
-109.45
 21
-1.80841
  0
LINE
  8
0
 10
-109.45
 20
-1.80841
 11
-109.558
 21
-1.62592
  0
LINE
  8
0
 10
-109.558
 20
-1.62592
 11
-109.654
 21
-1.437
  0
LINE
  8
0
 10
-109.654
 20
-1.437
 11
-109.738
 21
-1.24242
  0
LINE
  8
0
 10
-109.738
 20
-1.24242
 11
-109.81
 21
-1.04292
  0
LINE
  8
0
 10
-109.81
 20
-1.04292
 11
-109.869
 21
-0.839325
  0
LINE
  8
0
 10
-109.869
 20
-0.839325
 11
-109.915
 21
-0.632401
  0
LINE
  8
0
 10
-109.915
 20
-0.632401
 11
-109.948
 21
-0.422989
  0
LINE
  8
0
 10
-109.948
 20
-0.422989
 11
-109.968
 21
-0.211914
  0
LINE
  8
0
 10
-109.968
 20
-0.211914
 11
-109.975
 21
0
  0
LINE
  8
0
 10
-109.975
 20
0
 11
-109.968
 21
0.211914
  0
LINE
  8
0
 10
-109.968
 20
0.211914
 11
-109.948
 21
0.422989
  0
LINE
  8
0
 10
-109.948
 20
0.422989
 11
-109.915
 21
0.632401
  0
LINE
  8
0
 10
-109.915
 20
0.632401
 11
-109.869
 21
0.839325
  0
LINE
  8
0
 10
-109.869
 20
0.839325
 11
-109.81
 21
1.04292
  0
LINE
  8
0
 10
-109.81
 20
1.04292
 11
-109.738
 21
1.24242
  0
LINE
  8
0
 10
-109.738
 20
1.24242
 11
-109.654
 21
1.437
  0
LINE
  8
0
 10
-109.654
 20
1.437
 11
-109.558
 21
1.62592
  0
LINE
  8
0
 10
-109.558
 20
1.62592
 11
-109.45
 21
1.80841
  0
LINE
  8
0
 10
-109.45
 20
1.80841
 11
-109.33
 21
1.98376
  0
LINE
  8
0
 10
-109.33
 20
1.98376
 11
-109.2
 21
2.15129
  0
LINE
  8
0
 10
-109.2
 20
2.15129
 11
-109.06
 21
2.31033
  0
LINE
  8
0
 10
-109.06
 20
2.31033
 11
-108.91
 21
2.46027
  0
LINE
  8
0
 10
-108.91
 20
2.46027
 11
-108.751
 21
2.60048
  0
LINE
  8
0
 10
-108.751
 20
2.60048
 11
-108.584
 21
2.73042
  0
LINE
  8
0
 10
-108.584
 20
2.73042
 11
-108.408
 21
2.84959
  0
LINE
  8
0
 10
-108.408
 20
2.84959
 11
-108.226
 21
2.95753
  0
LINE
  8
0
 10
-108.226
 20
2.95753
 11
-108.037
 21
3.05379
  0
LINE
  8
0
 10
-108.037
 20
3.05379
 11
-107.842
 21
3.13799
  0
LINE
  8
0
 10
-107.842
 20
3.13799
 11
-107.643
 21
3.20981
  0
LINE
  8
0
 10
-107.643
 20
3.20981
 11
-107.439
 21
3.26897
  0
LINE
  8
0
 10
-107.439
 20
3.26897
 11
-107.232
 21
3.31522
  0
LINE
  8
0
 10
-107.232
 20
3.31522
 11
-107.023
 21
3.34837
  0
LINE
  8
0
 10
-107.023
 20
3.34837
 11
-106.812
 21
3.36833
  0
LINE
  8
0
 10
-106.812
 20
3.36833
 11
-106.6
 21
3.375
  0
LINE
  8
0
 10
-106.6
 20
3.375
 11
-106.388
 21
3.36833
  0
LINE
  8
0
 10
-106.388
 20
3.36833
 11
-106.177
 21
3.34837
  0
LINE
  8
0
 10
-106.177
 20
3.34837
 11
-105.968
 21
3.31522
  0
LINE
  8
0
 10
-105.968
 20
3.31522
 11
-105.761
 21
3.26897
  0
LINE
  8
0
 10
-105.761
 20
3.26897
 11
-105.557
 21
3.20981
  0
LINE
  8
0
 10
-105.557
 20
3.20981
 11
-105.358
 21
3.13799
  0
LINE
  8
0
 10
-105.358
 20
3.13799
 11
-105.163
 21
3.05379
  0
LINE
  8
0
 10
-105.163
 20
3.05379
 11
-104.974
 21
2.95753
  0
LINE
  8
0
 10
-104.974
 20
2.95753
 11
-104.792
 21
2.84959
  0
LINE
  8
0
 10
-104.792
 20
2.84959
 11
-104.616
 21
2.73042
  0
LINE
  8
0
 10
-104.616
 20
2.73042
 11
-104.449
 21
2.60048
  0
LINE
  8
0
 10
-104.449
 20
2.60048
 11
-104.29
 21
2.46027
  0
LINE
  8
0
 10
-104.29
 20
2.46027
 11
-104.14
 21
2.31033
  0
LINE
  8
0
 10
-104.14
 20
2.31033
 11
-104
 21
2.15129
  0
LINE
  8
0
 10
-104
 20
2.15129
 11
-103.87
 21
1.98376
  0
LINE
  8
0
 10
-103.87
 20
1.98376
 11
-103.75
 21
1.80841
  0
LINE
  8
0
 10
-103.75
 20
1.80841
 11
-103.642
 21
1.62592
  0
LINE
  8
0
 10
-103.642
 20
1.62592
 11
-103.546
 21
1.437
  0
LINE
  8
0
 10
-103.546
 20
1.437
 11
-103.462
 21
1.24242
  0
LINE
  8
0
 10
-103.462
 20
1.24242
 11
-103.39
 21
1.04292
  0
LINE
  8
0
 10
-103.39
 20
1.04292
 11
-103.331
 21
0.839325
  0
LINE
  8
0
 10
-103.331
 20
0.839325
 11
-103.285
 21
0.632401
  0
LINE
  8
0
 10
-103.285
 20
0.632401
 11
-103.252
 21
0.422989
  0
LINE
  8
0
 10
-103.252
 20
0.422989
 11
-103.232
 21
0.211914
  0
LINE
  8
0
 10
-103.232
 20
0.211914
 11
-103.225
 21
0
  0
LINE
  8
0
 10
-103.225
 20
0
 11
-103.232
 21
-0.211914
  0
LINE
  8
0
 10
-52.4317
 20
-0.211914
 11
-52.4516
 21
-0.422989
  0
LINE
  8
0
 10
-52.4516
 20
-0.422989
 11
-52.4848
 21
-0.632401
  0
LINE
  8
0
 10
-52.4848
 20
-0.632401
 11
-52.531
 21
-0.839325
  0
LINE
  8
0
 10
-52.531
 20
-0.839325
 11
-52.5902
 21
-1.04292
  0
LINE
  8
0
 10
-52.5902
 20
-1.04292
 11
-52.662
 21
-1.24242
  0
LINE
  8
0
 10
-52.662
 20
-1.24242
 11
-52.7462
 21
-1.437
  0
LINE
  8
0
 10
-52.7462
 20
-1.437
 11
-52.8425
 21
-1.62592
  0
LINE
  8
0
 10
-52.8425
 20
-1.62592
 11
-52.9504
 21
-1.80841
  0
LINE
  8
0
 10
-52.9504
 20
-1.80841
 11
-53.0696
 21
-1.98376
  0
LINE
  8
0
 10
-53.0696
 20
-1.98376
 11
-53.1995
 21
-2.15129
  0
LINE
  8
0
 10
-53.1995
 20
-2.15129
 11
-53.3397
 21
-2.31033
  0
LINE
  8
0
 10
-53.3397
 20
-2.31033
 11
-53.4897
 21
-2.46027
  0
LINE
  8
0
 10
-53.4897
 20
-2.46027
 11
-53.6487
 21
-2.60048
  0
LINE
  8
0
 10
-53.6487
 20
-2.60048
 11
-53.8162
 21
-2.73042
  0
LINE
  8
0
 10
-53.8162
 20
-2.73042
 11
-53.9916
 21
-2.84959
  0
LINE
  8
0
 10
-53.9916
 20
-2.84959
 11
-54.1741
 21
-2.95753
  0
LINE
  8
0
 10
-54.1741
 20
-2.95753
 11
-54.363
 21
-3.05379
  0
LINE
  8
0
 10
-54.363
 20
-3.05379
 11
-54.5576
 21
-3.13799
  0
LINE
  8
0
 10
-54.5576
 20
-3.13799
 11
-54.7571
 21
-3.20981
  0
LINE
  8
0
 10
-54.7571
 20
-3.20981
 11
-54.9607
 21
-3.26897
  0
LINE
  8
0
 10
-54.9607
 20
-3.26897
 11
-55.1676
 21
-3.31522
  0
LINE
  8
0
 10
-55.1676
 20
-3.31522
 11
-55.377
 21
-3.34837
  0
LINE
  8
0
 10
-55.377
 20
-3.34837
 11
-55.5881
 21
-3.36833
  0
LINE
  8
0
 10
-55.5881
 20
-3.36833
 11
-55.8
 21
-3.375
  0
LINE
  8
0
 10
-55.8
 20
-3.375
 11
-56.0119
 21
-3.36833
  0
LINE
  8
0
 10
-56.0119
 20
-3.36833
 11
-56.223
 21
-3.34837
  0
LINE
  8
0
 10
-56.223
 20
-3.34837
 11
-56.4324
 21
-3.31522
  0
LINE
  8
0
 10
-56.4324
 20
-3.31522
 11
-56.6393
 21
-3.26897
  0
LINE
  8
0
 10
-56.6393
 20
-3.26897
 11
-56.8429
 21
-3.20981
  0
LINE
  8
0
 10
-56.8429
 20
-3.20981
 11
-57.0424
 21
-3.13799
  0
LINE
  8
0
 10
-57.0424
 20
-3.13799
 11
-57.237
 21
-3.05379
  0
LINE
  8
0
 10
-57.237
 20
-3.05379
 11
-57.4259
 21
-2.95753
  0
LINE
  8
0
 10
-57.4259
 20
-2.95753
 11
-57.6084
 21
-2.84959
  0
LINE
  8
0
 10
-57.6084
 20
-2.84959
 11
-57.7838
 21
-2.73042
  0
LINE
  8
0
 10
-57.7838
 20
-2.73042
 11
-57.9513
 21
-2.60048
  0
LINE
  8
0
 10
-57.9513
 20
-2.60048
 11
-58.1104
 21
-2.46027
  0
LINE
  8
0
 10
-58.1104
 20
-2.46027
 11
-58.2603
 21
-2.31033
  0
LINE
  8
0
 10
-58.2603
 20
-2.31033
 11
-58.4005
 21
-2.15129
  0
LINE
  8
0
 10
-58.4005
 20
-2.15129
 11
-58.5304
 21
-1.98376
  0
LINE
  8
0
 10
-58.5304
 20
-1.98376
 11
-58.6496
 21
-1.80841
  0
LINE
  8
0
 10
-58.6496
 20
-1.80841
 11
-58.7575
 21
-1.62592
  0
LINE
  8
0
 10
-58.7575
 20
-1.62592
 11
-58.8538
 21
-1.437
  0
LINE
  8
0
 10
-58.8538
 20
-1.437
 11
-58.938
 21
-1.24242
  0
LINE
  8
0
 10
-58.938
 20
-1.24242
 11
-59.0098
 21
-1.04292
  0
LINE
  8
0
 10
-59.0098
 20
-1.04292
 11
-59.069
 21
-0.839325
  0
LINE
  8
0
 10
-59.069
 20
-0.839325
 11
-59.1152
 21
-0.632401
  0
LINE
  8
0
 10
-59.1152
 20
-0.632401
 11
-59.1484
 21
-0.422989
  0
LINE
  8
0
 10
-59.1484
 20
-0.422989
 11
-59.1684
 21
-0.211914
  0
LINE
  8
0
 10
-59.1684
 20
-0.211914
 11
-59.175
 21
0
  0
LINE
  8
0
 10
-59.175
 20
0
 11
-59.1684
 21
0.211914
  0
LINE
  8
0
 10
-59.1684
 20
0.211914
 11
-59.1484
 21
0.422989
  0
LINE
  8
0
 10
-59.1484
 20
0.422989
 11
-59.1152
 21
0.632401
  0
LINE
  8
0
 10
-59.1152
 20
0.632401
 11
-59.069
 21
0.839325
  0
LINE
  8
0
 10
-59.069
 20
0.839325
 11
-59.0098
 21
1.04292
  0
LINE
  8
0
 10
-59.0098
 20
1.04292
 11
-58.938
 21
1.24242
  0
LINE
  8
0
 10
-58.938
 20
1.24242
 11
-58.8538
 21
1.437
  0
LINE
  8
0
 10
-58.8538
 20
1.437
 11
-58.7575
 21
1.62592
  0
LINE
  8
0
 10
-58.7575
 20
1.62592
 11
-58.6496
 21
1.80841
  0
LINE
  8
0
 10
-58.6496
 20
1.80841
 11
-58.5304
 21
1.98376
  0
LINE
  8
0
 10
-58.5304
 20
1.98376
 11
-58.4005
 21
2.15129
  0
LINE
  8
0
 10
-58.4005
 20
2.15129
 11
-58.2603
 21
2.31033
  0
LINE
  8
0
 10
-58.2603
 20
2.31033
 11
-58.1104
 21
2.46027
  0
LINE
  8
0
 10
-58.1104
 20
2.46027
 11
-57.9513
 21
2.60048
  0
LINE
  8
0
 10
-57.9513
 20
2.60048
 11
-57.7838
 21
2.73042
  0
LINE
  8
0
 10
-57.7838
 20
2.73042
 11
-57.6084
 21
2.84959
  0
LINE
  8
0
 10
-57.6084
 20
2.84959
 11
-57.4259
 21
2.95753
  0
LINE
  8
0
 10
-57.4259
 20
2.95753
 11
-57.237
 21
3.05379
  0
LINE
  8
0
 10
-57.237
 20
3.05379
 11
-57.0424
 21
3.13799
  0
LINE
  8
0
 10
-57.0424
 20
3.13799
 11
-56.8429
 21
3.20981
  0
LINE
  8
0
 10
-56.8429
 20
3.20981
 11
-56.6393
 21
3.26897
  0
LINE
  8
0
 10
-56.6393
 20
3.26897
 11
-56.4324
 21
3.31522
  0
LINE
  8
0
 10
-56.4324
 20
3.31522
 11
-56.223
 21
3.34837
  0
LINE
  8
0
 10
-56.223
 20
3.34837
 11
-56.0119
 21
3.36833
  0
LINE
  8
0
 10
-56.0119
 20
3.36833
 11
-55.8
 21
3.375
  0
LINE
  8
0
 10
-55.8
 20
3.375
 11
-55.5881
 21
3.36833
  0
LINE
  8
0
 10
-55.5881
 20
3.36833
 11
-55.377
 21
3.34837
  0
LINE
  8
0
 10
-55.377
 20
3.34837
 11
-55.1676
 21
3.31522
  0
LINE
  8
0
 10
-55.1676
 20
3.31522
 11
-54.9607
 21
3.26897
  0
LINE
  8
0
 10
-54.9607
 20
3.26897
 11
-54.7571
 21
3.20981
  0
LINE
  8
0
 10
-54.7571
 20
3.20981
 11
-54.5576
 21
3.13799
  0
LINE
  8
0
 10
-54.5576
 20
3.13799
 11
-54.363
 21
3.05379
  0
LINE
  8
0
 10
-54.363
 20
3.05379
 11
-54.1741
 21
2.95753
  0
LINE
  8
0
 10
-54.1741
 20
2.95753
 11
-53.9916
 21
2.84959
  0
LINE
  8
0
 10
-53.9916
 20
2.84959
 11
-53.8162
 21
2.73042
  0
LINE
  8
0
 10
-53.8162
 20
2.73042
 11
-53.6487
 21
2.60048
  0
LINE
  8
0
 10
-53.6487
 20
2.60048
 11
-53.4897
 21
2.46027
  0
LINE
  8
0
 10
-53.4897
 20
2.46027
 11
-53.3397
 21
2.31033
  0
LINE
  8
0
 10
-53.3397
 20
2.31033
 11
-53.1995
 21
2.15129
  0
LINE
  8
0
 10
-53.1995
 20
2.15129
 11
-53.0696
 21
1.98376
  0
LINE
  8
0
 10
-53.0696
 20
1.98376
 11
-52.9504
 21
1.80841
  0
LINE
  8
0
 10
-52.9504
 20
1.80841
 11
-52.8425
 21
1.62592
  0
LINE
  8
0
 10
-52.8425
 20
1.62592
 11
-52.7462
 21
1.437
  0
LINE
  8
0
 10
-52.7462
 20
1.437
 11
-52.662
 21
1.24242
  0
LINE
  8
0
 10
-52.662
 20
1.24242
 11
-52.5902
 21
1.04292
  0
LINE
  8
0
 10
-52.5902
 20
1.04292
 11
-52.531
 21
0.839325
  0
LINE
  8
0
 10
-52.531
 20
0.839325
 11
-52.4848
 21
0.632401
  0
LINE
  8
0
 10
-52.4848
 20
0.632401
 11
-52.4516
 21
0.422989
  0
LINE
  8
0
 10
-52.4516
 20
0.422989
 11
-52.4317
 21
0.211914
  0
LINE
  8
0
 10
-52.4317
 20
0.211914
 11
-52.425
 21
0
  0
LINE
  8
0
 10
-52.425
 20
0
 11
-52.4317
 21
-0.211914
  0
LINE
  8
0
 10
-38.1
 20
12.7
 11
-38.1
 21
-12.7
  0
LINE
  8
0
 10
-38.1
 20
-12.7
 11
38.1
 21
-12.7
  0
LINE
  8
0
 10
38.1
 20
-12.7
 11
38.1
 21
12.7
  0
LINE
  8
0
 10
38.1
 20
12.7
 11
-38.1
 21
12.7
  0
LINE
  8
0
 10
-22.0316
 20
-0.211914
 11
-22.0516
 21
-0.422989
  0
LINE
  8
0
 10
-22.0516
 20
-0.422989
 11
-22.0848
 21
-0.632401
  0
LINE
  8
0
 10
-22.0848
 20
-0.632401
 11
-22.131
 21
-0.839325
  0
LINE
  8
0
 10
-22.131
 20
-0.839325
 11
-22.1902
 21
-1.04292
  0
LINE
  8
0
 10
-22.1902
 20
-1.04292
 11
-22.262
 21
-1.24242
  0
LINE
  8
0
 10
-22.262
 20
-1.24242
 11
-22.3462
 21
-1.437
  0
LINE
  8
0
 10
-22.3462
 20
-1.437
 11
-22.4425
 21
-1.62592
  0
LINE
  8
0
 10
-22.4425
 20
-1.62592
 11
-22.5504
 21
-1.80841
  0
LINE
  8
0
 10
-22.5504
 20
-1.80841
 11
-22.6696
 21
-1.98376
  0
LINE
  8
0
 10
-22.6696
 20
-1.98376
 11
-22.7995
 21
-2.15129
  0
LINE
  8
0
 10
-22.7995
 20
-2.15129
 11
-22.9397
 21
-2.31033
  0
LINE
  8
0
 10
-22.9397
 20
-2.31033
 11
-23.0896
 21
-2.46027
  0
LINE
  8
0
 10
-23.0896
 20
-2.46027
 11
-23.2487
 21
-2.60048
  0
LINE
  8
0
 10
-23.2487
 20
-2.60048
 11
-23.4162
 21
-2.73042
  0
LINE
  8
0
 10
-23.4162
 20
-2.73042
 11
-23.5916
 21
-2.84959
  0
LINE
  8
0
 10
-23.5916
 20
-2.84959
 11
-23.7741
 21
-2.95753
  0
LINE
  8
0
 10
-23.7741
 20
-2.95753
 11
-23.963
 21
-3.05379
  0
LINE
  8
0
 10
-23.963
 20
-3.05379
 11
-24.1576
 21
-3.13799
  0
LINE
  8
0
 10
-24.1576
 20
-3.13799
 11
-24.3571
 21
-3.20981
  0
LINE
  8
0
 10
-24.3571
 20
-3.20981
 11
-24.5607
 21
-3.26897
  0
LINE
  8
0
 10
-24.5607
 20
-3.26897
 11
-24.7676
 21
-3.31522
  0
LINE
  8
0
 10
-24.7676
 20
-3.31522
 11
-24.977
 21
-3.34837
  0
LINE
  8
0
 10
-24.977
 20
-3.34837
 11
-25.1881
 21
-3.36833
  0
LINE
  8
0
 10
-25.1881
 20
-3.36833
 11
-25.4
 21
-3.375
  0
LINE
  8
0
 10
-25.4
 20
-3.375
 11
-25.6119
 21
-3.36833
  0
LINE
  8
0
 10
-25.6119
 20
-3.36833
 11
-25.823
 21
-3.34837
  0
LINE
  8
0
 10
-25.823
 20
-3.34837
 11
-26.0324
 21
-3.31522
  0
LINE
  8
0
 10
-26.0324
 20
-3.31522
 11
-26.2393
 21
-3.26897
  0
LINE
  8
0
 10
-26.2393
 20
-3.26897
 11
-26.4429
 21
-3.20981
  0
LINE
  8
0
 10
-26.4429
 20
-3.20981
 11
-26.6424
 21
-3.13799
  0
LINE
  8
0
 10
-26.6424
 20
-3.13799
 11
-26.837
 21
-3.05379
  0
LINE
  8
0
 10
-26.837
 20
-3.05379
 11
-27.0259
 21
-2.95753
  0
LINE
  8
0
 10
-27.0259
 20
-2.95753
 11
-27.2084
 21
-2.84959
  0
LINE
  8
0
 10
-27.2084
 20
-2.84959
 11
-27.3838
 21
-2.73042
  0
LINE
  8
0
 10
-27.3838
 20
-2.73042
 11
-27.5513
 21
-2.60048
  0
LINE
  8
0
 10
-27.5513
 20
-2.60048
 11
-27.7103
 21
-2.46027
  0
LINE
  8
0
 10
-27.7103
 20
-2.46027
 11
-27.8603
 21
-2.31033
  0
LINE
  8
0
 10
-27.8603
 20
-2.31033
 11
-28.0005
 21
-2.15129
  0
LINE
  8
0
 10
-28.0005
 20
-2.15129
 11
-28.1304
 21
-1.98376
  0
LINE
  8
0
 10
-28.1304
 20
-1.98376
 11
-28.2496
 21
-1.80841
  0
LINE
  8
0
 10
-28.2496
 20
-1.80841
 11
-28.3575
 21
-1.62592
  0
LINE
  8
0
 10
-28.3575
 20
-1.62592
 11
-28.4538
 21
-1.437
  0
LINE
  8
0
 10
-28.4538
 20
-1.437
 11
-28.538
 21
-1.24242
  0
LINE
  8
0
 10
-28.538
 20
-1.24242
 11
-28.6098
 21
-1.04292
  0
LINE
  8
0
 10
-28.6098
 20
-1.04292
 11
-28.669
 21
-0.839325
  0
LINE
  8
0
 10
-28.669
 20
-0.839325
 11
-28.7152
 21
-0.632401
  0
LINE
  8
0
 10
-28.7152
 20
-0.632401
 11
-28.7484
 21
-0.422989
  0
LINE
  8
0
 10
-28.7484
 20
-0.422989
 11
-28.7683
 21
-0.211914
  0
LINE
  8
0
 10
-28.7683
 20
-0.211914
 11
-28.775
 21
0
  0
LINE
  8
0
 10
-28.775
 20
0
 11
-28.7683
 21
0.211914
  0
LINE
  8
0
 10
-28.7683
 20
0.211914
 11
-28.7484
 21
0.422989
  0
LINE
  8
0
 10
-28.7484
 20
0.422989
 11
-28.7152
 21
0.632401
  0
LINE
  8
0
 10
-28.7152
 20
0.632401
 11
-28.669
 21
0.839325
  0
LINE
  8
0
 10
-28.669
 20
0.839325
 11
-28.6098
 21
1.04292
  0
LINE
  8
0
 10
-28.6098
 20
1.04292
 11
-28.538
 21
1.24242
  0
LINE
  8
0
 10
-28.538
 20
1.24242
 11
-28.4538
 21
1.437
  0
LINE
  8
0
 10
-28.4538
 20
1.437
 11
-28.3575
 21
1.62592
  0
LINE
  8
0
 10
-28.3575
 20
1.62592
 11
-28.2496
 21
1.80841
  0
LINE
  8
0
 10
-28.2496
 20
1.80841
 11
-28.1304
 21
1.98376
  0
LINE
  8
0
 10
-28.1304
 20
1.98376
 11
-28.0005
 21
2.15129
  0
LINE
  8
0
 10
-28.0005
 20
2.15129
 11
-27.8603
 21
2.31033
  0
LINE
  8
0
 10
-27.8603
 20
2.31033
 11
-27.7103
 21
2.46027
  0
LINE
  8
0
 10
-27.7103
 20
2.46027
 11
-27.5513
 21
2.60048
  0
LINE
  8
0
 10
-27.5513
 20
2.60048
 11
-27.3838
 21
2.73042
  0
LINE
  8
0
 10
-27.3838
 20
2.73042
 11
-27.2084
 21
2.84959
  0
LINE
  8
0
 10
-27.2084
 20
2.84959
 11
-27.0259
 21
2.95753
  0
LINE
  8
0
 10
-27.0259
 20
2.95753
 11
-26.837
 21
3.05379
  0
LINE
  8
0
 10
-26.837
 20
3.05379
 11
-26.6424
 21
3.13799
  0
LINE
  8
0
 10
-26.6424
 20
3.13799
 11
-26.4429
 21
3.20981
  0
LINE
  8
0
 10
-26.4429
 20
3.20981
 11
-26.2393
 21
3.26897
  0
LINE
  8
0
 10
-26.2393
 20
3.26897
 11
-26.0324
 21
3.31522
  0
LINE
  8
0
 10
-26.0324
 20
3.31522
 11
-25.823
 21
3.34837
  0
LINE
  8
0
 10
-25.823
 20
3.34837
 11
-25.6119
 21
3.36833
  0
LINE
  8
0
 10
-25.6119
 20
3.36833
 11
-25.4
 21
3.375
  0
LINE
  8
0
 10
-25.4
 20
3.375
 11
-25.1881
 21
3.36833
  0
LINE
  8
0
 10
-25.1881
 20
3.36833
 11
-24.977
 21
3.34837
  0
LINE
  8
0
 10
-24.977
 20
3.34837
 11
-24.7676
 21
3.31522
  0
LINE
  8
0
 10
-24.7676
 20
3.31522
 11
-24.5607
 21
3.26897
  0
LINE
  8
0
 10
-24.5607
 20
3.26897
 11
-24.3571
 21
3.20981
  0
LINE
  8
0
 10
-24.3571
 20
3.20981
 11
-24.1576
 21
3.13799
  0
LINE
  8
0
 10
-24.1576
 20
3.13799
 11
-23.963
 21
3.05379
  0
LINE
  8
0
 10
-23.963
 20
3.05379
 11
-23.7741
 21
2.95753
  0
LINE
  8
0
 10
-23.7741
 20
2.95753
 11
-23.5916
 21
2.84959
  0
LINE
  8
0
 10
-23.5916
 20
2.84959
 11
-23.4162
 21
2.73042
  0
LINE
  8
0
 10
-23.4162
 20
2.73042
 11
-23.2487
 21
2.60048
  0
LINE
  8
0
 10
-23.2487
 20
2.60048
 11
-23.0896
 21
2.46027
  0
LINE
  8
0
 10
-23.0896
 20
2.46027
 11
-22.9397
 21
2.31033
  0
LINE
  8
0
 10
-22.9397
 20
2.31033
 11
-22.7995
 21
2.15129
  0
LINE
  8
0
 10
-22.7995
 20
2.15129
 11
-22.6696
 21
1.98376
  0
LINE
  8
0
 10
-22.6696
 20
1.98376
 11
-22.5504
 21
1.80841
  0
LINE
  8
0
 10
-22.5504
 20
1.80841
 11
-22.4425
 21
1.62592
  0
LINE
  8
0
 10
-22.4425
 20
1.62592
 11
-22.3462
 21
1.437
  0
LINE
  8
0
 10
-22.3462
 20
1.437
 11
-22.262
 21
1.24242
  0
LINE
  8
0
 10
-22.262
 20
1.24242
 11
-22.1902
 21
1.04292
  0
LINE
  8
0
 10
-22.1902
 20
1.04292
 11
-22.131
 21
0.839325
  0
LINE
  8
0
 10
-22.131
 20
0.839325
 11
-22.0848
 21
0.632401
  0
LINE
  8
0
 10
-22.0848
 20
0.632401
 11
-22.0516
 21
0.422989
  0
LINE
  8
0
 10
-22.0516
 20
0.422989
 11
-22.0316
 21
0.211914
  0
LINE
  8
0
 10
-22.0316
 20
0.211914
 11
-22.025
 21
0
  0
LINE
  8
0
 10
-22.025
 20
0
 11
-22.0316
 21
-0.211914
  0
LINE
  8
0
 10
28.7683
 20
-0.211914
 11
28.7484
 21
-0.422989
  0
LINE
  8
0
 10
28.7484
 20
-0.422989
 11
28.7152
 21
-0.632401
  0
LINE
  8
0
 10
28.7152
 20
-0.632401
 11
28.669
 21
-0.839325
  0
LINE
  8
0
 10
28.669
 20
-0.839325
 11
28.6098
 21
-1.04292
  0
LINE
  8
0
 10
28.6098
 20
-1.04292
 11
28.538
 21
-1.24242
  0
LINE
  8
0
 10
28.538
 20
-1.24242
 11
28.4538
 21
-1.437
  0
LINE
  8
0
 10
28.4538
 20
-1.437
 11
28.3575
 21
-1.62592
  0
LINE
  8
0
 10
28.3575
 20
-1.62592
 11
28.2496
 21
-1.80841
  0
LINE
  8
0
 10
28.2496
 20
-1.80841
 11
28.1304
 21
-1.98376
  0
LINE
  8
0
 10
28.1304
 20
-1.98376
 11
28.0005
 21
-2.15129
  0
LINE
  8
0
 10
28.0005
 20
-2.15129
 11
27.8603
 21
-2.31033
  0
LINE
  8
0
 10
27.8603
 20
-2.31033
 11
27.7103
 21
-2.46027
  0
LINE
  8
0
 10
27.7103
 20
-2.46027
 11
27.5513
 21
-2.60048
  0
LINE
  8
0
 10
27.5513
 20
-2.60048
 11
27.3838
 21
-2.73042
  0
LINE
  8
0
 10
27.3838
 20
-2.73042
 11
27.2084
 21
-2.84959
  0
LINE
  8
0
 10
27.2084
 20
-2.84959
 11
27.0259
 21
-2.95753
  0
LINE
  8
0
 10
27.0259
 20
-2.95753
 11
26.837
 21
-3.05379
  0
LINE
  8
0
 10
26.837
 20
-3.05379
 11
26.6424
 21
-3.13799
  0
LINE
  8
0
 10
26.6424
 20
-3.13799
 11
26.4429
 21
-3.20981
  0
LINE
  8
0
 10
26.4429
 20
-3.20981
 11
26.2393
 21
-3.26897
  0
LINE
  8
0
 10
26.2393
 20
-3.26897
 11
26.0324
 21
-3.31522
  0
LINE
  8
0
 10
26.0324
 20
-3.31522
 11
25.823
 21
-3.34837
  0
LINE
  8
0
 10
25.823
 20
-3.34837
 11
25.6119
 21
-3.36833
  0
LINE
  8
0
 10
25.6119
 20
-3.36833
 11
25.4
 21
-3.375
  0
LINE
  8
0
 10
25.4
 20
-3.375
 11
25.1881
 21
-3.36833
  0
LINE
  8
0
 10
25.1881
 20
-3.36833
 11
24.977
 21
-3.34837
  0
LINE
  8
0
 10
24.977
 20
-3.34837
 11
24.7676
 21
-3.31522
  0
LINE
  8
0
 10
24.7676
 20
-3.31522
 11
24.5607
 21
-3.26897
  0
LINE
  8
0
 10
24.5607
 20
-3.26897
 11
24.3571
 21
-3.20981
  0
LINE
  8
0
 10
24.3571
 20
-3.20981
 11
24.1576
 21
-3.13799
  0
LINE
  8
0
 10
24.1576
 20
-3.13799
 11
23.963
 21
-3.05379
  0
LINE
  8
0
 10
23.963
 20
-3.05379
 11
23.7741
 21
-2.95753
  0
LINE
  8
0
 10
23.7741
 20
-2.95753
 11
23.5916
 21
-2.84959
  0
LINE
  8
0
 10
23.5916
 20
-2.84959
 11
23.4162
 21
-2.73042
  0
LINE
  8
0
 10
23.4162
 20
-2.73042
 11
23.2487
 21
-2.60048
  0
LINE
  8
0
 10
23.2487
 20
-2.60048
 11
23.0896
 21
-2.46027
  0
LINE
  8
0
 10
23.0896
 20
-2.46027
 11
22.9397
 21
-2.31033
  0
LINE
  8
0
 10
22.9397
 20
-2.31033
 11
22.7995
 21
-2.15129
  0
LINE
  8
0
 10
22.7995
 20
-2.15129
 11
22.6696
 21
-1.98376
  0
LINE
  8
0
 10
22.6696
 20
-1.98376
 11
22.5504
 21
-1.80841
  0
LINE
  8
0
 10
22.5504
 20
-1.80841
 11
22.4425
 21
-1.62592
  0
LINE
  8
0
 10
22.4425
 20
-1.62592
 11
22.3462
 21
-1.437
  0
LINE
  8
0
 10
22.3462
 20
-1.437
 11
22.262
 21
-1.24242
  0
LINE
  8
0
 10
22.262
 20
-1.24242
 11
22.1902
 21
-1.04292
  0
LINE
  8
0
 10
22.1902
 20
-1.04292
 11
22.131
 21
-0.839325
  0
LINE
  8
0
 10
22.131
 20
-0.839325
 11
22.0848
 21
-0.632401
  0
LINE
  8
0
 10
22.0848
 20
-0.632401
 11
22.0516
 21
-0.422989
  0
LINE
  8
0
 10
22.0516
 20
-0.422989
 11
22.0316
 21
-0.211914
  0
LINE
  8
0
 10
22.0316
 20
-0.211914
 11
22.025
 21
0
  0
LINE
  8
0
 10
22.025
 20
0
 11
22.0316
 21
0.211914
  0
LINE
  8
0
 10
22.0316
 20
0.211914
 11
22.0516
 21
0.422989
  0
LINE
  8
0
 10
22.0516
 20
0.422989
 11
22.0848
 21
0.632401
  0
LINE
  8
0
 10
22.0848
 20
0.632401
 11
22.131
 21
0.839325
  0
LINE
  8
0
 10
22.131
 20
0.839325
 11
22.1902
 21
1.04292
  0
LINE
  8
0
 10
22.1902
 20
1.04292
 11
22.262
 21
1.24242
  0
LINE
  8
0
 10
22.262
 20
1.24242
 11
22.3462
 21
1.437
  0
LINE
  8
0
 10
22.3462
 20
1.437
 11
22.4425
 21
1.62592
  0
LINE
  8
0
 10
22.4425
 20
1.62592
 11
22.5504
 21
1.80841
  0
LINE
  8
0
 10
22.5504
 20
1.80841
 11
22.6696
 21
1.98376
  0
LINE
  8
0
 10
22.6696
 20
1.98376
 11
22.7995
 21
2.15129
  0
LINE
  8
0
 10
22.7995
 20
2.15129
 11
22.9397
 21
2.31033
  0
LINE
  8
0
 10
22.9397
 20
2.31033
 11
23.0896
 21
2.46027
  0
LINE
  8
0
 10
23.0896
 20
2.46027
 11
23.2487
 21
2.60048
  0
LINE
  8
0
 10
23.2487
 20
2.60048
 11
23.4162
 21
2.73042
  0
LINE
  8
0
 10
23.4162
 20
2.73042
 11
23.5916
 21
2.84959
  0
LINE
  8
0
 10
23.5916
 20
2.84959
 11
23.7741
 21
2.95753
  0
LINE
  8
0
 10
23.7741
 20
2.95753
 11
23.963
 21
3.05379
  0
LINE
  8
0
 10
23.963
 20
3.05379
 11
24.1576
 21
3.13799
  0
LINE
  8
0
 10
24.1576
 20
3.13799
 11
24.3571
 21
3.20981
  0
LINE
  8
0
 10
24.3571
 20
3.20981
 11
24.5607
 21
3.26897
  0
LINE
  8
0
 10
24.5607
 20
3.26897
 11
24.7676
 21
3.31522
  0
LINE
  8
0
 10
24.7676
 20
3.31522
 11
24.977
 21
3.34837
  0
LINE
  8
0
 10
24.977
 20
3.34837
 11
25.1881
 21
3.36833
  0
LINE
  8
0
 10
25.1881
 20
3.36833
 11
25.4
 21
3.375
  0
LINE
  8
0
 10
25.4
 20
3.375
 11
25.6119
 21
3.36833
  0
LINE
  8
0
 10
25.6119
 20
3.36833
 11
25.823
 21
3.34837
  0
LINE
  8
0
 10
25.823
 20
3.34837
 11
26.0324
 21
3.31522
  0
LINE
  8
0
 10
26.0324
 20
3.31522
 11
26.2393
 21
3.26897
  0
LINE
  8
0
 10
26.2393
 20
3.26897
 11
26.4429
 21
3.20981
  0
LINE
  8
0
 10
26.4429
 20
3.20981
 11
26.6424
 21
3.13799
  0
LINE
  8
0
 10
26.6424
 20
3.13799
 11
26.837
 21
3.05379
  0
LINE
  8
0
 10
26.837
 20
3.05379
 11
27.0259
 21
2.95753
  0
LINE
  8
0
 10
27.0259
 20
2.95753
 11
27.2084
 21
2.84959
  0
LINE
  8
0
 10
27.2084
 20
2.84959
 11
27.3838
 21
2.73042
  0
LINE
  8
0
 10
27.3838
 20
2.73042
 11
27.5513
 21
2.60048
  0
LINE
  8
0
 10
27.5513
 20
2.60048
 11
27.7103
 21
2.46027
  0
LINE
  8
0
 10
27.7103
 20
2.46027
 11
27.8603
 21
2.31033
  0
LINE
  8
0
 10
27.8603
 20
2.31033
 11
28.0005
 21
2.15129
  0
LINE
  8
0
 10
28.0005
 20
2.15129
 11
28.1304
 21
1.98376
  0
LINE
  8
0
 10
28.1304
 20
1.98376
 11
28.2496
 21
1.80841
  0
LINE
  8
0
 10
28.2496
 20
1.80841
 11
28.3575
 21
1.62592
  0
LINE
  8
0
 10
28.3575
 20
1.62592
 11
28.4538
 21
1.437
  0
LINE
  8
0
 10
28.4538
 20
1.437
 11
28.538
 21
1.24242
  0
LINE
  8
0
 10
28.538
 20
1.24242
 11
28.6098
 21
1.04292
  0
LINE
  8
0
 10
28.6098
 20
1.04292
 11
28.669
 21
0.839325
  0
LINE
  8
0
 10
28.669
 20
0.839325
 11
28.7152
 21
0.632401
  0
LINE
  8
0
 10
28.7152
 20
0.632401
 11
28.7484
 21
0.422989
  0
LINE
  8
0
 10
28.7484
 20
0.422989
 11
28.7683
 21
0.211914
  0
LINE
  8
0
 10
28.7683
 20
0.211914
 11
28.775
 21
0
  0
LINE
  8
0
 10
28.775
 20
0
 11
28.7683
 21
-0.211914
  0
ENDSEC
  0
SECTION
  2
OBJECTS
  0
DICTIONARY
  0
ENDSEC
  0
EOF
