  0
SECTION
  2
HEADER
  9
$ACADVER
  1
AC1009
  9
$DWGCODEPAGE
  3
ANSI_1252
  9
$INSBASE
 10
0.0
 20
0.0
 30
0.0
  9
$EXTMIN
 10
1e+20
 20
1e+20
 30
1e+20
  9
$EXTMAX
 10
-1e+20
 20
-1e+20
 30
-1e+20
  9
$LIMMIN
 10
0.0
 20
0.0
  9
$LIMMAX
 10
420.0
 20
297.0
  9
$ORTHOMODE
 70
0
  9
$REGENMODE
 70
1
  9
$FILLMODE
 70
1
  9
$DRAGMODE
 70
2
  9
$QTEXTMODE
 70
0
  9
$MIRRTEXT
 70
1
  9
$OSMODE
 70
20583
  9
$LTSCALE
 40
1.0
  9
$ATTMODE
 70
1
  9
$TEXTSIZE
 40
2.5
  9
$TRACEWID
 40
1.0
  9
$TEXTSTYLE
  7
Standard
  9
$CLAYER
  8
0
  9
$CELTYPE
  6
ByLayer
  9
$CECOLOR
 62
256
  9
$DIMSCALE
 40
1.0
  9
$DIMASZ
 40
2.5
  9
$DIMEXO
 40
0.625
  9
$DIMDLI
 40
3.75
  9
$DIMRND
 40
0.0
  9
$DIMDLE
 40
0.0
  9
$DIMEXE
 40
1.25
  9
$DIMTP
 40
0.0
  9
$DIMTM
 40
0.0
  9
$DIMTXT
 40
2.5
  9
$DIMCEN
 40
2.5
  9
$DIMTSZ
 40
0.0
  9
$DIMTOL
 70
0
  9
$DIMLIM
 70
0
  9
$DIMTIH
 70
0
  9
$DIMTOH
 70
0
  9
$DIMSE1
 70
0
  9
$DIMSE2
 70
0
  9
$DIMTAD
 70
1
  9
$DIMZIN
 70
8
  9
$DIMBLK
  1

  9
$DIMASO
 70
1
  9
$DIMSHO
 70
1
  9
$DIMPOST
  1

  9
$DIMAPOST
  1

  9
$DIMALT
 70
0
  9
$DIMALTD
 70
3
  9
$DIMALTF
 40
0.03937007874
  9
$DIMLFAC
 40
1.0
  9
$DIMTOFL
 70
1
  9
$DIMTVP
 40
0.0
  9
$DIMTIX
 70
0
  9
$DIMSOXD
 70
0
  9
$DIMSAH
 70
0
  9
$DIMBLK1
  1

  9
$DIMBLK2
  1

  9
$DIMSTYLE
  2
ISO-25
  9
$DIMCLRD
 70
0
  9
$DIMCLRE
 70
0
  9
$DIMCLRT
 70
0
  9
$DIMTFAC
 40
1.0
  9
$DIMGAP
 40
0.625
  9
$COORDS
 70
1
  9
$ATTDIA
 70
0
  9
$ATTREQ
 70
1
  9
$HANDLING
 70
1
  9
$LUNITS
 70
2
  9
$LUPREC
 70
4
  9
$SKETCHINC
 40
1.0
  9
$FILLETRAD
 40
10.0
  9
$AUNITS
 70
0
  9
$AUPREC
 70
2
  9
$MENU
  1
.
  9
$ELEVATION
 40
0.0
  9
$PELEVATION
 40
0.0
  9
$THICKNESS
 40
0.0
  9
$LIMCHECK
 70
0
  9
$CHAMFERA
 40
0.0
  9
$CHAMFERB
 40
0.0
  9
$SKPOLY
 70
0
  9
$TDCREATE
 40
2461289.5788078704
  9
$TDUPDATE
 40
2461289.5788078704
  9
$TDINDWG
 40
0.0
  9
$TDUSRTIMER
 40
0.0
  9
$USRTIMER
 70
1
  9
$ANGBASE
 50
0.0
  9
$ANGDIR
 70
0
  9
$PDMODE
 70
0
  9
$PDSIZE
 40
0.0
  9
$PLINEWID
 40
0.0
  9
$SPLFRAME
 70
0
  9
$SPLINETYPE
 70
6
  9
$SPLINESEGS
 70
8
  9
$HANDSEED
  5
2CF
  9
$SURFTAB1
 70
6
  9
$SURFTAB2
 70
6
  9
$SURFTYPE
 70
6
  9
$SURFU
 70
6
  9
$SURFV
 70
6
  9
$UCSNAME
  2

  9
$UCSORG
 10
0.0
 20
0.0
 30
0.0
  9
$UCSXDIR
 10
1.0
 20
0.0
 30
0.0
  9
$UCSYDIR
 10
0.0
 20
1.0
 30
0.0
  9
$PUCSNAME
  2

  9
$PUCSORG
 10
0.0
 20
0.0
 30
0.0
  9
$PUCSXDIR
 10
1.0
 20
0.0
 30
0.0
  9
$PUCSYDIR
 10
0.0
 20
1.0
 30
0.0
  9
$USERI1
 70
0
  9
$USERI2
 70
0
  9
$USERI3
 70
0
  9
$USERI4
 70
0
  9
$USERI5
 70
0
  9
$USERR1
 40
0.0
  9
$USERR2
 40
0.0
  9
$USERR3
 40
0.0
  9
$USERR4
 40
0.0
  9
$USERR5
 40
0.0
  9
$WORLDVIEW
 70
1
  9
$SHADEDGE
 70
3
  9
$SHADEDIF
 70
70
  9
$TILEMODE
 70
1
  9
$MAXACTVP
 70
64
  9
$PLIMCHECK
 70
0
  9
$PEXTMIN
 10
1e+20
 20
1e+20
 30
1e+20
  9
$PEXTMAX
 10
-1e+20
 20
-1e+20
 30
-1e+20
  9
$PLIMMIN
 10
0.0
 20
0.0
  9
$PLIMMAX
 10
420.0
 20
297.0
  9
$UNITMODE
 70
0
  9
$VISRETAIN
 70
1
  9
$PLINEGEN
 70
0
  9
$PSLTSCALE
 70
1
  0
ENDSEC
  0
SECTION
  2
TABLES
  0
TABLE
  2
VPORT
 70
1
  0
VPORT
  5
2C3
  2
*Active
 70
0
 10
0.0
 20
0.0
 11
1.0
 21
1.0
 12
0.0
 22
0.0
 13
0.0
 23
0.0
 14
0.5
 24
0.5
 15
0.5
 25
0.5
 16
0.0
 26
0.0
 36
1.0
 17
0.0
 27
0.0
 37
0.0
 40
1000.0
 41
1.34
 42
50.0
 43
0.0
 44
0.0
 50
0.0
 51
0.0
 71
0
 72
1000
 73
1
 74
3
 75
0
 76
0
 77
0
 78
0
  0
ENDTAB
  0
TABLE
  2
LTYPE
 70
3
  0
LTYPE
  5
2C4
  2
ByBlock
 70
0
  3

 72
65
 73
0
 40
0.0
  0
LTYPE
  5
2C5
  2
ByLayer
 70
0
  3

 72
65
 73
0
 40
0.0
  0
LTYPE
  5
2C6
  2
Continuous
 70
0
  3

 72
65
 73
0
 40
0.0
  0
ENDTAB
  0
TABLE
  2
LAYER
 70
2
  0
LAYER
  5
2C7
  2
0
 70
0
 62
1
  6
Continuous
  0
LAYER
  5
2C8
  2
Defpoints
 70
0
 62
7
  6
Continuous
  0
ENDTAB
  0
TABLE
  2
STYLE
 70
1
  0
STYLE
  5
2C9
  2
Standard
 70
0
 40
0.0
 41
1.0
 50
0.0
 71
0
 42
2.5
  3
txt
  4

  0
ENDTAB
  0
TABLE
  2
VIEW
 70
0
  0
ENDTAB
  0
TABLE
  2
UCS
 70
0
  0
ENDTAB
  0
TABLE
  2
APPID
 70
3
  0
APPID
  5
2CA
  2
ACAD
 70
0
  0
APPID
  5
2CD
  2
HATCHBACKGROUNDCOLOR
 70
0
  0
APPID
  5
2CE
  2
EZDXF
 70
0
  0
ENDTAB
  0
TABLE
  2
DIMSTYLE
 70
1
  0
DIMSTYLE
105
2CB
  2
Standard
 70
0
  3

  4

  5

  6

  7

 40
1.0
 41
2.5
 42
0.625
 43
3.75
 44
1.25
 45
0.0
 46
0.0
 47
0.0
 48
0.0
140
2.5
141
2.5
142
0.0
143
0.03937007874
144
1.0
145
0.0
146
1.0
147
0.625
 71
0
 72
0
 73
0
 74
0
 75
0
 76
0
 77
1
 78
8
170
0
171
3
172
1
173
0
174
0
175
0
176
0
177
0
178
0
  0
ENDTAB
  0
ENDSEC
  0
SECTION
  2
BLOCKS
  0
BLOCK
  5
2A4
  8
0
  2
$Model_Space
 70
0
 10
0.0
 20
0.0
 30
0.0
  3
$Model_Space
  1

1001
EZDXF
1000
WRITTEN_BY_EZDXF
1000
1.4.4 @ 2026-09-05T17:53:29.486613+00:00
  0
ENDBLK
  5
2A5
  8
0
  0
BLOCK
  5
2A6
  8
0
  2
$Paper_Space
 70
0
 10
0.0
 20
0.0
 30
0.0
  3
$Paper_Space
  1

  0
ENDBLK
  5
2A7
  8
0
  0
ENDSEC
  0
SECTION
  2
ENTITIES
  0
LINE
  5
100
  8
0
 62
1
 10
-119.3
 20
12.7
 30
0.0
 11
-119.3
 21
-12.7
 31
0.0
  0
LINE
  5
101
  8
0
 62
1
 10
-119.3
 20
-12.7
 30
0.0
 11
-43.1
 21
-12.7
 31
0.0
  0
LINE
  5
102
  8
0
 62
1
 10
-43.1
 20
-12.7
 30
0.0
 11
-43.1
 21
12.7
 31
0.0
  0
LINE
  5
103
  8
0
 62
1
 10
-43.1
 20
12.7
 30
0.0
 11
-119.3
 21
12.7
 31
0.0
  0
LINE
  5
104
  8
0
 62
1
 10
-103.232
 20
-0.211914
 30
0.0
 11
-103.252
 21
-0.422989
 31
0.0
  0
LINE
  5
105
  8
0
 62
1
 10
-103.252
 20
-0.422989
 30
0.0
 11
-103.285
 21
-0.632401
 31
0.0
  0
LINE
  5
106
  8
0
 62
1
 10
-103.285
 20
-0.632401
 30
0.0
 11
-103.331
 21
-0.839325
 31
0.0
  0
LINE
  5
107
  8
0
 62
1
 10
-103.331
 20
-0.839325
 30
0.0
 11
-103.39
 21
-1.04292
 31
0.0
  0
LINE
  5
108
  8
0
 62
1
 10
-103.39
 20
-1.04292
 30
0.0
 11
-103.462
 21
-1.24242
 31
0.0
  0
LINE
  5
109
  8
0
 62
1
 10
-103.462
 20
-1.24242
 30
0.0
 11
-103.546
 21
-1.437
 31
0.0
  0
LINE
  5
10A
  8
0
 62
1
 10
-103.546
 20
-1.437
 30
0.0
 11
-103.642
 21
-1.62592
 31
0.0
  0
LINE
  5
10B
  8
0
 62
1
 10
-103.642
 20
-1.62592
 30
0.0
 11
-103.75
 21
-1.80841
 31
0.0
  0
LINE
  5
10C
  8
0
 62
1
 10
-103.75
 20
-1.80841
 30
0.0
 11
-103.87
 21
-1.98376
 31
0.0
  0
LINE
  5
10D
  8
0
 62
1
 10
-103.87
 20
-1.98376
 30
0.0
 11
-104.0
 21
-2.15129
 31
0.0
  0
LINE
  5
10E
  8
0
 62
1
 10
-104.0
 20
-2.15129
 30
0.0
 11
-104.14
 21
-2.31033
 31
0.0
  0
LINE
  5
10F
  8
0
 62
1
 10
-104.14
 20
-2.31033
 30
0.0
 11
-104.29
 21
-2.46027
 31
0.0
  0
LINE
  5
110
  8
0
 62
1
 10
-104.29
 20
-2.46027
 30
0.0
 11
-104.449
 21
-2.60048
 31
0.0
  0
LINE
  5
111
  8
0
 62
1
 10
-104.449
 20
-2.60048
 30
0.0
 11
-104.616
 21
-2.73042
 31
0.0
  0
LINE
  5
112
  8
0
 62
1
 10
-104.616
 20
-2.73042
 30
0.0
 11
-104.792
 21
-2.84959
 31
0.0
  0
LINE
  5
113
  8
0
 62
1
 10
-104.792
 20
-2.84959
 30
0.0
 11
-104.974
 21
-2.95753
 31
0.0
  0
LINE
  5
114
  8
0
 62
1
 10
-104.974
 20
-2.95753
 30
0.0
 11
-105.163
 21
-3.05379
 31
0.0
  0
LINE
  5
115
  8
0
 62
1
 10
-105.163
 20
-3.05379
 30
0.0
 11
-105.358
 21
-3.13799
 31
0.0
  0
LINE
  5
116
  8
0
 62
1
 10
-105.358
 20
-3.13799
 30
0.0
 11
-105.557
 21
-3.20981
 31
0.0
  0
LINE
  5
117
  8
0
 62
1
 10
-105.557
 20
-3.20981
 30
0.0
 11
-105.761
 21
-3.26897
 31
0.0
  0
LINE
  5
118
  8
0
 62
1
 10
-105.761
 20
-3.26897
 30
0.0
 11
-105.968
 21
-3.31522
 31
0.0
  0
LINE
  5
119
  8
0
 62
1
 10
-105.968
 20
-3.31522
 30
0.0
 11
-106.177
 21
-3.34837
 31
0.0
  0
LINE
  5
11A
  8
0
 62
1
 10
-106.177
 20
-3.34837
 30
0.0
 11
-106.388
 21
-3.36833
 31
0.0
  0
LINE
  5
11B
  8
0
 62
1
 10
-106.388
 20
-3.36833
 30
0.0
 11
-106.6
 21
-3.375
 31
0.0
  0
LINE
  5
11C
  8
0
 62
1
 10
-106.6
 20
-3.375
 30
0.0
 11
-106.812
 21
-3.36833
 31
0.0
  0
LINE
  5
11D
  8
0
 62
1
 10
-106.812
 20
-3.36833
 30
0.0
 11
-107.023
 21
-3.34837
 31
0.0
  0
LINE
  5
11E
  8
0
 62
1
 10
-107.023
 20
-3.34837
 30
0.0
 11
-107.232
 21
-3.31522
 31
0.0
  0
LINE
  5
11F
  8
0
 62
1
 10
-107.232
 20
-3.31522
 30
0.0
 11
-107.439
 21
-3.26897
 31
0.0
  0
LINE
  5
120
  8
0
 62
1
 10
-107.439
 20
-3.26897
 30
0.0
 11
-107.643
 21
-3.20981
 31
0.0
  0
LINE
  5
121
  8
0
 62
1
 10
-107.643
 20
-3.20981
 30
0.0
 11
-107.842
 21
-3.13799
 31
0.0
  0
LINE
  5
122
  8
0
 62
1
 10
-107.842
 20
-3.13799
 30
0.0
 11
-108.037
 21
-3.05379
 31
0.0
  0
LINE
  5
123
  8
0
 62
1
 10
-108.037
 20
-3.05379
 30
0.0
 11
-108.226
 21
-2.95753
 31
0.0
  0
LINE
  5
124
  8
0
 62
1
 10
-108.226
 20
-2.95753
 30
0.0
 11
-108.408
 21
-2.84959
 31
0.0
  0
LINE
  5
125
  8
0
 62
1
 10
-108.408
 20
-2.84959
 30
0.0
 11
-108.584
 21
-2.73042
 31
0.0
  0
LINE
  5
126
  8
0
 62
1
 10
-108.584
 20
-2.73042
 30
0.0
 11
-108.751
 21
-2.60048
 31
0.0
  0
LINE
  5
127
  8
0
 62
1
 10
-108.751
 20
-2.60048
 30
0.0
 11
-108.91
 21
-2.46027
 31
0.0
  0
LINE
  5
128
  8
0
 62
1
 10
-108.91
 20
-2.46027
 30
0.0
 11
-109.06
 21
-2.31033
 31
0.0
  0
LINE
  5
129
  8
0
 62
1
 10
-109.06
 20
-2.31033
 30
0.0
 11
-109.2
 21
-2.15129
 31
0.0
  0
LINE
  5
12A
  8
0
 62
1
 10
-109.2
 20
-2.15129
 30
0.0
 11
-109.33
 21
-1.98376
 31
0.0
  0
LINE
  5
12B
  8
0
 62
1
 10
-109.33
 20
-1.98376
 30
0.0
 11
-109.45
 21
-1.80841
 31
0.0
  0
LINE
  5
12C
  8
0
 62
1
 10
-109.45
 20
-1.80841
 30
0.0
 11
-109.558
 21
-1.62592
 31
0.0
  0
LINE
  5
12D
  8
0
 62
1
 10
-109.558
 20
-1.62592
 30
0.0
 11
-109.654
 21
-1.437
 31
0.0
  0
LINE
  5
12E
  8
0
 62
1
 10
-109.654
 20
-1.437
 30
0.0
 11
-109.738
 21
-1.24242
 31
0.0
  0
LINE
  5
12F
  8
0
 62
1
 10
-109.738
 20
-1.24242
 30
0.0
 11
-109.81
 21
-1.04292
 31
0.0
  0
LINE
  5
130
  8
0
 62
1
 10
-109.81
 20
-1.04292
 30
0.0
 11
-109.869
 21
-0.839325
 31
0.0
  0
LINE
  5
131
  8
0
 62
1
 10
-109.869
 20
-0.839325
 30
0.0
 11
-109.915
 21
-0.632401
 31
0.0
  0
LINE
  5
132
  8
0
 62
1
 10
-109.915
 20
-0.632401
 30
0.0
 11
-109.948
 21
-0.422989
 31
0.0
  0
LINE
  5
133
  8
0
 62
1
 10
-109.948
 20
-0.422989
 30
0.0
 11
-109.968
 21
-0.211914
 31
0.0
  0
LINE
  5
134
  8
0
 62
1
 10
-109.968
 20
-0.211914
 30
0.0
 11
-109.975
 21
0.0
 31
0.0
  0
LINE
  5
135
  8
0
 62
1
 10
-109.975
 20
0.0
 30
0.0
 11
-109.968
 21
0.211914
 31
0.0
  0
LINE
  5
136
  8
0
 62
1
 10
-109.968
 20
0.211914
 30
0.0
 11
-109.948
 21
0.422989
 31
0.0
  0
LINE
  5
137
  8
0
 62
1
 10
-109.948
 20
0.422989
 30
0.0
 11
-109.915
 21
0.632401
 31
0.0
  0
LINE
  5
138
  8
0
 62
1
 10
-109.915
 20
0.632401
 30
0.0
 11
-109.869
 21
0.839325
 31
0.0
  0
LINE
  5
139
  8
0
 62
1
 10
-109.869
 20
0.839325
 30
0.0
 11
-109.81
 21
1.04292
 31
0.0
  0
LINE
  5
13A
  8
0
 62
1
 10
-109.81
 20
1.04292
 30
0.0
 11
-109.738
 21
1.24242
 31
0.0
  0
LINE
  5
13B
  8
0
 62
1
 10
-109.738
 20
1.24242
 30
0.0
 11
-109.654
 21
1.437
 31
0.0
  0
LINE
  5
13C
  8
0
 62
1
 10
-109.654
 20
1.437
 30
0.0
 11
-109.558
 21
1.62592
 31
0.0
  0
LINE
  5
13D
  8
0
 62
1
 10
-109.558
 20
1.62592
 30
0.0
 11
-109.45
 21
1.80841
 31
0.0
  0
LINE
  5
13E
  8
0
 62
1
 10
-109.45
 20
1.80841
 30
0.0
 11
-109.33
 21
1.98376
 31
0.0
  0
LINE
  5
13F
  8
0
 62
1
 10
-109.33
 20
1.98376
 30
0.0
 11
-109.2
 21
2.15129
 31
0.0
  0
LINE
  5
140
  8
0
 62
1
 10
-109.2
 20
2.15129
 30
0.0
 11
-109.06
 21
2.31033
 31
0.0
  0
LINE
  5
141
  8
0
 62
1
 10
-109.06
 20
2.31033
 30
0.0
 11
-108.91
 21
2.46027
 31
0.0
  0
LINE
  5
142
  8
0
 62
1
 10
-108.91
 20
2.46027
 30
0.0
 11
-108.751
 21
2.60048
 31
0.0
  0
LINE
  5
143
  8
0
 62
1
 10
-108.751
 20
2.60048
 30
0.0
 11
-108.584
 21
2.73042
 31
0.0
  0
LINE
  5
144
  8
0
 62
1
 10
-108.584
 20
2.73042
 30
0.0
 11
-108.408
 21
2.84959
 31
0.0
  0
LINE
  5
145
  8
0
 62
1
 10
-108.408
 20
2.84959
 30
0.0
 11
-108.226
 21
2.95753
 31
0.0
  0
LINE
  5
146
  8
0
 62
1
 10
-108.226
 20
2.95753
 30
0.0
 11
-108.037
 21
3.05379
 31
0.0
  0
LINE
  5
147
  8
0
 62
1
 10
-108.037
 20
3.05379
 30
0.0
 11
-107.842
 21
3.13799
 31
0.0
  0
LINE
  5
148
  8
0
 62
1
 10
-107.842
 20
3.13799
 30
0.0
 11
-107.643
 21
3.20981
 31
0.0
  0
LINE
  5
149
  8
0
 62
1
 10
-107.643
 20
3.20981
 30
0.0
 11
-107.439
 21
3.26897
 31
0.0
  0
LINE
  5
14A
  8
0
 62
1
 10
-107.439
 20
3.26897
 30
0.0
 11
-107.232
 21
3.31522
 31
0.0
  0
LINE
  5
14B
  8
0
 62
1
 10
-107.232
 20
3.31522
 30
0.0
 11
-107.023
 21
3.34837
 31
0.0
  0
LINE
  5
14C
  8
0
 62
1
 10
-107.023
 20
3.34837
 30
0.0
 11
-106.812
 21
3.36833
 31
0.0
  0
LINE
  5
14D
  8
0
 62
1
 10
-106.812
 20
3.36833
 30
0.0
 11
-106.6
 21
3.375
 31
0.0
  0
LINE
  5
14E
  8
0
 62
1
 10
-106.6
 20
3.375
 30
0.0
 11
-106.388
 21
3.36833
 31
0.0
  0
LINE
  5
14F
  8
0
 62
1
 10
-106.388
 20
3.36833
 30
0.0
 11
-106.177
 21
3.34837
 31
0.0
  0
LINE
  5
150
  8
0
 62
1
 10
-106.177
 20
3.34837
 30
0.0
 11
-105.968
 21
3.31522
 31
0.0
  0
LINE
  5
151
  8
0
 62
1
 10
-105.968
 20
3.31522
 30
0.0
 11
-105.761
 21
3.26897
 31
0.0
  0
LINE
  5
152
  8
0
 62
1
 10
-105.761
 20
3.26897
 30
0.0
 11
-105.557
 21
3.20981
 31
0.0
  0
LINE
  5
153
  8
0
 62
1
 10
-105.557
 20
3.20981
 30
0.0
 11
-105.358
 21
3.13799
 31
0.0
  0
LINE
  5
154
  8
0
 62
1
 10
-105.358
 20
3.13799
 30
0.0
 11
-105.163
 21
3.05379
 31
0.0
  0
LINE
  5
155
  8
0
 62
1
 10
-105.163
 20
3.05379
 30
0.0
 11
-104.974
 21
2.95753
 31
0.0
  0
LINE
  5
156
  8
0
 62
1
 10
-104.974
 20
2.95753
 30
0.0
 11
-104.792
 21
2.84959
 31
0.0
  0
LINE
  5
157
  8
0
 62
1
 10
-104.792
 20
2.84959
 30
0.0
 11
-104.616
 21
2.73042
 31
0.0
  0
LINE
  5
158
  8
0
 62
1
 10
-104.616
 20
2.73042
 30
0.0
 11
-104.449
 21
2.60048
 31
0.0
  0
LINE
  5
159
  8
0
 62
1
 10
-104.449
 20
2.60048
 30
0.0
 11
-104.29
 21
2.46027
 31
0.0
  0
LINE
  5
15A
  8
0
 62
1
 10
-104.29
 20
2.46027
 30
0.0
 11
-104.14
 21
2.31033
 31
0.0
  0
LINE
  5
15B
  8
0
 62
1
 10
-104.14
 20
2.31033
 30
0.0
 11
-104.0
 21
2.15129
 31
0.0
  0
LINE
  5
15C
  8
0
 62
1
 10
-104.0
 20
2.15129
 30
0.0
 11
-103.87
 21
1.98376
 31
0.0
  0
LINE
  5
15D
  8
0
 62
1
 10
-103.87
 20
1.98376
 30
0.0
 11
-103.75
 21
1.80841
 31
0.0
  0
LINE
  5
15E
  8
0
 62
1
 10
-103.75
 20
1.80841
 30
0.0
 11
-103.642
 21
1.62592
 31
0.0
  0
LINE
  5
15F
  8
0
 62
1
 10
-103.642
 20
1.62592
 30
0.0
 11
-103.546
 21
1.437
 31
0.0
  0
LINE
  5
160
  8
0
 62
1
 10
-103.546
 20
1.437
 30
0.0
 11
-103.462
 21
1.24242
 31
0.0
  0
LINE
  5
161
  8
0
 62
1
 10
-103.462
 20
1.24242
 30
0.0
 11
-103.39
 21
1.04292
 31
0.0
  0
LINE
  5
162
  8
0
 62
1
 10
-103.39
 20
1.04292
 30
0.0
 11
-103.331
 21
0.839325
 31
0.0
  0
LINE
  5
163
  8
0
 62
1
 10
-103.331
 20
0.839325
 30
0.0
 11
-103.285
 21
0.632401
 31
0.0
  0
LINE
  5
164
  8
0
 62
1
 10
-103.285
 20
0.632401
 30
0.0
 11
-103.252
 21
0.422989
 31
0.0
  0
LINE
  5
165
  8
0
 62
1
 10
-103.252
 20
0.422989
 30
0.0
 11
-103.232
 21
0.211914
 31
0.0
  0
LINE
  5
166
  8
0
 62
1
 10
-103.232
 20
0.211914
 30
0.0
 11
-103.225
 21
0.0
 31
0.0
  0
LINE
  5
167
  8
0
 62
1
 10
-103.225
 20
0.0
 30
0.0
 11
-103.232
 21
-0.211914
 31
0.0
  0
LINE
  5
168
  8
0
 62
1
 10
-52.4317
 20
-0.211914
 30
0.0
 11
-52.4516
 21
-0.422989
 31
0.0
  0
LINE
  5
169
  8
0
 62
1
 10
-52.4516
 20
-0.422989
 30
0.0
 11
-52.4848
 21
-0.632401
 31
0.0
  0
LINE
  5
16A
  8
0
 62
1
 10
-52.4848
 20
-0.632401
 30
0.0
 11
-52.531
 21
-0.839325
 31
0.0
  0
LINE
  5
16B
  8
0
 62
1
 10
-52.531
 20
-0.839325
 30
0.0
 11
-52.5902
 21
-1.04292
 31
0.0
  0
LINE
  5
16C
  8
0
 62
1
 10
-52.5902
 20
-1.04292
 30
0.0
 11
-52.662
 21
-1.24242
 31
0.0
  0
LINE
  5
16D
  8
0
 62
1
 10
-52.662
 20
-1.24242
 30
0.0
 11
-52.7462
 21
-1.437
 31
0.0
  0
LINE
  5
16E
  8
0
 62
1
 10
-52.7462
 20
-1.437
 30
0.0
 11
-52.8425
 21
-1.62592
 31
0.0
  0
LINE
  5
16F
  8
0
 62
1
 10
-52.8425
 20
-1.62592
 30
0.0
 11
-52.9504
 21
-1.80841
 31
0.0
  0
LINE
  5
170
  8
0
 62
1
 10
-52.9504
 20
-1.80841
 30
0.0
 11
-53.0696
 21
-1.98376
 31
0.0
  0
LINE
  5
171
  8
0
 62
1
 10
-53.0696
 20
-1.98376
 30
0.0
 11
-53.1995
 21
-2.15129
 31
0.0
  0
LINE
  5
172
  8
0
 62
1
 10
-53.1995
 20
-2.15129
 30
0.0
 11
-53.3397
 21
-2.31033
 31
0.0
  0
LINE
  5
173
  8
0
 62
1
 10
-53.3397
 20
-2.31033
 30
0.0
 11
-53.4897
 21
-2.46027
 31
0.0
  0
LINE
  5
174
  8
0
 62
1
 10
-53.4897
 20
-2.46027
 30
0.0
 11
-53.6487
 21
-2.60048
 31
0.0
  0
LINE
  5
175
  8
0
 62
1
 10
-53.6487
 20
-2.60048
 30
0.0
 11
-53.8162
 21
-2.73042
 31
0.0
  0
LINE
  5
176
  8
0
 62
1
 10
-53.8162
 20
-2.73042
 30
0.0
 11
-53.9916
 21
-2.84959
 31
0.0
  0
LINE
  5
177
  8
0
 62
1
 10
-53.9916
 20
-2.84959
 30
0.0
 11
-54.1741
 21
-2.95753
 31
0.0
  0
LINE
  5
178
  8
0
 62
1
 10
-54.1741
 20
-2.95753
 30
0.0
 11
-54.363
 21
-3.05379
 31
0.0
  0
LINE
  5
179
  8
0
 62
1
 10
-54.363
 20
-3.05379
 30
0.0
 11
-54.5576
 21
-3.13799
 31
0.0
  0
LINE
  5
17A
  8
0
 62
1
 10
-54.5576
 20
-3.13799
 30
0.0
 11
-54.7571
 21
-3.20981
 31
0.0
  0
LINE
  5
17B
  8
0
 62
1
 10
-54.7571
 20
-3.20981
 30
0.0
 11
-54.9607
 21
-3.26897
 31
0.0
  0
LINE
  5
17C
  8
0
 62
1
 10
-54.9607
 20
-3.26897
 30
0.0
 11
-55.1676
 21
-3.31522
 31
0.0
  0
LINE
  5
17D
  8
0
 62
1
 10
-55.1676
 20
-3.31522
 30
0.0
 11
-55.377
 21
-3.34837
 31
0.0
  0
LINE
  5
17E
  8
0
 62
1
 10
-55.377
 20
-3.34837
 30
0.0
 11
-55.5881
 21
-3.36833
 31
0.0
  0
LINE
  5
17F
  8
0
 62
1
 10
-55.5881
 20
-3.36833
 30
0.0
 11
-55.8
 21
-3.375
 31
0.0
  0
LINE
  5
180
  8
0
 62
1
 10
-55.8
 20
-3.375
 30
0.0
 11
-56.0119
 21
-3.36833
 31
0.0
  0
LINE
  5
181
  8
0
 62
1
 10
-56.0119
 20
-3.36833
 30
0.0
 11
-56.223
 21
-3.34837
 31
0.0
  0
LINE
  5
182
  8
0
 62
1
 10
-56.223
 20
-3.34837
 30
0.0
 11
-56.4324
 21
-3.31522
 31
0.0
  0
LINE
  5
183
  8
0
 62
1
 10
-56.4324
 20
-3.31522
 30
0.0
 11
-56.6393
 21
-3.26897
 31
0.0
  0
LINE
  5
184
  8
0
 62
1
 10
-56.6393
 20
-3.26897
 30
0.0
 11
-56.8429
 21
-3.20981
 31
0.0
  0
LINE
  5
185
  8
0
 62
1
 10
-56.8429
 20
-3.20981
 30
0.0
 11
-57.0424
 21
-3.13799
 31
0.0
  0
LINE
  5
186
  8
0
 62
1
 10
-57.0424
 20
-3.13799
 30
0.0
 11
-57.237
 21
-3.05379
 31
0.0
  0
LINE
  5
187
  8
0
 62
1
 10
-57.237
 20
-3.05379
 30
0.0
 11
-57.4259
 21
-2.95753
 31
0.0
  0
LINE
  5
188
  8
0
 62
1
 10
-57.4259
 20
-2.95753
 30
0.0
 11
-57.6084
 21
-2.84959
 31
0.0
  0
LINE
  5
189
  8
0
 62
1
 10
-57.6084
 20
-2.84959
 30
0.0
 11
-57.7838
 21
-2.73042
 31
0.0
  0
LINE
  5
18A
  8
0
 62
1
 10
-57.7838
 20
-2.73042
 30
0.0
 11
-57.9513
 21
-2.60048
 31
0.0
  0
LINE
  5
18B
  8
0
 62
1
 10
-57.9513
 20
-2.60048
 30
0.0
 11
-58.1104
 21
-2.46027
 31
0.0
  0
LINE
  5
18C
  8
0
 62
1
 10
-58.1104
 20
-2.46027
 30
0.0
 11
-58.2603
 21
-2.31033
 31
0.0
  0
LINE
  5
18D
  8
0
 62
1
 10
-58.2603
 20
-2.31033
 30
0.0
 11
-58.4005
 21
-2.15129
 31
0.0
  0
LINE
  5
18E
  8
0
 62
1
 10
-58.4005
 20
-2.15129
 30
0.0
 11
-58.5304
 21
-1.98376
 31
0.0
  0
LINE
  5
18F
  8
0
 62
1
 10
-58.5304
 20
-1.98376
 30
0.0
 11
-58.6496
 21
-1.80841
 31
0.0
  0
LINE
  5
190
  8
0
 62
1
 10
-58.6496
 20
-1.80841
 30
0.0
 11
-58.7575
 21
-1.62592
 31
0.0
  0
LINE
  5
191
  8
0
 62
1
 10
-58.7575
 20
-1.62592
 30
0.0
 11
-58.8538
 21
-1.437
 31
0.0
  0
LINE
  5
192
  8
0
 62
1
 10
-58.8538
 20
-1.437
 30
0.0
 11
-58.938
 21
-1.24242
 31
0.0
  0
LINE
  5
193
  8
0
 62
1
 10
-58.938
 20
-1.24242
 30
0.0
 11
-59.0098
 21
-1.04292
 31
0.0
  0
LINE
  5
194
  8
0
 62
1
 10
-59.0098
 20
-1.04292
 30
0.0
 11
-59.069
 21
-0.839325
 31
0.0
  0
LINE
  5
195
  8
0
 62
1
 10
-59.069
 20
-0.839325
 30
0.0
 11
-59.1152
 21
-0.632401
 31
0.0
  0
LINE
  5
196
  8
0
 62
1
 10
-59.1152
 20
-0.632401
 30
0.0
 11
-59.1484
 21
-0.422989
 31
0.0
  0
LINE
  5
197
  8
0
 62
1
 10
-59.1484
 20
-0.422989
 30
0.0
 11
-59.1684
 21
-0.211914
 31
0.0
  0
LINE
  5
198
  8
0
 62
1
 10
-59.1684
 20
-0.211914
 30
0.0
 11
-59.175
 21
0.0
 31
0.0
  0
LINE
  5
199
  8
0
 62
1
 10
-59.175
 20
0.0
 30
0.0
 11
-59.1684
 21
0.211914
 31
0.0
  0
LINE
  5
19A
  8
0
 62
1
 10
-59.1684
 20
0.211914
 30
0.0
 11
-59.1484
 21
0.422989
 31
0.0
  0
LINE
  5
19B
  8
0
 62
1
 10
-59.1484
 20
0.422989
 30
0.0
 11
-59.1152
 21
0.632401
 31
0.0
  0
LINE
  5
19C
  8
0
 62
1
 10
-59.1152
 20
0.632401
 30
0.0
 11
-59.069
 21
0.839325
 31
0.0
  0
LINE
  5
19D
  8
0
 62
1
 10
-59.069
 20
0.839325
 30
0.0
 11
-59.0098
 21
1.04292
 31
0.0
  0
LINE
  5
19E
  8
0
 62
1
 10
-59.0098
 20
1.04292
 30
0.0
 11
-58.938
 21
1.24242
 31
0.0
  0
LINE
  5
19F
  8
0
 62
1
 10
-58.938
 20
1.24242
 30
0.0
 11
-58.8538
 21
1.437
 31
0.0
  0
LINE
  5
1A0
  8
0
 62
1
 10
-58.8538
 20
1.437
 30
0.0
 11
-58.7575
 21
1.62592
 31
0.0
  0
LINE
  5
1A1
  8
0
 62
1
 10
-58.7575
 20
1.62592
 30
0.0
 11
-58.6496
 21
1.80841
 31
0.0
  0
LINE
  5
1A2
  8
0
 62
1
 10
-58.6496
 20
1.80841
 30
0.0
 11
-58.5304
 21
1.98376
 31
0.0
  0
LINE
  5
1A3
  8
0
 62
1
 10
-58.5304
 20
1.98376
 30
0.0
 11
-58.4005
 21
2.15129
 31
0.0
  0
LINE
  5
1A4
  8
0
 62
1
 10
-58.4005
 20
2.15129
 30
0.0
 11
-58.2603
 21
2.31033
 31
0.0
  0
LINE
  5
1A5
  8
0
 62
1
 10
-58.2603
 20
2.31033
 30
0.0
 11
-58.1104
 21
2.46027
 31
0.0
  0
LINE
  5
1A6
  8
0
 62
1
 10
-58.1104
 20
2.46027
 30
0.0
 11
-57.9513
 21
2.60048
 31
0.0
  0
LINE
  5
1A7
  8
0
 62
1
 10
-57.9513
 20
2.60048
 30
0.0
 11
-57.7838
 21
2.73042
 31
0.0
  0
LINE
  5
1A8
  8
0
 62
1
 10
-57.7838
 20
2.73042
 30
0.0
 11
-57.6084
 21
2.84959
 31
0.0
  0
LINE
  5
1A9
  8
0
 62
1
 10
-57.6084
 20
2.84959
 30
0.0
 11
-57.4259
 21
2.95753
 31
0.0
  0
LINE
  5
1AA
  8
0
 62
1
 10
-57.4259
 20
2.95753
 30
0.0
 11
-57.237
 21
3.05379
 31
0.0
  0
LINE
  5
1AB
  8
0
 62
1
 10
-57.237
 20
3.05379
 30
0.0
 11
-57.0424
 21
3.13799
 31
0.0
  0
LINE
  5
1AC
  8
0
 62
1
 10
-57.0424
 20
3.13799
 30
0.0
 11
-56.8429
 21
3.20981
 31
0.0
  0
LINE
  5
1AD
  8
0
 62
1
 10
-56.8429
 20
3.20981
 30
0.0
 11
-56.6393
 21
3.26897
 31
0.0
  0
LINE
  5
1AE
  8
0
 62
1
 10
-56.6393
 20
3.26897
 30
0.0
 11
-56.4324
 21
3.31522
 31
0.0
  0
LINE
  5
1AF
  8
0
 62
1
 10
-56.4324
 20
3.31522
 30
0.0
 11
-56.223
 21
3.34837
 31
0.0
  0
LINE
  5
1B0
  8
0
 62
1
 10
-56.223
 20
3.34837
 30
0.0
 11
-56.0119
 21
3.36833
 31
0.0
  0
LINE
  5
1B1
  8
0
 62
1
 10
-56.0119
 20
3.36833
 30
0.0
 11
-55.8
 21
3.375
 31
0.0
  0
LINE
  5
1B2
  8
0
 62
1
 10
-55.8
 20
3.375
 30
0.0
 11
-55.5881
 21
3.36833
 31
0.0
  0
LINE
  5
1B3
  8
0
 62
1
 10
-55.5881
 20
3.36833
 30
0.0
 11
-55.377
 21
3.34837
 31
0.0
  0
LINE
  5
1B4
  8
0
 62
1
 10
-55.377
 20
3.34837
 30
0.0
 11
-55.1676
 21
3.31522
 31
0.0
  0
LINE
  5
1B5
  8
0
 62
1
 10
-55.1676
 20
3.31522
 30
0.0
 11
-54.9607
 21
3.26897
 31
0.0
  0
LINE
  5
1B6
  8
0
 62
1
 10
-54.9607
 20
3.26897
 30
0.0
 11
-54.7571
 21
3.20981
 31
0.0
  0
LINE
  5
1B7
  8
0
 62
1
 10
-54.7571
 20
3.20981
 30
0.0
 11
-54.5576
 21
3.13799
 31
0.0
  0
LINE
  5
1B8
  8
0
 62
1
 10
-54.5576
 20
3.13799
 30
0.0
 11
-54.363
 21
3.05379
 31
0.0
  0
LINE
  5
1B9
  8
0
 62
1
 10
-54.363
 20
3.05379
 30
0.0
 11
-54.1741
 21
2.95753
 31
0.0
  0
LINE
  5
1BA
  8
0
 62
1
 10
-54.1741
 20
2.95753
 30
0.0
 11
-53.9916
 21
2.84959
 31
0.0
  0
LINE
  5
1BB
  8
0
 62
1
 10
-53.9916
 20
2.84959
 30
0.0
 11
-53.8162
 21
2.73042
 31
0.0
  0
LINE
  5
1BC
  8
0
 62
1
 10
-53.8162
 20
2.73042
 30
0.0
 11
-53.6487
 21
2.60048
 31
0.0
  0
LINE
  5
1BD
  8
0
 62
1
 10
-53.6487
 20
2.60048
 30
0.0
 11
-53.4897
 21
2.46027
 31
0.0
  0
LINE
  5
1BE
  8
0
 62
1
 10
-53.4897
 20
2.46027
 30
0.0
 11
-53.3397
 21
2.31033
 31
0.0
  0
LINE
  5
1BF
  8
0
 62
1
 10
-53.3397
 20
2.31033
 30
0.0
 11
-53.1995
 21
2.15129
 31
0.0
  0
LINE
  5
1C0
  8
0
 62
1
 10
-53.1995
 20
2.15129
 30
0.0
 11
-53.0696
 21
1.98376
 31
0.0
  0
LINE
  5
1C1
  8
0
 62
1
 10
-53.0696
 20
1.98376
 30
0.0
 11
-52.9504
 21
1.80841
 31
0.0
  0
LINE
  5
1C2
  8
0
 62
1
 10
-52.9504
 20
1.80841
 30
0.0
 11
-52.8425
 21
1.62592
 31
0.0
  0
LINE
  5
1C3
  8
0
 62
1
 10
-52.8425
 20
1.62592
 30
0.0
 11
-52.7462
 21
1.437
 31
0.0
  0
LINE
  5
1C4
  8
0
 62
1
 10
-52.7462
 20
1.437
 30
0.0
 11
-52.662
 21
1.24242
 31
0.0
  0
LINE
  5
1C5
  8
0
 62
1
 10
-52.662
 20
1.24242
 30
0.0
 11
-52.5902
 21
1.04292
 31
0.0
  0
LINE
  5
1C6
  8
0
 62
1
 10
-52.5902
 20
1.04292
 30
0.0
 11
-52.531
 21
0.839325
 31
0.0
  0
LINE
  5
1C7
  8
0
 62
1
 10
-52.531
 20
0.839325
 30
0.0
 11
-52.4848
 21
0.632401
 31
0.0
  0
LINE
  5
1C8
  8
0
 62
1
 10
-52.4848
 20
0.632401
 30
0.0
 11
-52.4516
 21
0.422989
 31
0.0
  0
LINE
  5
1C9
  8
0
 62
1
 10
-52.4516
 20
0.422989
 30
0.0
 11
-52.4317
 21
0.211914
 31
0.0
  0
LINE
  5
1CA
  8
0
 62
1
 10
-52.4317
 20
0.211914
 30
0.0
 11
-52.425
 21
0.0
 31
0.0
  0
LINE
  5
1CB
  8
0
 62
1
 10
-52.425
 20
0.0
 30
0.0
 11
-52.4317
 21
-0.211914
 31
0.0
  0
LINE
  5
1CC
  8
0
 62
1
 10
-38.1
 20
12.7
 30
0.0
 11
-38.1
 21
-12.7
 31
0.0
  0
LINE
  5
1CD
  8
0
 62
1
 10
-38.1
 20
-12.7
 30
0.0
 11
38.1
 21
-12.7
 31
0.0
  0
LINE
  5
1CE
  8
0
 62
1
 10
38.1
 20
-12.7
 30
0.0
 11
38.1
 21
12.7
 31
0.0
  0
LINE
  5
1CF
  8
0
 62
1
 10
38.1
 20
12.7
 30
0.0
 11
-38.1
 21
12.7
 31
0.0
  0
LINE
  5
1D0
  8
0
 62
1
 10
-22.0316
 20
-0.211914
 30
0.0
 11
-22.0516
 21
-0.422989
 31
0.0
  0
LINE
  5
1D1
  8
0
 62
1
 10
-22.0516
 20
-0.422989
 30
0.0
 11
-22.0848
 21
-0.632401
 31
0.0
  0
LINE
  5
1D2
  8
0
 62
1
 10
-22.0848
 20
-0.632401
 30
0.0
 11
-22.131
 21
-0.839325
 31
0.0
  0
LINE
  5
1D3
  8
0
 62
1
 10
-22.131
 20
-0.839325
 30
0.0
 11
-22.1902
 21
-1.04292
 31
0.0
  0
LINE
  5
1D4
  8
0
 62
1
 10
-22.1902
 20
-1.04292
 30
0.0
 11
-22.262
 21
-1.24242
 31
0.0
  0
LINE
  5
1D5
  8
0
 62
1
 10
-22.262
 20
-1.24242
 30
0.0
 11
-22.3462
 21
-1.437
 31
0.0
  0
LINE
  5
1D6
  8
0
 62
1
 10
-22.3462
 20
-1.437
 30
0.0
 11
-22.4425
 21
-1.62592
 31
0.0
  0
LINE
  5
1D7
  8
0
 62
1
 10
-22.4425
 20
-1.62592
 30
0.0
 11
-22.5504
 21
-1.80841
 31
0.0
  0
LINE
  5
1D8
  8
0
 62
1
 10
-22.5504
 20
-1.80841
 30
0.0
 11
-22.6696
 21
-1.98376
 31
0.0
  0
LINE
  5
1D9
  8
0
 62
1
 10
-22.6696
 20
-1.98376
 30
0.0
 11
-22.7995
 21
-2.15129
 31
0.0
  0
LINE
  5
1DA
  8
0
 62
1
 10
-22.7995
 20
-2.15129
 30
0.0
 11
-22.9397
 21
-2.31033
 31
0.0
  0
LINE
  5
1DB
  8
0
 62
1
 10
-22.9397
 20
-2.31033
 30
0.0
 11
-23.0896
 21
-2.46027
 31
0.0
  0
LINE
  5
1DC
  8
0
 62
1
 10
-23.0896
 20
-2.46027
 30
0.0
 11
-23.2487
 21
-2.60048
 31
0.0
  0
LINE
  5
1DD
  8
0
 62
1
 10
-23.2487
 20
-2.60048
 30
0.0
 11
-23.4162
 21
-2.73042
 31
0.0
  0
LINE
  5
1DE
  8
0
 62
1
 10
-23.4162
 20
-2.73042
 30
0.0
 11
-23.5916
 21
-2.84959
 31
0.0
  0
LINE
  5
1DF
  8
0
 62
1
 10
-23.5916
 20
-2.84959
 30
0.0
 11
-23.7741
 21
-2.95753
 31
0.0
  0
LINE
  5
1E0
  8
0
 62
1
 10
-23.7741
 20
-2.95753
 30
0.0
 11
-23.963
 21
-3.05379
 31
0.0
  0
LINE
  5
1E1
  8
0
 62
1
 10
-23.963
 20
-3.05379
 30
0.0
 11
-24.1576
 21
-3.13799
 31
0.0
  0
LINE
  5
1E2
  8
0
 62
1
 10
-24.1576
 20
-3.13799
 30
0.0
 11
-24.3571
 21
-3.20981
 31
0.0
  0
LINE
  5
1E3
  8
0
 62
1
 10
-24.3571
 20
-3.20981
 30
0.0
 11
-24.5607
 21
-3.26897
 31
0.0
  0
LINE
  5
1E4
  8
0
 62
1
 10
-24.5607
 20
-3.26897
 30
0.0
 11
-24.7676
 21
-3.31522
 31
0.0
  0
LINE
  5
1E5
  8
0
 62
1
 10
-24.7676
 20
-3.31522
 30
0.0
 11
-24.977
 21
-3.34837
 31
0.0
  0
LINE
  5
1E6
  8
0
 62
1
 10
-24.977
 20
-3.34837
 30
0.0
 11
-25.1881
 21
-3.36833
 31
0.0
  0
LINE
  5
1E7
  8
0
 62
1
 10
-25.1881
 20
-3.36833
 30
0.0
 11
-25.4
 21
-3.375
 31
0.0
  0
LINE
  5
1E8
  8
0
 62
1
 10
-25.4
 20
-3.375
 30
0.0
 11
-25.6119
 21
-3.36833
 31
0.0
  0
LINE
  5
1E9
  8
0
 62
1
 10
-25.6119
 20
-3.36833
 30
0.0
 11
-25.823
 21
-3.34837
 31
0.0
  0
LINE
  5
1EA
  8
0
 62
1
 10
-25.823
 20
-3.34837
 30
0.0
 11
-26.0324
 21
-3.31522
 31
0.0
  0
LINE
  5
1EB
  8
0
 62
1
 10
-26.0324
 20
-3.31522
 30
0.0
 11
-26.2393
 21
-3.26897
 31
0.0
  0
LINE
  5
1EC
  8
0
 62
1
 10
-26.2393
 20
-3.26897
 30
0.0
 11
-26.4429
 21
-3.20981
 31
0.0
  0
LINE
  5
1ED
  8
0
 62
1
 10
-26.4429
 20
-3.20981
 30
0.0
 11
-26.6424
 21
-3.13799
 31
0.0
  0
LINE
  5
1EE
  8
0
 62
1
 10
-26.6424
 20
-3.13799
 30
0.0
 11
-26.837
 21
-3.05379
 31
0.0
  0
LINE
  5
1EF
  8
0
 62
1
 10
-26.837
 20
-3.05379
 30
0.0
 11
-27.0259
 21
-2.95753
 31
0.0
  0
LINE
  5
1F0
  8
0
 62
1
 10
-27.0259
 20
-2.95753
 30
0.0
 11
-27.2084
 21
-2.84959
 31
0.0
  0
LINE
  5
1F1
  8
0
 62
1
 10
-27.2084
 20
-2.84959
 30
0.0
 11
-27.3838
 21
-2.73042
 31
0.0
  0
LINE
  5
1F2
  8
0
 62
1
 10
-27.3838
 20
-2.73042
 30
0.0
 11
-27.5513
 21
-2.60048
 31
0.0
  0
LINE
  5
1F3
  8
0
 62
1
 10
-27.5513
 20
-2.60048
 30
0.0
 11
-27.7103
 21
-2.46027
 31
0.0
  0
LINE
  5
1F4
  8
0
 62
1
 10
-27.7103
 20
-2.46027
 30
0.0
 11
-27.8603
 21
-2.31033
 31
0.0
  0
LINE
  5
1F5
  8
0
 62
1
 10
-27.8603
 20
-2.31033
 30
0.0
 11
-28.0005
 21
-2.15129
 31
0.0
  0
LINE
  5
1F6
  8
0
 62
1
 10
-28.0005
 20
-2.15129
 30
0.0
 11
-28.1304
 21
-1.98376
 31
0.0
  0
LINE
  5
1F7
  8
0
 62
1
 10
-28.1304
 20
-1.98376
 30
0.0
 11
-28.2496
 21
-1.80841
 31
0.0
  0
LINE
  5
1F8
  8
0
 62
1
 10
-28.2496
 20
-1.80841
 30
0.0
 11
-28.3575
 21
-1.62592
 31
0.0
  0
LINE
  5
1F9
  8
0
 62
1
 10
-28.3575
 20
-1.62592
 30
0.0
 11
-28.4538
 21
-1.437
 31
0.0
  0
LINE
  5
1FA
  8
0
 62
1
 10
-28.4538
 20
-1.437
 30
0.0
 11
-28.538
 21
-1.24242
 31
0.0
  0
LINE
  5
1FB
  8
0
 62
1
 10
-28.538
 20
-1.24242
 30
0.0
 11
-28.6098
 21
-1.04292
 31
0.0
  0
LINE
  5
1FC
  8
0
 62
1
 10
-28.6098
 20
-1.04292
 30
0.0
 11
-28.669
 21
-0.839325
 31
0.0
  0
LINE
  5
1FD
  8
0
 62
1
 10
-28.669
 20
-0.839325
 30
0.0
 11
-28.7152
 21
-0.632401
 31
0.0
  0
LINE
  5
1FE
  8
0
 62
1
 10
-28.7152
 20
-0.632401
 30
0.0
 11
-28.7484
 21
-0.422989
 31
0.0
  0
LINE
  5
1FF
  8
0
 62
1
 10
-28.7484
 20
-0.422989
 30
0.0
 11
-28.7683
 21
-0.211914
 31
0.0
  0
LINE
  5
200
  8
0
 62
1
 10
-28.7683
 20
-0.211914
 30
0.0
 11
-28.775
 21
0.0
 31
0.0
  0
LINE
  5
201
  8
0
 62
1
 10
-28.775
 20
0.0
 30
0.0
 11
-28.7683
 21
0.211914
 31
0.0
  0
LINE
  5
202
  8
0
 62
1
 10
-28.7683
 20
0.211914
 30
0.0
 11
-28.7484
 21
0.422989
 31
0.0
  0
LINE
  5
203
  8
0
 62
1
 10
-28.7484
 20
0.422989
 30
0.0
 11
-28.7152
 21
0.632401
 31
0.0
  0
LINE
  5
204
  8
0
 62
1
 10
-28.7152
 20
0.632401
 30
0.0
 11
-28.669
 21
0.839325
 31
0.0
  0
LINE
  5
205
  8
0
 62
1
 10
-28.669
 20
0.839325
 30
0.0
 11
-28.6098
 21
1.04292
 31
0.0
  0
LINE
  5
206
  8
0
 62
1
 10
-28.6098
 20
1.04292
 30
0.0
 11
-28.538
 21
1.24242
 31
0.0
  0
LINE
  5
207
  8
0
 62
1
 10
-28.538
 20
1.24242
 30
0.0
 11
-28.4538
 21
1.437
 31
0.0
  0
LINE
  5
208
  8
0
 62
1
 10
-28.4538
 20
1.437
 30
0.0
 11
-28.3575
 21
1.62592
 31
0.0
  0
LINE
  5
209
  8
0
 62
1
 10
-28.3575
 20
1.62592
 30
0.0
 11
-28.2496
 21
1.80841
 31
0.0
  0
LINE
  5
20A
  8
0
 62
1
 10
-28.2496
 20
1.80841
 30
0.0
 11
-28.1304
 21
1.98376
 31
0.0
  0
LINE
  5
20B
  8
0
 62
1
 10
-28.1304
 20
1.98376
 30
0.0
 11
-28.0005
 21
2.15129
 31
0.0
  0
LINE
  5
20C
  8
0
 62
1
 10
-28.0005
 20
2.15129
 30
0.0
 11
-27.8603
 21
2.31033
 31
0.0
  0
LINE
  5
20D
  8
0
 62
1
 10
-27.8603
 20
2.31033
 30
0.0
 11
-27.7103
 21
2.46027
 31
0.0
  0
LINE
  5
20E
  8
0
 62
1
 10
-27.7103
 20
2.46027
 30
0.0
 11
-27.5513
 21
2.60048
 31
0.0
  0
LINE
  5
20F
  8
0
 62
1
 10
-27.5513
 20
2.60048
 30
0.0
 11
-27.3838
 21
2.73042
 31
0.0
  0
LINE
  5
210
  8
0
 62
1
 10
-27.3838
 20
2.73042
 30
0.0
 11
-27.2084
 21
2.84959
 31
0.0
  0
LINE
  5
211
  8
0
 62
1
 10
-27.2084
 20
2.84959
 30
0.0
 11
-27.0259
 21
2.95753
 31
0.0
  0
LINE
  5
212
  8
0
 62
1
 10
-27.0259
 20
2.95753
 30
0.0
 11
-26.837
 21
3.05379
 31
0.0
  0
LINE
  5
213
  8
0
 62
1
 10
-26.837
 20
3.05379
 30
0.0
 11
-26.6424
 21
3.13799
 31
0.0
  0
LINE
  5
214
  8
0
 62
1
 10
-26.6424
 20
3.13799
 30
0.0
 11
-26.4429
 21
3.20981
 31
0.0
  0
LINE
  5
215
  8
0
 62
1
 10
-26.4429
 20
3.20981
 30
0.0
 11
-26.2393
 21
3.26897
 31
0.0
  0
LINE
  5
216
  8
0
 62
1
 10
-26.2393
 20
3.26897
 30
0.0
 11
-26.0324
 21
3.31522
 31
0.0
  0
LINE
  5
217
  8
0
 62
1
 10
-26.0324
 20
3.31522
 30
0.0
 11
-25.823
 21
3.34837
 31
0.0
  0
LINE
  5
218
  8
0
 62
1
 10
-25.823
 20
3.34837
 30
0.0
 11
-25.6119
 21
3.36833
 31
0.0
  0
LINE
  5
219
  8
0
 62
1
 10
-25.6119
 20
3.36833
 30
0.0
 11
-25.4
 21
3.375
 31
0.0
  0
LINE
  5
21A
  8
0
 62
1
 10
-25.4
 20
3.375
 30
0.0
 11
-25.1881
 21
3.36833
 31
0.0
  0
LINE
  5
21B
  8
0
 62
1
 10
-25.1881
 20
3.36833
 30
0.0
 11
-24.977
 21
3.34837
 31
0.0
  0
LINE
  5
21C
  8
0
 62
1
 10
-24.977
 20
3.34837
 30
0.0
 11
-24.7676
 21
3.31522
 31
0.0
  0
LINE
  5
21D
  8
0
 62
1
 10
-24.7676
 20
3.31522
 30
0.0
 11
-24.5607
 21
3.26897
 31
0.0
  0
LINE
  5
21E
  8
0
 62
1
 10
-24.5607
 20
3.26897
 30
0.0
 11
-24.3571
 21
3.20981
 31
0.0
  0
LINE
  5
21F
  8
0
 62
1
 10
-24.3571
 20
3.20981
 30
0.0
 11
-24.1576
 21
3.13799
 31
0.0
  0
LINE
  5
220
  8
0
 62
1
 10
-24.1576
 20
3.13799
 30
0.0
 11
-23.963
 21
3.05379
 31
0.0
  0
LINE
  5
221
  8
0
 62
1
 10
-23.963
 20
3.05379
 30
0.0
 11
-23.7741
 21
2.95753
 31
0.0
  0
LINE
  5
222
  8
0
 62
1
 10
-23.7741
 20
2.95753
 30
0.0
 11
-23.5916
 21
2.84959
 31
0.0
  0
LINE
  5
223
  8
0
 62
1
 10
-23.5916
 20
2.84959
 30
0.0
 11
-23.4162
 21
2.73042
 31
0.0
  0
LINE
  5
224
  8
0
 62
1
 10
-23.4162
 20
2.73042
 30
0.0
 11
-23.2487
 21
2.60048
 31
0.0
  0
LINE
  5
225
  8
0
 62
1
 10
-23.2487
 20
2.60048
 30
0.0
 11
-23.0896
 21
2.46027
 31
0.0
  0
LINE
  5
226
  8
0
 62
1
 10
-23.0896
 20
2.46027
 30
0.0
 11
-22.9397
 21
2.31033
 31
0.0
  0
LINE
  5
227
  8
0
 62
1
 10
-22.9397
 20
2.31033
 30
0.0
 11
-22.7995
 21
2.15129
 31
0.0
  0
LINE
  5
228
  8
0
 62
1
 10
-22.7995
 20
2.15129
 30
0.0
 11
-22.6696
 21
1.98376
 31
0.0
  0
LINE
  5
229
  8
0
 62
1
 10
-22.6696
 20
1.98376
 30
0.0
 11
-22.5504
 21
1.80841
 31
0.0
  0
LINE
  5
22A
  8
0
 62
1
 10
-22.5504
 20
1.80841
 30
0.0
 11
-22.4425
 21
1.62592
 31
0.0
  0
LINE
  5
22B
  8
0
 62
1
 10
-22.4425
 20
1.62592
 30
0.0
 11
-22.3462
 21
1.437
 31
0.0
  0
LINE
  5
22C
  8
0
 62
1
 10
-22.3462
 20
1.437
 30
0.0
 11
-22.262
 21
1.24242
 31
0.0
  0
LINE
  5
22D
  8
0
 62
1
 10
-22.262
 20
1.24242
 30
0.0
 11
-22.1902
 21
1.04292
 31
0.0
  0
LINE
  5
22E
  8
0
 62
1
 10
-22.1902
 20
1.04292
 30
0.0
 11
-22.131
 21
0.839325
 31
0.0
  0
LINE
  5
22F
  8
0
 62
1
 10
-22.131
 20
0.839325
 30
0.0
 11
-22.0848
 21
0.632401
 31
0.0
  0
LINE
  5
230
  8
0
 62
1
 10
-22.0848
 20
0.632401
 30
0.0
 11
-22.0516
 21
0.422989
 31
0.0
  0
LINE
  5
231
  8
0
 62
1
 10
-22.0516
 20
0.422989
 30
0.0
 11
-22.0316
 21
0.211914
 31
0.0
  0
LINE
  5
232
  8
0
 62
1
 10
-22.0316
 20
0.211914
 30
0.0
 11
-22.025
 21
0.0
 31
0.0
  0
LINE
  5
233
  8
0
 62
1
 10
-22.025
 20
0.0
 30
0.0
 11
-22.0316
 21
-0.211914
 31
0.0
  0
LINE
  5
234
  8
0
 62
1
 10
28.7683
 20
-0.211914
 30
0.0
 11
28.7484
 21
-0.422989
 31
0.0
  0
LINE
  5
235
  8
0
 62
1
 10
28.7484
 20
-0.422989
 30
0.0
 11
28.7152
 21
-0.632401
 31
0.0
  0
LINE
  5
236
  8
0
 62
1
 10
28.7152
 20
-0.632401
 30
0.0
 11
28.669
 21
-0.839325
 31
0.0
  0
LINE
  5
237
  8
0
 62
1
 10
28.669
 20
-0.839325
 30
0.0
 11
28.6098
 21
-1.04292
 31
0.0
  0
LINE
  5
238
  8
0
 62
1
 10
28.6098
 20
-1.04292
 30
0.0
 11
28.538
 21
-1.24242
 31
0.0
  0
LINE
  5
239
  8
0
 62
1
 10
28.538
 20
-1.24242
 30
0.0
 11
28.4538
 21
-1.437
 31
0.0
  0
LINE
  5
23A
  8
0
 62
1
 10
28.4538
 20
-1.437
 30
0.0
 11
28.3575
 21
-1.62592
 31
0.0
  0
LINE
  5
23B
  8
0
 62
1
 10
28.3575
 20
-1.62592
 30
0.0
 11
28.2496
 21
-1.80841
 31
0.0
  0
LINE
  5
23C
  8
0
 62
1
 10
28.2496
 20
-1.80841
 30
0.0
 11
28.1304
 21
-1.98376
 31
0.0
  0
LINE
  5
23D
  8
0
 62
1
 10
28.1304
 20
-1.98376
 30
0.0
 11
28.0005
 21
-2.15129
 31
0.0
  0
LINE
  5
23E
  8
0
 62
1
 10
28.0005
 20
-2.15129
 30
0.0
 11
27.8603
 21
-2.31033
 31
0.0
  0
LINE
  5
23F
  8
0
 62
1
 10
27.8603
 20
-2.31033
 30
0.0
 11
27.7103
 21
-2.46027
 31
0.0
  0
LINE
  5
240
  8
0
 62
1
 10
27.7103
 20
-2.46027
 30
0.0
 11
27.5513
 21
-2.60048
 31
0.0
  0
LINE
  5
241
  8
0
 62
1
 10
27.5513
 20
-2.60048
 30
0.0
 11
27.3838
 21
-2.73042
 31
0.0
  0
LINE
  5
242
  8
0
 62
1
 10
27.3838
 20
-2.73042
 30
0.0
 11
27.2084
 21
-2.84959
 31
0.0
  0
LINE
  5
243
  8
0
 62
1
 10
27.2084
 20
-2.84959
 30
0.0
 11
27.0259
 21
-2.95753
 31
0.0
  0
LINE
  5
244
  8
0
 62
1
 10
27.0259
 20
-2.95753
 30
0.0
 11
26.837
 21
-3.05379
 31
0.0
  0
LINE
  5
245
  8
0
 62
1
 10
26.837
 20
-3.05379
 30
0.0
 11
26.6424
 21
-3.13799
 31
0.0
  0
LINE
  5
246
  8
0
 62
1
 10
26.6424
 20
-3.13799
 30
0.0
 11
26.4429
 21
-3.20981
 31
0.0
  0
LINE
  5
247
  8
0
 62
1
 10
26.4429
 20
-3.20981
 30
0.0
 11
26.2393
 21
-3.26897
 31
0.0
  0
LINE
  5
248
  8
0
 62
1
 10
26.2393
 20
-3.26897
 30
0.0
 11
26.0324
 21
-3.31522
 31
0.0
  0
LINE
  5
249
  8
0
 62
1
 10
26.0324
 20
-3.31522
 30
0.0
 11
25.823
 21
-3.34837
 31
0.0
  0
LINE
  5
24A
  8
0
 62
1
 10
25.823
 20
-3.34837
 30
0.0
 11
25.6119
 21
-3.36833
 31
0.0
  0
LINE
  5
24B
  8
0
 62
1
 10
25.6119
 20
-3.36833
 30
0.0
 11
25.4
 21
-3.375
 31
0.0
  0
LINE
  5
24C
  8
0
 62
1
 10
25.4
 20
-3.375
 30
0.0
 11
25.1881
 21
-3.36833
 31
0.0
  0
LINE
  5
24D
  8
0
 62
1
 10
25.1881
 20
-3.36833
 30
0.0
 11
24.977
 21
-3.34837
 31
0.0
  0
LINE
  5
24E
  8
0
 62
1
 10
24.977
 20
-3.34837
 30
0.0
 11
24.7676
 21
-3.31522
 31
0.0
  0
LINE
  5
24F
  8
0
 62
1
 10
24.7676
 20
-3.31522
 30
0.0
 11
24.5607
 21
-3.26897
 31
0.0
  0
LINE
  5
250
  8
0
 62
1
 10
24.5607
 20
-3.26897
 30
0.0
 11
24.3571
 21
-3.20981
 31
0.0
  0
LINE
  5
251
  8
0
 62
1
 10
24.3571
 20
-3.20981
 30
0.0
 11
24.1576
 21
-3.13799
 31
0.0
  0
LINE
  5
252
  8
0
 62
1
 10
24.1576
 20
-3.13799
 30
0.0
 11
23.963
 21
-3.05379
 31
0.0
  0
LINE
  5
253
  8
0
 62
1
 10
23.963
 20
-3.05379
 30
0.0
 11
23.7741
 21
-2.95753
 31
0.0
  0
LINE
  5
254
  8
0
 62
1
 10
23.7741
 20
-2.95753
 30
0.0
 11
23.5916
 21
-2.84959
 31
0.0
  0
LINE
  5
255
  8
0
 62
1
 10
23.5916
 20
-2.84959
 30
0.0
 11
23.4162
 21
-2.73042
 31
0.0
  0
LINE
  5
256
  8
0
 62
1
 10
23.4162
 20
-2.73042
 30
0.0
 11
23.2487
 21
-2.60048
 31
0.0
  0
LINE
  5
257
  8
0
 62
1
 10
23.2487
 20
-2.60048
 30
0.0
 11
23.0896
 21
-2.46027
 31
0.0
  0
LINE
  5
258
  8
0
 62
1
 10
23.0896
 20
-2.46027
 30
0.0
 11
22.9397
 21
-2.31033
 31
0.0
  0
LINE
  5
259
  8
0
 62
1
 10
22.9397
 20
-2.31033
 30
0.0
 11
22.7995
 21
-2.15129
 31
0.0
  0
LINE
  5
25A
  8
0
 62
1
 10
22.7995
 20
-2.15129
 30
0.0
 11
22.6696
 21
-1.98376
 31
0.0
  0
LINE
  5
25B
  8
0
 62
1
 10
22.6696
 20
-1.98376
 30
0.0
 11
22.5504
 21
-1.80841
 31
0.0
  0
LINE
  5
25C
  8
0
 62
1
 10
22.5504
 20
-1.80841
 30
0.0
 11
22.4425
 21
-1.62592
 31
0.0
  0
LINE
  5
25D
  8
0
 62
1
 10
22.4425
 20
-1.62592
 30
0.0
 11
22.3462
 21
-1.437
 31
0.0
  0
LINE
  5
25E
  8
0
 62
1
 10
22.3462
 20
-1.437
 30
0.0
 11
22.262
 21
-1.24242
 31
0.0
  0
LINE
  5
25F
  8
0
 62
1
 10
22.262
 20
-1.24242
 30
0.0
 11
22.1902
 21
-1.04292
 31
0.0
  0
LINE
  5
260
  8
0
 62
1
 10
22.1902
 20
-1.04292
 30
0.0
 11
22.131
 21
-0.839325
 31
0.0
  0
LINE
  5
261
  8
0
 62
1
 10
22.131
 20
-0.839325
 30
0.0
 11
22.0848
 21
-0.632401
 31
0.0
  0
LINE
  5
262
  8
0
 62
1
 10
22.0848
 20
-0.632401
 30
0.0
 11
22.0516
 21
-0.422989
 31
0.0
  0
LINE
  5
263
  8
0
 62
1
 10
22.0516
 20
-0.422989
 30
0.0
 11
22.0316
 21
-0.211914
 31
0.0
  0
LINE
  5
264
  8
0
 62
1
 10
22.0316
 20
-0.211914
 30
0.0
 11
22.025
 21
0.0
 31
0.0
  0
LINE
  5
265
  8
0
 62
1
 10
22.025
 20
0.0
 30
0.0
 11
22.0316
 21
0.211914
 31
0.0
  0
LINE
  5
266
  8
0
 62
1
 10
22.0316
 20
0.211914
 30
0.0
 11
22.0516
 21
0.422989
 31
0.0
  0
LINE
  5
267
  8
0
 62
1
 10
22.0516
 20
0.422989
 30
0.0
 11
22.0848
 21
0.632401
 31
0.0
  0
LINE
  5
268
  8
0
 62
1
 10
22.0848
 20
0.632401
 30
0.0
 11
22.131
 21
0.839325
 31
0.0
  0
LINE
  5
269
  8
0
 62
1
 10
22.131
 20
0.839325
 30
0.0
 11
22.1902
 21
1.04292
 31
0.0
  0
LINE
  5
26A
  8
0
 62
1
 10
22.1902
 20
1.04292
 30
0.0
 11
22.262
 21
1.24242
 31
0.0
  0
LINE
  5
26B
  8
0
 62
1
 10
22.262
 20
1.24242
 30
0.0
 11
22.3462
 21
1.437
 31
0.0
  0
LINE
  5
26C
  8
0
 62
1
 10
22.3462
 20
1.437
 30
0.0
 11
22.4425
 21
1.62592
 31
0.0
  0
LINE
  5
26D
  8
0
 62
1
 10
22.4425
 20
1.62592
 30
0.0
 11
22.5504
 21
1.80841
 31
0.0
  0
LINE
  5
26E
  8
0
 62
1
 10
22.5504
 20
1.80841
 30
0.0
 11
22.6696
 21
1.98376
 31
0.0
  0
LINE
  5
26F
  8
0
 62
1
 10
22.6696
 20
1.98376
 30
0.0
 11
22.7995
 21
2.15129
 31
0.0
  0
LINE
  5
270
  8
0
 62
1
 10
22.7995
 20
2.15129
 30
0.0
 11
22.9397
 21
2.31033
 31
0.0
  0
LINE
  5
271
  8
0
 62
1
 10
22.9397
 20
2.31033
 30
0.0
 11
23.0896
 21
2.46027
 31
0.0
  0
LINE
  5
272
  8
0
 62
1
 10
23.0896
 20
2.46027
 30
0.0
 11
23.2487
 21
2.60048
 31
0.0
  0
LINE
  5
273
  8
0
 62
1
 10
23.2487
 20
2.60048
 30
0.0
 11
23.4162
 21
2.73042
 31
0.0
  0
LINE
  5
274
  8
0
 62
1
 10
23.4162
 20
2.73042
 30
0.0
 11
23.5916
 21
2.84959
 31
0.0
  0
LINE
  5
275
  8
0
 62
1
 10
23.5916
 20
2.84959
 30
0.0
 11
23.7741
 21
2.95753
 31
0.0
  0
LINE
  5
276
  8
0
 62
1
 10
23.7741
 20
2.95753
 30
0.0
 11
23.963
 21
3.05379
 31
0.0
  0
LINE
  5
277
  8
0
 62
1
 10
23.963
 20
3.05379
 30
0.0
 11
24.1576
 21
3.13799
 31
0.0
  0
LINE
  5
278
  8
0
 62
1
 10
24.1576
 20
3.13799
 30
0.0
 11
24.3571
 21
3.20981
 31
0.0
  0
LINE
  5
279
  8
0
 62
1
 10
24.3571
 20
3.20981
 30
0.0
 11
24.5607
 21
3.26897
 31
0.0
  0
LINE
  5
27A
  8
0
 62
1
 10
24.5607
 20
3.26897
 30
0.0
 11
24.7676
 21
3.31522
 31
0.0
  0
LINE
  5
27B
  8
0
 62
1
 10
24.7676
 20
3.31522
 30
0.0
 11
24.977
 21
3.34837
 31
0.0
  0
LINE
  5
27C
  8
0
 62
1
 10
24.977
 20
3.34837
 30
0.0
 11
25.1881
 21
3.36833
 31
0.0
  0
LINE
  5
27D
  8
0
 62
1
 10
25.1881
 20
3.36833
 30
0.0
 11
25.4
 21
3.375
 31
0.0
  0
LINE
  5
27E
  8
0
 62
1
 10
25.4
 20
3.375
 30
0.0
 11
25.6119
 21
3.36833
 31
0.0
  0
LINE
  5
27F
  8
0
 62
1
 10
25.6119
 20
3.36833
 30
0.0
 11
25.823
 21
3.34837
 31
0.0
  0
LINE
  5
280
  8
0
 62
1
 10
25.823
 20
3.34837
 30
0.0
 11
26.0324
 21
3.31522
 31
0.0
  0
LINE
  5
281
  8
0
 62
1
 10
26.0324
 20
3.31522
 30
0.0
 11
26.2393
 21
3.26897
 31
0.0
  0
LINE
  5
282
  8
0
 62
1
 10
26.2393
 20
3.26897
 30
0.0
 11
26.4429
 21
3.20981
 31
0.0
  0
LINE
  5
283
  8
0
 62
1
 10
26.4429
 20
3.20981
 30
0.0
 11
26.6424
 21
3.13799
 31
0.0
  0
LINE
  5
284
  8
0
 62
1
 10
26.6424
 20
3.13799
 30
0.0
 11
26.837
 21
3.05379
 31
0.0
  0
LINE
  5
285
  8
0
 62
1
 10
26.837
 20
3.05379
 30
0.0
 11
27.0259
 21
2.95753
 31
0.0
  0
LINE
  5
286
  8
0
 62
1
 10
27.0259
 20
2.95753
 30
0.0
 11
27.2084
 21
2.84959
 31
0.0
  0
LINE
  5
287
  8
0
 62
1
 10
27.2084
 20
2.84959
 30
0.0
 11
27.3838
 21
2.73042
 31
0.0
  0
LINE
  5
288
  8
0
 62
1
 10
27.3838
 20
2.73042
 30
0.0
 11
27.5513
 21
2.60048
 31
0.0
  0
LINE
  5
289
  8
0
 62
1
 10
27.5513
 20
2.60048
 30
0.0
 11
27.7103
 21
2.46027
 31
0.0
  0
LINE
  5
28A
  8
0
 62
1
 10
27.7103
 20
2.46027
 30
0.0
 11
27.8603
 21
2.31033
 31
0.0
  0
LINE
  5
28B
  8
0
 62
1
 10
27.8603
 20
2.31033
 30
0.0
 11
28.0005
 21
2.15129
 31
0.0
  0
LINE
  5
28C
  8
0
 62
1
 10
28.0005
 20
2.15129
 30
0.0
 11
28.1304
 21
1.98376
 31
0.0
  0
LINE
  5
28D
  8
0
 62
1
 10
28.1304
 20
1.98376
 30
0.0
 11
28.2496
 21
1.80841
 31
0.0
  0
LINE
  5
28E
  8
0
 62
1
 10
28.2496
 20
1.80841
 30
0.0
 11
28.3575
 21
1.62592
 31
0.0
  0
LINE
  5
28F
  8
0
 62
1
 10
28.3575
 20
1.62592
 30
0.0
 11
28.4538
 21
1.437
 31
0.0
  0
LINE
  5
290
  8
0
 62
1
 10
28.4538
 20
1.437
 30
0.0
 11
28.538
 21
1.24242
 31
0.0
  0
LINE
  5
291
  8
0
 62
1
 10
28.538
 20
1.24242
 30
0.0
 11
28.6098
 21
1.04292
 31
0.0
  0
LINE
  5
292
  8
0
 62
1
 10
28.6098
 20
1.04292
 30
0.0
 11
28.669
 21
0.839325
 31
0.0
  0
LINE
  5
293
  8
0
 62
1
 10
28.669
 20
0.839325
 30
0.0
 11
28.7152
 21
0.632401
 31
0.0
  0
LINE
  5
294
  8
0
 62
1
 10
28.7152
 20
0.632401
 30
0.0
 11
28.7484
 21
0.422989
 31
0.0
  0
LINE
  5
295
  8
0
 62
1
 10
28.7484
 20
0.422989
 30
0.0
 11
28.7683
 21
0.211914
 31
0.0
  0
LINE
  5
296
  8
0
 62
1
 10
28.7683
 20
0.211914
 30
0.0
 11
28.775
 21
0.0
 31
0.0
  0
LINE
  5
297
  8
0
 62
1
 10
28.775
 20
0.0
 30
0.0
 11
28.7683
 21
-0.211914
 31
0.0
  0
ENDSEC
  0
EOF
