  0
SECTION
  2
HEADER
  9
$ACADVER
  1
AC1009
  9
$DWGCODEPAGE
  3
ANSI_1252
  9
$INSBASE
 10
0.0
 20
0.0
 30
0.0
  9
$EXTMIN
 10
1e+20
 20
1e+20
 30
1e+20
  9
$EXTMAX
 10
-1e+20
 20
-1e+20
 30
-1e+20
  9
$LIMMIN
 10
0.0
 20
0.0
  9
$LIMMAX
 10
420.0
 20
297.0
  9
$ORTHOMODE
 70
0
  9
$REGENMODE
 70
1
  9
$FILLMODE
 70
1
  9
$DRAGMODE
 70
2
  9
$QTEXTMODE
 70
0
  9
$MIRRTEXT
 70
1
  9
$OSMODE
 70
20583
  9
$LTSCALE
 40
1.0
  9
$ATTMODE
 70
1
  9
$TEXTSIZE
 40
2.5
  9
$TRACEWID
 40
1.0
  9
$TEXTSTYLE
  7
Standard
  9
$CLAYER
  8
0
  9
$CELTYPE
  6
ByLayer
  9
$CECOLOR
 62
256
  9
$DIMSCALE
 40
1.0
  9
$DIMASZ
 40
2.5
  9
$DIMEXO
 40
0.625
  9
$DIMDLI
 40
3.75
  9
$DIMRND
 40
0.0
  9
$DIMDLE
 40
0.0
  9
$DIMEXE
 40
1.25
  9
$DIMTP
 40
0.0
  9
$DIMTM
 40
0.0
  9
$DIMTXT
 40
2.5
  9
$DIMCEN
 40
2.5
  9
$DIMTSZ
 40
0.0
  9
$DIMTOL
 70
0
  9
$DIMLIM
 70
0
  9
$DIMTIH
 70
0
  9
$DIMTOH
 70
0
  9
$DIMSE1
 70
0
  9
$DIMSE2
 70
0
  9
$DIMTAD
 70
1
  9
$DIMZIN
 70
8
  9
$DIMBLK
  1

  9
$DIMASO
 70
1
  9
$DIMSHO
 70
1
  9
$DIMPOST
  1

  9
$DIMAPOST
  1

  9
$DIMALT
 70
0
  9
$DIMALTD
 70
3
  9
$DIMALTF
 40
0.03937007874
  9
$DIMLFAC
 40
1.0
  9
$DIMTOFL
 70
1
  9
$DIMTVP
 40
0.0
  9
$DIMTIX
 70
0
  9
$DIMSOXD
 70
0
  9
$DIMSAH
 70
0
  9
$DIMBLK1
  1

  9
$DIMBLK2
  1

  9
$DIMSTYLE
  2
ISO-25
  9
$DIMCLRD
 70
0
  9
$DIMCLRE
 70
0
  9
$DIMCLRT
 70
0
  9
$DIMTFAC
 40
1.0
  9
$DIMGAP
 40
0.625
  9
$COORDS
 70
1
  9
$ATTDIA
 70
0
  9
$ATTREQ
 70
1
  9
$HANDLING
 70
1
  9
$LUNITS
 70
2
  9
$LUPREC
 70
4
  9
$SKETCHINC
 40
1.0
  9
$FILLETRAD
 40
10.0
  9
$AUNITS
 70
0
  9
$AUPREC
 70
2
  9
$MENU
  1
.
  9
$ELEVATION
 40
0.0
  9
$PELEVATION
 40
0.0
  9
$THICKNESS
 40
0.0
  9
$LIMCHECK
 70
0
  9
$CHAMFERA
 40
0.0
  9
$CHAMFERB
 40
0.0
  9
$SKPOLY
 70
0
  9
$TDCREATE
 40
2461287.766712963
  9
$TDUPDATE
 40
2461287.766712963
  9
$TDINDWG
 40
0.0
  9
$TDUSRTIMER
 40
0.0
  9
$USRTIMER
 70
1
  9
$ANGBASE
 50
0.0
  9
$ANGDIR
 70
0
  9
$PDMODE
 70
0
  9
$PDSIZE
 40
0.0
  9
$PLINEWID
 40
0.0
  9
$SPLFRAME
 70
0
  9
$SPLINETYPE
 70
6
  9
$SPLINESEGS
 70
8
  9
$HANDSEED
  5
3AF
  9
$SURFTAB1
 70
6
  9
$SURFTAB2
 70
6
  9
$SURFTYPE
 70
6
  9
$SURFU
 70
6
  9
$SURFV
 70
6
  9
$UCSNAME
  2

  9
$UCSORG
 10
0.0
 20
0.0
 30
0.0
  9
$UCSXDIR
 10
1.0
 20
0.0
 30
0.0
  9
$UCSYDIR
 10
0.0
 20
1.0
 30
0.0
  9
$PUCSNAME
  2

  9
$PUCSORG
 10
0.0
 20
0.0
 30
0.0
  9
$PUCSXDIR
 10
1.0
 20
0.0
 30
0.0
  9
$PUCSYDIR
 10
0.0
 20
1.0
 30
0.0
  9
$USERI1
 70
0
  9
$USERI2
 70
0
  9
$USERI3
 70
0
  9
$USERI4
 70
0
  9
$USERI5
 70
0
  9
$USERR1
 40
0.0
  9
$USERR2
 40
0.0
  9
$USERR3
 40
0.0
  9
$USERR4
 40
0.0
  9
$USERR5
 40
0.0
  9
$WORLDVIEW
 70
1
  9
$SHADEDGE
 70
3
  9
$SHADEDIF
 70
70
  9
$TILEMODE
 70
1
  9
$MAXACTVP
 70
64
  9
$PLIMCHECK
 70
0
  9
$PEXTMIN
 10
1e+20
 20
1e+20
 30
1e+20
  9
$PEXTMAX
 10
-1e+20
 20
-1e+20
 30
-1e+20
  9
$PLIMMIN
 10
0.0
 20
0.0
  9
$PLIMMAX
 10
420.0
 20
297.0
  9
$UNITMODE
 70
0
  9
$VISRETAIN
 70
1
  9
$PLINEGEN
 70
0
  9
$PSLTSCALE
 70
1
  0
ENDSEC
  0
SECTION
  2
TABLES
  0
TABLE
  2
VPORT
 70
1
  0
VPORT
  5
3A3
  2
*Active
 70
0
 10
0.0
 20
0.0
 11
1.0
 21
1.0
 12
0.0
 22
0.0
 13
0.0
 23
0.0
 14
0.5
 24
0.5
 15
0.5
 25
0.5
 16
0.0
 26
0.0
 36
1.0
 17
0.0
 27
0.0
 37
0.0
 40
1000.0
 41
1.34
 42
50.0
 43
0.0
 44
0.0
 50
0.0
 51
0.0
 71
0
 72
1000
 73
1
 74
3
 75
0
 76
0
 77
0
 78
0
  0
ENDTAB
  0
TABLE
  2
LTYPE
 70
3
  0
LTYPE
  5
3A4
  2
ByBlock
 70
0
  3

 72
65
 73
0
 40
0.0
  0
LTYPE
  5
3A5
  2
ByLayer
 70
0
  3

 72
65
 73
0
 40
0.0
  0
LTYPE
  5
3A6
  2
Continuous
 70
0
  3

 72
65
 73
0
 40
0.0
  0
ENDTAB
  0
TABLE
  2
LAYER
 70
2
  0
LAYER
  5
3A7
  2
0
 70
0
 62
1
  6
Continuous
  0
LAYER
  5
3A8
  2
Defpoints
 70
0
 62
7
  6
Continuous
  0
ENDTAB
  0
TABLE
  2
STYLE
 70
1
  0
STYLE
  5
3A9
  2
Standard
 70
0
 40
0.0
 41
1.0
 50
0.0
 71
0
 42
2.5
  3
txt
  4

  0
ENDTAB
  0
TABLE
  2
VIEW
 70
0
  0
ENDTAB
  0
TABLE
  2
UCS
 70
0
  0
ENDTAB
  0
TABLE
  2
APPID
 70
3
  0
APPID
  5
3AA
  2
ACAD
 70
0
  0
APPID
  5
3AD
  2
HATCHBACKGROUNDCOLOR
 70
0
  0
APPID
  5
3AE
  2
EZDXF
 70
0
  0
ENDTAB
  0
TABLE
  2
DIMSTYLE
 70
1
  0
DIMSTYLE
105
3AB
  2
Standard
 70
0
  3

  4

  5

  6

  7

 40
1.0
 41
2.5
 42
0.625
 43
3.75
 44
1.25
 45
0.0
 46
0.0
 47
0.0
 48
0.0
140
2.5
141
2.5
142
0.0
143
0.03937007874
144
1.0
145
0.0
146
1.0
147
0.625
 71
0
 72
0
 73
0
 74
0
 75
0
 76
0
 77
1
 78
8
170
0
171
3
172
1
173
0
174
0
175
0
176
0
177
0
178
0
  0
ENDTAB
  0
ENDSEC
  0
SECTION
  2
BLOCKS
  0
BLOCK
  5
384
  8
0
  2
$Model_Space
 70
0
 10
0.0
 20
0.0
 30
0.0
  3
$Model_Space
  1

1001
EZDXF
1000
WRITTEN_BY_EZDXF
1000
1.4.4 @ 2026-09-03T22:24:04.789616+00:00
  0
ENDBLK
  5
385
  8
0
  0
BLOCK
  5
386
  8
0
  2
$Paper_Space
 70
0
 10
0.0
 20
0.0
 30
0.0
  3
$Paper_Space
  1

  0
ENDBLK
  5
387
  8
0
  0
ENDSEC
  0
SECTION
  2
ENTITIES
  0
LINE
  5
100
  8
0
 62
1
 10
-76.2
 20
125.72
 30
0.0
 11
-63.5
 21
125.72
 31
0.0
  0
LINE
  5
101
  8
0
 62
1
 10
-63.5
 20
125.72
 30
0.0
 11
-63.5
 21
119.38
 31
0.0
  0
LINE
  5
102
  8
0
 62
1
 10
-63.5
 20
119.38
 30
0.0
 11
-50.8
 21
119.38
 31
0.0
  0
LINE
  5
103
  8
0
 62
1
 10
-50.8
 20
119.38
 30
0.0
 11
-50.8
 21
125.72
 31
0.0
  0
LINE
  5
104
  8
0
 62
1
 10
-50.8
 20
125.72
 30
0.0
 11
-38.1
 21
125.72
 31
0.0
  0
LINE
  5
105
  8
0
 62
1
 10
-38.1
 20
125.72
 30
0.0
 11
-38.1
 21
119.38
 31
0.0
  0
LINE
  5
106
  8
0
 62
1
 10
-38.1
 20
119.38
 30
0.0
 11
-25.4
 21
119.38
 31
0.0
  0
LINE
  5
107
  8
0
 62
1
 10
-25.4
 20
119.38
 30
0.0
 11
-25.4
 21
125.72
 31
0.0
  0
LINE
  5
108
  8
0
 62
1
 10
-25.4
 20
125.72
 30
0.0
 11
-12.7
 21
125.72
 31
0.0
  0
LINE
  5
109
  8
0
 62
1
 10
-12.7
 20
125.72
 30
0.0
 11
-12.7
 21
119.38
 31
0.0
  0
LINE
  5
10A
  8
0
 62
1
 10
-12.7
 20
119.38
 30
0.0
 11
0.0
 21
119.38
 31
0.0
  0
LINE
  5
10B
  8
0
 62
1
 10
0.0
 20
119.38
 30
0.0
 11
0.0
 21
125.72
 31
0.0
  0
LINE
  5
10C
  8
0
 62
1
 10
0.0
 20
125.72
 30
0.0
 11
12.7
 21
125.72
 31
0.0
  0
LINE
  5
10D
  8
0
 62
1
 10
12.7
 20
125.72
 30
0.0
 11
12.7
 21
119.38
 31
0.0
  0
LINE
  5
10E
  8
0
 62
1
 10
12.7
 20
119.38
 30
0.0
 11
25.4
 21
119.38
 31
0.0
  0
LINE
  5
10F
  8
0
 62
1
 10
25.4
 20
119.38
 30
0.0
 11
25.4
 21
125.72
 31
0.0
  0
LINE
  5
110
  8
0
 62
1
 10
25.4
 20
125.72
 30
0.0
 11
38.1
 21
125.72
 31
0.0
  0
LINE
  5
111
  8
0
 62
1
 10
38.1
 20
125.72
 30
0.0
 11
38.1
 21
119.38
 31
0.0
  0
LINE
  5
112
  8
0
 62
1
 10
38.1
 20
119.38
 30
0.0
 11
50.8
 21
119.38
 31
0.0
  0
LINE
  5
113
  8
0
 62
1
 10
50.8
 20
119.38
 30
0.0
 11
50.8
 21
125.72
 31
0.0
  0
LINE
  5
114
  8
0
 62
1
 10
50.8
 20
125.72
 30
0.0
 11
63.5
 21
125.72
 31
0.0
  0
LINE
  5
115
  8
0
 62
1
 10
63.5
 20
125.72
 30
0.0
 11
63.5
 21
119.38
 31
0.0
  0
LINE
  5
116
  8
0
 62
1
 10
63.5
 20
119.38
 30
0.0
 11
76.2
 21
119.38
 31
0.0
  0
LINE
  5
117
  8
0
 62
1
 10
76.2
 20
119.38
 30
0.0
 11
76.2
 21
125.72
 31
0.0
  0
LINE
  5
118
  8
0
 62
1
 10
76.2
 20
125.72
 30
0.0
 11
88.9
 21
125.72
 31
0.0
  0
LINE
  5
119
  8
0
 62
1
 10
88.9
 20
125.72
 30
0.0
 11
88.9
 21
119.38
 31
0.0
  0
LINE
  5
11A
  8
0
 62
1
 10
88.9
 20
119.38
 30
0.0
 11
101.6
 21
119.38
 31
0.0
  0
LINE
  5
11B
  8
0
 62
1
 10
101.6
 20
119.38
 30
0.0
 11
101.6
 21
125.72
 31
0.0
  0
LINE
  5
11C
  8
0
 62
1
 10
101.6
 20
125.72
 30
0.0
 11
114.3
 21
125.72
 31
0.0
  0
LINE
  5
11D
  8
0
 62
1
 10
114.3
 20
125.72
 30
0.0
 11
114.3
 21
132.09
 31
0.0
  0
LINE
  5
11E
  8
0
 62
1
 10
114.3
 20
132.09
 30
0.0
 11
107.96
 21
132.09
 31
0.0
  0
LINE
  5
11F
  8
0
 62
1
 10
107.96
 20
132.09
 30
0.0
 11
107.96
 21
144.79
 31
0.0
  0
LINE
  5
120
  8
0
 62
1
 10
107.96
 20
144.79
 30
0.0
 11
114.3
 21
144.79
 31
0.0
  0
LINE
  5
121
  8
0
 62
1
 10
114.3
 20
144.79
 30
0.0
 11
114.3
 21
157.49
 31
0.0
  0
LINE
  5
122
  8
0
 62
1
 10
114.3
 20
157.49
 30
0.0
 11
107.96
 21
157.49
 31
0.0
  0
LINE
  5
123
  8
0
 62
1
 10
107.96
 20
157.49
 30
0.0
 11
107.96
 21
170.19
 31
0.0
  0
LINE
  5
124
  8
0
 62
1
 10
107.96
 20
170.19
 30
0.0
 11
114.3
 21
170.19
 31
0.0
  0
LINE
  5
125
  8
0
 62
1
 10
114.3
 20
170.19
 30
0.0
 11
114.3
 21
182.89
 31
0.0
  0
LINE
  5
126
  8
0
 62
1
 10
114.3
 20
182.89
 30
0.0
 11
107.96
 21
182.89
 31
0.0
  0
LINE
  5
127
  8
0
 62
1
 10
107.96
 20
182.89
 30
0.0
 11
107.96
 21
195.58
 31
0.0
  0
LINE
  5
128
  8
0
 62
1
 10
107.96
 20
195.58
 30
0.0
 11
-88.9
 21
195.58
 31
0.0
  0
LINE
  5
129
  8
0
 62
1
 10
-88.9
 20
195.58
 30
0.0
 11
-88.9
 21
119.38
 31
0.0
  0
LINE
  5
12A
  8
0
 62
1
 10
-88.9
 20
119.38
 30
0.0
 11
-76.2
 21
119.38
 31
0.0
  0
LINE
  5
12B
  8
0
 62
1
 10
-76.2
 20
119.38
 30
0.0
 11
-76.2
 21
125.72
 31
0.0
  0
LINE
  5
12C
  8
0
 62
1
 10
114.3
 20
55.89
 30
0.0
 11
107.96
 21
55.89
 31
0.0
  0
LINE
  5
12D
  8
0
 62
1
 10
107.96
 20
55.89
 30
0.0
 11
107.96
 21
68.59
 31
0.0
  0
LINE
  5
12E
  8
0
 62
1
 10
107.96
 20
68.59
 30
0.0
 11
114.3
 21
68.59
 31
0.0
  0
LINE
  5
12F
  8
0
 62
1
 10
114.3
 20
68.59
 30
0.0
 11
114.3
 21
81.29
 31
0.0
  0
LINE
  5
130
  8
0
 62
1
 10
114.3
 20
81.29
 30
0.0
 11
107.96
 21
81.29
 31
0.0
  0
LINE
  5
131
  8
0
 62
1
 10
107.96
 20
81.29
 30
0.0
 11
107.96
 21
93.99
 31
0.0
  0
LINE
  5
132
  8
0
 62
1
 10
107.96
 20
93.99
 30
0.0
 11
114.3
 21
93.99
 31
0.0
  0
LINE
  5
133
  8
0
 62
1
 10
114.3
 20
93.99
 30
0.0
 11
114.3
 21
106.69
 31
0.0
  0
LINE
  5
134
  8
0
 62
1
 10
114.3
 20
106.69
 30
0.0
 11
107.96
 21
106.69
 31
0.0
  0
LINE
  5
135
  8
0
 62
1
 10
107.96
 20
106.69
 30
0.0
 11
107.96
 21
119.38
 31
0.0
  0
LINE
  5
136
  8
0
 62
1
 10
107.96
 20
119.38
 30
0.0
 11
101.6
 21
119.38
 31
0.0
  0
LINE
  5
137
  8
0
 62
1
 10
101.6
 20
119.38
 30
0.0
 11
101.6
 21
113.04
 31
0.0
  0
LINE
  5
138
  8
0
 62
1
 10
101.6
 20
113.04
 30
0.0
 11
88.9
 21
113.04
 31
0.0
  0
LINE
  5
139
  8
0
 62
1
 10
88.9
 20
113.04
 30
0.0
 11
88.9
 21
119.38
 31
0.0
  0
LINE
  5
13A
  8
0
 62
1
 10
88.9
 20
119.38
 30
0.0
 11
76.2
 21
119.38
 31
0.0
  0
LINE
  5
13B
  8
0
 62
1
 10
76.2
 20
119.38
 30
0.0
 11
76.2
 21
113.04
 31
0.0
  0
LINE
  5
13C
  8
0
 62
1
 10
76.2
 20
113.04
 30
0.0
 11
63.5
 21
113.04
 31
0.0
  0
LINE
  5
13D
  8
0
 62
1
 10
63.5
 20
113.04
 30
0.0
 11
63.5
 21
119.38
 31
0.0
  0
LINE
  5
13E
  8
0
 62
1
 10
63.5
 20
119.38
 30
0.0
 11
50.8
 21
119.38
 31
0.0
  0
LINE
  5
13F
  8
0
 62
1
 10
50.8
 20
119.38
 30
0.0
 11
50.8
 21
113.04
 31
0.0
  0
LINE
  5
140
  8
0
 62
1
 10
50.8
 20
113.04
 30
0.0
 11
38.1
 21
113.04
 31
0.0
  0
LINE
  5
141
  8
0
 62
1
 10
38.1
 20
113.04
 30
0.0
 11
38.1
 21
119.38
 31
0.0
  0
LINE
  5
142
  8
0
 62
1
 10
38.1
 20
119.38
 30
0.0
 11
25.4
 21
119.38
 31
0.0
  0
LINE
  5
143
  8
0
 62
1
 10
25.4
 20
119.38
 30
0.0
 11
25.4
 21
113.04
 31
0.0
  0
LINE
  5
144
  8
0
 62
1
 10
25.4
 20
113.04
 30
0.0
 11
12.7
 21
113.04
 31
0.0
  0
LINE
  5
145
  8
0
 62
1
 10
12.7
 20
113.04
 30
0.0
 11
12.7
 21
119.38
 31
0.0
  0
LINE
  5
146
  8
0
 62
1
 10
12.7
 20
119.38
 30
0.0
 11
0.0
 21
119.38
 31
0.0
  0
LINE
  5
147
  8
0
 62
1
 10
0.0
 20
119.38
 30
0.0
 11
0.0
 21
113.04
 31
0.0
  0
LINE
  5
148
  8
0
 62
1
 10
0.0
 20
113.04
 30
0.0
 11
-12.7
 21
113.04
 31
0.0
  0
LINE
  5
149
  8
0
 62
1
 10
-12.7
 20
113.04
 30
0.0
 11
-12.7
 21
119.38
 31
0.0
  0
LINE
  5
14A
  8
0
 62
1
 10
-12.7
 20
119.38
 30
0.0
 11
-25.4
 21
119.38
 31
0.0
  0
LINE
  5
14B
  8
0
 62
1
 10
-25.4
 20
119.38
 30
0.0
 11
-25.4
 21
113.04
 31
0.0
  0
LINE
  5
14C
  8
0
 62
1
 10
-25.4
 20
113.04
 30
0.0
 11
-38.1
 21
113.04
 31
0.0
  0
LINE
  5
14D
  8
0
 62
1
 10
-38.1
 20
113.04
 30
0.0
 11
-38.1
 21
119.38
 31
0.0
  0
LINE
  5
14E
  8
0
 62
1
 10
-38.1
 20
119.38
 30
0.0
 11
-50.8
 21
119.38
 31
0.0
  0
LINE
  5
14F
  8
0
 62
1
 10
-50.8
 20
119.38
 30
0.0
 11
-50.8
 21
113.04
 31
0.0
  0
LINE
  5
150
  8
0
 62
1
 10
-50.8
 20
113.04
 30
0.0
 11
-63.5
 21
113.04
 31
0.0
  0
LINE
  5
151
  8
0
 62
1
 10
-63.5
 20
113.04
 30
0.0
 11
-63.5
 21
119.38
 31
0.0
  0
LINE
  5
152
  8
0
 62
1
 10
-63.5
 20
119.38
 30
0.0
 11
-76.2
 21
119.38
 31
0.0
  0
LINE
  5
153
  8
0
 62
1
 10
-76.2
 20
119.38
 30
0.0
 11
-76.2
 21
113.04
 31
0.0
  0
LINE
  5
154
  8
0
 62
1
 10
-76.2
 20
113.04
 30
0.0
 11
-88.9
 21
113.04
 31
0.0
  0
LINE
  5
155
  8
0
 62
1
 10
-88.9
 20
113.04
 30
0.0
 11
-88.9
 21
119.38
 31
0.0
  0
LINE
  5
156
  8
0
 62
1
 10
-88.9
 20
119.38
 30
0.0
 11
-114.3
 21
119.38
 31
0.0
  0
LINE
  5
157
  8
0
 62
1
 10
-114.3
 20
119.38
 30
0.0
 11
-114.3
 21
43.18
 31
0.0
  0
LINE
  5
158
  8
0
 62
1
 10
-114.3
 20
43.18
 30
0.0
 11
114.3
 21
43.18
 31
0.0
  0
LINE
  5
159
  8
0
 62
1
 10
114.3
 20
43.18
 30
0.0
 11
114.3
 21
55.89
 31
0.0
  0
LINE
  5
15A
  8
0
 62
1
 10
-101.812
 20
103.312
 30
0.0
 11
-102.023
 21
103.332
 31
0.0
  0
LINE
  5
15B
  8
0
 62
1
 10
-102.023
 20
103.332
 30
0.0
 11
-102.232
 21
103.365
 31
0.0
  0
LINE
  5
15C
  8
0
 62
1
 10
-102.232
 20
103.365
 30
0.0
 11
-102.439
 21
103.411
 31
0.0
  0
LINE
  5
15D
  8
0
 62
1
 10
-102.439
 20
103.411
 30
0.0
 11
-102.643
 21
103.47
 31
0.0
  0
LINE
  5
15E
  8
0
 62
1
 10
-102.643
 20
103.47
 30
0.0
 11
-102.842
 21
103.542
 31
0.0
  0
LINE
  5
15F
  8
0
 62
1
 10
-102.842
 20
103.542
 30
0.0
 11
-103.037
 21
103.626
 31
0.0
  0
LINE
  5
160
  8
0
 62
1
 10
-103.037
 20
103.626
 30
0.0
 11
-103.226
 21
103.722
 31
0.0
  0
LINE
  5
161
  8
0
 62
1
 10
-103.226
 20
103.722
 30
0.0
 11
-103.408
 21
103.83
 31
0.0
  0
LINE
  5
162
  8
0
 62
1
 10
-103.408
 20
103.83
 30
0.0
 11
-103.584
 21
103.95
 31
0.0
  0
LINE
  5
163
  8
0
 62
1
 10
-103.584
 20
103.95
 30
0.0
 11
-103.751
 21
104.08
 31
0.0
  0
LINE
  5
164
  8
0
 62
1
 10
-103.751
 20
104.08
 30
0.0
 11
-103.91
 21
104.22
 31
0.0
  0
LINE
  5
165
  8
0
 62
1
 10
-103.91
 20
104.22
 30
0.0
 11
-104.06
 21
104.37
 31
0.0
  0
LINE
  5
166
  8
0
 62
1
 10
-104.06
 20
104.37
 30
0.0
 11
-104.2
 21
104.529
 31
0.0
  0
LINE
  5
167
  8
0
 62
1
 10
-104.2
 20
104.529
 30
0.0
 11
-104.33
 21
104.696
 31
0.0
  0
LINE
  5
168
  8
0
 62
1
 10
-104.33
 20
104.696
 30
0.0
 11
-104.45
 21
104.872
 31
0.0
  0
LINE
  5
169
  8
0
 62
1
 10
-104.45
 20
104.872
 30
0.0
 11
-104.558
 21
105.054
 31
0.0
  0
LINE
  5
16A
  8
0
 62
1
 10
-104.558
 20
105.054
 30
0.0
 11
-104.654
 21
105.243
 31
0.0
  0
LINE
  5
16B
  8
0
 62
1
 10
-104.654
 20
105.243
 30
0.0
 11
-104.738
 21
105.438
 31
0.0
  0
LINE
  5
16C
  8
0
 62
1
 10
-104.738
 20
105.438
 30
0.0
 11
-104.81
 21
105.637
 31
0.0
  0
LINE
  5
16D
  8
0
 62
1
 10
-104.81
 20
105.637
 30
0.0
 11
-104.869
 21
105.841
 31
0.0
  0
LINE
  5
16E
  8
0
 62
1
 10
-104.869
 20
105.841
 30
0.0
 11
-104.915
 21
106.048
 31
0.0
  0
LINE
  5
16F
  8
0
 62
1
 10
-104.915
 20
106.048
 30
0.0
 11
-104.948
 21
106.257
 31
0.0
  0
LINE
  5
170
  8
0
 62
1
 10
-104.948
 20
106.257
 30
0.0
 11
-104.968
 21
106.468
 31
0.0
  0
LINE
  5
171
  8
0
 62
1
 10
-104.968
 20
106.468
 30
0.0
 11
-104.975
 21
106.68
 31
0.0
  0
LINE
  5
172
  8
0
 62
1
 10
-104.975
 20
106.68
 30
0.0
 11
-104.968
 21
106.892
 31
0.0
  0
LINE
  5
173
  8
0
 62
1
 10
-104.968
 20
106.892
 30
0.0
 11
-104.948
 21
107.103
 31
0.0
  0
LINE
  5
174
  8
0
 62
1
 10
-104.948
 20
107.103
 30
0.0
 11
-104.915
 21
107.312
 31
0.0
  0
LINE
  5
175
  8
0
 62
1
 10
-104.915
 20
107.312
 30
0.0
 11
-104.869
 21
107.519
 31
0.0
  0
LINE
  5
176
  8
0
 62
1
 10
-104.869
 20
107.519
 30
0.0
 11
-104.81
 21
107.723
 31
0.0
  0
LINE
  5
177
  8
0
 62
1
 10
-104.81
 20
107.723
 30
0.0
 11
-104.738
 21
107.922
 31
0.0
  0
LINE
  5
178
  8
0
 62
1
 10
-104.738
 20
107.922
 30
0.0
 11
-104.654
 21
108.117
 31
0.0
  0
LINE
  5
179
  8
0
 62
1
 10
-104.654
 20
108.117
 30
0.0
 11
-104.558
 21
108.306
 31
0.0
  0
LINE
  5
17A
  8
0
 62
1
 10
-104.558
 20
108.306
 30
0.0
 11
-104.45
 21
108.488
 31
0.0
  0
LINE
  5
17B
  8
0
 62
1
 10
-104.45
 20
108.488
 30
0.0
 11
-104.33
 21
108.664
 31
0.0
  0
LINE
  5
17C
  8
0
 62
1
 10
-104.33
 20
108.664
 30
0.0
 11
-104.2
 21
108.831
 31
0.0
  0
LINE
  5
17D
  8
0
 62
1
 10
-104.2
 20
108.831
 30
0.0
 11
-104.06
 21
108.99
 31
0.0
  0
LINE
  5
17E
  8
0
 62
1
 10
-104.06
 20
108.99
 30
0.0
 11
-103.91
 21
109.14
 31
0.0
  0
LINE
  5
17F
  8
0
 62
1
 10
-103.91
 20
109.14
 30
0.0
 11
-103.751
 21
109.28
 31
0.0
  0
LINE
  5
180
  8
0
 62
1
 10
-103.751
 20
109.28
 30
0.0
 11
-103.584
 21
109.41
 31
0.0
  0
LINE
  5
181
  8
0
 62
1
 10
-103.584
 20
109.41
 30
0.0
 11
-103.408
 21
109.53
 31
0.0
  0
LINE
  5
182
  8
0
 62
1
 10
-103.408
 20
109.53
 30
0.0
 11
-103.226
 21
109.638
 31
0.0
  0
LINE
  5
183
  8
0
 62
1
 10
-103.226
 20
109.638
 30
0.0
 11
-103.037
 21
109.734
 31
0.0
  0
LINE
  5
184
  8
0
 62
1
 10
-103.037
 20
109.734
 30
0.0
 11
-102.842
 21
109.818
 31
0.0
  0
LINE
  5
185
  8
0
 62
1
 10
-102.842
 20
109.818
 30
0.0
 11
-102.643
 21
109.89
 31
0.0
  0
LINE
  5
186
  8
0
 62
1
 10
-102.643
 20
109.89
 30
0.0
 11
-102.439
 21
109.949
 31
0.0
  0
LINE
  5
187
  8
0
 62
1
 10
-102.439
 20
109.949
 30
0.0
 11
-102.232
 21
109.995
 31
0.0
  0
LINE
  5
188
  8
0
 62
1
 10
-102.232
 20
109.995
 30
0.0
 11
-102.023
 21
110.028
 31
0.0
  0
LINE
  5
189
  8
0
 62
1
 10
-102.023
 20
110.028
 30
0.0
 11
-101.812
 21
110.048
 31
0.0
  0
LINE
  5
18A
  8
0
 62
1
 10
-101.812
 20
110.048
 30
0.0
 11
-101.6
 21
110.055
 31
0.0
  0
LINE
  5
18B
  8
0
 62
1
 10
-101.6
 20
110.055
 30
0.0
 11
-101.388
 21
110.048
 31
0.0
  0
LINE
  5
18C
  8
0
 62
1
 10
-101.388
 20
110.048
 30
0.0
 11
-101.177
 21
110.028
 31
0.0
  0
LINE
  5
18D
  8
0
 62
1
 10
-101.177
 20
110.028
 30
0.0
 11
-100.968
 21
109.995
 31
0.0
  0
LINE
  5
18E
  8
0
 62
1
 10
-100.968
 20
109.995
 30
0.0
 11
-100.761
 21
109.949
 31
0.0
  0
LINE
  5
18F
  8
0
 62
1
 10
-100.761
 20
109.949
 30
0.0
 11
-100.557
 21
109.89
 31
0.0
  0
LINE
  5
190
  8
0
 62
1
 10
-100.557
 20
109.89
 30
0.0
 11
-100.358
 21
109.818
 31
0.0
  0
LINE
  5
191
  8
0
 62
1
 10
-100.358
 20
109.818
 30
0.0
 11
-100.163
 21
109.734
 31
0.0
  0
LINE
  5
192
  8
0
 62
1
 10
-100.163
 20
109.734
 30
0.0
 11
-99.9741
 21
109.638
 31
0.0
  0
LINE
  5
193
  8
0
 62
1
 10
-99.9741
 20
109.638
 30
0.0
 11
-99.7916
 21
109.53
 31
0.0
  0
LINE
  5
194
  8
0
 62
1
 10
-99.7916
 20
109.53
 30
0.0
 11
-99.6162
 21
109.41
 31
0.0
  0
LINE
  5
195
  8
0
 62
1
 10
-99.6162
 20
109.41
 30
0.0
 11
-99.4487
 21
109.28
 31
0.0
  0
LINE
  5
196
  8
0
 62
1
 10
-99.4487
 20
109.28
 30
0.0
 11
-99.2896
 21
109.14
 31
0.0
  0
LINE
  5
197
  8
0
 62
1
 10
-99.2896
 20
109.14
 30
0.0
 11
-99.1397
 21
108.99
 31
0.0
  0
LINE
  5
198
  8
0
 62
1
 10
-99.1397
 20
108.99
 30
0.0
 11
-98.9995
 21
108.831
 31
0.0
  0
LINE
  5
199
  8
0
 62
1
 10
-98.9995
 20
108.831
 30
0.0
 11
-98.8696
 21
108.664
 31
0.0
  0
LINE
  5
19A
  8
0
 62
1
 10
-98.8696
 20
108.664
 30
0.0
 11
-98.7504
 21
108.488
 31
0.0
  0
LINE
  5
19B
  8
0
 62
1
 10
-98.7504
 20
108.488
 30
0.0
 11
-98.6425
 21
108.306
 31
0.0
  0
LINE
  5
19C
  8
0
 62
1
 10
-98.6425
 20
108.306
 30
0.0
 11
-98.5462
 21
108.117
 31
0.0
  0
LINE
  5
19D
  8
0
 62
1
 10
-98.5462
 20
108.117
 30
0.0
 11
-98.462
 21
107.922
 31
0.0
  0
LINE
  5
19E
  8
0
 62
1
 10
-98.462
 20
107.922
 30
0.0
 11
-98.3902
 21
107.723
 31
0.0
  0
LINE
  5
19F
  8
0
 62
1
 10
-98.3902
 20
107.723
 30
0.0
 11
-98.331
 21
107.519
 31
0.0
  0
LINE
  5
1A0
  8
0
 62
1
 10
-98.331
 20
107.519
 30
0.0
 11
-98.2848
 21
107.312
 31
0.0
  0
LINE
  5
1A1
  8
0
 62
1
 10
-98.2848
 20
107.312
 30
0.0
 11
-98.2516
 21
107.103
 31
0.0
  0
LINE
  5
1A2
  8
0
 62
1
 10
-98.2516
 20
107.103
 30
0.0
 11
-98.2317
 21
106.892
 31
0.0
  0
LINE
  5
1A3
  8
0
 62
1
 10
-98.2317
 20
106.892
 30
0.0
 11
-98.225
 21
106.68
 31
0.0
  0
LINE
  5
1A4
  8
0
 62
1
 10
-98.225
 20
106.68
 30
0.0
 11
-98.2317
 21
106.468
 31
0.0
  0
LINE
  5
1A5
  8
0
 62
1
 10
-98.2317
 20
106.468
 30
0.0
 11
-98.2516
 21
106.257
 31
0.0
  0
LINE
  5
1A6
  8
0
 62
1
 10
-98.2516
 20
106.257
 30
0.0
 11
-98.2848
 21
106.048
 31
0.0
  0
LINE
  5
1A7
  8
0
 62
1
 10
-98.2848
 20
106.048
 30
0.0
 11
-98.331
 21
105.841
 31
0.0
  0
LINE
  5
1A8
  8
0
 62
1
 10
-98.331
 20
105.841
 30
0.0
 11
-98.3902
 21
105.637
 31
0.0
  0
LINE
  5
1A9
  8
0
 62
1
 10
-98.3902
 20
105.637
 30
0.0
 11
-98.462
 21
105.438
 31
0.0
  0
LINE
  5
1AA
  8
0
 62
1
 10
-98.462
 20
105.438
 30
0.0
 11
-98.5462
 21
105.243
 31
0.0
  0
LINE
  5
1AB
  8
0
 62
1
 10
-98.5462
 20
105.243
 30
0.0
 11
-98.6425
 21
105.054
 31
0.0
  0
LINE
  5
1AC
  8
0
 62
1
 10
-98.6425
 20
105.054
 30
0.0
 11
-98.7504
 21
104.872
 31
0.0
  0
LINE
  5
1AD
  8
0
 62
1
 10
-98.7504
 20
104.872
 30
0.0
 11
-98.8696
 21
104.696
 31
0.0
  0
LINE
  5
1AE
  8
0
 62
1
 10
-98.8696
 20
104.696
 30
0.0
 11
-98.9995
 21
104.529
 31
0.0
  0
LINE
  5
1AF
  8
0
 62
1
 10
-98.9995
 20
104.529
 30
0.0
 11
-99.1397
 21
104.37
 31
0.0
  0
LINE
  5
1B0
  8
0
 62
1
 10
-99.1397
 20
104.37
 30
0.0
 11
-99.2896
 21
104.22
 31
0.0
  0
LINE
  5
1B1
  8
0
 62
1
 10
-99.2896
 20
104.22
 30
0.0
 11
-99.4487
 21
104.08
 31
0.0
  0
LINE
  5
1B2
  8
0
 62
1
 10
-99.4487
 20
104.08
 30
0.0
 11
-99.6162
 21
103.95
 31
0.0
  0
LINE
  5
1B3
  8
0
 62
1
 10
-99.6162
 20
103.95
 30
0.0
 11
-99.7916
 21
103.83
 31
0.0
  0
LINE
  5
1B4
  8
0
 62
1
 10
-99.7916
 20
103.83
 30
0.0
 11
-99.9741
 21
103.722
 31
0.0
  0
LINE
  5
1B5
  8
0
 62
1
 10
-99.9741
 20
103.722
 30
0.0
 11
-100.163
 21
103.626
 31
0.0
  0
LINE
  5
1B6
  8
0
 62
1
 10
-100.163
 20
103.626
 30
0.0
 11
-100.358
 21
103.542
 31
0.0
  0
LINE
  5
1B7
  8
0
 62
1
 10
-100.358
 20
103.542
 30
0.0
 11
-100.557
 21
103.47
 31
0.0
  0
LINE
  5
1B8
  8
0
 62
1
 10
-100.557
 20
103.47
 30
0.0
 11
-100.761
 21
103.411
 31
0.0
  0
LINE
  5
1B9
  8
0
 62
1
 10
-100.761
 20
103.411
 30
0.0
 11
-100.968
 21
103.365
 31
0.0
  0
LINE
  5
1BA
  8
0
 62
1
 10
-100.968
 20
103.365
 30
0.0
 11
-101.177
 21
103.332
 31
0.0
  0
LINE
  5
1BB
  8
0
 62
1
 10
-101.177
 20
103.332
 30
0.0
 11
-101.388
 21
103.312
 31
0.0
  0
LINE
  5
1BC
  8
0
 62
1
 10
-101.388
 20
103.312
 30
0.0
 11
-101.6
 21
103.305
 31
0.0
  0
LINE
  5
1BD
  8
0
 62
1
 10
-101.6
 20
103.305
 30
0.0
 11
-101.812
 21
103.312
 31
0.0
  0
LINE
  5
1BE
  8
0
 62
1
 10
-101.812
 20
52.5117
 30
0.0
 11
-102.023
 21
52.5316
 31
0.0
  0
LINE
  5
1BF
  8
0
 62
1
 10
-102.023
 20
52.5316
 30
0.0
 11
-102.232
 21
52.5648
 31
0.0
  0
LINE
  5
1C0
  8
0
 62
1
 10
-102.232
 20
52.5648
 30
0.0
 11
-102.439
 21
52.611
 31
0.0
  0
LINE
  5
1C1
  8
0
 62
1
 10
-102.439
 20
52.611
 30
0.0
 11
-102.643
 21
52.6702
 31
0.0
  0
LINE
  5
1C2
  8
0
 62
1
 10
-102.643
 20
52.6702
 30
0.0
 11
-102.842
 21
52.742
 31
0.0
  0
LINE
  5
1C3
  8
0
 62
1
 10
-102.842
 20
52.742
 30
0.0
 11
-103.037
 21
52.8262
 31
0.0
  0
LINE
  5
1C4
  8
0
 62
1
 10
-103.037
 20
52.8262
 30
0.0
 11
-103.226
 21
52.9225
 31
0.0
  0
LINE
  5
1C5
  8
0
 62
1
 10
-103.226
 20
52.9225
 30
0.0
 11
-103.408
 21
53.0304
 31
0.0
  0
LINE
  5
1C6
  8
0
 62
1
 10
-103.408
 20
53.0304
 30
0.0
 11
-103.584
 21
53.1496
 31
0.0
  0
LINE
  5
1C7
  8
0
 62
1
 10
-103.584
 20
53.1496
 30
0.0
 11
-103.751
 21
53.2795
 31
0.0
  0
LINE
  5
1C8
  8
0
 62
1
 10
-103.751
 20
53.2795
 30
0.0
 11
-103.91
 21
53.4197
 31
0.0
  0
LINE
  5
1C9
  8
0
 62
1
 10
-103.91
 20
53.4197
 30
0.0
 11
-104.06
 21
53.5697
 31
0.0
  0
LINE
  5
1CA
  8
0
 62
1
 10
-104.06
 20
53.5697
 30
0.0
 11
-104.2
 21
53.7287
 31
0.0
  0
LINE
  5
1CB
  8
0
 62
1
 10
-104.2
 20
53.7287
 30
0.0
 11
-104.33
 21
53.8962
 31
0.0
  0
LINE
  5
1CC
  8
0
 62
1
 10
-104.33
 20
53.8962
 30
0.0
 11
-104.45
 21
54.0716
 31
0.0
  0
LINE
  5
1CD
  8
0
 62
1
 10
-104.45
 20
54.0716
 30
0.0
 11
-104.558
 21
54.2541
 31
0.0
  0
LINE
  5
1CE
  8
0
 62
1
 10
-104.558
 20
54.2541
 30
0.0
 11
-104.654
 21
54.443
 31
0.0
  0
LINE
  5
1CF
  8
0
 62
1
 10
-104.654
 20
54.443
 30
0.0
 11
-104.738
 21
54.6376
 31
0.0
  0
LINE
  5
1D0
  8
0
 62
1
 10
-104.738
 20
54.6376
 30
0.0
 11
-104.81
 21
54.8371
 31
0.0
  0
LINE
  5
1D1
  8
0
 62
1
 10
-104.81
 20
54.8371
 30
0.0
 11
-104.869
 21
55.0407
 31
0.0
  0
LINE
  5
1D2
  8
0
 62
1
 10
-104.869
 20
55.0407
 30
0.0
 11
-104.915
 21
55.2476
 31
0.0
  0
LINE
  5
1D3
  8
0
 62
1
 10
-104.915
 20
55.2476
 30
0.0
 11
-104.948
 21
55.457
 31
0.0
  0
LINE
  5
1D4
  8
0
 62
1
 10
-104.948
 20
55.457
 30
0.0
 11
-104.968
 21
55.6681
 31
0.0
  0
LINE
  5
1D5
  8
0
 62
1
 10
-104.968
 20
55.6681
 30
0.0
 11
-104.975
 21
55.88
 31
0.0
  0
LINE
  5
1D6
  8
0
 62
1
 10
-104.975
 20
55.88
 30
0.0
 11
-104.968
 21
56.0919
 31
0.0
  0
LINE
  5
1D7
  8
0
 62
1
 10
-104.968
 20
56.0919
 30
0.0
 11
-104.948
 21
56.303
 31
0.0
  0
LINE
  5
1D8
  8
0
 62
1
 10
-104.948
 20
56.303
 30
0.0
 11
-104.915
 21
56.5124
 31
0.0
  0
LINE
  5
1D9
  8
0
 62
1
 10
-104.915
 20
56.5124
 30
0.0
 11
-104.869
 21
56.7193
 31
0.0
  0
LINE
  5
1DA
  8
0
 62
1
 10
-104.869
 20
56.7193
 30
0.0
 11
-104.81
 21
56.9229
 31
0.0
  0
LINE
  5
1DB
  8
0
 62
1
 10
-104.81
 20
56.9229
 30
0.0
 11
-104.738
 21
57.1224
 31
0.0
  0
LINE
  5
1DC
  8
0
 62
1
 10
-104.738
 20
57.1224
 30
0.0
 11
-104.654
 21
57.317
 31
0.0
  0
LINE
  5
1DD
  8
0
 62
1
 10
-104.654
 20
57.317
 30
0.0
 11
-104.558
 21
57.5059
 31
0.0
  0
LINE
  5
1DE
  8
0
 62
1
 10
-104.558
 20
57.5059
 30
0.0
 11
-104.45
 21
57.6884
 31
0.0
  0
LINE
  5
1DF
  8
0
 62
1
 10
-104.45
 20
57.6884
 30
0.0
 11
-104.33
 21
57.8638
 31
0.0
  0
LINE
  5
1E0
  8
0
 62
1
 10
-104.33
 20
57.8638
 30
0.0
 11
-104.2
 21
58.0313
 31
0.0
  0
LINE
  5
1E1
  8
0
 62
1
 10
-104.2
 20
58.0313
 30
0.0
 11
-104.06
 21
58.1904
 31
0.0
  0
LINE
  5
1E2
  8
0
 62
1
 10
-104.06
 20
58.1904
 30
0.0
 11
-103.91
 21
58.3403
 31
0.0
  0
LINE
  5
1E3
  8
0
 62
1
 10
-103.91
 20
58.3403
 30
0.0
 11
-103.751
 21
58.4805
 31
0.0
  0
LINE
  5
1E4
  8
0
 62
1
 10
-103.751
 20
58.4805
 30
0.0
 11
-103.584
 21
58.6104
 31
0.0
  0
LINE
  5
1E5
  8
0
 62
1
 10
-103.584
 20
58.6104
 30
0.0
 11
-103.408
 21
58.7296
 31
0.0
  0
LINE
  5
1E6
  8
0
 62
1
 10
-103.408
 20
58.7296
 30
0.0
 11
-103.226
 21
58.8375
 31
0.0
  0
LINE
  5
1E7
  8
0
 62
1
 10
-103.226
 20
58.8375
 30
0.0
 11
-103.037
 21
58.9338
 31
0.0
  0
LINE
  5
1E8
  8
0
 62
1
 10
-103.037
 20
58.9338
 30
0.0
 11
-102.842
 21
59.018
 31
0.0
  0
LINE
  5
1E9
  8
0
 62
1
 10
-102.842
 20
59.018
 30
0.0
 11
-102.643
 21
59.0898
 31
0.0
  0
LINE
  5
1EA
  8
0
 62
1
 10
-102.643
 20
59.0898
 30
0.0
 11
-102.439
 21
59.149
 31
0.0
  0
LINE
  5
1EB
  8
0
 62
1
 10
-102.439
 20
59.149
 30
0.0
 11
-102.232
 21
59.1952
 31
0.0
  0
LINE
  5
1EC
  8
0
 62
1
 10
-102.232
 20
59.1952
 30
0.0
 11
-102.023
 21
59.2284
 31
0.0
  0
LINE
  5
1ED
  8
0
 62
1
 10
-102.023
 20
59.2284
 30
0.0
 11
-101.812
 21
59.2484
 31
0.0
  0
LINE
  5
1EE
  8
0
 62
1
 10
-101.812
 20
59.2484
 30
0.0
 11
-101.6
 21
59.255
 31
0.0
  0
LINE
  5
1EF
  8
0
 62
1
 10
-101.6
 20
59.255
 30
0.0
 11
-101.388
 21
59.2484
 31
0.0
  0
LINE
  5
1F0
  8
0
 62
1
 10
-101.388
 20
59.2484
 30
0.0
 11
-101.177
 21
59.2284
 31
0.0
  0
LINE
  5
1F1
  8
0
 62
1
 10
-101.177
 20
59.2284
 30
0.0
 11
-100.968
 21
59.1952
 31
0.0
  0
LINE
  5
1F2
  8
0
 62
1
 10
-100.968
 20
59.1952
 30
0.0
 11
-100.761
 21
59.149
 31
0.0
  0
LINE
  5
1F3
  8
0
 62
1
 10
-100.761
 20
59.149
 30
0.0
 11
-100.557
 21
59.0898
 31
0.0
  0
LINE
  5
1F4
  8
0
 62
1
 10
-100.557
 20
59.0898
 30
0.0
 11
-100.358
 21
59.018
 31
0.0
  0
LINE
  5
1F5
  8
0
 62
1
 10
-100.358
 20
59.018
 30
0.0
 11
-100.163
 21
58.9338
 31
0.0
  0
LINE
  5
1F6
  8
0
 62
1
 10
-100.163
 20
58.9338
 30
0.0
 11
-99.9741
 21
58.8375
 31
0.0
  0
LINE
  5
1F7
  8
0
 62
1
 10
-99.9741
 20
58.8375
 30
0.0
 11
-99.7916
 21
58.7296
 31
0.0
  0
LINE
  5
1F8
  8
0
 62
1
 10
-99.7916
 20
58.7296
 30
0.0
 11
-99.6162
 21
58.6104
 31
0.0
  0
LINE
  5
1F9
  8
0
 62
1
 10
-99.6162
 20
58.6104
 30
0.0
 11
-99.4487
 21
58.4805
 31
0.0
  0
LINE
  5
1FA
  8
0
 62
1
 10
-99.4487
 20
58.4805
 30
0.0
 11
-99.2896
 21
58.3403
 31
0.0
  0
LINE
  5
1FB
  8
0
 62
1
 10
-99.2896
 20
58.3403
 30
0.0
 11
-99.1397
 21
58.1904
 31
0.0
  0
LINE
  5
1FC
  8
0
 62
1
 10
-99.1397
 20
58.1904
 30
0.0
 11
-98.9995
 21
58.0313
 31
0.0
  0
LINE
  5
1FD
  8
0
 62
1
 10
-98.9995
 20
58.0313
 30
0.0
 11
-98.8696
 21
57.8638
 31
0.0
  0
LINE
  5
1FE
  8
0
 62
1
 10
-98.8696
 20
57.8638
 30
0.0
 11
-98.7504
 21
57.6884
 31
0.0
  0
LINE
  5
1FF
  8
0
 62
1
 10
-98.7504
 20
57.6884
 30
0.0
 11
-98.6425
 21
57.5059
 31
0.0
  0
LINE
  5
200
  8
0
 62
1
 10
-98.6425
 20
57.5059
 30
0.0
 11
-98.5462
 21
57.317
 31
0.0
  0
LINE
  5
201
  8
0
 62
1
 10
-98.5462
 20
57.317
 30
0.0
 11
-98.462
 21
57.1224
 31
0.0
  0
LINE
  5
202
  8
0
 62
1
 10
-98.462
 20
57.1224
 30
0.0
 11
-98.3902
 21
56.9229
 31
0.0
  0
LINE
  5
203
  8
0
 62
1
 10
-98.3902
 20
56.9229
 30
0.0
 11
-98.331
 21
56.7193
 31
0.0
  0
LINE
  5
204
  8
0
 62
1
 10
-98.331
 20
56.7193
 30
0.0
 11
-98.2848
 21
56.5124
 31
0.0
  0
LINE
  5
205
  8
0
 62
1
 10
-98.2848
 20
56.5124
 30
0.0
 11
-98.2516
 21
56.303
 31
0.0
  0
LINE
  5
206
  8
0
 62
1
 10
-98.2516
 20
56.303
 30
0.0
 11
-98.2317
 21
56.0919
 31
0.0
  0
LINE
  5
207
  8
0
 62
1
 10
-98.2317
 20
56.0919
 30
0.0
 11
-98.225
 21
55.88
 31
0.0
  0
LINE
  5
208
  8
0
 62
1
 10
-98.225
 20
55.88
 30
0.0
 11
-98.2317
 21
55.6681
 31
0.0
  0
LINE
  5
209
  8
0
 62
1
 10
-98.2317
 20
55.6681
 30
0.0
 11
-98.2516
 21
55.457
 31
0.0
  0
LINE
  5
20A
  8
0
 62
1
 10
-98.2516
 20
55.457
 30
0.0
 11
-98.2848
 21
55.2476
 31
0.0
  0
LINE
  5
20B
  8
0
 62
1
 10
-98.2848
 20
55.2476
 30
0.0
 11
-98.331
 21
55.0407
 31
0.0
  0
LINE
  5
20C
  8
0
 62
1
 10
-98.331
 20
55.0407
 30
0.0
 11
-98.3902
 21
54.8371
 31
0.0
  0
LINE
  5
20D
  8
0
 62
1
 10
-98.3902
 20
54.8371
 30
0.0
 11
-98.462
 21
54.6376
 31
0.0
  0
LINE
  5
20E
  8
0
 62
1
 10
-98.462
 20
54.6376
 30
0.0
 11
-98.5462
 21
54.443
 31
0.0
  0
LINE
  5
20F
  8
0
 62
1
 10
-98.5462
 20
54.443
 30
0.0
 11
-98.6425
 21
54.2541
 31
0.0
  0
LINE
  5
210
  8
0
 62
1
 10
-98.6425
 20
54.2541
 30
0.0
 11
-98.7504
 21
54.0716
 31
0.0
  0
LINE
  5
211
  8
0
 62
1
 10
-98.7504
 20
54.0716
 30
0.0
 11
-98.8696
 21
53.8962
 31
0.0
  0
LINE
  5
212
  8
0
 62
1
 10
-98.8696
 20
53.8962
 30
0.0
 11
-98.9995
 21
53.7287
 31
0.0
  0
LINE
  5
213
  8
0
 62
1
 10
-98.9995
 20
53.7287
 30
0.0
 11
-99.1397
 21
53.5697
 31
0.0
  0
LINE
  5
214
  8
0
 62
1
 10
-99.1397
 20
53.5697
 30
0.0
 11
-99.2896
 21
53.4197
 31
0.0
  0
LINE
  5
215
  8
0
 62
1
 10
-99.2896
 20
53.4197
 30
0.0
 11
-99.4487
 21
53.2795
 31
0.0
  0
LINE
  5
216
  8
0
 62
1
 10
-99.4487
 20
53.2795
 30
0.0
 11
-99.6162
 21
53.1496
 31
0.0
  0
LINE
  5
217
  8
0
 62
1
 10
-99.6162
 20
53.1496
 30
0.0
 11
-99.7916
 21
53.0304
 31
0.0
  0
LINE
  5
218
  8
0
 62
1
 10
-99.7916
 20
53.0304
 30
0.0
 11
-99.9741
 21
52.9225
 31
0.0
  0
LINE
  5
219
  8
0
 62
1
 10
-99.9741
 20
52.9225
 30
0.0
 11
-100.163
 21
52.8262
 31
0.0
  0
LINE
  5
21A
  8
0
 62
1
 10
-100.163
 20
52.8262
 30
0.0
 11
-100.358
 21
52.742
 31
0.0
  0
LINE
  5
21B
  8
0
 62
1
 10
-100.358
 20
52.742
 30
0.0
 11
-100.557
 21
52.6702
 31
0.0
  0
LINE
  5
21C
  8
0
 62
1
 10
-100.557
 20
52.6702
 30
0.0
 11
-100.761
 21
52.611
 31
0.0
  0
LINE
  5
21D
  8
0
 62
1
 10
-100.761
 20
52.611
 30
0.0
 11
-100.968
 21
52.5648
 31
0.0
  0
LINE
  5
21E
  8
0
 62
1
 10
-100.968
 20
52.5648
 30
0.0
 11
-101.177
 21
52.5316
 31
0.0
  0
LINE
  5
21F
  8
0
 62
1
 10
-101.177
 20
52.5316
 30
0.0
 11
-101.388
 21
52.5117
 31
0.0
  0
LINE
  5
220
  8
0
 62
1
 10
-101.388
 20
52.5117
 30
0.0
 11
-101.6
 21
52.505
 31
0.0
  0
LINE
  5
221
  8
0
 62
1
 10
-101.6
 20
52.505
 30
0.0
 11
-101.812
 21
52.5117
 31
0.0
  0
LINE
  5
222
  8
0
 62
1
 10
127.0
 20
49.52
 30
0.0
 11
139.7
 21
49.52
 31
0.0
  0
LINE
  5
223
  8
0
 62
1
 10
139.7
 20
49.52
 30
0.0
 11
139.7
 21
43.18
 31
0.0
  0
LINE
  5
224
  8
0
 62
1
 10
139.7
 20
43.18
 30
0.0
 11
152.4
 21
43.18
 31
0.0
  0
LINE
  5
225
  8
0
 62
1
 10
152.4
 20
43.18
 30
0.0
 11
152.4
 21
49.52
 31
0.0
  0
LINE
  5
226
  8
0
 62
1
 10
152.4
 20
49.52
 30
0.0
 11
165.1
 21
49.52
 31
0.0
  0
LINE
  5
227
  8
0
 62
1
 10
165.1
 20
49.52
 30
0.0
 11
165.1
 21
43.18
 31
0.0
  0
LINE
  5
228
  8
0
 62
1
 10
165.1
 20
43.18
 30
0.0
 11
177.8
 21
43.18
 31
0.0
  0
LINE
  5
229
  8
0
 62
1
 10
177.8
 20
43.18
 30
0.0
 11
177.8
 21
49.52
 31
0.0
  0
LINE
  5
22A
  8
0
 62
1
 10
177.8
 20
49.52
 30
0.0
 11
190.5
 21
49.52
 31
0.0
  0
LINE
  5
22B
  8
0
 62
1
 10
190.5
 20
49.52
 30
0.0
 11
190.5
 21
119.38
 31
0.0
  0
LINE
  5
22C
  8
0
 62
1
 10
190.5
 20
119.38
 30
0.0
 11
114.3
 21
119.38
 31
0.0
  0
LINE
  5
22D
  8
0
 62
1
 10
114.3
 20
119.38
 30
0.0
 11
114.3
 21
106.69
 31
0.0
  0
LINE
  5
22E
  8
0
 62
1
 10
114.3
 20
106.69
 30
0.0
 11
120.64
 21
106.69
 31
0.0
  0
LINE
  5
22F
  8
0
 62
1
 10
120.64
 20
106.69
 30
0.0
 11
120.64
 21
93.99
 31
0.0
  0
LINE
  5
230
  8
0
 62
1
 10
120.64
 20
93.99
 30
0.0
 11
114.3
 21
93.99
 31
0.0
  0
LINE
  5
231
  8
0
 62
1
 10
114.3
 20
93.99
 30
0.0
 11
114.3
 21
81.29
 31
0.0
  0
LINE
  5
232
  8
0
 62
1
 10
114.3
 20
81.29
 30
0.0
 11
120.64
 21
81.29
 31
0.0
  0
LINE
  5
233
  8
0
 62
1
 10
120.64
 20
81.29
 30
0.0
 11
120.64
 21
68.59
 31
0.0
  0
LINE
  5
234
  8
0
 62
1
 10
120.64
 20
68.59
 30
0.0
 11
114.3
 21
68.59
 31
0.0
  0
LINE
  5
235
  8
0
 62
1
 10
114.3
 20
68.59
 30
0.0
 11
114.3
 21
55.89
 31
0.0
  0
LINE
  5
236
  8
0
 62
1
 10
114.3
 20
55.89
 30
0.0
 11
120.64
 21
55.89
 31
0.0
  0
LINE
  5
237
  8
0
 62
1
 10
120.64
 20
55.89
 30
0.0
 11
120.64
 21
43.19
 31
0.0
  0
LINE
  5
238
  8
0
 62
1
 10
120.64
 20
43.19
 30
0.0
 11
114.3
 21
43.19
 31
0.0
  0
LINE
  5
239
  8
0
 62
1
 10
114.3
 20
43.19
 30
0.0
 11
114.3
 21
43.18
 31
0.0
  0
LINE
  5
23A
  8
0
 62
1
 10
114.3
 20
43.18
 30
0.0
 11
127.0
 21
43.18
 31
0.0
  0
LINE
  5
23B
  8
0
 62
1
 10
127.0
 20
43.18
 30
0.0
 11
127.0
 21
49.52
 31
0.0
  0
LINE
  5
23C
  8
0
 62
1
 10
127.0
 20
-31.68
 30
0.0
 11
139.7
 21
-31.68
 31
0.0
  0
LINE
  5
23D
  8
0
 62
1
 10
139.7
 20
-31.68
 30
0.0
 11
139.7
 21
-38.02
 31
0.0
  0
LINE
  5
23E
  8
0
 62
1
 10
139.7
 20
-38.02
 30
0.0
 11
152.4
 21
-38.02
 31
0.0
  0
LINE
  5
23F
  8
0
 62
1
 10
152.4
 20
-38.02
 30
0.0
 11
152.4
 21
-31.68
 31
0.0
  0
LINE
  5
240
  8
0
 62
1
 10
152.4
 20
-31.68
 30
0.0
 11
165.1
 21
-31.68
 31
0.0
  0
LINE
  5
241
  8
0
 62
1
 10
165.1
 20
-31.68
 30
0.0
 11
165.1
 21
-38.02
 31
0.0
  0
LINE
  5
242
  8
0
 62
1
 10
165.1
 20
-38.02
 30
0.0
 11
177.8
 21
-38.02
 31
0.0
  0
LINE
  5
243
  8
0
 62
1
 10
177.8
 20
-38.02
 30
0.0
 11
177.8
 21
-31.68
 31
0.0
  0
LINE
  5
244
  8
0
 62
1
 10
177.8
 20
-31.68
 30
0.0
 11
190.5
 21
-31.68
 31
0.0
  0
LINE
  5
245
  8
0
 62
1
 10
190.5
 20
-31.68
 30
0.0
 11
190.5
 21
38.18
 31
0.0
  0
LINE
  5
246
  8
0
 62
1
 10
190.5
 20
38.18
 30
0.0
 11
114.3
 21
38.18
 31
0.0
  0
LINE
  5
247
  8
0
 62
1
 10
114.3
 20
38.18
 30
0.0
 11
114.3
 21
25.49
 31
0.0
  0
LINE
  5
248
  8
0
 62
1
 10
114.3
 20
25.49
 30
0.0
 11
120.64
 21
25.49
 31
0.0
  0
LINE
  5
249
  8
0
 62
1
 10
120.64
 20
25.49
 30
0.0
 11
120.64
 21
12.79
 31
0.0
  0
LINE
  5
24A
  8
0
 62
1
 10
120.64
 20
12.79
 30
0.0
 11
114.3
 21
12.79
 31
0.0
  0
LINE
  5
24B
  8
0
 62
1
 10
114.3
 20
12.79
 30
0.0
 11
114.3
 21
0.0899963
 31
0.0
  0
LINE
  5
24C
  8
0
 62
1
 10
114.3
 20
0.0899963
 30
0.0
 11
120.64
 21
0.0899963
 31
0.0
  0
LINE
  5
24D
  8
0
 62
1
 10
120.64
 20
0.0899963
 30
0.0
 11
120.64
 21
-12.61
 31
0.0
  0
LINE
  5
24E
  8
0
 62
1
 10
120.64
 20
-12.61
 30
0.0
 11
114.3
 21
-12.61
 31
0.0
  0
LINE
  5
24F
  8
0
 62
1
 10
114.3
 20
-12.61
 30
0.0
 11
114.3
 21
-25.31
 31
0.0
  0
LINE
  5
250
  8
0
 62
1
 10
114.3
 20
-25.31
 30
0.0
 11
120.64
 21
-25.31
 31
0.0
  0
LINE
  5
251
  8
0
 62
1
 10
120.64
 20
-25.31
 30
0.0
 11
120.64
 21
-38.01
 31
0.0
  0
LINE
  5
252
  8
0
 62
1
 10
120.64
 20
-38.01
 30
0.0
 11
114.3
 21
-38.01
 31
0.0
  0
LINE
  5
253
  8
0
 62
1
 10
114.3
 20
-38.01
 30
0.0
 11
114.3
 21
-38.02
 31
0.0
  0
LINE
  5
254
  8
0
 62
1
 10
114.3
 20
-38.02
 30
0.0
 11
127.0
 21
-38.02
 31
0.0
  0
LINE
  5
255
  8
0
 62
1
 10
127.0
 20
-38.02
 30
0.0
 11
127.0
 21
-31.68
 31
0.0
  0
LINE
  5
256
  8
0
 62
1
 10
-88.9
 20
-31.76
 30
0.0
 11
-76.2
 21
-31.76
 31
0.0
  0
LINE
  5
257
  8
0
 62
1
 10
-76.2
 20
-31.76
 30
0.0
 11
-76.2
 21
-38.1
 31
0.0
  0
LINE
  5
258
  8
0
 62
1
 10
-76.2
 20
-38.1
 30
0.0
 11
-63.5
 21
-38.1
 31
0.0
  0
LINE
  5
259
  8
0
 62
1
 10
-63.5
 20
-38.1
 30
0.0
 11
-63.5
 21
-31.76
 31
0.0
  0
LINE
  5
25A
  8
0
 62
1
 10
-63.5
 20
-31.76
 30
0.0
 11
-50.8
 21
-31.76
 31
0.0
  0
LINE
  5
25B
  8
0
 62
1
 10
-50.8
 20
-31.76
 30
0.0
 11
-50.8
 21
-38.1
 31
0.0
  0
LINE
  5
25C
  8
0
 62
1
 10
-50.8
 20
-38.1
 30
0.0
 11
-38.1
 21
-38.1
 31
0.0
  0
LINE
  5
25D
  8
0
 62
1
 10
-38.1
 20
-38.1
 30
0.0
 11
-38.1
 21
-31.76
 31
0.0
  0
LINE
  5
25E
  8
0
 62
1
 10
-38.1
 20
-31.76
 30
0.0
 11
-25.4
 21
-31.76
 31
0.0
  0
LINE
  5
25F
  8
0
 62
1
 10
-25.4
 20
-31.76
 30
0.0
 11
-25.4
 21
-38.1
 31
0.0
  0
LINE
  5
260
  8
0
 62
1
 10
-25.4
 20
-38.1
 30
0.0
 11
-12.7
 21
-38.1
 31
0.0
  0
LINE
  5
261
  8
0
 62
1
 10
-12.7
 20
-38.1
 30
0.0
 11
-12.7
 21
-31.76
 31
0.0
  0
LINE
  5
262
  8
0
 62
1
 10
-12.7
 20
-31.76
 30
0.0
 11
0.0
 21
-31.76
 31
0.0
  0
LINE
  5
263
  8
0
 62
1
 10
0.0
 20
-31.76
 30
0.0
 11
0.0
 21
-38.1
 31
0.0
  0
LINE
  5
264
  8
0
 62
1
 10
0.0
 20
-38.1
 30
0.0
 11
12.7
 21
-38.1
 31
0.0
  0
LINE
  5
265
  8
0
 62
1
 10
12.7
 20
-38.1
 30
0.0
 11
12.7
 21
-31.76
 31
0.0
  0
LINE
  5
266
  8
0
 62
1
 10
12.7
 20
-31.76
 30
0.0
 11
25.4
 21
-31.76
 31
0.0
  0
LINE
  5
267
  8
0
 62
1
 10
25.4
 20
-31.76
 30
0.0
 11
25.4
 21
-38.1
 31
0.0
  0
LINE
  5
268
  8
0
 62
1
 10
25.4
 20
-38.1
 30
0.0
 11
38.1
 21
-38.1
 31
0.0
  0
LINE
  5
269
  8
0
 62
1
 10
38.1
 20
-38.1
 30
0.0
 11
38.1
 21
-31.76
 31
0.0
  0
LINE
  5
26A
  8
0
 62
1
 10
38.1
 20
-31.76
 30
0.0
 11
50.8
 21
-31.76
 31
0.0
  0
LINE
  5
26B
  8
0
 62
1
 10
50.8
 20
-31.76
 30
0.0
 11
50.8
 21
-38.1
 31
0.0
  0
LINE
  5
26C
  8
0
 62
1
 10
50.8
 20
-38.1
 30
0.0
 11
63.5
 21
-38.1
 31
0.0
  0
LINE
  5
26D
  8
0
 62
1
 10
63.5
 20
-38.1
 30
0.0
 11
63.5
 21
-31.76
 31
0.0
  0
LINE
  5
26E
  8
0
 62
1
 10
63.5
 20
-31.76
 30
0.0
 11
76.2
 21
-31.76
 31
0.0
  0
LINE
  5
26F
  8
0
 62
1
 10
76.2
 20
-31.76
 30
0.0
 11
76.2
 21
-38.1
 31
0.0
  0
LINE
  5
270
  8
0
 62
1
 10
76.2
 20
-38.1
 30
0.0
 11
88.9
 21
-38.1
 31
0.0
  0
LINE
  5
271
  8
0
 62
1
 10
88.9
 20
-38.1
 30
0.0
 11
88.9
 21
-31.76
 31
0.0
  0
LINE
  5
272
  8
0
 62
1
 10
88.9
 20
-31.76
 30
0.0
 11
101.6
 21
-31.76
 31
0.0
  0
LINE
  5
273
  8
0
 62
1
 10
101.6
 20
-31.76
 30
0.0
 11
101.6
 21
-38.1
 31
0.0
  0
LINE
  5
274
  8
0
 62
1
 10
101.6
 20
-38.1
 30
0.0
 11
114.3
 21
-38.1
 31
0.0
  0
LINE
  5
275
  8
0
 62
1
 10
114.3
 20
-38.1
 30
0.0
 11
114.3
 21
-25.39
 31
0.0
  0
LINE
  5
276
  8
0
 62
1
 10
114.3
 20
-25.39
 30
0.0
 11
107.96
 21
-25.39
 31
0.0
  0
LINE
  5
277
  8
0
 62
1
 10
107.96
 20
-25.39
 30
0.0
 11
107.96
 21
-12.69
 31
0.0
  0
LINE
  5
278
  8
0
 62
1
 10
107.96
 20
-12.69
 30
0.0
 11
114.3
 21
-12.69
 31
0.0
  0
LINE
  5
279
  8
0
 62
1
 10
114.3
 20
-12.69
 30
0.0
 11
114.3
 21
0.00999451
 31
0.0
  0
LINE
  5
27A
  8
0
 62
1
 10
114.3
 20
0.00999451
 30
0.0
 11
107.96
 21
0.00999451
 31
0.0
  0
LINE
  5
27B
  8
0
 62
1
 10
107.96
 20
0.00999451
 30
0.0
 11
107.96
 21
12.71
 31
0.0
  0
LINE
  5
27C
  8
0
 62
1
 10
107.96
 20
12.71
 30
0.0
 11
114.3
 21
12.71
 31
0.0
  0
LINE
  5
27D
  8
0
 62
1
 10
114.3
 20
12.71
 30
0.0
 11
114.3
 21
25.41
 31
0.0
  0
LINE
  5
27E
  8
0
 62
1
 10
114.3
 20
25.41
 30
0.0
 11
107.96
 21
25.41
 31
0.0
  0
LINE
  5
27F
  8
0
 62
1
 10
107.96
 20
25.41
 30
0.0
 11
107.96
 21
38.1
 31
0.0
  0
LINE
  5
280
  8
0
 62
1
 10
107.96
 20
38.1
 30
0.0
 11
-114.3
 21
38.1
 31
0.0
  0
LINE
  5
281
  8
0
 62
1
 10
-114.3
 20
38.1
 30
0.0
 11
-114.3
 21
-38.1
 31
0.0
  0
LINE
  5
282
  8
0
 62
1
 10
-114.3
 20
-38.1
 30
0.0
 11
-88.9
 21
-38.1
 31
0.0
  0
LINE
  5
283
  8
0
 62
1
 10
-88.9
 20
-38.1
 30
0.0
 11
-88.9
 21
-31.76
 31
0.0
  0
LINE
  5
284
  8
0
 62
1
 10
-101.812
 20
22.0316
 30
0.0
 11
-102.023
 21
22.0516
 31
0.0
  0
LINE
  5
285
  8
0
 62
1
 10
-102.023
 20
22.0516
 30
0.0
 11
-102.232
 21
22.0848
 31
0.0
  0
LINE
  5
286
  8
0
 62
1
 10
-102.232
 20
22.0848
 30
0.0
 11
-102.439
 21
22.131
 31
0.0
  0
LINE
  5
287
  8
0
 62
1
 10
-102.439
 20
22.131
 30
0.0
 11
-102.643
 21
22.1902
 31
0.0
  0
LINE
  5
288
  8
0
 62
1
 10
-102.643
 20
22.1902
 30
0.0
 11
-102.842
 21
22.262
 31
0.0
  0
LINE
  5
289
  8
0
 62
1
 10
-102.842
 20
22.262
 30
0.0
 11
-103.037
 21
22.3462
 31
0.0
  0
LINE
  5
28A
  8
0
 62
1
 10
-103.037
 20
22.3462
 30
0.0
 11
-103.226
 21
22.4425
 31
0.0
  0
LINE
  5
28B
  8
0
 62
1
 10
-103.226
 20
22.4425
 30
0.0
 11
-103.408
 21
22.5504
 31
0.0
  0
LINE
  5
28C
  8
0
 62
1
 10
-103.408
 20
22.5504
 30
0.0
 11
-103.584
 21
22.6696
 31
0.0
  0
LINE
  5
28D
  8
0
 62
1
 10
-103.584
 20
22.6696
 30
0.0
 11
-103.751
 21
22.7995
 31
0.0
  0
LINE
  5
28E
  8
0
 62
1
 10
-103.751
 20
22.7995
 30
0.0
 11
-103.91
 21
22.9397
 31
0.0
  0
LINE
  5
28F
  8
0
 62
1
 10
-103.91
 20
22.9397
 30
0.0
 11
-104.06
 21
23.0896
 31
0.0
  0
LINE
  5
290
  8
0
 62
1
 10
-104.06
 20
23.0896
 30
0.0
 11
-104.2
 21
23.2487
 31
0.0
  0
LINE
  5
291
  8
0
 62
1
 10
-104.2
 20
23.2487
 30
0.0
 11
-104.33
 21
23.4162
 31
0.0
  0
LINE
  5
292
  8
0
 62
1
 10
-104.33
 20
23.4162
 30
0.0
 11
-104.45
 21
23.5916
 31
0.0
  0
LINE
  5
293
  8
0
 62
1
 10
-104.45
 20
23.5916
 30
0.0
 11
-104.558
 21
23.7741
 31
0.0
  0
LINE
  5
294
  8
0
 62
1
 10
-104.558
 20
23.7741
 30
0.0
 11
-104.654
 21
23.963
 31
0.0
  0
LINE
  5
295
  8
0
 62
1
 10
-104.654
 20
23.963
 30
0.0
 11
-104.738
 21
24.1576
 31
0.0
  0
LINE
  5
296
  8
0
 62
1
 10
-104.738
 20
24.1576
 30
0.0
 11
-104.81
 21
24.3571
 31
0.0
  0
LINE
  5
297
  8
0
 62
1
 10
-104.81
 20
24.3571
 30
0.0
 11
-104.869
 21
24.5607
 31
0.0
  0
LINE
  5
298
  8
0
 62
1
 10
-104.869
 20
24.5607
 30
0.0
 11
-104.915
 21
24.7676
 31
0.0
  0
LINE
  5
299
  8
0
 62
1
 10
-104.915
 20
24.7676
 30
0.0
 11
-104.948
 21
24.977
 31
0.0
  0
LINE
  5
29A
  8
0
 62
1
 10
-104.948
 20
24.977
 30
0.0
 11
-104.968
 21
25.1881
 31
0.0
  0
LINE
  5
29B
  8
0
 62
1
 10
-104.968
 20
25.1881
 30
0.0
 11
-104.975
 21
25.4
 31
0.0
  0
LINE
  5
29C
  8
0
 62
1
 10
-104.975
 20
25.4
 30
0.0
 11
-104.968
 21
25.6119
 31
0.0
  0
LINE
  5
29D
  8
0
 62
1
 10
-104.968
 20
25.6119
 30
0.0
 11
-104.948
 21
25.823
 31
0.0
  0
LINE
  5
29E
  8
0
 62
1
 10
-104.948
 20
25.823
 30
0.0
 11
-104.915
 21
26.0324
 31
0.0
  0
LINE
  5
29F
  8
0
 62
1
 10
-104.915
 20
26.0324
 30
0.0
 11
-104.869
 21
26.2393
 31
0.0
  0
LINE
  5
2A0
  8
0
 62
1
 10
-104.869
 20
26.2393
 30
0.0
 11
-104.81
 21
26.4429
 31
0.0
  0
LINE
  5
2A1
  8
0
 62
1
 10
-104.81
 20
26.4429
 30
0.0
 11
-104.738
 21
26.6424
 31
0.0
  0
LINE
  5
2A2
  8
0
 62
1
 10
-104.738
 20
26.6424
 30
0.0
 11
-104.654
 21
26.837
 31
0.0
  0
LINE
  5
2A3
  8
0
 62
1
 10
-104.654
 20
26.837
 30
0.0
 11
-104.558
 21
27.0259
 31
0.0
  0
LINE
  5
2A4
  8
0
 62
1
 10
-104.558
 20
27.0259
 30
0.0
 11
-104.45
 21
27.2084
 31
0.0
  0
LINE
  5
2A5
  8
0
 62
1
 10
-104.45
 20
27.2084
 30
0.0
 11
-104.33
 21
27.3838
 31
0.0
  0
LINE
  5
2A6
  8
0
 62
1
 10
-104.33
 20
27.3838
 30
0.0
 11
-104.2
 21
27.5513
 31
0.0
  0
LINE
  5
2A7
  8
0
 62
1
 10
-104.2
 20
27.5513
 30
0.0
 11
-104.06
 21
27.7103
 31
0.0
  0
LINE
  5
2A8
  8
0
 62
1
 10
-104.06
 20
27.7103
 30
0.0
 11
-103.91
 21
27.8603
 31
0.0
  0
LINE
  5
2A9
  8
0
 62
1
 10
-103.91
 20
27.8603
 30
0.0
 11
-103.751
 21
28.0005
 31
0.0
  0
LINE
  5
2AA
  8
0
 62
1
 10
-103.751
 20
28.0005
 30
0.0
 11
-103.584
 21
28.1304
 31
0.0
  0
LINE
  5
2AB
  8
0
 62
1
 10
-103.584
 20
28.1304
 30
0.0
 11
-103.408
 21
28.2496
 31
0.0
  0
LINE
  5
2AC
  8
0
 62
1
 10
-103.408
 20
28.2496
 30
0.0
 11
-103.226
 21
28.3575
 31
0.0
  0
LINE
  5
2AD
  8
0
 62
1
 10
-103.226
 20
28.3575
 30
0.0
 11
-103.037
 21
28.4538
 31
0.0
  0
LINE
  5
2AE
  8
0
 62
1
 10
-103.037
 20
28.4538
 30
0.0
 11
-102.842
 21
28.538
 31
0.0
  0
LINE
  5
2AF
  8
0
 62
1
 10
-102.842
 20
28.538
 30
0.0
 11
-102.643
 21
28.6098
 31
0.0
  0
LINE
  5
2B0
  8
0
 62
1
 10
-102.643
 20
28.6098
 30
0.0
 11
-102.439
 21
28.669
 31
0.0
  0
LINE
  5
2B1
  8
0
 62
1
 10
-102.439
 20
28.669
 30
0.0
 11
-102.232
 21
28.7152
 31
0.0
  0
LINE
  5
2B2
  8
0
 62
1
 10
-102.232
 20
28.7152
 30
0.0
 11
-102.023
 21
28.7484
 31
0.0
  0
LINE
  5
2B3
  8
0
 62
1
 10
-102.023
 20
28.7484
 30
0.0
 11
-101.812
 21
28.7683
 31
0.0
  0
LINE
  5
2B4
  8
0
 62
1
 10
-101.812
 20
28.7683
 30
0.0
 11
-101.6
 21
28.775
 31
0.0
  0
LINE
  5
2B5
  8
0
 62
1
 10
-101.6
 20
28.775
 30
0.0
 11
-101.388
 21
28.7683
 31
0.0
  0
LINE
  5
2B6
  8
0
 62
1
 10
-101.388
 20
28.7683
 30
0.0
 11
-101.177
 21
28.7484
 31
0.0
  0
LINE
  5
2B7
  8
0
 62
1
 10
-101.177
 20
28.7484
 30
0.0
 11
-100.968
 21
28.7152
 31
0.0
  0
LINE
  5
2B8
  8
0
 62
1
 10
-100.968
 20
28.7152
 30
0.0
 11
-100.761
 21
28.669
 31
0.0
  0
LINE
  5
2B9
  8
0
 62
1
 10
-100.761
 20
28.669
 30
0.0
 11
-100.557
 21
28.6098
 31
0.0
  0
LINE
  5
2BA
  8
0
 62
1
 10
-100.557
 20
28.6098
 30
0.0
 11
-100.358
 21
28.538
 31
0.0
  0
LINE
  5
2BB
  8
0
 62
1
 10
-100.358
 20
28.538
 30
0.0
 11
-100.163
 21
28.4538
 31
0.0
  0
LINE
  5
2BC
  8
0
 62
1
 10
-100.163
 20
28.4538
 30
0.0
 11
-99.9741
 21
28.3575
 31
0.0
  0
LINE
  5
2BD
  8
0
 62
1
 10
-99.9741
 20
28.3575
 30
0.0
 11
-99.7916
 21
28.2496
 31
0.0
  0
LINE
  5
2BE
  8
0
 62
1
 10
-99.7916
 20
28.2496
 30
0.0
 11
-99.6162
 21
28.1304
 31
0.0
  0
LINE
  5
2BF
  8
0
 62
1
 10
-99.6162
 20
28.1304
 30
0.0
 11
-99.4487
 21
28.0005
 31
0.0
  0
LINE
  5
2C0
  8
0
 62
1
 10
-99.4487
 20
28.0005
 30
0.0
 11
-99.2896
 21
27.8603
 31
0.0
  0
LINE
  5
2C1
  8
0
 62
1
 10
-99.2896
 20
27.8603
 30
0.0
 11
-99.1397
 21
27.7103
 31
0.0
  0
LINE
  5
2C2
  8
0
 62
1
 10
-99.1397
 20
27.7103
 30
0.0
 11
-98.9995
 21
27.5513
 31
0.0
  0
LINE
  5
2C3
  8
0
 62
1
 10
-98.9995
 20
27.5513
 30
0.0
 11
-98.8696
 21
27.3838
 31
0.0
  0
LINE
  5
2C4
  8
0
 62
1
 10
-98.8696
 20
27.3838
 30
0.0
 11
-98.7504
 21
27.2084
 31
0.0
  0
LINE
  5
2C5
  8
0
 62
1
 10
-98.7504
 20
27.2084
 30
0.0
 11
-98.6425
 21
27.0259
 31
0.0
  0
LINE
  5
2C6
  8
0
 62
1
 10
-98.6425
 20
27.0259
 30
0.0
 11
-98.5462
 21
26.837
 31
0.0
  0
LINE
  5
2C7
  8
0
 62
1
 10
-98.5462
 20
26.837
 30
0.0
 11
-98.462
 21
26.6424
 31
0.0
  0
LINE
  5
2C8
  8
0
 62
1
 10
-98.462
 20
26.6424
 30
0.0
 11
-98.3902
 21
26.4429
 31
0.0
  0
LINE
  5
2C9
  8
0
 62
1
 10
-98.3902
 20
26.4429
 30
0.0
 11
-98.331
 21
26.2393
 31
0.0
  0
LINE
  5
2CA
  8
0
 62
1
 10
-98.331
 20
26.2393
 30
0.0
 11
-98.2848
 21
26.0324
 31
0.0
  0
LINE
  5
2CB
  8
0
 62
1
 10
-98.2848
 20
26.0324
 30
0.0
 11
-98.2516
 21
25.823
 31
0.0
  0
LINE
  5
2CC
  8
0
 62
1
 10
-98.2516
 20
25.823
 30
0.0
 11
-98.2317
 21
25.6119
 31
0.0
  0
LINE
  5
2CD
  8
0
 62
1
 10
-98.2317
 20
25.6119
 30
0.0
 11
-98.225
 21
25.4
 31
0.0
  0
LINE
  5
2CE
  8
0
 62
1
 10
-98.225
 20
25.4
 30
0.0
 11
-98.2317
 21
25.1881
 31
0.0
  0
LINE
  5
2CF
  8
0
 62
1
 10
-98.2317
 20
25.1881
 30
0.0
 11
-98.2516
 21
24.977
 31
0.0
  0
LINE
  5
2D0
  8
0
 62
1
 10
-98.2516
 20
24.977
 30
0.0
 11
-98.2848
 21
24.7676
 31
0.0
  0
LINE
  5
2D1
  8
0
 62
1
 10
-98.2848
 20
24.7676
 30
0.0
 11
-98.331
 21
24.5607
 31
0.0
  0
LINE
  5
2D2
  8
0
 62
1
 10
-98.331
 20
24.5607
 30
0.0
 11
-98.3902
 21
24.3571
 31
0.0
  0
LINE
  5
2D3
  8
0
 62
1
 10
-98.3902
 20
24.3571
 30
0.0
 11
-98.462
 21
24.1576
 31
0.0
  0
LINE
  5
2D4
  8
0
 62
1
 10
-98.462
 20
24.1576
 30
0.0
 11
-98.5462
 21
23.963
 31
0.0
  0
LINE
  5
2D5
  8
0
 62
1
 10
-98.5462
 20
23.963
 30
0.0
 11
-98.6425
 21
23.7741
 31
0.0
  0
LINE
  5
2D6
  8
0
 62
1
 10
-98.6425
 20
23.7741
 30
0.0
 11
-98.7504
 21
23.5916
 31
0.0
  0
LINE
  5
2D7
  8
0
 62
1
 10
-98.7504
 20
23.5916
 30
0.0
 11
-98.8696
 21
23.4162
 31
0.0
  0
LINE
  5
2D8
  8
0
 62
1
 10
-98.8696
 20
23.4162
 30
0.0
 11
-98.9995
 21
23.2487
 31
0.0
  0
LINE
  5
2D9
  8
0
 62
1
 10
-98.9995
 20
23.2487
 30
0.0
 11
-99.1397
 21
23.0896
 31
0.0
  0
LINE
  5
2DA
  8
0
 62
1
 10
-99.1397
 20
23.0896
 30
0.0
 11
-99.2896
 21
22.9397
 31
0.0
  0
LINE
  5
2DB
  8
0
 62
1
 10
-99.2896
 20
22.9397
 30
0.0
 11
-99.4487
 21
22.7995
 31
0.0
  0
LINE
  5
2DC
  8
0
 62
1
 10
-99.4487
 20
22.7995
 30
0.0
 11
-99.6162
 21
22.6696
 31
0.0
  0
LINE
  5
2DD
  8
0
 62
1
 10
-99.6162
 20
22.6696
 30
0.0
 11
-99.7916
 21
22.5504
 31
0.0
  0
LINE
  5
2DE
  8
0
 62
1
 10
-99.7916
 20
22.5504
 30
0.0
 11
-99.9741
 21
22.4425
 31
0.0
  0
LINE
  5
2DF
  8
0
 62
1
 10
-99.9741
 20
22.4425
 30
0.0
 11
-100.163
 21
22.3462
 31
0.0
  0
LINE
  5
2E0
  8
0
 62
1
 10
-100.163
 20
22.3462
 30
0.0
 11
-100.358
 21
22.262
 31
0.0
  0
LINE
  5
2E1
  8
0
 62
1
 10
-100.358
 20
22.262
 30
0.0
 11
-100.557
 21
22.1902
 31
0.0
  0
LINE
  5
2E2
  8
0
 62
1
 10
-100.557
 20
22.1902
 30
0.0
 11
-100.761
 21
22.131
 31
0.0
  0
LINE
  5
2E3
  8
0
 62
1
 10
-100.761
 20
22.131
 30
0.0
 11
-100.968
 21
22.0848
 31
0.0
  0
LINE
  5
2E4
  8
0
 62
1
 10
-100.968
 20
22.0848
 30
0.0
 11
-101.177
 21
22.0516
 31
0.0
  0
LINE
  5
2E5
  8
0
 62
1
 10
-101.177
 20
22.0516
 30
0.0
 11
-101.388
 21
22.0316
 31
0.0
  0
LINE
  5
2E6
  8
0
 62
1
 10
-101.388
 20
22.0316
 30
0.0
 11
-101.6
 21
22.025
 31
0.0
  0
LINE
  5
2E7
  8
0
 62
1
 10
-101.6
 20
22.025
 30
0.0
 11
-101.812
 21
22.0316
 31
0.0
  0
LINE
  5
2E8
  8
0
 62
1
 10
-101.812
 20
-28.7683
 30
0.0
 11
-102.023
 21
-28.7484
 31
0.0
  0
LINE
  5
2E9
  8
0
 62
1
 10
-102.023
 20
-28.7484
 30
0.0
 11
-102.232
 21
-28.7152
 31
0.0
  0
LINE
  5
2EA
  8
0
 62
1
 10
-102.232
 20
-28.7152
 30
0.0
 11
-102.439
 21
-28.669
 31
0.0
  0
LINE
  5
2EB
  8
0
 62
1
 10
-102.439
 20
-28.669
 30
0.0
 11
-102.643
 21
-28.6098
 31
0.0
  0
LINE
  5
2EC
  8
0
 62
1
 10
-102.643
 20
-28.6098
 30
0.0
 11
-102.842
 21
-28.538
 31
0.0
  0
LINE
  5
2ED
  8
0
 62
1
 10
-102.842
 20
-28.538
 30
0.0
 11
-103.037
 21
-28.4538
 31
0.0
  0
LINE
  5
2EE
  8
0
 62
1
 10
-103.037
 20
-28.4538
 30
0.0
 11
-103.226
 21
-28.3575
 31
0.0
  0
LINE
  5
2EF
  8
0
 62
1
 10
-103.226
 20
-28.3575
 30
0.0
 11
-103.408
 21
-28.2496
 31
0.0
  0
LINE
  5
2F0
  8
0
 62
1
 10
-103.408
 20
-28.2496
 30
0.0
 11
-103.584
 21
-28.1304
 31
0.0
  0
LINE
  5
2F1
  8
0
 62
1
 10
-103.584
 20
-28.1304
 30
0.0
 11
-103.751
 21
-28.0005
 31
0.0
  0
LINE
  5
2F2
  8
0
 62
1
 10
-103.751
 20
-28.0005
 30
0.0
 11
-103.91
 21
-27.8603
 31
0.0
  0
LINE
  5
2F3
  8
0
 62
1
 10
-103.91
 20
-27.8603
 30
0.0
 11
-104.06
 21
-27.7103
 31
0.0
  0
LINE
  5
2F4
  8
0
 62
1
 10
-104.06
 20
-27.7103
 30
0.0
 11
-104.2
 21
-27.5513
 31
0.0
  0
LINE
  5
2F5
  8
0
 62
1
 10
-104.2
 20
-27.5513
 30
0.0
 11
-104.33
 21
-27.3838
 31
0.0
  0
LINE
  5
2F6
  8
0
 62
1
 10
-104.33
 20
-27.3838
 30
0.0
 11
-104.45
 21
-27.2084
 31
0.0
  0
LINE
  5
2F7
  8
0
 62
1
 10
-104.45
 20
-27.2084
 30
0.0
 11
-104.558
 21
-27.0259
 31
0.0
  0
LINE
  5
2F8
  8
0
 62
1
 10
-104.558
 20
-27.0259
 30
0.0
 11
-104.654
 21
-26.837
 31
0.0
  0
LINE
  5
2F9
  8
0
 62
1
 10
-104.654
 20
-26.837
 30
0.0
 11
-104.738
 21
-26.6424
 31
0.0
  0
LINE
  5
2FA
  8
0
 62
1
 10
-104.738
 20
-26.6424
 30
0.0
 11
-104.81
 21
-26.4429
 31
0.0
  0
LINE
  5
2FB
  8
0
 62
1
 10
-104.81
 20
-26.4429
 30
0.0
 11
-104.869
 21
-26.2393
 31
0.0
  0
LINE
  5
2FC
  8
0
 62
1
 10
-104.869
 20
-26.2393
 30
0.0
 11
-104.915
 21
-26.0324
 31
0.0
  0
LINE
  5
2FD
  8
0
 62
1
 10
-104.915
 20
-26.0324
 30
0.0
 11
-104.948
 21
-25.823
 31
0.0
  0
LINE
  5
2FE
  8
0
 62
1
 10
-104.948
 20
-25.823
 30
0.0
 11
-104.968
 21
-25.6119
 31
0.0
  0
LINE
  5
2FF
  8
0
 62
1
 10
-104.968
 20
-25.6119
 30
0.0
 11
-104.975
 21
-25.4
 31
0.0
  0
LINE
  5
300
  8
0
 62
1
 10
-104.975
 20
-25.4
 30
0.0
 11
-104.968
 21
-25.1881
 31
0.0
  0
LINE
  5
301
  8
0
 62
1
 10
-104.968
 20
-25.1881
 30
0.0
 11
-104.948
 21
-24.977
 31
0.0
  0
LINE
  5
302
  8
0
 62
1
 10
-104.948
 20
-24.977
 30
0.0
 11
-104.915
 21
-24.7676
 31
0.0
  0
LINE
  5
303
  8
0
 62
1
 10
-104.915
 20
-24.7676
 30
0.0
 11
-104.869
 21
-24.5607
 31
0.0
  0
LINE
  5
304
  8
0
 62
1
 10
-104.869
 20
-24.5607
 30
0.0
 11
-104.81
 21
-24.3571
 31
0.0
  0
LINE
  5
305
  8
0
 62
1
 10
-104.81
 20
-24.3571
 30
0.0
 11
-104.738
 21
-24.1576
 31
0.0
  0
LINE
  5
306
  8
0
 62
1
 10
-104.738
 20
-24.1576
 30
0.0
 11
-104.654
 21
-23.963
 31
0.0
  0
LINE
  5
307
  8
0
 62
1
 10
-104.654
 20
-23.963
 30
0.0
 11
-104.558
 21
-23.7741
 31
0.0
  0
LINE
  5
308
  8
0
 62
1
 10
-104.558
 20
-23.7741
 30
0.0
 11
-104.45
 21
-23.5916
 31
0.0
  0
LINE
  5
309
  8
0
 62
1
 10
-104.45
 20
-23.5916
 30
0.0
 11
-104.33
 21
-23.4162
 31
0.0
  0
LINE
  5
30A
  8
0
 62
1
 10
-104.33
 20
-23.4162
 30
0.0
 11
-104.2
 21
-23.2487
 31
0.0
  0
LINE
  5
30B
  8
0
 62
1
 10
-104.2
 20
-23.2487
 30
0.0
 11
-104.06
 21
-23.0896
 31
0.0
  0
LINE
  5
30C
  8
0
 62
1
 10
-104.06
 20
-23.0896
 30
0.0
 11
-103.91
 21
-22.9397
 31
0.0
  0
LINE
  5
30D
  8
0
 62
1
 10
-103.91
 20
-22.9397
 30
0.0
 11
-103.751
 21
-22.7995
 31
0.0
  0
LINE
  5
30E
  8
0
 62
1
 10
-103.751
 20
-22.7995
 30
0.0
 11
-103.584
 21
-22.6696
 31
0.0
  0
LINE
  5
30F
  8
0
 62
1
 10
-103.584
 20
-22.6696
 30
0.0
 11
-103.408
 21
-22.5504
 31
0.0
  0
LINE
  5
310
  8
0
 62
1
 10
-103.408
 20
-22.5504
 30
0.0
 11
-103.226
 21
-22.4425
 31
0.0
  0
LINE
  5
311
  8
0
 62
1
 10
-103.226
 20
-22.4425
 30
0.0
 11
-103.037
 21
-22.3462
 31
0.0
  0
LINE
  5
312
  8
0
 62
1
 10
-103.037
 20
-22.3462
 30
0.0
 11
-102.842
 21
-22.262
 31
0.0
  0
LINE
  5
313
  8
0
 62
1
 10
-102.842
 20
-22.262
 30
0.0
 11
-102.643
 21
-22.1902
 31
0.0
  0
LINE
  5
314
  8
0
 62
1
 10
-102.643
 20
-22.1902
 30
0.0
 11
-102.439
 21
-22.131
 31
0.0
  0
LINE
  5
315
  8
0
 62
1
 10
-102.439
 20
-22.131
 30
0.0
 11
-102.232
 21
-22.0848
 31
0.0
  0
LINE
  5
316
  8
0
 62
1
 10
-102.232
 20
-22.0848
 30
0.0
 11
-102.023
 21
-22.0516
 31
0.0
  0
LINE
  5
317
  8
0
 62
1
 10
-102.023
 20
-22.0516
 30
0.0
 11
-101.812
 21
-22.0316
 31
0.0
  0
LINE
  5
318
  8
0
 62
1
 10
-101.812
 20
-22.0316
 30
0.0
 11
-101.6
 21
-22.025
 31
0.0
  0
LINE
  5
319
  8
0
 62
1
 10
-101.6
 20
-22.025
 30
0.0
 11
-101.388
 21
-22.0316
 31
0.0
  0
LINE
  5
31A
  8
0
 62
1
 10
-101.388
 20
-22.0316
 30
0.0
 11
-101.177
 21
-22.0516
 31
0.0
  0
LINE
  5
31B
  8
0
 62
1
 10
-101.177
 20
-22.0516
 30
0.0
 11
-100.968
 21
-22.0848
 31
0.0
  0
LINE
  5
31C
  8
0
 62
1
 10
-100.968
 20
-22.0848
 30
0.0
 11
-100.761
 21
-22.131
 31
0.0
  0
LINE
  5
31D
  8
0
 62
1
 10
-100.761
 20
-22.131
 30
0.0
 11
-100.557
 21
-22.1902
 31
0.0
  0
LINE
  5
31E
  8
0
 62
1
 10
-100.557
 20
-22.1902
 30
0.0
 11
-100.358
 21
-22.262
 31
0.0
  0
LINE
  5
31F
  8
0
 62
1
 10
-100.358
 20
-22.262
 30
0.0
 11
-100.163
 21
-22.3462
 31
0.0
  0
LINE
  5
320
  8
0
 62
1
 10
-100.163
 20
-22.3462
 30
0.0
 11
-99.9741
 21
-22.4425
 31
0.0
  0
LINE
  5
321
  8
0
 62
1
 10
-99.9741
 20
-22.4425
 30
0.0
 11
-99.7916
 21
-22.5504
 31
0.0
  0
LINE
  5
322
  8
0
 62
1
 10
-99.7916
 20
-22.5504
 30
0.0
 11
-99.6162
 21
-22.6696
 31
0.0
  0
LINE
  5
323
  8
0
 62
1
 10
-99.6162
 20
-22.6696
 30
0.0
 11
-99.4487
 21
-22.7995
 31
0.0
  0
LINE
  5
324
  8
0
 62
1
 10
-99.4487
 20
-22.7995
 30
0.0
 11
-99.2896
 21
-22.9397
 31
0.0
  0
LINE
  5
325
  8
0
 62
1
 10
-99.2896
 20
-22.9397
 30
0.0
 11
-99.1397
 21
-23.0896
 31
0.0
  0
LINE
  5
326
  8
0
 62
1
 10
-99.1397
 20
-23.0896
 30
0.0
 11
-98.9995
 21
-23.2487
 31
0.0
  0
LINE
  5
327
  8
0
 62
1
 10
-98.9995
 20
-23.2487
 30
0.0
 11
-98.8696
 21
-23.4162
 31
0.0
  0
LINE
  5
328
  8
0
 62
1
 10
-98.8696
 20
-23.4162
 30
0.0
 11
-98.7504
 21
-23.5916
 31
0.0
  0
LINE
  5
329
  8
0
 62
1
 10
-98.7504
 20
-23.5916
 30
0.0
 11
-98.6425
 21
-23.7741
 31
0.0
  0
LINE
  5
32A
  8
0
 62
1
 10
-98.6425
 20
-23.7741
 30
0.0
 11
-98.5462
 21
-23.963
 31
0.0
  0
LINE
  5
32B
  8
0
 62
1
 10
-98.5462
 20
-23.963
 30
0.0
 11
-98.462
 21
-24.1576
 31
0.0
  0
LINE
  5
32C
  8
0
 62
1
 10
-98.462
 20
-24.1576
 30
0.0
 11
-98.3902
 21
-24.3571
 31
0.0
  0
LINE
  5
32D
  8
0
 62
1
 10
-98.3902
 20
-24.3571
 30
0.0
 11
-98.331
 21
-24.5607
 31
0.0
  0
LINE
  5
32E
  8
0
 62
1
 10
-98.331
 20
-24.5607
 30
0.0
 11
-98.2848
 21
-24.7676
 31
0.0
  0
LINE
  5
32F
  8
0
 62
1
 10
-98.2848
 20
-24.7676
 30
0.0
 11
-98.2516
 21
-24.977
 31
0.0
  0
LINE
  5
330
  8
0
 62
1
 10
-98.2516
 20
-24.977
 30
0.0
 11
-98.2317
 21
-25.1881
 31
0.0
  0
LINE
  5
331
  8
0
 62
1
 10
-98.2317
 20
-25.1881
 30
0.0
 11
-98.225
 21
-25.4
 31
0.0
  0
LINE
  5
332
  8
0
 62
1
 10
-98.225
 20
-25.4
 30
0.0
 11
-98.2317
 21
-25.6119
 31
0.0
  0
LINE
  5
333
  8
0
 62
1
 10
-98.2317
 20
-25.6119
 30
0.0
 11
-98.2516
 21
-25.823
 31
0.0
  0
LINE
  5
334
  8
0
 62
1
 10
-98.2516
 20
-25.823
 30
0.0
 11
-98.2848
 21
-26.0324
 31
0.0
  0
LINE
  5
335
  8
0
 62
1
 10
-98.2848
 20
-26.0324
 30
0.0
 11
-98.331
 21
-26.2393
 31
0.0
  0
LINE
  5
336
  8
0
 62
1
 10
-98.331
 20
-26.2393
 30
0.0
 11
-98.3902
 21
-26.4429
 31
0.0
  0
LINE
  5
337
  8
0
 62
1
 10
-98.3902
 20
-26.4429
 30
0.0
 11
-98.462
 21
-26.6424
 31
0.0
  0
LINE
  5
338
  8
0
 62
1
 10
-98.462
 20
-26.6424
 30
0.0
 11
-98.5462
 21
-26.837
 31
0.0
  0
LINE
  5
339
  8
0
 62
1
 10
-98.5462
 20
-26.837
 30
0.0
 11
-98.6425
 21
-27.0259
 31
0.0
  0
LINE
  5
33A
  8
0
 62
1
 10
-98.6425
 20
-27.0259
 30
0.0
 11
-98.7504
 21
-27.2084
 31
0.0
  0
LINE
  5
33B
  8
0
 62
1
 10
-98.7504
 20
-27.2084
 30
0.0
 11
-98.8696
 21
-27.3838
 31
0.0
  0
LINE
  5
33C
  8
0
 62
1
 10
-98.8696
 20
-27.3838
 30
0.0
 11
-98.9995
 21
-27.5513
 31
0.0
  0
LINE
  5
33D
  8
0
 62
1
 10
-98.9995
 20
-27.5513
 30
0.0
 11
-99.1397
 21
-27.7103
 31
0.0
  0
LINE
  5
33E
  8
0
 62
1
 10
-99.1397
 20
-27.7103
 30
0.0
 11
-99.2896
 21
-27.8603
 31
0.0
  0
LINE
  5
33F
  8
0
 62
1
 10
-99.2896
 20
-27.8603
 30
0.0
 11
-99.4487
 21
-28.0005
 31
0.0
  0
LINE
  5
340
  8
0
 62
1
 10
-99.4487
 20
-28.0005
 30
0.0
 11
-99.6162
 21
-28.1304
 31
0.0
  0
LINE
  5
341
  8
0
 62
1
 10
-99.6162
 20
-28.1304
 30
0.0
 11
-99.7916
 21
-28.2496
 31
0.0
  0
LINE
  5
342
  8
0
 62
1
 10
-99.7916
 20
-28.2496
 30
0.0
 11
-99.9741
 21
-28.3575
 31
0.0
  0
LINE
  5
343
  8
0
 62
1
 10
-99.9741
 20
-28.3575
 30
0.0
 11
-100.163
 21
-28.4538
 31
0.0
  0
LINE
  5
344
  8
0
 62
1
 10
-100.163
 20
-28.4538
 30
0.0
 11
-100.358
 21
-28.538
 31
0.0
  0
LINE
  5
345
  8
0
 62
1
 10
-100.358
 20
-28.538
 30
0.0
 11
-100.557
 21
-28.6098
 31
0.0
  0
LINE
  5
346
  8
0
 62
1
 10
-100.557
 20
-28.6098
 30
0.0
 11
-100.761
 21
-28.669
 31
0.0
  0
LINE
  5
347
  8
0
 62
1
 10
-100.761
 20
-28.669
 30
0.0
 11
-100.968
 21
-28.7152
 31
0.0
  0
LINE
  5
348
  8
0
 62
1
 10
-100.968
 20
-28.7152
 30
0.0
 11
-101.177
 21
-28.7484
 31
0.0
  0
LINE
  5
349
  8
0
 62
1
 10
-101.177
 20
-28.7484
 30
0.0
 11
-101.388
 21
-28.7683
 31
0.0
  0
LINE
  5
34A
  8
0
 62
1
 10
-101.388
 20
-28.7683
 30
0.0
 11
-101.6
 21
-28.775
 31
0.0
  0
LINE
  5
34B
  8
0
 62
1
 10
-101.6
 20
-28.775
 30
0.0
 11
-101.812
 21
-28.7683
 31
0.0
  0
LINE
  5
34C
  8
0
 62
1
 10
114.3
 20
-101.59
 30
0.0
 11
107.96
 21
-101.59
 31
0.0
  0
LINE
  5
34D
  8
0
 62
1
 10
107.96
 20
-101.59
 30
0.0
 11
107.96
 21
-88.89
 31
0.0
  0
LINE
  5
34E
  8
0
 62
1
 10
107.96
 20
-88.89
 30
0.0
 11
114.3
 21
-88.89
 31
0.0
  0
LINE
  5
34F
  8
0
 62
1
 10
114.3
 20
-88.89
 30
0.0
 11
114.3
 21
-76.19
 31
0.0
  0
LINE
  5
350
  8
0
 62
1
 10
114.3
 20
-76.19
 30
0.0
 11
107.96
 21
-76.19
 31
0.0
  0
LINE
  5
351
  8
0
 62
1
 10
107.96
 20
-76.19
 30
0.0
 11
107.96
 21
-63.49
 31
0.0
  0
LINE
  5
352
  8
0
 62
1
 10
107.96
 20
-63.49
 30
0.0
 11
114.3
 21
-63.49
 31
0.0
  0
LINE
  5
353
  8
0
 62
1
 10
114.3
 20
-63.49
 30
0.0
 11
114.3
 21
-50.79
 31
0.0
  0
LINE
  5
354
  8
0
 62
1
 10
114.3
 20
-50.79
 30
0.0
 11
107.96
 21
-50.79
 31
0.0
  0
LINE
  5
355
  8
0
 62
1
 10
107.96
 20
-50.79
 30
0.0
 11
107.96
 21
-44.44
 31
0.0
  0
LINE
  5
356
  8
0
 62
1
 10
107.96
 20
-44.44
 30
0.0
 11
101.6
 21
-44.44
 31
0.0
  0
LINE
  5
357
  8
0
 62
1
 10
101.6
 20
-44.44
 30
0.0
 11
101.6
 21
-38.1
 31
0.0
  0
LINE
  5
358
  8
0
 62
1
 10
101.6
 20
-38.1
 30
0.0
 11
88.9
 21
-38.1
 31
0.0
  0
LINE
  5
359
  8
0
 62
1
 10
88.9
 20
-38.1
 30
0.0
 11
88.9
 21
-44.44
 31
0.0
  0
LINE
  5
35A
  8
0
 62
1
 10
88.9
 20
-44.44
 30
0.0
 11
76.2
 21
-44.44
 31
0.0
  0
LINE
  5
35B
  8
0
 62
1
 10
76.2
 20
-44.44
 30
0.0
 11
76.2
 21
-38.1
 31
0.0
  0
LINE
  5
35C
  8
0
 62
1
 10
76.2
 20
-38.1
 30
0.0
 11
63.5
 21
-38.1
 31
0.0
  0
LINE
  5
35D
  8
0
 62
1
 10
63.5
 20
-38.1
 30
0.0
 11
63.5
 21
-44.44
 31
0.0
  0
LINE
  5
35E
  8
0
 62
1
 10
63.5
 20
-44.44
 30
0.0
 11
50.8
 21
-44.44
 31
0.0
  0
LINE
  5
35F
  8
0
 62
1
 10
50.8
 20
-44.44
 30
0.0
 11
50.8
 21
-38.1
 31
0.0
  0
LINE
  5
360
  8
0
 62
1
 10
50.8
 20
-38.1
 30
0.0
 11
38.1
 21
-38.1
 31
0.0
  0
LINE
  5
361
  8
0
 62
1
 10
38.1
 20
-38.1
 30
0.0
 11
38.1
 21
-44.44
 31
0.0
  0
LINE
  5
362
  8
0
 62
1
 10
38.1
 20
-44.44
 30
0.0
 11
25.4
 21
-44.44
 31
0.0
  0
LINE
  5
363
  8
0
 62
1
 10
25.4
 20
-44.44
 30
0.0
 11
25.4
 21
-38.1
 31
0.0
  0
LINE
  5
364
  8
0
 62
1
 10
25.4
 20
-38.1
 30
0.0
 11
12.7
 21
-38.1
 31
0.0
  0
LINE
  5
365
  8
0
 62
1
 10
12.7
 20
-38.1
 30
0.0
 11
12.7
 21
-44.44
 31
0.0
  0
LINE
  5
366
  8
0
 62
1
 10
12.7
 20
-44.44
 30
0.0
 11
0.0
 21
-44.44
 31
0.0
  0
LINE
  5
367
  8
0
 62
1
 10
0.0
 20
-44.44
 30
0.0
 11
0.0
 21
-38.1
 31
0.0
  0
LINE
  5
368
  8
0
 62
1
 10
0.0
 20
-38.1
 30
0.0
 11
-12.7
 21
-38.1
 31
0.0
  0
LINE
  5
369
  8
0
 62
1
 10
-12.7
 20
-38.1
 30
0.0
 11
-12.7
 21
-44.44
 31
0.0
  0
LINE
  5
36A
  8
0
 62
1
 10
-12.7
 20
-44.44
 30
0.0
 11
-25.4
 21
-44.44
 31
0.0
  0
LINE
  5
36B
  8
0
 62
1
 10
-25.4
 20
-44.44
 30
0.0
 11
-25.4
 21
-38.1
 31
0.0
  0
LINE
  5
36C
  8
0
 62
1
 10
-25.4
 20
-38.1
 30
0.0
 11
-38.1
 21
-38.1
 31
0.0
  0
LINE
  5
36D
  8
0
 62
1
 10
-38.1
 20
-38.1
 30
0.0
 11
-38.1
 21
-44.44
 31
0.0
  0
LINE
  5
36E
  8
0
 62
1
 10
-38.1
 20
-44.44
 30
0.0
 11
-50.8
 21
-44.44
 31
0.0
  0
LINE
  5
36F
  8
0
 62
1
 10
-50.8
 20
-44.44
 30
0.0
 11
-50.8
 21
-38.1
 31
0.0
  0
LINE
  5
370
  8
0
 62
1
 10
-50.8
 20
-38.1
 30
0.0
 11
-63.5
 21
-38.1
 31
0.0
  0
LINE
  5
371
  8
0
 62
1
 10
-63.5
 20
-38.1
 30
0.0
 11
-63.5
 21
-44.44
 31
0.0
  0
LINE
  5
372
  8
0
 62
1
 10
-63.5
 20
-44.44
 30
0.0
 11
-76.2
 21
-44.44
 31
0.0
  0
LINE
  5
373
  8
0
 62
1
 10
-76.2
 20
-44.44
 30
0.0
 11
-76.2
 21
-38.1
 31
0.0
  0
LINE
  5
374
  8
0
 62
1
 10
-76.2
 20
-38.1
 30
0.0
 11
-88.9
 21
-38.1
 31
0.0
  0
LINE
  5
375
  8
0
 62
1
 10
-88.9
 20
-38.1
 30
0.0
 11
-88.9
 21
-114.3
 31
0.0
  0
LINE
  5
376
  8
0
 62
1
 10
-88.9
 20
-114.3
 30
0.0
 11
114.3
 21
-114.3
 31
0.0
  0
LINE
  5
377
  8
0
 62
1
 10
114.3
 20
-114.3
 30
0.0
 11
114.3
 21
-101.59
 31
0.0
  0
ENDSEC
  0
EOF
