  0
SECTION
  2
BLOCKS
  0
ENDSEC
  0
SECTION
  2
ENTITIES
  0
LINE
  8
0
 10
-76.2
 20
125.72
 11
-63.5
 21
125.72
  0
LINE
  8
0
 10
-63.5
 20
125.72
 11
-63.5
 21
119.38
  0
LINE
  8
0
 10
-63.5
 20
119.38
 11
-50.8
 21
119.38
  0
LINE
  8
0
 10
-50.8
 20
119.38
 11
-50.8
 21
125.72
  0
LINE
  8
0
 10
-50.8
 20
125.72
 11
-38.1
 21
125.72
  0
LINE
  8
0
 10
-38.1
 20
125.72
 11
-38.1
 21
119.38
  0
LINE
  8
0
 10
-38.1
 20
119.38
 11
-25.4
 21
119.38
  0
LINE
  8
0
 10
-25.4
 20
119.38
 11
-25.4
 21
125.72
  0
LINE
  8
0
 10
-25.4
 20
125.72
 11
-12.7
 21
125.72
  0
LINE
  8
0
 10
-12.7
 20
125.72
 11
-12.7
 21
119.38
  0
LINE
  8
0
 10
-12.7
 20
119.38
 11
0
 21
119.38
  0
LINE
  8
0
 10
0
 20
119.38
 11
0
 21
125.72
  0
LINE
  8
0
 10
0
 20
125.72
 11
12.7
 21
125.72
  0
LINE
  8
0
 10
12.7
 20
125.72
 11
12.7
 21
119.38
  0
LINE
  8
0
 10
12.7
 20
119.38
 11
25.4
 21
119.38
  0
LINE
  8
0
 10
25.4
 20
119.38
 11
25.4
 21
125.72
  0
LINE
  8
0
 10
25.4
 20
125.72
 11
38.1
 21
125.72
  0
LINE
  8
0
 10
38.1
 20
125.72
 11
38.1
 21
119.38
  0
LINE
  8
0
 10
38.1
 20
119.38
 11
50.8
 21
119.38
  0
LINE
  8
0
 10
50.8
 20
119.38
 11
50.8
 21
125.72
  0
LINE
  8
0
 10
50.8
 20
125.72
 11
63.5
 21
125.72
  0
LINE
  8
0
 10
63.5
 20
125.72
 11
63.5
 21
119.38
  0
LINE
  8
0
 10
63.5
 20
119.38
 11
76.2
 21
119.38
  0
LINE
  8
0
 10
76.2
 20
119.38
 11
76.2
 21
125.72
  0
LINE
  8
0
 10
76.2
 20
125.72
 11
88.9
 21
125.72
  0
LINE
  8
0
 10
88.9
 20
125.72
 11
88.9
 21
119.38
  0
LINE
  8
0
 10
88.9
 20
119.38
 11
101.6
 21
119.38
  0
LINE
  8
0
 10
101.6
 20
119.38
 11
101.6
 21
125.72
  0
LINE
  8
0
 10
101.6
 20
125.72
 11
114.3
 21
125.72
  0
LINE
  8
0
 10
114.3
 20
125.72
 11
114.3
 21
132.09
  0
LINE
  8
0
 10
114.3
 20
132.09
 11
107.96
 21
132.09
  0
LINE
  8
0
 10
107.96
 20
132.09
 11
107.96
 21
144.79
  0
LINE
  8
0
 10
107.96
 20
144.79
 11
114.3
 21
144.79
  0
LINE
  8
0
 10
114.3
 20
144.79
 11
114.3
 21
157.49
  0
LINE
  8
0
 10
114.3
 20
157.49
 11
107.96
 21
157.49
  0
LINE
  8
0
 10
107.96
 20
157.49
 11
107.96
 21
170.19
  0
LINE
  8
0
 10
107.96
 20
170.19
 11
114.3
 21
170.19
  0
LINE
  8
0
 10
114.3
 20
170.19
 11
114.3
 21
182.89
  0
LINE
  8
0
 10
114.3
 20
182.89
 11
107.96
 21
182.89
  0
LINE
  8
0
 10
107.96
 20
182.89
 11
107.96
 21
195.58
  0
LINE
  8
0
 10
107.96
 20
195.58
 11
-88.9
 21
195.58
  0
LINE
  8
0
 10
-88.9
 20
195.58
 11
-88.9
 21
119.38
  0
LINE
  8
0
 10
-88.9
 20
119.38
 11
-76.2
 21
119.38
  0
LINE
  8
0
 10
-76.2
 20
119.38
 11
-76.2
 21
125.72
  0
LINE
  8
0
 10
114.3
 20
55.89
 11
107.96
 21
55.89
  0
LINE
  8
0
 10
107.96
 20
55.89
 11
107.96
 21
68.59
  0
LINE
  8
0
 10
107.96
 20
68.59
 11
114.3
 21
68.59
  0
LINE
  8
0
 10
114.3
 20
68.59
 11
114.3
 21
81.29
  0
LINE
  8
0
 10
114.3
 20
81.29
 11
107.96
 21
81.29
  0
LINE
  8
0
 10
107.96
 20
81.29
 11
107.96
 21
93.99
  0
LINE
  8
0
 10
107.96
 20
93.99
 11
114.3
 21
93.99
  0
LINE
  8
0
 10
114.3
 20
93.99
 11
114.3
 21
106.69
  0
LINE
  8
0
 10
114.3
 20
106.69
 11
107.96
 21
106.69
  0
LINE
  8
0
 10
107.96
 20
106.69
 11
107.96
 21
119.38
  0
LINE
  8
0
 10
107.96
 20
119.38
 11
101.6
 21
119.38
  0
LINE
  8
0
 10
101.6
 20
119.38
 11
101.6
 21
113.04
  0
LINE
  8
0
 10
101.6
 20
113.04
 11
88.9
 21
113.04
  0
LINE
  8
0
 10
88.9
 20
113.04
 11
88.9
 21
119.38
  0
LINE
  8
0
 10
88.9
 20
119.38
 11
76.2
 21
119.38
  0
LINE
  8
0
 10
76.2
 20
119.38
 11
76.2
 21
113.04
  0
LINE
  8
0
 10
76.2
 20
113.04
 11
63.5
 21
113.04
  0
LINE
  8
0
 10
63.5
 20
113.04
 11
63.5
 21
119.38
  0
LINE
  8
0
 10
63.5
 20
119.38
 11
50.8
 21
119.38
  0
LINE
  8
0
 10
50.8
 20
119.38
 11
50.8
 21
113.04
  0
LINE
  8
0
 10
50.8
 20
113.04
 11
38.1
 21
113.04
  0
LINE
  8
0
 10
38.1
 20
113.04
 11
38.1
 21
119.38
  0
LINE
  8
0
 10
38.1
 20
119.38
 11
25.4
 21
119.38
  0
LINE
  8
0
 10
25.4
 20
119.38
 11
25.4
 21
113.04
  0
LINE
  8
0
 10
25.4
 20
113.04
 11
12.7
 21
113.04
  0
LINE
  8
0
 10
12.7
 20
113.04
 11
12.7
 21
119.38
  0
LINE
  8
0
 10
12.7
 20
119.38
 11
0
 21
119.38
  0
LINE
  8
0
 10
0
 20
119.38
 11
0
 21
113.04
  0
LINE
  8
0
 10
0
 20
113.04
 11
-12.7
 21
113.04
  0
LINE
  8
0
 10
-12.7
 20
113.04
 11
-12.7
 21
119.38
  0
LINE
  8
0
 10
-12.7
 20
119.38
 11
-25.4
 21
119.38
  0
LINE
  8
0
 10
-25.4
 20
119.38
 11
-25.4
 21
113.04
  0
LINE
  8
0
 10
-25.4
 20
113.04
 11
-38.1
 21
113.04
  0
LINE
  8
0
 10
-38.1
 20
113.04
 11
-38.1
 21
119.38
  0
LINE
  8
0
 10
-38.1
 20
119.38
 11
-50.8
 21
119.38
  0
LINE
  8
0
 10
-50.8
 20
119.38
 11
-50.8
 21
113.04
  0
LINE
  8
0
 10
-50.8
 20
113.04
 11
-63.5
 21
113.04
  0
LINE
  8
0
 10
-63.5
 20
113.04
 11
-63.5
 21
119.38
  0
LINE
  8
0
 10
-63.5
 20
119.38
 11
-76.2
 21
119.38
  0
LINE
  8
0
 10
-76.2
 20
119.38
 11
-76.2
 21
113.04
  0
LINE
  8
0
 10
-76.2
 20
113.04
 11
-88.9
 21
113.04
  0
LINE
  8
0
 10
-88.9
 20
113.04
 11
-88.9
 21
119.38
  0
LINE
  8
0
 10
-88.9
 20
119.38
 11
-114.3
 21
119.38
  0
LINE
  8
0
 10
-114.3
 20
119.38
 11
-114.3
 21
43.18
  0
LINE
  8
0
 10
-114.3
 20
43.18
 11
114.3
 21
43.18
  0
LINE
  8
0
 10
114.3
 20
43.18
 11
114.3
 21
55.89
  0
LINE
  8
0
 10
-101.812
 20
103.312
 11
-102.023
 21
103.332
  0
LINE
  8
0
 10
-102.023
 20
103.332
 11
-102.232
 21
103.365
  0
LINE
  8
0
 10
-102.232
 20
103.365
 11
-102.439
 21
103.411
  0
LINE
  8
0
 10
-102.439
 20
103.411
 11
-102.643
 21
103.47
  0
LINE
  8
0
 10
-102.643
 20
103.47
 11
-102.842
 21
103.542
  0
LINE
  8
0
 10
-102.842
 20
103.542
 11
-103.037
 21
103.626
  0
LINE
  8
0
 10
-103.037
 20
103.626
 11
-103.226
 21
103.722
  0
LINE
  8
0
 10
-103.226
 20
103.722
 11
-103.408
 21
103.83
  0
LINE
  8
0
 10
-103.408
 20
103.83
 11
-103.584
 21
103.95
  0
LINE
  8
0
 10
-103.584
 20
103.95
 11
-103.751
 21
104.08
  0
LINE
  8
0
 10
-103.751
 20
104.08
 11
-103.91
 21
104.22
  0
LINE
  8
0
 10
-103.91
 20
104.22
 11
-104.06
 21
104.37
  0
LINE
  8
0
 10
-104.06
 20
104.37
 11
-104.2
 21
104.529
  0
LINE
  8
0
 10
-104.2
 20
104.529
 11
-104.33
 21
104.696
  0
LINE
  8
0
 10
-104.33
 20
104.696
 11
-104.45
 21
104.872
  0
LINE
  8
0
 10
-104.45
 20
104.872
 11
-104.558
 21
105.054
  0
LINE
  8
0
 10
-104.558
 20
105.054
 11
-104.654
 21
105.243
  0
LINE
  8
0
 10
-104.654
 20
105.243
 11
-104.738
 21
105.438
  0
LINE
  8
0
 10
-104.738
 20
105.438
 11
-104.81
 21
105.637
  0
LINE
  8
0
 10
-104.81
 20
105.637
 11
-104.869
 21
105.841
  0
LINE
  8
0
 10
-104.869
 20
105.841
 11
-104.915
 21
106.048
  0
LINE
  8
0
 10
-104.915
 20
106.048
 11
-104.948
 21
106.257
  0
LINE
  8
0
 10
-104.948
 20
106.257
 11
-104.968
 21
106.468
  0
LINE
  8
0
 10
-104.968
 20
106.468
 11
-104.975
 21
106.68
  0
LINE
  8
0
 10
-104.975
 20
106.68
 11
-104.968
 21
106.892
  0
LINE
  8
0
 10
-104.968
 20
106.892
 11
-104.948
 21
107.103
  0
LINE
  8
0
 10
-104.948
 20
107.103
 11
-104.915
 21
107.312
  0
LINE
  8
0
 10
-104.915
 20
107.312
 11
-104.869
 21
107.519
  0
LINE
  8
0
 10
-104.869
 20
107.519
 11
-104.81
 21
107.723
  0
LINE
  8
0
 10
-104.81
 20
107.723
 11
-104.738
 21
107.922
  0
LINE
  8
0
 10
-104.738
 20
107.922
 11
-104.654
 21
108.117
  0
LINE
  8
0
 10
-104.654
 20
108.117
 11
-104.558
 21
108.306
  0
LINE
  8
0
 10
-104.558
 20
108.306
 11
-104.45
 21
108.488
  0
LINE
  8
0
 10
-104.45
 20
108.488
 11
-104.33
 21
108.664
  0
LINE
  8
0
 10
-104.33
 20
108.664
 11
-104.2
 21
108.831
  0
LINE
  8
0
 10
-104.2
 20
108.831
 11
-104.06
 21
108.99
  0
LINE
  8
0
 10
-104.06
 20
108.99
 11
-103.91
 21
109.14
  0
LINE
  8
0
 10
-103.91
 20
109.14
 11
-103.751
 21
109.28
  0
LINE
  8
0
 10
-103.751
 20
109.28
 11
-103.584
 21
109.41
  0
LINE
  8
0
 10
-103.584
 20
109.41
 11
-103.408
 21
109.53
  0
LINE
  8
0
 10
-103.408
 20
109.53
 11
-103.226
 21
109.638
  0
LINE
  8
0
 10
-103.226
 20
109.638
 11
-103.037
 21
109.734
  0
LINE
  8
0
 10
-103.037
 20
109.734
 11
-102.842
 21
109.818
  0
LINE
  8
0
 10
-102.842
 20
109.818
 11
-102.643
 21
109.89
  0
LINE
  8
0
 10
-102.643
 20
109.89
 11
-102.439
 21
109.949
  0
LINE
  8
0
 10
-102.439
 20
109.949
 11
-102.232
 21
109.995
  0
LINE
  8
0
 10
-102.232
 20
109.995
 11
-102.023
 21
110.028
  0
LINE
  8
0
 10
-102.023
 20
110.028
 11
-101.812
 21
110.048
  0
LINE
  8
0
 10
-101.812
 20
110.048
 11
-101.6
 21
110.055
  0
LINE
  8
0
 10
-101.6
 20
110.055
 11
-101.388
 21
110.048
  0
LINE
  8
0
 10
-101.388
 20
110.048
 11
-101.177
 21
110.028
  0
LINE
  8
0
 10
-101.177
 20
110.028
 11
-100.968
 21
109.995
  0
LINE
  8
0
 10
-100.968
 20
109.995
 11
-100.761
 21
109.949
  0
LINE
  8
0
 10
-100.761
 20
109.949
 11
-100.557
 21
109.89
  0
LINE
  8
0
 10
-100.557
 20
109.89
 11
-100.358
 21
109.818
  0
LINE
  8
0
 10
-100.358
 20
109.818
 11
-100.163
 21
109.734
  0
LINE
  8
0
 10
-100.163
 20
109.734
 11
-99.9741
 21
109.638
  0
LINE
  8
0
 10
-99.9741
 20
109.638
 11
-99.7916
 21
109.53
  0
LINE
  8
0
 10
-99.7916
 20
109.53
 11
-99.6162
 21
109.41
  0
LINE
  8
0
 10
-99.6162
 20
109.41
 11
-99.4487
 21
109.28
  0
LINE
  8
0
 10
-99.4487
 20
109.28
 11
-99.2896
 21
109.14
  0
LINE
  8
0
 10
-99.2896
 20
109.14
 11
-99.1397
 21
108.99
  0
LINE
  8
0
 10
-99.1397
 20
108.99
 11
-98.9995
 21
108.831
  0
LINE
  8
0
 10
-98.9995
 20
108.831
 11
-98.8696
 21
108.664
  0
LINE
  8
0
 10
-98.8696
 20
108.664
 11
-98.7504
 21
108.488
  0
LINE
  8
0
 10
-98.7504
 20
108.488
 11
-98.6425
 21
108.306
  0
LINE
  8
0
 10
-98.6425
 20
108.306
 11
-98.5462
 21
108.117
  0
LINE
  8
0
 10
-98.5462
 20
108.117
 11
-98.462
 21
107.922
  0
LINE
  8
0
 10
-98.462
 20
107.922
 11
-98.3902
 21
107.723
  0
LINE
  8
0
 10
-98.3902
 20
107.723
 11
-98.331
 21
107.519
  0
LINE
  8
0
 10
-98.331
 20
107.519
 11
-98.2848
 21
107.312
  0
LINE
  8
0
 10
-98.2848
 20
107.312
 11
-98.2516
 21
107.103
  0
LINE
  8
0
 10
-98.2516
 20
107.103
 11
-98.2317
 21
106.892
  0
LINE
  8
0
 10
-98.2317
 20
106.892
 11
-98.225
 21
106.68
  0
LINE
  8
0
 10
-98.225
 20
106.68
 11
-98.2317
 21
106.468
  0
LINE
  8
0
 10
-98.2317
 20
106.468
 11
-98.2516
 21
106.257
  0
LINE
  8
0
 10
-98.2516
 20
106.257
 11
-98.2848
 21
106.048
  0
LINE
  8
0
 10
-98.2848
 20
106.048
 11
-98.331
 21
105.841
  0
LINE
  8
0
 10
-98.331
 20
105.841
 11
-98.3902
 21
105.637
  0
LINE
  8
0
 10
-98.3902
 20
105.637
 11
-98.462
 21
105.438
  0
LINE
  8
0
 10
-98.462
 20
105.438
 11
-98.5462
 21
105.243
  0
LINE
  8
0
 10
-98.5462
 20
105.243
 11
-98.6425
 21
105.054
  0
LINE
  8
0
 10
-98.6425
 20
105.054
 11
-98.7504
 21
104.872
  0
LINE
  8
0
 10
-98.7504
 20
104.872
 11
-98.8696
 21
104.696
  0
LINE
  8
0
 10
-98.8696
 20
104.696
 11
-98.9995
 21
104.529
  0
LINE
  8
0
 10
-98.9995
 20
104.529
 11
-99.1397
 21
104.37
  0
LINE
  8
0
 10
-99.1397
 20
104.37
 11
-99.2896
 21
104.22
  0
LINE
  8
0
 10
-99.2896
 20
104.22
 11
-99.4487
 21
104.08
  0
LINE
  8
0
 10
-99.4487
 20
104.08
 11
-99.6162
 21
103.95
  0
LINE
  8
0
 10
-99.6162
 20
103.95
 11
-99.7916
 21
103.83
  0
LINE
  8
0
 10
-99.7916
 20
103.83
 11
-99.9741
 21
103.722
  0
LINE
  8
0
 10
-99.9741
 20
103.722
 11
-100.163
 21
103.626
  0
LINE
  8
0
 10
-100.163
 20
103.626
 11
-100.358
 21
103.542
  0
LINE
  8
0
 10
-100.358
 20
103.542
 11
-100.557
 21
103.47
  0
LINE
  8
0
 10
-100.557
 20
103.47
 11
-100.761
 21
103.411
  0
LINE
  8
0
 10
-100.761
 20
103.411
 11
-100.968
 21
103.365
  0
LINE
  8
0
 10
-100.968
 20
103.365
 11
-101.177
 21
103.332
  0
LINE
  8
0
 10
-101.177
 20
103.332
 11
-101.388
 21
103.312
  0
LINE
  8
0
 10
-101.388
 20
103.312
 11
-101.6
 21
103.305
  0
LINE
  8
0
 10
-101.6
 20
103.305
 11
-101.812
 21
103.312
  0
LINE
  8
0
 10
-101.812
 20
52.5117
 11
-102.023
 21
52.5316
  0
LINE
  8
0
 10
-102.023
 20
52.5316
 11
-102.232
 21
52.5648
  0
LINE
  8
0
 10
-102.232
 20
52.5648
 11
-102.439
 21
52.611
  0
LINE
  8
0
 10
-102.439
 20
52.611
 11
-102.643
 21
52.6702
  0
LINE
  8
0
 10
-102.643
 20
52.6702
 11
-102.842
 21
52.742
  0
LINE
  8
0
 10
-102.842
 20
52.742
 11
-103.037
 21
52.8262
  0
LINE
  8
0
 10
-103.037
 20
52.8262
 11
-103.226
 21
52.9225
  0
LINE
  8
0
 10
-103.226
 20
52.9225
 11
-103.408
 21
53.0304
  0
LINE
  8
0
 10
-103.408
 20
53.0304
 11
-103.584
 21
53.1496
  0
LINE
  8
0
 10
-103.584
 20
53.1496
 11
-103.751
 21
53.2795
  0
LINE
  8
0
 10
-103.751
 20
53.2795
 11
-103.91
 21
53.4197
  0
LINE
  8
0
 10
-103.91
 20
53.4197
 11
-104.06
 21
53.5697
  0
LINE
  8
0
 10
-104.06
 20
53.5697
 11
-104.2
 21
53.7287
  0
LINE
  8
0
 10
-104.2
 20
53.7287
 11
-104.33
 21
53.8962
  0
LINE
  8
0
 10
-104.33
 20
53.8962
 11
-104.45
 21
54.0716
  0
LINE
  8
0
 10
-104.45
 20
54.0716
 11
-104.558
 21
54.2541
  0
LINE
  8
0
 10
-104.558
 20
54.2541
 11
-104.654
 21
54.443
  0
LINE
  8
0
 10
-104.654
 20
54.443
 11
-104.738
 21
54.6376
  0
LINE
  8
0
 10
-104.738
 20
54.6376
 11
-104.81
 21
54.8371
  0
LINE
  8
0
 10
-104.81
 20
54.8371
 11
-104.869
 21
55.0407
  0
LINE
  8
0
 10
-104.869
 20
55.0407
 11
-104.915
 21
55.2476
  0
LINE
  8
0
 10
-104.915
 20
55.2476
 11
-104.948
 21
55.457
  0
LINE
  8
0
 10
-104.948
 20
55.457
 11
-104.968
 21
55.6681
  0
LINE
  8
0
 10
-104.968
 20
55.6681
 11
-104.975
 21
55.88
  0
LINE
  8
0
 10
-104.975
 20
55.88
 11
-104.968
 21
56.0919
  0
LINE
  8
0
 10
-104.968
 20
56.0919
 11
-104.948
 21
56.303
  0
LINE
  8
0
 10
-104.948
 20
56.303
 11
-104.915
 21
56.5124
  0
LINE
  8
0
 10
-104.915
 20
56.5124
 11
-104.869
 21
56.7193
  0
LINE
  8
0
 10
-104.869
 20
56.7193
 11
-104.81
 21
56.9229
  0
LINE
  8
0
 10
-104.81
 20
56.9229
 11
-104.738
 21
57.1224
  0
LINE
  8
0
 10
-104.738
 20
57.1224
 11
-104.654
 21
57.317
  0
LINE
  8
0
 10
-104.654
 20
57.317
 11
-104.558
 21
57.5059
  0
LINE
  8
0
 10
-104.558
 20
57.5059
 11
-104.45
 21
57.6884
  0
LINE
  8
0
 10
-104.45
 20
57.6884
 11
-104.33
 21
57.8638
  0
LINE
  8
0
 10
-104.33
 20
57.8638
 11
-104.2
 21
58.0313
  0
LINE
  8
0
 10
-104.2
 20
58.0313
 11
-104.06
 21
58.1904
  0
LINE
  8
0
 10
-104.06
 20
58.1904
 11
-103.91
 21
58.3403
  0
LINE
  8
0
 10
-103.91
 20
58.3403
 11
-103.751
 21
58.4805
  0
LINE
  8
0
 10
-103.751
 20
58.4805
 11
-103.584
 21
58.6104
  0
LINE
  8
0
 10
-103.584
 20
58.6104
 11
-103.408
 21
58.7296
  0
LINE
  8
0
 10
-103.408
 20
58.7296
 11
-103.226
 21
58.8375
  0
LINE
  8
0
 10
-103.226
 20
58.8375
 11
-103.037
 21
58.9338
  0
LINE
  8
0
 10
-103.037
 20
58.9338
 11
-102.842
 21
59.018
  0
LINE
  8
0
 10
-102.842
 20
59.018
 11
-102.643
 21
59.0898
  0
LINE
  8
0
 10
-102.643
 20
59.0898
 11
-102.439
 21
59.149
  0
LINE
  8
0
 10
-102.439
 20
59.149
 11
-102.232
 21
59.1952
  0
LINE
  8
0
 10
-102.232
 20
59.1952
 11
-102.023
 21
59.2284
  0
LINE
  8
0
 10
-102.023
 20
59.2284
 11
-101.812
 21
59.2484
  0
LINE
  8
0
 10
-101.812
 20
59.2484
 11
-101.6
 21
59.255
  0
LINE
  8
0
 10
-101.6
 20
59.255
 11
-101.388
 21
59.2484
  0
LINE
  8
0
 10
-101.388
 20
59.2484
 11
-101.177
 21
59.2284
  0
LINE
  8
0
 10
-101.177
 20
59.2284
 11
-100.968
 21
59.1952
  0
LINE
  8
0
 10
-100.968
 20
59.1952
 11
-100.761
 21
59.149
  0
LINE
  8
0
 10
-100.761
 20
59.149
 11
-100.557
 21
59.0898
  0
LINE
  8
0
 10
-100.557
 20
59.0898
 11
-100.358
 21
59.018
  0
LINE
  8
0
 10
-100.358
 20
59.018
 11
-100.163
 21
58.9338
  0
LINE
  8
0
 10
-100.163
 20
58.9338
 11
-99.9741
 21
58.8375
  0
LINE
  8
0
 10
-99.9741
 20
58.8375
 11
-99.7916
 21
58.7296
  0
LINE
  8
0
 10
-99.7916
 20
58.7296
 11
-99.6162
 21
58.6104
  0
LINE
  8
0
 10
-99.6162
 20
58.6104
 11
-99.4487
 21
58.4805
  0
LINE
  8
0
 10
-99.4487
 20
58.4805
 11
-99.2896
 21
58.3403
  0
LINE
  8
0
 10
-99.2896
 20
58.3403
 11
-99.1397
 21
58.1904
  0
LINE
  8
0
 10
-99.1397
 20
58.1904
 11
-98.9995
 21
58.0313
  0
LINE
  8
0
 10
-98.9995
 20
58.0313
 11
-98.8696
 21
57.8638
  0
LINE
  8
0
 10
-98.8696
 20
57.8638
 11
-98.7504
 21
57.6884
  0
LINE
  8
0
 10
-98.7504
 20
57.6884
 11
-98.6425
 21
57.5059
  0
LINE
  8
0
 10
-98.6425
 20
57.5059
 11
-98.5462
 21
57.317
  0
LINE
  8
0
 10
-98.5462
 20
57.317
 11
-98.462
 21
57.1224
  0
LINE
  8
0
 10
-98.462
 20
57.1224
 11
-98.3902
 21
56.9229
  0
LINE
  8
0
 10
-98.3902
 20
56.9229
 11
-98.331
 21
56.7193
  0
LINE
  8
0
 10
-98.331
 20
56.7193
 11
-98.2848
 21
56.5124
  0
LINE
  8
0
 10
-98.2848
 20
56.5124
 11
-98.2516
 21
56.303
  0
LINE
  8
0
 10
-98.2516
 20
56.303
 11
-98.2317
 21
56.0919
  0
LINE
  8
0
 10
-98.2317
 20
56.0919
 11
-98.225
 21
55.88
  0
LINE
  8
0
 10
-98.225
 20
55.88
 11
-98.2317
 21
55.6681
  0
LINE
  8
0
 10
-98.2317
 20
55.6681
 11
-98.2516
 21
55.457
  0
LINE
  8
0
 10
-98.2516
 20
55.457
 11
-98.2848
 21
55.2476
  0
LINE
  8
0
 10
-98.2848
 20
55.2476
 11
-98.331
 21
55.0407
  0
LINE
  8
0
 10
-98.331
 20
55.0407
 11
-98.3902
 21
54.8371
  0
LINE
  8
0
 10
-98.3902
 20
54.8371
 11
-98.462
 21
54.6376
  0
LINE
  8
0
 10
-98.462
 20
54.6376
 11
-98.5462
 21
54.443
  0
LINE
  8
0
 10
-98.5462
 20
54.443
 11
-98.6425
 21
54.2541
  0
LINE
  8
0
 10
-98.6425
 20
54.2541
 11
-98.7504
 21
54.0716
  0
LINE
  8
0
 10
-98.7504
 20
54.0716
 11
-98.8696
 21
53.8962
  0
LINE
  8
0
 10
-98.8696
 20
53.8962
 11
-98.9995
 21
53.7287
  0
LINE
  8
0
 10
-98.9995
 20
53.7287
 11
-99.1397
 21
53.5697
  0
LINE
  8
0
 10
-99.1397
 20
53.5697
 11
-99.2896
 21
53.4197
  0
LINE
  8
0
 10
-99.2896
 20
53.4197
 11
-99.4487
 21
53.2795
  0
LINE
  8
0
 10
-99.4487
 20
53.2795
 11
-99.6162
 21
53.1496
  0
LINE
  8
0
 10
-99.6162
 20
53.1496
 11
-99.7916
 21
53.0304
  0
LINE
  8
0
 10
-99.7916
 20
53.0304
 11
-99.9741
 21
52.9225
  0
LINE
  8
0
 10
-99.9741
 20
52.9225
 11
-100.163
 21
52.8262
  0
LINE
  8
0
 10
-100.163
 20
52.8262
 11
-100.358
 21
52.742
  0
LINE
  8
0
 10
-100.358
 20
52.742
 11
-100.557
 21
52.6702
  0
LINE
  8
0
 10
-100.557
 20
52.6702
 11
-100.761
 21
52.611
  0
LINE
  8
0
 10
-100.761
 20
52.611
 11
-100.968
 21
52.5648
  0
LINE
  8
0
 10
-100.968
 20
52.5648
 11
-101.177
 21
52.5316
  0
LINE
  8
0
 10
-101.177
 20
52.5316
 11
-101.388
 21
52.5117
  0
LINE
  8
0
 10
-101.388
 20
52.5117
 11
-101.6
 21
52.505
  0
LINE
  8
0
 10
-101.6
 20
52.505
 11
-101.812
 21
52.5117
  0
LINE
  8
0
 10
127
 20
49.52
 11
139.7
 21
49.52
  0
LINE
  8
0
 10
139.7
 20
49.52
 11
139.7
 21
43.18
  0
LINE
  8
0
 10
139.7
 20
43.18
 11
152.4
 21
43.18
  0
LINE
  8
0
 10
152.4
 20
43.18
 11
152.4
 21
49.52
  0
LINE
  8
0
 10
152.4
 20
49.52
 11
165.1
 21
49.52
  0
LINE
  8
0
 10
165.1
 20
49.52
 11
165.1
 21
43.18
  0
LINE
  8
0
 10
165.1
 20
43.18
 11
177.8
 21
43.18
  0
LINE
  8
0
 10
177.8
 20
43.18
 11
177.8
 21
49.52
  0
LINE
  8
0
 10
177.8
 20
49.52
 11
190.5
 21
49.52
  0
LINE
  8
0
 10
190.5
 20
49.52
 11
190.5
 21
119.38
  0
LINE
  8
0
 10
190.5
 20
119.38
 11
114.3
 21
119.38
  0
LINE
  8
0
 10
114.3
 20
119.38
 11
114.3
 21
106.69
  0
LINE
  8
0
 10
114.3
 20
106.69
 11
120.64
 21
106.69
  0
LINE
  8
0
 10
120.64
 20
106.69
 11
120.64
 21
93.99
  0
LINE
  8
0
 10
120.64
 20
93.99
 11
114.3
 21
93.99
  0
LINE
  8
0
 10
114.3
 20
93.99
 11
114.3
 21
81.29
  0
LINE
  8
0
 10
114.3
 20
81.29
 11
120.64
 21
81.29
  0
LINE
  8
0
 10
120.64
 20
81.29
 11
120.64
 21
68.59
  0
LINE
  8
0
 10
120.64
 20
68.59
 11
114.3
 21
68.59
  0
LINE
  8
0
 10
114.3
 20
68.59
 11
114.3
 21
55.89
  0
LINE
  8
0
 10
114.3
 20
55.89
 11
120.64
 21
55.89
  0
LINE
  8
0
 10
120.64
 20
55.89
 11
120.64
 21
43.19
  0
LINE
  8
0
 10
120.64
 20
43.19
 11
114.3
 21
43.19
  0
LINE
  8
0
 10
114.3
 20
43.19
 11
114.3
 21
43.18
  0
LINE
  8
0
 10
114.3
 20
43.18
 11
127
 21
43.18
  0
LINE
  8
0
 10
127
 20
43.18
 11
127
 21
49.52
  0
LINE
  8
0
 10
127
 20
-31.68
 11
139.7
 21
-31.68
  0
LINE
  8
0
 10
139.7
 20
-31.68
 11
139.7
 21
-38.02
  0
LINE
  8
0
 10
139.7
 20
-38.02
 11
152.4
 21
-38.02
  0
LINE
  8
0
 10
152.4
 20
-38.02
 11
152.4
 21
-31.68
  0
LINE
  8
0
 10
152.4
 20
-31.68
 11
165.1
 21
-31.68
  0
LINE
  8
0
 10
165.1
 20
-31.68
 11
165.1
 21
-38.02
  0
LINE
  8
0
 10
165.1
 20
-38.02
 11
177.8
 21
-38.02
  0
LINE
  8
0
 10
177.8
 20
-38.02
 11
177.8
 21
-31.68
  0
LINE
  8
0
 10
177.8
 20
-31.68
 11
190.5
 21
-31.68
  0
LINE
  8
0
 10
190.5
 20
-31.68
 11
190.5
 21
38.18
  0
LINE
  8
0
 10
190.5
 20
38.18
 11
114.3
 21
38.18
  0
LINE
  8
0
 10
114.3
 20
38.18
 11
114.3
 21
25.49
  0
LINE
  8
0
 10
114.3
 20
25.49
 11
120.64
 21
25.49
  0
LINE
  8
0
 10
120.64
 20
25.49
 11
120.64
 21
12.79
  0
LINE
  8
0
 10
120.64
 20
12.79
 11
114.3
 21
12.79
  0
LINE
  8
0
 10
114.3
 20
12.79
 11
114.3
 21
0.0899963
  0
LINE
  8
0
 10
114.3
 20
0.0899963
 11
120.64
 21
0.0899963
  0
LINE
  8
0
 10
120.64
 20
0.0899963
 11
120.64
 21
-12.61
  0
LINE
  8
0
 10
120.64
 20
-12.61
 11
114.3
 21
-12.61
  0
LINE
  8
0
 10
114.3
 20
-12.61
 11
114.3
 21
-25.31
  0
LINE
  8
0
 10
114.3
 20
-25.31
 11
120.64
 21
-25.31
  0
LINE
  8
0
 10
120.64
 20
-25.31
 11
120.64
 21
-38.01
  0
LINE
  8
0
 10
120.64
 20
-38.01
 11
114.3
 21
-38.01
  0
LINE
  8
0
 10
114.3
 20
-38.01
 11
114.3
 21
-38.02
  0
LINE
  8
0
 10
114.3
 20
-38.02
 11
127
 21
-38.02
  0
LINE
  8
0
 10
127
 20
-38.02
 11
127
 21
-31.68
  0
LINE
  8
0
 10
-88.9
 20
-31.76
 11
-76.2
 21
-31.76
  0
LINE
  8
0
 10
-76.2
 20
-31.76
 11
-76.2
 21
-38.1
  0
LINE
  8
0
 10
-76.2
 20
-38.1
 11
-63.5
 21
-38.1
  0
LINE
  8
0
 10
-63.5
 20
-38.1
 11
-63.5
 21
-31.76
  0
LINE
  8
0
 10
-63.5
 20
-31.76
 11
-50.8
 21
-31.76
  0
LINE
  8
0
 10
-50.8
 20
-31.76
 11
-50.8
 21
-38.1
  0
LINE
  8
0
 10
-50.8
 20
-38.1
 11
-38.1
 21
-38.1
  0
LINE
  8
0
 10
-38.1
 20
-38.1
 11
-38.1
 21
-31.76
  0
LINE
  8
0
 10
-38.1
 20
-31.76
 11
-25.4
 21
-31.76
  0
LINE
  8
0
 10
-25.4
 20
-31.76
 11
-25.4
 21
-38.1
  0
LINE
  8
0
 10
-25.4
 20
-38.1
 11
-12.7
 21
-38.1
  0
LINE
  8
0
 10
-12.7
 20
-38.1
 11
-12.7
 21
-31.76
  0
LINE
  8
0
 10
-12.7
 20
-31.76
 11
0
 21
-31.76
  0
LINE
  8
0
 10
0
 20
-31.76
 11
0
 21
-38.1
  0
LINE
  8
0
 10
0
 20
-38.1
 11
12.7
 21
-38.1
  0
LINE
  8
0
 10
12.7
 20
-38.1
 11
12.7
 21
-31.76
  0
LINE
  8
0
 10
12.7
 20
-31.76
 11
25.4
 21
-31.76
  0
LINE
  8
0
 10
25.4
 20
-31.76
 11
25.4
 21
-38.1
  0
LINE
  8
0
 10
25.4
 20
-38.1
 11
38.1
 21
-38.1
  0
LINE
  8
0
 10
38.1
 20
-38.1
 11
38.1
 21
-31.76
  0
LINE
  8
0
 10
38.1
 20
-31.76
 11
50.8
 21
-31.76
  0
LINE
  8
0
 10
50.8
 20
-31.76
 11
50.8
 21
-38.1
  0
LINE
  8
0
 10
50.8
 20
-38.1
 11
63.5
 21
-38.1
  0
LINE
  8
0
 10
63.5
 20
-38.1
 11
63.5
 21
-31.76
  0
LINE
  8
0
 10
63.5
 20
-31.76
 11
76.2
 21
-31.76
  0
LINE
  8
0
 10
76.2
 20
-31.76
 11
76.2
 21
-38.1
  0
LINE
  8
0
 10
76.2
 20
-38.1
 11
88.9
 21
-38.1
  0
LINE
  8
0
 10
88.9
 20
-38.1
 11
88.9
 21
-31.76
  0
LINE
  8
0
 10
88.9
 20
-31.76
 11
101.6
 21
-31.76
  0
LINE
  8
0
 10
101.6
 20
-31.76
 11
101.6
 21
-38.1
  0
LINE
  8
0
 10
101.6
 20
-38.1
 11
114.3
 21
-38.1
  0
LINE
  8
0
 10
114.3
 20
-38.1
 11
114.3
 21
-25.39
  0
LINE
  8
0
 10
114.3
 20
-25.39
 11
107.96
 21
-25.39
  0
LINE
  8
0
 10
107.96
 20
-25.39
 11
107.96
 21
-12.69
  0
LINE
  8
0
 10
107.96
 20
-12.69
 11
114.3
 21
-12.69
  0
LINE
  8
0
 10
114.3
 20
-12.69
 11
114.3
 21
0.00999451
  0
LINE
  8
0
 10
114.3
 20
0.00999451
 11
107.96
 21
0.00999451
  0
LINE
  8
0
 10
107.96
 20
0.00999451
 11
107.96
 21
12.71
  0
LINE
  8
0
 10
107.96
 20
12.71
 11
114.3
 21
12.71
  0
LINE
  8
0
 10
114.3
 20
12.71
 11
114.3
 21
25.41
  0
LINE
  8
0
 10
114.3
 20
25.41
 11
107.96
 21
25.41
  0
LINE
  8
0
 10
107.96
 20
25.41
 11
107.96
 21
38.1
  0
LINE
  8
0
 10
107.96
 20
38.1
 11
-114.3
 21
38.1
  0
LINE
  8
0
 10
-114.3
 20
38.1
 11
-114.3
 21
-38.1
  0
LINE
  8
0
 10
-114.3
 20
-38.1
 11
-88.9
 21
-38.1
  0
LINE
  8
0
 10
-88.9
 20
-38.1
 11
-88.9
 21
-31.76
  0
LINE
  8
0
 10
-101.812
 20
22.0316
 11
-102.023
 21
22.0516
  0
LINE
  8
0
 10
-102.023
 20
22.0516
 11
-102.232
 21
22.0848
  0
LINE
  8
0
 10
-102.232
 20
22.0848
 11
-102.439
 21
22.131
  0
LINE
  8
0
 10
-102.439
 20
22.131
 11
-102.643
 21
22.1902
  0
LINE
  8
0
 10
-102.643
 20
22.1902
 11
-102.842
 21
22.262
  0
LINE
  8
0
 10
-102.842
 20
22.262
 11
-103.037
 21
22.3462
  0
LINE
  8
0
 10
-103.037
 20
22.3462
 11
-103.226
 21
22.4425
  0
LINE
  8
0
 10
-103.226
 20
22.4425
 11
-103.408
 21
22.5504
  0
LINE
  8
0
 10
-103.408
 20
22.5504
 11
-103.584
 21
22.6696
  0
LINE
  8
0
 10
-103.584
 20
22.6696
 11
-103.751
 21
22.7995
  0
LINE
  8
0
 10
-103.751
 20
22.7995
 11
-103.91
 21
22.9397
  0
LINE
  8
0
 10
-103.91
 20
22.9397
 11
-104.06
 21
23.0896
  0
LINE
  8
0
 10
-104.06
 20
23.0896
 11
-104.2
 21
23.2487
  0
LINE
  8
0
 10
-104.2
 20
23.2487
 11
-104.33
 21
23.4162
  0
LINE
  8
0
 10
-104.33
 20
23.4162
 11
-104.45
 21
23.5916
  0
LINE
  8
0
 10
-104.45
 20
23.5916
 11
-104.558
 21
23.7741
  0
LINE
  8
0
 10
-104.558
 20
23.7741
 11
-104.654
 21
23.963
  0
LINE
  8
0
 10
-104.654
 20
23.963
 11
-104.738
 21
24.1576
  0
LINE
  8
0
 10
-104.738
 20
24.1576
 11
-104.81
 21
24.3571
  0
LINE
  8
0
 10
-104.81
 20
24.3571
 11
-104.869
 21
24.5607
  0
LINE
  8
0
 10
-104.869
 20
24.5607
 11
-104.915
 21
24.7676
  0
LINE
  8
0
 10
-104.915
 20
24.7676
 11
-104.948
 21
24.977
  0
LINE
  8
0
 10
-104.948
 20
24.977
 11
-104.968
 21
25.1881
  0
LINE
  8
0
 10
-104.968
 20
25.1881
 11
-104.975
 21
25.4
  0
LINE
  8
0
 10
-104.975
 20
25.4
 11
-104.968
 21
25.6119
  0
LINE
  8
0
 10
-104.968
 20
25.6119
 11
-104.948
 21
25.823
  0
LINE
  8
0
 10
-104.948
 20
25.823
 11
-104.915
 21
26.0324
  0
LINE
  8
0
 10
-104.915
 20
26.0324
 11
-104.869
 21
26.2393
  0
LINE
  8
0
 10
-104.869
 20
26.2393
 11
-104.81
 21
26.4429
  0
LINE
  8
0
 10
-104.81
 20
26.4429
 11
-104.738
 21
26.6424
  0
LINE
  8
0
 10
-104.738
 20
26.6424
 11
-104.654
 21
26.837
  0
LINE
  8
0
 10
-104.654
 20
26.837
 11
-104.558
 21
27.0259
  0
LINE
  8
0
 10
-104.558
 20
27.0259
 11
-104.45
 21
27.2084
  0
LINE
  8
0
 10
-104.45
 20
27.2084
 11
-104.33
 21
27.3838
  0
LINE
  8
0
 10
-104.33
 20
27.3838
 11
-104.2
 21
27.5513
  0
LINE
  8
0
 10
-104.2
 20
27.5513
 11
-104.06
 21
27.7103
  0
LINE
  8
0
 10
-104.06
 20
27.7103
 11
-103.91
 21
27.8603
  0
LINE
  8
0
 10
-103.91
 20
27.8603
 11
-103.751
 21
28.0005
  0
LINE
  8
0
 10
-103.751
 20
28.0005
 11
-103.584
 21
28.1304
  0
LINE
  8
0
 10
-103.584
 20
28.1304
 11
-103.408
 21
28.2496
  0
LINE
  8
0
 10
-103.408
 20
28.2496
 11
-103.226
 21
28.3575
  0
LINE
  8
0
 10
-103.226
 20
28.3575
 11
-103.037
 21
28.4538
  0
LINE
  8
0
 10
-103.037
 20
28.4538
 11
-102.842
 21
28.538
  0
LINE
  8
0
 10
-102.842
 20
28.538
 11
-102.643
 21
28.6098
  0
LINE
  8
0
 10
-102.643
 20
28.6098
 11
-102.439
 21
28.669
  0
LINE
  8
0
 10
-102.439
 20
28.669
 11
-102.232
 21
28.7152
  0
LINE
  8
0
 10
-102.232
 20
28.7152
 11
-102.023
 21
28.7484
  0
LINE
  8
0
 10
-102.023
 20
28.7484
 11
-101.812
 21
28.7683
  0
LINE
  8
0
 10
-101.812
 20
28.7683
 11
-101.6
 21
28.775
  0
LINE
  8
0
 10
-101.6
 20
28.775
 11
-101.388
 21
28.7683
  0
LINE
  8
0
 10
-101.388
 20
28.7683
 11
-101.177
 21
28.7484
  0
LINE
  8
0
 10
-101.177
 20
28.7484
 11
-100.968
 21
28.7152
  0
LINE
  8
0
 10
-100.968
 20
28.7152
 11
-100.761
 21
28.669
  0
LINE
  8
0
 10
-100.761
 20
28.669
 11
-100.557
 21
28.6098
  0
LINE
  8
0
 10
-100.557
 20
28.6098
 11
-100.358
 21
28.538
  0
LINE
  8
0
 10
-100.358
 20
28.538
 11
-100.163
 21
28.4538
  0
LINE
  8
0
 10
-100.163
 20
28.4538
 11
-99.9741
 21
28.3575
  0
LINE
  8
0
 10
-99.9741
 20
28.3575
 11
-99.7916
 21
28.2496
  0
LINE
  8
0
 10
-99.7916
 20
28.2496
 11
-99.6162
 21
28.1304
  0
LINE
  8
0
 10
-99.6162
 20
28.1304
 11
-99.4487
 21
28.0005
  0
LINE
  8
0
 10
-99.4487
 20
28.0005
 11
-99.2896
 21
27.8603
  0
LINE
  8
0
 10
-99.2896
 20
27.8603
 11
-99.1397
 21
27.7103
  0
LINE
  8
0
 10
-99.1397
 20
27.7103
 11
-98.9995
 21
27.5513
  0
LINE
  8
0
 10
-98.9995
 20
27.5513
 11
-98.8696
 21
27.3838
  0
LINE
  8
0
 10
-98.8696
 20
27.3838
 11
-98.7504
 21
27.2084
  0
LINE
  8
0
 10
-98.7504
 20
27.2084
 11
-98.6425
 21
27.0259
  0
LINE
  8
0
 10
-98.6425
 20
27.0259
 11
-98.5462
 21
26.837
  0
LINE
  8
0
 10
-98.5462
 20
26.837
 11
-98.462
 21
26.6424
  0
LINE
  8
0
 10
-98.462
 20
26.6424
 11
-98.3902
 21
26.4429
  0
LINE
  8
0
 10
-98.3902
 20
26.4429
 11
-98.331
 21
26.2393
  0
LINE
  8
0
 10
-98.331
 20
26.2393
 11
-98.2848
 21
26.0324
  0
LINE
  8
0
 10
-98.2848
 20
26.0324
 11
-98.2516
 21
25.823
  0
LINE
  8
0
 10
-98.2516
 20
25.823
 11
-98.2317
 21
25.6119
  0
LINE
  8
0
 10
-98.2317
 20
25.6119
 11
-98.225
 21
25.4
  0
LINE
  8
0
 10
-98.225
 20
25.4
 11
-98.2317
 21
25.1881
  0
LINE
  8
0
 10
-98.2317
 20
25.1881
 11
-98.2516
 21
24.977
  0
LINE
  8
0
 10
-98.2516
 20
24.977
 11
-98.2848
 21
24.7676
  0
LINE
  8
0
 10
-98.2848
 20
24.7676
 11
-98.331
 21
24.5607
  0
LINE
  8
0
 10
-98.331
 20
24.5607
 11
-98.3902
 21
24.3571
  0
LINE
  8
0
 10
-98.3902
 20
24.3571
 11
-98.462
 21
24.1576
  0
LINE
  8
0
 10
-98.462
 20
24.1576
 11
-98.5462
 21
23.963
  0
LINE
  8
0
 10
-98.5462
 20
23.963
 11
-98.6425
 21
23.7741
  0
LINE
  8
0
 10
-98.6425
 20
23.7741
 11
-98.7504
 21
23.5916
  0
LINE
  8
0
 10
-98.7504
 20
23.5916
 11
-98.8696
 21
23.4162
  0
LINE
  8
0
 10
-98.8696
 20
23.4162
 11
-98.9995
 21
23.2487
  0
LINE
  8
0
 10
-98.9995
 20
23.2487
 11
-99.1397
 21
23.0896
  0
LINE
  8
0
 10
-99.1397
 20
23.0896
 11
-99.2896
 21
22.9397
  0
LINE
  8
0
 10
-99.2896
 20
22.9397
 11
-99.4487
 21
22.7995
  0
LINE
  8
0
 10
-99.4487
 20
22.7995
 11
-99.6162
 21
22.6696
  0
LINE
  8
0
 10
-99.6162
 20
22.6696
 11
-99.7916
 21
22.5504
  0
LINE
  8
0
 10
-99.7916
 20
22.5504
 11
-99.9741
 21
22.4425
  0
LINE
  8
0
 10
-99.9741
 20
22.4425
 11
-100.163
 21
22.3462
  0
LINE
  8
0
 10
-100.163
 20
22.3462
 11
-100.358
 21
22.262
  0
LINE
  8
0
 10
-100.358
 20
22.262
 11
-100.557
 21
22.1902
  0
LINE
  8
0
 10
-100.557
 20
22.1902
 11
-100.761
 21
22.131
  0
LINE
  8
0
 10
-100.761
 20
22.131
 11
-100.968
 21
22.0848
  0
LINE
  8
0
 10
-100.968
 20
22.0848
 11
-101.177
 21
22.0516
  0
LINE
  8
0
 10
-101.177
 20
22.0516
 11
-101.388
 21
22.0316
  0
LINE
  8
0
 10
-101.388
 20
22.0316
 11
-101.6
 21
22.025
  0
LINE
  8
0
 10
-101.6
 20
22.025
 11
-101.812
 21
22.0316
  0
LINE
  8
0
 10
-101.812
 20
-28.7683
 11
-102.023
 21
-28.7484
  0
LINE
  8
0
 10
-102.023
 20
-28.7484
 11
-102.232
 21
-28.7152
  0
LINE
  8
0
 10
-102.232
 20
-28.7152
 11
-102.439
 21
-28.669
  0
LINE
  8
0
 10
-102.439
 20
-28.669
 11
-102.643
 21
-28.6098
  0
LINE
  8
0
 10
-102.643
 20
-28.6098
 11
-102.842
 21
-28.538
  0
LINE
  8
0
 10
-102.842
 20
-28.538
 11
-103.037
 21
-28.4538
  0
LINE
  8
0
 10
-103.037
 20
-28.4538
 11
-103.226
 21
-28.3575
  0
LINE
  8
0
 10
-103.226
 20
-28.3575
 11
-103.408
 21
-28.2496
  0
LINE
  8
0
 10
-103.408
 20
-28.2496
 11
-103.584
 21
-28.1304
  0
LINE
  8
0
 10
-103.584
 20
-28.1304
 11
-103.751
 21
-28.0005
  0
LINE
  8
0
 10
-103.751
 20
-28.0005
 11
-103.91
 21
-27.8603
  0
LINE
  8
0
 10
-103.91
 20
-27.8603
 11
-104.06
 21
-27.7103
  0
LINE
  8
0
 10
-104.06
 20
-27.7103
 11
-104.2
 21
-27.5513
  0
LINE
  8
0
 10
-104.2
 20
-27.5513
 11
-104.33
 21
-27.3838
  0
LINE
  8
0
 10
-104.33
 20
-27.3838
 11
-104.45
 21
-27.2084
  0
LINE
  8
0
 10
-104.45
 20
-27.2084
 11
-104.558
 21
-27.0259
  0
LINE
  8
0
 10
-104.558
 20
-27.0259
 11
-104.654
 21
-26.837
  0
LINE
  8
0
 10
-104.654
 20
-26.837
 11
-104.738
 21
-26.6424
  0
LINE
  8
0
 10
-104.738
 20
-26.6424
 11
-104.81
 21
-26.4429
  0
LINE
  8
0
 10
-104.81
 20
-26.4429
 11
-104.869
 21
-26.2393
  0
LINE
  8
0
 10
-104.869
 20
-26.2393
 11
-104.915
 21
-26.0324
  0
LINE
  8
0
 10
-104.915
 20
-26.0324
 11
-104.948
 21
-25.823
  0
LINE
  8
0
 10
-104.948
 20
-25.823
 11
-104.968
 21
-25.6119
  0
LINE
  8
0
 10
-104.968
 20
-25.6119
 11
-104.975
 21
-25.4
  0
LINE
  8
0
 10
-104.975
 20
-25.4
 11
-104.968
 21
-25.1881
  0
LINE
  8
0
 10
-104.968
 20
-25.1881
 11
-104.948
 21
-24.977
  0
LINE
  8
0
 10
-104.948
 20
-24.977
 11
-104.915
 21
-24.7676
  0
LINE
  8
0
 10
-104.915
 20
-24.7676
 11
-104.869
 21
-24.5607
  0
LINE
  8
0
 10
-104.869
 20
-24.5607
 11
-104.81
 21
-24.3571
  0
LINE
  8
0
 10
-104.81
 20
-24.3571
 11
-104.738
 21
-24.1576
  0
LINE
  8
0
 10
-104.738
 20
-24.1576
 11
-104.654
 21
-23.963
  0
LINE
  8
0
 10
-104.654
 20
-23.963
 11
-104.558
 21
-23.7741
  0
LINE
  8
0
 10
-104.558
 20
-23.7741
 11
-104.45
 21
-23.5916
  0
LINE
  8
0
 10
-104.45
 20
-23.5916
 11
-104.33
 21
-23.4162
  0
LINE
  8
0
 10
-104.33
 20
-23.4162
 11
-104.2
 21
-23.2487
  0
LINE
  8
0
 10
-104.2
 20
-23.2487
 11
-104.06
 21
-23.0896
  0
LINE
  8
0
 10
-104.06
 20
-23.0896
 11
-103.91
 21
-22.9397
  0
LINE
  8
0
 10
-103.91
 20
-22.9397
 11
-103.751
 21
-22.7995
  0
LINE
  8
0
 10
-103.751
 20
-22.7995
 11
-103.584
 21
-22.6696
  0
LINE
  8
0
 10
-103.584
 20
-22.6696
 11
-103.408
 21
-22.5504
  0
LINE
  8
0
 10
-103.408
 20
-22.5504
 11
-103.226
 21
-22.4425
  0
LINE
  8
0
 10
-103.226
 20
-22.4425
 11
-103.037
 21
-22.3462
  0
LINE
  8
0
 10
-103.037
 20
-22.3462
 11
-102.842
 21
-22.262
  0
LINE
  8
0
 10
-102.842
 20
-22.262
 11
-102.643
 21
-22.1902
  0
LINE
  8
0
 10
-102.643
 20
-22.1902
 11
-102.439
 21
-22.131
  0
LINE
  8
0
 10
-102.439
 20
-22.131
 11
-102.232
 21
-22.0848
  0
LINE
  8
0
 10
-102.232
 20
-22.0848
 11
-102.023
 21
-22.0516
  0
LINE
  8
0
 10
-102.023
 20
-22.0516
 11
-101.812
 21
-22.0316
  0
LINE
  8
0
 10
-101.812
 20
-22.0316
 11
-101.6
 21
-22.025
  0
LINE
  8
0
 10
-101.6
 20
-22.025
 11
-101.388
 21
-22.0316
  0
LINE
  8
0
 10
-101.388
 20
-22.0316
 11
-101.177
 21
-22.0516
  0
LINE
  8
0
 10
-101.177
 20
-22.0516
 11
-100.968
 21
-22.0848
  0
LINE
  8
0
 10
-100.968
 20
-22.0848
 11
-100.761
 21
-22.131
  0
LINE
  8
0
 10
-100.761
 20
-22.131
 11
-100.557
 21
-22.1902
  0
LINE
  8
0
 10
-100.557
 20
-22.1902
 11
-100.358
 21
-22.262
  0
LINE
  8
0
 10
-100.358
 20
-22.262
 11
-100.163
 21
-22.3462
  0
LINE
  8
0
 10
-100.163
 20
-22.3462
 11
-99.9741
 21
-22.4425
  0
LINE
  8
0
 10
-99.9741
 20
-22.4425
 11
-99.7916
 21
-22.5504
  0
LINE
  8
0
 10
-99.7916
 20
-22.5504
 11
-99.6162
 21
-22.6696
  0
LINE
  8
0
 10
-99.6162
 20
-22.6696
 11
-99.4487
 21
-22.7995
  0
LINE
  8
0
 10
-99.4487
 20
-22.7995
 11
-99.2896
 21
-22.9397
  0
LINE
  8
0
 10
-99.2896
 20
-22.9397
 11
-99.1397
 21
-23.0896
  0
LINE
  8
0
 10
-99.1397
 20
-23.0896
 11
-98.9995
 21
-23.2487
  0
LINE
  8
0
 10
-98.9995
 20
-23.2487
 11
-98.8696
 21
-23.4162
  0
LINE
  8
0
 10
-98.8696
 20
-23.4162
 11
-98.7504
 21
-23.5916
  0
LINE
  8
0
 10
-98.7504
 20
-23.5916
 11
-98.6425
 21
-23.7741
  0
LINE
  8
0
 10
-98.6425
 20
-23.7741
 11
-98.5462
 21
-23.963
  0
LINE
  8
0
 10
-98.5462
 20
-23.963
 11
-98.462
 21
-24.1576
  0
LINE
  8
0
 10
-98.462
 20
-24.1576
 11
-98.3902
 21
-24.3571
  0
LINE
  8
0
 10
-98.3902
 20
-24.3571
 11
-98.331
 21
-24.5607
  0
LINE
  8
0
 10
-98.331
 20
-24.5607
 11
-98.2848
 21
-24.7676
  0
LINE
  8
0
 10
-98.2848
 20
-24.7676
 11
-98.2516
 21
-24.977
  0
LINE
  8
0
 10
-98.2516
 20
-24.977
 11
-98.2317
 21
-25.1881
  0
LINE
  8
0
 10
-98.2317
 20
-25.1881
 11
-98.225
 21
-25.4
  0
LINE
  8
0
 10
-98.225
 20
-25.4
 11
-98.2317
 21
-25.6119
  0
LINE
  8
0
 10
-98.2317
 20
-25.6119
 11
-98.2516
 21
-25.823
  0
LINE
  8
0
 10
-98.2516
 20
-25.823
 11
-98.2848
 21
-26.0324
  0
LINE
  8
0
 10
-98.2848
 20
-26.0324
 11
-98.331
 21
-26.2393
  0
LINE
  8
0
 10
-98.331
 20
-26.2393
 11
-98.3902
 21
-26.4429
  0
LINE
  8
0
 10
-98.3902
 20
-26.4429
 11
-98.462
 21
-26.6424
  0
LINE
  8
0
 10
-98.462
 20
-26.6424
 11
-98.5462
 21
-26.837
  0
LINE
  8
0
 10
-98.5462
 20
-26.837
 11
-98.6425
 21
-27.0259
  0
LINE
  8
0
 10
-98.6425
 20
-27.0259
 11
-98.7504
 21
-27.2084
  0
LINE
  8
0
 10
-98.7504
 20
-27.2084
 11
-98.8696
 21
-27.3838
  0
LINE
  8
0
 10
-98.8696
 20
-27.3838
 11
-98.9995
 21
-27.5513
  0
LINE
  8
0
 10
-98.9995
 20
-27.5513
 11
-99.1397
 21
-27.7103
  0
LINE
  8
0
 10
-99.1397
 20
-27.7103
 11
-99.2896
 21
-27.8603
  0
LINE
  8
0
 10
-99.2896
 20
-27.8603
 11
-99.4487
 21
-28.0005
  0
LINE
  8
0
 10
-99.4487
 20
-28.0005
 11
-99.6162
 21
-28.1304
  0
LINE
  8
0
 10
-99.6162
 20
-28.1304
 11
-99.7916
 21
-28.2496
  0
LINE
  8
0
 10
-99.7916
 20
-28.2496
 11
-99.9741
 21
-28.3575
  0
LINE
  8
0
 10
-99.9741
 20
-28.3575
 11
-100.163
 21
-28.4538
  0
LINE
  8
0
 10
-100.163
 20
-28.4538
 11
-100.358
 21
-28.538
  0
LINE
  8
0
 10
-100.358
 20
-28.538
 11
-100.557
 21
-28.6098
  0
LINE
  8
0
 10
-100.557
 20
-28.6098
 11
-100.761
 21
-28.669
  0
LINE
  8
0
 10
-100.761
 20
-28.669
 11
-100.968
 21
-28.7152
  0
LINE
  8
0
 10
-100.968
 20
-28.7152
 11
-101.177
 21
-28.7484
  0
LINE
  8
0
 10
-101.177
 20
-28.7484
 11
-101.388
 21
-28.7683
  0
LINE
  8
0
 10
-101.388
 20
-28.7683
 11
-101.6
 21
-28.775
  0
LINE
  8
0
 10
-101.6
 20
-28.775
 11
-101.812
 21
-28.7683
  0
LINE
  8
0
 10
114.3
 20
-101.59
 11
107.96
 21
-101.59
  0
LINE
  8
0
 10
107.96
 20
-101.59
 11
107.96
 21
-88.89
  0
LINE
  8
0
 10
107.96
 20
-88.89
 11
114.3
 21
-88.89
  0
LINE
  8
0
 10
114.3
 20
-88.89
 11
114.3
 21
-76.19
  0
LINE
  8
0
 10
114.3
 20
-76.19
 11
107.96
 21
-76.19
  0
LINE
  8
0
 10
107.96
 20
-76.19
 11
107.96
 21
-63.49
  0
LINE
  8
0
 10
107.96
 20
-63.49
 11
114.3
 21
-63.49
  0
LINE
  8
0
 10
114.3
 20
-63.49
 11
114.3
 21
-50.79
  0
LINE
  8
0
 10
114.3
 20
-50.79
 11
107.96
 21
-50.79
  0
LINE
  8
0
 10
107.96
 20
-50.79
 11
107.96
 21
-44.44
  0
LINE
  8
0
 10
107.96
 20
-44.44
 11
101.6
 21
-44.44
  0
LINE
  8
0
 10
101.6
 20
-44.44
 11
101.6
 21
-38.1
  0
LINE
  8
0
 10
101.6
 20
-38.1
 11
88.9
 21
-38.1
  0
LINE
  8
0
 10
88.9
 20
-38.1
 11
88.9
 21
-44.44
  0
LINE
  8
0
 10
88.9
 20
-44.44
 11
76.2
 21
-44.44
  0
LINE
  8
0
 10
76.2
 20
-44.44
 11
76.2
 21
-38.1
  0
LINE
  8
0
 10
76.2
 20
-38.1
 11
63.5
 21
-38.1
  0
LINE
  8
0
 10
63.5
 20
-38.1
 11
63.5
 21
-44.44
  0
LINE
  8
0
 10
63.5
 20
-44.44
 11
50.8
 21
-44.44
  0
LINE
  8
0
 10
50.8
 20
-44.44
 11
50.8
 21
-38.1
  0
LINE
  8
0
 10
50.8
 20
-38.1
 11
38.1
 21
-38.1
  0
LINE
  8
0
 10
38.1
 20
-38.1
 11
38.1
 21
-44.44
  0
LINE
  8
0
 10
38.1
 20
-44.44
 11
25.4
 21
-44.44
  0
LINE
  8
0
 10
25.4
 20
-44.44
 11
25.4
 21
-38.1
  0
LINE
  8
0
 10
25.4
 20
-38.1
 11
12.7
 21
-38.1
  0
LINE
  8
0
 10
12.7
 20
-38.1
 11
12.7
 21
-44.44
  0
LINE
  8
0
 10
12.7
 20
-44.44
 11
0
 21
-44.44
  0
LINE
  8
0
 10
0
 20
-44.44
 11
0
 21
-38.1
  0
LINE
  8
0
 10
0
 20
-38.1
 11
-12.7
 21
-38.1
  0
LINE
  8
0
 10
-12.7
 20
-38.1
 11
-12.7
 21
-44.44
  0
LINE
  8
0
 10
-12.7
 20
-44.44
 11
-25.4
 21
-44.44
  0
LINE
  8
0
 10
-25.4
 20
-44.44
 11
-25.4
 21
-38.1
  0
LINE
  8
0
 10
-25.4
 20
-38.1
 11
-38.1
 21
-38.1
  0
LINE
  8
0
 10
-38.1
 20
-38.1
 11
-38.1
 21
-44.44
  0
LINE
  8
0
 10
-38.1
 20
-44.44
 11
-50.8
 21
-44.44
  0
LINE
  8
0
 10
-50.8
 20
-44.44
 11
-50.8
 21
-38.1
  0
LINE
  8
0
 10
-50.8
 20
-38.1
 11
-63.5
 21
-38.1
  0
LINE
  8
0
 10
-63.5
 20
-38.1
 11
-63.5
 21
-44.44
  0
LINE
  8
0
 10
-63.5
 20
-44.44
 11
-76.2
 21
-44.44
  0
LINE
  8
0
 10
-76.2
 20
-44.44
 11
-76.2
 21
-38.1
  0
LINE
  8
0
 10
-76.2
 20
-38.1
 11
-88.9
 21
-38.1
  0
LINE
  8
0
 10
-88.9
 20
-38.1
 11
-88.9
 21
-114.3
  0
LINE
  8
0
 10
-88.9
 20
-114.3
 11
114.3
 21
-114.3
  0
LINE
  8
0
 10
114.3
 20
-114.3
 11
114.3
 21
-101.59
  0
ENDSEC
  0
SECTION
  2
OBJECTS
  0
DICTIONARY
  0
ENDSEC
  0
EOF
