  0
SECTION
  2
HEADER
  9
$ACADVER
  1
AC1009
  9
$DWGCODEPAGE
  3
ANSI_1252
  9
$INSBASE
 10
0.0
 20
0.0
 30
0.0
  9
$EXTMIN
 10
1e+20
 20
1e+20
 30
1e+20
  9
$EXTMAX
 10
-1e+20
 20
-1e+20
 30
-1e+20
  9
$LIMMIN
 10
0.0
 20
0.0
  9
$LIMMAX
 10
420.0
 20
297.0
  9
$ORTHOMODE
 70
0
  9
$REGENMODE
 70
1
  9
$FILLMODE
 70
1
  9
$DRAGMODE
 70
2
  9
$QTEXTMODE
 70
0
  9
$MIRRTEXT
 70
1
  9
$OSMODE
 70
20583
  9
$LTSCALE
 40
1.0
  9
$ATTMODE
 70
1
  9
$TEXTSIZE
 40
2.5
  9
$TRACEWID
 40
1.0
  9
$TEXTSTYLE
  7
Standard
  9
$CLAYER
  8
0
  9
$CELTYPE
  6
ByLayer
  9
$CECOLOR
 62
256
  9
$DIMSCALE
 40
1.0
  9
$DIMASZ
 40
2.5
  9
$DIMEXO
 40
0.625
  9
$DIMDLI
 40
3.75
  9
$DIMRND
 40
0.0
  9
$DIMDLE
 40
0.0
  9
$DIMEXE
 40
1.25
  9
$DIMTP
 40
0.0
  9
$DIMTM
 40
0.0
  9
$DIMTXT
 40
2.5
  9
$DIMCEN
 40
2.5
  9
$DIMTSZ
 40
0.0
  9
$DIMTOL
 70
0
  9
$DIMLIM
 70
0
  9
$DIMTIH
 70
0
  9
$DIMTOH
 70
0
  9
$DIMSE1
 70
0
  9
$DIMSE2
 70
0
  9
$DIMTAD
 70
1
  9
$DIMZIN
 70
8
  9
$DIMBLK
  1

  9
$DIMASO
 70
1
  9
$DIMSHO
 70
1
  9
$DIMPOST
  1

  9
$DIMAPOST
  1

  9
$DIMALT
 70
0
  9
$DIMALTD
 70
3
  9
$DIMALTF
 40
0.03937007874
  9
$DIMLFAC
 40
1.0
  9
$DIMTOFL
 70
1
  9
$DIMTVP
 40
0.0
  9
$DIMTIX
 70
0
  9
$DIMSOXD
 70
0
  9
$DIMSAH
 70
0
  9
$DIMBLK1
  1

  9
$DIMBLK2
  1

  9
$DIMSTYLE
  2
ISO-25
  9
$DIMCLRD
 70
0
  9
$DIMCLRE
 70
0
  9
$DIMCLRT
 70
0
  9
$DIMTFAC
 40
1.0
  9
$DIMGAP
 40
0.625
  9
$COORDS
 70
1
  9
$ATTDIA
 70
0
  9
$ATTREQ
 70
1
  9
$HANDLING
 70
1
  9
$LUNITS
 70
2
  9
$LUPREC
 70
4
  9
$SKETCHINC
 40
1.0
  9
$FILLETRAD
 40
10.0
  9
$AUNITS
 70
0
  9
$AUPREC
 70
2
  9
$MENU
  1
.
  9
$ELEVATION
 40
0.0
  9
$PELEVATION
 40
0.0
  9
$THICKNESS
 40
0.0
  9
$LIMCHECK
 70
0
  9
$CHAMFERA
 40
0.0
  9
$CHAMFERB
 40
0.0
  9
$SKPOLY
 70
0
  9
$TDCREATE
 40
2461279.426712963
  9
$TDUPDATE
 40
2461279.426712963
  9
$TDINDWG
 40
0.0
  9
$TDUSRTIMER
 40
0.0
  9
$USRTIMER
 70
1
  9
$ANGBASE
 50
0.0
  9
$ANGDIR
 70
0
  9
$PDMODE
 70
0
  9
$PDSIZE
 40
0.0
  9
$PLINEWID
 40
0.0
  9
$SPLFRAME
 70
0
  9
$SPLINETYPE
 70
6
  9
$SPLINESEGS
 70
8
  9
$HANDSEED
  5
4BF
  9
$SURFTAB1
 70
6
  9
$SURFTAB2
 70
6
  9
$SURFTYPE
 70
6
  9
$SURFU
 70
6
  9
$SURFV
 70
6
  9
$UCSNAME
  2

  9
$UCSORG
 10
0.0
 20
0.0
 30
0.0
  9
$UCSXDIR
 10
1.0
 20
0.0
 30
0.0
  9
$UCSYDIR
 10
0.0
 20
1.0
 30
0.0
  9
$PUCSNAME
  2

  9
$PUCSORG
 10
0.0
 20
0.0
 30
0.0
  9
$PUCSXDIR
 10
1.0
 20
0.0
 30
0.0
  9
$PUCSYDIR
 10
0.0
 20
1.0
 30
0.0
  9
$USERI1
 70
0
  9
$USERI2
 70
0
  9
$USERI3
 70
0
  9
$USERI4
 70
0
  9
$USERI5
 70
0
  9
$USERR1
 40
0.0
  9
$USERR2
 40
0.0
  9
$USERR3
 40
0.0
  9
$USERR4
 40
0.0
  9
$USERR5
 40
0.0
  9
$WORLDVIEW
 70
1
  9
$SHADEDGE
 70
3
  9
$SHADEDIF
 70
70
  9
$TILEMODE
 70
1
  9
$MAXACTVP
 70
64
  9
$PLIMCHECK
 70
0
  9
$PEXTMIN
 10
1e+20
 20
1e+20
 30
1e+20
  9
$PEXTMAX
 10
-1e+20
 20
-1e+20
 30
-1e+20
  9
$PLIMMIN
 10
0.0
 20
0.0
  9
$PLIMMAX
 10
420.0
 20
297.0
  9
$UNITMODE
 70
0
  9
$VISRETAIN
 70
1
  9
$PLINEGEN
 70
0
  9
$PSLTSCALE
 70
1
  0
ENDSEC
  0
SECTION
  2
TABLES
  0
TABLE
  2
VPORT
 70
1
  0
VPORT
  5
4B3
  2
*Active
 70
0
 10
0.0
 20
0.0
 11
1.0
 21
1.0
 12
0.0
 22
0.0
 13
0.0
 23
0.0
 14
0.5
 24
0.5
 15
0.5
 25
0.5
 16
0.0
 26
0.0
 36
1.0
 17
0.0
 27
0.0
 37
0.0
 40
1000.0
 41
1.34
 42
50.0
 43
0.0
 44
0.0
 50
0.0
 51
0.0
 71
0
 72
1000
 73
1
 74
3
 75
0
 76
0
 77
0
 78
0
  0
ENDTAB
  0
TABLE
  2
LTYPE
 70
3
  0
LTYPE
  5
4B4
  2
ByBlock
 70
0
  3

 72
65
 73
0
 40
0.0
  0
LTYPE
  5
4B5
  2
ByLayer
 70
0
  3

 72
65
 73
0
 40
0.0
  0
LTYPE
  5
4B6
  2
Continuous
 70
0
  3

 72
65
 73
0
 40
0.0
  0
ENDTAB
  0
TABLE
  2
LAYER
 70
2
  0
LAYER
  5
4B7
  2
0
 70
0
 62
1
  6
Continuous
  0
LAYER
  5
4B8
  2
Defpoints
 70
0
 62
7
  6
Continuous
  0
ENDTAB
  0
TABLE
  2
STYLE
 70
1
  0
STYLE
  5
4B9
  2
Standard
 70
0
 40
0.0
 41
1.0
 50
0.0
 71
0
 42
2.5
  3
txt
  4

  0
ENDTAB
  0
TABLE
  2
VIEW
 70
0
  0
ENDTAB
  0
TABLE
  2
UCS
 70
0
  0
ENDTAB
  0
TABLE
  2
APPID
 70
3
  0
APPID
  5
4BA
  2
ACAD
 70
0
  0
APPID
  5
4BD
  2
HATCHBACKGROUNDCOLOR
 70
0
  0
APPID
  5
4BE
  2
EZDXF
 70
0
  0
ENDTAB
  0
TABLE
  2
DIMSTYLE
 70
1
  0
DIMSTYLE
105
4BB
  2
Standard
 70
0
  3

  4

  5

  6

  7

 40
1.0
 41
2.5
 42
0.625
 43
3.75
 44
1.25
 45
0.0
 46
0.0
 47
0.0
 48
0.0
140
2.5
141
2.5
142
0.0
143
0.03937007874
144
1.0
145
0.0
146
1.0
147
0.625
 71
0
 72
0
 73
0
 74
0
 75
0
 76
0
 77
1
 78
8
170
0
171
3
172
1
173
0
174
0
175
0
176
0
177
0
178
0
  0
ENDTAB
  0
ENDSEC
  0
SECTION
  2
BLOCKS
  0
BLOCK
  5
494
  8
0
  2
$Model_Space
 70
0
 10
0.0
 20
0.0
 30
0.0
  3
$Model_Space
  1

1001
EZDXF
1000
WRITTEN_BY_EZDXF
1000
1.4.4 @ 2026-08-26T14:14:28.489473+00:00
  0
ENDBLK
  5
495
  8
0
  0
BLOCK
  5
496
  8
0
  2
$Paper_Space
 70
0
 10
0.0
 20
0.0
 30
0.0
  3
$Paper_Space
  1

  0
ENDBLK
  5
497
  8
0
  0
ENDSEC
  0
SECTION
  2
ENTITIES
  0
LINE
  5
100
  8
0
 62
1
 10
-88.9
 20
67.5
 30
0.0
 11
-88.9
 21
-67.5
 31
0.0
  0
LINE
  5
101
  8
0
 62
1
 10
-88.9
 20
-67.5
 30
0.0
 11
88.9
 21
-67.5
 31
0.0
  0
LINE
  5
102
  8
0
 62
1
 10
88.9
 20
-67.5
 30
0.0
 11
88.9
 21
67.5
 31
0.0
  0
LINE
  5
103
  8
0
 62
1
 10
88.9
 20
67.5
 30
0.0
 11
-88.9
 21
67.5
 31
0.0
  0
LINE
  5
104
  8
0
 62
1
 10
-44.8782
 20
3.17499
 30
0.0
 11
-44.6452
 21
5.63998
 31
0.0
  0
LINE
  5
105
  8
0
 62
1
 10
-44.6452
 20
5.63998
 30
0.0
 11
-44.2029
 21
8.43214
 31
0.0
  0
LINE
  5
106
  8
0
 62
1
 10
-44.2029
 20
8.43214
 30
0.0
 11
-43.5862
 21
11.191
 31
0.0
  0
LINE
  5
107
  8
0
 62
1
 10
-43.5862
 20
11.191
 30
0.0
 11
-42.7975
 21
13.9058
 31
0.0
  0
LINE
  5
108
  8
0
 62
1
 10
-42.7975
 20
13.9058
 30
0.0
 11
-41.8399
 21
16.5656
 31
0.0
  0
LINE
  5
109
  8
0
 62
1
 10
-41.8399
 20
16.5656
 30
0.0
 11
-40.7172
 21
19.1601
 31
0.0
  0
LINE
  5
10A
  8
0
 62
1
 10
-40.7172
 20
19.1601
 30
0.0
 11
-39.4338
 21
21.6789
 31
0.0
  0
LINE
  5
10B
  8
0
 62
1
 10
-39.4338
 20
21.6789
 30
0.0
 11
-37.9948
 21
24.1122
 31
0.0
  0
LINE
  5
10C
  8
0
 62
1
 10
-37.9948
 20
24.1122
 30
0.0
 11
-36.4058
 21
26.4503
 31
0.0
  0
LINE
  5
10D
  8
0
 62
1
 10
-36.4058
 20
26.4503
 30
0.0
 11
-34.6731
 21
28.6841
 31
0.0
  0
LINE
  5
10E
  8
0
 62
1
 10
-34.6731
 20
28.6841
 30
0.0
 11
-32.8036
 21
30.8046
 31
0.0
  0
LINE
  5
10F
  8
0
 62
1
 10
-32.8036
 20
30.8046
 30
0.0
 11
-30.8046
 21
32.8036
 31
0.0
  0
LINE
  5
110
  8
0
 62
1
 10
-30.8046
 20
32.8036
 30
0.0
 11
-28.6841
 21
34.6731
 31
0.0
  0
LINE
  5
111
  8
0
 62
1
 10
-28.6841
 20
34.6731
 30
0.0
 11
-26.4503
 21
36.4058
 31
0.0
  0
LINE
  5
112
  8
0
 62
1
 10
-26.4503
 20
36.4058
 30
0.0
 11
-24.1122
 21
37.9948
 31
0.0
  0
LINE
  5
113
  8
0
 62
1
 10
-24.1122
 20
37.9948
 30
0.0
 11
-21.6789
 21
39.4338
 31
0.0
  0
LINE
  5
114
  8
0
 62
1
 10
-21.6789
 20
39.4338
 30
0.0
 11
-19.1601
 21
40.7172
 31
0.0
  0
LINE
  5
115
  8
0
 62
1
 10
-19.1601
 20
40.7172
 30
0.0
 11
-16.5656
 21
41.8399
 31
0.0
  0
LINE
  5
116
  8
0
 62
1
 10
-16.5656
 20
41.8399
 30
0.0
 11
-13.9058
 21
42.7975
 31
0.0
  0
LINE
  5
117
  8
0
 62
1
 10
-13.9058
 20
42.7975
 30
0.0
 11
-11.191
 21
43.5862
 31
0.0
  0
LINE
  5
118
  8
0
 62
1
 10
-11.191
 20
43.5862
 30
0.0
 11
-8.43214
 21
44.2029
 31
0.0
  0
LINE
  5
119
  8
0
 62
1
 10
-8.43214
 20
44.2029
 30
0.0
 11
-5.63998
 21
44.6452
 31
0.0
  0
LINE
  5
11A
  8
0
 62
1
 10
-5.63998
 20
44.6452
 30
0.0
 11
-3.17499
 21
44.8782
 31
0.0
  0
LINE
  5
11B
  8
0
 62
1
 10
-3.17499
 20
44.8782
 30
0.0
 11
-3.17499
 21
3.17499
 31
0.0
  0
LINE
  5
11C
  8
0
 62
1
 10
-3.17499
 20
3.17499
 30
0.0
 11
-44.8782
 21
3.17499
 31
0.0
  0
LINE
  5
11D
  8
0
 62
1
 10
3.17499
 20
3.17499
 30
0.0
 11
3.17499
 21
44.8782
 31
0.0
  0
LINE
  5
11E
  8
0
 62
1
 10
3.17499
 20
44.8782
 30
0.0
 11
5.63998
 21
44.6452
 31
0.0
  0
LINE
  5
11F
  8
0
 62
1
 10
5.63998
 20
44.6452
 30
0.0
 11
8.43214
 21
44.2029
 31
0.0
  0
LINE
  5
120
  8
0
 62
1
 10
8.43214
 20
44.2029
 30
0.0
 11
11.191
 21
43.5862
 31
0.0
  0
LINE
  5
121
  8
0
 62
1
 10
11.191
 20
43.5862
 30
0.0
 11
13.9058
 21
42.7975
 31
0.0
  0
LINE
  5
122
  8
0
 62
1
 10
13.9058
 20
42.7975
 30
0.0
 11
16.5656
 21
41.8399
 31
0.0
  0
LINE
  5
123
  8
0
 62
1
 10
16.5656
 20
41.8399
 30
0.0
 11
19.1601
 21
40.7172
 31
0.0
  0
LINE
  5
124
  8
0
 62
1
 10
19.1601
 20
40.7172
 30
0.0
 11
21.6789
 21
39.4338
 31
0.0
  0
LINE
  5
125
  8
0
 62
1
 10
21.6789
 20
39.4338
 30
0.0
 11
24.1122
 21
37.9948
 31
0.0
  0
LINE
  5
126
  8
0
 62
1
 10
24.1122
 20
37.9948
 30
0.0
 11
26.4503
 21
36.4058
 31
0.0
  0
LINE
  5
127
  8
0
 62
1
 10
26.4503
 20
36.4058
 30
0.0
 11
28.6841
 21
34.6731
 31
0.0
  0
LINE
  5
128
  8
0
 62
1
 10
28.6841
 20
34.6731
 30
0.0
 11
30.8046
 21
32.8036
 31
0.0
  0
LINE
  5
129
  8
0
 62
1
 10
30.8046
 20
32.8036
 30
0.0
 11
32.8036
 21
30.8046
 31
0.0
  0
LINE
  5
12A
  8
0
 62
1
 10
32.8036
 20
30.8046
 30
0.0
 11
34.6731
 21
28.6841
 31
0.0
  0
LINE
  5
12B
  8
0
 62
1
 10
34.6731
 20
28.6841
 30
0.0
 11
36.4058
 21
26.4503
 31
0.0
  0
LINE
  5
12C
  8
0
 62
1
 10
36.4058
 20
26.4503
 30
0.0
 11
37.9948
 21
24.1122
 31
0.0
  0
LINE
  5
12D
  8
0
 62
1
 10
37.9948
 20
24.1122
 30
0.0
 11
39.4338
 21
21.6789
 31
0.0
  0
LINE
  5
12E
  8
0
 62
1
 10
39.4338
 20
21.6789
 30
0.0
 11
40.7172
 21
19.1601
 31
0.0
  0
LINE
  5
12F
  8
0
 62
1
 10
40.7172
 20
19.1601
 30
0.0
 11
41.8399
 21
16.5656
 31
0.0
  0
LINE
  5
130
  8
0
 62
1
 10
41.8399
 20
16.5656
 30
0.0
 11
42.7975
 21
13.9058
 31
0.0
  0
LINE
  5
131
  8
0
 62
1
 10
42.7975
 20
13.9058
 30
0.0
 11
43.5862
 21
11.191
 31
0.0
  0
LINE
  5
132
  8
0
 62
1
 10
43.5862
 20
11.191
 30
0.0
 11
44.2029
 21
8.43214
 31
0.0
  0
LINE
  5
133
  8
0
 62
1
 10
44.2029
 20
8.43214
 30
0.0
 11
44.6452
 21
5.63998
 31
0.0
  0
LINE
  5
134
  8
0
 62
1
 10
44.6452
 20
5.63998
 30
0.0
 11
44.8782
 21
3.17499
 31
0.0
  0
LINE
  5
135
  8
0
 62
1
 10
44.8782
 20
3.17499
 30
0.0
 11
3.17499
 21
3.17499
 31
0.0
  0
LINE
  5
136
  8
0
 62
1
 10
41.1009
 20
38.8797
 30
0.0
 11
40.9523
 21
38.8937
 31
0.0
  0
LINE
  5
137
  8
0
 62
1
 10
40.9523
 20
38.8937
 30
0.0
 11
40.805
 21
38.9171
 31
0.0
  0
LINE
  5
138
  8
0
 62
1
 10
40.805
 20
38.9171
 30
0.0
 11
40.6593
 21
38.9496
 31
0.0
  0
LINE
  5
139
  8
0
 62
1
 10
40.6593
 20
38.9496
 30
0.0
 11
40.5161
 21
38.9912
 31
0.0
  0
LINE
  5
13A
  8
0
 62
1
 10
40.5161
 20
38.9912
 30
0.0
 11
40.3757
 21
39.0418
 31
0.0
  0
LINE
  5
13B
  8
0
 62
1
 10
40.3757
 20
39.0418
 30
0.0
 11
40.2388
 21
39.101
 31
0.0
  0
LINE
  5
13C
  8
0
 62
1
 10
40.2388
 20
39.101
 30
0.0
 11
40.1058
 21
39.1688
 31
0.0
  0
LINE
  5
13D
  8
0
 62
1
 10
40.1058
 20
39.1688
 30
0.0
 11
39.9774
 21
39.2447
 31
0.0
  0
LINE
  5
13E
  8
0
 62
1
 10
39.9774
 20
39.2447
 30
0.0
 11
39.854
 21
39.3286
 31
0.0
  0
LINE
  5
13F
  8
0
 62
1
 10
39.854
 20
39.3286
 30
0.0
 11
39.7361
 21
39.42
 31
0.0
  0
LINE
  5
140
  8
0
 62
1
 10
39.7361
 20
39.42
 30
0.0
 11
39.6242
 21
39.5187
 31
0.0
  0
LINE
  5
141
  8
0
 62
1
 10
39.6242
 20
39.5187
 30
0.0
 11
39.5187
 21
39.6242
 31
0.0
  0
LINE
  5
142
  8
0
 62
1
 10
39.5187
 20
39.6242
 30
0.0
 11
39.42
 21
39.7361
 31
0.0
  0
LINE
  5
143
  8
0
 62
1
 10
39.42
 20
39.7361
 30
0.0
 11
39.3286
 21
39.854
 31
0.0
  0
LINE
  5
144
  8
0
 62
1
 10
39.3286
 20
39.854
 30
0.0
 11
39.2447
 21
39.9774
 31
0.0
  0
LINE
  5
145
  8
0
 62
1
 10
39.2447
 20
39.9774
 30
0.0
 11
39.1688
 21
40.1058
 31
0.0
  0
LINE
  5
146
  8
0
 62
1
 10
39.1688
 20
40.1058
 30
0.0
 11
39.101
 21
40.2388
 31
0.0
  0
LINE
  5
147
  8
0
 62
1
 10
39.101
 20
40.2388
 30
0.0
 11
39.0418
 21
40.3757
 31
0.0
  0
LINE
  5
148
  8
0
 62
1
 10
39.0418
 20
40.3757
 30
0.0
 11
38.9912
 21
40.5161
 31
0.0
  0
LINE
  5
149
  8
0
 62
1
 10
38.9912
 20
40.5161
 30
0.0
 11
38.9496
 21
40.6593
 31
0.0
  0
LINE
  5
14A
  8
0
 62
1
 10
38.9496
 20
40.6593
 30
0.0
 11
38.9171
 21
40.805
 31
0.0
  0
LINE
  5
14B
  8
0
 62
1
 10
38.9171
 20
40.805
 30
0.0
 11
38.8937
 21
40.9523
 31
0.0
  0
LINE
  5
14C
  8
0
 62
1
 10
38.8937
 20
40.9523
 30
0.0
 11
38.8797
 21
41.1009
 31
0.0
  0
LINE
  5
14D
  8
0
 62
1
 10
38.8797
 20
41.1009
 30
0.0
 11
38.875
 21
41.25
 31
0.0
  0
LINE
  5
14E
  8
0
 62
1
 10
38.875
 20
41.25
 30
0.0
 11
38.8797
 21
41.3991
 31
0.0
  0
LINE
  5
14F
  8
0
 62
1
 10
38.8797
 20
41.3991
 30
0.0
 11
38.8937
 21
41.5477
 31
0.0
  0
LINE
  5
150
  8
0
 62
1
 10
38.8937
 20
41.5477
 30
0.0
 11
38.9171
 21
41.695
 31
0.0
  0
LINE
  5
151
  8
0
 62
1
 10
38.9171
 20
41.695
 30
0.0
 11
38.9496
 21
41.8406
 31
0.0
  0
LINE
  5
152
  8
0
 62
1
 10
38.9496
 20
41.8406
 30
0.0
 11
38.9912
 21
41.9839
 31
0.0
  0
LINE
  5
153
  8
0
 62
1
 10
38.9912
 20
41.9839
 30
0.0
 11
39.0418
 21
42.1243
 31
0.0
  0
LINE
  5
154
  8
0
 62
1
 10
39.0418
 20
42.1243
 30
0.0
 11
39.101
 21
42.2612
 31
0.0
  0
LINE
  5
155
  8
0
 62
1
 10
39.101
 20
42.2612
 30
0.0
 11
39.1688
 21
42.3941
 31
0.0
  0
LINE
  5
156
  8
0
 62
1
 10
39.1688
 20
42.3941
 30
0.0
 11
39.2447
 21
42.5226
 31
0.0
  0
LINE
  5
157
  8
0
 62
1
 10
39.2447
 20
42.5226
 30
0.0
 11
39.3286
 21
42.646
 31
0.0
  0
LINE
  5
158
  8
0
 62
1
 10
39.3286
 20
42.646
 30
0.0
 11
39.42
 21
42.7639
 31
0.0
  0
LINE
  5
159
  8
0
 62
1
 10
39.42
 20
42.7639
 30
0.0
 11
39.5187
 21
42.8758
 31
0.0
  0
LINE
  5
15A
  8
0
 62
1
 10
39.5187
 20
42.8758
 30
0.0
 11
39.6242
 21
42.9813
 31
0.0
  0
LINE
  5
15B
  8
0
 62
1
 10
39.6242
 20
42.9813
 30
0.0
 11
39.7361
 21
43.08
 31
0.0
  0
LINE
  5
15C
  8
0
 62
1
 10
39.7361
 20
43.08
 30
0.0
 11
39.854
 21
43.1714
 31
0.0
  0
LINE
  5
15D
  8
0
 62
1
 10
39.854
 20
43.1714
 30
0.0
 11
39.9774
 21
43.2553
 31
0.0
  0
LINE
  5
15E
  8
0
 62
1
 10
39.9774
 20
43.2553
 30
0.0
 11
40.1058
 21
43.3312
 31
0.0
  0
LINE
  5
15F
  8
0
 62
1
 10
40.1058
 20
43.3312
 30
0.0
 11
40.2388
 21
43.399
 31
0.0
  0
LINE
  5
160
  8
0
 62
1
 10
40.2388
 20
43.399
 30
0.0
 11
40.3757
 21
43.4582
 31
0.0
  0
LINE
  5
161
  8
0
 62
1
 10
40.3757
 20
43.4582
 30
0.0
 11
40.5161
 21
43.5088
 31
0.0
  0
LINE
  5
162
  8
0
 62
1
 10
40.5161
 20
43.5088
 30
0.0
 11
40.6593
 21
43.5504
 31
0.0
  0
LINE
  5
163
  8
0
 62
1
 10
40.6593
 20
43.5504
 30
0.0
 11
40.805
 21
43.5829
 31
0.0
  0
LINE
  5
164
  8
0
 62
1
 10
40.805
 20
43.5829
 30
0.0
 11
40.9523
 21
43.6063
 31
0.0
  0
LINE
  5
165
  8
0
 62
1
 10
40.9523
 20
43.6063
 30
0.0
 11
41.1009
 21
43.6203
 31
0.0
  0
LINE
  5
166
  8
0
 62
1
 10
41.1009
 20
43.6203
 30
0.0
 11
41.25
 21
43.625
 31
0.0
  0
LINE
  5
167
  8
0
 62
1
 10
41.25
 20
43.625
 30
0.0
 11
41.3991
 21
43.6203
 31
0.0
  0
LINE
  5
168
  8
0
 62
1
 10
41.3991
 20
43.6203
 30
0.0
 11
41.5477
 21
43.6063
 31
0.0
  0
LINE
  5
169
  8
0
 62
1
 10
41.5477
 20
43.6063
 30
0.0
 11
41.695
 21
43.5829
 31
0.0
  0
LINE
  5
16A
  8
0
 62
1
 10
41.695
 20
43.5829
 30
0.0
 11
41.8406
 21
43.5504
 31
0.0
  0
LINE
  5
16B
  8
0
 62
1
 10
41.8406
 20
43.5504
 30
0.0
 11
41.9839
 21
43.5088
 31
0.0
  0
LINE
  5
16C
  8
0
 62
1
 10
41.9839
 20
43.5088
 30
0.0
 11
42.1243
 21
43.4582
 31
0.0
  0
LINE
  5
16D
  8
0
 62
1
 10
42.1243
 20
43.4582
 30
0.0
 11
42.2612
 21
43.399
 31
0.0
  0
LINE
  5
16E
  8
0
 62
1
 10
42.2612
 20
43.399
 30
0.0
 11
42.3941
 21
43.3312
 31
0.0
  0
LINE
  5
16F
  8
0
 62
1
 10
42.3941
 20
43.3312
 30
0.0
 11
42.5226
 21
43.2553
 31
0.0
  0
LINE
  5
170
  8
0
 62
1
 10
42.5226
 20
43.2553
 30
0.0
 11
42.646
 21
43.1714
 31
0.0
  0
LINE
  5
171
  8
0
 62
1
 10
42.646
 20
43.1714
 30
0.0
 11
42.7639
 21
43.08
 31
0.0
  0
LINE
  5
172
  8
0
 62
1
 10
42.7639
 20
43.08
 30
0.0
 11
42.8758
 21
42.9813
 31
0.0
  0
LINE
  5
173
  8
0
 62
1
 10
42.8758
 20
42.9813
 30
0.0
 11
42.9813
 21
42.8758
 31
0.0
  0
LINE
  5
174
  8
0
 62
1
 10
42.9813
 20
42.8758
 30
0.0
 11
43.08
 21
42.7639
 31
0.0
  0
LINE
  5
175
  8
0
 62
1
 10
43.08
 20
42.7639
 30
0.0
 11
43.1714
 21
42.646
 31
0.0
  0
LINE
  5
176
  8
0
 62
1
 10
43.1714
 20
42.646
 30
0.0
 11
43.2553
 21
42.5226
 31
0.0
  0
LINE
  5
177
  8
0
 62
1
 10
43.2553
 20
42.5226
 30
0.0
 11
43.3312
 21
42.3941
 31
0.0
  0
LINE
  5
178
  8
0
 62
1
 10
43.3312
 20
42.3941
 30
0.0
 11
43.399
 21
42.2612
 31
0.0
  0
LINE
  5
179
  8
0
 62
1
 10
43.399
 20
42.2612
 30
0.0
 11
43.4582
 21
42.1243
 31
0.0
  0
LINE
  5
17A
  8
0
 62
1
 10
43.4582
 20
42.1243
 30
0.0
 11
43.5088
 21
41.9839
 31
0.0
  0
LINE
  5
17B
  8
0
 62
1
 10
43.5088
 20
41.9839
 30
0.0
 11
43.5504
 21
41.8406
 31
0.0
  0
LINE
  5
17C
  8
0
 62
1
 10
43.5504
 20
41.8406
 30
0.0
 11
43.5829
 21
41.695
 31
0.0
  0
LINE
  5
17D
  8
0
 62
1
 10
43.5829
 20
41.695
 30
0.0
 11
43.6063
 21
41.5477
 31
0.0
  0
LINE
  5
17E
  8
0
 62
1
 10
43.6063
 20
41.5477
 30
0.0
 11
43.6203
 21
41.3991
 31
0.0
  0
LINE
  5
17F
  8
0
 62
1
 10
43.6203
 20
41.3991
 30
0.0
 11
43.625
 21
41.25
 31
0.0
  0
LINE
  5
180
  8
0
 62
1
 10
43.625
 20
41.25
 30
0.0
 11
43.6203
 21
41.1009
 31
0.0
  0
LINE
  5
181
  8
0
 62
1
 10
43.6203
 20
41.1009
 30
0.0
 11
43.6063
 21
40.9523
 31
0.0
  0
LINE
  5
182
  8
0
 62
1
 10
43.6063
 20
40.9523
 30
0.0
 11
43.5829
 21
40.805
 31
0.0
  0
LINE
  5
183
  8
0
 62
1
 10
43.5829
 20
40.805
 30
0.0
 11
43.5504
 21
40.6593
 31
0.0
  0
LINE
  5
184
  8
0
 62
1
 10
43.5504
 20
40.6593
 30
0.0
 11
43.5088
 21
40.5161
 31
0.0
  0
LINE
  5
185
  8
0
 62
1
 10
43.5088
 20
40.5161
 30
0.0
 11
43.4582
 21
40.3757
 31
0.0
  0
LINE
  5
186
  8
0
 62
1
 10
43.4582
 20
40.3757
 30
0.0
 11
43.399
 21
40.2388
 31
0.0
  0
LINE
  5
187
  8
0
 62
1
 10
43.399
 20
40.2388
 30
0.0
 11
43.3312
 21
40.1058
 31
0.0
  0
LINE
  5
188
  8
0
 62
1
 10
43.3312
 20
40.1058
 30
0.0
 11
43.2553
 21
39.9774
 31
0.0
  0
LINE
  5
189
  8
0
 62
1
 10
43.2553
 20
39.9774
 30
0.0
 11
43.1714
 21
39.854
 31
0.0
  0
LINE
  5
18A
  8
0
 62
1
 10
43.1714
 20
39.854
 30
0.0
 11
43.08
 21
39.7361
 31
0.0
  0
LINE
  5
18B
  8
0
 62
1
 10
43.08
 20
39.7361
 30
0.0
 11
42.9813
 21
39.6242
 31
0.0
  0
LINE
  5
18C
  8
0
 62
1
 10
42.9813
 20
39.6242
 30
0.0
 11
42.8758
 21
39.5187
 31
0.0
  0
LINE
  5
18D
  8
0
 62
1
 10
42.8758
 20
39.5187
 30
0.0
 11
42.7639
 21
39.42
 31
0.0
  0
LINE
  5
18E
  8
0
 62
1
 10
42.7639
 20
39.42
 30
0.0
 11
42.646
 21
39.3286
 31
0.0
  0
LINE
  5
18F
  8
0
 62
1
 10
42.646
 20
39.3286
 30
0.0
 11
42.5226
 21
39.2447
 31
0.0
  0
LINE
  5
190
  8
0
 62
1
 10
42.5226
 20
39.2447
 30
0.0
 11
42.3941
 21
39.1688
 31
0.0
  0
LINE
  5
191
  8
0
 62
1
 10
42.3941
 20
39.1688
 30
0.0
 11
42.2612
 21
39.101
 31
0.0
  0
LINE
  5
192
  8
0
 62
1
 10
42.2612
 20
39.101
 30
0.0
 11
42.1243
 21
39.0418
 31
0.0
  0
LINE
  5
193
  8
0
 62
1
 10
42.1243
 20
39.0418
 30
0.0
 11
41.9839
 21
38.9912
 31
0.0
  0
LINE
  5
194
  8
0
 62
1
 10
41.9839
 20
38.9912
 30
0.0
 11
41.8406
 21
38.9496
 31
0.0
  0
LINE
  5
195
  8
0
 62
1
 10
41.8406
 20
38.9496
 30
0.0
 11
41.695
 21
38.9171
 31
0.0
  0
LINE
  5
196
  8
0
 62
1
 10
41.695
 20
38.9171
 30
0.0
 11
41.5477
 21
38.8937
 31
0.0
  0
LINE
  5
197
  8
0
 62
1
 10
41.5477
 20
38.8937
 30
0.0
 11
41.3991
 21
38.8797
 31
0.0
  0
LINE
  5
198
  8
0
 62
1
 10
41.3991
 20
38.8797
 30
0.0
 11
41.25
 21
38.875
 31
0.0
  0
LINE
  5
199
  8
0
 62
1
 10
41.25
 20
38.875
 30
0.0
 11
41.1009
 21
38.8797
 31
0.0
  0
LINE
  5
19A
  8
0
 62
1
 10
-41.3991
 20
38.8797
 30
0.0
 11
-41.5477
 21
38.8937
 31
0.0
  0
LINE
  5
19B
  8
0
 62
1
 10
-41.5477
 20
38.8937
 30
0.0
 11
-41.695
 21
38.9171
 31
0.0
  0
LINE
  5
19C
  8
0
 62
1
 10
-41.695
 20
38.9171
 30
0.0
 11
-41.8406
 21
38.9496
 31
0.0
  0
LINE
  5
19D
  8
0
 62
1
 10
-41.8406
 20
38.9496
 30
0.0
 11
-41.9839
 21
38.9912
 31
0.0
  0
LINE
  5
19E
  8
0
 62
1
 10
-41.9839
 20
38.9912
 30
0.0
 11
-42.1243
 21
39.0418
 31
0.0
  0
LINE
  5
19F
  8
0
 62
1
 10
-42.1243
 20
39.0418
 30
0.0
 11
-42.2612
 21
39.101
 31
0.0
  0
LINE
  5
1A0
  8
0
 62
1
 10
-42.2612
 20
39.101
 30
0.0
 11
-42.3941
 21
39.1688
 31
0.0
  0
LINE
  5
1A1
  8
0
 62
1
 10
-42.3941
 20
39.1688
 30
0.0
 11
-42.5226
 21
39.2447
 31
0.0
  0
LINE
  5
1A2
  8
0
 62
1
 10
-42.5226
 20
39.2447
 30
0.0
 11
-42.646
 21
39.3286
 31
0.0
  0
LINE
  5
1A3
  8
0
 62
1
 10
-42.646
 20
39.3286
 30
0.0
 11
-42.7639
 21
39.42
 31
0.0
  0
LINE
  5
1A4
  8
0
 62
1
 10
-42.7639
 20
39.42
 30
0.0
 11
-42.8758
 21
39.5187
 31
0.0
  0
LINE
  5
1A5
  8
0
 62
1
 10
-42.8758
 20
39.5187
 30
0.0
 11
-42.9813
 21
39.6242
 31
0.0
  0
LINE
  5
1A6
  8
0
 62
1
 10
-42.9813
 20
39.6242
 30
0.0
 11
-43.08
 21
39.7361
 31
0.0
  0
LINE
  5
1A7
  8
0
 62
1
 10
-43.08
 20
39.7361
 30
0.0
 11
-43.1714
 21
39.854
 31
0.0
  0
LINE
  5
1A8
  8
0
 62
1
 10
-43.1714
 20
39.854
 30
0.0
 11
-43.2553
 21
39.9774
 31
0.0
  0
LINE
  5
1A9
  8
0
 62
1
 10
-43.2553
 20
39.9774
 30
0.0
 11
-43.3312
 21
40.1058
 31
0.0
  0
LINE
  5
1AA
  8
0
 62
1
 10
-43.3312
 20
40.1058
 30
0.0
 11
-43.399
 21
40.2388
 31
0.0
  0
LINE
  5
1AB
  8
0
 62
1
 10
-43.399
 20
40.2388
 30
0.0
 11
-43.4582
 21
40.3757
 31
0.0
  0
LINE
  5
1AC
  8
0
 62
1
 10
-43.4582
 20
40.3757
 30
0.0
 11
-43.5088
 21
40.5161
 31
0.0
  0
LINE
  5
1AD
  8
0
 62
1
 10
-43.5088
 20
40.5161
 30
0.0
 11
-43.5504
 21
40.6593
 31
0.0
  0
LINE
  5
1AE
  8
0
 62
1
 10
-43.5504
 20
40.6593
 30
0.0
 11
-43.5829
 21
40.805
 31
0.0
  0
LINE
  5
1AF
  8
0
 62
1
 10
-43.5829
 20
40.805
 30
0.0
 11
-43.6063
 21
40.9523
 31
0.0
  0
LINE
  5
1B0
  8
0
 62
1
 10
-43.6063
 20
40.9523
 30
0.0
 11
-43.6203
 21
41.1009
 31
0.0
  0
LINE
  5
1B1
  8
0
 62
1
 10
-43.6203
 20
41.1009
 30
0.0
 11
-43.625
 21
41.25
 31
0.0
  0
LINE
  5
1B2
  8
0
 62
1
 10
-43.625
 20
41.25
 30
0.0
 11
-43.6203
 21
41.3991
 31
0.0
  0
LINE
  5
1B3
  8
0
 62
1
 10
-43.6203
 20
41.3991
 30
0.0
 11
-43.6063
 21
41.5477
 31
0.0
  0
LINE
  5
1B4
  8
0
 62
1
 10
-43.6063
 20
41.5477
 30
0.0
 11
-43.5829
 21
41.695
 31
0.0
  0
LINE
  5
1B5
  8
0
 62
1
 10
-43.5829
 20
41.695
 30
0.0
 11
-43.5504
 21
41.8406
 31
0.0
  0
LINE
  5
1B6
  8
0
 62
1
 10
-43.5504
 20
41.8406
 30
0.0
 11
-43.5088
 21
41.9839
 31
0.0
  0
LINE
  5
1B7
  8
0
 62
1
 10
-43.5088
 20
41.9839
 30
0.0
 11
-43.4582
 21
42.1243
 31
0.0
  0
LINE
  5
1B8
  8
0
 62
1
 10
-43.4582
 20
42.1243
 30
0.0
 11
-43.399
 21
42.2612
 31
0.0
  0
LINE
  5
1B9
  8
0
 62
1
 10
-43.399
 20
42.2612
 30
0.0
 11
-43.3312
 21
42.3941
 31
0.0
  0
LINE
  5
1BA
  8
0
 62
1
 10
-43.3312
 20
42.3941
 30
0.0
 11
-43.2553
 21
42.5226
 31
0.0
  0
LINE
  5
1BB
  8
0
 62
1
 10
-43.2553
 20
42.5226
 30
0.0
 11
-43.1714
 21
42.646
 31
0.0
  0
LINE
  5
1BC
  8
0
 62
1
 10
-43.1714
 20
42.646
 30
0.0
 11
-43.08
 21
42.7639
 31
0.0
  0
LINE
  5
1BD
  8
0
 62
1
 10
-43.08
 20
42.7639
 30
0.0
 11
-42.9813
 21
42.8758
 31
0.0
  0
LINE
  5
1BE
  8
0
 62
1
 10
-42.9813
 20
42.8758
 30
0.0
 11
-42.8758
 21
42.9813
 31
0.0
  0
LINE
  5
1BF
  8
0
 62
1
 10
-42.8758
 20
42.9813
 30
0.0
 11
-42.7639
 21
43.08
 31
0.0
  0
LINE
  5
1C0
  8
0
 62
1
 10
-42.7639
 20
43.08
 30
0.0
 11
-42.646
 21
43.1714
 31
0.0
  0
LINE
  5
1C1
  8
0
 62
1
 10
-42.646
 20
43.1714
 30
0.0
 11
-42.5226
 21
43.2553
 31
0.0
  0
LINE
  5
1C2
  8
0
 62
1
 10
-42.5226
 20
43.2553
 30
0.0
 11
-42.3941
 21
43.3312
 31
0.0
  0
LINE
  5
1C3
  8
0
 62
1
 10
-42.3941
 20
43.3312
 30
0.0
 11
-42.2612
 21
43.399
 31
0.0
  0
LINE
  5
1C4
  8
0
 62
1
 10
-42.2612
 20
43.399
 30
0.0
 11
-42.1243
 21
43.4582
 31
0.0
  0
LINE
  5
1C5
  8
0
 62
1
 10
-42.1243
 20
43.4582
 30
0.0
 11
-41.9839
 21
43.5088
 31
0.0
  0
LINE
  5
1C6
  8
0
 62
1
 10
-41.9839
 20
43.5088
 30
0.0
 11
-41.8406
 21
43.5504
 31
0.0
  0
LINE
  5
1C7
  8
0
 62
1
 10
-41.8406
 20
43.5504
 30
0.0
 11
-41.695
 21
43.5829
 31
0.0
  0
LINE
  5
1C8
  8
0
 62
1
 10
-41.695
 20
43.5829
 30
0.0
 11
-41.5477
 21
43.6063
 31
0.0
  0
LINE
  5
1C9
  8
0
 62
1
 10
-41.5477
 20
43.6063
 30
0.0
 11
-41.3991
 21
43.6203
 31
0.0
  0
LINE
  5
1CA
  8
0
 62
1
 10
-41.3991
 20
43.6203
 30
0.0
 11
-41.25
 21
43.625
 31
0.0
  0
LINE
  5
1CB
  8
0
 62
1
 10
-41.25
 20
43.625
 30
0.0
 11
-41.1009
 21
43.6203
 31
0.0
  0
LINE
  5
1CC
  8
0
 62
1
 10
-41.1009
 20
43.6203
 30
0.0
 11
-40.9523
 21
43.6063
 31
0.0
  0
LINE
  5
1CD
  8
0
 62
1
 10
-40.9523
 20
43.6063
 30
0.0
 11
-40.805
 21
43.5829
 31
0.0
  0
LINE
  5
1CE
  8
0
 62
1
 10
-40.805
 20
43.5829
 30
0.0
 11
-40.6593
 21
43.5504
 31
0.0
  0
LINE
  5
1CF
  8
0
 62
1
 10
-40.6593
 20
43.5504
 30
0.0
 11
-40.5161
 21
43.5088
 31
0.0
  0
LINE
  5
1D0
  8
0
 62
1
 10
-40.5161
 20
43.5088
 30
0.0
 11
-40.3757
 21
43.4582
 31
0.0
  0
LINE
  5
1D1
  8
0
 62
1
 10
-40.3757
 20
43.4582
 30
0.0
 11
-40.2388
 21
43.399
 31
0.0
  0
LINE
  5
1D2
  8
0
 62
1
 10
-40.2388
 20
43.399
 30
0.0
 11
-40.1058
 21
43.3312
 31
0.0
  0
LINE
  5
1D3
  8
0
 62
1
 10
-40.1058
 20
43.3312
 30
0.0
 11
-39.9774
 21
43.2553
 31
0.0
  0
LINE
  5
1D4
  8
0
 62
1
 10
-39.9774
 20
43.2553
 30
0.0
 11
-39.854
 21
43.1714
 31
0.0
  0
LINE
  5
1D5
  8
0
 62
1
 10
-39.854
 20
43.1714
 30
0.0
 11
-39.7361
 21
43.08
 31
0.0
  0
LINE
  5
1D6
  8
0
 62
1
 10
-39.7361
 20
43.08
 30
0.0
 11
-39.6242
 21
42.9813
 31
0.0
  0
LINE
  5
1D7
  8
0
 62
1
 10
-39.6242
 20
42.9813
 30
0.0
 11
-39.5187
 21
42.8758
 31
0.0
  0
LINE
  5
1D8
  8
0
 62
1
 10
-39.5187
 20
42.8758
 30
0.0
 11
-39.42
 21
42.7639
 31
0.0
  0
LINE
  5
1D9
  8
0
 62
1
 10
-39.42
 20
42.7639
 30
0.0
 11
-39.3286
 21
42.646
 31
0.0
  0
LINE
  5
1DA
  8
0
 62
1
 10
-39.3286
 20
42.646
 30
0.0
 11
-39.2447
 21
42.5226
 31
0.0
  0
LINE
  5
1DB
  8
0
 62
1
 10
-39.2447
 20
42.5226
 30
0.0
 11
-39.1688
 21
42.3941
 31
0.0
  0
LINE
  5
1DC
  8
0
 62
1
 10
-39.1688
 20
42.3941
 30
0.0
 11
-39.101
 21
42.2612
 31
0.0
  0
LINE
  5
1DD
  8
0
 62
1
 10
-39.101
 20
42.2612
 30
0.0
 11
-39.0418
 21
42.1243
 31
0.0
  0
LINE
  5
1DE
  8
0
 62
1
 10
-39.0418
 20
42.1243
 30
0.0
 11
-38.9912
 21
41.9839
 31
0.0
  0
LINE
  5
1DF
  8
0
 62
1
 10
-38.9912
 20
41.9839
 30
0.0
 11
-38.9496
 21
41.8406
 31
0.0
  0
LINE
  5
1E0
  8
0
 62
1
 10
-38.9496
 20
41.8406
 30
0.0
 11
-38.9171
 21
41.695
 31
0.0
  0
LINE
  5
1E1
  8
0
 62
1
 10
-38.9171
 20
41.695
 30
0.0
 11
-38.8937
 21
41.5477
 31
0.0
  0
LINE
  5
1E2
  8
0
 62
1
 10
-38.8937
 20
41.5477
 30
0.0
 11
-38.8797
 21
41.3991
 31
0.0
  0
LINE
  5
1E3
  8
0
 62
1
 10
-38.8797
 20
41.3991
 30
0.0
 11
-38.875
 21
41.25
 31
0.0
  0
LINE
  5
1E4
  8
0
 62
1
 10
-38.875
 20
41.25
 30
0.0
 11
-38.8797
 21
41.1009
 31
0.0
  0
LINE
  5
1E5
  8
0
 62
1
 10
-38.8797
 20
41.1009
 30
0.0
 11
-38.8937
 21
40.9523
 31
0.0
  0
LINE
  5
1E6
  8
0
 62
1
 10
-38.8937
 20
40.9523
 30
0.0
 11
-38.9171
 21
40.805
 31
0.0
  0
LINE
  5
1E7
  8
0
 62
1
 10
-38.9171
 20
40.805
 30
0.0
 11
-38.9496
 21
40.6593
 31
0.0
  0
LINE
  5
1E8
  8
0
 62
1
 10
-38.9496
 20
40.6593
 30
0.0
 11
-38.9912
 21
40.5161
 31
0.0
  0
LINE
  5
1E9
  8
0
 62
1
 10
-38.9912
 20
40.5161
 30
0.0
 11
-39.0418
 21
40.3757
 31
0.0
  0
LINE
  5
1EA
  8
0
 62
1
 10
-39.0418
 20
40.3757
 30
0.0
 11
-39.101
 21
40.2388
 31
0.0
  0
LINE
  5
1EB
  8
0
 62
1
 10
-39.101
 20
40.2388
 30
0.0
 11
-39.1688
 21
40.1058
 31
0.0
  0
LINE
  5
1EC
  8
0
 62
1
 10
-39.1688
 20
40.1058
 30
0.0
 11
-39.2447
 21
39.9774
 31
0.0
  0
LINE
  5
1ED
  8
0
 62
1
 10
-39.2447
 20
39.9774
 30
0.0
 11
-39.3286
 21
39.854
 31
0.0
  0
LINE
  5
1EE
  8
0
 62
1
 10
-39.3286
 20
39.854
 30
0.0
 11
-39.42
 21
39.7361
 31
0.0
  0
LINE
  5
1EF
  8
0
 62
1
 10
-39.42
 20
39.7361
 30
0.0
 11
-39.5187
 21
39.6242
 31
0.0
  0
LINE
  5
1F0
  8
0
 62
1
 10
-39.5187
 20
39.6242
 30
0.0
 11
-39.6242
 21
39.5187
 31
0.0
  0
LINE
  5
1F1
  8
0
 62
1
 10
-39.6242
 20
39.5187
 30
0.0
 11
-39.7361
 21
39.42
 31
0.0
  0
LINE
  5
1F2
  8
0
 62
1
 10
-39.7361
 20
39.42
 30
0.0
 11
-39.854
 21
39.3286
 31
0.0
  0
LINE
  5
1F3
  8
0
 62
1
 10
-39.854
 20
39.3286
 30
0.0
 11
-39.9774
 21
39.2447
 31
0.0
  0
LINE
  5
1F4
  8
0
 62
1
 10
-39.9774
 20
39.2447
 30
0.0
 11
-40.1058
 21
39.1688
 31
0.0
  0
LINE
  5
1F5
  8
0
 62
1
 10
-40.1058
 20
39.1688
 30
0.0
 11
-40.2388
 21
39.101
 31
0.0
  0
LINE
  5
1F6
  8
0
 62
1
 10
-40.2388
 20
39.101
 30
0.0
 11
-40.3757
 21
39.0418
 31
0.0
  0
LINE
  5
1F7
  8
0
 62
1
 10
-40.3757
 20
39.0418
 30
0.0
 11
-40.5161
 21
38.9912
 31
0.0
  0
LINE
  5
1F8
  8
0
 62
1
 10
-40.5161
 20
38.9912
 30
0.0
 11
-40.6593
 21
38.9496
 31
0.0
  0
LINE
  5
1F9
  8
0
 62
1
 10
-40.6593
 20
38.9496
 30
0.0
 11
-40.805
 21
38.9171
 31
0.0
  0
LINE
  5
1FA
  8
0
 62
1
 10
-40.805
 20
38.9171
 30
0.0
 11
-40.9523
 21
38.8937
 31
0.0
  0
LINE
  5
1FB
  8
0
 62
1
 10
-40.9523
 20
38.8937
 30
0.0
 11
-41.1009
 21
38.8797
 31
0.0
  0
LINE
  5
1FC
  8
0
 62
1
 10
-41.1009
 20
38.8797
 30
0.0
 11
-41.25
 21
38.875
 31
0.0
  0
LINE
  5
1FD
  8
0
 62
1
 10
-41.25
 20
38.875
 30
0.0
 11
-41.3991
 21
38.8797
 31
0.0
  0
LINE
  5
1FE
  8
0
 62
1
 10
-5.63998
 20
-44.6452
 30
0.0
 11
-8.43214
 21
-44.2029
 31
0.0
  0
LINE
  5
1FF
  8
0
 62
1
 10
-8.43214
 20
-44.2029
 30
0.0
 11
-11.191
 21
-43.5862
 31
0.0
  0
LINE
  5
200
  8
0
 62
1
 10
-11.191
 20
-43.5862
 30
0.0
 11
-13.9058
 21
-42.7975
 31
0.0
  0
LINE
  5
201
  8
0
 62
1
 10
-13.9058
 20
-42.7975
 30
0.0
 11
-16.5656
 21
-41.8399
 31
0.0
  0
LINE
  5
202
  8
0
 62
1
 10
-16.5656
 20
-41.8399
 30
0.0
 11
-19.1601
 21
-40.7172
 31
0.0
  0
LINE
  5
203
  8
0
 62
1
 10
-19.1601
 20
-40.7172
 30
0.0
 11
-21.6789
 21
-39.4338
 31
0.0
  0
LINE
  5
204
  8
0
 62
1
 10
-21.6789
 20
-39.4338
 30
0.0
 11
-24.1122
 21
-37.9948
 31
0.0
  0
LINE
  5
205
  8
0
 62
1
 10
-24.1122
 20
-37.9948
 30
0.0
 11
-26.4503
 21
-36.4058
 31
0.0
  0
LINE
  5
206
  8
0
 62
1
 10
-26.4503
 20
-36.4058
 30
0.0
 11
-28.6841
 21
-34.6731
 31
0.0
  0
LINE
  5
207
  8
0
 62
1
 10
-28.6841
 20
-34.6731
 30
0.0
 11
-30.8046
 21
-32.8036
 31
0.0
  0
LINE
  5
208
  8
0
 62
1
 10
-30.8046
 20
-32.8036
 30
0.0
 11
-32.8036
 21
-30.8046
 31
0.0
  0
LINE
  5
209
  8
0
 62
1
 10
-32.8036
 20
-30.8046
 30
0.0
 11
-34.6731
 21
-28.6841
 31
0.0
  0
LINE
  5
20A
  8
0
 62
1
 10
-34.6731
 20
-28.6841
 30
0.0
 11
-36.4058
 21
-26.4503
 31
0.0
  0
LINE
  5
20B
  8
0
 62
1
 10
-36.4058
 20
-26.4503
 30
0.0
 11
-37.9948
 21
-24.1122
 31
0.0
  0
LINE
  5
20C
  8
0
 62
1
 10
-37.9948
 20
-24.1122
 30
0.0
 11
-39.4338
 21
-21.6789
 31
0.0
  0
LINE
  5
20D
  8
0
 62
1
 10
-39.4338
 20
-21.6789
 30
0.0
 11
-40.7172
 21
-19.1601
 31
0.0
  0
LINE
  5
20E
  8
0
 62
1
 10
-40.7172
 20
-19.1601
 30
0.0
 11
-41.8399
 21
-16.5656
 31
0.0
  0
LINE
  5
20F
  8
0
 62
1
 10
-41.8399
 20
-16.5656
 30
0.0
 11
-42.7975
 21
-13.9058
 31
0.0
  0
LINE
  5
210
  8
0
 62
1
 10
-42.7975
 20
-13.9058
 30
0.0
 11
-43.5862
 21
-11.191
 31
0.0
  0
LINE
  5
211
  8
0
 62
1
 10
-43.5862
 20
-11.191
 30
0.0
 11
-44.2029
 21
-8.43214
 31
0.0
  0
LINE
  5
212
  8
0
 62
1
 10
-44.2029
 20
-8.43214
 30
0.0
 11
-44.6452
 21
-5.63998
 31
0.0
  0
LINE
  5
213
  8
0
 62
1
 10
-44.6452
 20
-5.63998
 30
0.0
 11
-44.8782
 21
-3.17499
 31
0.0
  0
LINE
  5
214
  8
0
 62
1
 10
-44.8782
 20
-3.17499
 30
0.0
 11
-3.17499
 21
-3.17499
 31
0.0
  0
LINE
  5
215
  8
0
 62
1
 10
-3.17499
 20
-3.17499
 30
0.0
 11
-3.17499
 21
-44.8782
 31
0.0
  0
LINE
  5
216
  8
0
 62
1
 10
-3.17499
 20
-44.8782
 30
0.0
 11
-5.63998
 21
-44.6452
 31
0.0
  0
LINE
  5
217
  8
0
 62
1
 10
3.17499
 20
-3.17499
 30
0.0
 11
44.8782
 21
-3.17499
 31
0.0
  0
LINE
  5
218
  8
0
 62
1
 10
44.8782
 20
-3.17499
 30
0.0
 11
44.6452
 21
-5.63998
 31
0.0
  0
LINE
  5
219
  8
0
 62
1
 10
44.6452
 20
-5.63998
 30
0.0
 11
44.2029
 21
-8.43214
 31
0.0
  0
LINE
  5
21A
  8
0
 62
1
 10
44.2029
 20
-8.43214
 30
0.0
 11
43.5862
 21
-11.191
 31
0.0
  0
LINE
  5
21B
  8
0
 62
1
 10
43.5862
 20
-11.191
 30
0.0
 11
42.7975
 21
-13.9058
 31
0.0
  0
LINE
  5
21C
  8
0
 62
1
 10
42.7975
 20
-13.9058
 30
0.0
 11
41.8399
 21
-16.5656
 31
0.0
  0
LINE
  5
21D
  8
0
 62
1
 10
41.8399
 20
-16.5656
 30
0.0
 11
40.7172
 21
-19.1601
 31
0.0
  0
LINE
  5
21E
  8
0
 62
1
 10
40.7172
 20
-19.1601
 30
0.0
 11
39.4338
 21
-21.6789
 31
0.0
  0
LINE
  5
21F
  8
0
 62
1
 10
39.4338
 20
-21.6789
 30
0.0
 11
37.9948
 21
-24.1122
 31
0.0
  0
LINE
  5
220
  8
0
 62
1
 10
37.9948
 20
-24.1122
 30
0.0
 11
36.4058
 21
-26.4503
 31
0.0
  0
LINE
  5
221
  8
0
 62
1
 10
36.4058
 20
-26.4503
 30
0.0
 11
34.6731
 21
-28.6841
 31
0.0
  0
LINE
  5
222
  8
0
 62
1
 10
34.6731
 20
-28.6841
 30
0.0
 11
32.8036
 21
-30.8046
 31
0.0
  0
LINE
  5
223
  8
0
 62
1
 10
32.8036
 20
-30.8046
 30
0.0
 11
30.8046
 21
-32.8036
 31
0.0
  0
LINE
  5
224
  8
0
 62
1
 10
30.8046
 20
-32.8036
 30
0.0
 11
28.6841
 21
-34.6731
 31
0.0
  0
LINE
  5
225
  8
0
 62
1
 10
28.6841
 20
-34.6731
 30
0.0
 11
26.4503
 21
-36.4058
 31
0.0
  0
LINE
  5
226
  8
0
 62
1
 10
26.4503
 20
-36.4058
 30
0.0
 11
24.1122
 21
-37.9948
 31
0.0
  0
LINE
  5
227
  8
0
 62
1
 10
24.1122
 20
-37.9948
 30
0.0
 11
21.6789
 21
-39.4338
 31
0.0
  0
LINE
  5
228
  8
0
 62
1
 10
21.6789
 20
-39.4338
 30
0.0
 11
19.1601
 21
-40.7172
 31
0.0
  0
LINE
  5
229
  8
0
 62
1
 10
19.1601
 20
-40.7172
 30
0.0
 11
16.5656
 21
-41.8399
 31
0.0
  0
LINE
  5
22A
  8
0
 62
1
 10
16.5656
 20
-41.8399
 30
0.0
 11
13.9058
 21
-42.7975
 31
0.0
  0
LINE
  5
22B
  8
0
 62
1
 10
13.9058
 20
-42.7975
 30
0.0
 11
11.191
 21
-43.5862
 31
0.0
  0
LINE
  5
22C
  8
0
 62
1
 10
11.191
 20
-43.5862
 30
0.0
 11
8.43214
 21
-44.2029
 31
0.0
  0
LINE
  5
22D
  8
0
 62
1
 10
8.43214
 20
-44.2029
 30
0.0
 11
5.63998
 21
-44.6452
 31
0.0
  0
LINE
  5
22E
  8
0
 62
1
 10
5.63998
 20
-44.6452
 30
0.0
 11
3.17499
 21
-44.8782
 31
0.0
  0
LINE
  5
22F
  8
0
 62
1
 10
3.17499
 20
-44.8782
 30
0.0
 11
3.17499
 21
-3.17499
 31
0.0
  0
LINE
  5
230
  8
0
 62
1
 10
-76.4056
 20
-19.9685
 30
0.0
 11
-76.6105
 21
-19.9492
 31
0.0
  0
LINE
  5
231
  8
0
 62
1
 10
-76.6105
 20
-19.9492
 30
0.0
 11
-76.8137
 21
-19.917
 31
0.0
  0
LINE
  5
232
  8
0
 62
1
 10
-76.8137
 20
-19.917
 30
0.0
 11
-77.0145
 21
-19.8721
 31
0.0
  0
LINE
  5
233
  8
0
 62
1
 10
-77.0145
 20
-19.8721
 30
0.0
 11
-77.212
 21
-19.8147
 31
0.0
  0
LINE
  5
234
  8
0
 62
1
 10
-77.212
 20
-19.8147
 30
0.0
 11
-77.4056
 21
-19.745
 31
0.0
  0
LINE
  5
235
  8
0
 62
1
 10
-77.4056
 20
-19.745
 30
0.0
 11
-77.5944
 21
-19.6633
 31
0.0
  0
LINE
  5
236
  8
0
 62
1
 10
-77.5944
 20
-19.6633
 30
0.0
 11
-77.7777
 21
-19.5699
 31
0.0
  0
LINE
  5
237
  8
0
 62
1
 10
-77.7777
 20
-19.5699
 30
0.0
 11
-77.9548
 21
-19.4652
 31
0.0
  0
LINE
  5
238
  8
0
 62
1
 10
-77.9548
 20
-19.4652
 30
0.0
 11
-78.125
 21
-19.3495
 31
0.0
  0
LINE
  5
239
  8
0
 62
1
 10
-78.125
 20
-19.3495
 30
0.0
 11
-78.2876
 21
-19.2234
 31
0.0
  0
LINE
  5
23A
  8
0
 62
1
 10
-78.2876
 20
-19.2234
 30
0.0
 11
-78.4419
 21
-19.0874
 31
0.0
  0
LINE
  5
23B
  8
0
 62
1
 10
-78.4419
 20
-19.0874
 30
0.0
 11
-78.5874
 21
-18.9419
 31
0.0
  0
LINE
  5
23C
  8
0
 62
1
 10
-78.5874
 20
-18.9419
 30
0.0
 11
-78.7234
 21
-18.7876
 31
0.0
  0
LINE
  5
23D
  8
0
 62
1
 10
-78.7234
 20
-18.7876
 30
0.0
 11
-78.8495
 21
-18.625
 31
0.0
  0
LINE
  5
23E
  8
0
 62
1
 10
-78.8495
 20
-18.625
 30
0.0
 11
-78.9652
 21
-18.4548
 31
0.0
  0
LINE
  5
23F
  8
0
 62
1
 10
-78.9652
 20
-18.4548
 30
0.0
 11
-79.0699
 21
-18.2777
 31
0.0
  0
LINE
  5
240
  8
0
 62
1
 10
-79.0699
 20
-18.2777
 30
0.0
 11
-79.1633
 21
-18.0944
 31
0.0
  0
LINE
  5
241
  8
0
 62
1
 10
-79.1633
 20
-18.0944
 30
0.0
 11
-79.245
 21
-17.9056
 31
0.0
  0
LINE
  5
242
  8
0
 62
1
 10
-79.245
 20
-17.9056
 30
0.0
 11
-79.3147
 21
-17.712
 31
0.0
  0
LINE
  5
243
  8
0
 62
1
 10
-79.3147
 20
-17.712
 30
0.0
 11
-79.3721
 21
-17.5145
 31
0.0
  0
LINE
  5
244
  8
0
 62
1
 10
-79.3721
 20
-17.5145
 30
0.0
 11
-79.417
 21
-17.3137
 31
0.0
  0
LINE
  5
245
  8
0
 62
1
 10
-79.417
 20
-17.3137
 30
0.0
 11
-79.4492
 21
-17.1105
 31
0.0
  0
LINE
  5
246
  8
0
 62
1
 10
-79.4492
 20
-17.1105
 30
0.0
 11
-79.4685
 21
-16.9056
 31
0.0
  0
LINE
  5
247
  8
0
 62
1
 10
-79.4685
 20
-16.9056
 30
0.0
 11
-79.475
 21
-16.7
 31
0.0
  0
LINE
  5
248
  8
0
 62
1
 10
-79.475
 20
-16.7
 30
0.0
 11
-79.4685
 21
-16.4944
 31
0.0
  0
LINE
  5
249
  8
0
 62
1
 10
-79.4685
 20
-16.4944
 30
0.0
 11
-79.4492
 21
-16.2895
 31
0.0
  0
LINE
  5
24A
  8
0
 62
1
 10
-79.4492
 20
-16.2895
 30
0.0
 11
-79.417
 21
-16.0863
 31
0.0
  0
LINE
  5
24B
  8
0
 62
1
 10
-79.417
 20
-16.0863
 30
0.0
 11
-79.3721
 21
-15.8855
 31
0.0
  0
LINE
  5
24C
  8
0
 62
1
 10
-79.3721
 20
-15.8855
 30
0.0
 11
-79.3147
 21
-15.688
 31
0.0
  0
LINE
  5
24D
  8
0
 62
1
 10
-79.3147
 20
-15.688
 30
0.0
 11
-79.245
 21
-15.4944
 31
0.0
  0
LINE
  5
24E
  8
0
 62
1
 10
-79.245
 20
-15.4944
 30
0.0
 11
-79.1633
 21
-15.3056
 31
0.0
  0
LINE
  5
24F
  8
0
 62
1
 10
-79.1633
 20
-15.3056
 30
0.0
 11
-79.0699
 21
-15.1223
 31
0.0
  0
LINE
  5
250
  8
0
 62
1
 10
-79.0699
 20
-15.1223
 30
0.0
 11
-78.9652
 21
-14.9452
 31
0.0
  0
LINE
  5
251
  8
0
 62
1
 10
-78.9652
 20
-14.9452
 30
0.0
 11
-78.8495
 21
-14.775
 31
0.0
  0
LINE
  5
252
  8
0
 62
1
 10
-78.8495
 20
-14.775
 30
0.0
 11
-78.7234
 21
-14.6124
 31
0.0
  0
LINE
  5
253
  8
0
 62
1
 10
-78.7234
 20
-14.6124
 30
0.0
 11
-78.5874
 21
-14.4581
 31
0.0
  0
LINE
  5
254
  8
0
 62
1
 10
-78.5874
 20
-14.4581
 30
0.0
 11
-78.4419
 21
-14.3126
 31
0.0
  0
LINE
  5
255
  8
0
 62
1
 10
-78.4419
 20
-14.3126
 30
0.0
 11
-78.2876
 21
-14.1766
 31
0.0
  0
LINE
  5
256
  8
0
 62
1
 10
-78.2876
 20
-14.1766
 30
0.0
 11
-78.125
 21
-14.0505
 31
0.0
  0
LINE
  5
257
  8
0
 62
1
 10
-78.125
 20
-14.0505
 30
0.0
 11
-77.9548
 21
-13.9348
 31
0.0
  0
LINE
  5
258
  8
0
 62
1
 10
-77.9548
 20
-13.9348
 30
0.0
 11
-77.7777
 21
-13.8301
 31
0.0
  0
LINE
  5
259
  8
0
 62
1
 10
-77.7777
 20
-13.8301
 30
0.0
 11
-77.5944
 21
-13.7367
 31
0.0
  0
LINE
  5
25A
  8
0
 62
1
 10
-77.5944
 20
-13.7367
 30
0.0
 11
-77.4056
 21
-13.655
 31
0.0
  0
LINE
  5
25B
  8
0
 62
1
 10
-77.4056
 20
-13.655
 30
0.0
 11
-77.212
 21
-13.5853
 31
0.0
  0
LINE
  5
25C
  8
0
 62
1
 10
-77.212
 20
-13.5853
 30
0.0
 11
-77.0145
 21
-13.5279
 31
0.0
  0
LINE
  5
25D
  8
0
 62
1
 10
-77.0145
 20
-13.5279
 30
0.0
 11
-76.8137
 21
-13.483
 31
0.0
  0
LINE
  5
25E
  8
0
 62
1
 10
-76.8137
 20
-13.483
 30
0.0
 11
-76.6105
 21
-13.4508
 31
0.0
  0
LINE
  5
25F
  8
0
 62
1
 10
-76.6105
 20
-13.4508
 30
0.0
 11
-76.4056
 21
-13.4315
 31
0.0
  0
LINE
  5
260
  8
0
 62
1
 10
-76.4056
 20
-13.4315
 30
0.0
 11
-76.2
 21
-13.425
 31
0.0
  0
LINE
  5
261
  8
0
 62
1
 10
-76.2
 20
-13.425
 30
0.0
 11
-75.9944
 21
-13.4315
 31
0.0
  0
LINE
  5
262
  8
0
 62
1
 10
-75.9944
 20
-13.4315
 30
0.0
 11
-75.7895
 21
-13.4508
 31
0.0
  0
LINE
  5
263
  8
0
 62
1
 10
-75.7895
 20
-13.4508
 30
0.0
 11
-75.5863
 21
-13.483
 31
0.0
  0
LINE
  5
264
  8
0
 62
1
 10
-75.5863
 20
-13.483
 30
0.0
 11
-75.3855
 21
-13.5279
 31
0.0
  0
LINE
  5
265
  8
0
 62
1
 10
-75.3855
 20
-13.5279
 30
0.0
 11
-75.188
 21
-13.5853
 31
0.0
  0
LINE
  5
266
  8
0
 62
1
 10
-75.188
 20
-13.5853
 30
0.0
 11
-74.9944
 21
-13.655
 31
0.0
  0
LINE
  5
267
  8
0
 62
1
 10
-74.9944
 20
-13.655
 30
0.0
 11
-74.8056
 21
-13.7367
 31
0.0
  0
LINE
  5
268
  8
0
 62
1
 10
-74.8056
 20
-13.7367
 30
0.0
 11
-74.6223
 21
-13.8301
 31
0.0
  0
LINE
  5
269
  8
0
 62
1
 10
-74.6223
 20
-13.8301
 30
0.0
 11
-74.4452
 21
-13.9348
 31
0.0
  0
LINE
  5
26A
  8
0
 62
1
 10
-74.4452
 20
-13.9348
 30
0.0
 11
-74.275
 21
-14.0505
 31
0.0
  0
LINE
  5
26B
  8
0
 62
1
 10
-74.275
 20
-14.0505
 30
0.0
 11
-74.1124
 21
-14.1766
 31
0.0
  0
LINE
  5
26C
  8
0
 62
1
 10
-74.1124
 20
-14.1766
 30
0.0
 11
-73.9581
 21
-14.3126
 31
0.0
  0
LINE
  5
26D
  8
0
 62
1
 10
-73.9581
 20
-14.3126
 30
0.0
 11
-73.8126
 21
-14.4581
 31
0.0
  0
LINE
  5
26E
  8
0
 62
1
 10
-73.8126
 20
-14.4581
 30
0.0
 11
-73.6766
 21
-14.6124
 31
0.0
  0
LINE
  5
26F
  8
0
 62
1
 10
-73.6766
 20
-14.6124
 30
0.0
 11
-73.5505
 21
-14.775
 31
0.0
  0
LINE
  5
270
  8
0
 62
1
 10
-73.5505
 20
-14.775
 30
0.0
 11
-73.4348
 21
-14.9452
 31
0.0
  0
LINE
  5
271
  8
0
 62
1
 10
-73.4348
 20
-14.9452
 30
0.0
 11
-73.3301
 21
-15.1223
 31
0.0
  0
LINE
  5
272
  8
0
 62
1
 10
-73.3301
 20
-15.1223
 30
0.0
 11
-73.2367
 21
-15.3056
 31
0.0
  0
LINE
  5
273
  8
0
 62
1
 10
-73.2367
 20
-15.3056
 30
0.0
 11
-73.155
 21
-15.4944
 31
0.0
  0
LINE
  5
274
  8
0
 62
1
 10
-73.155
 20
-15.4944
 30
0.0
 11
-73.0853
 21
-15.688
 31
0.0
  0
LINE
  5
275
  8
0
 62
1
 10
-73.0853
 20
-15.688
 30
0.0
 11
-73.0279
 21
-15.8855
 31
0.0
  0
LINE
  5
276
  8
0
 62
1
 10
-73.0279
 20
-15.8855
 30
0.0
 11
-72.983
 21
-16.0863
 31
0.0
  0
LINE
  5
277
  8
0
 62
1
 10
-72.983
 20
-16.0863
 30
0.0
 11
-72.9508
 21
-16.2895
 31
0.0
  0
LINE
  5
278
  8
0
 62
1
 10
-72.9508
 20
-16.2895
 30
0.0
 11
-72.9315
 21
-16.4944
 31
0.0
  0
LINE
  5
279
  8
0
 62
1
 10
-72.9315
 20
-16.4944
 30
0.0
 11
-72.925
 21
-16.7
 31
0.0
  0
LINE
  5
27A
  8
0
 62
1
 10
-72.925
 20
-16.7
 30
0.0
 11
-72.9315
 21
-16.9056
 31
0.0
  0
LINE
  5
27B
  8
0
 62
1
 10
-72.9315
 20
-16.9056
 30
0.0
 11
-72.9508
 21
-17.1105
 31
0.0
  0
LINE
  5
27C
  8
0
 62
1
 10
-72.9508
 20
-17.1105
 30
0.0
 11
-72.983
 21
-17.3137
 31
0.0
  0
LINE
  5
27D
  8
0
 62
1
 10
-72.983
 20
-17.3137
 30
0.0
 11
-73.0279
 21
-17.5145
 31
0.0
  0
LINE
  5
27E
  8
0
 62
1
 10
-73.0279
 20
-17.5145
 30
0.0
 11
-73.0853
 21
-17.712
 31
0.0
  0
LINE
  5
27F
  8
0
 62
1
 10
-73.0853
 20
-17.712
 30
0.0
 11
-73.155
 21
-17.9056
 31
0.0
  0
LINE
  5
280
  8
0
 62
1
 10
-73.155
 20
-17.9056
 30
0.0
 11
-73.2367
 21
-18.0944
 31
0.0
  0
LINE
  5
281
  8
0
 62
1
 10
-73.2367
 20
-18.0944
 30
0.0
 11
-73.3301
 21
-18.2777
 31
0.0
  0
LINE
  5
282
  8
0
 62
1
 10
-73.3301
 20
-18.2777
 30
0.0
 11
-73.4348
 21
-18.4548
 31
0.0
  0
LINE
  5
283
  8
0
 62
1
 10
-73.4348
 20
-18.4548
 30
0.0
 11
-73.5505
 21
-18.625
 31
0.0
  0
LINE
  5
284
  8
0
 62
1
 10
-73.5505
 20
-18.625
 30
0.0
 11
-73.6766
 21
-18.7876
 31
0.0
  0
LINE
  5
285
  8
0
 62
1
 10
-73.6766
 20
-18.7876
 30
0.0
 11
-73.8126
 21
-18.9419
 31
0.0
  0
LINE
  5
286
  8
0
 62
1
 10
-73.8126
 20
-18.9419
 30
0.0
 11
-73.9581
 21
-19.0874
 31
0.0
  0
LINE
  5
287
  8
0
 62
1
 10
-73.9581
 20
-19.0874
 30
0.0
 11
-74.1124
 21
-19.2234
 31
0.0
  0
LINE
  5
288
  8
0
 62
1
 10
-74.1124
 20
-19.2234
 30
0.0
 11
-74.275
 21
-19.3495
 31
0.0
  0
LINE
  5
289
  8
0
 62
1
 10
-74.275
 20
-19.3495
 30
0.0
 11
-74.4452
 21
-19.4652
 31
0.0
  0
LINE
  5
28A
  8
0
 62
1
 10
-74.4452
 20
-19.4652
 30
0.0
 11
-74.6223
 21
-19.5699
 31
0.0
  0
LINE
  5
28B
  8
0
 62
1
 10
-74.6223
 20
-19.5699
 30
0.0
 11
-74.8056
 21
-19.6633
 31
0.0
  0
LINE
  5
28C
  8
0
 62
1
 10
-74.8056
 20
-19.6633
 30
0.0
 11
-74.9944
 21
-19.745
 31
0.0
  0
LINE
  5
28D
  8
0
 62
1
 10
-74.9944
 20
-19.745
 30
0.0
 11
-75.188
 21
-19.8147
 31
0.0
  0
LINE
  5
28E
  8
0
 62
1
 10
-75.188
 20
-19.8147
 30
0.0
 11
-75.3855
 21
-19.8721
 31
0.0
  0
LINE
  5
28F
  8
0
 62
1
 10
-75.3855
 20
-19.8721
 30
0.0
 11
-75.5863
 21
-19.917
 31
0.0
  0
LINE
  5
290
  8
0
 62
1
 10
-75.5863
 20
-19.917
 30
0.0
 11
-75.7895
 21
-19.9492
 31
0.0
  0
LINE
  5
291
  8
0
 62
1
 10
-75.7895
 20
-19.9492
 30
0.0
 11
-75.9944
 21
-19.9685
 31
0.0
  0
LINE
  5
292
  8
0
 62
1
 10
-75.9944
 20
-19.9685
 30
0.0
 11
-76.2
 21
-19.975
 31
0.0
  0
LINE
  5
293
  8
0
 62
1
 10
-76.2
 20
-19.975
 30
0.0
 11
-76.4056
 21
-19.9685
 31
0.0
  0
LINE
  5
294
  8
0
 62
1
 10
75.9944
 20
-19.9685
 30
0.0
 11
75.7895
 21
-19.9492
 31
0.0
  0
LINE
  5
295
  8
0
 62
1
 10
75.7895
 20
-19.9492
 30
0.0
 11
75.5863
 21
-19.917
 31
0.0
  0
LINE
  5
296
  8
0
 62
1
 10
75.5863
 20
-19.917
 30
0.0
 11
75.3855
 21
-19.8721
 31
0.0
  0
LINE
  5
297
  8
0
 62
1
 10
75.3855
 20
-19.8721
 30
0.0
 11
75.188
 21
-19.8147
 31
0.0
  0
LINE
  5
298
  8
0
 62
1
 10
75.188
 20
-19.8147
 30
0.0
 11
74.9944
 21
-19.745
 31
0.0
  0
LINE
  5
299
  8
0
 62
1
 10
74.9944
 20
-19.745
 30
0.0
 11
74.8056
 21
-19.6633
 31
0.0
  0
LINE
  5
29A
  8
0
 62
1
 10
74.8056
 20
-19.6633
 30
0.0
 11
74.6223
 21
-19.5699
 31
0.0
  0
LINE
  5
29B
  8
0
 62
1
 10
74.6223
 20
-19.5699
 30
0.0
 11
74.4452
 21
-19.4652
 31
0.0
  0
LINE
  5
29C
  8
0
 62
1
 10
74.4452
 20
-19.4652
 30
0.0
 11
74.275
 21
-19.3495
 31
0.0
  0
LINE
  5
29D
  8
0
 62
1
 10
74.275
 20
-19.3495
 30
0.0
 11
74.1124
 21
-19.2234
 31
0.0
  0
LINE
  5
29E
  8
0
 62
1
 10
74.1124
 20
-19.2234
 30
0.0
 11
73.9581
 21
-19.0874
 31
0.0
  0
LINE
  5
29F
  8
0
 62
1
 10
73.9581
 20
-19.0874
 30
0.0
 11
73.8126
 21
-18.9419
 31
0.0
  0
LINE
  5
2A0
  8
0
 62
1
 10
73.8126
 20
-18.9419
 30
0.0
 11
73.6766
 21
-18.7876
 31
0.0
  0
LINE
  5
2A1
  8
0
 62
1
 10
73.6766
 20
-18.7876
 30
0.0
 11
73.5505
 21
-18.625
 31
0.0
  0
LINE
  5
2A2
  8
0
 62
1
 10
73.5505
 20
-18.625
 30
0.0
 11
73.4348
 21
-18.4548
 31
0.0
  0
LINE
  5
2A3
  8
0
 62
1
 10
73.4348
 20
-18.4548
 30
0.0
 11
73.3301
 21
-18.2777
 31
0.0
  0
LINE
  5
2A4
  8
0
 62
1
 10
73.3301
 20
-18.2777
 30
0.0
 11
73.2367
 21
-18.0944
 31
0.0
  0
LINE
  5
2A5
  8
0
 62
1
 10
73.2367
 20
-18.0944
 30
0.0
 11
73.155
 21
-17.9056
 31
0.0
  0
LINE
  5
2A6
  8
0
 62
1
 10
73.155
 20
-17.9056
 30
0.0
 11
73.0853
 21
-17.712
 31
0.0
  0
LINE
  5
2A7
  8
0
 62
1
 10
73.0853
 20
-17.712
 30
0.0
 11
73.0279
 21
-17.5145
 31
0.0
  0
LINE
  5
2A8
  8
0
 62
1
 10
73.0279
 20
-17.5145
 30
0.0
 11
72.983
 21
-17.3137
 31
0.0
  0
LINE
  5
2A9
  8
0
 62
1
 10
72.983
 20
-17.3137
 30
0.0
 11
72.9508
 21
-17.1105
 31
0.0
  0
LINE
  5
2AA
  8
0
 62
1
 10
72.9508
 20
-17.1105
 30
0.0
 11
72.9315
 21
-16.9056
 31
0.0
  0
LINE
  5
2AB
  8
0
 62
1
 10
72.9315
 20
-16.9056
 30
0.0
 11
72.925
 21
-16.7
 31
0.0
  0
LINE
  5
2AC
  8
0
 62
1
 10
72.925
 20
-16.7
 30
0.0
 11
72.9315
 21
-16.4944
 31
0.0
  0
LINE
  5
2AD
  8
0
 62
1
 10
72.9315
 20
-16.4944
 30
0.0
 11
72.9508
 21
-16.2895
 31
0.0
  0
LINE
  5
2AE
  8
0
 62
1
 10
72.9508
 20
-16.2895
 30
0.0
 11
72.983
 21
-16.0863
 31
0.0
  0
LINE
  5
2AF
  8
0
 62
1
 10
72.983
 20
-16.0863
 30
0.0
 11
73.0279
 21
-15.8855
 31
0.0
  0
LINE
  5
2B0
  8
0
 62
1
 10
73.0279
 20
-15.8855
 30
0.0
 11
73.0853
 21
-15.688
 31
0.0
  0
LINE
  5
2B1
  8
0
 62
1
 10
73.0853
 20
-15.688
 30
0.0
 11
73.155
 21
-15.4944
 31
0.0
  0
LINE
  5
2B2
  8
0
 62
1
 10
73.155
 20
-15.4944
 30
0.0
 11
73.2367
 21
-15.3056
 31
0.0
  0
LINE
  5
2B3
  8
0
 62
1
 10
73.2367
 20
-15.3056
 30
0.0
 11
73.3301
 21
-15.1223
 31
0.0
  0
LINE
  5
2B4
  8
0
 62
1
 10
73.3301
 20
-15.1223
 30
0.0
 11
73.4348
 21
-14.9452
 31
0.0
  0
LINE
  5
2B5
  8
0
 62
1
 10
73.4348
 20
-14.9452
 30
0.0
 11
73.5505
 21
-14.775
 31
0.0
  0
LINE
  5
2B6
  8
0
 62
1
 10
73.5505
 20
-14.775
 30
0.0
 11
73.6766
 21
-14.6124
 31
0.0
  0
LINE
  5
2B7
  8
0
 62
1
 10
73.6766
 20
-14.6124
 30
0.0
 11
73.8126
 21
-14.4581
 31
0.0
  0
LINE
  5
2B8
  8
0
 62
1
 10
73.8126
 20
-14.4581
 30
0.0
 11
73.9581
 21
-14.3126
 31
0.0
  0
LINE
  5
2B9
  8
0
 62
1
 10
73.9581
 20
-14.3126
 30
0.0
 11
74.1124
 21
-14.1766
 31
0.0
  0
LINE
  5
2BA
  8
0
 62
1
 10
74.1124
 20
-14.1766
 30
0.0
 11
74.275
 21
-14.0505
 31
0.0
  0
LINE
  5
2BB
  8
0
 62
1
 10
74.275
 20
-14.0505
 30
0.0
 11
74.4452
 21
-13.9348
 31
0.0
  0
LINE
  5
2BC
  8
0
 62
1
 10
74.4452
 20
-13.9348
 30
0.0
 11
74.6223
 21
-13.8301
 31
0.0
  0
LINE
  5
2BD
  8
0
 62
1
 10
74.6223
 20
-13.8301
 30
0.0
 11
74.8056
 21
-13.7367
 31
0.0
  0
LINE
  5
2BE
  8
0
 62
1
 10
74.8056
 20
-13.7367
 30
0.0
 11
74.9944
 21
-13.655
 31
0.0
  0
LINE
  5
2BF
  8
0
 62
1
 10
74.9944
 20
-13.655
 30
0.0
 11
75.188
 21
-13.5853
 31
0.0
  0
LINE
  5
2C0
  8
0
 62
1
 10
75.188
 20
-13.5853
 30
0.0
 11
75.3855
 21
-13.5279
 31
0.0
  0
LINE
  5
2C1
  8
0
 62
1
 10
75.3855
 20
-13.5279
 30
0.0
 11
75.5863
 21
-13.483
 31
0.0
  0
LINE
  5
2C2
  8
0
 62
1
 10
75.5863
 20
-13.483
 30
0.0
 11
75.7895
 21
-13.4508
 31
0.0
  0
LINE
  5
2C3
  8
0
 62
1
 10
75.7895
 20
-13.4508
 30
0.0
 11
75.9944
 21
-13.4315
 31
0.0
  0
LINE
  5
2C4
  8
0
 62
1
 10
75.9944
 20
-13.4315
 30
0.0
 11
76.2
 21
-13.425
 31
0.0
  0
LINE
  5
2C5
  8
0
 62
1
 10
76.2
 20
-13.425
 30
0.0
 11
76.4056
 21
-13.4315
 31
0.0
  0
LINE
  5
2C6
  8
0
 62
1
 10
76.4056
 20
-13.4315
 30
0.0
 11
76.6105
 21
-13.4508
 31
0.0
  0
LINE
  5
2C7
  8
0
 62
1
 10
76.6105
 20
-13.4508
 30
0.0
 11
76.8137
 21
-13.483
 31
0.0
  0
LINE
  5
2C8
  8
0
 62
1
 10
76.8137
 20
-13.483
 30
0.0
 11
77.0145
 21
-13.5279
 31
0.0
  0
LINE
  5
2C9
  8
0
 62
1
 10
77.0145
 20
-13.5279
 30
0.0
 11
77.212
 21
-13.5853
 31
0.0
  0
LINE
  5
2CA
  8
0
 62
1
 10
77.212
 20
-13.5853
 30
0.0
 11
77.4056
 21
-13.655
 31
0.0
  0
LINE
  5
2CB
  8
0
 62
1
 10
77.4056
 20
-13.655
 30
0.0
 11
77.5944
 21
-13.7367
 31
0.0
  0
LINE
  5
2CC
  8
0
 62
1
 10
77.5944
 20
-13.7367
 30
0.0
 11
77.7777
 21
-13.8301
 31
0.0
  0
LINE
  5
2CD
  8
0
 62
1
 10
77.7777
 20
-13.8301
 30
0.0
 11
77.9548
 21
-13.9348
 31
0.0
  0
LINE
  5
2CE
  8
0
 62
1
 10
77.9548
 20
-13.9348
 30
0.0
 11
78.125
 21
-14.0505
 31
0.0
  0
LINE
  5
2CF
  8
0
 62
1
 10
78.125
 20
-14.0505
 30
0.0
 11
78.2876
 21
-14.1766
 31
0.0
  0
LINE
  5
2D0
  8
0
 62
1
 10
78.2876
 20
-14.1766
 30
0.0
 11
78.4419
 21
-14.3126
 31
0.0
  0
LINE
  5
2D1
  8
0
 62
1
 10
78.4419
 20
-14.3126
 30
0.0
 11
78.5874
 21
-14.4581
 31
0.0
  0
LINE
  5
2D2
  8
0
 62
1
 10
78.5874
 20
-14.4581
 30
0.0
 11
78.7234
 21
-14.6124
 31
0.0
  0
LINE
  5
2D3
  8
0
 62
1
 10
78.7234
 20
-14.6124
 30
0.0
 11
78.8495
 21
-14.775
 31
0.0
  0
LINE
  5
2D4
  8
0
 62
1
 10
78.8495
 20
-14.775
 30
0.0
 11
78.9652
 21
-14.9452
 31
0.0
  0
LINE
  5
2D5
  8
0
 62
1
 10
78.9652
 20
-14.9452
 30
0.0
 11
79.0699
 21
-15.1223
 31
0.0
  0
LINE
  5
2D6
  8
0
 62
1
 10
79.0699
 20
-15.1223
 30
0.0
 11
79.1633
 21
-15.3056
 31
0.0
  0
LINE
  5
2D7
  8
0
 62
1
 10
79.1633
 20
-15.3056
 30
0.0
 11
79.245
 21
-15.4944
 31
0.0
  0
LINE
  5
2D8
  8
0
 62
1
 10
79.245
 20
-15.4944
 30
0.0
 11
79.3147
 21
-15.688
 31
0.0
  0
LINE
  5
2D9
  8
0
 62
1
 10
79.3147
 20
-15.688
 30
0.0
 11
79.3721
 21
-15.8855
 31
0.0
  0
LINE
  5
2DA
  8
0
 62
1
 10
79.3721
 20
-15.8855
 30
0.0
 11
79.417
 21
-16.0863
 31
0.0
  0
LINE
  5
2DB
  8
0
 62
1
 10
79.417
 20
-16.0863
 30
0.0
 11
79.4492
 21
-16.2895
 31
0.0
  0
LINE
  5
2DC
  8
0
 62
1
 10
79.4492
 20
-16.2895
 30
0.0
 11
79.4685
 21
-16.4944
 31
0.0
  0
LINE
  5
2DD
  8
0
 62
1
 10
79.4685
 20
-16.4944
 30
0.0
 11
79.475
 21
-16.7
 31
0.0
  0
LINE
  5
2DE
  8
0
 62
1
 10
79.475
 20
-16.7
 30
0.0
 11
79.4685
 21
-16.9056
 31
0.0
  0
LINE
  5
2DF
  8
0
 62
1
 10
79.4685
 20
-16.9056
 30
0.0
 11
79.4492
 21
-17.1105
 31
0.0
  0
LINE
  5
2E0
  8
0
 62
1
 10
79.4492
 20
-17.1105
 30
0.0
 11
79.417
 21
-17.3137
 31
0.0
  0
LINE
  5
2E1
  8
0
 62
1
 10
79.417
 20
-17.3137
 30
0.0
 11
79.3721
 21
-17.5145
 31
0.0
  0
LINE
  5
2E2
  8
0
 62
1
 10
79.3721
 20
-17.5145
 30
0.0
 11
79.3147
 21
-17.712
 31
0.0
  0
LINE
  5
2E3
  8
0
 62
1
 10
79.3147
 20
-17.712
 30
0.0
 11
79.245
 21
-17.9056
 31
0.0
  0
LINE
  5
2E4
  8
0
 62
1
 10
79.245
 20
-17.9056
 30
0.0
 11
79.1633
 21
-18.0944
 31
0.0
  0
LINE
  5
2E5
  8
0
 62
1
 10
79.1633
 20
-18.0944
 30
0.0
 11
79.0699
 21
-18.2777
 31
0.0
  0
LINE
  5
2E6
  8
0
 62
1
 10
79.0699
 20
-18.2777
 30
0.0
 11
78.9652
 21
-18.4548
 31
0.0
  0
LINE
  5
2E7
  8
0
 62
1
 10
78.9652
 20
-18.4548
 30
0.0
 11
78.8495
 21
-18.625
 31
0.0
  0
LINE
  5
2E8
  8
0
 62
1
 10
78.8495
 20
-18.625
 30
0.0
 11
78.7234
 21
-18.7876
 31
0.0
  0
LINE
  5
2E9
  8
0
 62
1
 10
78.7234
 20
-18.7876
 30
0.0
 11
78.5874
 21
-18.9419
 31
0.0
  0
LINE
  5
2EA
  8
0
 62
1
 10
78.5874
 20
-18.9419
 30
0.0
 11
78.4419
 21
-19.0874
 31
0.0
  0
LINE
  5
2EB
  8
0
 62
1
 10
78.4419
 20
-19.0874
 30
0.0
 11
78.2876
 21
-19.2234
 31
0.0
  0
LINE
  5
2EC
  8
0
 62
1
 10
78.2876
 20
-19.2234
 30
0.0
 11
78.125
 21
-19.3495
 31
0.0
  0
LINE
  5
2ED
  8
0
 62
1
 10
78.125
 20
-19.3495
 30
0.0
 11
77.9548
 21
-19.4652
 31
0.0
  0
LINE
  5
2EE
  8
0
 62
1
 10
77.9548
 20
-19.4652
 30
0.0
 11
77.7777
 21
-19.5699
 31
0.0
  0
LINE
  5
2EF
  8
0
 62
1
 10
77.7777
 20
-19.5699
 30
0.0
 11
77.5944
 21
-19.6633
 31
0.0
  0
LINE
  5
2F0
  8
0
 62
1
 10
77.5944
 20
-19.6633
 30
0.0
 11
77.4056
 21
-19.745
 31
0.0
  0
LINE
  5
2F1
  8
0
 62
1
 10
77.4056
 20
-19.745
 30
0.0
 11
77.212
 21
-19.8147
 31
0.0
  0
LINE
  5
2F2
  8
0
 62
1
 10
77.212
 20
-19.8147
 30
0.0
 11
77.0145
 21
-19.8721
 31
0.0
  0
LINE
  5
2F3
  8
0
 62
1
 10
77.0145
 20
-19.8721
 30
0.0
 11
76.8137
 21
-19.917
 31
0.0
  0
LINE
  5
2F4
  8
0
 62
1
 10
76.8137
 20
-19.917
 30
0.0
 11
76.6105
 21
-19.9492
 31
0.0
  0
LINE
  5
2F5
  8
0
 62
1
 10
76.6105
 20
-19.9492
 30
0.0
 11
76.4056
 21
-19.9685
 31
0.0
  0
LINE
  5
2F6
  8
0
 62
1
 10
76.4056
 20
-19.9685
 30
0.0
 11
76.2
 21
-19.975
 31
0.0
  0
LINE
  5
2F7
  8
0
 62
1
 10
76.2
 20
-19.975
 30
0.0
 11
75.9944
 21
-19.9685
 31
0.0
  0
LINE
  5
2F8
  8
0
 62
1
 10
-76.4056
 20
-45.3685
 30
0.0
 11
-76.6105
 21
-45.3492
 31
0.0
  0
LINE
  5
2F9
  8
0
 62
1
 10
-76.6105
 20
-45.3492
 30
0.0
 11
-76.8137
 21
-45.317
 31
0.0
  0
LINE
  5
2FA
  8
0
 62
1
 10
-76.8137
 20
-45.317
 30
0.0
 11
-77.0145
 21
-45.2721
 31
0.0
  0
LINE
  5
2FB
  8
0
 62
1
 10
-77.0145
 20
-45.2721
 30
0.0
 11
-77.212
 21
-45.2147
 31
0.0
  0
LINE
  5
2FC
  8
0
 62
1
 10
-77.212
 20
-45.2147
 30
0.0
 11
-77.4056
 21
-45.145
 31
0.0
  0
LINE
  5
2FD
  8
0
 62
1
 10
-77.4056
 20
-45.145
 30
0.0
 11
-77.5944
 21
-45.0633
 31
0.0
  0
LINE
  5
2FE
  8
0
 62
1
 10
-77.5944
 20
-45.0633
 30
0.0
 11
-77.7777
 21
-44.9699
 31
0.0
  0
LINE
  5
2FF
  8
0
 62
1
 10
-77.7777
 20
-44.9699
 30
0.0
 11
-77.9548
 21
-44.8652
 31
0.0
  0
LINE
  5
300
  8
0
 62
1
 10
-77.9548
 20
-44.8652
 30
0.0
 11
-78.125
 21
-44.7495
 31
0.0
  0
LINE
  5
301
  8
0
 62
1
 10
-78.125
 20
-44.7495
 30
0.0
 11
-78.2876
 21
-44.6234
 31
0.0
  0
LINE
  5
302
  8
0
 62
1
 10
-78.2876
 20
-44.6234
 30
0.0
 11
-78.4419
 21
-44.4874
 31
0.0
  0
LINE
  5
303
  8
0
 62
1
 10
-78.4419
 20
-44.4874
 30
0.0
 11
-78.5874
 21
-44.3419
 31
0.0
  0
LINE
  5
304
  8
0
 62
1
 10
-78.5874
 20
-44.3419
 30
0.0
 11
-78.7234
 21
-44.1876
 31
0.0
  0
LINE
  5
305
  8
0
 62
1
 10
-78.7234
 20
-44.1876
 30
0.0
 11
-78.8495
 21
-44.025
 31
0.0
  0
LINE
  5
306
  8
0
 62
1
 10
-78.8495
 20
-44.025
 30
0.0
 11
-78.9652
 21
-43.8548
 31
0.0
  0
LINE
  5
307
  8
0
 62
1
 10
-78.9652
 20
-43.8548
 30
0.0
 11
-79.0699
 21
-43.6777
 31
0.0
  0
LINE
  5
308
  8
0
 62
1
 10
-79.0699
 20
-43.6777
 30
0.0
 11
-79.1633
 21
-43.4944
 31
0.0
  0
LINE
  5
309
  8
0
 62
1
 10
-79.1633
 20
-43.4944
 30
0.0
 11
-79.245
 21
-43.3056
 31
0.0
  0
LINE
  5
30A
  8
0
 62
1
 10
-79.245
 20
-43.3056
 30
0.0
 11
-79.3147
 21
-43.112
 31
0.0
  0
LINE
  5
30B
  8
0
 62
1
 10
-79.3147
 20
-43.112
 30
0.0
 11
-79.3721
 21
-42.9145
 31
0.0
  0
LINE
  5
30C
  8
0
 62
1
 10
-79.3721
 20
-42.9145
 30
0.0
 11
-79.417
 21
-42.7137
 31
0.0
  0
LINE
  5
30D
  8
0
 62
1
 10
-79.417
 20
-42.7137
 30
0.0
 11
-79.4492
 21
-42.5105
 31
0.0
  0
LINE
  5
30E
  8
0
 62
1
 10
-79.4492
 20
-42.5105
 30
0.0
 11
-79.4685
 21
-42.3056
 31
0.0
  0
LINE
  5
30F
  8
0
 62
1
 10
-79.4685
 20
-42.3056
 30
0.0
 11
-79.475
 21
-42.1
 31
0.0
  0
LINE
  5
310
  8
0
 62
1
 10
-79.475
 20
-42.1
 30
0.0
 11
-79.4685
 21
-41.8943
 31
0.0
  0
LINE
  5
311
  8
0
 62
1
 10
-79.4685
 20
-41.8943
 30
0.0
 11
-79.4492
 21
-41.6895
 31
0.0
  0
LINE
  5
312
  8
0
 62
1
 10
-79.4492
 20
-41.6895
 30
0.0
 11
-79.417
 21
-41.4863
 31
0.0
  0
LINE
  5
313
  8
0
 62
1
 10
-79.417
 20
-41.4863
 30
0.0
 11
-79.3721
 21
-41.2855
 31
0.0
  0
LINE
  5
314
  8
0
 62
1
 10
-79.3721
 20
-41.2855
 30
0.0
 11
-79.3147
 21
-41.088
 31
0.0
  0
LINE
  5
315
  8
0
 62
1
 10
-79.3147
 20
-41.088
 30
0.0
 11
-79.245
 21
-40.8944
 31
0.0
  0
LINE
  5
316
  8
0
 62
1
 10
-79.245
 20
-40.8944
 30
0.0
 11
-79.1633
 21
-40.7056
 31
0.0
  0
LINE
  5
317
  8
0
 62
1
 10
-79.1633
 20
-40.7056
 30
0.0
 11
-79.0699
 21
-40.5222
 31
0.0
  0
LINE
  5
318
  8
0
 62
1
 10
-79.0699
 20
-40.5222
 30
0.0
 11
-78.9652
 21
-40.3452
 31
0.0
  0
LINE
  5
319
  8
0
 62
1
 10
-78.9652
 20
-40.3452
 30
0.0
 11
-78.8495
 21
-40.175
 31
0.0
  0
LINE
  5
31A
  8
0
 62
1
 10
-78.8495
 20
-40.175
 30
0.0
 11
-78.7234
 21
-40.0124
 31
0.0
  0
LINE
  5
31B
  8
0
 62
1
 10
-78.7234
 20
-40.0124
 30
0.0
 11
-78.5874
 21
-39.8581
 31
0.0
  0
LINE
  5
31C
  8
0
 62
1
 10
-78.5874
 20
-39.8581
 30
0.0
 11
-78.4419
 21
-39.7126
 31
0.0
  0
LINE
  5
31D
  8
0
 62
1
 10
-78.4419
 20
-39.7126
 30
0.0
 11
-78.2876
 21
-39.5766
 31
0.0
  0
LINE
  5
31E
  8
0
 62
1
 10
-78.2876
 20
-39.5766
 30
0.0
 11
-78.125
 21
-39.4505
 31
0.0
  0
LINE
  5
31F
  8
0
 62
1
 10
-78.125
 20
-39.4505
 30
0.0
 11
-77.9548
 21
-39.3348
 31
0.0
  0
LINE
  5
320
  8
0
 62
1
 10
-77.9548
 20
-39.3348
 30
0.0
 11
-77.7777
 21
-39.2301
 31
0.0
  0
LINE
  5
321
  8
0
 62
1
 10
-77.7777
 20
-39.2301
 30
0.0
 11
-77.5944
 21
-39.1367
 31
0.0
  0
LINE
  5
322
  8
0
 62
1
 10
-77.5944
 20
-39.1367
 30
0.0
 11
-77.4056
 21
-39.055
 31
0.0
  0
LINE
  5
323
  8
0
 62
1
 10
-77.4056
 20
-39.055
 30
0.0
 11
-77.212
 21
-38.9853
 31
0.0
  0
LINE
  5
324
  8
0
 62
1
 10
-77.212
 20
-38.9853
 30
0.0
 11
-77.0145
 21
-38.9279
 31
0.0
  0
LINE
  5
325
  8
0
 62
1
 10
-77.0145
 20
-38.9279
 30
0.0
 11
-76.8137
 21
-38.883
 31
0.0
  0
LINE
  5
326
  8
0
 62
1
 10
-76.8137
 20
-38.883
 30
0.0
 11
-76.6105
 21
-38.8508
 31
0.0
  0
LINE
  5
327
  8
0
 62
1
 10
-76.6105
 20
-38.8508
 30
0.0
 11
-76.4056
 21
-38.8315
 31
0.0
  0
LINE
  5
328
  8
0
 62
1
 10
-76.4056
 20
-38.8315
 30
0.0
 11
-76.2
 21
-38.825
 31
0.0
  0
LINE
  5
329
  8
0
 62
1
 10
-76.2
 20
-38.825
 30
0.0
 11
-75.9944
 21
-38.8315
 31
0.0
  0
LINE
  5
32A
  8
0
 62
1
 10
-75.9944
 20
-38.8315
 30
0.0
 11
-75.7895
 21
-38.8508
 31
0.0
  0
LINE
  5
32B
  8
0
 62
1
 10
-75.7895
 20
-38.8508
 30
0.0
 11
-75.5863
 21
-38.883
 31
0.0
  0
LINE
  5
32C
  8
0
 62
1
 10
-75.5863
 20
-38.883
 30
0.0
 11
-75.3855
 21
-38.9279
 31
0.0
  0
LINE
  5
32D
  8
0
 62
1
 10
-75.3855
 20
-38.9279
 30
0.0
 11
-75.188
 21
-38.9853
 31
0.0
  0
LINE
  5
32E
  8
0
 62
1
 10
-75.188
 20
-38.9853
 30
0.0
 11
-74.9944
 21
-39.055
 31
0.0
  0
LINE
  5
32F
  8
0
 62
1
 10
-74.9944
 20
-39.055
 30
0.0
 11
-74.8056
 21
-39.1367
 31
0.0
  0
LINE
  5
330
  8
0
 62
1
 10
-74.8056
 20
-39.1367
 30
0.0
 11
-74.6223
 21
-39.2301
 31
0.0
  0
LINE
  5
331
  8
0
 62
1
 10
-74.6223
 20
-39.2301
 30
0.0
 11
-74.4452
 21
-39.3348
 31
0.0
  0
LINE
  5
332
  8
0
 62
1
 10
-74.4452
 20
-39.3348
 30
0.0
 11
-74.275
 21
-39.4505
 31
0.0
  0
LINE
  5
333
  8
0
 62
1
 10
-74.275
 20
-39.4505
 30
0.0
 11
-74.1124
 21
-39.5766
 31
0.0
  0
LINE
  5
334
  8
0
 62
1
 10
-74.1124
 20
-39.5766
 30
0.0
 11
-73.9581
 21
-39.7126
 31
0.0
  0
LINE
  5
335
  8
0
 62
1
 10
-73.9581
 20
-39.7126
 30
0.0
 11
-73.8126
 21
-39.8581
 31
0.0
  0
LINE
  5
336
  8
0
 62
1
 10
-73.8126
 20
-39.8581
 30
0.0
 11
-73.6766
 21
-40.0124
 31
0.0
  0
LINE
  5
337
  8
0
 62
1
 10
-73.6766
 20
-40.0124
 30
0.0
 11
-73.5505
 21
-40.175
 31
0.0
  0
LINE
  5
338
  8
0
 62
1
 10
-73.5505
 20
-40.175
 30
0.0
 11
-73.4348
 21
-40.3452
 31
0.0
  0
LINE
  5
339
  8
0
 62
1
 10
-73.4348
 20
-40.3452
 30
0.0
 11
-73.3301
 21
-40.5222
 31
0.0
  0
LINE
  5
33A
  8
0
 62
1
 10
-73.3301
 20
-40.5222
 30
0.0
 11
-73.2367
 21
-40.7056
 31
0.0
  0
LINE
  5
33B
  8
0
 62
1
 10
-73.2367
 20
-40.7056
 30
0.0
 11
-73.155
 21
-40.8944
 31
0.0
  0
LINE
  5
33C
  8
0
 62
1
 10
-73.155
 20
-40.8944
 30
0.0
 11
-73.0853
 21
-41.088
 31
0.0
  0
LINE
  5
33D
  8
0
 62
1
 10
-73.0853
 20
-41.088
 30
0.0
 11
-73.0279
 21
-41.2855
 31
0.0
  0
LINE
  5
33E
  8
0
 62
1
 10
-73.0279
 20
-41.2855
 30
0.0
 11
-72.983
 21
-41.4863
 31
0.0
  0
LINE
  5
33F
  8
0
 62
1
 10
-72.983
 20
-41.4863
 30
0.0
 11
-72.9508
 21
-41.6895
 31
0.0
  0
LINE
  5
340
  8
0
 62
1
 10
-72.9508
 20
-41.6895
 30
0.0
 11
-72.9315
 21
-41.8943
 31
0.0
  0
LINE
  5
341
  8
0
 62
1
 10
-72.9315
 20
-41.8943
 30
0.0
 11
-72.925
 21
-42.1
 31
0.0
  0
LINE
  5
342
  8
0
 62
1
 10
-72.925
 20
-42.1
 30
0.0
 11
-72.9315
 21
-42.3056
 31
0.0
  0
LINE
  5
343
  8
0
 62
1
 10
-72.9315
 20
-42.3056
 30
0.0
 11
-72.9508
 21
-42.5105
 31
0.0
  0
LINE
  5
344
  8
0
 62
1
 10
-72.9508
 20
-42.5105
 30
0.0
 11
-72.983
 21
-42.7137
 31
0.0
  0
LINE
  5
345
  8
0
 62
1
 10
-72.983
 20
-42.7137
 30
0.0
 11
-73.0279
 21
-42.9145
 31
0.0
  0
LINE
  5
346
  8
0
 62
1
 10
-73.0279
 20
-42.9145
 30
0.0
 11
-73.0853
 21
-43.112
 31
0.0
  0
LINE
  5
347
  8
0
 62
1
 10
-73.0853
 20
-43.112
 30
0.0
 11
-73.155
 21
-43.3056
 31
0.0
  0
LINE
  5
348
  8
0
 62
1
 10
-73.155
 20
-43.3056
 30
0.0
 11
-73.2367
 21
-43.4944
 31
0.0
  0
LINE
  5
349
  8
0
 62
1
 10
-73.2367
 20
-43.4944
 30
0.0
 11
-73.3301
 21
-43.6777
 31
0.0
  0
LINE
  5
34A
  8
0
 62
1
 10
-73.3301
 20
-43.6777
 30
0.0
 11
-73.4348
 21
-43.8548
 31
0.0
  0
LINE
  5
34B
  8
0
 62
1
 10
-73.4348
 20
-43.8548
 30
0.0
 11
-73.5505
 21
-44.025
 31
0.0
  0
LINE
  5
34C
  8
0
 62
1
 10
-73.5505
 20
-44.025
 30
0.0
 11
-73.6766
 21
-44.1876
 31
0.0
  0
LINE
  5
34D
  8
0
 62
1
 10
-73.6766
 20
-44.1876
 30
0.0
 11
-73.8126
 21
-44.3419
 31
0.0
  0
LINE
  5
34E
  8
0
 62
1
 10
-73.8126
 20
-44.3419
 30
0.0
 11
-73.9581
 21
-44.4874
 31
0.0
  0
LINE
  5
34F
  8
0
 62
1
 10
-73.9581
 20
-44.4874
 30
0.0
 11
-74.1124
 21
-44.6234
 31
0.0
  0
LINE
  5
350
  8
0
 62
1
 10
-74.1124
 20
-44.6234
 30
0.0
 11
-74.275
 21
-44.7495
 31
0.0
  0
LINE
  5
351
  8
0
 62
1
 10
-74.275
 20
-44.7495
 30
0.0
 11
-74.4452
 21
-44.8652
 31
0.0
  0
LINE
  5
352
  8
0
 62
1
 10
-74.4452
 20
-44.8652
 30
0.0
 11
-74.6223
 21
-44.9699
 31
0.0
  0
LINE
  5
353
  8
0
 62
1
 10
-74.6223
 20
-44.9699
 30
0.0
 11
-74.8056
 21
-45.0633
 31
0.0
  0
LINE
  5
354
  8
0
 62
1
 10
-74.8056
 20
-45.0633
 30
0.0
 11
-74.9944
 21
-45.145
 31
0.0
  0
LINE
  5
355
  8
0
 62
1
 10
-74.9944
 20
-45.145
 30
0.0
 11
-75.188
 21
-45.2147
 31
0.0
  0
LINE
  5
356
  8
0
 62
1
 10
-75.188
 20
-45.2147
 30
0.0
 11
-75.3855
 21
-45.2721
 31
0.0
  0
LINE
  5
357
  8
0
 62
1
 10
-75.3855
 20
-45.2721
 30
0.0
 11
-75.5863
 21
-45.317
 31
0.0
  0
LINE
  5
358
  8
0
 62
1
 10
-75.5863
 20
-45.317
 30
0.0
 11
-75.7895
 21
-45.3492
 31
0.0
  0
LINE
  5
359
  8
0
 62
1
 10
-75.7895
 20
-45.3492
 30
0.0
 11
-75.9944
 21
-45.3685
 31
0.0
  0
LINE
  5
35A
  8
0
 62
1
 10
-75.9944
 20
-45.3685
 30
0.0
 11
-76.2
 21
-45.375
 31
0.0
  0
LINE
  5
35B
  8
0
 62
1
 10
-76.2
 20
-45.375
 30
0.0
 11
-76.4056
 21
-45.3685
 31
0.0
  0
LINE
  5
35C
  8
0
 62
1
 10
75.9944
 20
-45.3685
 30
0.0
 11
75.7895
 21
-45.3492
 31
0.0
  0
LINE
  5
35D
  8
0
 62
1
 10
75.7895
 20
-45.3492
 30
0.0
 11
75.5863
 21
-45.317
 31
0.0
  0
LINE
  5
35E
  8
0
 62
1
 10
75.5863
 20
-45.317
 30
0.0
 11
75.3855
 21
-45.2721
 31
0.0
  0
LINE
  5
35F
  8
0
 62
1
 10
75.3855
 20
-45.2721
 30
0.0
 11
75.188
 21
-45.2147
 31
0.0
  0
LINE
  5
360
  8
0
 62
1
 10
75.188
 20
-45.2147
 30
0.0
 11
74.9944
 21
-45.145
 31
0.0
  0
LINE
  5
361
  8
0
 62
1
 10
74.9944
 20
-45.145
 30
0.0
 11
74.8056
 21
-45.0633
 31
0.0
  0
LINE
  5
362
  8
0
 62
1
 10
74.8056
 20
-45.0633
 30
0.0
 11
74.6223
 21
-44.9699
 31
0.0
  0
LINE
  5
363
  8
0
 62
1
 10
74.6223
 20
-44.9699
 30
0.0
 11
74.4452
 21
-44.8652
 31
0.0
  0
LINE
  5
364
  8
0
 62
1
 10
74.4452
 20
-44.8652
 30
0.0
 11
74.275
 21
-44.7495
 31
0.0
  0
LINE
  5
365
  8
0
 62
1
 10
74.275
 20
-44.7495
 30
0.0
 11
74.1124
 21
-44.6234
 31
0.0
  0
LINE
  5
366
  8
0
 62
1
 10
74.1124
 20
-44.6234
 30
0.0
 11
73.9581
 21
-44.4874
 31
0.0
  0
LINE
  5
367
  8
0
 62
1
 10
73.9581
 20
-44.4874
 30
0.0
 11
73.8126
 21
-44.3419
 31
0.0
  0
LINE
  5
368
  8
0
 62
1
 10
73.8126
 20
-44.3419
 30
0.0
 11
73.6766
 21
-44.1876
 31
0.0
  0
LINE
  5
369
  8
0
 62
1
 10
73.6766
 20
-44.1876
 30
0.0
 11
73.5505
 21
-44.025
 31
0.0
  0
LINE
  5
36A
  8
0
 62
1
 10
73.5505
 20
-44.025
 30
0.0
 11
73.4348
 21
-43.8548
 31
0.0
  0
LINE
  5
36B
  8
0
 62
1
 10
73.4348
 20
-43.8548
 30
0.0
 11
73.3301
 21
-43.6777
 31
0.0
  0
LINE
  5
36C
  8
0
 62
1
 10
73.3301
 20
-43.6777
 30
0.0
 11
73.2367
 21
-43.4944
 31
0.0
  0
LINE
  5
36D
  8
0
 62
1
 10
73.2367
 20
-43.4944
 30
0.0
 11
73.155
 21
-43.3056
 31
0.0
  0
LINE
  5
36E
  8
0
 62
1
 10
73.155
 20
-43.3056
 30
0.0
 11
73.0853
 21
-43.112
 31
0.0
  0
LINE
  5
36F
  8
0
 62
1
 10
73.0853
 20
-43.112
 30
0.0
 11
73.0279
 21
-42.9145
 31
0.0
  0
LINE
  5
370
  8
0
 62
1
 10
73.0279
 20
-42.9145
 30
0.0
 11
72.983
 21
-42.7137
 31
0.0
  0
LINE
  5
371
  8
0
 62
1
 10
72.983
 20
-42.7137
 30
0.0
 11
72.9508
 21
-42.5105
 31
0.0
  0
LINE
  5
372
  8
0
 62
1
 10
72.9508
 20
-42.5105
 30
0.0
 11
72.9315
 21
-42.3056
 31
0.0
  0
LINE
  5
373
  8
0
 62
1
 10
72.9315
 20
-42.3056
 30
0.0
 11
72.925
 21
-42.1
 31
0.0
  0
LINE
  5
374
  8
0
 62
1
 10
72.925
 20
-42.1
 30
0.0
 11
72.9315
 21
-41.8943
 31
0.0
  0
LINE
  5
375
  8
0
 62
1
 10
72.9315
 20
-41.8943
 30
0.0
 11
72.9508
 21
-41.6895
 31
0.0
  0
LINE
  5
376
  8
0
 62
1
 10
72.9508
 20
-41.6895
 30
0.0
 11
72.983
 21
-41.4863
 31
0.0
  0
LINE
  5
377
  8
0
 62
1
 10
72.983
 20
-41.4863
 30
0.0
 11
73.0279
 21
-41.2855
 31
0.0
  0
LINE
  5
378
  8
0
 62
1
 10
73.0279
 20
-41.2855
 30
0.0
 11
73.0853
 21
-41.088
 31
0.0
  0
LINE
  5
379
  8
0
 62
1
 10
73.0853
 20
-41.088
 30
0.0
 11
73.155
 21
-40.8944
 31
0.0
  0
LINE
  5
37A
  8
0
 62
1
 10
73.155
 20
-40.8944
 30
0.0
 11
73.2367
 21
-40.7056
 31
0.0
  0
LINE
  5
37B
  8
0
 62
1
 10
73.2367
 20
-40.7056
 30
0.0
 11
73.3301
 21
-40.5222
 31
0.0
  0
LINE
  5
37C
  8
0
 62
1
 10
73.3301
 20
-40.5222
 30
0.0
 11
73.4348
 21
-40.3452
 31
0.0
  0
LINE
  5
37D
  8
0
 62
1
 10
73.4348
 20
-40.3452
 30
0.0
 11
73.5505
 21
-40.175
 31
0.0
  0
LINE
  5
37E
  8
0
 62
1
 10
73.5505
 20
-40.175
 30
0.0
 11
73.6766
 21
-40.0124
 31
0.0
  0
LINE
  5
37F
  8
0
 62
1
 10
73.6766
 20
-40.0124
 30
0.0
 11
73.8126
 21
-39.8581
 31
0.0
  0
LINE
  5
380
  8
0
 62
1
 10
73.8126
 20
-39.8581
 30
0.0
 11
73.9581
 21
-39.7126
 31
0.0
  0
LINE
  5
381
  8
0
 62
1
 10
73.9581
 20
-39.7126
 30
0.0
 11
74.1124
 21
-39.5766
 31
0.0
  0
LINE
  5
382
  8
0
 62
1
 10
74.1124
 20
-39.5766
 30
0.0
 11
74.275
 21
-39.4505
 31
0.0
  0
LINE
  5
383
  8
0
 62
1
 10
74.275
 20
-39.4505
 30
0.0
 11
74.4452
 21
-39.3348
 31
0.0
  0
LINE
  5
384
  8
0
 62
1
 10
74.4452
 20
-39.3348
 30
0.0
 11
74.6223
 21
-39.2301
 31
0.0
  0
LINE
  5
385
  8
0
 62
1
 10
74.6223
 20
-39.2301
 30
0.0
 11
74.8056
 21
-39.1367
 31
0.0
  0
LINE
  5
386
  8
0
 62
1
 10
74.8056
 20
-39.1367
 30
0.0
 11
74.9944
 21
-39.055
 31
0.0
  0
LINE
  5
387
  8
0
 62
1
 10
74.9944
 20
-39.055
 30
0.0
 11
75.188
 21
-38.9853
 31
0.0
  0
LINE
  5
388
  8
0
 62
1
 10
75.188
 20
-38.9853
 30
0.0
 11
75.3855
 21
-38.9279
 31
0.0
  0
LINE
  5
389
  8
0
 62
1
 10
75.3855
 20
-38.9279
 30
0.0
 11
75.5863
 21
-38.883
 31
0.0
  0
LINE
  5
38A
  8
0
 62
1
 10
75.5863
 20
-38.883
 30
0.0
 11
75.7895
 21
-38.8508
 31
0.0
  0
LINE
  5
38B
  8
0
 62
1
 10
75.7895
 20
-38.8508
 30
0.0
 11
75.9944
 21
-38.8315
 31
0.0
  0
LINE
  5
38C
  8
0
 62
1
 10
75.9944
 20
-38.8315
 30
0.0
 11
76.2
 21
-38.825
 31
0.0
  0
LINE
  5
38D
  8
0
 62
1
 10
76.2
 20
-38.825
 30
0.0
 11
76.4056
 21
-38.8315
 31
0.0
  0
LINE
  5
38E
  8
0
 62
1
 10
76.4056
 20
-38.8315
 30
0.0
 11
76.6105
 21
-38.8508
 31
0.0
  0
LINE
  5
38F
  8
0
 62
1
 10
76.6105
 20
-38.8508
 30
0.0
 11
76.8137
 21
-38.883
 31
0.0
  0
LINE
  5
390
  8
0
 62
1
 10
76.8137
 20
-38.883
 30
0.0
 11
77.0145
 21
-38.9279
 31
0.0
  0
LINE
  5
391
  8
0
 62
1
 10
77.0145
 20
-38.9279
 30
0.0
 11
77.212
 21
-38.9853
 31
0.0
  0
LINE
  5
392
  8
0
 62
1
 10
77.212
 20
-38.9853
 30
0.0
 11
77.4056
 21
-39.055
 31
0.0
  0
LINE
  5
393
  8
0
 62
1
 10
77.4056
 20
-39.055
 30
0.0
 11
77.5944
 21
-39.1367
 31
0.0
  0
LINE
  5
394
  8
0
 62
1
 10
77.5944
 20
-39.1367
 30
0.0
 11
77.7777
 21
-39.2301
 31
0.0
  0
LINE
  5
395
  8
0
 62
1
 10
77.7777
 20
-39.2301
 30
0.0
 11
77.9548
 21
-39.3348
 31
0.0
  0
LINE
  5
396
  8
0
 62
1
 10
77.9548
 20
-39.3348
 30
0.0
 11
78.125
 21
-39.4505
 31
0.0
  0
LINE
  5
397
  8
0
 62
1
 10
78.125
 20
-39.4505
 30
0.0
 11
78.2876
 21
-39.5766
 31
0.0
  0
LINE
  5
398
  8
0
 62
1
 10
78.2876
 20
-39.5766
 30
0.0
 11
78.4419
 21
-39.7126
 31
0.0
  0
LINE
  5
399
  8
0
 62
1
 10
78.4419
 20
-39.7126
 30
0.0
 11
78.5874
 21
-39.8581
 31
0.0
  0
LINE
  5
39A
  8
0
 62
1
 10
78.5874
 20
-39.8581
 30
0.0
 11
78.7234
 21
-40.0124
 31
0.0
  0
LINE
  5
39B
  8
0
 62
1
 10
78.7234
 20
-40.0124
 30
0.0
 11
78.8495
 21
-40.175
 31
0.0
  0
LINE
  5
39C
  8
0
 62
1
 10
78.8495
 20
-40.175
 30
0.0
 11
78.9652
 21
-40.3452
 31
0.0
  0
LINE
  5
39D
  8
0
 62
1
 10
78.9652
 20
-40.3452
 30
0.0
 11
79.0699
 21
-40.5222
 31
0.0
  0
LINE
  5
39E
  8
0
 62
1
 10
79.0699
 20
-40.5222
 30
0.0
 11
79.1633
 21
-40.7056
 31
0.0
  0
LINE
  5
39F
  8
0
 62
1
 10
79.1633
 20
-40.7056
 30
0.0
 11
79.245
 21
-40.8944
 31
0.0
  0
LINE
  5
3A0
  8
0
 62
1
 10
79.245
 20
-40.8944
 30
0.0
 11
79.3147
 21
-41.088
 31
0.0
  0
LINE
  5
3A1
  8
0
 62
1
 10
79.3147
 20
-41.088
 30
0.0
 11
79.3721
 21
-41.2855
 31
0.0
  0
LINE
  5
3A2
  8
0
 62
1
 10
79.3721
 20
-41.2855
 30
0.0
 11
79.417
 21
-41.4863
 31
0.0
  0
LINE
  5
3A3
  8
0
 62
1
 10
79.417
 20
-41.4863
 30
0.0
 11
79.4492
 21
-41.6895
 31
0.0
  0
LINE
  5
3A4
  8
0
 62
1
 10
79.4492
 20
-41.6895
 30
0.0
 11
79.4685
 21
-41.8943
 31
0.0
  0
LINE
  5
3A5
  8
0
 62
1
 10
79.4685
 20
-41.8943
 30
0.0
 11
79.475
 21
-42.1
 31
0.0
  0
LINE
  5
3A6
  8
0
 62
1
 10
79.475
 20
-42.1
 30
0.0
 11
79.4685
 21
-42.3056
 31
0.0
  0
LINE
  5
3A7
  8
0
 62
1
 10
79.4685
 20
-42.3056
 30
0.0
 11
79.4492
 21
-42.5105
 31
0.0
  0
LINE
  5
3A8
  8
0
 62
1
 10
79.4492
 20
-42.5105
 30
0.0
 11
79.417
 21
-42.7137
 31
0.0
  0
LINE
  5
3A9
  8
0
 62
1
 10
79.417
 20
-42.7137
 30
0.0
 11
79.3721
 21
-42.9145
 31
0.0
  0
LINE
  5
3AA
  8
0
 62
1
 10
79.3721
 20
-42.9145
 30
0.0
 11
79.3147
 21
-43.112
 31
0.0
  0
LINE
  5
3AB
  8
0
 62
1
 10
79.3147
 20
-43.112
 30
0.0
 11
79.245
 21
-43.3056
 31
0.0
  0
LINE
  5
3AC
  8
0
 62
1
 10
79.245
 20
-43.3056
 30
0.0
 11
79.1633
 21
-43.4944
 31
0.0
  0
LINE
  5
3AD
  8
0
 62
1
 10
79.1633
 20
-43.4944
 30
0.0
 11
79.0699
 21
-43.6777
 31
0.0
  0
LINE
  5
3AE
  8
0
 62
1
 10
79.0699
 20
-43.6777
 30
0.0
 11
78.9652
 21
-43.8548
 31
0.0
  0
LINE
  5
3AF
  8
0
 62
1
 10
78.9652
 20
-43.8548
 30
0.0
 11
78.8495
 21
-44.025
 31
0.0
  0
LINE
  5
3B0
  8
0
 62
1
 10
78.8495
 20
-44.025
 30
0.0
 11
78.7234
 21
-44.1876
 31
0.0
  0
LINE
  5
3B1
  8
0
 62
1
 10
78.7234
 20
-44.1876
 30
0.0
 11
78.5874
 21
-44.3419
 31
0.0
  0
LINE
  5
3B2
  8
0
 62
1
 10
78.5874
 20
-44.3419
 30
0.0
 11
78.4419
 21
-44.4874
 31
0.0
  0
LINE
  5
3B3
  8
0
 62
1
 10
78.4419
 20
-44.4874
 30
0.0
 11
78.2876
 21
-44.6234
 31
0.0
  0
LINE
  5
3B4
  8
0
 62
1
 10
78.2876
 20
-44.6234
 30
0.0
 11
78.125
 21
-44.7495
 31
0.0
  0
LINE
  5
3B5
  8
0
 62
1
 10
78.125
 20
-44.7495
 30
0.0
 11
77.9548
 21
-44.8652
 31
0.0
  0
LINE
  5
3B6
  8
0
 62
1
 10
77.9548
 20
-44.8652
 30
0.0
 11
77.7777
 21
-44.9699
 31
0.0
  0
LINE
  5
3B7
  8
0
 62
1
 10
77.7777
 20
-44.9699
 30
0.0
 11
77.5944
 21
-45.0633
 31
0.0
  0
LINE
  5
3B8
  8
0
 62
1
 10
77.5944
 20
-45.0633
 30
0.0
 11
77.4056
 21
-45.145
 31
0.0
  0
LINE
  5
3B9
  8
0
 62
1
 10
77.4056
 20
-45.145
 30
0.0
 11
77.212
 21
-45.2147
 31
0.0
  0
LINE
  5
3BA
  8
0
 62
1
 10
77.212
 20
-45.2147
 30
0.0
 11
77.0145
 21
-45.2721
 31
0.0
  0
LINE
  5
3BB
  8
0
 62
1
 10
77.0145
 20
-45.2721
 30
0.0
 11
76.8137
 21
-45.317
 31
0.0
  0
LINE
  5
3BC
  8
0
 62
1
 10
76.8137
 20
-45.317
 30
0.0
 11
76.6105
 21
-45.3492
 31
0.0
  0
LINE
  5
3BD
  8
0
 62
1
 10
76.6105
 20
-45.3492
 30
0.0
 11
76.4056
 21
-45.3685
 31
0.0
  0
LINE
  5
3BE
  8
0
 62
1
 10
76.4056
 20
-45.3685
 30
0.0
 11
76.2
 21
-45.375
 31
0.0
  0
LINE
  5
3BF
  8
0
 62
1
 10
76.2
 20
-45.375
 30
0.0
 11
75.9944
 21
-45.3685
 31
0.0
  0
LINE
  5
3C0
  8
0
 62
1
 10
-41.3991
 20
-43.6203
 30
0.0
 11
-41.5477
 21
-43.6063
 31
0.0
  0
LINE
  5
3C1
  8
0
 62
1
 10
-41.5477
 20
-43.6063
 30
0.0
 11
-41.695
 21
-43.5829
 31
0.0
  0
LINE
  5
3C2
  8
0
 62
1
 10
-41.695
 20
-43.5829
 30
0.0
 11
-41.8406
 21
-43.5504
 31
0.0
  0
LINE
  5
3C3
  8
0
 62
1
 10
-41.8406
 20
-43.5504
 30
0.0
 11
-41.9839
 21
-43.5088
 31
0.0
  0
LINE
  5
3C4
  8
0
 62
1
 10
-41.9839
 20
-43.5088
 30
0.0
 11
-42.1243
 21
-43.4582
 31
0.0
  0
LINE
  5
3C5
  8
0
 62
1
 10
-42.1243
 20
-43.4582
 30
0.0
 11
-42.2612
 21
-43.399
 31
0.0
  0
LINE
  5
3C6
  8
0
 62
1
 10
-42.2612
 20
-43.399
 30
0.0
 11
-42.3941
 21
-43.3312
 31
0.0
  0
LINE
  5
3C7
  8
0
 62
1
 10
-42.3941
 20
-43.3312
 30
0.0
 11
-42.5226
 21
-43.2553
 31
0.0
  0
LINE
  5
3C8
  8
0
 62
1
 10
-42.5226
 20
-43.2553
 30
0.0
 11
-42.646
 21
-43.1714
 31
0.0
  0
LINE
  5
3C9
  8
0
 62
1
 10
-42.646
 20
-43.1714
 30
0.0
 11
-42.7639
 21
-43.08
 31
0.0
  0
LINE
  5
3CA
  8
0
 62
1
 10
-42.7639
 20
-43.08
 30
0.0
 11
-42.8758
 21
-42.9813
 31
0.0
  0
LINE
  5
3CB
  8
0
 62
1
 10
-42.8758
 20
-42.9813
 30
0.0
 11
-42.9813
 21
-42.8758
 31
0.0
  0
LINE
  5
3CC
  8
0
 62
1
 10
-42.9813
 20
-42.8758
 30
0.0
 11
-43.08
 21
-42.7639
 31
0.0
  0
LINE
  5
3CD
  8
0
 62
1
 10
-43.08
 20
-42.7639
 30
0.0
 11
-43.1714
 21
-42.646
 31
0.0
  0
LINE
  5
3CE
  8
0
 62
1
 10
-43.1714
 20
-42.646
 30
0.0
 11
-43.2553
 21
-42.5226
 31
0.0
  0
LINE
  5
3CF
  8
0
 62
1
 10
-43.2553
 20
-42.5226
 30
0.0
 11
-43.3312
 21
-42.3941
 31
0.0
  0
LINE
  5
3D0
  8
0
 62
1
 10
-43.3312
 20
-42.3941
 30
0.0
 11
-43.399
 21
-42.2612
 31
0.0
  0
LINE
  5
3D1
  8
0
 62
1
 10
-43.399
 20
-42.2612
 30
0.0
 11
-43.4582
 21
-42.1243
 31
0.0
  0
LINE
  5
3D2
  8
0
 62
1
 10
-43.4582
 20
-42.1243
 30
0.0
 11
-43.5088
 21
-41.9839
 31
0.0
  0
LINE
  5
3D3
  8
0
 62
1
 10
-43.5088
 20
-41.9839
 30
0.0
 11
-43.5504
 21
-41.8406
 31
0.0
  0
LINE
  5
3D4
  8
0
 62
1
 10
-43.5504
 20
-41.8406
 30
0.0
 11
-43.5829
 21
-41.695
 31
0.0
  0
LINE
  5
3D5
  8
0
 62
1
 10
-43.5829
 20
-41.695
 30
0.0
 11
-43.6063
 21
-41.5477
 31
0.0
  0
LINE
  5
3D6
  8
0
 62
1
 10
-43.6063
 20
-41.5477
 30
0.0
 11
-43.6203
 21
-41.3991
 31
0.0
  0
LINE
  5
3D7
  8
0
 62
1
 10
-43.6203
 20
-41.3991
 30
0.0
 11
-43.625
 21
-41.25
 31
0.0
  0
LINE
  5
3D8
  8
0
 62
1
 10
-43.625
 20
-41.25
 30
0.0
 11
-43.6203
 21
-41.1009
 31
0.0
  0
LINE
  5
3D9
  8
0
 62
1
 10
-43.6203
 20
-41.1009
 30
0.0
 11
-43.6063
 21
-40.9523
 31
0.0
  0
LINE
  5
3DA
  8
0
 62
1
 10
-43.6063
 20
-40.9523
 30
0.0
 11
-43.5829
 21
-40.805
 31
0.0
  0
LINE
  5
3DB
  8
0
 62
1
 10
-43.5829
 20
-40.805
 30
0.0
 11
-43.5504
 21
-40.6593
 31
0.0
  0
LINE
  5
3DC
  8
0
 62
1
 10
-43.5504
 20
-40.6593
 30
0.0
 11
-43.5088
 21
-40.5161
 31
0.0
  0
LINE
  5
3DD
  8
0
 62
1
 10
-43.5088
 20
-40.5161
 30
0.0
 11
-43.4582
 21
-40.3757
 31
0.0
  0
LINE
  5
3DE
  8
0
 62
1
 10
-43.4582
 20
-40.3757
 30
0.0
 11
-43.399
 21
-40.2388
 31
0.0
  0
LINE
  5
3DF
  8
0
 62
1
 10
-43.399
 20
-40.2388
 30
0.0
 11
-43.3312
 21
-40.1058
 31
0.0
  0
LINE
  5
3E0
  8
0
 62
1
 10
-43.3312
 20
-40.1058
 30
0.0
 11
-43.2553
 21
-39.9774
 31
0.0
  0
LINE
  5
3E1
  8
0
 62
1
 10
-43.2553
 20
-39.9774
 30
0.0
 11
-43.1714
 21
-39.854
 31
0.0
  0
LINE
  5
3E2
  8
0
 62
1
 10
-43.1714
 20
-39.854
 30
0.0
 11
-43.08
 21
-39.7361
 31
0.0
  0
LINE
  5
3E3
  8
0
 62
1
 10
-43.08
 20
-39.7361
 30
0.0
 11
-42.9813
 21
-39.6242
 31
0.0
  0
LINE
  5
3E4
  8
0
 62
1
 10
-42.9813
 20
-39.6242
 30
0.0
 11
-42.8758
 21
-39.5187
 31
0.0
  0
LINE
  5
3E5
  8
0
 62
1
 10
-42.8758
 20
-39.5187
 30
0.0
 11
-42.7639
 21
-39.42
 31
0.0
  0
LINE
  5
3E6
  8
0
 62
1
 10
-42.7639
 20
-39.42
 30
0.0
 11
-42.646
 21
-39.3286
 31
0.0
  0
LINE
  5
3E7
  8
0
 62
1
 10
-42.646
 20
-39.3286
 30
0.0
 11
-42.5226
 21
-39.2447
 31
0.0
  0
LINE
  5
3E8
  8
0
 62
1
 10
-42.5226
 20
-39.2447
 30
0.0
 11
-42.3941
 21
-39.1688
 31
0.0
  0
LINE
  5
3E9
  8
0
 62
1
 10
-42.3941
 20
-39.1688
 30
0.0
 11
-42.2612
 21
-39.101
 31
0.0
  0
LINE
  5
3EA
  8
0
 62
1
 10
-42.2612
 20
-39.101
 30
0.0
 11
-42.1243
 21
-39.0418
 31
0.0
  0
LINE
  5
3EB
  8
0
 62
1
 10
-42.1243
 20
-39.0418
 30
0.0
 11
-41.9839
 21
-38.9912
 31
0.0
  0
LINE
  5
3EC
  8
0
 62
1
 10
-41.9839
 20
-38.9912
 30
0.0
 11
-41.8406
 21
-38.9496
 31
0.0
  0
LINE
  5
3ED
  8
0
 62
1
 10
-41.8406
 20
-38.9496
 30
0.0
 11
-41.695
 21
-38.9171
 31
0.0
  0
LINE
  5
3EE
  8
0
 62
1
 10
-41.695
 20
-38.9171
 30
0.0
 11
-41.5477
 21
-38.8937
 31
0.0
  0
LINE
  5
3EF
  8
0
 62
1
 10
-41.5477
 20
-38.8937
 30
0.0
 11
-41.3991
 21
-38.8797
 31
0.0
  0
LINE
  5
3F0
  8
0
 62
1
 10
-41.3991
 20
-38.8797
 30
0.0
 11
-41.25
 21
-38.875
 31
0.0
  0
LINE
  5
3F1
  8
0
 62
1
 10
-41.25
 20
-38.875
 30
0.0
 11
-41.1009
 21
-38.8797
 31
0.0
  0
LINE
  5
3F2
  8
0
 62
1
 10
-41.1009
 20
-38.8797
 30
0.0
 11
-40.9523
 21
-38.8937
 31
0.0
  0
LINE
  5
3F3
  8
0
 62
1
 10
-40.9523
 20
-38.8937
 30
0.0
 11
-40.805
 21
-38.9171
 31
0.0
  0
LINE
  5
3F4
  8
0
 62
1
 10
-40.805
 20
-38.9171
 30
0.0
 11
-40.6593
 21
-38.9496
 31
0.0
  0
LINE
  5
3F5
  8
0
 62
1
 10
-40.6593
 20
-38.9496
 30
0.0
 11
-40.5161
 21
-38.9912
 31
0.0
  0
LINE
  5
3F6
  8
0
 62
1
 10
-40.5161
 20
-38.9912
 30
0.0
 11
-40.3757
 21
-39.0418
 31
0.0
  0
LINE
  5
3F7
  8
0
 62
1
 10
-40.3757
 20
-39.0418
 30
0.0
 11
-40.2388
 21
-39.101
 31
0.0
  0
LINE
  5
3F8
  8
0
 62
1
 10
-40.2388
 20
-39.101
 30
0.0
 11
-40.1058
 21
-39.1688
 31
0.0
  0
LINE
  5
3F9
  8
0
 62
1
 10
-40.1058
 20
-39.1688
 30
0.0
 11
-39.9774
 21
-39.2447
 31
0.0
  0
LINE
  5
3FA
  8
0
 62
1
 10
-39.9774
 20
-39.2447
 30
0.0
 11
-39.854
 21
-39.3286
 31
0.0
  0
LINE
  5
3FB
  8
0
 62
1
 10
-39.854
 20
-39.3286
 30
0.0
 11
-39.7361
 21
-39.42
 31
0.0
  0
LINE
  5
3FC
  8
0
 62
1
 10
-39.7361
 20
-39.42
 30
0.0
 11
-39.6242
 21
-39.5187
 31
0.0
  0
LINE
  5
3FD
  8
0
 62
1
 10
-39.6242
 20
-39.5187
 30
0.0
 11
-39.5187
 21
-39.6242
 31
0.0
  0
LINE
  5
3FE
  8
0
 62
1
 10
-39.5187
 20
-39.6242
 30
0.0
 11
-39.42
 21
-39.7361
 31
0.0
  0
LINE
  5
3FF
  8
0
 62
1
 10
-39.42
 20
-39.7361
 30
0.0
 11
-39.3286
 21
-39.854
 31
0.0
  0
LINE
  5
400
  8
0
 62
1
 10
-39.3286
 20
-39.854
 30
0.0
 11
-39.2447
 21
-39.9774
 31
0.0
  0
LINE
  5
401
  8
0
 62
1
 10
-39.2447
 20
-39.9774
 30
0.0
 11
-39.1688
 21
-40.1058
 31
0.0
  0
LINE
  5
402
  8
0
 62
1
 10
-39.1688
 20
-40.1058
 30
0.0
 11
-39.101
 21
-40.2388
 31
0.0
  0
LINE
  5
403
  8
0
 62
1
 10
-39.101
 20
-40.2388
 30
0.0
 11
-39.0418
 21
-40.3757
 31
0.0
  0
LINE
  5
404
  8
0
 62
1
 10
-39.0418
 20
-40.3757
 30
0.0
 11
-38.9912
 21
-40.5161
 31
0.0
  0
LINE
  5
405
  8
0
 62
1
 10
-38.9912
 20
-40.5161
 30
0.0
 11
-38.9496
 21
-40.6593
 31
0.0
  0
LINE
  5
406
  8
0
 62
1
 10
-38.9496
 20
-40.6593
 30
0.0
 11
-38.9171
 21
-40.805
 31
0.0
  0
LINE
  5
407
  8
0
 62
1
 10
-38.9171
 20
-40.805
 30
0.0
 11
-38.8937
 21
-40.9523
 31
0.0
  0
LINE
  5
408
  8
0
 62
1
 10
-38.8937
 20
-40.9523
 30
0.0
 11
-38.8797
 21
-41.1009
 31
0.0
  0
LINE
  5
409
  8
0
 62
1
 10
-38.8797
 20
-41.1009
 30
0.0
 11
-38.875
 21
-41.25
 31
0.0
  0
LINE
  5
40A
  8
0
 62
1
 10
-38.875
 20
-41.25
 30
0.0
 11
-38.8797
 21
-41.3991
 31
0.0
  0
LINE
  5
40B
  8
0
 62
1
 10
-38.8797
 20
-41.3991
 30
0.0
 11
-38.8937
 21
-41.5477
 31
0.0
  0
LINE
  5
40C
  8
0
 62
1
 10
-38.8937
 20
-41.5477
 30
0.0
 11
-38.9171
 21
-41.695
 31
0.0
  0
LINE
  5
40D
  8
0
 62
1
 10
-38.9171
 20
-41.695
 30
0.0
 11
-38.9496
 21
-41.8406
 31
0.0
  0
LINE
  5
40E
  8
0
 62
1
 10
-38.9496
 20
-41.8406
 30
0.0
 11
-38.9912
 21
-41.9839
 31
0.0
  0
LINE
  5
40F
  8
0
 62
1
 10
-38.9912
 20
-41.9839
 30
0.0
 11
-39.0418
 21
-42.1243
 31
0.0
  0
LINE
  5
410
  8
0
 62
1
 10
-39.0418
 20
-42.1243
 30
0.0
 11
-39.101
 21
-42.2612
 31
0.0
  0
LINE
  5
411
  8
0
 62
1
 10
-39.101
 20
-42.2612
 30
0.0
 11
-39.1688
 21
-42.3941
 31
0.0
  0
LINE
  5
412
  8
0
 62
1
 10
-39.1688
 20
-42.3941
 30
0.0
 11
-39.2447
 21
-42.5226
 31
0.0
  0
LINE
  5
413
  8
0
 62
1
 10
-39.2447
 20
-42.5226
 30
0.0
 11
-39.3286
 21
-42.646
 31
0.0
  0
LINE
  5
414
  8
0
 62
1
 10
-39.3286
 20
-42.646
 30
0.0
 11
-39.42
 21
-42.7639
 31
0.0
  0
LINE
  5
415
  8
0
 62
1
 10
-39.42
 20
-42.7639
 30
0.0
 11
-39.5187
 21
-42.8758
 31
0.0
  0
LINE
  5
416
  8
0
 62
1
 10
-39.5187
 20
-42.8758
 30
0.0
 11
-39.6242
 21
-42.9813
 31
0.0
  0
LINE
  5
417
  8
0
 62
1
 10
-39.6242
 20
-42.9813
 30
0.0
 11
-39.7361
 21
-43.08
 31
0.0
  0
LINE
  5
418
  8
0
 62
1
 10
-39.7361
 20
-43.08
 30
0.0
 11
-39.854
 21
-43.1714
 31
0.0
  0
LINE
  5
419
  8
0
 62
1
 10
-39.854
 20
-43.1714
 30
0.0
 11
-39.9774
 21
-43.2553
 31
0.0
  0
LINE
  5
41A
  8
0
 62
1
 10
-39.9774
 20
-43.2553
 30
0.0
 11
-40.1058
 21
-43.3312
 31
0.0
  0
LINE
  5
41B
  8
0
 62
1
 10
-40.1058
 20
-43.3312
 30
0.0
 11
-40.2388
 21
-43.399
 31
0.0
  0
LINE
  5
41C
  8
0
 62
1
 10
-40.2388
 20
-43.399
 30
0.0
 11
-40.3757
 21
-43.4582
 31
0.0
  0
LINE
  5
41D
  8
0
 62
1
 10
-40.3757
 20
-43.4582
 30
0.0
 11
-40.5161
 21
-43.5088
 31
0.0
  0
LINE
  5
41E
  8
0
 62
1
 10
-40.5161
 20
-43.5088
 30
0.0
 11
-40.6593
 21
-43.5504
 31
0.0
  0
LINE
  5
41F
  8
0
 62
1
 10
-40.6593
 20
-43.5504
 30
0.0
 11
-40.805
 21
-43.5829
 31
0.0
  0
LINE
  5
420
  8
0
 62
1
 10
-40.805
 20
-43.5829
 30
0.0
 11
-40.9523
 21
-43.6063
 31
0.0
  0
LINE
  5
421
  8
0
 62
1
 10
-40.9523
 20
-43.6063
 30
0.0
 11
-41.1009
 21
-43.6203
 31
0.0
  0
LINE
  5
422
  8
0
 62
1
 10
-41.1009
 20
-43.6203
 30
0.0
 11
-41.25
 21
-43.625
 31
0.0
  0
LINE
  5
423
  8
0
 62
1
 10
-41.25
 20
-43.625
 30
0.0
 11
-41.3991
 21
-43.6203
 31
0.0
  0
LINE
  5
424
  8
0
 62
1
 10
41.1009
 20
-43.6203
 30
0.0
 11
40.9523
 21
-43.6063
 31
0.0
  0
LINE
  5
425
  8
0
 62
1
 10
40.9523
 20
-43.6063
 30
0.0
 11
40.805
 21
-43.5829
 31
0.0
  0
LINE
  5
426
  8
0
 62
1
 10
40.805
 20
-43.5829
 30
0.0
 11
40.6593
 21
-43.5504
 31
0.0
  0
LINE
  5
427
  8
0
 62
1
 10
40.6593
 20
-43.5504
 30
0.0
 11
40.5161
 21
-43.5088
 31
0.0
  0
LINE
  5
428
  8
0
 62
1
 10
40.5161
 20
-43.5088
 30
0.0
 11
40.3757
 21
-43.4582
 31
0.0
  0
LINE
  5
429
  8
0
 62
1
 10
40.3757
 20
-43.4582
 30
0.0
 11
40.2388
 21
-43.399
 31
0.0
  0
LINE
  5
42A
  8
0
 62
1
 10
40.2388
 20
-43.399
 30
0.0
 11
40.1058
 21
-43.3312
 31
0.0
  0
LINE
  5
42B
  8
0
 62
1
 10
40.1058
 20
-43.3312
 30
0.0
 11
39.9774
 21
-43.2553
 31
0.0
  0
LINE
  5
42C
  8
0
 62
1
 10
39.9774
 20
-43.2553
 30
0.0
 11
39.854
 21
-43.1714
 31
0.0
  0
LINE
  5
42D
  8
0
 62
1
 10
39.854
 20
-43.1714
 30
0.0
 11
39.7361
 21
-43.08
 31
0.0
  0
LINE
  5
42E
  8
0
 62
1
 10
39.7361
 20
-43.08
 30
0.0
 11
39.6242
 21
-42.9813
 31
0.0
  0
LINE
  5
42F
  8
0
 62
1
 10
39.6242
 20
-42.9813
 30
0.0
 11
39.5187
 21
-42.8758
 31
0.0
  0
LINE
  5
430
  8
0
 62
1
 10
39.5187
 20
-42.8758
 30
0.0
 11
39.42
 21
-42.7639
 31
0.0
  0
LINE
  5
431
  8
0
 62
1
 10
39.42
 20
-42.7639
 30
0.0
 11
39.3286
 21
-42.646
 31
0.0
  0
LINE
  5
432
  8
0
 62
1
 10
39.3286
 20
-42.646
 30
0.0
 11
39.2447
 21
-42.5226
 31
0.0
  0
LINE
  5
433
  8
0
 62
1
 10
39.2447
 20
-42.5226
 30
0.0
 11
39.1688
 21
-42.3941
 31
0.0
  0
LINE
  5
434
  8
0
 62
1
 10
39.1688
 20
-42.3941
 30
0.0
 11
39.101
 21
-42.2612
 31
0.0
  0
LINE
  5
435
  8
0
 62
1
 10
39.101
 20
-42.2612
 30
0.0
 11
39.0418
 21
-42.1243
 31
0.0
  0
LINE
  5
436
  8
0
 62
1
 10
39.0418
 20
-42.1243
 30
0.0
 11
38.9912
 21
-41.9839
 31
0.0
  0
LINE
  5
437
  8
0
 62
1
 10
38.9912
 20
-41.9839
 30
0.0
 11
38.9496
 21
-41.8406
 31
0.0
  0
LINE
  5
438
  8
0
 62
1
 10
38.9496
 20
-41.8406
 30
0.0
 11
38.9171
 21
-41.695
 31
0.0
  0
LINE
  5
439
  8
0
 62
1
 10
38.9171
 20
-41.695
 30
0.0
 11
38.8937
 21
-41.5477
 31
0.0
  0
LINE
  5
43A
  8
0
 62
1
 10
38.8937
 20
-41.5477
 30
0.0
 11
38.8797
 21
-41.3991
 31
0.0
  0
LINE
  5
43B
  8
0
 62
1
 10
38.8797
 20
-41.3991
 30
0.0
 11
38.875
 21
-41.25
 31
0.0
  0
LINE
  5
43C
  8
0
 62
1
 10
38.875
 20
-41.25
 30
0.0
 11
38.8797
 21
-41.1009
 31
0.0
  0
LINE
  5
43D
  8
0
 62
1
 10
38.8797
 20
-41.1009
 30
0.0
 11
38.8937
 21
-40.9523
 31
0.0
  0
LINE
  5
43E
  8
0
 62
1
 10
38.8937
 20
-40.9523
 30
0.0
 11
38.9171
 21
-40.805
 31
0.0
  0
LINE
  5
43F
  8
0
 62
1
 10
38.9171
 20
-40.805
 30
0.0
 11
38.9496
 21
-40.6593
 31
0.0
  0
LINE
  5
440
  8
0
 62
1
 10
38.9496
 20
-40.6593
 30
0.0
 11
38.9912
 21
-40.5161
 31
0.0
  0
LINE
  5
441
  8
0
 62
1
 10
38.9912
 20
-40.5161
 30
0.0
 11
39.0418
 21
-40.3757
 31
0.0
  0
LINE
  5
442
  8
0
 62
1
 10
39.0418
 20
-40.3757
 30
0.0
 11
39.101
 21
-40.2388
 31
0.0
  0
LINE
  5
443
  8
0
 62
1
 10
39.101
 20
-40.2388
 30
0.0
 11
39.1688
 21
-40.1058
 31
0.0
  0
LINE
  5
444
  8
0
 62
1
 10
39.1688
 20
-40.1058
 30
0.0
 11
39.2447
 21
-39.9774
 31
0.0
  0
LINE
  5
445
  8
0
 62
1
 10
39.2447
 20
-39.9774
 30
0.0
 11
39.3286
 21
-39.854
 31
0.0
  0
LINE
  5
446
  8
0
 62
1
 10
39.3286
 20
-39.854
 30
0.0
 11
39.42
 21
-39.7361
 31
0.0
  0
LINE
  5
447
  8
0
 62
1
 10
39.42
 20
-39.7361
 30
0.0
 11
39.5187
 21
-39.6242
 31
0.0
  0
LINE
  5
448
  8
0
 62
1
 10
39.5187
 20
-39.6242
 30
0.0
 11
39.6242
 21
-39.5187
 31
0.0
  0
LINE
  5
449
  8
0
 62
1
 10
39.6242
 20
-39.5187
 30
0.0
 11
39.7361
 21
-39.42
 31
0.0
  0
LINE
  5
44A
  8
0
 62
1
 10
39.7361
 20
-39.42
 30
0.0
 11
39.854
 21
-39.3286
 31
0.0
  0
LINE
  5
44B
  8
0
 62
1
 10
39.854
 20
-39.3286
 30
0.0
 11
39.9774
 21
-39.2447
 31
0.0
  0
LINE
  5
44C
  8
0
 62
1
 10
39.9774
 20
-39.2447
 30
0.0
 11
40.1058
 21
-39.1688
 31
0.0
  0
LINE
  5
44D
  8
0
 62
1
 10
40.1058
 20
-39.1688
 30
0.0
 11
40.2388
 21
-39.101
 31
0.0
  0
LINE
  5
44E
  8
0
 62
1
 10
40.2388
 20
-39.101
 30
0.0
 11
40.3757
 21
-39.0418
 31
0.0
  0
LINE
  5
44F
  8
0
 62
1
 10
40.3757
 20
-39.0418
 30
0.0
 11
40.5161
 21
-38.9912
 31
0.0
  0
LINE
  5
450
  8
0
 62
1
 10
40.5161
 20
-38.9912
 30
0.0
 11
40.6593
 21
-38.9496
 31
0.0
  0
LINE
  5
451
  8
0
 62
1
 10
40.6593
 20
-38.9496
 30
0.0
 11
40.805
 21
-38.9171
 31
0.0
  0
LINE
  5
452
  8
0
 62
1
 10
40.805
 20
-38.9171
 30
0.0
 11
40.9523
 21
-38.8937
 31
0.0
  0
LINE
  5
453
  8
0
 62
1
 10
40.9523
 20
-38.8937
 30
0.0
 11
41.1009
 21
-38.8797
 31
0.0
  0
LINE
  5
454
  8
0
 62
1
 10
41.1009
 20
-38.8797
 30
0.0
 11
41.25
 21
-38.875
 31
0.0
  0
LINE
  5
455
  8
0
 62
1
 10
41.25
 20
-38.875
 30
0.0
 11
41.3991
 21
-38.8797
 31
0.0
  0
LINE
  5
456
  8
0
 62
1
 10
41.3991
 20
-38.8797
 30
0.0
 11
41.5477
 21
-38.8937
 31
0.0
  0
LINE
  5
457
  8
0
 62
1
 10
41.5477
 20
-38.8937
 30
0.0
 11
41.695
 21
-38.9171
 31
0.0
  0
LINE
  5
458
  8
0
 62
1
 10
41.695
 20
-38.9171
 30
0.0
 11
41.8406
 21
-38.9496
 31
0.0
  0
LINE
  5
459
  8
0
 62
1
 10
41.8406
 20
-38.9496
 30
0.0
 11
41.9839
 21
-38.9912
 31
0.0
  0
LINE
  5
45A
  8
0
 62
1
 10
41.9839
 20
-38.9912
 30
0.0
 11
42.1243
 21
-39.0418
 31
0.0
  0
LINE
  5
45B
  8
0
 62
1
 10
42.1243
 20
-39.0418
 30
0.0
 11
42.2612
 21
-39.101
 31
0.0
  0
LINE
  5
45C
  8
0
 62
1
 10
42.2612
 20
-39.101
 30
0.0
 11
42.3941
 21
-39.1688
 31
0.0
  0
LINE
  5
45D
  8
0
 62
1
 10
42.3941
 20
-39.1688
 30
0.0
 11
42.5226
 21
-39.2447
 31
0.0
  0
LINE
  5
45E
  8
0
 62
1
 10
42.5226
 20
-39.2447
 30
0.0
 11
42.646
 21
-39.3286
 31
0.0
  0
LINE
  5
45F
  8
0
 62
1
 10
42.646
 20
-39.3286
 30
0.0
 11
42.7639
 21
-39.42
 31
0.0
  0
LINE
  5
460
  8
0
 62
1
 10
42.7639
 20
-39.42
 30
0.0
 11
42.8758
 21
-39.5187
 31
0.0
  0
LINE
  5
461
  8
0
 62
1
 10
42.8758
 20
-39.5187
 30
0.0
 11
42.9813
 21
-39.6242
 31
0.0
  0
LINE
  5
462
  8
0
 62
1
 10
42.9813
 20
-39.6242
 30
0.0
 11
43.08
 21
-39.7361
 31
0.0
  0
LINE
  5
463
  8
0
 62
1
 10
43.08
 20
-39.7361
 30
0.0
 11
43.1714
 21
-39.854
 31
0.0
  0
LINE
  5
464
  8
0
 62
1
 10
43.1714
 20
-39.854
 30
0.0
 11
43.2553
 21
-39.9774
 31
0.0
  0
LINE
  5
465
  8
0
 62
1
 10
43.2553
 20
-39.9774
 30
0.0
 11
43.3312
 21
-40.1058
 31
0.0
  0
LINE
  5
466
  8
0
 62
1
 10
43.3312
 20
-40.1058
 30
0.0
 11
43.399
 21
-40.2388
 31
0.0
  0
LINE
  5
467
  8
0
 62
1
 10
43.399
 20
-40.2388
 30
0.0
 11
43.4582
 21
-40.3757
 31
0.0
  0
LINE
  5
468
  8
0
 62
1
 10
43.4582
 20
-40.3757
 30
0.0
 11
43.5088
 21
-40.5161
 31
0.0
  0
LINE
  5
469
  8
0
 62
1
 10
43.5088
 20
-40.5161
 30
0.0
 11
43.5504
 21
-40.6593
 31
0.0
  0
LINE
  5
46A
  8
0
 62
1
 10
43.5504
 20
-40.6593
 30
0.0
 11
43.5829
 21
-40.805
 31
0.0
  0
LINE
  5
46B
  8
0
 62
1
 10
43.5829
 20
-40.805
 30
0.0
 11
43.6063
 21
-40.9523
 31
0.0
  0
LINE
  5
46C
  8
0
 62
1
 10
43.6063
 20
-40.9523
 30
0.0
 11
43.6203
 21
-41.1009
 31
0.0
  0
LINE
  5
46D
  8
0
 62
1
 10
43.6203
 20
-41.1009
 30
0.0
 11
43.625
 21
-41.25
 31
0.0
  0
LINE
  5
46E
  8
0
 62
1
 10
43.625
 20
-41.25
 30
0.0
 11
43.6203
 21
-41.3991
 31
0.0
  0
LINE
  5
46F
  8
0
 62
1
 10
43.6203
 20
-41.3991
 30
0.0
 11
43.6063
 21
-41.5477
 31
0.0
  0
LINE
  5
470
  8
0
 62
1
 10
43.6063
 20
-41.5477
 30
0.0
 11
43.5829
 21
-41.695
 31
0.0
  0
LINE
  5
471
  8
0
 62
1
 10
43.5829
 20
-41.695
 30
0.0
 11
43.5504
 21
-41.8406
 31
0.0
  0
LINE
  5
472
  8
0
 62
1
 10
43.5504
 20
-41.8406
 30
0.0
 11
43.5088
 21
-41.9839
 31
0.0
  0
LINE
  5
473
  8
0
 62
1
 10
43.5088
 20
-41.9839
 30
0.0
 11
43.4582
 21
-42.1243
 31
0.0
  0
LINE
  5
474
  8
0
 62
1
 10
43.4582
 20
-42.1243
 30
0.0
 11
43.399
 21
-42.2612
 31
0.0
  0
LINE
  5
475
  8
0
 62
1
 10
43.399
 20
-42.2612
 30
0.0
 11
43.3312
 21
-42.3941
 31
0.0
  0
LINE
  5
476
  8
0
 62
1
 10
43.3312
 20
-42.3941
 30
0.0
 11
43.2553
 21
-42.5226
 31
0.0
  0
LINE
  5
477
  8
0
 62
1
 10
43.2553
 20
-42.5226
 30
0.0
 11
43.1714
 21
-42.646
 31
0.0
  0
LINE
  5
478
  8
0
 62
1
 10
43.1714
 20
-42.646
 30
0.0
 11
43.08
 21
-42.7639
 31
0.0
  0
LINE
  5
479
  8
0
 62
1
 10
43.08
 20
-42.7639
 30
0.0
 11
42.9813
 21
-42.8758
 31
0.0
  0
LINE
  5
47A
  8
0
 62
1
 10
42.9813
 20
-42.8758
 30
0.0
 11
42.8758
 21
-42.9813
 31
0.0
  0
LINE
  5
47B
  8
0
 62
1
 10
42.8758
 20
-42.9813
 30
0.0
 11
42.7639
 21
-43.08
 31
0.0
  0
LINE
  5
47C
  8
0
 62
1
 10
42.7639
 20
-43.08
 30
0.0
 11
42.646
 21
-43.1714
 31
0.0
  0
LINE
  5
47D
  8
0
 62
1
 10
42.646
 20
-43.1714
 30
0.0
 11
42.5226
 21
-43.2553
 31
0.0
  0
LINE
  5
47E
  8
0
 62
1
 10
42.5226
 20
-43.2553
 30
0.0
 11
42.3941
 21
-43.3312
 31
0.0
  0
LINE
  5
47F
  8
0
 62
1
 10
42.3941
 20
-43.3312
 30
0.0
 11
42.2612
 21
-43.399
 31
0.0
  0
LINE
  5
480
  8
0
 62
1
 10
42.2612
 20
-43.399
 30
0.0
 11
42.1243
 21
-43.4582
 31
0.0
  0
LINE
  5
481
  8
0
 62
1
 10
42.1243
 20
-43.4582
 30
0.0
 11
41.9839
 21
-43.5088
 31
0.0
  0
LINE
  5
482
  8
0
 62
1
 10
41.9839
 20
-43.5088
 30
0.0
 11
41.8406
 21
-43.5504
 31
0.0
  0
LINE
  5
483
  8
0
 62
1
 10
41.8406
 20
-43.5504
 30
0.0
 11
41.695
 21
-43.5829
 31
0.0
  0
LINE
  5
484
  8
0
 62
1
 10
41.695
 20
-43.5829
 30
0.0
 11
41.5477
 21
-43.6063
 31
0.0
  0
LINE
  5
485
  8
0
 62
1
 10
41.5477
 20
-43.6063
 30
0.0
 11
41.3991
 21
-43.6203
 31
0.0
  0
LINE
  5
486
  8
0
 62
1
 10
41.3991
 20
-43.6203
 30
0.0
 11
41.25
 21
-43.625
 31
0.0
  0
LINE
  5
487
  8
0
 62
1
 10
41.25
 20
-43.625
 30
0.0
 11
41.1009
 21
-43.6203
 31
0.0
  0
ENDSEC
  0
EOF
