  0
SECTION
  2
BLOCKS
  0
ENDSEC
  0
SECTION
  2
ENTITIES
  0
LINE
  8
0
 10
88.9
 20
67.5
 11
-88.9
 21
67.5
  0
LINE
  8
0
 10
-88.9
 20
67.5
 11
-88.9
 21
-67.5
  0
LINE
  8
0
 10
-88.9
 20
-67.5
 11
88.9
 21
-67.5
  0
LINE
  8
0
 10
88.9
 20
-67.5
 11
88.9
 21
67.5
  0
LINE
  8
0
 10
-59.9002
 20
3.17499
 11
-59.8816
 21
3.76743
  0
LINE
  8
0
 10
-59.8816
 20
3.76743
 11
-59.5269
 21
7.51999
  0
LINE
  8
0
 10
-59.5269
 20
7.51999
 11
-58.9372
 21
11.2429
  0
LINE
  8
0
 10
-58.9372
 20
11.2429
 11
-58.115
 21
14.9214
  0
LINE
  8
0
 10
-58.115
 20
14.9214
 11
-57.0634
 21
18.541
  0
LINE
  8
0
 10
-57.0634
 20
18.541
 11
-55.7866
 21
22.0875
  0
LINE
  8
0
 10
-55.7866
 20
22.0875
 11
-54.2896
 21
25.5468
  0
LINE
  8
0
 10
-54.2896
 20
25.5468
 11
-52.5784
 21
28.9052
  0
LINE
  8
0
 10
-52.5784
 20
28.9052
 11
-50.6597
 21
32.1496
  0
LINE
  8
0
 10
-50.6597
 20
32.1496
 11
-48.541
 21
35.2671
  0
LINE
  8
0
 10
-48.541
 20
35.2671
 11
-46.2308
 21
38.2454
  0
LINE
  8
0
 10
-46.2308
 20
38.2454
 11
-43.7381
 21
41.0728
  0
LINE
  8
0
 10
-43.7381
 20
41.0728
 11
-41.0728
 21
43.7381
  0
LINE
  8
0
 10
-41.0728
 20
43.7381
 11
-38.2454
 21
46.2308
  0
LINE
  8
0
 10
-38.2454
 20
46.2308
 11
-35.2671
 21
48.541
  0
LINE
  8
0
 10
-35.2671
 20
48.541
 11
-32.1496
 21
50.6597
  0
LINE
  8
0
 10
-32.1496
 20
50.6597
 11
-28.9052
 21
52.5784
  0
LINE
  8
0
 10
-28.9052
 20
52.5784
 11
-25.5468
 21
54.2896
  0
LINE
  8
0
 10
-25.5468
 20
54.2896
 11
-22.0875
 21
55.7866
  0
LINE
  8
0
 10
-22.0875
 20
55.7866
 11
-18.541
 21
57.0634
  0
LINE
  8
0
 10
-18.541
 20
57.0634
 11
-14.9214
 21
58.115
  0
LINE
  8
0
 10
-14.9214
 20
58.115
 11
-11.2429
 21
58.9372
  0
LINE
  8
0
 10
-11.2429
 20
58.9372
 11
-7.51999
 21
59.5269
  0
LINE
  8
0
 10
-7.51999
 20
59.5269
 11
-3.76743
 21
59.8816
  0
LINE
  8
0
 10
-3.76743
 20
59.8816
 11
-3.17499
 21
59.9002
  0
LINE
  8
0
 10
-3.17499
 20
59.9002
 11
-3.17499
 21
25.2005
  0
LINE
  8
0
 10
-3.17499
 20
25.2005
 11
-3.18346
 21
25.1997
  0
LINE
  8
0
 10
-3.18346
 20
25.1997
 11
-4.75948
 21
24.9501
  0
LINE
  8
0
 10
-4.75948
 20
24.9501
 11
-6.31671
 21
24.602
  0
LINE
  8
0
 10
-6.31671
 20
24.602
 11
-7.84903
 21
24.1568
  0
LINE
  8
0
 10
-7.84903
 20
24.1568
 11
-9.35036
 21
23.6163
  0
LINE
  8
0
 10
-9.35036
 20
23.6163
 11
-10.8148
 21
22.9826
  0
LINE
  8
0
 10
-10.8148
 20
22.9826
 11
-12.2365
 21
22.2582
  0
LINE
  8
0
 10
-12.2365
 20
22.2582
 11
-13.61
 21
21.4459
  0
LINE
  8
0
 10
-13.61
 20
21.4459
 11
-14.9297
 21
20.549
  0
LINE
  8
0
 10
-14.9297
 20
20.549
 11
-16.1906
 21
19.571
  0
LINE
  8
0
 10
-16.1906
 20
19.571
 11
-17.3875
 21
18.5158
  0
LINE
  8
0
 10
-17.3875
 20
18.5158
 11
-18.5158
 21
17.3875
  0
LINE
  8
0
 10
-18.5158
 20
17.3875
 11
-19.571
 21
16.1906
  0
LINE
  8
0
 10
-19.571
 20
16.1906
 11
-20.549
 21
14.9297
  0
LINE
  8
0
 10
-20.549
 20
14.9297
 11
-21.4459
 21
13.61
  0
LINE
  8
0
 10
-21.4459
 20
13.61
 11
-22.2582
 21
12.2365
  0
LINE
  8
0
 10
-22.2582
 20
12.2365
 11
-22.9826
 21
10.8148
  0
LINE
  8
0
 10
-22.9826
 20
10.8148
 11
-23.6163
 21
9.35036
  0
LINE
  8
0
 10
-23.6163
 20
9.35036
 11
-24.1568
 21
7.84903
  0
LINE
  8
0
 10
-24.1568
 20
7.84903
 11
-24.602
 21
6.31671
  0
LINE
  8
0
 10
-24.602
 20
6.31671
 11
-24.9501
 21
4.75948
  0
LINE
  8
0
 10
-24.9501
 20
4.75948
 11
-25.1997
 21
3.18346
  0
LINE
  8
0
 10
-25.1997
 20
3.18346
 11
-25.2005
 21
3.17499
  0
LINE
  8
0
 10
-25.2005
 20
3.17499
 11
-59.9002
 21
3.17499
  0
LINE
  8
0
 10
25.2005
 20
3.17499
 11
25.1997
 21
3.18346
  0
LINE
  8
0
 10
25.1997
 20
3.18346
 11
24.9501
 21
4.75948
  0
LINE
  8
0
 10
24.9501
 20
4.75948
 11
24.602
 21
6.31671
  0
LINE
  8
0
 10
24.602
 20
6.31671
 11
24.1568
 21
7.84903
  0
LINE
  8
0
 10
24.1568
 20
7.84903
 11
23.6163
 21
9.35036
  0
LINE
  8
0
 10
23.6163
 20
9.35036
 11
22.9826
 21
10.8148
  0
LINE
  8
0
 10
22.9826
 20
10.8148
 11
22.2582
 21
12.2365
  0
LINE
  8
0
 10
22.2582
 20
12.2365
 11
21.4459
 21
13.61
  0
LINE
  8
0
 10
21.4459
 20
13.61
 11
20.549
 21
14.9297
  0
LINE
  8
0
 10
20.549
 20
14.9297
 11
19.571
 21
16.1906
  0
LINE
  8
0
 10
19.571
 20
16.1906
 11
18.5158
 21
17.3875
  0
LINE
  8
0
 10
18.5158
 20
17.3875
 11
17.3875
 21
18.5158
  0
LINE
  8
0
 10
17.3875
 20
18.5158
 11
16.1906
 21
19.571
  0
LINE
  8
0
 10
16.1906
 20
19.571
 11
14.9297
 21
20.549
  0
LINE
  8
0
 10
14.9297
 20
20.549
 11
13.61
 21
21.4459
  0
LINE
  8
0
 10
13.61
 20
21.4459
 11
12.2365
 21
22.2582
  0
LINE
  8
0
 10
12.2365
 20
22.2582
 11
10.8148
 21
22.9826
  0
LINE
  8
0
 10
10.8148
 20
22.9826
 11
9.35036
 21
23.6163
  0
LINE
  8
0
 10
9.35036
 20
23.6163
 11
7.84903
 21
24.1568
  0
LINE
  8
0
 10
7.84903
 20
24.1568
 11
6.31671
 21
24.602
  0
LINE
  8
0
 10
6.31671
 20
24.602
 11
4.75948
 21
24.9501
  0
LINE
  8
0
 10
4.75948
 20
24.9501
 11
3.18346
 21
25.1997
  0
LINE
  8
0
 10
3.18346
 20
25.1997
 11
3.17499
 21
25.2005
  0
LINE
  8
0
 10
3.17499
 20
25.2005
 11
3.17499
 21
59.9002
  0
LINE
  8
0
 10
3.17499
 20
59.9002
 11
3.76743
 21
59.8816
  0
LINE
  8
0
 10
3.76743
 20
59.8816
 11
7.51999
 21
59.5269
  0
LINE
  8
0
 10
7.51999
 20
59.5269
 11
11.2429
 21
58.9372
  0
LINE
  8
0
 10
11.2429
 20
58.9372
 11
14.9214
 21
58.115
  0
LINE
  8
0
 10
14.9214
 20
58.115
 11
18.541
 21
57.0634
  0
LINE
  8
0
 10
18.541
 20
57.0634
 11
22.0875
 21
55.7866
  0
LINE
  8
0
 10
22.0875
 20
55.7866
 11
25.5468
 21
54.2896
  0
LINE
  8
0
 10
25.5468
 20
54.2896
 11
28.9052
 21
52.5784
  0
LINE
  8
0
 10
28.9052
 20
52.5784
 11
32.1496
 21
50.6597
  0
LINE
  8
0
 10
32.1496
 20
50.6597
 11
35.2671
 21
48.541
  0
LINE
  8
0
 10
35.2671
 20
48.541
 11
38.2454
 21
46.2308
  0
LINE
  8
0
 10
38.2454
 20
46.2308
 11
41.0728
 21
43.7381
  0
LINE
  8
0
 10
41.0728
 20
43.7381
 11
43.7381
 21
41.0728
  0
LINE
  8
0
 10
43.7381
 20
41.0728
 11
46.2308
 21
38.2454
  0
LINE
  8
0
 10
46.2308
 20
38.2454
 11
48.541
 21
35.2671
  0
LINE
  8
0
 10
48.541
 20
35.2671
 11
50.6597
 21
32.1496
  0
LINE
  8
0
 10
50.6597
 20
32.1496
 11
52.5784
 21
28.9052
  0
LINE
  8
0
 10
52.5784
 20
28.9052
 11
54.2896
 21
25.5468
  0
LINE
  8
0
 10
54.2896
 20
25.5468
 11
55.7866
 21
22.0875
  0
LINE
  8
0
 10
55.7866
 20
22.0875
 11
57.0634
 21
18.541
  0
LINE
  8
0
 10
57.0634
 20
18.541
 11
58.115
 21
14.9214
  0
LINE
  8
0
 10
58.115
 20
14.9214
 11
58.9372
 21
11.2429
  0
LINE
  8
0
 10
58.9372
 20
11.2429
 11
59.5269
 21
7.51999
  0
LINE
  8
0
 10
59.5269
 20
7.51999
 11
59.8816
 21
3.76743
  0
LINE
  8
0
 10
59.8816
 20
3.76743
 11
59.9002
 21
3.17499
  0
LINE
  8
0
 10
59.9002
 20
3.17499
 11
25.2005
 21
3.17499
  0
LINE
  8
0
 10
-52.407
 20
49.7549
 11
-52.5633
 21
49.7697
  0
LINE
  8
0
 10
-52.5633
 20
49.7697
 11
-52.7184
 21
49.7943
  0
LINE
  8
0
 10
-52.7184
 20
49.7943
 11
-52.8717
 21
49.8285
  0
LINE
  8
0
 10
-52.8717
 20
49.8285
 11
-53.0225
 21
49.8723
  0
LINE
  8
0
 10
-53.0225
 20
49.8723
 11
-53.1703
 21
49.9256
  0
LINE
  8
0
 10
-53.1703
 20
49.9256
 11
-53.3144
 21
49.9879
  0
LINE
  8
0
 10
-53.3144
 20
49.9879
 11
-53.4544
 21
50.0592
  0
LINE
  8
0
 10
-53.4544
 20
50.0592
 11
-53.5896
 21
50.1392
  0
LINE
  8
0
 10
-53.5896
 20
50.1392
 11
-53.7195
 21
50.2274
  0
LINE
  8
0
 10
-53.7195
 20
50.2274
 11
-53.8436
 21
50.3237
  0
LINE
  8
0
 10
-53.8436
 20
50.3237
 11
-53.9614
 21
50.4276
  0
LINE
  8
0
 10
-53.9614
 20
50.4276
 11
-54.0724
 21
50.5386
  0
LINE
  8
0
 10
-54.0724
 20
50.5386
 11
-54.1763
 21
50.6564
  0
LINE
  8
0
 10
-54.1763
 20
50.6564
 11
-54.2725
 21
50.7805
  0
LINE
  8
0
 10
-54.2725
 20
50.7805
 11
-54.3608
 21
50.9104
  0
LINE
  8
0
 10
-54.3608
 20
50.9104
 11
-54.4408
 21
51.0456
  0
LINE
  8
0
 10
-54.4408
 20
51.0456
 11
-54.5121
 21
51.1855
  0
LINE
  8
0
 10
-54.5121
 20
51.1855
 11
-54.5744
 21
51.3297
  0
LINE
  8
0
 10
-54.5744
 20
51.3297
 11
-54.6276
 21
51.4774
  0
LINE
  8
0
 10
-54.6276
 20
51.4774
 11
-54.6714
 21
51.6283
  0
LINE
  8
0
 10
-54.6714
 20
51.6283
 11
-54.7057
 21
51.7815
  0
LINE
  8
0
 10
-54.7057
 20
51.7815
 11
-54.7303
 21
51.9367
  0
LINE
  8
0
 10
-54.7303
 20
51.9367
 11
-54.7451
 21
52.093
  0
LINE
  8
0
 10
-54.7451
 20
52.093
 11
-54.75
 21
52.25
  0
LINE
  8
0
 10
-54.75
 20
52.25
 11
-54.7451
 21
52.407
  0
LINE
  8
0
 10
-54.7451
 20
52.407
 11
-54.7303
 21
52.5633
  0
LINE
  8
0
 10
-54.7303
 20
52.5633
 11
-54.7057
 21
52.7184
  0
LINE
  8
0
 10
-54.7057
 20
52.7184
 11
-54.6714
 21
52.8717
  0
LINE
  8
0
 10
-54.6714
 20
52.8717
 11
-54.6276
 21
53.0225
  0
LINE
  8
0
 10
-54.6276
 20
53.0225
 11
-54.5744
 21
53.1703
  0
LINE
  8
0
 10
-54.5744
 20
53.1703
 11
-54.5121
 21
53.3144
  0
LINE
  8
0
 10
-54.5121
 20
53.3144
 11
-54.4408
 21
53.4544
  0
LINE
  8
0
 10
-54.4408
 20
53.4544
 11
-54.3608
 21
53.5896
  0
LINE
  8
0
 10
-54.3608
 20
53.5896
 11
-54.2725
 21
53.7195
  0
LINE
  8
0
 10
-54.2725
 20
53.7195
 11
-54.1763
 21
53.8436
  0
LINE
  8
0
 10
-54.1763
 20
53.8436
 11
-54.0724
 21
53.9614
  0
LINE
  8
0
 10
-54.0724
 20
53.9614
 11
-53.9614
 21
54.0724
  0
LINE
  8
0
 10
-53.9614
 20
54.0724
 11
-53.8436
 21
54.1763
  0
LINE
  8
0
 10
-53.8436
 20
54.1763
 11
-53.7195
 21
54.2725
  0
LINE
  8
0
 10
-53.7195
 20
54.2725
 11
-53.5896
 21
54.3608
  0
LINE
  8
0
 10
-53.5896
 20
54.3608
 11
-53.4544
 21
54.4408
  0
LINE
  8
0
 10
-53.4544
 20
54.4408
 11
-53.3144
 21
54.5121
  0
LINE
  8
0
 10
-53.3144
 20
54.5121
 11
-53.1703
 21
54.5744
  0
LINE
  8
0
 10
-53.1703
 20
54.5744
 11
-53.0225
 21
54.6276
  0
LINE
  8
0
 10
-53.0225
 20
54.6276
 11
-52.8717
 21
54.6714
  0
LINE
  8
0
 10
-52.8717
 20
54.6714
 11
-52.7184
 21
54.7057
  0
LINE
  8
0
 10
-52.7184
 20
54.7057
 11
-52.5633
 21
54.7303
  0
LINE
  8
0
 10
-52.5633
 20
54.7303
 11
-52.407
 21
54.7451
  0
LINE
  8
0
 10
-52.407
 20
54.7451
 11
-52.25
 21
54.75
  0
LINE
  8
0
 10
-52.25
 20
54.75
 11
-52.093
 21
54.7451
  0
LINE
  8
0
 10
-52.093
 20
54.7451
 11
-51.9367
 21
54.7303
  0
LINE
  8
0
 10
-51.9367
 20
54.7303
 11
-51.7815
 21
54.7057
  0
LINE
  8
0
 10
-51.7815
 20
54.7057
 11
-51.6283
 21
54.6714
  0
LINE
  8
0
 10
-51.6283
 20
54.6714
 11
-51.4774
 21
54.6276
  0
LINE
  8
0
 10
-51.4774
 20
54.6276
 11
-51.3297
 21
54.5744
  0
LINE
  8
0
 10
-51.3297
 20
54.5744
 11
-51.1855
 21
54.5121
  0
LINE
  8
0
 10
-51.1855
 20
54.5121
 11
-51.0456
 21
54.4408
  0
LINE
  8
0
 10
-51.0456
 20
54.4408
 11
-50.9104
 21
54.3608
  0
LINE
  8
0
 10
-50.9104
 20
54.3608
 11
-50.7805
 21
54.2725
  0
LINE
  8
0
 10
-50.7805
 20
54.2725
 11
-50.6564
 21
54.1763
  0
LINE
  8
0
 10
-50.6564
 20
54.1763
 11
-50.5386
 21
54.0724
  0
LINE
  8
0
 10
-50.5386
 20
54.0724
 11
-50.4276
 21
53.9614
  0
LINE
  8
0
 10
-50.4276
 20
53.9614
 11
-50.3237
 21
53.8436
  0
LINE
  8
0
 10
-50.3237
 20
53.8436
 11
-50.2274
 21
53.7195
  0
LINE
  8
0
 10
-50.2274
 20
53.7195
 11
-50.1392
 21
53.5896
  0
LINE
  8
0
 10
-50.1392
 20
53.5896
 11
-50.0592
 21
53.4544
  0
LINE
  8
0
 10
-50.0592
 20
53.4544
 11
-49.9879
 21
53.3144
  0
LINE
  8
0
 10
-49.9879
 20
53.3144
 11
-49.9256
 21
53.1703
  0
LINE
  8
0
 10
-49.9256
 20
53.1703
 11
-49.8723
 21
53.0225
  0
LINE
  8
0
 10
-49.8723
 20
53.0225
 11
-49.8285
 21
52.8717
  0
LINE
  8
0
 10
-49.8285
 20
52.8717
 11
-49.7943
 21
52.7184
  0
LINE
  8
0
 10
-49.7943
 20
52.7184
 11
-49.7697
 21
52.5633
  0
LINE
  8
0
 10
-49.7697
 20
52.5633
 11
-49.7549
 21
52.407
  0
LINE
  8
0
 10
-49.7549
 20
52.407
 11
-49.75
 21
52.25
  0
LINE
  8
0
 10
-49.75
 20
52.25
 11
-49.7549
 21
52.093
  0
LINE
  8
0
 10
-49.7549
 20
52.093
 11
-49.7697
 21
51.9367
  0
LINE
  8
0
 10
-49.7697
 20
51.9367
 11
-49.7943
 21
51.7815
  0
LINE
  8
0
 10
-49.7943
 20
51.7815
 11
-49.8285
 21
51.6283
  0
LINE
  8
0
 10
-49.8285
 20
51.6283
 11
-49.8723
 21
51.4774
  0
LINE
  8
0
 10
-49.8723
 20
51.4774
 11
-49.9256
 21
51.3297
  0
LINE
  8
0
 10
-49.9256
 20
51.3297
 11
-49.9879
 21
51.1855
  0
LINE
  8
0
 10
-49.9879
 20
51.1855
 11
-50.0592
 21
51.0456
  0
LINE
  8
0
 10
-50.0592
 20
51.0456
 11
-50.1392
 21
50.9104
  0
LINE
  8
0
 10
-50.1392
 20
50.9104
 11
-50.2274
 21
50.7805
  0
LINE
  8
0
 10
-50.2274
 20
50.7805
 11
-50.3237
 21
50.6564
  0
LINE
  8
0
 10
-50.3237
 20
50.6564
 11
-50.4276
 21
50.5386
  0
LINE
  8
0
 10
-50.4276
 20
50.5386
 11
-50.5386
 21
50.4276
  0
LINE
  8
0
 10
-50.5386
 20
50.4276
 11
-50.6564
 21
50.3237
  0
LINE
  8
0
 10
-50.6564
 20
50.3237
 11
-50.7805
 21
50.2274
  0
LINE
  8
0
 10
-50.7805
 20
50.2274
 11
-50.9104
 21
50.1392
  0
LINE
  8
0
 10
-50.9104
 20
50.1392
 11
-51.0456
 21
50.0592
  0
LINE
  8
0
 10
-51.0456
 20
50.0592
 11
-51.1855
 21
49.9879
  0
LINE
  8
0
 10
-51.1855
 20
49.9879
 11
-51.3297
 21
49.9256
  0
LINE
  8
0
 10
-51.3297
 20
49.9256
 11
-51.4774
 21
49.8723
  0
LINE
  8
0
 10
-51.4774
 20
49.8723
 11
-51.6283
 21
49.8285
  0
LINE
  8
0
 10
-51.6283
 20
49.8285
 11
-51.7815
 21
49.7943
  0
LINE
  8
0
 10
-51.7815
 20
49.7943
 11
-51.9367
 21
49.7697
  0
LINE
  8
0
 10
-51.9367
 20
49.7697
 11
-52.093
 21
49.7549
  0
LINE
  8
0
 10
-52.093
 20
49.7549
 11
-52.25
 21
49.75
  0
LINE
  8
0
 10
-52.25
 20
49.75
 11
-52.407
 21
49.7549
  0
LINE
  8
0
 10
52.093
 20
49.7549
 11
51.9367
 21
49.7697
  0
LINE
  8
0
 10
51.9367
 20
49.7697
 11
51.7815
 21
49.7943
  0
LINE
  8
0
 10
51.7815
 20
49.7943
 11
51.6283
 21
49.8285
  0
LINE
  8
0
 10
51.6283
 20
49.8285
 11
51.4774
 21
49.8723
  0
LINE
  8
0
 10
51.4774
 20
49.8723
 11
51.3297
 21
49.9256
  0
LINE
  8
0
 10
51.3297
 20
49.9256
 11
51.1855
 21
49.9879
  0
LINE
  8
0
 10
51.1855
 20
49.9879
 11
51.0456
 21
50.0592
  0
LINE
  8
0
 10
51.0456
 20
50.0592
 11
50.9104
 21
50.1392
  0
LINE
  8
0
 10
50.9104
 20
50.1392
 11
50.7805
 21
50.2274
  0
LINE
  8
0
 10
50.7805
 20
50.2274
 11
50.6564
 21
50.3237
  0
LINE
  8
0
 10
50.6564
 20
50.3237
 11
50.5386
 21
50.4276
  0
LINE
  8
0
 10
50.5386
 20
50.4276
 11
50.4276
 21
50.5386
  0
LINE
  8
0
 10
50.4276
 20
50.5386
 11
50.3237
 21
50.6564
  0
LINE
  8
0
 10
50.3237
 20
50.6564
 11
50.2274
 21
50.7805
  0
LINE
  8
0
 10
50.2274
 20
50.7805
 11
50.1392
 21
50.9104
  0
LINE
  8
0
 10
50.1392
 20
50.9104
 11
50.0592
 21
51.0456
  0
LINE
  8
0
 10
50.0592
 20
51.0456
 11
49.9879
 21
51.1855
  0
LINE
  8
0
 10
49.9879
 20
51.1855
 11
49.9256
 21
51.3297
  0
LINE
  8
0
 10
49.9256
 20
51.3297
 11
49.8723
 21
51.4774
  0
LINE
  8
0
 10
49.8723
 20
51.4774
 11
49.8285
 21
51.6283
  0
LINE
  8
0
 10
49.8285
 20
51.6283
 11
49.7943
 21
51.7815
  0
LINE
  8
0
 10
49.7943
 20
51.7815
 11
49.7697
 21
51.9367
  0
LINE
  8
0
 10
49.7697
 20
51.9367
 11
49.7549
 21
52.093
  0
LINE
  8
0
 10
49.7549
 20
52.093
 11
49.75
 21
52.25
  0
LINE
  8
0
 10
49.75
 20
52.25
 11
49.7549
 21
52.407
  0
LINE
  8
0
 10
49.7549
 20
52.407
 11
49.7697
 21
52.5633
  0
LINE
  8
0
 10
49.7697
 20
52.5633
 11
49.7943
 21
52.7184
  0
LINE
  8
0
 10
49.7943
 20
52.7184
 11
49.8285
 21
52.8717
  0
LINE
  8
0
 10
49.8285
 20
52.8717
 11
49.8723
 21
53.0225
  0
LINE
  8
0
 10
49.8723
 20
53.0225
 11
49.9256
 21
53.1703
  0
LINE
  8
0
 10
49.9256
 20
53.1703
 11
49.9879
 21
53.3144
  0
LINE
  8
0
 10
49.9879
 20
53.3144
 11
50.0592
 21
53.4544
  0
LINE
  8
0
 10
50.0592
 20
53.4544
 11
50.1392
 21
53.5896
  0
LINE
  8
0
 10
50.1392
 20
53.5896
 11
50.2274
 21
53.7195
  0
LINE
  8
0
 10
50.2274
 20
53.7195
 11
50.3237
 21
53.8436
  0
LINE
  8
0
 10
50.3237
 20
53.8436
 11
50.4276
 21
53.9614
  0
LINE
  8
0
 10
50.4276
 20
53.9614
 11
50.5386
 21
54.0724
  0
LINE
  8
0
 10
50.5386
 20
54.0724
 11
50.6564
 21
54.1763
  0
LINE
  8
0
 10
50.6564
 20
54.1763
 11
50.7805
 21
54.2725
  0
LINE
  8
0
 10
50.7805
 20
54.2725
 11
50.9104
 21
54.3608
  0
LINE
  8
0
 10
50.9104
 20
54.3608
 11
51.0456
 21
54.4408
  0
LINE
  8
0
 10
51.0456
 20
54.4408
 11
51.1855
 21
54.5121
  0
LINE
  8
0
 10
51.1855
 20
54.5121
 11
51.3297
 21
54.5744
  0
LINE
  8
0
 10
51.3297
 20
54.5744
 11
51.4774
 21
54.6276
  0
LINE
  8
0
 10
51.4774
 20
54.6276
 11
51.6283
 21
54.6714
  0
LINE
  8
0
 10
51.6283
 20
54.6714
 11
51.7815
 21
54.7057
  0
LINE
  8
0
 10
51.7815
 20
54.7057
 11
51.9367
 21
54.7303
  0
LINE
  8
0
 10
51.9367
 20
54.7303
 11
52.093
 21
54.7451
  0
LINE
  8
0
 10
52.093
 20
54.7451
 11
52.25
 21
54.75
  0
LINE
  8
0
 10
52.25
 20
54.75
 11
52.407
 21
54.7451
  0
LINE
  8
0
 10
52.407
 20
54.7451
 11
52.5633
 21
54.7303
  0
LINE
  8
0
 10
52.5633
 20
54.7303
 11
52.7184
 21
54.7057
  0
LINE
  8
0
 10
52.7184
 20
54.7057
 11
52.8717
 21
54.6714
  0
LINE
  8
0
 10
52.8717
 20
54.6714
 11
53.0225
 21
54.6276
  0
LINE
  8
0
 10
53.0225
 20
54.6276
 11
53.1703
 21
54.5744
  0
LINE
  8
0
 10
53.1703
 20
54.5744
 11
53.3144
 21
54.5121
  0
LINE
  8
0
 10
53.3144
 20
54.5121
 11
53.4544
 21
54.4408
  0
LINE
  8
0
 10
53.4544
 20
54.4408
 11
53.5896
 21
54.3608
  0
LINE
  8
0
 10
53.5896
 20
54.3608
 11
53.7195
 21
54.2725
  0
LINE
  8
0
 10
53.7195
 20
54.2725
 11
53.8436
 21
54.1763
  0
LINE
  8
0
 10
53.8436
 20
54.1763
 11
53.9614
 21
54.0724
  0
LINE
  8
0
 10
53.9614
 20
54.0724
 11
54.0724
 21
53.9614
  0
LINE
  8
0
 10
54.0724
 20
53.9614
 11
54.1763
 21
53.8436
  0
LINE
  8
0
 10
54.1763
 20
53.8436
 11
54.2725
 21
53.7195
  0
LINE
  8
0
 10
54.2725
 20
53.7195
 11
54.3608
 21
53.5896
  0
LINE
  8
0
 10
54.3608
 20
53.5896
 11
54.4408
 21
53.4544
  0
LINE
  8
0
 10
54.4408
 20
53.4544
 11
54.5121
 21
53.3144
  0
LINE
  8
0
 10
54.5121
 20
53.3144
 11
54.5744
 21
53.1703
  0
LINE
  8
0
 10
54.5744
 20
53.1703
 11
54.6276
 21
53.0225
  0
LINE
  8
0
 10
54.6276
 20
53.0225
 11
54.6714
 21
52.8717
  0
LINE
  8
0
 10
54.6714
 20
52.8717
 11
54.7057
 21
52.7184
  0
LINE
  8
0
 10
54.7057
 20
52.7184
 11
54.7303
 21
52.5633
  0
LINE
  8
0
 10
54.7303
 20
52.5633
 11
54.7451
 21
52.407
  0
LINE
  8
0
 10
54.7451
 20
52.407
 11
54.75
 21
52.25
  0
LINE
  8
0
 10
54.75
 20
52.25
 11
54.7451
 21
52.093
  0
LINE
  8
0
 10
54.7451
 20
52.093
 11
54.7303
 21
51.9367
  0
LINE
  8
0
 10
54.7303
 20
51.9367
 11
54.7057
 21
51.7815
  0
LINE
  8
0
 10
54.7057
 20
51.7815
 11
54.6714
 21
51.6283
  0
LINE
  8
0
 10
54.6714
 20
51.6283
 11
54.6276
 21
51.4774
  0
LINE
  8
0
 10
54.6276
 20
51.4774
 11
54.5744
 21
51.3297
  0
LINE
  8
0
 10
54.5744
 20
51.3297
 11
54.5121
 21
51.1855
  0
LINE
  8
0
 10
54.5121
 20
51.1855
 11
54.4408
 21
51.0456
  0
LINE
  8
0
 10
54.4408
 20
51.0456
 11
54.3608
 21
50.9104
  0
LINE
  8
0
 10
54.3608
 20
50.9104
 11
54.2725
 21
50.7805
  0
LINE
  8
0
 10
54.2725
 20
50.7805
 11
54.1763
 21
50.6564
  0
LINE
  8
0
 10
54.1763
 20
50.6564
 11
54.0724
 21
50.5386
  0
LINE
  8
0
 10
54.0724
 20
50.5386
 11
53.9614
 21
50.4276
  0
LINE
  8
0
 10
53.9614
 20
50.4276
 11
53.8436
 21
50.3237
  0
LINE
  8
0
 10
53.8436
 20
50.3237
 11
53.7195
 21
50.2274
  0
LINE
  8
0
 10
53.7195
 20
50.2274
 11
53.5896
 21
50.1392
  0
LINE
  8
0
 10
53.5896
 20
50.1392
 11
53.4544
 21
50.0592
  0
LINE
  8
0
 10
53.4544
 20
50.0592
 11
53.3144
 21
49.9879
  0
LINE
  8
0
 10
53.3144
 20
49.9879
 11
53.1703
 21
49.9256
  0
LINE
  8
0
 10
53.1703
 20
49.9256
 11
53.0225
 21
49.8723
  0
LINE
  8
0
 10
53.0225
 20
49.8723
 11
52.8717
 21
49.8285
  0
LINE
  8
0
 10
52.8717
 20
49.8285
 11
52.7184
 21
49.7943
  0
LINE
  8
0
 10
52.7184
 20
49.7943
 11
52.5633
 21
49.7697
  0
LINE
  8
0
 10
52.5633
 20
49.7697
 11
52.407
 21
49.7549
  0
LINE
  8
0
 10
52.407
 20
49.7549
 11
52.25
 21
49.75
  0
LINE
  8
0
 10
52.25
 20
49.75
 11
52.093
 21
49.7549
  0
LINE
  8
0
 10
3.17499
 20
-25.2005
 11
3.18346
 21
-25.1997
  0
LINE
  8
0
 10
3.18346
 20
-25.1997
 11
4.75948
 21
-24.9501
  0
LINE
  8
0
 10
4.75948
 20
-24.9501
 11
6.31671
 21
-24.602
  0
LINE
  8
0
 10
6.31671
 20
-24.602
 11
7.84903
 21
-24.1568
  0
LINE
  8
0
 10
7.84903
 20
-24.1568
 11
9.35036
 21
-23.6163
  0
LINE
  8
0
 10
9.35036
 20
-23.6163
 11
10.8148
 21
-22.9826
  0
LINE
  8
0
 10
10.8148
 20
-22.9826
 11
12.2365
 21
-22.2582
  0
LINE
  8
0
 10
12.2365
 20
-22.2582
 11
13.61
 21
-21.4459
  0
LINE
  8
0
 10
13.61
 20
-21.4459
 11
14.9297
 21
-20.549
  0
LINE
  8
0
 10
14.9297
 20
-20.549
 11
16.1906
 21
-19.571
  0
LINE
  8
0
 10
16.1906
 20
-19.571
 11
17.3875
 21
-18.5158
  0
LINE
  8
0
 10
17.3875
 20
-18.5158
 11
18.5158
 21
-17.3875
  0
LINE
  8
0
 10
18.5158
 20
-17.3875
 11
19.571
 21
-16.1906
  0
LINE
  8
0
 10
19.571
 20
-16.1906
 11
20.549
 21
-14.9297
  0
LINE
  8
0
 10
20.549
 20
-14.9297
 11
21.4459
 21
-13.61
  0
LINE
  8
0
 10
21.4459
 20
-13.61
 11
22.2582
 21
-12.2365
  0
LINE
  8
0
 10
22.2582
 20
-12.2365
 11
22.9826
 21
-10.8148
  0
LINE
  8
0
 10
22.9826
 20
-10.8148
 11
23.6163
 21
-9.35036
  0
LINE
  8
0
 10
23.6163
 20
-9.35036
 11
24.1568
 21
-7.84903
  0
LINE
  8
0
 10
24.1568
 20
-7.84903
 11
24.602
 21
-6.31671
  0
LINE
  8
0
 10
24.602
 20
-6.31671
 11
24.9501
 21
-4.75948
  0
LINE
  8
0
 10
24.9501
 20
-4.75948
 11
25.1997
 21
-3.18346
  0
LINE
  8
0
 10
25.1997
 20
-3.18346
 11
25.2005
 21
-3.17499
  0
LINE
  8
0
 10
25.2005
 20
-3.17499
 11
59.9002
 21
-3.17499
  0
LINE
  8
0
 10
59.9002
 20
-3.17499
 11
59.8816
 21
-3.76743
  0
LINE
  8
0
 10
59.8816
 20
-3.76743
 11
59.5269
 21
-7.51999
  0
LINE
  8
0
 10
59.5269
 20
-7.51999
 11
58.9372
 21
-11.2429
  0
LINE
  8
0
 10
58.9372
 20
-11.2429
 11
58.115
 21
-14.9214
  0
LINE
  8
0
 10
58.115
 20
-14.9214
 11
57.0634
 21
-18.541
  0
LINE
  8
0
 10
57.0634
 20
-18.541
 11
55.7866
 21
-22.0875
  0
LINE
  8
0
 10
55.7866
 20
-22.0875
 11
54.2896
 21
-25.5468
  0
LINE
  8
0
 10
54.2896
 20
-25.5468
 11
52.5784
 21
-28.9052
  0
LINE
  8
0
 10
52.5784
 20
-28.9052
 11
50.6597
 21
-32.1496
  0
LINE
  8
0
 10
50.6597
 20
-32.1496
 11
48.541
 21
-35.2671
  0
LINE
  8
0
 10
48.541
 20
-35.2671
 11
46.2308
 21
-38.2454
  0
LINE
  8
0
 10
46.2308
 20
-38.2454
 11
43.7381
 21
-41.0728
  0
LINE
  8
0
 10
43.7381
 20
-41.0728
 11
41.0728
 21
-43.7381
  0
LINE
  8
0
 10
41.0728
 20
-43.7381
 11
38.2454
 21
-46.2308
  0
LINE
  8
0
 10
38.2454
 20
-46.2308
 11
35.2671
 21
-48.541
  0
LINE
  8
0
 10
35.2671
 20
-48.541
 11
32.1496
 21
-50.6597
  0
LINE
  8
0
 10
32.1496
 20
-50.6597
 11
28.9052
 21
-52.5784
  0
LINE
  8
0
 10
28.9052
 20
-52.5784
 11
25.5468
 21
-54.2896
  0
LINE
  8
0
 10
25.5468
 20
-54.2896
 11
22.0875
 21
-55.7866
  0
LINE
  8
0
 10
22.0875
 20
-55.7866
 11
18.541
 21
-57.0634
  0
LINE
  8
0
 10
18.541
 20
-57.0634
 11
14.9214
 21
-58.115
  0
LINE
  8
0
 10
14.9214
 20
-58.115
 11
11.2429
 21
-58.9372
  0
LINE
  8
0
 10
11.2429
 20
-58.9372
 11
7.51999
 21
-59.5269
  0
LINE
  8
0
 10
7.51999
 20
-59.5269
 11
3.76743
 21
-59.8816
  0
LINE
  8
0
 10
3.76743
 20
-59.8816
 11
3.17499
 21
-59.9002
  0
LINE
  8
0
 10
3.17499
 20
-59.9002
 11
3.17499
 21
-25.2005
  0
LINE
  8
0
 10
-3.76743
 20
-59.8816
 11
-7.51999
 21
-59.5269
  0
LINE
  8
0
 10
-7.51999
 20
-59.5269
 11
-11.2429
 21
-58.9372
  0
LINE
  8
0
 10
-11.2429
 20
-58.9372
 11
-14.9214
 21
-58.115
  0
LINE
  8
0
 10
-14.9214
 20
-58.115
 11
-18.541
 21
-57.0634
  0
LINE
  8
0
 10
-18.541
 20
-57.0634
 11
-22.0875
 21
-55.7866
  0
LINE
  8
0
 10
-22.0875
 20
-55.7866
 11
-25.5468
 21
-54.2896
  0
LINE
  8
0
 10
-25.5468
 20
-54.2896
 11
-28.9052
 21
-52.5784
  0
LINE
  8
0
 10
-28.9052
 20
-52.5784
 11
-32.1496
 21
-50.6597
  0
LINE
  8
0
 10
-32.1496
 20
-50.6597
 11
-35.2671
 21
-48.541
  0
LINE
  8
0
 10
-35.2671
 20
-48.541
 11
-38.2454
 21
-46.2308
  0
LINE
  8
0
 10
-38.2454
 20
-46.2308
 11
-41.0728
 21
-43.7381
  0
LINE
  8
0
 10
-41.0728
 20
-43.7381
 11
-43.7381
 21
-41.0728
  0
LINE
  8
0
 10
-43.7381
 20
-41.0728
 11
-46.2308
 21
-38.2454
  0
LINE
  8
0
 10
-46.2308
 20
-38.2454
 11
-48.541
 21
-35.2671
  0
LINE
  8
0
 10
-48.541
 20
-35.2671
 11
-50.6597
 21
-32.1496
  0
LINE
  8
0
 10
-50.6597
 20
-32.1496
 11
-52.5784
 21
-28.9052
  0
LINE
  8
0
 10
-52.5784
 20
-28.9052
 11
-54.2896
 21
-25.5468
  0
LINE
  8
0
 10
-54.2896
 20
-25.5468
 11
-55.7866
 21
-22.0875
  0
LINE
  8
0
 10
-55.7866
 20
-22.0875
 11
-57.0634
 21
-18.541
  0
LINE
  8
0
 10
-57.0634
 20
-18.541
 11
-58.115
 21
-14.9214
  0
LINE
  8
0
 10
-58.115
 20
-14.9214
 11
-58.9372
 21
-11.2429
  0
LINE
  8
0
 10
-58.9372
 20
-11.2429
 11
-59.5269
 21
-7.51999
  0
LINE
  8
0
 10
-59.5269
 20
-7.51999
 11
-59.8816
 21
-3.76743
  0
LINE
  8
0
 10
-59.8816
 20
-3.76743
 11
-59.9002
 21
-3.17499
  0
LINE
  8
0
 10
-59.9002
 20
-3.17499
 11
-25.2005
 21
-3.17499
  0
LINE
  8
0
 10
-25.2005
 20
-3.17499
 11
-25.1997
 21
-3.18346
  0
LINE
  8
0
 10
-25.1997
 20
-3.18346
 11
-24.9501
 21
-4.75948
  0
LINE
  8
0
 10
-24.9501
 20
-4.75948
 11
-24.602
 21
-6.31671
  0
LINE
  8
0
 10
-24.602
 20
-6.31671
 11
-24.1568
 21
-7.84903
  0
LINE
  8
0
 10
-24.1568
 20
-7.84903
 11
-23.6163
 21
-9.35036
  0
LINE
  8
0
 10
-23.6163
 20
-9.35036
 11
-22.9826
 21
-10.8148
  0
LINE
  8
0
 10
-22.9826
 20
-10.8148
 11
-22.2582
 21
-12.2365
  0
LINE
  8
0
 10
-22.2582
 20
-12.2365
 11
-21.4459
 21
-13.61
  0
LINE
  8
0
 10
-21.4459
 20
-13.61
 11
-20.549
 21
-14.9297
  0
LINE
  8
0
 10
-20.549
 20
-14.9297
 11
-19.571
 21
-16.1906
  0
LINE
  8
0
 10
-19.571
 20
-16.1906
 11
-18.5158
 21
-17.3875
  0
LINE
  8
0
 10
-18.5158
 20
-17.3875
 11
-17.3875
 21
-18.5158
  0
LINE
  8
0
 10
-17.3875
 20
-18.5158
 11
-16.1906
 21
-19.571
  0
LINE
  8
0
 10
-16.1906
 20
-19.571
 11
-14.9297
 21
-20.549
  0
LINE
  8
0
 10
-14.9297
 20
-20.549
 11
-13.61
 21
-21.4459
  0
LINE
  8
0
 10
-13.61
 20
-21.4459
 11
-12.2365
 21
-22.2582
  0
LINE
  8
0
 10
-12.2365
 20
-22.2582
 11
-10.8148
 21
-22.9826
  0
LINE
  8
0
 10
-10.8148
 20
-22.9826
 11
-9.35036
 21
-23.6163
  0
LINE
  8
0
 10
-9.35036
 20
-23.6163
 11
-7.84903
 21
-24.1568
  0
LINE
  8
0
 10
-7.84903
 20
-24.1568
 11
-6.31671
 21
-24.602
  0
LINE
  8
0
 10
-6.31671
 20
-24.602
 11
-4.75948
 21
-24.9501
  0
LINE
  8
0
 10
-4.75948
 20
-24.9501
 11
-3.18346
 21
-25.1997
  0
LINE
  8
0
 10
-3.18346
 20
-25.1997
 11
-3.17499
 21
-25.2005
  0
LINE
  8
0
 10
-3.17499
 20
-25.2005
 11
-3.17499
 21
-59.9002
  0
LINE
  8
0
 10
-3.17499
 20
-59.9002
 11
-3.76743
 21
-59.8816
  0
LINE
  8
0
 10
75.9944
 20
-32.6685
 11
75.7895
 21
-32.6492
  0
LINE
  8
0
 10
75.7895
 20
-32.6492
 11
75.5863
 21
-32.617
  0
LINE
  8
0
 10
75.5863
 20
-32.617
 11
75.3855
 21
-32.5721
  0
LINE
  8
0
 10
75.3855
 20
-32.5721
 11
75.188
 21
-32.5147
  0
LINE
  8
0
 10
75.188
 20
-32.5147
 11
74.9944
 21
-32.445
  0
LINE
  8
0
 10
74.9944
 20
-32.445
 11
74.8056
 21
-32.3633
  0
LINE
  8
0
 10
74.8056
 20
-32.3633
 11
74.6223
 21
-32.2699
  0
LINE
  8
0
 10
74.6223
 20
-32.2699
 11
74.4452
 21
-32.1652
  0
LINE
  8
0
 10
74.4452
 20
-32.1652
 11
74.275
 21
-32.0495
  0
LINE
  8
0
 10
74.275
 20
-32.0495
 11
74.1124
 21
-31.9234
  0
LINE
  8
0
 10
74.1124
 20
-31.9234
 11
73.9581
 21
-31.7874
  0
LINE
  8
0
 10
73.9581
 20
-31.7874
 11
73.8126
 21
-31.6419
  0
LINE
  8
0
 10
73.8126
 20
-31.6419
 11
73.6766
 21
-31.4875
  0
LINE
  8
0
 10
73.6766
 20
-31.4875
 11
73.5505
 21
-31.325
  0
LINE
  8
0
 10
73.5505
 20
-31.325
 11
73.4348
 21
-31.1548
  0
LINE
  8
0
 10
73.4348
 20
-31.1548
 11
73.3301
 21
-30.9777
  0
LINE
  8
0
 10
73.3301
 20
-30.9777
 11
73.2367
 21
-30.7944
  0
LINE
  8
0
 10
73.2367
 20
-30.7944
 11
73.155
 21
-30.6056
  0
LINE
  8
0
 10
73.155
 20
-30.6056
 11
73.0853
 21
-30.412
  0
LINE
  8
0
 10
73.0853
 20
-30.412
 11
73.0279
 21
-30.2144
  0
LINE
  8
0
 10
73.0279
 20
-30.2144
 11
72.983
 21
-30.0137
  0
LINE
  8
0
 10
72.983
 20
-30.0137
 11
72.9508
 21
-29.8105
  0
LINE
  8
0
 10
72.9508
 20
-29.8105
 11
72.9315
 21
-29.6056
  0
LINE
  8
0
 10
72.9315
 20
-29.6056
 11
72.925
 21
-29.4
  0
LINE
  8
0
 10
72.925
 20
-29.4
 11
72.9315
 21
-29.1944
  0
LINE
  8
0
 10
72.9315
 20
-29.1944
 11
72.9508
 21
-28.9895
  0
LINE
  8
0
 10
72.9508
 20
-28.9895
 11
72.983
 21
-28.7863
  0
LINE
  8
0
 10
72.983
 20
-28.7863
 11
73.0279
 21
-28.5855
  0
LINE
  8
0
 10
73.0279
 20
-28.5855
 11
73.0853
 21
-28.388
  0
LINE
  8
0
 10
73.0853
 20
-28.388
 11
73.155
 21
-28.1944
  0
LINE
  8
0
 10
73.155
 20
-28.1944
 11
73.2367
 21
-28.0056
  0
LINE
  8
0
 10
73.2367
 20
-28.0056
 11
73.3301
 21
-27.8223
  0
LINE
  8
0
 10
73.3301
 20
-27.8223
 11
73.4348
 21
-27.6452
  0
LINE
  8
0
 10
73.4348
 20
-27.6452
 11
73.5505
 21
-27.475
  0
LINE
  8
0
 10
73.5505
 20
-27.475
 11
73.6766
 21
-27.3124
  0
LINE
  8
0
 10
73.6766
 20
-27.3124
 11
73.8126
 21
-27.1581
  0
LINE
  8
0
 10
73.8126
 20
-27.1581
 11
73.9581
 21
-27.0126
  0
LINE
  8
0
 10
73.9581
 20
-27.0126
 11
74.1124
 21
-26.8766
  0
LINE
  8
0
 10
74.1124
 20
-26.8766
 11
74.275
 21
-26.7505
  0
LINE
  8
0
 10
74.275
 20
-26.7505
 11
74.4452
 21
-26.6348
  0
LINE
  8
0
 10
74.4452
 20
-26.6348
 11
74.6223
 21
-26.5301
  0
LINE
  8
0
 10
74.6223
 20
-26.5301
 11
74.8056
 21
-26.4367
  0
LINE
  8
0
 10
74.8056
 20
-26.4367
 11
74.9944
 21
-26.355
  0
LINE
  8
0
 10
74.9944
 20
-26.355
 11
75.188
 21
-26.2853
  0
LINE
  8
0
 10
75.188
 20
-26.2853
 11
75.3855
 21
-26.2279
  0
LINE
  8
0
 10
75.3855
 20
-26.2279
 11
75.5863
 21
-26.183
  0
LINE
  8
0
 10
75.5863
 20
-26.183
 11
75.7895
 21
-26.1508
  0
LINE
  8
0
 10
75.7895
 20
-26.1508
 11
75.9944
 21
-26.1315
  0
LINE
  8
0
 10
75.9944
 20
-26.1315
 11
76.2
 21
-26.125
  0
LINE
  8
0
 10
76.2
 20
-26.125
 11
76.4056
 21
-26.1315
  0
LINE
  8
0
 10
76.4056
 20
-26.1315
 11
76.6105
 21
-26.1508
  0
LINE
  8
0
 10
76.6105
 20
-26.1508
 11
76.8137
 21
-26.183
  0
LINE
  8
0
 10
76.8137
 20
-26.183
 11
77.0145
 21
-26.2279
  0
LINE
  8
0
 10
77.0145
 20
-26.2279
 11
77.212
 21
-26.2853
  0
LINE
  8
0
 10
77.212
 20
-26.2853
 11
77.4056
 21
-26.355
  0
LINE
  8
0
 10
77.4056
 20
-26.355
 11
77.5944
 21
-26.4367
  0
LINE
  8
0
 10
77.5944
 20
-26.4367
 11
77.7777
 21
-26.5301
  0
LINE
  8
0
 10
77.7777
 20
-26.5301
 11
77.9548
 21
-26.6348
  0
LINE
  8
0
 10
77.9548
 20
-26.6348
 11
78.125
 21
-26.7505
  0
LINE
  8
0
 10
78.125
 20
-26.7505
 11
78.2876
 21
-26.8766
  0
LINE
  8
0
 10
78.2876
 20
-26.8766
 11
78.4419
 21
-27.0126
  0
LINE
  8
0
 10
78.4419
 20
-27.0126
 11
78.5874
 21
-27.1581
  0
LINE
  8
0
 10
78.5874
 20
-27.1581
 11
78.7234
 21
-27.3124
  0
LINE
  8
0
 10
78.7234
 20
-27.3124
 11
78.8495
 21
-27.475
  0
LINE
  8
0
 10
78.8495
 20
-27.475
 11
78.9652
 21
-27.6452
  0
LINE
  8
0
 10
78.9652
 20
-27.6452
 11
79.0699
 21
-27.8223
  0
LINE
  8
0
 10
79.0699
 20
-27.8223
 11
79.1633
 21
-28.0056
  0
LINE
  8
0
 10
79.1633
 20
-28.0056
 11
79.245
 21
-28.1944
  0
LINE
  8
0
 10
79.245
 20
-28.1944
 11
79.3147
 21
-28.388
  0
LINE
  8
0
 10
79.3147
 20
-28.388
 11
79.3721
 21
-28.5855
  0
LINE
  8
0
 10
79.3721
 20
-28.5855
 11
79.417
 21
-28.7863
  0
LINE
  8
0
 10
79.417
 20
-28.7863
 11
79.4492
 21
-28.9895
  0
LINE
  8
0
 10
79.4492
 20
-28.9895
 11
79.4685
 21
-29.1944
  0
LINE
  8
0
 10
79.4685
 20
-29.1944
 11
79.475
 21
-29.4
  0
LINE
  8
0
 10
79.475
 20
-29.4
 11
79.4685
 21
-29.6056
  0
LINE
  8
0
 10
79.4685
 20
-29.6056
 11
79.4492
 21
-29.8105
  0
LINE
  8
0
 10
79.4492
 20
-29.8105
 11
79.417
 21
-30.0137
  0
LINE
  8
0
 10
79.417
 20
-30.0137
 11
79.3721
 21
-30.2144
  0
LINE
  8
0
 10
79.3721
 20
-30.2144
 11
79.3147
 21
-30.412
  0
LINE
  8
0
 10
79.3147
 20
-30.412
 11
79.245
 21
-30.6056
  0
LINE
  8
0
 10
79.245
 20
-30.6056
 11
79.1633
 21
-30.7944
  0
LINE
  8
0
 10
79.1633
 20
-30.7944
 11
79.0699
 21
-30.9777
  0
LINE
  8
0
 10
79.0699
 20
-30.9777
 11
78.9652
 21
-31.1548
  0
LINE
  8
0
 10
78.9652
 20
-31.1548
 11
78.8495
 21
-31.325
  0
LINE
  8
0
 10
78.8495
 20
-31.325
 11
78.7234
 21
-31.4875
  0
LINE
  8
0
 10
78.7234
 20
-31.4875
 11
78.5874
 21
-31.6419
  0
LINE
  8
0
 10
78.5874
 20
-31.6419
 11
78.4419
 21
-31.7874
  0
LINE
  8
0
 10
78.4419
 20
-31.7874
 11
78.2876
 21
-31.9234
  0
LINE
  8
0
 10
78.2876
 20
-31.9234
 11
78.125
 21
-32.0495
  0
LINE
  8
0
 10
78.125
 20
-32.0495
 11
77.9548
 21
-32.1652
  0
LINE
  8
0
 10
77.9548
 20
-32.1652
 11
77.7777
 21
-32.2699
  0
LINE
  8
0
 10
77.7777
 20
-32.2699
 11
77.5944
 21
-32.3633
  0
LINE
  8
0
 10
77.5944
 20
-32.3633
 11
77.4056
 21
-32.445
  0
LINE
  8
0
 10
77.4056
 20
-32.445
 11
77.212
 21
-32.5147
  0
LINE
  8
0
 10
77.212
 20
-32.5147
 11
77.0145
 21
-32.5721
  0
LINE
  8
0
 10
77.0145
 20
-32.5721
 11
76.8137
 21
-32.617
  0
LINE
  8
0
 10
76.8137
 20
-32.617
 11
76.6105
 21
-32.6492
  0
LINE
  8
0
 10
76.6105
 20
-32.6492
 11
76.4056
 21
-32.6685
  0
LINE
  8
0
 10
76.4056
 20
-32.6685
 11
76.2
 21
-32.675
  0
LINE
  8
0
 10
76.2
 20
-32.675
 11
75.9944
 21
-32.6685
  0
LINE
  8
0
 10
-76.4056
 20
-32.6685
 11
-76.6105
 21
-32.6492
  0
LINE
  8
0
 10
-76.6105
 20
-32.6492
 11
-76.8137
 21
-32.617
  0
LINE
  8
0
 10
-76.8137
 20
-32.617
 11
-77.0145
 21
-32.5721
  0
LINE
  8
0
 10
-77.0145
 20
-32.5721
 11
-77.212
 21
-32.5147
  0
LINE
  8
0
 10
-77.212
 20
-32.5147
 11
-77.4056
 21
-32.445
  0
LINE
  8
0
 10
-77.4056
 20
-32.445
 11
-77.5944
 21
-32.3633
  0
LINE
  8
0
 10
-77.5944
 20
-32.3633
 11
-77.7777
 21
-32.2699
  0
LINE
  8
0
 10
-77.7777
 20
-32.2699
 11
-77.9548
 21
-32.1652
  0
LINE
  8
0
 10
-77.9548
 20
-32.1652
 11
-78.125
 21
-32.0495
  0
LINE
  8
0
 10
-78.125
 20
-32.0495
 11
-78.2876
 21
-31.9234
  0
LINE
  8
0
 10
-78.2876
 20
-31.9234
 11
-78.4419
 21
-31.7874
  0
LINE
  8
0
 10
-78.4419
 20
-31.7874
 11
-78.5874
 21
-31.6419
  0
LINE
  8
0
 10
-78.5874
 20
-31.6419
 11
-78.7234
 21
-31.4875
  0
LINE
  8
0
 10
-78.7234
 20
-31.4875
 11
-78.8495
 21
-31.325
  0
LINE
  8
0
 10
-78.8495
 20
-31.325
 11
-78.9652
 21
-31.1548
  0
LINE
  8
0
 10
-78.9652
 20
-31.1548
 11
-79.0699
 21
-30.9777
  0
LINE
  8
0
 10
-79.0699
 20
-30.9777
 11
-79.1633
 21
-30.7944
  0
LINE
  8
0
 10
-79.1633
 20
-30.7944
 11
-79.245
 21
-30.6056
  0
LINE
  8
0
 10
-79.245
 20
-30.6056
 11
-79.3147
 21
-30.412
  0
LINE
  8
0
 10
-79.3147
 20
-30.412
 11
-79.3721
 21
-30.2144
  0
LINE
  8
0
 10
-79.3721
 20
-30.2144
 11
-79.417
 21
-30.0137
  0
LINE
  8
0
 10
-79.417
 20
-30.0137
 11
-79.4492
 21
-29.8105
  0
LINE
  8
0
 10
-79.4492
 20
-29.8105
 11
-79.4685
 21
-29.6056
  0
LINE
  8
0
 10
-79.4685
 20
-29.6056
 11
-79.475
 21
-29.4
  0
LINE
  8
0
 10
-79.475
 20
-29.4
 11
-79.4685
 21
-29.1944
  0
LINE
  8
0
 10
-79.4685
 20
-29.1944
 11
-79.4492
 21
-28.9895
  0
LINE
  8
0
 10
-79.4492
 20
-28.9895
 11
-79.417
 21
-28.7863
  0
LINE
  8
0
 10
-79.417
 20
-28.7863
 11
-79.3721
 21
-28.5855
  0
LINE
  8
0
 10
-79.3721
 20
-28.5855
 11
-79.3147
 21
-28.388
  0
LINE
  8
0
 10
-79.3147
 20
-28.388
 11
-79.245
 21
-28.1944
  0
LINE
  8
0
 10
-79.245
 20
-28.1944
 11
-79.1633
 21
-28.0056
  0
LINE
  8
0
 10
-79.1633
 20
-28.0056
 11
-79.0699
 21
-27.8223
  0
LINE
  8
0
 10
-79.0699
 20
-27.8223
 11
-78.9652
 21
-27.6452
  0
LINE
  8
0
 10
-78.9652
 20
-27.6452
 11
-78.8495
 21
-27.475
  0
LINE
  8
0
 10
-78.8495
 20
-27.475
 11
-78.7234
 21
-27.3124
  0
LINE
  8
0
 10
-78.7234
 20
-27.3124
 11
-78.5874
 21
-27.1581
  0
LINE
  8
0
 10
-78.5874
 20
-27.1581
 11
-78.4419
 21
-27.0126
  0
LINE
  8
0
 10
-78.4419
 20
-27.0126
 11
-78.2876
 21
-26.8766
  0
LINE
  8
0
 10
-78.2876
 20
-26.8766
 11
-78.125
 21
-26.7505
  0
LINE
  8
0
 10
-78.125
 20
-26.7505
 11
-77.9548
 21
-26.6348
  0
LINE
  8
0
 10
-77.9548
 20
-26.6348
 11
-77.7777
 21
-26.5301
  0
LINE
  8
0
 10
-77.7777
 20
-26.5301
 11
-77.5944
 21
-26.4367
  0
LINE
  8
0
 10
-77.5944
 20
-26.4367
 11
-77.4056
 21
-26.355
  0
LINE
  8
0
 10
-77.4056
 20
-26.355
 11
-77.212
 21
-26.2853
  0
LINE
  8
0
 10
-77.212
 20
-26.2853
 11
-77.0145
 21
-26.2279
  0
LINE
  8
0
 10
-77.0145
 20
-26.2279
 11
-76.8137
 21
-26.183
  0
LINE
  8
0
 10
-76.8137
 20
-26.183
 11
-76.6105
 21
-26.1508
  0
LINE
  8
0
 10
-76.6105
 20
-26.1508
 11
-76.4056
 21
-26.1315
  0
LINE
  8
0
 10
-76.4056
 20
-26.1315
 11
-76.2
 21
-26.125
  0
LINE
  8
0
 10
-76.2
 20
-26.125
 11
-75.9944
 21
-26.1315
  0
LINE
  8
0
 10
-75.9944
 20
-26.1315
 11
-75.7895
 21
-26.1508
  0
LINE
  8
0
 10
-75.7895
 20
-26.1508
 11
-75.5863
 21
-26.183
  0
LINE
  8
0
 10
-75.5863
 20
-26.183
 11
-75.3855
 21
-26.2279
  0
LINE
  8
0
 10
-75.3855
 20
-26.2279
 11
-75.188
 21
-26.2853
  0
LINE
  8
0
 10
-75.188
 20
-26.2853
 11
-74.9944
 21
-26.355
  0
LINE
  8
0
 10
-74.9944
 20
-26.355
 11
-74.8056
 21
-26.4367
  0
LINE
  8
0
 10
-74.8056
 20
-26.4367
 11
-74.6223
 21
-26.5301
  0
LINE
  8
0
 10
-74.6223
 20
-26.5301
 11
-74.4452
 21
-26.6348
  0
LINE
  8
0
 10
-74.4452
 20
-26.6348
 11
-74.275
 21
-26.7505
  0
LINE
  8
0
 10
-74.275
 20
-26.7505
 11
-74.1124
 21
-26.8766
  0
LINE
  8
0
 10
-74.1124
 20
-26.8766
 11
-73.9581
 21
-27.0126
  0
LINE
  8
0
 10
-73.9581
 20
-27.0126
 11
-73.8126
 21
-27.1581
  0
LINE
  8
0
 10
-73.8126
 20
-27.1581
 11
-73.6766
 21
-27.3124
  0
LINE
  8
0
 10
-73.6766
 20
-27.3124
 11
-73.5505
 21
-27.475
  0
LINE
  8
0
 10
-73.5505
 20
-27.475
 11
-73.4348
 21
-27.6452
  0
LINE
  8
0
 10
-73.4348
 20
-27.6452
 11
-73.3301
 21
-27.8223
  0
LINE
  8
0
 10
-73.3301
 20
-27.8223
 11
-73.2367
 21
-28.0056
  0
LINE
  8
0
 10
-73.2367
 20
-28.0056
 11
-73.155
 21
-28.1944
  0
LINE
  8
0
 10
-73.155
 20
-28.1944
 11
-73.0853
 21
-28.388
  0
LINE
  8
0
 10
-73.0853
 20
-28.388
 11
-73.0279
 21
-28.5855
  0
LINE
  8
0
 10
-73.0279
 20
-28.5855
 11
-72.983
 21
-28.7863
  0
LINE
  8
0
 10
-72.983
 20
-28.7863
 11
-72.9508
 21
-28.9895
  0
LINE
  8
0
 10
-72.9508
 20
-28.9895
 11
-72.9315
 21
-29.1944
  0
LINE
  8
0
 10
-72.9315
 20
-29.1944
 11
-72.925
 21
-29.4
  0
LINE
  8
0
 10
-72.925
 20
-29.4
 11
-72.9315
 21
-29.6056
  0
LINE
  8
0
 10
-72.9315
 20
-29.6056
 11
-72.9508
 21
-29.8105
  0
LINE
  8
0
 10
-72.9508
 20
-29.8105
 11
-72.983
 21
-30.0137
  0
LINE
  8
0
 10
-72.983
 20
-30.0137
 11
-73.0279
 21
-30.2144
  0
LINE
  8
0
 10
-73.0279
 20
-30.2144
 11
-73.0853
 21
-30.412
  0
LINE
  8
0
 10
-73.0853
 20
-30.412
 11
-73.155
 21
-30.6056
  0
LINE
  8
0
 10
-73.155
 20
-30.6056
 11
-73.2367
 21
-30.7944
  0
LINE
  8
0
 10
-73.2367
 20
-30.7944
 11
-73.3301
 21
-30.9777
  0
LINE
  8
0
 10
-73.3301
 20
-30.9777
 11
-73.4348
 21
-31.1548
  0
LINE
  8
0
 10
-73.4348
 20
-31.1548
 11
-73.5505
 21
-31.325
  0
LINE
  8
0
 10
-73.5505
 20
-31.325
 11
-73.6766
 21
-31.4875
  0
LINE
  8
0
 10
-73.6766
 20
-31.4875
 11
-73.8126
 21
-31.6419
  0
LINE
  8
0
 10
-73.8126
 20
-31.6419
 11
-73.9581
 21
-31.7874
  0
LINE
  8
0
 10
-73.9581
 20
-31.7874
 11
-74.1124
 21
-31.9234
  0
LINE
  8
0
 10
-74.1124
 20
-31.9234
 11
-74.275
 21
-32.0495
  0
LINE
  8
0
 10
-74.275
 20
-32.0495
 11
-74.4452
 21
-32.1652
  0
LINE
  8
0
 10
-74.4452
 20
-32.1652
 11
-74.6223
 21
-32.2699
  0
LINE
  8
0
 10
-74.6223
 20
-32.2699
 11
-74.8056
 21
-32.3633
  0
LINE
  8
0
 10
-74.8056
 20
-32.3633
 11
-74.9944
 21
-32.445
  0
LINE
  8
0
 10
-74.9944
 20
-32.445
 11
-75.188
 21
-32.5147
  0
LINE
  8
0
 10
-75.188
 20
-32.5147
 11
-75.3855
 21
-32.5721
  0
LINE
  8
0
 10
-75.3855
 20
-32.5721
 11
-75.5863
 21
-32.617
  0
LINE
  8
0
 10
-75.5863
 20
-32.617
 11
-75.7895
 21
-32.6492
  0
LINE
  8
0
 10
-75.7895
 20
-32.6492
 11
-75.9944
 21
-32.6685
  0
LINE
  8
0
 10
-75.9944
 20
-32.6685
 11
-76.2
 21
-32.675
  0
LINE
  8
0
 10
-76.2
 20
-32.675
 11
-76.4056
 21
-32.6685
  0
LINE
  8
0
 10
52.093
 20
-54.7451
 11
51.9367
 21
-54.7303
  0
LINE
  8
0
 10
51.9367
 20
-54.7303
 11
51.7815
 21
-54.7057
  0
LINE
  8
0
 10
51.7815
 20
-54.7057
 11
51.6283
 21
-54.6714
  0
LINE
  8
0
 10
51.6283
 20
-54.6714
 11
51.4774
 21
-54.6276
  0
LINE
  8
0
 10
51.4774
 20
-54.6276
 11
51.3297
 21
-54.5744
  0
LINE
  8
0
 10
51.3297
 20
-54.5744
 11
51.1855
 21
-54.5121
  0
LINE
  8
0
 10
51.1855
 20
-54.5121
 11
51.0456
 21
-54.4408
  0
LINE
  8
0
 10
51.0456
 20
-54.4408
 11
50.9104
 21
-54.3608
  0
LINE
  8
0
 10
50.9104
 20
-54.3608
 11
50.7805
 21
-54.2725
  0
LINE
  8
0
 10
50.7805
 20
-54.2725
 11
50.6564
 21
-54.1763
  0
LINE
  8
0
 10
50.6564
 20
-54.1763
 11
50.5386
 21
-54.0724
  0
LINE
  8
0
 10
50.5386
 20
-54.0724
 11
50.4276
 21
-53.9614
  0
LINE
  8
0
 10
50.4276
 20
-53.9614
 11
50.3237
 21
-53.8436
  0
LINE
  8
0
 10
50.3237
 20
-53.8436
 11
50.2274
 21
-53.7195
  0
LINE
  8
0
 10
50.2274
 20
-53.7195
 11
50.1392
 21
-53.5896
  0
LINE
  8
0
 10
50.1392
 20
-53.5896
 11
50.0592
 21
-53.4544
  0
LINE
  8
0
 10
50.0592
 20
-53.4544
 11
49.9879
 21
-53.3144
  0
LINE
  8
0
 10
49.9879
 20
-53.3144
 11
49.9256
 21
-53.1703
  0
LINE
  8
0
 10
49.9256
 20
-53.1703
 11
49.8723
 21
-53.0225
  0
LINE
  8
0
 10
49.8723
 20
-53.0225
 11
49.8285
 21
-52.8717
  0
LINE
  8
0
 10
49.8285
 20
-52.8717
 11
49.7943
 21
-52.7184
  0
LINE
  8
0
 10
49.7943
 20
-52.7184
 11
49.7697
 21
-52.5633
  0
LINE
  8
0
 10
49.7697
 20
-52.5633
 11
49.7549
 21
-52.407
  0
LINE
  8
0
 10
49.7549
 20
-52.407
 11
49.75
 21
-52.25
  0
LINE
  8
0
 10
49.75
 20
-52.25
 11
49.7549
 21
-52.093
  0
LINE
  8
0
 10
49.7549
 20
-52.093
 11
49.7697
 21
-51.9367
  0
LINE
  8
0
 10
49.7697
 20
-51.9367
 11
49.7943
 21
-51.7815
  0
LINE
  8
0
 10
49.7943
 20
-51.7815
 11
49.8285
 21
-51.6283
  0
LINE
  8
0
 10
49.8285
 20
-51.6283
 11
49.8723
 21
-51.4774
  0
LINE
  8
0
 10
49.8723
 20
-51.4774
 11
49.9256
 21
-51.3297
  0
LINE
  8
0
 10
49.9256
 20
-51.3297
 11
49.9879
 21
-51.1855
  0
LINE
  8
0
 10
49.9879
 20
-51.1855
 11
50.0592
 21
-51.0456
  0
LINE
  8
0
 10
50.0592
 20
-51.0456
 11
50.1392
 21
-50.9104
  0
LINE
  8
0
 10
50.1392
 20
-50.9104
 11
50.2274
 21
-50.7805
  0
LINE
  8
0
 10
50.2274
 20
-50.7805
 11
50.3237
 21
-50.6564
  0
LINE
  8
0
 10
50.3237
 20
-50.6564
 11
50.4276
 21
-50.5386
  0
LINE
  8
0
 10
50.4276
 20
-50.5386
 11
50.5386
 21
-50.4276
  0
LINE
  8
0
 10
50.5386
 20
-50.4276
 11
50.6564
 21
-50.3237
  0
LINE
  8
0
 10
50.6564
 20
-50.3237
 11
50.7805
 21
-50.2274
  0
LINE
  8
0
 10
50.7805
 20
-50.2274
 11
50.9104
 21
-50.1392
  0
LINE
  8
0
 10
50.9104
 20
-50.1392
 11
51.0456
 21
-50.0592
  0
LINE
  8
0
 10
51.0456
 20
-50.0592
 11
51.1855
 21
-49.9879
  0
LINE
  8
0
 10
51.1855
 20
-49.9879
 11
51.3297
 21
-49.9256
  0
LINE
  8
0
 10
51.3297
 20
-49.9256
 11
51.4774
 21
-49.8723
  0
LINE
  8
0
 10
51.4774
 20
-49.8723
 11
51.6283
 21
-49.8285
  0
LINE
  8
0
 10
51.6283
 20
-49.8285
 11
51.7815
 21
-49.7943
  0
LINE
  8
0
 10
51.7815
 20
-49.7943
 11
51.9367
 21
-49.7697
  0
LINE
  8
0
 10
51.9367
 20
-49.7697
 11
52.093
 21
-49.7549
  0
LINE
  8
0
 10
52.093
 20
-49.7549
 11
52.25
 21
-49.75
  0
LINE
  8
0
 10
52.25
 20
-49.75
 11
52.407
 21
-49.7549
  0
LINE
  8
0
 10
52.407
 20
-49.7549
 11
52.5633
 21
-49.7697
  0
LINE
  8
0
 10
52.5633
 20
-49.7697
 11
52.7184
 21
-49.7943
  0
LINE
  8
0
 10
52.7184
 20
-49.7943
 11
52.8717
 21
-49.8285
  0
LINE
  8
0
 10
52.8717
 20
-49.8285
 11
53.0225
 21
-49.8723
  0
LINE
  8
0
 10
53.0225
 20
-49.8723
 11
53.1703
 21
-49.9256
  0
LINE
  8
0
 10
53.1703
 20
-49.9256
 11
53.3144
 21
-49.9879
  0
LINE
  8
0
 10
53.3144
 20
-49.9879
 11
53.4544
 21
-50.0592
  0
LINE
  8
0
 10
53.4544
 20
-50.0592
 11
53.5896
 21
-50.1392
  0
LINE
  8
0
 10
53.5896
 20
-50.1392
 11
53.7195
 21
-50.2274
  0
LINE
  8
0
 10
53.7195
 20
-50.2274
 11
53.8436
 21
-50.3237
  0
LINE
  8
0
 10
53.8436
 20
-50.3237
 11
53.9614
 21
-50.4276
  0
LINE
  8
0
 10
53.9614
 20
-50.4276
 11
54.0724
 21
-50.5386
  0
LINE
  8
0
 10
54.0724
 20
-50.5386
 11
54.1763
 21
-50.6564
  0
LINE
  8
0
 10
54.1763
 20
-50.6564
 11
54.2725
 21
-50.7805
  0
LINE
  8
0
 10
54.2725
 20
-50.7805
 11
54.3608
 21
-50.9104
  0
LINE
  8
0
 10
54.3608
 20
-50.9104
 11
54.4408
 21
-51.0456
  0
LINE
  8
0
 10
54.4408
 20
-51.0456
 11
54.5121
 21
-51.1855
  0
LINE
  8
0
 10
54.5121
 20
-51.1855
 11
54.5744
 21
-51.3297
  0
LINE
  8
0
 10
54.5744
 20
-51.3297
 11
54.6276
 21
-51.4774
  0
LINE
  8
0
 10
54.6276
 20
-51.4774
 11
54.6714
 21
-51.6283
  0
LINE
  8
0
 10
54.6714
 20
-51.6283
 11
54.7057
 21
-51.7815
  0
LINE
  8
0
 10
54.7057
 20
-51.7815
 11
54.7303
 21
-51.9367
  0
LINE
  8
0
 10
54.7303
 20
-51.9367
 11
54.7451
 21
-52.093
  0
LINE
  8
0
 10
54.7451
 20
-52.093
 11
54.75
 21
-52.25
  0
LINE
  8
0
 10
54.75
 20
-52.25
 11
54.7451
 21
-52.407
  0
LINE
  8
0
 10
54.7451
 20
-52.407
 11
54.7303
 21
-52.5633
  0
LINE
  8
0
 10
54.7303
 20
-52.5633
 11
54.7057
 21
-52.7184
  0
LINE
  8
0
 10
54.7057
 20
-52.7184
 11
54.6714
 21
-52.8717
  0
LINE
  8
0
 10
54.6714
 20
-52.8717
 11
54.6276
 21
-53.0225
  0
LINE
  8
0
 10
54.6276
 20
-53.0225
 11
54.5744
 21
-53.1703
  0
LINE
  8
0
 10
54.5744
 20
-53.1703
 11
54.5121
 21
-53.3144
  0
LINE
  8
0
 10
54.5121
 20
-53.3144
 11
54.4408
 21
-53.4544
  0
LINE
  8
0
 10
54.4408
 20
-53.4544
 11
54.3608
 21
-53.5896
  0
LINE
  8
0
 10
54.3608
 20
-53.5896
 11
54.2725
 21
-53.7195
  0
LINE
  8
0
 10
54.2725
 20
-53.7195
 11
54.1763
 21
-53.8436
  0
LINE
  8
0
 10
54.1763
 20
-53.8436
 11
54.0724
 21
-53.9614
  0
LINE
  8
0
 10
54.0724
 20
-53.9614
 11
53.9614
 21
-54.0724
  0
LINE
  8
0
 10
53.9614
 20
-54.0724
 11
53.8436
 21
-54.1763
  0
LINE
  8
0
 10
53.8436
 20
-54.1763
 11
53.7195
 21
-54.2725
  0
LINE
  8
0
 10
53.7195
 20
-54.2725
 11
53.5896
 21
-54.3608
  0
LINE
  8
0
 10
53.5896
 20
-54.3608
 11
53.4544
 21
-54.4408
  0
LINE
  8
0
 10
53.4544
 20
-54.4408
 11
53.3144
 21
-54.5121
  0
LINE
  8
0
 10
53.3144
 20
-54.5121
 11
53.1703
 21
-54.5744
  0
LINE
  8
0
 10
53.1703
 20
-54.5744
 11
53.0225
 21
-54.6276
  0
LINE
  8
0
 10
53.0225
 20
-54.6276
 11
52.8717
 21
-54.6714
  0
LINE
  8
0
 10
52.8717
 20
-54.6714
 11
52.7184
 21
-54.7057
  0
LINE
  8
0
 10
52.7184
 20
-54.7057
 11
52.5633
 21
-54.7303
  0
LINE
  8
0
 10
52.5633
 20
-54.7303
 11
52.407
 21
-54.7451
  0
LINE
  8
0
 10
52.407
 20
-54.7451
 11
52.25
 21
-54.75
  0
LINE
  8
0
 10
52.25
 20
-54.75
 11
52.093
 21
-54.7451
  0
LINE
  8
0
 10
-52.407
 20
-54.7451
 11
-52.5633
 21
-54.7303
  0
LINE
  8
0
 10
-52.5633
 20
-54.7303
 11
-52.7184
 21
-54.7057
  0
LINE
  8
0
 10
-52.7184
 20
-54.7057
 11
-52.8717
 21
-54.6714
  0
LINE
  8
0
 10
-52.8717
 20
-54.6714
 11
-53.0225
 21
-54.6276
  0
LINE
  8
0
 10
-53.0225
 20
-54.6276
 11
-53.1703
 21
-54.5744
  0
LINE
  8
0
 10
-53.1703
 20
-54.5744
 11
-53.3144
 21
-54.5121
  0
LINE
  8
0
 10
-53.3144
 20
-54.5121
 11
-53.4544
 21
-54.4408
  0
LINE
  8
0
 10
-53.4544
 20
-54.4408
 11
-53.5896
 21
-54.3608
  0
LINE
  8
0
 10
-53.5896
 20
-54.3608
 11
-53.7195
 21
-54.2725
  0
LINE
  8
0
 10
-53.7195
 20
-54.2725
 11
-53.8436
 21
-54.1763
  0
LINE
  8
0
 10
-53.8436
 20
-54.1763
 11
-53.9614
 21
-54.0724
  0
LINE
  8
0
 10
-53.9614
 20
-54.0724
 11
-54.0724
 21
-53.9614
  0
LINE
  8
0
 10
-54.0724
 20
-53.9614
 11
-54.1763
 21
-53.8436
  0
LINE
  8
0
 10
-54.1763
 20
-53.8436
 11
-54.2725
 21
-53.7195
  0
LINE
  8
0
 10
-54.2725
 20
-53.7195
 11
-54.3608
 21
-53.5896
  0
LINE
  8
0
 10
-54.3608
 20
-53.5896
 11
-54.4408
 21
-53.4544
  0
LINE
  8
0
 10
-54.4408
 20
-53.4544
 11
-54.5121
 21
-53.3144
  0
LINE
  8
0
 10
-54.5121
 20
-53.3144
 11
-54.5744
 21
-53.1703
  0
LINE
  8
0
 10
-54.5744
 20
-53.1703
 11
-54.6276
 21
-53.0225
  0
LINE
  8
0
 10
-54.6276
 20
-53.0225
 11
-54.6714
 21
-52.8717
  0
LINE
  8
0
 10
-54.6714
 20
-52.8717
 11
-54.7057
 21
-52.7184
  0
LINE
  8
0
 10
-54.7057
 20
-52.7184
 11
-54.7303
 21
-52.5633
  0
LINE
  8
0
 10
-54.7303
 20
-52.5633
 11
-54.7451
 21
-52.407
  0
LINE
  8
0
 10
-54.7451
 20
-52.407
 11
-54.75
 21
-52.25
  0
LINE
  8
0
 10
-54.75
 20
-52.25
 11
-54.7451
 21
-52.093
  0
LINE
  8
0
 10
-54.7451
 20
-52.093
 11
-54.7303
 21
-51.9367
  0
LINE
  8
0
 10
-54.7303
 20
-51.9367
 11
-54.7057
 21
-51.7815
  0
LINE
  8
0
 10
-54.7057
 20
-51.7815
 11
-54.6714
 21
-51.6283
  0
LINE
  8
0
 10
-54.6714
 20
-51.6283
 11
-54.6276
 21
-51.4774
  0
LINE
  8
0
 10
-54.6276
 20
-51.4774
 11
-54.5744
 21
-51.3297
  0
LINE
  8
0
 10
-54.5744
 20
-51.3297
 11
-54.5121
 21
-51.1855
  0
LINE
  8
0
 10
-54.5121
 20
-51.1855
 11
-54.4408
 21
-51.0456
  0
LINE
  8
0
 10
-54.4408
 20
-51.0456
 11
-54.3608
 21
-50.9104
  0
LINE
  8
0
 10
-54.3608
 20
-50.9104
 11
-54.2725
 21
-50.7805
  0
LINE
  8
0
 10
-54.2725
 20
-50.7805
 11
-54.1763
 21
-50.6564
  0
LINE
  8
0
 10
-54.1763
 20
-50.6564
 11
-54.0724
 21
-50.5386
  0
LINE
  8
0
 10
-54.0724
 20
-50.5386
 11
-53.9614
 21
-50.4276
  0
LINE
  8
0
 10
-53.9614
 20
-50.4276
 11
-53.8436
 21
-50.3237
  0
LINE
  8
0
 10
-53.8436
 20
-50.3237
 11
-53.7195
 21
-50.2274
  0
LINE
  8
0
 10
-53.7195
 20
-50.2274
 11
-53.5896
 21
-50.1392
  0
LINE
  8
0
 10
-53.5896
 20
-50.1392
 11
-53.4544
 21
-50.0592
  0
LINE
  8
0
 10
-53.4544
 20
-50.0592
 11
-53.3144
 21
-49.9879
  0
LINE
  8
0
 10
-53.3144
 20
-49.9879
 11
-53.1703
 21
-49.9256
  0
LINE
  8
0
 10
-53.1703
 20
-49.9256
 11
-53.0225
 21
-49.8723
  0
LINE
  8
0
 10
-53.0225
 20
-49.8723
 11
-52.8717
 21
-49.8285
  0
LINE
  8
0
 10
-52.8717
 20
-49.8285
 11
-52.7184
 21
-49.7943
  0
LINE
  8
0
 10
-52.7184
 20
-49.7943
 11
-52.5633
 21
-49.7697
  0
LINE
  8
0
 10
-52.5633
 20
-49.7697
 11
-52.407
 21
-49.7549
  0
LINE
  8
0
 10
-52.407
 20
-49.7549
 11
-52.25
 21
-49.75
  0
LINE
  8
0
 10
-52.25
 20
-49.75
 11
-52.093
 21
-49.7549
  0
LINE
  8
0
 10
-52.093
 20
-49.7549
 11
-51.9367
 21
-49.7697
  0
LINE
  8
0
 10
-51.9367
 20
-49.7697
 11
-51.7815
 21
-49.7943
  0
LINE
  8
0
 10
-51.7815
 20
-49.7943
 11
-51.6283
 21
-49.8285
  0
LINE
  8
0
 10
-51.6283
 20
-49.8285
 11
-51.4774
 21
-49.8723
  0
LINE
  8
0
 10
-51.4774
 20
-49.8723
 11
-51.3297
 21
-49.9256
  0
LINE
  8
0
 10
-51.3297
 20
-49.9256
 11
-51.1855
 21
-49.9879
  0
LINE
  8
0
 10
-51.1855
 20
-49.9879
 11
-51.0456
 21
-50.0592
  0
LINE
  8
0
 10
-51.0456
 20
-50.0592
 11
-50.9104
 21
-50.1392
  0
LINE
  8
0
 10
-50.9104
 20
-50.1392
 11
-50.7805
 21
-50.2274
  0
LINE
  8
0
 10
-50.7805
 20
-50.2274
 11
-50.6564
 21
-50.3237
  0
LINE
  8
0
 10
-50.6564
 20
-50.3237
 11
-50.5386
 21
-50.4276
  0
LINE
  8
0
 10
-50.5386
 20
-50.4276
 11
-50.4276
 21
-50.5386
  0
LINE
  8
0
 10
-50.4276
 20
-50.5386
 11
-50.3237
 21
-50.6564
  0
LINE
  8
0
 10
-50.3237
 20
-50.6564
 11
-50.2274
 21
-50.7805
  0
LINE
  8
0
 10
-50.2274
 20
-50.7805
 11
-50.1392
 21
-50.9104
  0
LINE
  8
0
 10
-50.1392
 20
-50.9104
 11
-50.0592
 21
-51.0456
  0
LINE
  8
0
 10
-50.0592
 20
-51.0456
 11
-49.9879
 21
-51.1855
  0
LINE
  8
0
 10
-49.9879
 20
-51.1855
 11
-49.9256
 21
-51.3297
  0
LINE
  8
0
 10
-49.9256
 20
-51.3297
 11
-49.8723
 21
-51.4774
  0
LINE
  8
0
 10
-49.8723
 20
-51.4774
 11
-49.8285
 21
-51.6283
  0
LINE
  8
0
 10
-49.8285
 20
-51.6283
 11
-49.7943
 21
-51.7815
  0
LINE
  8
0
 10
-49.7943
 20
-51.7815
 11
-49.7697
 21
-51.9367
  0
LINE
  8
0
 10
-49.7697
 20
-51.9367
 11
-49.7549
 21
-52.093
  0
LINE
  8
0
 10
-49.7549
 20
-52.093
 11
-49.75
 21
-52.25
  0
LINE
  8
0
 10
-49.75
 20
-52.25
 11
-49.7549
 21
-52.407
  0
LINE
  8
0
 10
-49.7549
 20
-52.407
 11
-49.7697
 21
-52.5633
  0
LINE
  8
0
 10
-49.7697
 20
-52.5633
 11
-49.7943
 21
-52.7184
  0
LINE
  8
0
 10
-49.7943
 20
-52.7184
 11
-49.8285
 21
-52.8717
  0
LINE
  8
0
 10
-49.8285
 20
-52.8717
 11
-49.8723
 21
-53.0225
  0
LINE
  8
0
 10
-49.8723
 20
-53.0225
 11
-49.9256
 21
-53.1703
  0
LINE
  8
0
 10
-49.9256
 20
-53.1703
 11
-49.9879
 21
-53.3144
  0
LINE
  8
0
 10
-49.9879
 20
-53.3144
 11
-50.0592
 21
-53.4544
  0
LINE
  8
0
 10
-50.0592
 20
-53.4544
 11
-50.1392
 21
-53.5896
  0
LINE
  8
0
 10
-50.1392
 20
-53.5896
 11
-50.2274
 21
-53.7195
  0
LINE
  8
0
 10
-50.2274
 20
-53.7195
 11
-50.3237
 21
-53.8436
  0
LINE
  8
0
 10
-50.3237
 20
-53.8436
 11
-50.4276
 21
-53.9614
  0
LINE
  8
0
 10
-50.4276
 20
-53.9614
 11
-50.5386
 21
-54.0724
  0
LINE
  8
0
 10
-50.5386
 20
-54.0724
 11
-50.6564
 21
-54.1763
  0
LINE
  8
0
 10
-50.6564
 20
-54.1763
 11
-50.7805
 21
-54.2725
  0
LINE
  8
0
 10
-50.7805
 20
-54.2725
 11
-50.9104
 21
-54.3608
  0
LINE
  8
0
 10
-50.9104
 20
-54.3608
 11
-51.0456
 21
-54.4408
  0
LINE
  8
0
 10
-51.0456
 20
-54.4408
 11
-51.1855
 21
-54.5121
  0
LINE
  8
0
 10
-51.1855
 20
-54.5121
 11
-51.3297
 21
-54.5744
  0
LINE
  8
0
 10
-51.3297
 20
-54.5744
 11
-51.4774
 21
-54.6276
  0
LINE
  8
0
 10
-51.4774
 20
-54.6276
 11
-51.6283
 21
-54.6714
  0
LINE
  8
0
 10
-51.6283
 20
-54.6714
 11
-51.7815
 21
-54.7057
  0
LINE
  8
0
 10
-51.7815
 20
-54.7057
 11
-51.9367
 21
-54.7303
  0
LINE
  8
0
 10
-51.9367
 20
-54.7303
 11
-52.093
 21
-54.7451
  0
LINE
  8
0
 10
-52.093
 20
-54.7451
 11
-52.25
 21
-54.75
  0
LINE
  8
0
 10
-52.25
 20
-54.75
 11
-52.407
 21
-54.7451
  0
LINE
  8
0
 10
75.9944
 20
-58.0685
 11
75.7895
 21
-58.0492
  0
LINE
  8
0
 10
75.7895
 20
-58.0492
 11
75.5863
 21
-58.017
  0
LINE
  8
0
 10
75.5863
 20
-58.017
 11
75.3855
 21
-57.9721
  0
LINE
  8
0
 10
75.3855
 20
-57.9721
 11
75.188
 21
-57.9147
  0
LINE
  8
0
 10
75.188
 20
-57.9147
 11
74.9944
 21
-57.845
  0
LINE
  8
0
 10
74.9944
 20
-57.845
 11
74.8056
 21
-57.7633
  0
LINE
  8
0
 10
74.8056
 20
-57.7633
 11
74.6223
 21
-57.6699
  0
LINE
  8
0
 10
74.6223
 20
-57.6699
 11
74.4452
 21
-57.5652
  0
LINE
  8
0
 10
74.4452
 20
-57.5652
 11
74.275
 21
-57.4495
  0
LINE
  8
0
 10
74.275
 20
-57.4495
 11
74.1124
 21
-57.3234
  0
LINE
  8
0
 10
74.1124
 20
-57.3234
 11
73.9581
 21
-57.1874
  0
LINE
  8
0
 10
73.9581
 20
-57.1874
 11
73.8126
 21
-57.0419
  0
LINE
  8
0
 10
73.8126
 20
-57.0419
 11
73.6766
 21
-56.8876
  0
LINE
  8
0
 10
73.6766
 20
-56.8876
 11
73.5505
 21
-56.725
  0
LINE
  8
0
 10
73.5505
 20
-56.725
 11
73.4348
 21
-56.5548
  0
LINE
  8
0
 10
73.4348
 20
-56.5548
 11
73.3301
 21
-56.3777
  0
LINE
  8
0
 10
73.3301
 20
-56.3777
 11
73.2367
 21
-56.1944
  0
LINE
  8
0
 10
73.2367
 20
-56.1944
 11
73.155
 21
-56.0056
  0
LINE
  8
0
 10
73.155
 20
-56.0056
 11
73.0853
 21
-55.812
  0
LINE
  8
0
 10
73.0853
 20
-55.812
 11
73.0279
 21
-55.6145
  0
LINE
  8
0
 10
73.0279
 20
-55.6145
 11
72.983
 21
-55.4137
  0
LINE
  8
0
 10
72.983
 20
-55.4137
 11
72.9508
 21
-55.2105
  0
LINE
  8
0
 10
72.9508
 20
-55.2105
 11
72.9315
 21
-55.0056
  0
LINE
  8
0
 10
72.9315
 20
-55.0056
 11
72.925
 21
-54.8
  0
LINE
  8
0
 10
72.925
 20
-54.8
 11
72.9315
 21
-54.5944
  0
LINE
  8
0
 10
72.9315
 20
-54.5944
 11
72.9508
 21
-54.3895
  0
LINE
  8
0
 10
72.9508
 20
-54.3895
 11
72.983
 21
-54.1863
  0
LINE
  8
0
 10
72.983
 20
-54.1863
 11
73.0279
 21
-53.9855
  0
LINE
  8
0
 10
73.0279
 20
-53.9855
 11
73.0853
 21
-53.788
  0
LINE
  8
0
 10
73.0853
 20
-53.788
 11
73.155
 21
-53.5944
  0
LINE
  8
0
 10
73.155
 20
-53.5944
 11
73.2367
 21
-53.4056
  0
LINE
  8
0
 10
73.2367
 20
-53.4056
 11
73.3301
 21
-53.2222
  0
LINE
  8
0
 10
73.3301
 20
-53.2222
 11
73.4348
 21
-53.0452
  0
LINE
  8
0
 10
73.4348
 20
-53.0452
 11
73.5505
 21
-52.875
  0
LINE
  8
0
 10
73.5505
 20
-52.875
 11
73.6766
 21
-52.7124
  0
LINE
  8
0
 10
73.6766
 20
-52.7124
 11
73.8126
 21
-52.5581
  0
LINE
  8
0
 10
73.8126
 20
-52.5581
 11
73.9581
 21
-52.4126
  0
LINE
  8
0
 10
73.9581
 20
-52.4126
 11
74.1124
 21
-52.2766
  0
LINE
  8
0
 10
74.1124
 20
-52.2766
 11
74.275
 21
-52.1505
  0
LINE
  8
0
 10
74.275
 20
-52.1505
 11
74.4452
 21
-52.0348
  0
LINE
  8
0
 10
74.4452
 20
-52.0348
 11
74.6223
 21
-51.9301
  0
LINE
  8
0
 10
74.6223
 20
-51.9301
 11
74.8056
 21
-51.8367
  0
LINE
  8
0
 10
74.8056
 20
-51.8367
 11
74.9944
 21
-51.755
  0
LINE
  8
0
 10
74.9944
 20
-51.755
 11
75.188
 21
-51.6853
  0
LINE
  8
0
 10
75.188
 20
-51.6853
 11
75.3855
 21
-51.6279
  0
LINE
  8
0
 10
75.3855
 20
-51.6279
 11
75.5863
 21
-51.583
  0
LINE
  8
0
 10
75.5863
 20
-51.583
 11
75.7895
 21
-51.5508
  0
LINE
  8
0
 10
75.7895
 20
-51.5508
 11
75.9944
 21
-51.5314
  0
LINE
  8
0
 10
75.9944
 20
-51.5314
 11
76.2
 21
-51.525
  0
LINE
  8
0
 10
76.2
 20
-51.525
 11
76.4056
 21
-51.5314
  0
LINE
  8
0
 10
76.4056
 20
-51.5314
 11
76.6105
 21
-51.5508
  0
LINE
  8
0
 10
76.6105
 20
-51.5508
 11
76.8137
 21
-51.583
  0
LINE
  8
0
 10
76.8137
 20
-51.583
 11
77.0145
 21
-51.6279
  0
LINE
  8
0
 10
77.0145
 20
-51.6279
 11
77.212
 21
-51.6853
  0
LINE
  8
0
 10
77.212
 20
-51.6853
 11
77.4056
 21
-51.755
  0
LINE
  8
0
 10
77.4056
 20
-51.755
 11
77.5944
 21
-51.8367
  0
LINE
  8
0
 10
77.5944
 20
-51.8367
 11
77.7777
 21
-51.9301
  0
LINE
  8
0
 10
77.7777
 20
-51.9301
 11
77.9548
 21
-52.0348
  0
LINE
  8
0
 10
77.9548
 20
-52.0348
 11
78.125
 21
-52.1505
  0
LINE
  8
0
 10
78.125
 20
-52.1505
 11
78.2876
 21
-52.2766
  0
LINE
  8
0
 10
78.2876
 20
-52.2766
 11
78.4419
 21
-52.4126
  0
LINE
  8
0
 10
78.4419
 20
-52.4126
 11
78.5874
 21
-52.5581
  0
LINE
  8
0
 10
78.5874
 20
-52.5581
 11
78.7234
 21
-52.7124
  0
LINE
  8
0
 10
78.7234
 20
-52.7124
 11
78.8495
 21
-52.875
  0
LINE
  8
0
 10
78.8495
 20
-52.875
 11
78.9652
 21
-53.0452
  0
LINE
  8
0
 10
78.9652
 20
-53.0452
 11
79.0699
 21
-53.2222
  0
LINE
  8
0
 10
79.0699
 20
-53.2222
 11
79.1633
 21
-53.4056
  0
LINE
  8
0
 10
79.1633
 20
-53.4056
 11
79.245
 21
-53.5944
  0
LINE
  8
0
 10
79.245
 20
-53.5944
 11
79.3147
 21
-53.788
  0
LINE
  8
0
 10
79.3147
 20
-53.788
 11
79.3721
 21
-53.9855
  0
LINE
  8
0
 10
79.3721
 20
-53.9855
 11
79.417
 21
-54.1863
  0
LINE
  8
0
 10
79.417
 20
-54.1863
 11
79.4492
 21
-54.3895
  0
LINE
  8
0
 10
79.4492
 20
-54.3895
 11
79.4685
 21
-54.5944
  0
LINE
  8
0
 10
79.4685
 20
-54.5944
 11
79.475
 21
-54.8
  0
LINE
  8
0
 10
79.475
 20
-54.8
 11
79.4685
 21
-55.0056
  0
LINE
  8
0
 10
79.4685
 20
-55.0056
 11
79.4492
 21
-55.2105
  0
LINE
  8
0
 10
79.4492
 20
-55.2105
 11
79.417
 21
-55.4137
  0
LINE
  8
0
 10
79.417
 20
-55.4137
 11
79.3721
 21
-55.6145
  0
LINE
  8
0
 10
79.3721
 20
-55.6145
 11
79.3147
 21
-55.812
  0
LINE
  8
0
 10
79.3147
 20
-55.812
 11
79.245
 21
-56.0056
  0
LINE
  8
0
 10
79.245
 20
-56.0056
 11
79.1633
 21
-56.1944
  0
LINE
  8
0
 10
79.1633
 20
-56.1944
 11
79.0699
 21
-56.3777
  0
LINE
  8
0
 10
79.0699
 20
-56.3777
 11
78.9652
 21
-56.5548
  0
LINE
  8
0
 10
78.9652
 20
-56.5548
 11
78.8495
 21
-56.725
  0
LINE
  8
0
 10
78.8495
 20
-56.725
 11
78.7234
 21
-56.8876
  0
LINE
  8
0
 10
78.7234
 20
-56.8876
 11
78.5874
 21
-57.0419
  0
LINE
  8
0
 10
78.5874
 20
-57.0419
 11
78.4419
 21
-57.1874
  0
LINE
  8
0
 10
78.4419
 20
-57.1874
 11
78.2876
 21
-57.3234
  0
LINE
  8
0
 10
78.2876
 20
-57.3234
 11
78.125
 21
-57.4495
  0
LINE
  8
0
 10
78.125
 20
-57.4495
 11
77.9548
 21
-57.5652
  0
LINE
  8
0
 10
77.9548
 20
-57.5652
 11
77.7777
 21
-57.6699
  0
LINE
  8
0
 10
77.7777
 20
-57.6699
 11
77.5944
 21
-57.7633
  0
LINE
  8
0
 10
77.5944
 20
-57.7633
 11
77.4056
 21
-57.845
  0
LINE
  8
0
 10
77.4056
 20
-57.845
 11
77.212
 21
-57.9147
  0
LINE
  8
0
 10
77.212
 20
-57.9147
 11
77.0145
 21
-57.9721
  0
LINE
  8
0
 10
77.0145
 20
-57.9721
 11
76.8137
 21
-58.017
  0
LINE
  8
0
 10
76.8137
 20
-58.017
 11
76.6105
 21
-58.0492
  0
LINE
  8
0
 10
76.6105
 20
-58.0492
 11
76.4056
 21
-58.0685
  0
LINE
  8
0
 10
76.4056
 20
-58.0685
 11
76.2
 21
-58.075
  0
LINE
  8
0
 10
76.2
 20
-58.075
 11
75.9944
 21
-58.0685
  0
LINE
  8
0
 10
-76.4056
 20
-58.0685
 11
-76.6105
 21
-58.0492
  0
LINE
  8
0
 10
-76.6105
 20
-58.0492
 11
-76.8137
 21
-58.017
  0
LINE
  8
0
 10
-76.8137
 20
-58.017
 11
-77.0145
 21
-57.9721
  0
LINE
  8
0
 10
-77.0145
 20
-57.9721
 11
-77.212
 21
-57.9147
  0
LINE
  8
0
 10
-77.212
 20
-57.9147
 11
-77.4056
 21
-57.845
  0
LINE
  8
0
 10
-77.4056
 20
-57.845
 11
-77.5944
 21
-57.7633
  0
LINE
  8
0
 10
-77.5944
 20
-57.7633
 11
-77.7777
 21
-57.6699
  0
LINE
  8
0
 10
-77.7777
 20
-57.6699
 11
-77.9548
 21
-57.5652
  0
LINE
  8
0
 10
-77.9548
 20
-57.5652
 11
-78.125
 21
-57.4495
  0
LINE
  8
0
 10
-78.125
 20
-57.4495
 11
-78.2876
 21
-57.3234
  0
LINE
  8
0
 10
-78.2876
 20
-57.3234
 11
-78.4419
 21
-57.1874
  0
LINE
  8
0
 10
-78.4419
 20
-57.1874
 11
-78.5874
 21
-57.0419
  0
LINE
  8
0
 10
-78.5874
 20
-57.0419
 11
-78.7234
 21
-56.8876
  0
LINE
  8
0
 10
-78.7234
 20
-56.8876
 11
-78.8495
 21
-56.725
  0
LINE
  8
0
 10
-78.8495
 20
-56.725
 11
-78.9652
 21
-56.5548
  0
LINE
  8
0
 10
-78.9652
 20
-56.5548
 11
-79.0699
 21
-56.3777
  0
LINE
  8
0
 10
-79.0699
 20
-56.3777
 11
-79.1633
 21
-56.1944
  0
LINE
  8
0
 10
-79.1633
 20
-56.1944
 11
-79.245
 21
-56.0056
  0
LINE
  8
0
 10
-79.245
 20
-56.0056
 11
-79.3147
 21
-55.812
  0
LINE
  8
0
 10
-79.3147
 20
-55.812
 11
-79.3721
 21
-55.6145
  0
LINE
  8
0
 10
-79.3721
 20
-55.6145
 11
-79.417
 21
-55.4137
  0
LINE
  8
0
 10
-79.417
 20
-55.4137
 11
-79.4492
 21
-55.2105
  0
LINE
  8
0
 10
-79.4492
 20
-55.2105
 11
-79.4685
 21
-55.0056
  0
LINE
  8
0
 10
-79.4685
 20
-55.0056
 11
-79.475
 21
-54.8
  0
LINE
  8
0
 10
-79.475
 20
-54.8
 11
-79.4685
 21
-54.5944
  0
LINE
  8
0
 10
-79.4685
 20
-54.5944
 11
-79.4492
 21
-54.3895
  0
LINE
  8
0
 10
-79.4492
 20
-54.3895
 11
-79.417
 21
-54.1863
  0
LINE
  8
0
 10
-79.417
 20
-54.1863
 11
-79.3721
 21
-53.9855
  0
LINE
  8
0
 10
-79.3721
 20
-53.9855
 11
-79.3147
 21
-53.788
  0
LINE
  8
0
 10
-79.3147
 20
-53.788
 11
-79.245
 21
-53.5944
  0
LINE
  8
0
 10
-79.245
 20
-53.5944
 11
-79.1633
 21
-53.4056
  0
LINE
  8
0
 10
-79.1633
 20
-53.4056
 11
-79.0699
 21
-53.2222
  0
LINE
  8
0
 10
-79.0699
 20
-53.2222
 11
-78.9652
 21
-53.0452
  0
LINE
  8
0
 10
-78.9652
 20
-53.0452
 11
-78.8495
 21
-52.875
  0
LINE
  8
0
 10
-78.8495
 20
-52.875
 11
-78.7234
 21
-52.7124
  0
LINE
  8
0
 10
-78.7234
 20
-52.7124
 11
-78.5874
 21
-52.5581
  0
LINE
  8
0
 10
-78.5874
 20
-52.5581
 11
-78.4419
 21
-52.4126
  0
LINE
  8
0
 10
-78.4419
 20
-52.4126
 11
-78.2876
 21
-52.2766
  0
LINE
  8
0
 10
-78.2876
 20
-52.2766
 11
-78.125
 21
-52.1505
  0
LINE
  8
0
 10
-78.125
 20
-52.1505
 11
-77.9548
 21
-52.0348
  0
LINE
  8
0
 10
-77.9548
 20
-52.0348
 11
-77.7777
 21
-51.9301
  0
LINE
  8
0
 10
-77.7777
 20
-51.9301
 11
-77.5944
 21
-51.8367
  0
LINE
  8
0
 10
-77.5944
 20
-51.8367
 11
-77.4056
 21
-51.755
  0
LINE
  8
0
 10
-77.4056
 20
-51.755
 11
-77.212
 21
-51.6853
  0
LINE
  8
0
 10
-77.212
 20
-51.6853
 11
-77.0145
 21
-51.6279
  0
LINE
  8
0
 10
-77.0145
 20
-51.6279
 11
-76.8137
 21
-51.583
  0
LINE
  8
0
 10
-76.8137
 20
-51.583
 11
-76.6105
 21
-51.5508
  0
LINE
  8
0
 10
-76.6105
 20
-51.5508
 11
-76.4056
 21
-51.5314
  0
LINE
  8
0
 10
-76.4056
 20
-51.5314
 11
-76.2
 21
-51.525
  0
LINE
  8
0
 10
-76.2
 20
-51.525
 11
-75.9944
 21
-51.5314
  0
LINE
  8
0
 10
-75.9944
 20
-51.5314
 11
-75.7895
 21
-51.5508
  0
LINE
  8
0
 10
-75.7895
 20
-51.5508
 11
-75.5863
 21
-51.583
  0
LINE
  8
0
 10
-75.5863
 20
-51.583
 11
-75.3855
 21
-51.6279
  0
LINE
  8
0
 10
-75.3855
 20
-51.6279
 11
-75.188
 21
-51.6853
  0
LINE
  8
0
 10
-75.188
 20
-51.6853
 11
-74.9944
 21
-51.755
  0
LINE
  8
0
 10
-74.9944
 20
-51.755
 11
-74.8056
 21
-51.8367
  0
LINE
  8
0
 10
-74.8056
 20
-51.8367
 11
-74.6223
 21
-51.9301
  0
LINE
  8
0
 10
-74.6223
 20
-51.9301
 11
-74.4452
 21
-52.0348
  0
LINE
  8
0
 10
-74.4452
 20
-52.0348
 11
-74.275
 21
-52.1505
  0
LINE
  8
0
 10
-74.275
 20
-52.1505
 11
-74.1124
 21
-52.2766
  0
LINE
  8
0
 10
-74.1124
 20
-52.2766
 11
-73.9581
 21
-52.4126
  0
LINE
  8
0
 10
-73.9581
 20
-52.4126
 11
-73.8126
 21
-52.5581
  0
LINE
  8
0
 10
-73.8126
 20
-52.5581
 11
-73.6766
 21
-52.7124
  0
LINE
  8
0
 10
-73.6766
 20
-52.7124
 11
-73.5505
 21
-52.875
  0
LINE
  8
0
 10
-73.5505
 20
-52.875
 11
-73.4348
 21
-53.0452
  0
LINE
  8
0
 10
-73.4348
 20
-53.0452
 11
-73.3301
 21
-53.2222
  0
LINE
  8
0
 10
-73.3301
 20
-53.2222
 11
-73.2367
 21
-53.4056
  0
LINE
  8
0
 10
-73.2367
 20
-53.4056
 11
-73.155
 21
-53.5944
  0
LINE
  8
0
 10
-73.155
 20
-53.5944
 11
-73.0853
 21
-53.788
  0
LINE
  8
0
 10
-73.0853
 20
-53.788
 11
-73.0279
 21
-53.9855
  0
LINE
  8
0
 10
-73.0279
 20
-53.9855
 11
-72.983
 21
-54.1863
  0
LINE
  8
0
 10
-72.983
 20
-54.1863
 11
-72.9508
 21
-54.3895
  0
LINE
  8
0
 10
-72.9508
 20
-54.3895
 11
-72.9315
 21
-54.5944
  0
LINE
  8
0
 10
-72.9315
 20
-54.5944
 11
-72.925
 21
-54.8
  0
LINE
  8
0
 10
-72.925
 20
-54.8
 11
-72.9315
 21
-55.0056
  0
LINE
  8
0
 10
-72.9315
 20
-55.0056
 11
-72.9508
 21
-55.2105
  0
LINE
  8
0
 10
-72.9508
 20
-55.2105
 11
-72.983
 21
-55.4137
  0
LINE
  8
0
 10
-72.983
 20
-55.4137
 11
-73.0279
 21
-55.6145
  0
LINE
  8
0
 10
-73.0279
 20
-55.6145
 11
-73.0853
 21
-55.812
  0
LINE
  8
0
 10
-73.0853
 20
-55.812
 11
-73.155
 21
-56.0056
  0
LINE
  8
0
 10
-73.155
 20
-56.0056
 11
-73.2367
 21
-56.1944
  0
LINE
  8
0
 10
-73.2367
 20
-56.1944
 11
-73.3301
 21
-56.3777
  0
LINE
  8
0
 10
-73.3301
 20
-56.3777
 11
-73.4348
 21
-56.5548
  0
LINE
  8
0
 10
-73.4348
 20
-56.5548
 11
-73.5505
 21
-56.725
  0
LINE
  8
0
 10
-73.5505
 20
-56.725
 11
-73.6766
 21
-56.8876
  0
LINE
  8
0
 10
-73.6766
 20
-56.8876
 11
-73.8126
 21
-57.0419
  0
LINE
  8
0
 10
-73.8126
 20
-57.0419
 11
-73.9581
 21
-57.1874
  0
LINE
  8
0
 10
-73.9581
 20
-57.1874
 11
-74.1124
 21
-57.3234
  0
LINE
  8
0
 10
-74.1124
 20
-57.3234
 11
-74.275
 21
-57.4495
  0
LINE
  8
0
 10
-74.275
 20
-57.4495
 11
-74.4452
 21
-57.5652
  0
LINE
  8
0
 10
-74.4452
 20
-57.5652
 11
-74.6223
 21
-57.6699
  0
LINE
  8
0
 10
-74.6223
 20
-57.6699
 11
-74.8056
 21
-57.7633
  0
LINE
  8
0
 10
-74.8056
 20
-57.7633
 11
-74.9944
 21
-57.845
  0
LINE
  8
0
 10
-74.9944
 20
-57.845
 11
-75.188
 21
-57.9147
  0
LINE
  8
0
 10
-75.188
 20
-57.9147
 11
-75.3855
 21
-57.9721
  0
LINE
  8
0
 10
-75.3855
 20
-57.9721
 11
-75.5863
 21
-58.017
  0
LINE
  8
0
 10
-75.5863
 20
-58.017
 11
-75.7895
 21
-58.0492
  0
LINE
  8
0
 10
-75.7895
 20
-58.0492
 11
-75.9944
 21
-58.0685
  0
LINE
  8
0
 10
-75.9944
 20
-58.0685
 11
-76.2
 21
-58.075
  0
LINE
  8
0
 10
-76.2
 20
-58.075
 11
-76.4056
 21
-58.0685
  0
LINE
  8
0
 10
271.7
 20
67.5
 11
93.9
 21
67.5
  0
LINE
  8
0
 10
93.9
 20
67.5
 11
93.9
 21
-67.5
  0
LINE
  8
0
 10
93.9
 20
-67.5
 11
271.7
 21
-67.5
  0
LINE
  8
0
 10
271.7
 20
-67.5
 11
271.7
 21
67.5
  0
LINE
  8
0
 10
137.922
 20
3.17499
 11
138.155
 21
5.63998
  0
LINE
  8
0
 10
138.155
 20
5.63998
 11
138.597
 21
8.43214
  0
LINE
  8
0
 10
138.597
 20
8.43214
 11
139.214
 21
11.191
  0
LINE
  8
0
 10
139.214
 20
11.191
 11
140.002
 21
13.9058
  0
LINE
  8
0
 10
140.002
 20
13.9058
 11
140.96
 21
16.5656
  0
LINE
  8
0
 10
140.96
 20
16.5656
 11
142.083
 21
19.1601
  0
LINE
  8
0
 10
142.083
 20
19.1601
 11
143.366
 21
21.6789
  0
LINE
  8
0
 10
143.366
 20
21.6789
 11
144.805
 21
24.1122
  0
LINE
  8
0
 10
144.805
 20
24.1122
 11
146.394
 21
26.4503
  0
LINE
  8
0
 10
146.394
 20
26.4503
 11
148.127
 21
28.6841
  0
LINE
  8
0
 10
148.127
 20
28.6841
 11
149.996
 21
30.8046
  0
LINE
  8
0
 10
149.996
 20
30.8046
 11
151.995
 21
32.8036
  0
LINE
  8
0
 10
151.995
 20
32.8036
 11
154.116
 21
34.6731
  0
LINE
  8
0
 10
154.116
 20
34.6731
 11
156.35
 21
36.4058
  0
LINE
  8
0
 10
156.35
 20
36.4058
 11
158.688
 21
37.9948
  0
LINE
  8
0
 10
158.688
 20
37.9948
 11
161.121
 21
39.4338
  0
LINE
  8
0
 10
161.121
 20
39.4338
 11
163.64
 21
40.7172
  0
LINE
  8
0
 10
163.64
 20
40.7172
 11
166.234
 21
41.8399
  0
LINE
  8
0
 10
166.234
 20
41.8399
 11
168.894
 21
42.7975
  0
LINE
  8
0
 10
168.894
 20
42.7975
 11
171.609
 21
43.5862
  0
LINE
  8
0
 10
171.609
 20
43.5862
 11
174.368
 21
44.2029
  0
LINE
  8
0
 10
174.368
 20
44.2029
 11
177.16
 21
44.6452
  0
LINE
  8
0
 10
177.16
 20
44.6452
 11
179.625
 21
44.8782
  0
LINE
  8
0
 10
179.625
 20
44.8782
 11
179.625
 21
3.17499
  0
LINE
  8
0
 10
179.625
 20
3.17499
 11
137.922
 21
3.17499
  0
LINE
  8
0
 10
185.975
 20
3.17499
 11
185.975
 21
44.8782
  0
LINE
  8
0
 10
185.975
 20
44.8782
 11
188.44
 21
44.6452
  0
LINE
  8
0
 10
188.44
 20
44.6452
 11
191.232
 21
44.2029
  0
LINE
  8
0
 10
191.232
 20
44.2029
 11
193.991
 21
43.5862
  0
LINE
  8
0
 10
193.991
 20
43.5862
 11
196.706
 21
42.7975
  0
LINE
  8
0
 10
196.706
 20
42.7975
 11
199.366
 21
41.8399
  0
LINE
  8
0
 10
199.366
 20
41.8399
 11
201.96
 21
40.7172
  0
LINE
  8
0
 10
201.96
 20
40.7172
 11
204.479
 21
39.4338
  0
LINE
  8
0
 10
204.479
 20
39.4338
 11
206.912
 21
37.9948
  0
LINE
  8
0
 10
206.912
 20
37.9948
 11
209.25
 21
36.4058
  0
LINE
  8
0
 10
209.25
 20
36.4058
 11
211.484
 21
34.6731
  0
LINE
  8
0
 10
211.484
 20
34.6731
 11
213.605
 21
32.8036
  0
LINE
  8
0
 10
213.605
 20
32.8036
 11
215.604
 21
30.8046
  0
LINE
  8
0
 10
215.604
 20
30.8046
 11
217.473
 21
28.6841
  0
LINE
  8
0
 10
217.473
 20
28.6841
 11
219.206
 21
26.4503
  0
LINE
  8
0
 10
219.206
 20
26.4503
 11
220.795
 21
24.1122
  0
LINE
  8
0
 10
220.795
 20
24.1122
 11
222.234
 21
21.6789
  0
LINE
  8
0
 10
222.234
 20
21.6789
 11
223.517
 21
19.1601
  0
LINE
  8
0
 10
223.517
 20
19.1601
 11
224.64
 21
16.5656
  0
LINE
  8
0
 10
224.64
 20
16.5656
 11
225.598
 21
13.9058
  0
LINE
  8
0
 10
225.598
 20
13.9058
 11
226.386
 21
11.191
  0
LINE
  8
0
 10
226.386
 20
11.191
 11
227.003
 21
8.43214
  0
LINE
  8
0
 10
227.003
 20
8.43214
 11
227.445
 21
5.63998
  0
LINE
  8
0
 10
227.445
 20
5.63998
 11
227.678
 21
3.17499
  0
LINE
  8
0
 10
227.678
 20
3.17499
 11
185.975
 21
3.17499
  0
LINE
  8
0
 10
223.901
 20
38.8797
 11
223.752
 21
38.8937
  0
LINE
  8
0
 10
223.752
 20
38.8937
 11
223.605
 21
38.9171
  0
LINE
  8
0
 10
223.605
 20
38.9171
 11
223.459
 21
38.9496
  0
LINE
  8
0
 10
223.459
 20
38.9496
 11
223.316
 21
38.9912
  0
LINE
  8
0
 10
223.316
 20
38.9912
 11
223.176
 21
39.0418
  0
LINE
  8
0
 10
223.176
 20
39.0418
 11
223.039
 21
39.101
  0
LINE
  8
0
 10
223.039
 20
39.101
 11
222.906
 21
39.1688
  0
LINE
  8
0
 10
222.906
 20
39.1688
 11
222.777
 21
39.2447
  0
LINE
  8
0
 10
222.777
 20
39.2447
 11
222.654
 21
39.3286
  0
LINE
  8
0
 10
222.654
 20
39.3286
 11
222.536
 21
39.42
  0
LINE
  8
0
 10
222.536
 20
39.42
 11
222.424
 21
39.5187
  0
LINE
  8
0
 10
222.424
 20
39.5187
 11
222.319
 21
39.6242
  0
LINE
  8
0
 10
222.319
 20
39.6242
 11
222.22
 21
39.7361
  0
LINE
  8
0
 10
222.22
 20
39.7361
 11
222.129
 21
39.854
  0
LINE
  8
0
 10
222.129
 20
39.854
 11
222.045
 21
39.9774
  0
LINE
  8
0
 10
222.045
 20
39.9774
 11
221.969
 21
40.1058
  0
LINE
  8
0
 10
221.969
 20
40.1058
 11
221.901
 21
40.2388
  0
LINE
  8
0
 10
221.901
 20
40.2388
 11
221.842
 21
40.3757
  0
LINE
  8
0
 10
221.842
 20
40.3757
 11
221.791
 21
40.5161
  0
LINE
  8
0
 10
221.791
 20
40.5161
 11
221.75
 21
40.6593
  0
LINE
  8
0
 10
221.75
 20
40.6593
 11
221.717
 21
40.805
  0
LINE
  8
0
 10
221.717
 20
40.805
 11
221.694
 21
40.9523
  0
LINE
  8
0
 10
221.694
 20
40.9523
 11
221.68
 21
41.1009
  0
LINE
  8
0
 10
221.68
 20
41.1009
 11
221.675
 21
41.25
  0
LINE
  8
0
 10
221.675
 20
41.25
 11
221.68
 21
41.3991
  0
LINE
  8
0
 10
221.68
 20
41.3991
 11
221.694
 21
41.5477
  0
LINE
  8
0
 10
221.694
 20
41.5477
 11
221.717
 21
41.695
  0
LINE
  8
0
 10
221.717
 20
41.695
 11
221.75
 21
41.8406
  0
LINE
  8
0
 10
221.75
 20
41.8406
 11
221.791
 21
41.9839
  0
LINE
  8
0
 10
221.791
 20
41.9839
 11
221.842
 21
42.1243
  0
LINE
  8
0
 10
221.842
 20
42.1243
 11
221.901
 21
42.2612
  0
LINE
  8
0
 10
221.901
 20
42.2612
 11
221.969
 21
42.3941
  0
LINE
  8
0
 10
221.969
 20
42.3941
 11
222.045
 21
42.5226
  0
LINE
  8
0
 10
222.045
 20
42.5226
 11
222.129
 21
42.646
  0
LINE
  8
0
 10
222.129
 20
42.646
 11
222.22
 21
42.7639
  0
LINE
  8
0
 10
222.22
 20
42.7639
 11
222.319
 21
42.8758
  0
LINE
  8
0
 10
222.319
 20
42.8758
 11
222.424
 21
42.9813
  0
LINE
  8
0
 10
222.424
 20
42.9813
 11
222.536
 21
43.08
  0
LINE
  8
0
 10
222.536
 20
43.08
 11
222.654
 21
43.1714
  0
LINE
  8
0
 10
222.654
 20
43.1714
 11
222.777
 21
43.2553
  0
LINE
  8
0
 10
222.777
 20
43.2553
 11
222.906
 21
43.3312
  0
LINE
  8
0
 10
222.906
 20
43.3312
 11
223.039
 21
43.399
  0
LINE
  8
0
 10
223.039
 20
43.399
 11
223.176
 21
43.4582
  0
LINE
  8
0
 10
223.176
 20
43.4582
 11
223.316
 21
43.5088
  0
LINE
  8
0
 10
223.316
 20
43.5088
 11
223.459
 21
43.5504
  0
LINE
  8
0
 10
223.459
 20
43.5504
 11
223.605
 21
43.5829
  0
LINE
  8
0
 10
223.605
 20
43.5829
 11
223.752
 21
43.6063
  0
LINE
  8
0
 10
223.752
 20
43.6063
 11
223.901
 21
43.6203
  0
LINE
  8
0
 10
223.901
 20
43.6203
 11
224.05
 21
43.625
  0
LINE
  8
0
 10
224.05
 20
43.625
 11
224.199
 21
43.6203
  0
LINE
  8
0
 10
224.199
 20
43.6203
 11
224.348
 21
43.6063
  0
LINE
  8
0
 10
224.348
 20
43.6063
 11
224.495
 21
43.5829
  0
LINE
  8
0
 10
224.495
 20
43.5829
 11
224.641
 21
43.5504
  0
LINE
  8
0
 10
224.641
 20
43.5504
 11
224.784
 21
43.5088
  0
LINE
  8
0
 10
224.784
 20
43.5088
 11
224.924
 21
43.4582
  0
LINE
  8
0
 10
224.924
 20
43.4582
 11
225.061
 21
43.399
  0
LINE
  8
0
 10
225.061
 20
43.399
 11
225.194
 21
43.3312
  0
LINE
  8
0
 10
225.194
 20
43.3312
 11
225.323
 21
43.2553
  0
LINE
  8
0
 10
225.323
 20
43.2553
 11
225.446
 21
43.1714
  0
LINE
  8
0
 10
225.446
 20
43.1714
 11
225.564
 21
43.08
  0
LINE
  8
0
 10
225.564
 20
43.08
 11
225.676
 21
42.9813
  0
LINE
  8
0
 10
225.676
 20
42.9813
 11
225.781
 21
42.8758
  0
LINE
  8
0
 10
225.781
 20
42.8758
 11
225.88
 21
42.7639
  0
LINE
  8
0
 10
225.88
 20
42.7639
 11
225.971
 21
42.646
  0
LINE
  8
0
 10
225.971
 20
42.646
 11
226.055
 21
42.5226
  0
LINE
  8
0
 10
226.055
 20
42.5226
 11
226.131
 21
42.3941
  0
LINE
  8
0
 10
226.131
 20
42.3941
 11
226.199
 21
42.2612
  0
LINE
  8
0
 10
226.199
 20
42.2612
 11
226.258
 21
42.1243
  0
LINE
  8
0
 10
226.258
 20
42.1243
 11
226.309
 21
41.9839
  0
LINE
  8
0
 10
226.309
 20
41.9839
 11
226.35
 21
41.8406
  0
LINE
  8
0
 10
226.35
 20
41.8406
 11
226.383
 21
41.695
  0
LINE
  8
0
 10
226.383
 20
41.695
 11
226.406
 21
41.5477
  0
LINE
  8
0
 10
226.406
 20
41.5477
 11
226.42
 21
41.3991
  0
LINE
  8
0
 10
226.42
 20
41.3991
 11
226.425
 21
41.25
  0
LINE
  8
0
 10
226.425
 20
41.25
 11
226.42
 21
41.1009
  0
LINE
  8
0
 10
226.42
 20
41.1009
 11
226.406
 21
40.9523
  0
LINE
  8
0
 10
226.406
 20
40.9523
 11
226.383
 21
40.805
  0
LINE
  8
0
 10
226.383
 20
40.805
 11
226.35
 21
40.6593
  0
LINE
  8
0
 10
226.35
 20
40.6593
 11
226.309
 21
40.5161
  0
LINE
  8
0
 10
226.309
 20
40.5161
 11
226.258
 21
40.3757
  0
LINE
  8
0
 10
226.258
 20
40.3757
 11
226.199
 21
40.2388
  0
LINE
  8
0
 10
226.199
 20
40.2388
 11
226.131
 21
40.1058
  0
LINE
  8
0
 10
226.131
 20
40.1058
 11
226.055
 21
39.9774
  0
LINE
  8
0
 10
226.055
 20
39.9774
 11
225.971
 21
39.854
  0
LINE
  8
0
 10
225.971
 20
39.854
 11
225.88
 21
39.7361
  0
LINE
  8
0
 10
225.88
 20
39.7361
 11
225.781
 21
39.6242
  0
LINE
  8
0
 10
225.781
 20
39.6242
 11
225.676
 21
39.5187
  0
LINE
  8
0
 10
225.676
 20
39.5187
 11
225.564
 21
39.42
  0
LINE
  8
0
 10
225.564
 20
39.42
 11
225.446
 21
39.3286
  0
LINE
  8
0
 10
225.446
 20
39.3286
 11
225.323
 21
39.2447
  0
LINE
  8
0
 10
225.323
 20
39.2447
 11
225.194
 21
39.1688
  0
LINE
  8
0
 10
225.194
 20
39.1688
 11
225.061
 21
39.101
  0
LINE
  8
0
 10
225.061
 20
39.101
 11
224.924
 21
39.0418
  0
LINE
  8
0
 10
224.924
 20
39.0418
 11
224.784
 21
38.9912
  0
LINE
  8
0
 10
224.784
 20
38.9912
 11
224.641
 21
38.9496
  0
LINE
  8
0
 10
224.641
 20
38.9496
 11
224.495
 21
38.9171
  0
LINE
  8
0
 10
224.495
 20
38.9171
 11
224.348
 21
38.8937
  0
LINE
  8
0
 10
224.348
 20
38.8937
 11
224.199
 21
38.8797
  0
LINE
  8
0
 10
224.199
 20
38.8797
 11
224.05
 21
38.875
  0
LINE
  8
0
 10
224.05
 20
38.875
 11
223.901
 21
38.8797
  0
LINE
  8
0
 10
141.401
 20
38.8797
 11
141.252
 21
38.8937
  0
LINE
  8
0
 10
141.252
 20
38.8937
 11
141.105
 21
38.9171
  0
LINE
  8
0
 10
141.105
 20
38.9171
 11
140.959
 21
38.9496
  0
LINE
  8
0
 10
140.959
 20
38.9496
 11
140.816
 21
38.9912
  0
LINE
  8
0
 10
140.816
 20
38.9912
 11
140.676
 21
39.0418
  0
LINE
  8
0
 10
140.676
 20
39.0418
 11
140.539
 21
39.101
  0
LINE
  8
0
 10
140.539
 20
39.101
 11
140.406
 21
39.1688
  0
LINE
  8
0
 10
140.406
 20
39.1688
 11
140.277
 21
39.2447
  0
LINE
  8
0
 10
140.277
 20
39.2447
 11
140.154
 21
39.3286
  0
LINE
  8
0
 10
140.154
 20
39.3286
 11
140.036
 21
39.42
  0
LINE
  8
0
 10
140.036
 20
39.42
 11
139.924
 21
39.5187
  0
LINE
  8
0
 10
139.924
 20
39.5187
 11
139.819
 21
39.6242
  0
LINE
  8
0
 10
139.819
 20
39.6242
 11
139.72
 21
39.7361
  0
LINE
  8
0
 10
139.72
 20
39.7361
 11
139.629
 21
39.854
  0
LINE
  8
0
 10
139.629
 20
39.854
 11
139.545
 21
39.9774
  0
LINE
  8
0
 10
139.545
 20
39.9774
 11
139.469
 21
40.1058
  0
LINE
  8
0
 10
139.469
 20
40.1058
 11
139.401
 21
40.2388
  0
LINE
  8
0
 10
139.401
 20
40.2388
 11
139.342
 21
40.3757
  0
LINE
  8
0
 10
139.342
 20
40.3757
 11
139.291
 21
40.5161
  0
LINE
  8
0
 10
139.291
 20
40.5161
 11
139.25
 21
40.6593
  0
LINE
  8
0
 10
139.25
 20
40.6593
 11
139.217
 21
40.805
  0
LINE
  8
0
 10
139.217
 20
40.805
 11
139.194
 21
40.9523
  0
LINE
  8
0
 10
139.194
 20
40.9523
 11
139.18
 21
41.1009
  0
LINE
  8
0
 10
139.18
 20
41.1009
 11
139.175
 21
41.25
  0
LINE
  8
0
 10
139.175
 20
41.25
 11
139.18
 21
41.3991
  0
LINE
  8
0
 10
139.18
 20
41.3991
 11
139.194
 21
41.5477
  0
LINE
  8
0
 10
139.194
 20
41.5477
 11
139.217
 21
41.695
  0
LINE
  8
0
 10
139.217
 20
41.695
 11
139.25
 21
41.8406
  0
LINE
  8
0
 10
139.25
 20
41.8406
 11
139.291
 21
41.9839
  0
LINE
  8
0
 10
139.291
 20
41.9839
 11
139.342
 21
42.1243
  0
LINE
  8
0
 10
139.342
 20
42.1243
 11
139.401
 21
42.2612
  0
LINE
  8
0
 10
139.401
 20
42.2612
 11
139.469
 21
42.3941
  0
LINE
  8
0
 10
139.469
 20
42.3941
 11
139.545
 21
42.5226
  0
LINE
  8
0
 10
139.545
 20
42.5226
 11
139.629
 21
42.646
  0
LINE
  8
0
 10
139.629
 20
42.646
 11
139.72
 21
42.7639
  0
LINE
  8
0
 10
139.72
 20
42.7639
 11
139.819
 21
42.8758
  0
LINE
  8
0
 10
139.819
 20
42.8758
 11
139.924
 21
42.9813
  0
LINE
  8
0
 10
139.924
 20
42.9813
 11
140.036
 21
43.08
  0
LINE
  8
0
 10
140.036
 20
43.08
 11
140.154
 21
43.1714
  0
LINE
  8
0
 10
140.154
 20
43.1714
 11
140.277
 21
43.2553
  0
LINE
  8
0
 10
140.277
 20
43.2553
 11
140.406
 21
43.3312
  0
LINE
  8
0
 10
140.406
 20
43.3312
 11
140.539
 21
43.399
  0
LINE
  8
0
 10
140.539
 20
43.399
 11
140.676
 21
43.4582
  0
LINE
  8
0
 10
140.676
 20
43.4582
 11
140.816
 21
43.5088
  0
LINE
  8
0
 10
140.816
 20
43.5088
 11
140.959
 21
43.5504
  0
LINE
  8
0
 10
140.959
 20
43.5504
 11
141.105
 21
43.5829
  0
LINE
  8
0
 10
141.105
 20
43.5829
 11
141.252
 21
43.6063
  0
LINE
  8
0
 10
141.252
 20
43.6063
 11
141.401
 21
43.6203
  0
LINE
  8
0
 10
141.401
 20
43.6203
 11
141.55
 21
43.625
  0
LINE
  8
0
 10
141.55
 20
43.625
 11
141.699
 21
43.6203
  0
LINE
  8
0
 10
141.699
 20
43.6203
 11
141.848
 21
43.6063
  0
LINE
  8
0
 10
141.848
 20
43.6063
 11
141.995
 21
43.5829
  0
LINE
  8
0
 10
141.995
 20
43.5829
 11
142.141
 21
43.5504
  0
LINE
  8
0
 10
142.141
 20
43.5504
 11
142.284
 21
43.5088
  0
LINE
  8
0
 10
142.284
 20
43.5088
 11
142.424
 21
43.4582
  0
LINE
  8
0
 10
142.424
 20
43.4582
 11
142.561
 21
43.399
  0
LINE
  8
0
 10
142.561
 20
43.399
 11
142.694
 21
43.3312
  0
LINE
  8
0
 10
142.694
 20
43.3312
 11
142.823
 21
43.2553
  0
LINE
  8
0
 10
142.823
 20
43.2553
 11
142.946
 21
43.1714
  0
LINE
  8
0
 10
142.946
 20
43.1714
 11
143.064
 21
43.08
  0
LINE
  8
0
 10
143.064
 20
43.08
 11
143.176
 21
42.9813
  0
LINE
  8
0
 10
143.176
 20
42.9813
 11
143.281
 21
42.8758
  0
LINE
  8
0
 10
143.281
 20
42.8758
 11
143.38
 21
42.7639
  0
LINE
  8
0
 10
143.38
 20
42.7639
 11
143.471
 21
42.646
  0
LINE
  8
0
 10
143.471
 20
42.646
 11
143.555
 21
42.5226
  0
LINE
  8
0
 10
143.555
 20
42.5226
 11
143.631
 21
42.3941
  0
LINE
  8
0
 10
143.631
 20
42.3941
 11
143.699
 21
42.2612
  0
LINE
  8
0
 10
143.699
 20
42.2612
 11
143.758
 21
42.1243
  0
LINE
  8
0
 10
143.758
 20
42.1243
 11
143.809
 21
41.9839
  0
LINE
  8
0
 10
143.809
 20
41.9839
 11
143.85
 21
41.8406
  0
LINE
  8
0
 10
143.85
 20
41.8406
 11
143.883
 21
41.695
  0
LINE
  8
0
 10
143.883
 20
41.695
 11
143.906
 21
41.5477
  0
LINE
  8
0
 10
143.906
 20
41.5477
 11
143.92
 21
41.3991
  0
LINE
  8
0
 10
143.92
 20
41.3991
 11
143.925
 21
41.25
  0
LINE
  8
0
 10
143.925
 20
41.25
 11
143.92
 21
41.1009
  0
LINE
  8
0
 10
143.92
 20
41.1009
 11
143.906
 21
40.9523
  0
LINE
  8
0
 10
143.906
 20
40.9523
 11
143.883
 21
40.805
  0
LINE
  8
0
 10
143.883
 20
40.805
 11
143.85
 21
40.6593
  0
LINE
  8
0
 10
143.85
 20
40.6593
 11
143.809
 21
40.5161
  0
LINE
  8
0
 10
143.809
 20
40.5161
 11
143.758
 21
40.3757
  0
LINE
  8
0
 10
143.758
 20
40.3757
 11
143.699
 21
40.2388
  0
LINE
  8
0
 10
143.699
 20
40.2388
 11
143.631
 21
40.1058
  0
LINE
  8
0
 10
143.631
 20
40.1058
 11
143.555
 21
39.9774
  0
LINE
  8
0
 10
143.555
 20
39.9774
 11
143.471
 21
39.854
  0
LINE
  8
0
 10
143.471
 20
39.854
 11
143.38
 21
39.7361
  0
LINE
  8
0
 10
143.38
 20
39.7361
 11
143.281
 21
39.6242
  0
LINE
  8
0
 10
143.281
 20
39.6242
 11
143.176
 21
39.5187
  0
LINE
  8
0
 10
143.176
 20
39.5187
 11
143.064
 21
39.42
  0
LINE
  8
0
 10
143.064
 20
39.42
 11
142.946
 21
39.3286
  0
LINE
  8
0
 10
142.946
 20
39.3286
 11
142.823
 21
39.2447
  0
LINE
  8
0
 10
142.823
 20
39.2447
 11
142.694
 21
39.1688
  0
LINE
  8
0
 10
142.694
 20
39.1688
 11
142.561
 21
39.101
  0
LINE
  8
0
 10
142.561
 20
39.101
 11
142.424
 21
39.0418
  0
LINE
  8
0
 10
142.424
 20
39.0418
 11
142.284
 21
38.9912
  0
LINE
  8
0
 10
142.284
 20
38.9912
 11
142.141
 21
38.9496
  0
LINE
  8
0
 10
142.141
 20
38.9496
 11
141.995
 21
38.9171
  0
LINE
  8
0
 10
141.995
 20
38.9171
 11
141.848
 21
38.8937
  0
LINE
  8
0
 10
141.848
 20
38.8937
 11
141.699
 21
38.8797
  0
LINE
  8
0
 10
141.699
 20
38.8797
 11
141.55
 21
38.875
  0
LINE
  8
0
 10
141.55
 20
38.875
 11
141.401
 21
38.8797
  0
LINE
  8
0
 10
177.16
 20
-44.6452
 11
174.368
 21
-44.2029
  0
LINE
  8
0
 10
174.368
 20
-44.2029
 11
171.609
 21
-43.5862
  0
LINE
  8
0
 10
171.609
 20
-43.5862
 11
168.894
 21
-42.7975
  0
LINE
  8
0
 10
168.894
 20
-42.7975
 11
166.234
 21
-41.8399
  0
LINE
  8
0
 10
166.234
 20
-41.8399
 11
163.64
 21
-40.7172
  0
LINE
  8
0
 10
163.64
 20
-40.7172
 11
161.121
 21
-39.4338
  0
LINE
  8
0
 10
161.121
 20
-39.4338
 11
158.688
 21
-37.9948
  0
LINE
  8
0
 10
158.688
 20
-37.9948
 11
156.35
 21
-36.4058
  0
LINE
  8
0
 10
156.35
 20
-36.4058
 11
154.116
 21
-34.6731
  0
LINE
  8
0
 10
154.116
 20
-34.6731
 11
151.995
 21
-32.8036
  0
LINE
  8
0
 10
151.995
 20
-32.8036
 11
149.996
 21
-30.8046
  0
LINE
  8
0
 10
149.996
 20
-30.8046
 11
148.127
 21
-28.6841
  0
LINE
  8
0
 10
148.127
 20
-28.6841
 11
146.394
 21
-26.4503
  0
LINE
  8
0
 10
146.394
 20
-26.4503
 11
144.805
 21
-24.1122
  0
LINE
  8
0
 10
144.805
 20
-24.1122
 11
143.366
 21
-21.6789
  0
LINE
  8
0
 10
143.366
 20
-21.6789
 11
142.083
 21
-19.1601
  0
LINE
  8
0
 10
142.083
 20
-19.1601
 11
140.96
 21
-16.5656
  0
LINE
  8
0
 10
140.96
 20
-16.5656
 11
140.002
 21
-13.9058
  0
LINE
  8
0
 10
140.002
 20
-13.9058
 11
139.214
 21
-11.191
  0
LINE
  8
0
 10
139.214
 20
-11.191
 11
138.597
 21
-8.43214
  0
LINE
  8
0
 10
138.597
 20
-8.43214
 11
138.155
 21
-5.63998
  0
LINE
  8
0
 10
138.155
 20
-5.63998
 11
137.922
 21
-3.17499
  0
LINE
  8
0
 10
137.922
 20
-3.17499
 11
179.625
 21
-3.17499
  0
LINE
  8
0
 10
179.625
 20
-3.17499
 11
179.625
 21
-44.8782
  0
LINE
  8
0
 10
179.625
 20
-44.8782
 11
177.16
 21
-44.6452
  0
LINE
  8
0
 10
185.975
 20
-3.17499
 11
227.678
 21
-3.17499
  0
LINE
  8
0
 10
227.678
 20
-3.17499
 11
227.445
 21
-5.63998
  0
LINE
  8
0
 10
227.445
 20
-5.63998
 11
227.003
 21
-8.43214
  0
LINE
  8
0
 10
227.003
 20
-8.43214
 11
226.386
 21
-11.191
  0
LINE
  8
0
 10
226.386
 20
-11.191
 11
225.598
 21
-13.9058
  0
LINE
  8
0
 10
225.598
 20
-13.9058
 11
224.64
 21
-16.5656
  0
LINE
  8
0
 10
224.64
 20
-16.5656
 11
223.517
 21
-19.1601
  0
LINE
  8
0
 10
223.517
 20
-19.1601
 11
222.234
 21
-21.6789
  0
LINE
  8
0
 10
222.234
 20
-21.6789
 11
220.795
 21
-24.1122
  0
LINE
  8
0
 10
220.795
 20
-24.1122
 11
219.206
 21
-26.4503
  0
LINE
  8
0
 10
219.206
 20
-26.4503
 11
217.473
 21
-28.6841
  0
LINE
  8
0
 10
217.473
 20
-28.6841
 11
215.604
 21
-30.8046
  0
LINE
  8
0
 10
215.604
 20
-30.8046
 11
213.605
 21
-32.8036
  0
LINE
  8
0
 10
213.605
 20
-32.8036
 11
211.484
 21
-34.6731
  0
LINE
  8
0
 10
211.484
 20
-34.6731
 11
209.25
 21
-36.4058
  0
LINE
  8
0
 10
209.25
 20
-36.4058
 11
206.912
 21
-37.9948
  0
LINE
  8
0
 10
206.912
 20
-37.9948
 11
204.479
 21
-39.4338
  0
LINE
  8
0
 10
204.479
 20
-39.4338
 11
201.96
 21
-40.7172
  0
LINE
  8
0
 10
201.96
 20
-40.7172
 11
199.366
 21
-41.8399
  0
LINE
  8
0
 10
199.366
 20
-41.8399
 11
196.706
 21
-42.7975
  0
LINE
  8
0
 10
196.706
 20
-42.7975
 11
193.991
 21
-43.5862
  0
LINE
  8
0
 10
193.991
 20
-43.5862
 11
191.232
 21
-44.2029
  0
LINE
  8
0
 10
191.232
 20
-44.2029
 11
188.44
 21
-44.6452
  0
LINE
  8
0
 10
188.44
 20
-44.6452
 11
185.975
 21
-44.8782
  0
LINE
  8
0
 10
185.975
 20
-44.8782
 11
185.975
 21
-3.17499
  0
LINE
  8
0
 10
106.394
 20
-19.9685
 11
106.19
 21
-19.9492
  0
LINE
  8
0
 10
106.19
 20
-19.9492
 11
105.986
 21
-19.917
  0
LINE
  8
0
 10
105.986
 20
-19.917
 11
105.786
 21
-19.8721
  0
LINE
  8
0
 10
105.786
 20
-19.8721
 11
105.588
 21
-19.8147
  0
LINE
  8
0
 10
105.588
 20
-19.8147
 11
105.394
 21
-19.745
  0
LINE
  8
0
 10
105.394
 20
-19.745
 11
105.206
 21
-19.6633
  0
LINE
  8
0
 10
105.206
 20
-19.6633
 11
105.022
 21
-19.5699
  0
LINE
  8
0
 10
105.022
 20
-19.5699
 11
104.845
 21
-19.4652
  0
LINE
  8
0
 10
104.845
 20
-19.4652
 11
104.675
 21
-19.3495
  0
LINE
  8
0
 10
104.675
 20
-19.3495
 11
104.512
 21
-19.2234
  0
LINE
  8
0
 10
104.512
 20
-19.2234
 11
104.358
 21
-19.0874
  0
LINE
  8
0
 10
104.358
 20
-19.0874
 11
104.213
 21
-18.9419
  0
LINE
  8
0
 10
104.213
 20
-18.9419
 11
104.077
 21
-18.7876
  0
LINE
  8
0
 10
104.077
 20
-18.7876
 11
103.95
 21
-18.625
  0
LINE
  8
0
 10
103.95
 20
-18.625
 11
103.835
 21
-18.4548
  0
LINE
  8
0
 10
103.835
 20
-18.4548
 11
103.73
 21
-18.2777
  0
LINE
  8
0
 10
103.73
 20
-18.2777
 11
103.637
 21
-18.0944
  0
LINE
  8
0
 10
103.637
 20
-18.0944
 11
103.555
 21
-17.9056
  0
LINE
  8
0
 10
103.555
 20
-17.9056
 11
103.485
 21
-17.712
  0
LINE
  8
0
 10
103.485
 20
-17.712
 11
103.428
 21
-17.5145
  0
LINE
  8
0
 10
103.428
 20
-17.5145
 11
103.383
 21
-17.3137
  0
LINE
  8
0
 10
103.383
 20
-17.3137
 11
103.351
 21
-17.1105
  0
LINE
  8
0
 10
103.351
 20
-17.1105
 11
103.331
 21
-16.9056
  0
LINE
  8
0
 10
103.331
 20
-16.9056
 11
103.325
 21
-16.7
  0
LINE
  8
0
 10
103.325
 20
-16.7
 11
103.331
 21
-16.4944
  0
LINE
  8
0
 10
103.331
 20
-16.4944
 11
103.351
 21
-16.2895
  0
LINE
  8
0
 10
103.351
 20
-16.2895
 11
103.383
 21
-16.0863
  0
LINE
  8
0
 10
103.383
 20
-16.0863
 11
103.428
 21
-15.8855
  0
LINE
  8
0
 10
103.428
 20
-15.8855
 11
103.485
 21
-15.688
  0
LINE
  8
0
 10
103.485
 20
-15.688
 11
103.555
 21
-15.4944
  0
LINE
  8
0
 10
103.555
 20
-15.4944
 11
103.637
 21
-15.3056
  0
LINE
  8
0
 10
103.637
 20
-15.3056
 11
103.73
 21
-15.1223
  0
LINE
  8
0
 10
103.73
 20
-15.1223
 11
103.835
 21
-14.9452
  0
LINE
  8
0
 10
103.835
 20
-14.9452
 11
103.95
 21
-14.775
  0
LINE
  8
0
 10
103.95
 20
-14.775
 11
104.077
 21
-14.6124
  0
LINE
  8
0
 10
104.077
 20
-14.6124
 11
104.213
 21
-14.4581
  0
LINE
  8
0
 10
104.213
 20
-14.4581
 11
104.358
 21
-14.3126
  0
LINE
  8
0
 10
104.358
 20
-14.3126
 11
104.512
 21
-14.1766
  0
LINE
  8
0
 10
104.512
 20
-14.1766
 11
104.675
 21
-14.0505
  0
LINE
  8
0
 10
104.675
 20
-14.0505
 11
104.845
 21
-13.9348
  0
LINE
  8
0
 10
104.845
 20
-13.9348
 11
105.022
 21
-13.8301
  0
LINE
  8
0
 10
105.022
 20
-13.8301
 11
105.206
 21
-13.7367
  0
LINE
  8
0
 10
105.206
 20
-13.7367
 11
105.394
 21
-13.655
  0
LINE
  8
0
 10
105.394
 20
-13.655
 11
105.588
 21
-13.5853
  0
LINE
  8
0
 10
105.588
 20
-13.5853
 11
105.786
 21
-13.5279
  0
LINE
  8
0
 10
105.786
 20
-13.5279
 11
105.986
 21
-13.483
  0
LINE
  8
0
 10
105.986
 20
-13.483
 11
106.19
 21
-13.4508
  0
LINE
  8
0
 10
106.19
 20
-13.4508
 11
106.394
 21
-13.4315
  0
LINE
  8
0
 10
106.394
 20
-13.4315
 11
106.6
 21
-13.425
  0
LINE
  8
0
 10
106.6
 20
-13.425
 11
106.806
 21
-13.4315
  0
LINE
  8
0
 10
106.806
 20
-13.4315
 11
107.01
 21
-13.4508
  0
LINE
  8
0
 10
107.01
 20
-13.4508
 11
107.214
 21
-13.483
  0
LINE
  8
0
 10
107.214
 20
-13.483
 11
107.414
 21
-13.5279
  0
LINE
  8
0
 10
107.414
 20
-13.5279
 11
107.612
 21
-13.5853
  0
LINE
  8
0
 10
107.612
 20
-13.5853
 11
107.806
 21
-13.655
  0
LINE
  8
0
 10
107.806
 20
-13.655
 11
107.994
 21
-13.7367
  0
LINE
  8
0
 10
107.994
 20
-13.7367
 11
108.178
 21
-13.8301
  0
LINE
  8
0
 10
108.178
 20
-13.8301
 11
108.355
 21
-13.9348
  0
LINE
  8
0
 10
108.355
 20
-13.9348
 11
108.525
 21
-14.0505
  0
LINE
  8
0
 10
108.525
 20
-14.0505
 11
108.688
 21
-14.1766
  0
LINE
  8
0
 10
108.688
 20
-14.1766
 11
108.842
 21
-14.3126
  0
LINE
  8
0
 10
108.842
 20
-14.3126
 11
108.987
 21
-14.4581
  0
LINE
  8
0
 10
108.987
 20
-14.4581
 11
109.123
 21
-14.6124
  0
LINE
  8
0
 10
109.123
 20
-14.6124
 11
109.25
 21
-14.775
  0
LINE
  8
0
 10
109.25
 20
-14.775
 11
109.365
 21
-14.9452
  0
LINE
  8
0
 10
109.365
 20
-14.9452
 11
109.47
 21
-15.1223
  0
LINE
  8
0
 10
109.47
 20
-15.1223
 11
109.563
 21
-15.3056
  0
LINE
  8
0
 10
109.563
 20
-15.3056
 11
109.645
 21
-15.4944
  0
LINE
  8
0
 10
109.645
 20
-15.4944
 11
109.715
 21
-15.688
  0
LINE
  8
0
 10
109.715
 20
-15.688
 11
109.772
 21
-15.8855
  0
LINE
  8
0
 10
109.772
 20
-15.8855
 11
109.817
 21
-16.0863
  0
LINE
  8
0
 10
109.817
 20
-16.0863
 11
109.849
 21
-16.2895
  0
LINE
  8
0
 10
109.849
 20
-16.2895
 11
109.869
 21
-16.4944
  0
LINE
  8
0
 10
109.869
 20
-16.4944
 11
109.875
 21
-16.7
  0
LINE
  8
0
 10
109.875
 20
-16.7
 11
109.869
 21
-16.9056
  0
LINE
  8
0
 10
109.869
 20
-16.9056
 11
109.849
 21
-17.1105
  0
LINE
  8
0
 10
109.849
 20
-17.1105
 11
109.817
 21
-17.3137
  0
LINE
  8
0
 10
109.817
 20
-17.3137
 11
109.772
 21
-17.5145
  0
LINE
  8
0
 10
109.772
 20
-17.5145
 11
109.715
 21
-17.712
  0
LINE
  8
0
 10
109.715
 20
-17.712
 11
109.645
 21
-17.9056
  0
LINE
  8
0
 10
109.645
 20
-17.9056
 11
109.563
 21
-18.0944
  0
LINE
  8
0
 10
109.563
 20
-18.0944
 11
109.47
 21
-18.2777
  0
LINE
  8
0
 10
109.47
 20
-18.2777
 11
109.365
 21
-18.4548
  0
LINE
  8
0
 10
109.365
 20
-18.4548
 11
109.25
 21
-18.625
  0
LINE
  8
0
 10
109.25
 20
-18.625
 11
109.123
 21
-18.7876
  0
LINE
  8
0
 10
109.123
 20
-18.7876
 11
108.987
 21
-18.9419
  0
LINE
  8
0
 10
108.987
 20
-18.9419
 11
108.842
 21
-19.0874
  0
LINE
  8
0
 10
108.842
 20
-19.0874
 11
108.688
 21
-19.2234
  0
LINE
  8
0
 10
108.688
 20
-19.2234
 11
108.525
 21
-19.3495
  0
LINE
  8
0
 10
108.525
 20
-19.3495
 11
108.355
 21
-19.4652
  0
LINE
  8
0
 10
108.355
 20
-19.4652
 11
108.178
 21
-19.5699
  0
LINE
  8
0
 10
108.178
 20
-19.5699
 11
107.994
 21
-19.6633
  0
LINE
  8
0
 10
107.994
 20
-19.6633
 11
107.806
 21
-19.745
  0
LINE
  8
0
 10
107.806
 20
-19.745
 11
107.612
 21
-19.8147
  0
LINE
  8
0
 10
107.612
 20
-19.8147
 11
107.414
 21
-19.8721
  0
LINE
  8
0
 10
107.414
 20
-19.8721
 11
107.214
 21
-19.917
  0
LINE
  8
0
 10
107.214
 20
-19.917
 11
107.01
 21
-19.9492
  0
LINE
  8
0
 10
107.01
 20
-19.9492
 11
106.806
 21
-19.9685
  0
LINE
  8
0
 10
106.806
 20
-19.9685
 11
106.6
 21
-19.975
  0
LINE
  8
0
 10
106.6
 20
-19.975
 11
106.394
 21
-19.9685
  0
LINE
  8
0
 10
258.794
 20
-19.9685
 11
258.59
 21
-19.9492
  0
LINE
  8
0
 10
258.59
 20
-19.9492
 11
258.386
 21
-19.917
  0
LINE
  8
0
 10
258.386
 20
-19.917
 11
258.186
 21
-19.8721
  0
LINE
  8
0
 10
258.186
 20
-19.8721
 11
257.988
 21
-19.8147
  0
LINE
  8
0
 10
257.988
 20
-19.8147
 11
257.794
 21
-19.745
  0
LINE
  8
0
 10
257.794
 20
-19.745
 11
257.606
 21
-19.6633
  0
LINE
  8
0
 10
257.606
 20
-19.6633
 11
257.422
 21
-19.5699
  0
LINE
  8
0
 10
257.422
 20
-19.5699
 11
257.245
 21
-19.4652
  0
LINE
  8
0
 10
257.245
 20
-19.4652
 11
257.075
 21
-19.3495
  0
LINE
  8
0
 10
257.075
 20
-19.3495
 11
256.912
 21
-19.2234
  0
LINE
  8
0
 10
256.912
 20
-19.2234
 11
256.758
 21
-19.0874
  0
LINE
  8
0
 10
256.758
 20
-19.0874
 11
256.613
 21
-18.9419
  0
LINE
  8
0
 10
256.613
 20
-18.9419
 11
256.477
 21
-18.7876
  0
LINE
  8
0
 10
256.477
 20
-18.7876
 11
256.35
 21
-18.625
  0
LINE
  8
0
 10
256.35
 20
-18.625
 11
256.235
 21
-18.4548
  0
LINE
  8
0
 10
256.235
 20
-18.4548
 11
256.13
 21
-18.2777
  0
LINE
  8
0
 10
256.13
 20
-18.2777
 11
256.037
 21
-18.0944
  0
LINE
  8
0
 10
256.037
 20
-18.0944
 11
255.955
 21
-17.9056
  0
LINE
  8
0
 10
255.955
 20
-17.9056
 11
255.885
 21
-17.712
  0
LINE
  8
0
 10
255.885
 20
-17.712
 11
255.828
 21
-17.5145
  0
LINE
  8
0
 10
255.828
 20
-17.5145
 11
255.783
 21
-17.3137
  0
LINE
  8
0
 10
255.783
 20
-17.3137
 11
255.751
 21
-17.1105
  0
LINE
  8
0
 10
255.751
 20
-17.1105
 11
255.731
 21
-16.9056
  0
LINE
  8
0
 10
255.731
 20
-16.9056
 11
255.725
 21
-16.7
  0
LINE
  8
0
 10
255.725
 20
-16.7
 11
255.731
 21
-16.4944
  0
LINE
  8
0
 10
255.731
 20
-16.4944
 11
255.751
 21
-16.2895
  0
LINE
  8
0
 10
255.751
 20
-16.2895
 11
255.783
 21
-16.0863
  0
LINE
  8
0
 10
255.783
 20
-16.0863
 11
255.828
 21
-15.8855
  0
LINE
  8
0
 10
255.828
 20
-15.8855
 11
255.885
 21
-15.688
  0
LINE
  8
0
 10
255.885
 20
-15.688
 11
255.955
 21
-15.4944
  0
LINE
  8
0
 10
255.955
 20
-15.4944
 11
256.037
 21
-15.3056
  0
LINE
  8
0
 10
256.037
 20
-15.3056
 11
256.13
 21
-15.1223
  0
LINE
  8
0
 10
256.13
 20
-15.1223
 11
256.235
 21
-14.9452
  0
LINE
  8
0
 10
256.235
 20
-14.9452
 11
256.35
 21
-14.775
  0
LINE
  8
0
 10
256.35
 20
-14.775
 11
256.477
 21
-14.6124
  0
LINE
  8
0
 10
256.477
 20
-14.6124
 11
256.613
 21
-14.4581
  0
LINE
  8
0
 10
256.613
 20
-14.4581
 11
256.758
 21
-14.3126
  0
LINE
  8
0
 10
256.758
 20
-14.3126
 11
256.912
 21
-14.1766
  0
LINE
  8
0
 10
256.912
 20
-14.1766
 11
257.075
 21
-14.0505
  0
LINE
  8
0
 10
257.075
 20
-14.0505
 11
257.245
 21
-13.9348
  0
LINE
  8
0
 10
257.245
 20
-13.9348
 11
257.422
 21
-13.8301
  0
LINE
  8
0
 10
257.422
 20
-13.8301
 11
257.606
 21
-13.7367
  0
LINE
  8
0
 10
257.606
 20
-13.7367
 11
257.794
 21
-13.655
  0
LINE
  8
0
 10
257.794
 20
-13.655
 11
257.988
 21
-13.5853
  0
LINE
  8
0
 10
257.988
 20
-13.5853
 11
258.186
 21
-13.5279
  0
LINE
  8
0
 10
258.186
 20
-13.5279
 11
258.386
 21
-13.483
  0
LINE
  8
0
 10
258.386
 20
-13.483
 11
258.59
 21
-13.4508
  0
LINE
  8
0
 10
258.59
 20
-13.4508
 11
258.794
 21
-13.4315
  0
LINE
  8
0
 10
258.794
 20
-13.4315
 11
259
 21
-13.425
  0
LINE
  8
0
 10
259
 20
-13.425
 11
259.206
 21
-13.4315
  0
LINE
  8
0
 10
259.206
 20
-13.4315
 11
259.41
 21
-13.4508
  0
LINE
  8
0
 10
259.41
 20
-13.4508
 11
259.614
 21
-13.483
  0
LINE
  8
0
 10
259.614
 20
-13.483
 11
259.814
 21
-13.5279
  0
LINE
  8
0
 10
259.814
 20
-13.5279
 11
260.012
 21
-13.5853
  0
LINE
  8
0
 10
260.012
 20
-13.5853
 11
260.206
 21
-13.655
  0
LINE
  8
0
 10
260.206
 20
-13.655
 11
260.394
 21
-13.7367
  0
LINE
  8
0
 10
260.394
 20
-13.7367
 11
260.578
 21
-13.8301
  0
LINE
  8
0
 10
260.578
 20
-13.8301
 11
260.755
 21
-13.9348
  0
LINE
  8
0
 10
260.755
 20
-13.9348
 11
260.925
 21
-14.0505
  0
LINE
  8
0
 10
260.925
 20
-14.0505
 11
261.088
 21
-14.1766
  0
LINE
  8
0
 10
261.088
 20
-14.1766
 11
261.242
 21
-14.3126
  0
LINE
  8
0
 10
261.242
 20
-14.3126
 11
261.387
 21
-14.4581
  0
LINE
  8
0
 10
261.387
 20
-14.4581
 11
261.523
 21
-14.6124
  0
LINE
  8
0
 10
261.523
 20
-14.6124
 11
261.65
 21
-14.775
  0
LINE
  8
0
 10
261.65
 20
-14.775
 11
261.765
 21
-14.9452
  0
LINE
  8
0
 10
261.765
 20
-14.9452
 11
261.87
 21
-15.1223
  0
LINE
  8
0
 10
261.87
 20
-15.1223
 11
261.963
 21
-15.3056
  0
LINE
  8
0
 10
261.963
 20
-15.3056
 11
262.045
 21
-15.4944
  0
LINE
  8
0
 10
262.045
 20
-15.4944
 11
262.115
 21
-15.688
  0
LINE
  8
0
 10
262.115
 20
-15.688
 11
262.172
 21
-15.8855
  0
LINE
  8
0
 10
262.172
 20
-15.8855
 11
262.217
 21
-16.0863
  0
LINE
  8
0
 10
262.217
 20
-16.0863
 11
262.249
 21
-16.2895
  0
LINE
  8
0
 10
262.249
 20
-16.2895
 11
262.269
 21
-16.4944
  0
LINE
  8
0
 10
262.269
 20
-16.4944
 11
262.275
 21
-16.7
  0
LINE
  8
0
 10
262.275
 20
-16.7
 11
262.269
 21
-16.9056
  0
LINE
  8
0
 10
262.269
 20
-16.9056
 11
262.249
 21
-17.1105
  0
LINE
  8
0
 10
262.249
 20
-17.1105
 11
262.217
 21
-17.3137
  0
LINE
  8
0
 10
262.217
 20
-17.3137
 11
262.172
 21
-17.5145
  0
LINE
  8
0
 10
262.172
 20
-17.5145
 11
262.115
 21
-17.712
  0
LINE
  8
0
 10
262.115
 20
-17.712
 11
262.045
 21
-17.9056
  0
LINE
  8
0
 10
262.045
 20
-17.9056
 11
261.963
 21
-18.0944
  0
LINE
  8
0
 10
261.963
 20
-18.0944
 11
261.87
 21
-18.2777
  0
LINE
  8
0
 10
261.87
 20
-18.2777
 11
261.765
 21
-18.4548
  0
LINE
  8
0
 10
261.765
 20
-18.4548
 11
261.65
 21
-18.625
  0
LINE
  8
0
 10
261.65
 20
-18.625
 11
261.523
 21
-18.7876
  0
LINE
  8
0
 10
261.523
 20
-18.7876
 11
261.387
 21
-18.9419
  0
LINE
  8
0
 10
261.387
 20
-18.9419
 11
261.242
 21
-19.0874
  0
LINE
  8
0
 10
261.242
 20
-19.0874
 11
261.088
 21
-19.2234
  0
LINE
  8
0
 10
261.088
 20
-19.2234
 11
260.925
 21
-19.3495
  0
LINE
  8
0
 10
260.925
 20
-19.3495
 11
260.755
 21
-19.4652
  0
LINE
  8
0
 10
260.755
 20
-19.4652
 11
260.578
 21
-19.5699
  0
LINE
  8
0
 10
260.578
 20
-19.5699
 11
260.394
 21
-19.6633
  0
LINE
  8
0
 10
260.394
 20
-19.6633
 11
260.206
 21
-19.745
  0
LINE
  8
0
 10
260.206
 20
-19.745
 11
260.012
 21
-19.8147
  0
LINE
  8
0
 10
260.012
 20
-19.8147
 11
259.814
 21
-19.8721
  0
LINE
  8
0
 10
259.814
 20
-19.8721
 11
259.614
 21
-19.917
  0
LINE
  8
0
 10
259.614
 20
-19.917
 11
259.41
 21
-19.9492
  0
LINE
  8
0
 10
259.41
 20
-19.9492
 11
259.206
 21
-19.9685
  0
LINE
  8
0
 10
259.206
 20
-19.9685
 11
259
 21
-19.975
  0
LINE
  8
0
 10
259
 20
-19.975
 11
258.794
 21
-19.9685
  0
LINE
  8
0
 10
258.794
 20
-45.3685
 11
258.59
 21
-45.3492
  0
LINE
  8
0
 10
258.59
 20
-45.3492
 11
258.386
 21
-45.317
  0
LINE
  8
0
 10
258.386
 20
-45.317
 11
258.186
 21
-45.2721
  0
LINE
  8
0
 10
258.186
 20
-45.2721
 11
257.988
 21
-45.2147
  0
LINE
  8
0
 10
257.988
 20
-45.2147
 11
257.794
 21
-45.145
  0
LINE
  8
0
 10
257.794
 20
-45.145
 11
257.606
 21
-45.0633
  0
LINE
  8
0
 10
257.606
 20
-45.0633
 11
257.422
 21
-44.9699
  0
LINE
  8
0
 10
257.422
 20
-44.9699
 11
257.245
 21
-44.8652
  0
LINE
  8
0
 10
257.245
 20
-44.8652
 11
257.075
 21
-44.7495
  0
LINE
  8
0
 10
257.075
 20
-44.7495
 11
256.912
 21
-44.6234
  0
LINE
  8
0
 10
256.912
 20
-44.6234
 11
256.758
 21
-44.4874
  0
LINE
  8
0
 10
256.758
 20
-44.4874
 11
256.613
 21
-44.3419
  0
LINE
  8
0
 10
256.613
 20
-44.3419
 11
256.477
 21
-44.1876
  0
LINE
  8
0
 10
256.477
 20
-44.1876
 11
256.35
 21
-44.025
  0
LINE
  8
0
 10
256.35
 20
-44.025
 11
256.235
 21
-43.8548
  0
LINE
  8
0
 10
256.235
 20
-43.8548
 11
256.13
 21
-43.6777
  0
LINE
  8
0
 10
256.13
 20
-43.6777
 11
256.037
 21
-43.4944
  0
LINE
  8
0
 10
256.037
 20
-43.4944
 11
255.955
 21
-43.3056
  0
LINE
  8
0
 10
255.955
 20
-43.3056
 11
255.885
 21
-43.112
  0
LINE
  8
0
 10
255.885
 20
-43.112
 11
255.828
 21
-42.9145
  0
LINE
  8
0
 10
255.828
 20
-42.9145
 11
255.783
 21
-42.7137
  0
LINE
  8
0
 10
255.783
 20
-42.7137
 11
255.751
 21
-42.5105
  0
LINE
  8
0
 10
255.751
 20
-42.5105
 11
255.731
 21
-42.3056
  0
LINE
  8
0
 10
255.731
 20
-42.3056
 11
255.725
 21
-42.1
  0
LINE
  8
0
 10
255.725
 20
-42.1
 11
255.731
 21
-41.8943
  0
LINE
  8
0
 10
255.731
 20
-41.8943
 11
255.751
 21
-41.6895
  0
LINE
  8
0
 10
255.751
 20
-41.6895
 11
255.783
 21
-41.4863
  0
LINE
  8
0
 10
255.783
 20
-41.4863
 11
255.828
 21
-41.2855
  0
LINE
  8
0
 10
255.828
 20
-41.2855
 11
255.885
 21
-41.088
  0
LINE
  8
0
 10
255.885
 20
-41.088
 11
255.955
 21
-40.8944
  0
LINE
  8
0
 10
255.955
 20
-40.8944
 11
256.037
 21
-40.7056
  0
LINE
  8
0
 10
256.037
 20
-40.7056
 11
256.13
 21
-40.5222
  0
LINE
  8
0
 10
256.13
 20
-40.5222
 11
256.235
 21
-40.3452
  0
LINE
  8
0
 10
256.235
 20
-40.3452
 11
256.35
 21
-40.175
  0
LINE
  8
0
 10
256.35
 20
-40.175
 11
256.477
 21
-40.0124
  0
LINE
  8
0
 10
256.477
 20
-40.0124
 11
256.613
 21
-39.8581
  0
LINE
  8
0
 10
256.613
 20
-39.8581
 11
256.758
 21
-39.7126
  0
LINE
  8
0
 10
256.758
 20
-39.7126
 11
256.912
 21
-39.5766
  0
LINE
  8
0
 10
256.912
 20
-39.5766
 11
257.075
 21
-39.4505
  0
LINE
  8
0
 10
257.075
 20
-39.4505
 11
257.245
 21
-39.3348
  0
LINE
  8
0
 10
257.245
 20
-39.3348
 11
257.422
 21
-39.2301
  0
LINE
  8
0
 10
257.422
 20
-39.2301
 11
257.606
 21
-39.1367
  0
LINE
  8
0
 10
257.606
 20
-39.1367
 11
257.794
 21
-39.055
  0
LINE
  8
0
 10
257.794
 20
-39.055
 11
257.988
 21
-38.9853
  0
LINE
  8
0
 10
257.988
 20
-38.9853
 11
258.186
 21
-38.9279
  0
LINE
  8
0
 10
258.186
 20
-38.9279
 11
258.386
 21
-38.883
  0
LINE
  8
0
 10
258.386
 20
-38.883
 11
258.59
 21
-38.8508
  0
LINE
  8
0
 10
258.59
 20
-38.8508
 11
258.794
 21
-38.8315
  0
LINE
  8
0
 10
258.794
 20
-38.8315
 11
259
 21
-38.825
  0
LINE
  8
0
 10
259
 20
-38.825
 11
259.206
 21
-38.8315
  0
LINE
  8
0
 10
259.206
 20
-38.8315
 11
259.41
 21
-38.8508
  0
LINE
  8
0
 10
259.41
 20
-38.8508
 11
259.614
 21
-38.883
  0
LINE
  8
0
 10
259.614
 20
-38.883
 11
259.814
 21
-38.9279
  0
LINE
  8
0
 10
259.814
 20
-38.9279
 11
260.012
 21
-38.9853
  0
LINE
  8
0
 10
260.012
 20
-38.9853
 11
260.206
 21
-39.055
  0
LINE
  8
0
 10
260.206
 20
-39.055
 11
260.394
 21
-39.1367
  0
LINE
  8
0
 10
260.394
 20
-39.1367
 11
260.578
 21
-39.2301
  0
LINE
  8
0
 10
260.578
 20
-39.2301
 11
260.755
 21
-39.3348
  0
LINE
  8
0
 10
260.755
 20
-39.3348
 11
260.925
 21
-39.4505
  0
LINE
  8
0
 10
260.925
 20
-39.4505
 11
261.088
 21
-39.5766
  0
LINE
  8
0
 10
261.088
 20
-39.5766
 11
261.242
 21
-39.7126
  0
LINE
  8
0
 10
261.242
 20
-39.7126
 11
261.387
 21
-39.8581
  0
LINE
  8
0
 10
261.387
 20
-39.8581
 11
261.523
 21
-40.0124
  0
LINE
  8
0
 10
261.523
 20
-40.0124
 11
261.65
 21
-40.175
  0
LINE
  8
0
 10
261.65
 20
-40.175
 11
261.765
 21
-40.3452
  0
LINE
  8
0
 10
261.765
 20
-40.3452
 11
261.87
 21
-40.5222
  0
LINE
  8
0
 10
261.87
 20
-40.5222
 11
261.963
 21
-40.7056
  0
LINE
  8
0
 10
261.963
 20
-40.7056
 11
262.045
 21
-40.8944
  0
LINE
  8
0
 10
262.045
 20
-40.8944
 11
262.115
 21
-41.088
  0
LINE
  8
0
 10
262.115
 20
-41.088
 11
262.172
 21
-41.2855
  0
LINE
  8
0
 10
262.172
 20
-41.2855
 11
262.217
 21
-41.4863
  0
LINE
  8
0
 10
262.217
 20
-41.4863
 11
262.249
 21
-41.6895
  0
LINE
  8
0
 10
262.249
 20
-41.6895
 11
262.269
 21
-41.8943
  0
LINE
  8
0
 10
262.269
 20
-41.8943
 11
262.275
 21
-42.1
  0
LINE
  8
0
 10
262.275
 20
-42.1
 11
262.269
 21
-42.3056
  0
LINE
  8
0
 10
262.269
 20
-42.3056
 11
262.249
 21
-42.5105
  0
LINE
  8
0
 10
262.249
 20
-42.5105
 11
262.217
 21
-42.7137
  0
LINE
  8
0
 10
262.217
 20
-42.7137
 11
262.172
 21
-42.9145
  0
LINE
  8
0
 10
262.172
 20
-42.9145
 11
262.115
 21
-43.112
  0
LINE
  8
0
 10
262.115
 20
-43.112
 11
262.045
 21
-43.3056
  0
LINE
  8
0
 10
262.045
 20
-43.3056
 11
261.963
 21
-43.4944
  0
LINE
  8
0
 10
261.963
 20
-43.4944
 11
261.87
 21
-43.6777
  0
LINE
  8
0
 10
261.87
 20
-43.6777
 11
261.765
 21
-43.8548
  0
LINE
  8
0
 10
261.765
 20
-43.8548
 11
261.65
 21
-44.025
  0
LINE
  8
0
 10
261.65
 20
-44.025
 11
261.523
 21
-44.1876
  0
LINE
  8
0
 10
261.523
 20
-44.1876
 11
261.387
 21
-44.3419
  0
LINE
  8
0
 10
261.387
 20
-44.3419
 11
261.242
 21
-44.4874
  0
LINE
  8
0
 10
261.242
 20
-44.4874
 11
261.088
 21
-44.6234
  0
LINE
  8
0
 10
261.088
 20
-44.6234
 11
260.925
 21
-44.7495
  0
LINE
  8
0
 10
260.925
 20
-44.7495
 11
260.755
 21
-44.8652
  0
LINE
  8
0
 10
260.755
 20
-44.8652
 11
260.578
 21
-44.9699
  0
LINE
  8
0
 10
260.578
 20
-44.9699
 11
260.394
 21
-45.0633
  0
LINE
  8
0
 10
260.394
 20
-45.0633
 11
260.206
 21
-45.145
  0
LINE
  8
0
 10
260.206
 20
-45.145
 11
260.012
 21
-45.2147
  0
LINE
  8
0
 10
260.012
 20
-45.2147
 11
259.814
 21
-45.2721
  0
LINE
  8
0
 10
259.814
 20
-45.2721
 11
259.614
 21
-45.317
  0
LINE
  8
0
 10
259.614
 20
-45.317
 11
259.41
 21
-45.3492
  0
LINE
  8
0
 10
259.41
 20
-45.3492
 11
259.206
 21
-45.3685
  0
LINE
  8
0
 10
259.206
 20
-45.3685
 11
259
 21
-45.375
  0
LINE
  8
0
 10
259
 20
-45.375
 11
258.794
 21
-45.3685
  0
LINE
  8
0
 10
106.394
 20
-45.3685
 11
106.19
 21
-45.3492
  0
LINE
  8
0
 10
106.19
 20
-45.3492
 11
105.986
 21
-45.317
  0
LINE
  8
0
 10
105.986
 20
-45.317
 11
105.786
 21
-45.2721
  0
LINE
  8
0
 10
105.786
 20
-45.2721
 11
105.588
 21
-45.2147
  0
LINE
  8
0
 10
105.588
 20
-45.2147
 11
105.394
 21
-45.145
  0
LINE
  8
0
 10
105.394
 20
-45.145
 11
105.206
 21
-45.0633
  0
LINE
  8
0
 10
105.206
 20
-45.0633
 11
105.022
 21
-44.9699
  0
LINE
  8
0
 10
105.022
 20
-44.9699
 11
104.845
 21
-44.8652
  0
LINE
  8
0
 10
104.845
 20
-44.8652
 11
104.675
 21
-44.7495
  0
LINE
  8
0
 10
104.675
 20
-44.7495
 11
104.512
 21
-44.6234
  0
LINE
  8
0
 10
104.512
 20
-44.6234
 11
104.358
 21
-44.4874
  0
LINE
  8
0
 10
104.358
 20
-44.4874
 11
104.213
 21
-44.3419
  0
LINE
  8
0
 10
104.213
 20
-44.3419
 11
104.077
 21
-44.1876
  0
LINE
  8
0
 10
104.077
 20
-44.1876
 11
103.95
 21
-44.025
  0
LINE
  8
0
 10
103.95
 20
-44.025
 11
103.835
 21
-43.8548
  0
LINE
  8
0
 10
103.835
 20
-43.8548
 11
103.73
 21
-43.6777
  0
LINE
  8
0
 10
103.73
 20
-43.6777
 11
103.637
 21
-43.4944
  0
LINE
  8
0
 10
103.637
 20
-43.4944
 11
103.555
 21
-43.3056
  0
LINE
  8
0
 10
103.555
 20
-43.3056
 11
103.485
 21
-43.112
  0
LINE
  8
0
 10
103.485
 20
-43.112
 11
103.428
 21
-42.9145
  0
LINE
  8
0
 10
103.428
 20
-42.9145
 11
103.383
 21
-42.7137
  0
LINE
  8
0
 10
103.383
 20
-42.7137
 11
103.351
 21
-42.5105
  0
LINE
  8
0
 10
103.351
 20
-42.5105
 11
103.331
 21
-42.3056
  0
LINE
  8
0
 10
103.331
 20
-42.3056
 11
103.325
 21
-42.1
  0
LINE
  8
0
 10
103.325
 20
-42.1
 11
103.331
 21
-41.8943
  0
LINE
  8
0
 10
103.331
 20
-41.8943
 11
103.351
 21
-41.6895
  0
LINE
  8
0
 10
103.351
 20
-41.6895
 11
103.383
 21
-41.4863
  0
LINE
  8
0
 10
103.383
 20
-41.4863
 11
103.428
 21
-41.2855
  0
LINE
  8
0
 10
103.428
 20
-41.2855
 11
103.485
 21
-41.088
  0
LINE
  8
0
 10
103.485
 20
-41.088
 11
103.555
 21
-40.8944
  0
LINE
  8
0
 10
103.555
 20
-40.8944
 11
103.637
 21
-40.7056
  0
LINE
  8
0
 10
103.637
 20
-40.7056
 11
103.73
 21
-40.5222
  0
LINE
  8
0
 10
103.73
 20
-40.5222
 11
103.835
 21
-40.3452
  0
LINE
  8
0
 10
103.835
 20
-40.3452
 11
103.95
 21
-40.175
  0
LINE
  8
0
 10
103.95
 20
-40.175
 11
104.077
 21
-40.0124
  0
LINE
  8
0
 10
104.077
 20
-40.0124
 11
104.213
 21
-39.8581
  0
LINE
  8
0
 10
104.213
 20
-39.8581
 11
104.358
 21
-39.7126
  0
LINE
  8
0
 10
104.358
 20
-39.7126
 11
104.512
 21
-39.5766
  0
LINE
  8
0
 10
104.512
 20
-39.5766
 11
104.675
 21
-39.4505
  0
LINE
  8
0
 10
104.675
 20
-39.4505
 11
104.845
 21
-39.3348
  0
LINE
  8
0
 10
104.845
 20
-39.3348
 11
105.022
 21
-39.2301
  0
LINE
  8
0
 10
105.022
 20
-39.2301
 11
105.206
 21
-39.1367
  0
LINE
  8
0
 10
105.206
 20
-39.1367
 11
105.394
 21
-39.055
  0
LINE
  8
0
 10
105.394
 20
-39.055
 11
105.588
 21
-38.9853
  0
LINE
  8
0
 10
105.588
 20
-38.9853
 11
105.786
 21
-38.9279
  0
LINE
  8
0
 10
105.786
 20
-38.9279
 11
105.986
 21
-38.883
  0
LINE
  8
0
 10
105.986
 20
-38.883
 11
106.19
 21
-38.8508
  0
LINE
  8
0
 10
106.19
 20
-38.8508
 11
106.394
 21
-38.8315
  0
LINE
  8
0
 10
106.394
 20
-38.8315
 11
106.6
 21
-38.825
  0
LINE
  8
0
 10
106.6
 20
-38.825
 11
106.806
 21
-38.8315
  0
LINE
  8
0
 10
106.806
 20
-38.8315
 11
107.01
 21
-38.8508
  0
LINE
  8
0
 10
107.01
 20
-38.8508
 11
107.214
 21
-38.883
  0
LINE
  8
0
 10
107.214
 20
-38.883
 11
107.414
 21
-38.9279
  0
LINE
  8
0
 10
107.414
 20
-38.9279
 11
107.612
 21
-38.9853
  0
LINE
  8
0
 10
107.612
 20
-38.9853
 11
107.806
 21
-39.055
  0
LINE
  8
0
 10
107.806
 20
-39.055
 11
107.994
 21
-39.1367
  0
LINE
  8
0
 10
107.994
 20
-39.1367
 11
108.178
 21
-39.2301
  0
LINE
  8
0
 10
108.178
 20
-39.2301
 11
108.355
 21
-39.3348
  0
LINE
  8
0
 10
108.355
 20
-39.3348
 11
108.525
 21
-39.4505
  0
LINE
  8
0
 10
108.525
 20
-39.4505
 11
108.688
 21
-39.5766
  0
LINE
  8
0
 10
108.688
 20
-39.5766
 11
108.842
 21
-39.7126
  0
LINE
  8
0
 10
108.842
 20
-39.7126
 11
108.987
 21
-39.8581
  0
LINE
  8
0
 10
108.987
 20
-39.8581
 11
109.123
 21
-40.0124
  0
LINE
  8
0
 10
109.123
 20
-40.0124
 11
109.25
 21
-40.175
  0
LINE
  8
0
 10
109.25
 20
-40.175
 11
109.365
 21
-40.3452
  0
LINE
  8
0
 10
109.365
 20
-40.3452
 11
109.47
 21
-40.5222
  0
LINE
  8
0
 10
109.47
 20
-40.5222
 11
109.563
 21
-40.7056
  0
LINE
  8
0
 10
109.563
 20
-40.7056
 11
109.645
 21
-40.8944
  0
LINE
  8
0
 10
109.645
 20
-40.8944
 11
109.715
 21
-41.088
  0
LINE
  8
0
 10
109.715
 20
-41.088
 11
109.772
 21
-41.2855
  0
LINE
  8
0
 10
109.772
 20
-41.2855
 11
109.817
 21
-41.4863
  0
LINE
  8
0
 10
109.817
 20
-41.4863
 11
109.849
 21
-41.6895
  0
LINE
  8
0
 10
109.849
 20
-41.6895
 11
109.869
 21
-41.8943
  0
LINE
  8
0
 10
109.869
 20
-41.8943
 11
109.875
 21
-42.1
  0
LINE
  8
0
 10
109.875
 20
-42.1
 11
109.869
 21
-42.3056
  0
LINE
  8
0
 10
109.869
 20
-42.3056
 11
109.849
 21
-42.5105
  0
LINE
  8
0
 10
109.849
 20
-42.5105
 11
109.817
 21
-42.7137
  0
LINE
  8
0
 10
109.817
 20
-42.7137
 11
109.772
 21
-42.9145
  0
LINE
  8
0
 10
109.772
 20
-42.9145
 11
109.715
 21
-43.112
  0
LINE
  8
0
 10
109.715
 20
-43.112
 11
109.645
 21
-43.3056
  0
LINE
  8
0
 10
109.645
 20
-43.3056
 11
109.563
 21
-43.4944
  0
LINE
  8
0
 10
109.563
 20
-43.4944
 11
109.47
 21
-43.6777
  0
LINE
  8
0
 10
109.47
 20
-43.6777
 11
109.365
 21
-43.8548
  0
LINE
  8
0
 10
109.365
 20
-43.8548
 11
109.25
 21
-44.025
  0
LINE
  8
0
 10
109.25
 20
-44.025
 11
109.123
 21
-44.1876
  0
LINE
  8
0
 10
109.123
 20
-44.1876
 11
108.987
 21
-44.3419
  0
LINE
  8
0
 10
108.987
 20
-44.3419
 11
108.842
 21
-44.4874
  0
LINE
  8
0
 10
108.842
 20
-44.4874
 11
108.688
 21
-44.6234
  0
LINE
  8
0
 10
108.688
 20
-44.6234
 11
108.525
 21
-44.7495
  0
LINE
  8
0
 10
108.525
 20
-44.7495
 11
108.355
 21
-44.8652
  0
LINE
  8
0
 10
108.355
 20
-44.8652
 11
108.178
 21
-44.9699
  0
LINE
  8
0
 10
108.178
 20
-44.9699
 11
107.994
 21
-45.0633
  0
LINE
  8
0
 10
107.994
 20
-45.0633
 11
107.806
 21
-45.145
  0
LINE
  8
0
 10
107.806
 20
-45.145
 11
107.612
 21
-45.2147
  0
LINE
  8
0
 10
107.612
 20
-45.2147
 11
107.414
 21
-45.2721
  0
LINE
  8
0
 10
107.414
 20
-45.2721
 11
107.214
 21
-45.317
  0
LINE
  8
0
 10
107.214
 20
-45.317
 11
107.01
 21
-45.3492
  0
LINE
  8
0
 10
107.01
 20
-45.3492
 11
106.806
 21
-45.3685
  0
LINE
  8
0
 10
106.806
 20
-45.3685
 11
106.6
 21
-45.375
  0
LINE
  8
0
 10
106.6
 20
-45.375
 11
106.394
 21
-45.3685
  0
LINE
  8
0
 10
223.901
 20
-43.6203
 11
223.752
 21
-43.6063
  0
LINE
  8
0
 10
223.752
 20
-43.6063
 11
223.605
 21
-43.5829
  0
LINE
  8
0
 10
223.605
 20
-43.5829
 11
223.459
 21
-43.5504
  0
LINE
  8
0
 10
223.459
 20
-43.5504
 11
223.316
 21
-43.5088
  0
LINE
  8
0
 10
223.316
 20
-43.5088
 11
223.176
 21
-43.4582
  0
LINE
  8
0
 10
223.176
 20
-43.4582
 11
223.039
 21
-43.399
  0
LINE
  8
0
 10
223.039
 20
-43.399
 11
222.906
 21
-43.3312
  0
LINE
  8
0
 10
222.906
 20
-43.3312
 11
222.777
 21
-43.2553
  0
LINE
  8
0
 10
222.777
 20
-43.2553
 11
222.654
 21
-43.1714
  0
LINE
  8
0
 10
222.654
 20
-43.1714
 11
222.536
 21
-43.08
  0
LINE
  8
0
 10
222.536
 20
-43.08
 11
222.424
 21
-42.9813
  0
LINE
  8
0
 10
222.424
 20
-42.9813
 11
222.319
 21
-42.8758
  0
LINE
  8
0
 10
222.319
 20
-42.8758
 11
222.22
 21
-42.7639
  0
LINE
  8
0
 10
222.22
 20
-42.7639
 11
222.129
 21
-42.646
  0
LINE
  8
0
 10
222.129
 20
-42.646
 11
222.045
 21
-42.5226
  0
LINE
  8
0
 10
222.045
 20
-42.5226
 11
221.969
 21
-42.3941
  0
LINE
  8
0
 10
221.969
 20
-42.3941
 11
221.901
 21
-42.2612
  0
LINE
  8
0
 10
221.901
 20
-42.2612
 11
221.842
 21
-42.1243
  0
LINE
  8
0
 10
221.842
 20
-42.1243
 11
221.791
 21
-41.9839
  0
LINE
  8
0
 10
221.791
 20
-41.9839
 11
221.75
 21
-41.8406
  0
LINE
  8
0
 10
221.75
 20
-41.8406
 11
221.717
 21
-41.695
  0
LINE
  8
0
 10
221.717
 20
-41.695
 11
221.694
 21
-41.5477
  0
LINE
  8
0
 10
221.694
 20
-41.5477
 11
221.68
 21
-41.3991
  0
LINE
  8
0
 10
221.68
 20
-41.3991
 11
221.675
 21
-41.25
  0
LINE
  8
0
 10
221.675
 20
-41.25
 11
221.68
 21
-41.1009
  0
LINE
  8
0
 10
221.68
 20
-41.1009
 11
221.694
 21
-40.9523
  0
LINE
  8
0
 10
221.694
 20
-40.9523
 11
221.717
 21
-40.805
  0
LINE
  8
0
 10
221.717
 20
-40.805
 11
221.75
 21
-40.6593
  0
LINE
  8
0
 10
221.75
 20
-40.6593
 11
221.791
 21
-40.5161
  0
LINE
  8
0
 10
221.791
 20
-40.5161
 11
221.842
 21
-40.3757
  0
LINE
  8
0
 10
221.842
 20
-40.3757
 11
221.901
 21
-40.2388
  0
LINE
  8
0
 10
221.901
 20
-40.2388
 11
221.969
 21
-40.1058
  0
LINE
  8
0
 10
221.969
 20
-40.1058
 11
222.045
 21
-39.9774
  0
LINE
  8
0
 10
222.045
 20
-39.9774
 11
222.129
 21
-39.854
  0
LINE
  8
0
 10
222.129
 20
-39.854
 11
222.22
 21
-39.7361
  0
LINE
  8
0
 10
222.22
 20
-39.7361
 11
222.319
 21
-39.6242
  0
LINE
  8
0
 10
222.319
 20
-39.6242
 11
222.424
 21
-39.5187
  0
LINE
  8
0
 10
222.424
 20
-39.5187
 11
222.536
 21
-39.42
  0
LINE
  8
0
 10
222.536
 20
-39.42
 11
222.654
 21
-39.3286
  0
LINE
  8
0
 10
222.654
 20
-39.3286
 11
222.777
 21
-39.2447
  0
LINE
  8
0
 10
222.777
 20
-39.2447
 11
222.906
 21
-39.1688
  0
LINE
  8
0
 10
222.906
 20
-39.1688
 11
223.039
 21
-39.101
  0
LINE
  8
0
 10
223.039
 20
-39.101
 11
223.176
 21
-39.0418
  0
LINE
  8
0
 10
223.176
 20
-39.0418
 11
223.316
 21
-38.9912
  0
LINE
  8
0
 10
223.316
 20
-38.9912
 11
223.459
 21
-38.9496
  0
LINE
  8
0
 10
223.459
 20
-38.9496
 11
223.605
 21
-38.9171
  0
LINE
  8
0
 10
223.605
 20
-38.9171
 11
223.752
 21
-38.8937
  0
LINE
  8
0
 10
223.752
 20
-38.8937
 11
223.901
 21
-38.8797
  0
LINE
  8
0
 10
223.901
 20
-38.8797
 11
224.05
 21
-38.875
  0
LINE
  8
0
 10
224.05
 20
-38.875
 11
224.199
 21
-38.8797
  0
LINE
  8
0
 10
224.199
 20
-38.8797
 11
224.348
 21
-38.8937
  0
LINE
  8
0
 10
224.348
 20
-38.8937
 11
224.495
 21
-38.9171
  0
LINE
  8
0
 10
224.495
 20
-38.9171
 11
224.641
 21
-38.9496
  0
LINE
  8
0
 10
224.641
 20
-38.9496
 11
224.784
 21
-38.9912
  0
LINE
  8
0
 10
224.784
 20
-38.9912
 11
224.924
 21
-39.0418
  0
LINE
  8
0
 10
224.924
 20
-39.0418
 11
225.061
 21
-39.101
  0
LINE
  8
0
 10
225.061
 20
-39.101
 11
225.194
 21
-39.1688
  0
LINE
  8
0
 10
225.194
 20
-39.1688
 11
225.323
 21
-39.2447
  0
LINE
  8
0
 10
225.323
 20
-39.2447
 11
225.446
 21
-39.3286
  0
LINE
  8
0
 10
225.446
 20
-39.3286
 11
225.564
 21
-39.42
  0
LINE
  8
0
 10
225.564
 20
-39.42
 11
225.676
 21
-39.5187
  0
LINE
  8
0
 10
225.676
 20
-39.5187
 11
225.781
 21
-39.6242
  0
LINE
  8
0
 10
225.781
 20
-39.6242
 11
225.88
 21
-39.7361
  0
LINE
  8
0
 10
225.88
 20
-39.7361
 11
225.971
 21
-39.854
  0
LINE
  8
0
 10
225.971
 20
-39.854
 11
226.055
 21
-39.9774
  0
LINE
  8
0
 10
226.055
 20
-39.9774
 11
226.131
 21
-40.1058
  0
LINE
  8
0
 10
226.131
 20
-40.1058
 11
226.199
 21
-40.2388
  0
LINE
  8
0
 10
226.199
 20
-40.2388
 11
226.258
 21
-40.3757
  0
LINE
  8
0
 10
226.258
 20
-40.3757
 11
226.309
 21
-40.5161
  0
LINE
  8
0
 10
226.309
 20
-40.5161
 11
226.35
 21
-40.6593
  0
LINE
  8
0
 10
226.35
 20
-40.6593
 11
226.383
 21
-40.805
  0
LINE
  8
0
 10
226.383
 20
-40.805
 11
226.406
 21
-40.9523
  0
LINE
  8
0
 10
226.406
 20
-40.9523
 11
226.42
 21
-41.1009
  0
LINE
  8
0
 10
226.42
 20
-41.1009
 11
226.425
 21
-41.25
  0
LINE
  8
0
 10
226.425
 20
-41.25
 11
226.42
 21
-41.3991
  0
LINE
  8
0
 10
226.42
 20
-41.3991
 11
226.406
 21
-41.5477
  0
LINE
  8
0
 10
226.406
 20
-41.5477
 11
226.383
 21
-41.695
  0
LINE
  8
0
 10
226.383
 20
-41.695
 11
226.35
 21
-41.8406
  0
LINE
  8
0
 10
226.35
 20
-41.8406
 11
226.309
 21
-41.9839
  0
LINE
  8
0
 10
226.309
 20
-41.9839
 11
226.258
 21
-42.1243
  0
LINE
  8
0
 10
226.258
 20
-42.1243
 11
226.199
 21
-42.2612
  0
LINE
  8
0
 10
226.199
 20
-42.2612
 11
226.131
 21
-42.3941
  0
LINE
  8
0
 10
226.131
 20
-42.3941
 11
226.055
 21
-42.5226
  0
LINE
  8
0
 10
226.055
 20
-42.5226
 11
225.971
 21
-42.646
  0
LINE
  8
0
 10
225.971
 20
-42.646
 11
225.88
 21
-42.7639
  0
LINE
  8
0
 10
225.88
 20
-42.7639
 11
225.781
 21
-42.8758
  0
LINE
  8
0
 10
225.781
 20
-42.8758
 11
225.676
 21
-42.9813
  0
LINE
  8
0
 10
225.676
 20
-42.9813
 11
225.564
 21
-43.08
  0
LINE
  8
0
 10
225.564
 20
-43.08
 11
225.446
 21
-43.1714
  0
LINE
  8
0
 10
225.446
 20
-43.1714
 11
225.323
 21
-43.2553
  0
LINE
  8
0
 10
225.323
 20
-43.2553
 11
225.194
 21
-43.3312
  0
LINE
  8
0
 10
225.194
 20
-43.3312
 11
225.061
 21
-43.399
  0
LINE
  8
0
 10
225.061
 20
-43.399
 11
224.924
 21
-43.4582
  0
LINE
  8
0
 10
224.924
 20
-43.4582
 11
224.784
 21
-43.5088
  0
LINE
  8
0
 10
224.784
 20
-43.5088
 11
224.641
 21
-43.5504
  0
LINE
  8
0
 10
224.641
 20
-43.5504
 11
224.495
 21
-43.5829
  0
LINE
  8
0
 10
224.495
 20
-43.5829
 11
224.348
 21
-43.6063
  0
LINE
  8
0
 10
224.348
 20
-43.6063
 11
224.199
 21
-43.6203
  0
LINE
  8
0
 10
224.199
 20
-43.6203
 11
224.05
 21
-43.625
  0
LINE
  8
0
 10
224.05
 20
-43.625
 11
223.901
 21
-43.6203
  0
LINE
  8
0
 10
141.401
 20
-43.6203
 11
141.252
 21
-43.6063
  0
LINE
  8
0
 10
141.252
 20
-43.6063
 11
141.105
 21
-43.5829
  0
LINE
  8
0
 10
141.105
 20
-43.5829
 11
140.959
 21
-43.5504
  0
LINE
  8
0
 10
140.959
 20
-43.5504
 11
140.816
 21
-43.5088
  0
LINE
  8
0
 10
140.816
 20
-43.5088
 11
140.676
 21
-43.4582
  0
LINE
  8
0
 10
140.676
 20
-43.4582
 11
140.539
 21
-43.399
  0
LINE
  8
0
 10
140.539
 20
-43.399
 11
140.406
 21
-43.3312
  0
LINE
  8
0
 10
140.406
 20
-43.3312
 11
140.277
 21
-43.2553
  0
LINE
  8
0
 10
140.277
 20
-43.2553
 11
140.154
 21
-43.1714
  0
LINE
  8
0
 10
140.154
 20
-43.1714
 11
140.036
 21
-43.08
  0
LINE
  8
0
 10
140.036
 20
-43.08
 11
139.924
 21
-42.9813
  0
LINE
  8
0
 10
139.924
 20
-42.9813
 11
139.819
 21
-42.8758
  0
LINE
  8
0
 10
139.819
 20
-42.8758
 11
139.72
 21
-42.7639
  0
LINE
  8
0
 10
139.72
 20
-42.7639
 11
139.629
 21
-42.646
  0
LINE
  8
0
 10
139.629
 20
-42.646
 11
139.545
 21
-42.5226
  0
LINE
  8
0
 10
139.545
 20
-42.5226
 11
139.469
 21
-42.3941
  0
LINE
  8
0
 10
139.469
 20
-42.3941
 11
139.401
 21
-42.2612
  0
LINE
  8
0
 10
139.401
 20
-42.2612
 11
139.342
 21
-42.1243
  0
LINE
  8
0
 10
139.342
 20
-42.1243
 11
139.291
 21
-41.9839
  0
LINE
  8
0
 10
139.291
 20
-41.9839
 11
139.25
 21
-41.8406
  0
LINE
  8
0
 10
139.25
 20
-41.8406
 11
139.217
 21
-41.695
  0
LINE
  8
0
 10
139.217
 20
-41.695
 11
139.194
 21
-41.5477
  0
LINE
  8
0
 10
139.194
 20
-41.5477
 11
139.18
 21
-41.3991
  0
LINE
  8
0
 10
139.18
 20
-41.3991
 11
139.175
 21
-41.25
  0
LINE
  8
0
 10
139.175
 20
-41.25
 11
139.18
 21
-41.1009
  0
LINE
  8
0
 10
139.18
 20
-41.1009
 11
139.194
 21
-40.9523
  0
LINE
  8
0
 10
139.194
 20
-40.9523
 11
139.217
 21
-40.805
  0
LINE
  8
0
 10
139.217
 20
-40.805
 11
139.25
 21
-40.6593
  0
LINE
  8
0
 10
139.25
 20
-40.6593
 11
139.291
 21
-40.5161
  0
LINE
  8
0
 10
139.291
 20
-40.5161
 11
139.342
 21
-40.3757
  0
LINE
  8
0
 10
139.342
 20
-40.3757
 11
139.401
 21
-40.2388
  0
LINE
  8
0
 10
139.401
 20
-40.2388
 11
139.469
 21
-40.1058
  0
LINE
  8
0
 10
139.469
 20
-40.1058
 11
139.545
 21
-39.9774
  0
LINE
  8
0
 10
139.545
 20
-39.9774
 11
139.629
 21
-39.854
  0
LINE
  8
0
 10
139.629
 20
-39.854
 11
139.72
 21
-39.7361
  0
LINE
  8
0
 10
139.72
 20
-39.7361
 11
139.819
 21
-39.6242
  0
LINE
  8
0
 10
139.819
 20
-39.6242
 11
139.924
 21
-39.5187
  0
LINE
  8
0
 10
139.924
 20
-39.5187
 11
140.036
 21
-39.42
  0
LINE
  8
0
 10
140.036
 20
-39.42
 11
140.154
 21
-39.3286
  0
LINE
  8
0
 10
140.154
 20
-39.3286
 11
140.277
 21
-39.2447
  0
LINE
  8
0
 10
140.277
 20
-39.2447
 11
140.406
 21
-39.1688
  0
LINE
  8
0
 10
140.406
 20
-39.1688
 11
140.539
 21
-39.101
  0
LINE
  8
0
 10
140.539
 20
-39.101
 11
140.676
 21
-39.0418
  0
LINE
  8
0
 10
140.676
 20
-39.0418
 11
140.816
 21
-38.9912
  0
LINE
  8
0
 10
140.816
 20
-38.9912
 11
140.959
 21
-38.9496
  0
LINE
  8
0
 10
140.959
 20
-38.9496
 11
141.105
 21
-38.9171
  0
LINE
  8
0
 10
141.105
 20
-38.9171
 11
141.252
 21
-38.8937
  0
LINE
  8
0
 10
141.252
 20
-38.8937
 11
141.401
 21
-38.8797
  0
LINE
  8
0
 10
141.401
 20
-38.8797
 11
141.55
 21
-38.875
  0
LINE
  8
0
 10
141.55
 20
-38.875
 11
141.699
 21
-38.8797
  0
LINE
  8
0
 10
141.699
 20
-38.8797
 11
141.848
 21
-38.8937
  0
LINE
  8
0
 10
141.848
 20
-38.8937
 11
141.995
 21
-38.9171
  0
LINE
  8
0
 10
141.995
 20
-38.9171
 11
142.141
 21
-38.9496
  0
LINE
  8
0
 10
142.141
 20
-38.9496
 11
142.284
 21
-38.9912
  0
LINE
  8
0
 10
142.284
 20
-38.9912
 11
142.424
 21
-39.0418
  0
LINE
  8
0
 10
142.424
 20
-39.0418
 11
142.561
 21
-39.101
  0
LINE
  8
0
 10
142.561
 20
-39.101
 11
142.694
 21
-39.1688
  0
LINE
  8
0
 10
142.694
 20
-39.1688
 11
142.823
 21
-39.2447
  0
LINE
  8
0
 10
142.823
 20
-39.2447
 11
142.946
 21
-39.3286
  0
LINE
  8
0
 10
142.946
 20
-39.3286
 11
143.064
 21
-39.42
  0
LINE
  8
0
 10
143.064
 20
-39.42
 11
143.176
 21
-39.5187
  0
LINE
  8
0
 10
143.176
 20
-39.5187
 11
143.281
 21
-39.6242
  0
LINE
  8
0
 10
143.281
 20
-39.6242
 11
143.38
 21
-39.7361
  0
LINE
  8
0
 10
143.38
 20
-39.7361
 11
143.471
 21
-39.854
  0
LINE
  8
0
 10
143.471
 20
-39.854
 11
143.555
 21
-39.9774
  0
LINE
  8
0
 10
143.555
 20
-39.9774
 11
143.631
 21
-40.1058
  0
LINE
  8
0
 10
143.631
 20
-40.1058
 11
143.699
 21
-40.2388
  0
LINE
  8
0
 10
143.699
 20
-40.2388
 11
143.758
 21
-40.3757
  0
LINE
  8
0
 10
143.758
 20
-40.3757
 11
143.809
 21
-40.5161
  0
LINE
  8
0
 10
143.809
 20
-40.5161
 11
143.85
 21
-40.6593
  0
LINE
  8
0
 10
143.85
 20
-40.6593
 11
143.883
 21
-40.805
  0
LINE
  8
0
 10
143.883
 20
-40.805
 11
143.906
 21
-40.9523
  0
LINE
  8
0
 10
143.906
 20
-40.9523
 11
143.92
 21
-41.1009
  0
LINE
  8
0
 10
143.92
 20
-41.1009
 11
143.925
 21
-41.25
  0
LINE
  8
0
 10
143.925
 20
-41.25
 11
143.92
 21
-41.3991
  0
LINE
  8
0
 10
143.92
 20
-41.3991
 11
143.906
 21
-41.5477
  0
LINE
  8
0
 10
143.906
 20
-41.5477
 11
143.883
 21
-41.695
  0
LINE
  8
0
 10
143.883
 20
-41.695
 11
143.85
 21
-41.8406
  0
LINE
  8
0
 10
143.85
 20
-41.8406
 11
143.809
 21
-41.9839
  0
LINE
  8
0
 10
143.809
 20
-41.9839
 11
143.758
 21
-42.1243
  0
LINE
  8
0
 10
143.758
 20
-42.1243
 11
143.699
 21
-42.2612
  0
LINE
  8
0
 10
143.699
 20
-42.2612
 11
143.631
 21
-42.3941
  0
LINE
  8
0
 10
143.631
 20
-42.3941
 11
143.555
 21
-42.5226
  0
LINE
  8
0
 10
143.555
 20
-42.5226
 11
143.471
 21
-42.646
  0
LINE
  8
0
 10
143.471
 20
-42.646
 11
143.38
 21
-42.7639
  0
LINE
  8
0
 10
143.38
 20
-42.7639
 11
143.281
 21
-42.8758
  0
LINE
  8
0
 10
143.281
 20
-42.8758
 11
143.176
 21
-42.9813
  0
LINE
  8
0
 10
143.176
 20
-42.9813
 11
143.064
 21
-43.08
  0
LINE
  8
0
 10
143.064
 20
-43.08
 11
142.946
 21
-43.1714
  0
LINE
  8
0
 10
142.946
 20
-43.1714
 11
142.823
 21
-43.2553
  0
LINE
  8
0
 10
142.823
 20
-43.2553
 11
142.694
 21
-43.3312
  0
LINE
  8
0
 10
142.694
 20
-43.3312
 11
142.561
 21
-43.399
  0
LINE
  8
0
 10
142.561
 20
-43.399
 11
142.424
 21
-43.4582
  0
LINE
  8
0
 10
142.424
 20
-43.4582
 11
142.284
 21
-43.5088
  0
LINE
  8
0
 10
142.284
 20
-43.5088
 11
142.141
 21
-43.5504
  0
LINE
  8
0
 10
142.141
 20
-43.5504
 11
141.995
 21
-43.5829
  0
LINE
  8
0
 10
141.995
 20
-43.5829
 11
141.848
 21
-43.6063
  0
LINE
  8
0
 10
141.848
 20
-43.6063
 11
141.699
 21
-43.6203
  0
LINE
  8
0
 10
141.699
 20
-43.6203
 11
141.55
 21
-43.625
  0
LINE
  8
0
 10
141.55
 20
-43.625
 11
141.401
 21
-43.6203
  0
ENDSEC
  0
SECTION
  2
OBJECTS
  0
DICTIONARY
  0
ENDSEC
  0
EOF
