  0
SECTION
  2
BLOCKS
  0
ENDSEC
  0
SECTION
  2
ENTITIES
  0
LINE
  8
0
 10
-88.9
 20
67.5
 11
-88.9
 21
-67.5
  0
LINE
  8
0
 10
-88.9
 20
-67.5
 11
88.9
 21
-67.5
  0
LINE
  8
0
 10
88.9
 20
-67.5
 11
88.9
 21
67.5
  0
LINE
  8
0
 10
88.9
 20
67.5
 11
-88.9
 21
67.5
  0
LINE
  8
0
 10
-44.8782
 20
3.17499
 11
-44.6452
 21
5.63998
  0
LINE
  8
0
 10
-44.6452
 20
5.63998
 11
-44.2029
 21
8.43214
  0
LINE
  8
0
 10
-44.2029
 20
8.43214
 11
-43.5862
 21
11.191
  0
LINE
  8
0
 10
-43.5862
 20
11.191
 11
-42.7975
 21
13.9058
  0
LINE
  8
0
 10
-42.7975
 20
13.9058
 11
-41.8399
 21
16.5656
  0
LINE
  8
0
 10
-41.8399
 20
16.5656
 11
-40.7172
 21
19.1601
  0
LINE
  8
0
 10
-40.7172
 20
19.1601
 11
-39.4338
 21
21.6789
  0
LINE
  8
0
 10
-39.4338
 20
21.6789
 11
-37.9948
 21
24.1122
  0
LINE
  8
0
 10
-37.9948
 20
24.1122
 11
-36.4058
 21
26.4503
  0
LINE
  8
0
 10
-36.4058
 20
26.4503
 11
-34.6731
 21
28.6841
  0
LINE
  8
0
 10
-34.6731
 20
28.6841
 11
-32.8036
 21
30.8046
  0
LINE
  8
0
 10
-32.8036
 20
30.8046
 11
-30.8046
 21
32.8036
  0
LINE
  8
0
 10
-30.8046
 20
32.8036
 11
-28.6841
 21
34.6731
  0
LINE
  8
0
 10
-28.6841
 20
34.6731
 11
-26.4503
 21
36.4058
  0
LINE
  8
0
 10
-26.4503
 20
36.4058
 11
-24.1122
 21
37.9948
  0
LINE
  8
0
 10
-24.1122
 20
37.9948
 11
-21.6789
 21
39.4338
  0
LINE
  8
0
 10
-21.6789
 20
39.4338
 11
-19.1601
 21
40.7172
  0
LINE
  8
0
 10
-19.1601
 20
40.7172
 11
-16.5656
 21
41.8399
  0
LINE
  8
0
 10
-16.5656
 20
41.8399
 11
-13.9058
 21
42.7975
  0
LINE
  8
0
 10
-13.9058
 20
42.7975
 11
-11.191
 21
43.5862
  0
LINE
  8
0
 10
-11.191
 20
43.5862
 11
-8.43214
 21
44.2029
  0
LINE
  8
0
 10
-8.43214
 20
44.2029
 11
-5.63998
 21
44.6452
  0
LINE
  8
0
 10
-5.63998
 20
44.6452
 11
-3.17499
 21
44.8782
  0
LINE
  8
0
 10
-3.17499
 20
44.8782
 11
-3.17499
 21
3.17499
  0
LINE
  8
0
 10
-3.17499
 20
3.17499
 11
-44.8782
 21
3.17499
  0
LINE
  8
0
 10
3.17499
 20
3.17499
 11
3.17499
 21
44.8782
  0
LINE
  8
0
 10
3.17499
 20
44.8782
 11
5.63998
 21
44.6452
  0
LINE
  8
0
 10
5.63998
 20
44.6452
 11
8.43214
 21
44.2029
  0
LINE
  8
0
 10
8.43214
 20
44.2029
 11
11.191
 21
43.5862
  0
LINE
  8
0
 10
11.191
 20
43.5862
 11
13.9058
 21
42.7975
  0
LINE
  8
0
 10
13.9058
 20
42.7975
 11
16.5656
 21
41.8399
  0
LINE
  8
0
 10
16.5656
 20
41.8399
 11
19.1601
 21
40.7172
  0
LINE
  8
0
 10
19.1601
 20
40.7172
 11
21.6789
 21
39.4338
  0
LINE
  8
0
 10
21.6789
 20
39.4338
 11
24.1122
 21
37.9948
  0
LINE
  8
0
 10
24.1122
 20
37.9948
 11
26.4503
 21
36.4058
  0
LINE
  8
0
 10
26.4503
 20
36.4058
 11
28.6841
 21
34.6731
  0
LINE
  8
0
 10
28.6841
 20
34.6731
 11
30.8046
 21
32.8036
  0
LINE
  8
0
 10
30.8046
 20
32.8036
 11
32.8036
 21
30.8046
  0
LINE
  8
0
 10
32.8036
 20
30.8046
 11
34.6731
 21
28.6841
  0
LINE
  8
0
 10
34.6731
 20
28.6841
 11
36.4058
 21
26.4503
  0
LINE
  8
0
 10
36.4058
 20
26.4503
 11
37.9948
 21
24.1122
  0
LINE
  8
0
 10
37.9948
 20
24.1122
 11
39.4338
 21
21.6789
  0
LINE
  8
0
 10
39.4338
 20
21.6789
 11
40.7172
 21
19.1601
  0
LINE
  8
0
 10
40.7172
 20
19.1601
 11
41.8399
 21
16.5656
  0
LINE
  8
0
 10
41.8399
 20
16.5656
 11
42.7975
 21
13.9058
  0
LINE
  8
0
 10
42.7975
 20
13.9058
 11
43.5862
 21
11.191
  0
LINE
  8
0
 10
43.5862
 20
11.191
 11
44.2029
 21
8.43214
  0
LINE
  8
0
 10
44.2029
 20
8.43214
 11
44.6452
 21
5.63998
  0
LINE
  8
0
 10
44.6452
 20
5.63998
 11
44.8782
 21
3.17499
  0
LINE
  8
0
 10
44.8782
 20
3.17499
 11
3.17499
 21
3.17499
  0
LINE
  8
0
 10
41.1009
 20
38.8797
 11
40.9523
 21
38.8937
  0
LINE
  8
0
 10
40.9523
 20
38.8937
 11
40.805
 21
38.9171
  0
LINE
  8
0
 10
40.805
 20
38.9171
 11
40.6593
 21
38.9496
  0
LINE
  8
0
 10
40.6593
 20
38.9496
 11
40.5161
 21
38.9912
  0
LINE
  8
0
 10
40.5161
 20
38.9912
 11
40.3757
 21
39.0418
  0
LINE
  8
0
 10
40.3757
 20
39.0418
 11
40.2388
 21
39.101
  0
LINE
  8
0
 10
40.2388
 20
39.101
 11
40.1058
 21
39.1688
  0
LINE
  8
0
 10
40.1058
 20
39.1688
 11
39.9774
 21
39.2447
  0
LINE
  8
0
 10
39.9774
 20
39.2447
 11
39.854
 21
39.3286
  0
LINE
  8
0
 10
39.854
 20
39.3286
 11
39.7361
 21
39.42
  0
LINE
  8
0
 10
39.7361
 20
39.42
 11
39.6242
 21
39.5187
  0
LINE
  8
0
 10
39.6242
 20
39.5187
 11
39.5187
 21
39.6242
  0
LINE
  8
0
 10
39.5187
 20
39.6242
 11
39.42
 21
39.7361
  0
LINE
  8
0
 10
39.42
 20
39.7361
 11
39.3286
 21
39.854
  0
LINE
  8
0
 10
39.3286
 20
39.854
 11
39.2447
 21
39.9774
  0
LINE
  8
0
 10
39.2447
 20
39.9774
 11
39.1688
 21
40.1058
  0
LINE
  8
0
 10
39.1688
 20
40.1058
 11
39.101
 21
40.2388
  0
LINE
  8
0
 10
39.101
 20
40.2388
 11
39.0418
 21
40.3757
  0
LINE
  8
0
 10
39.0418
 20
40.3757
 11
38.9912
 21
40.5161
  0
LINE
  8
0
 10
38.9912
 20
40.5161
 11
38.9496
 21
40.6593
  0
LINE
  8
0
 10
38.9496
 20
40.6593
 11
38.9171
 21
40.805
  0
LINE
  8
0
 10
38.9171
 20
40.805
 11
38.8937
 21
40.9523
  0
LINE
  8
0
 10
38.8937
 20
40.9523
 11
38.8797
 21
41.1009
  0
LINE
  8
0
 10
38.8797
 20
41.1009
 11
38.875
 21
41.25
  0
LINE
  8
0
 10
38.875
 20
41.25
 11
38.8797
 21
41.3991
  0
LINE
  8
0
 10
38.8797
 20
41.3991
 11
38.8937
 21
41.5477
  0
LINE
  8
0
 10
38.8937
 20
41.5477
 11
38.9171
 21
41.695
  0
LINE
  8
0
 10
38.9171
 20
41.695
 11
38.9496
 21
41.8406
  0
LINE
  8
0
 10
38.9496
 20
41.8406
 11
38.9912
 21
41.9839
  0
LINE
  8
0
 10
38.9912
 20
41.9839
 11
39.0418
 21
42.1243
  0
LINE
  8
0
 10
39.0418
 20
42.1243
 11
39.101
 21
42.2612
  0
LINE
  8
0
 10
39.101
 20
42.2612
 11
39.1688
 21
42.3941
  0
LINE
  8
0
 10
39.1688
 20
42.3941
 11
39.2447
 21
42.5226
  0
LINE
  8
0
 10
39.2447
 20
42.5226
 11
39.3286
 21
42.646
  0
LINE
  8
0
 10
39.3286
 20
42.646
 11
39.42
 21
42.7639
  0
LINE
  8
0
 10
39.42
 20
42.7639
 11
39.5187
 21
42.8758
  0
LINE
  8
0
 10
39.5187
 20
42.8758
 11
39.6242
 21
42.9813
  0
LINE
  8
0
 10
39.6242
 20
42.9813
 11
39.7361
 21
43.08
  0
LINE
  8
0
 10
39.7361
 20
43.08
 11
39.854
 21
43.1714
  0
LINE
  8
0
 10
39.854
 20
43.1714
 11
39.9774
 21
43.2553
  0
LINE
  8
0
 10
39.9774
 20
43.2553
 11
40.1058
 21
43.3312
  0
LINE
  8
0
 10
40.1058
 20
43.3312
 11
40.2388
 21
43.399
  0
LINE
  8
0
 10
40.2388
 20
43.399
 11
40.3757
 21
43.4582
  0
LINE
  8
0
 10
40.3757
 20
43.4582
 11
40.5161
 21
43.5088
  0
LINE
  8
0
 10
40.5161
 20
43.5088
 11
40.6593
 21
43.5504
  0
LINE
  8
0
 10
40.6593
 20
43.5504
 11
40.805
 21
43.5829
  0
LINE
  8
0
 10
40.805
 20
43.5829
 11
40.9523
 21
43.6063
  0
LINE
  8
0
 10
40.9523
 20
43.6063
 11
41.1009
 21
43.6203
  0
LINE
  8
0
 10
41.1009
 20
43.6203
 11
41.25
 21
43.625
  0
LINE
  8
0
 10
41.25
 20
43.625
 11
41.3991
 21
43.6203
  0
LINE
  8
0
 10
41.3991
 20
43.6203
 11
41.5477
 21
43.6063
  0
LINE
  8
0
 10
41.5477
 20
43.6063
 11
41.695
 21
43.5829
  0
LINE
  8
0
 10
41.695
 20
43.5829
 11
41.8406
 21
43.5504
  0
LINE
  8
0
 10
41.8406
 20
43.5504
 11
41.9839
 21
43.5088
  0
LINE
  8
0
 10
41.9839
 20
43.5088
 11
42.1243
 21
43.4582
  0
LINE
  8
0
 10
42.1243
 20
43.4582
 11
42.2612
 21
43.399
  0
LINE
  8
0
 10
42.2612
 20
43.399
 11
42.3941
 21
43.3312
  0
LINE
  8
0
 10
42.3941
 20
43.3312
 11
42.5226
 21
43.2553
  0
LINE
  8
0
 10
42.5226
 20
43.2553
 11
42.646
 21
43.1714
  0
LINE
  8
0
 10
42.646
 20
43.1714
 11
42.7639
 21
43.08
  0
LINE
  8
0
 10
42.7639
 20
43.08
 11
42.8758
 21
42.9813
  0
LINE
  8
0
 10
42.8758
 20
42.9813
 11
42.9813
 21
42.8758
  0
LINE
  8
0
 10
42.9813
 20
42.8758
 11
43.08
 21
42.7639
  0
LINE
  8
0
 10
43.08
 20
42.7639
 11
43.1714
 21
42.646
  0
LINE
  8
0
 10
43.1714
 20
42.646
 11
43.2553
 21
42.5226
  0
LINE
  8
0
 10
43.2553
 20
42.5226
 11
43.3312
 21
42.3941
  0
LINE
  8
0
 10
43.3312
 20
42.3941
 11
43.399
 21
42.2612
  0
LINE
  8
0
 10
43.399
 20
42.2612
 11
43.4582
 21
42.1243
  0
LINE
  8
0
 10
43.4582
 20
42.1243
 11
43.5088
 21
41.9839
  0
LINE
  8
0
 10
43.5088
 20
41.9839
 11
43.5504
 21
41.8406
  0
LINE
  8
0
 10
43.5504
 20
41.8406
 11
43.5829
 21
41.695
  0
LINE
  8
0
 10
43.5829
 20
41.695
 11
43.6063
 21
41.5477
  0
LINE
  8
0
 10
43.6063
 20
41.5477
 11
43.6203
 21
41.3991
  0
LINE
  8
0
 10
43.6203
 20
41.3991
 11
43.625
 21
41.25
  0
LINE
  8
0
 10
43.625
 20
41.25
 11
43.6203
 21
41.1009
  0
LINE
  8
0
 10
43.6203
 20
41.1009
 11
43.6063
 21
40.9523
  0
LINE
  8
0
 10
43.6063
 20
40.9523
 11
43.5829
 21
40.805
  0
LINE
  8
0
 10
43.5829
 20
40.805
 11
43.5504
 21
40.6593
  0
LINE
  8
0
 10
43.5504
 20
40.6593
 11
43.5088
 21
40.5161
  0
LINE
  8
0
 10
43.5088
 20
40.5161
 11
43.4582
 21
40.3757
  0
LINE
  8
0
 10
43.4582
 20
40.3757
 11
43.399
 21
40.2388
  0
LINE
  8
0
 10
43.399
 20
40.2388
 11
43.3312
 21
40.1058
  0
LINE
  8
0
 10
43.3312
 20
40.1058
 11
43.2553
 21
39.9774
  0
LINE
  8
0
 10
43.2553
 20
39.9774
 11
43.1714
 21
39.854
  0
LINE
  8
0
 10
43.1714
 20
39.854
 11
43.08
 21
39.7361
  0
LINE
  8
0
 10
43.08
 20
39.7361
 11
42.9813
 21
39.6242
  0
LINE
  8
0
 10
42.9813
 20
39.6242
 11
42.8758
 21
39.5187
  0
LINE
  8
0
 10
42.8758
 20
39.5187
 11
42.7639
 21
39.42
  0
LINE
  8
0
 10
42.7639
 20
39.42
 11
42.646
 21
39.3286
  0
LINE
  8
0
 10
42.646
 20
39.3286
 11
42.5226
 21
39.2447
  0
LINE
  8
0
 10
42.5226
 20
39.2447
 11
42.3941
 21
39.1688
  0
LINE
  8
0
 10
42.3941
 20
39.1688
 11
42.2612
 21
39.101
  0
LINE
  8
0
 10
42.2612
 20
39.101
 11
42.1243
 21
39.0418
  0
LINE
  8
0
 10
42.1243
 20
39.0418
 11
41.9839
 21
38.9912
  0
LINE
  8
0
 10
41.9839
 20
38.9912
 11
41.8406
 21
38.9496
  0
LINE
  8
0
 10
41.8406
 20
38.9496
 11
41.695
 21
38.9171
  0
LINE
  8
0
 10
41.695
 20
38.9171
 11
41.5477
 21
38.8937
  0
LINE
  8
0
 10
41.5477
 20
38.8937
 11
41.3991
 21
38.8797
  0
LINE
  8
0
 10
41.3991
 20
38.8797
 11
41.25
 21
38.875
  0
LINE
  8
0
 10
41.25
 20
38.875
 11
41.1009
 21
38.8797
  0
LINE
  8
0
 10
-41.3991
 20
38.8797
 11
-41.5477
 21
38.8937
  0
LINE
  8
0
 10
-41.5477
 20
38.8937
 11
-41.695
 21
38.9171
  0
LINE
  8
0
 10
-41.695
 20
38.9171
 11
-41.8406
 21
38.9496
  0
LINE
  8
0
 10
-41.8406
 20
38.9496
 11
-41.9839
 21
38.9912
  0
LINE
  8
0
 10
-41.9839
 20
38.9912
 11
-42.1243
 21
39.0418
  0
LINE
  8
0
 10
-42.1243
 20
39.0418
 11
-42.2612
 21
39.101
  0
LINE
  8
0
 10
-42.2612
 20
39.101
 11
-42.3941
 21
39.1688
  0
LINE
  8
0
 10
-42.3941
 20
39.1688
 11
-42.5226
 21
39.2447
  0
LINE
  8
0
 10
-42.5226
 20
39.2447
 11
-42.646
 21
39.3286
  0
LINE
  8
0
 10
-42.646
 20
39.3286
 11
-42.7639
 21
39.42
  0
LINE
  8
0
 10
-42.7639
 20
39.42
 11
-42.8758
 21
39.5187
  0
LINE
  8
0
 10
-42.8758
 20
39.5187
 11
-42.9813
 21
39.6242
  0
LINE
  8
0
 10
-42.9813
 20
39.6242
 11
-43.08
 21
39.7361
  0
LINE
  8
0
 10
-43.08
 20
39.7361
 11
-43.1714
 21
39.854
  0
LINE
  8
0
 10
-43.1714
 20
39.854
 11
-43.2553
 21
39.9774
  0
LINE
  8
0
 10
-43.2553
 20
39.9774
 11
-43.3312
 21
40.1058
  0
LINE
  8
0
 10
-43.3312
 20
40.1058
 11
-43.399
 21
40.2388
  0
LINE
  8
0
 10
-43.399
 20
40.2388
 11
-43.4582
 21
40.3757
  0
LINE
  8
0
 10
-43.4582
 20
40.3757
 11
-43.5088
 21
40.5161
  0
LINE
  8
0
 10
-43.5088
 20
40.5161
 11
-43.5504
 21
40.6593
  0
LINE
  8
0
 10
-43.5504
 20
40.6593
 11
-43.5829
 21
40.805
  0
LINE
  8
0
 10
-43.5829
 20
40.805
 11
-43.6063
 21
40.9523
  0
LINE
  8
0
 10
-43.6063
 20
40.9523
 11
-43.6203
 21
41.1009
  0
LINE
  8
0
 10
-43.6203
 20
41.1009
 11
-43.625
 21
41.25
  0
LINE
  8
0
 10
-43.625
 20
41.25
 11
-43.6203
 21
41.3991
  0
LINE
  8
0
 10
-43.6203
 20
41.3991
 11
-43.6063
 21
41.5477
  0
LINE
  8
0
 10
-43.6063
 20
41.5477
 11
-43.5829
 21
41.695
  0
LINE
  8
0
 10
-43.5829
 20
41.695
 11
-43.5504
 21
41.8406
  0
LINE
  8
0
 10
-43.5504
 20
41.8406
 11
-43.5088
 21
41.9839
  0
LINE
  8
0
 10
-43.5088
 20
41.9839
 11
-43.4582
 21
42.1243
  0
LINE
  8
0
 10
-43.4582
 20
42.1243
 11
-43.399
 21
42.2612
  0
LINE
  8
0
 10
-43.399
 20
42.2612
 11
-43.3312
 21
42.3941
  0
LINE
  8
0
 10
-43.3312
 20
42.3941
 11
-43.2553
 21
42.5226
  0
LINE
  8
0
 10
-43.2553
 20
42.5226
 11
-43.1714
 21
42.646
  0
LINE
  8
0
 10
-43.1714
 20
42.646
 11
-43.08
 21
42.7639
  0
LINE
  8
0
 10
-43.08
 20
42.7639
 11
-42.9813
 21
42.8758
  0
LINE
  8
0
 10
-42.9813
 20
42.8758
 11
-42.8758
 21
42.9813
  0
LINE
  8
0
 10
-42.8758
 20
42.9813
 11
-42.7639
 21
43.08
  0
LINE
  8
0
 10
-42.7639
 20
43.08
 11
-42.646
 21
43.1714
  0
LINE
  8
0
 10
-42.646
 20
43.1714
 11
-42.5226
 21
43.2553
  0
LINE
  8
0
 10
-42.5226
 20
43.2553
 11
-42.3941
 21
43.3312
  0
LINE
  8
0
 10
-42.3941
 20
43.3312
 11
-42.2612
 21
43.399
  0
LINE
  8
0
 10
-42.2612
 20
43.399
 11
-42.1243
 21
43.4582
  0
LINE
  8
0
 10
-42.1243
 20
43.4582
 11
-41.9839
 21
43.5088
  0
LINE
  8
0
 10
-41.9839
 20
43.5088
 11
-41.8406
 21
43.5504
  0
LINE
  8
0
 10
-41.8406
 20
43.5504
 11
-41.695
 21
43.5829
  0
LINE
  8
0
 10
-41.695
 20
43.5829
 11
-41.5477
 21
43.6063
  0
LINE
  8
0
 10
-41.5477
 20
43.6063
 11
-41.3991
 21
43.6203
  0
LINE
  8
0
 10
-41.3991
 20
43.6203
 11
-41.25
 21
43.625
  0
LINE
  8
0
 10
-41.25
 20
43.625
 11
-41.1009
 21
43.6203
  0
LINE
  8
0
 10
-41.1009
 20
43.6203
 11
-40.9523
 21
43.6063
  0
LINE
  8
0
 10
-40.9523
 20
43.6063
 11
-40.805
 21
43.5829
  0
LINE
  8
0
 10
-40.805
 20
43.5829
 11
-40.6593
 21
43.5504
  0
LINE
  8
0
 10
-40.6593
 20
43.5504
 11
-40.5161
 21
43.5088
  0
LINE
  8
0
 10
-40.5161
 20
43.5088
 11
-40.3757
 21
43.4582
  0
LINE
  8
0
 10
-40.3757
 20
43.4582
 11
-40.2388
 21
43.399
  0
LINE
  8
0
 10
-40.2388
 20
43.399
 11
-40.1058
 21
43.3312
  0
LINE
  8
0
 10
-40.1058
 20
43.3312
 11
-39.9774
 21
43.2553
  0
LINE
  8
0
 10
-39.9774
 20
43.2553
 11
-39.854
 21
43.1714
  0
LINE
  8
0
 10
-39.854
 20
43.1714
 11
-39.7361
 21
43.08
  0
LINE
  8
0
 10
-39.7361
 20
43.08
 11
-39.6242
 21
42.9813
  0
LINE
  8
0
 10
-39.6242
 20
42.9813
 11
-39.5187
 21
42.8758
  0
LINE
  8
0
 10
-39.5187
 20
42.8758
 11
-39.42
 21
42.7639
  0
LINE
  8
0
 10
-39.42
 20
42.7639
 11
-39.3286
 21
42.646
  0
LINE
  8
0
 10
-39.3286
 20
42.646
 11
-39.2447
 21
42.5226
  0
LINE
  8
0
 10
-39.2447
 20
42.5226
 11
-39.1688
 21
42.3941
  0
LINE
  8
0
 10
-39.1688
 20
42.3941
 11
-39.101
 21
42.2612
  0
LINE
  8
0
 10
-39.101
 20
42.2612
 11
-39.0418
 21
42.1243
  0
LINE
  8
0
 10
-39.0418
 20
42.1243
 11
-38.9912
 21
41.9839
  0
LINE
  8
0
 10
-38.9912
 20
41.9839
 11
-38.9496
 21
41.8406
  0
LINE
  8
0
 10
-38.9496
 20
41.8406
 11
-38.9171
 21
41.695
  0
LINE
  8
0
 10
-38.9171
 20
41.695
 11
-38.8937
 21
41.5477
  0
LINE
  8
0
 10
-38.8937
 20
41.5477
 11
-38.8797
 21
41.3991
  0
LINE
  8
0
 10
-38.8797
 20
41.3991
 11
-38.875
 21
41.25
  0
LINE
  8
0
 10
-38.875
 20
41.25
 11
-38.8797
 21
41.1009
  0
LINE
  8
0
 10
-38.8797
 20
41.1009
 11
-38.8937
 21
40.9523
  0
LINE
  8
0
 10
-38.8937
 20
40.9523
 11
-38.9171
 21
40.805
  0
LINE
  8
0
 10
-38.9171
 20
40.805
 11
-38.9496
 21
40.6593
  0
LINE
  8
0
 10
-38.9496
 20
40.6593
 11
-38.9912
 21
40.5161
  0
LINE
  8
0
 10
-38.9912
 20
40.5161
 11
-39.0418
 21
40.3757
  0
LINE
  8
0
 10
-39.0418
 20
40.3757
 11
-39.101
 21
40.2388
  0
LINE
  8
0
 10
-39.101
 20
40.2388
 11
-39.1688
 21
40.1058
  0
LINE
  8
0
 10
-39.1688
 20
40.1058
 11
-39.2447
 21
39.9774
  0
LINE
  8
0
 10
-39.2447
 20
39.9774
 11
-39.3286
 21
39.854
  0
LINE
  8
0
 10
-39.3286
 20
39.854
 11
-39.42
 21
39.7361
  0
LINE
  8
0
 10
-39.42
 20
39.7361
 11
-39.5187
 21
39.6242
  0
LINE
  8
0
 10
-39.5187
 20
39.6242
 11
-39.6242
 21
39.5187
  0
LINE
  8
0
 10
-39.6242
 20
39.5187
 11
-39.7361
 21
39.42
  0
LINE
  8
0
 10
-39.7361
 20
39.42
 11
-39.854
 21
39.3286
  0
LINE
  8
0
 10
-39.854
 20
39.3286
 11
-39.9774
 21
39.2447
  0
LINE
  8
0
 10
-39.9774
 20
39.2447
 11
-40.1058
 21
39.1688
  0
LINE
  8
0
 10
-40.1058
 20
39.1688
 11
-40.2388
 21
39.101
  0
LINE
  8
0
 10
-40.2388
 20
39.101
 11
-40.3757
 21
39.0418
  0
LINE
  8
0
 10
-40.3757
 20
39.0418
 11
-40.5161
 21
38.9912
  0
LINE
  8
0
 10
-40.5161
 20
38.9912
 11
-40.6593
 21
38.9496
  0
LINE
  8
0
 10
-40.6593
 20
38.9496
 11
-40.805
 21
38.9171
  0
LINE
  8
0
 10
-40.805
 20
38.9171
 11
-40.9523
 21
38.8937
  0
LINE
  8
0
 10
-40.9523
 20
38.8937
 11
-41.1009
 21
38.8797
  0
LINE
  8
0
 10
-41.1009
 20
38.8797
 11
-41.25
 21
38.875
  0
LINE
  8
0
 10
-41.25
 20
38.875
 11
-41.3991
 21
38.8797
  0
LINE
  8
0
 10
-5.63998
 20
-44.6452
 11
-8.43214
 21
-44.2029
  0
LINE
  8
0
 10
-8.43214
 20
-44.2029
 11
-11.191
 21
-43.5862
  0
LINE
  8
0
 10
-11.191
 20
-43.5862
 11
-13.9058
 21
-42.7975
  0
LINE
  8
0
 10
-13.9058
 20
-42.7975
 11
-16.5656
 21
-41.8399
  0
LINE
  8
0
 10
-16.5656
 20
-41.8399
 11
-19.1601
 21
-40.7172
  0
LINE
  8
0
 10
-19.1601
 20
-40.7172
 11
-21.6789
 21
-39.4338
  0
LINE
  8
0
 10
-21.6789
 20
-39.4338
 11
-24.1122
 21
-37.9948
  0
LINE
  8
0
 10
-24.1122
 20
-37.9948
 11
-26.4503
 21
-36.4058
  0
LINE
  8
0
 10
-26.4503
 20
-36.4058
 11
-28.6841
 21
-34.6731
  0
LINE
  8
0
 10
-28.6841
 20
-34.6731
 11
-30.8046
 21
-32.8036
  0
LINE
  8
0
 10
-30.8046
 20
-32.8036
 11
-32.8036
 21
-30.8046
  0
LINE
  8
0
 10
-32.8036
 20
-30.8046
 11
-34.6731
 21
-28.6841
  0
LINE
  8
0
 10
-34.6731
 20
-28.6841
 11
-36.4058
 21
-26.4503
  0
LINE
  8
0
 10
-36.4058
 20
-26.4503
 11
-37.9948
 21
-24.1122
  0
LINE
  8
0
 10
-37.9948
 20
-24.1122
 11
-39.4338
 21
-21.6789
  0
LINE
  8
0
 10
-39.4338
 20
-21.6789
 11
-40.7172
 21
-19.1601
  0
LINE
  8
0
 10
-40.7172
 20
-19.1601
 11
-41.8399
 21
-16.5656
  0
LINE
  8
0
 10
-41.8399
 20
-16.5656
 11
-42.7975
 21
-13.9058
  0
LINE
  8
0
 10
-42.7975
 20
-13.9058
 11
-43.5862
 21
-11.191
  0
LINE
  8
0
 10
-43.5862
 20
-11.191
 11
-44.2029
 21
-8.43214
  0
LINE
  8
0
 10
-44.2029
 20
-8.43214
 11
-44.6452
 21
-5.63998
  0
LINE
  8
0
 10
-44.6452
 20
-5.63998
 11
-44.8782
 21
-3.17499
  0
LINE
  8
0
 10
-44.8782
 20
-3.17499
 11
-3.17499
 21
-3.17499
  0
LINE
  8
0
 10
-3.17499
 20
-3.17499
 11
-3.17499
 21
-44.8782
  0
LINE
  8
0
 10
-3.17499
 20
-44.8782
 11
-5.63998
 21
-44.6452
  0
LINE
  8
0
 10
3.17499
 20
-3.17499
 11
44.8782
 21
-3.17499
  0
LINE
  8
0
 10
44.8782
 20
-3.17499
 11
44.6452
 21
-5.63998
  0
LINE
  8
0
 10
44.6452
 20
-5.63998
 11
44.2029
 21
-8.43214
  0
LINE
  8
0
 10
44.2029
 20
-8.43214
 11
43.5862
 21
-11.191
  0
LINE
  8
0
 10
43.5862
 20
-11.191
 11
42.7975
 21
-13.9058
  0
LINE
  8
0
 10
42.7975
 20
-13.9058
 11
41.8399
 21
-16.5656
  0
LINE
  8
0
 10
41.8399
 20
-16.5656
 11
40.7172
 21
-19.1601
  0
LINE
  8
0
 10
40.7172
 20
-19.1601
 11
39.4338
 21
-21.6789
  0
LINE
  8
0
 10
39.4338
 20
-21.6789
 11
37.9948
 21
-24.1122
  0
LINE
  8
0
 10
37.9948
 20
-24.1122
 11
36.4058
 21
-26.4503
  0
LINE
  8
0
 10
36.4058
 20
-26.4503
 11
34.6731
 21
-28.6841
  0
LINE
  8
0
 10
34.6731
 20
-28.6841
 11
32.8036
 21
-30.8046
  0
LINE
  8
0
 10
32.8036
 20
-30.8046
 11
30.8046
 21
-32.8036
  0
LINE
  8
0
 10
30.8046
 20
-32.8036
 11
28.6841
 21
-34.6731
  0
LINE
  8
0
 10
28.6841
 20
-34.6731
 11
26.4503
 21
-36.4058
  0
LINE
  8
0
 10
26.4503
 20
-36.4058
 11
24.1122
 21
-37.9948
  0
LINE
  8
0
 10
24.1122
 20
-37.9948
 11
21.6789
 21
-39.4338
  0
LINE
  8
0
 10
21.6789
 20
-39.4338
 11
19.1601
 21
-40.7172
  0
LINE
  8
0
 10
19.1601
 20
-40.7172
 11
16.5656
 21
-41.8399
  0
LINE
  8
0
 10
16.5656
 20
-41.8399
 11
13.9058
 21
-42.7975
  0
LINE
  8
0
 10
13.9058
 20
-42.7975
 11
11.191
 21
-43.5862
  0
LINE
  8
0
 10
11.191
 20
-43.5862
 11
8.43214
 21
-44.2029
  0
LINE
  8
0
 10
8.43214
 20
-44.2029
 11
5.63998
 21
-44.6452
  0
LINE
  8
0
 10
5.63998
 20
-44.6452
 11
3.17499
 21
-44.8782
  0
LINE
  8
0
 10
3.17499
 20
-44.8782
 11
3.17499
 21
-3.17499
  0
LINE
  8
0
 10
-76.4056
 20
-19.9685
 11
-76.6105
 21
-19.9492
  0
LINE
  8
0
 10
-76.6105
 20
-19.9492
 11
-76.8137
 21
-19.917
  0
LINE
  8
0
 10
-76.8137
 20
-19.917
 11
-77.0145
 21
-19.8721
  0
LINE
  8
0
 10
-77.0145
 20
-19.8721
 11
-77.212
 21
-19.8147
  0
LINE
  8
0
 10
-77.212
 20
-19.8147
 11
-77.4056
 21
-19.745
  0
LINE
  8
0
 10
-77.4056
 20
-19.745
 11
-77.5944
 21
-19.6633
  0
LINE
  8
0
 10
-77.5944
 20
-19.6633
 11
-77.7777
 21
-19.5699
  0
LINE
  8
0
 10
-77.7777
 20
-19.5699
 11
-77.9548
 21
-19.4652
  0
LINE
  8
0
 10
-77.9548
 20
-19.4652
 11
-78.125
 21
-19.3495
  0
LINE
  8
0
 10
-78.125
 20
-19.3495
 11
-78.2876
 21
-19.2234
  0
LINE
  8
0
 10
-78.2876
 20
-19.2234
 11
-78.4419
 21
-19.0874
  0
LINE
  8
0
 10
-78.4419
 20
-19.0874
 11
-78.5874
 21
-18.9419
  0
LINE
  8
0
 10
-78.5874
 20
-18.9419
 11
-78.7234
 21
-18.7876
  0
LINE
  8
0
 10
-78.7234
 20
-18.7876
 11
-78.8495
 21
-18.625
  0
LINE
  8
0
 10
-78.8495
 20
-18.625
 11
-78.9652
 21
-18.4548
  0
LINE
  8
0
 10
-78.9652
 20
-18.4548
 11
-79.0699
 21
-18.2777
  0
LINE
  8
0
 10
-79.0699
 20
-18.2777
 11
-79.1633
 21
-18.0944
  0
LINE
  8
0
 10
-79.1633
 20
-18.0944
 11
-79.245
 21
-17.9056
  0
LINE
  8
0
 10
-79.245
 20
-17.9056
 11
-79.3147
 21
-17.712
  0
LINE
  8
0
 10
-79.3147
 20
-17.712
 11
-79.3721
 21
-17.5145
  0
LINE
  8
0
 10
-79.3721
 20
-17.5145
 11
-79.417
 21
-17.3137
  0
LINE
  8
0
 10
-79.417
 20
-17.3137
 11
-79.4492
 21
-17.1105
  0
LINE
  8
0
 10
-79.4492
 20
-17.1105
 11
-79.4685
 21
-16.9056
  0
LINE
  8
0
 10
-79.4685
 20
-16.9056
 11
-79.475
 21
-16.7
  0
LINE
  8
0
 10
-79.475
 20
-16.7
 11
-79.4685
 21
-16.4944
  0
LINE
  8
0
 10
-79.4685
 20
-16.4944
 11
-79.4492
 21
-16.2895
  0
LINE
  8
0
 10
-79.4492
 20
-16.2895
 11
-79.417
 21
-16.0863
  0
LINE
  8
0
 10
-79.417
 20
-16.0863
 11
-79.3721
 21
-15.8855
  0
LINE
  8
0
 10
-79.3721
 20
-15.8855
 11
-79.3147
 21
-15.688
  0
LINE
  8
0
 10
-79.3147
 20
-15.688
 11
-79.245
 21
-15.4944
  0
LINE
  8
0
 10
-79.245
 20
-15.4944
 11
-79.1633
 21
-15.3056
  0
LINE
  8
0
 10
-79.1633
 20
-15.3056
 11
-79.0699
 21
-15.1223
  0
LINE
  8
0
 10
-79.0699
 20
-15.1223
 11
-78.9652
 21
-14.9452
  0
LINE
  8
0
 10
-78.9652
 20
-14.9452
 11
-78.8495
 21
-14.775
  0
LINE
  8
0
 10
-78.8495
 20
-14.775
 11
-78.7234
 21
-14.6124
  0
LINE
  8
0
 10
-78.7234
 20
-14.6124
 11
-78.5874
 21
-14.4581
  0
LINE
  8
0
 10
-78.5874
 20
-14.4581
 11
-78.4419
 21
-14.3126
  0
LINE
  8
0
 10
-78.4419
 20
-14.3126
 11
-78.2876
 21
-14.1766
  0
LINE
  8
0
 10
-78.2876
 20
-14.1766
 11
-78.125
 21
-14.0505
  0
LINE
  8
0
 10
-78.125
 20
-14.0505
 11
-77.9548
 21
-13.9348
  0
LINE
  8
0
 10
-77.9548
 20
-13.9348
 11
-77.7777
 21
-13.8301
  0
LINE
  8
0
 10
-77.7777
 20
-13.8301
 11
-77.5944
 21
-13.7367
  0
LINE
  8
0
 10
-77.5944
 20
-13.7367
 11
-77.4056
 21
-13.655
  0
LINE
  8
0
 10
-77.4056
 20
-13.655
 11
-77.212
 21
-13.5853
  0
LINE
  8
0
 10
-77.212
 20
-13.5853
 11
-77.0145
 21
-13.5279
  0
LINE
  8
0
 10
-77.0145
 20
-13.5279
 11
-76.8137
 21
-13.483
  0
LINE
  8
0
 10
-76.8137
 20
-13.483
 11
-76.6105
 21
-13.4508
  0
LINE
  8
0
 10
-76.6105
 20
-13.4508
 11
-76.4056
 21
-13.4315
  0
LINE
  8
0
 10
-76.4056
 20
-13.4315
 11
-76.2
 21
-13.425
  0
LINE
  8
0
 10
-76.2
 20
-13.425
 11
-75.9944
 21
-13.4315
  0
LINE
  8
0
 10
-75.9944
 20
-13.4315
 11
-75.7895
 21
-13.4508
  0
LINE
  8
0
 10
-75.7895
 20
-13.4508
 11
-75.5863
 21
-13.483
  0
LINE
  8
0
 10
-75.5863
 20
-13.483
 11
-75.3855
 21
-13.5279
  0
LINE
  8
0
 10
-75.3855
 20
-13.5279
 11
-75.188
 21
-13.5853
  0
LINE
  8
0
 10
-75.188
 20
-13.5853
 11
-74.9944
 21
-13.655
  0
LINE
  8
0
 10
-74.9944
 20
-13.655
 11
-74.8056
 21
-13.7367
  0
LINE
  8
0
 10
-74.8056
 20
-13.7367
 11
-74.6223
 21
-13.8301
  0
LINE
  8
0
 10
-74.6223
 20
-13.8301
 11
-74.4452
 21
-13.9348
  0
LINE
  8
0
 10
-74.4452
 20
-13.9348
 11
-74.275
 21
-14.0505
  0
LINE
  8
0
 10
-74.275
 20
-14.0505
 11
-74.1124
 21
-14.1766
  0
LINE
  8
0
 10
-74.1124
 20
-14.1766
 11
-73.9581
 21
-14.3126
  0
LINE
  8
0
 10
-73.9581
 20
-14.3126
 11
-73.8126
 21
-14.4581
  0
LINE
  8
0
 10
-73.8126
 20
-14.4581
 11
-73.6766
 21
-14.6124
  0
LINE
  8
0
 10
-73.6766
 20
-14.6124
 11
-73.5505
 21
-14.775
  0
LINE
  8
0
 10
-73.5505
 20
-14.775
 11
-73.4348
 21
-14.9452
  0
LINE
  8
0
 10
-73.4348
 20
-14.9452
 11
-73.3301
 21
-15.1223
  0
LINE
  8
0
 10
-73.3301
 20
-15.1223
 11
-73.2367
 21
-15.3056
  0
LINE
  8
0
 10
-73.2367
 20
-15.3056
 11
-73.155
 21
-15.4944
  0
LINE
  8
0
 10
-73.155
 20
-15.4944
 11
-73.0853
 21
-15.688
  0
LINE
  8
0
 10
-73.0853
 20
-15.688
 11
-73.0279
 21
-15.8855
  0
LINE
  8
0
 10
-73.0279
 20
-15.8855
 11
-72.983
 21
-16.0863
  0
LINE
  8
0
 10
-72.983
 20
-16.0863
 11
-72.9508
 21
-16.2895
  0
LINE
  8
0
 10
-72.9508
 20
-16.2895
 11
-72.9315
 21
-16.4944
  0
LINE
  8
0
 10
-72.9315
 20
-16.4944
 11
-72.925
 21
-16.7
  0
LINE
  8
0
 10
-72.925
 20
-16.7
 11
-72.9315
 21
-16.9056
  0
LINE
  8
0
 10
-72.9315
 20
-16.9056
 11
-72.9508
 21
-17.1105
  0
LINE
  8
0
 10
-72.9508
 20
-17.1105
 11
-72.983
 21
-17.3137
  0
LINE
  8
0
 10
-72.983
 20
-17.3137
 11
-73.0279
 21
-17.5145
  0
LINE
  8
0
 10
-73.0279
 20
-17.5145
 11
-73.0853
 21
-17.712
  0
LINE
  8
0
 10
-73.0853
 20
-17.712
 11
-73.155
 21
-17.9056
  0
LINE
  8
0
 10
-73.155
 20
-17.9056
 11
-73.2367
 21
-18.0944
  0
LINE
  8
0
 10
-73.2367
 20
-18.0944
 11
-73.3301
 21
-18.2777
  0
LINE
  8
0
 10
-73.3301
 20
-18.2777
 11
-73.4348
 21
-18.4548
  0
LINE
  8
0
 10
-73.4348
 20
-18.4548
 11
-73.5505
 21
-18.625
  0
LINE
  8
0
 10
-73.5505
 20
-18.625
 11
-73.6766
 21
-18.7876
  0
LINE
  8
0
 10
-73.6766
 20
-18.7876
 11
-73.8126
 21
-18.9419
  0
LINE
  8
0
 10
-73.8126
 20
-18.9419
 11
-73.9581
 21
-19.0874
  0
LINE
  8
0
 10
-73.9581
 20
-19.0874
 11
-74.1124
 21
-19.2234
  0
LINE
  8
0
 10
-74.1124
 20
-19.2234
 11
-74.275
 21
-19.3495
  0
LINE
  8
0
 10
-74.275
 20
-19.3495
 11
-74.4452
 21
-19.4652
  0
LINE
  8
0
 10
-74.4452
 20
-19.4652
 11
-74.6223
 21
-19.5699
  0
LINE
  8
0
 10
-74.6223
 20
-19.5699
 11
-74.8056
 21
-19.6633
  0
LINE
  8
0
 10
-74.8056
 20
-19.6633
 11
-74.9944
 21
-19.745
  0
LINE
  8
0
 10
-74.9944
 20
-19.745
 11
-75.188
 21
-19.8147
  0
LINE
  8
0
 10
-75.188
 20
-19.8147
 11
-75.3855
 21
-19.8721
  0
LINE
  8
0
 10
-75.3855
 20
-19.8721
 11
-75.5863
 21
-19.917
  0
LINE
  8
0
 10
-75.5863
 20
-19.917
 11
-75.7895
 21
-19.9492
  0
LINE
  8
0
 10
-75.7895
 20
-19.9492
 11
-75.9944
 21
-19.9685
  0
LINE
  8
0
 10
-75.9944
 20
-19.9685
 11
-76.2
 21
-19.975
  0
LINE
  8
0
 10
-76.2
 20
-19.975
 11
-76.4056
 21
-19.9685
  0
LINE
  8
0
 10
75.9944
 20
-19.9685
 11
75.7895
 21
-19.9492
  0
LINE
  8
0
 10
75.7895
 20
-19.9492
 11
75.5863
 21
-19.917
  0
LINE
  8
0
 10
75.5863
 20
-19.917
 11
75.3855
 21
-19.8721
  0
LINE
  8
0
 10
75.3855
 20
-19.8721
 11
75.188
 21
-19.8147
  0
LINE
  8
0
 10
75.188
 20
-19.8147
 11
74.9944
 21
-19.745
  0
LINE
  8
0
 10
74.9944
 20
-19.745
 11
74.8056
 21
-19.6633
  0
LINE
  8
0
 10
74.8056
 20
-19.6633
 11
74.6223
 21
-19.5699
  0
LINE
  8
0
 10
74.6223
 20
-19.5699
 11
74.4452
 21
-19.4652
  0
LINE
  8
0
 10
74.4452
 20
-19.4652
 11
74.275
 21
-19.3495
  0
LINE
  8
0
 10
74.275
 20
-19.3495
 11
74.1124
 21
-19.2234
  0
LINE
  8
0
 10
74.1124
 20
-19.2234
 11
73.9581
 21
-19.0874
  0
LINE
  8
0
 10
73.9581
 20
-19.0874
 11
73.8126
 21
-18.9419
  0
LINE
  8
0
 10
73.8126
 20
-18.9419
 11
73.6766
 21
-18.7876
  0
LINE
  8
0
 10
73.6766
 20
-18.7876
 11
73.5505
 21
-18.625
  0
LINE
  8
0
 10
73.5505
 20
-18.625
 11
73.4348
 21
-18.4548
  0
LINE
  8
0
 10
73.4348
 20
-18.4548
 11
73.3301
 21
-18.2777
  0
LINE
  8
0
 10
73.3301
 20
-18.2777
 11
73.2367
 21
-18.0944
  0
LINE
  8
0
 10
73.2367
 20
-18.0944
 11
73.155
 21
-17.9056
  0
LINE
  8
0
 10
73.155
 20
-17.9056
 11
73.0853
 21
-17.712
  0
LINE
  8
0
 10
73.0853
 20
-17.712
 11
73.0279
 21
-17.5145
  0
LINE
  8
0
 10
73.0279
 20
-17.5145
 11
72.983
 21
-17.3137
  0
LINE
  8
0
 10
72.983
 20
-17.3137
 11
72.9508
 21
-17.1105
  0
LINE
  8
0
 10
72.9508
 20
-17.1105
 11
72.9315
 21
-16.9056
  0
LINE
  8
0
 10
72.9315
 20
-16.9056
 11
72.925
 21
-16.7
  0
LINE
  8
0
 10
72.925
 20
-16.7
 11
72.9315
 21
-16.4944
  0
LINE
  8
0
 10
72.9315
 20
-16.4944
 11
72.9508
 21
-16.2895
  0
LINE
  8
0
 10
72.9508
 20
-16.2895
 11
72.983
 21
-16.0863
  0
LINE
  8
0
 10
72.983
 20
-16.0863
 11
73.0279
 21
-15.8855
  0
LINE
  8
0
 10
73.0279
 20
-15.8855
 11
73.0853
 21
-15.688
  0
LINE
  8
0
 10
73.0853
 20
-15.688
 11
73.155
 21
-15.4944
  0
LINE
  8
0
 10
73.155
 20
-15.4944
 11
73.2367
 21
-15.3056
  0
LINE
  8
0
 10
73.2367
 20
-15.3056
 11
73.3301
 21
-15.1223
  0
LINE
  8
0
 10
73.3301
 20
-15.1223
 11
73.4348
 21
-14.9452
  0
LINE
  8
0
 10
73.4348
 20
-14.9452
 11
73.5505
 21
-14.775
  0
LINE
  8
0
 10
73.5505
 20
-14.775
 11
73.6766
 21
-14.6124
  0
LINE
  8
0
 10
73.6766
 20
-14.6124
 11
73.8126
 21
-14.4581
  0
LINE
  8
0
 10
73.8126
 20
-14.4581
 11
73.9581
 21
-14.3126
  0
LINE
  8
0
 10
73.9581
 20
-14.3126
 11
74.1124
 21
-14.1766
  0
LINE
  8
0
 10
74.1124
 20
-14.1766
 11
74.275
 21
-14.0505
  0
LINE
  8
0
 10
74.275
 20
-14.0505
 11
74.4452
 21
-13.9348
  0
LINE
  8
0
 10
74.4452
 20
-13.9348
 11
74.6223
 21
-13.8301
  0
LINE
  8
0
 10
74.6223
 20
-13.8301
 11
74.8056
 21
-13.7367
  0
LINE
  8
0
 10
74.8056
 20
-13.7367
 11
74.9944
 21
-13.655
  0
LINE
  8
0
 10
74.9944
 20
-13.655
 11
75.188
 21
-13.5853
  0
LINE
  8
0
 10
75.188
 20
-13.5853
 11
75.3855
 21
-13.5279
  0
LINE
  8
0
 10
75.3855
 20
-13.5279
 11
75.5863
 21
-13.483
  0
LINE
  8
0
 10
75.5863
 20
-13.483
 11
75.7895
 21
-13.4508
  0
LINE
  8
0
 10
75.7895
 20
-13.4508
 11
75.9944
 21
-13.4315
  0
LINE
  8
0
 10
75.9944
 20
-13.4315
 11
76.2
 21
-13.425
  0
LINE
  8
0
 10
76.2
 20
-13.425
 11
76.4056
 21
-13.4315
  0
LINE
  8
0
 10
76.4056
 20
-13.4315
 11
76.6105
 21
-13.4508
  0
LINE
  8
0
 10
76.6105
 20
-13.4508
 11
76.8137
 21
-13.483
  0
LINE
  8
0
 10
76.8137
 20
-13.483
 11
77.0145
 21
-13.5279
  0
LINE
  8
0
 10
77.0145
 20
-13.5279
 11
77.212
 21
-13.5853
  0
LINE
  8
0
 10
77.212
 20
-13.5853
 11
77.4056
 21
-13.655
  0
LINE
  8
0
 10
77.4056
 20
-13.655
 11
77.5944
 21
-13.7367
  0
LINE
  8
0
 10
77.5944
 20
-13.7367
 11
77.7777
 21
-13.8301
  0
LINE
  8
0
 10
77.7777
 20
-13.8301
 11
77.9548
 21
-13.9348
  0
LINE
  8
0
 10
77.9548
 20
-13.9348
 11
78.125
 21
-14.0505
  0
LINE
  8
0
 10
78.125
 20
-14.0505
 11
78.2876
 21
-14.1766
  0
LINE
  8
0
 10
78.2876
 20
-14.1766
 11
78.4419
 21
-14.3126
  0
LINE
  8
0
 10
78.4419
 20
-14.3126
 11
78.5874
 21
-14.4581
  0
LINE
  8
0
 10
78.5874
 20
-14.4581
 11
78.7234
 21
-14.6124
  0
LINE
  8
0
 10
78.7234
 20
-14.6124
 11
78.8495
 21
-14.775
  0
LINE
  8
0
 10
78.8495
 20
-14.775
 11
78.9652
 21
-14.9452
  0
LINE
  8
0
 10
78.9652
 20
-14.9452
 11
79.0699
 21
-15.1223
  0
LINE
  8
0
 10
79.0699
 20
-15.1223
 11
79.1633
 21
-15.3056
  0
LINE
  8
0
 10
79.1633
 20
-15.3056
 11
79.245
 21
-15.4944
  0
LINE
  8
0
 10
79.245
 20
-15.4944
 11
79.3147
 21
-15.688
  0
LINE
  8
0
 10
79.3147
 20
-15.688
 11
79.3721
 21
-15.8855
  0
LINE
  8
0
 10
79.3721
 20
-15.8855
 11
79.417
 21
-16.0863
  0
LINE
  8
0
 10
79.417
 20
-16.0863
 11
79.4492
 21
-16.2895
  0
LINE
  8
0
 10
79.4492
 20
-16.2895
 11
79.4685
 21
-16.4944
  0
LINE
  8
0
 10
79.4685
 20
-16.4944
 11
79.475
 21
-16.7
  0
LINE
  8
0
 10
79.475
 20
-16.7
 11
79.4685
 21
-16.9056
  0
LINE
  8
0
 10
79.4685
 20
-16.9056
 11
79.4492
 21
-17.1105
  0
LINE
  8
0
 10
79.4492
 20
-17.1105
 11
79.417
 21
-17.3137
  0
LINE
  8
0
 10
79.417
 20
-17.3137
 11
79.3721
 21
-17.5145
  0
LINE
  8
0
 10
79.3721
 20
-17.5145
 11
79.3147
 21
-17.712
  0
LINE
  8
0
 10
79.3147
 20
-17.712
 11
79.245
 21
-17.9056
  0
LINE
  8
0
 10
79.245
 20
-17.9056
 11
79.1633
 21
-18.0944
  0
LINE
  8
0
 10
79.1633
 20
-18.0944
 11
79.0699
 21
-18.2777
  0
LINE
  8
0
 10
79.0699
 20
-18.2777
 11
78.9652
 21
-18.4548
  0
LINE
  8
0
 10
78.9652
 20
-18.4548
 11
78.8495
 21
-18.625
  0
LINE
  8
0
 10
78.8495
 20
-18.625
 11
78.7234
 21
-18.7876
  0
LINE
  8
0
 10
78.7234
 20
-18.7876
 11
78.5874
 21
-18.9419
  0
LINE
  8
0
 10
78.5874
 20
-18.9419
 11
78.4419
 21
-19.0874
  0
LINE
  8
0
 10
78.4419
 20
-19.0874
 11
78.2876
 21
-19.2234
  0
LINE
  8
0
 10
78.2876
 20
-19.2234
 11
78.125
 21
-19.3495
  0
LINE
  8
0
 10
78.125
 20
-19.3495
 11
77.9548
 21
-19.4652
  0
LINE
  8
0
 10
77.9548
 20
-19.4652
 11
77.7777
 21
-19.5699
  0
LINE
  8
0
 10
77.7777
 20
-19.5699
 11
77.5944
 21
-19.6633
  0
LINE
  8
0
 10
77.5944
 20
-19.6633
 11
77.4056
 21
-19.745
  0
LINE
  8
0
 10
77.4056
 20
-19.745
 11
77.212
 21
-19.8147
  0
LINE
  8
0
 10
77.212
 20
-19.8147
 11
77.0145
 21
-19.8721
  0
LINE
  8
0
 10
77.0145
 20
-19.8721
 11
76.8137
 21
-19.917
  0
LINE
  8
0
 10
76.8137
 20
-19.917
 11
76.6105
 21
-19.9492
  0
LINE
  8
0
 10
76.6105
 20
-19.9492
 11
76.4056
 21
-19.9685
  0
LINE
  8
0
 10
76.4056
 20
-19.9685
 11
76.2
 21
-19.975
  0
LINE
  8
0
 10
76.2
 20
-19.975
 11
75.9944
 21
-19.9685
  0
LINE
  8
0
 10
-76.4056
 20
-45.3685
 11
-76.6105
 21
-45.3492
  0
LINE
  8
0
 10
-76.6105
 20
-45.3492
 11
-76.8137
 21
-45.317
  0
LINE
  8
0
 10
-76.8137
 20
-45.317
 11
-77.0145
 21
-45.2721
  0
LINE
  8
0
 10
-77.0145
 20
-45.2721
 11
-77.212
 21
-45.2147
  0
LINE
  8
0
 10
-77.212
 20
-45.2147
 11
-77.4056
 21
-45.145
  0
LINE
  8
0
 10
-77.4056
 20
-45.145
 11
-77.5944
 21
-45.0633
  0
LINE
  8
0
 10
-77.5944
 20
-45.0633
 11
-77.7777
 21
-44.9699
  0
LINE
  8
0
 10
-77.7777
 20
-44.9699
 11
-77.9548
 21
-44.8652
  0
LINE
  8
0
 10
-77.9548
 20
-44.8652
 11
-78.125
 21
-44.7495
  0
LINE
  8
0
 10
-78.125
 20
-44.7495
 11
-78.2876
 21
-44.6234
  0
LINE
  8
0
 10
-78.2876
 20
-44.6234
 11
-78.4419
 21
-44.4874
  0
LINE
  8
0
 10
-78.4419
 20
-44.4874
 11
-78.5874
 21
-44.3419
  0
LINE
  8
0
 10
-78.5874
 20
-44.3419
 11
-78.7234
 21
-44.1876
  0
LINE
  8
0
 10
-78.7234
 20
-44.1876
 11
-78.8495
 21
-44.025
  0
LINE
  8
0
 10
-78.8495
 20
-44.025
 11
-78.9652
 21
-43.8548
  0
LINE
  8
0
 10
-78.9652
 20
-43.8548
 11
-79.0699
 21
-43.6777
  0
LINE
  8
0
 10
-79.0699
 20
-43.6777
 11
-79.1633
 21
-43.4944
  0
LINE
  8
0
 10
-79.1633
 20
-43.4944
 11
-79.245
 21
-43.3056
  0
LINE
  8
0
 10
-79.245
 20
-43.3056
 11
-79.3147
 21
-43.112
  0
LINE
  8
0
 10
-79.3147
 20
-43.112
 11
-79.3721
 21
-42.9145
  0
LINE
  8
0
 10
-79.3721
 20
-42.9145
 11
-79.417
 21
-42.7137
  0
LINE
  8
0
 10
-79.417
 20
-42.7137
 11
-79.4492
 21
-42.5105
  0
LINE
  8
0
 10
-79.4492
 20
-42.5105
 11
-79.4685
 21
-42.3056
  0
LINE
  8
0
 10
-79.4685
 20
-42.3056
 11
-79.475
 21
-42.1
  0
LINE
  8
0
 10
-79.475
 20
-42.1
 11
-79.4685
 21
-41.8943
  0
LINE
  8
0
 10
-79.4685
 20
-41.8943
 11
-79.4492
 21
-41.6895
  0
LINE
  8
0
 10
-79.4492
 20
-41.6895
 11
-79.417
 21
-41.4863
  0
LINE
  8
0
 10
-79.417
 20
-41.4863
 11
-79.3721
 21
-41.2855
  0
LINE
  8
0
 10
-79.3721
 20
-41.2855
 11
-79.3147
 21
-41.088
  0
LINE
  8
0
 10
-79.3147
 20
-41.088
 11
-79.245
 21
-40.8944
  0
LINE
  8
0
 10
-79.245
 20
-40.8944
 11
-79.1633
 21
-40.7056
  0
LINE
  8
0
 10
-79.1633
 20
-40.7056
 11
-79.0699
 21
-40.5222
  0
LINE
  8
0
 10
-79.0699
 20
-40.5222
 11
-78.9652
 21
-40.3452
  0
LINE
  8
0
 10
-78.9652
 20
-40.3452
 11
-78.8495
 21
-40.175
  0
LINE
  8
0
 10
-78.8495
 20
-40.175
 11
-78.7234
 21
-40.0124
  0
LINE
  8
0
 10
-78.7234
 20
-40.0124
 11
-78.5874
 21
-39.8581
  0
LINE
  8
0
 10
-78.5874
 20
-39.8581
 11
-78.4419
 21
-39.7126
  0
LINE
  8
0
 10
-78.4419
 20
-39.7126
 11
-78.2876
 21
-39.5766
  0
LINE
  8
0
 10
-78.2876
 20
-39.5766
 11
-78.125
 21
-39.4505
  0
LINE
  8
0
 10
-78.125
 20
-39.4505
 11
-77.9548
 21
-39.3348
  0
LINE
  8
0
 10
-77.9548
 20
-39.3348
 11
-77.7777
 21
-39.2301
  0
LINE
  8
0
 10
-77.7777
 20
-39.2301
 11
-77.5944
 21
-39.1367
  0
LINE
  8
0
 10
-77.5944
 20
-39.1367
 11
-77.4056
 21
-39.055
  0
LINE
  8
0
 10
-77.4056
 20
-39.055
 11
-77.212
 21
-38.9853
  0
LINE
  8
0
 10
-77.212
 20
-38.9853
 11
-77.0145
 21
-38.9279
  0
LINE
  8
0
 10
-77.0145
 20
-38.9279
 11
-76.8137
 21
-38.883
  0
LINE
  8
0
 10
-76.8137
 20
-38.883
 11
-76.6105
 21
-38.8508
  0
LINE
  8
0
 10
-76.6105
 20
-38.8508
 11
-76.4056
 21
-38.8315
  0
LINE
  8
0
 10
-76.4056
 20
-38.8315
 11
-76.2
 21
-38.825
  0
LINE
  8
0
 10
-76.2
 20
-38.825
 11
-75.9944
 21
-38.8315
  0
LINE
  8
0
 10
-75.9944
 20
-38.8315
 11
-75.7895
 21
-38.8508
  0
LINE
  8
0
 10
-75.7895
 20
-38.8508
 11
-75.5863
 21
-38.883
  0
LINE
  8
0
 10
-75.5863
 20
-38.883
 11
-75.3855
 21
-38.9279
  0
LINE
  8
0
 10
-75.3855
 20
-38.9279
 11
-75.188
 21
-38.9853
  0
LINE
  8
0
 10
-75.188
 20
-38.9853
 11
-74.9944
 21
-39.055
  0
LINE
  8
0
 10
-74.9944
 20
-39.055
 11
-74.8056
 21
-39.1367
  0
LINE
  8
0
 10
-74.8056
 20
-39.1367
 11
-74.6223
 21
-39.2301
  0
LINE
  8
0
 10
-74.6223
 20
-39.2301
 11
-74.4452
 21
-39.3348
  0
LINE
  8
0
 10
-74.4452
 20
-39.3348
 11
-74.275
 21
-39.4505
  0
LINE
  8
0
 10
-74.275
 20
-39.4505
 11
-74.1124
 21
-39.5766
  0
LINE
  8
0
 10
-74.1124
 20
-39.5766
 11
-73.9581
 21
-39.7126
  0
LINE
  8
0
 10
-73.9581
 20
-39.7126
 11
-73.8126
 21
-39.8581
  0
LINE
  8
0
 10
-73.8126
 20
-39.8581
 11
-73.6766
 21
-40.0124
  0
LINE
  8
0
 10
-73.6766
 20
-40.0124
 11
-73.5505
 21
-40.175
  0
LINE
  8
0
 10
-73.5505
 20
-40.175
 11
-73.4348
 21
-40.3452
  0
LINE
  8
0
 10
-73.4348
 20
-40.3452
 11
-73.3301
 21
-40.5222
  0
LINE
  8
0
 10
-73.3301
 20
-40.5222
 11
-73.2367
 21
-40.7056
  0
LINE
  8
0
 10
-73.2367
 20
-40.7056
 11
-73.155
 21
-40.8944
  0
LINE
  8
0
 10
-73.155
 20
-40.8944
 11
-73.0853
 21
-41.088
  0
LINE
  8
0
 10
-73.0853
 20
-41.088
 11
-73.0279
 21
-41.2855
  0
LINE
  8
0
 10
-73.0279
 20
-41.2855
 11
-72.983
 21
-41.4863
  0
LINE
  8
0
 10
-72.983
 20
-41.4863
 11
-72.9508
 21
-41.6895
  0
LINE
  8
0
 10
-72.9508
 20
-41.6895
 11
-72.9315
 21
-41.8943
  0
LINE
  8
0
 10
-72.9315
 20
-41.8943
 11
-72.925
 21
-42.1
  0
LINE
  8
0
 10
-72.925
 20
-42.1
 11
-72.9315
 21
-42.3056
  0
LINE
  8
0
 10
-72.9315
 20
-42.3056
 11
-72.9508
 21
-42.5105
  0
LINE
  8
0
 10
-72.9508
 20
-42.5105
 11
-72.983
 21
-42.7137
  0
LINE
  8
0
 10
-72.983
 20
-42.7137
 11
-73.0279
 21
-42.9145
  0
LINE
  8
0
 10
-73.0279
 20
-42.9145
 11
-73.0853
 21
-43.112
  0
LINE
  8
0
 10
-73.0853
 20
-43.112
 11
-73.155
 21
-43.3056
  0
LINE
  8
0
 10
-73.155
 20
-43.3056
 11
-73.2367
 21
-43.4944
  0
LINE
  8
0
 10
-73.2367
 20
-43.4944
 11
-73.3301
 21
-43.6777
  0
LINE
  8
0
 10
-73.3301
 20
-43.6777
 11
-73.4348
 21
-43.8548
  0
LINE
  8
0
 10
-73.4348
 20
-43.8548
 11
-73.5505
 21
-44.025
  0
LINE
  8
0
 10
-73.5505
 20
-44.025
 11
-73.6766
 21
-44.1876
  0
LINE
  8
0
 10
-73.6766
 20
-44.1876
 11
-73.8126
 21
-44.3419
  0
LINE
  8
0
 10
-73.8126
 20
-44.3419
 11
-73.9581
 21
-44.4874
  0
LINE
  8
0
 10
-73.9581
 20
-44.4874
 11
-74.1124
 21
-44.6234
  0
LINE
  8
0
 10
-74.1124
 20
-44.6234
 11
-74.275
 21
-44.7495
  0
LINE
  8
0
 10
-74.275
 20
-44.7495
 11
-74.4452
 21
-44.8652
  0
LINE
  8
0
 10
-74.4452
 20
-44.8652
 11
-74.6223
 21
-44.9699
  0
LINE
  8
0
 10
-74.6223
 20
-44.9699
 11
-74.8056
 21
-45.0633
  0
LINE
  8
0
 10
-74.8056
 20
-45.0633
 11
-74.9944
 21
-45.145
  0
LINE
  8
0
 10
-74.9944
 20
-45.145
 11
-75.188
 21
-45.2147
  0
LINE
  8
0
 10
-75.188
 20
-45.2147
 11
-75.3855
 21
-45.2721
  0
LINE
  8
0
 10
-75.3855
 20
-45.2721
 11
-75.5863
 21
-45.317
  0
LINE
  8
0
 10
-75.5863
 20
-45.317
 11
-75.7895
 21
-45.3492
  0
LINE
  8
0
 10
-75.7895
 20
-45.3492
 11
-75.9944
 21
-45.3685
  0
LINE
  8
0
 10
-75.9944
 20
-45.3685
 11
-76.2
 21
-45.375
  0
LINE
  8
0
 10
-76.2
 20
-45.375
 11
-76.4056
 21
-45.3685
  0
LINE
  8
0
 10
75.9944
 20
-45.3685
 11
75.7895
 21
-45.3492
  0
LINE
  8
0
 10
75.7895
 20
-45.3492
 11
75.5863
 21
-45.317
  0
LINE
  8
0
 10
75.5863
 20
-45.317
 11
75.3855
 21
-45.2721
  0
LINE
  8
0
 10
75.3855
 20
-45.2721
 11
75.188
 21
-45.2147
  0
LINE
  8
0
 10
75.188
 20
-45.2147
 11
74.9944
 21
-45.145
  0
LINE
  8
0
 10
74.9944
 20
-45.145
 11
74.8056
 21
-45.0633
  0
LINE
  8
0
 10
74.8056
 20
-45.0633
 11
74.6223
 21
-44.9699
  0
LINE
  8
0
 10
74.6223
 20
-44.9699
 11
74.4452
 21
-44.8652
  0
LINE
  8
0
 10
74.4452
 20
-44.8652
 11
74.275
 21
-44.7495
  0
LINE
  8
0
 10
74.275
 20
-44.7495
 11
74.1124
 21
-44.6234
  0
LINE
  8
0
 10
74.1124
 20
-44.6234
 11
73.9581
 21
-44.4874
  0
LINE
  8
0
 10
73.9581
 20
-44.4874
 11
73.8126
 21
-44.3419
  0
LINE
  8
0
 10
73.8126
 20
-44.3419
 11
73.6766
 21
-44.1876
  0
LINE
  8
0
 10
73.6766
 20
-44.1876
 11
73.5505
 21
-44.025
  0
LINE
  8
0
 10
73.5505
 20
-44.025
 11
73.4348
 21
-43.8548
  0
LINE
  8
0
 10
73.4348
 20
-43.8548
 11
73.3301
 21
-43.6777
  0
LINE
  8
0
 10
73.3301
 20
-43.6777
 11
73.2367
 21
-43.4944
  0
LINE
  8
0
 10
73.2367
 20
-43.4944
 11
73.155
 21
-43.3056
  0
LINE
  8
0
 10
73.155
 20
-43.3056
 11
73.0853
 21
-43.112
  0
LINE
  8
0
 10
73.0853
 20
-43.112
 11
73.0279
 21
-42.9145
  0
LINE
  8
0
 10
73.0279
 20
-42.9145
 11
72.983
 21
-42.7137
  0
LINE
  8
0
 10
72.983
 20
-42.7137
 11
72.9508
 21
-42.5105
  0
LINE
  8
0
 10
72.9508
 20
-42.5105
 11
72.9315
 21
-42.3056
  0
LINE
  8
0
 10
72.9315
 20
-42.3056
 11
72.925
 21
-42.1
  0
LINE
  8
0
 10
72.925
 20
-42.1
 11
72.9315
 21
-41.8943
  0
LINE
  8
0
 10
72.9315
 20
-41.8943
 11
72.9508
 21
-41.6895
  0
LINE
  8
0
 10
72.9508
 20
-41.6895
 11
72.983
 21
-41.4863
  0
LINE
  8
0
 10
72.983
 20
-41.4863
 11
73.0279
 21
-41.2855
  0
LINE
  8
0
 10
73.0279
 20
-41.2855
 11
73.0853
 21
-41.088
  0
LINE
  8
0
 10
73.0853
 20
-41.088
 11
73.155
 21
-40.8944
  0
LINE
  8
0
 10
73.155
 20
-40.8944
 11
73.2367
 21
-40.7056
  0
LINE
  8
0
 10
73.2367
 20
-40.7056
 11
73.3301
 21
-40.5222
  0
LINE
  8
0
 10
73.3301
 20
-40.5222
 11
73.4348
 21
-40.3452
  0
LINE
  8
0
 10
73.4348
 20
-40.3452
 11
73.5505
 21
-40.175
  0
LINE
  8
0
 10
73.5505
 20
-40.175
 11
73.6766
 21
-40.0124
  0
LINE
  8
0
 10
73.6766
 20
-40.0124
 11
73.8126
 21
-39.8581
  0
LINE
  8
0
 10
73.8126
 20
-39.8581
 11
73.9581
 21
-39.7126
  0
LINE
  8
0
 10
73.9581
 20
-39.7126
 11
74.1124
 21
-39.5766
  0
LINE
  8
0
 10
74.1124
 20
-39.5766
 11
74.275
 21
-39.4505
  0
LINE
  8
0
 10
74.275
 20
-39.4505
 11
74.4452
 21
-39.3348
  0
LINE
  8
0
 10
74.4452
 20
-39.3348
 11
74.6223
 21
-39.2301
  0
LINE
  8
0
 10
74.6223
 20
-39.2301
 11
74.8056
 21
-39.1367
  0
LINE
  8
0
 10
74.8056
 20
-39.1367
 11
74.9944
 21
-39.055
  0
LINE
  8
0
 10
74.9944
 20
-39.055
 11
75.188
 21
-38.9853
  0
LINE
  8
0
 10
75.188
 20
-38.9853
 11
75.3855
 21
-38.9279
  0
LINE
  8
0
 10
75.3855
 20
-38.9279
 11
75.5863
 21
-38.883
  0
LINE
  8
0
 10
75.5863
 20
-38.883
 11
75.7895
 21
-38.8508
  0
LINE
  8
0
 10
75.7895
 20
-38.8508
 11
75.9944
 21
-38.8315
  0
LINE
  8
0
 10
75.9944
 20
-38.8315
 11
76.2
 21
-38.825
  0
LINE
  8
0
 10
76.2
 20
-38.825
 11
76.4056
 21
-38.8315
  0
LINE
  8
0
 10
76.4056
 20
-38.8315
 11
76.6105
 21
-38.8508
  0
LINE
  8
0
 10
76.6105
 20
-38.8508
 11
76.8137
 21
-38.883
  0
LINE
  8
0
 10
76.8137
 20
-38.883
 11
77.0145
 21
-38.9279
  0
LINE
  8
0
 10
77.0145
 20
-38.9279
 11
77.212
 21
-38.9853
  0
LINE
  8
0
 10
77.212
 20
-38.9853
 11
77.4056
 21
-39.055
  0
LINE
  8
0
 10
77.4056
 20
-39.055
 11
77.5944
 21
-39.1367
  0
LINE
  8
0
 10
77.5944
 20
-39.1367
 11
77.7777
 21
-39.2301
  0
LINE
  8
0
 10
77.7777
 20
-39.2301
 11
77.9548
 21
-39.3348
  0
LINE
  8
0
 10
77.9548
 20
-39.3348
 11
78.125
 21
-39.4505
  0
LINE
  8
0
 10
78.125
 20
-39.4505
 11
78.2876
 21
-39.5766
  0
LINE
  8
0
 10
78.2876
 20
-39.5766
 11
78.4419
 21
-39.7126
  0
LINE
  8
0
 10
78.4419
 20
-39.7126
 11
78.5874
 21
-39.8581
  0
LINE
  8
0
 10
78.5874
 20
-39.8581
 11
78.7234
 21
-40.0124
  0
LINE
  8
0
 10
78.7234
 20
-40.0124
 11
78.8495
 21
-40.175
  0
LINE
  8
0
 10
78.8495
 20
-40.175
 11
78.9652
 21
-40.3452
  0
LINE
  8
0
 10
78.9652
 20
-40.3452
 11
79.0699
 21
-40.5222
  0
LINE
  8
0
 10
79.0699
 20
-40.5222
 11
79.1633
 21
-40.7056
  0
LINE
  8
0
 10
79.1633
 20
-40.7056
 11
79.245
 21
-40.8944
  0
LINE
  8
0
 10
79.245
 20
-40.8944
 11
79.3147
 21
-41.088
  0
LINE
  8
0
 10
79.3147
 20
-41.088
 11
79.3721
 21
-41.2855
  0
LINE
  8
0
 10
79.3721
 20
-41.2855
 11
79.417
 21
-41.4863
  0
LINE
  8
0
 10
79.417
 20
-41.4863
 11
79.4492
 21
-41.6895
  0
LINE
  8
0
 10
79.4492
 20
-41.6895
 11
79.4685
 21
-41.8943
  0
LINE
  8
0
 10
79.4685
 20
-41.8943
 11
79.475
 21
-42.1
  0
LINE
  8
0
 10
79.475
 20
-42.1
 11
79.4685
 21
-42.3056
  0
LINE
  8
0
 10
79.4685
 20
-42.3056
 11
79.4492
 21
-42.5105
  0
LINE
  8
0
 10
79.4492
 20
-42.5105
 11
79.417
 21
-42.7137
  0
LINE
  8
0
 10
79.417
 20
-42.7137
 11
79.3721
 21
-42.9145
  0
LINE
  8
0
 10
79.3721
 20
-42.9145
 11
79.3147
 21
-43.112
  0
LINE
  8
0
 10
79.3147
 20
-43.112
 11
79.245
 21
-43.3056
  0
LINE
  8
0
 10
79.245
 20
-43.3056
 11
79.1633
 21
-43.4944
  0
LINE
  8
0
 10
79.1633
 20
-43.4944
 11
79.0699
 21
-43.6777
  0
LINE
  8
0
 10
79.0699
 20
-43.6777
 11
78.9652
 21
-43.8548
  0
LINE
  8
0
 10
78.9652
 20
-43.8548
 11
78.8495
 21
-44.025
  0
LINE
  8
0
 10
78.8495
 20
-44.025
 11
78.7234
 21
-44.1876
  0
LINE
  8
0
 10
78.7234
 20
-44.1876
 11
78.5874
 21
-44.3419
  0
LINE
  8
0
 10
78.5874
 20
-44.3419
 11
78.4419
 21
-44.4874
  0
LINE
  8
0
 10
78.4419
 20
-44.4874
 11
78.2876
 21
-44.6234
  0
LINE
  8
0
 10
78.2876
 20
-44.6234
 11
78.125
 21
-44.7495
  0
LINE
  8
0
 10
78.125
 20
-44.7495
 11
77.9548
 21
-44.8652
  0
LINE
  8
0
 10
77.9548
 20
-44.8652
 11
77.7777
 21
-44.9699
  0
LINE
  8
0
 10
77.7777
 20
-44.9699
 11
77.5944
 21
-45.0633
  0
LINE
  8
0
 10
77.5944
 20
-45.0633
 11
77.4056
 21
-45.145
  0
LINE
  8
0
 10
77.4056
 20
-45.145
 11
77.212
 21
-45.2147
  0
LINE
  8
0
 10
77.212
 20
-45.2147
 11
77.0145
 21
-45.2721
  0
LINE
  8
0
 10
77.0145
 20
-45.2721
 11
76.8137
 21
-45.317
  0
LINE
  8
0
 10
76.8137
 20
-45.317
 11
76.6105
 21
-45.3492
  0
LINE
  8
0
 10
76.6105
 20
-45.3492
 11
76.4056
 21
-45.3685
  0
LINE
  8
0
 10
76.4056
 20
-45.3685
 11
76.2
 21
-45.375
  0
LINE
  8
0
 10
76.2
 20
-45.375
 11
75.9944
 21
-45.3685
  0
LINE
  8
0
 10
-41.3991
 20
-43.6203
 11
-41.5477
 21
-43.6063
  0
LINE
  8
0
 10
-41.5477
 20
-43.6063
 11
-41.695
 21
-43.5829
  0
LINE
  8
0
 10
-41.695
 20
-43.5829
 11
-41.8406
 21
-43.5504
  0
LINE
  8
0
 10
-41.8406
 20
-43.5504
 11
-41.9839
 21
-43.5088
  0
LINE
  8
0
 10
-41.9839
 20
-43.5088
 11
-42.1243
 21
-43.4582
  0
LINE
  8
0
 10
-42.1243
 20
-43.4582
 11
-42.2612
 21
-43.399
  0
LINE
  8
0
 10
-42.2612
 20
-43.399
 11
-42.3941
 21
-43.3312
  0
LINE
  8
0
 10
-42.3941
 20
-43.3312
 11
-42.5226
 21
-43.2553
  0
LINE
  8
0
 10
-42.5226
 20
-43.2553
 11
-42.646
 21
-43.1714
  0
LINE
  8
0
 10
-42.646
 20
-43.1714
 11
-42.7639
 21
-43.08
  0
LINE
  8
0
 10
-42.7639
 20
-43.08
 11
-42.8758
 21
-42.9813
  0
LINE
  8
0
 10
-42.8758
 20
-42.9813
 11
-42.9813
 21
-42.8758
  0
LINE
  8
0
 10
-42.9813
 20
-42.8758
 11
-43.08
 21
-42.7639
  0
LINE
  8
0
 10
-43.08
 20
-42.7639
 11
-43.1714
 21
-42.646
  0
LINE
  8
0
 10
-43.1714
 20
-42.646
 11
-43.2553
 21
-42.5226
  0
LINE
  8
0
 10
-43.2553
 20
-42.5226
 11
-43.3312
 21
-42.3941
  0
LINE
  8
0
 10
-43.3312
 20
-42.3941
 11
-43.399
 21
-42.2612
  0
LINE
  8
0
 10
-43.399
 20
-42.2612
 11
-43.4582
 21
-42.1243
  0
LINE
  8
0
 10
-43.4582
 20
-42.1243
 11
-43.5088
 21
-41.9839
  0
LINE
  8
0
 10
-43.5088
 20
-41.9839
 11
-43.5504
 21
-41.8406
  0
LINE
  8
0
 10
-43.5504
 20
-41.8406
 11
-43.5829
 21
-41.695
  0
LINE
  8
0
 10
-43.5829
 20
-41.695
 11
-43.6063
 21
-41.5477
  0
LINE
  8
0
 10
-43.6063
 20
-41.5477
 11
-43.6203
 21
-41.3991
  0
LINE
  8
0
 10
-43.6203
 20
-41.3991
 11
-43.625
 21
-41.25
  0
LINE
  8
0
 10
-43.625
 20
-41.25
 11
-43.6203
 21
-41.1009
  0
LINE
  8
0
 10
-43.6203
 20
-41.1009
 11
-43.6063
 21
-40.9523
  0
LINE
  8
0
 10
-43.6063
 20
-40.9523
 11
-43.5829
 21
-40.805
  0
LINE
  8
0
 10
-43.5829
 20
-40.805
 11
-43.5504
 21
-40.6593
  0
LINE
  8
0
 10
-43.5504
 20
-40.6593
 11
-43.5088
 21
-40.5161
  0
LINE
  8
0
 10
-43.5088
 20
-40.5161
 11
-43.4582
 21
-40.3757
  0
LINE
  8
0
 10
-43.4582
 20
-40.3757
 11
-43.399
 21
-40.2388
  0
LINE
  8
0
 10
-43.399
 20
-40.2388
 11
-43.3312
 21
-40.1058
  0
LINE
  8
0
 10
-43.3312
 20
-40.1058
 11
-43.2553
 21
-39.9774
  0
LINE
  8
0
 10
-43.2553
 20
-39.9774
 11
-43.1714
 21
-39.854
  0
LINE
  8
0
 10
-43.1714
 20
-39.854
 11
-43.08
 21
-39.7361
  0
LINE
  8
0
 10
-43.08
 20
-39.7361
 11
-42.9813
 21
-39.6242
  0
LINE
  8
0
 10
-42.9813
 20
-39.6242
 11
-42.8758
 21
-39.5187
  0
LINE
  8
0
 10
-42.8758
 20
-39.5187
 11
-42.7639
 21
-39.42
  0
LINE
  8
0
 10
-42.7639
 20
-39.42
 11
-42.646
 21
-39.3286
  0
LINE
  8
0
 10
-42.646
 20
-39.3286
 11
-42.5226
 21
-39.2447
  0
LINE
  8
0
 10
-42.5226
 20
-39.2447
 11
-42.3941
 21
-39.1688
  0
LINE
  8
0
 10
-42.3941
 20
-39.1688
 11
-42.2612
 21
-39.101
  0
LINE
  8
0
 10
-42.2612
 20
-39.101
 11
-42.1243
 21
-39.0418
  0
LINE
  8
0
 10
-42.1243
 20
-39.0418
 11
-41.9839
 21
-38.9912
  0
LINE
  8
0
 10
-41.9839
 20
-38.9912
 11
-41.8406
 21
-38.9496
  0
LINE
  8
0
 10
-41.8406
 20
-38.9496
 11
-41.695
 21
-38.9171
  0
LINE
  8
0
 10
-41.695
 20
-38.9171
 11
-41.5477
 21
-38.8937
  0
LINE
  8
0
 10
-41.5477
 20
-38.8937
 11
-41.3991
 21
-38.8797
  0
LINE
  8
0
 10
-41.3991
 20
-38.8797
 11
-41.25
 21
-38.875
  0
LINE
  8
0
 10
-41.25
 20
-38.875
 11
-41.1009
 21
-38.8797
  0
LINE
  8
0
 10
-41.1009
 20
-38.8797
 11
-40.9523
 21
-38.8937
  0
LINE
  8
0
 10
-40.9523
 20
-38.8937
 11
-40.805
 21
-38.9171
  0
LINE
  8
0
 10
-40.805
 20
-38.9171
 11
-40.6593
 21
-38.9496
  0
LINE
  8
0
 10
-40.6593
 20
-38.9496
 11
-40.5161
 21
-38.9912
  0
LINE
  8
0
 10
-40.5161
 20
-38.9912
 11
-40.3757
 21
-39.0418
  0
LINE
  8
0
 10
-40.3757
 20
-39.0418
 11
-40.2388
 21
-39.101
  0
LINE
  8
0
 10
-40.2388
 20
-39.101
 11
-40.1058
 21
-39.1688
  0
LINE
  8
0
 10
-40.1058
 20
-39.1688
 11
-39.9774
 21
-39.2447
  0
LINE
  8
0
 10
-39.9774
 20
-39.2447
 11
-39.854
 21
-39.3286
  0
LINE
  8
0
 10
-39.854
 20
-39.3286
 11
-39.7361
 21
-39.42
  0
LINE
  8
0
 10
-39.7361
 20
-39.42
 11
-39.6242
 21
-39.5187
  0
LINE
  8
0
 10
-39.6242
 20
-39.5187
 11
-39.5187
 21
-39.6242
  0
LINE
  8
0
 10
-39.5187
 20
-39.6242
 11
-39.42
 21
-39.7361
  0
LINE
  8
0
 10
-39.42
 20
-39.7361
 11
-39.3286
 21
-39.854
  0
LINE
  8
0
 10
-39.3286
 20
-39.854
 11
-39.2447
 21
-39.9774
  0
LINE
  8
0
 10
-39.2447
 20
-39.9774
 11
-39.1688
 21
-40.1058
  0
LINE
  8
0
 10
-39.1688
 20
-40.1058
 11
-39.101
 21
-40.2388
  0
LINE
  8
0
 10
-39.101
 20
-40.2388
 11
-39.0418
 21
-40.3757
  0
LINE
  8
0
 10
-39.0418
 20
-40.3757
 11
-38.9912
 21
-40.5161
  0
LINE
  8
0
 10
-38.9912
 20
-40.5161
 11
-38.9496
 21
-40.6593
  0
LINE
  8
0
 10
-38.9496
 20
-40.6593
 11
-38.9171
 21
-40.805
  0
LINE
  8
0
 10
-38.9171
 20
-40.805
 11
-38.8937
 21
-40.9523
  0
LINE
  8
0
 10
-38.8937
 20
-40.9523
 11
-38.8797
 21
-41.1009
  0
LINE
  8
0
 10
-38.8797
 20
-41.1009
 11
-38.875
 21
-41.25
  0
LINE
  8
0
 10
-38.875
 20
-41.25
 11
-38.8797
 21
-41.3991
  0
LINE
  8
0
 10
-38.8797
 20
-41.3991
 11
-38.8937
 21
-41.5477
  0
LINE
  8
0
 10
-38.8937
 20
-41.5477
 11
-38.9171
 21
-41.695
  0
LINE
  8
0
 10
-38.9171
 20
-41.695
 11
-38.9496
 21
-41.8406
  0
LINE
  8
0
 10
-38.9496
 20
-41.8406
 11
-38.9912
 21
-41.9839
  0
LINE
  8
0
 10
-38.9912
 20
-41.9839
 11
-39.0418
 21
-42.1243
  0
LINE
  8
0
 10
-39.0418
 20
-42.1243
 11
-39.101
 21
-42.2612
  0
LINE
  8
0
 10
-39.101
 20
-42.2612
 11
-39.1688
 21
-42.3941
  0
LINE
  8
0
 10
-39.1688
 20
-42.3941
 11
-39.2447
 21
-42.5226
  0
LINE
  8
0
 10
-39.2447
 20
-42.5226
 11
-39.3286
 21
-42.646
  0
LINE
  8
0
 10
-39.3286
 20
-42.646
 11
-39.42
 21
-42.7639
  0
LINE
  8
0
 10
-39.42
 20
-42.7639
 11
-39.5187
 21
-42.8758
  0
LINE
  8
0
 10
-39.5187
 20
-42.8758
 11
-39.6242
 21
-42.9813
  0
LINE
  8
0
 10
-39.6242
 20
-42.9813
 11
-39.7361
 21
-43.08
  0
LINE
  8
0
 10
-39.7361
 20
-43.08
 11
-39.854
 21
-43.1714
  0
LINE
  8
0
 10
-39.854
 20
-43.1714
 11
-39.9774
 21
-43.2553
  0
LINE
  8
0
 10
-39.9774
 20
-43.2553
 11
-40.1058
 21
-43.3312
  0
LINE
  8
0
 10
-40.1058
 20
-43.3312
 11
-40.2388
 21
-43.399
  0
LINE
  8
0
 10
-40.2388
 20
-43.399
 11
-40.3757
 21
-43.4582
  0
LINE
  8
0
 10
-40.3757
 20
-43.4582
 11
-40.5161
 21
-43.5088
  0
LINE
  8
0
 10
-40.5161
 20
-43.5088
 11
-40.6593
 21
-43.5504
  0
LINE
  8
0
 10
-40.6593
 20
-43.5504
 11
-40.805
 21
-43.5829
  0
LINE
  8
0
 10
-40.805
 20
-43.5829
 11
-40.9523
 21
-43.6063
  0
LINE
  8
0
 10
-40.9523
 20
-43.6063
 11
-41.1009
 21
-43.6203
  0
LINE
  8
0
 10
-41.1009
 20
-43.6203
 11
-41.25
 21
-43.625
  0
LINE
  8
0
 10
-41.25
 20
-43.625
 11
-41.3991
 21
-43.6203
  0
LINE
  8
0
 10
41.1009
 20
-43.6203
 11
40.9523
 21
-43.6063
  0
LINE
  8
0
 10
40.9523
 20
-43.6063
 11
40.805
 21
-43.5829
  0
LINE
  8
0
 10
40.805
 20
-43.5829
 11
40.6593
 21
-43.5504
  0
LINE
  8
0
 10
40.6593
 20
-43.5504
 11
40.5161
 21
-43.5088
  0
LINE
  8
0
 10
40.5161
 20
-43.5088
 11
40.3757
 21
-43.4582
  0
LINE
  8
0
 10
40.3757
 20
-43.4582
 11
40.2388
 21
-43.399
  0
LINE
  8
0
 10
40.2388
 20
-43.399
 11
40.1058
 21
-43.3312
  0
LINE
  8
0
 10
40.1058
 20
-43.3312
 11
39.9774
 21
-43.2553
  0
LINE
  8
0
 10
39.9774
 20
-43.2553
 11
39.854
 21
-43.1714
  0
LINE
  8
0
 10
39.854
 20
-43.1714
 11
39.7361
 21
-43.08
  0
LINE
  8
0
 10
39.7361
 20
-43.08
 11
39.6242
 21
-42.9813
  0
LINE
  8
0
 10
39.6242
 20
-42.9813
 11
39.5187
 21
-42.8758
  0
LINE
  8
0
 10
39.5187
 20
-42.8758
 11
39.42
 21
-42.7639
  0
LINE
  8
0
 10
39.42
 20
-42.7639
 11
39.3286
 21
-42.646
  0
LINE
  8
0
 10
39.3286
 20
-42.646
 11
39.2447
 21
-42.5226
  0
LINE
  8
0
 10
39.2447
 20
-42.5226
 11
39.1688
 21
-42.3941
  0
LINE
  8
0
 10
39.1688
 20
-42.3941
 11
39.101
 21
-42.2612
  0
LINE
  8
0
 10
39.101
 20
-42.2612
 11
39.0418
 21
-42.1243
  0
LINE
  8
0
 10
39.0418
 20
-42.1243
 11
38.9912
 21
-41.9839
  0
LINE
  8
0
 10
38.9912
 20
-41.9839
 11
38.9496
 21
-41.8406
  0
LINE
  8
0
 10
38.9496
 20
-41.8406
 11
38.9171
 21
-41.695
  0
LINE
  8
0
 10
38.9171
 20
-41.695
 11
38.8937
 21
-41.5477
  0
LINE
  8
0
 10
38.8937
 20
-41.5477
 11
38.8797
 21
-41.3991
  0
LINE
  8
0
 10
38.8797
 20
-41.3991
 11
38.875
 21
-41.25
  0
LINE
  8
0
 10
38.875
 20
-41.25
 11
38.8797
 21
-41.1009
  0
LINE
  8
0
 10
38.8797
 20
-41.1009
 11
38.8937
 21
-40.9523
  0
LINE
  8
0
 10
38.8937
 20
-40.9523
 11
38.9171
 21
-40.805
  0
LINE
  8
0
 10
38.9171
 20
-40.805
 11
38.9496
 21
-40.6593
  0
LINE
  8
0
 10
38.9496
 20
-40.6593
 11
38.9912
 21
-40.5161
  0
LINE
  8
0
 10
38.9912
 20
-40.5161
 11
39.0418
 21
-40.3757
  0
LINE
  8
0
 10
39.0418
 20
-40.3757
 11
39.101
 21
-40.2388
  0
LINE
  8
0
 10
39.101
 20
-40.2388
 11
39.1688
 21
-40.1058
  0
LINE
  8
0
 10
39.1688
 20
-40.1058
 11
39.2447
 21
-39.9774
  0
LINE
  8
0
 10
39.2447
 20
-39.9774
 11
39.3286
 21
-39.854
  0
LINE
  8
0
 10
39.3286
 20
-39.854
 11
39.42
 21
-39.7361
  0
LINE
  8
0
 10
39.42
 20
-39.7361
 11
39.5187
 21
-39.6242
  0
LINE
  8
0
 10
39.5187
 20
-39.6242
 11
39.6242
 21
-39.5187
  0
LINE
  8
0
 10
39.6242
 20
-39.5187
 11
39.7361
 21
-39.42
  0
LINE
  8
0
 10
39.7361
 20
-39.42
 11
39.854
 21
-39.3286
  0
LINE
  8
0
 10
39.854
 20
-39.3286
 11
39.9774
 21
-39.2447
  0
LINE
  8
0
 10
39.9774
 20
-39.2447
 11
40.1058
 21
-39.1688
  0
LINE
  8
0
 10
40.1058
 20
-39.1688
 11
40.2388
 21
-39.101
  0
LINE
  8
0
 10
40.2388
 20
-39.101
 11
40.3757
 21
-39.0418
  0
LINE
  8
0
 10
40.3757
 20
-39.0418
 11
40.5161
 21
-38.9912
  0
LINE
  8
0
 10
40.5161
 20
-38.9912
 11
40.6593
 21
-38.9496
  0
LINE
  8
0
 10
40.6593
 20
-38.9496
 11
40.805
 21
-38.9171
  0
LINE
  8
0
 10
40.805
 20
-38.9171
 11
40.9523
 21
-38.8937
  0
LINE
  8
0
 10
40.9523
 20
-38.8937
 11
41.1009
 21
-38.8797
  0
LINE
  8
0
 10
41.1009
 20
-38.8797
 11
41.25
 21
-38.875
  0
LINE
  8
0
 10
41.25
 20
-38.875
 11
41.3991
 21
-38.8797
  0
LINE
  8
0
 10
41.3991
 20
-38.8797
 11
41.5477
 21
-38.8937
  0
LINE
  8
0
 10
41.5477
 20
-38.8937
 11
41.695
 21
-38.9171
  0
LINE
  8
0
 10
41.695
 20
-38.9171
 11
41.8406
 21
-38.9496
  0
LINE
  8
0
 10
41.8406
 20
-38.9496
 11
41.9839
 21
-38.9912
  0
LINE
  8
0
 10
41.9839
 20
-38.9912
 11
42.1243
 21
-39.0418
  0
LINE
  8
0
 10
42.1243
 20
-39.0418
 11
42.2612
 21
-39.101
  0
LINE
  8
0
 10
42.2612
 20
-39.101
 11
42.3941
 21
-39.1688
  0
LINE
  8
0
 10
42.3941
 20
-39.1688
 11
42.5226
 21
-39.2447
  0
LINE
  8
0
 10
42.5226
 20
-39.2447
 11
42.646
 21
-39.3286
  0
LINE
  8
0
 10
42.646
 20
-39.3286
 11
42.7639
 21
-39.42
  0
LINE
  8
0
 10
42.7639
 20
-39.42
 11
42.8758
 21
-39.5187
  0
LINE
  8
0
 10
42.8758
 20
-39.5187
 11
42.9813
 21
-39.6242
  0
LINE
  8
0
 10
42.9813
 20
-39.6242
 11
43.08
 21
-39.7361
  0
LINE
  8
0
 10
43.08
 20
-39.7361
 11
43.1714
 21
-39.854
  0
LINE
  8
0
 10
43.1714
 20
-39.854
 11
43.2553
 21
-39.9774
  0
LINE
  8
0
 10
43.2553
 20
-39.9774
 11
43.3312
 21
-40.1058
  0
LINE
  8
0
 10
43.3312
 20
-40.1058
 11
43.399
 21
-40.2388
  0
LINE
  8
0
 10
43.399
 20
-40.2388
 11
43.4582
 21
-40.3757
  0
LINE
  8
0
 10
43.4582
 20
-40.3757
 11
43.5088
 21
-40.5161
  0
LINE
  8
0
 10
43.5088
 20
-40.5161
 11
43.5504
 21
-40.6593
  0
LINE
  8
0
 10
43.5504
 20
-40.6593
 11
43.5829
 21
-40.805
  0
LINE
  8
0
 10
43.5829
 20
-40.805
 11
43.6063
 21
-40.9523
  0
LINE
  8
0
 10
43.6063
 20
-40.9523
 11
43.6203
 21
-41.1009
  0
LINE
  8
0
 10
43.6203
 20
-41.1009
 11
43.625
 21
-41.25
  0
LINE
  8
0
 10
43.625
 20
-41.25
 11
43.6203
 21
-41.3991
  0
LINE
  8
0
 10
43.6203
 20
-41.3991
 11
43.6063
 21
-41.5477
  0
LINE
  8
0
 10
43.6063
 20
-41.5477
 11
43.5829
 21
-41.695
  0
LINE
  8
0
 10
43.5829
 20
-41.695
 11
43.5504
 21
-41.8406
  0
LINE
  8
0
 10
43.5504
 20
-41.8406
 11
43.5088
 21
-41.9839
  0
LINE
  8
0
 10
43.5088
 20
-41.9839
 11
43.4582
 21
-42.1243
  0
LINE
  8
0
 10
43.4582
 20
-42.1243
 11
43.399
 21
-42.2612
  0
LINE
  8
0
 10
43.399
 20
-42.2612
 11
43.3312
 21
-42.3941
  0
LINE
  8
0
 10
43.3312
 20
-42.3941
 11
43.2553
 21
-42.5226
  0
LINE
  8
0
 10
43.2553
 20
-42.5226
 11
43.1714
 21
-42.646
  0
LINE
  8
0
 10
43.1714
 20
-42.646
 11
43.08
 21
-42.7639
  0
LINE
  8
0
 10
43.08
 20
-42.7639
 11
42.9813
 21
-42.8758
  0
LINE
  8
0
 10
42.9813
 20
-42.8758
 11
42.8758
 21
-42.9813
  0
LINE
  8
0
 10
42.8758
 20
-42.9813
 11
42.7639
 21
-43.08
  0
LINE
  8
0
 10
42.7639
 20
-43.08
 11
42.646
 21
-43.1714
  0
LINE
  8
0
 10
42.646
 20
-43.1714
 11
42.5226
 21
-43.2553
  0
LINE
  8
0
 10
42.5226
 20
-43.2553
 11
42.3941
 21
-43.3312
  0
LINE
  8
0
 10
42.3941
 20
-43.3312
 11
42.2612
 21
-43.399
  0
LINE
  8
0
 10
42.2612
 20
-43.399
 11
42.1243
 21
-43.4582
  0
LINE
  8
0
 10
42.1243
 20
-43.4582
 11
41.9839
 21
-43.5088
  0
LINE
  8
0
 10
41.9839
 20
-43.5088
 11
41.8406
 21
-43.5504
  0
LINE
  8
0
 10
41.8406
 20
-43.5504
 11
41.695
 21
-43.5829
  0
LINE
  8
0
 10
41.695
 20
-43.5829
 11
41.5477
 21
-43.6063
  0
LINE
  8
0
 10
41.5477
 20
-43.6063
 11
41.3991
 21
-43.6203
  0
LINE
  8
0
 10
41.3991
 20
-43.6203
 11
41.25
 21
-43.625
  0
LINE
  8
0
 10
41.25
 20
-43.625
 11
41.1009
 21
-43.6203
  0
ENDSEC
  0
SECTION
  2
OBJECTS
  0
DICTIONARY
  0
ENDSEC
  0
EOF
