  0
SECTION
  2
HEADER
  9
$ACADVER
  1
AC1009
  9
$DWGCODEPAGE
  3
ANSI_1252
  9
$INSBASE
 10
0.0
 20
0.0
 30
0.0
  9
$EXTMIN
 10
1e+20
 20
1e+20
 30
1e+20
  9
$EXTMAX
 10
-1e+20
 20
-1e+20
 30
-1e+20
  9
$LIMMIN
 10
0.0
 20
0.0
  9
$LIMMAX
 10
420.0
 20
297.0
  9
$ORTHOMODE
 70
0
  9
$REGENMODE
 70
1
  9
$FILLMODE
 70
1
  9
$DRAGMODE
 70
2
  9
$QTEXTMODE
 70
0
  9
$MIRRTEXT
 70
1
  9
$OSMODE
 70
20583
  9
$LTSCALE
 40
1.0
  9
$ATTMODE
 70
1
  9
$TEXTSIZE
 40
2.5
  9
$TRACEWID
 40
1.0
  9
$TEXTSTYLE
  7
Standard
  9
$CLAYER
  8
0
  9
$CELTYPE
  6
ByLayer
  9
$CECOLOR
 62
256
  9
$DIMSCALE
 40
1.0
  9
$DIMASZ
 40
2.5
  9
$DIMEXO
 40
0.625
  9
$DIMDLI
 40
3.75
  9
$DIMRND
 40
0.0
  9
$DIMDLE
 40
0.0
  9
$DIMEXE
 40
1.25
  9
$DIMTP
 40
0.0
  9
$DIMTM
 40
0.0
  9
$DIMTXT
 40
2.5
  9
$DIMCEN
 40
2.5
  9
$DIMTSZ
 40
0.0
  9
$DIMTOL
 70
0
  9
$DIMLIM
 70
0
  9
$DIMTIH
 70
0
  9
$DIMTOH
 70
0
  9
$DIMSE1
 70
0
  9
$DIMSE2
 70
0
  9
$DIMTAD
 70
1
  9
$DIMZIN
 70
8
  9
$DIMBLK
  1

  9
$DIMASO
 70
1
  9
$DIMSHO
 70
1
  9
$DIMPOST
  1

  9
$DIMAPOST
  1

  9
$DIMALT
 70
0
  9
$DIMALTD
 70
3
  9
$DIMALTF
 40
0.03937007874
  9
$DIMLFAC
 40
1.0
  9
$DIMTOFL
 70
1
  9
$DIMTVP
 40
0.0
  9
$DIMTIX
 70
0
  9
$DIMSOXD
 70
0
  9
$DIMSAH
 70
0
  9
$DIMBLK1
  1

  9
$DIMBLK2
  1

  9
$DIMSTYLE
  2
ISO-25
  9
$DIMCLRD
 70
0
  9
$DIMCLRE
 70
0
  9
$DIMCLRT
 70
0
  9
$DIMTFAC
 40
1.0
  9
$DIMGAP
 40
0.625
  9
$COORDS
 70
1
  9
$ATTDIA
 70
0
  9
$ATTREQ
 70
1
  9
$HANDLING
 70
1
  9
$LUNITS
 70
2
  9
$LUPREC
 70
4
  9
$SKETCHINC
 40
1.0
  9
$FILLETRAD
 40
10.0
  9
$AUNITS
 70
0
  9
$AUPREC
 70
2
  9
$MENU
  1
.
  9
$ELEVATION
 40
0.0
  9
$PELEVATION
 40
0.0
  9
$THICKNESS
 40
0.0
  9
$LIMCHECK
 70
0
  9
$CHAMFERA
 40
0.0
  9
$CHAMFERB
 40
0.0
  9
$SKPOLY
 70
0
  9
$TDCREATE
 40
2461279.421840278
  9
$TDUPDATE
 40
2461279.421840278
  9
$TDINDWG
 40
0.0
  9
$TDUSRTIMER
 40
0.0
  9
$USRTIMER
 70
1
  9
$ANGBASE
 50
0.0
  9
$ANGDIR
 70
0
  9
$PDMODE
 70
0
  9
$PDSIZE
 40
0.0
  9
$PLINEWID
 40
0.0
  9
$SPLFRAME
 70
0
  9
$SPLINETYPE
 70
6
  9
$SPLINESEGS
 70
8
  9
$HANDSEED
  5
8AB
  9
$SURFTAB1
 70
6
  9
$SURFTAB2
 70
6
  9
$SURFTYPE
 70
6
  9
$SURFU
 70
6
  9
$SURFV
 70
6
  9
$UCSNAME
  2

  9
$UCSORG
 10
0.0
 20
0.0
 30
0.0
  9
$UCSXDIR
 10
1.0
 20
0.0
 30
0.0
  9
$UCSYDIR
 10
0.0
 20
1.0
 30
0.0
  9
$PUCSNAME
  2

  9
$PUCSORG
 10
0.0
 20
0.0
 30
0.0
  9
$PUCSXDIR
 10
1.0
 20
0.0
 30
0.0
  9
$PUCSYDIR
 10
0.0
 20
1.0
 30
0.0
  9
$USERI1
 70
0
  9
$USERI2
 70
0
  9
$USERI3
 70
0
  9
$USERI4
 70
0
  9
$USERI5
 70
0
  9
$USERR1
 40
0.0
  9
$USERR2
 40
0.0
  9
$USERR3
 40
0.0
  9
$USERR4
 40
0.0
  9
$USERR5
 40
0.0
  9
$WORLDVIEW
 70
1
  9
$SHADEDGE
 70
3
  9
$SHADEDIF
 70
70
  9
$TILEMODE
 70
1
  9
$MAXACTVP
 70
64
  9
$PLIMCHECK
 70
0
  9
$PEXTMIN
 10
1e+20
 20
1e+20
 30
1e+20
  9
$PEXTMAX
 10
-1e+20
 20
-1e+20
 30
-1e+20
  9
$PLIMMIN
 10
0.0
 20
0.0
  9
$PLIMMAX
 10
420.0
 20
297.0
  9
$UNITMODE
 70
0
  9
$VISRETAIN
 70
1
  9
$PLINEGEN
 70
0
  9
$PSLTSCALE
 70
1
  0
ENDSEC
  0
SECTION
  2
TABLES
  0
TABLE
  2
VPORT
 70
1
  0
VPORT
  5
89F
  2
*Active
 70
0
 10
0.0
 20
0.0
 11
1.0
 21
1.0
 12
0.0
 22
0.0
 13
0.0
 23
0.0
 14
0.5
 24
0.5
 15
0.5
 25
0.5
 16
0.0
 26
0.0
 36
1.0
 17
0.0
 27
0.0
 37
0.0
 40
1000.0
 41
1.34
 42
50.0
 43
0.0
 44
0.0
 50
0.0
 51
0.0
 71
0
 72
1000
 73
1
 74
3
 75
0
 76
0
 77
0
 78
0
  0
ENDTAB
  0
TABLE
  2
LTYPE
 70
3
  0
LTYPE
  5
8A0
  2
ByBlock
 70
0
  3

 72
65
 73
0
 40
0.0
  0
LTYPE
  5
8A1
  2
ByLayer
 70
0
  3

 72
65
 73
0
 40
0.0
  0
LTYPE
  5
8A2
  2
Continuous
 70
0
  3

 72
65
 73
0
 40
0.0
  0
ENDTAB
  0
TABLE
  2
LAYER
 70
2
  0
LAYER
  5
8A3
  2
0
 70
0
 62
1
  6
Continuous
  0
LAYER
  5
8A4
  2
Defpoints
 70
0
 62
7
  6
Continuous
  0
ENDTAB
  0
TABLE
  2
STYLE
 70
1
  0
STYLE
  5
8A5
  2
Standard
 70
0
 40
0.0
 41
1.0
 50
0.0
 71
0
 42
2.5
  3
txt
  4

  0
ENDTAB
  0
TABLE
  2
VIEW
 70
0
  0
ENDTAB
  0
TABLE
  2
UCS
 70
0
  0
ENDTAB
  0
TABLE
  2
APPID
 70
3
  0
APPID
  5
8A6
  2
ACAD
 70
0
  0
APPID
  5
8A9
  2
HATCHBACKGROUNDCOLOR
 70
0
  0
APPID
  5
8AA
  2
EZDXF
 70
0
  0
ENDTAB
  0
TABLE
  2
DIMSTYLE
 70
1
  0
DIMSTYLE
105
8A7
  2
Standard
 70
0
  3

  4

  5

  6

  7

 40
1.0
 41
2.5
 42
0.625
 43
3.75
 44
1.25
 45
0.0
 46
0.0
 47
0.0
 48
0.0
140
2.5
141
2.5
142
0.0
143
0.03937007874
144
1.0
145
0.0
146
1.0
147
0.625
 71
0
 72
0
 73
0
 74
0
 75
0
 76
0
 77
1
 78
8
170
0
171
3
172
1
173
0
174
0
175
0
176
0
177
0
178
0
  0
ENDTAB
  0
ENDSEC
  0
SECTION
  2
BLOCKS
  0
BLOCK
  5
880
  8
0
  2
$Model_Space
 70
0
 10
0.0
 20
0.0
 30
0.0
  3
$Model_Space
  1

1001
EZDXF
1000
WRITTEN_BY_EZDXF
1000
1.4.4 @ 2026-08-26T14:07:27.605307+00:00
  0
ENDBLK
  5
881
  8
0
  0
BLOCK
  5
882
  8
0
  2
$Paper_Space
 70
0
 10
0.0
 20
0.0
 30
0.0
  3
$Paper_Space
  1

  0
ENDBLK
  5
883
  8
0
  0
ENDSEC
  0
SECTION
  2
ENTITIES
  0
LINE
  5
100
  8
0
 62
1
 10
88.9
 20
67.5
 30
0.0
 11
-88.9
 21
67.5
 31
0.0
  0
LINE
  5
101
  8
0
 62
1
 10
-88.9
 20
67.5
 30
0.0
 11
-88.9
 21
-67.5
 31
0.0
  0
LINE
  5
102
  8
0
 62
1
 10
-88.9
 20
-67.5
 30
0.0
 11
88.9
 21
-67.5
 31
0.0
  0
LINE
  5
103
  8
0
 62
1
 10
88.9
 20
-67.5
 30
0.0
 11
88.9
 21
67.5
 31
0.0
  0
LINE
  5
104
  8
0
 62
1
 10
-59.9002
 20
3.17499
 30
0.0
 11
-59.8816
 21
3.76743
 31
0.0
  0
LINE
  5
105
  8
0
 62
1
 10
-59.8816
 20
3.76743
 30
0.0
 11
-59.5269
 21
7.51999
 31
0.0
  0
LINE
  5
106
  8
0
 62
1
 10
-59.5269
 20
7.51999
 30
0.0
 11
-58.9372
 21
11.2429
 31
0.0
  0
LINE
  5
107
  8
0
 62
1
 10
-58.9372
 20
11.2429
 30
0.0
 11
-58.115
 21
14.9214
 31
0.0
  0
LINE
  5
108
  8
0
 62
1
 10
-58.115
 20
14.9214
 30
0.0
 11
-57.0634
 21
18.541
 31
0.0
  0
LINE
  5
109
  8
0
 62
1
 10
-57.0634
 20
18.541
 30
0.0
 11
-55.7866
 21
22.0875
 31
0.0
  0
LINE
  5
10A
  8
0
 62
1
 10
-55.7866
 20
22.0875
 30
0.0
 11
-54.2896
 21
25.5468
 31
0.0
  0
LINE
  5
10B
  8
0
 62
1
 10
-54.2896
 20
25.5468
 30
0.0
 11
-52.5784
 21
28.9052
 31
0.0
  0
LINE
  5
10C
  8
0
 62
1
 10
-52.5784
 20
28.9052
 30
0.0
 11
-50.6597
 21
32.1496
 31
0.0
  0
LINE
  5
10D
  8
0
 62
1
 10
-50.6597
 20
32.1496
 30
0.0
 11
-48.541
 21
35.2671
 31
0.0
  0
LINE
  5
10E
  8
0
 62
1
 10
-48.541
 20
35.2671
 30
0.0
 11
-46.2308
 21
38.2454
 31
0.0
  0
LINE
  5
10F
  8
0
 62
1
 10
-46.2308
 20
38.2454
 30
0.0
 11
-43.7381
 21
41.0728
 31
0.0
  0
LINE
  5
110
  8
0
 62
1
 10
-43.7381
 20
41.0728
 30
0.0
 11
-41.0728
 21
43.7381
 31
0.0
  0
LINE
  5
111
  8
0
 62
1
 10
-41.0728
 20
43.7381
 30
0.0
 11
-38.2454
 21
46.2308
 31
0.0
  0
LINE
  5
112
  8
0
 62
1
 10
-38.2454
 20
46.2308
 30
0.0
 11
-35.2671
 21
48.541
 31
0.0
  0
LINE
  5
113
  8
0
 62
1
 10
-35.2671
 20
48.541
 30
0.0
 11
-32.1496
 21
50.6597
 31
0.0
  0
LINE
  5
114
  8
0
 62
1
 10
-32.1496
 20
50.6597
 30
0.0
 11
-28.9052
 21
52.5784
 31
0.0
  0
LINE
  5
115
  8
0
 62
1
 10
-28.9052
 20
52.5784
 30
0.0
 11
-25.5468
 21
54.2896
 31
0.0
  0
LINE
  5
116
  8
0
 62
1
 10
-25.5468
 20
54.2896
 30
0.0
 11
-22.0875
 21
55.7866
 31
0.0
  0
LINE
  5
117
  8
0
 62
1
 10
-22.0875
 20
55.7866
 30
0.0
 11
-18.541
 21
57.0634
 31
0.0
  0
LINE
  5
118
  8
0
 62
1
 10
-18.541
 20
57.0634
 30
0.0
 11
-14.9214
 21
58.115
 31
0.0
  0
LINE
  5
119
  8
0
 62
1
 10
-14.9214
 20
58.115
 30
0.0
 11
-11.2429
 21
58.9372
 31
0.0
  0
LINE
  5
11A
  8
0
 62
1
 10
-11.2429
 20
58.9372
 30
0.0
 11
-7.51999
 21
59.5269
 31
0.0
  0
LINE
  5
11B
  8
0
 62
1
 10
-7.51999
 20
59.5269
 30
0.0
 11
-3.76743
 21
59.8816
 31
0.0
  0
LINE
  5
11C
  8
0
 62
1
 10
-3.76743
 20
59.8816
 30
0.0
 11
-3.17499
 21
59.9002
 31
0.0
  0
LINE
  5
11D
  8
0
 62
1
 10
-3.17499
 20
59.9002
 30
0.0
 11
-3.17499
 21
25.2005
 31
0.0
  0
LINE
  5
11E
  8
0
 62
1
 10
-3.17499
 20
25.2005
 30
0.0
 11
-3.18346
 21
25.1997
 31
0.0
  0
LINE
  5
11F
  8
0
 62
1
 10
-3.18346
 20
25.1997
 30
0.0
 11
-4.75948
 21
24.9501
 31
0.0
  0
LINE
  5
120
  8
0
 62
1
 10
-4.75948
 20
24.9501
 30
0.0
 11
-6.31671
 21
24.602
 31
0.0
  0
LINE
  5
121
  8
0
 62
1
 10
-6.31671
 20
24.602
 30
0.0
 11
-7.84903
 21
24.1568
 31
0.0
  0
LINE
  5
122
  8
0
 62
1
 10
-7.84903
 20
24.1568
 30
0.0
 11
-9.35036
 21
23.6163
 31
0.0
  0
LINE
  5
123
  8
0
 62
1
 10
-9.35036
 20
23.6163
 30
0.0
 11
-10.8148
 21
22.9826
 31
0.0
  0
LINE
  5
124
  8
0
 62
1
 10
-10.8148
 20
22.9826
 30
0.0
 11
-12.2365
 21
22.2582
 31
0.0
  0
LINE
  5
125
  8
0
 62
1
 10
-12.2365
 20
22.2582
 30
0.0
 11
-13.61
 21
21.4459
 31
0.0
  0
LINE
  5
126
  8
0
 62
1
 10
-13.61
 20
21.4459
 30
0.0
 11
-14.9297
 21
20.549
 31
0.0
  0
LINE
  5
127
  8
0
 62
1
 10
-14.9297
 20
20.549
 30
0.0
 11
-16.1906
 21
19.571
 31
0.0
  0
LINE
  5
128
  8
0
 62
1
 10
-16.1906
 20
19.571
 30
0.0
 11
-17.3875
 21
18.5158
 31
0.0
  0
LINE
  5
129
  8
0
 62
1
 10
-17.3875
 20
18.5158
 30
0.0
 11
-18.5158
 21
17.3875
 31
0.0
  0
LINE
  5
12A
  8
0
 62
1
 10
-18.5158
 20
17.3875
 30
0.0
 11
-19.571
 21
16.1906
 31
0.0
  0
LINE
  5
12B
  8
0
 62
1
 10
-19.571
 20
16.1906
 30
0.0
 11
-20.549
 21
14.9297
 31
0.0
  0
LINE
  5
12C
  8
0
 62
1
 10
-20.549
 20
14.9297
 30
0.0
 11
-21.4459
 21
13.61
 31
0.0
  0
LINE
  5
12D
  8
0
 62
1
 10
-21.4459
 20
13.61
 30
0.0
 11
-22.2582
 21
12.2365
 31
0.0
  0
LINE
  5
12E
  8
0
 62
1
 10
-22.2582
 20
12.2365
 30
0.0
 11
-22.9826
 21
10.8148
 31
0.0
  0
LINE
  5
12F
  8
0
 62
1
 10
-22.9826
 20
10.8148
 30
0.0
 11
-23.6163
 21
9.35036
 31
0.0
  0
LINE
  5
130
  8
0
 62
1
 10
-23.6163
 20
9.35036
 30
0.0
 11
-24.1568
 21
7.84903
 31
0.0
  0
LINE
  5
131
  8
0
 62
1
 10
-24.1568
 20
7.84903
 30
0.0
 11
-24.602
 21
6.31671
 31
0.0
  0
LINE
  5
132
  8
0
 62
1
 10
-24.602
 20
6.31671
 30
0.0
 11
-24.9501
 21
4.75948
 31
0.0
  0
LINE
  5
133
  8
0
 62
1
 10
-24.9501
 20
4.75948
 30
0.0
 11
-25.1997
 21
3.18346
 31
0.0
  0
LINE
  5
134
  8
0
 62
1
 10
-25.1997
 20
3.18346
 30
0.0
 11
-25.2005
 21
3.17499
 31
0.0
  0
LINE
  5
135
  8
0
 62
1
 10
-25.2005
 20
3.17499
 30
0.0
 11
-59.9002
 21
3.17499
 31
0.0
  0
LINE
  5
136
  8
0
 62
1
 10
25.2005
 20
3.17499
 30
0.0
 11
25.1997
 21
3.18346
 31
0.0
  0
LINE
  5
137
  8
0
 62
1
 10
25.1997
 20
3.18346
 30
0.0
 11
24.9501
 21
4.75948
 31
0.0
  0
LINE
  5
138
  8
0
 62
1
 10
24.9501
 20
4.75948
 30
0.0
 11
24.602
 21
6.31671
 31
0.0
  0
LINE
  5
139
  8
0
 62
1
 10
24.602
 20
6.31671
 30
0.0
 11
24.1568
 21
7.84903
 31
0.0
  0
LINE
  5
13A
  8
0
 62
1
 10
24.1568
 20
7.84903
 30
0.0
 11
23.6163
 21
9.35036
 31
0.0
  0
LINE
  5
13B
  8
0
 62
1
 10
23.6163
 20
9.35036
 30
0.0
 11
22.9826
 21
10.8148
 31
0.0
  0
LINE
  5
13C
  8
0
 62
1
 10
22.9826
 20
10.8148
 30
0.0
 11
22.2582
 21
12.2365
 31
0.0
  0
LINE
  5
13D
  8
0
 62
1
 10
22.2582
 20
12.2365
 30
0.0
 11
21.4459
 21
13.61
 31
0.0
  0
LINE
  5
13E
  8
0
 62
1
 10
21.4459
 20
13.61
 30
0.0
 11
20.549
 21
14.9297
 31
0.0
  0
LINE
  5
13F
  8
0
 62
1
 10
20.549
 20
14.9297
 30
0.0
 11
19.571
 21
16.1906
 31
0.0
  0
LINE
  5
140
  8
0
 62
1
 10
19.571
 20
16.1906
 30
0.0
 11
18.5158
 21
17.3875
 31
0.0
  0
LINE
  5
141
  8
0
 62
1
 10
18.5158
 20
17.3875
 30
0.0
 11
17.3875
 21
18.5158
 31
0.0
  0
LINE
  5
142
  8
0
 62
1
 10
17.3875
 20
18.5158
 30
0.0
 11
16.1906
 21
19.571
 31
0.0
  0
LINE
  5
143
  8
0
 62
1
 10
16.1906
 20
19.571
 30
0.0
 11
14.9297
 21
20.549
 31
0.0
  0
LINE
  5
144
  8
0
 62
1
 10
14.9297
 20
20.549
 30
0.0
 11
13.61
 21
21.4459
 31
0.0
  0
LINE
  5
145
  8
0
 62
1
 10
13.61
 20
21.4459
 30
0.0
 11
12.2365
 21
22.2582
 31
0.0
  0
LINE
  5
146
  8
0
 62
1
 10
12.2365
 20
22.2582
 30
0.0
 11
10.8148
 21
22.9826
 31
0.0
  0
LINE
  5
147
  8
0
 62
1
 10
10.8148
 20
22.9826
 30
0.0
 11
9.35036
 21
23.6163
 31
0.0
  0
LINE
  5
148
  8
0
 62
1
 10
9.35036
 20
23.6163
 30
0.0
 11
7.84903
 21
24.1568
 31
0.0
  0
LINE
  5
149
  8
0
 62
1
 10
7.84903
 20
24.1568
 30
0.0
 11
6.31671
 21
24.602
 31
0.0
  0
LINE
  5
14A
  8
0
 62
1
 10
6.31671
 20
24.602
 30
0.0
 11
4.75948
 21
24.9501
 31
0.0
  0
LINE
  5
14B
  8
0
 62
1
 10
4.75948
 20
24.9501
 30
0.0
 11
3.18346
 21
25.1997
 31
0.0
  0
LINE
  5
14C
  8
0
 62
1
 10
3.18346
 20
25.1997
 30
0.0
 11
3.17499
 21
25.2005
 31
0.0
  0
LINE
  5
14D
  8
0
 62
1
 10
3.17499
 20
25.2005
 30
0.0
 11
3.17499
 21
59.9002
 31
0.0
  0
LINE
  5
14E
  8
0
 62
1
 10
3.17499
 20
59.9002
 30
0.0
 11
3.76743
 21
59.8816
 31
0.0
  0
LINE
  5
14F
  8
0
 62
1
 10
3.76743
 20
59.8816
 30
0.0
 11
7.51999
 21
59.5269
 31
0.0
  0
LINE
  5
150
  8
0
 62
1
 10
7.51999
 20
59.5269
 30
0.0
 11
11.2429
 21
58.9372
 31
0.0
  0
LINE
  5
151
  8
0
 62
1
 10
11.2429
 20
58.9372
 30
0.0
 11
14.9214
 21
58.115
 31
0.0
  0
LINE
  5
152
  8
0
 62
1
 10
14.9214
 20
58.115
 30
0.0
 11
18.541
 21
57.0634
 31
0.0
  0
LINE
  5
153
  8
0
 62
1
 10
18.541
 20
57.0634
 30
0.0
 11
22.0875
 21
55.7866
 31
0.0
  0
LINE
  5
154
  8
0
 62
1
 10
22.0875
 20
55.7866
 30
0.0
 11
25.5468
 21
54.2896
 31
0.0
  0
LINE
  5
155
  8
0
 62
1
 10
25.5468
 20
54.2896
 30
0.0
 11
28.9052
 21
52.5784
 31
0.0
  0
LINE
  5
156
  8
0
 62
1
 10
28.9052
 20
52.5784
 30
0.0
 11
32.1496
 21
50.6597
 31
0.0
  0
LINE
  5
157
  8
0
 62
1
 10
32.1496
 20
50.6597
 30
0.0
 11
35.2671
 21
48.541
 31
0.0
  0
LINE
  5
158
  8
0
 62
1
 10
35.2671
 20
48.541
 30
0.0
 11
38.2454
 21
46.2308
 31
0.0
  0
LINE
  5
159
  8
0
 62
1
 10
38.2454
 20
46.2308
 30
0.0
 11
41.0728
 21
43.7381
 31
0.0
  0
LINE
  5
15A
  8
0
 62
1
 10
41.0728
 20
43.7381
 30
0.0
 11
43.7381
 21
41.0728
 31
0.0
  0
LINE
  5
15B
  8
0
 62
1
 10
43.7381
 20
41.0728
 30
0.0
 11
46.2308
 21
38.2454
 31
0.0
  0
LINE
  5
15C
  8
0
 62
1
 10
46.2308
 20
38.2454
 30
0.0
 11
48.541
 21
35.2671
 31
0.0
  0
LINE
  5
15D
  8
0
 62
1
 10
48.541
 20
35.2671
 30
0.0
 11
50.6597
 21
32.1496
 31
0.0
  0
LINE
  5
15E
  8
0
 62
1
 10
50.6597
 20
32.1496
 30
0.0
 11
52.5784
 21
28.9052
 31
0.0
  0
LINE
  5
15F
  8
0
 62
1
 10
52.5784
 20
28.9052
 30
0.0
 11
54.2896
 21
25.5468
 31
0.0
  0
LINE
  5
160
  8
0
 62
1
 10
54.2896
 20
25.5468
 30
0.0
 11
55.7866
 21
22.0875
 31
0.0
  0
LINE
  5
161
  8
0
 62
1
 10
55.7866
 20
22.0875
 30
0.0
 11
57.0634
 21
18.541
 31
0.0
  0
LINE
  5
162
  8
0
 62
1
 10
57.0634
 20
18.541
 30
0.0
 11
58.115
 21
14.9214
 31
0.0
  0
LINE
  5
163
  8
0
 62
1
 10
58.115
 20
14.9214
 30
0.0
 11
58.9372
 21
11.2429
 31
0.0
  0
LINE
  5
164
  8
0
 62
1
 10
58.9372
 20
11.2429
 30
0.0
 11
59.5269
 21
7.51999
 31
0.0
  0
LINE
  5
165
  8
0
 62
1
 10
59.5269
 20
7.51999
 30
0.0
 11
59.8816
 21
3.76743
 31
0.0
  0
LINE
  5
166
  8
0
 62
1
 10
59.8816
 20
3.76743
 30
0.0
 11
59.9002
 21
3.17499
 31
0.0
  0
LINE
  5
167
  8
0
 62
1
 10
59.9002
 20
3.17499
 30
0.0
 11
25.2005
 21
3.17499
 31
0.0
  0
LINE
  5
168
  8
0
 62
1
 10
-52.407
 20
49.7549
 30
0.0
 11
-52.5633
 21
49.7697
 31
0.0
  0
LINE
  5
169
  8
0
 62
1
 10
-52.5633
 20
49.7697
 30
0.0
 11
-52.7184
 21
49.7943
 31
0.0
  0
LINE
  5
16A
  8
0
 62
1
 10
-52.7184
 20
49.7943
 30
0.0
 11
-52.8717
 21
49.8285
 31
0.0
  0
LINE
  5
16B
  8
0
 62
1
 10
-52.8717
 20
49.8285
 30
0.0
 11
-53.0225
 21
49.8723
 31
0.0
  0
LINE
  5
16C
  8
0
 62
1
 10
-53.0225
 20
49.8723
 30
0.0
 11
-53.1703
 21
49.9256
 31
0.0
  0
LINE
  5
16D
  8
0
 62
1
 10
-53.1703
 20
49.9256
 30
0.0
 11
-53.3144
 21
49.9879
 31
0.0
  0
LINE
  5
16E
  8
0
 62
1
 10
-53.3144
 20
49.9879
 30
0.0
 11
-53.4544
 21
50.0592
 31
0.0
  0
LINE
  5
16F
  8
0
 62
1
 10
-53.4544
 20
50.0592
 30
0.0
 11
-53.5896
 21
50.1392
 31
0.0
  0
LINE
  5
170
  8
0
 62
1
 10
-53.5896
 20
50.1392
 30
0.0
 11
-53.7195
 21
50.2274
 31
0.0
  0
LINE
  5
171
  8
0
 62
1
 10
-53.7195
 20
50.2274
 30
0.0
 11
-53.8436
 21
50.3237
 31
0.0
  0
LINE
  5
172
  8
0
 62
1
 10
-53.8436
 20
50.3237
 30
0.0
 11
-53.9614
 21
50.4276
 31
0.0
  0
LINE
  5
173
  8
0
 62
1
 10
-53.9614
 20
50.4276
 30
0.0
 11
-54.0724
 21
50.5386
 31
0.0
  0
LINE
  5
174
  8
0
 62
1
 10
-54.0724
 20
50.5386
 30
0.0
 11
-54.1763
 21
50.6564
 31
0.0
  0
LINE
  5
175
  8
0
 62
1
 10
-54.1763
 20
50.6564
 30
0.0
 11
-54.2725
 21
50.7805
 31
0.0
  0
LINE
  5
176
  8
0
 62
1
 10
-54.2725
 20
50.7805
 30
0.0
 11
-54.3608
 21
50.9104
 31
0.0
  0
LINE
  5
177
  8
0
 62
1
 10
-54.3608
 20
50.9104
 30
0.0
 11
-54.4408
 21
51.0456
 31
0.0
  0
LINE
  5
178
  8
0
 62
1
 10
-54.4408
 20
51.0456
 30
0.0
 11
-54.5121
 21
51.1855
 31
0.0
  0
LINE
  5
179
  8
0
 62
1
 10
-54.5121
 20
51.1855
 30
0.0
 11
-54.5744
 21
51.3297
 31
0.0
  0
LINE
  5
17A
  8
0
 62
1
 10
-54.5744
 20
51.3297
 30
0.0
 11
-54.6276
 21
51.4774
 31
0.0
  0
LINE
  5
17B
  8
0
 62
1
 10
-54.6276
 20
51.4774
 30
0.0
 11
-54.6714
 21
51.6283
 31
0.0
  0
LINE
  5
17C
  8
0
 62
1
 10
-54.6714
 20
51.6283
 30
0.0
 11
-54.7057
 21
51.7815
 31
0.0
  0
LINE
  5
17D
  8
0
 62
1
 10
-54.7057
 20
51.7815
 30
0.0
 11
-54.7303
 21
51.9367
 31
0.0
  0
LINE
  5
17E
  8
0
 62
1
 10
-54.7303
 20
51.9367
 30
0.0
 11
-54.7451
 21
52.093
 31
0.0
  0
LINE
  5
17F
  8
0
 62
1
 10
-54.7451
 20
52.093
 30
0.0
 11
-54.75
 21
52.25
 31
0.0
  0
LINE
  5
180
  8
0
 62
1
 10
-54.75
 20
52.25
 30
0.0
 11
-54.7451
 21
52.407
 31
0.0
  0
LINE
  5
181
  8
0
 62
1
 10
-54.7451
 20
52.407
 30
0.0
 11
-54.7303
 21
52.5633
 31
0.0
  0
LINE
  5
182
  8
0
 62
1
 10
-54.7303
 20
52.5633
 30
0.0
 11
-54.7057
 21
52.7184
 31
0.0
  0
LINE
  5
183
  8
0
 62
1
 10
-54.7057
 20
52.7184
 30
0.0
 11
-54.6714
 21
52.8717
 31
0.0
  0
LINE
  5
184
  8
0
 62
1
 10
-54.6714
 20
52.8717
 30
0.0
 11
-54.6276
 21
53.0225
 31
0.0
  0
LINE
  5
185
  8
0
 62
1
 10
-54.6276
 20
53.0225
 30
0.0
 11
-54.5744
 21
53.1703
 31
0.0
  0
LINE
  5
186
  8
0
 62
1
 10
-54.5744
 20
53.1703
 30
0.0
 11
-54.5121
 21
53.3144
 31
0.0
  0
LINE
  5
187
  8
0
 62
1
 10
-54.5121
 20
53.3144
 30
0.0
 11
-54.4408
 21
53.4544
 31
0.0
  0
LINE
  5
188
  8
0
 62
1
 10
-54.4408
 20
53.4544
 30
0.0
 11
-54.3608
 21
53.5896
 31
0.0
  0
LINE
  5
189
  8
0
 62
1
 10
-54.3608
 20
53.5896
 30
0.0
 11
-54.2725
 21
53.7195
 31
0.0
  0
LINE
  5
18A
  8
0
 62
1
 10
-54.2725
 20
53.7195
 30
0.0
 11
-54.1763
 21
53.8436
 31
0.0
  0
LINE
  5
18B
  8
0
 62
1
 10
-54.1763
 20
53.8436
 30
0.0
 11
-54.0724
 21
53.9614
 31
0.0
  0
LINE
  5
18C
  8
0
 62
1
 10
-54.0724
 20
53.9614
 30
0.0
 11
-53.9614
 21
54.0724
 31
0.0
  0
LINE
  5
18D
  8
0
 62
1
 10
-53.9614
 20
54.0724
 30
0.0
 11
-53.8436
 21
54.1763
 31
0.0
  0
LINE
  5
18E
  8
0
 62
1
 10
-53.8436
 20
54.1763
 30
0.0
 11
-53.7195
 21
54.2725
 31
0.0
  0
LINE
  5
18F
  8
0
 62
1
 10
-53.7195
 20
54.2725
 30
0.0
 11
-53.5896
 21
54.3608
 31
0.0
  0
LINE
  5
190
  8
0
 62
1
 10
-53.5896
 20
54.3608
 30
0.0
 11
-53.4544
 21
54.4408
 31
0.0
  0
LINE
  5
191
  8
0
 62
1
 10
-53.4544
 20
54.4408
 30
0.0
 11
-53.3144
 21
54.5121
 31
0.0
  0
LINE
  5
192
  8
0
 62
1
 10
-53.3144
 20
54.5121
 30
0.0
 11
-53.1703
 21
54.5744
 31
0.0
  0
LINE
  5
193
  8
0
 62
1
 10
-53.1703
 20
54.5744
 30
0.0
 11
-53.0225
 21
54.6276
 31
0.0
  0
LINE
  5
194
  8
0
 62
1
 10
-53.0225
 20
54.6276
 30
0.0
 11
-52.8717
 21
54.6714
 31
0.0
  0
LINE
  5
195
  8
0
 62
1
 10
-52.8717
 20
54.6714
 30
0.0
 11
-52.7184
 21
54.7057
 31
0.0
  0
LINE
  5
196
  8
0
 62
1
 10
-52.7184
 20
54.7057
 30
0.0
 11
-52.5633
 21
54.7303
 31
0.0
  0
LINE
  5
197
  8
0
 62
1
 10
-52.5633
 20
54.7303
 30
0.0
 11
-52.407
 21
54.7451
 31
0.0
  0
LINE
  5
198
  8
0
 62
1
 10
-52.407
 20
54.7451
 30
0.0
 11
-52.25
 21
54.75
 31
0.0
  0
LINE
  5
199
  8
0
 62
1
 10
-52.25
 20
54.75
 30
0.0
 11
-52.093
 21
54.7451
 31
0.0
  0
LINE
  5
19A
  8
0
 62
1
 10
-52.093
 20
54.7451
 30
0.0
 11
-51.9367
 21
54.7303
 31
0.0
  0
LINE
  5
19B
  8
0
 62
1
 10
-51.9367
 20
54.7303
 30
0.0
 11
-51.7815
 21
54.7057
 31
0.0
  0
LINE
  5
19C
  8
0
 62
1
 10
-51.7815
 20
54.7057
 30
0.0
 11
-51.6283
 21
54.6714
 31
0.0
  0
LINE
  5
19D
  8
0
 62
1
 10
-51.6283
 20
54.6714
 30
0.0
 11
-51.4774
 21
54.6276
 31
0.0
  0
LINE
  5
19E
  8
0
 62
1
 10
-51.4774
 20
54.6276
 30
0.0
 11
-51.3297
 21
54.5744
 31
0.0
  0
LINE
  5
19F
  8
0
 62
1
 10
-51.3297
 20
54.5744
 30
0.0
 11
-51.1855
 21
54.5121
 31
0.0
  0
LINE
  5
1A0
  8
0
 62
1
 10
-51.1855
 20
54.5121
 30
0.0
 11
-51.0456
 21
54.4408
 31
0.0
  0
LINE
  5
1A1
  8
0
 62
1
 10
-51.0456
 20
54.4408
 30
0.0
 11
-50.9104
 21
54.3608
 31
0.0
  0
LINE
  5
1A2
  8
0
 62
1
 10
-50.9104
 20
54.3608
 30
0.0
 11
-50.7805
 21
54.2725
 31
0.0
  0
LINE
  5
1A3
  8
0
 62
1
 10
-50.7805
 20
54.2725
 30
0.0
 11
-50.6564
 21
54.1763
 31
0.0
  0
LINE
  5
1A4
  8
0
 62
1
 10
-50.6564
 20
54.1763
 30
0.0
 11
-50.5386
 21
54.0724
 31
0.0
  0
LINE
  5
1A5
  8
0
 62
1
 10
-50.5386
 20
54.0724
 30
0.0
 11
-50.4276
 21
53.9614
 31
0.0
  0
LINE
  5
1A6
  8
0
 62
1
 10
-50.4276
 20
53.9614
 30
0.0
 11
-50.3237
 21
53.8436
 31
0.0
  0
LINE
  5
1A7
  8
0
 62
1
 10
-50.3237
 20
53.8436
 30
0.0
 11
-50.2274
 21
53.7195
 31
0.0
  0
LINE
  5
1A8
  8
0
 62
1
 10
-50.2274
 20
53.7195
 30
0.0
 11
-50.1392
 21
53.5896
 31
0.0
  0
LINE
  5
1A9
  8
0
 62
1
 10
-50.1392
 20
53.5896
 30
0.0
 11
-50.0592
 21
53.4544
 31
0.0
  0
LINE
  5
1AA
  8
0
 62
1
 10
-50.0592
 20
53.4544
 30
0.0
 11
-49.9879
 21
53.3144
 31
0.0
  0
LINE
  5
1AB
  8
0
 62
1
 10
-49.9879
 20
53.3144
 30
0.0
 11
-49.9256
 21
53.1703
 31
0.0
  0
LINE
  5
1AC
  8
0
 62
1
 10
-49.9256
 20
53.1703
 30
0.0
 11
-49.8723
 21
53.0225
 31
0.0
  0
LINE
  5
1AD
  8
0
 62
1
 10
-49.8723
 20
53.0225
 30
0.0
 11
-49.8285
 21
52.8717
 31
0.0
  0
LINE
  5
1AE
  8
0
 62
1
 10
-49.8285
 20
52.8717
 30
0.0
 11
-49.7943
 21
52.7184
 31
0.0
  0
LINE
  5
1AF
  8
0
 62
1
 10
-49.7943
 20
52.7184
 30
0.0
 11
-49.7697
 21
52.5633
 31
0.0
  0
LINE
  5
1B0
  8
0
 62
1
 10
-49.7697
 20
52.5633
 30
0.0
 11
-49.7549
 21
52.407
 31
0.0
  0
LINE
  5
1B1
  8
0
 62
1
 10
-49.7549
 20
52.407
 30
0.0
 11
-49.75
 21
52.25
 31
0.0
  0
LINE
  5
1B2
  8
0
 62
1
 10
-49.75
 20
52.25
 30
0.0
 11
-49.7549
 21
52.093
 31
0.0
  0
LINE
  5
1B3
  8
0
 62
1
 10
-49.7549
 20
52.093
 30
0.0
 11
-49.7697
 21
51.9367
 31
0.0
  0
LINE
  5
1B4
  8
0
 62
1
 10
-49.7697
 20
51.9367
 30
0.0
 11
-49.7943
 21
51.7815
 31
0.0
  0
LINE
  5
1B5
  8
0
 62
1
 10
-49.7943
 20
51.7815
 30
0.0
 11
-49.8285
 21
51.6283
 31
0.0
  0
LINE
  5
1B6
  8
0
 62
1
 10
-49.8285
 20
51.6283
 30
0.0
 11
-49.8723
 21
51.4774
 31
0.0
  0
LINE
  5
1B7
  8
0
 62
1
 10
-49.8723
 20
51.4774
 30
0.0
 11
-49.9256
 21
51.3297
 31
0.0
  0
LINE
  5
1B8
  8
0
 62
1
 10
-49.9256
 20
51.3297
 30
0.0
 11
-49.9879
 21
51.1855
 31
0.0
  0
LINE
  5
1B9
  8
0
 62
1
 10
-49.9879
 20
51.1855
 30
0.0
 11
-50.0592
 21
51.0456
 31
0.0
  0
LINE
  5
1BA
  8
0
 62
1
 10
-50.0592
 20
51.0456
 30
0.0
 11
-50.1392
 21
50.9104
 31
0.0
  0
LINE
  5
1BB
  8
0
 62
1
 10
-50.1392
 20
50.9104
 30
0.0
 11
-50.2274
 21
50.7805
 31
0.0
  0
LINE
  5
1BC
  8
0
 62
1
 10
-50.2274
 20
50.7805
 30
0.0
 11
-50.3237
 21
50.6564
 31
0.0
  0
LINE
  5
1BD
  8
0
 62
1
 10
-50.3237
 20
50.6564
 30
0.0
 11
-50.4276
 21
50.5386
 31
0.0
  0
LINE
  5
1BE
  8
0
 62
1
 10
-50.4276
 20
50.5386
 30
0.0
 11
-50.5386
 21
50.4276
 31
0.0
  0
LINE
  5
1BF
  8
0
 62
1
 10
-50.5386
 20
50.4276
 30
0.0
 11
-50.6564
 21
50.3237
 31
0.0
  0
LINE
  5
1C0
  8
0
 62
1
 10
-50.6564
 20
50.3237
 30
0.0
 11
-50.7805
 21
50.2274
 31
0.0
  0
LINE
  5
1C1
  8
0
 62
1
 10
-50.7805
 20
50.2274
 30
0.0
 11
-50.9104
 21
50.1392
 31
0.0
  0
LINE
  5
1C2
  8
0
 62
1
 10
-50.9104
 20
50.1392
 30
0.0
 11
-51.0456
 21
50.0592
 31
0.0
  0
LINE
  5
1C3
  8
0
 62
1
 10
-51.0456
 20
50.0592
 30
0.0
 11
-51.1855
 21
49.9879
 31
0.0
  0
LINE
  5
1C4
  8
0
 62
1
 10
-51.1855
 20
49.9879
 30
0.0
 11
-51.3297
 21
49.9256
 31
0.0
  0
LINE
  5
1C5
  8
0
 62
1
 10
-51.3297
 20
49.9256
 30
0.0
 11
-51.4774
 21
49.8723
 31
0.0
  0
LINE
  5
1C6
  8
0
 62
1
 10
-51.4774
 20
49.8723
 30
0.0
 11
-51.6283
 21
49.8285
 31
0.0
  0
LINE
  5
1C7
  8
0
 62
1
 10
-51.6283
 20
49.8285
 30
0.0
 11
-51.7815
 21
49.7943
 31
0.0
  0
LINE
  5
1C8
  8
0
 62
1
 10
-51.7815
 20
49.7943
 30
0.0
 11
-51.9367
 21
49.7697
 31
0.0
  0
LINE
  5
1C9
  8
0
 62
1
 10
-51.9367
 20
49.7697
 30
0.0
 11
-52.093
 21
49.7549
 31
0.0
  0
LINE
  5
1CA
  8
0
 62
1
 10
-52.093
 20
49.7549
 30
0.0
 11
-52.25
 21
49.75
 31
0.0
  0
LINE
  5
1CB
  8
0
 62
1
 10
-52.25
 20
49.75
 30
0.0
 11
-52.407
 21
49.7549
 31
0.0
  0
LINE
  5
1CC
  8
0
 62
1
 10
52.093
 20
49.7549
 30
0.0
 11
51.9367
 21
49.7697
 31
0.0
  0
LINE
  5
1CD
  8
0
 62
1
 10
51.9367
 20
49.7697
 30
0.0
 11
51.7815
 21
49.7943
 31
0.0
  0
LINE
  5
1CE
  8
0
 62
1
 10
51.7815
 20
49.7943
 30
0.0
 11
51.6283
 21
49.8285
 31
0.0
  0
LINE
  5
1CF
  8
0
 62
1
 10
51.6283
 20
49.8285
 30
0.0
 11
51.4774
 21
49.8723
 31
0.0
  0
LINE
  5
1D0
  8
0
 62
1
 10
51.4774
 20
49.8723
 30
0.0
 11
51.3297
 21
49.9256
 31
0.0
  0
LINE
  5
1D1
  8
0
 62
1
 10
51.3297
 20
49.9256
 30
0.0
 11
51.1855
 21
49.9879
 31
0.0
  0
LINE
  5
1D2
  8
0
 62
1
 10
51.1855
 20
49.9879
 30
0.0
 11
51.0456
 21
50.0592
 31
0.0
  0
LINE
  5
1D3
  8
0
 62
1
 10
51.0456
 20
50.0592
 30
0.0
 11
50.9104
 21
50.1392
 31
0.0
  0
LINE
  5
1D4
  8
0
 62
1
 10
50.9104
 20
50.1392
 30
0.0
 11
50.7805
 21
50.2274
 31
0.0
  0
LINE
  5
1D5
  8
0
 62
1
 10
50.7805
 20
50.2274
 30
0.0
 11
50.6564
 21
50.3237
 31
0.0
  0
LINE
  5
1D6
  8
0
 62
1
 10
50.6564
 20
50.3237
 30
0.0
 11
50.5386
 21
50.4276
 31
0.0
  0
LINE
  5
1D7
  8
0
 62
1
 10
50.5386
 20
50.4276
 30
0.0
 11
50.4276
 21
50.5386
 31
0.0
  0
LINE
  5
1D8
  8
0
 62
1
 10
50.4276
 20
50.5386
 30
0.0
 11
50.3237
 21
50.6564
 31
0.0
  0
LINE
  5
1D9
  8
0
 62
1
 10
50.3237
 20
50.6564
 30
0.0
 11
50.2274
 21
50.7805
 31
0.0
  0
LINE
  5
1DA
  8
0
 62
1
 10
50.2274
 20
50.7805
 30
0.0
 11
50.1392
 21
50.9104
 31
0.0
  0
LINE
  5
1DB
  8
0
 62
1
 10
50.1392
 20
50.9104
 30
0.0
 11
50.0592
 21
51.0456
 31
0.0
  0
LINE
  5
1DC
  8
0
 62
1
 10
50.0592
 20
51.0456
 30
0.0
 11
49.9879
 21
51.1855
 31
0.0
  0
LINE
  5
1DD
  8
0
 62
1
 10
49.9879
 20
51.1855
 30
0.0
 11
49.9256
 21
51.3297
 31
0.0
  0
LINE
  5
1DE
  8
0
 62
1
 10
49.9256
 20
51.3297
 30
0.0
 11
49.8723
 21
51.4774
 31
0.0
  0
LINE
  5
1DF
  8
0
 62
1
 10
49.8723
 20
51.4774
 30
0.0
 11
49.8285
 21
51.6283
 31
0.0
  0
LINE
  5
1E0
  8
0
 62
1
 10
49.8285
 20
51.6283
 30
0.0
 11
49.7943
 21
51.7815
 31
0.0
  0
LINE
  5
1E1
  8
0
 62
1
 10
49.7943
 20
51.7815
 30
0.0
 11
49.7697
 21
51.9367
 31
0.0
  0
LINE
  5
1E2
  8
0
 62
1
 10
49.7697
 20
51.9367
 30
0.0
 11
49.7549
 21
52.093
 31
0.0
  0
LINE
  5
1E3
  8
0
 62
1
 10
49.7549
 20
52.093
 30
0.0
 11
49.75
 21
52.25
 31
0.0
  0
LINE
  5
1E4
  8
0
 62
1
 10
49.75
 20
52.25
 30
0.0
 11
49.7549
 21
52.407
 31
0.0
  0
LINE
  5
1E5
  8
0
 62
1
 10
49.7549
 20
52.407
 30
0.0
 11
49.7697
 21
52.5633
 31
0.0
  0
LINE
  5
1E6
  8
0
 62
1
 10
49.7697
 20
52.5633
 30
0.0
 11
49.7943
 21
52.7184
 31
0.0
  0
LINE
  5
1E7
  8
0
 62
1
 10
49.7943
 20
52.7184
 30
0.0
 11
49.8285
 21
52.8717
 31
0.0
  0
LINE
  5
1E8
  8
0
 62
1
 10
49.8285
 20
52.8717
 30
0.0
 11
49.8723
 21
53.0225
 31
0.0
  0
LINE
  5
1E9
  8
0
 62
1
 10
49.8723
 20
53.0225
 30
0.0
 11
49.9256
 21
53.1703
 31
0.0
  0
LINE
  5
1EA
  8
0
 62
1
 10
49.9256
 20
53.1703
 30
0.0
 11
49.9879
 21
53.3144
 31
0.0
  0
LINE
  5
1EB
  8
0
 62
1
 10
49.9879
 20
53.3144
 30
0.0
 11
50.0592
 21
53.4544
 31
0.0
  0
LINE
  5
1EC
  8
0
 62
1
 10
50.0592
 20
53.4544
 30
0.0
 11
50.1392
 21
53.5896
 31
0.0
  0
LINE
  5
1ED
  8
0
 62
1
 10
50.1392
 20
53.5896
 30
0.0
 11
50.2274
 21
53.7195
 31
0.0
  0
LINE
  5
1EE
  8
0
 62
1
 10
50.2274
 20
53.7195
 30
0.0
 11
50.3237
 21
53.8436
 31
0.0
  0
LINE
  5
1EF
  8
0
 62
1
 10
50.3237
 20
53.8436
 30
0.0
 11
50.4276
 21
53.9614
 31
0.0
  0
LINE
  5
1F0
  8
0
 62
1
 10
50.4276
 20
53.9614
 30
0.0
 11
50.5386
 21
54.0724
 31
0.0
  0
LINE
  5
1F1
  8
0
 62
1
 10
50.5386
 20
54.0724
 30
0.0
 11
50.6564
 21
54.1763
 31
0.0
  0
LINE
  5
1F2
  8
0
 62
1
 10
50.6564
 20
54.1763
 30
0.0
 11
50.7805
 21
54.2725
 31
0.0
  0
LINE
  5
1F3
  8
0
 62
1
 10
50.7805
 20
54.2725
 30
0.0
 11
50.9104
 21
54.3608
 31
0.0
  0
LINE
  5
1F4
  8
0
 62
1
 10
50.9104
 20
54.3608
 30
0.0
 11
51.0456
 21
54.4408
 31
0.0
  0
LINE
  5
1F5
  8
0
 62
1
 10
51.0456
 20
54.4408
 30
0.0
 11
51.1855
 21
54.5121
 31
0.0
  0
LINE
  5
1F6
  8
0
 62
1
 10
51.1855
 20
54.5121
 30
0.0
 11
51.3297
 21
54.5744
 31
0.0
  0
LINE
  5
1F7
  8
0
 62
1
 10
51.3297
 20
54.5744
 30
0.0
 11
51.4774
 21
54.6276
 31
0.0
  0
LINE
  5
1F8
  8
0
 62
1
 10
51.4774
 20
54.6276
 30
0.0
 11
51.6283
 21
54.6714
 31
0.0
  0
LINE
  5
1F9
  8
0
 62
1
 10
51.6283
 20
54.6714
 30
0.0
 11
51.7815
 21
54.7057
 31
0.0
  0
LINE
  5
1FA
  8
0
 62
1
 10
51.7815
 20
54.7057
 30
0.0
 11
51.9367
 21
54.7303
 31
0.0
  0
LINE
  5
1FB
  8
0
 62
1
 10
51.9367
 20
54.7303
 30
0.0
 11
52.093
 21
54.7451
 31
0.0
  0
LINE
  5
1FC
  8
0
 62
1
 10
52.093
 20
54.7451
 30
0.0
 11
52.25
 21
54.75
 31
0.0
  0
LINE
  5
1FD
  8
0
 62
1
 10
52.25
 20
54.75
 30
0.0
 11
52.407
 21
54.7451
 31
0.0
  0
LINE
  5
1FE
  8
0
 62
1
 10
52.407
 20
54.7451
 30
0.0
 11
52.5633
 21
54.7303
 31
0.0
  0
LINE
  5
1FF
  8
0
 62
1
 10
52.5633
 20
54.7303
 30
0.0
 11
52.7184
 21
54.7057
 31
0.0
  0
LINE
  5
200
  8
0
 62
1
 10
52.7184
 20
54.7057
 30
0.0
 11
52.8717
 21
54.6714
 31
0.0
  0
LINE
  5
201
  8
0
 62
1
 10
52.8717
 20
54.6714
 30
0.0
 11
53.0225
 21
54.6276
 31
0.0
  0
LINE
  5
202
  8
0
 62
1
 10
53.0225
 20
54.6276
 30
0.0
 11
53.1703
 21
54.5744
 31
0.0
  0
LINE
  5
203
  8
0
 62
1
 10
53.1703
 20
54.5744
 30
0.0
 11
53.3144
 21
54.5121
 31
0.0
  0
LINE
  5
204
  8
0
 62
1
 10
53.3144
 20
54.5121
 30
0.0
 11
53.4544
 21
54.4408
 31
0.0
  0
LINE
  5
205
  8
0
 62
1
 10
53.4544
 20
54.4408
 30
0.0
 11
53.5896
 21
54.3608
 31
0.0
  0
LINE
  5
206
  8
0
 62
1
 10
53.5896
 20
54.3608
 30
0.0
 11
53.7195
 21
54.2725
 31
0.0
  0
LINE
  5
207
  8
0
 62
1
 10
53.7195
 20
54.2725
 30
0.0
 11
53.8436
 21
54.1763
 31
0.0
  0
LINE
  5
208
  8
0
 62
1
 10
53.8436
 20
54.1763
 30
0.0
 11
53.9614
 21
54.0724
 31
0.0
  0
LINE
  5
209
  8
0
 62
1
 10
53.9614
 20
54.0724
 30
0.0
 11
54.0724
 21
53.9614
 31
0.0
  0
LINE
  5
20A
  8
0
 62
1
 10
54.0724
 20
53.9614
 30
0.0
 11
54.1763
 21
53.8436
 31
0.0
  0
LINE
  5
20B
  8
0
 62
1
 10
54.1763
 20
53.8436
 30
0.0
 11
54.2725
 21
53.7195
 31
0.0
  0
LINE
  5
20C
  8
0
 62
1
 10
54.2725
 20
53.7195
 30
0.0
 11
54.3608
 21
53.5896
 31
0.0
  0
LINE
  5
20D
  8
0
 62
1
 10
54.3608
 20
53.5896
 30
0.0
 11
54.4408
 21
53.4544
 31
0.0
  0
LINE
  5
20E
  8
0
 62
1
 10
54.4408
 20
53.4544
 30
0.0
 11
54.5121
 21
53.3144
 31
0.0
  0
LINE
  5
20F
  8
0
 62
1
 10
54.5121
 20
53.3144
 30
0.0
 11
54.5744
 21
53.1703
 31
0.0
  0
LINE
  5
210
  8
0
 62
1
 10
54.5744
 20
53.1703
 30
0.0
 11
54.6276
 21
53.0225
 31
0.0
  0
LINE
  5
211
  8
0
 62
1
 10
54.6276
 20
53.0225
 30
0.0
 11
54.6714
 21
52.8717
 31
0.0
  0
LINE
  5
212
  8
0
 62
1
 10
54.6714
 20
52.8717
 30
0.0
 11
54.7057
 21
52.7184
 31
0.0
  0
LINE
  5
213
  8
0
 62
1
 10
54.7057
 20
52.7184
 30
0.0
 11
54.7303
 21
52.5633
 31
0.0
  0
LINE
  5
214
  8
0
 62
1
 10
54.7303
 20
52.5633
 30
0.0
 11
54.7451
 21
52.407
 31
0.0
  0
LINE
  5
215
  8
0
 62
1
 10
54.7451
 20
52.407
 30
0.0
 11
54.75
 21
52.25
 31
0.0
  0
LINE
  5
216
  8
0
 62
1
 10
54.75
 20
52.25
 30
0.0
 11
54.7451
 21
52.093
 31
0.0
  0
LINE
  5
217
  8
0
 62
1
 10
54.7451
 20
52.093
 30
0.0
 11
54.7303
 21
51.9367
 31
0.0
  0
LINE
  5
218
  8
0
 62
1
 10
54.7303
 20
51.9367
 30
0.0
 11
54.7057
 21
51.7815
 31
0.0
  0
LINE
  5
219
  8
0
 62
1
 10
54.7057
 20
51.7815
 30
0.0
 11
54.6714
 21
51.6283
 31
0.0
  0
LINE
  5
21A
  8
0
 62
1
 10
54.6714
 20
51.6283
 30
0.0
 11
54.6276
 21
51.4774
 31
0.0
  0
LINE
  5
21B
  8
0
 62
1
 10
54.6276
 20
51.4774
 30
0.0
 11
54.5744
 21
51.3297
 31
0.0
  0
LINE
  5
21C
  8
0
 62
1
 10
54.5744
 20
51.3297
 30
0.0
 11
54.5121
 21
51.1855
 31
0.0
  0
LINE
  5
21D
  8
0
 62
1
 10
54.5121
 20
51.1855
 30
0.0
 11
54.4408
 21
51.0456
 31
0.0
  0
LINE
  5
21E
  8
0
 62
1
 10
54.4408
 20
51.0456
 30
0.0
 11
54.3608
 21
50.9104
 31
0.0
  0
LINE
  5
21F
  8
0
 62
1
 10
54.3608
 20
50.9104
 30
0.0
 11
54.2725
 21
50.7805
 31
0.0
  0
LINE
  5
220
  8
0
 62
1
 10
54.2725
 20
50.7805
 30
0.0
 11
54.1763
 21
50.6564
 31
0.0
  0
LINE
  5
221
  8
0
 62
1
 10
54.1763
 20
50.6564
 30
0.0
 11
54.0724
 21
50.5386
 31
0.0
  0
LINE
  5
222
  8
0
 62
1
 10
54.0724
 20
50.5386
 30
0.0
 11
53.9614
 21
50.4276
 31
0.0
  0
LINE
  5
223
  8
0
 62
1
 10
53.9614
 20
50.4276
 30
0.0
 11
53.8436
 21
50.3237
 31
0.0
  0
LINE
  5
224
  8
0
 62
1
 10
53.8436
 20
50.3237
 30
0.0
 11
53.7195
 21
50.2274
 31
0.0
  0
LINE
  5
225
  8
0
 62
1
 10
53.7195
 20
50.2274
 30
0.0
 11
53.5896
 21
50.1392
 31
0.0
  0
LINE
  5
226
  8
0
 62
1
 10
53.5896
 20
50.1392
 30
0.0
 11
53.4544
 21
50.0592
 31
0.0
  0
LINE
  5
227
  8
0
 62
1
 10
53.4544
 20
50.0592
 30
0.0
 11
53.3144
 21
49.9879
 31
0.0
  0
LINE
  5
228
  8
0
 62
1
 10
53.3144
 20
49.9879
 30
0.0
 11
53.1703
 21
49.9256
 31
0.0
  0
LINE
  5
229
  8
0
 62
1
 10
53.1703
 20
49.9256
 30
0.0
 11
53.0225
 21
49.8723
 31
0.0
  0
LINE
  5
22A
  8
0
 62
1
 10
53.0225
 20
49.8723
 30
0.0
 11
52.8717
 21
49.8285
 31
0.0
  0
LINE
  5
22B
  8
0
 62
1
 10
52.8717
 20
49.8285
 30
0.0
 11
52.7184
 21
49.7943
 31
0.0
  0
LINE
  5
22C
  8
0
 62
1
 10
52.7184
 20
49.7943
 30
0.0
 11
52.5633
 21
49.7697
 31
0.0
  0
LINE
  5
22D
  8
0
 62
1
 10
52.5633
 20
49.7697
 30
0.0
 11
52.407
 21
49.7549
 31
0.0
  0
LINE
  5
22E
  8
0
 62
1
 10
52.407
 20
49.7549
 30
0.0
 11
52.25
 21
49.75
 31
0.0
  0
LINE
  5
22F
  8
0
 62
1
 10
52.25
 20
49.75
 30
0.0
 11
52.093
 21
49.7549
 31
0.0
  0
LINE
  5
230
  8
0
 62
1
 10
3.17499
 20
-25.2005
 30
0.0
 11
3.18346
 21
-25.1997
 31
0.0
  0
LINE
  5
231
  8
0
 62
1
 10
3.18346
 20
-25.1997
 30
0.0
 11
4.75948
 21
-24.9501
 31
0.0
  0
LINE
  5
232
  8
0
 62
1
 10
4.75948
 20
-24.9501
 30
0.0
 11
6.31671
 21
-24.602
 31
0.0
  0
LINE
  5
233
  8
0
 62
1
 10
6.31671
 20
-24.602
 30
0.0
 11
7.84903
 21
-24.1568
 31
0.0
  0
LINE
  5
234
  8
0
 62
1
 10
7.84903
 20
-24.1568
 30
0.0
 11
9.35036
 21
-23.6163
 31
0.0
  0
LINE
  5
235
  8
0
 62
1
 10
9.35036
 20
-23.6163
 30
0.0
 11
10.8148
 21
-22.9826
 31
0.0
  0
LINE
  5
236
  8
0
 62
1
 10
10.8148
 20
-22.9826
 30
0.0
 11
12.2365
 21
-22.2582
 31
0.0
  0
LINE
  5
237
  8
0
 62
1
 10
12.2365
 20
-22.2582
 30
0.0
 11
13.61
 21
-21.4459
 31
0.0
  0
LINE
  5
238
  8
0
 62
1
 10
13.61
 20
-21.4459
 30
0.0
 11
14.9297
 21
-20.549
 31
0.0
  0
LINE
  5
239
  8
0
 62
1
 10
14.9297
 20
-20.549
 30
0.0
 11
16.1906
 21
-19.571
 31
0.0
  0
LINE
  5
23A
  8
0
 62
1
 10
16.1906
 20
-19.571
 30
0.0
 11
17.3875
 21
-18.5158
 31
0.0
  0
LINE
  5
23B
  8
0
 62
1
 10
17.3875
 20
-18.5158
 30
0.0
 11
18.5158
 21
-17.3875
 31
0.0
  0
LINE
  5
23C
  8
0
 62
1
 10
18.5158
 20
-17.3875
 30
0.0
 11
19.571
 21
-16.1906
 31
0.0
  0
LINE
  5
23D
  8
0
 62
1
 10
19.571
 20
-16.1906
 30
0.0
 11
20.549
 21
-14.9297
 31
0.0
  0
LINE
  5
23E
  8
0
 62
1
 10
20.549
 20
-14.9297
 30
0.0
 11
21.4459
 21
-13.61
 31
0.0
  0
LINE
  5
23F
  8
0
 62
1
 10
21.4459
 20
-13.61
 30
0.0
 11
22.2582
 21
-12.2365
 31
0.0
  0
LINE
  5
240
  8
0
 62
1
 10
22.2582
 20
-12.2365
 30
0.0
 11
22.9826
 21
-10.8148
 31
0.0
  0
LINE
  5
241
  8
0
 62
1
 10
22.9826
 20
-10.8148
 30
0.0
 11
23.6163
 21
-9.35036
 31
0.0
  0
LINE
  5
242
  8
0
 62
1
 10
23.6163
 20
-9.35036
 30
0.0
 11
24.1568
 21
-7.84903
 31
0.0
  0
LINE
  5
243
  8
0
 62
1
 10
24.1568
 20
-7.84903
 30
0.0
 11
24.602
 21
-6.31671
 31
0.0
  0
LINE
  5
244
  8
0
 62
1
 10
24.602
 20
-6.31671
 30
0.0
 11
24.9501
 21
-4.75948
 31
0.0
  0
LINE
  5
245
  8
0
 62
1
 10
24.9501
 20
-4.75948
 30
0.0
 11
25.1997
 21
-3.18346
 31
0.0
  0
LINE
  5
246
  8
0
 62
1
 10
25.1997
 20
-3.18346
 30
0.0
 11
25.2005
 21
-3.17499
 31
0.0
  0
LINE
  5
247
  8
0
 62
1
 10
25.2005
 20
-3.17499
 30
0.0
 11
59.9002
 21
-3.17499
 31
0.0
  0
LINE
  5
248
  8
0
 62
1
 10
59.9002
 20
-3.17499
 30
0.0
 11
59.8816
 21
-3.76743
 31
0.0
  0
LINE
  5
249
  8
0
 62
1
 10
59.8816
 20
-3.76743
 30
0.0
 11
59.5269
 21
-7.51999
 31
0.0
  0
LINE
  5
24A
  8
0
 62
1
 10
59.5269
 20
-7.51999
 30
0.0
 11
58.9372
 21
-11.2429
 31
0.0
  0
LINE
  5
24B
  8
0
 62
1
 10
58.9372
 20
-11.2429
 30
0.0
 11
58.115
 21
-14.9214
 31
0.0
  0
LINE
  5
24C
  8
0
 62
1
 10
58.115
 20
-14.9214
 30
0.0
 11
57.0634
 21
-18.541
 31
0.0
  0
LINE
  5
24D
  8
0
 62
1
 10
57.0634
 20
-18.541
 30
0.0
 11
55.7866
 21
-22.0875
 31
0.0
  0
LINE
  5
24E
  8
0
 62
1
 10
55.7866
 20
-22.0875
 30
0.0
 11
54.2896
 21
-25.5468
 31
0.0
  0
LINE
  5
24F
  8
0
 62
1
 10
54.2896
 20
-25.5468
 30
0.0
 11
52.5784
 21
-28.9052
 31
0.0
  0
LINE
  5
250
  8
0
 62
1
 10
52.5784
 20
-28.9052
 30
0.0
 11
50.6597
 21
-32.1496
 31
0.0
  0
LINE
  5
251
  8
0
 62
1
 10
50.6597
 20
-32.1496
 30
0.0
 11
48.541
 21
-35.2671
 31
0.0
  0
LINE
  5
252
  8
0
 62
1
 10
48.541
 20
-35.2671
 30
0.0
 11
46.2308
 21
-38.2454
 31
0.0
  0
LINE
  5
253
  8
0
 62
1
 10
46.2308
 20
-38.2454
 30
0.0
 11
43.7381
 21
-41.0728
 31
0.0
  0
LINE
  5
254
  8
0
 62
1
 10
43.7381
 20
-41.0728
 30
0.0
 11
41.0728
 21
-43.7381
 31
0.0
  0
LINE
  5
255
  8
0
 62
1
 10
41.0728
 20
-43.7381
 30
0.0
 11
38.2454
 21
-46.2308
 31
0.0
  0
LINE
  5
256
  8
0
 62
1
 10
38.2454
 20
-46.2308
 30
0.0
 11
35.2671
 21
-48.541
 31
0.0
  0
LINE
  5
257
  8
0
 62
1
 10
35.2671
 20
-48.541
 30
0.0
 11
32.1496
 21
-50.6597
 31
0.0
  0
LINE
  5
258
  8
0
 62
1
 10
32.1496
 20
-50.6597
 30
0.0
 11
28.9052
 21
-52.5784
 31
0.0
  0
LINE
  5
259
  8
0
 62
1
 10
28.9052
 20
-52.5784
 30
0.0
 11
25.5468
 21
-54.2896
 31
0.0
  0
LINE
  5
25A
  8
0
 62
1
 10
25.5468
 20
-54.2896
 30
0.0
 11
22.0875
 21
-55.7866
 31
0.0
  0
LINE
  5
25B
  8
0
 62
1
 10
22.0875
 20
-55.7866
 30
0.0
 11
18.541
 21
-57.0634
 31
0.0
  0
LINE
  5
25C
  8
0
 62
1
 10
18.541
 20
-57.0634
 30
0.0
 11
14.9214
 21
-58.115
 31
0.0
  0
LINE
  5
25D
  8
0
 62
1
 10
14.9214
 20
-58.115
 30
0.0
 11
11.2429
 21
-58.9372
 31
0.0
  0
LINE
  5
25E
  8
0
 62
1
 10
11.2429
 20
-58.9372
 30
0.0
 11
7.51999
 21
-59.5269
 31
0.0
  0
LINE
  5
25F
  8
0
 62
1
 10
7.51999
 20
-59.5269
 30
0.0
 11
3.76743
 21
-59.8816
 31
0.0
  0
LINE
  5
260
  8
0
 62
1
 10
3.76743
 20
-59.8816
 30
0.0
 11
3.17499
 21
-59.9002
 31
0.0
  0
LINE
  5
261
  8
0
 62
1
 10
3.17499
 20
-59.9002
 30
0.0
 11
3.17499
 21
-25.2005
 31
0.0
  0
LINE
  5
262
  8
0
 62
1
 10
-3.76743
 20
-59.8816
 30
0.0
 11
-7.51999
 21
-59.5269
 31
0.0
  0
LINE
  5
263
  8
0
 62
1
 10
-7.51999
 20
-59.5269
 30
0.0
 11
-11.2429
 21
-58.9372
 31
0.0
  0
LINE
  5
264
  8
0
 62
1
 10
-11.2429
 20
-58.9372
 30
0.0
 11
-14.9214
 21
-58.115
 31
0.0
  0
LINE
  5
265
  8
0
 62
1
 10
-14.9214
 20
-58.115
 30
0.0
 11
-18.541
 21
-57.0634
 31
0.0
  0
LINE
  5
266
  8
0
 62
1
 10
-18.541
 20
-57.0634
 30
0.0
 11
-22.0875
 21
-55.7866
 31
0.0
  0
LINE
  5
267
  8
0
 62
1
 10
-22.0875
 20
-55.7866
 30
0.0
 11
-25.5468
 21
-54.2896
 31
0.0
  0
LINE
  5
268
  8
0
 62
1
 10
-25.5468
 20
-54.2896
 30
0.0
 11
-28.9052
 21
-52.5784
 31
0.0
  0
LINE
  5
269
  8
0
 62
1
 10
-28.9052
 20
-52.5784
 30
0.0
 11
-32.1496
 21
-50.6597
 31
0.0
  0
LINE
  5
26A
  8
0
 62
1
 10
-32.1496
 20
-50.6597
 30
0.0
 11
-35.2671
 21
-48.541
 31
0.0
  0
LINE
  5
26B
  8
0
 62
1
 10
-35.2671
 20
-48.541
 30
0.0
 11
-38.2454
 21
-46.2308
 31
0.0
  0
LINE
  5
26C
  8
0
 62
1
 10
-38.2454
 20
-46.2308
 30
0.0
 11
-41.0728
 21
-43.7381
 31
0.0
  0
LINE
  5
26D
  8
0
 62
1
 10
-41.0728
 20
-43.7381
 30
0.0
 11
-43.7381
 21
-41.0728
 31
0.0
  0
LINE
  5
26E
  8
0
 62
1
 10
-43.7381
 20
-41.0728
 30
0.0
 11
-46.2308
 21
-38.2454
 31
0.0
  0
LINE
  5
26F
  8
0
 62
1
 10
-46.2308
 20
-38.2454
 30
0.0
 11
-48.541
 21
-35.2671
 31
0.0
  0
LINE
  5
270
  8
0
 62
1
 10
-48.541
 20
-35.2671
 30
0.0
 11
-50.6597
 21
-32.1496
 31
0.0
  0
LINE
  5
271
  8
0
 62
1
 10
-50.6597
 20
-32.1496
 30
0.0
 11
-52.5784
 21
-28.9052
 31
0.0
  0
LINE
  5
272
  8
0
 62
1
 10
-52.5784
 20
-28.9052
 30
0.0
 11
-54.2896
 21
-25.5468
 31
0.0
  0
LINE
  5
273
  8
0
 62
1
 10
-54.2896
 20
-25.5468
 30
0.0
 11
-55.7866
 21
-22.0875
 31
0.0
  0
LINE
  5
274
  8
0
 62
1
 10
-55.7866
 20
-22.0875
 30
0.0
 11
-57.0634
 21
-18.541
 31
0.0
  0
LINE
  5
275
  8
0
 62
1
 10
-57.0634
 20
-18.541
 30
0.0
 11
-58.115
 21
-14.9214
 31
0.0
  0
LINE
  5
276
  8
0
 62
1
 10
-58.115
 20
-14.9214
 30
0.0
 11
-58.9372
 21
-11.2429
 31
0.0
  0
LINE
  5
277
  8
0
 62
1
 10
-58.9372
 20
-11.2429
 30
0.0
 11
-59.5269
 21
-7.51999
 31
0.0
  0
LINE
  5
278
  8
0
 62
1
 10
-59.5269
 20
-7.51999
 30
0.0
 11
-59.8816
 21
-3.76743
 31
0.0
  0
LINE
  5
279
  8
0
 62
1
 10
-59.8816
 20
-3.76743
 30
0.0
 11
-59.9002
 21
-3.17499
 31
0.0
  0
LINE
  5
27A
  8
0
 62
1
 10
-59.9002
 20
-3.17499
 30
0.0
 11
-25.2005
 21
-3.17499
 31
0.0
  0
LINE
  5
27B
  8
0
 62
1
 10
-25.2005
 20
-3.17499
 30
0.0
 11
-25.1997
 21
-3.18346
 31
0.0
  0
LINE
  5
27C
  8
0
 62
1
 10
-25.1997
 20
-3.18346
 30
0.0
 11
-24.9501
 21
-4.75948
 31
0.0
  0
LINE
  5
27D
  8
0
 62
1
 10
-24.9501
 20
-4.75948
 30
0.0
 11
-24.602
 21
-6.31671
 31
0.0
  0
LINE
  5
27E
  8
0
 62
1
 10
-24.602
 20
-6.31671
 30
0.0
 11
-24.1568
 21
-7.84903
 31
0.0
  0
LINE
  5
27F
  8
0
 62
1
 10
-24.1568
 20
-7.84903
 30
0.0
 11
-23.6163
 21
-9.35036
 31
0.0
  0
LINE
  5
280
  8
0
 62
1
 10
-23.6163
 20
-9.35036
 30
0.0
 11
-22.9826
 21
-10.8148
 31
0.0
  0
LINE
  5
281
  8
0
 62
1
 10
-22.9826
 20
-10.8148
 30
0.0
 11
-22.2582
 21
-12.2365
 31
0.0
  0
LINE
  5
282
  8
0
 62
1
 10
-22.2582
 20
-12.2365
 30
0.0
 11
-21.4459
 21
-13.61
 31
0.0
  0
LINE
  5
283
  8
0
 62
1
 10
-21.4459
 20
-13.61
 30
0.0
 11
-20.549
 21
-14.9297
 31
0.0
  0
LINE
  5
284
  8
0
 62
1
 10
-20.549
 20
-14.9297
 30
0.0
 11
-19.571
 21
-16.1906
 31
0.0
  0
LINE
  5
285
  8
0
 62
1
 10
-19.571
 20
-16.1906
 30
0.0
 11
-18.5158
 21
-17.3875
 31
0.0
  0
LINE
  5
286
  8
0
 62
1
 10
-18.5158
 20
-17.3875
 30
0.0
 11
-17.3875
 21
-18.5158
 31
0.0
  0
LINE
  5
287
  8
0
 62
1
 10
-17.3875
 20
-18.5158
 30
0.0
 11
-16.1906
 21
-19.571
 31
0.0
  0
LINE
  5
288
  8
0
 62
1
 10
-16.1906
 20
-19.571
 30
0.0
 11
-14.9297
 21
-20.549
 31
0.0
  0
LINE
  5
289
  8
0
 62
1
 10
-14.9297
 20
-20.549
 30
0.0
 11
-13.61
 21
-21.4459
 31
0.0
  0
LINE
  5
28A
  8
0
 62
1
 10
-13.61
 20
-21.4459
 30
0.0
 11
-12.2365
 21
-22.2582
 31
0.0
  0
LINE
  5
28B
  8
0
 62
1
 10
-12.2365
 20
-22.2582
 30
0.0
 11
-10.8148
 21
-22.9826
 31
0.0
  0
LINE
  5
28C
  8
0
 62
1
 10
-10.8148
 20
-22.9826
 30
0.0
 11
-9.35036
 21
-23.6163
 31
0.0
  0
LINE
  5
28D
  8
0
 62
1
 10
-9.35036
 20
-23.6163
 30
0.0
 11
-7.84903
 21
-24.1568
 31
0.0
  0
LINE
  5
28E
  8
0
 62
1
 10
-7.84903
 20
-24.1568
 30
0.0
 11
-6.31671
 21
-24.602
 31
0.0
  0
LINE
  5
28F
  8
0
 62
1
 10
-6.31671
 20
-24.602
 30
0.0
 11
-4.75948
 21
-24.9501
 31
0.0
  0
LINE
  5
290
  8
0
 62
1
 10
-4.75948
 20
-24.9501
 30
0.0
 11
-3.18346
 21
-25.1997
 31
0.0
  0
LINE
  5
291
  8
0
 62
1
 10
-3.18346
 20
-25.1997
 30
0.0
 11
-3.17499
 21
-25.2005
 31
0.0
  0
LINE
  5
292
  8
0
 62
1
 10
-3.17499
 20
-25.2005
 30
0.0
 11
-3.17499
 21
-59.9002
 31
0.0
  0
LINE
  5
293
  8
0
 62
1
 10
-3.17499
 20
-59.9002
 30
0.0
 11
-3.76743
 21
-59.8816
 31
0.0
  0
LINE
  5
294
  8
0
 62
1
 10
75.9944
 20
-32.6685
 30
0.0
 11
75.7895
 21
-32.6492
 31
0.0
  0
LINE
  5
295
  8
0
 62
1
 10
75.7895
 20
-32.6492
 30
0.0
 11
75.5863
 21
-32.617
 31
0.0
  0
LINE
  5
296
  8
0
 62
1
 10
75.5863
 20
-32.617
 30
0.0
 11
75.3855
 21
-32.5721
 31
0.0
  0
LINE
  5
297
  8
0
 62
1
 10
75.3855
 20
-32.5721
 30
0.0
 11
75.188
 21
-32.5147
 31
0.0
  0
LINE
  5
298
  8
0
 62
1
 10
75.188
 20
-32.5147
 30
0.0
 11
74.9944
 21
-32.445
 31
0.0
  0
LINE
  5
299
  8
0
 62
1
 10
74.9944
 20
-32.445
 30
0.0
 11
74.8056
 21
-32.3633
 31
0.0
  0
LINE
  5
29A
  8
0
 62
1
 10
74.8056
 20
-32.3633
 30
0.0
 11
74.6223
 21
-32.2699
 31
0.0
  0
LINE
  5
29B
  8
0
 62
1
 10
74.6223
 20
-32.2699
 30
0.0
 11
74.4452
 21
-32.1652
 31
0.0
  0
LINE
  5
29C
  8
0
 62
1
 10
74.4452
 20
-32.1652
 30
0.0
 11
74.275
 21
-32.0495
 31
0.0
  0
LINE
  5
29D
  8
0
 62
1
 10
74.275
 20
-32.0495
 30
0.0
 11
74.1124
 21
-31.9234
 31
0.0
  0
LINE
  5
29E
  8
0
 62
1
 10
74.1124
 20
-31.9234
 30
0.0
 11
73.9581
 21
-31.7874
 31
0.0
  0
LINE
  5
29F
  8
0
 62
1
 10
73.9581
 20
-31.7874
 30
0.0
 11
73.8126
 21
-31.6419
 31
0.0
  0
LINE
  5
2A0
  8
0
 62
1
 10
73.8126
 20
-31.6419
 30
0.0
 11
73.6766
 21
-31.4875
 31
0.0
  0
LINE
  5
2A1
  8
0
 62
1
 10
73.6766
 20
-31.4875
 30
0.0
 11
73.5505
 21
-31.325
 31
0.0
  0
LINE
  5
2A2
  8
0
 62
1
 10
73.5505
 20
-31.325
 30
0.0
 11
73.4348
 21
-31.1548
 31
0.0
  0
LINE
  5
2A3
  8
0
 62
1
 10
73.4348
 20
-31.1548
 30
0.0
 11
73.3301
 21
-30.9777
 31
0.0
  0
LINE
  5
2A4
  8
0
 62
1
 10
73.3301
 20
-30.9777
 30
0.0
 11
73.2367
 21
-30.7944
 31
0.0
  0
LINE
  5
2A5
  8
0
 62
1
 10
73.2367
 20
-30.7944
 30
0.0
 11
73.155
 21
-30.6056
 31
0.0
  0
LINE
  5
2A6
  8
0
 62
1
 10
73.155
 20
-30.6056
 30
0.0
 11
73.0853
 21
-30.412
 31
0.0
  0
LINE
  5
2A7
  8
0
 62
1
 10
73.0853
 20
-30.412
 30
0.0
 11
73.0279
 21
-30.2144
 31
0.0
  0
LINE
  5
2A8
  8
0
 62
1
 10
73.0279
 20
-30.2144
 30
0.0
 11
72.983
 21
-30.0137
 31
0.0
  0
LINE
  5
2A9
  8
0
 62
1
 10
72.983
 20
-30.0137
 30
0.0
 11
72.9508
 21
-29.8105
 31
0.0
  0
LINE
  5
2AA
  8
0
 62
1
 10
72.9508
 20
-29.8105
 30
0.0
 11
72.9315
 21
-29.6056
 31
0.0
  0
LINE
  5
2AB
  8
0
 62
1
 10
72.9315
 20
-29.6056
 30
0.0
 11
72.925
 21
-29.4
 31
0.0
  0
LINE
  5
2AC
  8
0
 62
1
 10
72.925
 20
-29.4
 30
0.0
 11
72.9315
 21
-29.1944
 31
0.0
  0
LINE
  5
2AD
  8
0
 62
1
 10
72.9315
 20
-29.1944
 30
0.0
 11
72.9508
 21
-28.9895
 31
0.0
  0
LINE
  5
2AE
  8
0
 62
1
 10
72.9508
 20
-28.9895
 30
0.0
 11
72.983
 21
-28.7863
 31
0.0
  0
LINE
  5
2AF
  8
0
 62
1
 10
72.983
 20
-28.7863
 30
0.0
 11
73.0279
 21
-28.5855
 31
0.0
  0
LINE
  5
2B0
  8
0
 62
1
 10
73.0279
 20
-28.5855
 30
0.0
 11
73.0853
 21
-28.388
 31
0.0
  0
LINE
  5
2B1
  8
0
 62
1
 10
73.0853
 20
-28.388
 30
0.0
 11
73.155
 21
-28.1944
 31
0.0
  0
LINE
  5
2B2
  8
0
 62
1
 10
73.155
 20
-28.1944
 30
0.0
 11
73.2367
 21
-28.0056
 31
0.0
  0
LINE
  5
2B3
  8
0
 62
1
 10
73.2367
 20
-28.0056
 30
0.0
 11
73.3301
 21
-27.8223
 31
0.0
  0
LINE
  5
2B4
  8
0
 62
1
 10
73.3301
 20
-27.8223
 30
0.0
 11
73.4348
 21
-27.6452
 31
0.0
  0
LINE
  5
2B5
  8
0
 62
1
 10
73.4348
 20
-27.6452
 30
0.0
 11
73.5505
 21
-27.475
 31
0.0
  0
LINE
  5
2B6
  8
0
 62
1
 10
73.5505
 20
-27.475
 30
0.0
 11
73.6766
 21
-27.3124
 31
0.0
  0
LINE
  5
2B7
  8
0
 62
1
 10
73.6766
 20
-27.3124
 30
0.0
 11
73.8126
 21
-27.1581
 31
0.0
  0
LINE
  5
2B8
  8
0
 62
1
 10
73.8126
 20
-27.1581
 30
0.0
 11
73.9581
 21
-27.0126
 31
0.0
  0
LINE
  5
2B9
  8
0
 62
1
 10
73.9581
 20
-27.0126
 30
0.0
 11
74.1124
 21
-26.8766
 31
0.0
  0
LINE
  5
2BA
  8
0
 62
1
 10
74.1124
 20
-26.8766
 30
0.0
 11
74.275
 21
-26.7505
 31
0.0
  0
LINE
  5
2BB
  8
0
 62
1
 10
74.275
 20
-26.7505
 30
0.0
 11
74.4452
 21
-26.6348
 31
0.0
  0
LINE
  5
2BC
  8
0
 62
1
 10
74.4452
 20
-26.6348
 30
0.0
 11
74.6223
 21
-26.5301
 31
0.0
  0
LINE
  5
2BD
  8
0
 62
1
 10
74.6223
 20
-26.5301
 30
0.0
 11
74.8056
 21
-26.4367
 31
0.0
  0
LINE
  5
2BE
  8
0
 62
1
 10
74.8056
 20
-26.4367
 30
0.0
 11
74.9944
 21
-26.355
 31
0.0
  0
LINE
  5
2BF
  8
0
 62
1
 10
74.9944
 20
-26.355
 30
0.0
 11
75.188
 21
-26.2853
 31
0.0
  0
LINE
  5
2C0
  8
0
 62
1
 10
75.188
 20
-26.2853
 30
0.0
 11
75.3855
 21
-26.2279
 31
0.0
  0
LINE
  5
2C1
  8
0
 62
1
 10
75.3855
 20
-26.2279
 30
0.0
 11
75.5863
 21
-26.183
 31
0.0
  0
LINE
  5
2C2
  8
0
 62
1
 10
75.5863
 20
-26.183
 30
0.0
 11
75.7895
 21
-26.1508
 31
0.0
  0
LINE
  5
2C3
  8
0
 62
1
 10
75.7895
 20
-26.1508
 30
0.0
 11
75.9944
 21
-26.1315
 31
0.0
  0
LINE
  5
2C4
  8
0
 62
1
 10
75.9944
 20
-26.1315
 30
0.0
 11
76.2
 21
-26.125
 31
0.0
  0
LINE
  5
2C5
  8
0
 62
1
 10
76.2
 20
-26.125
 30
0.0
 11
76.4056
 21
-26.1315
 31
0.0
  0
LINE
  5
2C6
  8
0
 62
1
 10
76.4056
 20
-26.1315
 30
0.0
 11
76.6105
 21
-26.1508
 31
0.0
  0
LINE
  5
2C7
  8
0
 62
1
 10
76.6105
 20
-26.1508
 30
0.0
 11
76.8137
 21
-26.183
 31
0.0
  0
LINE
  5
2C8
  8
0
 62
1
 10
76.8137
 20
-26.183
 30
0.0
 11
77.0145
 21
-26.2279
 31
0.0
  0
LINE
  5
2C9
  8
0
 62
1
 10
77.0145
 20
-26.2279
 30
0.0
 11
77.212
 21
-26.2853
 31
0.0
  0
LINE
  5
2CA
  8
0
 62
1
 10
77.212
 20
-26.2853
 30
0.0
 11
77.4056
 21
-26.355
 31
0.0
  0
LINE
  5
2CB
  8
0
 62
1
 10
77.4056
 20
-26.355
 30
0.0
 11
77.5944
 21
-26.4367
 31
0.0
  0
LINE
  5
2CC
  8
0
 62
1
 10
77.5944
 20
-26.4367
 30
0.0
 11
77.7777
 21
-26.5301
 31
0.0
  0
LINE
  5
2CD
  8
0
 62
1
 10
77.7777
 20
-26.5301
 30
0.0
 11
77.9548
 21
-26.6348
 31
0.0
  0
LINE
  5
2CE
  8
0
 62
1
 10
77.9548
 20
-26.6348
 30
0.0
 11
78.125
 21
-26.7505
 31
0.0
  0
LINE
  5
2CF
  8
0
 62
1
 10
78.125
 20
-26.7505
 30
0.0
 11
78.2876
 21
-26.8766
 31
0.0
  0
LINE
  5
2D0
  8
0
 62
1
 10
78.2876
 20
-26.8766
 30
0.0
 11
78.4419
 21
-27.0126
 31
0.0
  0
LINE
  5
2D1
  8
0
 62
1
 10
78.4419
 20
-27.0126
 30
0.0
 11
78.5874
 21
-27.1581
 31
0.0
  0
LINE
  5
2D2
  8
0
 62
1
 10
78.5874
 20
-27.1581
 30
0.0
 11
78.7234
 21
-27.3124
 31
0.0
  0
LINE
  5
2D3
  8
0
 62
1
 10
78.7234
 20
-27.3124
 30
0.0
 11
78.8495
 21
-27.475
 31
0.0
  0
LINE
  5
2D4
  8
0
 62
1
 10
78.8495
 20
-27.475
 30
0.0
 11
78.9652
 21
-27.6452
 31
0.0
  0
LINE
  5
2D5
  8
0
 62
1
 10
78.9652
 20
-27.6452
 30
0.0
 11
79.0699
 21
-27.8223
 31
0.0
  0
LINE
  5
2D6
  8
0
 62
1
 10
79.0699
 20
-27.8223
 30
0.0
 11
79.1633
 21
-28.0056
 31
0.0
  0
LINE
  5
2D7
  8
0
 62
1
 10
79.1633
 20
-28.0056
 30
0.0
 11
79.245
 21
-28.1944
 31
0.0
  0
LINE
  5
2D8
  8
0
 62
1
 10
79.245
 20
-28.1944
 30
0.0
 11
79.3147
 21
-28.388
 31
0.0
  0
LINE
  5
2D9
  8
0
 62
1
 10
79.3147
 20
-28.388
 30
0.0
 11
79.3721
 21
-28.5855
 31
0.0
  0
LINE
  5
2DA
  8
0
 62
1
 10
79.3721
 20
-28.5855
 30
0.0
 11
79.417
 21
-28.7863
 31
0.0
  0
LINE
  5
2DB
  8
0
 62
1
 10
79.417
 20
-28.7863
 30
0.0
 11
79.4492
 21
-28.9895
 31
0.0
  0
LINE
  5
2DC
  8
0
 62
1
 10
79.4492
 20
-28.9895
 30
0.0
 11
79.4685
 21
-29.1944
 31
0.0
  0
LINE
  5
2DD
  8
0
 62
1
 10
79.4685
 20
-29.1944
 30
0.0
 11
79.475
 21
-29.4
 31
0.0
  0
LINE
  5
2DE
  8
0
 62
1
 10
79.475
 20
-29.4
 30
0.0
 11
79.4685
 21
-29.6056
 31
0.0
  0
LINE
  5
2DF
  8
0
 62
1
 10
79.4685
 20
-29.6056
 30
0.0
 11
79.4492
 21
-29.8105
 31
0.0
  0
LINE
  5
2E0
  8
0
 62
1
 10
79.4492
 20
-29.8105
 30
0.0
 11
79.417
 21
-30.0137
 31
0.0
  0
LINE
  5
2E1
  8
0
 62
1
 10
79.417
 20
-30.0137
 30
0.0
 11
79.3721
 21
-30.2144
 31
0.0
  0
LINE
  5
2E2
  8
0
 62
1
 10
79.3721
 20
-30.2144
 30
0.0
 11
79.3147
 21
-30.412
 31
0.0
  0
LINE
  5
2E3
  8
0
 62
1
 10
79.3147
 20
-30.412
 30
0.0
 11
79.245
 21
-30.6056
 31
0.0
  0
LINE
  5
2E4
  8
0
 62
1
 10
79.245
 20
-30.6056
 30
0.0
 11
79.1633
 21
-30.7944
 31
0.0
  0
LINE
  5
2E5
  8
0
 62
1
 10
79.1633
 20
-30.7944
 30
0.0
 11
79.0699
 21
-30.9777
 31
0.0
  0
LINE
  5
2E6
  8
0
 62
1
 10
79.0699
 20
-30.9777
 30
0.0
 11
78.9652
 21
-31.1548
 31
0.0
  0
LINE
  5
2E7
  8
0
 62
1
 10
78.9652
 20
-31.1548
 30
0.0
 11
78.8495
 21
-31.325
 31
0.0
  0
LINE
  5
2E8
  8
0
 62
1
 10
78.8495
 20
-31.325
 30
0.0
 11
78.7234
 21
-31.4875
 31
0.0
  0
LINE
  5
2E9
  8
0
 62
1
 10
78.7234
 20
-31.4875
 30
0.0
 11
78.5874
 21
-31.6419
 31
0.0
  0
LINE
  5
2EA
  8
0
 62
1
 10
78.5874
 20
-31.6419
 30
0.0
 11
78.4419
 21
-31.7874
 31
0.0
  0
LINE
  5
2EB
  8
0
 62
1
 10
78.4419
 20
-31.7874
 30
0.0
 11
78.2876
 21
-31.9234
 31
0.0
  0
LINE
  5
2EC
  8
0
 62
1
 10
78.2876
 20
-31.9234
 30
0.0
 11
78.125
 21
-32.0495
 31
0.0
  0
LINE
  5
2ED
  8
0
 62
1
 10
78.125
 20
-32.0495
 30
0.0
 11
77.9548
 21
-32.1652
 31
0.0
  0
LINE
  5
2EE
  8
0
 62
1
 10
77.9548
 20
-32.1652
 30
0.0
 11
77.7777
 21
-32.2699
 31
0.0
  0
LINE
  5
2EF
  8
0
 62
1
 10
77.7777
 20
-32.2699
 30
0.0
 11
77.5944
 21
-32.3633
 31
0.0
  0
LINE
  5
2F0
  8
0
 62
1
 10
77.5944
 20
-32.3633
 30
0.0
 11
77.4056
 21
-32.445
 31
0.0
  0
LINE
  5
2F1
  8
0
 62
1
 10
77.4056
 20
-32.445
 30
0.0
 11
77.212
 21
-32.5147
 31
0.0
  0
LINE
  5
2F2
  8
0
 62
1
 10
77.212
 20
-32.5147
 30
0.0
 11
77.0145
 21
-32.5721
 31
0.0
  0
LINE
  5
2F3
  8
0
 62
1
 10
77.0145
 20
-32.5721
 30
0.0
 11
76.8137
 21
-32.617
 31
0.0
  0
LINE
  5
2F4
  8
0
 62
1
 10
76.8137
 20
-32.617
 30
0.0
 11
76.6105
 21
-32.6492
 31
0.0
  0
LINE
  5
2F5
  8
0
 62
1
 10
76.6105
 20
-32.6492
 30
0.0
 11
76.4056
 21
-32.6685
 31
0.0
  0
LINE
  5
2F6
  8
0
 62
1
 10
76.4056
 20
-32.6685
 30
0.0
 11
76.2
 21
-32.675
 31
0.0
  0
LINE
  5
2F7
  8
0
 62
1
 10
76.2
 20
-32.675
 30
0.0
 11
75.9944
 21
-32.6685
 31
0.0
  0
LINE
  5
2F8
  8
0
 62
1
 10
-76.4056
 20
-32.6685
 30
0.0
 11
-76.6105
 21
-32.6492
 31
0.0
  0
LINE
  5
2F9
  8
0
 62
1
 10
-76.6105
 20
-32.6492
 30
0.0
 11
-76.8137
 21
-32.617
 31
0.0
  0
LINE
  5
2FA
  8
0
 62
1
 10
-76.8137
 20
-32.617
 30
0.0
 11
-77.0145
 21
-32.5721
 31
0.0
  0
LINE
  5
2FB
  8
0
 62
1
 10
-77.0145
 20
-32.5721
 30
0.0
 11
-77.212
 21
-32.5147
 31
0.0
  0
LINE
  5
2FC
  8
0
 62
1
 10
-77.212
 20
-32.5147
 30
0.0
 11
-77.4056
 21
-32.445
 31
0.0
  0
LINE
  5
2FD
  8
0
 62
1
 10
-77.4056
 20
-32.445
 30
0.0
 11
-77.5944
 21
-32.3633
 31
0.0
  0
LINE
  5
2FE
  8
0
 62
1
 10
-77.5944
 20
-32.3633
 30
0.0
 11
-77.7777
 21
-32.2699
 31
0.0
  0
LINE
  5
2FF
  8
0
 62
1
 10
-77.7777
 20
-32.2699
 30
0.0
 11
-77.9548
 21
-32.1652
 31
0.0
  0
LINE
  5
300
  8
0
 62
1
 10
-77.9548
 20
-32.1652
 30
0.0
 11
-78.125
 21
-32.0495
 31
0.0
  0
LINE
  5
301
  8
0
 62
1
 10
-78.125
 20
-32.0495
 30
0.0
 11
-78.2876
 21
-31.9234
 31
0.0
  0
LINE
  5
302
  8
0
 62
1
 10
-78.2876
 20
-31.9234
 30
0.0
 11
-78.4419
 21
-31.7874
 31
0.0
  0
LINE
  5
303
  8
0
 62
1
 10
-78.4419
 20
-31.7874
 30
0.0
 11
-78.5874
 21
-31.6419
 31
0.0
  0
LINE
  5
304
  8
0
 62
1
 10
-78.5874
 20
-31.6419
 30
0.0
 11
-78.7234
 21
-31.4875
 31
0.0
  0
LINE
  5
305
  8
0
 62
1
 10
-78.7234
 20
-31.4875
 30
0.0
 11
-78.8495
 21
-31.325
 31
0.0
  0
LINE
  5
306
  8
0
 62
1
 10
-78.8495
 20
-31.325
 30
0.0
 11
-78.9652
 21
-31.1548
 31
0.0
  0
LINE
  5
307
  8
0
 62
1
 10
-78.9652
 20
-31.1548
 30
0.0
 11
-79.0699
 21
-30.9777
 31
0.0
  0
LINE
  5
308
  8
0
 62
1
 10
-79.0699
 20
-30.9777
 30
0.0
 11
-79.1633
 21
-30.7944
 31
0.0
  0
LINE
  5
309
  8
0
 62
1
 10
-79.1633
 20
-30.7944
 30
0.0
 11
-79.245
 21
-30.6056
 31
0.0
  0
LINE
  5
30A
  8
0
 62
1
 10
-79.245
 20
-30.6056
 30
0.0
 11
-79.3147
 21
-30.412
 31
0.0
  0
LINE
  5
30B
  8
0
 62
1
 10
-79.3147
 20
-30.412
 30
0.0
 11
-79.3721
 21
-30.2144
 31
0.0
  0
LINE
  5
30C
  8
0
 62
1
 10
-79.3721
 20
-30.2144
 30
0.0
 11
-79.417
 21
-30.0137
 31
0.0
  0
LINE
  5
30D
  8
0
 62
1
 10
-79.417
 20
-30.0137
 30
0.0
 11
-79.4492
 21
-29.8105
 31
0.0
  0
LINE
  5
30E
  8
0
 62
1
 10
-79.4492
 20
-29.8105
 30
0.0
 11
-79.4685
 21
-29.6056
 31
0.0
  0
LINE
  5
30F
  8
0
 62
1
 10
-79.4685
 20
-29.6056
 30
0.0
 11
-79.475
 21
-29.4
 31
0.0
  0
LINE
  5
310
  8
0
 62
1
 10
-79.475
 20
-29.4
 30
0.0
 11
-79.4685
 21
-29.1944
 31
0.0
  0
LINE
  5
311
  8
0
 62
1
 10
-79.4685
 20
-29.1944
 30
0.0
 11
-79.4492
 21
-28.9895
 31
0.0
  0
LINE
  5
312
  8
0
 62
1
 10
-79.4492
 20
-28.9895
 30
0.0
 11
-79.417
 21
-28.7863
 31
0.0
  0
LINE
  5
313
  8
0
 62
1
 10
-79.417
 20
-28.7863
 30
0.0
 11
-79.3721
 21
-28.5855
 31
0.0
  0
LINE
  5
314
  8
0
 62
1
 10
-79.3721
 20
-28.5855
 30
0.0
 11
-79.3147
 21
-28.388
 31
0.0
  0
LINE
  5
315
  8
0
 62
1
 10
-79.3147
 20
-28.388
 30
0.0
 11
-79.245
 21
-28.1944
 31
0.0
  0
LINE
  5
316
  8
0
 62
1
 10
-79.245
 20
-28.1944
 30
0.0
 11
-79.1633
 21
-28.0056
 31
0.0
  0
LINE
  5
317
  8
0
 62
1
 10
-79.1633
 20
-28.0056
 30
0.0
 11
-79.0699
 21
-27.8223
 31
0.0
  0
LINE
  5
318
  8
0
 62
1
 10
-79.0699
 20
-27.8223
 30
0.0
 11
-78.9652
 21
-27.6452
 31
0.0
  0
LINE
  5
319
  8
0
 62
1
 10
-78.9652
 20
-27.6452
 30
0.0
 11
-78.8495
 21
-27.475
 31
0.0
  0
LINE
  5
31A
  8
0
 62
1
 10
-78.8495
 20
-27.475
 30
0.0
 11
-78.7234
 21
-27.3124
 31
0.0
  0
LINE
  5
31B
  8
0
 62
1
 10
-78.7234
 20
-27.3124
 30
0.0
 11
-78.5874
 21
-27.1581
 31
0.0
  0
LINE
  5
31C
  8
0
 62
1
 10
-78.5874
 20
-27.1581
 30
0.0
 11
-78.4419
 21
-27.0126
 31
0.0
  0
LINE
  5
31D
  8
0
 62
1
 10
-78.4419
 20
-27.0126
 30
0.0
 11
-78.2876
 21
-26.8766
 31
0.0
  0
LINE
  5
31E
  8
0
 62
1
 10
-78.2876
 20
-26.8766
 30
0.0
 11
-78.125
 21
-26.7505
 31
0.0
  0
LINE
  5
31F
  8
0
 62
1
 10
-78.125
 20
-26.7505
 30
0.0
 11
-77.9548
 21
-26.6348
 31
0.0
  0
LINE
  5
320
  8
0
 62
1
 10
-77.9548
 20
-26.6348
 30
0.0
 11
-77.7777
 21
-26.5301
 31
0.0
  0
LINE
  5
321
  8
0
 62
1
 10
-77.7777
 20
-26.5301
 30
0.0
 11
-77.5944
 21
-26.4367
 31
0.0
  0
LINE
  5
322
  8
0
 62
1
 10
-77.5944
 20
-26.4367
 30
0.0
 11
-77.4056
 21
-26.355
 31
0.0
  0
LINE
  5
323
  8
0
 62
1
 10
-77.4056
 20
-26.355
 30
0.0
 11
-77.212
 21
-26.2853
 31
0.0
  0
LINE
  5
324
  8
0
 62
1
 10
-77.212
 20
-26.2853
 30
0.0
 11
-77.0145
 21
-26.2279
 31
0.0
  0
LINE
  5
325
  8
0
 62
1
 10
-77.0145
 20
-26.2279
 30
0.0
 11
-76.8137
 21
-26.183
 31
0.0
  0
LINE
  5
326
  8
0
 62
1
 10
-76.8137
 20
-26.183
 30
0.0
 11
-76.6105
 21
-26.1508
 31
0.0
  0
LINE
  5
327
  8
0
 62
1
 10
-76.6105
 20
-26.1508
 30
0.0
 11
-76.4056
 21
-26.1315
 31
0.0
  0
LINE
  5
328
  8
0
 62
1
 10
-76.4056
 20
-26.1315
 30
0.0
 11
-76.2
 21
-26.125
 31
0.0
  0
LINE
  5
329
  8
0
 62
1
 10
-76.2
 20
-26.125
 30
0.0
 11
-75.9944
 21
-26.1315
 31
0.0
  0
LINE
  5
32A
  8
0
 62
1
 10
-75.9944
 20
-26.1315
 30
0.0
 11
-75.7895
 21
-26.1508
 31
0.0
  0
LINE
  5
32B
  8
0
 62
1
 10
-75.7895
 20
-26.1508
 30
0.0
 11
-75.5863
 21
-26.183
 31
0.0
  0
LINE
  5
32C
  8
0
 62
1
 10
-75.5863
 20
-26.183
 30
0.0
 11
-75.3855
 21
-26.2279
 31
0.0
  0
LINE
  5
32D
  8
0
 62
1
 10
-75.3855
 20
-26.2279
 30
0.0
 11
-75.188
 21
-26.2853
 31
0.0
  0
LINE
  5
32E
  8
0
 62
1
 10
-75.188
 20
-26.2853
 30
0.0
 11
-74.9944
 21
-26.355
 31
0.0
  0
LINE
  5
32F
  8
0
 62
1
 10
-74.9944
 20
-26.355
 30
0.0
 11
-74.8056
 21
-26.4367
 31
0.0
  0
LINE
  5
330
  8
0
 62
1
 10
-74.8056
 20
-26.4367
 30
0.0
 11
-74.6223
 21
-26.5301
 31
0.0
  0
LINE
  5
331
  8
0
 62
1
 10
-74.6223
 20
-26.5301
 30
0.0
 11
-74.4452
 21
-26.6348
 31
0.0
  0
LINE
  5
332
  8
0
 62
1
 10
-74.4452
 20
-26.6348
 30
0.0
 11
-74.275
 21
-26.7505
 31
0.0
  0
LINE
  5
333
  8
0
 62
1
 10
-74.275
 20
-26.7505
 30
0.0
 11
-74.1124
 21
-26.8766
 31
0.0
  0
LINE
  5
334
  8
0
 62
1
 10
-74.1124
 20
-26.8766
 30
0.0
 11
-73.9581
 21
-27.0126
 31
0.0
  0
LINE
  5
335
  8
0
 62
1
 10
-73.9581
 20
-27.0126
 30
0.0
 11
-73.8126
 21
-27.1581
 31
0.0
  0
LINE
  5
336
  8
0
 62
1
 10
-73.8126
 20
-27.1581
 30
0.0
 11
-73.6766
 21
-27.3124
 31
0.0
  0
LINE
  5
337
  8
0
 62
1
 10
-73.6766
 20
-27.3124
 30
0.0
 11
-73.5505
 21
-27.475
 31
0.0
  0
LINE
  5
338
  8
0
 62
1
 10
-73.5505
 20
-27.475
 30
0.0
 11
-73.4348
 21
-27.6452
 31
0.0
  0
LINE
  5
339
  8
0
 62
1
 10
-73.4348
 20
-27.6452
 30
0.0
 11
-73.3301
 21
-27.8223
 31
0.0
  0
LINE
  5
33A
  8
0
 62
1
 10
-73.3301
 20
-27.8223
 30
0.0
 11
-73.2367
 21
-28.0056
 31
0.0
  0
LINE
  5
33B
  8
0
 62
1
 10
-73.2367
 20
-28.0056
 30
0.0
 11
-73.155
 21
-28.1944
 31
0.0
  0
LINE
  5
33C
  8
0
 62
1
 10
-73.155
 20
-28.1944
 30
0.0
 11
-73.0853
 21
-28.388
 31
0.0
  0
LINE
  5
33D
  8
0
 62
1
 10
-73.0853
 20
-28.388
 30
0.0
 11
-73.0279
 21
-28.5855
 31
0.0
  0
LINE
  5
33E
  8
0
 62
1
 10
-73.0279
 20
-28.5855
 30
0.0
 11
-72.983
 21
-28.7863
 31
0.0
  0
LINE
  5
33F
  8
0
 62
1
 10
-72.983
 20
-28.7863
 30
0.0
 11
-72.9508
 21
-28.9895
 31
0.0
  0
LINE
  5
340
  8
0
 62
1
 10
-72.9508
 20
-28.9895
 30
0.0
 11
-72.9315
 21
-29.1944
 31
0.0
  0
LINE
  5
341
  8
0
 62
1
 10
-72.9315
 20
-29.1944
 30
0.0
 11
-72.925
 21
-29.4
 31
0.0
  0
LINE
  5
342
  8
0
 62
1
 10
-72.925
 20
-29.4
 30
0.0
 11
-72.9315
 21
-29.6056
 31
0.0
  0
LINE
  5
343
  8
0
 62
1
 10
-72.9315
 20
-29.6056
 30
0.0
 11
-72.9508
 21
-29.8105
 31
0.0
  0
LINE
  5
344
  8
0
 62
1
 10
-72.9508
 20
-29.8105
 30
0.0
 11
-72.983
 21
-30.0137
 31
0.0
  0
LINE
  5
345
  8
0
 62
1
 10
-72.983
 20
-30.0137
 30
0.0
 11
-73.0279
 21
-30.2144
 31
0.0
  0
LINE
  5
346
  8
0
 62
1
 10
-73.0279
 20
-30.2144
 30
0.0
 11
-73.0853
 21
-30.412
 31
0.0
  0
LINE
  5
347
  8
0
 62
1
 10
-73.0853
 20
-30.412
 30
0.0
 11
-73.155
 21
-30.6056
 31
0.0
  0
LINE
  5
348
  8
0
 62
1
 10
-73.155
 20
-30.6056
 30
0.0
 11
-73.2367
 21
-30.7944
 31
0.0
  0
LINE
  5
349
  8
0
 62
1
 10
-73.2367
 20
-30.7944
 30
0.0
 11
-73.3301
 21
-30.9777
 31
0.0
  0
LINE
  5
34A
  8
0
 62
1
 10
-73.3301
 20
-30.9777
 30
0.0
 11
-73.4348
 21
-31.1548
 31
0.0
  0
LINE
  5
34B
  8
0
 62
1
 10
-73.4348
 20
-31.1548
 30
0.0
 11
-73.5505
 21
-31.325
 31
0.0
  0
LINE
  5
34C
  8
0
 62
1
 10
-73.5505
 20
-31.325
 30
0.0
 11
-73.6766
 21
-31.4875
 31
0.0
  0
LINE
  5
34D
  8
0
 62
1
 10
-73.6766
 20
-31.4875
 30
0.0
 11
-73.8126
 21
-31.6419
 31
0.0
  0
LINE
  5
34E
  8
0
 62
1
 10
-73.8126
 20
-31.6419
 30
0.0
 11
-73.9581
 21
-31.7874
 31
0.0
  0
LINE
  5
34F
  8
0
 62
1
 10
-73.9581
 20
-31.7874
 30
0.0
 11
-74.1124
 21
-31.9234
 31
0.0
  0
LINE
  5
350
  8
0
 62
1
 10
-74.1124
 20
-31.9234
 30
0.0
 11
-74.275
 21
-32.0495
 31
0.0
  0
LINE
  5
351
  8
0
 62
1
 10
-74.275
 20
-32.0495
 30
0.0
 11
-74.4452
 21
-32.1652
 31
0.0
  0
LINE
  5
352
  8
0
 62
1
 10
-74.4452
 20
-32.1652
 30
0.0
 11
-74.6223
 21
-32.2699
 31
0.0
  0
LINE
  5
353
  8
0
 62
1
 10
-74.6223
 20
-32.2699
 30
0.0
 11
-74.8056
 21
-32.3633
 31
0.0
  0
LINE
  5
354
  8
0
 62
1
 10
-74.8056
 20
-32.3633
 30
0.0
 11
-74.9944
 21
-32.445
 31
0.0
  0
LINE
  5
355
  8
0
 62
1
 10
-74.9944
 20
-32.445
 30
0.0
 11
-75.188
 21
-32.5147
 31
0.0
  0
LINE
  5
356
  8
0
 62
1
 10
-75.188
 20
-32.5147
 30
0.0
 11
-75.3855
 21
-32.5721
 31
0.0
  0
LINE
  5
357
  8
0
 62
1
 10
-75.3855
 20
-32.5721
 30
0.0
 11
-75.5863
 21
-32.617
 31
0.0
  0
LINE
  5
358
  8
0
 62
1
 10
-75.5863
 20
-32.617
 30
0.0
 11
-75.7895
 21
-32.6492
 31
0.0
  0
LINE
  5
359
  8
0
 62
1
 10
-75.7895
 20
-32.6492
 30
0.0
 11
-75.9944
 21
-32.6685
 31
0.0
  0
LINE
  5
35A
  8
0
 62
1
 10
-75.9944
 20
-32.6685
 30
0.0
 11
-76.2
 21
-32.675
 31
0.0
  0
LINE
  5
35B
  8
0
 62
1
 10
-76.2
 20
-32.675
 30
0.0
 11
-76.4056
 21
-32.6685
 31
0.0
  0
LINE
  5
35C
  8
0
 62
1
 10
52.093
 20
-54.7451
 30
0.0
 11
51.9367
 21
-54.7303
 31
0.0
  0
LINE
  5
35D
  8
0
 62
1
 10
51.9367
 20
-54.7303
 30
0.0
 11
51.7815
 21
-54.7057
 31
0.0
  0
LINE
  5
35E
  8
0
 62
1
 10
51.7815
 20
-54.7057
 30
0.0
 11
51.6283
 21
-54.6714
 31
0.0
  0
LINE
  5
35F
  8
0
 62
1
 10
51.6283
 20
-54.6714
 30
0.0
 11
51.4774
 21
-54.6276
 31
0.0
  0
LINE
  5
360
  8
0
 62
1
 10
51.4774
 20
-54.6276
 30
0.0
 11
51.3297
 21
-54.5744
 31
0.0
  0
LINE
  5
361
  8
0
 62
1
 10
51.3297
 20
-54.5744
 30
0.0
 11
51.1855
 21
-54.5121
 31
0.0
  0
LINE
  5
362
  8
0
 62
1
 10
51.1855
 20
-54.5121
 30
0.0
 11
51.0456
 21
-54.4408
 31
0.0
  0
LINE
  5
363
  8
0
 62
1
 10
51.0456
 20
-54.4408
 30
0.0
 11
50.9104
 21
-54.3608
 31
0.0
  0
LINE
  5
364
  8
0
 62
1
 10
50.9104
 20
-54.3608
 30
0.0
 11
50.7805
 21
-54.2725
 31
0.0
  0
LINE
  5
365
  8
0
 62
1
 10
50.7805
 20
-54.2725
 30
0.0
 11
50.6564
 21
-54.1763
 31
0.0
  0
LINE
  5
366
  8
0
 62
1
 10
50.6564
 20
-54.1763
 30
0.0
 11
50.5386
 21
-54.0724
 31
0.0
  0
LINE
  5
367
  8
0
 62
1
 10
50.5386
 20
-54.0724
 30
0.0
 11
50.4276
 21
-53.9614
 31
0.0
  0
LINE
  5
368
  8
0
 62
1
 10
50.4276
 20
-53.9614
 30
0.0
 11
50.3237
 21
-53.8436
 31
0.0
  0
LINE
  5
369
  8
0
 62
1
 10
50.3237
 20
-53.8436
 30
0.0
 11
50.2274
 21
-53.7195
 31
0.0
  0
LINE
  5
36A
  8
0
 62
1
 10
50.2274
 20
-53.7195
 30
0.0
 11
50.1392
 21
-53.5896
 31
0.0
  0
LINE
  5
36B
  8
0
 62
1
 10
50.1392
 20
-53.5896
 30
0.0
 11
50.0592
 21
-53.4544
 31
0.0
  0
LINE
  5
36C
  8
0
 62
1
 10
50.0592
 20
-53.4544
 30
0.0
 11
49.9879
 21
-53.3144
 31
0.0
  0
LINE
  5
36D
  8
0
 62
1
 10
49.9879
 20
-53.3144
 30
0.0
 11
49.9256
 21
-53.1703
 31
0.0
  0
LINE
  5
36E
  8
0
 62
1
 10
49.9256
 20
-53.1703
 30
0.0
 11
49.8723
 21
-53.0225
 31
0.0
  0
LINE
  5
36F
  8
0
 62
1
 10
49.8723
 20
-53.0225
 30
0.0
 11
49.8285
 21
-52.8717
 31
0.0
  0
LINE
  5
370
  8
0
 62
1
 10
49.8285
 20
-52.8717
 30
0.0
 11
49.7943
 21
-52.7184
 31
0.0
  0
LINE
  5
371
  8
0
 62
1
 10
49.7943
 20
-52.7184
 30
0.0
 11
49.7697
 21
-52.5633
 31
0.0
  0
LINE
  5
372
  8
0
 62
1
 10
49.7697
 20
-52.5633
 30
0.0
 11
49.7549
 21
-52.407
 31
0.0
  0
LINE
  5
373
  8
0
 62
1
 10
49.7549
 20
-52.407
 30
0.0
 11
49.75
 21
-52.25
 31
0.0
  0
LINE
  5
374
  8
0
 62
1
 10
49.75
 20
-52.25
 30
0.0
 11
49.7549
 21
-52.093
 31
0.0
  0
LINE
  5
375
  8
0
 62
1
 10
49.7549
 20
-52.093
 30
0.0
 11
49.7697
 21
-51.9367
 31
0.0
  0
LINE
  5
376
  8
0
 62
1
 10
49.7697
 20
-51.9367
 30
0.0
 11
49.7943
 21
-51.7815
 31
0.0
  0
LINE
  5
377
  8
0
 62
1
 10
49.7943
 20
-51.7815
 30
0.0
 11
49.8285
 21
-51.6283
 31
0.0
  0
LINE
  5
378
  8
0
 62
1
 10
49.8285
 20
-51.6283
 30
0.0
 11
49.8723
 21
-51.4774
 31
0.0
  0
LINE
  5
379
  8
0
 62
1
 10
49.8723
 20
-51.4774
 30
0.0
 11
49.9256
 21
-51.3297
 31
0.0
  0
LINE
  5
37A
  8
0
 62
1
 10
49.9256
 20
-51.3297
 30
0.0
 11
49.9879
 21
-51.1855
 31
0.0
  0
LINE
  5
37B
  8
0
 62
1
 10
49.9879
 20
-51.1855
 30
0.0
 11
50.0592
 21
-51.0456
 31
0.0
  0
LINE
  5
37C
  8
0
 62
1
 10
50.0592
 20
-51.0456
 30
0.0
 11
50.1392
 21
-50.9104
 31
0.0
  0
LINE
  5
37D
  8
0
 62
1
 10
50.1392
 20
-50.9104
 30
0.0
 11
50.2274
 21
-50.7805
 31
0.0
  0
LINE
  5
37E
  8
0
 62
1
 10
50.2274
 20
-50.7805
 30
0.0
 11
50.3237
 21
-50.6564
 31
0.0
  0
LINE
  5
37F
  8
0
 62
1
 10
50.3237
 20
-50.6564
 30
0.0
 11
50.4276
 21
-50.5386
 31
0.0
  0
LINE
  5
380
  8
0
 62
1
 10
50.4276
 20
-50.5386
 30
0.0
 11
50.5386
 21
-50.4276
 31
0.0
  0
LINE
  5
381
  8
0
 62
1
 10
50.5386
 20
-50.4276
 30
0.0
 11
50.6564
 21
-50.3237
 31
0.0
  0
LINE
  5
382
  8
0
 62
1
 10
50.6564
 20
-50.3237
 30
0.0
 11
50.7805
 21
-50.2274
 31
0.0
  0
LINE
  5
383
  8
0
 62
1
 10
50.7805
 20
-50.2274
 30
0.0
 11
50.9104
 21
-50.1392
 31
0.0
  0
LINE
  5
384
  8
0
 62
1
 10
50.9104
 20
-50.1392
 30
0.0
 11
51.0456
 21
-50.0592
 31
0.0
  0
LINE
  5
385
  8
0
 62
1
 10
51.0456
 20
-50.0592
 30
0.0
 11
51.1855
 21
-49.9879
 31
0.0
  0
LINE
  5
386
  8
0
 62
1
 10
51.1855
 20
-49.9879
 30
0.0
 11
51.3297
 21
-49.9256
 31
0.0
  0
LINE
  5
387
  8
0
 62
1
 10
51.3297
 20
-49.9256
 30
0.0
 11
51.4774
 21
-49.8723
 31
0.0
  0
LINE
  5
388
  8
0
 62
1
 10
51.4774
 20
-49.8723
 30
0.0
 11
51.6283
 21
-49.8285
 31
0.0
  0
LINE
  5
389
  8
0
 62
1
 10
51.6283
 20
-49.8285
 30
0.0
 11
51.7815
 21
-49.7943
 31
0.0
  0
LINE
  5
38A
  8
0
 62
1
 10
51.7815
 20
-49.7943
 30
0.0
 11
51.9367
 21
-49.7697
 31
0.0
  0
LINE
  5
38B
  8
0
 62
1
 10
51.9367
 20
-49.7697
 30
0.0
 11
52.093
 21
-49.7549
 31
0.0
  0
LINE
  5
38C
  8
0
 62
1
 10
52.093
 20
-49.7549
 30
0.0
 11
52.25
 21
-49.75
 31
0.0
  0
LINE
  5
38D
  8
0
 62
1
 10
52.25
 20
-49.75
 30
0.0
 11
52.407
 21
-49.7549
 31
0.0
  0
LINE
  5
38E
  8
0
 62
1
 10
52.407
 20
-49.7549
 30
0.0
 11
52.5633
 21
-49.7697
 31
0.0
  0
LINE
  5
38F
  8
0
 62
1
 10
52.5633
 20
-49.7697
 30
0.0
 11
52.7184
 21
-49.7943
 31
0.0
  0
LINE
  5
390
  8
0
 62
1
 10
52.7184
 20
-49.7943
 30
0.0
 11
52.8717
 21
-49.8285
 31
0.0
  0
LINE
  5
391
  8
0
 62
1
 10
52.8717
 20
-49.8285
 30
0.0
 11
53.0225
 21
-49.8723
 31
0.0
  0
LINE
  5
392
  8
0
 62
1
 10
53.0225
 20
-49.8723
 30
0.0
 11
53.1703
 21
-49.9256
 31
0.0
  0
LINE
  5
393
  8
0
 62
1
 10
53.1703
 20
-49.9256
 30
0.0
 11
53.3144
 21
-49.9879
 31
0.0
  0
LINE
  5
394
  8
0
 62
1
 10
53.3144
 20
-49.9879
 30
0.0
 11
53.4544
 21
-50.0592
 31
0.0
  0
LINE
  5
395
  8
0
 62
1
 10
53.4544
 20
-50.0592
 30
0.0
 11
53.5896
 21
-50.1392
 31
0.0
  0
LINE
  5
396
  8
0
 62
1
 10
53.5896
 20
-50.1392
 30
0.0
 11
53.7195
 21
-50.2274
 31
0.0
  0
LINE
  5
397
  8
0
 62
1
 10
53.7195
 20
-50.2274
 30
0.0
 11
53.8436
 21
-50.3237
 31
0.0
  0
LINE
  5
398
  8
0
 62
1
 10
53.8436
 20
-50.3237
 30
0.0
 11
53.9614
 21
-50.4276
 31
0.0
  0
LINE
  5
399
  8
0
 62
1
 10
53.9614
 20
-50.4276
 30
0.0
 11
54.0724
 21
-50.5386
 31
0.0
  0
LINE
  5
39A
  8
0
 62
1
 10
54.0724
 20
-50.5386
 30
0.0
 11
54.1763
 21
-50.6564
 31
0.0
  0
LINE
  5
39B
  8
0
 62
1
 10
54.1763
 20
-50.6564
 30
0.0
 11
54.2725
 21
-50.7805
 31
0.0
  0
LINE
  5
39C
  8
0
 62
1
 10
54.2725
 20
-50.7805
 30
0.0
 11
54.3608
 21
-50.9104
 31
0.0
  0
LINE
  5
39D
  8
0
 62
1
 10
54.3608
 20
-50.9104
 30
0.0
 11
54.4408
 21
-51.0456
 31
0.0
  0
LINE
  5
39E
  8
0
 62
1
 10
54.4408
 20
-51.0456
 30
0.0
 11
54.5121
 21
-51.1855
 31
0.0
  0
LINE
  5
39F
  8
0
 62
1
 10
54.5121
 20
-51.1855
 30
0.0
 11
54.5744
 21
-51.3297
 31
0.0
  0
LINE
  5
3A0
  8
0
 62
1
 10
54.5744
 20
-51.3297
 30
0.0
 11
54.6276
 21
-51.4774
 31
0.0
  0
LINE
  5
3A1
  8
0
 62
1
 10
54.6276
 20
-51.4774
 30
0.0
 11
54.6714
 21
-51.6283
 31
0.0
  0
LINE
  5
3A2
  8
0
 62
1
 10
54.6714
 20
-51.6283
 30
0.0
 11
54.7057
 21
-51.7815
 31
0.0
  0
LINE
  5
3A3
  8
0
 62
1
 10
54.7057
 20
-51.7815
 30
0.0
 11
54.7303
 21
-51.9367
 31
0.0
  0
LINE
  5
3A4
  8
0
 62
1
 10
54.7303
 20
-51.9367
 30
0.0
 11
54.7451
 21
-52.093
 31
0.0
  0
LINE
  5
3A5
  8
0
 62
1
 10
54.7451
 20
-52.093
 30
0.0
 11
54.75
 21
-52.25
 31
0.0
  0
LINE
  5
3A6
  8
0
 62
1
 10
54.75
 20
-52.25
 30
0.0
 11
54.7451
 21
-52.407
 31
0.0
  0
LINE
  5
3A7
  8
0
 62
1
 10
54.7451
 20
-52.407
 30
0.0
 11
54.7303
 21
-52.5633
 31
0.0
  0
LINE
  5
3A8
  8
0
 62
1
 10
54.7303
 20
-52.5633
 30
0.0
 11
54.7057
 21
-52.7184
 31
0.0
  0
LINE
  5
3A9
  8
0
 62
1
 10
54.7057
 20
-52.7184
 30
0.0
 11
54.6714
 21
-52.8717
 31
0.0
  0
LINE
  5
3AA
  8
0
 62
1
 10
54.6714
 20
-52.8717
 30
0.0
 11
54.6276
 21
-53.0225
 31
0.0
  0
LINE
  5
3AB
  8
0
 62
1
 10
54.6276
 20
-53.0225
 30
0.0
 11
54.5744
 21
-53.1703
 31
0.0
  0
LINE
  5
3AC
  8
0
 62
1
 10
54.5744
 20
-53.1703
 30
0.0
 11
54.5121
 21
-53.3144
 31
0.0
  0
LINE
  5
3AD
  8
0
 62
1
 10
54.5121
 20
-53.3144
 30
0.0
 11
54.4408
 21
-53.4544
 31
0.0
  0
LINE
  5
3AE
  8
0
 62
1
 10
54.4408
 20
-53.4544
 30
0.0
 11
54.3608
 21
-53.5896
 31
0.0
  0
LINE
  5
3AF
  8
0
 62
1
 10
54.3608
 20
-53.5896
 30
0.0
 11
54.2725
 21
-53.7195
 31
0.0
  0
LINE
  5
3B0
  8
0
 62
1
 10
54.2725
 20
-53.7195
 30
0.0
 11
54.1763
 21
-53.8436
 31
0.0
  0
LINE
  5
3B1
  8
0
 62
1
 10
54.1763
 20
-53.8436
 30
0.0
 11
54.0724
 21
-53.9614
 31
0.0
  0
LINE
  5
3B2
  8
0
 62
1
 10
54.0724
 20
-53.9614
 30
0.0
 11
53.9614
 21
-54.0724
 31
0.0
  0
LINE
  5
3B3
  8
0
 62
1
 10
53.9614
 20
-54.0724
 30
0.0
 11
53.8436
 21
-54.1763
 31
0.0
  0
LINE
  5
3B4
  8
0
 62
1
 10
53.8436
 20
-54.1763
 30
0.0
 11
53.7195
 21
-54.2725
 31
0.0
  0
LINE
  5
3B5
  8
0
 62
1
 10
53.7195
 20
-54.2725
 30
0.0
 11
53.5896
 21
-54.3608
 31
0.0
  0
LINE
  5
3B6
  8
0
 62
1
 10
53.5896
 20
-54.3608
 30
0.0
 11
53.4544
 21
-54.4408
 31
0.0
  0
LINE
  5
3B7
  8
0
 62
1
 10
53.4544
 20
-54.4408
 30
0.0
 11
53.3144
 21
-54.5121
 31
0.0
  0
LINE
  5
3B8
  8
0
 62
1
 10
53.3144
 20
-54.5121
 30
0.0
 11
53.1703
 21
-54.5744
 31
0.0
  0
LINE
  5
3B9
  8
0
 62
1
 10
53.1703
 20
-54.5744
 30
0.0
 11
53.0225
 21
-54.6276
 31
0.0
  0
LINE
  5
3BA
  8
0
 62
1
 10
53.0225
 20
-54.6276
 30
0.0
 11
52.8717
 21
-54.6714
 31
0.0
  0
LINE
  5
3BB
  8
0
 62
1
 10
52.8717
 20
-54.6714
 30
0.0
 11
52.7184
 21
-54.7057
 31
0.0
  0
LINE
  5
3BC
  8
0
 62
1
 10
52.7184
 20
-54.7057
 30
0.0
 11
52.5633
 21
-54.7303
 31
0.0
  0
LINE
  5
3BD
  8
0
 62
1
 10
52.5633
 20
-54.7303
 30
0.0
 11
52.407
 21
-54.7451
 31
0.0
  0
LINE
  5
3BE
  8
0
 62
1
 10
52.407
 20
-54.7451
 30
0.0
 11
52.25
 21
-54.75
 31
0.0
  0
LINE
  5
3BF
  8
0
 62
1
 10
52.25
 20
-54.75
 30
0.0
 11
52.093
 21
-54.7451
 31
0.0
  0
LINE
  5
3C0
  8
0
 62
1
 10
-52.407
 20
-54.7451
 30
0.0
 11
-52.5633
 21
-54.7303
 31
0.0
  0
LINE
  5
3C1
  8
0
 62
1
 10
-52.5633
 20
-54.7303
 30
0.0
 11
-52.7184
 21
-54.7057
 31
0.0
  0
LINE
  5
3C2
  8
0
 62
1
 10
-52.7184
 20
-54.7057
 30
0.0
 11
-52.8717
 21
-54.6714
 31
0.0
  0
LINE
  5
3C3
  8
0
 62
1
 10
-52.8717
 20
-54.6714
 30
0.0
 11
-53.0225
 21
-54.6276
 31
0.0
  0
LINE
  5
3C4
  8
0
 62
1
 10
-53.0225
 20
-54.6276
 30
0.0
 11
-53.1703
 21
-54.5744
 31
0.0
  0
LINE
  5
3C5
  8
0
 62
1
 10
-53.1703
 20
-54.5744
 30
0.0
 11
-53.3144
 21
-54.5121
 31
0.0
  0
LINE
  5
3C6
  8
0
 62
1
 10
-53.3144
 20
-54.5121
 30
0.0
 11
-53.4544
 21
-54.4408
 31
0.0
  0
LINE
  5
3C7
  8
0
 62
1
 10
-53.4544
 20
-54.4408
 30
0.0
 11
-53.5896
 21
-54.3608
 31
0.0
  0
LINE
  5
3C8
  8
0
 62
1
 10
-53.5896
 20
-54.3608
 30
0.0
 11
-53.7195
 21
-54.2725
 31
0.0
  0
LINE
  5
3C9
  8
0
 62
1
 10
-53.7195
 20
-54.2725
 30
0.0
 11
-53.8436
 21
-54.1763
 31
0.0
  0
LINE
  5
3CA
  8
0
 62
1
 10
-53.8436
 20
-54.1763
 30
0.0
 11
-53.9614
 21
-54.0724
 31
0.0
  0
LINE
  5
3CB
  8
0
 62
1
 10
-53.9614
 20
-54.0724
 30
0.0
 11
-54.0724
 21
-53.9614
 31
0.0
  0
LINE
  5
3CC
  8
0
 62
1
 10
-54.0724
 20
-53.9614
 30
0.0
 11
-54.1763
 21
-53.8436
 31
0.0
  0
LINE
  5
3CD
  8
0
 62
1
 10
-54.1763
 20
-53.8436
 30
0.0
 11
-54.2725
 21
-53.7195
 31
0.0
  0
LINE
  5
3CE
  8
0
 62
1
 10
-54.2725
 20
-53.7195
 30
0.0
 11
-54.3608
 21
-53.5896
 31
0.0
  0
LINE
  5
3CF
  8
0
 62
1
 10
-54.3608
 20
-53.5896
 30
0.0
 11
-54.4408
 21
-53.4544
 31
0.0
  0
LINE
  5
3D0
  8
0
 62
1
 10
-54.4408
 20
-53.4544
 30
0.0
 11
-54.5121
 21
-53.3144
 31
0.0
  0
LINE
  5
3D1
  8
0
 62
1
 10
-54.5121
 20
-53.3144
 30
0.0
 11
-54.5744
 21
-53.1703
 31
0.0
  0
LINE
  5
3D2
  8
0
 62
1
 10
-54.5744
 20
-53.1703
 30
0.0
 11
-54.6276
 21
-53.0225
 31
0.0
  0
LINE
  5
3D3
  8
0
 62
1
 10
-54.6276
 20
-53.0225
 30
0.0
 11
-54.6714
 21
-52.8717
 31
0.0
  0
LINE
  5
3D4
  8
0
 62
1
 10
-54.6714
 20
-52.8717
 30
0.0
 11
-54.7057
 21
-52.7184
 31
0.0
  0
LINE
  5
3D5
  8
0
 62
1
 10
-54.7057
 20
-52.7184
 30
0.0
 11
-54.7303
 21
-52.5633
 31
0.0
  0
LINE
  5
3D6
  8
0
 62
1
 10
-54.7303
 20
-52.5633
 30
0.0
 11
-54.7451
 21
-52.407
 31
0.0
  0
LINE
  5
3D7
  8
0
 62
1
 10
-54.7451
 20
-52.407
 30
0.0
 11
-54.75
 21
-52.25
 31
0.0
  0
LINE
  5
3D8
  8
0
 62
1
 10
-54.75
 20
-52.25
 30
0.0
 11
-54.7451
 21
-52.093
 31
0.0
  0
LINE
  5
3D9
  8
0
 62
1
 10
-54.7451
 20
-52.093
 30
0.0
 11
-54.7303
 21
-51.9367
 31
0.0
  0
LINE
  5
3DA
  8
0
 62
1
 10
-54.7303
 20
-51.9367
 30
0.0
 11
-54.7057
 21
-51.7815
 31
0.0
  0
LINE
  5
3DB
  8
0
 62
1
 10
-54.7057
 20
-51.7815
 30
0.0
 11
-54.6714
 21
-51.6283
 31
0.0
  0
LINE
  5
3DC
  8
0
 62
1
 10
-54.6714
 20
-51.6283
 30
0.0
 11
-54.6276
 21
-51.4774
 31
0.0
  0
LINE
  5
3DD
  8
0
 62
1
 10
-54.6276
 20
-51.4774
 30
0.0
 11
-54.5744
 21
-51.3297
 31
0.0
  0
LINE
  5
3DE
  8
0
 62
1
 10
-54.5744
 20
-51.3297
 30
0.0
 11
-54.5121
 21
-51.1855
 31
0.0
  0
LINE
  5
3DF
  8
0
 62
1
 10
-54.5121
 20
-51.1855
 30
0.0
 11
-54.4408
 21
-51.0456
 31
0.0
  0
LINE
  5
3E0
  8
0
 62
1
 10
-54.4408
 20
-51.0456
 30
0.0
 11
-54.3608
 21
-50.9104
 31
0.0
  0
LINE
  5
3E1
  8
0
 62
1
 10
-54.3608
 20
-50.9104
 30
0.0
 11
-54.2725
 21
-50.7805
 31
0.0
  0
LINE
  5
3E2
  8
0
 62
1
 10
-54.2725
 20
-50.7805
 30
0.0
 11
-54.1763
 21
-50.6564
 31
0.0
  0
LINE
  5
3E3
  8
0
 62
1
 10
-54.1763
 20
-50.6564
 30
0.0
 11
-54.0724
 21
-50.5386
 31
0.0
  0
LINE
  5
3E4
  8
0
 62
1
 10
-54.0724
 20
-50.5386
 30
0.0
 11
-53.9614
 21
-50.4276
 31
0.0
  0
LINE
  5
3E5
  8
0
 62
1
 10
-53.9614
 20
-50.4276
 30
0.0
 11
-53.8436
 21
-50.3237
 31
0.0
  0
LINE
  5
3E6
  8
0
 62
1
 10
-53.8436
 20
-50.3237
 30
0.0
 11
-53.7195
 21
-50.2274
 31
0.0
  0
LINE
  5
3E7
  8
0
 62
1
 10
-53.7195
 20
-50.2274
 30
0.0
 11
-53.5896
 21
-50.1392
 31
0.0
  0
LINE
  5
3E8
  8
0
 62
1
 10
-53.5896
 20
-50.1392
 30
0.0
 11
-53.4544
 21
-50.0592
 31
0.0
  0
LINE
  5
3E9
  8
0
 62
1
 10
-53.4544
 20
-50.0592
 30
0.0
 11
-53.3144
 21
-49.9879
 31
0.0
  0
LINE
  5
3EA
  8
0
 62
1
 10
-53.3144
 20
-49.9879
 30
0.0
 11
-53.1703
 21
-49.9256
 31
0.0
  0
LINE
  5
3EB
  8
0
 62
1
 10
-53.1703
 20
-49.9256
 30
0.0
 11
-53.0225
 21
-49.8723
 31
0.0
  0
LINE
  5
3EC
  8
0
 62
1
 10
-53.0225
 20
-49.8723
 30
0.0
 11
-52.8717
 21
-49.8285
 31
0.0
  0
LINE
  5
3ED
  8
0
 62
1
 10
-52.8717
 20
-49.8285
 30
0.0
 11
-52.7184
 21
-49.7943
 31
0.0
  0
LINE
  5
3EE
  8
0
 62
1
 10
-52.7184
 20
-49.7943
 30
0.0
 11
-52.5633
 21
-49.7697
 31
0.0
  0
LINE
  5
3EF
  8
0
 62
1
 10
-52.5633
 20
-49.7697
 30
0.0
 11
-52.407
 21
-49.7549
 31
0.0
  0
LINE
  5
3F0
  8
0
 62
1
 10
-52.407
 20
-49.7549
 30
0.0
 11
-52.25
 21
-49.75
 31
0.0
  0
LINE
  5
3F1
  8
0
 62
1
 10
-52.25
 20
-49.75
 30
0.0
 11
-52.093
 21
-49.7549
 31
0.0
  0
LINE
  5
3F2
  8
0
 62
1
 10
-52.093
 20
-49.7549
 30
0.0
 11
-51.9367
 21
-49.7697
 31
0.0
  0
LINE
  5
3F3
  8
0
 62
1
 10
-51.9367
 20
-49.7697
 30
0.0
 11
-51.7815
 21
-49.7943
 31
0.0
  0
LINE
  5
3F4
  8
0
 62
1
 10
-51.7815
 20
-49.7943
 30
0.0
 11
-51.6283
 21
-49.8285
 31
0.0
  0
LINE
  5
3F5
  8
0
 62
1
 10
-51.6283
 20
-49.8285
 30
0.0
 11
-51.4774
 21
-49.8723
 31
0.0
  0
LINE
  5
3F6
  8
0
 62
1
 10
-51.4774
 20
-49.8723
 30
0.0
 11
-51.3297
 21
-49.9256
 31
0.0
  0
LINE
  5
3F7
  8
0
 62
1
 10
-51.3297
 20
-49.9256
 30
0.0
 11
-51.1855
 21
-49.9879
 31
0.0
  0
LINE
  5
3F8
  8
0
 62
1
 10
-51.1855
 20
-49.9879
 30
0.0
 11
-51.0456
 21
-50.0592
 31
0.0
  0
LINE
  5
3F9
  8
0
 62
1
 10
-51.0456
 20
-50.0592
 30
0.0
 11
-50.9104
 21
-50.1392
 31
0.0
  0
LINE
  5
3FA
  8
0
 62
1
 10
-50.9104
 20
-50.1392
 30
0.0
 11
-50.7805
 21
-50.2274
 31
0.0
  0
LINE
  5
3FB
  8
0
 62
1
 10
-50.7805
 20
-50.2274
 30
0.0
 11
-50.6564
 21
-50.3237
 31
0.0
  0
LINE
  5
3FC
  8
0
 62
1
 10
-50.6564
 20
-50.3237
 30
0.0
 11
-50.5386
 21
-50.4276
 31
0.0
  0
LINE
  5
3FD
  8
0
 62
1
 10
-50.5386
 20
-50.4276
 30
0.0
 11
-50.4276
 21
-50.5386
 31
0.0
  0
LINE
  5
3FE
  8
0
 62
1
 10
-50.4276
 20
-50.5386
 30
0.0
 11
-50.3237
 21
-50.6564
 31
0.0
  0
LINE
  5
3FF
  8
0
 62
1
 10
-50.3237
 20
-50.6564
 30
0.0
 11
-50.2274
 21
-50.7805
 31
0.0
  0
LINE
  5
400
  8
0
 62
1
 10
-50.2274
 20
-50.7805
 30
0.0
 11
-50.1392
 21
-50.9104
 31
0.0
  0
LINE
  5
401
  8
0
 62
1
 10
-50.1392
 20
-50.9104
 30
0.0
 11
-50.0592
 21
-51.0456
 31
0.0
  0
LINE
  5
402
  8
0
 62
1
 10
-50.0592
 20
-51.0456
 30
0.0
 11
-49.9879
 21
-51.1855
 31
0.0
  0
LINE
  5
403
  8
0
 62
1
 10
-49.9879
 20
-51.1855
 30
0.0
 11
-49.9256
 21
-51.3297
 31
0.0
  0
LINE
  5
404
  8
0
 62
1
 10
-49.9256
 20
-51.3297
 30
0.0
 11
-49.8723
 21
-51.4774
 31
0.0
  0
LINE
  5
405
  8
0
 62
1
 10
-49.8723
 20
-51.4774
 30
0.0
 11
-49.8285
 21
-51.6283
 31
0.0
  0
LINE
  5
406
  8
0
 62
1
 10
-49.8285
 20
-51.6283
 30
0.0
 11
-49.7943
 21
-51.7815
 31
0.0
  0
LINE
  5
407
  8
0
 62
1
 10
-49.7943
 20
-51.7815
 30
0.0
 11
-49.7697
 21
-51.9367
 31
0.0
  0
LINE
  5
408
  8
0
 62
1
 10
-49.7697
 20
-51.9367
 30
0.0
 11
-49.7549
 21
-52.093
 31
0.0
  0
LINE
  5
409
  8
0
 62
1
 10
-49.7549
 20
-52.093
 30
0.0
 11
-49.75
 21
-52.25
 31
0.0
  0
LINE
  5
40A
  8
0
 62
1
 10
-49.75
 20
-52.25
 30
0.0
 11
-49.7549
 21
-52.407
 31
0.0
  0
LINE
  5
40B
  8
0
 62
1
 10
-49.7549
 20
-52.407
 30
0.0
 11
-49.7697
 21
-52.5633
 31
0.0
  0
LINE
  5
40C
  8
0
 62
1
 10
-49.7697
 20
-52.5633
 30
0.0
 11
-49.7943
 21
-52.7184
 31
0.0
  0
LINE
  5
40D
  8
0
 62
1
 10
-49.7943
 20
-52.7184
 30
0.0
 11
-49.8285
 21
-52.8717
 31
0.0
  0
LINE
  5
40E
  8
0
 62
1
 10
-49.8285
 20
-52.8717
 30
0.0
 11
-49.8723
 21
-53.0225
 31
0.0
  0
LINE
  5
40F
  8
0
 62
1
 10
-49.8723
 20
-53.0225
 30
0.0
 11
-49.9256
 21
-53.1703
 31
0.0
  0
LINE
  5
410
  8
0
 62
1
 10
-49.9256
 20
-53.1703
 30
0.0
 11
-49.9879
 21
-53.3144
 31
0.0
  0
LINE
  5
411
  8
0
 62
1
 10
-49.9879
 20
-53.3144
 30
0.0
 11
-50.0592
 21
-53.4544
 31
0.0
  0
LINE
  5
412
  8
0
 62
1
 10
-50.0592
 20
-53.4544
 30
0.0
 11
-50.1392
 21
-53.5896
 31
0.0
  0
LINE
  5
413
  8
0
 62
1
 10
-50.1392
 20
-53.5896
 30
0.0
 11
-50.2274
 21
-53.7195
 31
0.0
  0
LINE
  5
414
  8
0
 62
1
 10
-50.2274
 20
-53.7195
 30
0.0
 11
-50.3237
 21
-53.8436
 31
0.0
  0
LINE
  5
415
  8
0
 62
1
 10
-50.3237
 20
-53.8436
 30
0.0
 11
-50.4276
 21
-53.9614
 31
0.0
  0
LINE
  5
416
  8
0
 62
1
 10
-50.4276
 20
-53.9614
 30
0.0
 11
-50.5386
 21
-54.0724
 31
0.0
  0
LINE
  5
417
  8
0
 62
1
 10
-50.5386
 20
-54.0724
 30
0.0
 11
-50.6564
 21
-54.1763
 31
0.0
  0
LINE
  5
418
  8
0
 62
1
 10
-50.6564
 20
-54.1763
 30
0.0
 11
-50.7805
 21
-54.2725
 31
0.0
  0
LINE
  5
419
  8
0
 62
1
 10
-50.7805
 20
-54.2725
 30
0.0
 11
-50.9104
 21
-54.3608
 31
0.0
  0
LINE
  5
41A
  8
0
 62
1
 10
-50.9104
 20
-54.3608
 30
0.0
 11
-51.0456
 21
-54.4408
 31
0.0
  0
LINE
  5
41B
  8
0
 62
1
 10
-51.0456
 20
-54.4408
 30
0.0
 11
-51.1855
 21
-54.5121
 31
0.0
  0
LINE
  5
41C
  8
0
 62
1
 10
-51.1855
 20
-54.5121
 30
0.0
 11
-51.3297
 21
-54.5744
 31
0.0
  0
LINE
  5
41D
  8
0
 62
1
 10
-51.3297
 20
-54.5744
 30
0.0
 11
-51.4774
 21
-54.6276
 31
0.0
  0
LINE
  5
41E
  8
0
 62
1
 10
-51.4774
 20
-54.6276
 30
0.0
 11
-51.6283
 21
-54.6714
 31
0.0
  0
LINE
  5
41F
  8
0
 62
1
 10
-51.6283
 20
-54.6714
 30
0.0
 11
-51.7815
 21
-54.7057
 31
0.0
  0
LINE
  5
420
  8
0
 62
1
 10
-51.7815
 20
-54.7057
 30
0.0
 11
-51.9367
 21
-54.7303
 31
0.0
  0
LINE
  5
421
  8
0
 62
1
 10
-51.9367
 20
-54.7303
 30
0.0
 11
-52.093
 21
-54.7451
 31
0.0
  0
LINE
  5
422
  8
0
 62
1
 10
-52.093
 20
-54.7451
 30
0.0
 11
-52.25
 21
-54.75
 31
0.0
  0
LINE
  5
423
  8
0
 62
1
 10
-52.25
 20
-54.75
 30
0.0
 11
-52.407
 21
-54.7451
 31
0.0
  0
LINE
  5
424
  8
0
 62
1
 10
75.9944
 20
-58.0685
 30
0.0
 11
75.7895
 21
-58.0492
 31
0.0
  0
LINE
  5
425
  8
0
 62
1
 10
75.7895
 20
-58.0492
 30
0.0
 11
75.5863
 21
-58.017
 31
0.0
  0
LINE
  5
426
  8
0
 62
1
 10
75.5863
 20
-58.017
 30
0.0
 11
75.3855
 21
-57.9721
 31
0.0
  0
LINE
  5
427
  8
0
 62
1
 10
75.3855
 20
-57.9721
 30
0.0
 11
75.188
 21
-57.9147
 31
0.0
  0
LINE
  5
428
  8
0
 62
1
 10
75.188
 20
-57.9147
 30
0.0
 11
74.9944
 21
-57.845
 31
0.0
  0
LINE
  5
429
  8
0
 62
1
 10
74.9944
 20
-57.845
 30
0.0
 11
74.8056
 21
-57.7633
 31
0.0
  0
LINE
  5
42A
  8
0
 62
1
 10
74.8056
 20
-57.7633
 30
0.0
 11
74.6223
 21
-57.6699
 31
0.0
  0
LINE
  5
42B
  8
0
 62
1
 10
74.6223
 20
-57.6699
 30
0.0
 11
74.4452
 21
-57.5652
 31
0.0
  0
LINE
  5
42C
  8
0
 62
1
 10
74.4452
 20
-57.5652
 30
0.0
 11
74.275
 21
-57.4495
 31
0.0
  0
LINE
  5
42D
  8
0
 62
1
 10
74.275
 20
-57.4495
 30
0.0
 11
74.1124
 21
-57.3234
 31
0.0
  0
LINE
  5
42E
  8
0
 62
1
 10
74.1124
 20
-57.3234
 30
0.0
 11
73.9581
 21
-57.1874
 31
0.0
  0
LINE
  5
42F
  8
0
 62
1
 10
73.9581
 20
-57.1874
 30
0.0
 11
73.8126
 21
-57.0419
 31
0.0
  0
LINE
  5
430
  8
0
 62
1
 10
73.8126
 20
-57.0419
 30
0.0
 11
73.6766
 21
-56.8876
 31
0.0
  0
LINE
  5
431
  8
0
 62
1
 10
73.6766
 20
-56.8876
 30
0.0
 11
73.5505
 21
-56.725
 31
0.0
  0
LINE
  5
432
  8
0
 62
1
 10
73.5505
 20
-56.725
 30
0.0
 11
73.4348
 21
-56.5548
 31
0.0
  0
LINE
  5
433
  8
0
 62
1
 10
73.4348
 20
-56.5548
 30
0.0
 11
73.3301
 21
-56.3777
 31
0.0
  0
LINE
  5
434
  8
0
 62
1
 10
73.3301
 20
-56.3777
 30
0.0
 11
73.2367
 21
-56.1944
 31
0.0
  0
LINE
  5
435
  8
0
 62
1
 10
73.2367
 20
-56.1944
 30
0.0
 11
73.155
 21
-56.0056
 31
0.0
  0
LINE
  5
436
  8
0
 62
1
 10
73.155
 20
-56.0056
 30
0.0
 11
73.0853
 21
-55.812
 31
0.0
  0
LINE
  5
437
  8
0
 62
1
 10
73.0853
 20
-55.812
 30
0.0
 11
73.0279
 21
-55.6145
 31
0.0
  0
LINE
  5
438
  8
0
 62
1
 10
73.0279
 20
-55.6145
 30
0.0
 11
72.983
 21
-55.4137
 31
0.0
  0
LINE
  5
439
  8
0
 62
1
 10
72.983
 20
-55.4137
 30
0.0
 11
72.9508
 21
-55.2105
 31
0.0
  0
LINE
  5
43A
  8
0
 62
1
 10
72.9508
 20
-55.2105
 30
0.0
 11
72.9315
 21
-55.0056
 31
0.0
  0
LINE
  5
43B
  8
0
 62
1
 10
72.9315
 20
-55.0056
 30
0.0
 11
72.925
 21
-54.8
 31
0.0
  0
LINE
  5
43C
  8
0
 62
1
 10
72.925
 20
-54.8
 30
0.0
 11
72.9315
 21
-54.5944
 31
0.0
  0
LINE
  5
43D
  8
0
 62
1
 10
72.9315
 20
-54.5944
 30
0.0
 11
72.9508
 21
-54.3895
 31
0.0
  0
LINE
  5
43E
  8
0
 62
1
 10
72.9508
 20
-54.3895
 30
0.0
 11
72.983
 21
-54.1863
 31
0.0
  0
LINE
  5
43F
  8
0
 62
1
 10
72.983
 20
-54.1863
 30
0.0
 11
73.0279
 21
-53.9855
 31
0.0
  0
LINE
  5
440
  8
0
 62
1
 10
73.0279
 20
-53.9855
 30
0.0
 11
73.0853
 21
-53.788
 31
0.0
  0
LINE
  5
441
  8
0
 62
1
 10
73.0853
 20
-53.788
 30
0.0
 11
73.155
 21
-53.5944
 31
0.0
  0
LINE
  5
442
  8
0
 62
1
 10
73.155
 20
-53.5944
 30
0.0
 11
73.2367
 21
-53.4056
 31
0.0
  0
LINE
  5
443
  8
0
 62
1
 10
73.2367
 20
-53.4056
 30
0.0
 11
73.3301
 21
-53.2222
 31
0.0
  0
LINE
  5
444
  8
0
 62
1
 10
73.3301
 20
-53.2222
 30
0.0
 11
73.4348
 21
-53.0452
 31
0.0
  0
LINE
  5
445
  8
0
 62
1
 10
73.4348
 20
-53.0452
 30
0.0
 11
73.5505
 21
-52.875
 31
0.0
  0
LINE
  5
446
  8
0
 62
1
 10
73.5505
 20
-52.875
 30
0.0
 11
73.6766
 21
-52.7124
 31
0.0
  0
LINE
  5
447
  8
0
 62
1
 10
73.6766
 20
-52.7124
 30
0.0
 11
73.8126
 21
-52.5581
 31
0.0
  0
LINE
  5
448
  8
0
 62
1
 10
73.8126
 20
-52.5581
 30
0.0
 11
73.9581
 21
-52.4126
 31
0.0
  0
LINE
  5
449
  8
0
 62
1
 10
73.9581
 20
-52.4126
 30
0.0
 11
74.1124
 21
-52.2766
 31
0.0
  0
LINE
  5
44A
  8
0
 62
1
 10
74.1124
 20
-52.2766
 30
0.0
 11
74.275
 21
-52.1505
 31
0.0
  0
LINE
  5
44B
  8
0
 62
1
 10
74.275
 20
-52.1505
 30
0.0
 11
74.4452
 21
-52.0348
 31
0.0
  0
LINE
  5
44C
  8
0
 62
1
 10
74.4452
 20
-52.0348
 30
0.0
 11
74.6223
 21
-51.9301
 31
0.0
  0
LINE
  5
44D
  8
0
 62
1
 10
74.6223
 20
-51.9301
 30
0.0
 11
74.8056
 21
-51.8367
 31
0.0
  0
LINE
  5
44E
  8
0
 62
1
 10
74.8056
 20
-51.8367
 30
0.0
 11
74.9944
 21
-51.755
 31
0.0
  0
LINE
  5
44F
  8
0
 62
1
 10
74.9944
 20
-51.755
 30
0.0
 11
75.188
 21
-51.6853
 31
0.0
  0
LINE
  5
450
  8
0
 62
1
 10
75.188
 20
-51.6853
 30
0.0
 11
75.3855
 21
-51.6279
 31
0.0
  0
LINE
  5
451
  8
0
 62
1
 10
75.3855
 20
-51.6279
 30
0.0
 11
75.5863
 21
-51.583
 31
0.0
  0
LINE
  5
452
  8
0
 62
1
 10
75.5863
 20
-51.583
 30
0.0
 11
75.7895
 21
-51.5508
 31
0.0
  0
LINE
  5
453
  8
0
 62
1
 10
75.7895
 20
-51.5508
 30
0.0
 11
75.9944
 21
-51.5314
 31
0.0
  0
LINE
  5
454
  8
0
 62
1
 10
75.9944
 20
-51.5314
 30
0.0
 11
76.2
 21
-51.525
 31
0.0
  0
LINE
  5
455
  8
0
 62
1
 10
76.2
 20
-51.525
 30
0.0
 11
76.4056
 21
-51.5314
 31
0.0
  0
LINE
  5
456
  8
0
 62
1
 10
76.4056
 20
-51.5314
 30
0.0
 11
76.6105
 21
-51.5508
 31
0.0
  0
LINE
  5
457
  8
0
 62
1
 10
76.6105
 20
-51.5508
 30
0.0
 11
76.8137
 21
-51.583
 31
0.0
  0
LINE
  5
458
  8
0
 62
1
 10
76.8137
 20
-51.583
 30
0.0
 11
77.0145
 21
-51.6279
 31
0.0
  0
LINE
  5
459
  8
0
 62
1
 10
77.0145
 20
-51.6279
 30
0.0
 11
77.212
 21
-51.6853
 31
0.0
  0
LINE
  5
45A
  8
0
 62
1
 10
77.212
 20
-51.6853
 30
0.0
 11
77.4056
 21
-51.755
 31
0.0
  0
LINE
  5
45B
  8
0
 62
1
 10
77.4056
 20
-51.755
 30
0.0
 11
77.5944
 21
-51.8367
 31
0.0
  0
LINE
  5
45C
  8
0
 62
1
 10
77.5944
 20
-51.8367
 30
0.0
 11
77.7777
 21
-51.9301
 31
0.0
  0
LINE
  5
45D
  8
0
 62
1
 10
77.7777
 20
-51.9301
 30
0.0
 11
77.9548
 21
-52.0348
 31
0.0
  0
LINE
  5
45E
  8
0
 62
1
 10
77.9548
 20
-52.0348
 30
0.0
 11
78.125
 21
-52.1505
 31
0.0
  0
LINE
  5
45F
  8
0
 62
1
 10
78.125
 20
-52.1505
 30
0.0
 11
78.2876
 21
-52.2766
 31
0.0
  0
LINE
  5
460
  8
0
 62
1
 10
78.2876
 20
-52.2766
 30
0.0
 11
78.4419
 21
-52.4126
 31
0.0
  0
LINE
  5
461
  8
0
 62
1
 10
78.4419
 20
-52.4126
 30
0.0
 11
78.5874
 21
-52.5581
 31
0.0
  0
LINE
  5
462
  8
0
 62
1
 10
78.5874
 20
-52.5581
 30
0.0
 11
78.7234
 21
-52.7124
 31
0.0
  0
LINE
  5
463
  8
0
 62
1
 10
78.7234
 20
-52.7124
 30
0.0
 11
78.8495
 21
-52.875
 31
0.0
  0
LINE
  5
464
  8
0
 62
1
 10
78.8495
 20
-52.875
 30
0.0
 11
78.9652
 21
-53.0452
 31
0.0
  0
LINE
  5
465
  8
0
 62
1
 10
78.9652
 20
-53.0452
 30
0.0
 11
79.0699
 21
-53.2222
 31
0.0
  0
LINE
  5
466
  8
0
 62
1
 10
79.0699
 20
-53.2222
 30
0.0
 11
79.1633
 21
-53.4056
 31
0.0
  0
LINE
  5
467
  8
0
 62
1
 10
79.1633
 20
-53.4056
 30
0.0
 11
79.245
 21
-53.5944
 31
0.0
  0
LINE
  5
468
  8
0
 62
1
 10
79.245
 20
-53.5944
 30
0.0
 11
79.3147
 21
-53.788
 31
0.0
  0
LINE
  5
469
  8
0
 62
1
 10
79.3147
 20
-53.788
 30
0.0
 11
79.3721
 21
-53.9855
 31
0.0
  0
LINE
  5
46A
  8
0
 62
1
 10
79.3721
 20
-53.9855
 30
0.0
 11
79.417
 21
-54.1863
 31
0.0
  0
LINE
  5
46B
  8
0
 62
1
 10
79.417
 20
-54.1863
 30
0.0
 11
79.4492
 21
-54.3895
 31
0.0
  0
LINE
  5
46C
  8
0
 62
1
 10
79.4492
 20
-54.3895
 30
0.0
 11
79.4685
 21
-54.5944
 31
0.0
  0
LINE
  5
46D
  8
0
 62
1
 10
79.4685
 20
-54.5944
 30
0.0
 11
79.475
 21
-54.8
 31
0.0
  0
LINE
  5
46E
  8
0
 62
1
 10
79.475
 20
-54.8
 30
0.0
 11
79.4685
 21
-55.0056
 31
0.0
  0
LINE
  5
46F
  8
0
 62
1
 10
79.4685
 20
-55.0056
 30
0.0
 11
79.4492
 21
-55.2105
 31
0.0
  0
LINE
  5
470
  8
0
 62
1
 10
79.4492
 20
-55.2105
 30
0.0
 11
79.417
 21
-55.4137
 31
0.0
  0
LINE
  5
471
  8
0
 62
1
 10
79.417
 20
-55.4137
 30
0.0
 11
79.3721
 21
-55.6145
 31
0.0
  0
LINE
  5
472
  8
0
 62
1
 10
79.3721
 20
-55.6145
 30
0.0
 11
79.3147
 21
-55.812
 31
0.0
  0
LINE
  5
473
  8
0
 62
1
 10
79.3147
 20
-55.812
 30
0.0
 11
79.245
 21
-56.0056
 31
0.0
  0
LINE
  5
474
  8
0
 62
1
 10
79.245
 20
-56.0056
 30
0.0
 11
79.1633
 21
-56.1944
 31
0.0
  0
LINE
  5
475
  8
0
 62
1
 10
79.1633
 20
-56.1944
 30
0.0
 11
79.0699
 21
-56.3777
 31
0.0
  0
LINE
  5
476
  8
0
 62
1
 10
79.0699
 20
-56.3777
 30
0.0
 11
78.9652
 21
-56.5548
 31
0.0
  0
LINE
  5
477
  8
0
 62
1
 10
78.9652
 20
-56.5548
 30
0.0
 11
78.8495
 21
-56.725
 31
0.0
  0
LINE
  5
478
  8
0
 62
1
 10
78.8495
 20
-56.725
 30
0.0
 11
78.7234
 21
-56.8876
 31
0.0
  0
LINE
  5
479
  8
0
 62
1
 10
78.7234
 20
-56.8876
 30
0.0
 11
78.5874
 21
-57.0419
 31
0.0
  0
LINE
  5
47A
  8
0
 62
1
 10
78.5874
 20
-57.0419
 30
0.0
 11
78.4419
 21
-57.1874
 31
0.0
  0
LINE
  5
47B
  8
0
 62
1
 10
78.4419
 20
-57.1874
 30
0.0
 11
78.2876
 21
-57.3234
 31
0.0
  0
LINE
  5
47C
  8
0
 62
1
 10
78.2876
 20
-57.3234
 30
0.0
 11
78.125
 21
-57.4495
 31
0.0
  0
LINE
  5
47D
  8
0
 62
1
 10
78.125
 20
-57.4495
 30
0.0
 11
77.9548
 21
-57.5652
 31
0.0
  0
LINE
  5
47E
  8
0
 62
1
 10
77.9548
 20
-57.5652
 30
0.0
 11
77.7777
 21
-57.6699
 31
0.0
  0
LINE
  5
47F
  8
0
 62
1
 10
77.7777
 20
-57.6699
 30
0.0
 11
77.5944
 21
-57.7633
 31
0.0
  0
LINE
  5
480
  8
0
 62
1
 10
77.5944
 20
-57.7633
 30
0.0
 11
77.4056
 21
-57.845
 31
0.0
  0
LINE
  5
481
  8
0
 62
1
 10
77.4056
 20
-57.845
 30
0.0
 11
77.212
 21
-57.9147
 31
0.0
  0
LINE
  5
482
  8
0
 62
1
 10
77.212
 20
-57.9147
 30
0.0
 11
77.0145
 21
-57.9721
 31
0.0
  0
LINE
  5
483
  8
0
 62
1
 10
77.0145
 20
-57.9721
 30
0.0
 11
76.8137
 21
-58.017
 31
0.0
  0
LINE
  5
484
  8
0
 62
1
 10
76.8137
 20
-58.017
 30
0.0
 11
76.6105
 21
-58.0492
 31
0.0
  0
LINE
  5
485
  8
0
 62
1
 10
76.6105
 20
-58.0492
 30
0.0
 11
76.4056
 21
-58.0685
 31
0.0
  0
LINE
  5
486
  8
0
 62
1
 10
76.4056
 20
-58.0685
 30
0.0
 11
76.2
 21
-58.075
 31
0.0
  0
LINE
  5
487
  8
0
 62
1
 10
76.2
 20
-58.075
 30
0.0
 11
75.9944
 21
-58.0685
 31
0.0
  0
LINE
  5
488
  8
0
 62
1
 10
-76.4056
 20
-58.0685
 30
0.0
 11
-76.6105
 21
-58.0492
 31
0.0
  0
LINE
  5
489
  8
0
 62
1
 10
-76.6105
 20
-58.0492
 30
0.0
 11
-76.8137
 21
-58.017
 31
0.0
  0
LINE
  5
48A
  8
0
 62
1
 10
-76.8137
 20
-58.017
 30
0.0
 11
-77.0145
 21
-57.9721
 31
0.0
  0
LINE
  5
48B
  8
0
 62
1
 10
-77.0145
 20
-57.9721
 30
0.0
 11
-77.212
 21
-57.9147
 31
0.0
  0
LINE
  5
48C
  8
0
 62
1
 10
-77.212
 20
-57.9147
 30
0.0
 11
-77.4056
 21
-57.845
 31
0.0
  0
LINE
  5
48D
  8
0
 62
1
 10
-77.4056
 20
-57.845
 30
0.0
 11
-77.5944
 21
-57.7633
 31
0.0
  0
LINE
  5
48E
  8
0
 62
1
 10
-77.5944
 20
-57.7633
 30
0.0
 11
-77.7777
 21
-57.6699
 31
0.0
  0
LINE
  5
48F
  8
0
 62
1
 10
-77.7777
 20
-57.6699
 30
0.0
 11
-77.9548
 21
-57.5652
 31
0.0
  0
LINE
  5
490
  8
0
 62
1
 10
-77.9548
 20
-57.5652
 30
0.0
 11
-78.125
 21
-57.4495
 31
0.0
  0
LINE
  5
491
  8
0
 62
1
 10
-78.125
 20
-57.4495
 30
0.0
 11
-78.2876
 21
-57.3234
 31
0.0
  0
LINE
  5
492
  8
0
 62
1
 10
-78.2876
 20
-57.3234
 30
0.0
 11
-78.4419
 21
-57.1874
 31
0.0
  0
LINE
  5
493
  8
0
 62
1
 10
-78.4419
 20
-57.1874
 30
0.0
 11
-78.5874
 21
-57.0419
 31
0.0
  0
LINE
  5
494
  8
0
 62
1
 10
-78.5874
 20
-57.0419
 30
0.0
 11
-78.7234
 21
-56.8876
 31
0.0
  0
LINE
  5
495
  8
0
 62
1
 10
-78.7234
 20
-56.8876
 30
0.0
 11
-78.8495
 21
-56.725
 31
0.0
  0
LINE
  5
496
  8
0
 62
1
 10
-78.8495
 20
-56.725
 30
0.0
 11
-78.9652
 21
-56.5548
 31
0.0
  0
LINE
  5
497
  8
0
 62
1
 10
-78.9652
 20
-56.5548
 30
0.0
 11
-79.0699
 21
-56.3777
 31
0.0
  0
LINE
  5
498
  8
0
 62
1
 10
-79.0699
 20
-56.3777
 30
0.0
 11
-79.1633
 21
-56.1944
 31
0.0
  0
LINE
  5
499
  8
0
 62
1
 10
-79.1633
 20
-56.1944
 30
0.0
 11
-79.245
 21
-56.0056
 31
0.0
  0
LINE
  5
49A
  8
0
 62
1
 10
-79.245
 20
-56.0056
 30
0.0
 11
-79.3147
 21
-55.812
 31
0.0
  0
LINE
  5
49B
  8
0
 62
1
 10
-79.3147
 20
-55.812
 30
0.0
 11
-79.3721
 21
-55.6145
 31
0.0
  0
LINE
  5
49C
  8
0
 62
1
 10
-79.3721
 20
-55.6145
 30
0.0
 11
-79.417
 21
-55.4137
 31
0.0
  0
LINE
  5
49D
  8
0
 62
1
 10
-79.417
 20
-55.4137
 30
0.0
 11
-79.4492
 21
-55.2105
 31
0.0
  0
LINE
  5
49E
  8
0
 62
1
 10
-79.4492
 20
-55.2105
 30
0.0
 11
-79.4685
 21
-55.0056
 31
0.0
  0
LINE
  5
49F
  8
0
 62
1
 10
-79.4685
 20
-55.0056
 30
0.0
 11
-79.475
 21
-54.8
 31
0.0
  0
LINE
  5
4A0
  8
0
 62
1
 10
-79.475
 20
-54.8
 30
0.0
 11
-79.4685
 21
-54.5944
 31
0.0
  0
LINE
  5
4A1
  8
0
 62
1
 10
-79.4685
 20
-54.5944
 30
0.0
 11
-79.4492
 21
-54.3895
 31
0.0
  0
LINE
  5
4A2
  8
0
 62
1
 10
-79.4492
 20
-54.3895
 30
0.0
 11
-79.417
 21
-54.1863
 31
0.0
  0
LINE
  5
4A3
  8
0
 62
1
 10
-79.417
 20
-54.1863
 30
0.0
 11
-79.3721
 21
-53.9855
 31
0.0
  0
LINE
  5
4A4
  8
0
 62
1
 10
-79.3721
 20
-53.9855
 30
0.0
 11
-79.3147
 21
-53.788
 31
0.0
  0
LINE
  5
4A5
  8
0
 62
1
 10
-79.3147
 20
-53.788
 30
0.0
 11
-79.245
 21
-53.5944
 31
0.0
  0
LINE
  5
4A6
  8
0
 62
1
 10
-79.245
 20
-53.5944
 30
0.0
 11
-79.1633
 21
-53.4056
 31
0.0
  0
LINE
  5
4A7
  8
0
 62
1
 10
-79.1633
 20
-53.4056
 30
0.0
 11
-79.0699
 21
-53.2222
 31
0.0
  0
LINE
  5
4A8
  8
0
 62
1
 10
-79.0699
 20
-53.2222
 30
0.0
 11
-78.9652
 21
-53.0452
 31
0.0
  0
LINE
  5
4A9
  8
0
 62
1
 10
-78.9652
 20
-53.0452
 30
0.0
 11
-78.8495
 21
-52.875
 31
0.0
  0
LINE
  5
4AA
  8
0
 62
1
 10
-78.8495
 20
-52.875
 30
0.0
 11
-78.7234
 21
-52.7124
 31
0.0
  0
LINE
  5
4AB
  8
0
 62
1
 10
-78.7234
 20
-52.7124
 30
0.0
 11
-78.5874
 21
-52.5581
 31
0.0
  0
LINE
  5
4AC
  8
0
 62
1
 10
-78.5874
 20
-52.5581
 30
0.0
 11
-78.4419
 21
-52.4126
 31
0.0
  0
LINE
  5
4AD
  8
0
 62
1
 10
-78.4419
 20
-52.4126
 30
0.0
 11
-78.2876
 21
-52.2766
 31
0.0
  0
LINE
  5
4AE
  8
0
 62
1
 10
-78.2876
 20
-52.2766
 30
0.0
 11
-78.125
 21
-52.1505
 31
0.0
  0
LINE
  5
4AF
  8
0
 62
1
 10
-78.125
 20
-52.1505
 30
0.0
 11
-77.9548
 21
-52.0348
 31
0.0
  0
LINE
  5
4B0
  8
0
 62
1
 10
-77.9548
 20
-52.0348
 30
0.0
 11
-77.7777
 21
-51.9301
 31
0.0
  0
LINE
  5
4B1
  8
0
 62
1
 10
-77.7777
 20
-51.9301
 30
0.0
 11
-77.5944
 21
-51.8367
 31
0.0
  0
LINE
  5
4B2
  8
0
 62
1
 10
-77.5944
 20
-51.8367
 30
0.0
 11
-77.4056
 21
-51.755
 31
0.0
  0
LINE
  5
4B3
  8
0
 62
1
 10
-77.4056
 20
-51.755
 30
0.0
 11
-77.212
 21
-51.6853
 31
0.0
  0
LINE
  5
4B4
  8
0
 62
1
 10
-77.212
 20
-51.6853
 30
0.0
 11
-77.0145
 21
-51.6279
 31
0.0
  0
LINE
  5
4B5
  8
0
 62
1
 10
-77.0145
 20
-51.6279
 30
0.0
 11
-76.8137
 21
-51.583
 31
0.0
  0
LINE
  5
4B6
  8
0
 62
1
 10
-76.8137
 20
-51.583
 30
0.0
 11
-76.6105
 21
-51.5508
 31
0.0
  0
LINE
  5
4B7
  8
0
 62
1
 10
-76.6105
 20
-51.5508
 30
0.0
 11
-76.4056
 21
-51.5314
 31
0.0
  0
LINE
  5
4B8
  8
0
 62
1
 10
-76.4056
 20
-51.5314
 30
0.0
 11
-76.2
 21
-51.525
 31
0.0
  0
LINE
  5
4B9
  8
0
 62
1
 10
-76.2
 20
-51.525
 30
0.0
 11
-75.9944
 21
-51.5314
 31
0.0
  0
LINE
  5
4BA
  8
0
 62
1
 10
-75.9944
 20
-51.5314
 30
0.0
 11
-75.7895
 21
-51.5508
 31
0.0
  0
LINE
  5
4BB
  8
0
 62
1
 10
-75.7895
 20
-51.5508
 30
0.0
 11
-75.5863
 21
-51.583
 31
0.0
  0
LINE
  5
4BC
  8
0
 62
1
 10
-75.5863
 20
-51.583
 30
0.0
 11
-75.3855
 21
-51.6279
 31
0.0
  0
LINE
  5
4BD
  8
0
 62
1
 10
-75.3855
 20
-51.6279
 30
0.0
 11
-75.188
 21
-51.6853
 31
0.0
  0
LINE
  5
4BE
  8
0
 62
1
 10
-75.188
 20
-51.6853
 30
0.0
 11
-74.9944
 21
-51.755
 31
0.0
  0
LINE
  5
4BF
  8
0
 62
1
 10
-74.9944
 20
-51.755
 30
0.0
 11
-74.8056
 21
-51.8367
 31
0.0
  0
LINE
  5
4C0
  8
0
 62
1
 10
-74.8056
 20
-51.8367
 30
0.0
 11
-74.6223
 21
-51.9301
 31
0.0
  0
LINE
  5
4C1
  8
0
 62
1
 10
-74.6223
 20
-51.9301
 30
0.0
 11
-74.4452
 21
-52.0348
 31
0.0
  0
LINE
  5
4C2
  8
0
 62
1
 10
-74.4452
 20
-52.0348
 30
0.0
 11
-74.275
 21
-52.1505
 31
0.0
  0
LINE
  5
4C3
  8
0
 62
1
 10
-74.275
 20
-52.1505
 30
0.0
 11
-74.1124
 21
-52.2766
 31
0.0
  0
LINE
  5
4C4
  8
0
 62
1
 10
-74.1124
 20
-52.2766
 30
0.0
 11
-73.9581
 21
-52.4126
 31
0.0
  0
LINE
  5
4C5
  8
0
 62
1
 10
-73.9581
 20
-52.4126
 30
0.0
 11
-73.8126
 21
-52.5581
 31
0.0
  0
LINE
  5
4C6
  8
0
 62
1
 10
-73.8126
 20
-52.5581
 30
0.0
 11
-73.6766
 21
-52.7124
 31
0.0
  0
LINE
  5
4C7
  8
0
 62
1
 10
-73.6766
 20
-52.7124
 30
0.0
 11
-73.5505
 21
-52.875
 31
0.0
  0
LINE
  5
4C8
  8
0
 62
1
 10
-73.5505
 20
-52.875
 30
0.0
 11
-73.4348
 21
-53.0452
 31
0.0
  0
LINE
  5
4C9
  8
0
 62
1
 10
-73.4348
 20
-53.0452
 30
0.0
 11
-73.3301
 21
-53.2222
 31
0.0
  0
LINE
  5
4CA
  8
0
 62
1
 10
-73.3301
 20
-53.2222
 30
0.0
 11
-73.2367
 21
-53.4056
 31
0.0
  0
LINE
  5
4CB
  8
0
 62
1
 10
-73.2367
 20
-53.4056
 30
0.0
 11
-73.155
 21
-53.5944
 31
0.0
  0
LINE
  5
4CC
  8
0
 62
1
 10
-73.155
 20
-53.5944
 30
0.0
 11
-73.0853
 21
-53.788
 31
0.0
  0
LINE
  5
4CD
  8
0
 62
1
 10
-73.0853
 20
-53.788
 30
0.0
 11
-73.0279
 21
-53.9855
 31
0.0
  0
LINE
  5
4CE
  8
0
 62
1
 10
-73.0279
 20
-53.9855
 30
0.0
 11
-72.983
 21
-54.1863
 31
0.0
  0
LINE
  5
4CF
  8
0
 62
1
 10
-72.983
 20
-54.1863
 30
0.0
 11
-72.9508
 21
-54.3895
 31
0.0
  0
LINE
  5
4D0
  8
0
 62
1
 10
-72.9508
 20
-54.3895
 30
0.0
 11
-72.9315
 21
-54.5944
 31
0.0
  0
LINE
  5
4D1
  8
0
 62
1
 10
-72.9315
 20
-54.5944
 30
0.0
 11
-72.925
 21
-54.8
 31
0.0
  0
LINE
  5
4D2
  8
0
 62
1
 10
-72.925
 20
-54.8
 30
0.0
 11
-72.9315
 21
-55.0056
 31
0.0
  0
LINE
  5
4D3
  8
0
 62
1
 10
-72.9315
 20
-55.0056
 30
0.0
 11
-72.9508
 21
-55.2105
 31
0.0
  0
LINE
  5
4D4
  8
0
 62
1
 10
-72.9508
 20
-55.2105
 30
0.0
 11
-72.983
 21
-55.4137
 31
0.0
  0
LINE
  5
4D5
  8
0
 62
1
 10
-72.983
 20
-55.4137
 30
0.0
 11
-73.0279
 21
-55.6145
 31
0.0
  0
LINE
  5
4D6
  8
0
 62
1
 10
-73.0279
 20
-55.6145
 30
0.0
 11
-73.0853
 21
-55.812
 31
0.0
  0
LINE
  5
4D7
  8
0
 62
1
 10
-73.0853
 20
-55.812
 30
0.0
 11
-73.155
 21
-56.0056
 31
0.0
  0
LINE
  5
4D8
  8
0
 62
1
 10
-73.155
 20
-56.0056
 30
0.0
 11
-73.2367
 21
-56.1944
 31
0.0
  0
LINE
  5
4D9
  8
0
 62
1
 10
-73.2367
 20
-56.1944
 30
0.0
 11
-73.3301
 21
-56.3777
 31
0.0
  0
LINE
  5
4DA
  8
0
 62
1
 10
-73.3301
 20
-56.3777
 30
0.0
 11
-73.4348
 21
-56.5548
 31
0.0
  0
LINE
  5
4DB
  8
0
 62
1
 10
-73.4348
 20
-56.5548
 30
0.0
 11
-73.5505
 21
-56.725
 31
0.0
  0
LINE
  5
4DC
  8
0
 62
1
 10
-73.5505
 20
-56.725
 30
0.0
 11
-73.6766
 21
-56.8876
 31
0.0
  0
LINE
  5
4DD
  8
0
 62
1
 10
-73.6766
 20
-56.8876
 30
0.0
 11
-73.8126
 21
-57.0419
 31
0.0
  0
LINE
  5
4DE
  8
0
 62
1
 10
-73.8126
 20
-57.0419
 30
0.0
 11
-73.9581
 21
-57.1874
 31
0.0
  0
LINE
  5
4DF
  8
0
 62
1
 10
-73.9581
 20
-57.1874
 30
0.0
 11
-74.1124
 21
-57.3234
 31
0.0
  0
LINE
  5
4E0
  8
0
 62
1
 10
-74.1124
 20
-57.3234
 30
0.0
 11
-74.275
 21
-57.4495
 31
0.0
  0
LINE
  5
4E1
  8
0
 62
1
 10
-74.275
 20
-57.4495
 30
0.0
 11
-74.4452
 21
-57.5652
 31
0.0
  0
LINE
  5
4E2
  8
0
 62
1
 10
-74.4452
 20
-57.5652
 30
0.0
 11
-74.6223
 21
-57.6699
 31
0.0
  0
LINE
  5
4E3
  8
0
 62
1
 10
-74.6223
 20
-57.6699
 30
0.0
 11
-74.8056
 21
-57.7633
 31
0.0
  0
LINE
  5
4E4
  8
0
 62
1
 10
-74.8056
 20
-57.7633
 30
0.0
 11
-74.9944
 21
-57.845
 31
0.0
  0
LINE
  5
4E5
  8
0
 62
1
 10
-74.9944
 20
-57.845
 30
0.0
 11
-75.188
 21
-57.9147
 31
0.0
  0
LINE
  5
4E6
  8
0
 62
1
 10
-75.188
 20
-57.9147
 30
0.0
 11
-75.3855
 21
-57.9721
 31
0.0
  0
LINE
  5
4E7
  8
0
 62
1
 10
-75.3855
 20
-57.9721
 30
0.0
 11
-75.5863
 21
-58.017
 31
0.0
  0
LINE
  5
4E8
  8
0
 62
1
 10
-75.5863
 20
-58.017
 30
0.0
 11
-75.7895
 21
-58.0492
 31
0.0
  0
LINE
  5
4E9
  8
0
 62
1
 10
-75.7895
 20
-58.0492
 30
0.0
 11
-75.9944
 21
-58.0685
 31
0.0
  0
LINE
  5
4EA
  8
0
 62
1
 10
-75.9944
 20
-58.0685
 30
0.0
 11
-76.2
 21
-58.075
 31
0.0
  0
LINE
  5
4EB
  8
0
 62
1
 10
-76.2
 20
-58.075
 30
0.0
 11
-76.4056
 21
-58.0685
 31
0.0
  0
LINE
  5
4EC
  8
0
 62
1
 10
271.7
 20
67.5
 30
0.0
 11
93.9
 21
67.5
 31
0.0
  0
LINE
  5
4ED
  8
0
 62
1
 10
93.9
 20
67.5
 30
0.0
 11
93.9
 21
-67.5
 31
0.0
  0
LINE
  5
4EE
  8
0
 62
1
 10
93.9
 20
-67.5
 30
0.0
 11
271.7
 21
-67.5
 31
0.0
  0
LINE
  5
4EF
  8
0
 62
1
 10
271.7
 20
-67.5
 30
0.0
 11
271.7
 21
67.5
 31
0.0
  0
LINE
  5
4F0
  8
0
 62
1
 10
137.922
 20
3.17499
 30
0.0
 11
138.155
 21
5.63998
 31
0.0
  0
LINE
  5
4F1
  8
0
 62
1
 10
138.155
 20
5.63998
 30
0.0
 11
138.597
 21
8.43214
 31
0.0
  0
LINE
  5
4F2
  8
0
 62
1
 10
138.597
 20
8.43214
 30
0.0
 11
139.214
 21
11.191
 31
0.0
  0
LINE
  5
4F3
  8
0
 62
1
 10
139.214
 20
11.191
 30
0.0
 11
140.002
 21
13.9058
 31
0.0
  0
LINE
  5
4F4
  8
0
 62
1
 10
140.002
 20
13.9058
 30
0.0
 11
140.96
 21
16.5656
 31
0.0
  0
LINE
  5
4F5
  8
0
 62
1
 10
140.96
 20
16.5656
 30
0.0
 11
142.083
 21
19.1601
 31
0.0
  0
LINE
  5
4F6
  8
0
 62
1
 10
142.083
 20
19.1601
 30
0.0
 11
143.366
 21
21.6789
 31
0.0
  0
LINE
  5
4F7
  8
0
 62
1
 10
143.366
 20
21.6789
 30
0.0
 11
144.805
 21
24.1122
 31
0.0
  0
LINE
  5
4F8
  8
0
 62
1
 10
144.805
 20
24.1122
 30
0.0
 11
146.394
 21
26.4503
 31
0.0
  0
LINE
  5
4F9
  8
0
 62
1
 10
146.394
 20
26.4503
 30
0.0
 11
148.127
 21
28.6841
 31
0.0
  0
LINE
  5
4FA
  8
0
 62
1
 10
148.127
 20
28.6841
 30
0.0
 11
149.996
 21
30.8046
 31
0.0
  0
LINE
  5
4FB
  8
0
 62
1
 10
149.996
 20
30.8046
 30
0.0
 11
151.995
 21
32.8036
 31
0.0
  0
LINE
  5
4FC
  8
0
 62
1
 10
151.995
 20
32.8036
 30
0.0
 11
154.116
 21
34.6731
 31
0.0
  0
LINE
  5
4FD
  8
0
 62
1
 10
154.116
 20
34.6731
 30
0.0
 11
156.35
 21
36.4058
 31
0.0
  0
LINE
  5
4FE
  8
0
 62
1
 10
156.35
 20
36.4058
 30
0.0
 11
158.688
 21
37.9948
 31
0.0
  0
LINE
  5
4FF
  8
0
 62
1
 10
158.688
 20
37.9948
 30
0.0
 11
161.121
 21
39.4338
 31
0.0
  0
LINE
  5
500
  8
0
 62
1
 10
161.121
 20
39.4338
 30
0.0
 11
163.64
 21
40.7172
 31
0.0
  0
LINE
  5
501
  8
0
 62
1
 10
163.64
 20
40.7172
 30
0.0
 11
166.234
 21
41.8399
 31
0.0
  0
LINE
  5
502
  8
0
 62
1
 10
166.234
 20
41.8399
 30
0.0
 11
168.894
 21
42.7975
 31
0.0
  0
LINE
  5
503
  8
0
 62
1
 10
168.894
 20
42.7975
 30
0.0
 11
171.609
 21
43.5862
 31
0.0
  0
LINE
  5
504
  8
0
 62
1
 10
171.609
 20
43.5862
 30
0.0
 11
174.368
 21
44.2029
 31
0.0
  0
LINE
  5
505
  8
0
 62
1
 10
174.368
 20
44.2029
 30
0.0
 11
177.16
 21
44.6452
 31
0.0
  0
LINE
  5
506
  8
0
 62
1
 10
177.16
 20
44.6452
 30
0.0
 11
179.625
 21
44.8782
 31
0.0
  0
LINE
  5
507
  8
0
 62
1
 10
179.625
 20
44.8782
 30
0.0
 11
179.625
 21
3.17499
 31
0.0
  0
LINE
  5
508
  8
0
 62
1
 10
179.625
 20
3.17499
 30
0.0
 11
137.922
 21
3.17499
 31
0.0
  0
LINE
  5
509
  8
0
 62
1
 10
185.975
 20
3.17499
 30
0.0
 11
185.975
 21
44.8782
 31
0.0
  0
LINE
  5
50A
  8
0
 62
1
 10
185.975
 20
44.8782
 30
0.0
 11
188.44
 21
44.6452
 31
0.0
  0
LINE
  5
50B
  8
0
 62
1
 10
188.44
 20
44.6452
 30
0.0
 11
191.232
 21
44.2029
 31
0.0
  0
LINE
  5
50C
  8
0
 62
1
 10
191.232
 20
44.2029
 30
0.0
 11
193.991
 21
43.5862
 31
0.0
  0
LINE
  5
50D
  8
0
 62
1
 10
193.991
 20
43.5862
 30
0.0
 11
196.706
 21
42.7975
 31
0.0
  0
LINE
  5
50E
  8
0
 62
1
 10
196.706
 20
42.7975
 30
0.0
 11
199.366
 21
41.8399
 31
0.0
  0
LINE
  5
50F
  8
0
 62
1
 10
199.366
 20
41.8399
 30
0.0
 11
201.96
 21
40.7172
 31
0.0
  0
LINE
  5
510
  8
0
 62
1
 10
201.96
 20
40.7172
 30
0.0
 11
204.479
 21
39.4338
 31
0.0
  0
LINE
  5
511
  8
0
 62
1
 10
204.479
 20
39.4338
 30
0.0
 11
206.912
 21
37.9948
 31
0.0
  0
LINE
  5
512
  8
0
 62
1
 10
206.912
 20
37.9948
 30
0.0
 11
209.25
 21
36.4058
 31
0.0
  0
LINE
  5
513
  8
0
 62
1
 10
209.25
 20
36.4058
 30
0.0
 11
211.484
 21
34.6731
 31
0.0
  0
LINE
  5
514
  8
0
 62
1
 10
211.484
 20
34.6731
 30
0.0
 11
213.605
 21
32.8036
 31
0.0
  0
LINE
  5
515
  8
0
 62
1
 10
213.605
 20
32.8036
 30
0.0
 11
215.604
 21
30.8046
 31
0.0
  0
LINE
  5
516
  8
0
 62
1
 10
215.604
 20
30.8046
 30
0.0
 11
217.473
 21
28.6841
 31
0.0
  0
LINE
  5
517
  8
0
 62
1
 10
217.473
 20
28.6841
 30
0.0
 11
219.206
 21
26.4503
 31
0.0
  0
LINE
  5
518
  8
0
 62
1
 10
219.206
 20
26.4503
 30
0.0
 11
220.795
 21
24.1122
 31
0.0
  0
LINE
  5
519
  8
0
 62
1
 10
220.795
 20
24.1122
 30
0.0
 11
222.234
 21
21.6789
 31
0.0
  0
LINE
  5
51A
  8
0
 62
1
 10
222.234
 20
21.6789
 30
0.0
 11
223.517
 21
19.1601
 31
0.0
  0
LINE
  5
51B
  8
0
 62
1
 10
223.517
 20
19.1601
 30
0.0
 11
224.64
 21
16.5656
 31
0.0
  0
LINE
  5
51C
  8
0
 62
1
 10
224.64
 20
16.5656
 30
0.0
 11
225.598
 21
13.9058
 31
0.0
  0
LINE
  5
51D
  8
0
 62
1
 10
225.598
 20
13.9058
 30
0.0
 11
226.386
 21
11.191
 31
0.0
  0
LINE
  5
51E
  8
0
 62
1
 10
226.386
 20
11.191
 30
0.0
 11
227.003
 21
8.43214
 31
0.0
  0
LINE
  5
51F
  8
0
 62
1
 10
227.003
 20
8.43214
 30
0.0
 11
227.445
 21
5.63998
 31
0.0
  0
LINE
  5
520
  8
0
 62
1
 10
227.445
 20
5.63998
 30
0.0
 11
227.678
 21
3.17499
 31
0.0
  0
LINE
  5
521
  8
0
 62
1
 10
227.678
 20
3.17499
 30
0.0
 11
185.975
 21
3.17499
 31
0.0
  0
LINE
  5
522
  8
0
 62
1
 10
223.901
 20
38.8797
 30
0.0
 11
223.752
 21
38.8937
 31
0.0
  0
LINE
  5
523
  8
0
 62
1
 10
223.752
 20
38.8937
 30
0.0
 11
223.605
 21
38.9171
 31
0.0
  0
LINE
  5
524
  8
0
 62
1
 10
223.605
 20
38.9171
 30
0.0
 11
223.459
 21
38.9496
 31
0.0
  0
LINE
  5
525
  8
0
 62
1
 10
223.459
 20
38.9496
 30
0.0
 11
223.316
 21
38.9912
 31
0.0
  0
LINE
  5
526
  8
0
 62
1
 10
223.316
 20
38.9912
 30
0.0
 11
223.176
 21
39.0418
 31
0.0
  0
LINE
  5
527
  8
0
 62
1
 10
223.176
 20
39.0418
 30
0.0
 11
223.039
 21
39.101
 31
0.0
  0
LINE
  5
528
  8
0
 62
1
 10
223.039
 20
39.101
 30
0.0
 11
222.906
 21
39.1688
 31
0.0
  0
LINE
  5
529
  8
0
 62
1
 10
222.906
 20
39.1688
 30
0.0
 11
222.777
 21
39.2447
 31
0.0
  0
LINE
  5
52A
  8
0
 62
1
 10
222.777
 20
39.2447
 30
0.0
 11
222.654
 21
39.3286
 31
0.0
  0
LINE
  5
52B
  8
0
 62
1
 10
222.654
 20
39.3286
 30
0.0
 11
222.536
 21
39.42
 31
0.0
  0
LINE
  5
52C
  8
0
 62
1
 10
222.536
 20
39.42
 30
0.0
 11
222.424
 21
39.5187
 31
0.0
  0
LINE
  5
52D
  8
0
 62
1
 10
222.424
 20
39.5187
 30
0.0
 11
222.319
 21
39.6242
 31
0.0
  0
LINE
  5
52E
  8
0
 62
1
 10
222.319
 20
39.6242
 30
0.0
 11
222.22
 21
39.7361
 31
0.0
  0
LINE
  5
52F
  8
0
 62
1
 10
222.22
 20
39.7361
 30
0.0
 11
222.129
 21
39.854
 31
0.0
  0
LINE
  5
530
  8
0
 62
1
 10
222.129
 20
39.854
 30
0.0
 11
222.045
 21
39.9774
 31
0.0
  0
LINE
  5
531
  8
0
 62
1
 10
222.045
 20
39.9774
 30
0.0
 11
221.969
 21
40.1058
 31
0.0
  0
LINE
  5
532
  8
0
 62
1
 10
221.969
 20
40.1058
 30
0.0
 11
221.901
 21
40.2388
 31
0.0
  0
LINE
  5
533
  8
0
 62
1
 10
221.901
 20
40.2388
 30
0.0
 11
221.842
 21
40.3757
 31
0.0
  0
LINE
  5
534
  8
0
 62
1
 10
221.842
 20
40.3757
 30
0.0
 11
221.791
 21
40.5161
 31
0.0
  0
LINE
  5
535
  8
0
 62
1
 10
221.791
 20
40.5161
 30
0.0
 11
221.75
 21
40.6593
 31
0.0
  0
LINE
  5
536
  8
0
 62
1
 10
221.75
 20
40.6593
 30
0.0
 11
221.717
 21
40.805
 31
0.0
  0
LINE
  5
537
  8
0
 62
1
 10
221.717
 20
40.805
 30
0.0
 11
221.694
 21
40.9523
 31
0.0
  0
LINE
  5
538
  8
0
 62
1
 10
221.694
 20
40.9523
 30
0.0
 11
221.68
 21
41.1009
 31
0.0
  0
LINE
  5
539
  8
0
 62
1
 10
221.68
 20
41.1009
 30
0.0
 11
221.675
 21
41.25
 31
0.0
  0
LINE
  5
53A
  8
0
 62
1
 10
221.675
 20
41.25
 30
0.0
 11
221.68
 21
41.3991
 31
0.0
  0
LINE
  5
53B
  8
0
 62
1
 10
221.68
 20
41.3991
 30
0.0
 11
221.694
 21
41.5477
 31
0.0
  0
LINE
  5
53C
  8
0
 62
1
 10
221.694
 20
41.5477
 30
0.0
 11
221.717
 21
41.695
 31
0.0
  0
LINE
  5
53D
  8
0
 62
1
 10
221.717
 20
41.695
 30
0.0
 11
221.75
 21
41.8406
 31
0.0
  0
LINE
  5
53E
  8
0
 62
1
 10
221.75
 20
41.8406
 30
0.0
 11
221.791
 21
41.9839
 31
0.0
  0
LINE
  5
53F
  8
0
 62
1
 10
221.791
 20
41.9839
 30
0.0
 11
221.842
 21
42.1243
 31
0.0
  0
LINE
  5
540
  8
0
 62
1
 10
221.842
 20
42.1243
 30
0.0
 11
221.901
 21
42.2612
 31
0.0
  0
LINE
  5
541
  8
0
 62
1
 10
221.901
 20
42.2612
 30
0.0
 11
221.969
 21
42.3941
 31
0.0
  0
LINE
  5
542
  8
0
 62
1
 10
221.969
 20
42.3941
 30
0.0
 11
222.045
 21
42.5226
 31
0.0
  0
LINE
  5
543
  8
0
 62
1
 10
222.045
 20
42.5226
 30
0.0
 11
222.129
 21
42.646
 31
0.0
  0
LINE
  5
544
  8
0
 62
1
 10
222.129
 20
42.646
 30
0.0
 11
222.22
 21
42.7639
 31
0.0
  0
LINE
  5
545
  8
0
 62
1
 10
222.22
 20
42.7639
 30
0.0
 11
222.319
 21
42.8758
 31
0.0
  0
LINE
  5
546
  8
0
 62
1
 10
222.319
 20
42.8758
 30
0.0
 11
222.424
 21
42.9813
 31
0.0
  0
LINE
  5
547
  8
0
 62
1
 10
222.424
 20
42.9813
 30
0.0
 11
222.536
 21
43.08
 31
0.0
  0
LINE
  5
548
  8
0
 62
1
 10
222.536
 20
43.08
 30
0.0
 11
222.654
 21
43.1714
 31
0.0
  0
LINE
  5
549
  8
0
 62
1
 10
222.654
 20
43.1714
 30
0.0
 11
222.777
 21
43.2553
 31
0.0
  0
LINE
  5
54A
  8
0
 62
1
 10
222.777
 20
43.2553
 30
0.0
 11
222.906
 21
43.3312
 31
0.0
  0
LINE
  5
54B
  8
0
 62
1
 10
222.906
 20
43.3312
 30
0.0
 11
223.039
 21
43.399
 31
0.0
  0
LINE
  5
54C
  8
0
 62
1
 10
223.039
 20
43.399
 30
0.0
 11
223.176
 21
43.4582
 31
0.0
  0
LINE
  5
54D
  8
0
 62
1
 10
223.176
 20
43.4582
 30
0.0
 11
223.316
 21
43.5088
 31
0.0
  0
LINE
  5
54E
  8
0
 62
1
 10
223.316
 20
43.5088
 30
0.0
 11
223.459
 21
43.5504
 31
0.0
  0
LINE
  5
54F
  8
0
 62
1
 10
223.459
 20
43.5504
 30
0.0
 11
223.605
 21
43.5829
 31
0.0
  0
LINE
  5
550
  8
0
 62
1
 10
223.605
 20
43.5829
 30
0.0
 11
223.752
 21
43.6063
 31
0.0
  0
LINE
  5
551
  8
0
 62
1
 10
223.752
 20
43.6063
 30
0.0
 11
223.901
 21
43.6203
 31
0.0
  0
LINE
  5
552
  8
0
 62
1
 10
223.901
 20
43.6203
 30
0.0
 11
224.05
 21
43.625
 31
0.0
  0
LINE
  5
553
  8
0
 62
1
 10
224.05
 20
43.625
 30
0.0
 11
224.199
 21
43.6203
 31
0.0
  0
LINE
  5
554
  8
0
 62
1
 10
224.199
 20
43.6203
 30
0.0
 11
224.348
 21
43.6063
 31
0.0
  0
LINE
  5
555
  8
0
 62
1
 10
224.348
 20
43.6063
 30
0.0
 11
224.495
 21
43.5829
 31
0.0
  0
LINE
  5
556
  8
0
 62
1
 10
224.495
 20
43.5829
 30
0.0
 11
224.641
 21
43.5504
 31
0.0
  0
LINE
  5
557
  8
0
 62
1
 10
224.641
 20
43.5504
 30
0.0
 11
224.784
 21
43.5088
 31
0.0
  0
LINE
  5
558
  8
0
 62
1
 10
224.784
 20
43.5088
 30
0.0
 11
224.924
 21
43.4582
 31
0.0
  0
LINE
  5
559
  8
0
 62
1
 10
224.924
 20
43.4582
 30
0.0
 11
225.061
 21
43.399
 31
0.0
  0
LINE
  5
55A
  8
0
 62
1
 10
225.061
 20
43.399
 30
0.0
 11
225.194
 21
43.3312
 31
0.0
  0
LINE
  5
55B
  8
0
 62
1
 10
225.194
 20
43.3312
 30
0.0
 11
225.323
 21
43.2553
 31
0.0
  0
LINE
  5
55C
  8
0
 62
1
 10
225.323
 20
43.2553
 30
0.0
 11
225.446
 21
43.1714
 31
0.0
  0
LINE
  5
55D
  8
0
 62
1
 10
225.446
 20
43.1714
 30
0.0
 11
225.564
 21
43.08
 31
0.0
  0
LINE
  5
55E
  8
0
 62
1
 10
225.564
 20
43.08
 30
0.0
 11
225.676
 21
42.9813
 31
0.0
  0
LINE
  5
55F
  8
0
 62
1
 10
225.676
 20
42.9813
 30
0.0
 11
225.781
 21
42.8758
 31
0.0
  0
LINE
  5
560
  8
0
 62
1
 10
225.781
 20
42.8758
 30
0.0
 11
225.88
 21
42.7639
 31
0.0
  0
LINE
  5
561
  8
0
 62
1
 10
225.88
 20
42.7639
 30
0.0
 11
225.971
 21
42.646
 31
0.0
  0
LINE
  5
562
  8
0
 62
1
 10
225.971
 20
42.646
 30
0.0
 11
226.055
 21
42.5226
 31
0.0
  0
LINE
  5
563
  8
0
 62
1
 10
226.055
 20
42.5226
 30
0.0
 11
226.131
 21
42.3941
 31
0.0
  0
LINE
  5
564
  8
0
 62
1
 10
226.131
 20
42.3941
 30
0.0
 11
226.199
 21
42.2612
 31
0.0
  0
LINE
  5
565
  8
0
 62
1
 10
226.199
 20
42.2612
 30
0.0
 11
226.258
 21
42.1243
 31
0.0
  0
LINE
  5
566
  8
0
 62
1
 10
226.258
 20
42.1243
 30
0.0
 11
226.309
 21
41.9839
 31
0.0
  0
LINE
  5
567
  8
0
 62
1
 10
226.309
 20
41.9839
 30
0.0
 11
226.35
 21
41.8406
 31
0.0
  0
LINE
  5
568
  8
0
 62
1
 10
226.35
 20
41.8406
 30
0.0
 11
226.383
 21
41.695
 31
0.0
  0
LINE
  5
569
  8
0
 62
1
 10
226.383
 20
41.695
 30
0.0
 11
226.406
 21
41.5477
 31
0.0
  0
LINE
  5
56A
  8
0
 62
1
 10
226.406
 20
41.5477
 30
0.0
 11
226.42
 21
41.3991
 31
0.0
  0
LINE
  5
56B
  8
0
 62
1
 10
226.42
 20
41.3991
 30
0.0
 11
226.425
 21
41.25
 31
0.0
  0
LINE
  5
56C
  8
0
 62
1
 10
226.425
 20
41.25
 30
0.0
 11
226.42
 21
41.1009
 31
0.0
  0
LINE
  5
56D
  8
0
 62
1
 10
226.42
 20
41.1009
 30
0.0
 11
226.406
 21
40.9523
 31
0.0
  0
LINE
  5
56E
  8
0
 62
1
 10
226.406
 20
40.9523
 30
0.0
 11
226.383
 21
40.805
 31
0.0
  0
LINE
  5
56F
  8
0
 62
1
 10
226.383
 20
40.805
 30
0.0
 11
226.35
 21
40.6593
 31
0.0
  0
LINE
  5
570
  8
0
 62
1
 10
226.35
 20
40.6593
 30
0.0
 11
226.309
 21
40.5161
 31
0.0
  0
LINE
  5
571
  8
0
 62
1
 10
226.309
 20
40.5161
 30
0.0
 11
226.258
 21
40.3757
 31
0.0
  0
LINE
  5
572
  8
0
 62
1
 10
226.258
 20
40.3757
 30
0.0
 11
226.199
 21
40.2388
 31
0.0
  0
LINE
  5
573
  8
0
 62
1
 10
226.199
 20
40.2388
 30
0.0
 11
226.131
 21
40.1058
 31
0.0
  0
LINE
  5
574
  8
0
 62
1
 10
226.131
 20
40.1058
 30
0.0
 11
226.055
 21
39.9774
 31
0.0
  0
LINE
  5
575
  8
0
 62
1
 10
226.055
 20
39.9774
 30
0.0
 11
225.971
 21
39.854
 31
0.0
  0
LINE
  5
576
  8
0
 62
1
 10
225.971
 20
39.854
 30
0.0
 11
225.88
 21
39.7361
 31
0.0
  0
LINE
  5
577
  8
0
 62
1
 10
225.88
 20
39.7361
 30
0.0
 11
225.781
 21
39.6242
 31
0.0
  0
LINE
  5
578
  8
0
 62
1
 10
225.781
 20
39.6242
 30
0.0
 11
225.676
 21
39.5187
 31
0.0
  0
LINE
  5
579
  8
0
 62
1
 10
225.676
 20
39.5187
 30
0.0
 11
225.564
 21
39.42
 31
0.0
  0
LINE
  5
57A
  8
0
 62
1
 10
225.564
 20
39.42
 30
0.0
 11
225.446
 21
39.3286
 31
0.0
  0
LINE
  5
57B
  8
0
 62
1
 10
225.446
 20
39.3286
 30
0.0
 11
225.323
 21
39.2447
 31
0.0
  0
LINE
  5
57C
  8
0
 62
1
 10
225.323
 20
39.2447
 30
0.0
 11
225.194
 21
39.1688
 31
0.0
  0
LINE
  5
57D
  8
0
 62
1
 10
225.194
 20
39.1688
 30
0.0
 11
225.061
 21
39.101
 31
0.0
  0
LINE
  5
57E
  8
0
 62
1
 10
225.061
 20
39.101
 30
0.0
 11
224.924
 21
39.0418
 31
0.0
  0
LINE
  5
57F
  8
0
 62
1
 10
224.924
 20
39.0418
 30
0.0
 11
224.784
 21
38.9912
 31
0.0
  0
LINE
  5
580
  8
0
 62
1
 10
224.784
 20
38.9912
 30
0.0
 11
224.641
 21
38.9496
 31
0.0
  0
LINE
  5
581
  8
0
 62
1
 10
224.641
 20
38.9496
 30
0.0
 11
224.495
 21
38.9171
 31
0.0
  0
LINE
  5
582
  8
0
 62
1
 10
224.495
 20
38.9171
 30
0.0
 11
224.348
 21
38.8937
 31
0.0
  0
LINE
  5
583
  8
0
 62
1
 10
224.348
 20
38.8937
 30
0.0
 11
224.199
 21
38.8797
 31
0.0
  0
LINE
  5
584
  8
0
 62
1
 10
224.199
 20
38.8797
 30
0.0
 11
224.05
 21
38.875
 31
0.0
  0
LINE
  5
585
  8
0
 62
1
 10
224.05
 20
38.875
 30
0.0
 11
223.901
 21
38.8797
 31
0.0
  0
LINE
  5
586
  8
0
 62
1
 10
141.401
 20
38.8797
 30
0.0
 11
141.252
 21
38.8937
 31
0.0
  0
LINE
  5
587
  8
0
 62
1
 10
141.252
 20
38.8937
 30
0.0
 11
141.105
 21
38.9171
 31
0.0
  0
LINE
  5
588
  8
0
 62
1
 10
141.105
 20
38.9171
 30
0.0
 11
140.959
 21
38.9496
 31
0.0
  0
LINE
  5
589
  8
0
 62
1
 10
140.959
 20
38.9496
 30
0.0
 11
140.816
 21
38.9912
 31
0.0
  0
LINE
  5
58A
  8
0
 62
1
 10
140.816
 20
38.9912
 30
0.0
 11
140.676
 21
39.0418
 31
0.0
  0
LINE
  5
58B
  8
0
 62
1
 10
140.676
 20
39.0418
 30
0.0
 11
140.539
 21
39.101
 31
0.0
  0
LINE
  5
58C
  8
0
 62
1
 10
140.539
 20
39.101
 30
0.0
 11
140.406
 21
39.1688
 31
0.0
  0
LINE
  5
58D
  8
0
 62
1
 10
140.406
 20
39.1688
 30
0.0
 11
140.277
 21
39.2447
 31
0.0
  0
LINE
  5
58E
  8
0
 62
1
 10
140.277
 20
39.2447
 30
0.0
 11
140.154
 21
39.3286
 31
0.0
  0
LINE
  5
58F
  8
0
 62
1
 10
140.154
 20
39.3286
 30
0.0
 11
140.036
 21
39.42
 31
0.0
  0
LINE
  5
590
  8
0
 62
1
 10
140.036
 20
39.42
 30
0.0
 11
139.924
 21
39.5187
 31
0.0
  0
LINE
  5
591
  8
0
 62
1
 10
139.924
 20
39.5187
 30
0.0
 11
139.819
 21
39.6242
 31
0.0
  0
LINE
  5
592
  8
0
 62
1
 10
139.819
 20
39.6242
 30
0.0
 11
139.72
 21
39.7361
 31
0.0
  0
LINE
  5
593
  8
0
 62
1
 10
139.72
 20
39.7361
 30
0.0
 11
139.629
 21
39.854
 31
0.0
  0
LINE
  5
594
  8
0
 62
1
 10
139.629
 20
39.854
 30
0.0
 11
139.545
 21
39.9774
 31
0.0
  0
LINE
  5
595
  8
0
 62
1
 10
139.545
 20
39.9774
 30
0.0
 11
139.469
 21
40.1058
 31
0.0
  0
LINE
  5
596
  8
0
 62
1
 10
139.469
 20
40.1058
 30
0.0
 11
139.401
 21
40.2388
 31
0.0
  0
LINE
  5
597
  8
0
 62
1
 10
139.401
 20
40.2388
 30
0.0
 11
139.342
 21
40.3757
 31
0.0
  0
LINE
  5
598
  8
0
 62
1
 10
139.342
 20
40.3757
 30
0.0
 11
139.291
 21
40.5161
 31
0.0
  0
LINE
  5
599
  8
0
 62
1
 10
139.291
 20
40.5161
 30
0.0
 11
139.25
 21
40.6593
 31
0.0
  0
LINE
  5
59A
  8
0
 62
1
 10
139.25
 20
40.6593
 30
0.0
 11
139.217
 21
40.805
 31
0.0
  0
LINE
  5
59B
  8
0
 62
1
 10
139.217
 20
40.805
 30
0.0
 11
139.194
 21
40.9523
 31
0.0
  0
LINE
  5
59C
  8
0
 62
1
 10
139.194
 20
40.9523
 30
0.0
 11
139.18
 21
41.1009
 31
0.0
  0
LINE
  5
59D
  8
0
 62
1
 10
139.18
 20
41.1009
 30
0.0
 11
139.175
 21
41.25
 31
0.0
  0
LINE
  5
59E
  8
0
 62
1
 10
139.175
 20
41.25
 30
0.0
 11
139.18
 21
41.3991
 31
0.0
  0
LINE
  5
59F
  8
0
 62
1
 10
139.18
 20
41.3991
 30
0.0
 11
139.194
 21
41.5477
 31
0.0
  0
LINE
  5
5A0
  8
0
 62
1
 10
139.194
 20
41.5477
 30
0.0
 11
139.217
 21
41.695
 31
0.0
  0
LINE
  5
5A1
  8
0
 62
1
 10
139.217
 20
41.695
 30
0.0
 11
139.25
 21
41.8406
 31
0.0
  0
LINE
  5
5A2
  8
0
 62
1
 10
139.25
 20
41.8406
 30
0.0
 11
139.291
 21
41.9839
 31
0.0
  0
LINE
  5
5A3
  8
0
 62
1
 10
139.291
 20
41.9839
 30
0.0
 11
139.342
 21
42.1243
 31
0.0
  0
LINE
  5
5A4
  8
0
 62
1
 10
139.342
 20
42.1243
 30
0.0
 11
139.401
 21
42.2612
 31
0.0
  0
LINE
  5
5A5
  8
0
 62
1
 10
139.401
 20
42.2612
 30
0.0
 11
139.469
 21
42.3941
 31
0.0
  0
LINE
  5
5A6
  8
0
 62
1
 10
139.469
 20
42.3941
 30
0.0
 11
139.545
 21
42.5226
 31
0.0
  0
LINE
  5
5A7
  8
0
 62
1
 10
139.545
 20
42.5226
 30
0.0
 11
139.629
 21
42.646
 31
0.0
  0
LINE
  5
5A8
  8
0
 62
1
 10
139.629
 20
42.646
 30
0.0
 11
139.72
 21
42.7639
 31
0.0
  0
LINE
  5
5A9
  8
0
 62
1
 10
139.72
 20
42.7639
 30
0.0
 11
139.819
 21
42.8758
 31
0.0
  0
LINE
  5
5AA
  8
0
 62
1
 10
139.819
 20
42.8758
 30
0.0
 11
139.924
 21
42.9813
 31
0.0
  0
LINE
  5
5AB
  8
0
 62
1
 10
139.924
 20
42.9813
 30
0.0
 11
140.036
 21
43.08
 31
0.0
  0
LINE
  5
5AC
  8
0
 62
1
 10
140.036
 20
43.08
 30
0.0
 11
140.154
 21
43.1714
 31
0.0
  0
LINE
  5
5AD
  8
0
 62
1
 10
140.154
 20
43.1714
 30
0.0
 11
140.277
 21
43.2553
 31
0.0
  0
LINE
  5
5AE
  8
0
 62
1
 10
140.277
 20
43.2553
 30
0.0
 11
140.406
 21
43.3312
 31
0.0
  0
LINE
  5
5AF
  8
0
 62
1
 10
140.406
 20
43.3312
 30
0.0
 11
140.539
 21
43.399
 31
0.0
  0
LINE
  5
5B0
  8
0
 62
1
 10
140.539
 20
43.399
 30
0.0
 11
140.676
 21
43.4582
 31
0.0
  0
LINE
  5
5B1
  8
0
 62
1
 10
140.676
 20
43.4582
 30
0.0
 11
140.816
 21
43.5088
 31
0.0
  0
LINE
  5
5B2
  8
0
 62
1
 10
140.816
 20
43.5088
 30
0.0
 11
140.959
 21
43.5504
 31
0.0
  0
LINE
  5
5B3
  8
0
 62
1
 10
140.959
 20
43.5504
 30
0.0
 11
141.105
 21
43.5829
 31
0.0
  0
LINE
  5
5B4
  8
0
 62
1
 10
141.105
 20
43.5829
 30
0.0
 11
141.252
 21
43.6063
 31
0.0
  0
LINE
  5
5B5
  8
0
 62
1
 10
141.252
 20
43.6063
 30
0.0
 11
141.401
 21
43.6203
 31
0.0
  0
LINE
  5
5B6
  8
0
 62
1
 10
141.401
 20
43.6203
 30
0.0
 11
141.55
 21
43.625
 31
0.0
  0
LINE
  5
5B7
  8
0
 62
1
 10
141.55
 20
43.625
 30
0.0
 11
141.699
 21
43.6203
 31
0.0
  0
LINE
  5
5B8
  8
0
 62
1
 10
141.699
 20
43.6203
 30
0.0
 11
141.848
 21
43.6063
 31
0.0
  0
LINE
  5
5B9
  8
0
 62
1
 10
141.848
 20
43.6063
 30
0.0
 11
141.995
 21
43.5829
 31
0.0
  0
LINE
  5
5BA
  8
0
 62
1
 10
141.995
 20
43.5829
 30
0.0
 11
142.141
 21
43.5504
 31
0.0
  0
LINE
  5
5BB
  8
0
 62
1
 10
142.141
 20
43.5504
 30
0.0
 11
142.284
 21
43.5088
 31
0.0
  0
LINE
  5
5BC
  8
0
 62
1
 10
142.284
 20
43.5088
 30
0.0
 11
142.424
 21
43.4582
 31
0.0
  0
LINE
  5
5BD
  8
0
 62
1
 10
142.424
 20
43.4582
 30
0.0
 11
142.561
 21
43.399
 31
0.0
  0
LINE
  5
5BE
  8
0
 62
1
 10
142.561
 20
43.399
 30
0.0
 11
142.694
 21
43.3312
 31
0.0
  0
LINE
  5
5BF
  8
0
 62
1
 10
142.694
 20
43.3312
 30
0.0
 11
142.823
 21
43.2553
 31
0.0
  0
LINE
  5
5C0
  8
0
 62
1
 10
142.823
 20
43.2553
 30
0.0
 11
142.946
 21
43.1714
 31
0.0
  0
LINE
  5
5C1
  8
0
 62
1
 10
142.946
 20
43.1714
 30
0.0
 11
143.064
 21
43.08
 31
0.0
  0
LINE
  5
5C2
  8
0
 62
1
 10
143.064
 20
43.08
 30
0.0
 11
143.176
 21
42.9813
 31
0.0
  0
LINE
  5
5C3
  8
0
 62
1
 10
143.176
 20
42.9813
 30
0.0
 11
143.281
 21
42.8758
 31
0.0
  0
LINE
  5
5C4
  8
0
 62
1
 10
143.281
 20
42.8758
 30
0.0
 11
143.38
 21
42.7639
 31
0.0
  0
LINE
  5
5C5
  8
0
 62
1
 10
143.38
 20
42.7639
 30
0.0
 11
143.471
 21
42.646
 31
0.0
  0
LINE
  5
5C6
  8
0
 62
1
 10
143.471
 20
42.646
 30
0.0
 11
143.555
 21
42.5226
 31
0.0
  0
LINE
  5
5C7
  8
0
 62
1
 10
143.555
 20
42.5226
 30
0.0
 11
143.631
 21
42.3941
 31
0.0
  0
LINE
  5
5C8
  8
0
 62
1
 10
143.631
 20
42.3941
 30
0.0
 11
143.699
 21
42.2612
 31
0.0
  0
LINE
  5
5C9
  8
0
 62
1
 10
143.699
 20
42.2612
 30
0.0
 11
143.758
 21
42.1243
 31
0.0
  0
LINE
  5
5CA
  8
0
 62
1
 10
143.758
 20
42.1243
 30
0.0
 11
143.809
 21
41.9839
 31
0.0
  0
LINE
  5
5CB
  8
0
 62
1
 10
143.809
 20
41.9839
 30
0.0
 11
143.85
 21
41.8406
 31
0.0
  0
LINE
  5
5CC
  8
0
 62
1
 10
143.85
 20
41.8406
 30
0.0
 11
143.883
 21
41.695
 31
0.0
  0
LINE
  5
5CD
  8
0
 62
1
 10
143.883
 20
41.695
 30
0.0
 11
143.906
 21
41.5477
 31
0.0
  0
LINE
  5
5CE
  8
0
 62
1
 10
143.906
 20
41.5477
 30
0.0
 11
143.92
 21
41.3991
 31
0.0
  0
LINE
  5
5CF
  8
0
 62
1
 10
143.92
 20
41.3991
 30
0.0
 11
143.925
 21
41.25
 31
0.0
  0
LINE
  5
5D0
  8
0
 62
1
 10
143.925
 20
41.25
 30
0.0
 11
143.92
 21
41.1009
 31
0.0
  0
LINE
  5
5D1
  8
0
 62
1
 10
143.92
 20
41.1009
 30
0.0
 11
143.906
 21
40.9523
 31
0.0
  0
LINE
  5
5D2
  8
0
 62
1
 10
143.906
 20
40.9523
 30
0.0
 11
143.883
 21
40.805
 31
0.0
  0
LINE
  5
5D3
  8
0
 62
1
 10
143.883
 20
40.805
 30
0.0
 11
143.85
 21
40.6593
 31
0.0
  0
LINE
  5
5D4
  8
0
 62
1
 10
143.85
 20
40.6593
 30
0.0
 11
143.809
 21
40.5161
 31
0.0
  0
LINE
  5
5D5
  8
0
 62
1
 10
143.809
 20
40.5161
 30
0.0
 11
143.758
 21
40.3757
 31
0.0
  0
LINE
  5
5D6
  8
0
 62
1
 10
143.758
 20
40.3757
 30
0.0
 11
143.699
 21
40.2388
 31
0.0
  0
LINE
  5
5D7
  8
0
 62
1
 10
143.699
 20
40.2388
 30
0.0
 11
143.631
 21
40.1058
 31
0.0
  0
LINE
  5
5D8
  8
0
 62
1
 10
143.631
 20
40.1058
 30
0.0
 11
143.555
 21
39.9774
 31
0.0
  0
LINE
  5
5D9
  8
0
 62
1
 10
143.555
 20
39.9774
 30
0.0
 11
143.471
 21
39.854
 31
0.0
  0
LINE
  5
5DA
  8
0
 62
1
 10
143.471
 20
39.854
 30
0.0
 11
143.38
 21
39.7361
 31
0.0
  0
LINE
  5
5DB
  8
0
 62
1
 10
143.38
 20
39.7361
 30
0.0
 11
143.281
 21
39.6242
 31
0.0
  0
LINE
  5
5DC
  8
0
 62
1
 10
143.281
 20
39.6242
 30
0.0
 11
143.176
 21
39.5187
 31
0.0
  0
LINE
  5
5DD
  8
0
 62
1
 10
143.176
 20
39.5187
 30
0.0
 11
143.064
 21
39.42
 31
0.0
  0
LINE
  5
5DE
  8
0
 62
1
 10
143.064
 20
39.42
 30
0.0
 11
142.946
 21
39.3286
 31
0.0
  0
LINE
  5
5DF
  8
0
 62
1
 10
142.946
 20
39.3286
 30
0.0
 11
142.823
 21
39.2447
 31
0.0
  0
LINE
  5
5E0
  8
0
 62
1
 10
142.823
 20
39.2447
 30
0.0
 11
142.694
 21
39.1688
 31
0.0
  0
LINE
  5
5E1
  8
0
 62
1
 10
142.694
 20
39.1688
 30
0.0
 11
142.561
 21
39.101
 31
0.0
  0
LINE
  5
5E2
  8
0
 62
1
 10
142.561
 20
39.101
 30
0.0
 11
142.424
 21
39.0418
 31
0.0
  0
LINE
  5
5E3
  8
0
 62
1
 10
142.424
 20
39.0418
 30
0.0
 11
142.284
 21
38.9912
 31
0.0
  0
LINE
  5
5E4
  8
0
 62
1
 10
142.284
 20
38.9912
 30
0.0
 11
142.141
 21
38.9496
 31
0.0
  0
LINE
  5
5E5
  8
0
 62
1
 10
142.141
 20
38.9496
 30
0.0
 11
141.995
 21
38.9171
 31
0.0
  0
LINE
  5
5E6
  8
0
 62
1
 10
141.995
 20
38.9171
 30
0.0
 11
141.848
 21
38.8937
 31
0.0
  0
LINE
  5
5E7
  8
0
 62
1
 10
141.848
 20
38.8937
 30
0.0
 11
141.699
 21
38.8797
 31
0.0
  0
LINE
  5
5E8
  8
0
 62
1
 10
141.699
 20
38.8797
 30
0.0
 11
141.55
 21
38.875
 31
0.0
  0
LINE
  5
5E9
  8
0
 62
1
 10
141.55
 20
38.875
 30
0.0
 11
141.401
 21
38.8797
 31
0.0
  0
LINE
  5
5EA
  8
0
 62
1
 10
177.16
 20
-44.6452
 30
0.0
 11
174.368
 21
-44.2029
 31
0.0
  0
LINE
  5
5EB
  8
0
 62
1
 10
174.368
 20
-44.2029
 30
0.0
 11
171.609
 21
-43.5862
 31
0.0
  0
LINE
  5
5EC
  8
0
 62
1
 10
171.609
 20
-43.5862
 30
0.0
 11
168.894
 21
-42.7975
 31
0.0
  0
LINE
  5
5ED
  8
0
 62
1
 10
168.894
 20
-42.7975
 30
0.0
 11
166.234
 21
-41.8399
 31
0.0
  0
LINE
  5
5EE
  8
0
 62
1
 10
166.234
 20
-41.8399
 30
0.0
 11
163.64
 21
-40.7172
 31
0.0
  0
LINE
  5
5EF
  8
0
 62
1
 10
163.64
 20
-40.7172
 30
0.0
 11
161.121
 21
-39.4338
 31
0.0
  0
LINE
  5
5F0
  8
0
 62
1
 10
161.121
 20
-39.4338
 30
0.0
 11
158.688
 21
-37.9948
 31
0.0
  0
LINE
  5
5F1
  8
0
 62
1
 10
158.688
 20
-37.9948
 30
0.0
 11
156.35
 21
-36.4058
 31
0.0
  0
LINE
  5
5F2
  8
0
 62
1
 10
156.35
 20
-36.4058
 30
0.0
 11
154.116
 21
-34.6731
 31
0.0
  0
LINE
  5
5F3
  8
0
 62
1
 10
154.116
 20
-34.6731
 30
0.0
 11
151.995
 21
-32.8036
 31
0.0
  0
LINE
  5
5F4
  8
0
 62
1
 10
151.995
 20
-32.8036
 30
0.0
 11
149.996
 21
-30.8046
 31
0.0
  0
LINE
  5
5F5
  8
0
 62
1
 10
149.996
 20
-30.8046
 30
0.0
 11
148.127
 21
-28.6841
 31
0.0
  0
LINE
  5
5F6
  8
0
 62
1
 10
148.127
 20
-28.6841
 30
0.0
 11
146.394
 21
-26.4503
 31
0.0
  0
LINE
  5
5F7
  8
0
 62
1
 10
146.394
 20
-26.4503
 30
0.0
 11
144.805
 21
-24.1122
 31
0.0
  0
LINE
  5
5F8
  8
0
 62
1
 10
144.805
 20
-24.1122
 30
0.0
 11
143.366
 21
-21.6789
 31
0.0
  0
LINE
  5
5F9
  8
0
 62
1
 10
143.366
 20
-21.6789
 30
0.0
 11
142.083
 21
-19.1601
 31
0.0
  0
LINE
  5
5FA
  8
0
 62
1
 10
142.083
 20
-19.1601
 30
0.0
 11
140.96
 21
-16.5656
 31
0.0
  0
LINE
  5
5FB
  8
0
 62
1
 10
140.96
 20
-16.5656
 30
0.0
 11
140.002
 21
-13.9058
 31
0.0
  0
LINE
  5
5FC
  8
0
 62
1
 10
140.002
 20
-13.9058
 30
0.0
 11
139.214
 21
-11.191
 31
0.0
  0
LINE
  5
5FD
  8
0
 62
1
 10
139.214
 20
-11.191
 30
0.0
 11
138.597
 21
-8.43214
 31
0.0
  0
LINE
  5
5FE
  8
0
 62
1
 10
138.597
 20
-8.43214
 30
0.0
 11
138.155
 21
-5.63998
 31
0.0
  0
LINE
  5
5FF
  8
0
 62
1
 10
138.155
 20
-5.63998
 30
0.0
 11
137.922
 21
-3.17499
 31
0.0
  0
LINE
  5
600
  8
0
 62
1
 10
137.922
 20
-3.17499
 30
0.0
 11
179.625
 21
-3.17499
 31
0.0
  0
LINE
  5
601
  8
0
 62
1
 10
179.625
 20
-3.17499
 30
0.0
 11
179.625
 21
-44.8782
 31
0.0
  0
LINE
  5
602
  8
0
 62
1
 10
179.625
 20
-44.8782
 30
0.0
 11
177.16
 21
-44.6452
 31
0.0
  0
LINE
  5
603
  8
0
 62
1
 10
185.975
 20
-3.17499
 30
0.0
 11
227.678
 21
-3.17499
 31
0.0
  0
LINE
  5
604
  8
0
 62
1
 10
227.678
 20
-3.17499
 30
0.0
 11
227.445
 21
-5.63998
 31
0.0
  0
LINE
  5
605
  8
0
 62
1
 10
227.445
 20
-5.63998
 30
0.0
 11
227.003
 21
-8.43214
 31
0.0
  0
LINE
  5
606
  8
0
 62
1
 10
227.003
 20
-8.43214
 30
0.0
 11
226.386
 21
-11.191
 31
0.0
  0
LINE
  5
607
  8
0
 62
1
 10
226.386
 20
-11.191
 30
0.0
 11
225.598
 21
-13.9058
 31
0.0
  0
LINE
  5
608
  8
0
 62
1
 10
225.598
 20
-13.9058
 30
0.0
 11
224.64
 21
-16.5656
 31
0.0
  0
LINE
  5
609
  8
0
 62
1
 10
224.64
 20
-16.5656
 30
0.0
 11
223.517
 21
-19.1601
 31
0.0
  0
LINE
  5
60A
  8
0
 62
1
 10
223.517
 20
-19.1601
 30
0.0
 11
222.234
 21
-21.6789
 31
0.0
  0
LINE
  5
60B
  8
0
 62
1
 10
222.234
 20
-21.6789
 30
0.0
 11
220.795
 21
-24.1122
 31
0.0
  0
LINE
  5
60C
  8
0
 62
1
 10
220.795
 20
-24.1122
 30
0.0
 11
219.206
 21
-26.4503
 31
0.0
  0
LINE
  5
60D
  8
0
 62
1
 10
219.206
 20
-26.4503
 30
0.0
 11
217.473
 21
-28.6841
 31
0.0
  0
LINE
  5
60E
  8
0
 62
1
 10
217.473
 20
-28.6841
 30
0.0
 11
215.604
 21
-30.8046
 31
0.0
  0
LINE
  5
60F
  8
0
 62
1
 10
215.604
 20
-30.8046
 30
0.0
 11
213.605
 21
-32.8036
 31
0.0
  0
LINE
  5
610
  8
0
 62
1
 10
213.605
 20
-32.8036
 30
0.0
 11
211.484
 21
-34.6731
 31
0.0
  0
LINE
  5
611
  8
0
 62
1
 10
211.484
 20
-34.6731
 30
0.0
 11
209.25
 21
-36.4058
 31
0.0
  0
LINE
  5
612
  8
0
 62
1
 10
209.25
 20
-36.4058
 30
0.0
 11
206.912
 21
-37.9948
 31
0.0
  0
LINE
  5
613
  8
0
 62
1
 10
206.912
 20
-37.9948
 30
0.0
 11
204.479
 21
-39.4338
 31
0.0
  0
LINE
  5
614
  8
0
 62
1
 10
204.479
 20
-39.4338
 30
0.0
 11
201.96
 21
-40.7172
 31
0.0
  0
LINE
  5
615
  8
0
 62
1
 10
201.96
 20
-40.7172
 30
0.0
 11
199.366
 21
-41.8399
 31
0.0
  0
LINE
  5
616
  8
0
 62
1
 10
199.366
 20
-41.8399
 30
0.0
 11
196.706
 21
-42.7975
 31
0.0
  0
LINE
  5
617
  8
0
 62
1
 10
196.706
 20
-42.7975
 30
0.0
 11
193.991
 21
-43.5862
 31
0.0
  0
LINE
  5
618
  8
0
 62
1
 10
193.991
 20
-43.5862
 30
0.0
 11
191.232
 21
-44.2029
 31
0.0
  0
LINE
  5
619
  8
0
 62
1
 10
191.232
 20
-44.2029
 30
0.0
 11
188.44
 21
-44.6452
 31
0.0
  0
LINE
  5
61A
  8
0
 62
1
 10
188.44
 20
-44.6452
 30
0.0
 11
185.975
 21
-44.8782
 31
0.0
  0
LINE
  5
61B
  8
0
 62
1
 10
185.975
 20
-44.8782
 30
0.0
 11
185.975
 21
-3.17499
 31
0.0
  0
LINE
  5
61C
  8
0
 62
1
 10
106.394
 20
-19.9685
 30
0.0
 11
106.19
 21
-19.9492
 31
0.0
  0
LINE
  5
61D
  8
0
 62
1
 10
106.19
 20
-19.9492
 30
0.0
 11
105.986
 21
-19.917
 31
0.0
  0
LINE
  5
61E
  8
0
 62
1
 10
105.986
 20
-19.917
 30
0.0
 11
105.786
 21
-19.8721
 31
0.0
  0
LINE
  5
61F
  8
0
 62
1
 10
105.786
 20
-19.8721
 30
0.0
 11
105.588
 21
-19.8147
 31
0.0
  0
LINE
  5
620
  8
0
 62
1
 10
105.588
 20
-19.8147
 30
0.0
 11
105.394
 21
-19.745
 31
0.0
  0
LINE
  5
621
  8
0
 62
1
 10
105.394
 20
-19.745
 30
0.0
 11
105.206
 21
-19.6633
 31
0.0
  0
LINE
  5
622
  8
0
 62
1
 10
105.206
 20
-19.6633
 30
0.0
 11
105.022
 21
-19.5699
 31
0.0
  0
LINE
  5
623
  8
0
 62
1
 10
105.022
 20
-19.5699
 30
0.0
 11
104.845
 21
-19.4652
 31
0.0
  0
LINE
  5
624
  8
0
 62
1
 10
104.845
 20
-19.4652
 30
0.0
 11
104.675
 21
-19.3495
 31
0.0
  0
LINE
  5
625
  8
0
 62
1
 10
104.675
 20
-19.3495
 30
0.0
 11
104.512
 21
-19.2234
 31
0.0
  0
LINE
  5
626
  8
0
 62
1
 10
104.512
 20
-19.2234
 30
0.0
 11
104.358
 21
-19.0874
 31
0.0
  0
LINE
  5
627
  8
0
 62
1
 10
104.358
 20
-19.0874
 30
0.0
 11
104.213
 21
-18.9419
 31
0.0
  0
LINE
  5
628
  8
0
 62
1
 10
104.213
 20
-18.9419
 30
0.0
 11
104.077
 21
-18.7876
 31
0.0
  0
LINE
  5
629
  8
0
 62
1
 10
104.077
 20
-18.7876
 30
0.0
 11
103.95
 21
-18.625
 31
0.0
  0
LINE
  5
62A
  8
0
 62
1
 10
103.95
 20
-18.625
 30
0.0
 11
103.835
 21
-18.4548
 31
0.0
  0
LINE
  5
62B
  8
0
 62
1
 10
103.835
 20
-18.4548
 30
0.0
 11
103.73
 21
-18.2777
 31
0.0
  0
LINE
  5
62C
  8
0
 62
1
 10
103.73
 20
-18.2777
 30
0.0
 11
103.637
 21
-18.0944
 31
0.0
  0
LINE
  5
62D
  8
0
 62
1
 10
103.637
 20
-18.0944
 30
0.0
 11
103.555
 21
-17.9056
 31
0.0
  0
LINE
  5
62E
  8
0
 62
1
 10
103.555
 20
-17.9056
 30
0.0
 11
103.485
 21
-17.712
 31
0.0
  0
LINE
  5
62F
  8
0
 62
1
 10
103.485
 20
-17.712
 30
0.0
 11
103.428
 21
-17.5145
 31
0.0
  0
LINE
  5
630
  8
0
 62
1
 10
103.428
 20
-17.5145
 30
0.0
 11
103.383
 21
-17.3137
 31
0.0
  0
LINE
  5
631
  8
0
 62
1
 10
103.383
 20
-17.3137
 30
0.0
 11
103.351
 21
-17.1105
 31
0.0
  0
LINE
  5
632
  8
0
 62
1
 10
103.351
 20
-17.1105
 30
0.0
 11
103.331
 21
-16.9056
 31
0.0
  0
LINE
  5
633
  8
0
 62
1
 10
103.331
 20
-16.9056
 30
0.0
 11
103.325
 21
-16.7
 31
0.0
  0
LINE
  5
634
  8
0
 62
1
 10
103.325
 20
-16.7
 30
0.0
 11
103.331
 21
-16.4944
 31
0.0
  0
LINE
  5
635
  8
0
 62
1
 10
103.331
 20
-16.4944
 30
0.0
 11
103.351
 21
-16.2895
 31
0.0
  0
LINE
  5
636
  8
0
 62
1
 10
103.351
 20
-16.2895
 30
0.0
 11
103.383
 21
-16.0863
 31
0.0
  0
LINE
  5
637
  8
0
 62
1
 10
103.383
 20
-16.0863
 30
0.0
 11
103.428
 21
-15.8855
 31
0.0
  0
LINE
  5
638
  8
0
 62
1
 10
103.428
 20
-15.8855
 30
0.0
 11
103.485
 21
-15.688
 31
0.0
  0
LINE
  5
639
  8
0
 62
1
 10
103.485
 20
-15.688
 30
0.0
 11
103.555
 21
-15.4944
 31
0.0
  0
LINE
  5
63A
  8
0
 62
1
 10
103.555
 20
-15.4944
 30
0.0
 11
103.637
 21
-15.3056
 31
0.0
  0
LINE
  5
63B
  8
0
 62
1
 10
103.637
 20
-15.3056
 30
0.0
 11
103.73
 21
-15.1223
 31
0.0
  0
LINE
  5
63C
  8
0
 62
1
 10
103.73
 20
-15.1223
 30
0.0
 11
103.835
 21
-14.9452
 31
0.0
  0
LINE
  5
63D
  8
0
 62
1
 10
103.835
 20
-14.9452
 30
0.0
 11
103.95
 21
-14.775
 31
0.0
  0
LINE
  5
63E
  8
0
 62
1
 10
103.95
 20
-14.775
 30
0.0
 11
104.077
 21
-14.6124
 31
0.0
  0
LINE
  5
63F
  8
0
 62
1
 10
104.077
 20
-14.6124
 30
0.0
 11
104.213
 21
-14.4581
 31
0.0
  0
LINE
  5
640
  8
0
 62
1
 10
104.213
 20
-14.4581
 30
0.0
 11
104.358
 21
-14.3126
 31
0.0
  0
LINE
  5
641
  8
0
 62
1
 10
104.358
 20
-14.3126
 30
0.0
 11
104.512
 21
-14.1766
 31
0.0
  0
LINE
  5
642
  8
0
 62
1
 10
104.512
 20
-14.1766
 30
0.0
 11
104.675
 21
-14.0505
 31
0.0
  0
LINE
  5
643
  8
0
 62
1
 10
104.675
 20
-14.0505
 30
0.0
 11
104.845
 21
-13.9348
 31
0.0
  0
LINE
  5
644
  8
0
 62
1
 10
104.845
 20
-13.9348
 30
0.0
 11
105.022
 21
-13.8301
 31
0.0
  0
LINE
  5
645
  8
0
 62
1
 10
105.022
 20
-13.8301
 30
0.0
 11
105.206
 21
-13.7367
 31
0.0
  0
LINE
  5
646
  8
0
 62
1
 10
105.206
 20
-13.7367
 30
0.0
 11
105.394
 21
-13.655
 31
0.0
  0
LINE
  5
647
  8
0
 62
1
 10
105.394
 20
-13.655
 30
0.0
 11
105.588
 21
-13.5853
 31
0.0
  0
LINE
  5
648
  8
0
 62
1
 10
105.588
 20
-13.5853
 30
0.0
 11
105.786
 21
-13.5279
 31
0.0
  0
LINE
  5
649
  8
0
 62
1
 10
105.786
 20
-13.5279
 30
0.0
 11
105.986
 21
-13.483
 31
0.0
  0
LINE
  5
64A
  8
0
 62
1
 10
105.986
 20
-13.483
 30
0.0
 11
106.19
 21
-13.4508
 31
0.0
  0
LINE
  5
64B
  8
0
 62
1
 10
106.19
 20
-13.4508
 30
0.0
 11
106.394
 21
-13.4315
 31
0.0
  0
LINE
  5
64C
  8
0
 62
1
 10
106.394
 20
-13.4315
 30
0.0
 11
106.6
 21
-13.425
 31
0.0
  0
LINE
  5
64D
  8
0
 62
1
 10
106.6
 20
-13.425
 30
0.0
 11
106.806
 21
-13.4315
 31
0.0
  0
LINE
  5
64E
  8
0
 62
1
 10
106.806
 20
-13.4315
 30
0.0
 11
107.01
 21
-13.4508
 31
0.0
  0
LINE
  5
64F
  8
0
 62
1
 10
107.01
 20
-13.4508
 30
0.0
 11
107.214
 21
-13.483
 31
0.0
  0
LINE
  5
650
  8
0
 62
1
 10
107.214
 20
-13.483
 30
0.0
 11
107.414
 21
-13.5279
 31
0.0
  0
LINE
  5
651
  8
0
 62
1
 10
107.414
 20
-13.5279
 30
0.0
 11
107.612
 21
-13.5853
 31
0.0
  0
LINE
  5
652
  8
0
 62
1
 10
107.612
 20
-13.5853
 30
0.0
 11
107.806
 21
-13.655
 31
0.0
  0
LINE
  5
653
  8
0
 62
1
 10
107.806
 20
-13.655
 30
0.0
 11
107.994
 21
-13.7367
 31
0.0
  0
LINE
  5
654
  8
0
 62
1
 10
107.994
 20
-13.7367
 30
0.0
 11
108.178
 21
-13.8301
 31
0.0
  0
LINE
  5
655
  8
0
 62
1
 10
108.178
 20
-13.8301
 30
0.0
 11
108.355
 21
-13.9348
 31
0.0
  0
LINE
  5
656
  8
0
 62
1
 10
108.355
 20
-13.9348
 30
0.0
 11
108.525
 21
-14.0505
 31
0.0
  0
LINE
  5
657
  8
0
 62
1
 10
108.525
 20
-14.0505
 30
0.0
 11
108.688
 21
-14.1766
 31
0.0
  0
LINE
  5
658
  8
0
 62
1
 10
108.688
 20
-14.1766
 30
0.0
 11
108.842
 21
-14.3126
 31
0.0
  0
LINE
  5
659
  8
0
 62
1
 10
108.842
 20
-14.3126
 30
0.0
 11
108.987
 21
-14.4581
 31
0.0
  0
LINE
  5
65A
  8
0
 62
1
 10
108.987
 20
-14.4581
 30
0.0
 11
109.123
 21
-14.6124
 31
0.0
  0
LINE
  5
65B
  8
0
 62
1
 10
109.123
 20
-14.6124
 30
0.0
 11
109.25
 21
-14.775
 31
0.0
  0
LINE
  5
65C
  8
0
 62
1
 10
109.25
 20
-14.775
 30
0.0
 11
109.365
 21
-14.9452
 31
0.0
  0
LINE
  5
65D
  8
0
 62
1
 10
109.365
 20
-14.9452
 30
0.0
 11
109.47
 21
-15.1223
 31
0.0
  0
LINE
  5
65E
  8
0
 62
1
 10
109.47
 20
-15.1223
 30
0.0
 11
109.563
 21
-15.3056
 31
0.0
  0
LINE
  5
65F
  8
0
 62
1
 10
109.563
 20
-15.3056
 30
0.0
 11
109.645
 21
-15.4944
 31
0.0
  0
LINE
  5
660
  8
0
 62
1
 10
109.645
 20
-15.4944
 30
0.0
 11
109.715
 21
-15.688
 31
0.0
  0
LINE
  5
661
  8
0
 62
1
 10
109.715
 20
-15.688
 30
0.0
 11
109.772
 21
-15.8855
 31
0.0
  0
LINE
  5
662
  8
0
 62
1
 10
109.772
 20
-15.8855
 30
0.0
 11
109.817
 21
-16.0863
 31
0.0
  0
LINE
  5
663
  8
0
 62
1
 10
109.817
 20
-16.0863
 30
0.0
 11
109.849
 21
-16.2895
 31
0.0
  0
LINE
  5
664
  8
0
 62
1
 10
109.849
 20
-16.2895
 30
0.0
 11
109.869
 21
-16.4944
 31
0.0
  0
LINE
  5
665
  8
0
 62
1
 10
109.869
 20
-16.4944
 30
0.0
 11
109.875
 21
-16.7
 31
0.0
  0
LINE
  5
666
  8
0
 62
1
 10
109.875
 20
-16.7
 30
0.0
 11
109.869
 21
-16.9056
 31
0.0
  0
LINE
  5
667
  8
0
 62
1
 10
109.869
 20
-16.9056
 30
0.0
 11
109.849
 21
-17.1105
 31
0.0
  0
LINE
  5
668
  8
0
 62
1
 10
109.849
 20
-17.1105
 30
0.0
 11
109.817
 21
-17.3137
 31
0.0
  0
LINE
  5
669
  8
0
 62
1
 10
109.817
 20
-17.3137
 30
0.0
 11
109.772
 21
-17.5145
 31
0.0
  0
LINE
  5
66A
  8
0
 62
1
 10
109.772
 20
-17.5145
 30
0.0
 11
109.715
 21
-17.712
 31
0.0
  0
LINE
  5
66B
  8
0
 62
1
 10
109.715
 20
-17.712
 30
0.0
 11
109.645
 21
-17.9056
 31
0.0
  0
LINE
  5
66C
  8
0
 62
1
 10
109.645
 20
-17.9056
 30
0.0
 11
109.563
 21
-18.0944
 31
0.0
  0
LINE
  5
66D
  8
0
 62
1
 10
109.563
 20
-18.0944
 30
0.0
 11
109.47
 21
-18.2777
 31
0.0
  0
LINE
  5
66E
  8
0
 62
1
 10
109.47
 20
-18.2777
 30
0.0
 11
109.365
 21
-18.4548
 31
0.0
  0
LINE
  5
66F
  8
0
 62
1
 10
109.365
 20
-18.4548
 30
0.0
 11
109.25
 21
-18.625
 31
0.0
  0
LINE
  5
670
  8
0
 62
1
 10
109.25
 20
-18.625
 30
0.0
 11
109.123
 21
-18.7876
 31
0.0
  0
LINE
  5
671
  8
0
 62
1
 10
109.123
 20
-18.7876
 30
0.0
 11
108.987
 21
-18.9419
 31
0.0
  0
LINE
  5
672
  8
0
 62
1
 10
108.987
 20
-18.9419
 30
0.0
 11
108.842
 21
-19.0874
 31
0.0
  0
LINE
  5
673
  8
0
 62
1
 10
108.842
 20
-19.0874
 30
0.0
 11
108.688
 21
-19.2234
 31
0.0
  0
LINE
  5
674
  8
0
 62
1
 10
108.688
 20
-19.2234
 30
0.0
 11
108.525
 21
-19.3495
 31
0.0
  0
LINE
  5
675
  8
0
 62
1
 10
108.525
 20
-19.3495
 30
0.0
 11
108.355
 21
-19.4652
 31
0.0
  0
LINE
  5
676
  8
0
 62
1
 10
108.355
 20
-19.4652
 30
0.0
 11
108.178
 21
-19.5699
 31
0.0
  0
LINE
  5
677
  8
0
 62
1
 10
108.178
 20
-19.5699
 30
0.0
 11
107.994
 21
-19.6633
 31
0.0
  0
LINE
  5
678
  8
0
 62
1
 10
107.994
 20
-19.6633
 30
0.0
 11
107.806
 21
-19.745
 31
0.0
  0
LINE
  5
679
  8
0
 62
1
 10
107.806
 20
-19.745
 30
0.0
 11
107.612
 21
-19.8147
 31
0.0
  0
LINE
  5
67A
  8
0
 62
1
 10
107.612
 20
-19.8147
 30
0.0
 11
107.414
 21
-19.8721
 31
0.0
  0
LINE
  5
67B
  8
0
 62
1
 10
107.414
 20
-19.8721
 30
0.0
 11
107.214
 21
-19.917
 31
0.0
  0
LINE
  5
67C
  8
0
 62
1
 10
107.214
 20
-19.917
 30
0.0
 11
107.01
 21
-19.9492
 31
0.0
  0
LINE
  5
67D
  8
0
 62
1
 10
107.01
 20
-19.9492
 30
0.0
 11
106.806
 21
-19.9685
 31
0.0
  0
LINE
  5
67E
  8
0
 62
1
 10
106.806
 20
-19.9685
 30
0.0
 11
106.6
 21
-19.975
 31
0.0
  0
LINE
  5
67F
  8
0
 62
1
 10
106.6
 20
-19.975
 30
0.0
 11
106.394
 21
-19.9685
 31
0.0
  0
LINE
  5
680
  8
0
 62
1
 10
258.794
 20
-19.9685
 30
0.0
 11
258.59
 21
-19.9492
 31
0.0
  0
LINE
  5
681
  8
0
 62
1
 10
258.59
 20
-19.9492
 30
0.0
 11
258.386
 21
-19.917
 31
0.0
  0
LINE
  5
682
  8
0
 62
1
 10
258.386
 20
-19.917
 30
0.0
 11
258.186
 21
-19.8721
 31
0.0
  0
LINE
  5
683
  8
0
 62
1
 10
258.186
 20
-19.8721
 30
0.0
 11
257.988
 21
-19.8147
 31
0.0
  0
LINE
  5
684
  8
0
 62
1
 10
257.988
 20
-19.8147
 30
0.0
 11
257.794
 21
-19.745
 31
0.0
  0
LINE
  5
685
  8
0
 62
1
 10
257.794
 20
-19.745
 30
0.0
 11
257.606
 21
-19.6633
 31
0.0
  0
LINE
  5
686
  8
0
 62
1
 10
257.606
 20
-19.6633
 30
0.0
 11
257.422
 21
-19.5699
 31
0.0
  0
LINE
  5
687
  8
0
 62
1
 10
257.422
 20
-19.5699
 30
0.0
 11
257.245
 21
-19.4652
 31
0.0
  0
LINE
  5
688
  8
0
 62
1
 10
257.245
 20
-19.4652
 30
0.0
 11
257.075
 21
-19.3495
 31
0.0
  0
LINE
  5
689
  8
0
 62
1
 10
257.075
 20
-19.3495
 30
0.0
 11
256.912
 21
-19.2234
 31
0.0
  0
LINE
  5
68A
  8
0
 62
1
 10
256.912
 20
-19.2234
 30
0.0
 11
256.758
 21
-19.0874
 31
0.0
  0
LINE
  5
68B
  8
0
 62
1
 10
256.758
 20
-19.0874
 30
0.0
 11
256.613
 21
-18.9419
 31
0.0
  0
LINE
  5
68C
  8
0
 62
1
 10
256.613
 20
-18.9419
 30
0.0
 11
256.477
 21
-18.7876
 31
0.0
  0
LINE
  5
68D
  8
0
 62
1
 10
256.477
 20
-18.7876
 30
0.0
 11
256.35
 21
-18.625
 31
0.0
  0
LINE
  5
68E
  8
0
 62
1
 10
256.35
 20
-18.625
 30
0.0
 11
256.235
 21
-18.4548
 31
0.0
  0
LINE
  5
68F
  8
0
 62
1
 10
256.235
 20
-18.4548
 30
0.0
 11
256.13
 21
-18.2777
 31
0.0
  0
LINE
  5
690
  8
0
 62
1
 10
256.13
 20
-18.2777
 30
0.0
 11
256.037
 21
-18.0944
 31
0.0
  0
LINE
  5
691
  8
0
 62
1
 10
256.037
 20
-18.0944
 30
0.0
 11
255.955
 21
-17.9056
 31
0.0
  0
LINE
  5
692
  8
0
 62
1
 10
255.955
 20
-17.9056
 30
0.0
 11
255.885
 21
-17.712
 31
0.0
  0
LINE
  5
693
  8
0
 62
1
 10
255.885
 20
-17.712
 30
0.0
 11
255.828
 21
-17.5145
 31
0.0
  0
LINE
  5
694
  8
0
 62
1
 10
255.828
 20
-17.5145
 30
0.0
 11
255.783
 21
-17.3137
 31
0.0
  0
LINE
  5
695
  8
0
 62
1
 10
255.783
 20
-17.3137
 30
0.0
 11
255.751
 21
-17.1105
 31
0.0
  0
LINE
  5
696
  8
0
 62
1
 10
255.751
 20
-17.1105
 30
0.0
 11
255.731
 21
-16.9056
 31
0.0
  0
LINE
  5
697
  8
0
 62
1
 10
255.731
 20
-16.9056
 30
0.0
 11
255.725
 21
-16.7
 31
0.0
  0
LINE
  5
698
  8
0
 62
1
 10
255.725
 20
-16.7
 30
0.0
 11
255.731
 21
-16.4944
 31
0.0
  0
LINE
  5
699
  8
0
 62
1
 10
255.731
 20
-16.4944
 30
0.0
 11
255.751
 21
-16.2895
 31
0.0
  0
LINE
  5
69A
  8
0
 62
1
 10
255.751
 20
-16.2895
 30
0.0
 11
255.783
 21
-16.0863
 31
0.0
  0
LINE
  5
69B
  8
0
 62
1
 10
255.783
 20
-16.0863
 30
0.0
 11
255.828
 21
-15.8855
 31
0.0
  0
LINE
  5
69C
  8
0
 62
1
 10
255.828
 20
-15.8855
 30
0.0
 11
255.885
 21
-15.688
 31
0.0
  0
LINE
  5
69D
  8
0
 62
1
 10
255.885
 20
-15.688
 30
0.0
 11
255.955
 21
-15.4944
 31
0.0
  0
LINE
  5
69E
  8
0
 62
1
 10
255.955
 20
-15.4944
 30
0.0
 11
256.037
 21
-15.3056
 31
0.0
  0
LINE
  5
69F
  8
0
 62
1
 10
256.037
 20
-15.3056
 30
0.0
 11
256.13
 21
-15.1223
 31
0.0
  0
LINE
  5
6A0
  8
0
 62
1
 10
256.13
 20
-15.1223
 30
0.0
 11
256.235
 21
-14.9452
 31
0.0
  0
LINE
  5
6A1
  8
0
 62
1
 10
256.235
 20
-14.9452
 30
0.0
 11
256.35
 21
-14.775
 31
0.0
  0
LINE
  5
6A2
  8
0
 62
1
 10
256.35
 20
-14.775
 30
0.0
 11
256.477
 21
-14.6124
 31
0.0
  0
LINE
  5
6A3
  8
0
 62
1
 10
256.477
 20
-14.6124
 30
0.0
 11
256.613
 21
-14.4581
 31
0.0
  0
LINE
  5
6A4
  8
0
 62
1
 10
256.613
 20
-14.4581
 30
0.0
 11
256.758
 21
-14.3126
 31
0.0
  0
LINE
  5
6A5
  8
0
 62
1
 10
256.758
 20
-14.3126
 30
0.0
 11
256.912
 21
-14.1766
 31
0.0
  0
LINE
  5
6A6
  8
0
 62
1
 10
256.912
 20
-14.1766
 30
0.0
 11
257.075
 21
-14.0505
 31
0.0
  0
LINE
  5
6A7
  8
0
 62
1
 10
257.075
 20
-14.0505
 30
0.0
 11
257.245
 21
-13.9348
 31
0.0
  0
LINE
  5
6A8
  8
0
 62
1
 10
257.245
 20
-13.9348
 30
0.0
 11
257.422
 21
-13.8301
 31
0.0
  0
LINE
  5
6A9
  8
0
 62
1
 10
257.422
 20
-13.8301
 30
0.0
 11
257.606
 21
-13.7367
 31
0.0
  0
LINE
  5
6AA
  8
0
 62
1
 10
257.606
 20
-13.7367
 30
0.0
 11
257.794
 21
-13.655
 31
0.0
  0
LINE
  5
6AB
  8
0
 62
1
 10
257.794
 20
-13.655
 30
0.0
 11
257.988
 21
-13.5853
 31
0.0
  0
LINE
  5
6AC
  8
0
 62
1
 10
257.988
 20
-13.5853
 30
0.0
 11
258.186
 21
-13.5279
 31
0.0
  0
LINE
  5
6AD
  8
0
 62
1
 10
258.186
 20
-13.5279
 30
0.0
 11
258.386
 21
-13.483
 31
0.0
  0
LINE
  5
6AE
  8
0
 62
1
 10
258.386
 20
-13.483
 30
0.0
 11
258.59
 21
-13.4508
 31
0.0
  0
LINE
  5
6AF
  8
0
 62
1
 10
258.59
 20
-13.4508
 30
0.0
 11
258.794
 21
-13.4315
 31
0.0
  0
LINE
  5
6B0
  8
0
 62
1
 10
258.794
 20
-13.4315
 30
0.0
 11
259.0
 21
-13.425
 31
0.0
  0
LINE
  5
6B1
  8
0
 62
1
 10
259.0
 20
-13.425
 30
0.0
 11
259.206
 21
-13.4315
 31
0.0
  0
LINE
  5
6B2
  8
0
 62
1
 10
259.206
 20
-13.4315
 30
0.0
 11
259.41
 21
-13.4508
 31
0.0
  0
LINE
  5
6B3
  8
0
 62
1
 10
259.41
 20
-13.4508
 30
0.0
 11
259.614
 21
-13.483
 31
0.0
  0
LINE
  5
6B4
  8
0
 62
1
 10
259.614
 20
-13.483
 30
0.0
 11
259.814
 21
-13.5279
 31
0.0
  0
LINE
  5
6B5
  8
0
 62
1
 10
259.814
 20
-13.5279
 30
0.0
 11
260.012
 21
-13.5853
 31
0.0
  0
LINE
  5
6B6
  8
0
 62
1
 10
260.012
 20
-13.5853
 30
0.0
 11
260.206
 21
-13.655
 31
0.0
  0
LINE
  5
6B7
  8
0
 62
1
 10
260.206
 20
-13.655
 30
0.0
 11
260.394
 21
-13.7367
 31
0.0
  0
LINE
  5
6B8
  8
0
 62
1
 10
260.394
 20
-13.7367
 30
0.0
 11
260.578
 21
-13.8301
 31
0.0
  0
LINE
  5
6B9
  8
0
 62
1
 10
260.578
 20
-13.8301
 30
0.0
 11
260.755
 21
-13.9348
 31
0.0
  0
LINE
  5
6BA
  8
0
 62
1
 10
260.755
 20
-13.9348
 30
0.0
 11
260.925
 21
-14.0505
 31
0.0
  0
LINE
  5
6BB
  8
0
 62
1
 10
260.925
 20
-14.0505
 30
0.0
 11
261.088
 21
-14.1766
 31
0.0
  0
LINE
  5
6BC
  8
0
 62
1
 10
261.088
 20
-14.1766
 30
0.0
 11
261.242
 21
-14.3126
 31
0.0
  0
LINE
  5
6BD
  8
0
 62
1
 10
261.242
 20
-14.3126
 30
0.0
 11
261.387
 21
-14.4581
 31
0.0
  0
LINE
  5
6BE
  8
0
 62
1
 10
261.387
 20
-14.4581
 30
0.0
 11
261.523
 21
-14.6124
 31
0.0
  0
LINE
  5
6BF
  8
0
 62
1
 10
261.523
 20
-14.6124
 30
0.0
 11
261.65
 21
-14.775
 31
0.0
  0
LINE
  5
6C0
  8
0
 62
1
 10
261.65
 20
-14.775
 30
0.0
 11
261.765
 21
-14.9452
 31
0.0
  0
LINE
  5
6C1
  8
0
 62
1
 10
261.765
 20
-14.9452
 30
0.0
 11
261.87
 21
-15.1223
 31
0.0
  0
LINE
  5
6C2
  8
0
 62
1
 10
261.87
 20
-15.1223
 30
0.0
 11
261.963
 21
-15.3056
 31
0.0
  0
LINE
  5
6C3
  8
0
 62
1
 10
261.963
 20
-15.3056
 30
0.0
 11
262.045
 21
-15.4944
 31
0.0
  0
LINE
  5
6C4
  8
0
 62
1
 10
262.045
 20
-15.4944
 30
0.0
 11
262.115
 21
-15.688
 31
0.0
  0
LINE
  5
6C5
  8
0
 62
1
 10
262.115
 20
-15.688
 30
0.0
 11
262.172
 21
-15.8855
 31
0.0
  0
LINE
  5
6C6
  8
0
 62
1
 10
262.172
 20
-15.8855
 30
0.0
 11
262.217
 21
-16.0863
 31
0.0
  0
LINE
  5
6C7
  8
0
 62
1
 10
262.217
 20
-16.0863
 30
0.0
 11
262.249
 21
-16.2895
 31
0.0
  0
LINE
  5
6C8
  8
0
 62
1
 10
262.249
 20
-16.2895
 30
0.0
 11
262.269
 21
-16.4944
 31
0.0
  0
LINE
  5
6C9
  8
0
 62
1
 10
262.269
 20
-16.4944
 30
0.0
 11
262.275
 21
-16.7
 31
0.0
  0
LINE
  5
6CA
  8
0
 62
1
 10
262.275
 20
-16.7
 30
0.0
 11
262.269
 21
-16.9056
 31
0.0
  0
LINE
  5
6CB
  8
0
 62
1
 10
262.269
 20
-16.9056
 30
0.0
 11
262.249
 21
-17.1105
 31
0.0
  0
LINE
  5
6CC
  8
0
 62
1
 10
262.249
 20
-17.1105
 30
0.0
 11
262.217
 21
-17.3137
 31
0.0
  0
LINE
  5
6CD
  8
0
 62
1
 10
262.217
 20
-17.3137
 30
0.0
 11
262.172
 21
-17.5145
 31
0.0
  0
LINE
  5
6CE
  8
0
 62
1
 10
262.172
 20
-17.5145
 30
0.0
 11
262.115
 21
-17.712
 31
0.0
  0
LINE
  5
6CF
  8
0
 62
1
 10
262.115
 20
-17.712
 30
0.0
 11
262.045
 21
-17.9056
 31
0.0
  0
LINE
  5
6D0
  8
0
 62
1
 10
262.045
 20
-17.9056
 30
0.0
 11
261.963
 21
-18.0944
 31
0.0
  0
LINE
  5
6D1
  8
0
 62
1
 10
261.963
 20
-18.0944
 30
0.0
 11
261.87
 21
-18.2777
 31
0.0
  0
LINE
  5
6D2
  8
0
 62
1
 10
261.87
 20
-18.2777
 30
0.0
 11
261.765
 21
-18.4548
 31
0.0
  0
LINE
  5
6D3
  8
0
 62
1
 10
261.765
 20
-18.4548
 30
0.0
 11
261.65
 21
-18.625
 31
0.0
  0
LINE
  5
6D4
  8
0
 62
1
 10
261.65
 20
-18.625
 30
0.0
 11
261.523
 21
-18.7876
 31
0.0
  0
LINE
  5
6D5
  8
0
 62
1
 10
261.523
 20
-18.7876
 30
0.0
 11
261.387
 21
-18.9419
 31
0.0
  0
LINE
  5
6D6
  8
0
 62
1
 10
261.387
 20
-18.9419
 30
0.0
 11
261.242
 21
-19.0874
 31
0.0
  0
LINE
  5
6D7
  8
0
 62
1
 10
261.242
 20
-19.0874
 30
0.0
 11
261.088
 21
-19.2234
 31
0.0
  0
LINE
  5
6D8
  8
0
 62
1
 10
261.088
 20
-19.2234
 30
0.0
 11
260.925
 21
-19.3495
 31
0.0
  0
LINE
  5
6D9
  8
0
 62
1
 10
260.925
 20
-19.3495
 30
0.0
 11
260.755
 21
-19.4652
 31
0.0
  0
LINE
  5
6DA
  8
0
 62
1
 10
260.755
 20
-19.4652
 30
0.0
 11
260.578
 21
-19.5699
 31
0.0
  0
LINE
  5
6DB
  8
0
 62
1
 10
260.578
 20
-19.5699
 30
0.0
 11
260.394
 21
-19.6633
 31
0.0
  0
LINE
  5
6DC
  8
0
 62
1
 10
260.394
 20
-19.6633
 30
0.0
 11
260.206
 21
-19.745
 31
0.0
  0
LINE
  5
6DD
  8
0
 62
1
 10
260.206
 20
-19.745
 30
0.0
 11
260.012
 21
-19.8147
 31
0.0
  0
LINE
  5
6DE
  8
0
 62
1
 10
260.012
 20
-19.8147
 30
0.0
 11
259.814
 21
-19.8721
 31
0.0
  0
LINE
  5
6DF
  8
0
 62
1
 10
259.814
 20
-19.8721
 30
0.0
 11
259.614
 21
-19.917
 31
0.0
  0
LINE
  5
6E0
  8
0
 62
1
 10
259.614
 20
-19.917
 30
0.0
 11
259.41
 21
-19.9492
 31
0.0
  0
LINE
  5
6E1
  8
0
 62
1
 10
259.41
 20
-19.9492
 30
0.0
 11
259.206
 21
-19.9685
 31
0.0
  0
LINE
  5
6E2
  8
0
 62
1
 10
259.206
 20
-19.9685
 30
0.0
 11
259.0
 21
-19.975
 31
0.0
  0
LINE
  5
6E3
  8
0
 62
1
 10
259.0
 20
-19.975
 30
0.0
 11
258.794
 21
-19.9685
 31
0.0
  0
LINE
  5
6E4
  8
0
 62
1
 10
258.794
 20
-45.3685
 30
0.0
 11
258.59
 21
-45.3492
 31
0.0
  0
LINE
  5
6E5
  8
0
 62
1
 10
258.59
 20
-45.3492
 30
0.0
 11
258.386
 21
-45.317
 31
0.0
  0
LINE
  5
6E6
  8
0
 62
1
 10
258.386
 20
-45.317
 30
0.0
 11
258.186
 21
-45.2721
 31
0.0
  0
LINE
  5
6E7
  8
0
 62
1
 10
258.186
 20
-45.2721
 30
0.0
 11
257.988
 21
-45.2147
 31
0.0
  0
LINE
  5
6E8
  8
0
 62
1
 10
257.988
 20
-45.2147
 30
0.0
 11
257.794
 21
-45.145
 31
0.0
  0
LINE
  5
6E9
  8
0
 62
1
 10
257.794
 20
-45.145
 30
0.0
 11
257.606
 21
-45.0633
 31
0.0
  0
LINE
  5
6EA
  8
0
 62
1
 10
257.606
 20
-45.0633
 30
0.0
 11
257.422
 21
-44.9699
 31
0.0
  0
LINE
  5
6EB
  8
0
 62
1
 10
257.422
 20
-44.9699
 30
0.0
 11
257.245
 21
-44.8652
 31
0.0
  0
LINE
  5
6EC
  8
0
 62
1
 10
257.245
 20
-44.8652
 30
0.0
 11
257.075
 21
-44.7495
 31
0.0
  0
LINE
  5
6ED
  8
0
 62
1
 10
257.075
 20
-44.7495
 30
0.0
 11
256.912
 21
-44.6234
 31
0.0
  0
LINE
  5
6EE
  8
0
 62
1
 10
256.912
 20
-44.6234
 30
0.0
 11
256.758
 21
-44.4874
 31
0.0
  0
LINE
  5
6EF
  8
0
 62
1
 10
256.758
 20
-44.4874
 30
0.0
 11
256.613
 21
-44.3419
 31
0.0
  0
LINE
  5
6F0
  8
0
 62
1
 10
256.613
 20
-44.3419
 30
0.0
 11
256.477
 21
-44.1876
 31
0.0
  0
LINE
  5
6F1
  8
0
 62
1
 10
256.477
 20
-44.1876
 30
0.0
 11
256.35
 21
-44.025
 31
0.0
  0
LINE
  5
6F2
  8
0
 62
1
 10
256.35
 20
-44.025
 30
0.0
 11
256.235
 21
-43.8548
 31
0.0
  0
LINE
  5
6F3
  8
0
 62
1
 10
256.235
 20
-43.8548
 30
0.0
 11
256.13
 21
-43.6777
 31
0.0
  0
LINE
  5
6F4
  8
0
 62
1
 10
256.13
 20
-43.6777
 30
0.0
 11
256.037
 21
-43.4944
 31
0.0
  0
LINE
  5
6F5
  8
0
 62
1
 10
256.037
 20
-43.4944
 30
0.0
 11
255.955
 21
-43.3056
 31
0.0
  0
LINE
  5
6F6
  8
0
 62
1
 10
255.955
 20
-43.3056
 30
0.0
 11
255.885
 21
-43.112
 31
0.0
  0
LINE
  5
6F7
  8
0
 62
1
 10
255.885
 20
-43.112
 30
0.0
 11
255.828
 21
-42.9145
 31
0.0
  0
LINE
  5
6F8
  8
0
 62
1
 10
255.828
 20
-42.9145
 30
0.0
 11
255.783
 21
-42.7137
 31
0.0
  0
LINE
  5
6F9
  8
0
 62
1
 10
255.783
 20
-42.7137
 30
0.0
 11
255.751
 21
-42.5105
 31
0.0
  0
LINE
  5
6FA
  8
0
 62
1
 10
255.751
 20
-42.5105
 30
0.0
 11
255.731
 21
-42.3056
 31
0.0
  0
LINE
  5
6FB
  8
0
 62
1
 10
255.731
 20
-42.3056
 30
0.0
 11
255.725
 21
-42.1
 31
0.0
  0
LINE
  5
6FC
  8
0
 62
1
 10
255.725
 20
-42.1
 30
0.0
 11
255.731
 21
-41.8943
 31
0.0
  0
LINE
  5
6FD
  8
0
 62
1
 10
255.731
 20
-41.8943
 30
0.0
 11
255.751
 21
-41.6895
 31
0.0
  0
LINE
  5
6FE
  8
0
 62
1
 10
255.751
 20
-41.6895
 30
0.0
 11
255.783
 21
-41.4863
 31
0.0
  0
LINE
  5
6FF
  8
0
 62
1
 10
255.783
 20
-41.4863
 30
0.0
 11
255.828
 21
-41.2855
 31
0.0
  0
LINE
  5
700
  8
0
 62
1
 10
255.828
 20
-41.2855
 30
0.0
 11
255.885
 21
-41.088
 31
0.0
  0
LINE
  5
701
  8
0
 62
1
 10
255.885
 20
-41.088
 30
0.0
 11
255.955
 21
-40.8944
 31
0.0
  0
LINE
  5
702
  8
0
 62
1
 10
255.955
 20
-40.8944
 30
0.0
 11
256.037
 21
-40.7056
 31
0.0
  0
LINE
  5
703
  8
0
 62
1
 10
256.037
 20
-40.7056
 30
0.0
 11
256.13
 21
-40.5222
 31
0.0
  0
LINE
  5
704
  8
0
 62
1
 10
256.13
 20
-40.5222
 30
0.0
 11
256.235
 21
-40.3452
 31
0.0
  0
LINE
  5
705
  8
0
 62
1
 10
256.235
 20
-40.3452
 30
0.0
 11
256.35
 21
-40.175
 31
0.0
  0
LINE
  5
706
  8
0
 62
1
 10
256.35
 20
-40.175
 30
0.0
 11
256.477
 21
-40.0124
 31
0.0
  0
LINE
  5
707
  8
0
 62
1
 10
256.477
 20
-40.0124
 30
0.0
 11
256.613
 21
-39.8581
 31
0.0
  0
LINE
  5
708
  8
0
 62
1
 10
256.613
 20
-39.8581
 30
0.0
 11
256.758
 21
-39.7126
 31
0.0
  0
LINE
  5
709
  8
0
 62
1
 10
256.758
 20
-39.7126
 30
0.0
 11
256.912
 21
-39.5766
 31
0.0
  0
LINE
  5
70A
  8
0
 62
1
 10
256.912
 20
-39.5766
 30
0.0
 11
257.075
 21
-39.4505
 31
0.0
  0
LINE
  5
70B
  8
0
 62
1
 10
257.075
 20
-39.4505
 30
0.0
 11
257.245
 21
-39.3348
 31
0.0
  0
LINE
  5
70C
  8
0
 62
1
 10
257.245
 20
-39.3348
 30
0.0
 11
257.422
 21
-39.2301
 31
0.0
  0
LINE
  5
70D
  8
0
 62
1
 10
257.422
 20
-39.2301
 30
0.0
 11
257.606
 21
-39.1367
 31
0.0
  0
LINE
  5
70E
  8
0
 62
1
 10
257.606
 20
-39.1367
 30
0.0
 11
257.794
 21
-39.055
 31
0.0
  0
LINE
  5
70F
  8
0
 62
1
 10
257.794
 20
-39.055
 30
0.0
 11
257.988
 21
-38.9853
 31
0.0
  0
LINE
  5
710
  8
0
 62
1
 10
257.988
 20
-38.9853
 30
0.0
 11
258.186
 21
-38.9279
 31
0.0
  0
LINE
  5
711
  8
0
 62
1
 10
258.186
 20
-38.9279
 30
0.0
 11
258.386
 21
-38.883
 31
0.0
  0
LINE
  5
712
  8
0
 62
1
 10
258.386
 20
-38.883
 30
0.0
 11
258.59
 21
-38.8508
 31
0.0
  0
LINE
  5
713
  8
0
 62
1
 10
258.59
 20
-38.8508
 30
0.0
 11
258.794
 21
-38.8315
 31
0.0
  0
LINE
  5
714
  8
0
 62
1
 10
258.794
 20
-38.8315
 30
0.0
 11
259.0
 21
-38.825
 31
0.0
  0
LINE
  5
715
  8
0
 62
1
 10
259.0
 20
-38.825
 30
0.0
 11
259.206
 21
-38.8315
 31
0.0
  0
LINE
  5
716
  8
0
 62
1
 10
259.206
 20
-38.8315
 30
0.0
 11
259.41
 21
-38.8508
 31
0.0
  0
LINE
  5
717
  8
0
 62
1
 10
259.41
 20
-38.8508
 30
0.0
 11
259.614
 21
-38.883
 31
0.0
  0
LINE
  5
718
  8
0
 62
1
 10
259.614
 20
-38.883
 30
0.0
 11
259.814
 21
-38.9279
 31
0.0
  0
LINE
  5
719
  8
0
 62
1
 10
259.814
 20
-38.9279
 30
0.0
 11
260.012
 21
-38.9853
 31
0.0
  0
LINE
  5
71A
  8
0
 62
1
 10
260.012
 20
-38.9853
 30
0.0
 11
260.206
 21
-39.055
 31
0.0
  0
LINE
  5
71B
  8
0
 62
1
 10
260.206
 20
-39.055
 30
0.0
 11
260.394
 21
-39.1367
 31
0.0
  0
LINE
  5
71C
  8
0
 62
1
 10
260.394
 20
-39.1367
 30
0.0
 11
260.578
 21
-39.2301
 31
0.0
  0
LINE
  5
71D
  8
0
 62
1
 10
260.578
 20
-39.2301
 30
0.0
 11
260.755
 21
-39.3348
 31
0.0
  0
LINE
  5
71E
  8
0
 62
1
 10
260.755
 20
-39.3348
 30
0.0
 11
260.925
 21
-39.4505
 31
0.0
  0
LINE
  5
71F
  8
0
 62
1
 10
260.925
 20
-39.4505
 30
0.0
 11
261.088
 21
-39.5766
 31
0.0
  0
LINE
  5
720
  8
0
 62
1
 10
261.088
 20
-39.5766
 30
0.0
 11
261.242
 21
-39.7126
 31
0.0
  0
LINE
  5
721
  8
0
 62
1
 10
261.242
 20
-39.7126
 30
0.0
 11
261.387
 21
-39.8581
 31
0.0
  0
LINE
  5
722
  8
0
 62
1
 10
261.387
 20
-39.8581
 30
0.0
 11
261.523
 21
-40.0124
 31
0.0
  0
LINE
  5
723
  8
0
 62
1
 10
261.523
 20
-40.0124
 30
0.0
 11
261.65
 21
-40.175
 31
0.0
  0
LINE
  5
724
  8
0
 62
1
 10
261.65
 20
-40.175
 30
0.0
 11
261.765
 21
-40.3452
 31
0.0
  0
LINE
  5
725
  8
0
 62
1
 10
261.765
 20
-40.3452
 30
0.0
 11
261.87
 21
-40.5222
 31
0.0
  0
LINE
  5
726
  8
0
 62
1
 10
261.87
 20
-40.5222
 30
0.0
 11
261.963
 21
-40.7056
 31
0.0
  0
LINE
  5
727
  8
0
 62
1
 10
261.963
 20
-40.7056
 30
0.0
 11
262.045
 21
-40.8944
 31
0.0
  0
LINE
  5
728
  8
0
 62
1
 10
262.045
 20
-40.8944
 30
0.0
 11
262.115
 21
-41.088
 31
0.0
  0
LINE
  5
729
  8
0
 62
1
 10
262.115
 20
-41.088
 30
0.0
 11
262.172
 21
-41.2855
 31
0.0
  0
LINE
  5
72A
  8
0
 62
1
 10
262.172
 20
-41.2855
 30
0.0
 11
262.217
 21
-41.4863
 31
0.0
  0
LINE
  5
72B
  8
0
 62
1
 10
262.217
 20
-41.4863
 30
0.0
 11
262.249
 21
-41.6895
 31
0.0
  0
LINE
  5
72C
  8
0
 62
1
 10
262.249
 20
-41.6895
 30
0.0
 11
262.269
 21
-41.8943
 31
0.0
  0
LINE
  5
72D
  8
0
 62
1
 10
262.269
 20
-41.8943
 30
0.0
 11
262.275
 21
-42.1
 31
0.0
  0
LINE
  5
72E
  8
0
 62
1
 10
262.275
 20
-42.1
 30
0.0
 11
262.269
 21
-42.3056
 31
0.0
  0
LINE
  5
72F
  8
0
 62
1
 10
262.269
 20
-42.3056
 30
0.0
 11
262.249
 21
-42.5105
 31
0.0
  0
LINE
  5
730
  8
0
 62
1
 10
262.249
 20
-42.5105
 30
0.0
 11
262.217
 21
-42.7137
 31
0.0
  0
LINE
  5
731
  8
0
 62
1
 10
262.217
 20
-42.7137
 30
0.0
 11
262.172
 21
-42.9145
 31
0.0
  0
LINE
  5
732
  8
0
 62
1
 10
262.172
 20
-42.9145
 30
0.0
 11
262.115
 21
-43.112
 31
0.0
  0
LINE
  5
733
  8
0
 62
1
 10
262.115
 20
-43.112
 30
0.0
 11
262.045
 21
-43.3056
 31
0.0
  0
LINE
  5
734
  8
0
 62
1
 10
262.045
 20
-43.3056
 30
0.0
 11
261.963
 21
-43.4944
 31
0.0
  0
LINE
  5
735
  8
0
 62
1
 10
261.963
 20
-43.4944
 30
0.0
 11
261.87
 21
-43.6777
 31
0.0
  0
LINE
  5
736
  8
0
 62
1
 10
261.87
 20
-43.6777
 30
0.0
 11
261.765
 21
-43.8548
 31
0.0
  0
LINE
  5
737
  8
0
 62
1
 10
261.765
 20
-43.8548
 30
0.0
 11
261.65
 21
-44.025
 31
0.0
  0
LINE
  5
738
  8
0
 62
1
 10
261.65
 20
-44.025
 30
0.0
 11
261.523
 21
-44.1876
 31
0.0
  0
LINE
  5
739
  8
0
 62
1
 10
261.523
 20
-44.1876
 30
0.0
 11
261.387
 21
-44.3419
 31
0.0
  0
LINE
  5
73A
  8
0
 62
1
 10
261.387
 20
-44.3419
 30
0.0
 11
261.242
 21
-44.4874
 31
0.0
  0
LINE
  5
73B
  8
0
 62
1
 10
261.242
 20
-44.4874
 30
0.0
 11
261.088
 21
-44.6234
 31
0.0
  0
LINE
  5
73C
  8
0
 62
1
 10
261.088
 20
-44.6234
 30
0.0
 11
260.925
 21
-44.7495
 31
0.0
  0
LINE
  5
73D
  8
0
 62
1
 10
260.925
 20
-44.7495
 30
0.0
 11
260.755
 21
-44.8652
 31
0.0
  0
LINE
  5
73E
  8
0
 62
1
 10
260.755
 20
-44.8652
 30
0.0
 11
260.578
 21
-44.9699
 31
0.0
  0
LINE
  5
73F
  8
0
 62
1
 10
260.578
 20
-44.9699
 30
0.0
 11
260.394
 21
-45.0633
 31
0.0
  0
LINE
  5
740
  8
0
 62
1
 10
260.394
 20
-45.0633
 30
0.0
 11
260.206
 21
-45.145
 31
0.0
  0
LINE
  5
741
  8
0
 62
1
 10
260.206
 20
-45.145
 30
0.0
 11
260.012
 21
-45.2147
 31
0.0
  0
LINE
  5
742
  8
0
 62
1
 10
260.012
 20
-45.2147
 30
0.0
 11
259.814
 21
-45.2721
 31
0.0
  0
LINE
  5
743
  8
0
 62
1
 10
259.814
 20
-45.2721
 30
0.0
 11
259.614
 21
-45.317
 31
0.0
  0
LINE
  5
744
  8
0
 62
1
 10
259.614
 20
-45.317
 30
0.0
 11
259.41
 21
-45.3492
 31
0.0
  0
LINE
  5
745
  8
0
 62
1
 10
259.41
 20
-45.3492
 30
0.0
 11
259.206
 21
-45.3685
 31
0.0
  0
LINE
  5
746
  8
0
 62
1
 10
259.206
 20
-45.3685
 30
0.0
 11
259.0
 21
-45.375
 31
0.0
  0
LINE
  5
747
  8
0
 62
1
 10
259.0
 20
-45.375
 30
0.0
 11
258.794
 21
-45.3685
 31
0.0
  0
LINE
  5
748
  8
0
 62
1
 10
106.394
 20
-45.3685
 30
0.0
 11
106.19
 21
-45.3492
 31
0.0
  0
LINE
  5
749
  8
0
 62
1
 10
106.19
 20
-45.3492
 30
0.0
 11
105.986
 21
-45.317
 31
0.0
  0
LINE
  5
74A
  8
0
 62
1
 10
105.986
 20
-45.317
 30
0.0
 11
105.786
 21
-45.2721
 31
0.0
  0
LINE
  5
74B
  8
0
 62
1
 10
105.786
 20
-45.2721
 30
0.0
 11
105.588
 21
-45.2147
 31
0.0
  0
LINE
  5
74C
  8
0
 62
1
 10
105.588
 20
-45.2147
 30
0.0
 11
105.394
 21
-45.145
 31
0.0
  0
LINE
  5
74D
  8
0
 62
1
 10
105.394
 20
-45.145
 30
0.0
 11
105.206
 21
-45.0633
 31
0.0
  0
LINE
  5
74E
  8
0
 62
1
 10
105.206
 20
-45.0633
 30
0.0
 11
105.022
 21
-44.9699
 31
0.0
  0
LINE
  5
74F
  8
0
 62
1
 10
105.022
 20
-44.9699
 30
0.0
 11
104.845
 21
-44.8652
 31
0.0
  0
LINE
  5
750
  8
0
 62
1
 10
104.845
 20
-44.8652
 30
0.0
 11
104.675
 21
-44.7495
 31
0.0
  0
LINE
  5
751
  8
0
 62
1
 10
104.675
 20
-44.7495
 30
0.0
 11
104.512
 21
-44.6234
 31
0.0
  0
LINE
  5
752
  8
0
 62
1
 10
104.512
 20
-44.6234
 30
0.0
 11
104.358
 21
-44.4874
 31
0.0
  0
LINE
  5
753
  8
0
 62
1
 10
104.358
 20
-44.4874
 30
0.0
 11
104.213
 21
-44.3419
 31
0.0
  0
LINE
  5
754
  8
0
 62
1
 10
104.213
 20
-44.3419
 30
0.0
 11
104.077
 21
-44.1876
 31
0.0
  0
LINE
  5
755
  8
0
 62
1
 10
104.077
 20
-44.1876
 30
0.0
 11
103.95
 21
-44.025
 31
0.0
  0
LINE
  5
756
  8
0
 62
1
 10
103.95
 20
-44.025
 30
0.0
 11
103.835
 21
-43.8548
 31
0.0
  0
LINE
  5
757
  8
0
 62
1
 10
103.835
 20
-43.8548
 30
0.0
 11
103.73
 21
-43.6777
 31
0.0
  0
LINE
  5
758
  8
0
 62
1
 10
103.73
 20
-43.6777
 30
0.0
 11
103.637
 21
-43.4944
 31
0.0
  0
LINE
  5
759
  8
0
 62
1
 10
103.637
 20
-43.4944
 30
0.0
 11
103.555
 21
-43.3056
 31
0.0
  0
LINE
  5
75A
  8
0
 62
1
 10
103.555
 20
-43.3056
 30
0.0
 11
103.485
 21
-43.112
 31
0.0
  0
LINE
  5
75B
  8
0
 62
1
 10
103.485
 20
-43.112
 30
0.0
 11
103.428
 21
-42.9145
 31
0.0
  0
LINE
  5
75C
  8
0
 62
1
 10
103.428
 20
-42.9145
 30
0.0
 11
103.383
 21
-42.7137
 31
0.0
  0
LINE
  5
75D
  8
0
 62
1
 10
103.383
 20
-42.7137
 30
0.0
 11
103.351
 21
-42.5105
 31
0.0
  0
LINE
  5
75E
  8
0
 62
1
 10
103.351
 20
-42.5105
 30
0.0
 11
103.331
 21
-42.3056
 31
0.0
  0
LINE
  5
75F
  8
0
 62
1
 10
103.331
 20
-42.3056
 30
0.0
 11
103.325
 21
-42.1
 31
0.0
  0
LINE
  5
760
  8
0
 62
1
 10
103.325
 20
-42.1
 30
0.0
 11
103.331
 21
-41.8943
 31
0.0
  0
LINE
  5
761
  8
0
 62
1
 10
103.331
 20
-41.8943
 30
0.0
 11
103.351
 21
-41.6895
 31
0.0
  0
LINE
  5
762
  8
0
 62
1
 10
103.351
 20
-41.6895
 30
0.0
 11
103.383
 21
-41.4863
 31
0.0
  0
LINE
  5
763
  8
0
 62
1
 10
103.383
 20
-41.4863
 30
0.0
 11
103.428
 21
-41.2855
 31
0.0
  0
LINE
  5
764
  8
0
 62
1
 10
103.428
 20
-41.2855
 30
0.0
 11
103.485
 21
-41.088
 31
0.0
  0
LINE
  5
765
  8
0
 62
1
 10
103.485
 20
-41.088
 30
0.0
 11
103.555
 21
-40.8944
 31
0.0
  0
LINE
  5
766
  8
0
 62
1
 10
103.555
 20
-40.8944
 30
0.0
 11
103.637
 21
-40.7056
 31
0.0
  0
LINE
  5
767
  8
0
 62
1
 10
103.637
 20
-40.7056
 30
0.0
 11
103.73
 21
-40.5222
 31
0.0
  0
LINE
  5
768
  8
0
 62
1
 10
103.73
 20
-40.5222
 30
0.0
 11
103.835
 21
-40.3452
 31
0.0
  0
LINE
  5
769
  8
0
 62
1
 10
103.835
 20
-40.3452
 30
0.0
 11
103.95
 21
-40.175
 31
0.0
  0
LINE
  5
76A
  8
0
 62
1
 10
103.95
 20
-40.175
 30
0.0
 11
104.077
 21
-40.0124
 31
0.0
  0
LINE
  5
76B
  8
0
 62
1
 10
104.077
 20
-40.0124
 30
0.0
 11
104.213
 21
-39.8581
 31
0.0
  0
LINE
  5
76C
  8
0
 62
1
 10
104.213
 20
-39.8581
 30
0.0
 11
104.358
 21
-39.7126
 31
0.0
  0
LINE
  5
76D
  8
0
 62
1
 10
104.358
 20
-39.7126
 30
0.0
 11
104.512
 21
-39.5766
 31
0.0
  0
LINE
  5
76E
  8
0
 62
1
 10
104.512
 20
-39.5766
 30
0.0
 11
104.675
 21
-39.4505
 31
0.0
  0
LINE
  5
76F
  8
0
 62
1
 10
104.675
 20
-39.4505
 30
0.0
 11
104.845
 21
-39.3348
 31
0.0
  0
LINE
  5
770
  8
0
 62
1
 10
104.845
 20
-39.3348
 30
0.0
 11
105.022
 21
-39.2301
 31
0.0
  0
LINE
  5
771
  8
0
 62
1
 10
105.022
 20
-39.2301
 30
0.0
 11
105.206
 21
-39.1367
 31
0.0
  0
LINE
  5
772
  8
0
 62
1
 10
105.206
 20
-39.1367
 30
0.0
 11
105.394
 21
-39.055
 31
0.0
  0
LINE
  5
773
  8
0
 62
1
 10
105.394
 20
-39.055
 30
0.0
 11
105.588
 21
-38.9853
 31
0.0
  0
LINE
  5
774
  8
0
 62
1
 10
105.588
 20
-38.9853
 30
0.0
 11
105.786
 21
-38.9279
 31
0.0
  0
LINE
  5
775
  8
0
 62
1
 10
105.786
 20
-38.9279
 30
0.0
 11
105.986
 21
-38.883
 31
0.0
  0
LINE
  5
776
  8
0
 62
1
 10
105.986
 20
-38.883
 30
0.0
 11
106.19
 21
-38.8508
 31
0.0
  0
LINE
  5
777
  8
0
 62
1
 10
106.19
 20
-38.8508
 30
0.0
 11
106.394
 21
-38.8315
 31
0.0
  0
LINE
  5
778
  8
0
 62
1
 10
106.394
 20
-38.8315
 30
0.0
 11
106.6
 21
-38.825
 31
0.0
  0
LINE
  5
779
  8
0
 62
1
 10
106.6
 20
-38.825
 30
0.0
 11
106.806
 21
-38.8315
 31
0.0
  0
LINE
  5
77A
  8
0
 62
1
 10
106.806
 20
-38.8315
 30
0.0
 11
107.01
 21
-38.8508
 31
0.0
  0
LINE
  5
77B
  8
0
 62
1
 10
107.01
 20
-38.8508
 30
0.0
 11
107.214
 21
-38.883
 31
0.0
  0
LINE
  5
77C
  8
0
 62
1
 10
107.214
 20
-38.883
 30
0.0
 11
107.414
 21
-38.9279
 31
0.0
  0
LINE
  5
77D
  8
0
 62
1
 10
107.414
 20
-38.9279
 30
0.0
 11
107.612
 21
-38.9853
 31
0.0
  0
LINE
  5
77E
  8
0
 62
1
 10
107.612
 20
-38.9853
 30
0.0
 11
107.806
 21
-39.055
 31
0.0
  0
LINE
  5
77F
  8
0
 62
1
 10
107.806
 20
-39.055
 30
0.0
 11
107.994
 21
-39.1367
 31
0.0
  0
LINE
  5
780
  8
0
 62
1
 10
107.994
 20
-39.1367
 30
0.0
 11
108.178
 21
-39.2301
 31
0.0
  0
LINE
  5
781
  8
0
 62
1
 10
108.178
 20
-39.2301
 30
0.0
 11
108.355
 21
-39.3348
 31
0.0
  0
LINE
  5
782
  8
0
 62
1
 10
108.355
 20
-39.3348
 30
0.0
 11
108.525
 21
-39.4505
 31
0.0
  0
LINE
  5
783
  8
0
 62
1
 10
108.525
 20
-39.4505
 30
0.0
 11
108.688
 21
-39.5766
 31
0.0
  0
LINE
  5
784
  8
0
 62
1
 10
108.688
 20
-39.5766
 30
0.0
 11
108.842
 21
-39.7126
 31
0.0
  0
LINE
  5
785
  8
0
 62
1
 10
108.842
 20
-39.7126
 30
0.0
 11
108.987
 21
-39.8581
 31
0.0
  0
LINE
  5
786
  8
0
 62
1
 10
108.987
 20
-39.8581
 30
0.0
 11
109.123
 21
-40.0124
 31
0.0
  0
LINE
  5
787
  8
0
 62
1
 10
109.123
 20
-40.0124
 30
0.0
 11
109.25
 21
-40.175
 31
0.0
  0
LINE
  5
788
  8
0
 62
1
 10
109.25
 20
-40.175
 30
0.0
 11
109.365
 21
-40.3452
 31
0.0
  0
LINE
  5
789
  8
0
 62
1
 10
109.365
 20
-40.3452
 30
0.0
 11
109.47
 21
-40.5222
 31
0.0
  0
LINE
  5
78A
  8
0
 62
1
 10
109.47
 20
-40.5222
 30
0.0
 11
109.563
 21
-40.7056
 31
0.0
  0
LINE
  5
78B
  8
0
 62
1
 10
109.563
 20
-40.7056
 30
0.0
 11
109.645
 21
-40.8944
 31
0.0
  0
LINE
  5
78C
  8
0
 62
1
 10
109.645
 20
-40.8944
 30
0.0
 11
109.715
 21
-41.088
 31
0.0
  0
LINE
  5
78D
  8
0
 62
1
 10
109.715
 20
-41.088
 30
0.0
 11
109.772
 21
-41.2855
 31
0.0
  0
LINE
  5
78E
  8
0
 62
1
 10
109.772
 20
-41.2855
 30
0.0
 11
109.817
 21
-41.4863
 31
0.0
  0
LINE
  5
78F
  8
0
 62
1
 10
109.817
 20
-41.4863
 30
0.0
 11
109.849
 21
-41.6895
 31
0.0
  0
LINE
  5
790
  8
0
 62
1
 10
109.849
 20
-41.6895
 30
0.0
 11
109.869
 21
-41.8943
 31
0.0
  0
LINE
  5
791
  8
0
 62
1
 10
109.869
 20
-41.8943
 30
0.0
 11
109.875
 21
-42.1
 31
0.0
  0
LINE
  5
792
  8
0
 62
1
 10
109.875
 20
-42.1
 30
0.0
 11
109.869
 21
-42.3056
 31
0.0
  0
LINE
  5
793
  8
0
 62
1
 10
109.869
 20
-42.3056
 30
0.0
 11
109.849
 21
-42.5105
 31
0.0
  0
LINE
  5
794
  8
0
 62
1
 10
109.849
 20
-42.5105
 30
0.0
 11
109.817
 21
-42.7137
 31
0.0
  0
LINE
  5
795
  8
0
 62
1
 10
109.817
 20
-42.7137
 30
0.0
 11
109.772
 21
-42.9145
 31
0.0
  0
LINE
  5
796
  8
0
 62
1
 10
109.772
 20
-42.9145
 30
0.0
 11
109.715
 21
-43.112
 31
0.0
  0
LINE
  5
797
  8
0
 62
1
 10
109.715
 20
-43.112
 30
0.0
 11
109.645
 21
-43.3056
 31
0.0
  0
LINE
  5
798
  8
0
 62
1
 10
109.645
 20
-43.3056
 30
0.0
 11
109.563
 21
-43.4944
 31
0.0
  0
LINE
  5
799
  8
0
 62
1
 10
109.563
 20
-43.4944
 30
0.0
 11
109.47
 21
-43.6777
 31
0.0
  0
LINE
  5
79A
  8
0
 62
1
 10
109.47
 20
-43.6777
 30
0.0
 11
109.365
 21
-43.8548
 31
0.0
  0
LINE
  5
79B
  8
0
 62
1
 10
109.365
 20
-43.8548
 30
0.0
 11
109.25
 21
-44.025
 31
0.0
  0
LINE
  5
79C
  8
0
 62
1
 10
109.25
 20
-44.025
 30
0.0
 11
109.123
 21
-44.1876
 31
0.0
  0
LINE
  5
79D
  8
0
 62
1
 10
109.123
 20
-44.1876
 30
0.0
 11
108.987
 21
-44.3419
 31
0.0
  0
LINE
  5
79E
  8
0
 62
1
 10
108.987
 20
-44.3419
 30
0.0
 11
108.842
 21
-44.4874
 31
0.0
  0
LINE
  5
79F
  8
0
 62
1
 10
108.842
 20
-44.4874
 30
0.0
 11
108.688
 21
-44.6234
 31
0.0
  0
LINE
  5
7A0
  8
0
 62
1
 10
108.688
 20
-44.6234
 30
0.0
 11
108.525
 21
-44.7495
 31
0.0
  0
LINE
  5
7A1
  8
0
 62
1
 10
108.525
 20
-44.7495
 30
0.0
 11
108.355
 21
-44.8652
 31
0.0
  0
LINE
  5
7A2
  8
0
 62
1
 10
108.355
 20
-44.8652
 30
0.0
 11
108.178
 21
-44.9699
 31
0.0
  0
LINE
  5
7A3
  8
0
 62
1
 10
108.178
 20
-44.9699
 30
0.0
 11
107.994
 21
-45.0633
 31
0.0
  0
LINE
  5
7A4
  8
0
 62
1
 10
107.994
 20
-45.0633
 30
0.0
 11
107.806
 21
-45.145
 31
0.0
  0
LINE
  5
7A5
  8
0
 62
1
 10
107.806
 20
-45.145
 30
0.0
 11
107.612
 21
-45.2147
 31
0.0
  0
LINE
  5
7A6
  8
0
 62
1
 10
107.612
 20
-45.2147
 30
0.0
 11
107.414
 21
-45.2721
 31
0.0
  0
LINE
  5
7A7
  8
0
 62
1
 10
107.414
 20
-45.2721
 30
0.0
 11
107.214
 21
-45.317
 31
0.0
  0
LINE
  5
7A8
  8
0
 62
1
 10
107.214
 20
-45.317
 30
0.0
 11
107.01
 21
-45.3492
 31
0.0
  0
LINE
  5
7A9
  8
0
 62
1
 10
107.01
 20
-45.3492
 30
0.0
 11
106.806
 21
-45.3685
 31
0.0
  0
LINE
  5
7AA
  8
0
 62
1
 10
106.806
 20
-45.3685
 30
0.0
 11
106.6
 21
-45.375
 31
0.0
  0
LINE
  5
7AB
  8
0
 62
1
 10
106.6
 20
-45.375
 30
0.0
 11
106.394
 21
-45.3685
 31
0.0
  0
LINE
  5
7AC
  8
0
 62
1
 10
223.901
 20
-43.6203
 30
0.0
 11
223.752
 21
-43.6063
 31
0.0
  0
LINE
  5
7AD
  8
0
 62
1
 10
223.752
 20
-43.6063
 30
0.0
 11
223.605
 21
-43.5829
 31
0.0
  0
LINE
  5
7AE
  8
0
 62
1
 10
223.605
 20
-43.5829
 30
0.0
 11
223.459
 21
-43.5504
 31
0.0
  0
LINE
  5
7AF
  8
0
 62
1
 10
223.459
 20
-43.5504
 30
0.0
 11
223.316
 21
-43.5088
 31
0.0
  0
LINE
  5
7B0
  8
0
 62
1
 10
223.316
 20
-43.5088
 30
0.0
 11
223.176
 21
-43.4582
 31
0.0
  0
LINE
  5
7B1
  8
0
 62
1
 10
223.176
 20
-43.4582
 30
0.0
 11
223.039
 21
-43.399
 31
0.0
  0
LINE
  5
7B2
  8
0
 62
1
 10
223.039
 20
-43.399
 30
0.0
 11
222.906
 21
-43.3312
 31
0.0
  0
LINE
  5
7B3
  8
0
 62
1
 10
222.906
 20
-43.3312
 30
0.0
 11
222.777
 21
-43.2553
 31
0.0
  0
LINE
  5
7B4
  8
0
 62
1
 10
222.777
 20
-43.2553
 30
0.0
 11
222.654
 21
-43.1714
 31
0.0
  0
LINE
  5
7B5
  8
0
 62
1
 10
222.654
 20
-43.1714
 30
0.0
 11
222.536
 21
-43.08
 31
0.0
  0
LINE
  5
7B6
  8
0
 62
1
 10
222.536
 20
-43.08
 30
0.0
 11
222.424
 21
-42.9813
 31
0.0
  0
LINE
  5
7B7
  8
0
 62
1
 10
222.424
 20
-42.9813
 30
0.0
 11
222.319
 21
-42.8758
 31
0.0
  0
LINE
  5
7B8
  8
0
 62
1
 10
222.319
 20
-42.8758
 30
0.0
 11
222.22
 21
-42.7639
 31
0.0
  0
LINE
  5
7B9
  8
0
 62
1
 10
222.22
 20
-42.7639
 30
0.0
 11
222.129
 21
-42.646
 31
0.0
  0
LINE
  5
7BA
  8
0
 62
1
 10
222.129
 20
-42.646
 30
0.0
 11
222.045
 21
-42.5226
 31
0.0
  0
LINE
  5
7BB
  8
0
 62
1
 10
222.045
 20
-42.5226
 30
0.0
 11
221.969
 21
-42.3941
 31
0.0
  0
LINE
  5
7BC
  8
0
 62
1
 10
221.969
 20
-42.3941
 30
0.0
 11
221.901
 21
-42.2612
 31
0.0
  0
LINE
  5
7BD
  8
0
 62
1
 10
221.901
 20
-42.2612
 30
0.0
 11
221.842
 21
-42.1243
 31
0.0
  0
LINE
  5
7BE
  8
0
 62
1
 10
221.842
 20
-42.1243
 30
0.0
 11
221.791
 21
-41.9839
 31
0.0
  0
LINE
  5
7BF
  8
0
 62
1
 10
221.791
 20
-41.9839
 30
0.0
 11
221.75
 21
-41.8406
 31
0.0
  0
LINE
  5
7C0
  8
0
 62
1
 10
221.75
 20
-41.8406
 30
0.0
 11
221.717
 21
-41.695
 31
0.0
  0
LINE
  5
7C1
  8
0
 62
1
 10
221.717
 20
-41.695
 30
0.0
 11
221.694
 21
-41.5477
 31
0.0
  0
LINE
  5
7C2
  8
0
 62
1
 10
221.694
 20
-41.5477
 30
0.0
 11
221.68
 21
-41.3991
 31
0.0
  0
LINE
  5
7C3
  8
0
 62
1
 10
221.68
 20
-41.3991
 30
0.0
 11
221.675
 21
-41.25
 31
0.0
  0
LINE
  5
7C4
  8
0
 62
1
 10
221.675
 20
-41.25
 30
0.0
 11
221.68
 21
-41.1009
 31
0.0
  0
LINE
  5
7C5
  8
0
 62
1
 10
221.68
 20
-41.1009
 30
0.0
 11
221.694
 21
-40.9523
 31
0.0
  0
LINE
  5
7C6
  8
0
 62
1
 10
221.694
 20
-40.9523
 30
0.0
 11
221.717
 21
-40.805
 31
0.0
  0
LINE
  5
7C7
  8
0
 62
1
 10
221.717
 20
-40.805
 30
0.0
 11
221.75
 21
-40.6593
 31
0.0
  0
LINE
  5
7C8
  8
0
 62
1
 10
221.75
 20
-40.6593
 30
0.0
 11
221.791
 21
-40.5161
 31
0.0
  0
LINE
  5
7C9
  8
0
 62
1
 10
221.791
 20
-40.5161
 30
0.0
 11
221.842
 21
-40.3757
 31
0.0
  0
LINE
  5
7CA
  8
0
 62
1
 10
221.842
 20
-40.3757
 30
0.0
 11
221.901
 21
-40.2388
 31
0.0
  0
LINE
  5
7CB
  8
0
 62
1
 10
221.901
 20
-40.2388
 30
0.0
 11
221.969
 21
-40.1058
 31
0.0
  0
LINE
  5
7CC
  8
0
 62
1
 10
221.969
 20
-40.1058
 30
0.0
 11
222.045
 21
-39.9774
 31
0.0
  0
LINE
  5
7CD
  8
0
 62
1
 10
222.045
 20
-39.9774
 30
0.0
 11
222.129
 21
-39.854
 31
0.0
  0
LINE
  5
7CE
  8
0
 62
1
 10
222.129
 20
-39.854
 30
0.0
 11
222.22
 21
-39.7361
 31
0.0
  0
LINE
  5
7CF
  8
0
 62
1
 10
222.22
 20
-39.7361
 30
0.0
 11
222.319
 21
-39.6242
 31
0.0
  0
LINE
  5
7D0
  8
0
 62
1
 10
222.319
 20
-39.6242
 30
0.0
 11
222.424
 21
-39.5187
 31
0.0
  0
LINE
  5
7D1
  8
0
 62
1
 10
222.424
 20
-39.5187
 30
0.0
 11
222.536
 21
-39.42
 31
0.0
  0
LINE
  5
7D2
  8
0
 62
1
 10
222.536
 20
-39.42
 30
0.0
 11
222.654
 21
-39.3286
 31
0.0
  0
LINE
  5
7D3
  8
0
 62
1
 10
222.654
 20
-39.3286
 30
0.0
 11
222.777
 21
-39.2447
 31
0.0
  0
LINE
  5
7D4
  8
0
 62
1
 10
222.777
 20
-39.2447
 30
0.0
 11
222.906
 21
-39.1688
 31
0.0
  0
LINE
  5
7D5
  8
0
 62
1
 10
222.906
 20
-39.1688
 30
0.0
 11
223.039
 21
-39.101
 31
0.0
  0
LINE
  5
7D6
  8
0
 62
1
 10
223.039
 20
-39.101
 30
0.0
 11
223.176
 21
-39.0418
 31
0.0
  0
LINE
  5
7D7
  8
0
 62
1
 10
223.176
 20
-39.0418
 30
0.0
 11
223.316
 21
-38.9912
 31
0.0
  0
LINE
  5
7D8
  8
0
 62
1
 10
223.316
 20
-38.9912
 30
0.0
 11
223.459
 21
-38.9496
 31
0.0
  0
LINE
  5
7D9
  8
0
 62
1
 10
223.459
 20
-38.9496
 30
0.0
 11
223.605
 21
-38.9171
 31
0.0
  0
LINE
  5
7DA
  8
0
 62
1
 10
223.605
 20
-38.9171
 30
0.0
 11
223.752
 21
-38.8937
 31
0.0
  0
LINE
  5
7DB
  8
0
 62
1
 10
223.752
 20
-38.8937
 30
0.0
 11
223.901
 21
-38.8797
 31
0.0
  0
LINE
  5
7DC
  8
0
 62
1
 10
223.901
 20
-38.8797
 30
0.0
 11
224.05
 21
-38.875
 31
0.0
  0
LINE
  5
7DD
  8
0
 62
1
 10
224.05
 20
-38.875
 30
0.0
 11
224.199
 21
-38.8797
 31
0.0
  0
LINE
  5
7DE
  8
0
 62
1
 10
224.199
 20
-38.8797
 30
0.0
 11
224.348
 21
-38.8937
 31
0.0
  0
LINE
  5
7DF
  8
0
 62
1
 10
224.348
 20
-38.8937
 30
0.0
 11
224.495
 21
-38.9171
 31
0.0
  0
LINE
  5
7E0
  8
0
 62
1
 10
224.495
 20
-38.9171
 30
0.0
 11
224.641
 21
-38.9496
 31
0.0
  0
LINE
  5
7E1
  8
0
 62
1
 10
224.641
 20
-38.9496
 30
0.0
 11
224.784
 21
-38.9912
 31
0.0
  0
LINE
  5
7E2
  8
0
 62
1
 10
224.784
 20
-38.9912
 30
0.0
 11
224.924
 21
-39.0418
 31
0.0
  0
LINE
  5
7E3
  8
0
 62
1
 10
224.924
 20
-39.0418
 30
0.0
 11
225.061
 21
-39.101
 31
0.0
  0
LINE
  5
7E4
  8
0
 62
1
 10
225.061
 20
-39.101
 30
0.0
 11
225.194
 21
-39.1688
 31
0.0
  0
LINE
  5
7E5
  8
0
 62
1
 10
225.194
 20
-39.1688
 30
0.0
 11
225.323
 21
-39.2447
 31
0.0
  0
LINE
  5
7E6
  8
0
 62
1
 10
225.323
 20
-39.2447
 30
0.0
 11
225.446
 21
-39.3286
 31
0.0
  0
LINE
  5
7E7
  8
0
 62
1
 10
225.446
 20
-39.3286
 30
0.0
 11
225.564
 21
-39.42
 31
0.0
  0
LINE
  5
7E8
  8
0
 62
1
 10
225.564
 20
-39.42
 30
0.0
 11
225.676
 21
-39.5187
 31
0.0
  0
LINE
  5
7E9
  8
0
 62
1
 10
225.676
 20
-39.5187
 30
0.0
 11
225.781
 21
-39.6242
 31
0.0
  0
LINE
  5
7EA
  8
0
 62
1
 10
225.781
 20
-39.6242
 30
0.0
 11
225.88
 21
-39.7361
 31
0.0
  0
LINE
  5
7EB
  8
0
 62
1
 10
225.88
 20
-39.7361
 30
0.0
 11
225.971
 21
-39.854
 31
0.0
  0
LINE
  5
7EC
  8
0
 62
1
 10
225.971
 20
-39.854
 30
0.0
 11
226.055
 21
-39.9774
 31
0.0
  0
LINE
  5
7ED
  8
0
 62
1
 10
226.055
 20
-39.9774
 30
0.0
 11
226.131
 21
-40.1058
 31
0.0
  0
LINE
  5
7EE
  8
0
 62
1
 10
226.131
 20
-40.1058
 30
0.0
 11
226.199
 21
-40.2388
 31
0.0
  0
LINE
  5
7EF
  8
0
 62
1
 10
226.199
 20
-40.2388
 30
0.0
 11
226.258
 21
-40.3757
 31
0.0
  0
LINE
  5
7F0
  8
0
 62
1
 10
226.258
 20
-40.3757
 30
0.0
 11
226.309
 21
-40.5161
 31
0.0
  0
LINE
  5
7F1
  8
0
 62
1
 10
226.309
 20
-40.5161
 30
0.0
 11
226.35
 21
-40.6593
 31
0.0
  0
LINE
  5
7F2
  8
0
 62
1
 10
226.35
 20
-40.6593
 30
0.0
 11
226.383
 21
-40.805
 31
0.0
  0
LINE
  5
7F3
  8
0
 62
1
 10
226.383
 20
-40.805
 30
0.0
 11
226.406
 21
-40.9523
 31
0.0
  0
LINE
  5
7F4
  8
0
 62
1
 10
226.406
 20
-40.9523
 30
0.0
 11
226.42
 21
-41.1009
 31
0.0
  0
LINE
  5
7F5
  8
0
 62
1
 10
226.42
 20
-41.1009
 30
0.0
 11
226.425
 21
-41.25
 31
0.0
  0
LINE
  5
7F6
  8
0
 62
1
 10
226.425
 20
-41.25
 30
0.0
 11
226.42
 21
-41.3991
 31
0.0
  0
LINE
  5
7F7
  8
0
 62
1
 10
226.42
 20
-41.3991
 30
0.0
 11
226.406
 21
-41.5477
 31
0.0
  0
LINE
  5
7F8
  8
0
 62
1
 10
226.406
 20
-41.5477
 30
0.0
 11
226.383
 21
-41.695
 31
0.0
  0
LINE
  5
7F9
  8
0
 62
1
 10
226.383
 20
-41.695
 30
0.0
 11
226.35
 21
-41.8406
 31
0.0
  0
LINE
  5
7FA
  8
0
 62
1
 10
226.35
 20
-41.8406
 30
0.0
 11
226.309
 21
-41.9839
 31
0.0
  0
LINE
  5
7FB
  8
0
 62
1
 10
226.309
 20
-41.9839
 30
0.0
 11
226.258
 21
-42.1243
 31
0.0
  0
LINE
  5
7FC
  8
0
 62
1
 10
226.258
 20
-42.1243
 30
0.0
 11
226.199
 21
-42.2612
 31
0.0
  0
LINE
  5
7FD
  8
0
 62
1
 10
226.199
 20
-42.2612
 30
0.0
 11
226.131
 21
-42.3941
 31
0.0
  0
LINE
  5
7FE
  8
0
 62
1
 10
226.131
 20
-42.3941
 30
0.0
 11
226.055
 21
-42.5226
 31
0.0
  0
LINE
  5
7FF
  8
0
 62
1
 10
226.055
 20
-42.5226
 30
0.0
 11
225.971
 21
-42.646
 31
0.0
  0
LINE
  5
800
  8
0
 62
1
 10
225.971
 20
-42.646
 30
0.0
 11
225.88
 21
-42.7639
 31
0.0
  0
LINE
  5
801
  8
0
 62
1
 10
225.88
 20
-42.7639
 30
0.0
 11
225.781
 21
-42.8758
 31
0.0
  0
LINE
  5
802
  8
0
 62
1
 10
225.781
 20
-42.8758
 30
0.0
 11
225.676
 21
-42.9813
 31
0.0
  0
LINE
  5
803
  8
0
 62
1
 10
225.676
 20
-42.9813
 30
0.0
 11
225.564
 21
-43.08
 31
0.0
  0
LINE
  5
804
  8
0
 62
1
 10
225.564
 20
-43.08
 30
0.0
 11
225.446
 21
-43.1714
 31
0.0
  0
LINE
  5
805
  8
0
 62
1
 10
225.446
 20
-43.1714
 30
0.0
 11
225.323
 21
-43.2553
 31
0.0
  0
LINE
  5
806
  8
0
 62
1
 10
225.323
 20
-43.2553
 30
0.0
 11
225.194
 21
-43.3312
 31
0.0
  0
LINE
  5
807
  8
0
 62
1
 10
225.194
 20
-43.3312
 30
0.0
 11
225.061
 21
-43.399
 31
0.0
  0
LINE
  5
808
  8
0
 62
1
 10
225.061
 20
-43.399
 30
0.0
 11
224.924
 21
-43.4582
 31
0.0
  0
LINE
  5
809
  8
0
 62
1
 10
224.924
 20
-43.4582
 30
0.0
 11
224.784
 21
-43.5088
 31
0.0
  0
LINE
  5
80A
  8
0
 62
1
 10
224.784
 20
-43.5088
 30
0.0
 11
224.641
 21
-43.5504
 31
0.0
  0
LINE
  5
80B
  8
0
 62
1
 10
224.641
 20
-43.5504
 30
0.0
 11
224.495
 21
-43.5829
 31
0.0
  0
LINE
  5
80C
  8
0
 62
1
 10
224.495
 20
-43.5829
 30
0.0
 11
224.348
 21
-43.6063
 31
0.0
  0
LINE
  5
80D
  8
0
 62
1
 10
224.348
 20
-43.6063
 30
0.0
 11
224.199
 21
-43.6203
 31
0.0
  0
LINE
  5
80E
  8
0
 62
1
 10
224.199
 20
-43.6203
 30
0.0
 11
224.05
 21
-43.625
 31
0.0
  0
LINE
  5
80F
  8
0
 62
1
 10
224.05
 20
-43.625
 30
0.0
 11
223.901
 21
-43.6203
 31
0.0
  0
LINE
  5
810
  8
0
 62
1
 10
141.401
 20
-43.6203
 30
0.0
 11
141.252
 21
-43.6063
 31
0.0
  0
LINE
  5
811
  8
0
 62
1
 10
141.252
 20
-43.6063
 30
0.0
 11
141.105
 21
-43.5829
 31
0.0
  0
LINE
  5
812
  8
0
 62
1
 10
141.105
 20
-43.5829
 30
0.0
 11
140.959
 21
-43.5504
 31
0.0
  0
LINE
  5
813
  8
0
 62
1
 10
140.959
 20
-43.5504
 30
0.0
 11
140.816
 21
-43.5088
 31
0.0
  0
LINE
  5
814
  8
0
 62
1
 10
140.816
 20
-43.5088
 30
0.0
 11
140.676
 21
-43.4582
 31
0.0
  0
LINE
  5
815
  8
0
 62
1
 10
140.676
 20
-43.4582
 30
0.0
 11
140.539
 21
-43.399
 31
0.0
  0
LINE
  5
816
  8
0
 62
1
 10
140.539
 20
-43.399
 30
0.0
 11
140.406
 21
-43.3312
 31
0.0
  0
LINE
  5
817
  8
0
 62
1
 10
140.406
 20
-43.3312
 30
0.0
 11
140.277
 21
-43.2553
 31
0.0
  0
LINE
  5
818
  8
0
 62
1
 10
140.277
 20
-43.2553
 30
0.0
 11
140.154
 21
-43.1714
 31
0.0
  0
LINE
  5
819
  8
0
 62
1
 10
140.154
 20
-43.1714
 30
0.0
 11
140.036
 21
-43.08
 31
0.0
  0
LINE
  5
81A
  8
0
 62
1
 10
140.036
 20
-43.08
 30
0.0
 11
139.924
 21
-42.9813
 31
0.0
  0
LINE
  5
81B
  8
0
 62
1
 10
139.924
 20
-42.9813
 30
0.0
 11
139.819
 21
-42.8758
 31
0.0
  0
LINE
  5
81C
  8
0
 62
1
 10
139.819
 20
-42.8758
 30
0.0
 11
139.72
 21
-42.7639
 31
0.0
  0
LINE
  5
81D
  8
0
 62
1
 10
139.72
 20
-42.7639
 30
0.0
 11
139.629
 21
-42.646
 31
0.0
  0
LINE
  5
81E
  8
0
 62
1
 10
139.629
 20
-42.646
 30
0.0
 11
139.545
 21
-42.5226
 31
0.0
  0
LINE
  5
81F
  8
0
 62
1
 10
139.545
 20
-42.5226
 30
0.0
 11
139.469
 21
-42.3941
 31
0.0
  0
LINE
  5
820
  8
0
 62
1
 10
139.469
 20
-42.3941
 30
0.0
 11
139.401
 21
-42.2612
 31
0.0
  0
LINE
  5
821
  8
0
 62
1
 10
139.401
 20
-42.2612
 30
0.0
 11
139.342
 21
-42.1243
 31
0.0
  0
LINE
  5
822
  8
0
 62
1
 10
139.342
 20
-42.1243
 30
0.0
 11
139.291
 21
-41.9839
 31
0.0
  0
LINE
  5
823
  8
0
 62
1
 10
139.291
 20
-41.9839
 30
0.0
 11
139.25
 21
-41.8406
 31
0.0
  0
LINE
  5
824
  8
0
 62
1
 10
139.25
 20
-41.8406
 30
0.0
 11
139.217
 21
-41.695
 31
0.0
  0
LINE
  5
825
  8
0
 62
1
 10
139.217
 20
-41.695
 30
0.0
 11
139.194
 21
-41.5477
 31
0.0
  0
LINE
  5
826
  8
0
 62
1
 10
139.194
 20
-41.5477
 30
0.0
 11
139.18
 21
-41.3991
 31
0.0
  0
LINE
  5
827
  8
0
 62
1
 10
139.18
 20
-41.3991
 30
0.0
 11
139.175
 21
-41.25
 31
0.0
  0
LINE
  5
828
  8
0
 62
1
 10
139.175
 20
-41.25
 30
0.0
 11
139.18
 21
-41.1009
 31
0.0
  0
LINE
  5
829
  8
0
 62
1
 10
139.18
 20
-41.1009
 30
0.0
 11
139.194
 21
-40.9523
 31
0.0
  0
LINE
  5
82A
  8
0
 62
1
 10
139.194
 20
-40.9523
 30
0.0
 11
139.217
 21
-40.805
 31
0.0
  0
LINE
  5
82B
  8
0
 62
1
 10
139.217
 20
-40.805
 30
0.0
 11
139.25
 21
-40.6593
 31
0.0
  0
LINE
  5
82C
  8
0
 62
1
 10
139.25
 20
-40.6593
 30
0.0
 11
139.291
 21
-40.5161
 31
0.0
  0
LINE
  5
82D
  8
0
 62
1
 10
139.291
 20
-40.5161
 30
0.0
 11
139.342
 21
-40.3757
 31
0.0
  0
LINE
  5
82E
  8
0
 62
1
 10
139.342
 20
-40.3757
 30
0.0
 11
139.401
 21
-40.2388
 31
0.0
  0
LINE
  5
82F
  8
0
 62
1
 10
139.401
 20
-40.2388
 30
0.0
 11
139.469
 21
-40.1058
 31
0.0
  0
LINE
  5
830
  8
0
 62
1
 10
139.469
 20
-40.1058
 30
0.0
 11
139.545
 21
-39.9774
 31
0.0
  0
LINE
  5
831
  8
0
 62
1
 10
139.545
 20
-39.9774
 30
0.0
 11
139.629
 21
-39.854
 31
0.0
  0
LINE
  5
832
  8
0
 62
1
 10
139.629
 20
-39.854
 30
0.0
 11
139.72
 21
-39.7361
 31
0.0
  0
LINE
  5
833
  8
0
 62
1
 10
139.72
 20
-39.7361
 30
0.0
 11
139.819
 21
-39.6242
 31
0.0
  0
LINE
  5
834
  8
0
 62
1
 10
139.819
 20
-39.6242
 30
0.0
 11
139.924
 21
-39.5187
 31
0.0
  0
LINE
  5
835
  8
0
 62
1
 10
139.924
 20
-39.5187
 30
0.0
 11
140.036
 21
-39.42
 31
0.0
  0
LINE
  5
836
  8
0
 62
1
 10
140.036
 20
-39.42
 30
0.0
 11
140.154
 21
-39.3286
 31
0.0
  0
LINE
  5
837
  8
0
 62
1
 10
140.154
 20
-39.3286
 30
0.0
 11
140.277
 21
-39.2447
 31
0.0
  0
LINE
  5
838
  8
0
 62
1
 10
140.277
 20
-39.2447
 30
0.0
 11
140.406
 21
-39.1688
 31
0.0
  0
LINE
  5
839
  8
0
 62
1
 10
140.406
 20
-39.1688
 30
0.0
 11
140.539
 21
-39.101
 31
0.0
  0
LINE
  5
83A
  8
0
 62
1
 10
140.539
 20
-39.101
 30
0.0
 11
140.676
 21
-39.0418
 31
0.0
  0
LINE
  5
83B
  8
0
 62
1
 10
140.676
 20
-39.0418
 30
0.0
 11
140.816
 21
-38.9912
 31
0.0
  0
LINE
  5
83C
  8
0
 62
1
 10
140.816
 20
-38.9912
 30
0.0
 11
140.959
 21
-38.9496
 31
0.0
  0
LINE
  5
83D
  8
0
 62
1
 10
140.959
 20
-38.9496
 30
0.0
 11
141.105
 21
-38.9171
 31
0.0
  0
LINE
  5
83E
  8
0
 62
1
 10
141.105
 20
-38.9171
 30
0.0
 11
141.252
 21
-38.8937
 31
0.0
  0
LINE
  5
83F
  8
0
 62
1
 10
141.252
 20
-38.8937
 30
0.0
 11
141.401
 21
-38.8797
 31
0.0
  0
LINE
  5
840
  8
0
 62
1
 10
141.401
 20
-38.8797
 30
0.0
 11
141.55
 21
-38.875
 31
0.0
  0
LINE
  5
841
  8
0
 62
1
 10
141.55
 20
-38.875
 30
0.0
 11
141.699
 21
-38.8797
 31
0.0
  0
LINE
  5
842
  8
0
 62
1
 10
141.699
 20
-38.8797
 30
0.0
 11
141.848
 21
-38.8937
 31
0.0
  0
LINE
  5
843
  8
0
 62
1
 10
141.848
 20
-38.8937
 30
0.0
 11
141.995
 21
-38.9171
 31
0.0
  0
LINE
  5
844
  8
0
 62
1
 10
141.995
 20
-38.9171
 30
0.0
 11
142.141
 21
-38.9496
 31
0.0
  0
LINE
  5
845
  8
0
 62
1
 10
142.141
 20
-38.9496
 30
0.0
 11
142.284
 21
-38.9912
 31
0.0
  0
LINE
  5
846
  8
0
 62
1
 10
142.284
 20
-38.9912
 30
0.0
 11
142.424
 21
-39.0418
 31
0.0
  0
LINE
  5
847
  8
0
 62
1
 10
142.424
 20
-39.0418
 30
0.0
 11
142.561
 21
-39.101
 31
0.0
  0
LINE
  5
848
  8
0
 62
1
 10
142.561
 20
-39.101
 30
0.0
 11
142.694
 21
-39.1688
 31
0.0
  0
LINE
  5
849
  8
0
 62
1
 10
142.694
 20
-39.1688
 30
0.0
 11
142.823
 21
-39.2447
 31
0.0
  0
LINE
  5
84A
  8
0
 62
1
 10
142.823
 20
-39.2447
 30
0.0
 11
142.946
 21
-39.3286
 31
0.0
  0
LINE
  5
84B
  8
0
 62
1
 10
142.946
 20
-39.3286
 30
0.0
 11
143.064
 21
-39.42
 31
0.0
  0
LINE
  5
84C
  8
0
 62
1
 10
143.064
 20
-39.42
 30
0.0
 11
143.176
 21
-39.5187
 31
0.0
  0
LINE
  5
84D
  8
0
 62
1
 10
143.176
 20
-39.5187
 30
0.0
 11
143.281
 21
-39.6242
 31
0.0
  0
LINE
  5
84E
  8
0
 62
1
 10
143.281
 20
-39.6242
 30
0.0
 11
143.38
 21
-39.7361
 31
0.0
  0
LINE
  5
84F
  8
0
 62
1
 10
143.38
 20
-39.7361
 30
0.0
 11
143.471
 21
-39.854
 31
0.0
  0
LINE
  5
850
  8
0
 62
1
 10
143.471
 20
-39.854
 30
0.0
 11
143.555
 21
-39.9774
 31
0.0
  0
LINE
  5
851
  8
0
 62
1
 10
143.555
 20
-39.9774
 30
0.0
 11
143.631
 21
-40.1058
 31
0.0
  0
LINE
  5
852
  8
0
 62
1
 10
143.631
 20
-40.1058
 30
0.0
 11
143.699
 21
-40.2388
 31
0.0
  0
LINE
  5
853
  8
0
 62
1
 10
143.699
 20
-40.2388
 30
0.0
 11
143.758
 21
-40.3757
 31
0.0
  0
LINE
  5
854
  8
0
 62
1
 10
143.758
 20
-40.3757
 30
0.0
 11
143.809
 21
-40.5161
 31
0.0
  0
LINE
  5
855
  8
0
 62
1
 10
143.809
 20
-40.5161
 30
0.0
 11
143.85
 21
-40.6593
 31
0.0
  0
LINE
  5
856
  8
0
 62
1
 10
143.85
 20
-40.6593
 30
0.0
 11
143.883
 21
-40.805
 31
0.0
  0
LINE
  5
857
  8
0
 62
1
 10
143.883
 20
-40.805
 30
0.0
 11
143.906
 21
-40.9523
 31
0.0
  0
LINE
  5
858
  8
0
 62
1
 10
143.906
 20
-40.9523
 30
0.0
 11
143.92
 21
-41.1009
 31
0.0
  0
LINE
  5
859
  8
0
 62
1
 10
143.92
 20
-41.1009
 30
0.0
 11
143.925
 21
-41.25
 31
0.0
  0
LINE
  5
85A
  8
0
 62
1
 10
143.925
 20
-41.25
 30
0.0
 11
143.92
 21
-41.3991
 31
0.0
  0
LINE
  5
85B
  8
0
 62
1
 10
143.92
 20
-41.3991
 30
0.0
 11
143.906
 21
-41.5477
 31
0.0
  0
LINE
  5
85C
  8
0
 62
1
 10
143.906
 20
-41.5477
 30
0.0
 11
143.883
 21
-41.695
 31
0.0
  0
LINE
  5
85D
  8
0
 62
1
 10
143.883
 20
-41.695
 30
0.0
 11
143.85
 21
-41.8406
 31
0.0
  0
LINE
  5
85E
  8
0
 62
1
 10
143.85
 20
-41.8406
 30
0.0
 11
143.809
 21
-41.9839
 31
0.0
  0
LINE
  5
85F
  8
0
 62
1
 10
143.809
 20
-41.9839
 30
0.0
 11
143.758
 21
-42.1243
 31
0.0
  0
LINE
  5
860
  8
0
 62
1
 10
143.758
 20
-42.1243
 30
0.0
 11
143.699
 21
-42.2612
 31
0.0
  0
LINE
  5
861
  8
0
 62
1
 10
143.699
 20
-42.2612
 30
0.0
 11
143.631
 21
-42.3941
 31
0.0
  0
LINE
  5
862
  8
0
 62
1
 10
143.631
 20
-42.3941
 30
0.0
 11
143.555
 21
-42.5226
 31
0.0
  0
LINE
  5
863
  8
0
 62
1
 10
143.555
 20
-42.5226
 30
0.0
 11
143.471
 21
-42.646
 31
0.0
  0
LINE
  5
864
  8
0
 62
1
 10
143.471
 20
-42.646
 30
0.0
 11
143.38
 21
-42.7639
 31
0.0
  0
LINE
  5
865
  8
0
 62
1
 10
143.38
 20
-42.7639
 30
0.0
 11
143.281
 21
-42.8758
 31
0.0
  0
LINE
  5
866
  8
0
 62
1
 10
143.281
 20
-42.8758
 30
0.0
 11
143.176
 21
-42.9813
 31
0.0
  0
LINE
  5
867
  8
0
 62
1
 10
143.176
 20
-42.9813
 30
0.0
 11
143.064
 21
-43.08
 31
0.0
  0
LINE
  5
868
  8
0
 62
1
 10
143.064
 20
-43.08
 30
0.0
 11
142.946
 21
-43.1714
 31
0.0
  0
LINE
  5
869
  8
0
 62
1
 10
142.946
 20
-43.1714
 30
0.0
 11
142.823
 21
-43.2553
 31
0.0
  0
LINE
  5
86A
  8
0
 62
1
 10
142.823
 20
-43.2553
 30
0.0
 11
142.694
 21
-43.3312
 31
0.0
  0
LINE
  5
86B
  8
0
 62
1
 10
142.694
 20
-43.3312
 30
0.0
 11
142.561
 21
-43.399
 31
0.0
  0
LINE
  5
86C
  8
0
 62
1
 10
142.561
 20
-43.399
 30
0.0
 11
142.424
 21
-43.4582
 31
0.0
  0
LINE
  5
86D
  8
0
 62
1
 10
142.424
 20
-43.4582
 30
0.0
 11
142.284
 21
-43.5088
 31
0.0
  0
LINE
  5
86E
  8
0
 62
1
 10
142.284
 20
-43.5088
 30
0.0
 11
142.141
 21
-43.5504
 31
0.0
  0
LINE
  5
86F
  8
0
 62
1
 10
142.141
 20
-43.5504
 30
0.0
 11
141.995
 21
-43.5829
 31
0.0
  0
LINE
  5
870
  8
0
 62
1
 10
141.995
 20
-43.5829
 30
0.0
 11
141.848
 21
-43.6063
 31
0.0
  0
LINE
  5
871
  8
0
 62
1
 10
141.848
 20
-43.6063
 30
0.0
 11
141.699
 21
-43.6203
 31
0.0
  0
LINE
  5
872
  8
0
 62
1
 10
141.699
 20
-43.6203
 30
0.0
 11
141.55
 21
-43.625
 31
0.0
  0
LINE
  5
873
  8
0
 62
1
 10
141.55
 20
-43.625
 30
0.0
 11
141.401
 21
-43.6203
 31
0.0
  0
ENDSEC
  0
EOF
